<?xml version="1.0" standalone="no"?>
<!DOCTYPE svg PUBLIC "-//W3C//DTD SVG 1.1//EN" "http://www.w3.org/Graphics/SVG/1.1/DTD/svg11.dtd">
<svg xmlns="http://www.w3.org/2000/svg">
<metadata>Copyright (C) 2016 by Dave Gandy</metadata>
<defs>
<font id="fontawesome" horiz-adv-x="1000" >
<font-face font-family="Font Awesome" font-weight="400" font-stretch="normal" units-per-em="1000" ascent="850" descent="-150" />
<missing-glyph horiz-adv-x="1000" />
<glyph glyph-name="glass" unicode="&#x1f378;" d="M948 746q0-19-24-43L571 350V-79h179q15 0 25-10t11-25-11-25-25-11H250q-14 0-25 11t-11 25 11 25 25 10h179v429L76 703q-24 24-24 43 0 13 10 21t21 9 24 3h786q13 0 24-3t21-9 10-21z" horiz-adv-x="1000" />
<glyph glyph-name="music" unicode="&#x266b;" d="M857 725V100q0-28-19-50t-48-33-58-18-53-6-54 6-58 18-48 33-19 50 19 50 48 33 58 18 54 6q58 0 107-22v300L357 353V-43q0-28-19-49t-48-34-58-18-53-6-54 6-58 18-48 34T0-43 19 7t48 34 58 17 54 6q58 0 107-21v539q0 17 10 32t28 20l464 142q7 3 16 3 22 0 38-16t15-38z" horiz-adv-x="857.1" />
<glyph glyph-name="search" unicode="&#x1f50d;" d="M643 386q0 103-74 176t-176 74-177-74-73-176 73-177 177-73 176 73 74 177zM929-79q0-29-22-50t-50-21q-30 0-50 21L616 62Q516-7 393-7q-80 0-153 31t-125 84-84 125T0 386t31 152 84 126 125 84 153 31 152-31 126-84 84-126 31-152q0-123-69-223L908-28q21-21 21-51z" horiz-adv-x="928.6" />
<glyph glyph-name="mail" unicode="&#x2709;" d="M929 11v428q-18-20-39-36-149-115-238-189-28-24-46-37t-48-28-57-13h-2q-26 0-57 13t-48 28-46 37q-88 74-238 189-21 16-39 36V11q0-7 6-13t12-5h822q7 0 12 5t6 13z m0 586v14t-1 7-1 7-3 5-5 4-8 2H89q-7 0-12-6t-6-12q0-94 82-159 108-84 224-176 4-3 20-17t25-21 25-17 28-16 24-5h2q11 0 24 5t28 16 25 17 25 21 20 17q116 92 224 176 30 24 56 65t26 73z m71 21V11q0-37-26-63t-63-27H89q-37 0-63 27T0 11v607q0 37 26 63t63 26h822q36 0 63-26t26-63z" horiz-adv-x="1000" />
<glyph glyph-name="mail-alt" unicode="&#xf0e0;" d="M1000 454V11q0-37-26-63t-63-27H89q-37 0-63 27T0 11v443q25-28 56-49 202-137 278-192 31-24 51-37t53-27 61-13h2q28 0 61 13t53 27 51 37q95 68 278 192 32 22 56 49z m0 164q0-44-27-84t-68-69Q695 319 643 284q-5-4-23-17t-30-22-30-18-32-15-27-5h-2q-12 0-28 5t-32 15-29 18-30 22-23 17q-51 35-147 101T96 465q-35 23-65 64T0 606q0 43 23 72t66 29h822q36 0 62-26t27-63z" horiz-adv-x="1000" />
<glyph glyph-name="mail-squared" unicode="&#xf199;" d="M696 779q67 0 114-48t47-113V82q0-66-47-113T696-79H161Q94-79 47-31T0 82v536q0 66 47 113t114 48h535z m18-590v244q-17-20-35-31-19-12-74-47t-85-56q-55-38-91-38-37 0-92 38-26 18-79 52t-79 52q-7 4-19 15t-17 15V189q0-22 15-38t38-15h465q22 0 38 15t15 38z m0 320q0 23-15 39t-38 16H196q-22 0-38-15t-15-38q0-21 17-43t37-36q27-18 77-50t72-46q2-1 10-6t12-8 11-7 14-8 12-5 12-4 12-2 11 2 13 4 12 5 13 8 11 7 12 8 10 6l149 97q19 13 37 35t17 41z" horiz-adv-x="857.1" />
<glyph glyph-name="heart" unicode="&#x2665;" d="M500-79q-14 0-25 10L127 268q-5 5-15 15t-31 36-38 55-30 67-13 77q0 123 71 192t196 70q34 0 70-12t67-33 54-38 42-38q20 20 42 38t54 38 67 33 70 12q125 0 196-70t71-192q0-123-128-251L525-68q-10-11-25-11z" horiz-adv-x="1000" />
<glyph glyph-name="heart-empty" unicode="&#x2661;" d="M929 517q0 46-12 80t-31 55-46 33-52 18-55 4-62-14-62-36-48-40-34-34q-10-13-27-13t-27 13q-14 15-34 34t-48 40-62 36-62 14-55-4-52-18-46-33-31-55-12-80q0-93 105-198L500 7l324 312q105 105 105 198z m71 0q0-123-128-251L525-68q-10-11-25-11t-25 11L127 267q-5 5-15 15t-31 36-38 55-30 67-13 77q0 123 71 192t196 70q34 0 70-12t67-33 54-38 42-38q20 20 42 38t54 38 67 33 70 12q125 0 196-70t71-192z" horiz-adv-x="1000" />
<glyph glyph-name="star" unicode="&#x2605;" d="M929 489q0-12-15-27L712 265l48-279q0-4 0-12 0-11-6-19t-17-8q-10 0-22 6L464 85 214-47q-13-6-23-6-11 0-17 8t-6 19q0 4 1 12l48 279L14 462Q0 477 0 489q0 21 31 26l280 40 126 254q10 23 27 23t28-23l125-254 280-40q32-5 32-26z" horiz-adv-x="928.6" />
<glyph glyph-name="star-empty" unicode="&#x2606;" d="M635 290l170 166-235 34-106 213-105-213-236-34 171-166-41-235 211 111L675 55z m294 199q0-12-15-27L712 265l48-279q0-4 0-12 0-27-23-27-10 0-22 6L464 85 214-47q-13-6-23-6-11 0-17 8t-6 19q0 4 1 12l48 279L14 462Q0 477 0 489q0 21 31 26l280 40 126 254q10 23 27 23t28-23l125-254 280-40q32-5 32-26z" horiz-adv-x="928.6" />
<glyph glyph-name="star-half" unicode="&#xe701;" d="M464 832V85L214-47q-13-6-23-6-11 0-17 8t-6 19q0 4 1 12l48 279L14 462Q0 477 0 489q0 21 31 26l280 40 126 254q10 23 27 23z" horiz-adv-x="500" />
<glyph glyph-name="star-half-alt" unicode="&#xf123;" d="M662 316l143 140-198 29-37 5-17 34-89 179V166l33-17 178-94-34 198-6 37z m252 146L712 265l48-279q2-19-4-29t-19-10q-9 0-22 6L464 85 214-47q-13-6-23-6-12 0-19 10t-3 29l48 279L14 462q-18 18-13 33t30 20l280 40 126 254q11 23 27 23t28-23l125-254 280-40q25-4 30-20t-13-33z" horiz-adv-x="928.6" />
<glyph glyph-name="user" unicode="&#x1f464;" d="M714 69q0-61-35-104t-84-44H119q-49 0-84 44T0 69q0 48 5 90t17 85 33 73 52 49 76 20q73-72 174-72t175 72q42 0 75-20t52-49 33-73 18-85 4-90zM571 564q0-88-62-151t-152-63-151 63-63 151 63 152 151 63 152-63 62-152z" horiz-adv-x="714.3" />
<glyph glyph-name="user-plus" unicode="&#xf234;" d="M393 350q-89 0-152 63t-62 151 62 152 152 63 151-63 63-152-63-151-151-63z m536-71h196q7 0 13-6t5-12V154q0-8-5-13t-13-5H929V-61q0-7-6-12t-12-6H804q-8 0-13 6t-5 12v197H589q-7 0-12 5t-6 13v107q0 7 6 12t12 6h197v196q0 7 5 13t13 5h107q7 0 12-5t6-13V279zM518 154q0-29 21-51t50-21h143V-51q-38-28-95-28H149Q82-79 41-40T0 66q0 30 2 58t8 61 15 60 24 55 34 45 48 30 62 11q11 0 22-10 44-34 86-51t92-17 92 17 86 51q11 10 22 10 73 0 121-54H589q-29 0-50-21t-21-50V154z" horiz-adv-x="1142.9" />
<glyph glyph-name="user-times" unicode="&#xf235;" d="M393 350q-89 0-152 63t-62 151 62 152 152 63 151-63 63-152-63-151-151-63z m601-179l139-138q5-5 5-13t-5-13l-76-75q-5-5-12-5-8 0-13 5L893 70 754-69q-5-5-13-5-7 0-12 5L653 7q-5 5-5 13 0 7 5 12l139 139-139 139q-5 5-5 13 0 7 5 12l76 76q5 5 12 5 8 0 13-5l139-139 139 139q5 5 13 5 7 0 12-5l76-76q5-4 5-12t-5-13z m-278 0L615 70q-21-20-21-50t21-51l46-46q-11-2-24-2H149Q82-79 41-40T0 66q0 30 2 58t8 61 15 60 24 55 34 45 48 30 62 11q11 0 22-10 86-68 178-68t178 68q11 10 22 10 15 0 31-4-15-15-22-27t-8-32q0-30 21-51z" horiz-adv-x="1142.9" />
<glyph glyph-name="users" unicode="&#x1f465;" d="M331 350q-91-3-148-71h-75q-46 0-77 22T0 367q0 197 69 197 4 0 25-11t54-24 66-12q38 0 75 13-3-21-3-37 0-78 45-143zM929-5q0-67-41-106t-108-39H292q-68 0-108 39T143-5q0 29 2 57t8 61 14 61 24 54 35 45 48 30 62 11q5 0 24-12t41-26 59-27 76-12 75 12 60 27 40 26 24 12q34 0 63-11t47-30 35-45 24-54 15-61 8-61 2-57zM357 707q0-59-42-101t-101-42-101 42-42 101 42 101 101 42 101-42 42-101z m393-214q0-89-63-152t-151-62-152 62-63 152 63 151 152 63 151-63 63-151z m321-126q0-43-31-66t-77-22h-75q-57 68-147 71 45 65 45 143 0 16-3 37 37-13 74-13 33 0 67 12t54 24 24 11q69 0 69-197z m-71 340q0-59-42-101t-101-42-101 42-42 101 42 101 101 42 101-42 42-101z" horiz-adv-x="1071.4" />
<glyph glyph-name="male" unicode="&#xf183;" d="M571 457V225q0-22-15-38t-38-16-38 16-16 38v196h-35V-87q0-26-19-45t-44-18-44 18-18 44v259h-36V-87q0-26-19-45t-44-18-44 18-18 44v509h-36V225q0-22-15-38t-38-16-38 16-16 38v232q0 45 31 76t76 31h357q45 0 76-31t31-76zM411 707q0-52-37-88t-88-37-89 37-36 88 36 89 89 36 88-36 37-89z" horiz-adv-x="571.4" />
<glyph glyph-name="female" unicode="&#xf182;" d="M714 261q0-23-15-38t-38-16q-29 0-45 24L489 421h-25v-73l138-230q5-8 5-18 0-15-11-25t-25-11H464V-88q0-25-18-44t-44-18h-89q-26 0-45 18t-18 44V64H143q-15 0-25 11t-11 25q0 10 5 18l138 230v73h-25L98 231q-16-24-44-24-23 0-38 16T0 261q0 16 9 29l143 215q41 59 98 59h214q58 0 99-59l142-215q9-13 9-29zM482 707q0-52-36-88t-89-37-88 37-37 88 37 89 88 36 89-36 36-89z" horiz-adv-x="714.3" />
<glyph glyph-name="child" unicode="&#xf1ae;" d="M663 544L500 381V-79q0-25-18-44t-44-18-45 18-18 44v215h-36V-79q0-25-18-44t-44-18-44 18-19 44v460L51 544q-15 16-15 38t15 38q17 16 39 16t37-16l127-127h206l127 127q16 16 38 16t38-16q16-16 16-38t-16-38z m-181 92q0-52-36-89t-89-36-88 36-37 89 37 88 88 37 89-37 36-88z" horiz-adv-x="714.3" />
<glyph glyph-name="user-secret" unicode="&#xf21b;" d="M321-7l54 250-54 71-71 36z m143 0l72 357-72-36-53-71z m90 564q-2 2-3 3-5 4-53 4-39 0-93-10-4-1-12-1t-12 1q-54 10-93 10-48 0-54-4-1-1-2-4 1-10 2-15 1-1 5-3t4-6q1-2 4-12t4-11 4-9 5-10 5-8 6-7 8-6 10-4 11-2 14-1q20 0 33 7t18 16 8 20 7 16 9 7h7q6 0 10-7t6-16 8-20 19-16 32-7q8 0 14 1t12 2 9 4 8 6 7 7 5 8 5 10 4 9 4 12 4 11q1 4 4 6t4 3q2 5 3 15zM786 66q0-68-41-106T637-79H149Q82-79 41-40T0 66q0 34 3 66t10 70 21 69 36 58 52 41L71 493h120q-12 36-12 71 0 7 1 18-109 22-109 54 0 31 118 55 9 35 28 75t40 63q18 21 42 21 17 0 47-17t47-18 47 18 47 17q24 0 42-21 20-23 39-63t29-75q117-24 117-55 0-32-108-54 4-45-11-89h119l-45-126q35-18 60-54t36-80 16-84 5-83z" horiz-adv-x="857.1" />
<glyph glyph-name="video" unicode="&#x1f3ac;" d="M214-43v72q0 14-10 25t-25 10h-72q-14 0-25-10T71 29v-72q0-14 11-25t25-11h72q14 0 25 11t10 25z m0 214v72q0 14-10 25t-25 11h-72q-14 0-25-11t-11-25v-72q0-14 11-25t25-10h72q14 0 25 10t10 25z m0 215v71q0 15-10 25t-25 11h-72q-14 0-25-11t-11-25v-71q0-15 11-25t25-11h72q14 0 25 11t10 25zM786-43v286q0 14-11 25t-25 11H321q-14 0-25-11t-10-25V-43q0-14 10-25t25-11h429q15 0 25 11t11 25zM214 600v71q0 15-10 25t-25 11h-72q-14 0-25-11t-11-25v-71q0-15 11-25t25-11h72q14 0 25 11t10 25z m786-643v72q0 14-11 25t-25 10h-71q-15 0-25-10t-11-25v-72q0-14 11-25t25-11h71q15 0 25 11t11 25zM786 386v285q0 15-11 25t-25 11H321q-14 0-25-11t-10-25V386q0-15 10-25t25-11h429q15 0 25 11t11 25z m214-215v72q0 14-11 25t-25 11h-71q-15 0-25-11t-11-25v-72q0-14 11-25t25-10h71q15 0 25 10t11 25z m0 215v71q0 15-11 25t-25 11h-71q-15 0-25-11t-11-25v-71q0-15 11-25t25-11h71q15 0 25 11t11 25z m0 214v71q0 15-11 25t-25 11h-71q-15 0-25-11t-11-25v-71q0-15 11-25t25-11h71q15 0 25 11t11 25z m71 89V-61q0-37-26-63t-63-26H89q-37 0-63 26T0-61v750q0 37 26 63t63 27h893q37 0 63-27t26-63z" horiz-adv-x="1071.4" />
<glyph glyph-name="videocam" unicode="&#x1f3a5;" d="M1000 654V46q0-23-22-33-7-2-14-2-15 0-25 10L714 246v-92q0-67-47-114T554-7H161Q94-7 47 40T0 154v392q0 67 47 114t114 47h393q66 0 113-47t47-114v-92l225 225q10 10 25 10 7 0 14-2 22-10 22-33z" horiz-adv-x="1000" />
<glyph glyph-name="picture" unicode="&#x1f304;" d="M357 529q0-45-31-76t-76-32-76 32-31 76 31 76 76 31 76-32 31-75z m572-215V64H143v107l178 179 90-89 285 285z m53 393H89q-7 0-12-5t-6-13V11q0-7 6-13t12-5h893q7 0 13 5t5 13v678q0 8-5 13t-13 5z m89-18V11q0-37-26-63t-63-27H89q-37 0-63 27T0 11v678q0 37 26 63t63 27h893q37 0 63-27t26-63z" horiz-adv-x="1071.4" />
<glyph glyph-name="camera" unicode="&#x1f4f7;" d="M536 475q66 0 113-47t47-114-47-113-113-47-114 47-47 113 47 114 114 47z m393 232q59 0 101-42t41-101V64q0-59-41-101T929-79H143Q84-79 42-37T0 64v500q0 59 42 101t101 42h125l28 76q11 27 39 47t58 20h286q29 0 57-20t39-47l29-76h125zM536 64q103 0 176 74t74 176-74 177-176 73-177-73-73-177 73-176 177-74z" horiz-adv-x="1071.4" />
<glyph glyph-name="camera-alt" unicode="&#xe70f;" d="M518 386q0 7-5 12t-13 6q-37 0-63-27t-26-63q0-7 5-12t13-6 12 5 5 13q0 23 16 38t38 16q8 0 13 5t5 13z m125-73q0-59-42-101t-101-42-101 42-42 101 42 101 101 42 101-42 42-101zM71-7h858v71H71V-7z m643 320q0 89-63 152t-151 62-151-62-63-152 62-151 152-63 152 63 62 151zM143 671h214v72H143v-72zM71 564h858v143H467l-36-71H71v-72z m929 143V-7q0-30-21-51t-50-21H71q-29 0-50 21T0-7v714q0 30 21 51t50 21h858q29 0 50-21t21-51z" horiz-adv-x="1000" />
<glyph glyph-name="th-large" unicode="&#xe708;" d="M429 279V64q0-29-22-50T357-7H71Q42-7 21 14T0 64v215q0 29 21 50t50 21h286q29 0 50-21t22-50z m0 428V493q0-29-22-50t-50-22H71q-29 0-50 22T0 493v214q0 29 21 50t50 22h286q29 0 50-22t22-50z m500-428V64q0-29-22-50T857-7H571q-29 0-50 21t-21 50v215q0 29 21 50t50 21h286q29 0 50-21t22-50z m0 428V493q0-29-22-50t-50-22H571q-29 0-50 22t-21 50v214q0 29 21 50t50 22h286q29 0 50-22t22-50z" horiz-adv-x="928.6" />
<glyph glyph-name="th" unicode="&#x268f;" d="M286 154V46q0-22-16-37T232-7H54Q31-7 16 9T0 46v108q0 22 16 38t38 15h178q22 0 38-15t16-38z m0 285V332q0-22-16-38t-38-15H54q-23 0-38 15T0 332v107q0 23 16 38t38 16h178q22 0 38-16t16-38z m357-285V46q0-22-16-37T589-7H411q-23 0-38 16t-16 37v108q0 22 16 38t38 15h178q23 0 38-15t16-38zM286 725V618q0-23-16-38t-38-16H54q-23 0-38 16T0 618v107q0 22 16 38t38 16h178q22 0 38-16t16-38z m357-286V332q0-22-16-38t-38-15H411q-23 0-38 15t-16 38v107q0 23 16 38t38 16h178q23 0 38-16t16-38z m357-285V46q0-22-16-37T946-7H768q-23 0-38 16t-16 37v108q0 22 16 38t38 15h178q23 0 38-15t16-38zM643 725V618q0-23-16-38t-38-16H411q-23 0-38 16t-16 38v107q0 22 16 38t38 16h178q23 0 38-16t16-38z m357-286V332q0-22-16-38t-38-15H768q-23 0-38 15t-16 38v107q0 23 16 38t38 16h178q23 0 38-16t16-38z m0 286V618q0-23-16-38t-38-16H768q-23 0-38 16t-16 38v107q0 22 16 38t38 16h178q23 0 38-16t16-38z" horiz-adv-x="1000" />
<glyph glyph-name="th-list" unicode="&#x2630;" d="M286 154V46q0-22-16-37T232-7H54Q31-7 16 9T0 46v108q0 22 16 38t38 15h178q22 0 38-15t16-38z m0 285V332q0-22-16-38t-38-15H54q-23 0-38 15T0 332v107q0 23 16 38t38 16h178q22 0 38-16t16-38z m714-285V46q0-22-16-37T946-7H411q-23 0-38 16t-16 37v108q0 22 16 38t38 15h535q23 0 38-15t16-38zM286 725V618q0-23-16-38t-38-16H54q-23 0-38 16T0 618v107q0 22 16 38t38 16h178q22 0 38-16t16-38z m714-286V332q0-22-16-38t-38-15H411q-23 0-38 15t-16 38v107q0 23 16 38t38 16h535q23 0 38-16t16-38z m0 286V618q0-23-16-38t-38-16H411q-23 0-38 16t-16 38v107q0 22 16 38t38 16h535q23 0 38-16t16-38z" horiz-adv-x="1000" />
<glyph glyph-name="ok" unicode="&#x2713;" d="M933 534q0-22-16-38L513 92l-76-76Q421 1 399 1t-38 15l-76 76L83 294q-15 16-15 38t15 38l76 76q16 16 38 16t38-16l164-165 366 367q16 16 38 16t38-16l76-76q15-15 15-38z" horiz-adv-x="1000" />
<glyph glyph-name="ok-circled" unicode="&#x2714;" d="M717 440q0 16-10 26l-51 50q-11 11-25 11t-25-11L378 289 252 415q-11 11-25 11t-26-11l-50-50q-10-10-10-26 0-15 10-25l202-202q10-10 25-10t26 10l303 303q10 10 10 25z m140-90q0-117-57-215T644-21 429-79 213-21 58 135 0 350t58 215 155 156 216 58 215-58 156-156 57-215z" horiz-adv-x="857.1" />
<glyph glyph-name="ok-circled2" unicode="&#xe702;" d="M654 396L418 161q-11-11-25-11t-25 11L204 325q-11 11-11 25t11 25l57 57q10 11 25 11t25-11l82-82 153 154q11 10 25 10t25-10l58-57q10-11 10-26t-10-25z m78-46q0 83-41 152T581 613t-152 41-153-41-110-111-41-152 41-152T276 87t153-41 152 41 110 111 41 152z m125 0q0-117-57-215T644-21 429-79 213-21 58 135 0 350t58 215 155 156 216 58 215-58 156-156 57-215z" horiz-adv-x="857.1" />
<glyph glyph-name="ok-squared" unicode="&#xf14a;" d="M382 125l343 343q10 10 10 25t-10 25l-57 57q-11 10-25 10t-25-10L357 314 239 432q-10 11-25 11t-25-11l-57-57q-10-10-10-25t10-25l200-200q11-10 25-10t25 10z m475 493V82q0-66-47-113T696-79H161Q94-79 47-31T0 82v536q0 66 47 113t114 48h535q67 0 114-48t47-113z" horiz-adv-x="857.1" />
<glyph glyph-name="cancel" unicode="&#x2715;" d="M724 112q0-22-15-38L633-2q-16-15-38-15T557-2L393 162 229-2q-16-15-38-15T153-2L77 74q-16 16-16 38t16 38l164 164L77 478q-16 16-16 38t16 38l76 76q16 16 38 16t38-16l164-164 164 164q15 16 38 16t38-16l76-76q15-15 15-38t-15-38L545 314l164-164q15-15 15-38z" horiz-adv-x="785.7" />
<glyph glyph-name="cancel-circled" unicode="&#x2716;" d="M641 224q0 14-10 25L530 350l101 101q10 11 10 25 0 15-10 26l-51 50q-10 11-25 11t-25-11L429 451 328 552q-11 11-25 11-16 0-26-11l-50-50q-11-11-11-26 0-14 11-25l101-101-101-101q-11-11-11-25 0-15 11-26l50-50q10-11 26-11 14 0 25 11l101 101 101-101q10-11 25-11t25 11l51 50q10 11 10 26z m216 126q0-117-57-215T644-21 429-79 213-21 58 135 0 350t58 215 155 156 216 58 215-58 156-156 57-215z" horiz-adv-x="857.1" />
<glyph glyph-name="cancel-circled2" unicode="&#xe703;" d="M612 248l-81-82q-6-5-13-5t-13 5l-76 77-77-77q-5-5-13-5t-12 5l-82 82q-6 6-6 13t6 12l76 77-76 77q-6 5-6 12t6 13l82 82q5 5 12 5t13-5l77-77 76 77q6 5 13 5t13-5l81-82q6-5 6-13t-6-12l-76-77 76-76q6-6 6-13t-6-13z m120 102q0 83-41 152T581 613t-152 41-153-41-110-111-41-152 41-152T276 87t153-41 152 41 110 111 41 152z m125 0q0-117-57-215T644-21 429-79 213-21 58 135 0 350t58 215 155 156 216 58 215-58 156-156 57-215z" horiz-adv-x="857.1" />
<glyph glyph-name="plus" unicode="&#x2b;" d="M786 439V332q0-22-16-38t-38-15H500V46q0-22-16-37T446-7H339q-22 0-38 16t-15 37v233H54q-23 0-38 15T0 332v107q0 23 16 38t38 16h232v232q0 22 15 38t38 16h107q23 0 38-16t16-38V493h232q23 0 38-16t16-38z" horiz-adv-x="785.7" />
<glyph glyph-name="plus-circled" unicode="&#x2795;" d="M679 314v72q0 14-11 25t-25 10H500v143q0 15-11 25t-25 11h-71q-15 0-25-11t-11-25V421H214q-14 0-25-10t-10-25v-72q0-14 10-25t25-10h143V136q0-15 11-25t25-11h71q15 0 25 11t11 25v143h143q14 0 25 10t11 25z m178 36q0-117-57-215T644-21 429-79 213-21 58 135 0 350t58 215 155 156 216 58 215-58 156-156 57-215z" horiz-adv-x="857.1" />
<glyph glyph-name="plus-squared" unicode="&#xf0fe;" d="M714 314v72q0 14-10 25t-25 10H500v179q0 15-11 25t-25 11h-71q-15 0-25-11t-11-25V421H179q-15 0-26-10t-10-25v-72q0-14 11-25t25-10h178V100q0-14 11-25t25-11h71q15 0 25 11t11 25v179h179q14 0 25 10t10 25z m143 304V82q0-66-47-113T696-79H161Q94-79 47-31T0 82v536q0 66 47 113t114 48h535q67 0 114-48t47-113z" horiz-adv-x="857.1" />
<glyph glyph-name="plus-squared-alt" unicode="&#xf196;" d="M643 404v-36q0-8-5-13t-13-5H429V154q0-8-5-13t-13-5h-36q-8 0-13 5t-5 13v196H161q-8 0-13 5t-5 13v36q0 7 5 12t13 5h196v197q0 8 5 13t13 5h36q8 0 13-5t5-13V421h196q8 0 13-5t5-12z m71-250v464q0 37-26 63t-63 26H161q-37 0-63-26t-27-63V154q0-37 27-64t63-26h464q37 0 63 26t26 64z m72 464V154q0-67-47-114T625-7H161Q94-7 47 40T0 154v464q0 66 47 113t114 48h464q66 0 114-48t47-113z" horiz-adv-x="785.7" />
<glyph glyph-name="minus" unicode="&#x2d;" d="M786 439V332q0-22-16-38t-38-15H54q-23 0-38 15T0 332v107q0 23 16 38t38 16h678q23 0 38-16t16-38z" horiz-adv-x="785.7" />
<glyph glyph-name="minus-circled" unicode="&#x2796;" d="M679 314v72q0 14-11 25t-25 10H214q-14 0-25-10t-10-25v-72q0-14 10-25t25-10h429q14 0 25 10t11 25z m178 36q0-117-57-215T644-21 429-79 213-21 58 135 0 350t58 215 155 156 216 58 215-58 156-156 57-215z" horiz-adv-x="857.1" />
<glyph glyph-name="minus-squared" unicode="&#xf146;" d="M714 314v72q0 14-10 25t-25 10H179q-15 0-26-10t-10-25v-72q0-14 10-25t26-10h500q14 0 25 10t10 25z m143 304V82q0-66-47-113T696-79H161Q94-79 47-31T0 82v536q0 66 47 113t114 48h535q67 0 114-48t47-113z" horiz-adv-x="857.1" />
<glyph glyph-name="minus-squared-alt" unicode="&#xf147;" d="M643 404v-36q0-8-5-13t-13-5H161q-8 0-13 5t-5 13v36q0 7 5 12t13 5h464q8 0 13-5t5-12z m71-250v464q0 37-26 63t-63 26H161q-37 0-63-26t-27-63V154q0-37 27-64t63-26h464q37 0 63 26t26 64z m72 464V154q0-67-47-114T625-7H161Q94-7 47 40T0 154v464q0 66 47 113t114 48h464q66 0 114-48t47-113z" horiz-adv-x="785.7" />
<glyph glyph-name="help" unicode="&#xf128;" d="M393 149V15q0-9-7-15t-16-7H238q-9 0-16 7t-7 15v134q0 9 7 16t16 6h134q9 0 15-6t7-16z m176 335q0-30-8-56t-20-43-31-33-32-25-34-19q-23-13-38-37t-15-37q0-10-7-18t-16-9H234q-8 0-14 10t-6 21v25q0 47 37 88t79 60q33 16 47 32t14 42q0 24-26 41t-60 18q-36 0-60-16-20-14-60-64-7-9-17-9-7 0-14 4l-91 70q-8 6-9 14t3 16q89 148 259 148 45 0 90-17t81-46 59-72 23-88z" horiz-adv-x="571.4" />
<glyph glyph-name="help-circled" unicode="&#xe704;" d="M500 82v107q0 8-5 13t-13 5H375q-8 0-13-5t-5-13V82q0-8 5-13t13-5h107q8 0 13 5t5 13z m143 375q0 49-31 91t-77 65-95 23q-136 0-207-119-9-13 4-24l74-55q4-4 10-4 9 0 14 7 30 38 48 51 19 14 48 14 27 0 48-15t21-33q0-21-11-34t-38-25q-35-15-65-48t-29-70v-20q0-8 5-13t13-5h107q8 0 13 5t5 13q0 10 12 27t30 28q18 10 28 16t25 19 25 27 16 34 7 45z m214-107q0-117-57-215T644-21 429-79 213-21 58 135 0 350t58 215 155 156 216 58 215-58 156-156 57-215z" horiz-adv-x="857.1" />
<glyph glyph-name="info-circled" unicode="&#xe705;" d="M571 82v89q0 8-5 13t-12 5h-54v286q0 8-5 13t-13 5H304q-8 0-13-5t-5-13v-89q0-8 5-13t13-5h53V189h-53q-8 0-13-5t-5-13V82q0-8 5-13t13-5h250q7 0 12 5t5 13z m-71 500v89q0 8-5 13t-13 5H375q-8 0-13-5t-5-13v-89q0-8 5-13t13-5h107q8 0 13 5t5 13z m357-232q0-117-57-215T644-21 429-79 213-21 58 135 0 350t58 215 155 156 216 58 215-58 156-156 57-215z" horiz-adv-x="857.1" />
<glyph glyph-name="info" unicode="&#xf129;" d="M357 100V29q0-15-10-26T321-7H36Q21-7 11 3T0 29v71q0 15 11 25t25 11h35v214H36q-15 0-25 11T0 386v71q0 15 11 25t25 11h214q15 0 25-11t11-25V136h35q15 0 26-11t10-25z m-71 643V636q0-15-11-25t-25-11H107q-14 0-25 11t-11 25v107q0 14 11 25t25 11h143q15 0 25-11t11-25z" horiz-adv-x="357.1" />
<glyph glyph-name="home" unicode="&#x2302;" d="M786 296V29q0-15-11-26T750-7H536v214H393V-7H179q-15 0-26 11t-10 25v267q0 1 0 2t0 2l321 264 321-264q1-1 1-4z m124 39l-34-41q-5-5-12-7h-2q-7 0-12 4L464 613 78 291q-7-4-13-4-7 2-12 7l-35 41q-4 5-3 13t6 12l401 334q18 15 42 15t43-15l136-114v109q0 8 5 13t13 5h107q8 0 13-5t5-13V462l122-102q5-4 6-12t-4-13z" horiz-adv-x="928.6" />
<glyph glyph-name="link" unicode="&#x1f517;" d="M813 171q0 23-16 38L681 325q-16 16-38 16-24 0-40-18 1-2 10-10t12-12 9-11 7-14 2-15q0-23-16-38t-38-16q-8 0-15 2t-14 7-11 9-12 12-10 10q-19-17-19-40t16-38L639 53q15-15 38-15 22 0 38 15l82 81q15 16 15 37zM420 565q0 22-15 38L290 718q-16 16-38 16t-38-15l-82-82q-16-15-16-37t16-38l116-116q15-15 38-15t40 17q-2 2-11 10t-12 13-8 10-7 14-2 16q0 22 15 38t38 15q9 0 16-2t14-7 11-8 12-12 10-11q18 17 18 41z m500-394q0-67-48-113l-82-81q-46-47-113-47-68 0-114 48L448 93q-46 47-46 114 0 68 49 116l-49 49q-48-49-116-49-67 0-114 47L56 486Q9 533 9 600t47 113l82 82q47 46 114 46t113-47l116-116q46-46 46-113 0-69-49-117l49-49q48 49 116 49 67 0 114-47l116-116q47-47 47-114z" horiz-adv-x="928.6" />
<glyph glyph-name="unlink" unicode="&#xf127;" d="M245 141L102-2q-6-5-13-5T76-2q-5 5-5 13t6 12l142 143q6 5 13 5t13-5q5-5 5-12t-5-13z m94-23V-61q0-7-5-12t-13-6-12 6-5 12v179q0 8 5 13t12 5 13-5 5-13zM214 243q0-8-5-13t-13-5H18q-8 0-13 5t-5 13 5 13 13 5h178q8 0 13-5t5-13z m706-72q0-66-48-113l-82-81q-46-47-113-47-68 0-114 48L377 165q-12 11-24 31l134 10L639 53q15-15 38-15t38 15l82 81q15 16 15 37 1 23-15 38L644 363l10 133q20-12 31-23l188-188q47-48 47-114zM575 575l-133-10-152 153q-16 16-38 16t-38-15l-82-82q-16-15-16-37t16-38l153-153-10-134q-20 12-32 24L56 486Q9 534 9 600q0 67 47 113l82 82q47 46 114 46t113-47l187-187q12-12 23-32z m354-46q0-8-6-13t-12-5H732q-8 0-13 5t-5 13 5 12 13 5h179q8 0 13-5t5-12zM625 832V654q0-8-5-13t-13-5-13 5-5 13v178q0 8 5 13t13 5 13-5 5-13z m227-84L709 605q-6-5-13-5t-12 5q-5 6-5 13t5 13l143 142q5 6 12 6t13-6q5-5 5-12t-5-13z" horiz-adv-x="928.6" />
<glyph glyph-name="link-ext" unicode="&#xf08e;" d="M786 332V154q0-67-47-114T625-7H161Q94-7 47 40T0 154v464q0 66 47 113t114 48h393q7 0 12-6t5-12v-36q0-8-5-13t-12-5H161q-37 0-63-26t-27-63V154q0-37 27-64t63-26h464q37 0 63 26t26 64v178q0 8 5 13t13 5h36q8 0 13-5t5-13z m214 482V529q0-15-11-26t-25-10-25 10l-98 99-364-364q-5-6-13-6t-12 6l-64 63q-6 6-6 13t6 13l364 364-98 98q-11 11-11 25t10 25 26 11h285q15 0 25-11t11-25z" horiz-adv-x="1000" />
<glyph glyph-name="link-ext-alt" unicode="&#xf14c;" d="M714 332v268q0 15-10 25t-25 11H411q-24 0-33-22-10-23 8-39l80-81-298-297q-11-11-11-26t11-25l57-57q11-10 25-10t25 10l298 298 81-80q10-11 25-11 6 0 14 3 21 10 21 33z m143 286V82q0-66-47-113T696-79H161Q94-79 47-31T0 82v536q0 66 47 113t114 48h535q67 0 114-48t47-113z" horiz-adv-x="857.1" />
<glyph glyph-name="attach" unicode="&#x1f4ce;" d="M784 77q0-65-45-109T630-76q-75 0-131 56L65 413Q2 477 2 564q0 89 62 150t150 62q88 0 152-63l338-338q5-5 5-12 0-9-17-26t-26-17q-7 0-12 5L315 664q-44 43-101 43-59 0-100-42T74 564q0-58 42-101L549 30q35-35 81-35 36 0 59 23t24 59q0 46-35 81L353 482q-14 14-33 14-16 0-27-11t-11-27q0-18 14-33l229-228q6-6 6-13 0-9-18-26t-26-17q-7 0-12 5L246 375q-35 34-35 83 0 46 32 78t77 32q49 0 83-36l325-324q55-54 55-131z" horiz-adv-x="785.7" />
<glyph glyph-name="lock" unicode="&#x1f512;" d="M179 421h285v108q0 59-42 101t-101 41-101-41-41-101V421z m464-53V46q0-22-16-38T589-7H54Q31-7 16 8T0 46v322q0 22 16 38t38 15h17v108q0 102 74 176t176 74 177-74 73-176V421h18q23 0 38-15t16-38z" horiz-adv-x="642.9" />
<glyph glyph-name="lock-open" unicode="&#x1f513;" d="M929 529V386q0-15-11-25t-25-11h-36q-14 0-25 11t-11 25v143q0 59-41 101t-101 41-101-41-42-101V421h53q23 0 38-15t16-38V46q0-22-16-37T589-7H54Q31-7 16 9T0 46v322q0 22 16 38t38 15h375v108q0 103 73 176t177 74 176-74 74-176z" horiz-adv-x="928.6" />
<glyph glyph-name="lock-open-alt" unicode="&#xf13e;" d="M589 421q23 0 38-15t16-38V46q0-22-16-38T589-7H54Q31-7 16 8T0 46v322q0 22 16 38t38 15h17v179q0 103 74 177t176 73 177-73 73-177q0-14-10-25t-25-11h-36q-14 0-25 11t-11 25q0 59-42 101t-101 42-101-42-41-101V421h410z" horiz-adv-x="642.9" />
<glyph glyph-name="pin" unicode="&#x1f4cc;" d="M268 368v250q0 8-5 13t-13 5-13-5-5-13V368q0-8 5-13t13-5 13 5 5 13z m375-197q0-14-11-25t-25-10H368l-29-270q-1-7-6-11t-11-5h-1q-15 0-17 15l-43 271H36q-15 0-25 10T0 171q0 69 44 124t99 55v286q-29 0-50 21t-22 50 22 50 50 22h357q29 0 50-22t21-50-21-50-50-21V350q55 0 99-55t44-124z" horiz-adv-x="642.9" />
<glyph glyph-name="eye" unicode="&#xe70a;" d="M929 314q-85 132-213 197 34-58 34-125 0-103-73-177t-177-73-177 73-73 177q0 67 34 125-128-65-213-197 75-114 187-182t242-68 243 68 186 182zM527 529q0 11-8 19t-19 7q-70 0-120-50t-50-119q0-11 8-19t19-8 19 8 8 19q0 48 34 82t82 34q11 0 19 8t8 19z m473-215q0-19-11-38-78-129-210-206T500-7 221 70 11 276Q0 295 0 314t11 39q78 128 210 205t279 78 279-78 210-205q11-20 11-39z" horiz-adv-x="1000" />
<glyph glyph-name="eye-off" unicode="&#xe70b;" d="M310 105l43 79q-48 35-76 88t-27 114q0 67 34 125-128-65-213-197 94-144 239-209z m217 424q0 11-8 19t-19 7q-70 0-120-50t-50-119q0-11 8-19t19-8 19 8 8 19q0 48 34 82t82 34q11 0 19 8t8 19z m202 106q0-4 0-5-59-105-176-316T377-2l-28-50q-5-9-15-9-7 0-75 39-9 6-9 16 0 7 25 49-80 36-147 96T11 276Q0 293 0 314t11 39q86 131 212 207t277 76q50 0 100-10l31 54q5 9 15 9 3 0 10-3t18-9 18-10 18-10 10-7q9-5 9-15z m21-249q0-78-44-142t-117-91l157 280q4-25 4-47z m250-72q0-19-11-38-22-36-61-81-84-96-194-149T500-7l41 74q119 10 219 76t169 171q-65 100-158 164l35 63q53-36 102-86t81-102q11-19 11-39z" horiz-adv-x="1000" />
<glyph glyph-name="tag" unicode="&#xe70c;" d="M250 600q0 30-21 51t-50 20-51-21-21-50 21-50 51-21 50 21 21 50z m595-321q0-30-20-51L551-46q-22-21-51-21-30 0-50 21L51 353q-21 21-36 57T0 475v232q0 29 21 50t50 22h233q29 0 65-15t57-36l399-399q20-21 20-50z" horiz-adv-x="857.1" />
<glyph glyph-name="tags" unicode="&#xe70d;" d="M250 600q0 30-21 51t-50 20-51-21-21-50 21-50 51-21 50 21 21 50z m595-321q0-30-20-51L551-46q-22-21-51-21-30 0-50 21L51 353q-21 21-36 57T0 475v232q0 29 21 50t50 22h233q29 0 65-15t57-36l399-399q20-21 20-50z m215 0q0-30-21-51L765-46q-22-21-51-21-20 0-33 8t-29 25l262 262q21 21 21 51 0 29-21 50L515 728q-21 21-57 36t-65 15h125q29 0 65-15t57-36l399-399q21-21 21-50z" horiz-adv-x="1071.4" />
<glyph glyph-name="bookmark" unicode="&#x1f516;" d="M650 779q12 0 24-5 19-8 29-23t11-35V-3q0-19-11-35t-29-23q-10-4-24-4-27 0-47 18L357 189 111-47Q91-66 65-66q-13 0-25 5-18 8-29 23T0-3v719q0 19 11 35t29 23q12 5 25 5h585z" horiz-adv-x="714.3" />
<glyph glyph-name="bookmark-empty" unicode="&#xf097;" d="M643 707H71V14l237 227 49 47 50-47L643 14v693z m7 72q12 0 24-5 19-8 29-23t11-35V-3q0-19-11-35t-29-23q-10-4-24-4-27 0-47 18L357 189 111-47Q91-66 65-66q-13 0-25 5-18 8-29 23T0-3v719q0 19 11 35t29 23q12 5 25 5h585z" horiz-adv-x="714.3" />
<glyph glyph-name="flag" unicode="&#x2691;" d="M179 707q0-40-36-61V-61q0-7-5-12t-13-6H89q-7 0-12 6t-6 12v707q-35 21-35 61 0 30 21 51t50 21 51-21 21-51z m821-36V246q0-14-7-22t-22-15q-120-65-206-65-34 0-69 12t-60 27-65 27-79 12q-107 0-259-81-10-5-19-5-14 0-25 10t-10 25v415q0 17 17 30 12 8 44 24 132 67 235 67 60 0 112-16t122-49q21-11 49-11 30 0 65 12t62 26 49 26 30 12q15 0 25-10t11-26z" horiz-adv-x="1000" />
<glyph glyph-name="flag-empty" unicode="&#xf11d;" d="M929 267v344q-95-51-171-51-46 0-81 18-56 27-103 42t-99 16q-97 0-225-71V231q137 63 242 63 30 0 57-4t55-15 43-17 46-22l16-8q24-12 56-12 67 0 164 51zM179 707q0-19-10-36t-26-25V-61q0-8-5-13t-13-5H89q-8 0-13 5t-5 13v707q-16 9-25 25t-10 36q0 30 21 51t50 21 51-21 21-51z m821-36V246q0-22-19-32-6-3-10-5-122-65-206-65-49 0-88 20l-16 7q-35 19-55 27t-51 16-63 8q-57 0-132-24t-127-57q-9-5-19-5-9 0-18 4-17 11-17 31v414q0 20 17 31 19 12 44 24t63 29 85 28 87 10q62 0 117-17t116-48q21-11 50-11 68 0 173 63 12 6 17 9 17 9 35-1 17-11 17-31z" horiz-adv-x="1000" />
<glyph glyph-name="flag-checkered" unicode="&#xf11e;" d="M464 292v107q-101-9-214-65V231q114 53 214 61z m0 233v110q-96-4-214-70V459q120 62 214 66z m465-258v103q-132-65-215-40v125q-11 3-22 8-2 2-18 10t-19 9-18 9-19 8-18 8-20 7-20 4-22 4-22 3-24 1q-13 0-28-2V400h11q57 0 107-16t110-46q11-5 22-8V225q24-9 51-9 67 0 164 51z m0 238v106q-95-51-171-51-25 0-44 4V455q83-23 215 50zM179 707q0-19-10-36t-26-25V-61q0-8-5-13t-13-5H89q-8 0-13 5t-5 13v707q-16 9-25 25t-10 36q0 30 21 51t50 21 51-21 21-51z m821-36V246q0-22-19-32-6-3-10-5-122-65-206-65-49 0-88 20l-16 7q-35 19-55 27t-51 16-63 8q-57 0-132-24t-127-57q-9-5-19-5-9 0-18 4-17 11-17 31v415q0 19 17 30 19 12 44 24t63 29 85 28 87 10q62 0 117-17t116-48q21-11 50-11 68 0 173 63 12 6 17 9 17 9 35-1 17-11 17-31z" horiz-adv-x="1000" />
<glyph glyph-name="thumbs-up" unicode="&#x1f44d;" d="M143 100q0 15-11 25t-25 11-25-11-11-25 11-25 25-11 25 11 11 25z m643 321q0 29-22 50t-50 22H518q0 32 27 89t26 89q0 55-17 81t-72 27q-14-15-21-48t-17-70-33-61q-13-13-43-51-3-3-13-17t-18-22-19-24-22-25-22-20-22-15-20-5h-18V64h18q7 0 18-1t18-4 21-6 20-7 20-7 16-5Q463-7 536-7h67q107 0 107 93 0 15-2 31 16 9 26 30t10 41-10 38q29 28 29 66 0 14-5 31t-14 27q18 1 30 26t12 45z m71 1q0-50-27-91 5-18 5-38 0-43-21-81 1-12 1-24 0-56-33-99 0-78-48-123T608-79h-72q-54 0-106 13T309-30Q244-7 232-7H71Q42-7 21 14T0 64v357q0 30 21 51t50 21h153q20 13 77 86 32 42 60 72 13 14 19 47t17 71 35 60q22 21 50 21 47 0 84-18t57-57 20-104q0-52-27-107h98q58 0 101-42t42-100z" horiz-adv-x="857.1" />
<glyph glyph-name="thumbs-down" unicode="&#x1f44e;" d="M143 600q0 15-11 25t-25 11-25-11-11-25 11-25 25-11 25 11 11 25z m643-321q0 19-12 45t-30 26q8 9 14 26t5 31q0 39-29 67 10 17 10 38t-10 41-26 30q2 16 2 31 0 47-27 70t-76 23h-71q-73 0-191-41-3-1-16-6t-20-6-20-7-21-6-18-4-18-1h-18V279h18q9 0 20-6t22-15 22-19 22-25 19-24 18-23 13-16q30-38 43-51 23-24 33-61t17-70 21-48q54 0 72 27t17 81q0 32-26 89t-27 89h196q28 0 50 22t22 50z m71-1q0-57-42-100t-101-42h-98q27-56 27-107 0-66-20-104-19-39-57-57t-84-18q-28 0-50 21-19 18-30 45t-14 51-10 47-18 36q-26 28-59 71-57 73-77 86H71q-29 0-50 21T0 279v357q0 29 21 50t50 21h161q12 0 77 23 72 24 125 36t111 13h63q78 0 126-45t48-120v-3q33-43 33-99 0-12-1-24 21-38 21-81 0-20-5-38 27-41 27-91z" horiz-adv-x="857.1" />
<glyph glyph-name="thumbs-up-alt" unicode="&#xf164;" d="M143 100q0 15-11 25t-25 11q-15 0-25-11t-11-25q0-15 11-25t25-11q15 0 25 11t11 25z m89 286V29q0-15-10-26T196-7H36Q21-7 11 3T0 29v357q0 14 11 25t25 10h160q15 0 25-10t11-25z m661 0q0-48-31-83 8-25 8-43 2-42-24-76 10-31 0-66-8-31-30-52 5-62-27-101-36-42-110-44h-72q-37 0-80 9t-68 16-67 22Q323-8 304-7q-15 0-25 11t-11 25v357q0 14 10 25t24 11q13 1 42 33t57 67q38 49 56 67 10 10 17 27t10 27 8 34q3 22 7 34t10 29 19 28q11 11 26 11 25 0 46-6t33-15 22-22 14-26 6-27 3-26 1-21q0-22-6-43t-10-33-16-31q-1-4-5-11t-6-12-5-13h155q43 0 75-32t32-75z" horiz-adv-x="928.6" />
<glyph glyph-name="thumbs-down-alt" unicode="&#xf165;" d="M143 529q0-15-11-25t-25-11q-15 0-25 10t-11 26q0 15 11 25t25 10q15 0 25-10t11-25z m89-286v357q0 15-10 25t-26 11H36q-15 0-25-11T0 600V243q0-15 11-25t25-11h160q15 0 25 11t11 25z m630 83q31-34 31-83-1-44-32-76t-75-31H631q2-8 5-14t6-12 5-10q10-21 15-32t11-33 6-42q0-14-1-22t-2-25-7-28-14-25-22-23-33-14-46-6q-15 0-25 11-12 11-19 27t-11 29-7 35q-5 23-8 33t-10 27-17 27q-18 19-56 67-28 36-57 68t-42 33q-14 1-24 11t-10 24v358q0 14 11 25t25 11q19 0 88 24 43 15 67 22t68 16 80 9h72q74-1 110-43 32-39 27-101 22-21 30-53 10-34 1-65 25-34 24-77 0-17-9-42z" horiz-adv-x="928.6" />
<glyph glyph-name="download" unicode="&#x1f4e5;" d="M714 100q0 15-10 25t-25 11-26-11-10-25 10-25 26-11 25 11 10 25z m143 0q0 15-11 25t-25 11-25-11-10-25 10-25 25-11 26 11 10 25z m72 125V46q0-22-16-37T875-7H54Q31-7 16 8T0 46v179q0 22 16 38t38 16h259l75-76q33-32 76-32t76 32l76 76h259q22 0 38-16t16-38zM747 543q10-23-8-39L489 254q-10-11-25-11t-25 11L189 504q-17 16-8 39 10 21 33 21h143v250q0 15 11 25t25 11h143q14 0 25-11t10-25V564h143q24 0 33-22z" horiz-adv-x="928.6" />
<glyph glyph-name="upload" unicode="&#x1f4e4;" d="M714 29q0 14-10 25t-25 10-26-10-10-25 10-25 26-11 25 11 10 25z m143 0q0 14-11 25t-25 10-25-10-10-25 10-25 25-11 25 11 11 25z m72 125V-25q0-22-16-38t-38-16H54q-23 0-38 16T0-25v179q0 22 16 37t38 16h238q12-31 39-51t62-20h143q34 0 61 20t40 51h238q22 0 38-16t16-37zM747 515q-9-22-33-22H571V243q0-15-10-25t-25-11H393q-15 0-25 11t-11 25v250H214q-23 0-33 22-9 22 8 39l250 250q10 10 25 10t25-10l250-250q18-17 8-39z" horiz-adv-x="928.6" />
<glyph glyph-name="download-cloud" unicode="&#xf0ed;" d="M714 332q0 8-5 13t-13 5H571v196q0 8-5 13t-12 5H446q-7 0-12-5t-5-13V350H304q-8 0-13-5t-5-13q0-8 5-13l196-196q5-5 13-5t13 5l196 196q5 6 5 13z m357-125q0-89-62-151T857-7H250Q147-7 73 66T0 243q0 72 39 134t105 92q-1 17-1 24 0 118 84 202t202 84q87 0 159-49t105-129q40 35 93 35 59 0 101-42t42-101q0-43-23-77 72-17 119-76t46-133z" horiz-adv-x="1071.4" />
<glyph glyph-name="upload-cloud" unicode="&#xf0ee;" d="M714 368q0 8-5 13L513 577q-5 5-13 5t-13-5L291 381q-5-6-5-13 0-8 5-13t13-5h125V154q0-8 5-13t12-5h108q7 0 12 5t5 13v196h125q8 0 13 5t5 13z m357-161q0-89-62-151T857-7H250Q147-7 73 66T0 243q0 72 39 134t105 92q-1 17-1 24 0 118 84 202t202 84q87 0 159-49t105-129q40 35 93 35 59 0 101-42t42-101q0-43-23-77 72-17 119-76t46-133z" horiz-adv-x="1071.4" />
<glyph glyph-name="reply" unicode="&#xf112;" d="M1000 225q0-93-71-252-1-4-6-13t-7-17-7-12q-7-10-16-10t-13 6-5 14q0 5 1 15t2 13q3 38 3 69 0 56-10 101t-27 77-45 56-59 39-74 24-86 12-98 3H357V207q0-14-10-25t-26-11-25 11L11 468Q0 478 0 493t11 25l285 286q11 10 25 10t26-10 10-25V636h125q398 0 488-225 30-75 30-186z" horiz-adv-x="1000" />
<glyph glyph-name="reply-all" unicode="&#xf122;" d="M357 246v-39q0-23-22-33-7-3-14-3-15 0-25 11L11 468Q0 478 0 493t11 25l285 286q17 17 39 8 22-10 22-33v-39L136 518q-11-11-11-25t11-25z m643-21q0-32-9-74t-22-77-27-70-22-51l-11-22q-5-10-16-10-4 0-5 1-14 4-13 19 24 223-59 315-36 40-95 62t-150 29V207q0-23-21-33-8-3-14-3-15 0-25 11L225 468q-11 10-11 25t11 25l286 286q16 17 39 7 21-9 21-32V632q230-15 335-123 94-97 94-284z" horiz-adv-x="1000" />
<glyph glyph-name="forward" unicode="&#x27a6;" d="M1000 493q0-15-11-25L704 182q-11-11-25-11t-25 11-11 25v143H518q-55 0-98-3t-86-12-74-24-59-39-45-56-27-78-10-100q0-31 3-69 0-3 2-13t1-15q0-8-5-14t-13-6q-9 0-16 10-3 5-7 12t-7 17-6 13Q0 132 0 225q0 111 30 186 90 225 488 225h125v143q0 14 10 25t26 10 25-10l285-286q11-11 11-25z" horiz-adv-x="1000" />
<glyph glyph-name="quote-left" unicode="&#xf10d;" d="M429 314V100q0-45-32-76T321-7H107Q62-7 31 24T0 100v393q0 58 23 111t61 91 91 61 111 23h35q15 0 25-11t11-25v-72q0-14-10-25t-26-10h-35q-59 0-101-42t-42-101v-18q0-22 15-38t38-16h125q45 0 76-31t32-76z m500 0V100q0-45-32-76T821-7H607q-44 0-76 31t-31 76v393q0 58 23 111t61 91 91 61 111 23h35q15 0 26-11t10-25v-72q0-14-10-25t-26-10h-35q-59 0-101-42t-42-101v-18q0-22 16-38t37-16h125q45 0 76-31t32-76z" horiz-adv-x="928.6" />
<glyph glyph-name="quote-right" unicode="&#xf10e;" d="M429 671V279q0-59-23-111t-61-91-91-62T143-7h-36Q93-7 82 3T71 29v71q0 14 11 25t25 11h36q59 0 101 42t42 101v17q0 23-16 38t-38 16H107q-45 0-76 31T0 457v214q0 45 31 76t76 32h214q45 0 76-32t32-76z m500 0V279q0-59-23-111t-61-91-91-62T643-7h-36q-14 0-25 10t-11 26v71q0 14 11 25t25 11h36q59 0 101 42t42 101v17q0 23-16 38t-38 16H607q-45 0-76 31t-31 76v214q0 45 31 76t76 32h214q45 0 76-32t32-76z" horiz-adv-x="928.6" />
<glyph glyph-name="code" unicode="&#xf121;" d="M344 69l-28-28q-5-5-12-5t-13 5L31 302q-6 5-6 12t6 13l260 260q5 6 13 6t12-6l28-28q6-5 6-13t-6-12L125 314 344 95q6-6 6-13t-6-13z m330 596L466-56q-2-7-9-11t-13-1l-34 9q-8 3-11 9t-2 14l209 720q2 7 8 11t13 1l35-9q7-2 11-9t1-13z m367-363L781 41q-6-5-13-5t-13 5l-28 28q-5 6-5 13t5 13l219 219-219 220q-5 5-5 12t5 13l28 28q6 6 13 6t13-6l260-260q5-5 5-13t-5-12z" horiz-adv-x="1071.4" />
<glyph glyph-name="export" unicode="&#xe715;" d="M786 298V154q0-67-47-114T625-7H161Q94-7 47 40T0 154v464q0 66 47 113t114 48h142q7 0 13-6t5-12q0-15-15-18-43-15-74-34-5-2-9-2h-62q-37 0-63-26t-27-63V154q0-37 27-64t63-26h464q37 0 63 26t26 64v119q0 11 10 16 16 7 31 21 8 9 19 4 12-5 12-16z m132 277L704 361q-10-11-25-11-7 0-14 3-22 9-22 33v107h-89q-181 0-245-73-66-77-41-264 2-13-11-19-5-1-7-1-9 0-14 7-6 8-12 17t-22 38-28 56-21 64-10 68q0 27 2 51t8 50 15 49 27 45 38 42 52 34 70 27 89 17 110 6h89v107q0 24 22 33 7 3 14 3 14 0 25-11l214-214q11-11 11-25t-11-25z" horiz-adv-x="928.6" />
<glyph glyph-name="export-alt" unicode="&#xf14d;" d="M561 236l196 196q11 11 11 25t-11 25L561 679q-17 17-39 8-22-10-22-33v-90q-66 0-120-11t-91-28-64-44-42-53-25-61-12-62-3-62q0-101 93-226 6-6 14-6 4 0 7 1 13 5 11 19-25 197 35 264 25 29 72 42t125 13v-89q0-24 22-33 7-3 14-3 14 0 25 11z m296 382V82q0-66-47-113T696-79H161Q94-79 47-31T0 82v536q0 66 47 113t114 48h535q67 0 114-48t47-113z" horiz-adv-x="857.1" />
<glyph glyph-name="share" unicode="&#xf1e0;" d="M679 279q74 0 126-53t52-126-52-126-126-53-127 53-52 126q0 7 1 19L300 219q-51-48-121-48-75 0-127 53T0 350t52 126 127 53q70 0 121-48l201 100q-1 12-1 19 0 74 52 126t127 53 126-53 52-126-52-126-126-53q-71 0-122 48L356 369q1-12 1-19t-1-19l201-100q51 48 122 48z" horiz-adv-x="857.1" />
<glyph glyph-name="share-squared" unicode="&#xf1e1;" d="M714 183q0 49-35 84t-84 36q-47 0-81-33l-134 67q1 9 1 13t-1 13l135 67q34-33 80-33 49 0 84 36t35 84-35 84-84 35-84-35-35-84q0-4 1-13l-134-67q-35 32-81 32-49 0-84-35t-35-84 35-84 84-35q46 0 81 32l134-67q-1-9-1-13 0-49 35-84t84-35 84 35 35 84z m143 435V82q0-66-47-113T696-79H161Q94-79 47-31T0 82v536q0 66 47 113t114 48h535q67 0 114-48t47-113z" horiz-adv-x="857.1" />
<glyph glyph-name="pencil" unicode="&#x270e;" d="M203-7l50 51-131 131-51-51V64h72V-7h60z m291 518q0 12-12 12-5 0-9-4L170 217q-4-4-4-10 0-12 13-12 5 0 9 4l303 302q3 4 3 10z m-30 107l232-232L232-79H0v233z m381-54q0-29-20-50l-93-93-232 233 93 92q20 21 50 21 29 0 51-21l131-131q20-22 20-51z" horiz-adv-x="857.1" />
<glyph glyph-name="pencil-squared" unicode="&#xf14b;" d="M225 232l85-85-29-29h-31v53h-54v32z m232 217q7-7-2-16L292 270q-9-9-16-1-8 7 1 16l163 163q9 9 16 1zM304 64l303 304-161 161-303-304V64h161z m339 340l51 51q16 16 16 38t-16 38l-85 85q-15 15-38 15t-38-15l-51-52z m214 214V82q0-66-47-113T696-79H161Q94-79 47-31T0 82v536q0 66 47 113t114 48h535q67 0 114-48t47-113z" horiz-adv-x="857.1" />
<glyph glyph-name="edit" unicode="&#x270d;" d="M496 189l64 65-85 85-64-65v-31h53v-54h32z m245 402q-9 9-18 0L527 395q-9-9 0-18t18 0l196 196q9 9 0 18z m45-331V154q0-67-47-114T625-7H161Q94-7 47 40T0 154v464q0 66 47 113t114 48h464q35 0 65-14 9-4 10-13 2-10-5-16l-27-28q-8-8-18-4-13 3-25 3H161q-37 0-63-26t-27-63V154q0-37 27-64t63-26h464q37 0 63 26t26 64v70q0 7 5 12l36 36q8 8 20 4t11-16z m-54 411l161-160-375-375H357v160z m248-73l-51-52-161 161 51 52q16 15 38 15t38-15l85-85q15-16 15-38t-15-38z" horiz-adv-x="1000" />
<glyph glyph-name="print" unicode="&#xe716;" d="M214-7h500v143H214V-7z m0 357h500v214h-89q-22 0-38 16t-16 38v89H214V350z m643-36q0 15-11 25t-25 11-25-11-10-25 10-25 25-10 25 10 11 25z m72 0V82q0-7-6-12t-12-6H786v-89q0-22-16-38t-38-16H196q-22 0-38 16t-15 38v89H18q-7 0-13 6T0 82v232q0 44 32 76t75 31h36v304q0 22 15 38t38 16h375q23 0 49-12t43-26l85-85q15-16 27-43t11-49V421h35q44 0 76-31t32-76z" horiz-adv-x="928.6" />
<glyph glyph-name="retweet" unicode="&#xe717;" d="M714 11q0-7-5-13t-13-5H161q-5 0-8 1t-5 4-3 4-2 7 0 6v335H36q-15 0-25 11T0 386q0 13 8 23l179 214q11 12 27 12t28-12l178-214q9-10 9-23 0-15-11-25t-25-11H286V136h321q9 0 14-6l89-108q4-5 4-11z m357 232q0-13-8-23L885 6Q873-7 857-7T830 6L651 220q-8 9-8 23t11 25 25 11h107v214H464q-9 0-14 7l-89 107q-4 5-4 11 0 7 5 12t13 6h536q4 0 7-1t5-4 3-5 2-6 1-7V279h107q14 0 25-11t10-25z" horiz-adv-x="1071.4" />
<glyph glyph-name="keyboard" unicode="&#xf11c;" d="M214 198v-53q0-9-9-9h-53q-9 0-9 9v53q0 9 9 9h53q9 0 9-9z m72 143v-53q0-9-9-9H152q-9 0-9 9v53q0 9 9 9h125q9 0 9-9z m-72 143v-54q0-9-9-9h-53q-9 0-9 9v54q0 9 9 9h53q9 0 9-9z m572-286v-53q0-9-9-9H295q-9 0-9 9v53q0 9 9 9h482q9 0 9-9zM429 341v-54q0-8-9-8h-54q-9 0-9 8v54q0 9 9 9h54q9 0 9-9z m-72 143v-54q0-9-9-9h-53q-9 0-9 9v54q0 9 9 9h53q9 0 9-9z m214-143v-54q0-8-8-8h-54q-9 0-9 8v54q0 9 9 9h54q8 0 8-9z m-71 143v-54q0-9-9-9h-53q-9 0-9 9v54q0 9 9 9h53q9 0 9-9z m214-143v-54q0-8-9-8h-53q-9 0-9 8v54q0 9 9 9h53q9 0 9-9z m215-143v-53q0-9-9-9h-54q-9 0-9 9v53q0 9 9 9h54q9 0 9-9zM643 484v-54q0-9-9-9h-54q-9 0-9 9v54q0 9 9 9h54q9 0 9-9z m143 0v-54q0-9-9-9h-54q-9 0-9 9v54q0 9 9 9h54q9 0 9-9z m143 0V287q0-8-9-8H795q-9 0-9 9v53q0 9 9 9h62v134q0 9 9 9h54q9 0 9-9z m71-420v500H71V64h929z m71 500V64q0-29-20-50t-51-21H71Q42-7 21 14T0 64v500q0 30 21 51t50 21h929q30 0 51-21t20-51z" horiz-adv-x="1071.4" />
<glyph glyph-name="gamepad" unicode="&#xf11b;" d="M464 243v71q0 8-5 13t-13 5H339v107q0 8-5 13t-13 5h-71q-8 0-13-5t-5-13V332H125q-8 0-13-5t-5-13v-71q0-8 5-13t13-5h107V118q0-8 5-13t13-5h71q8 0 13 5t5 13v107h107q8 0 13 5t5 13z m322-36q0 30-21 51t-51 21-50-21-21-51 21-50 50-21 51 21 21 50z m143 143q0 30-21 50t-51 21-50-21-21-50 21-51 50-20 51 20 21 51z m142-71q0-119-83-202T786-7Q679-7 597 64H474Q393-7 286-7 167-7 84 77T0 279t84 202 202 83h500q118 0 202-83t83-202z" horiz-adv-x="1071.4" />
<glyph glyph-name="comment" unicode="&#xe718;" d="M1000 350q0-97-67-179T751 41 500-7q-39 0-81 4-110-97-257-135-27-7-63-12-10-1-17 5t-10 16v1q-2 2 0 7t1 5 2 5l4 5t4 5 4 5q4 5 17 19t20 22 17 22 18 28 15 33 15 42q-88 50-138 123T0 350q0 72 40 139t106 114 160 76 194 28q136 0 251-48t182-130 67-179z" horiz-adv-x="1000" />
<glyph glyph-name="chat" unicode="&#xe720;" d="M786 421q0-77-53-143T590 174t-197-38q-48 0-98 9-70-50-155-72-21-5-48-9h-2q-6 0-12 5t-6 12q-1 1-1 3t1 4 1 3l1 3t2 3 2 3 3 3 2 2q3 3 13 14t15 16 12 17 14 21 11 25q-69 40-108 98T0 421q0 78 53 144t143 104 197 38 197-38 143-104 53-144z m214-142q0-67-40-126T852 55q5-14 11-25t14-21 13-16 14-17 13-14q0 0 2-2t3-3 2-3 2-3l1-3t1-3 1-4-1-3q-2-8-7-13t-13-4q-27 4-47 9-86 23-156 72-50-9-98-9-151 0-263 73 32-2 49-2 90 0 172 25t148 72q69 52 107 119t37 141q0 43-13 85 72-39 114-99t42-128z" horiz-adv-x="1000" />
<glyph glyph-name="comment-empty" unicode="&#xf0e5;" d="M500 636q-114 0-213-39T130 492 71 350q0-62 40-119t113-98l48-28-15-53q-13-51-39-96 85 35 154 95l24 21 31-3q39-5 73-5 114 0 213 39t157 105 59 142-59 142-157 105-213 39z m500-286q0-97-67-179T751 41 500-7q-39 0-81 4-110-97-257-135-27-7-63-12h-3q-8 0-15 6t-9 15v1q-2 2 0 7t1 5 2 5l4 5t4 5 4 5q4 5 17 19t20 22 17 22 18 28 15 33 15 42q-88 50-138 123T0 350q0 97 67 179t182 130 251 48 251-48 182-130 67-179z" horiz-adv-x="1000" />
<glyph glyph-name="chat-empty" unicode="&#xf0e6;" d="M393 636q-86 0-160-29t-118-79-44-107q0-45 30-88t83-73l54-32-19-47q19 12 34 22l25 17 29-5q44-8 86-8 85 0 159 29t119 79 43 106-43 107-118 79-160 29z m0 71q106 0 197-38t143-104 53-144-53-143-143-104-197-38q-48 0-98 9-70-50-155-72-21-5-48-9h-2q-6 0-12 5t-6 12q-1 1-1 3t1 4 1 3l1 3t2 3 2 3 3 3 2 2q3 3 13 14t15 16 12 17 14 21 11 25q-69 40-108 98T0 421q0 78 53 144t143 104 197 38zM852 55q5-14 11-25t14-21 12-16 15-17 13-14q0 0 2-2t3-3 2-3 2-3l1-3t1-3 1-4-1-3q-2-8-7-13t-13-4q-27 4-48 9-85 23-155 72-50-9-98-9-151 0-263 73 32-2 49-2 90 0 172 25t148 72q69 52 107 119t37 141q0 43-13 85 72-39 114-99t42-128q0-67-40-126T852 55z" horiz-adv-x="1000" />
<glyph glyph-name="bell" unicode="&#x1f514;" d="M509-96q0 9-9 9-33 0-57 23T420-7q0 9-9 9t-9-9q0-41 29-70t69-28q9 0 9 9zM137 64h726Q714 232 714 529q0 28-13 58t-39 58-67 45-95 17-95-17-67-45-39-58-13-58q0-297-149-465z m827 0q0-29-21-50T893-7H643q0-59-42-101t-101-42-101 42T357-7H107Q78-7 57 14T36 64q28 24 51 49t47 67 42 89 27 115 11 145q0 84 66 157t171 89q-5 10-5 21 0 23 16 38t38 16 38-16 16-38q0-11-5-21 106-16 171-89t66-157q0-78 11-145t28-115 41-89 48-67 50-49z" horiz-adv-x="1000" />
<glyph glyph-name="bell-alt" unicode="&#xf0f3;" d="M509-96q0 9-9 9-33 0-57 23T420-7q0 9-9 9t-9-9q0-41 29-70t69-28q9 0 9 9zM964 64q0-29-21-50T893-7H643q0-59-42-101t-101-42-101 42T357-7H107Q78-7 57 14T36 64q28 24 51 49t47 67 42 89 27 115 11 145q0 84 66 157t171 89q-5 10-5 21 0 23 16 38t38 16 38-16 16-38q0-11-5-21 106-16 171-89t66-157q0-78 11-145t28-115 41-89 48-67 50-49z" horiz-adv-x="1000" />
<glyph glyph-name="bell-off" unicode="&#xf1f6;" d="M869 375q34-199 167-311 0-29-21-50T964-7H714q0-59-42-101t-101-42-100 42T429-8zM571-105q9 0 9 9t-9 9q-33 0-56 23T491-7q0 9-9 9t-9-9q0-41 29-70t69-28z m560 893q4-6 4-14t-6-12L84-143q-5-5-13-4t-12 6L12-88q-4 6-4 14t6 12l104 89q-11 18-11 37 28 24 51 49t47 67 42 88 28 116 11 145q0 84 65 157t171 89q-4 10-4 21 0 23 15 38t38 16 38-16 16-38q0-11-4-21 69-10 122-46t82-88l234 202q5 5 13 4t12-6z" horiz-adv-x="1142.9" />
<glyph glyph-name="bell-off-empty" unicode="&#xf1f7;" d="M580-96q0 9-9 9-33 0-56 23T491-7q0 9-9 9t-9-9q0-41 29-70t69-28q9 0 9 9zM281 169l489 424q-23 49-74 82t-125 32q-52 0-94-17t-68-45-39-58-13-58q0-215-76-360z m755-105q0-29-21-50T964-7H714q0-59-42-101t-101-42-100 42T429-8l83 72h422q-92 105-126 256l61 55q34-199 167-311z m48 777l47-53q4-6 4-14t-6-12L84-143q-5-5-13-4t-12 6L12-88q-4 6-4 14t6 12l104 89q-11 18-11 37 28 24 51 49t47 67 42 88 28 115 11 146q0 84 65 157t171 89q-4 10-4 21 0 23 15 38t38 16 38-16 16-38q0-11-4-21 69-10 122-46t82-88l234 202q5 5 13 4t12-6z" horiz-adv-x="1142.9" />
<glyph glyph-name="attention-alt" unicode="&#xf12a;" d="M286 154V29q0-15-11-25T250-7H107Q93-7 82 3T71 30v125q0 14 11 25t25 10h143q15 0 25-10t11-25z m16 589l-15-429q-1-14-12-25t-25-10H107q-14 0-25 10t-12 25L55 743q-1 14 10 25t24 11h179q14 0 25-11t9-25z" horiz-adv-x="357.1" />
<glyph glyph-name="attention" unicode="&#x26a0;" d="M571 83v106q0 8-5 13t-12 5H446q-7 0-12-5t-5-13V83q0-8 5-13t12-6h108q7 0 12 6t5 13z m-1 208l10 257q0 6-5 10-8 6-14 6H439q-6 0-14-6-5-4-5-12l9-255q0-5 6-9t13-3h103q8 0 14 3t5 9z m-7 522L991 27q20-35-1-70-9-17-26-26t-35-10H71q-19 0-35 10T10-43Q-11-8 9 27l429 786q9 17 26 27t36 10 36-10 26-27z" horiz-adv-x="1000" />
<glyph glyph-name="attention-circled" unicode="&#x2757;" d="M429 779q116 0 215-58t156-156 57-215-57-215T644-21 429-79 213-21 58 135 0 350t58 215 155 156 216 58z m71-696v106q0 8-5 13t-12 5H376q-8 0-13-5t-6-13V83q0-8 6-13t13-6h107q7 0 12 6t5 13z m-1 192l10 346q0 7-6 10-5 5-13 5H367q-8 0-13-5-6-3-6-10l10-346q0-6 5-10t14-4h103q8 0 13 4t6 10z" horiz-adv-x="857.1" />
<glyph glyph-name="location" unicode="&#xe724;" d="M429 493q0 59-42 101t-101 42-101-42-42-101 42-101 101-42 101 42 42 101z m142 0q0-61-18-100L350-39q-9-18-27-29t-37-11-38 11-26 29L18 393Q0 432 0 493q0 118 84 202t202 84 202-84 83-202z" horiz-adv-x="571.4" />
<glyph glyph-name="direction" unicode="&#xf124;" d="M782 655L425-59q-10-20-32-20-3 0-9 2-12 2-19 12t-8 22v322H36q-13 0-22 7T1 306t2 23 17 17l714 357q7 4 16 4 15 0 25-10 9-8 10-20t-3-22z" horiz-adv-x="785.7" />
<glyph glyph-name="compass" unicode="&#xf14e;" d="M357 243l143 71-143 72V243z m214 330V270L286 127v303z m161-223q0 83-41 152T581 613t-152 41-153-41-110-111-41-152 41-152T276 87t153-41 152 41 110 111 41 152z m125 0q0-117-57-215T644-21 429-79 213-21 58 135 0 350t58 215 155 156 216 58 215-58 156-156 57-215z" horiz-adv-x="857.1" />
<glyph glyph-name="trash" unicode="&#xf1f8;" d="M286 82v393q0 8-5 13t-13 5h-36q-8 0-13-5t-5-13V82q0-8 5-13t13-5h36q8 0 13 5t5 13z m143 0v393q0 8-5 13t-13 5h-36q-8 0-13-5t-5-13V82q0-8 5-13t13-5h36q7 0 12 5t6 13z m142 0v393q0 8-5 13t-12 5h-36q-8 0-13-5t-5-13V82q0-8 5-13t13-5h36q7 0 12 5t5 13zM268 636h250l-27 65q-4 5-9 6H305q-6-1-10-6z m518-18v-36q0-8-5-13t-13-5h-54V35q0-46-26-80t-63-34H161q-37 0-63 33T71 33v531H18q-8 0-13 5t-5 13v36q0 8 5 13t13 5h172l39 93q9 21 31 35t44 15h178q23 0 44-15t30-35l39-93h173q8 0 13-5t5-13z" horiz-adv-x="785.7" />
<glyph glyph-name="trash-empty" unicode="&#xe729;" d="M286 439V118q0-8-5-13t-13-5h-36q-8 0-13 5t-5 13v321q0 8 5 13t13 5h36q8 0 13-5t5-13z m143 0V118q0-8-5-13t-13-5h-36q-8 0-13 5t-5 13v321q0 8 5 13t13 5h36q7 0 12-5t6-13z m142 0V118q0-8-5-13t-12-5h-36q-8 0-13 5t-5 13v321q0 8 5 13t13 5h36q7 0 12-5t5-13z m72-404v529H143V35q0-12 4-22t8-15 6-5h464q2 0 6 5t8 15 4 22zM268 636h250l-27 65q-4 5-9 6H305q-6-1-10-6z m518-18v-36q0-8-5-13t-13-5h-54V35q0-46-26-80t-63-34H161q-37 0-63 33T71 33v531H18q-8 0-13 5t-5 13v36q0 8 5 13t13 5h172l39 93q9 21 31 35t44 15h178q23 0 44-15t30-35l39-93h173q8 0 13-5t5-13z" horiz-adv-x="785.7" />
<glyph glyph-name="doc" unicode="&#x1f4c4;" d="M819 638q16-16 27-43t11-49V-96q0-23-15-38t-38-16H54q-23 0-38 16T0-96v892q0 23 16 38t38 16h500q22 0 49-11t42-27zM571 774V564h210q-5 17-12 23L594 762q-6 7-23 12zM786-79v572H554q-23 0-38 15t-16 38v233H71V-79h715z" horiz-adv-x="857.1" />
<glyph glyph-name="docs" unicode="&#xf0c5;" d="M946 636q23 0 38-16t16-38V-96q0-23-16-38t-38-16H411q-23 0-38 16t-16 38V64H54q-23 0-38 16T0 118v375q0 22 11 49t27 42l228 228q15 16 42 27t49 11h232q23 0 38-16t16-38V613q38 23 71 23h232zM643 517L476 350h167v167zM286 731L119 564h167v167z m109-361l176 176v233H357V546q0-22-15-37t-38-16H71V136h286v143q0 22 11 49t27 42zM929-79v643H714V332q0-22-15-38t-38-15H429V-79h500z" horiz-adv-x="1000" />
<glyph glyph-name="doc-text" unicode="&#xf0f6;" d="M819 638q16-16 27-43t11-49V-96q0-23-15-38t-38-16H54q-23 0-38 16T0-96v892q0 23 16 38t38 16h500q22 0 49-11t42-27zM571 774V564h210q-5 17-12 23L594 762q-6 7-23 12zM786-79v572H554q-23 0-38 15t-16 38v233H71V-79h715zM214 404q0 7 5 12t13 5h393q8 0 13-5t5-12v-36q0-8-5-13t-13-5H232q-8 0-13 5t-5 13v36z m411-125q8 0 13-6t5-12v-36q0-8-5-13t-13-5H232q-8 0-13 5t-5 13v36q0 7 5 12t13 6h393z m0-143q8 0 13-5t5-13V82q0-8-5-13t-13-5H232q-8 0-13 5t-5 13v36q0 8 5 13t13 5h393z" horiz-adv-x="857.1" />
<glyph glyph-name="doc-inv" unicode="&#xf15b;" d="M571 564v264q13-8 20-16l228-228q8-7 16-20H571z m-71-18q0-22 16-38t38-15h303V-96q0-23-15-38t-38-16H54q-23 0-38 16T0-96v892q0 23 16 38t38 16h446V546z" horiz-adv-x="857.1" />
<glyph glyph-name="doc-text-inv" unicode="&#xf15c;" d="M819 584q8-7 16-20H571v264q13-8 20-16z m-265-91h303V-96q0-23-15-38t-38-16H54q-23 0-38 16T0-96v892q0 23 16 38t38 16h446V546q0-22 16-38t38-15z m89-411v36q0 8-5 13t-13 5H232q-8 0-13-5t-5-13V82q0-8 5-13t13-5h393q8 0 13 5t5 13z m0 143v36q0 7-5 12t-13 6H232q-8 0-13-5t-5-13v-36q0-8 5-13t13-5h393q8 0 13 5t5 13z m0 143v36q0 7-5 12t-13 5H232q-8 0-13-5t-5-12v-36q0-8 5-13t13-5h393q8 0 13 5t5 13z" horiz-adv-x="857.1" />
<glyph glyph-name="file-pdf" unicode="&#xf1c1;" d="M819 638q16-16 27-43t11-49V-96q0-23-15-38t-38-16H54q-23 0-38 16T0-96v892q0 23 16 38t38 16h500q22 0 49-11t42-27zM571 774V564h210q-5 17-12 23L594 762q-6 7-23 12zM786-79v572H554q-23 0-38 15t-16 38v233H71V-79h715zM499 252q18-14 47-31 33 4 65 4 82 0 99-27 9-13 1-29 0-1-1-2l-1-1q-3-21-39-21-27 0-65 11t-72 29q-123-13-219-46Q229-7 179-7q-8 0-16 4l-13 6q0 1-3 3-6 6-4 20 5 23 32 51t73 54q8 5 13-3 1-1 1-2 29 47 60 110 38 75 58 146-13 46-17 89t4 71q6 22 23 22h12q13 0 20-8 10-12 5-38-1-3-2-4 0-2 0-5v-17q-1-68-8-107 31-91 82-133zM178 23q29 13 76 88-29-22-49-47t-27-41z m222 513q-9-23-2-73 1 4 4 24 0 2 4 24 1 2 3 5-1 0-1 1-1 1-1 1 0 13-7 21 0-1 0-1v-2z m-70-369q76 31 159 46-1 0-7 5t-9 8q-43 37-71 98-15-48-46-110-17-31-26-47z m361 9q-14 14-78 14 42-16 69-16 8 0 10 1 0 0-1 1z" horiz-adv-x="857.1" />
<glyph glyph-name="file-word" unicode="&#xf1c2;" d="M819 638q16-16 27-43t11-49V-96q0-23-15-38t-38-16H54q-23 0-38 16T0-96v892q0 23 16 38t38 16h500q22 0 49-11t42-27zM571 774V564h210q-5 17-12 23L594 762q-6 7-23 12zM786-79v572H554q-23 0-38 15t-16 38v233H71V-79h715zM130 421v-59h39L261-7h88l72 270q4 12 5 26 2 9 2 14h2l1-14q1-2 2-11t3-15L508-7h88l92 369h39v59H560v-59h50l-55-245q-3-11-4-25l-1-12h-3q0 2 0 3t-1 5 0 4q-1 2-2 11t-3 14l-81 304h-63l-81-304q-1-5-2-13t-2-12l-2-12h-3l-1 12q-1 14-4 25l-55 245h50v59H130z" horiz-adv-x="857.1" />
<glyph glyph-name="file-excel" unicode="&#xf1c3;" d="M819 638q16-16 27-43t11-49V-96q0-23-15-38t-38-16H54q-23 0-38 16T0-96v892q0 23 16 38t38 16h500q22 0 49-11t42-27zM571 774V564h210q-5 17-12 23L594 762q-6 7-23 12zM786-79v572H554q-23 0-38 15t-16 38v233H71V-79h715zM239 52V-7h157v59h-42l58 90q3 4 5 9t5 8 1 2h2q0-2 2-6 2-2 3-4t3-4 4-5l60-90h-43V-7h163v59h-38L472 204l108 158h38v59H462v-59h41l-57-89q-2-4-6-9t-5-8l-1-1h-1q0 2-3 5-3 6-9 13l-59 89h42v59H242v-59h38l106-152L277 52h-38z" horiz-adv-x="857.1" />
<glyph glyph-name="file-powerpoint" unicode="&#xf1c4;" d="M819 638q16-16 27-43t11-49V-96q0-23-15-38t-38-16H54q-23 0-38 16T0-96v892q0 23 16 38t38 16h500q22 0 49-11t42-27zM571 774V564h210q-5 17-12 23L594 762q-6 7-23 12zM786-79v572H554q-23 0-38 15t-16 38v233H71V-79h715zM232 52V-7h183v59h-52v93h76q43 0 66 9 37 12 60 48t22 82q0 45-21 78t-56 49q-27 10-72 10H232v-59h51l1-310h-52z m197 156h-66v150h67q29 0 46-10 31-19 31-64 0-50-34-67-18-9-44-9z" horiz-adv-x="857.1" />
<glyph glyph-name="file-image" unicode="&#xf1c5;" d="M819 638q16-16 27-43t11-49V-96q0-23-15-38t-38-16H54q-23 0-38 16T0-96v892q0 23 16 38t38 16h500q22 0 49-11t42-27zM571 774V564h210q-5 17-12 23L594 762q-6 7-23 12zM786-79v572H554q-23 0-38 15t-16 38v233H71V-79h715z m-72 250V-7H143v107l107 107 71-71 215 214zM250 279q-45 0-76 31t-31 76 31 76 76 31 76-31 31-76-31-76-76-31z" horiz-adv-x="857.1" />
<glyph glyph-name="file-archive" unicode="&#xf1c6;" d="M357 636v71h-71v-71h71z m72-72v72h-72v-72h72z m-72-71v71h-71v-71h71z m72-72v72h-72v-72h72z m390 217q16-16 27-42t11-50V-96q0-23-15-38t-38-16H54q-23 0-38 16T0-96v892q0 23 16 38t38 16h500q22 0 49-11t42-27zM571 774V564h210q-5 17-12 23L594 762q-6 7-23 12zM786-79v572H554q-23 0-38 16t-16 37v233h-71v-72h-72v72H71V-79h715zM436 324l60-195q4-15 4-29 0-46-40-77T357-7 255 23t-41 77q0 14 5 29 12 35 67 221v71h71v-71h44q13 0 22-7t13-19zM357 64q30 0 51 11t21 25-21 25-51 11-50-11-21-25 21-25 50-11z" horiz-adv-x="857.1" />
<glyph glyph-name="file-audio" unicode="&#xf1c7;" d="M819 638q16-16 27-43t11-49V-96q0-23-15-38t-38-16H54q-23 0-38 16T0-96v892q0 23 16 38t38 16h500q22 0 49-11t42-27zM571 774V564h210q-5 17-12 23L594 762q-6 7-23 12zM786-79v572H554q-23 0-38 15t-16 38v233H71V-79h715zM346 376q11-5 11-17V55q0-12-11-16-4-2-7-2-6 0-12 5l-93 94h-73q-8 0-13 5t-5 13v107q0 7 5 12t13 6h73l93 93q8 8 19 4zM579-9q17 0 28 14 72 88 72 202t-72 203q-9 11-24 13t-27-8q-11-9-13-24t8-27q56-68 56-157T551 50q-9-12-8-27t13-23q10-9 23-9zM461 74q15 0 26 11 49 52 49 122t-49 122q-10 11-25 11t-26-9-11-25 10-26q29-32 29-73t-29-73q-10-11-10-26t11-25q12-9 25-9z" horiz-adv-x="857.1" />
<glyph glyph-name="file-video" unicode="&#xf1c8;" d="M819 638q16-16 27-43t11-49V-96q0-23-15-38t-38-16H54q-23 0-38 16T0-96v892q0 23 16 38t38 16h500q22 0 49-11t42-27zM571 774V564h210q-5 17-12 23L594 762q-6 7-23 12zM786-79v572H554q-23 0-38 15t-16 38v233H71V-79h715zM429 421q29 0 50-21t21-50V136q0-29-21-51t-50-21H214q-29 0-50 21t-21 51v214q0 29 21 50t50 21h215z m274-1q11-4 11-16V82q0-12-11-17-4-1-7-1-7 0-12 5L536 218v50l148 148q5 5 12 5 3 0 7-1z" horiz-adv-x="857.1" />
<glyph glyph-name="file-code" unicode="&#xf1c9;" d="M819 638q16-16 27-43t11-49V-96q0-23-15-38t-38-16H54q-23 0-38 16T0-96v892q0 23 16 38t38 16h500q22 0 49-11t42-27zM571 774V564h210q-5 17-12 23L594 762q-6 7-23 12zM786-79v572H554q-23 0-38 15t-16 38v233H71V-79h715zM268 421q4 7 12 7t13-3l28-21q7-5 7-12t-3-14L223 243l102-136q4-6 3-13t-7-12l-28-21q-6-5-13-4t-12 7L142 232q-8 11 0 21z m447-168q8-10 0-21L589 64q-4-6-11-7t-14 4l-28 21q-6 5-7 12t3 13l102 136-102 135q-4 7-3 14t7 12l28 21q6 4 14 3t11-7zM369-4q-7 1-11 7t-3 14l77 464q1 7 7 11t14 3l35-6q7-1 11-7t3-13L425 5q-1-7-7-11t-13-3z" horiz-adv-x="857.1" />
<glyph glyph-name="folder" unicode="&#x1f4c1;" d="M929 511V118q0-52-37-88T804-7H125Q74-7 37 30T0 118v536q0 51 37 88t88 37h179q51 0 88-37t37-88v-18h375q51 0 88-37t37-88z" horiz-adv-x="928.6" />
<glyph glyph-name="folder-open" unicode="&#x1f4c2;" d="M1049 319q0-17-18-37L844 61q-24-28-68-48T697-7H89Q70-7 55 0T41 24q0 17 17 37l187 221q24 28 68 48t80 20h607q19 0 34-7t14-24zM857 511v-90H393q-53 0-110-26t-92-67L3 107l-2-3q0 2-1 7t0 7v536q0 51 37 88t88 37h179q51 0 88-37t37-88v-18h303q52 0 88-37t37-88z" horiz-adv-x="1071.4" />
<glyph glyph-name="folder-empty" unicode="&#xf114;" d="M857 118v393q0 22-15 38t-38 15H411q-23 0-38 16t-16 38v36q0 22-15 38t-38 15H125q-22 0-38-15t-16-38V118q0-22 16-38t38-16h679q22 0 38 16t15 38z m72 393V118q0-52-37-88T804-7H125Q74-7 37 30T0 118v536q0 51 37 88t88 37h179q51 0 88-37t37-88v-18h375q51 0 88-37t37-88z" horiz-adv-x="928.6" />
<glyph glyph-name="folder-open-empty" unicode="&#xf115;" d="M994 331q0 19-30 19H357q-22 0-48-12t-39-29L106 106Q95 93 95 84q0-20 30-20h607q23 0 48 13t40 29l164 203q10 12 10 21z m-637 90h429v90q0 22-16 38t-38 15H411q-23 0-38 16t-16 38v36q0 22-15 38t-38 15H125q-22 0-38-15t-16-38V178l143 175q25 30 65 49t78 19z m708-91q0-34-25-66L875 61q-24-30-65-49T732-7H125Q74-7 37 30T0 118v536q0 51 37 88t88 37h179q51 0 88-37t37-88v-18h303q52 0 88-37t37-88v-90h107q30 0 56-13t37-40q8-17 8-37z" horiz-adv-x="1071.4" />
<glyph glyph-name="box" unicode="&#xf187;" d="M607 386q0 14-10 25t-26 10H429q-15 0-25-10t-11-25 10-25 26-11h142q15 0 26 11t10 25z m322 107V-43q0-14-11-25t-25-11H107q-14 0-25 11T71-43v536q0 14 11 25t25 11h786q14 0 25-11t11-25z m35 250V600q0-14-10-25t-25-11H71q-14 0-25 11t-10 25v143q0 14 10 25t25 11h858q14 0 25-11t10-25z" horiz-adv-x="1000" />
<glyph glyph-name="rss" unicode="&#xf09e;" d="M214 100q0-45-31-76T107-7 31 24 0 100t31 76 76 31 76-31 31-76z m286-69q1-15-9-26-10-12-27-12h-75q-14 0-24 9t-11 23q-12 128-103 219T32 347q-14 1-23 11t-9 24v75q0 16 12 26 9 10 24 10h3q89-7 170-45t145-101q63-63 101-145t45-171z m286-1q1-15-10-26-10-11-26-11h-80q-14 0-25 10t-10 23q-7 120-57 228T449 442 261 571 34 628q-14 0-24 11T0 663v80q0 15 11 25 10 11 25 11h1q147-8 280-67t238-165q104-103 164-237t67-280z" horiz-adv-x="785.7" />
<glyph glyph-name="rss-squared" unicode="&#xf143;" d="M286 136q0 29-21 50t-51 21-50-21-21-50 21-51 50-21 51 21 21 51z m196-53q-8 130-99 222t-221 98q-8 1-14-5t-5-13v-71q0-8 5-13t12-5q86-6 147-68t67-147q1-7 6-12t12-5h72q7 0 13 6t5 13z m214 0q-3 86-31 166t-78 145-115 114-145 78-166 31q-7 1-13-5-5-5-5-13v-71q0-7 5-12t12-6q114-4 211-62t156-155 62-211q0-8 5-13t13-5h71q7 0 13 6 6 5 5 13z m161 535V82q0-66-47-113T696-79H161Q94-79 47-31T0 82v536q0 66 47 113t114 48h535q67 0 114-48t47-113z" horiz-adv-x="857.1" />
<glyph glyph-name="phone" unicode="&#x1f4de;" d="M786 158q0-15-6-39t-12-38q-11-28-68-60Q648-7 596-7q-14 0-29 2t-32 7-26 8-31 11-28 10q-54 20-97 47-71 44-148 120T85 346q-27 43-46 97-2 5-10 28t-12 31-8 26-7 32-2 29q0 52 29 104 31 57 59 68 14 6 38 12t39 6q8 0 12-2 10-3 29-42 7-11 17-31t20-35 17-30q2-2 10-14t12-20 4-16q0-11-16-27t-35-31-34-30-16-25q0-5 2-13t5-11 8-14 6-10q43-77 98-132t131-97q1 0 10-6t14-8 11-5 13-2q10 0 25 16t30 34 31 35 27 16q8 0 16-4t20-12 14-10q14-8 30-17t35-20 31-17q39-19 42-29 2-4 2-12z" horiz-adv-x="785.7" />
<glyph glyph-name="phone-squared" unicode="&#xf098;" d="M714 184q0 6-1 9t-10 9-23 14-26 15-25 14-16 8q-3 2-11 8t-14 8-11 3q-9 0-21-12t-22-25-21-25-19-11q-4 0-9 2t-9 3-9 6-8 4q-55 31-95 71t-71 95q-1 2-5 8t-5 9-4 9-2 9q0 8 12 19t25 22 25 22 11 20q0 5-2 12t-9 13-7 11q-2 4-8 16t-14 25-15 27-14 23-9 10-9 1q-27 0-56-13-26-11-45-52t-19-73q0-9 1-19t3-17 5-18 6-17 7-18 6-17q33-92 121-179T470 92q4-1 17-6t19-7 16-5 19-5 17-3 19-2q31 0 72 19t53 45q12 29 12 56z m143 434V82q0-66-47-113T696-79H161Q94-79 47-31T0 82v536q0 66 47 113t114 48h535q67 0 114-48t47-113z" horiz-adv-x="857.1" />
<glyph glyph-name="fax" unicode="&#xf1ac;" d="M161 636q36 0 63-26t26-64V-61q0-37-26-63t-63-26H89q-36 0-63 26T0-61v607q0 37 26 63t63 27h72z m768-91q32-19 51-52t20-72V-7q0-59-42-101t-101-42H375q-37 0-63 26t-26 63v857q0 23 15 38t38 16h375q23 0 49-11t43-27l85-85q15-15 26-42t12-49v-91zM518-7v71q0 8-5 13t-13 5h-71q-8 0-13-5t-5-13V-7q0-8 5-13t13-5h71q8 0 13 5t5 13z m0 143v71q0 8-5 13t-13 5h-71q-8 0-13-5t-5-13v-71q0-8 5-13t13-5h71q8 0 13 5t5 13z m0 143v71q0 8-5 13t-13 5h-71q-8 0-13-5t-5-13v-71q0-8 5-13t13-5h71q8 0 13 5t5 13zM661-7v71q0 8-5 13t-13 5h-72q-7 0-12-5t-5-13V-7q0-8 5-13t12-5h72q8 0 13 5t5 13z m0 143v71q0 8-5 13t-13 5h-72q-7 0-12-5t-5-13v-71q0-8 5-13t12-5h72q8 0 13 5t5 13z m0 143v71q0 8-5 13t-13 5h-72q-7 0-12-5t-5-13v-71q0-8 5-13t12-5h72q8 0 13 5t5 13zM804-7v71q0 8-5 13t-13 5h-72q-7 0-12-5t-6-13V-7q0-8 6-13t12-5h72q8 0 13 5t5 13z m0 143v71q0 8-5 13t-13 5h-72q-7 0-12-5t-6-13v-71q0-8 6-13t12-5h72q8 0 13 5t5 13z m0 143v71q0 8-5 13t-13 5h-72q-7 0-12-5t-6-13v-71q0-8 6-13t12-5h72q8 0 13 5t5 13z m53 214v143h-89q-23 0-38 15t-16 38v90H357V493h500z" horiz-adv-x="1000" />
<glyph glyph-name="menu" unicode="&#xf0c9;" d="M857 100V29q0-15-10-26T821-7H36Q21-7 11 3T0 29v71q0 15 11 25t25 11h785q15 0 26-11t10-25z m0 286v-72q0-14-10-25t-26-10H36q-15 0-25 10T0 314v72q0 14 11 25t25 10h785q15 0 26-10t10-25z m0 285v-71q0-14-10-25t-26-11H36q-15 0-25 11T0 600v71q0 15 11 25t25 11h785q15 0 26-10t10-26z" horiz-adv-x="857.1" />
<glyph glyph-name="cog" unicode="&#x2699;" d="M571 350q0 59-41 101t-101 42-101-42-42-101 42-101 101-42 101 42 41 101z m286 61V287q0-7-4-13t-12-7l-103-16q-10-30-22-51 20-28 60-77 6-6 6-14t-5-12q-15-21-56-61T670-3q-7 0-14 5l-77 60q-25-13-51-21-9-76-16-104-4-16-20-16H367q-8 0-14 5t-6 12L331 41q-27 9-50 20L202 2q-6-5-14-5t-14 6q-70 63-92 94-4 5-4 13 0 6 5 12 8 12 28 37t30 40q-15 28-23 55L16 269q-7 1-11 7t-5 13v124q0 7 5 13t10 7l104 16q8 25 22 51-23 32-60 77-6 7-6 14 0 5 5 12 15 20 55 60t53 40q7 0 15-5l77-60q24 13 50 21 9 76 17 104 3 16 20 16h124q7 0 13-5t7-12l15-103q28-9 50-20l80 59q5 5 13 5 7 0 14-5 72-67 92-95 4-5 4-12t-4-13q-9-12-29-37t-30-40q15-28 23-54l102-16q7-1 12-7t4-13z" horiz-adv-x="857.1" />
<glyph glyph-name="cog-alt" unicode="&#x26ef;" d="M500 350q0 59-42 101t-101 42-101-42-42-101 42-101 101-42 101 42 42 101zM929 64q0 29-22 51t-50 21-50-21-21-51q0-29 21-50t50-21 51 21 21 50z m0 572q0 29-22 50t-50 21-50-21-21-50q0-30 21-51t50-21 51 21 21 51zM714 401V298q0-6-4-11t-9-6l-86-14q-6-19-18-42 19-27 50-64 4-6 4-11 0-7-4-11-12-17-46-50t-43-33q-7 0-12 4l-64 50q-21-11-43-17-6-60-13-87-4-13-17-13H305q-6 0-11 4t-6 10l-12 85q-19 6-42 18l-66-50q-4-4-11-4-6 0-12 4-80 75-80 90 0 5 4 10 5 8 23 30t26 34q-13 24-20 46l-85 13q-5 1-9 5t-4 11v104q0 5 4 10t9 6l86 14q6 19 18 42-19 27-50 64-4 6-4 11 0 7 4 12 12 16 46 49t44 33q6 0 12-4l64-50q19 10 43 18 6 60 12 86 4 13 17 13h104q6 0 11-4t6-10l13-85q19-6 42-17l65 49q5 4 11 4 7 0 12-4 81-75 81-90 0-4-4-10-7-9-24-30t-25-34q13-27 19-46l85-12q5-2 9-6t4-11z m357-298V25q0-9-83-17-6-15-16-29 28-63 28-77 0-2-2-4-68-40-69-40-5 0-26 27t-29 38q-11-2-17-2t-17 2q-7-12-29-38t-25-27q-1 0-70 40-2 2-2 4 0 14 29 77-10 14-17 29-83 8-83 17v78q0 9 83 18 7 16 17 29-29 63-29 77 0 2 2 4 3 1 20 11t33 19 17 9q4 0 25-26t29-38q12 1 17 1t17-1q28 40 51 63l4 1q2 0 69-39 2-2 2-4 0-14-28-77 9-13 16-29 83-9 83-18z m0 572v-78q0-9-83-18-6-15-16-29 28-63 28-77 0-2-2-4-68-39-69-39-5 0-26 26t-29 38q-11-1-17-1t-17 1q-7-12-29-38t-25-26q-1 0-70 39-2 2-2 4 0 14 29 77-10 14-17 29-83 9-83 18v78q0 9 83 17 7 16 17 29-29 63-29 77 0 2 2 4 3 1 20 11t33 19 17 9q4 0 25-26t29-37q12 1 17 1t17-1q28 39 51 62l4 1q2 0 69-39 2-2 2-4 0-14-28-77 9-13 16-29 83-8 83-17z" horiz-adv-x="1071.4" />
<glyph glyph-name="wrench" unicode="&#x1f527;" d="M214 29q0 14-10 25t-25 10-25-10-11-25 11-25 25-11 25 11 10 25z m360 234L193-118q-21-20-50-20t-51 20L33-57Q12-37 12-7q0 29 21 51l380 380q22-55 64-97t97-64z m354 243q0-22-13-60-27-74-92-121t-144-46q-104 0-177 73t-73 177 73 176 177 74q32 0 67-10t60-26q9-6 9-15t-9-16l-163-94V493l108-60q2 2 44 27t75 45 40 20q8 0 13-5t5-14z" horiz-adv-x="928.6" />
<glyph glyph-name="sliders" unicode="&#xf1de;" d="M196 64V-7H0v71h196z m197 72q14 0 25-11t11-25V-43q0-14-11-25t-25-11H250q-14 0-25 11t-11 25v143q0 15 11 25t25 11h143z m89 214v-71H0v71h482zM125 636v-72H0v72h125zM857 64V-7H446v71h411zM321 707q15 0 25-10t11-26V529q0-15-10-25t-26-11H179q-15 0-26 11t-10 25v142q0 15 11 26t25 10h142z m358-286q14 0 25-10t10-25V243q0-15-10-25t-25-11H536q-15 0-25 11t-11 25v143q0 14 11 25t25 10h143z m178-71v-71H732v71h125z m0 286v-72H375v72h482z" horiz-adv-x="857.1" />
<glyph glyph-name="basket" unicode="&#xe73d;" d="M357-7q0-29-21-50t-50-22-50 22-22 50 22 50 50 21 50-21 21-50z m500 0q0-29-21-50t-50-22-51 22-21 50 21 50 51 21 50-21 21-50z m72 607V314q0-13-10-23t-22-12l-583-68q7-34 7-40 0-8-13-35h513q15 0 25-11t11-25-11-25-25-11H250q-14 0-25 11t-11 25q0 6 5 18t9 20 12 22 8 17l-98 459H36q-15 0-25 10T0 671t11 26 25 10h143q9 0 16-3t10-9 8-14 4-14 3-17 3-14h670q14 0 25-11t11-25z" horiz-adv-x="928.6" />
<glyph glyph-name="cart-plus" unicode="&#xf217;" d="M679 457q0 15-11 25t-25 11h-72v71q0 15-10 25t-25 11-25-11-11-25v-71h-71q-15 0-25-11t-11-25 10-25 26-11h71v-71q0-14 11-25t25-11 25 11 10 25v71h72q14 0 25 11t11 25zM357-7q0-30-21-51t-50-21-51 21-21 51 21 50 51 21 50-21 21-50z m500 0q0-30-21-51t-50-21-51 21-21 51 21 50 51 21 50-21 21-50z m72 607V314q0-13-9-23t-23-12l-583-68q1-4 3-12t3-15 1-13q0-8-13-35h513q15 0 26-11t10-25-10-25-26-11H250q-14 0-25 11t-11 25q0 8 6 22t17 33 11 22l-98 459H36q-15 0-25 10T0 671t11 26 25 10h143q9 0 16-3t11-9 7-14 4-15 3-16 3-14h670q14 0 25-11t11-25z" horiz-adv-x="928.6" />
<glyph glyph-name="cart-arrow-down" unicode="&#xf218;" d="M714 457q0 15-10 25t-25 11-26-11l-82-81v163q0 15-10 25t-25 11-25-11-11-25V401l-82 81q-11 11-25 11t-25-11-11-25 11-25l143-143q10-10 25-10t25 10l143 143q10 11 10 25zM357-7q0-30-21-51t-50-21-51 21-21 51 21 50 51 21 50-21 21-50z m500 0q0-30-21-51t-50-21-51 21-21 51 21 50 51 21 50-21 21-50z m72 607V314q0-13-9-23t-23-12l-583-68q1-4 3-12t3-15 1-13q0-8-13-35h513q15 0 26-11t10-25-10-25-26-11H250q-14 0-25 11t-11 25q0 8 6 22t17 33 11 22l-98 459H36q-15 0-25 10T0 671t11 26 25 10h143q9 0 16-3t11-9 7-14 4-15 3-16 3-14h670q14 0 25-11t11-25z" horiz-adv-x="928.6" />
<glyph glyph-name="calendar" unicode="&#x1f4c5;" d="M71-79h161V82H71V-79z m197 0h178V82H268V-79zM71 118h161v178H71V118z m197 0h178v178H268V118zM71 332h161v161H71V332zM482-79h179V82H482V-79zM268 332h178v161H268V332zM696-79h161V82H696V-79zM482 118h179v178H482V118zM286 600v161q0 7-6 12t-12 6h-36q-7 0-12-6t-6-12V600q0-7 6-13t12-5h36q7 0 12 5t6 13z m410-482h161v178H696V118zM482 332h179v161H482V332z m214 0h161v161H696V332z m18 268v161q0 7-5 12t-13 6h-35q-8 0-13-6t-5-12V600q0-7 5-13t13-5h35q8 0 13 5t5 13z m215 36V-79q0-29-22-50t-50-21H71q-29 0-50 21T0-79v715q0 29 21 50t50 21h72v54q0 37 26 63t63 26h36q37 0 63-26t26-63v-54h214v54q0 37 27 63t63 26h35q37 0 64-26t26-63v-54h71q29 0 50-21t22-50z" horiz-adv-x="928.6" />
<glyph glyph-name="calendar-empty" unicode="&#xf133;" d="M71-79h786v572H71V-79z m215 679v161q0 8-5 13t-13 5h-36q-8 0-13-5t-5-13V600q0-8 5-13t13-5h36q8 0 13 5t5 13z m428 0v161q0 8-5 13t-13 5h-35q-8 0-13-5t-5-13V600q0-8 5-13t13-5h35q8 0 13 5t5 13z m215 36V-79q0-29-22-50t-50-21H71q-29 0-50 21T0-79v715q0 29 21 50t50 21h72v54q0 37 26 63t63 26h36q37 0 63-26t26-63v-54h214v54q0 37 27 63t63 26h35q37 0 64-26t26-63v-54h71q29 0 50-21t22-50z" horiz-adv-x="928.6" />
<glyph glyph-name="login" unicode="&#xe740;" d="M661 350q0-14-11-25L347 21q-11-10-26-10t-25 10-10 25v161H36q-15 0-25 11T0 243v214q0 15 11 25t25 11h250v161q0 14 10 25t25 10 26-10l303-304q11-11 11-25z m196 196V154q0-67-47-114T696-7H518q-7 0-13 5t-5 13q0 2-1 11t0 15 2 13 5 11 12 3h178q37 0 64 27t26 63v392q0 37-26 64t-64 26H522t-6 0-7 2-4 3-4 5-1 8q0 2-1 11t0 15 2 13 5 11 12 3h178q67 0 114-47t47-114z" horiz-adv-x="857.1" />
<glyph glyph-name="logout" unicode="&#xe741;" d="M357 46q0-2 1-11t0-15-2-13-5-11-12-3H161Q94-7 47 40T0 154v392q0 67 47 114t114 47h178q7 0 13-5t5-13q0-2 1-11t0-15-2-13-5-11-12-3H161q-37 0-63-26t-27-64V154q0-37 27-64t63-26h174t6 0 7-2 4-3 4-5 1-8z m518 304q0-14-11-25L561 21q-11-10-25-10t-25 10-11 25v161H250q-14 0-25 11t-11 25v214q0 15 11 25t25 11h250v161q0 14 11 25t25 10 25-10l303-304q11-11 11-25z" horiz-adv-x="928.6" />
<glyph glyph-name="mic" unicode="&#xf130;" d="M643 457v-71q0-124-83-215T358 67V-7h143q15 0 25-11t11-25-11-25-25-11H143q-15 0-25 11t-11 25 11 25 25 11h143v74Q165 80 82 171T0 386v71q0 15 11 25t25 11 25-11 10-25v-71q0-103 74-177t176-73 177 73 73 177v71q0 15 11 25t25 11 25-11 11-25zM500 671V386q0-74-52-126t-127-53-126 53-52 126v285q0 74 52 127t126 52 126-52 53-127z" horiz-adv-x="642.9" />
<glyph glyph-name="mute" unicode="&#xf131;" d="M151 323l-56-57q-24 58-24 120v71q0 15 11 25t25 11 25-11 11-25v-71q0-30 8-63z m622 336L571 457v-71q0-74-52-126t-126-53q-31 0-61 11l-53-54q54-28 114-28 103 0 176 73t74 177v71q0 15 10 25t26 11 25-11 10-25v-71q0-124-82-215T429 67V-7h142q15 0 26-11t10-25-10-25-26-11H214q-14 0-25 11t-10 25 10 25 25 11h143v74q-70 7-131 45L84-30q-5-6-13-6t-12 6L13 16q-6 5-6 13t6 12l689 689q5 6 12 6t13-6l46-46q5-5 5-13t-5-12z m-212 73L214 386v285q0 74 53 126t126 53q57 0 103-33t65-85z" horiz-adv-x="785.7" />
<glyph glyph-name="volume-off" unicode="&#x1f507;" d="M429 654V46q0-14-11-25t-25-10-25 10L182 207H36q-15 0-25 11T0 243v214q0 15 11 25t25 11h146l186 186q10 10 25 10t25-10 11-25z" horiz-adv-x="428.6" />
<glyph glyph-name="volume-down" unicode="&#x1f509;" d="M429 654V46q0-14-11-25t-25-10-25 10L182 207H36q-15 0-25 11T0 243v214q0 15 11 25t25 11h146l186 186q10 10 25 10t25-10 11-25z m214-304q0-42-24-79t-63-52q-5-3-14-3-14 0-25 10t-10 26q0 12 6 20t17 14 19 12 16 20 6 32-6 32-16 20-19 13-17 13-6 20q0 15 10 26t25 10q9 0 14-3 39-15 63-52t24-79z" horiz-adv-x="642.9" />
<glyph glyph-name="volume-up" unicode="&#x1f50a;" d="M429 654V46q0-14-11-25t-25-10-25 10L182 207H36q-15 0-25 11T0 243v214q0 15 11 25t25 11h146l186 186q10 10 25 10t25-10 11-25z m214-304q0-42-24-79t-63-52q-5-3-14-3-14 0-25 10t-10 26q0 12 6 20t17 14 19 12 16 20 6 32-6 32-16 20-19 13-17 13-6 20q0 15 10 26t25 10q9 0 14-3 39-15 63-52t24-79z m143 0q0-85-48-158T613 87q-7-3-14-3-15 0-26 11t-10 25q0 22 21 33 31 16 43 25 41 30 64 75t23 97-23 97-64 75q-11 9-43 25-22 11-22 33 1 14 11 25t25 11q8 0 15-3 78-33 125-105t48-158z m143 0q0-128-71-236T669-44q-7-3-14-3-15 0-25 11t-11 25q0 20 22 33 4 2 12 6t13 6q25 13 46 28 68 51 107 127t38 161-38 161-107 127q-21 14-46 28-4 3-13 6t-12 6q-22 13-22 33 0 15 10 25t26 11q7 0 14-3 118-51 189-158t71-236z" horiz-adv-x="928.6" />
<glyph glyph-name="headphones" unicode="&#x1f3a7;" d="M929 356q0-93-34-176l-11-27-103-18q-13-47-51-77t-87-29V11q0-8-5-13t-13-5h-36q-8 0-13 5t-5 13v321q0 8 5 13t13 5h36q8 0 13-5t5-13v-18q39 0 72-20t52-53l38 7q16 53 16 108 0 82-49 155T640 628t-176 43-176-43-132-117-49-155q0-55 16-108l38-7q19 34 52 53t73 20v18q0 8 5 13t13 5h35q8 0 13-5t5-13V11q0-8-5-13t-13-5h-35q-8 0-13 5t-5 13v18q-49 0-88 29t-50 77L45 153l-11 27Q0 263 0 356q0 84 37 162t100 135 149 91 178 35 179-34 148-92 100-135 38-162z" horiz-adv-x="928.6" />
<glyph glyph-name="clock" unicode="&#x1f554;" d="M500 546V296q0-7-5-12t-13-5H304q-8 0-13 5t-5 12v36q0 8 5 13t13 5h125v196q0 8 5 13t12 5h36q8 0 13-5t5-13z m232-196q0 83-41 152T581 613t-152 41-153-41-110-111-41-152 41-152T276 87t153-41 152 41 110 111 41 152z m125 0q0-117-57-215T644-21 429-79 213-21 58 135 0 350t58 215 155 156 216 58 215-58 156-156 57-215z" horiz-adv-x="857.1" />
<glyph glyph-name="lightbulb" unicode="&#xf0eb;" d="M411 529q0-8-6-13t-12-5-13 5-5 13q0 25-30 39t-59 14q-8 0-13 5t-5 13 5 13 13 5q28 0 55-9t49-30 21-50z m89 0q0 40-19 74t-50 57-69 35-76 12-77-12-68-35-50-57-20-74q0-57 38-101 6-6 17-18t17-19q72-85 79-166h127q8 81 79 166 6 6 17 19t17 18q38 44 38 101z m71 0q0-87-57-150-25-27-42-48t-33-54-19-60q26-15 26-46 0-20-14-35 14-15 14-36 0-29-25-45 8-13 8-26 0-26-18-40t-43-14q-11-25-34-39t-48-15-49 15-33 39q-26 0-44 14t-17 40q0 13 7 26-25 16-25 45 0 21 14 36-14 15-14 35 0 31 26 46-2 28-19 60t-33 54-41 48Q0 442 0 529q0 55 25 103t65 79 92 49 104 19 104-19 91-49 66-80 24-102z" horiz-adv-x="571.4" />
<glyph glyph-name="block" unicode="&#x1f6ab;" d="M732 352q0 89-48 164L263 96q76-50 166-50 62 0 118 25t96 65 65 97 24 119zM175 185l421 421q-75 50-167 50-83 0-153-40T166 505t-41-153q0-91 50-167z m682 167q0-88-34-168T732 47 595-44 429-79 262-44 125 47 34 184 0 352t34 167 91 137 137 91 167 34 166-34 137-91 91-137 34-167z" horiz-adv-x="857.1" />
<glyph glyph-name="resize-full" unicode="&#xe744;" d="M421 261q0-7-5-13L231 63l80-81q10-10 10-25t-10-25-25-11H36q-15 0-25 11T0-43v250q0 15 11 25t25 11 25-11l80-80 186 185q5 6 12 6t13-6l64-64q5-5 5-12z m436 482V493q0-15-10-25t-26-11-25 11l-80 80-185-185q-6-6-13-6t-13 6l-64 64q-5 5-5 12t5 13l186 185-81 81q-10 10-10 25t10 25 25 11h250q15 0 25-11t11-25z" horiz-adv-x="857.1" />
<glyph glyph-name="resize-full-alt" unicode="&#xf0b2;" d="M716 548L518 350l198-198 80 80q16 18 39 8 22-9 22-33V-43q0-14-10-25t-26-11H571q-23 0-33 23-9 22 8 38l81 81-198 198L231 63l80-81q17-16 8-38-10-23-33-23H36q-15 0-25 11T0-43v250q0 24 22 33 22 10 39-8l80-80 198 198-198 198-80-80q-11-11-25-11-7 0-14 3-22 9-22 33v250q0 14 11 25t25 11h250q23 0 33-23 9-21-8-38l-81-81 199-198 198 198-81 81q-17 17-7 38 9 23 32 23h250q15 0 25-11t11-25V493q0-24-22-33-7-3-14-3-14 0-25 11z" horiz-adv-x="857.1" />
<glyph glyph-name="resize-small" unicode="&#xe746;" d="M429 314V64q0-14-11-25t-25-10-25 10l-81 80L102-66q-6-5-13-5t-13 5L14-2Q7 4 7 11t6 13l185 185-80 80q-11 11-11 25t11 25 25 11h250q14 0 25-11t11-25z m421 375q0-7-6-13L659 492l80-80q11-11 11-25t-11-25-25-11H464q-14 0-25 11t-10 25v250q0 14 10 25t25 10 25-10l81-80 185 185q6 5 13 5t13-5l63-64q6-5 6-13z" horiz-adv-x="857.1" />
<glyph glyph-name="resize-vertical" unicode="&#x2b0c;" d="M393 671q0-14-11-25t-25-10h-71V64h71q15 0 25-10t11-25-11-26L239-139q-10-11-25-11t-25 11L46 3Q36 14 36 29t10 25 25 10h72v572H71q-14 0-25 10t-10 25 10 25l143 143q11 11 25 11t25-11l143-143q11-10 11-25z" horiz-adv-x="428.6" />
<glyph glyph-name="resize-horizontal" unicode="&#x2b0d;" d="M1000 350q0-14-11-25L847 182q-11-11-26-11t-25 11-10 25v72H214v-72q0-14-10-25t-25-11-25 11L11 325Q0 336 0 350t11 25l143 143q10 11 25 11t25-11 10-25v-72h572v72q0 14 10 25t25 11 25-11l143-143q11-10 11-25z" horiz-adv-x="1000" />
<glyph glyph-name="move" unicode="&#xf047;" d="M1000 350q0-14-11-25L847 182q-11-11-26-11t-25 11-10 25v72H571V64h72q14 0 25-10t11-25-11-25L525-139q-10-11-25-11t-25 11L332 4q-11 10-11 25t11 25 25 10h72v215H214v-72q0-14-10-25t-25-11-25 11L11 325Q0 336 0 350t11 25l143 143q10 11 25 11t25-11 10-25v-72h215v215h-72q-14 0-25 10t-11 25 11 26l143 142q11 11 25 11t25-11l143-142q11-11 11-26t-11-25-25-10h-72V421h215v72q0 14 10 25t25 11 26-11l142-143q11-10 11-25z" horiz-adv-x="1000" />
<glyph glyph-name="zoom-in" unicode="&#xe750;" d="M571 404v-36q0-7-5-13t-12-5H429V225q0-7-6-13t-12-5h-36q-7 0-13 5t-5 13v125H232q-7 0-12 5t-6 13v36q0 7 6 12t12 5h125v125q0 8 5 13t13 5h36q7 0 12-5t6-13V421h125q7 0 12-5t5-12z m72-18q0 103-74 176t-176 74-177-74-73-176 73-177 177-73 176 73 74 177zM929-79q0-29-21-50t-51-21q-30 0-50 21L616 62Q516-7 393-7q-80 0-153 31t-125 83-84 126T0 386t31 152 84 126 125 84 153 31 152-31 126-84 84-126 31-152q0-123-69-223L908-28q21-21 21-51z" horiz-adv-x="928.6" />
<glyph glyph-name="zoom-out" unicode="&#xe751;" d="M571 404v-36q0-7-5-13t-12-5H232q-7 0-12 5t-6 13v36q0 7 6 12t12 5h322q7 0 12-5t5-12z m72-18q0 103-74 176t-176 74-177-74-73-176 73-177 177-73 176 73 74 177zM929-79q0-29-21-50t-51-21q-30 0-50 21L616 62Q516-7 393-7q-80 0-153 31t-125 83-84 126T0 386t31 152 84 126 125 84 153 31 152-31 126-84 84-126 31-152q0-123-69-223L908-28q21-21 21-51z" horiz-adv-x="928.6" />
<glyph glyph-name="down-circled2" unicode="&#xe758;" d="M625 332q0-7-6-13L441 141q-6-5-12-5t-13 5L237 319q-8 9-4 20 5 11 17 11h107v196q0 8 5 13t13 5h107q8 0 13-5t5-13V350h107q8 0 13-5t5-13zM429 654q-83 0-153-41T166 502t-41-152 41-152T276 87t153-41 152 41 110 111 41 152-41 152-110 111-152 41z m428-304q0-117-57-215T644-21 429-79 213-21 58 135 0 350t58 215 155 156 216 58 215-58 156-156 57-215z" horiz-adv-x="857.1" />
<glyph glyph-name="up-circled2" unicode="&#xe75b;" d="M624 361q-5-11-17-11H500V154q0-8-5-13t-13-5H375q-8 0-13 5t-5 13v196H250q-8 0-13 5t-5 13q0 7 6 13l178 178q6 5 13 5t12-5l179-178q8-9 4-20zM429 654q-83 0-153-41T166 502t-41-152 41-152T276 87t153-41 152 41 110 111 41 152-41 152-110 111-152 41z m428-304q0-117-57-215T644-21 429-79 213-21 58 135 0 350t58 215 155 156 216 58 215-58 156-156 57-215z" horiz-adv-x="857.1" />
<glyph glyph-name="left-circled2" unicode="&#xf190;" d="M643 404V296q0-7-5-12t-13-5H429V171q0-7-5-12t-13-5q-7 0-14 5L219 337q-5 5-5 13t5 13l179 178q5 5 13 5 7 0 12-5t6-12V421h196q7 0 13-5t5-12z m89-54q0 83-41 152T581 613t-152 41-153-41-110-111-41-152 41-152T276 87t153-41 152 41 110 111 41 152z m125 0q0-117-57-215T644-21 429-79 213-21 58 135 0 350t58 215 155 156 216 58 215-58 156-156 57-215z" horiz-adv-x="857.1" />
<glyph glyph-name="right-circled2" unicode="&#xf18e;" d="M643 350q0-8-5-13L459 159q-5-5-13-5-7 0-12 5t-5 12v108H232q-7 0-12 5t-6 12v108q0 7 6 12t12 5h197v108q0 7 5 12t12 5q7 0 14-5l178-178q5-5 5-13z m89 0q0 83-41 152T581 613t-152 41-153-41-110-111-41-152 41-152T276 87t153-41 152 41 110 111 41 152z m125 0q0-117-57-215T644-21 429-79 213-21 58 135 0 350t58 215 155 156 216 58 215-58 156-156 57-215z" horiz-adv-x="857.1" />
<glyph glyph-name="down-dir" unicode="&#x25be;" d="M571 457q0-14-10-25L311 182q-11-11-25-11t-25 11L11 432Q0 443 0 457t11 25 25 11h500q14 0 25-11t10-25z" horiz-adv-x="571.4" />
<glyph glyph-name="up-dir" unicode="&#x25b4;" d="M571 171q0-14-10-25t-25-10H36q-15 0-25 10T0 171t11 26l250 250q10 10 25 10t25-10l250-250q10-11 10-26z" horiz-adv-x="571.4" />
<glyph glyph-name="left-dir" unicode="&#x25c2;" d="M357 600V100q0-14-10-25t-26-11-25 11L46 325q-10 11-10 25t10 25l250 250q11 11 25 11t26-11 10-25z" horiz-adv-x="357.1" />
<glyph glyph-name="right-dir" unicode="&#x25b8;" d="M321 350q0-14-10-25L61 75Q50 64 36 64T11 75 0 100v500q0 15 11 25t25 11 25-11l250-250q10-10 10-25z" horiz-adv-x="357.1" />
<glyph glyph-name="down-open" unicode="&#xe75c;" d="M939 399L525-14q-10-11-25-11t-25 11L61 399q-11 11-11 26t11 25l93 92q10 11 25 11t25-11l296-296 296 296q11 11 25 11t25-11l93-92q11-11 11-26t-11-25z" horiz-adv-x="1000" />
<glyph glyph-name="left-open" unicode="&#xe75d;" d="M654 682L357 386 654 89q10-10 10-25t-10-25l-93-93q-11-10-25-10t-25 10L97 362q-11 10-11 25t11 25l414 414q10 11 25 11t25-11l93-93q10-10 10-25t-10-25z" horiz-adv-x="714.3" />
<glyph glyph-name="right-open" unicode="&#xe75e;" d="M618 361L204-53q-11-11-25-11t-25 11L61 39Q50 50 50 64t11 25l296 297L61 682q-11 11-11 25t11 25l93 93q10 11 25 11t25-11l414-414q10-11 10-25t-10-25z" horiz-adv-x="714.3" />
<glyph glyph-name="up-open" unicode="&#xe75f;" d="M939 107l-92-92Q836 5 821 5t-25 10L500 312 204 15Q193 5 179 5t-26 10l-92 92q-11 11-11 26t11 25l414 414q10 10 25 10t25-10l414-414q11-11 11-25t-11-26z" horiz-adv-x="1000" />
<glyph glyph-name="angle-left" unicode="&#xf104;" d="M350 546q0-7-6-12L125 314 344 95q6-6 6-13t-6-13l-28-28q-5-5-12-5t-13 5L31 301q-6 6-6 13t6 13l260 260q5 6 13 6t12-6l28-28q6-5 6-13z" horiz-adv-x="357.1" />
<glyph glyph-name="angle-right" unicode="&#xf105;" d="M332 314q0-7-5-13L66 41q-5-5-12-5t-13 5L13 69q-6 6-6 13t6 13l219 219L13 534q-6 5-6 12t6 13l28 28q5 6 13 6t12-6l261-260q5-6 5-13z" horiz-adv-x="357.1" />
<glyph glyph-name="angle-up" unicode="&#xf106;" d="M600 189q0-7-6-13l-28-28q-5-5-12-5t-13 5L321 368 102 148q-5-5-13-5t-13 5l-27 28q-6 6-6 13t6 13l260 260q5 6 12 6t13-6l260-260q6-6 6-13z" horiz-adv-x="642.9" />
<glyph glyph-name="angle-down" unicode="&#xf107;" d="M600 439q0-7-6-12L334 166q-5-5-13-5t-12 5L49 427q-6 5-6 12t6 13l28 28q5 6 12 6t13-6l219-219 220 219q5 6 13 6t12-6l28-28q6-6 6-13z" horiz-adv-x="642.9" />
<glyph glyph-name="angle-circled-left" unicode="&#xf137;" d="M507 72l57 57q11 10 11 25t-11 25L393 350l171 171q11 11 11 25t-11 25l-57 58q-10 10-25 10t-25-11L204 376q-11-10-11-25t11-25L457 72q11-11 25-11t25 10z m350 278q0-117-57-215T644-21 429-79 213-21 58 135 0 350t58 215 155 156 216 58 215-58 156-156 57-215z" horiz-adv-x="857.1" />
<glyph glyph-name="angle-circled-right" unicode="&#xf138;" d="M400 72l254 253q10 10 10 25t-10 25L400 629q-10 10-25 10t-25-10l-57-57q-11-11-11-26t11-25l171-171-171-171q-11-11-11-25t11-25l57-57q10-11 25-11t25 11z m457 278q0-117-57-215T644-21 429-79 213-21 58 135 0 350t58 215 155 156 216 58 215-58 156-156 57-215z" horiz-adv-x="857.1" />
<glyph glyph-name="angle-circled-up" unicode="&#xf139;" d="M650 214l57 57q11 11 11 25t-11 26L454 575q-11 10-25 10t-26-10L150 322q-11-11-11-26t11-25l57-57q11-10 25-10t25 10l172 172 171-172q11-10 25-10t25 10z m207 136q0-117-57-215T644-21 429-79 213-21 58 135 0 350t58 215 155 156 216 58 215-58 156-156 57-215z" horiz-adv-x="857.1" />
<glyph glyph-name="angle-circled-down" unicode="&#xf13a;" d="M454 125l253 254q11 10 11 25t-11 25l-57 57q-10 10-25 10t-25-10L429 314 257 486q-10 10-25 10t-25-10l-57-57q-11-11-11-25t11-25l254-254q10-11 25-11t25 11z m403 225q0-117-57-215T644-21 429-79 213-21 58 135 0 350t58 215 155 156 216 58 215-58 156-156 57-215z" horiz-adv-x="857.1" />
<glyph glyph-name="angle-double-left" unicode="&#xf100;" d="M350 82q0-7-6-13l-28-28q-5-5-12-5t-13 5L31 301q-6 6-6 13t6 13l260 260q5 6 13 6t12-6l28-28q6-5 6-13t-6-12L125 314 344 95q6-6 6-13z m214 0q0-7-5-13l-28-28q-6-5-13-5t-13 5L245 301q-6 6-6 13t6 13l260 260q6 6 13 6t13-6l28-28q5-5 5-13t-5-12L339 314 559 95q5-6 5-13z" horiz-adv-x="571.4" />
<glyph glyph-name="angle-double-right" unicode="&#xf101;" d="M332 314q0-7-5-13L66 41q-5-5-12-5t-13 5L13 69q-6 6-6 13t6 13l219 219L13 534q-6 5-6 12t6 13l28 28q5 6 13 6t12-6l261-260q5-6 5-13z m214 0q0-7-5-13L281 41q-6-5-13-5t-13 5l-28 28q-6 6-6 13t6 13l219 219-219 220q-6 5-6 12t6 13l28 28q6 6 13 6t13-6l260-260q5-5 5-13z" horiz-adv-x="571.4" />
<glyph glyph-name="angle-double-up" unicode="&#xf102;" d="M600 118q0-7-6-13l-28-28q-5-6-12-6t-13 6L321 296 102 77q-6-6-13-6t-13 6l-27 28q-6 6-6 13t6 13l260 260q5 5 12 5t13-5l260-260q6-6 6-13z m0 214q0-7-6-13l-28-28q-5-5-12-5t-13 5L321 511 102 291q-6-5-13-5t-13 5l-27 28q-6 6-6 13t6 13l260 260q5 6 12 6t13-6l260-260q6-6 6-13z" horiz-adv-x="642.9" />
<glyph glyph-name="angle-double-down" unicode="&#xf103;" d="M600 368q0-7-6-13L334 95q-5-6-13-6t-12 6L49 355q-6 6-6 13t6 13l28 28q5 5 12 5t13-5l219-220 220 220q5 5 13 5t12-5l28-28q6-6 6-13z m0 214q0-7-6-13L334 309q-5-5-13-5t-12 5L49 569q-6 6-6 13t6 13l28 28q5 5 12 5t13-5l219-219 220 219q5 5 13 5t12-5l28-28q6-6 6-13z" horiz-adv-x="642.9" />
<glyph glyph-name="down" unicode="&#xf175;" d="M427 125q4-10-3-19L229-109q-6-5-13-5-8 0-13 5L5 106q-8 9-3 19 5 11 16 11h125v696q0 8 5 13t13 5h107q8 0 13-5t5-13V136h125q11 0 16-11z" horiz-adv-x="428.6" />
<glyph glyph-name="left" unicode="&#xf177;" d="M1000 404V296q0-7-5-12t-13-5H286V154q0-12-11-17t-19 3L41 336q-5 5-5 12 0 8 5 14l215 197q8 8 19 4 11-5 11-17V421h696q8 0 13-5t5-12z" horiz-adv-x="1000" />
<glyph glyph-name="right" unicode="&#xf178;" d="M964 352q0-8-5-14L744 141q-9-8-19-4-11 5-11 17v125H18q-8 0-13 5t-5 12v108q0 7 5 12t13 5h696v125q0 12 11 17t19-3l215-196q5-5 5-12z" horiz-adv-x="1000" />
<glyph glyph-name="up" unicode="&#xf176;" d="M427 575q-5-11-16-11H286v-696q0-8-5-13t-13-5H161q-8 0-13 5t-5 13v696H18q-12 0-16 11t2 19l196 215q5 5 13 5 7 0 13-5l198-215q7-8 3-19z" horiz-adv-x="428.6" />
<glyph glyph-name="down-big" unicode="&#x2193;" d="M899 386q0-30-21-51L515-27q-22-21-51-21t-50 21L51 335q-21 21-21 51 0 29 21 50l41 42q22 21 51 21t50-21l164-164v393q0 29 21 50t51 22h71q29 0 50-22t21-50V314l165 164q20 21 50 21 29 0 51-21l41-41q21-22 21-51z" horiz-adv-x="928.6" />
<glyph glyph-name="left-big" unicode="&#x2190;" d="M857 350v-71q0-30-18-51t-47-21H399L563 43q21-20 21-50t-21-50l-42-43q-21-20-51-20-29 0-50 20L56 264q-20 21-20 50t20 51l364 363q21 21 50 21t51-21l42-42q21-21 21-50t-21-51L399 421h393q29 0 47-20t18-51z" horiz-adv-x="857.1" />
<glyph glyph-name="right-big" unicode="&#x2192;" d="M821 314q0-30-20-51L438-100q-22-20-51-20t-51 20l-41 42q-22 21-22 51t22 51l163 163H65q-29 0-47 21T0 279v71q0 30 18 51t47 20h393L295 586q-22 20-22 50t22 50l42 42q21 21 50 21t50-21l364-363q20-20 20-51z" horiz-adv-x="857.1" />
<glyph glyph-name="up-big" unicode="&#x2191;" d="M899 308q0-28-21-50l-42-42q-21-21-50-21-30 0-50 21L571 380V-13q0-29-21-47t-50-19h-71q-30 0-51 19t-21 47v393L193 216q-20-21-50-21t-50 21l-42 42q-21 21-21 50 0 30 21 51l363 363q20 21 50 21t51-21l363-363q21-22 21-51z" horiz-adv-x="928.6" />
<glyph glyph-name="right-hand" unicode="&#x261e;" d="M143 100q0 15-11 25t-25 11-25-11-11-25 11-25 25-11 25 11 11 25z m786 321q0 29-22 50t-50 22H536q0 11 8 27t19 31 18 38 8 47q0 37-25 54t-64 17q-13 0-50-77-14-25-21-37-22-35-62-81-40-45-57-59-38-32-78-32h-18V64h18q40 0 93-18t108-35T534-7q105 0 105 93 0 15-3 31 17 9 27 30t9 41-10 38q30 28 30 67 0 14-6 31t-14 26h185q29 0 50 21t22 50z m71 1q0-59-42-101t-101-42h-94q-2-35-21-67 2-12 2-24 0-56-34-99 1-78-47-123T536-79q-74 0-179 39Q265-7 232-7H71Q42-7 21 14T0 64v357q0 30 21 51t50 21h161q6 0 12 2t13 8 13 10 13 13 12 12 10 12 8 9q36 42 56 72 7 12 18 35t21 40 22 35 31 28 39 10q70 0 115-38t46-105q0-38-13-72h209q58 0 101-42t42-100z" horiz-adv-x="1000" />
<glyph glyph-name="left-hand" unicode="&#x261c;" d="M768 64h18v357h-18q-20 0-38 7t-35 21-28 25-27 31q-4 5-7 7-40 46-62 81-8 13-21 38-1 2-6 13t-11 20-11 20-12 17-10 6q-40 0-64-17t-25-54q0-24 8-47t18-38 19-31 8-27H143q-28 0-50-22t-22-50q0-29 22-50t50-21h185q-9-10-14-27t-6-31q0-38 30-66-10-18-10-38t9-41 27-30q-2-13-2-31 0-47 27-70t75-23q47 0 102 18t109 35 93 18z m161 36q0 15-11 25t-25 11-25-11-11-25 11-25 25-11 25 11 11 25z m71 321V64q0-29-21-50T929-7H768q-33 0-125-33-106-39-177-39-79 0-128 44T290 86v3q-34 42-34 99 0 12 2 24-19 32-21 67h-94q-59 0-101 42T0 422q0 58 42 100t101 42h209q-13 34-13 72 0 68 46 105t115 38q21 0 39-10t30-28 23-35 21-40 18-35q20-30 56-72 1-1 8-9t10-12 12-12 13-13 13-10 13-8 12-2h161q29 0 50-21t21-51z" horiz-adv-x="1000" />
<glyph glyph-name="up-hand" unicode="&#x261d;" d="M714-43q0 15-10 25T679-7t-26-11-10-25 10-25 26-11 25 11 10 25z m72 427q0 105-93 105-15 0-32-3-9 17-29 27t-41 9-38-10q-28 30-67 30-14 0-31-6t-26-14v185q0 29-22 50t-50 22q-28 0-50-22t-21-50V386q-11 0-27 8t-31 19-38 18-47 8q-37 0-55-24t-17-65q0-13 78-50 25-14 36-21 36-22 81-62t59-57q32-38 32-78V64h357v18q0 40 18 93t36 108 18 101z m71 2q0-74-38-179-33-92-33-125V-79q0-29-21-50t-51-21H357q-29 0-50 21t-21 50V82q0 6-3 12t-8 13-10 13-12 13-12 12-12 10-10 8q-41 36-72 56-11 7-34 18t-40 21-36 23-27 30-10 39q0 70 37 115t106 46q38 0 71-13v209q0 58 43 101t100 42q58 0 101-42t42-101v-94q35-2 66-21 12 2 24 2 57 0 100-34 77 1 122-47t45-127z" horiz-adv-x="857.1" />
<glyph glyph-name="down-hand" unicode="&#x261f;" d="M786 314q0 47-18 102t-36 109-18 93v18H357v-18q0-20-7-38t-20-35-26-28-30-27q-5-4-8-7-45-40-81-62-12-8-38-21-1-1-12-6t-20-10-20-12-17-12-7-10q0-40 17-64t55-25q24 0 47 8t38 19 31 18 27 8V-7q0-28 21-50t50-22q29 0 50 22t22 50v185q25-20 57-20 39 0 67 30 17-10 38-10t41 9 29 27q14-2 31-2 48 0 71 27t23 75z m-72 429q0 14-10 25t-25 11-25-11-11-25 10-25 26-11 25 11 10 25z m143-426q0-80-43-129t-122-48h-2q-43-34-100-34-12 0-24 2-30-17-66-21V-7q0-59-42-101t-101-42q-58 0-100 42T214-7v209q-30-13-71-13-68 0-105 46T0 350q0 21 10 39t27 30 36 23 40 21 34 18q31 20 72 56 2 1 10 8t12 10 12 12 12 13 10 13 8 13 3 12v161q0 29 21 50t50 21h357q30 0 51-21t21-50V618q0-33 33-125 38-106 38-177z" horiz-adv-x="857.1" />
<glyph glyph-name="left-circled" unicode="&#xf0a8;" d="M714 314v72q0 14-10 25t-25 10H398l106 106q10 10 10 25t-10 25l-51 51q-10 10-25 10t-25-10L201 426l-51-51q-10-10-10-25t10-25l51-51L403 72q10-10 25-10t25 10l51 51q10 10 10 25t-10 25L398 279h281q14 0 25 10t10 25z m143 36q0-117-57-215T644-21 429-79 213-21 58 135 0 350t58 215 155 156 216 58 215-58 156-156 57-215z" horiz-adv-x="857.1" />
<glyph glyph-name="right-circled" unicode="&#xf0a9;" d="M717 350q0 15-10 25l-51 51-202 202q-10 10-25 10t-25-10l-51-51q-10-10-10-25t10-25l106-106H179q-15 0-26-10t-10-25v-72q0-14 10-25t26-10h280L353 173q-10-10-10-25t10-25l51-51q10-10 25-10t25 10l202 202 51 51q10 10 10 25z m140 0q0-117-57-215T644-21 429-79 213-21 58 135 0 350t58 215 155 156 216 58 215-58 156-156 57-215z" horiz-adv-x="857.1" />
<glyph glyph-name="up-circled" unicode="&#xf0aa;" d="M717 351q0 15-10 25L505 578l-51 51q-10 10-25 10t-26-10l-50-51-202-202q-10-10-10-25t10-26l50-50q10-10 26-10t25 10l105 105V100q0-14 11-25t25-11h71q15 0 25 11t11 25v280l106-105q10-11 25-11t25 11l51 50q10 11 10 26z m140-1q0-117-57-215T644-21 429-79 213-21 58 135 0 350t58 215 155 156 216 58 215-58 156-156 57-215z" horiz-adv-x="857.1" />
<glyph glyph-name="down-circled" unicode="&#xf0ab;" d="M717 349q0 15-10 26l-51 50q-10 10-25 10t-25-10L500 320v280q0 15-11 25t-25 11h-71q-15 0-25-11t-11-25V320L252 425q-11 11-25 11t-26-11l-50-50q-10-10-10-26t10-25l202-202 50-50q11-10 26-10t25 10l51 50 202 202q10 10 10 25z m140 1q0-117-57-215T644-21 429-79 213-21 58 135 0 350t58 215 155 156 216 58 215-58 156-156 57-215z" horiz-adv-x="857.1" />
<glyph glyph-name="cw" unicode="&#x27f3;" d="M857 707V457q0-14-10-25t-26-11H571q-23 0-33 23-9 21 8 38l77 77q-82 77-194 77-58 0-111-23t-91-61-62-91-22-111 23-111 61-91 91-61 111-23q66 0 125 29t100 82q4 6 13 7 8 0 14-5l76-77q5-5 6-11t-5-13Q698 2 611-38T429-79q-87 0-167 34T126 47 34 184 0 350t34 166 92 137 136 92 167 34q82 0 158-31t137-88l72 72q16 18 39 8 22-9 22-33z" horiz-adv-x="857.1" />
<glyph glyph-name="ccw" unicode="&#x27f2;" d="M857 350q0-87-34-166T732 47 595-45 429-79q-96 0-183 41T99 76q-4 6-4 13t5 11l76 77q6 5 14 5 9-1 13-7 41-53 100-82t126-29q58 0 110 23t92 61 61 91 22 111-22 111-61 91-92 61-110 23q-55 0-105-20t-90-57l77-77q17-16 8-38-10-23-33-23H36q-15 0-25 11T0 457v250q0 24 22 33 22 10 39-8l72-72q60 57 137 88t159 31q87 0 166-34t137-92 91-137 34-166z" horiz-adv-x="857.1" />
<glyph glyph-name="arrows-cw" unicode="&#xe760;" d="M843 261q0-3 0-4-36-150-150-243T426-79q-81 0-157 31T133 40L61-32Q50-43 36-43T11-32 0-7v250q0 14 11 25t25 11h250q14 0 25-11t10-25-10-25l-77-77q40-37 90-57t105-20q74 0 139 37t104 99q6 10 29 66 5 13 17 13h107q8 0 13-6t5-12z m14 446V457q0-14-10-25t-26-11H571q-14 0-25 11t-10 25 10 25l77 77q-82 77-194 77-75 0-140-37t-104-99q-6-10-29-66-5-13-17-13H28q-7 0-13 6t-5 12v4q36 150 151 243t268 93q81 0 158-31t137-88l72 72q11 11 25 11t25-11 11-25z" horiz-adv-x="857.1" />
<glyph glyph-name="level-up" unicode="&#xf148;" d="M568 514q-10-21-32-21H429V11q0-8-5-13t-13-5H18Q6-7 2 3q-5 11 2 19l89 108q5 6 14 6h179v357H179q-23 0-33 20-9 21 5 38l179 215q10 12 27 12t28-12l178-215q15-17 5-38z" horiz-adv-x="571.4" />
<glyph glyph-name="level-down" unicode="&#xf149;" d="M18 707h393q7 0 12-5t6-13V207h107q22 0 32-20t-5-39L385-66q-11-13-28-13t-27 13L151 148q-14 17-5 39 10 20 33 20h107v357H107q-8 0-14 6L4 678q-7 7-2 19 5 10 16 10z" horiz-adv-x="571.4" />
<glyph glyph-name="shuffle" unicode="&#x1f500;" d="M372 582q-34-52-77-153-12 25-20 41t-23 35-28 32-36 19-45 8H18q-8 0-13 5t-5 13v107q0 8 5 13t13 5h125q139 0 229-125z m628-446q0-8-5-13L816-56q-5-5-12-5-8 0-13 6t-5 12V64q-18 0-48 0t-45-1-41 1-39 3-36 6-35 10-33 16-32 22-31 30-31 39q33 52 76 152 12-25 20-40t23-36 28-31 35-20 46-8h143v107q0 8 5 13t13 5q6 0 13-5l178-178q5-5 5-13z m0 500q0-8-5-13L816 444q-5-5-12-5-8 0-13 6t-5 12v107H643q-27 0-49-8t-38-25-29-34-25-44q-18-34-43-95-17-37-28-62t-30-59-36-55-41-47-50-38-60-23-71-10H18q-8 0-13 5T0 82v107q0 8 5 13t13 5h125q27 0 48 9t39 25 28 34 25 43q18 35 44 96 16 36 28 62t30 58 36 56 41 46 50 39 59 23 72 9h143v107q0 8 5 13t13 5q6 0 13-5l178-178q5-5 5-13z" horiz-adv-x="1000" />
<glyph glyph-name="exchange" unicode="&#xf0ec;" d="M1000 189V82q0-7-5-12t-13-6H214V-43q0-7-5-12t-13-6q-6 0-13 6L5 123q-5 5-5 13t5 13l179 178q5 5 12 5 8 0 13-5t5-13V207h768q7 0 13-5t5-13z m0 304q0-8-5-13L816 302q-5-6-12-6-8 0-13 6t-5 12v107H18q-7 0-13 6t-5 12v107q0 8 5 13t13 5h768v107q0 8 5 13t13 5q6 0 13-5l178-178q5-5 5-13z" horiz-adv-x="1000" />
<glyph glyph-name="history" unicode="&#xf1da;" d="M857 350q0-87-34-166T732 47 595-45 429-79q-96 0-183 41T99 76q-4 6-4 13t5 11l76 77q6 5 14 5 9-1 13-7 41-53 100-82t126-29q58 0 110 23t92 61 61 91 22 111-22 111-61 91-92 61-110 23q-55 0-105-20t-90-57l77-77q17-16 8-38-10-23-33-23H36q-15 0-25 11T0 457v250q0 24 22 33 22 10 39-8l72-72q60 57 137 88t159 31q87 0 166-34t137-92 91-137 34-166zM500 511V261q0-8-5-13t-13-5H304q-8 0-13 5t-5 13v35q0 8 5 13t13 5h125v197q0 7 5 12t12 6h36q8 0 13-6t5-12z" horiz-adv-x="857.1" />
<glyph glyph-name="expand" unicode="&#xf150;" d="M639 473q10-19-3-36L458 187q-11-16-29-16t-29 16L221 437q-13 17-3 36 10 20 32 20h357q23 0 32-20z m75-391v536q0 7-5 12t-13 6H161q-8 0-13-6t-5-12V82q0-7 5-12t13-6h535q8 0 13 6t5 12z m143 536V82q0-66-47-113T696-79H161Q94-79 47-31T0 82v536q0 66 47 113t114 48h535q67 0 114-48t47-113z" horiz-adv-x="857.1" />
<glyph glyph-name="collapse" unicode="&#xf151;" d="M639 227q-9-20-32-20H250q-22 0-32 20-10 19 3 37l179 250q10 15 29 15t29-15l178-250q13-18 3-37z m75-145v536q0 7-5 12t-13 6H161q-8 0-13-6t-5-12V82q0-7 5-12t13-6h535q8 0 13 6t5 12z m143 536V82q0-66-47-113T696-79H161Q94-79 47-31T0 82v536q0 66 47 113t114 48h535q67 0 114-48t47-113z" horiz-adv-x="857.1" />
<glyph glyph-name="expand-right" unicode="&#xf152;" d="M607 350q0-18-15-29L342 142q-17-12-37-2-19 9-19 31v358q0 22 19 31 20 10 37-2l250-179q15-11 15-29zM714 82v536q0 8-5 13t-13 5H161q-8 0-13-5t-5-13V82q0-8 5-13t13-5h535q8 0 13 5t5 13z m143 536V82q0-66-47-113T696-79H161Q94-79 47-31T0 82v536q0 66 47 113t114 48h535q67 0 114-48t47-113z" horiz-adv-x="857.1" />
<glyph glyph-name="collapse-left" unicode="&#xf191;" d="M571 529V171q0-14-10-25t-25-10q-11 0-21 6L265 321q-15 11-15 29t15 29l250 179q10 6 21 6 14 0 25-10t10-25zM714 82v536q0 7-5 12t-13 6H161q-8 0-13-6t-5-12V82q0-7 5-12t13-6h535q8 0 13 6t5 12z m143 536V82q0-66-47-113T696-79H161Q94-79 47-31T0 82v536q0 66 47 113t114 48h535q67 0 114-48t47-113z" horiz-adv-x="857.1" />
<glyph glyph-name="play" unicode="&#x25b6;" d="M772 333L31-79q-13-7-22-2T0-61v822q0 14 9 20t22-2l741-412q13-7 13-17t-13-17z" horiz-adv-x="785.7" />
<glyph glyph-name="play-circled" unicode="&#xf144;" d="M429 779q116 0 215-58t156-156 57-215-57-215T644-21 429-79 213-21 58 135 0 350t58 215 155 156 216 58z m214-460q18 10 18 31t-18 31L339 559q-17 11-35 1-18-11-18-31V171q0-20 18-31 9-4 17-4 10 0 18 5z" horiz-adv-x="857.1" />
<glyph glyph-name="play-circled2" unicode="&#xe761;" d="M661 350q0-21-18-31L339 141q-8-5-18-5-8 0-17 4-18 11-18 31v358q0 20 18 31 18 10 35-1l304-178q18-10 18-31z m71 0q0 83-41 152T581 613t-152 41-153-41-110-111-41-152 41-152T276 87t153-41 152 41 110 111 41 152z m125 0q0-117-57-215T644-21 429-79 213-21 58 135 0 350t58 215 155 156 216 58 215-58 156-156 57-215z" horiz-adv-x="857.1" />
<glyph glyph-name="stop" unicode="&#x25aa;" d="M857 743V-43q0-14-10-25t-26-11H36q-15 0-25 11T0-43v786q0 14 11 25t25 11h785q15 0 26-11t10-25z" horiz-adv-x="857.1" />
<glyph glyph-name="pause" unicode="&#x2389;" d="M857 743V-43q0-14-10-25t-26-11H536q-15 0-25 11t-11 25v786q0 14 11 25t25 11h285q15 0 26-11t10-25z m-500 0V-43q0-14-10-25t-26-11H36q-15 0-25 11T0-43v786q0 14 11 25t25 11h285q15 0 25-11t11-25z" horiz-adv-x="857.1" />
<glyph glyph-name="to-end" unicode="&#x23ed;" d="M25-71Q15-82 7-79T0-61v822q0 14 7 18t18-8l396-396q5-5 8-10v378q0 14 10 25t25 11h72q14 0 25-11t10-25V-43q0-14-10-25t-25-11h-72q-14 0-25 11t-10 25v379q-3-6-8-11z" horiz-adv-x="571.4" />
<glyph glyph-name="to-end-alt" unicode="&#xe762;" d="M25-71Q15-82 7-79T0-61v822q0 14 7 18t18-8l396-396q5-5 8-10v396q0 14 7 18t18-8l396-396q5-5 7-10v378q0 14 11 25t25 11h71q15 0 25-11t11-25V-43q0-14-11-25t-25-11h-71q-15 0-25 11t-11 25v379q-2-6-7-11L454-71q-11-11-18-8t-7 18v397q-3-6-8-11z" horiz-adv-x="1000" />
<glyph glyph-name="to-start" unicode="&#x23ee;" d="M546 771q11 11 18 8t7-18V-61q0-14-7-18t-18 8L150 325q-5 5-7 10V-42q0-14-11-25t-25-11H36q-15 0-25 11T0-43v786q0 14 11 25t25 11h71q15 0 25-11t11-25V365q2 5 7 10z" horiz-adv-x="571.4" />
<glyph glyph-name="to-start-alt" unicode="&#xe763;" d="M975 771q10 11 18 8t7-18V-61q0-14-7-18t-18 8L579 325q-5 5-8 10V-60q0-14-7-18t-18 8L150 325q-5 5-7 11V-43q0-14-11-25t-25-11H36q-15 0-25 11T0-43v786q0 14 11 25t25 11h71q15 0 25-11t11-25V365q2 5 7 10l396 396q11 11 18 8t7-18V365q3 5 8 10z" horiz-adv-x="1000" />
<glyph glyph-name="fast-fw" unicode="&#x23e9;" d="M25-71Q15-82 7-79T0-61v822q0 14 7 18t18-8l396-396q5-5 8-10v396q0 14 7 18t18-8l396-396q10-10 10-25t-10-25L454-71q-11-11-18-8t-7 18v397q-3-6-8-11z" horiz-adv-x="928.6" />
<glyph glyph-name="fast-bw" unicode="&#x23ea;" d="M904 771q10 11 17 8t8-18V-61q0-14-8-18t-18 8L508 325q-5 5-7 10V-60q0-14-7-18t-18 8L79 325q-11 11-11 25t11 25l396 396q10 11 18 8t7-18V365q2 5 7 10z" horiz-adv-x="928.6" />
<glyph glyph-name="eject" unicode="&#x2ecf;" d="M8 304l396 396q11 10 25 10t25-10l396-396q11-11 8-18t-18-7H18q-14 0-17 7t7 18zM822-7H36Q22-7 11 3T1 29v142q0 15 10 25t25 11h786q15 0 25-11t11-25V29q0-15-11-26T822-7z" horiz-adv-x="858.3" />
<glyph glyph-name="target" unicode="&#x1f3af;" d="M668 279h-61q-14 0-25 10t-11 25v72q0 14 11 25t25 10h61q-18 61-63 106t-105 62v-60q0-15-11-25t-25-11h-71q-15 0-25 10t-11 26v60q-60-17-105-62t-63-106h61q15 0 25-10t11-25v-72q0-14-11-25t-25-10h-61q18-61 63-106t105-62v60q0 15 11 25t25 11h71q15 0 25-11t11-25v-60q60 17 105 62t63 106z m189 107v-72q0-14-10-25t-26-10h-79q-21-90-87-156T500 37v-80q0-14-11-25t-25-11h-71q-15 0-25 11t-11 25v80q-90 21-155 86t-86 156H36q-15 0-25 10T0 314v72q0 14 11 25t25 10h80q20 90 86 156t155 86v80q0 14 11 25t25 11h71q15 0 25-11t11-25v-80q90-21 155-86t87-156h79q15 0 26-10t10-25z" horiz-adv-x="857.1" />
<glyph glyph-name="signal" unicode="&#x1f4f6;" d="M143 46V-61q0-8-5-13t-13-5H18q-8 0-13 6T0-61V46q0 8 5 13t13 5h107q8 0 13-5t5-13z m214 72V-61q0-8-5-13t-13-5H232q-8 0-13 5t-5 13v179q0 8 5 13t13 5h107q8 0 13-5t5-13z m214 143V-61q0-7-5-12t-12-6H446q-7 0-12 6t-5 12v322q0 8 5 13t12 5h108q7 0 12-5t5-13z m215 214V-61q0-8-5-13t-13-5H661q-8 0-13 5t-5 13v536q0 8 5 13t13 5h107q8 0 13-5t5-13z m214 286V-61q0-7-5-12t-13-6H875q-8 0-13 6t-5 12v822q0 8 5 13t13 5h107q8 0 13-5t5-13z" horiz-adv-x="1000" />
<glyph glyph-name="wifi" unicode="&#xf1eb;" d="M571 0q-11 0-52 41t-40 52q0 18 35 30t57 13 58-13 35-30q0-11-41-52T571 0z m151 151q-1 0-22 14t-57 28-72 14-71-14-57-28-22-14q-10 0-52 42t-43 52q0 7 6 13 44 43 109 67t130 25 130-25 110-67q5-6 5-13 0-10-42-52t-52-42z m152 152q-6 0-12 5-76 58-141 86t-150 27q-47 0-95-12t-83-29-63-35-44-30-18-12q-9 0-51 42t-42 52q0 7 6 12 73 74 178 114t212 41 212-41 179-114q6-5 6-12 0-10-42-52t-52-42z m152 151q-6 0-13 5-99 88-207 132t-235 45-234-45-208-132q-6-5-12-5-9 0-51 42t-43 52q0 7 6 13 104 104 248 161t294 57 295-57 248-161q5-6 5-13 0-10-42-52t-51-42z" horiz-adv-x="1142.9" />
<glyph glyph-name="award" unicode="&#x1f3c9;" d="M256 357q-42 91-42 207H71v-53q0-44 53-91t132-63z m601 154v53H714q0-116-41-207 79 16 131 63t53 91z m72 71v-71q0-40-24-80t-62-73-97-54-120-25q-23-30-53-53-21-19-29-40t-8-50q0-30 17-51t54-21q42 0 75-25t32-64v-36q0-7-5-12t-13-6H232q-8 0-13 6t-5 12v36q0 38 33 64t74 25q38 0 55 21t17 51q0 28-8 50t-30 40q-29 23-53 53-63 3-120 25t-96 54-63 73-23 80v71q0 23 16 38t38 16h160v53q0 37 26 63t64 27h321q37 0 63-27t26-63v-53h161q22 0 38-16t16-38z" horiz-adv-x="928.6" />
<glyph glyph-name="desktop" unicode="&#xf108;" d="M1000 296v465q0 7-5 12t-13 6H89q-7 0-12-6t-6-12V296q0-7 6-12t12-5h893q7 0 13 5t5 12z m71 465V154q0-37-26-63t-63-27H679q0-20 9-43t17-40 9-24q0-14-10-25t-25-11H393q-15 0-25 11t-11 25q0 8 9 25t18 39 9 43H89q-36 0-63 27T0 154v607q0 37 26 63t63 26h893q37 0 63-26t26-63z" horiz-adv-x="1071.4" />
<glyph glyph-name="laptop" unicode="&#xf109;" d="M232 136q-37 0-63 26t-26 63v393q0 37 26 63t63 26h607q37 0 63-26t27-63V225q0-37-27-63t-63-26H232z m-18 482V225q0-7 6-13t12-5h607q8 0 13 5t5 13v393q0 7-5 12t-13 6H232q-7 0-12-6t-6-12z m768-518h89V46q0-22-26-37T982-7H89Q52-7 26 9T0 46v54h982zM580 46q9 0 9 9t-9 9h-89q-9 0-9-9t9-9h89z" horiz-adv-x="1071.4" />
<glyph glyph-name="tablet" unicode="&#xf10a;" d="M357 64q0 15-10 25t-26 11-25-11-10-25 10-25 25-10 25 10 11 25z m214 90v535q0 7-5 13t-12 5H89q-7 0-12-5t-6-13V154q0-8 6-13t12-5h465q7 0 12 5t5 13z m72 535V82q0-37-26-63T554-7H89Q53-7 26 19T0 82v607q0 37 26 63t63 27h465q36 0 63-27t26-63z" horiz-adv-x="642.9" />
<glyph glyph-name="mobile" unicode="&#xf10b;" d="M259 64q0 19-13 32t-32 13-31-13-13-32 13-31 31-13 32 13 13 31z m116 90v392q0 8-5 13t-13 5H71q-7 0-12-5t-5-13V154q0-8 5-13t12-5h286q7 0 13 5t5 13zM268 627q0 9-9 9h-89q-9 0-9-9t9-9h89q9 0 9 9z m161 9V64q0-29-22-50T357-7H71Q42-7 21 14T0 64v572q0 29 21 50t50 21h286q29 0 50-21t22-50z" horiz-adv-x="428.6" />
<glyph glyph-name="inbox" unicode="&#xe777;" d="M571 314h176q0 2-1 5t-2 4L626 600H231L113 323q-1-2-2-5t-1-4h176l53-107h179z m286-17V29q0-15-11-26T821-7H36Q21-7 11 3T0 29v268q0 35 14 69l133 308q5 14 20 24t29 9h465q14 0 29-9t20-24l133-308q14-34 14-69z" horiz-adv-x="857.1" />
</font>
</defs>
</svg>
