<svg height="1000" width="857.1" xmlns="http://www.w3.org/2000/svg"><path d="M781.8 863.3l-3.3 3.3q-63.1 63.6 -144.6 97.7Q548 1000 457 1000q-92 0 -176.9 -35.7Q197.5 929.1 135.6 866.6 72.5 804.1 37.9 722.7 14.5 665.2 7.8 617.2 5.6 601.6 34.6 597.1q28.5 -4.5 31.2 11.2 .6 .5 .6 2.2 10.1 50.2 25.7 88.7 27.9 69.2 84.8 126.1Q231.6 880 303 910.2q73.7 31.2 154 31.2 79.8 0 154 -31.2 71.5 -30.7 125.6 -84.9L740 822q5.5 -5.6 13.9 -3.4 6.7 1.7 18.4 12.3 20.1 20.7 9.5 32.4zM518.4 520.1l-36.8 36.8 35.1 35.2q11.8 11.7 -3.9 27.3 -9.5 9.5 -17.8 9.5 -5.6 0 -10.6 -5.6l-34.6 -34 -36.9 36.8q-2.7 2.8 -8.3 2.8 -8.4 0 -17.3 -8.9l-1.1 -1.1q-10.1 -8.4 -10.1 -16.2 0 -3.9 4.5 -9.5l36.8 -36.3 -36.8 -36.8q-8.9 -8.9 7.8 -25.1 10 -10.1 17.3 -10.1 3.3 0 7.2 2.8l36.3 36.9 36.3 -36.3q10 -9.5 26.8 7.2 15 15.1 6.1 24.6zm262.9 31.8q0 65.8 -25.7 127.2 -25.1 58.6 -70.3 103.8 -44.7 44.7 -104.4 70.3t-127.2 25.7T326.5 853.2 222.1 782.9Q176.3 737.2 152.3 679.1 144 661.3 144 656.8h-.6q-5 -15.1 24 -24.5 27.9 -9 33.5 6.7 20.6 55.2 54.1 93.1h.6V541.9q1.7 -75.9 56.9 -129.5 58.6 -57.5 141.2 -57.5 82 0 140.1 57.5t58 138.9q0 82.1 -58.3 140.1t-139.8 58q-32.4 0 -62.5 -8.9 -15.6 -6.1 -7.3 -34 9 -28.5 24.6 -24l7.8 1.7q7.8 1.6 18.1 3.3t17.1 1.7q58 0 98.2 -39.9t40.1 -97.4q0 -56.4 -40.1 -95.4Q510 416.9 452 416.9q-59.7 0 -99.3 44.6Q317 501.7 317 550.8v230.5q61.3 37.3 135 37.3 53.6 0 103.2 -20.3t87.1 -57.8T700.1 654t20.3 -102.1q0 -110.5 -78.7 -189.2Q563.6 284.6 452.6 284.6q-111.6 0 -189.8 78.1 -29.5 29.6 -42.9 48.6l-1.1 1.1q-4.5 6.1 -7.3 8.6t-12 5.3T178 424.7q-11.7 -2.8 -20.4 -9.2T149 400.7V21.2q0 -8.4 5.9 -14.8T170.2 0h489.4q16.7 0 16.7 30.7t-16.7 30.7H207v269.5h.6q22.3 -23.4 56.9 -46.9t60.3 -34q60.8 -25.7 128.9 -25.7 67.5 0 127.2 25.7t104.4 70.3q45.2 45.2 70.3 103.8 25.7 62.5 25.7 127.8zM764 227.7q5 4.4 5 10t-3.1 10.1 -9.2 11.7Q742.2 274 734.9 274q-5 0 -8.9 -3.9Q666.9 219.3 610.5 195.9q-71.4 -31.3 -154 -31.3 -74.2 0 -146.2 27.4 -15.1 5.5 -25.1 -20.7 -5.1 -13.9 -4.5 -21.2 1.7 -8.9 8.9 -11.1 72.6 -31.9 166.9 -31.9 91.5 0 176.3 35.8 76.5 32.3 131.2 84.8z"/></svg>