<svg height="1000" width="1142.9" xmlns="http://www.w3.org/2000/svg"><path d="M571.4 631.1q0 -35.7 -5 -65.5t-16.5 -57.5 -33.7 -43.5 -54.1 -15.9q-3.4 2.2 -16.8 10t-20.9 12 -19.8 9.8 -24 8.1 -23.5 2.5 -23.4 -2.5 -24 -8.1 -19.8 -9.8 -20.9 -12 -16.8 -10q-31.8 0 -54.1 15.9t-33.8 43.5 -16.4 57.5 -5 65.5 20.6 59.5 50.8 23.7H500q30.1 0 50.8 -23.7t20.6 -59.5zM483.8 341q0 -52.5 -37.1 -89.6t-89.6 -37.1 -89.5 37.1T230.5 341t37.1 89.5 89.5 37.1 89.6 -37.1T483.8 341zM1000 625v-35.7q0 -7.8 -5 -12.8t-12.9 -5.1H660.7q-7.8 0 -12.8 5.1t-5 12.8V625q0 7.8 5 12.8t12.8 5.1h321.4q7.9 0 12.9 -5.1t5 -12.8zm0 -145.1v-31.2q0 -8.4 -5.9 -14.3t-14.2 -5.8h-317q-8.3 0 -14.2 5.8t-5.8 14.3v31.2q0 8.4 5.8 14.2t14.2 5.9h317q8.4 0 14.2 -5.9t5.9 -14.2zm0 -140.6v-35.7q0 -7.8 -5 -12.9t-12.9 -5H660.7q-7.8 0 -12.8 5t-5 12.9v35.7q0 7.8 5 12.8t12.8 5h321.4q7.9 0 12.9 -5t5 -12.8zm142.9 -178.6v678.6q0 36.8 -26.3 63t-63 26.3H857.1V875q0 -7.8 -5 -12.8t-12.8 -5.1h-35.7q-7.8 0 -12.9 5.1t-5 12.8v53.6H357.1V875q0 -7.8 -5 -12.8t-12.8 -5.1h-35.7q-7.8 0 -12.9 5.1t-5 12.8v53.6H89.3q-36.8 0 -63.1 -26.3T0 839.3V160.7q0 -36.8 26.2 -63T89.3 71.4h964.3q36.8 0 63 26.3t26.3 63z"/></svg>