<svg height="1000" width="928.6" xmlns="http://www.w3.org/2000/svg"><path d="M573.7 359.4q0 59.7 -42.7 102.1t-102.4 42.4T326.2 461.5 283.5 359.4q0 -60.3 42.7 -102.7t102.4 -42.4T531 256.7t42.7 102.7zm-26.8 122.7q25.6 0 46 9.5t33.5 26.5 22 37.4 13.4 45.2 6.4 46.1 2 44q0 37.4 -22 66.2t-58.9 28.7H267.9Q231 785.7 209 757t-22.1 -66.2q0 -26.7 2.6 -52.1t10.3 -55 20.3 -51.1 35.2 -35.9 52.2 -14.6h2.8q3.9 2.3 17.8 10.9t19.8 11.7 18.5 9.5 20.6 9 19.5 5 22.1 2.5 22 -2.5 19.5 -5 20.7 -9 18.4 -9.5T529 493t17.9 -10.9zM928.6 339.3q0 7.2 -5.3 12.5t-12.6 5.3h-53.6v71.5h53.6q7.3 0 12.6 5.3t5.3 12.5v107.2q0 7.2 -5.3 12.5t-12.6 5.3h-53.6v71.5h53.6q7.3 0 12.6 5.3t5.3 12.5v107.2q0 7.2 -5.3 12.5t-12.6 5.3h-53.6v125q0 36.8 -26.2 63.1t-63 26.2H89.3q-36.8 0 -63.1 -26.2T0 910.7V89.3Q0 52.5 26.2 26.2T89.3 0h678.6q36.8 0 63 26.2t26.2 63.1v125h53.6q7.3 0 12.6 5.3t5.3 12.5v107.2zM785.7 910.7V89.3q0 -7.3 -5.3 -12.6t-12.5 -5.3H89.3q-7.3 0 -12.6 5.3t-5.3 12.6v821.4q0 7.3 5.3 12.6t12.6 5.3h678.6q7.2 0 12.5 -5.3t5.3 -12.6z"/></svg>