<svg height="1000" width="928.6" xmlns="http://www.w3.org/2000/svg"><path d="M670.2 690.8q0 -31.8 -3.1 -59.7t-11.7 -56 -22 -48 -35.7 -32.4 -50.8 -12.6q-3.4 2.3 -18.7 11.5t-23.7 13.7 -22.6 11.1 -27.4 9.5 -25.9 2.8 -26 -2.8 -27.3 -9.5 -22.6 -11.1T329 493.6t-18.7 -11.5q-28.5 0 -50.8 12.6t-35.7 32.4 -22.1 48 -11.7 56 -3.1 59.7q0 40.8 23.5 67.8t57.5 27.1h321.4q34 0 57.5 -27.1t23.4 -67.8zM573.7 359.4q0 -60.3 -42.7 -102.7T428.6 214.3t-102.4 42.4 -42.7 102.7q0 59.7 42.7 102.1t102.4 42.4T531 461.5t42.7 -102.1zm354.9 301.3v107.2q0 7.8 -5.1 12.8t-12.8 5h-53.6v125q0 36.8 -26.2 63.1t-63 26.2H89.3q-36.8 0 -63.1 -26.2T0 910.7V89.3Q0 52.5 26.2 26.2T89.3 0h678.6q36.8 0 63 26.2t26.2 63.1v125h53.6q7.8 0 12.8 5t5.1 12.8v107.2q0 7.8 -5.1 12.8t-12.8 5h-53.6v71.5h53.6q7.8 0 12.8 5t5.1 12.8v107.2q0 7.8 -5.1 12.8t-12.8 5h-53.6v71.5h53.6q7.8 0 12.8 5t5.1 12.8z"/></svg>