<svg height="1000" width="1142.9" xmlns="http://www.w3.org/2000/svg"><path d="M571.4 631.1q0 35.8 -20.6 59.5T500 714.3H214.3q-30.1 0 -50.8 -23.7t-20.6 -59.5 5 -65.5 16.4 -57.5 33.8 -43.5 54.1 -15.9q3.4 2.2 16.8 10t20.9 12 19.8 9.8 24 8.1 23.4 2.5 23.5 -2.5 24 -8.1 19.8 -9.8 20.9 -12 16.8 -10q31.8 0 54.1 15.9t33.7 43.5 16.5 57.5 5 65.5zM483.8 341q0 52.4 -37.1 89.5t-89.6 37.1 -89.5 -37.1T230.5 341t37.1 -89.6 89.5 -37.1 89.6 37.1 37.1 89.6zM1000 589.3V625q0 7.8 -5 12.8t-12.9 5.1H660.7q-7.8 0 -12.8 -5.1t-5 -12.8v-35.7q0 -7.8 5 -12.8t12.8 -5.1h321.4q7.9 0 12.9 5.1t5 12.8zm0 -140.6v31.2q0 8.4 -5.9 14.2t-14.2 5.9h-317q-8.3 0 -14.2 -5.9t-5.8 -14.2v-31.2q0 -8.4 5.8 -14.3t14.2 -5.8h317q8.4 0 14.2 5.8t5.9 14.3zm0 -145.1v35.7q0 7.8 -5 12.8t-12.9 5H660.7q-7.8 0 -12.8 -5t-5 -12.8v-35.7q0 -7.8 5 -12.9t12.8 -5h321.4q7.9 0 12.9 5t5 12.9zm71.4 535.7V160.7q0 -7.2 -5.3 -12.5t-12.5 -5.3H89.3q-7.3 0 -12.6 5.3t-5.3 12.5v678.6q0 7.2 5.3 12.5t12.6 5.3h196.4v-53.5q0 -7.8 5 -12.9t12.9 -5h35.7q7.8 0 12.8 5t5 12.9v53.5h428.6v-53.5q0 -7.8 5 -12.9t12.9 -5h35.7q7.8 0 12.8 5t5 12.9v53.5h196.5q7.2 0 12.5 -5.3t5.3 -12.5zm71.5 -678.6v678.6q0 36.8 -26.3 63t-63 26.3H89.3q-36.8 0 -63.1 -26.3T0 839.3V160.7q0 -36.8 26.2 -63T89.3 71.4h964.3q36.8 0 63 26.3t26.3 63z"/></svg>