<svg height="1000px" width="750px" xmlns="http://www.w3.org/2000/svg">
  <g>
    <path d="M0 500c0 -52 9.833 -100.667 29.5 -146c19.667 -45.333 46.5 -85 80.5 -119c34 -34 73.667 -60.833 119 -80.5c45.333 -19.667 94 -29.5 146 -29.5c52 0 100.667 9.833 146 29.5c45.333 19.667 85 46.5 119 80.5c34 34 60.833 73.667 80.5 119c19.667 45.333 29.5 94 29.5 146c0 52 -9.833 100.667 -29.5 146c-19.667 45.333 -46.5 85 -80.5 119c-34 34 -73.667 60.833 -119 80.5c-45.333 19.667 -94 29.5 -146 29.5c-52 0 -100.667 -9.833 -146 -29.5c-45.333 -19.667 -85 -46.5 -119 -80.5c-34 -34 -60.833 -73.667 -80.5 -119c-19.667 -45.333 -29.5 -94 -29.5 -146c0 0 0 0 0 0m113 0c0 36 6.833 70 20.5 102c13.667 32 32.333 59.833 56 83.5c23.667 23.667 51.5 42.333 83.5 56c32 13.667 66 20.5 102 20.5c0 0 0 -525 0 -525c-36 0 -70 6.833 -102 20.5c-32 13.667 -59.833 32.5 -83.5 56.5c-23.667 24 -42.333 52 -56 84c-13.667 32 -20.5 66 -20.5 102c0 0 0 0 0 0" />
  </g>
</svg>