<svg height="1000" width="1000" xmlns="http://www.w3.org/2000/svg"><path d="M0 821.4v-71.4q0-14.5 10.6-25.1t25.1-10.6h928.5q14.5 0 25.1 10.6t10.6 25.1v71.4q0 14.5-10.6 25.1t-25.1 10.6h-928.5q-14.5 0-25.1-10.6t-10.6-25.1zm0-214.3v-71.4q0-14.5 10.6-25.1t25.1-10.6h928.5q14.5 0 25.1 10.6t10.6 25.1v71.4q0 14.5-10.6 25.1t-25.1 10.6h-928.5q-14.5 0-25.1-10.6t-10.6-25.1zm0-214.3v-71.4q0-14.5 10.6-25.1t25.1-10.6h928.5q14.5 0 25.1 10.6t10.6 25.1v71.4q0 14.5-10.6 25.1t-25.1 10.6h-928.5q-14.5 0-25.1-10.6t-10.6-25.1zm0-214.3v-71.4q0-14.5 10.6-25.1t25.1-10.6h928.5q14.5 0 25.1 10.6t10.6 25.1v71.4q0 14.5-10.6 25.1t-25.1 10.6h-928.5q-14.5 0-25.1-10.6t-10.6-25.1z"/></svg>