<svg height="1000" width="1000" xmlns="http://www.w3.org/2000/svg"><path d="M0 821.44l0-71.424q0-14.508 10.602-25.11t25.11-10.602l928.512 0q14.508 0 25.11 10.602t10.602 25.11l0 71.424q0 14.508-10.602 25.11t-25.11 10.602l-928.512 0q-14.508 0-25.11-10.602t-10.602-25.11zm0-214.272l0-71.424q0-14.508 10.602-25.11t25.11-10.602l714.24 0q14.508 0 25.11 10.602t10.602 25.11l0 71.424q0 14.508-10.602 25.11t-25.11 10.602l-714.24 0q-14.508 0-25.11-10.602t-10.602-25.11zm0-214.272l0-71.424q0-14.508 10.602-25.11t25.11-10.602l857.088 0q14.508 0 25.11 10.602t10.602 25.11l0 71.424q0 14.508-10.602 25.11t-25.11 10.602l-857.088 0q-14.508 0-25.11-10.602t-10.602-25.11zm0-214.272l0-71.424q0-14.508 10.602-25.11t25.11-10.602l642.816 0q14.508 0 25.11 10.602t10.602 25.11l0 71.424q0 14.508-10.602 25.11t-25.11 10.602l-642.816 0q-14.508 0-25.11-10.602t-10.602-25.11z"/></svg>