<svg height="1000" width="1000" xmlns="http://www.w3.org/2000/svg"><path d="M999.936 750.016v71.424q0 14.508 -10.602 25.11t-25.11 10.602h-928.512q-14.508 0 -25.11 -10.602t-10.602 -25.11v-71.424q0 -14.508 10.602 -25.11t25.11 -10.602h928.512q14.508 0 25.11 10.602t10.602 25.11zm-214.272 -214.272v71.424q0 14.508 -10.602 25.11t-25.11 10.602h-499.968q-14.508 0 -25.11 -10.602t-10.602 -25.11v-71.424q0 -14.508 10.602 -25.11t25.11 -10.602h499.968q14.508 0 25.11 10.602t10.602 25.11zm142.848 -214.272v71.424q0 14.508 -10.602 25.11t-25.11 10.602h-785.664q-14.508 0 -25.11 -10.602t-10.602 -25.11v-71.424q0 -14.508 10.602 -25.11t25.11 -10.602h785.664q14.508 0 25.11 10.602t10.602 25.11zm-214.272 -214.272v71.424q0 14.508 -10.602 25.11t-25.11 10.602h-357.12q-14.508 0 -25.11 -10.602t-10.602 -25.11v-71.424q0 -14.508 10.602 -25.11t25.11 -10.602h357.12q14.508 0 25.11 10.602t10.602 25.11z"/></svg>