<svg height="1000" width="1000" xmlns="http://www.w3.org/2000/svg"><path d="M0 821.44l0-71.424q0-14.508 10.602-25.11t25.11-10.602l928.512 0q14.508 0 25.11 10.602t10.602 25.11l0 71.424q0 14.508-10.602 25.11t-25.11 10.602l-928.512 0q-14.508 0-25.11-10.602t-10.602-25.11zm71.424-428.544l0-71.424q0-14.508 10.602-25.11t25.11-10.602l785.664 0q14.508 0 25.11 10.602t10.602 25.11l0 71.424q0 14.508-10.602 25.11t-25.11 10.602l-785.664 0q-14.508 0-25.11-10.602t-10.602-25.11zm142.848 214.272l0-71.424q0-14.508 10.602-25.11t25.11-10.602l499.968 0q14.508 0 25.11 10.602t10.602 25.11l0 71.424q0 14.508-10.602 25.11t-25.11 10.602l-499.968 0q-14.508 0-25.11-10.602t-10.602-25.11zm71.424-428.544l0-71.424q0-14.508 10.602-25.11t25.11-10.602l357.12 0q14.508 0 25.11 10.602t10.602 25.11l0 71.424q0 14.508-10.602 25.11t-25.11 10.602l-357.12 0q-14.508 0-25.11-10.602t-10.602-25.11z"/></svg>