<svg height="1000px" width="1000px" xmlns="http://www.w3.org/2000/svg">
  <g>
    <path d="M0 821.4285714285714c0 0 0 -71.429 0 -71.429c0 -9.672 3.534 -18.043 10.603 -25.111c7.068 -7.069 15.439 -10.603 25.111 -10.603c0 0 928.572 0 928.572 0c9.672 0 18.043 3.534 25.111 10.603c7.069 7.068 10.603 15.439 10.603 25.111c0 0 0 71.429 0 71.429c0 9.673 -3.534 18.043 -10.603 25.112c-7.068 7.068 -15.439 10.602 -25.111 10.602c0 0 -928.572 0 -928.572 0c-9.672 0 -18.043 -3.534 -25.111 -10.602c-7.069 -7.069 -10.603 -15.439 -10.603 -25.112c0 0 0 0 0 0m0 -214.286c0 0 0 -71.428 0 -71.428c0 -9.673 3.534 -18.043 10.603 -25.112c7.068 -7.068 15.439 -10.603 25.111 -10.603c0 0 714.286 0 714.286 0c9.673 0 18.043 3.535 25.112 10.603c7.068 7.069 10.602 15.439 10.602 25.112c0 0 0 71.428 0 71.428c0 9.673 -3.534 18.043 -10.602 25.112c-7.069 7.068 -15.439 10.603 -25.112 10.603c0 0 -714.286 0 -714.286 0c-9.672 0 -18.043 -3.535 -25.111 -10.603c-7.069 -7.069 -10.603 -15.439 -10.603 -25.112c0 0 0 0 0 0m0 -214.285c0 0 0 -71.429 0 -71.429c0 -9.673 3.534 -18.043 10.603 -25.112c7.068 -7.068 15.439 -10.602 25.111 -10.602c0 0 857.143 0 857.143 0c9.673 0 18.043 3.534 25.112 10.602c7.068 7.069 10.602 15.439 10.602 25.112c0 0 0 71.429 0 71.429c0 9.672 -3.534 18.043 -10.602 25.111c-7.069 7.069 -15.439 10.603 -25.112 10.603c0 0 -857.143 0 -857.143 0c-9.672 0 -18.043 -3.534 -25.111 -10.603c-7.069 -7.068 -10.603 -15.439 -10.603 -25.111c0 0 0 0 0 0m0 -214.286c0 0 0 -71.429 0 -71.429c0 -9.672 3.534 -18.043 10.603 -25.111c7.068 -7.069 15.439 -10.603 25.111 -10.603c0 0 642.857 0 642.857 0c9.673 0 18.044 3.534 25.112 10.603c7.068 7.068 10.603 15.439 10.603 25.111c0 0 0 71.429 0 71.429c0 9.672 -3.535 18.043 -10.603 25.111c-7.068 7.069 -15.439 10.603 -25.112 10.603c0 0 -642.857 0 -642.857 0c-9.672 0 -18.043 -3.534 -25.111 -10.603c-7.069 -7.068 -10.603 -15.439 -10.603 -25.111c0 0 0 0 0 0" />
  </g>
</svg>