<svg height="1000" width="1000" xmlns="http://www.w3.org/2000/svg"><path d="M1000 750v71.4q0 14.5 -10.6 25.1t-25.1 10.6H35.7q-14.5 0 -25.1 -10.6T0 821.4V750q0 -14.5 10.6 -25.1t25.1 -10.6h928.6q14.5 0 25.1 10.6T1000 750zm0 -214.3v71.4q0 14.6 -10.6 25.2t-25.1 10.6H250q-14.5 0 -25.1 -10.6t-10.6 -25.2v-71.4q0 -14.5 10.6 -25.1T250 500h714.3q14.5 0 25.1 10.6t10.6 25.1zm0 -214.3v71.5q0 14.5 -10.6 25.1t-25.1 10.6H107.1Q92.6 428.6 82 418T71.4 392.9v-71.5q0 -14.5 10.6 -25.1t25.1 -10.6h857.2q14.5 0 25.1 10.6t10.6 25.1zm0 -214.3v71.5q0 14.5 -10.6 25.1t-25.1 10.6H321.4q-14.5 0 -25.1 -10.6t-10.6 -25.1v-71.5q0 -14.5 10.6 -25.1t25.1 -10.6h642.9q14.5 0 25.1 10.6t10.6 25.1z"/></svg>