<svg height="1000" width="1000" xmlns="http://www.w3.org/2000/svg"><path d="M1000 750v71.4q0 14.5 -10.6 25.1t-25.1 10.6H35.7q-14.5 0 -25.1 -10.6T0 821.4V750q0 -14.5 10.6 -25.1t25.1 -10.6h928.6q14.5 0 25.1 10.6T1000 750zM785.7 535.7v71.4q0 14.6 -10.6 25.2T750 642.9H35.7q-14.5 0 -25.1 -10.6T0 607.1v-71.4q0 -14.5 10.6 -25.1T35.7 500H750q14.5 0 25.1 10.6t10.6 25.1zM928.6 321.4v71.5q0 14.5 -10.6 25.1t-25.1 10.6H35.7q-14.5 0 -25.1 -10.6T0 392.9v-71.5q0 -14.5 10.6 -25.1t25.1 -10.6h857.2q14.5 0 25.1 10.6t10.6 25.1zM714.3 107.1v71.5q0 14.5 -10.6 25.1t-25.1 10.6H35.7q-14.5 0 -25.1 -10.6T0 178.6v-71.5Q0 92.6 10.6 82T35.7 71.4h642.9q14.5 0 25.1 10.6t10.6 25.1z"/></svg>