<svg height="1000" width="1000" xmlns="http://www.w3.org/2000/svg"><path d="M0 821.4v-71.4q0-14.5 10.6-25.1t25.1-10.6h928.5q14.5 0 25.1 10.6t10.6 25.1v71.4q0 14.5-10.6 25.1t-25.1 10.6h-928.5q-14.5 0-25.1-10.6t-10.6-25.1zm71.4-428.5v-71.4q0-14.5 10.6-25.1t25.1-10.6h785.7q14.5 0 25.1 10.6t10.6 25.1v71.4q0 14.5-10.6 25.1t-25.1 10.6h-785.7q-14.5 0-25.1-10.6t-10.6-25.1zm142.8 214.3v-71.4q0-14.5 10.6-25.1t25.1-10.6h500q14.5 0 25.1 10.6t10.6 25.1v71.4q0 14.5-10.6 25.1t-25.1 10.6h-500q-14.5 0-25.1-10.6t-10.6-25.1zm71.4-428.5v-71.4q0-14.5 10.6-25.1t25.1-10.6h357.1q14.5 0 25.1 10.6t10.6 25.1v71.4q0 14.5-10.6 25.1t-25.1 10.6h-357.1q-14.5 0-25.1-10.6t-10.6-25.1z"/></svg>