<svg height="1000px" width="900px" xmlns="http://www.w3.org/2000/svg">
  <g>
    <path d="M0 837c0 0 0 -56 0 -56c0 -10 3.667 -18.667 11 -26c7.333 -7.333 16.333 -11 27 -11c0 0 825 0 825 0c10 0 18.667 3.667 26 11c7.333 7.333 11 16 11 26c0 0 0 56 0 56c0 10.667 -3.667 19.667 -11 27c-7.333 7.333 -16 11 -26 11c0 0 -825 0 -825 0c-10.667 0 -19.667 -3.667 -27 -11c-7.333 -7.333 -11 -16.333 -11 -27c0 0 0 0 0 0m75 -412c0 0 0 -56 0 -56c0 -10.667 3.667 -19.667 11 -27c7.333 -7.333 16.333 -11 27 -11c0 0 750 0 750 0c10 0 18.667 3.667 26 11c7.333 7.333 11 16.333 11 27c0 0 0 56 0 56c0 10.667 -3.667 19.5 -11 26.5c-7.333 7 -16 10.5 -26 10.5c0 0 -750 0 -750 0c-10.667 0 -19.667 -3.5 -27 -10.5c-7.333 -7 -11 -15.833 -11 -26.5c0 0 0 0 0 0m225 206c0 0 0 -56 0 -56c0 -10.667 3.667 -19.667 11 -27c7.333 -7.333 16.333 -11 27 -11c0 0 525 0 525 0c10 0 18.667 3.667 26 11c7.333 7.333 11 16.333 11 27c0 0 0 56 0 56c0 10.667 -3.667 19.667 -11 27c-7.333 7.333 -16 11 -26 11c0 0 -525 0 -525 0c-10.667 0 -19.667 -3.667 -27 -11c-7.333 -7.333 -11 -16.333 -11 -27c0 0 0 0 0 0m75 -412c0 0 0 -57 0 -57c0 -10 3.667 -18.667 11 -26c7.333 -7.333 16.333 -11 27 -11c0 0 450 0 450 0c10 0 18.667 3.667 26 11c7.333 7.333 11 16 11 26c0 0 0 57 0 57c0 10 -3.667 18.667 -11 26c-7.333 7.333 -16 11 -26 11c0 0 -450 0 -450 0c-10.667 0 -19.667 -3.667 -27 -11c-7.333 -7.333 -11 -16 -11 -26c0 0 0 0 0 0" />
  </g>
</svg>