<svg height="1000" width="1000" xmlns="http://www.w3.org/2000/svg"><path d="M865.5 823.7q8.4 -3.4 14.5 -1.7t6.2 9.8 -8.4 18.6q-7.3 9 -24.6 24.3t-53.3 38T721.3 954t-104.9 32.3T488.3 1000q-66.4 0 -132.8 -17.3T238.8 940t-96.2 -58 -74 -58.6T21.8 774.6q-4.5 -5.1 -5.6 -9.3t.5 -6.7 4.5 -3.9 6.4 -1.1 6.4 2.5q107.2 65.3 167.5 92.7 217 98.2 445.8 50.2 106 -22.3 218.2 -75.3zM981 759.5q6.2 8.9 1.4 38.8t-15.9 57.2q-19 46.3 -47.4 69.2 -9.5 7.8 -14.5 5t0 -13.4q11.7 -25.1 24.8 -67.8t3.6 -55q-2.8 -3.9 -8.6 -6.4t-15.1 -3.3 -16.4 -1.4 -19.6 0 -17.6 1.1 -17.3 1.7 -12.5 1.1q-3.4 .5 -7.3 .8t-6.1 .6 -4.7 .5 -3.9 .3h-5.6t-1.7 -.3 -1.1 -.8l-.9 -1.7q-3.3 -8.9 26.3 -22.3t57.4 -16.7q25.7 -4 60.3 -.6t42.4 13.4zM761.2 512.3q0 17.3 7.5 35.7t17.9 32.4 20.9 25.6 18.4 17.9l7.2 6.1L706.5 755q-22.3 -20.6 -44.1 -42.1T630 680.2l-10.6 -11.1q-6.1 -6.2 -13.9 -18.4 -21.2 32.9 -54.4 57.2t-71.2 35.4 -78.1 12.8 -76.7 -11.7 -65.6 -36.5 -46.3 -63.1 -17.3 -90.7q0 -46.8 15.6 -85.9t40.2 -65 59.4 -46.3 68.4 -31.8T452 305.8t66.7 -10.3 55.5 -3.6V221q0 -36.3 -11.7 -54.1 -19 -29.6 -67.5 -29.6 -3.4 0 -9.2 .5t-22.6 6.7T431.9 161t-31.2 33.2 -26.8 53.6L209.8 232.7q0 -33.5 12.3 -66.4t37.4 -63.1 60.3 -53 84.5 -36.5T510.6 0q55.8 0 101 14t72.3 34.3 45.2 46.3 25.1 48 7 41v328.7zm-375 11.7q0 48 39 74.2 36.9 24.6 77.6 12.3 46.9 -14 63.6 -68.6 7.8 -25.2 7.8 -56.4v-90.4q-32.9 1.1 -61.9 6.7t-59.5 18.7 -48.5 39.6T386.2 524z"/></svg>