<svg height="1000px" width="1071.4285714285716px" xmlns="http://www.w3.org/2000/svg">
  <g>
    <path d="M1071.4285714285716 107.14285714285711c0 0 0 642.857 0 642.857c0 9.673 -3.534 18.043 -10.603 25.112c-7.068 7.068 -15.439 10.602 -25.111 10.602c0 0 -107.143 0 -107.143 0c0 39.435 -13.951 73.103 -41.853 101.005c-27.902 27.902 -61.57 41.853 -101.004 41.853c-39.435 0 -73.103 -13.951 -101.005 -41.853c-27.902 -27.902 -41.852 -61.57 -41.852 -101.005c0 0 -214.286 0 -214.286 0c0 39.435 -13.951 73.103 -41.853 101.005c-27.902 27.902 -61.57 41.853 -101.004 41.853c-39.435 0 -73.103 -13.951 -101.005 -41.853c-27.902 -27.902 -41.852 -61.57 -41.852 -101.005c0 0 -71.429 0 -71.429 0c-9.673 0 -18.043 -3.534 -25.112 -10.602c-7.068 -7.069 -10.602 -15.439 -10.602 -25.112c0 -9.672 3.534 -18.043 10.602 -25.111c7.069 -7.069 15.439 -10.603 25.112 -10.603c0 0 0 -232.143 0 -232.143c0 -9.673 2.418 -20.461 7.254 -32.366c4.837 -11.905 10.789 -21.391 17.858 -28.46c0 0 110.491 -110.491 110.491 -110.491c7.068 -7.068 16.555 -13.021 28.46 -17.857c11.904 -4.836 22.693 -7.255 32.366 -7.255c0 0 89.285 0 89.285 0c0 0 0 -178.571 0 -178.571c0 -9.673 3.535 -18.043 10.603 -25.112c7.068 -7.068 15.439 -10.602 25.112 -10.602c0 0 642.857 0 642.857 0c9.672 0 18.043 3.534 25.111 10.602c7.069 7.069 10.603 15.439 10.603 25.112c0 0 0 0 0 0m-142.857 303.571c0 0 0 -107.142 0 -107.142c0 -5.209 -1.674 -9.487 -5.022 -12.835c-3.349 -3.348 -7.627 -5.023 -12.835 -5.023c0 0 -125 0 -125 0c0 0 0 -125 0 -125c0 -5.208 -1.674 -9.486 -5.023 -12.834c-3.348 -3.349 -7.626 -5.023 -12.834 -5.023c0 0 -107.143 0 -107.143 0c-5.209 0 -9.487 1.674 -12.835 5.023c-3.348 3.348 -5.022 7.626 -5.022 12.834c0 0 0 125 0 125c0 0 -125 0 -125 0c-5.209 0 -9.487 1.675 -12.835 5.023c-3.348 3.348 -5.023 7.626 -5.023 12.835c0 0 0 107.142 0 107.142c0 5.209 1.675 9.487 5.023 12.835c3.348 3.348 7.626 5.023 12.835 5.023c0 0 125 0 125 0c0 0 0 125 0 125c0 5.208 1.674 9.486 5.022 12.834c3.348 3.349 7.626 5.023 12.835 5.023c0 0 107.143 0 107.143 0c5.208 0 9.486 -1.674 12.834 -5.023c3.349 -3.348 5.023 -7.626 5.023 -12.834c0 0 0 -125 0 -125c0 0 125 0 125 0c5.208 0 9.486 -1.675 12.835 -5.023c3.348 -3.348 5.022 -7.626 5.022 -12.835c0 0 0 0 0 0m-71.429 375c0 -19.717 -6.975 -36.551 -20.926 -50.502c-13.951 -13.951 -30.785 -20.926 -50.502 -20.926c-19.718 0 -36.552 6.975 -50.503 20.926c-13.95 13.951 -20.926 30.785 -20.926 50.502c0 19.718 6.976 36.552 20.926 50.503c13.951 13.951 30.785 20.926 50.503 20.926c19.717 0 36.551 -6.975 50.502 -20.926c13.951 -13.951 20.926 -30.785 20.926 -50.503c0 0 0 0 0 0m-714.285 -285.714c0 0 214.285 0 214.285 0c0 0 0 -142.857 0 -142.857c0 0 -88.169 0 -88.169 0c-5.209 0.744 -9.301 2.418 -12.277 5.022c0 0 -108.817 108.817 -108.817 108.817c-2.604 4.465 -4.278 8.557 -5.022 12.277c0 0 0 16.741 0 16.741c0 0 0 0 0 0m214.285 285.714c0 -19.717 -6.975 -36.551 -20.926 -50.502c-13.951 -13.951 -30.785 -20.926 -50.502 -20.926c-19.718 0 -36.552 6.975 -50.503 20.926c-13.95 13.951 -20.926 30.785 -20.926 50.502c0 19.718 6.976 36.552 20.926 50.503c13.951 13.951 30.785 20.926 50.503 20.926c19.717 0 36.551 -6.975 50.502 -20.926c13.951 -13.951 20.926 -30.785 20.926 -50.503c0 0 0 0 0 0" />
  </g>
</svg>