<svg height="1000" width="1071.429" xmlns="http://www.w3.org/2000/svg"><path d="M357.12 785.728q0 -29.574 -20.925 -50.499t-50.499 -20.925 -50.499 20.925 -20.925 50.499 20.925 50.499 50.499 20.925 50.499 -20.925 20.925 -50.499zm-214.272 -285.696h214.272v-142.848h-88.164q-7.812 1.116 -12.276 5.022l-108.81 108.81q-3.906 6.696 -5.022 12.276v16.74zm714.24 285.696q0 -29.574 -20.925 -50.499t-50.499 -20.925 -50.499 20.925 -20.925 50.499 20.925 50.499 50.499 20.925 50.499 -20.925 20.925 -50.499zm71.424 -374.976v-107.136q0 -7.812 -5.022 -12.834t-12.834 -5.022h-124.992v-124.992q0 -7.812 -5.022 -12.834t-12.834 -5.022h-107.136q-7.812 0 -12.834 5.022t-5.022 12.834v124.992h-124.992q-7.812 0 -12.834 5.022t-5.022 12.834v107.136q0 7.812 5.022 12.834t12.834 5.022h124.992v124.992q0 7.812 5.022 12.834t12.834 5.022h107.136q7.812 0 12.834 -5.022t5.022 -12.834v-124.992h124.992q7.812 0 12.834 -5.022t5.022 -12.834zm142.848 -303.552v642.816q0 14.508 -10.602 25.11t-25.11 10.602h-107.136q0 59.148 -41.85 100.998t-100.998 41.85 -100.998 -41.85 -41.85 -100.998h-214.272q0 59.148 -41.85 100.998t-100.998 41.85 -100.998 -41.85 -41.85 -100.998h-71.424q-14.508 0 -25.11 -10.602t-10.602 -25.11 10.602 -25.11 25.11 -10.602v-232.128q0 -14.508 7.254 -32.364t17.856 -28.458l110.484 -110.484q10.602 -10.602 28.458 -17.856t32.364 -7.254h89.28v-178.56q0 -14.508 10.602 -25.11t25.11 -10.602h642.816q14.508 0 25.11 10.602t10.602 25.11z"/></svg>