<svg height="1000" width="1071.4" xmlns="http://www.w3.org/2000/svg"><path d="M357.1 785.7q0 -29.6 -20.9 -50.5t-50.5 -20.9 -50.5 20.9 -20.9 50.5 20.9 50.5 50.5 20.9 50.5 -20.9 20.9 -50.5zM142.9 500h214.2V357.1H269q-7.8 1.2 -12.3 5.1L147.9 471q-3.9 6.7 -5 12.3V500zm714.2 285.7q0 -29.6 -20.9 -50.5t-50.5 -20.9 -50.5 20.9 -20.9 50.5 20.9 50.5 50.5 20.9 50.5 -20.9 20.9 -50.5zm71.5 -375V303.6q0 -7.8 -5.1 -12.9t-12.8 -5h-125v-125q0 -7.8 -5 -12.8t-12.8 -5H660.7q-7.8 0 -12.8 5t-5 12.8v125h-125q-7.9 0 -12.9 5t-5 12.9v107.1q0 7.8 5 12.8t12.9 5.1h125v125q0 7.8 5 12.8t12.8 5h107.2q7.8 0 12.8 -5t5 -12.8v-125h125q7.8 0 12.8 -5.1t5.1 -12.8zm142.8 -303.6V750q0 14.5 -10.6 25.1t-25.1 10.6H928.6q0 59.2 -41.9 101t-101 41.9 -101 -41.9 -41.8 -101H428.6q0 59.2 -41.9 101t-101 41.9 -101 -41.9 -41.8 -101H71.4q-14.5 0 -25.1 -10.6T35.7 750t10.6 -25.1 25.1 -10.6V482.1q0 -14.5 7.3 -32.3t17.8 -28.5L207 310.8q10.6 -10.6 28.5 -17.8t32.4 -7.3h89.2V107.1q0 -14.5 10.6 -25.1t25.2 -10.6h642.8q14.5 0 25.1 10.6t10.6 25.1z"/></svg>