<svg height="1000" width="1036" xmlns="http://www.w3.org/2000/svg"><path d="M0 750.016q0-14.508 10.602-25.11t25.11-10.602l0-232.128q0-14.508 7.254-32.364t17.856-28.458l110.484-110.484q10.602-10.602 28.458-17.856t32.364-7.254l89.28 0l0-178.56q0-14.508 10.602-25.11t25.11-10.602l642.816 0q14.508 0 25.11 10.602t10.602 25.11l0 642.816q0 14.508-10.602 25.11t-25.11 10.602l-107.136 0q0 59.148-41.85 100.998t-100.998 41.85-100.998-41.85-41.85-100.998l-214.272 0q0 59.148-41.85 100.998t-100.998 41.85-100.998-41.85-41.85-100.998l-71.424 0q-14.508 0-25.11-10.602t-10.602-25.11zm107.136-249.984l214.272 0l0-142.848l-88.164 0q-7.812 1.116-12.276 5.022l-108.81 108.81q-3.906 6.696-5.022 12.276l0 16.74zm71.424 285.696q0 29.574 20.925 50.499t50.499 20.925 50.499-20.925 20.925-50.499-20.925-50.499-50.499-20.925-50.499 20.925-20.925 50.499zm285.696-374.976q0 7.812 5.022 12.834t12.834 5.022l124.992 0l0 124.992q0 7.812 5.022 12.834t12.834 5.022l107.136 0q7.812 0 12.834-5.022t5.022-12.834l0-124.992l124.992 0q7.812 0 12.834-5.022t5.022-12.834l0-107.136q0-7.812-5.022-12.834t-12.834-5.022l-124.992 0l0-124.992q0-7.812-5.022-12.834t-12.834-5.022l-107.136 0q-7.812 0-12.834 5.022t-5.022 12.834l0 124.992l-124.992 0q-7.812 0-12.834 5.022t-5.022 12.834l0 107.136zm214.272 374.976q0 29.574 20.925 50.499t50.499 20.925 50.499-20.925 20.925-50.499-20.925-50.499-50.499-20.925-50.499 20.925-20.925 50.499z"/></svg>