<svg height="1000" width="1071.4" xmlns="http://www.w3.org/2000/svg"><path d="M35.7 750q0-14.5 10.6-25.1t25.1-10.6v-232.1q0-14.5 7.3-32.4t17.9-28.5l110.5-110.5q10.6-10.6 28.5-17.9t32.4-7.3h89.3v-178.6q0-14.5 10.6-25.1t25.1-10.6h642.8q14.5 0 25.1 10.6t10.6 25.1v642.8q0 14.5-10.6 25.1t-25.1 10.6h-107.1q0 59.1-41.9 101t-101 41.9-101-41.9-41.9-101h-214.3q0 59.1-41.9 101t-101 41.9-101-41.9-41.9-101h-71.4q-14.5 0-25.1-10.6t-10.6-25.1zm107.1-250h214.3v-142.8h-88.2q-7.8 1.1-12.3 5l-108.8 108.8q-3.9 6.7-5 12.3v16.7zm71.4 285.7q0 29.6 20.9 50.5t50.5 20.9 50.5-20.9 20.9-50.5-20.9-50.5-50.5-20.9-50.5 20.9-20.9 50.5zm285.7-375q0 7.8 5 12.8t12.8 5h125v125q0 7.8 5 12.8t12.8 5h107.1q7.8 0 12.8-5t5-12.8v-125h125q7.8 0 12.8-5t5-12.8v-107.1q0-7.8-5-12.8t-12.8-5h-125v-125q0-7.8-5-12.8t-12.8-5h-107.1q-7.8 0-12.8 5t-5 12.8v125h-125q-7.8 0-12.8 5t-5 12.8v107.1zm214.3 375q0 29.6 20.9 50.5t50.5 20.9 50.5-20.9 20.9-50.5-20.9-50.5-50.5-20.9-50.5 20.9-20.9 50.5z"/></svg>