<svg height="1000" width="1285.7" xmlns="http://www.w3.org/2000/svg"><path d="M575.9 535.7Q543 534.6 529 505q-9.5 -19 -26.8 -29.8t-37.9 -10.9q-29.6 0 -50.5 20.9t-20.9 50.5q0 31.3 20 49.7l5.6 4.4q19 17.3 45.8 17.3 20.6 0 37.9 -10.8T529 566.4q14 -29.6 46.9 -30.7zm317 -71.4q0 -31.3 -20.1 -49.7l-5.6 -4.4q-19 -17.3 -45.8 -17.3 -20.6 0 -37.9 10.8t-26.8 29.9q-14 29.6 -46.9 30.7 32.9 1.1 46.9 30.7 9.5 19 26.8 29.8t37.9 10.9q29.6 0 50.5 -20.9t21 -50.5zM655.1 341q-9.5 19.5 -30.7 26.7t-40.7 -2.2q-34.6 -17.3 -74.8 -17.3 -28.4 0 -55.2 9.5 1.7 0 5.3 -.3t5.3 -.3q51.3 0 95.1 27.9t66.2 74.3q9.4 20.1 1.9 41t-27.6 30.4q-10.1 5 -21.8 5 11.7 0 21.8 5 20.1 9.5 27.6 30.4t-1.9 41.1q-22.4 46.3 -66.2 74.2t-95.1 27.9h-3.4q-8.9 -1.1 -24.5 -2.2L274.6 697l-133.4 67q-7.8 3.9 -16.2 3.9 -22.3 0 -31.8 -19.6L3.9 569.8Q-2.2 556.9 1.7 543.2t16.2 -20.9l116.6 -66.4 82.6 -149q9.5 -86.5 51 -162.6t109.1 -132q17.3 -14 39.4 -12t36 19.2 12 39.1 -19.3 36.3q-39 32.9 -65.3 71.4 68.7 -46.9 149 -56.4 22.3 -2.8 39.9 10.6t19.8 35.7q2.8 22.4 -10.6 39.9T542.4 216q-46.9 5.5 -88.7 30.7 25.7 -5.6 55.2 -5.6 64.2 0 121.7 27.9 20.1 10 27.3 30.9t-2.8 41.1zm537.4 -89.3l89.3 178.5q6.1 12.9 2.2 26.6t-16.1 20.9l-116.7 66.4 -82.6 149q-9.4 86.5 -51 162.6t-109.1 132Q894 1000 874.4 1000q-25.1 0 -41.3 -19.5 -13.9 -17.3 -12 -39.1t19.3 -36.3q39.1 -32.9 65.3 -71.4 -68.6 46.9 -149 56.4 -2.2 .5 -6.7 .5 -20.1 0 -35.4 -13.4T697 843.7q-2.8 -22.3 10.6 -39.8T743.3 784q46.9 -5.5 88.7 -30.7 -25.6 5.6 -55.2 5.6 -64.2 0 -121.7 -27.9Q635 721 627.8 700.1t2.8 -41.1q9.5 -19.5 30.7 -26.7t40.7 2.2q34.6 17.3 74.8 17.3 28.4 0 55.2 -9.5 -1.6 0 -5.3 .3t-5.3 .3q-51.3 0 -95.1 -27.9t-66.1 -74.3q-9.5 -20.1 -2 -41t27.6 -30.4q10.1 -5 21.8 -5 -11.7 0 -21.8 -5 -20.1 -9.5 -27.6 -30.4t2 -41.1q22.3 -46.3 66.1 -74.2t95.1 -27.9h3.9q7.8 1.1 23.5 2.2l162.4 15.1 133.3 -67q7.8 -3.9 16.2 -3.9 22.3 0 31.8 19.6z"/></svg>