<svg height="1000" width="1000" xmlns="http://www.w3.org/2000/svg"><path d="M535.68 142.912q0 -14.508 -10.602 -25.11t-25.11 -10.602 -25.11 10.602 -10.602 25.11 10.602 25.11 25.11 10.602 25.11 -10.602 10.602 -25.11zm464.256 517.824v196.416q0 12.276 -11.16 16.74 -4.464 1.116 -6.696 1.116 -7.254 0 -12.834 -5.022l-51.894 -51.894q-66.402 79.794 -177.723 126.387t-239.661 46.593 -239.661 -46.593 -177.723 -126.387l-51.894 51.894q-5.022 5.022 -12.834 5.022 -2.232 0 -6.696 -1.116 -11.16 -4.464 -11.16 -16.74v-196.416q0 -7.812 5.022 -12.834t12.834 -5.022h196.416q12.276 0 16.74 11.16 4.464 10.602 -3.906 19.53l-55.8 55.8q37.386 50.778 105.741 85.653t151.497 46.035v-361.026h-107.136q-14.508 0 -25.11 -10.602t-10.602 -25.11v-71.424q0 -14.508 10.602 -25.11t25.11 -10.602h107.136v-90.954q-32.364 -18.972 -51.894 -51.615t-19.53 -71.703q0 -59.148 41.85 -100.998t100.998 -41.85 100.998 41.85 41.85 100.998q0 39.06 -19.53 71.703t-51.894 51.615v90.954h107.136q14.508 0 25.11 10.602t10.602 25.11v71.424q0 14.508 -10.602 25.11t-25.11 10.602h-107.136v361.026q83.142 -11.16 151.497 -46.035t105.741 -85.653l-55.8 -55.8q-8.37 -8.928 -3.906 -19.53 4.464 -11.16 16.74 -11.16h196.416q7.812 0 12.834 5.022t5.022 12.834z"/></svg>