<svg height="1000" width="1000" xmlns="http://www.w3.org/2000/svg"><path d="M535.7 142.9q0 -14.6 -10.6 -25.2T500 107.1t-25.1 10.6 -10.6 25.2 10.6 25.1 25.1 10.6T525.1 168t10.6 -25.1zM1000 660.7v196.4q0 12.3 -11.2 16.8 -4.4 1.1 -6.7 1.1 -7.2 0 -12.8 -5l-51.9 -51.9Q851 897.9 739.7 944.5T500 991.1 260.3 944.5 82.6 818.1L30.7 870q-5 5 -12.8 5 -2.3 0 -6.7 -1.1Q0 869.4 0 857.1V660.7q0 -7.8 5 -12.8t12.9 -5h196.4q12.3 0 16.7 11.1 4.5 10.6 -3.9 19.5l-55.8 55.9q37.4 50.7 105.8 85.6t151.5 46V500H321.4q-14.5 0 -25.1 -10.6t-10.6 -25.1v-71.4q0 -14.6 10.6 -25.2t25.1 -10.6h107.2v-90.9q-32.4 -19 -51.9 -51.6t-19.6 -71.7q0 -59.2 41.9 -101T500 0t101 41.9 41.9 101q0 39 -19.6 71.7t-51.9 51.6v90.9h107.2q14.5 0 25.1 10.6t10.6 25.2v71.4q0 14.5 -10.6 25.1T678.6 500H571.4v361q83.2 -11.1 151.5 -46t105.8 -85.6l-55.8 -55.9Q764.5 664.6 769 654q4.4 -11.1 16.7 -11.1h196.4q7.9 0 12.9 5t5 12.8z"/></svg>