<svg height="1000" width="1000" xmlns="http://www.w3.org/2000/svg"><path d="M535.68 142.912q0 -14.508 -10.602 -25.11t-25.11 -10.602 -25.11 10.602 -10.602 25.11 10.602 25.11 25.11 10.602 25.11 -10.602 10.602 -25.11zm463.14 560.232q-4.464 11.16 -16.74 11.16h-62.496q0 76.446 -55.521 140.058t-151.776 100.161 -212.319 36.549 -212.319 -36.549 -151.776 -100.161 -55.521 -140.058h-62.496q-12.276 0 -16.74 -11.16 -4.464 -10.602 3.906 -19.53l124.992 -124.992q5.58 -5.022 12.834 -5.022 6.696 0 12.834 5.022l124.992 124.992q8.37 8.928 3.906 19.53 -4.464 11.16 -16.74 11.16h-62.496q0 47.43 62.775 90.675t160.425 56.079v-361.026h-107.136q-14.508 0 -25.11 -10.602t-10.602 -25.11v-71.424q0 -14.508 10.602 -25.11t25.11 -10.602h107.136v-90.954q-32.364 -18.972 -51.894 -51.615t-19.53 -71.703q0 -59.148 41.85 -100.998t100.998 -41.85 100.998 41.85 41.85 100.998q0 39.06 -19.53 71.703t-51.894 51.615v90.954h107.136q14.508 0 25.11 10.602t10.602 25.11v71.424q0 14.508 -10.602 25.11t-25.11 10.602h-107.136v361.026q97.65 -12.834 160.425 -56.079t62.775 -90.675h-62.496q-12.276 0 -16.74 -11.16 -4.464 -10.602 3.906 -19.53l124.992 -124.992q6.138 -5.022 12.834 -5.022t12.834 5.022l124.992 124.992q8.37 8.928 3.906 19.53z"/></svg>