<svg height="1000" width="785.714" xmlns="http://www.w3.org/2000/svg"><path d="M0 669.106v-239.94q0 -23.436 16.74 -40.176t40.734 -16.74q23.436 0 40.176 16.74t16.74 40.176v239.94q0 23.994 -16.461 40.734t-40.455 16.74 -40.734 -16.74 -16.74 -40.734zm134.478 -306.342q0 -65.286 35.712 -120.249t95.976 -85.653l-39.618 -73.098q-3.906 -7.254 2.79 -11.16 7.254 -3.348 11.16 3.348l40.176 73.656q53.01 -23.436 112.158 -23.436t112.158 23.436l40.176 -73.656q3.906 -6.696 11.16 -3.348 6.696 3.906 2.79 11.16l-39.618 73.098q59.706 30.69 95.418 85.653t35.712 120.249h-516.15zm2.232 391.716v-371.628h512.244v371.628q0 25.668 -17.856 43.524t-42.966 17.856h-41.85v126.666q0 23.994 -16.74 40.734t-40.734 16.74 -40.734 -16.74 -16.74 -40.734v-126.666h-77.004v126.666q0 23.994 -16.74 40.734t-40.734 16.74q-23.436 0 -40.176 -16.74t-16.74 -40.734l-.558 -126.666h-41.292q-25.668 0 -43.524 -17.856t-17.856 -43.524zm117.18 -506.664q0 8.928 6.138 15.345t15.066 6.417 15.345 -6.417 6.417 -15.345 -6.417 -15.345 -15.345 -6.417 -15.066 6.417 -6.138 15.345zm234.918 0q0 8.928 6.417 15.345t15.345 6.417 15.066 -6.417 6.138 -15.345 -6.138 -15.345 -15.066 -6.417 -15.345 6.417 -6.417 15.345zm182.466 421.29v-239.94q0 -23.994 16.74 -40.455t40.176 -16.461q23.994 0 40.734 16.461t16.74 40.455v239.94q0 23.994 -16.74 40.734t-40.734 16.74q-23.436 0 -40.176 -16.74t-16.74 -40.734z"/></svg>