<svg height="1000" width="785.7" xmlns="http://www.w3.org/2000/svg"><path d="M275.1 269.5q8.9 0 15.4 -6.4t6.4 -15.3 -6.4 -15.4T275.1 226t-15.1 6.4 -6.1 15.4 6.1 15.3 15.1 6.4zm235.5 0q8.9 0 15.1 -6.4t6.1 -15.3 -6.1 -15.4T510.6 226t-15.3 6.4 -6.5 15.4 6.5 15.3 15.3 6.4zM57.5 372.2q23.4 0 40.2 16.8t16.7 40.1v240q0 24 -16.5 40.7t-40.4 16.8T16.7 709.8 0 669.1v-240Q0 405.7 16.7 389t40.8 -16.8zM649 382.8v371.7q0 25.6 -17.9 43.5t-42.9 17.8h-41.9v126.7q0 24 -16.7 40.8t-40.8 16.7 -40.7 -16.7 -16.7 -40.8V815.8h-77v126.7q0 24 -16.8 40.8t-40.7 16.7q-23.5 0 -40.2 -16.7T240 942.5l-.6 -126.7h-41.3q-25.7 0 -43.5 -17.8t-17.9 -43.5V382.8H649zm-129.5 -226q59.7 30.7 95.5 85.7t35.7 120.2H134.5q0 -65.3 35.7 -120.2t96 -85.7L226.6 83.7q-3.9 -7.2 2.8 -11.2 7.2 -3.3 11.1 3.4l40.2 73.7q53 -23.5 112.2 -23.5T505 149.6l40.2 -73.7q3.9 -6.7 11.2 -3.4 6.7 4 2.8 11.2zm266.2 272.3v240q0 24 -16.7 40.7t-40.8 16.8q-23.4 0 -40.1 -16.8t-16.8 -40.7v-240q0 -24 16.8 -40.4t40.1 -16.5q24 0 40.8 16.5t16.7 40.4z"/></svg>