<svg height="1000" width="714.3" xmlns="http://www.w3.org/2000/svg"><path d="M531.8 210.9L468.2 394l65.3 11.7Q625.6 154 625.6 116.6q0 -31.2 -21.2 -31.2 -31.9 0 -72.6 125.5zM365 594.3l18.4 49.1Q404 620 423 606l-18.4 -3t-21.5 -3.9T365 594.3zM202 94.3q0 54.7 88.7 290.7 10.1 -5.5 27.4 -5.5 8.4 0 41.8 2.8L292.4 186.4Q250.6 63.6 223.8 63.6q-10.6 0 -16.2 9.8T202 94.3zm-44.1 423.6q0 20 28.8 66.4t65.5 85.3 55.8 39.1q7.8 0 14.3 -7.2t6.4 -15.1q0 -13.4 -17.9 -56.9Q303.6 611.6 293 589.3t-26.5 -49.7 -34.4 -45.2 -34.6 -17.8q-11.1 0 -25.3 15t-14.3 26.3zM69.8 704.8q0 22.9 13.9 58 32.9 81 102.4 126.7t157.1 45.8q126.7 0 213.2 -94.9 84.8 -94.3 84.8 -238.3 0 -24 -.6 -37.4t-6.4 -34.6 -17 -31.2q-31.3 -27.4 -118 -42.1T348.2 442q-20.6 0 -27.3 6.1 -6.7 2.8 -6.7 19.5 0 19 12 33.5t30.9 22.3 43.3 13.2 48.8 6.4 47.5 2.2 39 0h12.8q13.4 0 22.4 10.6 8.3 10.6 10.6 30.7 -15.7 15.6 -53.6 30.1 -34 12.3 -51.9 25.7 -35.7 25.7 -60.5 63.6t-24.9 76.5q0 17.3 10.3 49.4t10.4 48.8l-1.7 6.7q-2.2 6.7 -2.2 7.8 -76.5 -5.6 -81.5 -120.5 -4.5 1.1 -22.9 1.1 1.1 3.9 1.1 11.7 0 29.6 -22.6 49.9t-52.7 20.4q-45.8 0 -92.9 -43.5T88.7 725.4q0 -18.9 18.4 -37.3 29.1 35.7 33.5 42.4 43 58 74.2 58 6.7 0 14.8 -4.7t8.1 -11.5q0 -19 -48.8 -80.9t-65 -61.9q-24 0 -39.1 24.8t-15 50.5zm-63.7 5q0 -56.3 23.8 -90.9T106 569.8Q90.4 528.5 90.4 511.7q0 -34.6 34 -68.6T192.5 409q16.2 0 39.1 8.4 -91 -257.8 -91 -316.4 0 -44.6 22.9 -72.8T229.9 0Q303 0 411.3 324.2q3.3 9.5 4.4 12.9 3.4 -9 16.2 -44.4t24.3 -66.1 30.1 -71.2 36 -68.6 39.4 -48.3 42.7 -20.1q39.6 0 62.5 27.4t22.8 68q0 60.3 -88.7 307 34 8.3 56.1 25.6t32.6 43.6 14.5 52.1 3.9 61.7q0 83.7 -26.2 156.2t-73.6 125.6 -117.8 83.7T335.4 1000q-62 0 -124.5 -23.4Q127.8 944.8 67 869.7T6.1 709.8z"/></svg>