<svg height="1000" width="714.286" xmlns="http://www.w3.org/2000/svg"><path d="M531.774 210.988l-63.612 183.024 65.286 11.718q92.07 -251.658 92.07 -289.044 0 -31.248 -21.204 -31.248 -31.806 0 -72.54 125.55zm-166.842 383.346l18.414 49.104q20.646 -23.436 39.618 -37.386l-18.414 -3.069t-21.483 -3.906 -18.135 -4.743zm-162.936 -499.968q0 54.684 88.722 290.718 10.044 -5.58 27.342 -5.58 8.37 0 41.85 2.79l-67.518 -195.858q-41.85 -122.76 -68.634 -122.76 -10.602 0 -16.182 9.765t-5.58 20.925zm-44.082 423.522q0 20.088 28.737 66.402t65.565 85.374 55.8 39.06q7.812 0 14.229 -7.254t6.417 -15.066q0 -13.392 -17.856 -56.916 -7.254 -17.856 -17.856 -40.176t-26.505 -49.662 -34.317 -45.198 -34.596 -17.856q-11.16 0 -25.389 15.066t-14.229 26.226zm-88.164 186.93q0 22.878 13.95 58.032 32.922 80.91 102.393 126.666t157.077 45.756q126.666 0 213.156 -94.86 84.816 -94.302 84.816 -238.266 0 -23.994 -.558 -37.386t-6.417 -34.596 -17.019 -31.248q-31.248 -27.342 -118.017 -42.129t-150.939 -14.787q-20.646 0 -27.342 6.138 -6.696 2.79 -6.696 19.53 0 18.972 11.997 33.48t30.969 22.32 43.245 13.113 48.825 6.417 47.43 2.232 39.06 0h12.834q13.392 0 22.32 10.602 8.37 10.602 10.602 30.69 -15.624 15.624 -53.568 30.132 -34.038 12.276 -51.894 25.668 -35.712 25.668 -60.543 63.612t-24.831 76.446q0 17.298 10.323 49.383t10.323 48.825l-1.674 6.696q-2.232 6.696 -2.232 7.812 -76.446 -5.58 -81.468 -120.528 -4.464 1.116 -22.878 1.116 1.116 3.906 1.116 11.718 0 29.574 -22.599 49.941t-52.731 20.367q-45.756 0 -92.907 -43.524t-47.151 -88.722q0 -18.972 18.414 -37.386 29.016 35.712 33.48 42.408 42.966 58.032 74.214 58.032 6.696 0 14.787 -4.743t8.091 -11.439q0 -18.972 -48.825 -80.91t-65.007 -61.938q-23.994 0 -39.06 24.831t-15.066 50.499zm-63.612 5.022q0 -56.358 23.715 -90.954t76.167 -49.104q-15.624 -41.292 -15.624 -58.032 0 -34.596 34.038 -68.634t68.076 -34.038q16.182 0 39.06 8.37 -90.954 -257.796 -90.954 -316.386 0 -44.64 22.878 -72.819t66.402 -28.179q73.098 0 181.35 324.198 3.348 9.486 4.464 12.834 3.348 -8.928 16.182 -44.361t24.273 -66.123 30.132 -71.145 35.991 -68.634 39.339 -48.267 42.687 -20.088q39.618 0 62.496 27.342t22.878 68.076q0 60.264 -88.722 306.9 34.038 8.37 56.079 25.668t32.643 43.524 14.508 52.173 3.906 61.659q0 83.7 -26.226 156.24t-73.656 125.55 -117.738 83.7 -155.124 30.69q-61.938 0 -124.434 -23.436 -83.142 -31.806 -143.964 -106.857t-60.822 -159.867z"/></svg>