<svg height="1000" width="642.857" xmlns="http://www.w3.org/2000/svg"><path d="M599.85 732.16q0 7.254 -5.58 12.834l-27.9 27.9q-5.58 5.58 -12.834 5.58t-12.834 -5.58l-219.294 -219.294 -219.294 219.294q-5.58 5.58 -12.834 5.58t-12.834 -5.58l-27.9 -27.9q-5.58 -5.58 -5.58 -12.834t5.58 -12.834l260.028 -260.028q5.58 -5.58 12.834 -5.58t12.834 5.58l260.028 260.028q5.58 5.58 5.58 12.834zm0 -214.272q0 7.254 -5.58 12.834l-27.9 27.9q-5.58 5.58 -12.834 5.58t-12.834 -5.58l-219.294 -219.294 -219.294 219.294q-5.58 5.58 -12.834 5.58t-12.834 -5.58l-27.9 -27.9q-5.58 -5.58 -5.58 -12.834t5.58 -12.834l260.028 -260.028q5.58 -5.58 12.834 -5.58t12.834 5.58l260.028 260.028q5.58 5.58 5.58 12.834z"/></svg>