<svg height="1000px" width="642.8571428571429px" xmlns="http://www.w3.org/2000/svg">
  <g>
    <path d="M599.8883928571429 660.7142857142857c0 4.836 -1.86 9.115 -5.58 12.835c0 0 -27.902 27.902 -27.902 27.902c-3.72 3.72 -7.999 5.58 -12.835 5.58c-4.836 0 -9.115 -1.86 -12.835 -5.58c0 0 -219.308 -219.308 -219.308 -219.308c0 0 -219.308 219.308 -219.308 219.308c-3.72 3.72 -7.998 5.58 -12.835 5.58c-4.836 0 -9.114 -1.86 -12.834 -5.58c0 0 -27.902 -27.902 -27.902 -27.902c-3.721 -3.72 -5.581 -7.999 -5.581 -12.835c0 -4.836 1.86 -9.115 5.581 -12.835c0 0 260.044 -260.044 260.044 -260.044c3.721 -3.721 7.999 -5.581 12.835 -5.581c4.836 0 9.115 1.86 12.835 5.581c0 0 260.045 260.044 260.045 260.044c3.72 3.72 5.58 7.999 5.58 12.835c0 0 0 0 0 0" />
  </g>
</svg>