<svg height="1000" width="571.4" xmlns="http://www.w3.org/2000/svg"><path d="M332 535.7q0 7.3 -5.5 12.8L66.4 808.6q-5.6 5.6 -12.8 5.6t-12.9 -5.6L12.8 780.7Q7.3 775.1 7.3 767.9T12.8 755L232.1 535.7 12.8 316.4Q7.3 310.8 7.3 303.6t5.5 -12.9l27.9 -27.9q5.6 -5.5 12.9 -5.5t12.8 5.5l260.1 260.1q5.5 5.6 5.5 12.8zm214.3 0q0 7.3 -5.6 12.8l-260 260.1q-5.6 5.6 -12.8 5.6T255 808.6l-27.9 -27.9q-5.6 -5.6 -5.6 -12.8t5.6 -12.9L446.4 535.7 227.1 316.4q-5.6 -5.6 -5.6 -12.8t5.6 -12.9L255 262.8q5.6 -5.5 12.9 -5.5t12.8 5.5l260 260.1q5.6 5.6 5.6 12.8z"/></svg>