<svg height="1000" width="857.143" xmlns="http://www.w3.org/2000/svg"><path d="M507.222 778.474l56.916 -56.916q10.602 -10.602 10.602 -25.11t-10.602 -25.11l-171.306 -171.306 171.306 -171.306q10.602 -10.602 10.602 -25.11t-10.602 -25.11l-56.916 -56.916q-10.602 -10.602 -25.11 -10.602t-25.11 10.602l-253.332 253.332q-10.602 10.602 -10.602 25.11t10.602 25.11l253.332 253.332q10.602 10.602 25.11 10.602t25.11 -10.602zm349.866 -278.442q0 116.622 -57.474 215.109t-155.961 155.961 -215.109 57.474 -215.109 -57.474 -155.961 -155.961 -57.474 -215.109 57.474 -215.109 155.961 -155.961 215.109 -57.474 215.109 57.474 155.961 155.961 57.474 215.109z"/></svg>