<svg height="1000" width="571.4" xmlns="http://www.w3.org/2000/svg"><path d="M349.9 767.9q0 7.2 -5.6 12.8l-27.9 27.9q-5.6 5.6 -12.8 5.6t-12.9 -5.6L30.7 548.5Q25.1 543 25.1 535.7t5.6 -12.8l260 -260.1q5.6 -5.5 12.9 -5.5t12.8 5.5l27.9 27.9q5.6 5.6 5.6 12.9t-5.6 12.8L125 535.7 344.3 755q5.6 5.6 5.6 12.9zm214.3 0q0 7.2 -5.6 12.8l-27.9 27.9q-5.6 5.6 -12.8 5.6T505 808.6L245 548.5q-5.6 -5.5 -5.6 -12.8t5.6 -12.8L505 262.8q5.6 -5.5 12.9 -5.5t12.8 5.5l27.9 27.9q5.6 5.6 5.6 12.9t-5.6 12.8L339.3 535.7 558.6 755q5.6 5.6 5.6 12.9z"/></svg>