<svg height="1000px" width="571.4285714285714px" xmlns="http://www.w3.org/2000/svg">
  <g>
    <path d="M7.254464285714286 767.8571428571428c0 -4.836 1.86 -9.115 5.58 -12.835c0 0 219.308 -219.308 219.308 -219.308c0 0 -219.308 -219.308 -219.308 -219.308c-3.72 -3.72 -5.58 -7.998 -5.58 -12.835c0 -4.836 1.86 -9.114 5.58 -12.835c0 0 27.902 -27.901 27.902 -27.901c3.72 -3.721 7.999 -5.581 12.835 -5.581c4.836 0 9.115 1.86 12.835 5.581c0 0 260.044 260.044 260.044 260.044c3.721 3.721 5.581 7.999 5.581 12.835c0 4.836 -1.86 9.115 -5.581 12.835c0 0 -260.044 260.045 -260.044 260.045c-3.72 3.72 -7.999 5.58 -12.835 5.58c-4.836 0 -9.115 -1.86 -12.835 -5.58c0 0 -27.902 -27.902 -27.902 -27.902c-3.72 -3.72 -5.58 -7.999 -5.58 -12.835c0 0 0 0 0 0m214.286 0c0 -4.836 1.86 -9.115 5.58 -12.835c0 0 219.308 -219.308 219.308 -219.308c0 0 -219.308 -219.308 -219.308 -219.308c-3.72 -3.72 -5.58 -7.998 -5.58 -12.835c0 -4.836 1.86 -9.114 5.58 -12.835c0 0 27.902 -27.901 27.902 -27.901c3.72 -3.721 7.998 -5.581 12.835 -5.581c4.836 0 9.114 1.86 12.835 5.581c0 0 260.044 260.044 260.044 260.044c3.72 3.721 5.581 7.999 5.581 12.835c0 4.836 -1.861 9.115 -5.581 12.835c0 0 -260.044 260.045 -260.044 260.045c-3.721 3.72 -7.999 5.58 -12.835 5.58c-4.837 0 -9.115 -1.86 -12.835 -5.58c0 0 -27.902 -27.902 -27.902 -27.902c-3.72 -3.72 -5.58 -7.999 -5.58 -12.835c0 0 0 0 0 0" />
  </g>
</svg>