<svg height="1000" width="642.9" xmlns="http://www.w3.org/2000/svg"><path d="M599.9 482.1q0 7.3 -5.6 12.9l-260 260q-5.6 5.6 -12.9 5.6T308.6 755L48.5 495Q43 489.4 43 482.1t5.5 -12.8l28 -27.9q5.5 -5.6 12.8 -5.6t12.8 5.6l219.3 219.3L540.7 441.4q5.6 -5.6 12.9 -5.6t12.8 5.6l27.9 27.9q5.6 5.6 5.6 12.8zm0 -214.2q0 7.2 -5.6 12.8l-260 260q-5.6 5.6 -12.9 5.6t-12.8 -5.6L48.5 280.7Q43 275.1 43 267.9T48.5 255l28 -27.9q5.5 -5.6 12.8 -5.6t12.8 5.6l219.3 219.3L540.7 227.1q5.6 -5.6 12.9 -5.6t12.8 5.6l27.9 27.9q5.6 5.6 5.6 12.9z"/></svg>