<svg height="1000" width="642.9" xmlns="http://www.w3.org/2000/svg"><path d="M599.9 732.1q0 7.3 -5.6 12.9l-27.9 27.9q-5.6 5.6 -12.8 5.6t-12.9 -5.6L321.4 553.6 102.1 772.9q-5.6 5.6 -12.8 5.6t-12.8 -5.6L48.5 745Q43 739.4 43 732.1t5.5 -12.8l260.1 -260q5.6 -5.6 12.8 -5.6t12.9 5.6l260 260q5.6 5.6 5.6 12.8zm0 -214.2q0 7.2 -5.6 12.8l-27.9 27.9q-5.6 5.6 -12.8 5.6t-12.9 -5.6L321.4 339.3 102.1 558.6q-5.6 5.6 -12.8 5.6t-12.8 -5.6l-28 -27.9Q43 525.1 43 517.9T48.5 505L308.6 245q5.6 -5.6 12.8 -5.6t12.9 5.6l260 260q5.6 5.6 5.6 12.9z"/></svg>