<svg height="1000" width="785.714" xmlns="http://www.w3.org/2000/svg"><path d="M777.294 678.034q-21.762 69.75 -68.634 139.5 -71.982 109.368 -143.406 109.368 -27.342 0 -78.12 -17.856 -47.988 -17.856 -84.258 -17.856 -34.038 0 -79.236 18.414 -45.198 18.972 -73.656 18.972 -84.816 0 -167.958 -144.522 -82.026 -145.638 -82.026 -280.674 0 -127.224 63.054 -208.692 62.496 -80.352 158.472 -80.352 40.176 0 98.766 16.74 58.032 16.74 77.004 16.74 25.11 0 79.794 -18.972 56.916 -18.972 96.534 -18.972 66.402 0 118.854 36.27 29.016 20.088 58.032 55.8 -44.082 37.386 -63.612 65.844 -36.27 52.452 -36.27 115.506 0 69.192 38.502 124.434t88.164 70.308zm-209.808 -654.534q0 34.038 -16.182 75.888 -16.74 41.85 -51.894 77.004 -30.132 30.132 -60.264 40.176 -20.646 6.138 -58.032 9.486 1.674 -83.142 43.524 -143.406 41.292 -59.706 139.5 -82.584 .558 1.674 1.395 6.138t1.395 6.138q0 2.232 .279 5.58t.279 5.58z"/></svg>