<svg height="1000px" width="935.546875px" xmlns="http://www.w3.org/2000/svg">
  <g>
    <path d="M2.9296875 722.65625c0 0 73.242 -213.379 73.242 -213.379c3.255 -10.742 9.603 -18.066 19.043 -21.973c9.44 -3.906 19.043 -4.557 28.809 -1.953c0 0 213.867 73.243 213.867 73.243c14.648 5.208 22.135 11.8 22.461 19.775c0.325 7.975 -6.511 15.706 -20.508 23.193c0 0 -98.633 48.828 -98.633 48.828c17.253 25.391 37.354 47.282 60.303 65.674c22.949 18.392 49.072 32.471 78.369 42.237c36.133 12.044 72.184 16.601 108.154 13.671c35.97 -2.929 69.662 -12.044 101.075 -27.343c31.412 -15.3 59.082 -36.296 83.007 -62.989c23.926 -26.692 41.911 -58.105 53.956 -94.238c1.953 -5.208 5.289 -8.789 10.009 -10.742c4.72 -1.953 9.685 -2.279 14.893 -0.977c0 0 74.219 24.903 74.219 24.903c5.208 1.953 8.951 5.289 11.23 10.009c2.279 4.721 2.441 9.685 0.488 14.893c-17.252 51.432 -43.213 96.11 -77.88 134.033c-34.668 37.923 -74.301 67.871 -118.897 89.844c-44.596 21.973 -92.773 35.156 -144.531 39.551c-51.758 4.394 -103.028 -2.035 -153.809 -19.287c-43.945 -15.3 -83.252 -37.11 -117.92 -65.43c-34.668 -28.32 -63.883 -62.175 -87.646 -101.563c0 0 -100.098 48.829 -100.098 48.829c-13.997 7.487 -24.333 8.382 -31.006 2.685c-6.673 -5.696 -7.405 -16.195 -2.197 -31.494c0 0 0 0 0 0m96.191 -348.145c17.253 -50.781 43.213 -95.296 77.881 -133.544c34.668 -38.249 74.3 -68.36 118.897 -90.332c44.596 -21.973 92.61 -35.157 144.043 -39.551c51.432 -4.395 102.864 2.034 154.297 19.287c43.294 15.299 82.438 37.109 117.431 65.43c34.994 28.32 64.372 62.174 88.135 101.562c0 0 100.098 -48.828 100.098 -48.828c13.997 -7.487 24.332 -8.382 31.006 -2.686c6.673 5.697 7.405 15.87 2.197 30.518c0 0 -73.242 214.355 -73.242 214.355c-3.256 10.743 -9.603 18.067 -19.043 21.973c-9.44 3.906 -19.043 4.557 -28.809 1.953c0 0 -213.867 -73.242 -213.867 -73.242c-14.649 -5.208 -22.136 -11.8 -22.461 -19.775c-0.326 -7.976 6.185 -15.707 19.531 -23.194c0 0 98.633 -48.828 98.633 -48.828c-16.602 -25.39 -36.54 -47.282 -59.814 -65.674c-23.275 -18.392 -49.236 -32.47 -77.881 -42.236c-36.133 -12.044 -72.185 -16.602 -108.155 -13.672c-35.97 2.93 -69.661 12.044 -101.074 27.344c-31.413 15.299 -59.082 36.295 -83.008 62.988c-23.925 26.693 -41.91 58.106 -53.955 94.238c-1.953 5.209 -5.289 8.789 -10.01 10.743c-4.72 1.953 -9.684 2.278 -14.892 0.976c0 0 -74.219 -24.902 -74.219 -24.902c-5.208 -1.953 -8.952 -5.29 -11.23 -10.01c-2.279 -4.72 -2.442 -9.684 -0.489 -14.893c0 0 0 0 0 0" />
  </g>
</svg>