<svg height="1000" width="857.1" xmlns="http://www.w3.org/2000/svg"><path d="M0 857.2v-250q0-14.5 10.6-25.1t25.1-10.6h250q14.5 0 25.1 10.6t10.6 25.1-10.6 25.1l-76.4 76.4q39.6 36.8 89.8 56.9t104.3 20.1q74.8 0 139.5-36.3t103.8-99.9q6.1-9.5 29.6-65.3 4.5-12.8 16.7-12.8h107.1q7.3 0 12.6 5.3t5.3 12.6q0 2.8-.6 3.9-35.7 149.5-149.5 242.5t-266.7 92.9q-81.5 0-157.6-30.7t-135.9-87.6l-72 72q-10.6 10.6-25.1 10.6t-25.1-10.6-10.6-25.1zm10-446.4v-3.9q36.3-149.5 150.7-242.5t267.8-92.9q81.5 0 158.5 31t136.7 87.3l72.5-72q10.6-10.6 25.1-10.6t25.1 10.6 10.6 25.1v250q0 14.5-10.6 25.1t-25.1 10.6h-250q-14.5 0-25.1-10.6t-10.6-25.1 10.6-25.1l77-77q-82.6-76.4-194.7-76.4-74.8 0-139.5 36.3t-103.8 99.9q-6.1 9.5-29.6 65.3-4.5 12.8-16.7 12.8h-111q-7.3 0-12.6-5.3t-5.3-12.6z"/></svg>