<svg height="1000px" width="900px" xmlns="http://www.w3.org/2000/svg">
  <g>
    <path d="M3 715c0 0 70 -206 70 -206c2.667 -8.667 8.667 -15.333 18 -20c10 -4 19.333 -4.667 28 -2c0 0 206 70 206 70c14 4.667 21.167 11 21.5 19c0.333 8 -6.167 15.333 -19.5 22c0 0 -95 47 -95 47c16 24 35.167 45 57.5 63c22.333 18 47.5 31.667 75.5 41c34 12 68.333 16.5 103 13.5c34.667 -3 67.167 -11.833 97.5 -26.5c30.333 -14.667 57.167 -35 80.5 -61c23.333 -26 41 -56 53 -90c1.333 -5.333 4.167 -9 8.5 -11c4.333 -2 9.167 -2.333 14.5 -1c0 0 71 24 71 24c11.333 4.667 15.333 12.667 12 24c-16.667 49.333 -41.667 92.333 -75 129c-33.333 36.667 -71.5 65.5 -114.5 86.5c-43 21 -89.333 33.5 -139 37.5c-49.667 4 -98.833 -2.333 -147.5 -19c-42 -14 -79.833 -34.667 -113.5 -62c-33.667 -27.333 -61.833 -60 -84.5 -98c0 0 -97 47 -97 47c-13.333 7.333 -23.167 8.167 -29.5 2.5c-6.333 -5.667 -6.833 -15.5 -1.5 -29.5c0 0 0 0 0 0m92 -335c16.667 -48.667 41.667 -91.5 75 -128.5c33.333 -37 71.5 -66.167 114.5 -87.5c43 -21.333 89.167 -34 138.5 -38c49.333 -4 98.667 2.333 148 19c42 14.667 79.667 35.667 113 63c33.333 27.333 61.667 60 85 98c0 0 97 -48 97 -48c13.333 -6.667 23.167 -7.167 29.5 -1.5c6.333 5.667 6.833 15.5 1.5 29.5c0 0 -70 205 -70 205c-2.667 9.333 -8.667 16.333 -18 21c-10 4 -19.333 4.667 -28 2c0 0 -206 -70 -206 -70c-14 -4.667 -21.167 -11 -21.5 -19c-0.333 -8 6.167 -15.333 19.5 -22c0 0 95 -47 95 -47c-16 -24 -35.333 -45 -58 -63c-22.667 -18 -48 -31.667 -76 -41c-34 -12 -68.333 -16.5 -103 -13.5c-34.667 3 -67 11.833 -97 26.5c-30 14.667 -56.667 35 -80 61c-23.333 26 -41 56 -53 90c-1.333 5.333 -4.333 9 -9 11c-4.667 2 -9.333 2.333 -14 1c0 0 -71 -25 -71 -25c-5.333 -1.333 -9 -4.333 -11 -9c-2 -4.667 -2.333 -9.333 -1 -14c0 0 0 0 0 0" />
  </g>
</svg>