<svg height="1000px" width="857.1428571428571px" xmlns="http://www.w3.org/2000/svg">
  <g>
    <path d="M0 857.1428571428571c0 0 0 -250 0 -250c0 -9.673 3.534 -18.043 10.603 -25.112c7.068 -7.068 15.439 -10.602 25.111 -10.602c0 0 250 0 250 0c9.673 0 18.043 3.534 25.112 10.602c7.068 7.069 10.603 15.439 10.603 25.112c0 9.673 -3.535 18.043 -10.603 25.112c0 0 -76.451 76.451 -76.451 76.451c55.06 51.339 119.792 77.008 194.196 77.008c49.852 0 96.355 -12.09 139.509 -36.272c43.155 -24.181 77.753 -57.478 103.795 -99.888c4.092 -6.325 13.951 -28.088 29.576 -65.29c2.976 -8.557 8.556 -12.835 16.741 -12.835c0 0 107.143 0 107.143 0c4.836 0 9.021 1.767 12.556 5.301c3.534 3.534 5.301 6.976 5.301 10.324c0 3.348 -0.186 5.394 -0.558 6.138c-23.81 99.702 -73.661 180.525 -149.554 242.467c-75.893 61.942 -164.806 92.913 -266.741 92.913c-54.315 0 -106.864 -10.231 -157.645 -30.692c-50.781 -20.462 -96.075 -49.666 -135.882 -87.612c0 0 -71.986 71.987 -71.986 71.987c-7.069 7.068 -15.439 10.602 -25.112 10.602c-9.672 0 -18.043 -3.534 -25.111 -10.602c-7.069 -7.069 -10.603 -15.439 -10.603 -25.112c0 0 0 0 0 0m10.045 -446.429c0 0 0 -3.906 0 -3.906c24.181 -99.702 74.404 -180.524 150.669 -242.466c76.265 -61.942 165.551 -92.913 267.857 -92.913c54.316 0 107.143 10.323 158.483 30.971c51.339 20.647 96.912 49.758 136.718 87.332c0 0 72.545 -71.986 72.545 -71.986c7.068 -7.069 15.439 -10.603 25.112 -10.603c9.672 0 18.043 3.534 25.111 10.603c7.069 7.068 10.603 15.439 10.603 25.111c0 0 0 250 0 250c0 9.673 -3.534 18.043 -10.603 25.112c-7.068 7.068 -15.439 10.603 -25.111 10.603c0 0 -250 0 -250 0c-9.673 0 -18.044 -3.535 -25.112 -10.603c-7.068 -7.069 -10.603 -15.439 -10.603 -25.112c0 -9.672 3.535 -18.043 10.603 -25.111c0 0 77.009 -77.009 77.009 -77.009c-55.06 -50.968 -119.978 -76.451 -194.755 -76.451c-49.851 0 -96.354 12.091 -139.509 36.272c-43.154 24.182 -77.752 57.478 -103.794 99.889c-4.092 6.324 -13.951 28.087 -29.576 65.29c-2.976 8.556 -8.557 12.835 -16.741 12.835c0 0 -111.049 0 -111.049 0c-4.837 0 -9.022 -1.768 -12.556 -5.302c-3.534 -3.534 -5.301 -7.719 -5.301 -12.556c0 0 0 0 0 0" />
  </g>
</svg>