<svg height="1000" width="857.1" xmlns="http://www.w3.org/2000/svg"><path d="M843.2 589.3q0 2.8 -.6 3.9Q806.9 742.7 693.1 835.7t-266.8 92.9q-81.4 0 -157.6 -30.7T132.8 810.3l-72 72q-10.6 10.6 -25.1 10.6T10.6 882.3 0 857.1v-250Q0 592.6 10.6 582t25.1 -10.6h250q14.5 0 25.1 10.6t10.6 25.1 -10.6 25.2l-76.4 76.4q39.6 36.8 89.8 56.9t104.4 20.1q74.7 0 139.5 -36.3t103.8 -99.8q6.1 -9.5 29.6 -65.3 4.4 -12.9 16.7 -12.9h107.1q7.3 0 12.6 5.3t5.3 12.6zm13.9 -446.4v250q0 14.5 -10.6 25.1t-25.1 10.6h-250q-14.5 0 -25.1 -10.6t-10.6 -25.1 10.6 -25.2l77 -77Q540.7 214.3 428.6 214.3q-74.8 0 -139.5 36.3t-103.8 99.8q-6.2 9.5 -29.6 65.3 -4.5 12.9 -16.7 12.9H27.9q-7.3 0 -12.6 -5.3T10 410.7v-3.9Q46.3 257.3 160.7 164.3T428.6 71.4q81.4 0 158.5 31t136.7 87.3l72.5 -72q10.6 -10.6 25.1 -10.6t25.1 10.6 10.6 25.2z"/></svg>