<svg height="1000" width="1000" xmlns="http://www.w3.org/2000/svg"><path d="M589.3 464.3q0 14.5 10.6 25.1T625 500t25.1 -10.6 10.6 -25.1q0 -81.5 -57.5 -139T464.3 267.9t-139 57.4 -57.4 139q0 14.5 10.6 25.1t25.1 10.6 25.1 -10.6 10.6 -25.1q0 -51.9 36.8 -88.5t88.2 -36.5 88.2 36.5 36.8 88.5zM466 142.9q-65.3 0 -124.8 25.3t-102.6 68.7 -68.7 102.7 -25.4 124.7q0 14.5 10.6 25.1t25.1 10.6 25.2 -10.6T216 464.3Q216 361 289.3 287.7T466 214.3t176.6 73.4T716 464.3q0 30.7 -10.1 57.7T685 563.6t-33.2 40.2q-19 21.8 -29 35.2t-24.3 37.1 -20.7 50.7 -6.4 58.9q0 59.2 -41.8 101t-101 41.9q-14.5 0 -25.1 10.6t-10.6 25.1 10.6 25.1 25.1 10.6q88.7 0 151.5 -62.8t62.8 -151.5q0 -22.9 4.1 -41.3t14.8 -35.7 18.7 -27.9 25.4 -30.1q19.5 -22.9 29.6 -36T760 577t21 -52.2 6.4 -60.5Q787.4 399 762 339.6T693.4 236.9 590.7 168.2 466 142.9zM329.8 544.1l126.1 126.1L132.8 993.3q-6.7 6.7 -16.2 6.7t-16.2 -6.7L6.7 899.6Q0 892.9 0 883.4t6.7 -16.2zM899.6 6.7l93.7 93.7q6.7 6.7 6.7 16.2t-6.7 16.8l-130 130 -14.5 13.9L809.2 317Q772.3 231.6 700.3 173l50.8 -50.8L866.6 6.7Q873.9 0 883.4 0t16.2 6.7z"/></svg>