<svg height="1000" width="1000" xmlns="http://www.w3.org/2000/svg"><path d="M71.4 964.3q0 14.5 -10.6 25.1T35.7 1000 10.6 989.4 0 964.3t10.6 -25.1 25.1 -10.6 25.1 10.6 10.6 25.1zM178.6 857.1q0 14.6 -10.6 25.2t-25.1 10.6 -25.2 -10.6 -10.6 -25.2T117.7 832t25.2 -10.6T168 832t10.6 25.1zm25.1 -203.6l142.8 142.8 -50.2 50.2L153.5 703.7zm189.2 -10.6q0 14.5 -10.6 25.1t-25.2 10.6T332 668t-10.6 -25.1T332 617.7t25.1 -10.6 25.2 10.6 10.6 25.2zM787.4 464.3q0 32.9 -6.4 60.5T760 577t-24.5 37.7 -29.6 36q-17.3 19.5 -25.4 30.1t-18.7 27.9T647 744.4t-4.1 41.3q0 88.7 -62.8 151.5T428.6 1000q-14.5 0 -25.1 -10.6t-10.6 -25.1 10.6 -25.1 25.1 -10.6q59.1 0 101 -41.9t41.8 -101q0 -31.8 6.4 -58.9t20.7 -50.7T622.8 639t29 -35.2q22.3 -25.7 33.2 -40.2T705.9 522 716 464.3Q716 361 642.6 287.7T466 214.3t-176.7 73.4T216 464.3q0 14.5 -10.6 25.1T180.2 500t-25.1 -10.6 -10.6 -25.1q0 -65.3 25.4 -124.7t68.7 -102.7 102.6 -68.7T466 142.9t124.7 25.3 102.7 68.7T762 339.6t25.4 124.7zM500 535.7q0 14.5 -10.6 25.1t-25.1 10.6 -25.1 -10.6 -10.6 -25.1 10.6 -25.1T464.3 500t25.1 10.6 10.6 25.1zm160.7 -71.4q0 14.5 -10.6 25.1T625 500t-25.1 -10.6 -10.6 -25.1q0 -51.9 -36.6 -88.5t-88.4 -36.5q-51.4 0 -88.2 36.5t-36.8 88.5q0 14.5 -10.6 25.1T303.6 500t-25.1 -10.6 -10.6 -25.1q0 -81.5 57.4 -139t139 -57.4 138.9 57.4 57.5 139zM880.6 303q5.6 14 -.6 27.4t-20.1 18.9q-5 2.3 -12.8 2.3 -10.6 0 -19.8 -6.2t-13.1 -16.7q-38 -99.3 -125 -164.6 -11.7 -9 -14 -23.5t6.7 -26.2q9.5 -11.7 24 -14t26.2 6.7Q834.3 183.6 880.6 303zm117.2 -45.2q5 14 -.9 27.4t-19.8 18.9q-6.1 2.3 -12.8 2.3 -24.6 0 -33.5 -22.9Q879.5 150.7 765.1 64.2q-12.3 -9 -14.3 -23.5t7 -26.2Q766.7 2.2 781.3 .3t26.2 7q131.1 97.6 190.3 250.5z"/></svg>