<svg height="1000" width="928.6" xmlns="http://www.w3.org/2000/svg"><path d="M827 585.9q25.7 14.5 33.2 43.3t-7 54.4L817.5 745q-14.5 25.6 -43.2 33.2t-54.4 -7L571.4 685.8v171.3q0 29.1 -21.2 50.3T500 928.6h-71.4q-29 0 -50.3 -21.2t-21.2 -50.3V685.8l-148.4 85.4q-25.7 14.5 -54.4 7T111 745L75.3 683.6Q60.8 657.9 68.4 629.2t33.2 -43.3L250 500 101.6 414.1Q75.9 399.6 68.4 370.8t6.9 -54.4L111 255q14.6 -25.6 43.3 -33.2t54.4 7l148.4 85.4V142.9q0 -29.1 21.2 -50.3t50.3 -21.2H500q29 0 50.2 21.2t21.2 50.3v171.3l148.5 -85.4q25.6 -14.5 54.4 -7t43.2 33.2l35.7 61.4q14.5 25.7 7 54.4T827 414.1L678.6 500z"/></svg>