<svg height="1000px" width="928.5714285714286px" xmlns="http://www.w3.org/2000/svg">
  <g>
    <path d="M65.78459821428571 648.4709821428571c0 -6.309 0.858 -12.738 2.575 -19.286c5.022 -19.159 16.09 -33.575 33.203 -43.248c0 0 148.437 -85.937 148.437 -85.937c0 0 -148.437 -85.938 -148.437 -85.938c-17.113 -9.672 -28.181 -24.088 -33.203 -43.247c-1.717 -6.548 -2.575 -12.977 -2.575 -19.286c0 -12.151 3.183 -23.858 9.55 -35.123c0 0 35.714 -61.384 35.714 -61.384c9.673 -17.113 24.089 -28.181 43.248 -33.203c6.548 -1.716 12.977 -2.575 19.286 -2.575c12.151 0 23.858 3.184 35.123 9.551c0 0 148.437 85.379 148.437 85.379c0 0 0 -171.317 0 -171.317c0 -19.345 7.069 -36.086 21.206 -50.223c14.136 -14.137 30.878 -21.205 50.223 -21.205c0 0 71.428 0 71.428 0c19.346 0 36.087 7.068 50.224 21.205c14.136 14.137 21.205 30.878 21.205 50.223c0 0 0 171.317 0 171.317c0 0 148.437 -85.379 148.437 -85.379c11.265 -6.367 22.972 -9.551 35.123 -9.551c6.309 0 12.738 0.859 19.286 2.575c19.159 5.022 33.575 16.09 43.248 33.203c0 0 35.714 61.384 35.714 61.384c6.367 11.265 9.55 22.972 9.55 35.123c0 6.309 -0.858 12.738 -2.575 19.286c-5.022 19.159 -16.09 33.575 -33.203 43.247c0 0 -148.437 85.938 -148.437 85.938c0 0 148.437 85.937 148.437 85.937c17.113 9.673 28.181 24.089 33.203 43.248c1.717 6.548 2.575 12.977 2.575 19.286c0 12.151 -3.183 23.858 -9.55 35.123c0 0 -35.714 61.384 -35.714 61.384c-9.673 17.113 -24.089 28.18 -43.248 33.203c-6.548 1.716 -12.977 2.574 -19.286 2.574c-12.151 0 -23.858 -3.183 -35.123 -9.55c0 0 -148.437 -85.379 -148.437 -85.379c0 0 0 171.317 0 171.317c0 19.345 -7.069 36.086 -21.205 50.223c-14.137 14.137 -30.878 21.205 -50.224 21.205c0 0 -71.428 0 -71.428 0c-19.345 0 -36.087 -7.068 -50.223 -21.205c-14.137 -14.137 -21.206 -30.878 -21.206 -50.223c0 0 0 -171.317 0 -171.317c0 0 -148.437 85.379 -148.437 85.379c-11.265 6.367 -22.972 9.55 -35.123 9.55c-6.309 0 -12.738 -0.858 -19.286 -2.574c-19.159 -5.023 -33.575 -16.09 -43.248 -33.203c0 0 -35.714 -61.384 -35.714 -61.384c-6.367 -11.265 -9.55 -22.972 -9.55 -35.123c0 0 0 0 0 0" />
  </g>
</svg>