<svg height="1000px" width="696.77734375px" xmlns="http://www.w3.org/2000/svg">
  <g>
    <path d="M0.9765625 377.9296875c-3.255 -12.044 -1.628 -23.763 4.883 -35.156c0 0 35.156 -60.547 35.156 -60.547c6.51 -11.393 15.951 -18.636 28.32 -21.729c12.37 -3.092 24.252 -1.546 35.645 4.639c0 0 162.109 93.75 162.109 93.75c0 0 0 -187.012 0 -187.012c0 -13.346 4.476 -24.495 13.428 -33.447c8.952 -8.952 20.101 -13.428 33.447 -13.428c0 0 68.848 0 68.848 0c13.346 0 24.577 4.476 33.691 13.428c9.115 8.952 13.672 19.775 13.672 32.471c0 0 0 187.988 0 187.988c0 0 161.621 -93.75 161.621 -93.75c11.394 -5.859 23.275 -7.324 35.645 -4.395c12.37 2.93 21.81 10.092 28.32 21.485c0 0 34.18 60.547 34.18 60.547c6.51 11.393 8.301 23.112 5.371 35.156c-2.93 12.044 -10.091 21.322 -21.484 27.832c0 0 -162.598 94.238 -162.598 94.238c0 0 162.598 94.239 162.598 94.239c11.393 6.51 18.636 15.787 21.728 27.832c3.093 12.044 1.546 23.763 -4.639 35.156c0 0 -35.156 60.547 -35.156 60.547c-6.51 11.393 -15.95 18.636 -28.32 21.728c-12.37 3.093 -24.251 1.546 -35.645 -4.638c0 0 -161.621 -93.75 -161.621 -93.75c0 0 0 187.011 0 187.011c0 13.347 -4.557 24.496 -13.672 33.448c-9.114 8.951 -20.345 13.427 -33.691 13.427c0 0 -68.848 0 -68.848 0c-13.346 0 -24.495 -4.476 -33.447 -13.427c-8.952 -8.952 -13.428 -19.776 -13.428 -32.471c0 0 0 -187.988 0 -187.988c0 0 -162.109 93.75 -162.109 93.75c-11.393 6.51 -23.275 8.138 -35.645 4.882c-12.369 -3.255 -21.81 -10.579 -28.32 -21.972c0 0 -35.156 -60.547 -35.156 -60.547c-5.86 -11.393 -7.324 -23.112 -4.395 -35.156c2.93 -12.045 10.091 -21.322 21.485 -27.832c0 0 163.086 -94.239 163.086 -94.239c0 0 -163.086 -94.238 -163.086 -94.238c-11.394 -6.51 -18.718 -15.788 -21.973 -27.832c0 0 0 0 0 0" />
  </g>
</svg>