<svg height="1000px" width="928.5714285714286px" xmlns="http://www.w3.org/2000/svg">
  <g>
    <path d="M827.0089285714286 585.9375c17.113 9.673 28.181 24.089 33.203 43.248c5.022 19.159 2.697 37.295 -6.975 54.408c0 0 -35.715 61.384 -35.715 61.384c-9.672 17.113 -24.088 28.181 -43.247 33.203c-19.16 5.023 -37.296 2.697 -54.409 -6.975c0 0 -148.437 -85.38 -148.437 -85.38c0 0 0 171.317 0 171.317c0 19.346 -7.069 36.087 -21.206 50.224c-14.137 14.136 -30.878 21.205 -50.223 21.205c0 0 -71.428 0 -71.428 0c-19.346 0 -36.087 -7.069 -50.224 -21.205c-14.137 -14.137 -21.205 -30.878 -21.205 -50.224c0 0 0 -171.317 0 -171.317c0 0 -148.438 85.38 -148.438 85.38c-17.113 9.672 -35.249 11.998 -54.408 6.975c-19.159 -5.022 -33.575 -16.09 -43.248 -33.203c0 0 -35.714 -61.384 -35.714 -61.384c-9.673 -17.113 -11.998 -35.249 -6.976 -54.408c5.023 -19.159 16.09 -33.575 33.204 -43.248c0 0 148.437 -85.938 148.437 -85.938c0 0 -148.437 -85.937 -148.437 -85.937c-17.114 -9.673 -28.181 -24.089 -33.204 -43.248c-5.022 -19.159 -2.697 -37.295 6.976 -54.408c0 0 35.714 -61.384 35.714 -61.384c9.673 -17.113 24.089 -28.181 43.248 -33.203c19.159 -5.023 37.295 -2.697 54.408 6.975c0 0 148.438 85.38 148.438 85.38c0 0 0 -171.317 0 -171.317c0 -19.346 7.068 -36.087 21.205 -50.224c14.137 -14.136 30.878 -21.205 50.224 -21.205c0 0 71.428 0 71.428 0c19.345 0 36.086 7.069 50.223 21.205c14.137 14.137 21.206 30.878 21.206 50.224c0 0 0 171.317 0 171.317c0 0 148.437 -85.38 148.437 -85.38c17.113 -9.672 35.249 -11.998 54.409 -6.975c19.159 5.022 33.575 16.09 43.247 33.203c0 0 35.715 61.384 35.715 61.384c9.672 17.113 11.997 35.249 6.975 54.408c-5.022 19.159 -16.09 33.575 -33.203 43.248c0 0 -148.438 85.937 -148.438 85.937c0 0 148.438 85.938 148.438 85.938" />
  </g>
</svg>