<svg height="1000px" width="697px" xmlns="http://www.w3.org/2000/svg">
  <g>
    <path d="M1 378c-3.333 -12 -1.667 -23.667 5 -35c0 0 35 -61 35 -61c6.667 -11.333 16.167 -18.5 28.5 -21.5c12.333 -3 24.167 -1.5 35.5 4.5c0 0 162 94 162 94c0 0 0 -187 0 -187c0 -13.333 4.5 -24.5 13.5 -33.5c9 -9 20.167 -13.5 33.5 -13.5c0 0 69 0 69 0c13.333 0 24.5 4.5 33.5 13.5c9 9 13.5 19.833 13.5 32.5c0 0 0 188 0 188c0 0 162 -94 162 -94c11.333 -6 23.167 -7.5 35.5 -4.5c12.333 3 21.833 10.167 28.5 21.5c0 0 34 61 34 61c6.667 11.333 8.5 23 5.5 35c-3 12 -10.167 21.333 -21.5 28c0 0 -163 94 -163 94c0 0 163 94 163 94c11.333 6.667 18.5 16 21.5 28c3 12 1.5 23.667 -4.5 35c0 0 -35 61 -35 61c-6.667 11.333 -16.167 18.5 -28.5 21.5c-12.333 3 -24.167 1.5 -35.5 -4.5c0 0 -162 -94 -162 -94c0 0 0 187 0 187c0 13.333 -4.5 24.5 -13.5 33.5c-9 9 -20.167 13.5 -33.5 13.5c0 0 -69 0 -69 0c-13.333 0 -24.5 -4.5 -33.5 -13.5c-9 -9 -13.5 -19.833 -13.5 -32.5c0 0 0 -188 0 -188c0 0 -162 94 -162 94c-11.333 6.667 -23.167 8.333 -35.5 5c-12.333 -3.333 -21.833 -10.667 -28.5 -22c0 0 -35 -61 -35 -61c-6 -11.333 -7.5 -23 -4.5 -35c3 -12 10.167 -21.333 21.5 -28c0 0 163 -94 163 -94c0 0 -163 -94 -163 -94c-11.333 -6.667 -18.667 -16 -22 -28c0 0 0 0 0 0" />
  </g>
</svg>