<svg height="1000" width="928.6" xmlns="http://www.w3.org/2000/svg"><path d="M68.4 629.2q7.5-28.7 33.2-43.2l148.4-85.9-148.4-85.9q-25.7-14.5-33.2-43.2t7-54.4l35.7-61.4q14.5-25.7 43.2-33.2t54.4 7l148.4 85.4v-171.3q0-29 21.2-50.2t50.2-21.2h71.4q29 0 50.2 21.2t21.2 50.2v171.3l148.4-85.4q25.7-14.5 54.4-7t43.2 33.2l35.7 61.4q14.5 25.7 7 54.4t-33.2 43.2l-148.4 85.9 148.4 85.9q25.7 14.5 33.2 43.2t-7 54.4l-35.7 61.4q-14.5 25.7-43.2 33.2t-54.4-7l-148.4-85.4v171.3q0 29-21.2 50.2t-50.2 21.2h-71.4q-29 0-50.2-21.2t-21.2-50.2v-171.3l-148.4 85.4q-25.7 14.5-54.4 7t-43.2-33.2l-35.7-61.4q-14.5-25.7-7-54.4z"/></svg>