<svg height="1000" width="857.143" xmlns="http://www.w3.org/2000/svg"><path d="M542.376 432.514q0 -60.264 -29.853 -94.302t-82.305 -34.038q-35.154 0 -69.192 17.019t-61.38 47.151 -44.361 76.446 -17.019 100.44q0 62.496 29.853 96.534t83.979 34.038q53.568 0 98.208 -37.107t68.355 -92.628 23.715 -113.553zm314.712 67.518q0 61.938 -20.646 109.926t-54.963 75.33 -73.377 41.571 -80.91 15.345q-3.348 0 -8.649 .279t-9.207 .279q-53.01 0 -79.236 -29.574 -15.624 -18.414 -18.414 -46.314 -29.016 36.828 -73.377 61.38t-96.813 24.552q-89.838 0 -139.221 -53.289t-49.383 -150.381q0 -87.606 36.828 -161.82t99.882 -117.459 137.268 -43.245q48.546 0 86.49 19.809t59.148 55.521l1.116 -10.602 6.138 -31.248q.558 -3.348 3.069 -6.696t5.301 -3.348h65.844q2.79 0 7.254 6.138 2.79 2.79 1.674 8.928l-66.96 342.612q-2.79 13.392 -2.79 26.784 0 21.762 6.975 29.016t24.831 7.254q15.624 -.558 31.806 -3.069t40.734 -13.392 42.966 -27.9 31.806 -49.941 13.392 -76.446q0 -162.936 -97.092 -260.028t-260.028 -97.092q-72.54 0 -138.663 28.458t-113.832 76.167 -76.167 113.832 -28.458 138.663 28.458 138.663 76.167 113.832 113.832 76.167 138.663 28.458q127.224 0 225.99 -80.352 6.138 -5.022 13.392 -4.464t11.718 6.696l22.878 27.342q4.464 6.696 3.906 13.392 -1.116 7.254 -6.696 12.276 -56.916 46.314 -126.945 71.424t-144.243 25.11q-87.048 0 -166.284 -34.038t-136.71 -91.512 -91.512 -136.71 -34.038 -166.284 34.038 -166.284 91.512 -136.71 136.71 -91.512 166.284 -34.038q191.952 0 310.248 118.296t118.296 310.248z"/></svg>