<svg height="1000" width="857.1" xmlns="http://www.w3.org/2000/svg"><path d="M542.4 432.5q0 -60.3 -29.8 -94.3t-82.4 -34.1q-35.1 0 -69.2 17t-61.3 47.2 -44.4 76.5 -17 100.4q0 62.5 29.8 96.5t84 34.1q53.6 0 98.2 -37.1T518.7 546t23.7 -113.5zM857.1 500q0 61.9 -20.6 109.9t-55 75.4 -73.4 41.5 -80.9 15.4q-3.3 0 -8.6 .3t-9.2 .2q-53 0 -79.3 -29.5 -15.6 -18.4 -18.4 -46.3 -29 36.8 -73.4 61.3t-96.8 24.6q-89.8 0 -139.2 -53.3T152.9 549.1q0 -87.6 36.8 -161.8t99.9 -117.5 137.3 -43.2q48.5 0 86.5 19.8t59.1 55.5l1.2 -10.6 6.1 -31.3q.6 -3.3 3.1 -6.7t5.3 -3.3H654q2.8 0 7.3 6.1 2.8 2.8 1.6 9L596 607.7q-2.8 13.4 -2.8 26.8 0 21.8 7 29t24.8 7.3q15.6 -.6 31.8 -3.1t40.7 -13.4 43 -27.9 31.8 -49.9T785.7 500q0 -162.9 -97.1 -260t-260 -97.1q-72.6 0 -138.7 28.4t-113.8 76.2T99.9 361.3 71.4 500t28.5 138.7 76.2 113.8 113.8 76.2 138.7 28.4q127.2 0 226 -80.3 6.1 -5 13.4 -4.5t11.7 6.7l22.9 27.4q4.4 6.7 3.9 13.4 -1.1 7.2 -6.7 12.2 -56.9 46.3 -127 71.5t-144.2 25.1q-87.1 0 -166.3 -34.1T125.6 803 34 666.3 0 500 34 333.7 125.6 197t136.7 -91.5T428.6 71.4q191.9 0 310.2 118.3T857.1 500z"/></svg>