<svg height="1000" width="785.7" xmlns="http://www.w3.org/2000/svg"><path d="M2.2 286.3q0-88.7 61.4-150.7t150.1-61.9q88.2 0 152.3 63.1l337.6 338.1q5.6 5.6 5.6 12.3 0 8.9-17 25.9t-25.9 17q-7.3 0-12.8-5.6l-338.1-338.7q-44.1-43-101-43-59.1 0-99.9 41.9t-40.7 101q0 58.6 42.4 101l433 433.6q35.2 35.2 80.9 35.2 35.7 0 59.1-23.4t23.4-59.1q0-45.8-35.2-80.9l-324.2-324.2q-14.5-13.4-33.5-13.4-16.2 0-26.8 10.6t-10.6 26.8q0 17.9 14 32.9l228.8 228.8q5.6 5.6 5.6 12.3 0 8.9-17.3 26.2t-26.2 17.3q-6.7 0-12.3-5.6l-228.8-228.8q-35.2-34-35.2-83.1 0-45.8 31.8-77.6t77.6-31.8q49.1 0 83.1 35.2l324.2 324.2q55.8 54.7 55.8 131.1 0 65.3-44.1 109.4t-109.4 44.1q-75.3 0-131.1-55.8l-433.6-433q-63.1-64.2-63.1-151.2z"/></svg>