<svg height="1000" width="785.714" xmlns="http://www.w3.org/2000/svg"><path d="M783.432 772.894q0 65.286 -44.082 109.368t-109.368 44.082q-75.33 0 -131.13 -55.8l-433.566 -433.008q-63.054 -64.17 -63.054 -151.218 0 -88.722 61.38 -150.66t150.102 -61.938q88.164 0 152.334 63.054l337.59 338.148q5.58 5.58 5.58 12.276 0 8.928 -17.019 25.947t-25.947 17.019q-7.254 0 -12.834 -5.58l-338.148 -338.706q-44.082 -42.966 -100.998 -42.966 -59.148 0 -99.882 41.85t-40.734 100.998q0 58.59 42.408 100.998l433.008 433.566q35.154 35.154 80.91 35.154 35.712 0 59.148 -23.436t23.436 -59.148q0 -45.756 -35.154 -80.91l-324.198 -324.198q-14.508 -13.392 -33.48 -13.392 -16.182 0 -26.784 10.602t-10.602 26.784q0 17.856 13.95 32.922l228.78 228.78q5.58 5.58 5.58 12.276 0 8.928 -17.298 26.226t-26.226 17.298q-6.696 0 -12.276 -5.58l-228.78 -228.78q-35.154 -34.038 -35.154 -83.142 0 -45.756 31.806 -77.562t77.562 -31.806q49.104 0 83.142 35.154l324.198 324.198q55.8 54.684 55.8 131.13z"/></svg>