<svg height="1000px" width="785.7142857142858px" xmlns="http://www.w3.org/2000/svg">
  <g>
    <path d="M2.232142857142857 286.27232142857133c0 -59.152 20.461 -109.375 61.384 -150.67c40.923 -41.294 90.96 -61.942 150.112 -61.942c58.779 0 109.561 21.02 152.343 63.058c0 0 337.612 338.17 337.612 338.17c3.72 3.72 5.58 7.813 5.58 12.277c0 5.952 -5.673 14.602 -17.02 25.949c-11.347 11.346 -19.996 17.02 -25.949 17.02c-4.836 0 -9.114 -1.861 -12.834 -5.581c0 0 -338.17 -338.727 -338.17 -338.727c-29.39 -28.646 -63.058 -42.969 -101.004 -42.969c-39.435 0 -72.731 13.951 -99.889 41.853c-27.158 27.901 -40.736 61.569 -40.736 101.004c0 39.062 14.136 72.731 42.41 101.004c0 0 433.036 433.594 433.036 433.594c23.437 23.438 50.409 35.156 80.915 35.156c23.81 0 43.527 -7.812 59.152 -23.437c15.625 -15.625 23.437 -35.342 23.437 -59.152c0 -30.506 -11.718 -57.478 -35.156 -80.915c0 0 -324.219 -324.219 -324.219 -324.219c-9.672 -8.928 -20.833 -13.393 -33.482 -13.393c-10.788 0 -19.717 3.535 -26.785 10.603c-7.069 7.068 -10.603 15.997 -10.603 26.786c0 11.905 4.65 22.879 13.951 32.924c0 0 228.794 228.795 228.794 228.795c3.721 3.72 5.581 7.812 5.581 12.276c0 5.953 -5.767 14.695 -17.299 26.228c-11.533 11.533 -20.276 17.299 -26.228 17.299c-4.464 0 -8.557 -1.86 -12.277 -5.58c0 0 -228.794 -228.795 -228.794 -228.795c-23.438 -22.693 -35.157 -50.409 -35.157 -83.147c0 -30.506 10.603 -56.362 31.808 -77.567c21.206 -21.206 47.061 -31.808 77.567 -31.808c32.738 0 60.454 11.719 83.148 35.156c0 0 324.218 324.219 324.218 324.219c37.203 36.458 55.804 80.171 55.804 131.138c0 43.527 -14.695 79.985 -44.085 109.375c-29.39 29.39 -65.848 44.085 -109.375 44.085c-50.223 0 -93.936 -18.601 -131.138 -55.804c0 0 -433.594 -433.035 -433.594 -433.035c-42.039 -42.783 -63.058 -93.192 -63.058 -151.228c0 0 0 0 0 0" />
  </g>
</svg>