<svg height="1000px" width="785.7142857142858px" xmlns="http://www.w3.org/2000/svg">
  <g>
    <path d="M727.6785714285714 641.7410714285713c37.202 36.458 55.804 78.311 55.804 125.558c0 47.247 -14.695 85.566 -44.085 114.955c-29.39 29.39 -67.523 44.085 -114.398 44.085c-46.875 0 -88.913 -18.601 -126.116 -55.803c0 0 -433.593 -433.036 -433.593 -433.036c-42.039 -42.783 -63.058 -93.471 -63.058 -152.065c0 -58.594 20.461 -108.538 61.384 -149.832c40.922 -41.295 90.866 -61.942 149.832 -61.942c58.966 0 109.84 21.019 152.623 63.058c0 0 337.611 338.169 337.611 338.169c3.721 3.721 5.581 8.185 5.581 13.393c0 5.209 -5.674 13.486 -17.02 24.833c-11.347 11.346 -19.718 17.02 -25.112 17.02c-5.394 0 -9.952 -1.86 -13.672 -5.581c0 0 -338.169 -338.727 -338.169 -338.727c-29.39 -28.646 -63.43 -42.969 -102.121 -42.969c-38.69 0 -71.615 13.951 -98.772 41.853c-27.158 27.902 -40.737 61.477 -40.737 100.725c0 39.249 14.137 73.01 42.411 101.284c0 0 433.036 433.593 433.036 433.593c23.437 23.438 48.735 35.157 75.892 35.157c27.158 0 48.55 -7.813 64.175 -23.438c15.625 -15.625 23.437 -37.016 23.437 -64.174c0 -27.158 -11.719 -52.455 -35.156 -75.893c0 0 -324.219 -324.219 -324.219 -324.219c-9.673 -8.928 -20.368 -13.392 -32.087 -13.392c-11.719 0 -21.112 3.534 -28.181 10.602c-7.068 7.069 -10.603 16.276 -10.603 27.623c0 11.347 4.651 22.042 13.951 32.087c0 0 228.795 228.795 228.795 228.795c3.72 3.72 5.58 8.184 5.58 13.393c0 5.208 -5.766 13.578 -17.299 25.111c-11.532 11.533 -19.903 17.299 -25.111 17.299c-5.209 0 -9.673 -1.86 -13.393 -5.58c0 0 -228.795 -228.795 -228.795 -228.795c-23.437 -22.693 -35.156 -49.851 -35.156 -81.473c0 -31.622 10.603 -58.036 31.808 -79.241c21.205 -21.205 47.619 -31.808 79.241 -31.808c31.622 0 58.78 11.719 81.473 35.156c0 0 324.219 324.219 324.219 324.219" />
  </g>
</svg>