<svg height="1000px" width="785.7142857142858px" xmlns="http://www.w3.org/2000/svg">
  <g>
    <path d="M2.232142857142857 285.4352678571428c0 -58.594 20.461 -108.538 61.384 -149.833c40.923 -41.294 90.867 -61.942 149.833 -61.942c58.965 0 109.84 21.02 152.622 63.058c0 0 337.612 338.17 337.612 338.17c3.72 3.72 5.58 8.185 5.58 13.393c0 5.208 -5.673 13.486 -17.02 24.833c-11.347 11.346 -19.717 17.02 -25.111 17.02c-5.395 0 -9.952 -1.86 -13.672 -5.581c0 0 -338.17 -338.727 -338.17 -338.727c-29.39 -28.646 -63.43 -42.969 -102.121 -42.969c-38.69 0 -71.614 13.951 -98.772 41.853c-27.158 27.901 -40.736 61.476 -40.736 100.725c0 39.249 14.136 73.01 42.41 101.283c0 0 433.036 433.594 433.036 433.594c23.438 23.438 48.735 35.156 75.893 35.156c27.158 0 48.549 -7.812 64.174 -23.437c15.625 -15.625 23.437 -37.016 23.437 -64.174c0 -27.158 -11.718 -52.455 -35.156 -75.893c0 0 -324.219 -324.219 -324.219 -324.219c-9.672 -8.928 -20.368 -13.393 -32.087 -13.393c-11.718 0 -21.112 3.535 -28.18 10.603c-7.069 7.069 -10.603 16.276 -10.603 27.623c0 11.347 4.65 22.042 13.951 32.087c0 0 228.794 228.795 228.794 228.795c3.721 3.72 5.581 8.184 5.581 13.392c0 5.209 -5.767 13.579 -17.299 25.112c-11.533 11.533 -19.904 17.299 -25.112 17.299c-5.208 0 -9.673 -1.86 -13.393 -5.58c0 0 -228.794 -228.795 -228.794 -228.795c-23.438 -22.693 -35.157 -49.851 -35.157 -81.473c0 -31.622 10.603 -58.036 31.808 -79.241c21.206 -21.206 47.619 -31.808 79.241 -31.808c31.622 0 58.78 11.719 81.474 35.156c0 0 324.218 324.219 324.218 324.219c37.203 36.458 55.804 78.311 55.804 125.558c0 47.247 -14.695 85.565 -44.085 114.955c-29.39 29.39 -67.522 44.085 -114.397 44.085c-46.875 0 -88.914 -18.601 -126.116 -55.804c0 0 -433.594 -433.035 -433.594 -433.035c-42.039 -42.783 -63.058 -93.471 -63.058 -152.065c0 0 0 0 0 0" />
  </g>
</svg>