<svg height="1000" width="785.7" xmlns="http://www.w3.org/2000/svg"><path d="M783.5 772.9q0 65.3 -44.1 109.4t-109.4 44q-75.3 0 -131.1 -55.8L65.3 437.5Q2.2 373.3 2.2 286.3q0 -88.8 61.4 -150.7T213.7 73.7q88.2 0 152.4 63l337.6 338.2q5.6 5.6 5.6 12.3 0 8.9 -17.1 25.9t-25.9 17q-7.3 0 -12.8 -5.5L315.3 185.8q-44.1 -42.9 -101 -42.9 -59.2 0 -99.9 41.8t-40.7 101q0 58.6 42.4 101l433 433.6q35.2 35.2 80.9 35.2 35.7 0 59.2 -23.5t23.4 -59.1q0 -45.8 -35.1 -80.9L353.2 367.7q-14.5 -13.3 -33.4 -13.3 -16.2 0 -26.8 10.6t-10.6 26.7q0 17.9 13.9 33l228.8 228.8q5.6 5.5 5.6 12.2 0 9 -17.3 26.3t-26.2 17.3q-6.7 0 -12.3 -5.6L246.1 474.9q-35.2 -34.1 -35.2 -83.2 0 -45.7 31.8 -77.5t77.6 -31.8q49.1 0 83.2 35.1l324.2 324.2q55.8 54.7 55.8 131.2z"/></svg>