<svg height="1000" width="1002" xmlns="http://www.w3.org/2000/svg"><path d="M9.494 823.114l428.544-785.664q9.486-17.298 26.226-27.342t36.27-10.044 36.27 10.044 26.226 27.342l428.544 785.664q19.53 35.154-1.116 70.308-9.486 16.182-25.947 25.668t-35.433 9.486l-857.088 0q-18.972 0-35.433-9.486t-25.947-25.668q-20.646-35.154-1.116-70.308zm410.688-519.498l9.486 255.006q0 5.58 5.58 9.207t13.392 3.627l103.23 0q7.812 0 13.113-3.627t5.859-9.207l10.044-256.122q0-6.696-5.58-10.602-7.254-6.138-13.392-6.138l-122.76 0q-6.138 0-13.392 6.138-5.58 3.906-5.58 11.718zm8.928 463.698q0 7.812 5.301 13.113t12.555 5.301l107.136 0q7.254 0 12.555-5.301t5.301-13.113l0-106.02q0-7.812-5.301-13.113t-12.555-5.301l-107.136 0q-7.254 0-12.555 5.301t-5.301 13.113l0 106.02z"/></svg>