<svg height="1000" width="857.1" xmlns="http://www.w3.org/2000/svg"><path d="M0 500q0-116.6 57.5-215.1t156-156 215.1-57.5 215.1 57.5 156 156 57.5 215.1-57.5 215.1-156 156-215.1 57.5-215.1-57.5-156-156-57.5-215.1zm348.2-271.2l9.5 346.5q0 5.6 5.6 9.8t13.4 4.2h103.2q7.8 0 13.1-4.2t5.9-9.8l10-346.5q0-6.7-5.6-10-5.6-4.5-13.4-4.5h-122.8q-7.8 0-13.4 4.5-5.6 3.3-5.6 10zm8.9 538.5q0 7.3 5.6 12.8t12.8 5.6h107.1q7.3 0 12.3-5.3t5-13.1v-106q0-7.8-5-13.1t-12.3-5.3h-107.1q-7.3 0-12.8 5.6t-5.6 12.8v106z"/></svg>