<svg height="1000px" width="1000px" xmlns="http://www.w3.org/2000/svg">
  <g>
    <path d="M8.928571428571429 823.1026785714286c0 0 428.571 -785.714 428.571 -785.714c6.325 -11.533 15.067 -20.648 26.228 -27.344c11.161 -6.696 23.252 -10.045 36.272 -10.045c13.021 0 25.112 3.349 36.273 10.045c11.16 6.696 19.903 15.811 26.227 27.344c0 0 428.572 785.714 428.572 785.714c13.021 23.438 12.649 46.875 -1.116 70.313c-6.325 10.788 -14.974 19.345 -25.949 25.669c-10.975 6.325 -22.786 9.487 -35.435 9.487c0 0 -857.143 0 -857.143 0c-12.649 0 -24.461 -3.162 -35.435 -9.487c-10.975 -6.324 -19.625 -14.881 -25.949 -25.669c-13.765 -23.438 -14.137 -46.875 -1.116 -70.313c0 0 0 0 0 0m410.714 -519.531c0 0 9.487 255.022 9.487 255.022c0 3.72 1.86 6.79 5.58 9.208c3.72 2.418 8.185 3.627 13.393 3.627c0 0 103.237 0 103.237 0c5.208 0 9.579 -1.209 13.114 -3.627c3.534 -2.418 5.487 -5.488 5.859 -9.208c0 0 10.045 -256.138 10.045 -256.138c0 -4.465 -1.861 -7.999 -5.581 -10.603c-4.836 -4.092 -9.3 -6.138 -13.393 -6.138c0 0 -122.768 0 -122.768 0c-4.092 0 -8.556 2.046 -13.392 6.138c-3.721 2.604 -5.581 6.51 -5.581 11.719c0 0 0 0 0 0m8.929 463.727c0 5.209 1.767 9.58 5.301 13.114c3.534 3.534 7.72 5.302 12.556 5.302c0 0 107.143 0 107.143 0c4.836 0 9.021 -1.768 12.556 -5.302c3.534 -3.534 5.301 -7.905 5.301 -13.114c0 0 0 -106.026 0 -106.026c0 -5.209 -1.767 -9.58 -5.301 -13.114c-3.535 -3.534 -7.72 -5.302 -12.556 -5.302c0 0 -107.143 0 -107.143 0c-4.836 0 -9.022 1.768 -12.556 5.302c-3.534 3.534 -5.301 7.905 -5.301 13.114c0 0 0 106.026 0 106.026c0 0 0 0 0 0" />
  </g>
</svg>