<svg height="1000px" width="857.1428571428571px" xmlns="http://www.w3.org/2000/svg">
  <g>
    <path d="M498.8839285714286 575.3348214285713c0 0 10.045 -346.54 10.045 -346.54c0 -4.464 -1.86 -7.999 -5.581 -10.603c-3.72 -2.604 -8.184 -3.906 -13.393 -3.906c0 0 -122.767 0 -122.767 0c-5.209 0 -9.673 1.302 -13.393 3.906c-3.721 2.604 -5.581 6.139 -5.581 10.603c0 0 9.487 346.54 9.487 346.54c0 3.72 1.86 6.975 5.58 9.766c3.721 2.79 8.185 4.185 13.393 4.185c0 0 103.237 0 103.237 0c5.208 0 9.579 -1.395 13.114 -4.185c3.534 -2.791 5.487 -6.046 5.859 -9.766c0 0 0 0 0 0m1.116 191.964c0 0 0 -106.026 0 -106.026c0 -5.209 -1.674 -9.58 -5.022 -13.114c-3.348 -3.535 -7.441 -5.302 -12.277 -5.302c0 0 -107.143 0 -107.143 0c-4.836 0 -9.114 1.86 -12.835 5.581c-3.72 3.72 -5.58 7.998 -5.58 12.835c0 0 0 106.026 0 106.026c0 4.837 1.86 9.115 5.58 12.835c3.721 3.72 7.999 5.58 12.835 5.58c0 0 107.143 0 107.143 0c4.836 0 8.929 -1.767 12.277 -5.301c3.348 -3.534 5.022 -7.905 5.022 -13.114c0 0 0 0 0 0m-71.428 -695.87c77.752 0 149.46 19.159 215.122 57.477c65.662 38.319 117.653 90.309 155.971 155.971c38.319 65.663 57.478 137.37 57.478 215.123c0 77.753 -19.159 149.461 -57.478 215.123c-38.318 65.662 -90.309 117.652 -155.971 155.971c-65.662 38.318 -137.37 57.478 -215.123 57.478c-77.752 0 -149.46 -19.16 -215.122 -57.478c-65.662 -38.319 -117.653 -90.309 -155.971 -155.971c-38.319 -65.662 -57.478 -137.37 -57.478 -215.123c0 -77.753 19.159 -149.46 57.478 -215.123c38.318 -65.662 90.309 -117.652 155.971 -155.971c65.662 -38.318 137.37 -57.477 215.122 -57.477c0 0 0 0 0 0" />
  </g>
</svg>