<svg height="1000" width="857.143" xmlns="http://www.w3.org/2000/svg"><path d="M428.544 71.488q116.622 0 215.109 57.474t155.961 155.961 57.474 215.109 -57.474 215.109 -155.961 155.961 -215.109 57.474 -215.109 -57.474 -155.961 -155.961 -57.474 -215.109 57.474 -215.109 155.961 -155.961 215.109 -57.474zm71.424 695.826v-106.02q0 -7.812 -5.022 -13.113t-12.276 -5.301h-107.136q-7.254 0 -12.834 5.58t-5.58 12.834v106.02q0 7.254 5.58 12.834t12.834 5.58h107.136q7.254 0 12.276 -5.301t5.022 -13.113zm-1.116 -191.952l10.044 -346.518q0 -6.696 -5.58 -10.044 -5.58 -4.464 -13.392 -4.464h-122.76q-7.812 0 -13.392 4.464 -5.58 3.348 -5.58 10.044l9.486 346.518q0 5.58 5.58 9.765t13.392 4.185h103.23q7.812 0 13.113 -4.185t5.859 -9.765z"/></svg>