<svg height="1000px" width="857.1428571428571px" xmlns="http://www.w3.org/2000/svg">
  <g>
    <path d="M0 499.99999999999994c0 -77.753 19.159 -149.461 57.478 -215.123c38.318 -65.662 90.308 -117.652 155.971 -155.971c65.662 -38.318 137.369 -57.477 215.122 -57.477c77.753 0 149.461 19.159 215.123 57.477c65.662 38.319 117.653 90.309 155.971 155.971c38.319 65.662 57.478 137.37 57.478 215.123c0 77.753 -19.159 149.461 -57.478 215.123c-38.318 65.662 -90.309 117.652 -155.971 155.971c-65.662 38.318 -137.37 57.477 -215.123 57.477c-77.753 0 -149.46 -19.159 -215.122 -57.477c-65.663 -38.319 -117.653 -90.309 -155.971 -155.971c-38.319 -65.662 -57.478 -137.37 -57.478 -215.123c0 0 0 0 0 0m348.214 -271.205c0 0 9.487 346.54 9.487 346.54c0 3.72 1.86 6.975 5.58 9.765c3.72 2.791 8.185 4.186 13.393 4.186c0 0 103.237 0 103.237 0c5.208 0 9.579 -1.395 13.114 -4.186c3.534 -2.79 5.487 -6.045 5.859 -9.765c0 0 10.045 -346.54 10.045 -346.54c0 -4.465 -1.861 -7.813 -5.581 -10.045c-3.72 -2.976 -8.184 -4.464 -13.393 -4.464c0 0 -122.767 0 -122.767 0c-5.209 0 -9.673 1.488 -13.393 4.464c-3.721 2.232 -5.581 5.58 -5.581 10.045c0 0 0 0 0 0m8.929 538.504c0 4.836 1.86 9.115 5.58 12.835c3.72 3.72 7.999 5.58 12.835 5.58c0 0 107.143 0 107.143 0c4.836 0 8.928 -1.767 12.277 -5.301c3.348 -3.534 5.022 -7.906 5.022 -13.114c0 0 0 -106.027 0 -106.027c0 -5.208 -1.674 -9.579 -5.022 -13.114c-3.349 -3.534 -7.441 -5.301 -12.277 -5.301c0 0 -107.143 0 -107.143 0c-4.836 0 -9.115 1.86 -12.835 5.581c-3.72 3.72 -5.58 7.998 -5.58 12.834c0 0 0 106.027 0 106.027c0 0 0 0 0 0" />
  </g>
</svg>