<svg height="1000px" width="1000px" xmlns="http://www.w3.org/2000/svg">
  <g>
    <path d="M500 0c27.902 0 48.735 12.463 62.5 37.388c0 0 428.571 785.715 428.571 785.715c13.021 23.437 12.649 46.875 -1.116 70.312c-13.765 23.438 -34.226 35.156 -61.384 35.156c0 0 -857.142 0 -857.142 0c-27.158 0 -47.619 -11.718 -61.384 -35.156c-13.765 -23.437 -14.137 -46.875 -1.116 -70.312c0 0 428.571 -785.715 428.571 -785.715c13.765 -24.925 34.598 -37.388 62.5 -37.388c0 0 0 0 0 0m51.339 571.429c11.905 0 18.229 -4.279 18.974 -12.835c0 0 10.044 -256.139 10.044 -256.139c0 -4.464 -2.139 -8.37 -6.417 -11.718c-4.279 -3.349 -8.464 -5.023 -12.556 -5.023c0 0 -122.768 0 -122.768 0c-4.092 0 -8.277 1.674 -12.556 5.023c-4.278 3.348 -6.417 7.626 -6.417 12.834c0 0 9.486 255.023 9.486 255.023c0 3.72 1.861 6.789 5.581 9.207c3.72 2.418 8.184 3.628 13.393 3.628c0 0 103.236 0 103.236 0c0 0 0 0 0 0m20.09 195.87c0 0 0 -106.027 0 -106.027c0 -5.208 -1.768 -9.579 -5.302 -13.114c-3.534 -3.534 -7.719 -5.301 -12.556 -5.301c0 0 -107.142 0 -107.142 0c-4.837 0 -9.022 1.767 -12.556 5.301c-3.534 3.535 -5.302 7.906 -5.302 13.114c0 0 0 106.027 0 106.027c0 5.208 1.768 9.58 5.302 13.114c3.534 3.534 7.719 5.301 12.556 5.301c0 0 107.142 0 107.142 0c4.837 0 9.022 -1.767 12.556 -5.301c3.534 -3.534 5.302 -7.906 5.302 -13.114c0 0 0 0 0 0" />
  </g>
</svg>