<svg height="1000px" width="850px" xmlns="http://www.w3.org/2000/svg">
  <g>
    <path d="M5 851.5c-9.333 -15.667 -7.333 -34.5 6 -56.5c0 0 368 -637 368 -637c12 -22 27.333 -33 46 -33c17.333 0 32.667 11 46 33c0 0 368 637 368 637c12.667 22 14.5 40.833 5.5 56.5c-9 15.667 -26.167 23.5 -51.5 23.5c0 0 -736 0 -736 0c-25.333 0 -42.667 -7.833 -52 -23.5c0 0 0 0 0 0m155 -89.5c0 0 530 0 530 0c0 0 -265 -459 -265 -459c0 0 -265 459 -265 459m210 -321c0 -4 1.333 -7.333 4 -10c2.667 -2.667 5.667 -4 9 -4c0 0 84 0 84 0c3.333 0 6.333 1.333 9 4c2.667 2.667 4 6 4 10c0 0 -7 182 -7 182c0 8 -4.333 12 -13 12c0 0 -70 0 -70 0c-8.667 0 -13 -4 -13 -12c0 0 -7 -182 -7 -182m2 245c0 -8.667 4.333 -13 13 -13c0 0 78 0 78 0c8.667 0 13 4.333 13 13c0 0 1 49 1 49c0 8.667 -4.333 13 -13 13c0 0 -78 0 -78 0c-8.667 0 -13 -4.333 -13 -13c0 0 -1 -49 -1 -49" />
  </g>
</svg>