<svg height="1000" width="1000" xmlns="http://www.w3.org/2000/svg"><path d="M571.4 767.3v-106q0 -7.8 -5.3 -13.1t-12.5 -5.3H446.4q-7.2 0 -12.5 5.3t-5.3 13.1v106q0 7.8 5.3 13.1t12.5 5.3h107.2q7.2 0 12.5 -5.3t5.3 -13.1zm-1.1 -208.7l10.1 -256.1q0 -6.7 -5.6 -10.6 -7.3 -6.2 -13.4 -6.2H438.6q-6.1 0 -13.4 6.2 -5.6 3.9 -5.6 11.7l9.5 255q0 5.6 5.6 9.2t13.4 3.6h103.2q7.9 0 13.2 -3.6t5.8 -9.2zM562.5 37.4l428.6 785.7q19.5 35.2 -1.1 70.3 -9.5 16.2 -26 25.7t-35.4 9.5H71.4q-18.9 0 -35.4 -9.5T10 893.4Q-10.6 858.3 8.9 823.1L437.5 37.4Q447 20.1 463.7 10T500 0t36.3 10 26.2 27.4z"/></svg>