<svg height="1000px" width="866.69921875px" xmlns="http://www.w3.org/2000/svg">
  <g>
    <path d="M0 837.646484375c0 -6.51 0.977 -12.858 2.93 -19.043c1.953 -6.185 4.72 -11.881 8.3 -17.09c0 0 375 -649.902 375 -649.902c5.209 -8.789 11.638 -16.683 19.288 -23.682c7.649 -6.998 16.845 -10.498 27.587 -10.498c10.743 0 19.939 3.5 27.588 10.498c7.65 6.999 14.079 14.893 19.287 23.682c0 0 375.977 649.902 375.977 649.902c3.255 5.209 5.941 10.824 8.057 16.846c2.116 6.022 3.173 12.451 3.173 19.287c0 15.951 -6.184 27.425 -18.554 34.424c-12.37 6.999 -25.554 10.498 -39.551 10.498c0 0 -750.977 0 -750.977 0c-13.997 0 -27.181 -3.499 -39.55 -10.498c-12.37 -6.999 -18.555 -18.473 -18.555 -34.424c0 0 0 0 0 0m375.977 -499.023c0 0 5.859 309.082 5.859 309.082c0 4.557 1.709 8.545 5.127 11.962c3.418 3.418 7.405 5.127 11.963 5.127c0 0 67.871 0 67.871 0c4.557 0 8.545 -1.709 11.963 -5.127c3.418 -3.417 5.127 -7.405 5.127 -11.962c0 0 7.324 -309.082 7.324 -309.082c0 -4.558 -1.709 -8.545 -5.127 -11.963c-3.418 -3.418 -7.406 -5.127 -11.963 -5.127c0 0 -81.055 0 -81.055 0c-5.208 0 -9.358 1.709 -12.451 5.127c-3.092 3.418 -4.638 7.405 -4.638 11.963c0 0 0 0 0 0m2.929 461.914c0 5.208 1.709 9.358 5.127 12.451c3.418 3.092 7.406 4.638 11.963 4.638c0 0 75.195 0 75.195 0c11.394 0 16.927 -5.696 16.602 -17.089c0 0 0 -71.778 0 -71.778c0 -5.208 -1.465 -9.521 -4.395 -12.939c-2.929 -3.418 -6.998 -5.127 -12.207 -5.127c0 0 -75.195 0 -75.195 0c-4.557 0 -8.545 1.627 -11.963 4.883c-3.418 3.255 -5.127 7.649 -5.127 13.183c0 0 0 71.778 0 71.778c0 0 0 0 0 0" />
  </g>
</svg>