<svg height="1000" width="857.1" xmlns="http://www.w3.org/2000/svg"><path d="M428.6 71.4q116.6 0 215.1 57.5t156 156T857.1 500t-57.4 215.1 -156 156 -215.1 57.5T213.4 871.1 57.5 715.1 0 500 57.5 284.9t155.9 -156T428.6 71.4zM500 767.3v-106q0 -7.8 -5 -13.1t-12.3 -5.3H375.6q-7.3 0 -12.9 5.5t-5.6 12.9v106q0 7.3 5.6 12.8t12.9 5.6h107.1q7.3 0 12.3 -5.3t5 -13.1zm-1.1 -192l10 -346.5q0 -6.7 -5.6 -10 -5.5 -4.5 -13.3 -4.5H367.2q-7.8 0 -13.4 4.5 -5.6 3.3 -5.6 10l9.5 346.5q0 5.6 5.6 9.8t13.4 4.2h103.2q7.8 0 13.1 -4.2t5.9 -9.8z"/></svg>