<svg height="1000" width="1000" xmlns="http://www.w3.org/2000/svg"><path d="M8.9 823.1l428.5-785.7q9.5-17.3 26.2-27.3t36.3-10 36.3 10 26.2 27.3l428.5 785.7q19.5 35.2-1.1 70.3-9.5 16.2-25.9 25.7t-35.4 9.5h-857.1q-19 0-35.4-9.5t-25.9-25.7q-20.6-35.2-1.1-70.3zm410.7-519.5l9.5 255q0 5.6 5.6 9.2t13.4 3.6h103.2q7.8 0 13.1-3.6t5.9-9.2l10-256.1q0-6.7-5.6-10.6-7.3-6.1-13.4-6.1h-122.8q-6.1 0-13.4 6.1-5.6 3.9-5.6 11.7zm8.9 463.7q0 7.8 5.3 13.1t12.6 5.3h107.1q7.3 0 12.6-5.3t5.3-13.1v-106q0-7.8-5.3-13.1t-12.6-5.3h-107.1q-7.3 0-12.6 5.3t-5.3 13.1v106z"/></svg>