<svg height="1000px" width="779.78515625px" xmlns="http://www.w3.org/2000/svg">
  <g>
    <path d="M0 500c0 -54.036 10.173 -104.736 30.518 -152.1c20.345 -47.363 48.177 -88.704 83.496 -124.023c35.319 -35.319 76.66 -63.151 124.023 -83.496c47.363 -20.345 98.063 -30.518 152.1 -30.518c54.036 0 104.655 10.173 151.855 30.518c47.201 20.345 88.542 48.177 124.024 83.496c35.481 35.319 63.313 76.66 83.496 124.023c20.182 47.364 30.273 98.064 30.273 152.1c0 54.036 -10.091 104.736 -30.273 152.1c-20.183 47.363 -48.015 88.704 -83.496 124.023c-35.482 35.319 -76.823 63.151 -124.024 83.496c-47.2 20.345 -97.819 30.518 -151.855 30.518c-54.037 0 -104.737 -10.173 -152.1 -30.518c-47.363 -20.345 -88.704 -48.177 -124.023 -83.496c-35.319 -35.319 -63.151 -76.66 -83.496 -124.023c-20.345 -47.364 -30.518 -98.064 -30.518 -152.1c0 0 0 0 0 0m328.125 -247.07c0 0 6.836 360.84 6.836 360.84c1.302 9.44 6.348 14.16 15.137 14.16c0 0 79.101 0 79.101 0c3.906 0 7.324 -1.302 10.254 -3.907c2.93 -2.604 4.395 -6.022 4.395 -10.253c0 0 8.3 -360.84 8.3 -360.84c0 -3.256 -1.302 -6.836 -3.906 -10.742c-2.604 -2.605 -6.347 -4.07 -11.23 -4.395c0 0 -94.239 0 -94.239 0c-4.557 0 -8.138 1.465 -10.742 4.395c-2.604 3.906 -3.906 7.486 -3.906 10.742c0 0 0 0 0 0m3.906 506.836c0 3.906 1.302 7.405 3.907 10.498c2.604 3.092 6.022 4.638 10.253 4.638c0 0 87.891 0 87.891 0c3.906 0 7.406 -1.464 10.498 -4.394c3.093 -2.93 4.639 -6.511 4.639 -10.742c0 0 0 -84.961 0 -84.961c0 -3.907 -1.546 -7.325 -4.639 -10.254c-3.092 -2.93 -6.592 -4.395 -10.498 -4.395c0 0 -87.891 0 -87.891 0c-3.906 0 -7.242 1.465 -10.009 4.395c-2.767 2.929 -4.151 6.347 -4.151 10.254c0 0 0 84.961 0 84.961c0 0 0 0 0 0" />
  </g>
</svg>