<svg height="1000px" width="1000px" xmlns="http://www.w3.org/2000/svg">
  <g>
    <path d="M-0.5657868303571428 857.2823660714286c0 -11.393 3.165 -22.786 9.494 -34.18c0 0 428.572 -785.714 428.572 -785.714c13.765 -24.926 34.598 -37.388 62.5 -37.388c27.902 0 48.735 12.462 62.5 37.388c0 0 428.571 785.714 428.571 785.714c6.33 11.394 9.495 22.787 9.495 34.18c0 12.044 -3.537 24.089 -10.611 36.133c-13.765 23.437 -34.226 35.156 -61.384 35.156c0 0 -857.143 0 -857.143 0c-27.157 0 -47.619 -11.719 -61.384 -35.156c-7.073 -12.044 -10.61 -24.089 -10.61 -36.133c0 0 0 0 0 0m420.209 -553.711c0 0 9.486 255.022 9.486 255.022c0 3.721 1.86 6.79 5.581 9.208c3.72 2.418 8.184 3.627 13.392 3.627c0 0 103.237 0 103.237 0c11.905 0 18.229 -4.278 18.973 -12.835c0 0 10.045 -256.138 10.045 -256.138c0 -4.464 -2.139 -8.371 -6.417 -11.719c-4.279 -3.348 -8.464 -5.022 -12.556 -5.022c0 0 -122.768 0 -122.768 0c-4.092 0 -8.278 1.674 -12.556 5.022c-4.278 3.348 -6.417 7.627 -6.417 12.835c0 0 0 0 0 0m8.928 463.728c0 5.208 1.767 9.579 5.302 13.114c3.534 3.534 7.719 5.301 12.555 5.301c0 0 107.143 0 107.143 0c4.837 0 9.022 -1.767 12.556 -5.301c3.534 -3.535 5.301 -7.906 5.301 -13.114c0 0 0 -106.027 0 -106.027c0 -5.208 -1.767 -9.58 -5.301 -13.114c-3.534 -3.534 -7.719 -5.301 -12.556 -5.301c0 0 -107.143 0 -107.143 0c-4.836 0 -9.021 1.767 -12.555 5.301c-3.535 3.534 -5.302 7.906 -5.302 13.114c0 0 0 106.027 0 106.027c0 0 0 0 0 0" />
  </g>
</svg>