<svg height="1000px" width="750px" xmlns="http://www.w3.org/2000/svg">
  <g>
    <path d="M0 500c0 -52 9.833 -100.667 29.5 -146c19.667 -45.333 46.5 -85 80.5 -119c34 -34 73.667 -60.833 119 -80.5c45.333 -19.667 94 -29.5 146 -29.5c52 0 100.667 9.833 146 29.5c45.333 19.667 85 46.5 119 80.5c34 34 60.833 73.667 80.5 119c19.667 45.333 29.5 94 29.5 146c0 52 -9.833 100.667 -29.5 146c-19.667 45.333 -46.5 85 -80.5 119c-34 34 -73.667 60.833 -119 80.5c-45.333 19.667 -94 29.5 -146 29.5c-52 0 -100.667 -9.833 -146 -29.5c-45.333 -19.667 -85 -46.5 -119 -80.5c-34 -34 -60.833 -73.667 -80.5 -119c-19.667 -45.333 -29.5 -94 -29.5 -146c0 0 0 0 0 0m316 -238c0 0 6 347 6 347c1.333 9.333 6.333 14 15 14c0 0 76 0 76 0c9.333 0 14 -4.667 14 -14c0 0 7 -347 7 -347c0.667 -3.333 -0.667 -6.667 -4 -10c-2 -2.667 -5.333 -4 -10 -4c0 0 -90 0 -90 0c-4.667 0 -8 1.333 -10 4c-2.667 2.667 -4 6 -4 10c0 0 0 0 0 0m3 488c0 9.333 4.667 14 14 14c0 0 85 0 85 0c3.333 0 6.5 -1.333 9.5 -4c3 -2.667 4.5 -6 4.5 -10c0 0 0 -82 0 -82c0 -4 -1.5 -7.333 -4.5 -10c-3 -2.667 -6.167 -4 -9.5 -4c0 0 -85 0 -85 0c-9.333 0 -14 4.667 -14 14c0 0 0 82 0 82c0 0 0 0 0 0" />
  </g>
</svg>