<svg height="1000" width="858" xmlns="http://www.w3.org/2000/svg"><path d="M0 500.032q0-116.622 57.474-215.109t155.961-155.961 215.109-57.474 215.109 57.474 155.961 155.961 57.474 215.109-57.474 215.109-155.961 155.961-215.109 57.474-215.109-57.474-155.961-155.961-57.474-215.109zm348.192-271.188l9.486 346.518q0 5.58 5.58 9.765t13.392 4.185l103.23 0q7.812 0 13.113-4.185t5.859-9.765l10.044-346.518q0-6.696-5.58-10.044-5.58-4.464-13.392-4.464l-122.76 0q-7.812 0-13.392 4.464-5.58 3.348-5.58 10.044zm8.928 538.47q0 7.254 5.58 12.834t12.834 5.58l107.136 0q7.254 0 12.276-5.301t5.022-13.113l0-106.02q0-7.812-5.022-13.113t-12.276-5.301l-107.136 0q-7.254 0-12.834 5.58t-5.58 12.834l0 106.02z"/></svg>