<svg height="1000" width="1000" xmlns="http://www.w3.org/2000/svg"><path d="M571.392 767.314v-106.02q0 -7.812 -5.301 -13.113t-12.555 -5.301h-107.136q-7.254 0 -12.555 5.301t-5.301 13.113v106.02q0 7.812 5.301 13.113t12.555 5.301h107.136q7.254 0 12.555 -5.301t5.301 -13.113zm-1.116 -208.692l10.044 -256.122q0 -6.696 -5.58 -10.602 -7.254 -6.138 -13.392 -6.138h-122.76q-6.138 0 -13.392 6.138 -5.58 3.906 -5.58 11.718l9.486 255.006q0 5.58 5.58 9.207t13.392 3.627h103.23q7.812 0 13.113 -3.627t5.859 -9.207zm-7.812 -521.172l428.544 785.664q19.53 35.154 -1.116 70.308 -9.486 16.182 -25.947 25.668t-35.433 9.486h-857.088q-18.972 0 -35.433 -9.486t-25.947 -25.668q-20.646 -35.154 -1.116 -70.308l428.544 -785.664q9.486 -17.298 26.226 -27.342t36.27 -10.044 36.27 10.044 26.226 27.342z"/></svg>