<svg height="1000" width="357.143" xmlns="http://www.w3.org/2000/svg"><path d="M285.696 696.448v124.992q0 14.508 -10.602 25.11t-25.11 10.602h-142.848q-14.508 0 -25.11 -10.602t-10.602 -25.11v-124.992q0 -14.508 10.602 -25.11t25.11 -10.602h142.848q14.508 0 25.11 10.602t10.602 25.11zm16.74 -589.248l-15.624 428.544q-.558 14.508 -11.439 25.11t-25.389 10.602h-142.848q-14.508 0 -25.389 -10.602t-11.439 -25.11l-15.624 -428.544q-.558 -14.508 9.765 -25.11t24.831 -10.602h178.56q14.508 0 24.831 10.602t9.765 25.11z"/></svg>