<svg height="1000" width="1285.7" xmlns="http://www.w3.org/2000/svg"><path d="M281.3 554.7h95.4l-.6 -147.9zm572.5 -55.3q0 -48.5 -28.2 -78.1t-81.7 -29.6h-30.2v216.6h29q50.8 0 81 -31.8t30.1 -77.1zM533.5 289.1l.5 421.8q0 7.9 -5.3 13.4t-13.1 5.6H395.1q-7.8 0 -13.1 -5.6t-5.3 -13.4v-34.6H214.3l-30.7 45.2q-5.6 8.4 -15.6 8.4H19q-11.7 0 -17 -10t1.9 -19.6L314.2 277.9q5 -7.8 15 -7.8h185.3q7.8 0 13.4 5.6t5.6 13.4zM995 499.4q0 107.7 -70.1 169.1t-181 61.4H593.2q-7.8 0 -13.4 -5.6t-5.6 -13.4V289.1q0 -7.8 5.6 -13.4t13.4 -5.6h149.5q111.7 0 182 60.8T995 499.4zm87 .6q0 6.1 -.2 16.2t-4.5 39.9 -12 56.9 -24.8 60.3 -41.1 57.2H971q21.2 -25.1 37.1 -58.3t23.2 -62.5T1043 555t5 -40.5l.5 -15.1q0 -4.4 -.2 -12.5t-4.2 -33.5 -11.2 -51.1T1010 340.1t-36.8 -69.5h24q22.9 26.3 40.2 59.8t25.4 62.2 12.8 53.5 5.9 39.4zm102.7 0q0 6.1 -.3 16.2t-4.4 39.9 -12 56.9 -25.1 60.3 -41.3 57.2h-28.5q21.2 -25.1 37.1 -58.3t23.2 -62.5 11.7 -54.7 5 -40.5l.6 -15.1q0 -4.4 -.3 -12.5t-4.2 -33.5 -10.9 -51.1 -22.6 -62.2 -36.8 -69.5h24q22.9 26.3 40.2 59.8t25.4 62.2 12.8 53.5 5.9 39.4zm101 0q0 6.1 -.3 16.2t-4.4 39.9 -12 56.9 -24.9 60.3 -41 57.2h-28.4q21.2 -25.1 36.8 -58.3t22.9 -62.5 11.7 -54.7 5 -40.5l.6 -15.1q0 -4.4 -.3 -12.5t-4.2 -33.5 -10.9 -51.1 -22.6 -62.2 -36.8 -69.5h24q22.9 26.3 40.2 59.8t25.4 62.2 12.8 53.5 5.3 39.4z"/></svg>