<svg height="1000" width="928.6" xmlns="http://www.w3.org/2000/svg"><path d="M255.6 492.7q-41.3 -90.4 -41.3 -207H71.4v53.6q0 43.5 52.8 90.4t131.4 63zM857.1 339.3v-53.6H714.3q0 116.6 -41.3 207 78.7 -16.1 131.4 -63t52.7 -90.4zm71.5 -71.4v71.4q0 39.6 -23.2 79.8t-62.5 72.5T746.4 546t-120.3 24.9q-23.4 30.1 -53 53 -21.2 19 -29.3 40.4t-8.1 50q0 30.1 17 50.8t54.4 20.6q41.9 0 74.5 25.4t32.7 63.9v35.7q0 7.8 -5 12.8t-12.9 5.1H232.1q-7.8 0 -12.8 -5.1t-5 -12.8V875q0 -38.5 32.6 -63.9t74.5 -25.4q37.4 0 54.4 -20.6t17.1 -50.8q0 -28.5 -8.1 -50t-29.3 -40.4q-29.6 -22.9 -53 -53Q239.4 568.1 182.2 546T85.7 491.6 23.2 419.1 0 339.3v-71.4q0 -22.4 15.6 -38t38 -15.6h160.7v-53.6q0 -36.8 26.2 -63t63.1 -26.3H625q36.8 0 63.1 26.3t26.2 63v53.6H875q22.3 0 37.9 15.6t15.7 38z"/></svg>