<svg height="1000px" width="928.5714285714286px" xmlns="http://www.w3.org/2000/svg">
  <g>
    <path d="M928.5714285714286 267.8571428571428c0 0 0 71.429 0 71.429c0 26.413 -7.719 53.013 -23.158 79.799c-15.439 26.785 -36.273 50.967 -62.5 72.544c-26.228 21.578 -58.408 39.714 -96.541 54.409c-38.132 14.695 -78.218 22.972 -120.256 24.832c-15.625 20.09 -33.296 37.761 -53.014 53.014c-24.925 22.321 -37.388 52.455 -37.388 90.402c0 20.089 5.673 37.016 17.02 50.781c11.347 13.765 30.227 20.647 56.641 20.647c26.413 0 50.502 8.464 72.265 25.391c21.764 16.927 32.645 38.225 32.645 63.895c0 0 0 35.714 0 35.714c0 5.208 -1.674 9.487 -5.022 12.835c-3.348 3.348 -7.627 5.022 -12.835 5.022c0 0 -464.286 0 -464.286 0c-5.208 0 -9.486 -1.674 -12.834 -5.022c-3.349 -3.348 -5.023 -7.627 -5.023 -12.835c0 0 0 -35.714 0 -35.714c0 -25.67 10.882 -46.968 32.645 -63.895c21.764 -16.927 45.852 -25.391 72.266 -25.391c26.414 0 45.294 -6.882 56.641 -20.647c11.346 -13.765 17.02 -30.32 17.02 -49.665c0 -38.691 -12.463 -69.197 -37.389 -91.518c-19.717 -15.253 -37.388 -32.924 -53.013 -53.014c-42.039 -1.86 -82.124 -10.137 -120.257 -24.832c-38.132 -14.695 -70.312 -32.831 -96.54 -54.409c-26.228 -21.577 -47.061 -45.759 -62.5 -72.544c-15.439 -26.786 -23.158 -53.386 -23.158 -79.799c0 0 0 -71.429 0 -71.429c0 -14.881 5.208 -27.53 15.625 -37.946c10.416 -10.417 23.065 -15.625 37.946 -15.625c0 0 160.714 0 160.714 0c0 0 0 -53.572 0 -53.572c0 -24.553 8.743 -45.573 26.228 -63.058c17.485 -17.485 38.504 -26.228 63.058 -26.228c0 0 321.429 0 321.429 0c24.553 0 45.572 8.743 63.058 26.228c17.485 17.485 26.227 38.505 26.227 63.058c0 0 0 53.572 0 53.572c0 0 160.715 0 160.715 0c14.881 0 27.529 5.208 37.946 15.625c10.417 10.416 15.625 23.065 15.625 37.946c0 0 0 0 0 0m-71.429 71.429c0 0 0 -53.572 0 -53.572c0 0 -142.857 0 -142.857 0c0 77.753 -13.765 146.764 -41.294 207.031c52.455 -10.788 96.261 -31.808 131.417 -63.058c35.156 -31.25 52.734 -61.384 52.734 -90.401c0 0 0 0 0 0m-601.562 153.459c-27.53 -60.267 -41.295 -129.278 -41.295 -207.031c0 0 -142.857 0 -142.857 0c0 0 0 53.572 0 53.572c0 29.017 17.578 59.151 52.735 90.401c35.156 31.25 78.962 52.27 131.417 63.058c0 0 0 0 0 0" />
  </g>
</svg>