<svg height="1000px" width="825px" xmlns="http://www.w3.org/2000/svg">
  <g>
    <path d="M0 366c0 0 0 -91 0 -91c0 -10.667 3.667 -19.5 11 -26.5c7.333 -7 16.333 -10.5 27 -10.5c0 0 158 0 158 0c-0.667 -4 -1 -8.333 -1 -13c0 0 0 -11 0 -11c0 0 0 -2 0 -2c0 -17.333 0.667 -31.667 2 -43c1.333 -11.333 3.833 -20.167 7.5 -26.5c3.667 -6.333 8.833 -10.833 15.5 -13.5c6.667 -2.667 15.667 -4 27 -4c0 0 331 0 331 0c10.667 0 19.5 1.333 26.5 4c7 2.667 12.333 7.167 16 13.5c3.667 6.333 6.167 15.167 7.5 26.5c1.333 11.333 2 25.667 2 43c0 0 0 13 0 13c0 4 -0.333 8.333 -1 13c0 0 158 0 158 0c10.667 0 19.667 3.5 27 10.5c7.333 7 11 15.833 11 26.5c0 0 0 91 0 91c0 20.667 -7.333 42 -22 64c-14.667 22 -34.5 42.833 -59.5 62.5c-25 19.667 -54.333 37 -88 52c-33.667 15 -69.833 25.5 -108.5 31.5c-16.667 3.333 -31.5 10.167 -44.5 20.5c-13 10.333 -19.5 21.833 -19.5 34.5c0 11.333 2.833 19.667 8.5 25c5.667 5.333 12 10.333 19 15c7 4.667 13.5 9.833 19.5 15.5c6 5.667 9.667 14.167 11 25.5c1.333 7.333 1 15 -1 23c-1.333 4.667 2.5 8.5 11.5 11.5c9 3 20 6 33 9c13 3 26.333 6.667 40 11c13.667 4.333 24.167 9.833 31.5 16.5c4 3.333 7.167 9.833 9.5 19.5c2.333 9.667 3.833 20.167 4.5 31.5c0.667 10.667 -0.333 20.167 -3 28.5c-2.667 8.333 -7.333 12.5 -14 12.5c0 0 -481 0 -481 0c-6.667 0 -11.333 -4.167 -14 -12.5c-2.667 -8.333 -3.667 -17.833 -3 -28.5c0.667 -11.333 2.167 -21.833 4.5 -31.5c2.333 -9.667 5.5 -16.167 9.5 -19.5c7.333 -6.667 17.667 -12.167 31 -16.5c13.333 -4.333 26.5 -8 39.5 -11c13 -3 24.167 -6 33.5 -9c9.333 -3 13.333 -6.833 12 -11.5c-1.333 -4.667 -2 -8.667 -2 -12c0 0 0 -11 0 -11c0.667 -11.333 4.167 -19.833 10.5 -25.5c6.333 -5.667 13.167 -10.833 20.5 -15.5c7.333 -4.667 13.833 -9.667 19.5 -15c5.667 -5.333 8.5 -13.667 8.5 -25c0 -12.667 -6.5 -24.167 -19.5 -34.5c-13 -10.333 -28.167 -17.167 -45.5 -20.5c-38 -6.667 -73.833 -17.5 -107.5 -32.5c-33.667 -15 -63 -32.167 -88 -51.5c-25 -19.333 -44.833 -40 -59.5 -62c-14.667 -22 -22 -43.333 -22 -64c0 0 0 0 0 0m75 0c0 6.667 3.833 15.5 11.5 26.5c7.667 11 18.667 22.5 33 34.5c14.333 12 31.667 23.667 52 35c20.333 11.333 43.167 21 68.5 29c-8 -26 -15.167 -54.5 -21.5 -85.5c-6.333 -31 -11.833 -61.833 -16.5 -92.5c0 0 -127 0 -127 0c0 0 0 53 0 53c0 0 0 0 0 0m510 125c25.333 -8 48.167 -17.667 68.5 -29c20.333 -11.333 37.667 -23 52 -35c14.333 -12 25.333 -23.5 33 -34.5c7.667 -11 11.5 -19.833 11.5 -26.5c0 0 0 -53 0 -53c0 0 -128 0 -128 0c-4 30.667 -9.167 61.5 -15.5 92.5c-6.333 31 -13.5 59.5 -21.5 85.5c0 0 0 0 0 0" />
  </g>
</svg>