<svg height="1000px" width="928.5714285714286px" xmlns="http://www.w3.org/2000/svg">
  <g>
    <path d="M0 339.2857142857142c0 0 0 -71.429 0 -71.429c0 -14.881 5.208 -27.529 15.625 -37.946c10.417 -10.417 23.065 -15.625 37.946 -15.625c0 0 160.715 0 160.715 0c0 0 0 -53.571 0 -53.571c0 -24.554 8.742 -45.573 26.227 -63.058c17.486 -17.486 38.505 -26.228 63.058 -26.228c0 0 321.429 0 321.429 0c24.554 0 45.573 8.742 63.058 26.228c17.485 17.485 26.228 38.504 26.228 63.058c0 0 0 53.571 0 53.571c0 0 160.714 0 160.714 0c14.881 0 27.53 5.208 37.946 15.625c10.417 10.417 15.625 23.065 15.625 37.946c0 0 0 71.429 0 71.429c0 26.414 -7.719 53.013 -23.158 79.799c-15.439 26.786 -36.272 50.967 -62.5 72.545c-26.228 21.577 -58.408 39.713 -96.54 54.408c-38.133 14.695 -78.218 22.973 -120.257 24.833c-15.625 20.089 -33.296 37.76 -53.013 53.013c-24.926 22.322 -37.389 52.456 -37.389 90.402c0 20.089 5.674 37.016 17.02 50.781c11.347 13.765 30.227 20.648 56.641 20.648c26.414 0 50.502 8.463 72.266 25.39c21.763 16.927 32.645 38.226 32.645 63.895c0 0 0 35.715 0 35.715c0 5.208 -1.674 9.486 -5.023 12.834c-3.348 3.349 -7.626 5.023 -12.834 5.023c0 0 -464.286 0 -464.286 0c-5.208 0 -9.487 -1.674 -12.835 -5.023c-3.348 -3.348 -5.022 -7.626 -5.022 -12.834c0 0 0 -35.715 0 -35.715c0 -25.669 10.881 -46.968 32.645 -63.895c21.763 -16.927 45.852 -25.39 72.265 -25.39c26.414 0 45.294 -6.883 56.641 -20.648c11.347 -13.765 17.02 -30.32 17.02 -49.665c0 -38.69 -12.463 -69.196 -37.388 -91.518c-19.718 -15.253 -37.389 -32.924 -53.014 -53.013c-42.038 -1.86 -82.124 -10.138 -120.256 -24.833c-38.133 -14.695 -70.313 -32.831 -96.541 -54.408c-26.227 -21.578 -47.061 -45.759 -62.5 -72.545c-15.439 -26.786 -23.158 -53.385 -23.158 -79.799c0 0 0 0 0 0m71.429 0c0 29.018 17.578 59.152 52.734 90.402c35.156 31.25 78.962 52.269 131.417 63.058c-27.529 -60.268 -41.294 -129.278 -41.294 -207.031c0 0 -142.857 0 -142.857 0c0 0 0 53.571 0 53.571c0 0 0 0 0 0m601.562 153.46c52.455 -10.789 96.261 -31.808 131.417 -63.058c35.157 -31.25 52.735 -61.384 52.735 -90.402c0 0 0 -53.571 0 -53.571c0 0 -142.857 0 -142.857 0c0 77.753 -13.765 146.763 -41.295 207.031c0 0 0 0 0 0" />
  </g>
</svg>