<svg height="1000" width="929" xmlns="http://www.w3.org/2000/svg"><path d="M0 339.328l0-71.424q0-22.32 15.624-37.944t37.944-15.624l160.704 0l0-53.568q0-36.828 26.226-63.054t63.054-26.226l321.408 0q36.828 0 63.054 26.226t26.226 63.054l0 53.568l160.704 0q22.32 0 37.944 15.624t15.624 37.944l0 71.424q0 39.618-23.157 79.794t-62.496 72.54-96.534 54.405-120.249 24.831q-23.436 30.132-53.01 53.01-21.204 18.972-29.295 40.455t-8.091 49.941q0 30.132 17.019 50.778t54.405 20.646q41.85 0 74.493 25.389t32.643 63.891l0 35.712q0 7.812-5.022 12.834t-12.834 5.022l-464.256 0q-7.812 0-12.834-5.022t-5.022-12.834l0-35.712q0-38.502 32.643-63.891t74.493-25.389q37.386 0 54.405-20.646t17.019-50.778q0-28.458-8.091-49.941t-29.295-40.455q-29.574-22.878-53.01-53.01-63.054-2.79-120.249-24.831t-96.534-54.405-62.496-72.54-23.157-79.794zm71.424 0q0 43.524 52.731 90.396t131.409 63.054q-41.292-90.396-41.292-207.018l-142.848 0l0 53.568zm601.524 153.45q78.678-16.182 131.409-63.054t52.731-90.396l0-53.568l-142.848 0q0 116.622-41.292 207.018z"/></svg>