<svg height="1000px" width="824.70703125px" xmlns="http://www.w3.org/2000/svg">
  <g>
    <path d="M0 366.2109375c0 0 0 -91.309 0 -91.309c0 -10.742 3.662 -19.612 10.986 -26.611c7.325 -6.999 16.358 -10.498 27.1 -10.498c0 0 157.715 0 157.715 0c-0.651 -3.906 -0.977 -7.975 -0.977 -12.207c0 0 0 -11.719 0 -11.719c0 0 0 -1.953 0 -1.953c0 -17.252 0.733 -31.575 2.197 -42.969c1.465 -11.393 3.988 -20.263 7.569 -26.611c3.581 -6.348 8.708 -10.824 15.381 -13.428c6.673 -2.604 15.706 -3.906 27.099 -3.906c0 0 331.055 0 331.055 0c10.742 0 19.613 1.302 26.611 3.906c6.999 2.604 12.289 7.08 15.869 13.428c3.581 6.348 6.023 15.218 7.325 26.611c1.302 11.394 1.953 25.717 1.953 42.969c0 0 0 12.451 0 12.451c0 0 -0.326 4.476 -0.977 13.428c0 0 158.203 0 158.203 0c10.743 0 19.776 3.499 27.1 10.498c7.324 6.999 10.986 15.869 10.986 26.611c0 0 0 91.309 0 91.309c0 20.508 -7.405 41.748 -22.216 63.721c-14.812 21.972 -34.668 42.806 -59.571 62.5c-24.902 19.694 -54.199 37.028 -87.89 52.002c-33.692 14.974 -69.906 25.553 -108.643 31.738c-16.602 3.255 -31.413 10.01 -44.434 20.264c-13.02 10.254 -19.531 21.728 -19.531 34.423c0 11.394 2.848 19.776 8.545 25.147c5.697 5.371 12.044 10.417 19.043 15.137c6.999 4.72 13.509 9.847 19.531 15.38c6.022 5.534 9.685 13.998 10.987 25.391c1.302 7.487 0.976 15.137 -0.977 22.949c-1.302 4.558 2.523 8.383 11.475 11.475c8.951 3.092 19.938 6.103 32.959 9.033c13.02 2.93 26.367 6.592 40.039 10.986c13.672 4.395 24.088 10.01 31.25 16.846c3.906 3.255 7.08 9.684 9.521 19.287c2.442 9.603 3.988 20.101 4.639 31.494c0.651 10.743 -0.326 20.264 -2.93 28.565c-2.604 8.301 -7.324 12.451 -14.16 12.451c0 0 -480.957 0 -480.957 0c-6.51 0 -11.149 -4.15 -13.916 -12.451c-2.767 -8.301 -3.825 -17.822 -3.174 -28.565c0.651 -11.393 2.197 -21.891 4.639 -31.494c2.441 -9.603 5.615 -16.032 9.521 -19.287c7.487 -6.51 17.904 -12.044 31.25 -16.601c13.347 -4.558 26.449 -8.301 39.307 -11.231c12.858 -2.93 24.007 -5.859 33.447 -8.789c9.44 -2.93 13.509 -6.836 12.207 -11.719c-1.302 -4.557 -1.953 -8.707 -1.953 -12.451c0 0 0 -10.498 0 -10.498c0.651 -11.393 4.151 -19.857 10.498 -25.39c6.348 -5.534 13.184 -10.661 20.508 -15.381c7.324 -4.72 13.753 -9.766 19.287 -15.137c5.534 -5.371 8.301 -13.753 8.301 -25.147c0 -12.695 -6.429 -24.169 -19.287 -34.423c-12.858 -10.254 -28.076 -17.009 -45.655 -20.264c-38.085 -6.51 -73.893 -17.334 -107.421 -32.471c-33.529 -15.136 -62.826 -32.389 -87.891 -51.758c-25.065 -19.368 -44.922 -40.039 -59.57 -62.011c-14.649 -21.973 -21.973 -43.213 -21.973 -63.721c0 0 0 0 0 0m75.195 0c0 6.51 3.825 15.299 11.475 26.367c7.65 11.068 18.636 22.543 32.959 34.424c14.323 11.882 31.657 23.519 52.002 34.912c20.345 11.393 43.213 21.159 68.603 29.297c-8.138 -26.042 -15.38 -54.606 -21.728 -85.693c-6.348 -31.088 -11.8 -61.931 -16.358 -92.53c0 0 -126.953 0 -126.953 0c0 0 0 53.223 0 53.223c0 0 0 0 0 0m509.766 125c25.391 -8.138 48.258 -17.904 68.603 -29.297c20.346 -11.393 37.679 -23.03 52.002 -34.912c14.323 -11.881 25.31 -23.356 32.959 -34.424c7.65 -11.068 11.475 -19.857 11.475 -26.367c0 0 0 -53.223 0 -53.223c0 0 -127.93 0 -127.93 0c-3.906 30.599 -9.033 61.442 -15.381 92.53c-6.347 31.087 -13.59 59.651 -21.728 85.693c0 0 0 0 0 0" />
  </g>
</svg>