<svg height="1000" width="928.6" xmlns="http://www.w3.org/2000/svg"><path d="M0 339.3v-71.4q0-22.3 15.6-37.9t37.9-15.6h160.7v-53.6q0-36.8 26.2-63.1t63.1-26.2h321.4q36.8 0 63.1 26.2t26.2 63.1v53.6h160.7q22.3 0 37.9 15.6t15.6 37.9v71.4q0 39.6-23.2 79.8t-62.5 72.5-96.5 54.4-120.2 24.8q-23.4 30.1-53 53-21.2 19-29.3 40.5t-8.1 49.9q0 30.1 17 50.8t54.4 20.6q41.9 0 74.5 25.4t32.6 63.9v35.7q0 7.8-5 12.8t-12.8 5h-464.3q-7.8 0-12.8-5t-5-12.8v-35.7q0-38.5 32.6-63.9t74.5-25.4q37.4 0 54.4-20.6t17-50.8q0-28.5-8.1-49.9t-29.3-40.5q-29.6-22.9-53-53-63.1-2.8-120.2-24.8t-96.5-54.4-62.5-72.5-23.2-79.8zm71.4 0q0 43.5 52.7 90.4t131.4 63.1q-41.3-90.4-41.3-207h-142.8v53.6zm601.5 153.5q78.7-16.2 131.4-63.1t52.7-90.4v-53.6h-142.8q0 116.6-41.3 207z"/></svg>