<svg height="1000" width="1285.7" xmlns="http://www.w3.org/2000/svg"><path d="M964.3 250L750 642.9h428.6zM250 250L35.7 642.9h428.6zM708.1 142.9q-7.8 22.3 -25.3 39.9t-39.9 25.3v720.5h339.2q7.9 0 12.9 5t5 12.8v35.7q0 7.9 -5 12.9t-12.9 5h-750q-7.8 0 -12.8 -5t-5 -12.9v-35.7q0 -7.8 5 -12.8t12.8 -5h339.3V208.1q-22.3 -7.8 -39.9 -25.3t-25.4 -39.9h-274q-7.8 0 -12.8 -5.1t-5 -12.8V89.3q0 -7.8 5 -12.8t12.8 -5.1h274q11.8 -31.8 39.1 -51.6T607.1 0t62 19.8 39 51.6h274q7.9 0 12.9 5.1t5 12.8V125q0 7.8 -5 12.8t-12.9 5.1h-274zm-101 8.9q18.5 0 31.6 -13.1t13.1 -31.6T638.7 75.6 607.1 62.5t-31.5 13.1 -13.1 31.5 13.1 31.6 31.5 13.1zm607.2 491.1q0 40.7 -26 73.1t-65.5 50.7 -80.7 27.7 -77.8 9.2 -77.9 -9.2 -80.6 -27.7T740.2 716t-25.9 -73.1q0 -6.2 19.5 -45.2t51.4 -97.4 59.7 -109.1 56.9 -102.7T933 232.7q10.1 -18.4 31.3 -18.4t31.2 18.4q2.3 3.9 31.3 55.8t56.9 102.7 59.7 109.1 51.4 97.4 19.5 45.2zm-714.3 0q0 40.7 -25.9 73.1t-65.6 50.7 -80.7 27.7 -77.8 9.2 -77.8 -9.2T91.5 766.7 25.9 716 0 642.9q0 -6.2 19.5 -45.2t51.4 -97.4 59.7 -109.1 56.9 -102.7 31.2 -55.8q10.1 -18.4 31.3 -18.4t31.3 18.4q2.2 3.9 31.2 55.8t56.9 102.7 59.7 109.1 51.4 97.4 19.5 45.2z"/></svg>