<svg height="1000" width="1142.857" xmlns="http://www.w3.org/2000/svg"><path d="M535.68 .064l535.68 214.272v71.424h-71.424q0 14.508 -11.439 25.11t-27.063 10.602h-851.508q-15.624 0 -27.063 -10.602t-11.439 -25.11h-71.424v-71.424zm-392.832 357.12h142.848v428.544h71.424v-428.544h142.848v428.544h71.424v-428.544h142.848v428.544h71.424v-428.544h142.848v428.544h32.922q15.624 0 27.063 10.602t11.439 25.11v35.712h-928.512v-35.712q0 -14.508 11.439 -25.11t27.063 -10.602h32.922v-428.544zm890.01 535.68q15.624 0 27.063 10.602t11.439 25.11v71.424h-1071.36v-71.424q0 -14.508 11.439 -25.11t27.063 -10.602h994.356z"/></svg>