<svg height="1000" width="1000" xmlns="http://www.w3.org/2000/svg"><path d="M35.154 857.152h-35.154v-785.664h35.154v785.664zm35.154 -.558h-17.856v-785.106h17.856v785.106zm52.452 0h-17.298v-785.106h17.298v785.106zm87.606 0h-17.298v-785.106h17.298v785.106zm87.606 0h-34.596v-785.106h34.596v785.106zm70.308 0h-17.298v-785.106h17.298v785.106zm35.154 0h-17.298v-785.106h17.298v785.106zm35.154 0h-17.298v-785.106h17.298v785.106zm87.606 0h-35.154v-785.106h35.154v785.106zm87.606 0h-35.154v-785.106h35.154v785.106zm70.308 0h-35.154v-785.106h35.154v785.106zm70.308 0h-35.154v-785.106h35.154v785.106zm52.452 0h-35.154v-785.106h35.154v785.106zm105.462 0h-52.452v-785.106h52.452v785.106zm35.154 0h-17.856v-785.106h17.856v785.106zm52.452 .558h-35.154v-785.664h35.154v785.664z"/></svg>