<svg height="1000px" width="900px" xmlns="http://www.w3.org/2000/svg">
  <g>
    <path d="M0 875c0 0 0 -750 0 -750c0 0 75 0 75 0c0 0 0 750 0 750c0 0 -75 0 -75 0c0 0 0 0 0 0m111 0c0 0 0 -750 0 -750c0 0 18 0 18 0c0 0 0 750 0 750c0 0 -18 0 -18 0c0 0 0 0 0 0m63 0c0 0 0 -750 0 -750c0 0 57 0 57 0c0 0 0 750 0 750c0 0 -57 0 -57 0c0 0 0 0 0 0m92 0c0 0 0 -750 0 -750c0 0 38 0 38 0c0 0 0 750 0 750c0 0 -38 0 -38 0c0 0 0 0 0 0m83 0c0 0 0 -750 0 -750c0 0 37 0 37 0c0 0 0 750 0 750c0 0 -37 0 -37 0c0 0 0 0 0 0m92 0c0 0 0 -750 0 -750c0 0 18 0 18 0c0 0 0 750 0 750c0 0 -18 0 -18 0c0 0 0 0 0 0m54 0c0 0 0 -750 0 -750c0 0 75 0 75 0c0 0 0 750 0 750c0 0 -75 0 -75 0c0 0 0 0 0 0m101 0c0 0 0 -750 0 -750c0 0 38 0 38 0c0 0 0 750 0 750c0 0 -38 0 -38 0c0 0 0 0 0 0m92 0c0 0 0 -750 0 -750c0 0 19 0 19 0c0 0 0 750 0 750c0 0 -19 0 -19 0c0 0 0 0 0 0m83 0c0 0 0 -750 0 -750c0 0 18 0 18 0c0 0 0 750 0 750c0 0 -18 0 -18 0c0 0 0 0 0 0m54 0c0 0 0 -750 0 -750c0 0 75 0 75 0c0 0 0 750 0 750c0 0 -75 0 -75 0c0 0 0 0 0 0" />
  </g>
</svg>