<svg height="1000" width="1000" xmlns="http://www.w3.org/2000/svg"><path d="M0 928.576l0-857.088l142.848 0l0 857.088l-142.848 0zm178.56 0l0-857.088l71.424 0l0 857.088l-71.424 0zm107.136 0l0-857.088l35.712 0l0 857.088l-35.712 0zm53.568 0l0-857.088l35.712 0l0 857.088l-35.712 0zm89.28 0l0-857.088l71.424 0l0 857.088l-71.424 0zm142.848 0l0-857.088l142.848 0l0 857.088l-142.848 0zm178.56 0l0-857.088l35.712 0l0 857.088l-35.712 0zm89.28 0l0-857.088l35.712 0l0 857.088l-35.712 0zm89.28 0l0-857.088l71.424 0l0 857.088l-71.424 0z"/></svg>