<svg height="1000" width="1000" xmlns="http://www.w3.org/2000/svg"><path d="M35.2 857.1H0V71.4h35.2v785.7zm35.1 -.5H52.5V71.4h17.8v785.2zm52.5 0h-17.3V71.4h17.3v785.2zm87.6 0h-17.3V71.4h17.3v785.2zm87.6 0h-34.6V71.4H298v785.2zm70.3 0H351V71.4h17.3v785.2zm35.2 0h-17.3V71.4h17.3v785.2zm35.1 0h-17.3V71.4h17.3v785.2zm87.6 0h-35.1V71.4h35.1v785.2zm87.6 0h-35.1V71.4h35.1v785.2zm70.4 0H649V71.4h35.2v785.2zm70.3 0h-35.2V71.4h35.2v785.2zm52.4 0h-35.1V71.4h35.1v785.2zm105.5 0h-52.5V71.4h52.5v785.2zm35.1 0h-17.8V71.4h17.8v785.2zm52.5 .5h-35.2V71.4h35.2v785.7z"/></svg>