<svg height="1000px" width="1000px" xmlns="http://www.w3.org/2000/svg">
  <g>
    <path d="M142.85714285714286 71.42857142857133c0 0 0 857.143 0 857.143c0 0 -142.857 0 -142.857 0c0 0 0 -857.143 0 -857.143c0 0 142.857 0 142.857 0c0 0 0 0 0 0m857.143 0c0 0 0 857.143 0 857.143c0 0 -71.429 0 -71.429 0c0 0 0 -857.143 0 -857.143c0 0 71.429 0 71.429 0c0 0 0 0 0 0m-750 0c0 0 0 857.143 0 857.143c0 0 -71.429 0 -71.429 0c0 0 0 -857.143 0 -857.143c0 0 71.429 0 71.429 0c0 0 0 0 0 0m250 0c0 0 0 857.143 0 857.143c0 0 -71.429 0 -71.429 0c0 0 0 -857.143 0 -857.143c0 0 71.429 0 71.429 0c0 0 0 0 0 0m214.286 0c0 0 0 857.143 0 857.143c0 0 -142.858 0 -142.858 0c0 0 0 -857.143 0 -857.143c0 0 142.858 0 142.858 0c0 0 0 0 0 0m-392.858 0c0 0 0 857.143 0 857.143c0 0 -35.714 0 -35.714 0c0 0 0 -857.143 0 -857.143c0 0 35.714 0 35.714 0c0 0 0 0 0 0m553.572 0c0 0 0 857.143 0 857.143c0 0 -35.714 0 -35.714 0c0 0 0 -857.143 0 -857.143c0 0 35.714 0 35.714 0c0 0 0 0 0 0m-89.286 0c0 0 0 857.143 0 857.143c0 0 -35.714 0 -35.714 0c0 0 0 -857.143 0 -857.143c0 0 35.714 0 35.714 0c0 0 0 0 0 0m-410.714 0c0 0 0 857.143 0 857.143c0 0 -35.714 0 -35.714 0c0 0 0 -857.143 0 -857.143c0 0 35.714 0 35.714 0c0 0 0 0 0 0" />
  </g>
</svg>