<svg height="1000" width="1000" xmlns="http://www.w3.org/2000/svg"><path d="M0 857.152v-785.664h35.154v785.664h-35.154zm52.452 -.558v-785.106h17.856v785.106h-17.856zm53.01 0v-785.106h17.298v785.106h-17.298zm87.606 0v-785.106h17.298v785.106h-17.298zm70.308 0v-785.106h34.596v785.106h-34.596zm87.606 0v-785.106h17.298v785.106h-17.298zm35.154 0v-785.106h17.298v785.106h-17.298zm35.154 0v-785.106h17.298v785.106h-17.298zm69.75 0v-785.106h35.154v785.106h-35.154zm87.606 0v-785.106h35.154v785.106h-35.154zm70.308 0v-785.106h35.154v785.106h-35.154zm70.308 0v-785.106h35.154v785.106h-35.154zm52.452 0v-785.106h35.154v785.106h-35.154zm88.164 0v-785.106h52.452v785.106h-52.452zm69.75 0v-785.106h17.856v785.106h-17.856zm35.154 .558v-785.664h35.154v785.664h-35.154z"/></svg>