<svg height="1000px" width="1000px" xmlns="http://www.w3.org/2000/svg">
  <g>
    <path d="M0 928.5714285714286c0 0 0 -857.143 0 -857.143c0 0 142.857 0 142.857 0c0 0 0 857.143 0 857.143c0 0 -142.857 0 -142.857 0c0 0 0 0 0 0m178.571 0c0 0 0 -857.143 0 -857.143c0 0 71.429 0 71.429 0c0 0 0 857.143 0 857.143c0 0 -71.429 0 -71.429 0c0 0 0 0 0 0m107.143 0c0 0 0 -857.143 0 -857.143c0 0 35.715 0 35.715 0c0 0 0 857.143 0 857.143c0 0 -35.715 0 -35.715 0c0 0 0 0 0 0m53.572 0c0 0 0 -857.143 0 -857.143c0 0 35.714 0 35.714 0c0 0 0 857.143 0 857.143c0 0 -35.714 0 -35.714 0c0 0 0 0 0 0m89.285 0c0 0 0 -857.143 0 -857.143c0 0 71.429 0 71.429 0c0 0 0 857.143 0 857.143c0 0 -71.429 0 -71.429 0c0 0 0 0 0 0m142.858 0c0 0 0 -857.143 0 -857.143c0 0 142.857 0 142.857 0c0 0 0 857.143 0 857.143c0 0 -142.857 0 -142.857 0c0 0 0 0 0 0m178.571 0c0 0 0 -857.143 0 -857.143c0 0 35.714 0 35.714 0c0 0 0 857.143 0 857.143c0 0 -35.714 0 -35.714 0c0 0 0 0 0 0m89.286 0c0 0 0 -857.143 0 -857.143c0 0 35.714 0 35.714 0c0 0 0 857.143 0 857.143c0 0 -35.714 0 -35.714 0c0 0 0 0 0 0m89.285 0c0 0 0 -857.143 0 -857.143c0 0 71.429 0 71.429 0c0 0 0 857.143 0 857.143c0 0 -71.429 0 -71.429 0c0 0 0 0 0 0" />
  </g>
</svg>