<svg height="1000px" width="899.90234375px" xmlns="http://www.w3.org/2000/svg">
  <g>
    <path d="M0 875c0 0 0 -750 0 -750c0 0 75.195 0 75.195 0c0 0 0 750 0 750c0 0 -75.195 0 -75.195 0c0 0 0 0 0 0m110.84 0c0 0 0 -750 0 -750c0 0 18.066 0 18.066 0c0 0 0 750 0 750c0 0 -18.066 0 -18.066 0c0 0 0 0 0 0m62.988 0c0 0 0 -750 0 -750c0 0 57.129 0 57.129 0c0 0 0 750 0 750c0 0 -57.129 0 -57.129 0c0 0 0 0 0 0m92.285 0c0 0 0 -750 0 -750c0 0 38.086 0 38.086 0c0 0 0 750 0 750c0 0 -38.086 0 -38.086 0c0 0 0 0 0 0m83.008 0c0 0 0 -750 0 -750c0 0 37.109 0 37.109 0c0 0 0 750 0 750c0 0 -37.109 0 -37.109 0c0 0 0 0 0 0m91.797 0c0 0 0 -750 0 -750c0 0 18.066 0 18.066 0c0 0 0 750 0 750c0 0 -18.066 0 -18.066 0c0 0 0 0 0 0m54.199 0c0 0 0 -750 0 -750c0 0 74.707 0 74.707 0c0 0 0 750 0 750c0 0 -74.707 0 -74.707 0c0 0 0 0 0 0m101.074 0c0 0 0 -750 0 -750c0 0 37.598 0 37.598 0c0 0 0 750 0 750c0 0 -37.598 0 -37.598 0c0 0 0 0 0 0m91.797 0c0 0 0 -750 0 -750c0 0 19.043 0 19.043 0c0 0 0 750 0 750c0 0 -19.043 0 -19.043 0c0 0 0 0 0 0m83.008 0c0 0 0 -750 0 -750c0 0 18.066 0 18.066 0c0 0 0 750 0 750c0 0 -18.066 0 -18.066 0c0 0 0 0 0 0m54.199 0c0 0 0 -750 0 -750c0 0 74.707 0 74.707 0c0 0 0 750 0 750c0 0 -74.707 0 -74.707 0c0 0 0 0 0 0" />
  </g>
</svg>