<svg height="1000px" width="899.7232913970947px" xmlns="http://www.w3.org/2000/svg">
  <g>
    <path d="M0 181.15234375c0 0 0 -37.109 0 -37.109c0 -12.696 6.348 -19.043 19.043 -19.043c0 0 112.793 0 112.793 0c5.208 0 11.393 0.651 18.555 1.953c7.161 1.302 13.02 2.604 17.578 3.906c1.953 1.302 4.313 3.662 7.08 7.08c2.767 3.418 5.29 7.243 7.568 11.475c2.279 4.231 4.232 8.545 5.86 12.939c1.627 4.395 2.766 7.894 3.418 10.498c0 0 13.183 61.035 13.183 61.035c0 0 657.715 0 657.715 0c11.393 0 20.833 4.395 28.32 13.184c7.487 8.789 10.091 18.392 7.813 28.809c0 0 -52.735 282.226 -52.735 282.226c-1.953 8.138 -6.266 14.974 -12.939 20.508c-6.673 5.534 -14.73 8.301 -24.17 8.301c0 0 -529.297 0 -529.297 0c0 0 17.09 82.031 17.09 82.031c1.302 5.208 4.15 9.521 8.545 12.939c4.394 3.418 9.196 5.127 14.404 5.127c0 0 417.969 0 417.969 0c5.208 0 9.684 1.872 13.428 5.616c3.743 3.743 5.615 8.219 5.615 13.427c0 0 0 38.086 0 38.086c0 5.209 -1.79 9.522 -5.371 12.94c-3.581 3.418 -8.138 5.127 -13.672 5.127c0 0 -79.59 0 -79.59 0c0 0 -318.359 0 -318.359 0c0 0 -50.782 0 -50.782 0c-5.208 0 -11.149 -0.57 -17.822 -1.709c-6.673 -1.14 -12.451 -2.686 -17.334 -4.639c-1.953 -0.651 -4.232 -2.767 -6.836 -6.348c-2.604 -3.58 -5.127 -7.568 -7.568 -11.963c-2.441 -4.394 -4.476 -8.789 -6.104 -13.183c-1.627 -4.395 -2.766 -7.894 -3.418 -10.498c0 0 -104.98 -496.094 -104.98 -496.094c-1.302 -5.208 -4.15 -9.44 -8.545 -12.695c-4.394 -3.255 -9.196 -4.883 -14.404 -4.883c0 0 -83.008 0 -83.008 0c-12.695 0 -19.043 -6.348 -19.043 -19.043c0 0 0 0 0 0m284.18 637.695c0 -15.299 5.452 -28.564 16.357 -39.795c10.905 -11.23 24.007 -16.845 39.307 -16.845c15.95 0 29.459 5.615 40.527 16.845c11.068 11.231 16.602 24.496 16.602 39.795c0 15.3 -5.534 28.483 -16.602 39.551c-11.068 11.068 -24.577 16.602 -40.527 16.602c-15.3 0 -28.402 -5.534 -39.307 -16.602c-10.905 -11.068 -16.357 -24.251 -16.357 -39.551c0 0 0 0 0 0m317.871 0c0 -15.299 5.452 -28.564 16.357 -39.795c10.905 -11.23 24.17 -16.845 39.795 -16.845c15.3 0 28.402 5.615 39.307 16.845c10.905 11.231 16.357 24.496 16.357 39.795c0 15.3 -5.452 28.483 -16.357 39.551c-10.905 11.068 -24.007 16.602 -39.307 16.602c-15.299 0 -28.483 -5.534 -39.551 -16.602c-11.067 -11.068 -16.601 -24.251 -16.601 -39.551c0 0 0 0 0 0" />
  </g>
</svg>