<svg height="1000" width="929" xmlns="http://www.w3.org/2000/svg"><path d="M0 178.624q0-14.508 10.602-25.11t25.11-10.602l142.848 0q8.928 0 15.903 3.627t11.16 8.649 7.254 13.671 4.185 14.787 3.069 16.461 2.511 14.229l670.158 0q14.508 0 25.11 10.602t10.602 25.11l0 285.696q0 13.392-8.928 23.715t-22.878 11.997l-582.552 68.076q.558 3.906 2.511 11.997t3.348 14.787 1.395 12.276q0 8.928-13.392 35.712l513.36 0q14.508 0 25.11 10.602t10.602 25.11-10.602 25.11-25.11 10.602l-35.712 0q29.574 0 50.499 20.925t20.925 50.499-20.925 50.499-50.499 20.925-50.499-20.925-20.925-50.499 20.925-50.499 50.499-20.925l-499.968 0q29.574 0 50.499 20.925t20.925 50.499-20.925 50.499-50.499 20.925-50.499-20.925-20.925-50.499 20.925-50.499 50.499-20.925l-35.712 0q-14.508 0-25.11-10.602t-10.602-25.11q0-7.812 6.138-22.041t16.461-33.201 11.439-21.204l-98.766-459.234l-113.832 0q-14.508 0-25.11-10.602t-10.602-25.11z"/></svg>