<svg height="1000px" width="928.5714285714286px" xmlns="http://www.w3.org/2000/svg">
  <g>
    <path d="M0 178.57142857142856c0 -9.673 3.534 -18.043 10.603 -25.112c7.068 -7.068 15.439 -10.602 25.111 -10.602c0 0 142.857 0 142.857 0c20.834 0 33.669 13.579 38.505 40.736c0.744 4.093 1.767 9.58 3.069 16.462c1.302 6.883 2.139 11.626 2.511 14.23c0 0 670.201 0 670.201 0c9.673 0 18.043 3.535 25.112 10.603c7.068 7.068 10.602 15.439 10.602 25.112c0 0 0 285.714 0 285.714c0 8.928 -2.976 16.834 -8.928 23.716c-5.953 6.883 -13.579 10.882 -22.88 11.998c0 0 -582.589 68.081 -582.589 68.081c0 0 7.255 39.062 7.255 39.062c0 5.952 -4.465 17.857 -13.393 35.714c0 0 513.393 0 513.393 0c9.672 0 18.043 3.535 25.111 10.603c7.069 7.068 10.603 15.439 10.603 25.112c0 9.672 -3.534 18.043 -10.603 25.111c-7.068 7.069 -15.439 10.603 -25.111 10.603c0 0 -35.715 0 -35.715 0c19.718 0 36.552 6.975 50.503 20.926c13.95 13.951 20.926 30.785 20.926 50.502c0 19.718 -6.976 36.552 -20.926 50.503c-13.951 13.951 -30.785 20.926 -50.503 20.926c-19.717 0 -36.551 -6.975 -50.502 -20.926c-13.951 -13.951 -20.926 -30.785 -20.926 -50.503c0 -19.717 6.975 -36.551 20.926 -50.502c13.951 -13.951 30.785 -20.926 50.502 -20.926c0 0 -500 0 -500 0c19.718 0 36.552 6.975 50.503 20.926c13.95 13.951 20.926 30.785 20.926 50.502c0 19.718 -6.976 36.552 -20.926 50.503c-13.951 13.951 -30.785 20.926 -50.503 20.926c-19.717 0 -36.551 -6.975 -50.502 -20.926c-13.951 -13.951 -20.926 -30.785 -20.926 -50.503c0 -19.717 6.975 -36.551 20.926 -50.502c13.951 -13.951 30.785 -20.926 50.502 -20.926c0 0 -35.714 0 -35.714 0c-9.673 0 -18.043 -3.534 -25.112 -10.603c-7.068 -7.068 -10.602 -14.323 -10.602 -21.763c0 -7.441 2.046 -15.904 6.138 -25.391c4.092 -9.486 9.58 -20.554 16.462 -33.203c6.883 -12.649 10.696 -19.717 11.44 -21.205c0 0 -98.772 -459.264 -98.772 -459.264c0 0 -113.84 0 -113.84 0c-9.672 0 -18.043 -3.534 -25.111 -10.602c-7.069 -7.069 -10.603 -15.439 -10.603 -25.112c0 0 0 0 0 0" />
  </g>
</svg>