<svg height="1000" width="928.6" xmlns="http://www.w3.org/2000/svg"><path d="M0 178.6q0-14.5 10.6-25.1t25.1-10.6h142.8q8.9 0 15.9 3.6t11.2 8.6 7.3 13.7 4.2 14.8 3.1 16.5 2.5 14.2h670.2q14.5 0 25.1 10.6t10.6 25.1v285.7q0 13.4-8.9 23.7t-22.9 12l-582.6 68.1q.6 3.9 2.5 12t3.3 14.8 1.4 12.3q0 8.9-13.4 35.7h513.4q14.5 0 25.1 10.6t10.6 25.1-10.6 25.1-25.1 10.6h-35.7q29.6 0 50.5 20.9t20.9 50.5-20.9 50.5-50.5 20.9-50.5-20.9-20.9-50.5 20.9-50.5 50.5-20.9h-500q29.6 0 50.5 20.9t20.9 50.5-20.9 50.5-50.5 20.9-50.5-20.9-20.9-50.5 20.9-50.5 50.5-20.9h-35.7q-14.5 0-25.1-10.6t-10.6-25.1q0-7.8 6.1-22t16.5-33.2 11.4-21.2l-98.8-459.2h-113.8q-14.5 0-25.1-10.6t-10.6-25.1z"/></svg>