<svg height="1000" width="928.571" xmlns="http://www.w3.org/2000/svg"><path d="M357.12 857.152q0 29.016 -21.204 50.22t-50.22 21.204 -50.22 -21.204 -21.204 -50.22 21.204 -50.22 50.22 -21.204 50.22 21.204 21.204 50.22zm499.968 0q0 29.016 -21.204 50.22t-50.22 21.204 -50.22 -21.204 -21.204 -50.22 21.204 -50.22 50.22 -21.204 50.22 21.204 21.204 50.22zm71.424 -607.104v285.696q0 13.392 -9.207 23.715t-22.599 11.997l-582.552 68.076q7.254 33.48 7.254 39.06 0 8.928 -13.392 35.712h513.36q14.508 0 25.11 10.602t10.602 25.11 -10.602 25.11 -25.11 10.602h-571.392q-14.508 0 -25.11 -10.602t-10.602 -25.11q0 -6.138 4.464 -17.577t8.928 -20.088 11.997 -22.32 8.649 -16.461l-98.766 -459.234h-113.832q-14.508 0 -25.11 -10.602t-10.602 -25.11 10.602 -25.11 25.11 -10.602h142.848q8.928 0 15.903 3.627t10.881 8.649 7.254 13.671 4.464 14.508 3.069 16.461 2.511 14.508h670.158q14.508 0 25.11 10.602t10.602 25.11z"/></svg>