<svg height="1000px" width="928.5714285714286px" xmlns="http://www.w3.org/2000/svg">
  <g>
    <path d="M314.17410714285717 639.5089285714286c0 0 7.254 39.063 7.254 39.063c0 5.952 -4.464 17.857 -13.392 35.714c0 0 513.392 0 513.392 0c9.673 0 18.044 3.534 25.112 10.602c7.069 7.069 10.603 15.439 10.603 25.112c0 9.673 -3.534 18.043 -10.603 25.112c-7.068 7.068 -15.439 10.602 -25.112 10.602c0 0 -35.714 0 -35.714 0c19.717 0 36.552 6.976 50.502 20.927c13.951 13.951 20.927 30.785 20.927 50.502c0 19.717 -6.976 36.551 -20.927 50.502c-13.95 13.951 -30.785 20.927 -50.502 20.927c-19.717 0 -36.551 -6.976 -50.502 -20.927c-13.951 -13.951 -20.926 -30.785 -20.926 -50.502c0 -19.717 6.975 -36.551 20.926 -50.502c13.951 -13.951 30.785 -20.927 50.502 -20.927c0 0 -500 0 -500 0c19.717 0 36.552 6.976 50.502 20.927c13.951 13.951 20.927 30.785 20.927 50.502c0 19.717 -6.976 36.551 -20.927 50.502c-13.95 13.951 -30.785 20.927 -50.502 20.927c-19.717 0 -36.551 -6.976 -50.502 -20.927c-13.951 -13.951 -20.926 -30.785 -20.926 -50.502c0 -19.717 6.975 -36.551 20.926 -50.502c13.951 -13.951 30.785 -20.927 50.502 -20.927c0 0 -35.714 0 -35.714 0c-9.673 0 -18.043 -3.534 -25.112 -10.602c-7.068 -7.069 -10.602 -14.323 -10.602 -21.764c0 -7.44 2.046 -15.904 6.138 -25.39c4.092 -9.487 9.58 -20.555 16.462 -33.203c6.882 -12.649 10.696 -19.718 11.44 -21.206c0 0 -98.773 -459.263 -98.773 -459.263c0 0 -113.839 0 -113.839 0c-9.672 0 -18.043 -3.534 -25.111 -10.603c-7.069 -7.068 -10.603 -15.439 -10.603 -25.111c0 -9.673 3.534 -18.044 10.603 -25.112c7.068 -7.069 15.439 -10.603 25.111 -10.603c0 0 142.857 0 142.857 0c20.834 0 33.668 13.579 38.505 40.737c0.744 4.092 1.767 9.579 3.069 16.462c1.302 6.882 2.139 11.626 2.511 14.23c0 0 670.201 0 670.201 0c9.673 0 18.043 3.534 25.112 10.602c7.068 7.069 10.602 15.439 10.602 25.112c0 0 0 285.714 0 285.714c0 8.929 -2.976 16.834 -8.928 23.717c-5.953 6.882 -13.579 10.882 -22.88 11.998c0 0 -582.589 68.08 -582.589 68.08" />
  </g>
</svg>