<svg height="1000" width="928.6" xmlns="http://www.w3.org/2000/svg"><path d="M357.1 857.1q0 29.1 -21.2 50.3t-50.2 21.2 -50.2 -21.2 -21.2 -50.3 21.2 -50.2 50.2 -21.2 50.2 21.2 21.2 50.2zm500 0q0 29.1 -21.2 50.3t-50.2 21.2 -50.2 -21.2 -21.2 -50.3 21.2 -50.2 50.2 -21.2 50.2 21.2 21.2 50.2zM928.6 250v285.7q0 13.4 -9.2 23.7t-22.6 12l-582.6 68.1q7.2 33.5 7.2 39.1 0 8.9 -13.4 35.7h513.4q14.5 0 25.1 10.6t10.6 25.1 -10.6 25.1 -25.1 10.6H250q-14.5 0 -25.1 -10.6T214.3 750q0 -6.1 4.4 -17.6t9 -20.1 12 -22.3 8.6 -16.5L149.6 214.3H35.7q-14.5 0 -25.1 -10.6T0 178.6t10.6 -25.1 25.1 -10.6h142.9q8.9 0 15.9 3.6t10.9 8.6 7.2 13.7 4.5 14.5 3 16.5 2.6 14.5h670.2q14.5 0 25.1 10.6t10.6 25.1z"/></svg>