<svg height="1000px" width="899.6427001953125px" xmlns="http://www.w3.org/2000/svg">
  <g>
    <path d="M0 181c0 0 0 -37 0 -37c0 -12.667 6.333 -19 19 -19c0 0 113 0 113 0c5.333 0 11.5 0.667 18.5 2c7 1.333 12.833 2.667 17.5 4c2 1.333 4.333 3.667 7 7c2.667 3.333 5.167 7.167 7.5 11.5c2.333 4.333 4.333 8.667 6 13c1.667 4.333 2.833 7.833 3.5 10.5c0 0 13 61 13 61c0 0 658 0 658 0c11.333 0 20.667 4.333 28 13c7.333 8.667 10 18.333 8 29c0 0 -53 282 -53 282c-2 8 -6.333 14.833 -13 20.5c-6.667 5.667 -14.667 8.5 -24 8.5c0 0 -529 0 -529 0c0 0 17 82 17 82c1.333 5.333 4.167 9.667 8.5 13c4.333 3.333 9.167 5 14.5 5c0 0 418 0 418 0c5.333 0 9.833 1.833 13.5 5.5c3.667 3.667 5.5 8.167 5.5 13.5c0 0 0 38 0 38c0 5.333 -1.833 9.667 -5.5 13c-3.667 3.333 -8.167 5 -13.5 5c0 0 -80 0 -80 0c0 0 -318 0 -318 0c0 0 -51 0 -51 0c-5.333 0 -11.333 -0.5 -18 -1.5c-6.667 -1 -12.333 -2.5 -17 -4.5c-2 -0.667 -4.333 -2.833 -7 -6.5c-2.667 -3.667 -5.167 -7.667 -7.5 -12c-2.333 -4.333 -4.333 -8.667 -6 -13c-1.667 -4.333 -2.833 -7.833 -3.5 -10.5c0 0 -105 -496 -105 -496c-1.333 -5.333 -4.167 -9.667 -8.5 -13c-4.333 -3.333 -9.167 -5 -14.5 -5c0 0 -83 0 -83 0c-12.667 0 -19 -6.333 -19 -19c0 0 0 0 0 0m284 638c0 -15.333 5.5 -28.667 16.5 -40c11 -11.333 24.167 -17 39.5 -17c16 0 29.5 5.667 40.5 17c11 11.333 16.5 24.667 16.5 40c0 15.333 -5.5 28.5 -16.5 39.5c-11 11 -24.5 16.5 -40.5 16.5c-15.333 0 -28.5 -5.5 -39.5 -16.5c-11 -11 -16.5 -24.167 -16.5 -39.5c0 0 0 0 0 0m318 0c0 -15.333 5.5 -28.667 16.5 -40c11 -11.333 24.167 -17 39.5 -17c15.333 0 28.5 5.667 39.5 17c11 11.333 16.5 24.667 16.5 40c0 15.333 -5.5 28.5 -16.5 39.5c-11 11 -24.167 16.5 -39.5 16.5c-15.333 0 -28.5 -5.5 -39.5 -16.5c-11 -11 -16.5 -24.167 -16.5 -39.5c0 0 0 0 0 0" />
  </g>
</svg>