<svg height="1000" width="1000" xmlns="http://www.w3.org/2000/svg"><path d="M928.6 607.1v107.2q0 94.3 -71.5 159.6v108.2q0 7.9 -5 12.9t-12.8 5h-35.7q-7.8 0 -12.9 -5t-5 -12.9v-65.8q-35.1 12.3 -71.4 12.3H285.7q-36.3 0 -71.4 -12.3v61.4q0 9.5 -5.3 15.9t-12.6 6.4h-35.7q-7.2 0 -12.5 -6.4t-5.3 -15.9V873.9Q71.4 808.6 71.4 714.3V607.1h857.2zM392.9 375q0 7.8 -5.1 12.8t-12.8 5.1 -12.8 -5.1T357.1 375t5.1 -12.8 12.8 -5.1 12.8 5.1 5.1 12.8zm35.7 -35.7q0 7.8 -5.1 12.8t-12.8 5 -12.8 -5 -5 -12.8 5 -12.8 12.8 -5.1 12.8 5.1 5.1 12.8zm-35.7 -35.7q0 7.8 -5.1 12.8t-12.8 5 -12.8 -5 -5.1 -12.8 5.1 -12.9 12.8 -5 12.8 5 5.1 12.9zm71.4 0q0 7.8 -5 12.8t-12.9 5 -12.8 -5 -5 -12.8 5 -12.9 12.8 -5 12.9 5 5 12.9zm-35.7 -35.7q0 7.8 -5.1 12.8t-12.8 5 -12.8 -5 -5 -12.8 5 -12.9 12.8 -5 12.8 5 5.1 12.9zm-35.7 -35.8q0 7.9 -5.1 12.9t-12.8 5 -12.8 -5 -5.1 -12.9 5.1 -12.8 12.8 -5 12.8 5 5.1 12.8zM1000 517.9v35.7q0 7.8 -5 12.8t-12.9 5H17.9q-7.9 0 -12.9 -5T0 553.6v-35.7Q0 510 5 505t12.9 -5h53.5V142.9q0 -59.2 41.9 -101T214.3 0Q274.6 0 317 43.5q25.6 -10.6 54.7 -6.7t51.8 21.8l12.3 -12.3q6.2 -6.1 12.3 0l23.4 23.5q6.2 6.1 0 12.2L296.3 257.3q-6.1 6.1 -12.3 0l-23.4 -23.5q-6.1 -6.1 0 -12.3l12.3 -12.2q-20.1 -25.7 -22.6 -58.1T263.4 91Q242.7 71.4 214.3 71.4q-29.6 0 -50.5 21t-20.9 50.5V500h839.2q7.9 0 12.9 5t5 12.9zm-500 -250q0 7.8 -5 12.8t-12.9 5 -12.8 -5 -5 -12.8 5 -12.9 12.8 -5 12.9 5 5 12.9zm-35.7 -35.8q0 7.9 -5 12.9t-12.9 5 -12.8 -5 -5 -12.9 5 -12.8 12.8 -5 12.9 5 5 12.8zm-35.7 -35.7q0 7.8 -5.1 12.9t-12.8 5 -12.8 -5 -5 -12.9 5 -12.8 12.8 -5 12.8 5 5.1 12.8zm107.1 35.7q0 7.9 -5 12.9t-12.8 5T505 245t-5 -12.9 5 -12.8 12.9 -5 12.8 5 5 12.8zM500 196.4q0 7.8 -5 12.9t-12.9 5 -12.8 -5 -5 -12.9 5 -12.8 12.8 -5 12.9 5 5 12.8zm-35.7 -35.7q0 7.8 -5 12.8t-12.9 5.1 -12.8 -5.1 -5 -12.8 5 -12.8 12.8 -5 12.9 5 5 12.8zm107.1 35.7q0 7.8 -5 12.9t-12.8 5 -12.9 -5 -5 -12.9 5 -12.8 12.9 -5 12.8 5 5 12.8zm-35.7 -35.7q0 7.8 -5 12.8t-12.8 5.1T505 173.5t-5 -12.8 5 -12.8 12.9 -5 12.8 5 5 12.8zm71.4 0q0 7.8 -5 12.8t-12.8 5.1 -12.8 -5.1 -5.1 -12.8 5.1 -12.8 12.8 -5 12.8 5 5 12.8z"/></svg>