<svg height="1000px" width="928.5714285714286px" xmlns="http://www.w3.org/2000/svg">
  <g>
    <path d="M428.57142857142856 386.1607142857142c0 0 -162.946 256.696 -162.946 256.696c0 0 397.321 0 397.321 0c0 0 -162.946 -256.696 -162.946 -256.696c0 0 0 -243.304 0 -243.304c0 0 -71.429 0 -71.429 0c0 0 0 243.304 0 243.304c0 0 0 0 0 0m423.549 421.875c20.833 33.11 24.833 61.477 11.998 85.1c-12.835 23.624 -38.97 35.436 -78.404 35.436c0 0 -642.857 0 -642.857 0c-39.435 0 -65.569 -11.812 -78.404 -35.436c-12.835 -23.623 -8.836 -51.99 11.997 -85.1c0 0 280.692 -442.522 280.692 -442.522c0 0 0 -222.657 0 -222.657c0 0 -35.714 0 -35.714 0c-9.672 0 -18.043 -3.534 -25.111 -10.602c-7.069 -7.069 -10.603 -15.439 -10.603 -25.112c0 -9.672 3.534 -18.043 10.603 -25.111c7.068 -7.069 15.439 -10.603 25.111 -10.603c0 0 285.714 0 285.714 0c9.673 0 18.044 3.534 25.112 10.603c7.068 7.068 10.603 15.439 10.603 25.111c0 9.673 -3.535 18.043 -10.603 25.112c-7.068 7.068 -15.439 10.602 -25.112 10.602c0 0 -35.714 0 -35.714 0c0 0 0 222.657 0 222.657c0 0 280.692 442.522 280.692 442.522" />
  </g>
</svg>