<svg height="1000px" width="750px" xmlns="http://www.w3.org/2000/svg">
  <g>
    <path d="M7.8125 839.84375c-12.695 -23.438 -11.556 -46.387 3.418 -68.848c0 0 251.953 -392.09 251.953 -392.09c0 0 0 -178.71 0 -178.71c0 0 -38.086 0 -38.086 0c-10.742 0 -19.612 -3.663 -26.611 -10.987c-6.999 -7.324 -10.498 -16.357 -10.498 -27.099c0 -10.092 3.499 -18.799 10.498 -26.123c6.999 -7.325 15.869 -10.987 26.611 -10.987c0 0 299.805 0 299.805 0c10.742 0 19.775 3.662 27.099 10.987c7.325 7.324 10.987 16.031 10.987 26.123c0 10.742 -3.662 19.775 -10.987 27.099c-7.324 7.324 -16.357 10.987 -27.099 10.987c0 0 -37.11 0 -37.11 0c0 0 0 179.687 0 179.687c0 0 250.977 391.113 250.977 391.113c14.648 22.787 15.788 45.736 3.418 68.848c-5.859 11.393 -14.16 20.101 -24.902 26.123c-10.743 6.022 -22.136 9.033 -34.18 9.033c0 0 -616.211 0 -616.211 0c-12.044 0 -23.356 -3.011 -33.936 -9.033c-10.579 -6.022 -18.961 -14.73 -25.146 -26.123c0 0 0 0 0 0m176.27 -198.73c0 0 381.835 0 381.835 0c0 0 -152.832 -239.258 -152.832 -239.258c0 0 0 -201.66 0 -201.66c0 0 -75.195 0 -75.195 0c0 0 0 200.683 0 200.683c0 0 -153.808 240.235 -153.808 240.235" />
  </g>
</svg>