<svg height="1000" width="815" xmlns="http://www.w3.org/2000/svg"><path d="M7.339 893.143q-19.251-35.433 11.997-85.095l280.674-442.494l0-222.642l-35.712 0q-14.508 0-25.11-10.602t-10.602-25.11 10.602-25.11 25.11-10.602l285.696 0q14.508 0 25.11 10.602t10.602 25.11-10.602 25.11-25.11 10.602l-35.712 0l0 222.642l280.674 442.494q31.248 49.662 11.997 85.095t-78.399 35.433l-642.816 0q-59.148 0-78.399-35.433zm201.159-250.263l397.296 0l-151.776-239.382-11.16-17.298l0-243.288l-71.424 0l0 243.288l-11.16 17.298z"/></svg>