<svg height="1000px" width="928.5714285714286px" xmlns="http://www.w3.org/2000/svg">
  <g>
    <path d="M57.113839285714285 864.0512276785714c0 -16.856 6.446 -35.528 19.337 -56.016c0 0 280.692 -442.522 280.692 -442.522c0 0 0 -222.656 0 -222.656c0 0 -35.714 0 -35.714 0c-9.673 0 -18.043 -3.534 -25.112 -10.603c-7.068 -7.068 -10.603 -15.439 -10.603 -25.111c0 -9.673 3.535 -18.044 10.603 -25.112c7.069 -7.069 15.439 -10.603 25.112 -10.603c0 0 285.714 0 285.714 0c9.673 0 18.043 3.534 25.112 10.603c7.068 7.068 10.602 15.439 10.602 25.112c0 9.672 -3.534 18.043 -10.602 25.111c-7.069 7.069 -15.439 10.603 -25.112 10.603c0 0 -35.714 0 -35.714 0c0 0 0 222.656 0 222.656c0 0 280.692 442.522 280.692 442.522c12.891 20.488 19.337 39.16 19.337 56.016c0 10.384 -2.447 20.079 -7.34 29.085c-12.834 23.623 -38.969 35.435 -78.404 35.435c0 0 -642.857 0 -642.857 0c-39.434 0 -65.569 -11.812 -78.404 -35.435c-4.893 -9.006 -7.339 -18.701 -7.339 -29.085c0 0 0 0 0 0m208.511 -221.194c0 0 397.322 0 397.322 0c0 0 -162.947 -256.697 -162.947 -256.697c0 0 0 -243.303 0 -243.303c0 0 -71.428 0 -71.428 0c0 0 0 243.303 0 243.303c0 0 -162.947 256.697 -162.947 256.697" />
  </g>
</svg>