<svg height="1000px" width="928.5714285714286px" xmlns="http://www.w3.org/2000/svg">
  <g>
    <path d="M64.453125 893.1361607142857c-12.835 -23.624 -8.836 -51.99 11.998 -85.1c0 0 280.692 -442.523 280.692 -442.523c0 0 0 -222.656 0 -222.656c0 0 -35.715 0 -35.715 0c-9.672 0 -18.043 -3.534 -25.111 -10.603c-7.069 -7.068 -10.603 -15.439 -10.603 -25.111c0 -9.673 3.534 -18.043 10.603 -25.112c7.068 -7.068 15.439 -10.603 25.111 -10.603c0 0 285.715 0 285.715 0c9.672 0 18.043 3.535 25.111 10.603c7.069 7.069 10.603 15.439 10.603 25.112c0 9.672 -3.534 18.043 -10.603 25.111c-7.068 7.069 -15.439 10.603 -25.111 10.603c0 0 -35.715 0 -35.715 0c0 0 0 222.656 0 222.656c0 0 280.692 442.523 280.692 442.523c20.834 33.11 24.833 61.476 11.998 85.1c-12.835 23.624 -38.969 35.435 -78.404 35.435c0 0 -642.857 0 -642.857 0c-39.435 0 -65.569 -11.811 -78.404 -35.435c0 0 0 0 0 0m201.172 -250.279c0 0 397.321 0 397.321 0c0 0 -151.785 -239.397 -151.785 -239.397c0 0 -11.161 -17.299 -11.161 -17.299c0 0 0 -20.648 0 -20.648c0 0 0 -222.656 0 -222.656c0 0 -71.429 0 -71.429 0c0 0 0 222.656 0 222.656c0 0 0 20.648 0 20.648c0 0 -11.16 17.299 -11.16 17.299c0 0 -151.786 239.397 -151.786 239.397" />
  </g>
</svg>