<svg height="1000" width="1142.857" xmlns="http://www.w3.org/2000/svg"><path d="M142.848 571.456h964.224q14.508 0 25.11 10.602t10.602 25.11v249.984h-142.848v-142.848h-857.088v142.848h-142.848v-678.528q0 -14.508 10.602 -25.11t25.11 -10.602h71.424q14.508 0 25.11 10.602t10.602 25.11v392.832zm321.408 -178.56q0 -59.148 -41.85 -100.998t-100.998 -41.85 -100.998 41.85 -41.85 100.998 41.85 100.998 100.998 41.85 100.998 -41.85 41.85 -100.998zm678.528 142.848v-35.712q0 -88.722 -62.775 -151.497t-151.497 -62.775h-392.832q-14.508 0 -25.11 10.602t-10.602 25.11v214.272h642.816z"/></svg>