<svg height="1000px" width="928.5714285714286px" xmlns="http://www.w3.org/2000/svg">
  <g>
    <path d="M35.714285714285715 214.28571428571422c0 0 17.857 -71.429 17.857 -71.429c0 0 267.857 0 267.857 0c0 0 17.857 -71.428 17.857 -71.428c0 0 535.715 0 535.715 0c0 0 17.857 107.143 17.857 107.143c0 0 -35.714 17.857 -35.714 17.857c0 0 0 446.428 0 446.428c0 0 71.428 107.143 71.428 107.143c0 0 0 107.143 0 107.143c0 0 -642.857 0 -642.857 0c0 0 0 -107.143 0 -107.143c0 0 71.429 -107.143 71.429 -107.143c0 0 -54.13 0 -54.13 0c-78.497 0 -136.719 -19.066 -174.665 -57.198c-37.946 -38.133 -56.92 -96.633 -56.92 -175.502c0 0 0 -160.157 0 -160.157c0 0 -35.714 -35.714 -35.714 -35.714m178.571 160.714c0 16.741 0.372 30.878 1.117 42.411c0.744 11.533 2.139 22.042 4.185 31.529c2.046 9.487 4.743 16.927 8.091 22.321c3.349 5.395 7.627 10.324 12.835 14.788c5.208 4.465 11.44 7.348 18.694 8.65c7.255 1.302 15.625 2.697 25.112 4.185c9.487 1.488 20.275 1.953 32.366 1.395c12.091 -0.558 25.577 -0.651 40.458 -0.279c0 0 0 -214.285 0 -214.285c0 0 -142.858 0 -142.858 0c0 0 0 89.285 0 89.285c0 0 0 0 0 0" />
  </g>
</svg>