<svg height="1000px" width="928.5714285714286px" xmlns="http://www.w3.org/2000/svg">
  <g>
    <path d="M35.714285714285715 214.28571428571422c0 0 17.857 -71.429 17.857 -71.429c0 0 267.857 0 267.857 0c0 0 17.857 -71.428 17.857 -71.428c0 0 535.715 0 535.715 0c0 0 17.857 107.143 17.857 107.143c0 0 -35.714 17.857 -35.714 17.857c0 0 0 446.428 0 446.428c0 0 71.428 107.143 71.428 107.143c0 0 0 107.143 0 107.143c0 0 -642.857 0 -642.857 0c0 0 0 -107.143 0 -107.143c0 0 71.429 -107.143 71.429 -107.143c0 0 -54.13 0 -54.13 0c-78.497 0 -136.719 -19.066 -174.665 -57.198c-37.946 -38.133 -56.92 -96.633 -56.92 -175.502c0 0 0 -160.157 0 -160.157c0 0 -35.714 -35.714 -35.714 -35.714m178.571 160.714c0 49.851 4.465 81.846 13.393 95.982c8.185 13.393 17.299 21.02 27.344 22.88c10.045 1.86 19.81 3.534 29.297 5.022c6.899 1.082 14.487 1.624 22.764 1.624c3.104 0 6.304 -0.076 9.602 -0.229c7.254 -0.335 15.011 -0.502 23.27 -0.502c5.506 0 11.235 0.074 17.188 0.223c0 0 0 -214.285 0 -214.285c0 0 -142.858 0 -142.858 0c0 0 0 89.285 0 89.285c0 0 0 0 0 0" />
  </g>
</svg>