<svg height="1000px" width="928.5714285714286px" xmlns="http://www.w3.org/2000/svg">
  <g>
    <path d="M928.5714285714286 750c0 0 0 107.143 0 107.143c0 0 -642.857 0 -642.857 0c0 0 0 -107.143 0 -107.143c0 0 71.428 -107.143 71.428 -107.143c0 0 -54.129 0 -54.129 0c-78.497 0 -136.719 -19.066 -174.665 -57.199c-37.947 -38.132 -56.92 -96.633 -56.92 -175.502c0 0 0 -160.156 0 -160.156c0 0 -35.714 -35.714 -35.714 -35.714c0 0 17.857 -71.429 17.857 -71.429c0 0 267.857 0 267.857 0c0 0 17.857 -71.428 17.857 -71.428c0 0 535.715 0 535.715 0c0 0 17.857 107.142 17.857 107.142c0 0 -35.715 17.858 -35.715 17.858c0 0 0 446.428 0 446.428c0 0 71.429 107.143 71.429 107.143m-571.429 -250c0 0 0 -214.286 0 -214.286c0 0 -142.857 0 -142.857 0c0 0 0 89.286 0 89.286c0 49.851 4.465 81.845 13.393 95.982c8.185 13.393 17.299 21.019 27.344 22.88c10.045 1.86 19.81 3.534 29.297 5.022c9.486 1.488 20.275 1.953 32.366 1.395c12.091 -0.558 25.576 -0.651 40.457 -0.279c0 0 0 0 0 0" />
  </g>
</svg>