<svg height="1000" width="857.143" xmlns="http://www.w3.org/2000/svg"><path d="M0 767.872v-535.68q0 -66.402 47.151 -113.553t113.553 -47.151h535.68q66.402 0 113.553 47.151t47.151 113.553v535.68q0 66.402 -47.151 113.553t-113.553 47.151h-535.68q-66.402 0 -113.553 -47.151t-47.151 -113.553zm71.424 -52.452h213.156q65.286 0 109.926 -32.085t44.64 -95.139q0 -88.164 -79.794 -111.6 59.706 -29.016 59.706 -91.512 0 -31.806 -10.881 -53.847t-31.527 -33.759 -44.082 -16.461 -54.126 -4.743h-207.018v439.146zm96.534 -74.772v-121.086h105.462q69.192 0 69.192 63.054 0 58.032 -71.424 58.032h-103.23zm0 -186.93v-102.672h90.954q66.402 0 66.402 50.22 0 52.452 -59.148 52.452h-98.208zm299.646 103.23q0 75.33 44.082 121.086t118.854 45.756q114.39 0 148.986 -106.578h-77.004q-6.138 18.972 -26.505 30.132t-42.129 11.16q-37.944 0 -58.032 -21.204t-20.088 -59.706h229.338q.558 -5.58 .558 -16.74 0 -73.656 -41.571 -123.039t-113.553 -49.383q-71.424 0 -117.18 47.988t-45.756 120.528zm70.308 -208.134v-42.966h178.002v42.966h-178.002zm17.856 173.538q2.232 -31.248 21.762 -49.662t50.778 -18.414q63.054 0 69.192 68.076h-141.732z"/></svg>