<svg height="1000" width="1142.9" xmlns="http://www.w3.org/2000/svg"><path d="M1031.3 189.2H746.1v69.2h285.2v-69.2zM890.6 426.9q-50.2 0 -81.4 29.3t-34.6 79.5h227.6Q992.2 426.9 890.6 426.9zm9 326.4q35.1 0 68 -17.8t42.4 -48.6h123.4q-55.8 171.4 -238.3 171.4 -119.4 0 -190 -73.7T634.5 591q0 -116.1 72.8 -192.8t187.8 -76.8q77 0 134.2 38t85.4 99.9 28.2 138.4q0 9.4 -1.2 26.2H774.6q0 61.9 32 95.7t93 33.7zm-745 -27.9h165.2q114.4 0 114.4 -93.1 0 -100.5 -111.1 -100.5H154.6v193.6zm0 -299.6h156.8q43.5 0 68.9 -20.4t25.4 -63.3q0 -80.4 -106 -80.4H154.6v164.1zM0 141.7h331.5q48.5 0 86.5 7.9t70.6 26.5 50.2 53.8 17.6 85.9q0 101.1 -96 146.8 63.6 17.9 96 64.2t32.3 113.8q0 41.9 -13.6 76.2t-36.9 57.8 -54.9 39.6 -67.6 23.4 -74.7 7.3H0V141.7z"/></svg>