<svg height="1000" width="1142.857" xmlns="http://www.w3.org/2000/svg"><path d="M1031.184 189.226h-285.138v69.192h285.138v-69.192zm-140.616 237.708q-50.22 0 -81.468 29.295t-34.596 79.515h227.664q-10.044 -108.81 -111.6 -108.81zm8.928 326.43q35.154 0 68.076 -17.856t42.408 -48.546h123.318q-55.8 171.306 -238.266 171.306 -119.412 0 -189.999 -73.656t-70.587 -193.626q0 -116.064 72.819 -192.789t187.767 -76.725q77.004 0 134.199 37.944t85.374 99.882 28.179 138.384q0 9.486 -1.116 26.226h-367.164q0 61.938 32.085 95.697t92.907 33.759zm-744.93 -27.9h165.168q114.39 0 114.39 -93.186 0 -100.44 -111.042 -100.44h-168.516v193.626zm0 -299.646h156.798q43.524 0 68.913 -20.367t25.389 -63.333q0 -80.352 -106.02 -80.352h-145.08v164.052zm-154.566 -284.022h331.452q48.546 0 86.49 7.812t70.587 26.505 50.22 53.847 17.577 85.932q0 100.998 -95.976 146.754 63.612 17.856 95.976 64.17t32.364 113.832q0 41.85 -13.671 76.167t-36.828 57.753 -54.963 39.618 -67.518 23.436 -74.772 7.254h-340.938v-703.08z"/></svg>