<svg height="1000" width="857.1" xmlns="http://www.w3.org/2000/svg"><path d="M696.4 71.4q66.4 0 113.6 47.2t47.1 113.5v535.8q0 66.4 -47.1 113.5t-113.6 47.2H160.7q-66.4 0 -113.5 -47.2T0 767.9V232.1Q0 165.7 47.2 118.6T160.7 71.4h535.7zM278.5 276.2H71.4v439.2h213.2q65.3 0 109.9 -32.1t44.7 -95.1q0 -88.2 -79.8 -111.6 59.7 -29.1 59.7 -91.6 0 -31.8 -10.9 -53.8t-31.5 -33.8T332.6 281t-54.1 -4.8zm-12.3 177.5H168V351h90.9q66.4 0 66.4 50.2 0 52.5 -59.1 52.5zm5 186.9H168V519.5h105.4q69.2 0 69.2 63.1 0 58 -71.4 58zm362.7 17.9q-37.9 0 -58 -21.2t-20.1 -59.7h229.4q.5 -5.6 .5 -16.8 0 -73.6 -41.6 -123T630.6 388.4q-71.4 0 -117.2 48t-45.8 120.5q0 75.4 44.1 121.1t118.9 45.8q114.4 0 149 -106.6h-77q-6.2 19 -26.5 30.1t-42.2 11.2zm-5.6 -204.3q63.1 0 69.2 68.1H555.8q2.2 -31.2 21.8 -49.6t50.7 -18.5zM537.9 305.8H716v43H537.9v-43z"/></svg>