<svg height="1000" width="857.143" xmlns="http://www.w3.org/2000/svg"><path d="M696.384 71.488q66.402 0 113.553 47.151t47.151 113.553v535.68q0 66.402 -47.151 113.553t-113.553 47.151h-535.68q-66.402 0 -113.553 -47.151t-47.151 -113.553v-535.68q0 -66.402 47.151 -113.553t113.553 -47.151h535.68zm-417.942 204.786h-207.018v439.146h213.156q65.286 0 109.926 -32.085t44.64 -95.139q0 -88.164 -79.794 -111.6 59.706 -29.016 59.706 -91.512 0 -31.806 -10.881 -53.847t-31.527 -33.759 -44.082 -16.461 -54.126 -4.743zm-12.276 177.444h-98.208v-102.672h90.954q66.402 0 66.402 50.22 0 52.452 -59.148 52.452zm5.022 186.93h-103.23v-121.086h105.462q69.192 0 69.192 63.054 0 58.032 -71.424 58.032zm362.7 17.856q-37.944 0 -58.032 -21.204t-20.088 -59.706h229.338q.558 -5.58 .558 -16.74 0 -73.656 -41.571 -123.039t-113.553 -49.383q-71.424 0 -117.18 47.988t-45.756 120.528q0 75.33 44.082 121.086t118.854 45.756q114.39 0 148.986 -106.578h-77.004q-6.138 18.972 -26.505 30.132t-42.129 11.16zm-5.58 -204.228q63.054 0 69.192 68.076h-141.732q2.232 -31.248 21.762 -49.662t50.778 -18.414zm-90.396 -148.428h178.002v42.966h-178.002v-42.966z"/></svg>