<svg height="1000px" width="928.5714285714286px" xmlns="http://www.w3.org/2000/svg">
  <g>
    <path d="M928.5714285714286 785.7142857142857c0 19.345 -7.068 36.086 -21.205 50.223c-14.137 14.137 -30.878 21.206 -50.224 21.206c0 0 -250 0 -250 0c0 39.434 -13.95 73.102 -41.852 101.004c-27.902 27.902 -61.57 41.853 -101.005 41.853c-39.434 0 -73.102 -13.951 -101.004 -41.853c-27.902 -27.902 -41.853 -61.57 -41.853 -101.004c0 0 -250 0 -250 0c-19.345 0 -36.086 -7.069 -50.223 -21.206c-14.137 -14.137 -21.205 -30.878 -21.205 -50.223c70.684 -59.896 124.07 -133.836 160.156 -221.819c36.086 -87.984 54.129 -180.711 54.129 -278.181c0 -61.384 17.857 -110.119 53.572 -146.205c35.714 -36.087 84.821 -57.85 147.321 -65.291c-2.976 -6.324 -4.464 -15.067 -4.464 -26.227c0 -11.161 5.208 -21.95 15.625 -32.366c10.417 -10.417 23.065 -15.625 37.946 -15.625c14.881 0 27.53 5.208 37.947 15.625c10.416 10.416 15.625 21.205 15.625 32.366c0 11.16 -1.488 19.903 -4.465 26.227c62.5 7.441 111.608 29.204 147.322 65.291c35.714 36.086 53.571 84.821 53.571 146.205c0 97.47 18.043 190.197 54.13 278.181c36.086 87.983 89.471 161.923 160.156 221.819c0 0 0 0 0 0m-826.451 0c0 0 724.33 0 724.33 0c-61.011 -67.336 -106.863 -143.88 -137.555 -229.632c-30.692 -85.751 -46.038 -176.06 -46.038 -270.926c0 -94.866 -59.524 -142.299 -178.572 -142.299c-119.047 0 -178.571 47.433 -178.571 142.299c0 94.866 -15.346 185.175 -46.038 270.926c-30.692 85.752 -76.544 162.296 -137.556 229.632c0 0 0 0 0 0m371.094 160.714c0 -5.952 -2.976 -8.928 -8.929 -8.928c-21.949 0 -40.829 -7.906 -56.64 -23.717c-15.811 -15.811 -23.717 -34.691 -23.717 -56.64c0 -5.953 -2.976 -8.929 -8.928 -8.929c-5.953 0 -8.929 2.976 -8.929 8.929c0 27.157 9.58 50.316 28.739 69.475c19.159 19.159 42.318 28.739 69.475 28.739c5.953 0 8.929 -2.976 8.929 -8.929c0 0 0 0 0 0" />
  </g>
</svg>