<svg height="1000" width="928.6" xmlns="http://www.w3.org/2000/svg"><path d="M0 785.7q106-89.8 160.1-221.8t54.1-278.2q0-92.1 53.6-146.2t147.3-65.3q-4.5-10-4.5-20.6 0-22.3 15.6-37.9t37.9-15.6 37.9 15.6 15.6 37.9q0 10.6-4.5 20.6 93.7 11.2 147.3 65.3t53.6 146.2q0 146.2 54.1 278.2t160.1 221.8q0 29-21.2 50.2t-50.2 21.2h-250q0 59.1-41.9 101t-101 41.9-101-41.9-41.9-101h-250q-29 0-50.2-21.2t-21.2-50.2zm102.1 0h724.3q-91.5-101-137.5-229.6t-46-270.4q0-142.8-178.6-142.8t-178.6 142.8q0 141.7-46 270.4t-137.5 229.6zm263.9 71.4q0 40.7 28.7 69.5t69.5 28.7q8.9 0 8.9-8.9t-8.9-8.9q-32.9 0-56.6-23.7t-23.7-56.6q0-8.9-8.9-8.9t-8.9 8.9z"/></svg>