<svg height="1000" width="928.571" xmlns="http://www.w3.org/2000/svg"><path d="M473.184 946.432q0 -8.928 -8.928 -8.928 -32.922 0 -56.637 -23.715t-23.715 -56.637q0 -8.928 -8.928 -8.928t-8.928 8.928q0 40.734 28.737 69.471t69.471 28.737q8.928 0 8.928 -8.928zm-371.07 -160.704h724.284q-91.512 -100.998 -137.547 -229.617t-46.035 -270.351q0 -142.848 -178.56 -142.848t-178.56 142.848q0 141.732 -46.035 270.351t-137.547 229.617zm826.398 0q0 29.016 -21.204 50.22t-50.22 21.204h-249.984q0 59.148 -41.85 100.998t-100.998 41.85 -100.998 -41.85 -41.85 -100.998h-249.984q-29.016 0 -50.22 -21.204t-21.204 -50.22q106.02 -89.838 160.146 -221.805t54.126 -278.163q0 -92.07 53.568 -146.196t147.312 -65.286q-4.464 -10.044 -4.464 -20.646 0 -22.32 15.624 -37.944t37.944 -15.624 37.944 15.624 15.624 37.944q0 10.602 -4.464 20.646 93.744 11.16 147.312 65.286t53.568 146.196q0 146.196 54.126 278.163t160.146 221.805z"/></svg>