<svg height="1000px" width="928.5714285714286px" xmlns="http://www.w3.org/2000/svg">
  <g>
    <path d="M0 785.7142857142857c70.685 -59.896 124.07 -133.836 160.156 -221.819c36.087 -87.984 54.13 -180.711 54.13 -278.181c0 -61.384 17.857 -110.119 53.571 -146.205c35.714 -36.087 84.822 -57.85 147.322 -65.291c-2.977 -6.324 -4.465 -15.067 -4.465 -26.227c0 -11.161 5.209 -21.95 15.625 -32.366c10.417 -10.417 23.066 -15.625 37.947 -15.625c14.881 0 27.529 5.208 37.946 15.625c10.417 10.416 15.625 21.205 15.625 32.366c0 11.16 -1.488 19.903 -4.464 26.227c62.5 7.441 111.607 29.204 147.321 65.291c35.715 36.086 53.572 84.821 53.572 146.205c0 97.47 18.043 190.197 54.129 278.181c36.086 87.983 89.472 161.923 160.156 221.819c0 19.345 -7.068 36.086 -21.205 50.223c-14.137 14.137 -30.878 21.206 -50.223 21.206c0 0 -250 0 -250 0c0 39.434 -13.951 73.102 -41.853 101.004c-27.902 27.902 -61.57 41.853 -101.004 41.853c-39.435 0 -73.103 -13.951 -101.005 -41.853c-27.902 -27.902 -41.852 -61.57 -41.852 -101.004c0 0 -250 0 -250 0c-19.346 0 -36.087 -7.069 -50.224 -21.206c-14.137 -14.137 -21.205 -30.878 -21.205 -50.223c0 0 0 0 0 0m366.071 71.429c0 27.157 9.58 50.316 28.739 69.475c19.159 19.159 42.318 28.739 69.476 28.739c5.952 0 8.928 -2.976 8.928 -8.929c0 -5.952 -2.976 -8.928 -8.928 -8.928c-21.95 0 -40.83 -7.906 -56.641 -23.717c-15.811 -15.811 -23.716 -34.691 -23.716 -56.64c0 -5.953 -2.977 -8.929 -8.929 -8.929c-5.952 0 -8.929 2.976 -8.929 8.929c0 0 0 0 0 0" />
  </g>
</svg>