<svg height="1000" width="1142.857" xmlns="http://www.w3.org/2000/svg"><path d="M869.364 475.48q34.038 198.648 166.284 310.248 0 29.016 -21.204 50.22t-50.22 21.204h-249.984q0 59.148 -41.85 100.998t-100.998 41.85 -100.719 -41.571 -42.129 -100.719zm-297.972 479.88q8.928 0 8.928 -8.928t-8.928 -8.928q-32.922 0 -56.637 -23.715t-23.715 -56.637q0 -8.928 -8.928 -8.928t-8.928 8.928q0 40.734 28.737 69.471t69.471 28.737zm559.116 -892.8q4.464 5.58 4.185 13.113t-5.859 12.555l-1044.576 905.076q-5.58 4.464 -13.113 3.906t-11.997 -6.138l-46.872 -53.568q-4.464 -5.58 -4.185 -13.113t5.859 -11.997l103.788 -89.838q-10.602 -17.856 -10.602 -36.828 27.9 -23.436 50.778 -49.104t47.43 -66.681 41.571 -88.443 27.9 -114.948 10.881 -145.08q0 -84.816 65.286 -157.635t171.306 -88.443q-4.464 -10.602 -4.464 -21.762 0 -22.32 15.624 -37.944t37.944 -15.624 37.944 15.624 15.624 37.944q0 11.16 -4.464 21.762 69.192 10.044 122.202 46.035t82.584 87.885l233.244 -202.554q5.58 -4.464 13.113 -3.906t11.997 6.138z"/></svg>