<svg height="1000" width="1142.9" xmlns="http://www.w3.org/2000/svg"><path d="M869.4 475.4q34.1 198.7 166.3 310.3 0 29 -21.2 50.2t-50.2 21.2h-250q0 59.2 -41.9 101t-101 41.9T470.7 958.4 428.6 857.7zm-298 480q9 0 9 -9t-9 -8.9q-32.9 0 -56.6 -23.7t-23.7 -56.7q0 -8.9 -9 -8.9t-8.9 8.9q0 40.8 28.8 69.5t69.4 28.8zM1130.6 62.5q4.4 5.6 4.2 13.1t-5.9 12.6L84.3 993.3q-5.6 4.5 -13.2 3.9t-11.9 -6.1L12.3 937.5Q7.8 931.9 8.1 924.4t5.9 -12l103.7 -89.9q-10.6 -17.8 -10.6 -36.8 27.9 -23.4 50.8 -49.1t47.5 -66.7 41.5 -88.4 27.9 -115 10.9 -145.1q0 -84.8 65.3 -157.6T522.3 75.3q-4.4 -10.6 -4.4 -21.7 0 -22.4 15.6 -38T571.4 0t38 15.6 15.6 38q0 11.1 -4.5 21.7 69.2 10.1 122.2 46.1t82.6 87.9L1058.6 6.7q5.6 -4.5 13.1 -3.9t12 6.1z"/></svg>