<svg height="1000" width="1000" xmlns="http://www.w3.org/2000/svg"><path d="M508.896 946.432q0 -8.928 -8.928 -8.928 -32.922 0 -56.637 -23.715t-23.715 -56.637q0 -8.928 -8.928 -8.928t-8.928 8.928q0 40.734 28.737 69.471t69.471 28.737q8.928 0 8.928 -8.928zm455.328 -160.704q0 29.016 -21.204 50.22t-50.22 21.204h-249.984q0 59.148 -41.85 100.998t-100.998 41.85 -100.998 -41.85 -41.85 -100.998h-249.984q-29.016 0 -50.22 -21.204t-21.204 -50.22q27.9 -23.436 50.778 -49.104t47.43 -66.681 41.571 -88.443 27.9 -114.948 10.881 -145.08q0 -84.816 65.286 -157.635t171.306 -88.443q-4.464 -10.602 -4.464 -21.762 0 -22.32 15.624 -37.944t37.944 -15.624 37.944 15.624 15.624 37.944q0 11.16 -4.464 21.762 106.02 15.624 171.306 88.443t65.286 157.635q0 77.562 10.881 145.08t27.9 114.948 41.571 88.443 47.43 66.681 50.778 49.104z"/></svg>