<svg height="1000" width="1285.7" xmlns="http://www.w3.org/2000/svg"><path d="M425.2 642.9H250q-22.3 0 -32.1 -19.6t3.6 -37.4l105 -140Q290.2 428.6 250 428.6q-73.7 0 -126.1 52.4T71.4 607.1t52.5 126.2T250 785.7q64.2 0 113.3 -40.4t61.9 -102.4zM321.4 571.4h103.8q-10 -47.4 -41.8 -82.6zm267.9 0L750 357.1H482.1l-55.2 73.7q58.6 57.5 70.3 140.6h92.1zm625 35.7q0 -73.6 -52.5 -126.1t-126.1 -52.4q-33.5 0 -67.5 13.4l97.1 145.1q8.4 12.8 5.6 27.3t-15.1 22.3q-8.4 6.2 -20.1 6.2 -19.5 0 -29.6 -16.2L909 481.6q-51.9 53 -51.9 125.5 0 73.7 52.5 126.2t126.1 52.4 126.1 -52.4 52.5 -126.2zm71.4 0q0 103.3 -73.4 176.7t-176.6 73.3T859.1 783.8 785.7 607.1q0 -54.1 22.1 -102.4t61.1 -83.4l-36.3 -54.7 -197 261.7q-10 14.6 -28.5 14.6H497.2q-12.8 91.5 -83.1 152.9T250 857.1q-103.2 0 -176.6 -73.3T0 607.1 73.4 430.5 250 357.1q63.6 0 120 30.7l76.4 -102.1h-125q-14.5 0 -25.1 -10.6T285.7 250t10.6 -25.1 25.1 -10.6h214.3v71.4h242.8L731 214.3H607.1q-14.5 0 -25.1 -10.6t-10.6 -25.1T582 153.5t25.1 -10.6H750q18.4 0 29.6 15.6l149 223.2q50.8 -24.6 107.1 -24.6 103.3 0 176.6 73.4t73.4 176.6z"/></svg>