<svg height="1000" width="1285.714" xmlns="http://www.w3.org/2000/svg"><path d="M425.196 642.88h-175.212q-22.32 0 -32.085 -19.53t3.627 -37.386l104.904 -140.058q-36.27 -17.298 -76.446 -17.298 -73.656 0 -126.108 52.452t-52.452 126.108 52.452 126.108 126.108 52.452q64.17 0 113.274 -40.455t61.938 -102.393zm-103.788 -71.424h103.788q-10.044 -47.43 -41.85 -82.584zm267.84 0l160.704 -214.272h-267.84l-55.242 73.656q58.59 57.474 70.308 140.616h92.07zm624.96 35.712q0 -73.656 -52.452 -126.108t-126.108 -52.452q-33.48 0 -67.518 13.392l97.092 145.08q8.37 12.834 5.58 27.342t-15.066 22.32q-8.37 6.138 -20.088 6.138 -19.53 0 -29.574 -16.182l-97.092 -145.08q-51.894 53.01 -51.894 125.55 0 73.656 52.452 126.108t126.108 52.452 126.108 -52.452 52.452 -126.108zm71.424 0q0 103.23 -73.377 176.607t-176.607 73.377 -176.607 -73.377 -73.377 -176.607q0 -54.126 22.041 -102.393t61.101 -83.421l-36.27 -54.684 -196.974 261.702q-10.044 14.508 -28.458 14.508h-109.926q-12.834 91.512 -83.142 152.892t-164.052 61.38q-103.23 0 -176.607 -73.377t-73.377 -176.607 73.377 -176.607 176.607 -73.377q63.612 0 119.97 30.69l76.446 -102.114h-124.992q-14.508 0 -25.11 -10.602t-10.602 -25.11 10.602 -25.11 25.11 -10.602h214.272v71.424h242.73l-47.43 -71.424h-123.876q-14.508 0 -25.11 -10.602t-10.602 -25.11 10.602 -25.11 25.11 -10.602h142.848q18.414 0 29.574 15.624l148.986 223.2q50.778 -24.552 107.136 -24.552 103.23 0 176.607 73.377t73.377 176.607z"/></svg>