<svg height="1000" width="1000" xmlns="http://www.w3.org/2000/svg"><path d="M392.832 178.624v428.544q0 14.508 -10.602 25.11t-25.11 10.602v321.408q0 14.508 -10.602 25.11t-25.11 10.602h-285.696q-14.508 0 -25.11 -10.602t-10.602 -25.11v-285.696l138.942 -487.134q3.906 -12.834 17.298 -12.834h236.592zm178.56 0v392.832h-142.848v-392.832h142.848zm428.544 499.968v285.696q0 14.508 -10.602 25.11t-25.11 10.602h-285.696q-14.508 0 -25.11 -10.602t-10.602 -25.11v-321.408q-14.508 0 -25.11 -10.602t-10.602 -25.11v-428.544h236.592q13.392 0 17.298 12.834zm-589.248 -660.672v124.992h-196.416v-124.992q0 -7.812 5.022 -12.834t12.834 -5.022h160.704q7.812 0 12.834 5.022t5.022 12.834zm374.976 0v124.992h-196.416v-124.992q0 -7.812 5.022 -12.834t12.834 -5.022h160.704q7.812 0 12.834 5.022t5.022 12.834z"/></svg>