<svg height="1000" width="1000" xmlns="http://www.w3.org/2000/svg"><path d="M392.9 178.6v428.5q0 14.6 -10.6 25.2t-25.2 10.6v321.4q0 14.5 -10.6 25.1t-25.1 10.6H35.7q-14.5 0 -25.1 -10.6T0 964.3V678.6L139 191.4q3.9 -12.8 17.3 -12.8h236.6zm178.5 0v392.8H428.6V178.6h142.8zm428.6 500v285.7q0 14.5 -10.6 25.1t-25.1 10.6H678.6q-14.5 0 -25.1 -10.6t-10.6 -25.1V642.9q-14.6 0 -25.2 -10.6t-10.6 -25.2V178.6h236.7q13.3 0 17.2 12.8zM410.7 17.9v125H214.3v-125q0 -7.9 5 -12.9t12.8 -5h160.8q7.8 0 12.8 5t5 12.9zm375 0v125H589.3v-125q0 -7.9 5 -12.9t12.8 -5h160.8q7.8 0 12.8 5t5 12.9z"/></svg>