<svg height="1000" width="1000" xmlns="http://www.w3.org/2000/svg"><path d="M999.936 785.728v214.272h-999.936v-214.272q25.11 0 47.43 -7.812t32.922 -15.345 26.226 -20.925q16.74 -15.066 28.737 -21.204t31.527 -6.138 30.969 6.138 29.295 21.204q16.182 13.95 26.226 21.204t32.364 15.066 47.988 7.812q25.11 0 47.43 -8.091t32.364 -15.066 26.784 -20.925q11.718 -10.602 18.135 -15.066t17.298 -8.37 24.273 -3.906q19.53 0 31.527 6.138t28.737 21.204q15.624 13.392 26.226 20.925t32.922 15.345 47.43 7.812 47.43 -7.812 32.922 -15.345 26.226 -20.925q16.74 -15.066 28.737 -21.204t31.527 -6.138q18.972 0 30.969 6.138t28.737 21.204q15.624 13.392 26.226 20.925t32.922 15.345 47.43 7.812zm0 -178.56v107.136q-19.53 0 -30.969 -6.138t-29.295 -21.204q-16.182 -13.95 -26.226 -21.204t-32.364 -15.066 -47.43 -7.812q-25.668 0 -47.988 7.812t-32.364 15.066 -26.226 21.204q-12.276 10.602 -18.414 15.066t-17.298 8.37 -24.552 3.906q-19.53 0 -31.527 -6.138t-28.737 -21.204q-16.182 -13.95 -26.226 -21.204t-32.364 -15.066 -47.988 -7.812q-25.11 0 -47.43 8.091t-32.364 15.066 -26.784 20.925q-11.718 10.602 -18.135 15.066t-17.298 8.37 -24.273 3.906q-19.53 0 -31.527 -6.138t-28.737 -21.204q-15.624 -13.392 -26.226 -20.925t-32.922 -15.345 -47.43 -7.812q-25.668 0 -47.988 7.812t-32.364 15.066 -26.226 21.204q-16.74 15.066 -28.737 21.204t-31.527 6.138v-107.136q0 -44.64 31.248 -75.888t75.888 -31.248h35.712v-249.984h142.848v249.984h142.848v-249.984h142.848v249.984h142.848v-249.984h142.848v249.984h35.712q44.64 0 75.888 31.248t31.248 75.888zm-714.24 -482.112q0 42.966 -20.088 66.123t-51.336 23.157q-29.574 0 -50.499 -20.925t-20.925 -50.499q0 -16.182 5.301 -28.458t13.113 -18.972 17.298 -15.624 17.298 -17.577 13.113 -24.831 5.301 -37.386q21.204 0 46.314 41.292t25.11 83.7zm285.696 0q0 42.966 -20.088 66.123t-51.336 23.157q-29.574 0 -50.499 -20.925t-20.925 -50.499q0 -16.182 5.301 -28.458t13.113 -18.972 17.298 -15.624 17.298 -17.577 13.113 -24.831 5.301 -37.386q21.204 0 46.314 41.292t25.11 83.7zm285.696 0q0 42.966 -20.088 66.123t-51.336 23.157q-29.574 0 -50.499 -20.925t-20.925 -50.499q0 -16.182 5.301 -28.458t13.113 -18.972 17.298 -15.624 17.298 -17.577 13.113 -24.831 5.301 -37.386q21.204 0 46.314 41.292t25.11 83.7z"/></svg>