<svg height="1000" width="785.7" xmlns="http://www.w3.org/2000/svg"><path d="M454.8 479.4q4.5 35.1 -28.2 56.3t-62.2 3.4q-21.8 -9.5 -29.9 -32.4t-.2 -45.8 29 -32.3q20.1 -10.1 40.4 -6.7t35.8 19.8 15.3 37.7zm61.9 -11.8q-7.8 -59.7 -63 -91.5t-109.9 -7.2q-35.2 15.6 -56.1 49.3t-19.3 72.3q2.2 50.8 43.3 86.5t92.3 31.3q50.8 -4.5 84.8 -46.9t27.9 -93.8zM650.1 165.2Q639 150.1 618.9 140.3t-32.4 -12.2 -39.6 -7Q384.5 94.9 231 122.2q-24 3.9 -36.8 6.7t-30.7 12.3 -27.9 24q16.7 15.6 42.4 25.4t41 12.2 48.9 6.5q127.2 16.1 250 .5 35.1 -4.4 49.9 -6.7t40.5 -12 41.8 -25.9zm31.8 577.5q-4.4 14.6 -8.6 42.7t-7.8 46.9 -15.9 39.1 -32.4 31.5q-48 26.8 -105.8 39.9t-112.7 12.3T286.3 944.8q-25.7 -4.5 -45.5 -10.1t-42.7 -15.1 -40.7 -24.2T128.3 861Q114.4 807.5 96.5 698.1l3.4 -8.9 10 -5q124.5 82.5 282.7 82.5t283.2 -82.5q11.7 3.3 13.4 12.8t-2.8 25.1 -4.5 20.6zm101 -536.2Q768.4 299.7 721 572q-2.8 16.7 -15.1 31.2t-24.3 22.4 -30.4 17.3Q510.6 713.2 310.8 692 172.4 676.9 91 614.4q-8.4 -6.7 -14.3 -14.8t-9.5 -19.5 -5 -19 -3.3 -22 -3.1 -19.6Q50.8 491.6 41 435.8T25.4 345.7 12.3 263.4 0 175.2q1.7 -14.5 9.8 -27t17.5 -21 25.2 -16.7T78.1 97.9t26.8 -10.3Q174.7 61.9 279.6 51.9 491.1 31.2 656.8 79.8q86.5 25.7 120 68.1 8.9 11.1 9.2 28.4t-3.1 30.2z"/></svg>