<svg height="1000" width="857.143" xmlns="http://www.w3.org/2000/svg"><path d="M473.184 485.524q0 -23.994 -22.878 -36.828t-42.966 -.558q-23.994 11.16 -23.715 40.455t24.273 39.339q21.762 12.834 45.198 -2.232t20.088 -40.176zm44.64 -8.928q4.464 36.828 -20.088 67.518t-61.38 34.038 -66.402 -22.32 -31.248 -63.054q-1.116 -27.342 14.229 -51.894t40.455 -35.712q39.06 -17.298 78.957 5.58t45.477 65.844zm95.976 -218.178q-11.16 11.718 -29.853 18.972t-29.574 8.928 -35.433 4.464q-86.49 11.16 -180.792 0 -24.552 -3.348 -35.154 -5.301t-29.295 -8.928 -30.411 -18.135q7.254 -10.602 20.088 -17.298t22.32 -8.649 26.226 -4.743q110.484 -19.53 227.664 -.558 18.414 2.79 28.458 4.743t23.994 8.928 21.762 17.577zm23.436 416.268q0 -3.906 3.069 -14.787t1.674 -17.856 -9.765 -9.207q-89.838 59.148 -203.67 59.148t-204.228 -59.148l-6.696 3.348 -2.79 6.696q14.508 85.932 22.878 117.18 26.226 45.198 113.832 60.264 138.942 25.668 238.824 -29.574 18.972 -10.602 27.342 -28.737t12.555 -47.709 6.975 -39.618zm72.54 -386.694q5.022 -29.574 -4.464 -41.85 -23.994 -30.69 -86.49 -49.104 -120.528 -35.154 -271.746 -20.088 -73.656 6.696 -126.108 25.668 -21.204 8.37 -33.201 13.95t-26.226 18.972 -16.461 30.132q4.464 37.944 10.602 77.004t16.182 95.418 13.392 76.446q.558 2.79 2.79 17.298t3.906 20.088 6.696 15.066 12.276 15.624q58.59 44.64 158.472 55.8 144.522 15.624 245.52 -35.154 13.392 -7.254 22.041 -12.834t17.298 -16.182 10.881 -22.32q26.784 -148.986 44.64 -263.934zm147.312 -55.8v535.68q0 66.402 -47.151 113.553t-113.553 47.151h-535.68q-66.402 0 -113.553 -47.151t-47.151 -113.553v-535.68q0 -66.402 47.151 -113.553t113.553 -47.151h535.68q66.402 0 113.553 47.151t47.151 113.553z"/></svg>