<svg height="1000" width="714.3" xmlns="http://www.w3.org/2000/svg"><path d="M651.2 357.1q10.1 101.6 -73.1 144 65.3 15.6 97.7 57.5T700.9 678q-3.9 39.6 -18.1 69.8t-36 49.6 -54.2 32.7 -67.8 19.2 -81.2 8.4V1000h-85.9V859.9q-44.6 0 -68.1 -.5V1000h-85.9V857.7q-10.1 0 -30.2 -.3t-30.6 -.3H31.2L48.5 755h62q27.9 0 32.4 -28.4V502.2h8.9q-3.4 -.5 -8.9 -.5V341.5q-7.3 -37.9 -49.7 -37.9h-62v-91.5l118.4 .5q35.7 0 54.1 -.5V71.4h85.9v137.9q45.8 -1.2 68.1 -1.2V71.4h85.9v140.7q44.1 3.9 78.2 12.5t63 25.1 46.1 43.5 20.3 63.9zM531.3 661.3q0 -20.1 -8.4 -35.7t-20.7 -25.7 -32.1 -17 -36.5 -10.4 -41.3 -5 -38.5 -1.7 -36 .6 -26.5 .6v188.6q4.5 0 20.6 .3t26.8 .2 29.6 -.8 32.6 -2.2 31.9 -4.8 30.9 -7.8 26.5 -11.7 22.1 -16.7 13.6 -22.4 5.4 -28.4zM491.6 395.6q0 -18.4 -6.9 -32.6t-17.1 -23.4 -26.8 -15.7 -30.6 -9.2 -34.4 -4.4 -32.3 -1.4 -30.2 .5 -22 .3V481q2.8 0 19.2 .3t26 0 27.9 -1.1 30.7 -3.1 28.7 -6.1 27.1 -10.3 20.6 -15.1 15.1 -21.5 5 -28.5z"/></svg>