<svg height="1000" width="714.286" xmlns="http://www.w3.org/2000/svg"><path d="M651.186 357.184q10.044 101.556 -73.098 143.964 65.286 15.624 97.65 57.474t25.11 119.412q-3.906 39.618 -18.135 69.75t-35.991 49.662 -54.126 32.643 -67.797 19.251 -81.189 8.37v142.29h-85.932v-140.058q-44.64 0 -68.076 -.558v140.616h-85.932v-142.29q-10.044 0 -30.132 -.279t-30.69 -.279h-111.6l17.298 -102.114h61.938q27.9 0 32.364 -28.458v-224.316h8.928q-3.348 -.558 -8.928 -.558v-160.146q-7.254 -37.944 -49.662 -37.944h-61.938v-91.512l118.296 .558q35.712 0 54.126 -.558v-140.616h85.932v137.826q45.756 -1.116 68.076 -1.116v-136.71h85.932v140.616q44.082 3.906 78.12 12.555t63.054 25.11 46.035 43.524 20.367 63.891zm-119.97 304.11q0 -20.088 -8.37 -35.712t-20.646 -25.668 -32.085 -17.019 -36.549 -10.323 -41.292 -5.022 -38.502 -1.674 -35.991 .558 -26.505 .558v188.604q4.464 0 20.646 .279t26.784 .279 29.574 -.837 32.643 -2.232 31.806 -4.743 30.969 -7.812 26.505 -11.718 22.041 -16.74 13.671 -22.32 5.301 -28.458zm-39.618 -265.608q0 -18.414 -6.975 -32.643t-17.019 -23.436 -26.784 -15.624 -30.69 -9.207 -34.317 -4.464 -32.364 -1.395 -30.132 .558 -22.041 .279v171.306q2.79 0 19.251 .279t25.947 0 27.9 -1.116 30.69 -3.069 28.737 -6.138 27.063 -10.323 20.646 -15.066 15.066 -21.483 5.022 -28.458z"/></svg>