<svg height="1000" width="785.7" xmlns="http://www.w3.org/2000/svg"><path d="M204.2 173.5q-35.7 0 -61.3 -25.3T117.2 86.5q0 -35.7 25.7 -61.1T204.2 0t61.1 25.4 25.4 61.1q0 36.3 -25.4 61.7t-61.1 25.3zm307.5 358.3q0 27.9 -16.7 37.7t-35.5 3.6 -26.5 -19L228.2 309.7q-3.9 -6.7 -7.8 -8.6t-6.1 -.9l-1.7 1.7q-3.9 4.5 2.2 11.7l68.1 77.6 .6 197.5 -89.9 255.1q-37.4 107.1 -51.3 130.5 -8.9 14.5 -15.6 17.9 -27.9 14.5 -57.5 .5Q53 985.5 46 968.8t-5.3 -31.9q1.2 -9.4 110 -344.8l2.8 -232.2L106 451.5l19.6 123.8q2.2 13.4 -.6 23.5t-7.8 15.3 -10.6 8.9 -9.5 4.2l-3.9 1.1Q82.6 630 73.9 626.7t-13.4 -9 -7.8 -12.2 -4.2 -10.9 -1.1 -5.3L21.8 422.4 139.5 209.8q12.8 -19 63.1 -19 41.8 0 59.7 22.4l236.6 290.7q3.9 2.8 7.8 9.5l1.7 1.7 -.6 .5q3.9 7.3 3.9 16.2zm-224.9 83.7q24 63.1 49.4 125.6t38.8 93.7l13.4 30.7q20.1 51.9 23.4 69.8 6.2 39 -20.1 54.1 -19.5 12.3 -36.8 8.9T326.5 986t-16.2 -19.5h-.6q-3.3 -8.9 -4.5 -13.9L236 756.7zm459.9 330.4q17.3 27.3 17.3 31.8 0 2.8 -1.7 3.9 -5 2.8 -8.1 -.3t-8.7 -14.5 -8.9 -17q-63.6 -96 -236 -368.9 1.6 .6 3.9 -.5t3.9 -2.3L510 577q6.2 -5 6.2 -9.5z"/></svg>