<svg height="1000" width="857.143" xmlns="http://www.w3.org/2000/svg"><path d="M732.096 498.358q0 -89.838 -48.546 -164.61l-420.732 420.174q76.446 49.662 165.726 49.662 61.938 0 118.017 -24.273t96.813 -65.007 64.728 -97.371 23.994 -118.575zm-557.442 166.842l421.29 -420.732q-75.33 -50.778 -167.4 -50.778 -82.584 0 -152.334 40.734t-110.484 111.042 -40.734 152.892q0 90.396 49.662 166.842zm682.434 -166.842q0 87.606 -34.038 167.4t-91.233 137.268 -136.71 91.512 -166.563 34.038 -166.563 -34.038 -136.71 -91.512 -91.233 -137.268 -34.038 -167.4 34.038 -167.121 91.233 -136.989 136.71 -91.512 166.563 -34.038 166.563 34.038 136.71 91.512 91.233 136.989 34.038 167.121z"/></svg>