<svg height="1000" width="857.143" xmlns="http://www.w3.org/2000/svg"><path d="M0 500.032q0 -116.622 57.474 -215.109t155.961 -155.961 215.109 -57.474 215.109 57.474 155.961 155.961 57.474 215.109 -57.474 215.109 -155.961 155.961 -215.109 57.474 -215.109 -57.474 -155.961 -155.961 -57.474 -215.109zm142.848 0q0 77.562 39.618 145.08l391.158 -391.158q-67.518 -39.618 -145.08 -39.618 -58.032 0 -110.763 22.599t-91.233 61.101 -61.101 91.233 -22.599 110.763zm140.616 246.078q67.518 39.618 145.08 39.618 58.032 0 110.763 -22.599t91.233 -61.101 61.101 -91.233 22.599 -110.763q0 -77.562 -39.618 -145.08z"/></svg>