<svg height="1000px" width="779.78515625px" xmlns="http://www.w3.org/2000/svg">
  <g>
    <path d="M0 500c0 -54.036 10.173 -104.736 30.518 -152.1c20.345 -47.363 48.177 -88.704 83.496 -124.023c35.319 -35.319 76.66 -63.151 124.023 -83.496c47.363 -20.345 98.063 -30.518 152.1 -30.518c54.036 0 104.655 10.173 151.855 30.518c47.201 20.345 88.542 48.177 124.024 83.496c35.481 35.319 63.313 76.66 83.496 124.023c20.182 47.364 30.273 98.064 30.273 152.1c0 54.036 -10.091 104.736 -30.273 152.1c-20.183 47.363 -48.015 88.704 -83.496 124.023c-35.482 35.319 -76.823 63.151 -124.024 83.496c-47.2 20.345 -97.819 30.518 -151.855 30.518c-54.037 0 -104.737 -10.173 -152.1 -30.518c-47.363 -20.345 -88.704 -48.177 -124.023 -83.496c-35.319 -35.319 -63.151 -76.66 -83.496 -124.023c-20.345 -47.364 -30.518 -98.064 -30.518 -152.1c0 0 0 0 0 0m117.188 0c0 27.344 3.824 53.385 11.474 78.125c7.65 24.74 18.473 47.689 32.471 68.848c0 0 375.976 -375.977 375.976 -375.977c-21.484 -13.997 -44.515 -24.821 -69.091 -32.471c-24.577 -7.649 -50.538 -11.474 -77.881 -11.474c-38.086 0 -73.649 7.161 -106.69 21.484c-33.04 14.323 -61.849 33.854 -86.426 58.594c-24.576 24.739 -44.026 53.548 -58.349 86.426c-14.323 32.877 -21.484 68.359 -21.484 106.445c0 0 0 0 0 0m125.976 229.98c21.484 13.347 44.515 23.845 69.092 31.495c24.577 7.649 50.537 11.474 77.881 11.474c38.086 0 73.567 -7.161 106.445 -21.484c32.878 -14.323 61.686 -33.854 86.426 -58.594c24.739 -24.739 44.271 -53.548 58.594 -86.426c14.322 -32.877 21.484 -68.359 21.484 -106.445c0 -27.344 -3.825 -53.385 -11.475 -78.125c-7.649 -24.74 -18.147 -47.689 -31.494 -68.848c0 0 -376.953 376.953 -376.953 376.953" />
  </g>
</svg>