<svg height="1000" width="857.1" xmlns="http://www.w3.org/2000/svg"><path d="M469.3 587.6l82.6 82.6 -83.1 83.1zm-.5 -340.9l83.1 83.1 -82.6 82.6zm-72.6 683L655.1 670.8 484.4 500 655.1 329.2 396.2 70.3v341L253.9 269 202 320.9 380.6 500 202 679.1l51.9 51.9L396.2 588.7v341zM797.4 500q0 116.6 -17.8 204t-48.9 143.4 -78.4 90.7 -101.2 48.2T428.6 1000 306.1 986.3 204.8 938.1t-78.4 -90.7T77.6 704 59.7 500 77.6 296t48.8 -143.4 78.4 -90.7T306.1 13.7 428.6 0t122.5 13.7 101.2 48.2 78.4 90.7T779.6 296t17.8 204z"/></svg>