<svg height="1000" width="785.7" xmlns="http://www.w3.org/2000/svg"><path d="M309.7 848.8q41.3 17.8 78.1 17.8 209.9 0 209.9 -186.9 0 -63.6 -22.9 -100.5 -15.1 -24.5 -34.3 -41.3T502.8 512t-44.9 -14T411 492.2t-52.7 -1.1q-40.8 0 -56.4 5.6 0 29.5 -.3 88.7t-.3 88.1q0 4.5 -.5 37.7t-.3 53.9 2.5 46.6 6.7 37.1zm-7.8 -416.3q23.4 3.9 60.8 3.9 45.8 0 79.8 -7.3t61.4 -24.8 41.6 -49.9 14.2 -79.3q0 -39.1 -16.2 -68.3T499.4 161t-60.2 -24.3T370 128.9q-27.9 0 -72.6 7.3 0 27.9 2.3 84.2t2.2 84.8q0 15.1 -.3 44.7t-.3 44.1q0 25.6 .6 38.5zM0 928.6l1.1 -52.5q8.4 -2.2 47.4 -8.9t59.2 -15.1q3.9 -6.7 7 -15t4.7 -18.7 3.1 -18.2 1.7 -20.9 .2 -19v-36.5q0 -548 -12.2 -572 -2.3 -4.5 -12.3 -8.1t-24.8 -6.1 -27.7 -4 -27 -2.5T3.3 129.5L1.1 83.1Q55.8 82 190.8 76.7T399 71.4q12.8 0 38.2 .3t37.7 .3q39.1 0 76.2 7.2t71.7 23.5 60.2 39.6 41.3 58.3 15.7 76.7q0 29.1 -9.3 53.3T709 370.8t-36 32.1T632.3 428t-46.9 22.3q85.9 19.6 143.1 74.8t57.2 138.4q0 55.8 -19.5 100.2T714 836.5t-77 47.7 -91.2 27.1 -98.3 7.8q-24.5 0 -73.6 -1.7t-73.7 -1.7q-59.1 0 -171.3 6.2T0 928.6z"/></svg>