<svg height="1000" width="785.714" xmlns="http://www.w3.org/2000/svg"><path d="M309.69 848.782q42.408 17.856 78.12 17.856 73.098 0 120.528 -22.878t68.076 -63.054q21.204 -39.06 21.204 -100.998 0 -63.612 -22.878 -100.44 -32.364 -52.452 -78.678 -70.308 -44.64 -17.856 -137.826 -17.856 -41.292 0 -56.358 5.58v80.352l-.558 96.534 1.674 150.66q0 8.37 6.696 24.552zm-7.812 -416.268q23.994 3.906 60.822 3.906 97.65 0 147.312 -36.27t49.662 -124.992q0 -62.496 -47.43 -104.346 -46.872 -41.85 -142.29 -41.85 -29.016 0 -72.54 7.254 0 24.552 1.116 42.966 3.906 68.076 3.348 155.682l-.558 54.684q0 23.994 .558 42.966zm-301.878 496.062l1.116 -52.452q25.11 -5.022 37.944 -6.696 42.966 -6.696 68.634 -17.298 9.486 -15.066 11.718 -28.458 5.022 -36.828 5.022 -108.252l-1.116 -277.326q-2.79 -142.848 -5.022 -225.432 -.558 -48.546 -6.138 -60.822 -.558 -2.232 -6.696 -6.696 -10.044 -6.696 -38.502 -8.37 -16.74 -1.116 -63.612 -7.254l-2.232 -46.314 145.08 -3.348 212.04 -7.254 25.11 -.558q2.79 0 7.812 -.279t7.812 -.279q.558 0 11.997 .279t22.599 .279h41.292q49.104 0 106.578 15.066 23.994 7.254 53.568 21.762 31.806 16.182 56.916 42.408 24.552 26.226 36.27 58.032t11.718 68.076q0 39.06 -17.856 71.424t-53.01 58.59q-14.508 11.16 -83.7 42.966 98.766 22.878 148.986 81.468 51.336 59.148 51.336 131.688 0 42.408 -16.182 89.838 -11.718 34.596 -39.618 65.286 -36.828 40.176 -78.12 60.264 -40.734 20.088 -113.274 33.48 -45.756 8.37 -110.484 6.138l-109.926 -2.232q-46.872 -1.116 -166.284 6.138 -18.414 1.674 -151.776 6.138z"/></svg>