<svg height="1000" width="785.714" xmlns="http://www.w3.org/2000/svg"><path d="M309.69 848.782q41.292 17.856 78.12 17.856 209.808 0 209.808 -186.93 0 -63.612 -22.878 -100.44 -15.066 -24.552 -34.317 -41.292t-37.665 -25.947 -44.919 -13.95 -46.872 -5.859 -52.731 -1.116q-40.734 0 -56.358 5.58 0 29.574 -.279 88.722t-.279 88.164q0 4.464 -.558 37.665t-.279 53.847 2.511 46.593 6.696 37.107zm-7.812 -416.268q23.436 3.906 60.822 3.906 45.756 0 79.794 -7.254t61.38 -24.831 41.571 -49.941 14.229 -79.236q0 -39.06 -16.182 -68.355t-44.082 -45.756 -60.264 -24.273 -69.192 -7.812q-27.9 0 -72.54 7.254 0 27.9 2.232 84.258t2.232 84.816q0 15.066 -.279 44.64t-.279 44.082q0 25.668 .558 38.502zm-301.878 496.062l1.116 -52.452q8.37 -2.232 47.43 -8.928t59.148 -15.066q3.906 -6.696 6.975 -15.066t4.743 -18.693 3.069 -18.135 1.674 -20.925 .279 -18.972v-36.549q0 -547.956 -12.276 -571.95 -2.232 -4.464 -12.276 -8.091t-24.831 -6.138 -27.621 -3.906 -27.063 -2.511 -17.019 -1.674l-2.232 -46.314q54.684 -1.116 189.72 -6.417t208.134 -5.301q12.834 0 38.223 .279t37.665 .279q39.06 0 76.167 7.254t71.703 23.436 60.264 39.618 41.292 58.311 15.624 76.725q0 29.016 -9.207 53.289t-21.762 40.176 -35.991 32.085 -40.734 25.11 -46.872 22.32q85.932 19.53 143.127 74.772t57.195 138.384q0 55.8 -19.53 100.161t-52.173 72.819 -77.004 47.709 -91.233 27.063 -98.208 7.812q-24.552 0 -73.656 -1.674t-73.656 -1.674q-59.148 0 -171.306 6.138t-128.898 6.696z"/></svg>