<svg height="1000px" width="785.7142857142858px" xmlns="http://www.w3.org/2000/svg">
  <g>
    <path d="M398.9955357142857 71.42857142857133c0 0 34.598 0.558 34.598 0.558c0 0 41.295 0 41.295 0c32.738 0 62.686 3.72 89.844 11.161c116.815 31.994 175.223 96.726 175.223 194.196c0 51.339 -23.624 94.68 -70.871 130.023c-9.672 7.44 -37.574 21.763 -83.705 42.968c65.848 15.253 115.699 42.504 149.553 81.752c33.855 39.249 50.782 83.055 50.782 131.418c0 62.5 -18.601 114.211 -55.804 155.134c-24.553 26.786 -50.595 46.875 -78.125 60.268c-60.268 29.39 -134.858 42.596 -223.772 39.62c0 0 -109.933 -2.232 -109.933 -2.232c-31.25 -0.744 -69.848 0.372 -115.793 3.348c-45.945 2.976 -113.374 5.953 -202.288 8.929c0 0 1.117 -52.455 1.117 -52.455c16.741 -3.349 34.412 -6.418 53.013 -9.208c18.601 -2.79 36.458 -7.72 53.571 -14.788c6.325 -10.045 10.696 -23.438 13.114 -40.179c2.418 -16.741 3.627 -48.921 3.627 -96.54c0 0 -1.116 -277.344 -1.116 -277.344c-1.86 -95.238 -3.255 -164.713 -4.185 -208.426c-0.93 -43.713 -3.255 -69.661 -6.975 -77.846c-0.372 -1.488 -3.256 -4.092 -8.65 -7.812c-5.394 -3.721 -15.625 -6.046 -30.692 -6.976c-15.067 -0.93 -38.225 -3.441 -69.475 -7.533c0 0 -2.232 -46.317 -2.232 -46.317c0 0 145.089 -3.348 145.089 -3.348c0 0 212.053 -7.255 212.053 -7.255c0 0 25.112 -0.558 25.112 -0.558c0 0 15.625 -0.558 15.625 -0.558m-97.098 361.049c15.997 2.604 36.272 3.906 60.826 3.906c65.104 0 114.211 -12.09 147.321 -36.272c33.11 -24.182 49.665 -65.848 49.665 -125c0 -41.667 -15.718 -76.451 -47.154 -104.353c-31.436 -27.901 -78.962 -41.852 -142.578 -41.852c-19.345 0 -43.527 2.418 -72.545 7.254c0 16.369 0.838 38.97 2.512 67.801c1.674 28.832 2.325 72.452 1.953 130.86c0 0 -0.558 54.687 -0.558 54.687c0 15.997 0.186 30.32 0.558 42.969c0 0 0 0 0 0m7.812 416.295c28.274 11.905 54.316 17.857 78.125 17.857c48.735 0 88.914 -7.627 120.536 -22.88c31.622 -15.253 54.408 -36.086 68.359 -62.5c13.951 -26.413 20.927 -60.546 20.927 -102.399c0 -41.853 -7.627 -75.056 -22.88 -99.61c-21.577 -34.97 -47.526 -58.407 -77.846 -70.312c-30.32 -11.905 -76.544 -17.857 -138.672 -17.857c-27.529 0 -46.317 1.86 -56.361 5.58c0 0 0 80.357 0 80.357c0 0 -0.558 96.541 -0.558 96.541c0 0 1.674 150.669 1.674 150.669c0 5.581 2.232 13.765 6.696 24.554c0 0 0 0 0 0" />
  </g>
</svg>