<svg height="1000px" width="692.87109375px" xmlns="http://www.w3.org/2000/svg">
  <g>
    <path d="M0 875c0 0 0.977 -45.898 0.977 -45.898c8.789 -1.954 19.856 -3.907 33.203 -5.86c12.695 -1.953 24.007 -4.15 33.935 -6.592c9.929 -2.441 18.962 -5.289 27.1 -8.545c2.604 -4.557 4.72 -8.87 6.347 -12.939c1.628 -4.069 2.767 -8.057 3.418 -11.963c1.954 -10.742 3.256 -23.926 3.907 -39.551c0.651 -15.625 0.976 -33.854 0.976 -54.687c0 0 -0.976 -243.164 -0.976 -243.164c-0.651 -12.696 -1.14 -35.319 -1.465 -67.871c-0.326 -32.552 -1.139 -75.847 -2.442 -129.883c-1.302 -28.646 -3.255 -46.387 -5.859 -53.223c-1.302 -2.604 -3.418 -4.232 -6.348 -4.883c-6.51 -4.557 -17.74 -7.161 -33.691 -7.812c-7.487 0 -26.204 -2.116 -56.152 -6.348c0 0 -1.953 -41.015 -1.953 -41.015c0 0 127.929 -2.93 127.929 -2.93c0 0 187.012 -5.859 187.012 -5.859c0 0 21.973 0 21.973 0c2.604 -0.651 5.127 -0.977 7.568 -0.977c0 0 6.592 0 6.592 0c0 0 3.499 0.163 10.498 0.488c6.999 0.326 13.428 0.489 19.287 0.489c0 0 37.109 0 37.109 0c29.948 0 61.361 4.394 94.239 13.183c5.859 1.302 12.776 3.418 20.752 6.348c7.975 2.929 16.682 7.161 26.123 12.695c20.507 10.091 37.434 22.298 50.781 36.621c14.648 15.3 25.39 32.39 32.226 51.27c3.256 9.44 5.697 18.961 7.325 28.564c1.627 9.603 2.441 19.776 2.441 30.518c0 23.437 -5.208 44.433 -15.625 62.988c-10.091 18.555 -25.553 35.482 -46.387 50.781c-5.208 3.907 -13.997 8.871 -26.367 14.893c-12.37 6.022 -28.157 13.753 -47.363 23.193c57.943 13.347 101.562 36.947 130.859 70.801c29.948 33.854 44.922 72.266 44.922 115.234c0 23.438 -4.557 49.805 -13.672 79.102c-7.487 21.484 -19.206 40.365 -35.156 56.641c-21.484 23.437 -44.434 41.178 -68.848 53.222c-25.39 11.393 -58.756 20.996 -100.097 28.809c-22.787 3.906 -55.176 5.696 -97.168 5.371c0 0 -97.168 -2.441 -97.168 -2.441c-20.508 -0.652 -42.969 -0.245 -67.383 1.22c-24.414 1.465 -50.944 3.174 -79.59 5.127c-8.138 0.651 -23.275 1.302 -45.41 1.953c-22.136 0.651 -51.595 1.628 -88.379 2.93c0 0 0 0 0 0m262.207 -692.871c0 3.906 0.163 9.033 0.488 15.381c0.326 6.347 0.814 13.59 1.465 21.728c0.651 16.602 1.302 36.052 1.953 58.35c0.651 22.298 0.651 48.096 0 77.392c0 0 0 47.852 0 47.852c0 0 0 38.086 0 38.086c8.138 1.302 16.683 2.279 25.635 2.93c8.952 0.651 18.311 0.976 28.076 0.976c57.292 0 100.749 -10.579 130.371 -31.738c29.297 -21.484 43.946 -58.106 43.946 -109.863c0 -36.784 -13.998 -67.22 -41.993 -91.309c-27.343 -24.74 -69.336 -37.109 -125.976 -37.109c-17.253 0 -38.574 2.441 -63.965 7.324c0 0 0 0 0 0m3.906 469.726c0 0 1.953 132.325 1.953 132.325c0 5.208 1.628 12.207 4.883 20.996c24.089 10.742 47.038 15.95 68.848 15.625c42.643 0 78.45 -6.673 107.422 -20.02c26.692 -12.695 46.549 -30.924 59.57 -54.687c5.859 -12.045 10.498 -25.391 13.916 -40.039c3.418 -14.649 5.127 -30.925 5.127 -48.828c0 -36.784 -6.999 -66.244 -20.996 -88.379c-19.206 -30.599 -42.155 -50.944 -68.848 -61.035c-26.041 -10.743 -66.731 -15.951 -122.07 -15.625c-12.044 0 -22.054 0.488 -30.029 1.464c-7.976 0.977 -14.567 2.116 -19.776 3.418c0 0 0 69.825 0 69.825c0 0 0 84.96 0 84.96c0 0 0 0 0 0" />
  </g>
</svg>