<svg height="1000" width="785.7" xmlns="http://www.w3.org/2000/svg"><path d="M0 928.6l1.1-52.5q25.1-5 37.9-6.7 43-6.7 68.6-17.3 9.5-15.1 11.7-28.5 5-36.8 5-108.3l-1.1-277.3q-2.8-142.8-5-225.4-.6-48.5-6.1-60.8-.6-2.2-6.7-6.7-10-6.7-38.5-8.4-16.7-1.1-63.6-7.3l-2.2-46.3 145.1-3.3 212-7.3 25.1-.6q2.8 0 7.8-.3t7.8-.3q.6 0 12 .3t22.6.3h41.3q49.1 0 106.6 15.1 24 7.3 53.6 21.8 31.8 16.2 56.9 42.4 24.6 26.2 36.3 58t11.7 68.1q0 39.1-17.9 71.4t-53 58.6q-14.5 11.2-83.7 43 98.8 22.9 149 81.5 51.3 59.1 51.3 131.7 0 42.4-16.2 89.8-11.7 34.6-39.6 65.3-36.8 40.2-78.1 60.3-40.7 20.1-113.3 33.5-45.8 8.4-110.5 6.1l-109.9-2.2q-46.9-1.1-166.3 6.1-18.4 1.7-151.8 6.1zm297.4-792.4q0 24.6 1.1 43 3.9 68.1 3.3 155.7l-.6 54.7q0 24 .6 43 24 3.9 60.8 3.9 97.7 0 147.3-36.3t49.7-125q0-62.5-47.4-104.3-46.9-41.9-142.3-41.9-29 0-72.5 7.3zm3.9 537.4l1.7 150.7q0 8.4 6.7 24.6 42.4 17.9 78.1 17.9 73.1 0 120.5-22.9t68.1-63.1q21.2-39.1 21.2-101 0-63.6-22.9-100.4-32.4-52.5-78.7-70.3-44.6-17.9-137.8-17.9-41.3 0-56.4 5.6v80.4z"/></svg>