<svg height="1000px" width="785.7142857142858px" xmlns="http://www.w3.org/2000/svg">
  <g>
    <path d="M0 928.5714285714286c0 0 1.116 -52.455 1.116 -52.455c16.741 -3.349 29.39 -5.581 37.947 -6.697c28.645 -4.464 51.525 -10.23 68.638 -17.299c6.324 -10.045 10.231 -19.531 11.719 -28.46c3.348 -24.553 5.022 -60.64 5.022 -108.259c0 0 -1.116 -277.343 -1.116 -277.343c-1.86 -95.238 -3.534 -170.387 -5.022 -225.447c-0.372 -32.366 -2.419 -52.641 -6.139 -60.826c-0.372 -1.488 -2.604 -3.72 -6.696 -6.696c-6.697 -4.464 -19.532 -7.255 -38.505 -8.371c-11.16 -0.744 -32.366 -3.162 -63.616 -7.254c0 0 -2.232 -46.317 -2.232 -46.317c0 0 145.089 -3.348 145.089 -3.348c0 0 212.054 -7.255 212.054 -7.255c0 0 25.112 -0.558 25.112 -0.558c1.86 0 4.464 -0.093 7.812 -0.279c3.348 -0.186 5.952 -0.279 7.813 -0.279c0.372 0 4.371 0.093 11.997 0.279c7.627 0.186 15.16 0.279 22.601 0.279c0 0 41.294 0 41.294 0c32.738 0 68.267 5.023 106.585 15.067c15.997 4.836 33.854 12.091 53.572 21.764c21.205 10.788 40.178 24.925 56.919 42.41c16.369 17.485 28.46 36.831 36.273 58.036c7.812 21.205 11.718 43.899 11.718 68.08c0 26.042 -5.952 49.852 -17.857 71.429c-11.905 21.577 -29.576 41.109 -53.013 58.594c-9.673 7.44 -37.575 21.763 -83.706 42.968c65.849 15.253 115.514 42.411 148.996 81.474c34.226 39.434 51.339 83.333 51.339 131.696c0 28.274 -5.394 58.222 -16.183 89.844c-7.812 23.065 -21.019 44.829 -39.62 65.29c-24.554 26.786 -50.596 46.875 -78.125 60.268c-27.158 13.393 -64.918 24.553 -113.282 33.482c-30.505 5.58 -67.336 7.626 -110.491 6.138c0 0 -109.933 -2.232 -109.933 -2.232c-31.25 -0.744 -86.681 1.302 -166.294 6.139c-12.277 1.116 -62.872 3.162 -151.786 6.138c0 0 0 0 0 0m297.433 -792.411c0 16.369 0.372 30.692 1.116 42.969c2.604 45.387 3.72 97.284 3.348 155.692c0 0 -0.558 54.687 -0.558 54.687c0 15.998 0.186 30.32 0.558 42.969c15.997 2.604 36.273 3.906 60.826 3.906c65.104 0 114.212 -12.09 147.322 -36.272c33.11 -24.181 49.665 -65.848 49.665 -125c0 -41.666 -15.811 -76.451 -47.433 -104.353c-31.25 -27.901 -78.683 -41.852 -142.299 -41.852c-19.346 0 -43.527 2.418 -72.545 7.254c0 0 0 0 0 0m3.906 537.389c0 0 1.674 150.669 1.674 150.669c0 5.581 2.233 13.765 6.697 24.554c28.274 11.905 54.315 17.857 78.125 17.857c48.735 0 88.914 -7.626 120.536 -22.879c31.622 -15.253 54.315 -36.273 68.08 -63.058c14.137 -26.042 21.205 -59.71 21.205 -101.005c0 -42.411 -7.626 -75.893 -22.879 -100.446c-21.578 -34.971 -47.805 -58.408 -78.683 -70.313c-29.762 -11.905 -75.707 -17.857 -137.835 -17.857c-27.53 0 -46.317 1.86 -56.362 5.58c0 0 0 80.358 0 80.358c0 0 -0.558 96.54 -0.558 96.54" />
  </g>
</svg>