<svg height="1000px" width="785.7142857142858px" xmlns="http://www.w3.org/2000/svg">
  <g>
    <path d="M0 928.5714285714286c0 0 1.116 -52.455 1.116 -52.455c16.741 -3.349 34.412 -6.418 53.013 -9.208c18.602 -2.79 36.459 -7.719 53.572 -14.788c6.324 -10.045 10.696 -23.437 13.114 -40.178c2.418 -16.742 3.627 -48.922 3.627 -96.541c0 0 -1.116 -277.343 -1.116 -277.343c-1.86 -95.238 -3.255 -164.714 -4.185 -208.427c-0.93 -43.713 -3.256 -69.661 -6.976 -77.846c-0.372 -1.488 -3.255 -4.092 -8.649 -7.812c-5.395 -3.72 -15.625 -6.046 -30.692 -6.976c-15.067 -0.93 -38.226 -3.441 -69.476 -7.533c0 0 -2.232 -46.317 -2.232 -46.317c0 0 145.089 -3.348 145.089 -3.348c0 0 212.054 -7.255 212.054 -7.255c0 0 25.112 -0.558 25.112 -0.558c0 0 15.625 -0.558 15.625 -0.558c0 0 34.598 0.558 34.598 0.558c0 0 41.294 0 41.294 0c32.738 0 62.686 3.72 89.844 11.161c116.816 31.994 175.223 96.726 175.223 194.196c0 51.34 -23.623 94.68 -70.87 130.023c-9.673 7.44 -37.575 21.763 -83.706 42.968c65.849 15.253 115.7 42.504 149.554 81.753c33.854 39.248 50.781 83.054 50.781 131.417c0 62.5 -18.601 114.211 -55.803 155.134c-24.554 26.786 -50.596 46.875 -78.125 60.268c-54.726 26.687 -121.262 40.031 -199.608 40.031c-7.934 0 -15.989 -0.137 -24.165 -0.411c0 0 -109.933 -2.232 -109.933 -2.232c-6.25 -0.149 -12.793 -0.223 -19.631 -0.223c-27.351 0 -59.405 1.19 -96.161 3.571c-45.945 2.977 -113.374 5.953 -202.288 8.929c0 0 0 0 0 0m297.433 -792.411c0 16.369 0.837 38.97 2.511 67.802c1.37 23.589 2.055 57.078 2.055 100.467c0 9.642 -0.034 19.772 -0.102 30.392c0 0 -0.558 54.687 -0.558 54.687c0 15.997 0.186 30.32 0.558 42.969c15.997 2.604 36.273 3.906 60.826 3.906c65.104 0 114.212 -12.09 147.322 -36.272c33.11 -24.181 49.665 -65.848 49.665 -125c0 -41.667 -15.718 -76.451 -47.154 -104.353c-31.436 -27.901 -78.962 -41.852 -142.578 -41.852c-19.346 0 -43.527 2.418 -72.545 7.254c0 0 0 0 0 0m3.906 537.389c0 0 1.674 150.669 1.674 150.669c0 5.581 2.233 13.765 6.697 24.554c28.274 11.905 54.315 17.857 78.125 17.857c48.735 0 88.914 -7.626 120.536 -22.879c31.622 -15.253 54.408 -36.087 68.359 -62.5c13.951 -26.414 20.926 -60.547 20.926 -102.4c0 -41.853 -7.626 -75.056 -22.879 -99.609c-21.578 -34.971 -47.526 -58.408 -77.846 -70.313c-30.32 -11.905 -76.544 -17.857 -138.672 -17.857c-27.53 0 -46.317 1.86 -56.362 5.58c0 0 0 80.357 0 80.357c0 0 -0.558 96.541 -0.558 96.541" />
  </g>
</svg>