<svg height="1000px" width="693px" xmlns="http://www.w3.org/2000/svg">
  <g>
    <path d="M0 875c0 0 1 -46 1 -46c8.667 -2 19.667 -4 33 -6c12.667 -2 24 -4.167 34 -6.5c10 -2.333 19 -5.167 27 -8.5c2.667 -4.667 4.833 -9 6.5 -13c1.667 -4 2.833 -8 3.5 -12c2 -10.667 3.333 -23.833 4 -39.5c0.667 -15.667 1 -33.833 1 -54.5c0 0 -1 -243 -1 -243c-0.667 -12.667 -1.167 -35.333 -1.5 -68c-0.333 -32.667 -1.167 -76 -2.5 -130c-1.333 -28.667 -3.333 -46.333 -6 -53c-1.333 -2.667 -3.333 -4.333 -6 -5c-6.667 -4.667 -18 -7.333 -34 -8c-7.333 0 -26 -2 -56 -6c0 0 -2 -41 -2 -41c0 0 128 -3 128 -3c0 0 187 -6 187 -6c0 0 22 0 22 0c2.667 -0.667 5.333 -1 8 -1c0 0 6 0 6 0c2 0 5.5 0.167 10.5 0.5c5 0.333 11.5 0.5 19.5 0.5c0 0 37 0 37 0c30 0 61.333 4.333 94 13c6 1.333 13 3.5 21 6.5c8 3 16.667 7.167 26 12.5c20.667 10 37.667 22.333 51 37c14.667 15.333 25.333 32.333 32 51c3.333 9.333 5.833 18.833 7.5 28.5c1.667 9.667 2.5 19.833 2.5 30.5c0 23.333 -5.333 44.333 -16 63c-10 18.667 -25.333 35.667 -46 51c-5.333 4 -14.167 9 -26.5 15c-12.333 6 -28.167 13.667 -47.5 23c58 13.333 101.667 37 131 71c30 34 45 72.333 45 115c0 23.333 -4.667 49.667 -14 79c-7.333 21.333 -19 40.333 -35 57c-21.333 23.333 -44.333 41 -69 53c-25.333 11.333 -58.667 21 -100 29c-22.667 4 -55 5.667 -97 5c0 0 -97 -2 -97 -2c-20.667 -0.667 -43.167 -0.333 -67.5 1c-24.333 1.333 -50.833 3 -79.5 5c-8 0.667 -23.167 1.333 -45.5 2c-22.333 0.667 -51.833 1.667 -88.5 3c0 0 0 0 0 0m262 -693c0 4 0.167 9.167 0.5 15.5c0.333 6.333 0.833 13.5 1.5 21.5c0.667 16.667 1.333 36.167 2 58.5c0.667 22.333 0.667 48.167 0 77.5c0 0 0 48 0 48c0 0 0 38 0 38c8 1.333 16.5 2.333 25.5 3c9 0.667 18.5 1 28.5 1c57.333 0 100.667 -10.667 130 -32c29.333 -21.333 44 -58 44 -110c0 -36.667 -14 -67 -42 -91c-27.333 -24.667 -69.333 -37 -126 -37c-17.333 0 -38.667 2.333 -64 7c0 0 0 0 0 0m4 470c0 0 2 132 2 132c0 5.333 1.667 12.333 5 21c24 10.667 47 16 69 16c42.667 0 78.333 -6.667 107 -20c26.667 -12.667 46.667 -31 60 -55c6 -12 10.667 -25.333 14 -40c3.333 -14.667 5 -31 5 -49c0 -36.667 -7 -66 -21 -88c-19.333 -30.667 -42.333 -51 -69 -61c-26 -10.667 -66.667 -16 -122 -16c-12 0 -22 0.5 -30 1.5c-8 1 -14.667 2.167 -20 3.5c0 0 0 70 0 70c0 0 0 85 0 85c0 0 0 0 0 0" />
  </g>
</svg>