<svg height="1000" width="1000" xmlns="http://www.w3.org/2000/svg"><path d="M0 607.168q0 -79.794 30.969 -152.613t83.7 -125.55 125.55 -83.7 152.613 -30.969q101.556 0 191.394 49.662l35.712 -35.712q10.602 -10.602 25.389 -10.602t25.389 10.602l37.944 37.944 135.594 -136.152 25.668 25.668 -136.152 135.594 37.944 37.944q10.602 10.602 10.602 25.389t-10.602 25.389l-35.712 35.712q49.662 89.838 49.662 191.394 0 79.794 -30.969 152.613t-83.7 125.55 -125.55 83.7 -152.613 30.969 -152.613 -30.969 -125.55 -83.7 -83.7 -125.55 -30.969 -152.613zm94.86 -93.186q5.58 13.392 19.53 18.972 7.254 2.79 13.392 2.79 23.436 0 33.48 -22.32 18.972 -46.872 54.963 -82.863t82.863 -54.963q13.95 -6.138 19.53 -19.53t0 -27.342 -18.972 -19.53 -27.342 0q-60.264 24.552 -106.578 70.866t-70.866 106.578q-5.58 13.95 0 27.342zm672.948 -478.206q0 -7.254 5.022 -12.834 5.58 -5.022 12.834 -5.022t12.834 5.022l50.22 50.778q5.58 5.022 5.58 12.555t-5.58 12.555q-5.58 5.58 -12.276 5.58 -7.254 0 -12.834 -5.58l-50.778 -50.22q-5.022 -5.58 -5.022 -12.834zm89.28 35.712v-53.568q0 -7.812 5.022 -12.834t12.834 -5.022 12.834 5.022 5.022 12.834v53.568q0 7.812 -5.022 12.834t-12.834 5.022 -12.834 -5.022 -5.022 -12.834zm38.502 92.349q0 -7.533 5.58 -12.555 5.022 -5.58 12.555 -5.58t12.555 5.58l50.778 50.22q5.022 5.58 5.022 12.834t-5.022 12.834q-6.138 5.022 -12.834 5.022t-12.834 -5.022l-50.22 -50.778q-5.58 -5.022 -5.58 -12.555zm0 -77.562q0 -7.533 5.58 -12.555l50.22 -50.778q5.58 -5.022 12.834 -5.022t12.834 5.022q5.022 5.58 5.022 12.834t-5.022 12.834l-50.778 50.22q-5.58 5.58 -12.276 5.58 -7.254 0 -12.834 -5.58 -5.58 -5.022 -5.58 -12.555zm15.066 38.781q0 -7.812 5.022 -12.834t12.834 -5.022h53.568q7.812 0 12.834 5.022t5.022 12.834 -5.022 12.834 -12.834 5.022h-53.568q-7.812 0 -12.834 -5.022t-5.022 -12.834z"/></svg>