<svg height="1000px" width="611.81640625px" xmlns="http://www.w3.org/2000/svg">
  <g>
    <path d="M0 826.416015625c0 0 0 -652.832 0 -652.832c0 -15.3 5.534 -28.483 16.602 -39.551c11.067 -11.068 24.251 -16.601 39.55 -16.601c0 0 500 0 500 0c15.3 0 28.402 5.533 39.307 16.601c10.905 11.068 16.357 24.251 16.357 39.551c0 0 0 652.832 0 652.832c0 15.299 -5.452 28.483 -16.357 39.551c-10.905 11.067 -24.007 16.601 -39.307 16.601c-15.299 0 -28.32 -5.371 -39.062 -16.113c0 0 -210.938 -210.937 -210.938 -210.937c0 0 -210.937 210.937 -210.937 210.937c-10.742 10.742 -23.763 16.113 -39.063 16.113c-15.299 0 -28.483 -5.534 -39.55 -16.601c-11.068 -11.068 -16.602 -24.252 -16.602 -39.551c0 0 0 0 0 0" />
  </g>
</svg>