<svg height="1000px" width="600px" xmlns="http://www.w3.org/2000/svg">
  <g>
    <path d="M0 820.6666688919067c0 0 0 -641 0 -641c0 -11.333 3 -21.5 9 -30.5c6 -9 14.333 -15.833 25 -20.5c3.333 -1.333 6.667 -2.333 10 -3c3.333 -0.667 7 -1 11 -1c0 0 490 0 490 0c3.333 0 6.833 0.333 10.5 1c3.667 0.667 7.167 1.667 10.5 3c10.667 4.667 19 11.5 25 20.5c6 9 9 19.167 9 30.5c0 0 0 641 0 641c0 11.333 -3 21.5 -9 30.5c-6 9 -14.333 15.5 -25 19.5c-10 4.667 -20.5 5.833 -31.5 3.5c-11 -2.333 -20.167 -7.5 -27.5 -15.5c0 0 -207 -207 -207 -207c0 0 -207 207 -207 207c-7.333 8 -16.5 13.167 -27.5 15.5c-11 2.333 -21.5 1.167 -31.5 -3.5c-10.667 -4.667 -19 -11.333 -25 -20c-6 -8.667 -9 -18.667 -9 -30c0 0 0 0 0 0" />
  </g>
</svg>