<svg height="1000px" width="714.2857142857143px" xmlns="http://www.w3.org/2000/svg">
  <g>
    <path d="M0 853.2366071428571c0 0 0 -719.308 0 -719.308c0 -12.649 3.72 -24.182 11.161 -34.598c13.021 -18.601 30.878 -27.902 53.571 -27.902c0 0 584.822 0 584.822 0c23.065 0 40.922 9.301 53.571 27.902c7.44 10.416 11.161 21.949 11.161 34.598c0 0 0 719.308 0 719.308c0 12.649 -3.721 24.182 -11.161 34.598c-12.649 18.229 -29.204 27.344 -49.665 27.344c-20.461 0 -37.203 -5.952 -50.223 -17.857c0 0 -246.094 -236.607 -246.094 -236.607c0 0 -246.094 236.607 -246.094 236.607c-13.393 12.277 -26.6 18.415 -39.62 18.415c-13.021 0 -24.554 -2.046 -34.599 -6.138c-10.044 -4.093 -18.694 -11.347 -25.948 -21.764c-7.255 -10.416 -10.882 -21.949 -10.882 -34.598c0 0 0 0 0 0m71.429 -17.299c0 0 285.714 -273.996 285.714 -273.996c0 0 285.714 273.996 285.714 273.996c0 0 0 -693.08 0 -693.08c0 0 -571.428 0 -571.428 0c0 0 0 693.08 0 693.08c0 0 0 0 0 0" />
  </g>
</svg>