<svg height="1000" width="928.571" xmlns="http://www.w3.org/2000/svg"><path d="M914.562 266.788q22.32 31.806 10.044 71.982l-153.45 505.548q-10.602 35.712 -42.687 59.985t-68.355 24.273h-515.034q-42.966 0 -82.863 -29.853t-55.521 -73.377q-13.392 -37.386 -1.116 -70.866 0 -2.232 1.674 -15.066t2.232 -20.646q.558 -4.464 -1.674 -11.997t-1.674 -10.881q1.116 -6.138 4.464 -11.718t9.207 -13.113 9.207 -13.113q12.834 -21.204 25.11 -51.057t16.74 -51.057q1.674 -5.58 .279 -16.74t-.279 -15.624q1.674 -6.138 9.486 -15.624t9.486 -12.834q11.718 -20.088 23.436 -51.336t13.95 -50.22q.558 -5.022 -1.395 -17.856t.279 -15.624q2.232 -7.254 12.276 -17.019t12.276 -12.555q10.602 -14.508 23.715 -47.151t15.345 -53.847q.558 -4.464 -1.674 -14.229t-1.116 -14.787q1.116 -4.464 5.022 -10.044t10.044 -12.834 9.486 -11.718q4.464 -6.696 9.207 -17.019t8.37 -19.53 8.928 -20.088 10.881 -17.856 14.787 -13.113 20.088 -6.417 26.505 3.069l-.558 1.674q21.204 -5.022 28.458 -5.022h424.638q41.292 0 63.612 31.248t10.044 72.54l-152.892 505.548q-20.088 66.402 -39.897 85.653t-71.703 19.251h-484.902q-15.066 0 -21.204 8.37 -6.138 8.928 -.558 23.994 13.392 39.06 80.352 39.06h515.034q16.182 0 31.248 -8.649t19.53 -23.157l167.4 -550.746q3.906 -12.276 2.79 -31.806 21.204 8.37 32.922 23.994zm-593.712 1.116q-2.232 7.254 1.116 12.555t11.16 5.301h339.264q7.254 0 14.229 -5.301t9.207 -12.555l11.718 -35.712q2.232 -7.254 -1.116 -12.555t-11.16 -5.301h-339.264q-7.254 0 -14.229 5.301t-9.207 12.555zm-46.314 142.848q-2.232 7.254 1.116 12.555t11.16 5.301h339.264q7.254 0 14.229 -5.301t9.207 -12.555l11.718 -35.712q2.232 -7.254 -1.116 -12.555t-11.16 -5.301h-339.264q-7.254 0 -14.229 5.301t-9.207 12.555z"/></svg>