<svg height="1000px" width="714.2857142857143px" xmlns="http://www.w3.org/2000/svg">
  <g>
    <path d="M0 853.2366071428571c0 0 0 -719.308 0 -719.308c0 -12.649 3.627 -24.182 10.882 -34.598c7.254 -10.417 17.02 -18.043 29.297 -22.88c7.812 -3.348 15.997 -5.022 24.553 -5.022c0 0 584.822 0 584.822 0c8.556 0 16.741 1.674 24.553 5.022c12.277 4.837 22.043 12.463 29.297 22.88c7.254 10.416 10.882 21.949 10.882 34.598c0 0 0 719.308 0 719.308c0 12.649 -3.628 24.182 -10.882 34.598c-7.254 10.417 -17.02 18.043 -29.297 22.88c-7.068 2.976 -15.253 4.464 -24.553 4.464c-17.858 0 -33.297 -5.952 -46.317 -17.857c0 0 -246.094 -236.607 -246.094 -236.607c0 0 -246.094 236.607 -246.094 236.607c-13.393 12.277 -28.832 18.415 -46.317 18.415c-8.556 0 -16.741 -1.674 -24.553 -5.022c-12.277 -4.837 -22.043 -12.463 -29.297 -22.88c-7.255 -10.416 -10.882 -21.949 -10.882 -34.598c0 0 0 0 0 0m71.429 -17.299c0 0 236.049 -226.563 236.049 -226.563c0 0 49.665 -47.433 49.665 -47.433c0 0 49.665 47.433 49.665 47.433c0 0 236.049 226.563 236.049 226.563c0 0 0 -693.08 0 -693.08c0 0 -571.428 0 -571.428 0c0 0 0 693.08 0 693.08c0 0 0 0 0 0" />
  </g>
</svg>