<svg height="1000" width="928.6" xmlns="http://www.w3.org/2000/svg"><path d="M5.6 754.5q0-2.2 1.7-15.1t2.2-20.6q.6-4.5-1.7-12t-1.7-10.9q1.1-6.1 4.5-11.7t9.2-13.1 9.2-13.1q12.8-21.2 25.1-51.1t16.7-51.1q1.7-5.6.3-16.7t-.3-15.6q1.7-6.1 9.5-15.6t9.5-12.8q11.7-20.1 23.4-51.3t14-50.2q.6-5-1.4-17.9t.3-15.6q2.2-7.3 12.3-17t12.3-12.6q10.6-14.5 23.7-47.2t15.3-53.8q.6-4.5-1.7-14.2t-1.1-14.8q1.1-4.5 5-10t10-12.8 9.5-11.7q4.5-6.7 9.2-17t8.4-19.5 8.9-20.1 10.9-17.9 14.8-13.1 20.1-6.4 26.5 3.1l-.6 1.7q21.2-5 28.5-5h424.6q41.3 0 63.6 31.2t10 72.5l-152.9 505.5q-20.1 66.4-39.9 85.7t-71.7 19.3h-484.9q-15.1 0-21.2 8.4-6.1 8.9-.6 24 13.4 39.1 80.4 39.1h515q16.2 0 31.2-8.6t19.5-23.2l167.4-550.7q3.9-12.3 2.8-31.8 21.2 8.4 32.9 24 22.3 31.8 10 72l-153.5 505.5q-10.6 35.7-42.7 60t-68.4 24.3h-515q-43 0-82.9-29.9t-55.5-73.4q-13.4-37.4-1.1-70.9zm269-343.7q-2.2 7.3 1.1 12.6t11.2 5.3h339.3q7.3 0 14.2-5.3t9.2-12.6l11.7-35.7q2.2-7.3-1.1-12.6t-11.2-5.3h-339.3q-7.3 0-14.2 5.3t-9.2 12.6zm46.3-142.8q-2.2 7.3 1.1 12.6t11.2 5.3h339.3q7.3 0 14.2-5.3t9.2-12.6l11.7-35.7q2.2-7.3-1.1-12.6t-11.2-5.3h-339.3q-7.3 0-14.2 5.3t-9.2 12.6z"/></svg>