<svg height="1000px" width="928.5714285714286px" xmlns="http://www.w3.org/2000/svg">
  <g>
    <path d="M5.580357142857143 754.4642857142857c0 -1.488 0.558 -6.51 1.674 -15.067c1.116 -8.557 1.86 -15.439 2.232 -20.647c0.372 -2.976 -0.186 -6.976 -1.674 -11.998c-1.488 -5.022 -2.046 -8.65 -1.674 -10.882c0.744 -4.092 2.232 -7.998 4.464 -11.718c2.232 -3.721 5.302 -8.092 9.208 -13.114c3.906 -5.023 6.975 -9.394 9.207 -13.114c8.557 -14.137 16.928 -31.157 25.112 -51.06c8.185 -19.904 13.765 -36.924 16.741 -51.061c1.116 -3.72 1.209 -9.3 0.279 -16.741c-0.93 -7.44 -1.023 -12.649 -0.279 -15.625c1.116 -4.092 4.278 -9.3 9.487 -15.625c5.208 -6.324 8.37 -10.602 9.486 -12.835c7.813 -13.392 15.625 -30.506 23.438 -51.339c7.812 -20.833 12.463 -37.574 13.951 -50.223c0.372 -3.348 -0.093 -9.301 -1.395 -17.857c-1.302 -8.557 -1.209 -13.765 0.279 -15.625c1.488 -4.837 5.58 -10.51 12.276 -17.02c6.697 -6.511 10.789 -10.696 12.277 -12.556c7.069 -9.673 14.974 -25.391 23.717 -47.154c8.742 -21.764 13.858 -39.714 15.346 -53.851c0.372 -2.976 -0.186 -7.719 -1.674 -14.23c-1.488 -6.51 -1.86 -11.439 -1.116 -14.787c0.744 -2.977 2.418 -6.325 5.022 -10.045c2.604 -3.72 5.952 -7.999 10.045 -12.835c4.092 -4.836 7.254 -8.742 9.486 -11.719c2.976 -4.464 6.046 -10.137 9.208 -17.02c3.162 -6.882 5.952 -13.393 8.37 -19.531c2.418 -6.138 5.395 -12.835 8.929 -20.089c3.534 -7.255 7.161 -13.207 10.882 -17.857c3.72 -4.651 8.649 -9.022 14.788 -13.114c6.138 -4.093 12.834 -6.232 20.089 -6.418c7.254 -0.186 16.09 0.837 26.507 3.07c0 0 -0.559 1.674 -0.559 1.674c14.137 -3.349 23.624 -5.023 28.46 -5.023c0 0 424.665 0 424.665 0c27.53 0 48.736 10.417 63.617 31.25c14.88 20.834 18.229 45.015 10.044 72.545c0 0 -152.902 505.58 -152.902 505.58c-13.392 44.271 -26.692 72.824 -39.899 85.659c-13.207 12.835 -37.11 19.252 -71.708 19.252c0 0 -484.933 0 -484.933 0c-10.044 0 -17.113 2.79 -21.205 8.371c-4.092 5.952 -4.278 13.95 -0.558 23.995c8.928 26.042 35.714 39.063 80.357 39.063c0 0 515.067 0 515.067 0c10.789 0 21.205 -2.884 31.25 -8.65c10.045 -5.766 16.555 -13.486 19.531 -23.158c0 0 167.411 -550.782 167.411 -550.782c2.604 -8.184 3.534 -18.787 2.79 -31.808c14.137 5.581 25.112 13.579 32.924 23.996c14.881 21.205 18.229 45.201 10.045 71.986c0 0 -153.46 505.581 -153.46 505.581c-7.068 23.809 -21.298 43.806 -42.69 59.989c-21.391 16.183 -44.178 24.274 -68.359 24.274c0 0 -515.067 0 -515.067 0c-28.646 0 -56.269 -9.951 -82.868 -29.855c-26.6 -19.903 -45.108 -44.364 -55.525 -73.381c-8.928 -24.926 -9.301 -48.55 -1.116 -70.871c0 0 0 0 0 0m268.973 -343.75c-1.488 4.836 -1.116 9.022 1.116 12.556c2.232 3.534 5.953 5.301 11.161 5.301c0 0 339.286 0 339.286 0c4.836 0 9.579 -1.767 14.23 -5.301c4.65 -3.534 7.719 -7.72 9.207 -12.556c0 0 11.719 -35.714 11.719 -35.714c1.488 -4.837 1.116 -9.022 -1.116 -12.556c-2.232 -3.534 -5.952 -5.301 -11.161 -5.301c0 0 -339.286 0 -339.286 0c-4.836 0 -9.579 1.767 -14.229 5.301c-4.651 3.534 -7.72 7.719 -9.208 12.556c0 0 -11.719 35.714 -11.719 35.714m46.317 -142.857c-1.488 4.836 -1.116 9.021 1.116 12.556c2.232 3.534 5.953 5.301 11.161 5.301c0 0 339.286 0 339.286 0c4.836 0 9.579 -1.767 14.23 -5.301c4.65 -3.535 7.719 -7.72 9.207 -12.556c0 0 11.719 -35.714 11.719 -35.714c1.488 -4.837 1.116 -9.022 -1.116 -12.556c-2.232 -3.534 -5.953 -5.302 -11.161 -5.302c0 0 -339.286 0 -339.286 0c-4.836 0 -9.579 1.768 -14.229 5.302c-4.651 3.534 -7.72 7.719 -9.208 12.556c0 0 -11.719 35.714 -11.719 35.714" />
  </g>
</svg>