<svg height="1000px" width="928.5714285714286px" xmlns="http://www.w3.org/2000/svg">
  <g>
    <path d="M274.55357142857144 410.71428571428567c-1.488 4.836 -1.116 9.022 1.116 12.556c2.232 3.534 5.952 5.301 11.161 5.301c0 0 339.286 0 339.286 0c4.836 0 9.579 -1.767 14.229 -5.301c4.651 -3.534 7.72 -7.72 9.208 -12.556c0 0 11.719 -35.714 11.719 -35.714c1.488 -4.837 1.116 -9.022 -1.116 -12.556c-2.232 -3.534 -5.953 -5.301 -11.161 -5.301c0 0 -339.286 0 -339.286 0c-4.836 0 -9.579 1.767 -14.23 5.301c-4.65 3.534 -7.719 7.719 -9.207 12.556c0 0 -11.719 35.714 -11.719 35.714m46.317 -142.857c-1.488 4.836 -1.116 9.021 1.116 12.556c2.232 3.534 5.952 5.301 11.161 5.301c0 0 339.285 0 339.285 0c4.837 0 9.58 -1.767 14.23 -5.301c4.651 -3.535 7.72 -7.72 9.208 -12.556c0 0 11.719 -35.714 11.719 -35.714c1.488 -4.837 1.116 -9.022 -1.116 -12.556c-2.233 -3.534 -5.953 -5.302 -11.161 -5.302c0 0 -339.286 0 -339.286 0c-4.836 0 -9.579 1.768 -14.23 5.302c-4.65 3.534 -7.719 7.719 -9.207 12.556c0 0 -11.719 35.714 -11.719 35.714m593.75 -1.116c14.881 21.205 18.229 45.201 10.045 71.986c0 0 -153.46 505.581 -153.46 505.581c-7.069 23.809 -21.299 43.806 -42.69 59.989c-21.391 16.183 -44.178 24.274 -68.359 24.274c0 0 -515.067 0 -515.067 0c-28.646 0 -56.269 -9.951 -82.869 -29.855c-26.599 -19.903 -44.735 -43.341 -54.408 -70.312c-9.673 -26.972 -10.417 -51.619 -2.232 -73.94c0 -1.488 0.558 -6.51 1.674 -15.067c1.116 -8.557 1.86 -14.881 2.232 -18.973c0.372 -4.092 -0.186 -8.65 -1.674 -13.672c-1.488 -5.022 -1.953 -9.115 -1.395 -12.277c0.558 -3.162 1.953 -6.603 4.185 -10.324c2.232 -3.72 5.301 -8.091 9.208 -13.113c3.906 -5.023 8.556 -11.998 13.951 -20.927c5.394 -8.928 12.183 -23.344 20.368 -43.247c8.184 -19.904 13.3 -34.32 15.346 -43.248c2.046 -8.929 2.604 -17.113 1.674 -24.554c-0.93 -7.44 -0.93 -12.928 0 -16.462c0.93 -3.534 3.999 -8.463 9.208 -14.788c5.208 -6.324 10.044 -13.393 14.508 -21.205c4.465 -7.813 10.603 -22.136 18.416 -42.969c7.812 -20.833 12.183 -35.249 13.114 -43.248c0.93 -7.998 0.744 -16.276 -0.559 -24.832c-1.302 -8.557 -1.209 -14.509 0.279 -17.857c1.489 -3.349 5.581 -8.278 12.277 -14.788c6.697 -6.511 12.184 -12.649 16.462 -18.416c4.279 -5.766 10.789 -19.531 19.532 -41.294c8.742 -21.764 13.578 -36.924 14.509 -45.48c0.93 -8.557 0.651 -16.09 -0.838 -22.601c-1.488 -6.51 -1.86 -11.346 -1.116 -14.508c0.744 -3.163 2.419 -6.604 5.023 -10.324c2.604 -3.72 5.952 -7.999 10.044 -12.835c4.093 -4.836 7.441 -9.115 10.045 -12.835c2.604 -3.72 5.487 -9.021 8.65 -15.904c3.162 -6.882 5.952 -13.393 8.37 -19.531c2.418 -6.138 5.394 -12.835 8.929 -20.089c3.534 -7.255 7.161 -13.207 10.881 -17.857c3.721 -4.651 8.557 -9.022 14.509 -13.114c10.045 -6.697 25.67 -7.813 46.875 -3.349c0 0 -0.558 1.675 -0.558 1.675c14.137 -3.349 23.624 -5.023 28.46 -5.023c0 0 424.665 0 424.665 0c27.53 0 48.735 10.417 63.616 31.25c14.881 20.834 18.229 45.015 10.045 72.545c0 0 -152.902 505.58 -152.902 505.58c-13.393 44.271 -26.693 72.824 -39.899 85.659c-13.207 12.835 -37.11 19.252 -71.708 19.252c0 0 -484.933 0 -484.933 0c-10.045 0 -17.113 2.883 -21.205 8.65c-4.093 5.766 -4.279 13.671 -0.558 23.716c8.928 26.042 35.714 39.063 80.357 39.063c0 0 515.067 0 515.067 0c10.788 0 21.205 -2.884 31.25 -8.65c10.044 -5.766 16.555 -13.486 19.531 -23.158c0 0 167.411 -550.782 167.411 -550.782c2.604 -8.184 3.534 -18.787 2.79 -31.808c14.137 5.581 25.111 13.579 32.924 23.996c0 0 0 0 0 0" />
  </g>
</svg>