<svg height="1000px" width="834.9609375px" xmlns="http://www.w3.org/2000/svg">
  <g>
    <path d="M4.8828125 723.297119140625c0.651 -5.208 1.302 -10.335 1.953 -15.381c0.651 -5.045 1.302 -10.661 1.953 -16.846c0 -3.255 -0.651 -6.591 -1.953 -10.009c-1.302 -3.418 -1.627 -6.755 -0.976 -10.01c0.651 -5.208 3.173 -10.335 7.568 -15.381c4.394 -5.046 8.545 -10.824 12.451 -17.334c7.487 -12.044 14.893 -26.774 22.217 -44.189c7.324 -17.416 12.614 -32.471 15.869 -45.166c1.302 -5.209 1.139 -10.173 -0.488 -14.893c-1.628 -4.72 -1.791 -9.033 -0.489 -12.939c1.303 -5.209 3.988 -9.685 8.057 -13.428c4.069 -3.744 7.406 -7.569 10.01 -11.475c3.255 -5.859 6.754 -12.695 10.498 -20.508c3.743 -7.812 7.243 -15.869 10.498 -24.17c3.255 -8.3 5.859 -16.438 7.812 -24.414c1.954 -7.975 3.256 -14.567 3.907 -19.775c0.651 -5.208 0.325 -10.579 -0.977 -16.113c-1.302 -5.534 -1.302 -10.254 0 -14.16c1.953 -5.209 5.29 -9.522 10.01 -12.94c4.72 -3.418 8.708 -7.405 11.963 -11.963c3.255 -3.906 6.754 -9.521 10.498 -16.845c3.743 -7.325 7.487 -15.381 11.23 -24.17c3.744 -8.789 6.918 -17.334 9.522 -25.635c2.604 -8.301 4.232 -15.707 4.883 -22.217c0.651 -3.906 0 -7.894 -1.953 -11.963c-1.954 -4.069 -2.279 -8.545 -0.977 -13.428c1.302 -4.557 4.313 -9.358 9.033 -14.404c4.72 -5.045 9.033 -10.172 12.94 -15.381c5.208 -8.138 9.847 -17.659 13.916 -28.564c4.069 -10.905 8.951 -20.834 14.648 -29.785c5.697 -8.952 13.184 -15.951 22.461 -20.996c9.277 -5.046 21.891 -5.29 37.842 -0.733c0 0 -0.977 1.953 -0.977 1.953c10.091 -3.255 18.88 -4.883 26.367 -4.883c0 0 380.86 0 380.86 0c25.39 0 44.759 9.278 58.105 27.832c13.347 17.253 16.276 38.249 8.789 62.989c0 0 -138.183 442.383 -138.183 442.383c-5.86 20.507 -18.474 37.923 -37.842 52.246c-19.369 14.323 -39.958 21.484 -61.768 21.484c0 0 -436.035 0 -436.035 0c-3.255 0 -6.592 0.326 -10.01 0.977c-3.418 0.651 -6.429 2.604 -9.033 5.859c-3.906 6.51 -3.906 15.625 0 27.344c5.209 13.997 14.974 26.286 29.297 36.865c14.323 10.579 28.483 15.869 42.481 15.869c0 0 461.914 0 461.914 0c9.44 0 18.798 -3.499 28.076 -10.498c9.277 -6.999 15.381 -14.73 18.31 -23.193c0 0 150.879 -481.934 150.879 -481.934c1.302 -5.208 2.116 -10.01 2.442 -14.404c0.325 -4.395 0.162 -9.033 -0.489 -13.916c13.347 4.557 23.275 11.556 29.786 20.996c13.346 17.253 16.438 38.249 9.277 62.988c0 0 -138.184 441.895 -138.184 441.895c-5.859 21.484 -18.473 39.225 -37.842 53.222c-19.368 13.998 -40.12 20.996 -62.255 20.996c0 0 -461.914 0 -461.914 0c-13.347 0 -26.286 -2.36 -38.819 -7.08c-12.532 -4.72 -24.495 -11.067 -35.888 -19.043c-11.394 -7.975 -21.403 -17.415 -30.03 -28.32c-8.626 -10.905 -15.381 -22.705 -20.263 -35.4c-8.138 -22.136 -8.464 -42.806 -0.977 -62.012c0 0 0 0 0 0m239.258 -317.383c-3.255 12.695 0.976 19.043 12.695 19.043c0 0 300.293 0 300.293 0c5.208 0 10.173 -1.79 14.893 -5.371c4.72 -3.581 7.731 -8.138 9.033 -13.672c0 0 11.719 -36.621 11.719 -36.621c1.302 -5.208 0.813 -9.684 -1.465 -13.428c-2.279 -3.743 -6.022 -5.615 -11.231 -5.615c0 0 -300.293 0 -300.293 0c-5.208 0 -10.335 1.79 -15.381 5.371c-5.045 3.581 -8.219 8.138 -9.521 13.672c0 0 -10.742 36.621 -10.742 36.621m33.691 -111.816c-1.302 5.208 -0.732 9.521 1.709 12.939c2.442 3.418 6.266 5.127 11.475 5.127c0 0 299.805 0 299.805 0c5.208 0 10.172 -1.709 14.892 -5.127c4.72 -3.418 8.219 -7.731 10.498 -12.939c0 0 10.742 -38.086 10.742 -38.086c1.302 -5.208 0.814 -9.684 -1.465 -13.428c-2.278 -3.743 -6.184 -5.615 -11.718 -5.615c0 0 -299.805 0 -299.805 0c-5.208 0 -10.172 1.872 -14.893 5.615c-4.72 3.744 -8.056 8.22 -10.009 13.428c0 0 -11.231 38.086 -11.231 38.086" />
  </g>
</svg>