<svg height="1000px" width="714.2857142857143px" xmlns="http://www.w3.org/2000/svg">
  <g>
    <path d="M649.5535714285714 71.42857142857133c23.065 0 40.923 9.301 53.571 27.902c7.441 10.416 11.161 21.949 11.161 34.598c0 0 0 719.308 0 719.308c0 12.649 -3.72 24.182 -11.161 34.598c-12.648 18.229 -29.203 27.344 -49.665 27.344c-20.461 0 -37.202 -5.952 -50.223 -17.857c0 0 -246.094 -236.607 -246.094 -236.607c0 0 -246.093 236.607 -246.093 236.607c-13.393 12.277 -26.6 18.415 -39.621 18.415c-13.021 0 -24.554 -2.046 -34.598 -6.138c-10.045 -4.093 -18.694 -11.347 -25.949 -21.764c-7.254 -10.416 -10.882 -21.949 -10.882 -34.598c0 0 0 -719.308 0 -719.308c0 -12.649 3.721 -24.182 11.161 -34.598c13.021 -18.601 30.878 -27.902 53.572 -27.902c0 0 584.821 0 584.821 0c0 0 0 0 0 0m-6.696 71.429c0 0 -571.429 0 -571.429 0c0 0 0 693.08 0 693.08c0 0 285.714 -273.996 285.714 -273.996c0 0 285.715 273.996 285.715 273.996c0 0 0 -693.08 0 -693.08c0 0 0 0 0 0" />
  </g>
</svg>