<svg height="1000" width="928.6" xmlns="http://www.w3.org/2000/svg"><path d="M914.6 266.7q22.3 31.8 10.1 72L771.2 844.3q-10.6 35.7 -42.7 60t-68.3 24.3H145.1q-43 0 -82.9 -29.9T6.7 825.3Q-6.7 787.9 5.6 754.5q0 -2.3 1.7 -15.1t2.2 -20.6q.5 -4.5 -1.7 -12T6.1 695.9q1.2 -6.2 4.5 -11.7T19.8 671 29 657.9q12.9 -21.2 25.1 -51t16.8 -51.1q1.6 -5.6 .2 -16.7t-.2 -15.7q1.6 -6.1 9.5 -15.6T89.8 495q11.8 -20.1 23.5 -51.4t13.9 -50.2q.6 -5 -1.4 -17.8t.3 -15.7q2.2 -7.2 12.3 -17t12.3 -12.5q10.6 -14.6 23.7 -47.2t15.3 -53.8q.6 -4.5 -1.6 -14.3t-1.2 -14.8q1.2 -4.4 5.1 -10t10 -12.8 9.5 -11.8q4.5 -6.7 9.2 -17t8.4 -19.5 8.9 -20.1 10.9 -17.9 14.8 -13.1 20.1 -6.4 26.5 3.1l-.6 1.7q21.2 -5.1 28.5 -5.1h424.6q41.3 0 63.7 31.3t10 72.5L683.6 680.8q-20.1 66.4 -39.9 85.7T572 785.7H87.1q-15.1 0 -21.3 8.4 -6.1 8.9 -.5 24 13.4 39 80.3 39h515.1q16.2 0 31.3 -8.6t19.5 -23.2L878.9 274.6q3.9 -12.3 2.8 -31.9 21.2 8.4 32.9 24zm-593.7 1.2q-2.3 7.2 1.1 12.5t11.1 5.3h339.3q7.3 0 14.3 -5.3t9.2 -12.5l11.7 -35.8q2.2 -7.2 -1.1 -12.5t-11.2 -5.3H356q-7.2 0 -14.2 5.3t-9.2 12.5zm-46.3 142.8q-2.3 7.3 1.1 12.6t11.1 5.3h339.3q7.3 0 14.2 -5.3t9.3 -12.6L661.3 375q2.2 -7.3 -1.1 -12.6T649 357.1H309.7q-7.2 0 -14.2 5.3t-9.2 12.6z"/></svg>