<svg height="1000" width="715" xmlns="http://www.w3.org/2000/svg"><path d="M0 853.246l0-719.262q0-18.972 10.881-34.596t29.295-22.878q11.718-5.022 24.552-5.022l584.784 0q12.834 0 24.552 5.022 18.414 7.254 29.295 22.878t10.881 34.596l0 719.262q0 18.972-10.881 34.596t-29.295 22.878q-10.602 4.464-24.552 4.464-26.784 0-46.314-17.856l-246.078-236.592-246.078 236.592q-20.088 18.414-46.314 18.414-12.834 0-24.552-5.022-18.414-7.254-29.295-22.878t-10.881-34.596zm71.424-17.298l236.034-226.548 49.662-47.43 49.662 47.43 236.034 226.548l0-693.036l-571.392 0l0 693.036z"/></svg>