<svg height="1000px" width="928.5714285714286px" xmlns="http://www.w3.org/2000/svg">
  <g>
    <path d="M-0.046502957589285715 786.6216517857142c0 -11.208 1.876 -21.927 5.627 -32.157c0 -1.488 0.558 -6.511 1.674 -15.067c1.116 -8.557 1.86 -14.881 2.232 -18.973c0.372 -4.093 -0.186 -8.65 -1.674 -13.672c-1.488 -5.023 -1.953 -9.115 -1.395 -12.277c0.558 -3.162 1.953 -6.604 4.185 -10.324c2.232 -3.72 5.302 -8.091 9.208 -13.114c3.906 -5.022 8.556 -11.997 13.951 -20.926c5.394 -8.929 12.183 -23.344 20.368 -43.248c8.184 -19.903 13.3 -34.319 15.346 -43.248c2.046 -8.928 2.604 -17.113 1.674 -24.553c-0.93 -7.441 -0.93 -12.928 0 -16.462c0.93 -3.534 3.999 -8.464 9.208 -14.788c5.208 -6.325 10.044 -13.393 14.509 -21.205c4.464 -7.813 10.602 -22.136 18.415 -42.969c7.812 -20.834 12.184 -35.249 13.114 -43.248c0.93 -7.998 0.744 -16.276 -0.558 -24.833c-1.303 -8.556 -1.21 -14.508 0.279 -17.857c1.488 -3.348 5.58 -8.277 12.276 -14.788c6.697 -6.51 12.184 -12.648 16.462 -18.415c4.279 -5.766 10.789 -19.531 19.532 -41.294c8.742 -21.764 13.579 -36.924 14.509 -45.48c0.93 -8.557 0.651 -16.09 -0.837 -22.601c-1.489 -6.51 -1.861 -11.347 -1.117 -14.509c0.744 -3.162 2.419 -6.603 5.023 -10.323c2.604 -3.721 5.952 -7.999 10.044 -12.835c4.093 -4.837 7.441 -9.115 10.045 -12.835c2.604 -3.72 5.487 -9.022 8.65 -15.904c3.162 -6.883 5.952 -13.393 8.37 -19.531c2.418 -6.139 5.394 -12.835 8.929 -20.09c3.534 -7.254 7.161 -13.206 10.881 -17.857c3.721 -4.65 8.557 -9.021 14.509 -13.114c6.027 -4.017 14.063 -6.026 24.107 -6.026c6.697 0 14.286 0.892 22.768 2.678c0 0 -0.558 1.674 -0.558 1.674c14.137 -3.348 23.624 -5.022 28.46 -5.022c0 0 424.665 0 424.665 0c27.53 0 48.735 10.417 63.616 31.25c9.601 13.441 14.401 28.275 14.401 44.503c0 8.926 -1.452 18.273 -4.356 28.042c0 0 -152.902 505.58 -152.902 505.58c-13.393 44.271 -26.692 72.824 -39.899 85.658c-13.207 12.835 -37.11 19.253 -71.708 19.253c0 0 -484.933 0 -484.933 0c-10.045 0 -17.113 2.883 -21.205 8.649c-4.093 5.767 -4.279 13.672 -0.558 23.717c8.928 26.041 35.714 39.062 80.357 39.062c0 0 515.067 0 515.067 0c10.788 0 21.205 -2.883 31.25 -8.649c10.044 -5.767 16.555 -13.486 19.531 -23.159c0 0 167.411 -550.781 167.411 -550.781c2.025 -6.366 3.038 -14.194 3.038 -23.486c0 -2.654 -0.083 -5.428 -0.248 -8.322c14.137 5.58 25.112 13.579 32.924 23.996c9.601 13.68 14.401 28.523 14.401 44.526c0 8.802 -1.452 17.955 -4.356 27.46c0 0 -153.46 505.58 -153.46 505.58c-7.069 23.81 -21.299 43.806 -42.69 59.989c-21.391 16.183 -44.178 24.275 -68.359 24.275c0 0 -515.067 0 -515.067 0c-28.646 0 -56.269 -9.952 -82.869 -29.855c-26.599 -19.903 -44.735 -43.341 -54.408 -70.313c-5.239 -14.609 -7.859 -28.537 -7.859 -41.782c0 0 0 0 0 0m274.6 -375.907c-1.488 4.836 -1.116 9.021 1.116 12.555c2.232 3.535 5.953 5.302 11.161 5.302c0 0 339.286 0 339.286 0c4.836 0 9.579 -1.767 14.229 -5.302c4.651 -3.534 7.72 -7.719 9.208 -12.555c0 0 11.719 -35.715 11.719 -35.715c1.488 -4.836 1.116 -9.021 -1.116 -12.555c-2.232 -3.535 -5.953 -5.302 -11.161 -5.302c0 0 -339.286 0 -339.286 0c-4.836 0 -9.579 1.767 -14.23 5.302c-4.65 3.534 -7.719 7.719 -9.207 12.555c0 0 -11.719 35.715 -11.719 35.715m46.317 -142.858c-1.488 4.837 -1.116 9.022 1.116 12.556c2.232 3.535 5.952 5.302 11.161 5.302c0 0 339.286 0 339.286 0c4.836 0 9.579 -1.767 14.229 -5.302c4.651 -3.534 7.72 -7.719 9.208 -12.556c0 0 11.719 -35.714 11.719 -35.714c1.488 -4.836 1.116 -9.021 -1.116 -12.556c-2.232 -3.534 -5.953 -5.301 -11.161 -5.301c0 0 -339.286 0 -339.286 0c-4.836 0 -9.579 1.767 -14.23 5.301c-4.65 3.535 -7.719 7.72 -9.207 12.556c0 0 -11.719 35.714 -11.719 35.714" />
  </g>
</svg>