<svg height="1000px" width="834.5px" xmlns="http://www.w3.org/2000/svg">
  <g>
    <path d="M5.25 723.1896362304688c0.667 -5.333 1.333 -10.5 2 -15.5c0.667 -5 1.333 -10.5 2 -16.5c0 -3.333 -0.667 -6.667 -2 -10c-1.333 -3.333 -1.667 -6.667 -1 -10c0.667 -5.333 3.167 -10.5 7.5 -15.5c4.333 -5 8.5 -10.833 12.5 -17.5c7.333 -12 14.667 -26.667 22 -44c7.333 -17.333 12.667 -32.333 16 -45c1.333 -5.333 1.167 -10.333 -0.5 -15c-1.667 -4.667 -1.833 -9 -0.5 -13c1.333 -5.333 4 -9.833 8 -13.5c4 -3.667 7.333 -7.5 10 -11.5c3.333 -6 6.833 -12.833 10.5 -20.5c3.667 -7.667 7.167 -15.667 10.5 -24c3.333 -8.333 6 -16.5 8 -24.5c2 -8 3.333 -14.667 4 -20c0.667 -5.333 0.333 -10.667 -1 -16c-1.333 -5.333 -1.333 -10 0 -14c2 -5.333 5.333 -9.667 10 -13c4.667 -3.333 8.667 -7.333 12 -12c3.333 -4 6.833 -9.667 10.5 -17c3.667 -7.333 7.333 -15.333 11 -24c3.667 -8.667 6.833 -17.167 9.5 -25.5c2.667 -8.333 4.333 -15.833 5 -22.5c0.667 -4 0 -8 -2 -12c-2 -4 -2.333 -8.333 -1 -13c1.333 -4.667 4.333 -9.5 9 -14.5c4.667 -5 9 -10.167 13 -15.5c5.333 -8 10 -17.5 14 -28.5c4 -11 8.833 -21 14.5 -30c5.667 -9 13.167 -16 22.5 -21c9.333 -5 22 -5.167 38 -0.5c0 0 -1 2 -1 2c10 -3.333 18.667 -5 26 -5c0 0 381 0 381 0c25.333 0 44.667 9.333 58 28c13.333 17.333 16.333 38.333 9 63c0 0 -138 442 -138 442c-6 20.667 -18.667 38.167 -38 52.5c-19.333 14.333 -40 21.5 -62 21.5c0 0 -436 0 -436 0c-3.333 0 -6.667 0.333 -10 1c-3.333 0.667 -6.333 2.667 -9 6c-4 6.667 -4 15.667 0 27c5.333 14 15.167 26.333 29.5 37c14.333 10.667 28.5 16 42.5 16c0 0 462 0 462 0c9.333 0 18.667 -3.5 28 -10.5c9.333 -7 15.333 -14.833 18 -23.5c0 0 151 -482 151 -482c1.333 -5.333 2.167 -10.167 2.5 -14.5c0.333 -4.333 0.167 -8.833 -0.5 -13.5c13.333 4.667 23.333 11.667 30 21c13.333 17.333 16.333 38.333 9 63c0 0 -138 442 -138 442c-6 21.333 -18.667 39 -38 53c-19.333 14 -40 21 -62 21c0 0 -462 0 -462 0c-13.333 0 -26.333 -2.333 -39 -7c-12.667 -4.667 -24.667 -11 -36 -19c-11.333 -8 -21.333 -17.5 -30 -28.5c-8.667 -11 -15.333 -22.833 -20 -35.5c-8 -22 -8.333 -42.667 -1 -62c0 0 0 0 0 0m239 -317c-3.333 12.667 1 19 13 19c0 0 300 0 300 0c5.333 0 10.333 -1.833 15 -5.5c4.667 -3.667 7.667 -8.167 9 -13.5c0 0 12 -37 12 -37c1.333 -5.333 0.833 -9.833 -1.5 -13.5c-2.333 -3.667 -6.167 -5.5 -11.5 -5.5c0 0 -300 0 -300 0c-5.333 0 -10.5 1.833 -15.5 5.5c-5 3.667 -8.167 8.167 -9.5 13.5c0 0 -11 37 -11 37m34 -112c-1.333 5.333 -0.833 9.667 1.5 13c2.333 3.333 6.167 5 11.5 5c0 0 300 0 300 0c5.333 0 10.333 -1.667 15 -5c4.667 -3.333 8 -7.667 10 -13c0 0 11 -38 11 -38c1.333 -5.333 0.833 -9.833 -1.5 -13.5c-2.333 -3.667 -6.167 -5.5 -11.5 -5.5c0 0 -300 0 -300 0c-5.333 0 -10.333 1.833 -15 5.5c-4.667 3.667 -8 8.167 -10 13.5c0 0 -11 38 -11 38" />
  </g>
</svg>