<svg height="1000" width="1000" xmlns="http://www.w3.org/2000/svg"><path d="M607.1 464.3q0 -14.5 -10.6 -25.1t-25.1 -10.6H428.6q-14.5 0 -25.1 10.6t-10.6 25.1 10.6 25.1 25.1 10.6h142.8q14.5 0 25.1 -10.6t10.6 -25.1zM928.6 357.1v535.8q0 14.5 -10.6 25.1t-25.1 10.6H107.1Q92.6 928.6 82 918T71.4 892.9V357.1Q71.4 342.6 82 332t25.1 -10.6h785.8q14.5 0 25.1 10.6t10.6 25.1zm35.7 -250V250q0 14.5 -10.6 25.1t-25.1 10.6H71.4q-14.5 0 -25.1 -10.6T35.7 250V107.1Q35.7 92.6 46.3 82T71.4 71.4h857.2q14.5 0 25.1 10.6t10.6 25.1z"/></svg>