<svg height="1000" width="1000" xmlns="http://www.w3.org/2000/svg"><path d="M607.104 464.32q0 -14.508 -10.602 -25.11t-25.11 -10.602h-142.848q-14.508 0 -25.11 10.602t-10.602 25.11 10.602 25.11 25.11 10.602h142.848q14.508 0 25.11 -10.602t10.602 -25.11zm321.408 -107.136v535.68q0 14.508 -10.602 25.11t-25.11 10.602h-785.664q-14.508 0 -25.11 -10.602t-10.602 -25.11v-535.68q0 -14.508 10.602 -25.11t25.11 -10.602h785.664q14.508 0 25.11 10.602t10.602 25.11zm35.712 -249.984v142.848q0 14.508 -10.602 25.11t-25.11 10.602h-857.088q-14.508 0 -25.11 -10.602t-10.602 -25.11v-142.848q0 -14.508 10.602 -25.11t25.11 -10.602h857.088q14.508 0 25.11 10.602t10.602 25.11z"/></svg>