<svg height="1000" width="1214.3" xmlns="http://www.w3.org/2000/svg"><path d="M107.1 660.7q-36.8 0 -63 26.2T17.9 750t26.2 63.1 63 26.2 63.1 -26.2T196.4 750t-26.2 -63.1 -63.1 -26.2zm285.8 0q-36.9 0 -63.1 26.2T303.6 750t26.2 63.1 63.1 26.2 63 -26.2T482.1 750t-26.2 -63.1 -63 -26.2zm0 -285.7q-36.9 0 -63.1 26.2t-26.2 63.1 26.2 63 63.1 26.3 63 -26.3 26.2 -63 -26.2 -63.1 -63 -26.2zm428.5 285.7q-36.8 0 -63 26.2T732.1 750t26.3 63.1 63 26.2 63.1 -26.2T910.7 750t-26.2 -63.1 -63.1 -26.2zm285.7 0q-36.8 0 -63 26.2t-26.2 63.1 26.2 63.1 63 26.2 63.1 -26.2 26.2 -63.1 -26.2 -63.1 -63.1 -26.2zM821.4 375q-36.8 0 -63 26.2t-26.3 63.1 26.3 63 63 26.3 63.1 -26.3 26.2 -63 -26.2 -63.1T821.4 375zm285.7 0q-36.8 0 -63 26.2t-26.2 63.1 26.2 63 63 26.3 63.1 -26.3 26.2 -63 -26.2 -63.1T1107.1 375zm0 -285.7q-36.8 0 -63 26.2t-26.2 63.1 26.2 63 63 26.3 63.1 -26.3 26.2 -63 -26.2 -63.1 -63.1 -26.2zM214.3 750q0 44.6 -31.3 75.9t-75.9 31.2T31.3 825.9 0 750t31.3 -75.9 75.8 -31.2 75.9 31.2 31.3 75.9zm285.7 0q0 44.6 -31.2 75.9t-75.9 31.2T317 825.9 285.7 750 317 674.1t75.9 -31.2 75.9 31.2T500 750zM214.3 464.3q0 44.6 -31.3 75.9t-75.9 31.2T31.3 540.2 0 464.3t31.3 -75.9 75.8 -31.3 75.9 31.3 31.3 75.9zm285.7 0q0 44.6 -31.2 75.9t-75.9 31.2T317 540.2t-31.3 -75.9T317 388.4t75.9 -31.3 75.9 31.3 31.2 75.9zM214.3 178.6q0 44.6 -31.3 75.9t-75.9 31.2T31.3 254.5 0 178.6t31.3 -75.9 75.8 -31.3 75.9 31.3 31.3 75.9zM928.6 750q0 44.6 -31.3 75.9t-75.9 31.2 -75.9 -31.2T714.3 750t31.2 -75.9 75.9 -31.2 75.9 31.2 31.3 75.9zM500 178.6q0 44.6 -31.2 75.9t-75.9 31.2T317 254.5t-31.3 -75.9T317 102.7t75.9 -31.3 75.9 31.3 31.2 75.9zM1214.3 750q0 44.6 -31.3 75.9t-75.9 31.2 -75.8 -31.2T1000 750t31.3 -75.9 75.8 -31.2 75.9 31.2 31.3 75.9zM928.6 464.3q0 44.6 -31.3 75.9t-75.9 31.2 -75.9 -31.2 -31.2 -75.9 31.2 -75.9 75.9 -31.3 75.9 31.3 31.3 75.9zm285.7 0q0 44.6 -31.3 75.9t-75.9 31.2 -75.8 -31.2T1000 464.3t31.3 -75.9 75.8 -31.3 75.9 31.3 31.3 75.9zM928.6 178.6q0 44.6 -31.3 75.9t-75.9 31.2 -75.9 -31.2 -31.2 -75.9 31.2 -75.9 75.9 -31.3 75.9 31.3 31.3 75.9zm285.7 0q0 44.6 -31.3 75.9t-75.9 31.2 -75.8 -31.2T1000 178.6t31.3 -75.9 75.8 -31.3 75.9 31.3 31.3 75.9z"/></svg>