<svg height="1000" width="1000" xmlns="http://www.w3.org/2000/svg"><path d="M0 839.296l0-267.84l374.976 0l0 89.28q0 14.508 10.602 25.11t25.11 10.602l178.56 0q14.508 0 25.11-10.602t10.602-25.11l0-89.28l374.976 0l0 267.84q0 36.828-26.226 63.054t-63.054 26.226l-821.376 0q-36.828 0-63.054-26.226t-26.226-63.054zm0-321.408l0-214.272q0-36.828 26.226-63.054t63.054-26.226l196.416 0l0-89.28q0-22.32 15.624-37.944t37.944-15.624l321.408 0q22.32 0 37.944 15.624t15.624 37.944l0 89.28l196.416 0q36.828 0 63.054 26.226t26.226 63.054l0 214.272l-999.936 0zm357.12-303.552l285.696 0l0-71.424l-285.696 0l0 71.424zm71.424 428.544l0-71.424l142.848 0l0 71.424l-142.848 0z"/></svg>