<svg height="1000" width="1000" xmlns="http://www.w3.org/2000/svg"><path d="M0 767.872v-267.84h374.976v89.28q0 14.508 10.602 25.11t25.11 10.602h178.56q14.508 0 25.11 -10.602t10.602 -25.11v-89.28h374.976v267.84q0 36.828 -26.226 63.054t-63.054 26.226h-821.376q-36.828 0 -63.054 -26.226t-26.226 -63.054zm0 -321.408v-214.272q0 -36.828 26.226 -63.054t63.054 -26.226h196.416v-89.28q0 -22.32 15.624 -37.944t37.944 -15.624h321.408q22.32 0 37.944 15.624t15.624 37.944v89.28h196.416q36.828 0 63.054 26.226t26.226 63.054v214.272h-999.936zm357.12 -303.552h285.696v-71.424h-285.696v71.424zm71.424 428.544v-71.424h142.848v71.424h-142.848z"/></svg>