<svg height="1000px" width="899.90234375px" xmlns="http://www.w3.org/2000/svg">
  <g>
    <path d="M0 818.84765625c0 0 0 -250 0 -250c0 0 348.145 0 348.145 0c-0.652 1.953 -0.977 5.046 -0.977 9.277c0 0 0 74.707 0 74.707c0 17.904 6.266 33.448 18.799 46.631c12.532 13.184 28.239 19.776 47.119 19.776c0 0 74.707 0 74.707 0c17.904 0 33.284 -6.511 46.143 -19.532c12.858 -13.02 19.287 -28.645 19.287 -46.875c0 0 0 -74.707 0 -74.707c0 -3.906 -0.489 -6.998 -1.465 -9.277c0 0 348.144 0 348.144 0c0 0 0 250 0 250c0 15.299 -5.452 28.483 -16.357 39.551c-10.905 11.067 -24.007 16.601 -39.307 16.601c0 0 -788.086 0 -788.086 0c-15.299 0 -28.483 -5.534 -39.55 -16.601c-11.068 -11.068 -16.602 -24.252 -16.602 -39.551c0 0 0 0 0 0m0 -306.641c0 0 0 -181.152 0 -181.152c0 -15.299 5.534 -28.483 16.602 -39.551c11.067 -11.067 24.251 -16.601 39.55 -16.601c0 0 207.032 0 207.032 0c0 0 0 -112.793 0 -112.793c0 -10.091 3.499 -18.799 10.498 -26.123c6.998 -7.325 15.706 -10.987 26.123 -10.987c0 0 300.293 0 300.293 0c10.742 0 19.775 3.662 27.099 10.987c7.324 7.324 10.987 16.032 10.987 26.123c0 0 0 112.793 0 112.793c0 0 206.054 0 206.054 0c15.3 0 28.402 5.534 39.307 16.601c10.905 11.068 16.357 24.252 16.357 39.551c0 0 0 181.152 0 181.152c0 0 -899.902 0 -899.902 0c0 0 0 0 0 0m337.891 -237.304c0 0 225.097 0 225.097 0c0 0 0 -74.707 0 -74.707c0 0 -225.097 0 -225.097 0c0 0 0 74.707 0 74.707c0 0 0 0 0 0m64.941 377.929c0 0 0 -74.707 0 -74.707c0 -5.859 3.418 -8.951 10.254 -9.277c0 0 74.707 0 74.707 0c5.859 0 8.952 3.092 9.277 9.277c0 0 0 74.707 0 74.707c0 5.86 -3.092 8.952 -9.277 9.278c0 0 -74.707 0 -74.707 0c-6.51 0 -9.928 -3.093 -10.254 -9.278c0 0 0 0 0 0" />
  </g>
</svg>