<svg height="1000px" width="1000px" xmlns="http://www.w3.org/2000/svg">
  <g>
    <path d="M0 839.2857142857142c0 0 0 -267.857 0 -267.857c0 0 375 0 375 0c0 0 0 89.286 0 89.286c0 9.672 3.534 18.043 10.603 25.111c7.068 7.069 15.439 10.603 25.111 10.603c0 0 178.572 0 178.572 0c9.672 0 18.043 -3.534 25.111 -10.603c7.069 -7.068 10.603 -15.439 10.603 -25.111c0 0 0 -89.286 0 -89.286c0 0 375 0 375 0c0 0 0 267.857 0 267.857c0 24.554 -8.743 45.573 -26.228 63.058c-17.485 17.485 -38.504 26.228 -63.058 26.228c0 0 -821.428 0 -821.428 0c-24.554 0 -45.573 -8.743 -63.058 -26.228c-17.485 -17.485 -26.228 -38.504 -26.228 -63.058c0 0 0 0 0 0m0 -321.429c0 0 0 -214.285 0 -214.285c0 -24.554 8.743 -45.573 26.228 -63.058c17.485 -17.485 38.504 -26.228 63.058 -26.228c0 0 196.428 0 196.428 0c0 0 0 -89.286 0 -89.286c0 -14.881 5.209 -27.529 15.625 -37.946c10.417 -10.417 23.066 -15.625 37.947 -15.625c0 0 321.428 0 321.428 0c14.881 0 27.53 5.208 37.947 15.625c10.416 10.417 15.625 23.065 15.625 37.946c0 0 0 89.286 0 89.286c0 0 196.428 0 196.428 0c24.554 0 45.573 8.743 63.058 26.228c17.485 17.485 26.228 38.504 26.228 63.058c0 0 0 214.285 0 214.285c0 0 -1000 0 -1000 0c0 0 0 0 0 0m357.143 -303.571c0 0 285.714 0 285.714 0c0 0 0 -71.429 0 -71.429c0 0 -285.714 0 -285.714 0c0 0 0 71.429 0 71.429c0 0 0 0 0 0m71.428 428.571c0 0 0 -71.428 0 -71.428c0 0 142.858 0 142.858 0c0 0 0 71.428 0 71.428c0 0 -142.858 0 -142.858 0c0 0 0 0 0 0" />
  </g>
</svg>