<svg height="1000" width="1000" xmlns="http://www.w3.org/2000/svg"><path d="M901.2 0q39.1 0 68.4 25.9T998.9 91q0 35.1 -25.1 84.2 -185.3 351 -259.5 419.7 -54.1 50.7 -121.7 50.7 -70.3 0 -120.8 -51.6T421.3 471.5q0 -71.4 51.4 -118.3l356 -323.1Q861.6 0 901.2 0zM394 577q21.7 42.4 59.4 72.6t84 42.4l.5 39.6q2.3 118.8 -72.2 193.6T271.2 1000q-68.6 0 -121.6 -25.9T64.5 902.9 16.2 800.8 0 678q3.9 2.8 22.9 16.8t34.6 24.8T90.4 740t25.7 9.4q22.9 0 30.7 -20.6Q160.7 692 178.9 666t38.7 -42.4 49.1 -26.5 57.5 -14.2T394 577z"/></svg>