<svg height="1000" width="1000" xmlns="http://www.w3.org/2000/svg"><path d="M901.17 .064q39.06 0 68.355 25.947t29.295 65.007q0 35.154 -25.11 84.258 -185.256 350.982 -259.47 419.616 -54.126 50.778 -121.644 50.778 -70.308 0 -120.807 -51.615t-50.499 -122.481q0 -71.424 51.336 -118.296l356.004 -323.082q32.922 -30.132 72.54 -30.132zm-507.222 576.972q21.762 42.408 59.427 72.54t83.979 42.408l.558 39.618q2.232 118.854 -72.261 193.626t-194.463 74.772q-68.634 0 -121.644 -25.947t-85.095 -71.145 -48.267 -102.114 -16.182 -122.76q3.906 2.79 22.878 16.74t34.596 24.831 32.922 20.367 25.668 9.486q22.878 0 30.69 -20.646 13.95 -36.828 32.085 -62.775t38.781 -42.408 49.104 -26.505 57.474 -14.229 69.75 -5.859z"/></svg>