<svg height="1000" width="928.6" xmlns="http://www.w3.org/2000/svg"><path d="M910.7 535.7q0 14.5 -10.6 25.1T875 571.4H750q0 95.5 -37.4 161.9l116.1 116.6q10.6 10.6 10.6 25.1t-10.6 25.1q-10.1 10.6 -25.1 10.6t-25.1 -10.6L668 790.2q-2.8 2.8 -8.4 7.2t-23.4 15.9 -36.3 20.4 -45.8 16.2 -54.1 7.2v-500h-71.4v500q-28.5 0 -56.7 -7.5t-48.5 -18.4 -36.8 -21.8 -24.3 -18.1l-8.4 -7.8L151.8 899q-11.2 11.7 -26.8 11.7 -13.4 0 -24 -8.9Q90.4 891.7 89.6 877t8.6 -26L210.9 724.3Q178.6 660.7 178.6 571.4h-125q-14.5 0 -25.1 -10.6T17.9 535.7t10.6 -25.1T53.6 500h125V335.9L82 239.4Q71.4 228.8 71.4 214.3T82 189.2t25.1 -10.6 25.2 10.6l96.5 96.5h471l96.5 -96.5q10.6 -10.6 25.1 -10.6t25.1 10.6 10.6 25.1 -10.6 25.1L750 335.9V500h125q14.5 0 25.1 10.6t10.6 25.1zM642.9 214.3H285.7q0 -74.2 52.2 -126.4T464.3 35.7t126.4 52.2 52.2 126.4z"/></svg>