<svg height="1000" width="785.7" xmlns="http://www.w3.org/2000/svg"><path d="M0 964.3v-928.5q0-14.5 10.6-25.1t25.1-10.6h714.2q14.5 0 25.1 10.6t10.6 25.1v928.5q0 14.5-10.6 25.1t-25.1 10.6h-714.2q-14.5 0-25.1-10.6t-10.6-25.1zm71.4-35.7h214.3v-125q0-7.3 5.3-12.6t12.6-5.3h178.6q7.3 0 12.6 5.3t5.3 12.6v125h214.3v-857.1h-642.8v857.1zm71.4-160.7v-35.7q0-7.3 5.3-12.6t12.6-5.3h35.7q7.3 0 12.6 5.3t5.3 12.6v35.7q0 7.3-5.3 12.6t-12.6 5.3h-35.7q-7.3 0-12.6-5.3t-5.3-12.6zm0-142.8v-35.7q0-7.3 5.3-12.6t12.6-5.3h35.7q7.3 0 12.6 5.3t5.3 12.6v35.7q0 7.3-5.3 12.6t-12.6 5.3h-35.7q-7.3 0-12.6-5.3t-5.3-12.6zm0-142.8v-35.7q0-7.3 5.3-12.6t12.6-5.3h35.7q7.3 0 12.6 5.3t5.3 12.6v35.7q0 7.3-5.3 12.6t-12.6 5.3h-35.7q-7.3 0-12.6-5.3t-5.3-12.6zm0-142.8v-35.7q0-7.3 5.3-12.6t12.6-5.3h35.7q7.3 0 12.6 5.3t5.3 12.6v35.7q0 7.3-5.3 12.6t-12.6 5.3h-35.7q-7.3 0-12.6-5.3t-5.3-12.6zm0-142.8v-35.7q0-7.3 5.3-12.6t12.6-5.3h35.7q7.3 0 12.6 5.3t5.3 12.6v35.7q0 7.3-5.3 12.6t-12.6 5.3h-35.7q-7.3 0-12.6-5.3t-5.3-12.6zm142.8 428.5v-35.7q0-7.3 5.3-12.6t12.6-5.3h35.7q7.3 0 12.6 5.3t5.3 12.6v35.7q0 7.3-5.3 12.6t-12.6 5.3h-35.7q-7.3 0-12.6-5.3t-5.3-12.6zm0-142.8v-35.7q0-7.3 5.3-12.6t12.6-5.3h35.7q7.3 0 12.6 5.3t5.3 12.6v35.7q0 7.3-5.3 12.6t-12.6 5.3h-35.7q-7.3 0-12.6-5.3t-5.3-12.6zm0-142.8v-35.7q0-7.3 5.3-12.6t12.6-5.3h35.7q7.3 0 12.6 5.3t5.3 12.6v35.7q0 7.3-5.3 12.6t-12.6 5.3h-35.7q-7.3 0-12.6-5.3t-5.3-12.6zm0-142.8v-35.7q0-7.3 5.3-12.6t12.6-5.3h35.7q7.3 0 12.6 5.3t5.3 12.6v35.7q0 7.3-5.3 12.6t-12.6 5.3h-35.7q-7.3 0-12.6-5.3t-5.3-12.6zm142.8 428.5v-35.7q0-7.3 5.3-12.6t12.6-5.3h35.7q7.3 0 12.6 5.3t5.3 12.6v35.7q0 7.3-5.3 12.6t-12.6 5.3h-35.7q-7.3 0-12.6-5.3t-5.3-12.6zm0-142.8v-35.7q0-7.3 5.3-12.6t12.6-5.3h35.7q7.3 0 12.6 5.3t5.3 12.6v35.7q0 7.3-5.3 12.6t-12.6 5.3h-35.7q-7.3 0-12.6-5.3t-5.3-12.6zm0-142.8v-35.7q0-7.3 5.3-12.6t12.6-5.3h35.7q7.3 0 12.6 5.3t5.3 12.6v35.7q0 7.3-5.3 12.6t-12.6 5.3h-35.7q-7.3 0-12.6-5.3t-5.3-12.6zm0-142.8v-35.7q0-7.3 5.3-12.6t12.6-5.3h35.7q7.3 0 12.6 5.3t5.3 12.6v35.7q0 7.3-5.3 12.6t-12.6 5.3h-35.7q-7.3 0-12.6-5.3t-5.3-12.6zm142.8 571.4v-35.7q0-7.3 5.3-12.6t12.6-5.3h35.7q7.3 0 12.6 5.3t5.3 12.6v35.7q0 7.3-5.3 12.6t-12.6 5.3h-35.7q-7.3 0-12.6-5.3t-5.3-12.6zm0-142.8v-35.7q0-7.3 5.3-12.6t12.6-5.3h35.7q7.3 0 12.6 5.3t5.3 12.6v35.7q0 7.3-5.3 12.6t-12.6 5.3h-35.7q-7.3 0-12.6-5.3t-5.3-12.6zm0-142.8v-35.7q0-7.3 5.3-12.6t12.6-5.3h35.7q7.3 0 12.6 5.3t5.3 12.6v35.7q0 7.3-5.3 12.6t-12.6 5.3h-35.7q-7.3 0-12.6-5.3t-5.3-12.6zm0-142.8v-35.7q0-7.3 5.3-12.6t12.6-5.3h35.7q7.3 0 12.6 5.3t5.3 12.6v35.7q0 7.3-5.3 12.6t-12.6 5.3h-35.7q-7.3 0-12.6-5.3t-5.3-12.6zm0-142.8v-35.7q0-7.3 5.3-12.6t12.6-5.3h35.7q7.3 0 12.6 5.3t5.3 12.6v35.7q0 7.3-5.3 12.6t-12.6 5.3h-35.7q-7.3 0-12.6-5.3t-5.3-12.6z"/></svg>