<svg height="1000px" width="785.7142857142858px" xmlns="http://www.w3.org/2000/svg">
  <g>
    <path d="M0 964.2857142857142c0 0 0 -928.571 0 -928.571c0 -9.673 3.534 -18.044 10.603 -25.112c7.068 -7.068 15.439 -10.603 25.111 -10.603c0 0 714.286 0 714.286 0c9.673 0 18.043 3.535 25.112 10.603c7.068 7.068 10.602 15.439 10.602 25.112c0 0 0 928.571 0 928.571c0 9.673 -3.534 18.043 -10.602 25.112c-7.069 7.068 -15.439 10.602 -25.112 10.602c0 0 -714.286 0 -714.286 0c-9.672 0 -18.043 -3.534 -25.111 -10.602c-7.069 -7.069 -10.603 -15.439 -10.603 -25.112c0 0 0 0 0 0m71.429 -35.714c0 0 214.285 0 214.285 0c0 0 0 -125 0 -125c0 -4.837 1.767 -9.022 5.302 -12.556c3.534 -3.534 7.719 -5.301 12.555 -5.301c0 0 178.572 0 178.572 0c4.836 0 9.021 1.767 12.556 5.301c3.534 3.534 5.301 7.719 5.301 12.556c0 0 0 125 0 125c0 0 214.286 0 214.286 0c0 0 0 -857.143 0 -857.143c0 0 -642.857 0 -642.857 0c0 0 0 857.143 0 857.143c0 0 0 0 0 0m71.428 -160.715c0 0 0 -35.714 0 -35.714c0 -4.836 1.767 -9.021 5.301 -12.556c3.535 -3.534 7.72 -5.301 12.556 -5.301c0 0 35.715 0 35.715 0c4.836 0 9.021 1.767 12.555 5.301c3.535 3.535 5.302 7.72 5.302 12.556c0 0 0 35.714 0 35.714c0 4.837 -1.767 9.022 -5.302 12.556c-3.534 3.534 -7.719 5.302 -12.555 5.302c0 0 -35.715 0 -35.715 0c-4.836 0 -9.021 -1.768 -12.556 -5.302c-3.534 -3.534 -5.301 -7.719 -5.301 -12.556c0 0 0 0 0 0m0 -142.857c0 0 0 -35.714 0 -35.714c0 -4.836 1.767 -9.022 5.301 -12.556c3.535 -3.534 7.72 -5.301 12.556 -5.301c0 0 35.715 0 35.715 0c4.836 0 9.021 1.767 12.555 5.301c3.535 3.534 5.302 7.72 5.302 12.556c0 0 0 35.714 0 35.714c0 4.837 -1.767 9.022 -5.302 12.556c-3.534 3.534 -7.719 5.301 -12.555 5.301c0 0 -35.715 0 -35.715 0c-4.836 0 -9.021 -1.767 -12.556 -5.301c-3.534 -3.534 -5.301 -7.719 -5.301 -12.556c0 0 0 0 0 0m0 -142.857c0 0 0 -35.714 0 -35.714c0 -4.836 1.767 -9.022 5.301 -12.556c3.535 -3.534 7.72 -5.301 12.556 -5.301c0 0 35.715 0 35.715 0c4.836 0 9.021 1.767 12.555 5.301c3.535 3.534 5.302 7.72 5.302 12.556c0 0 0 35.714 0 35.714c0 4.836 -1.767 9.022 -5.302 12.556c-3.534 3.534 -7.719 5.301 -12.555 5.301c0 0 -35.715 0 -35.715 0c-4.836 0 -9.021 -1.767 -12.556 -5.301c-3.534 -3.534 -5.301 -7.72 -5.301 -12.556c0 0 0 0 0 0m0 -142.857c0 0 0 -35.714 0 -35.714c0 -4.837 1.767 -9.022 5.301 -12.556c3.535 -3.534 7.72 -5.301 12.556 -5.301c0 0 35.715 0 35.715 0c4.836 0 9.021 1.767 12.555 5.301c3.535 3.534 5.302 7.719 5.302 12.556c0 0 0 35.714 0 35.714c0 4.836 -1.767 9.022 -5.302 12.556c-3.534 3.534 -7.719 5.301 -12.555 5.301c0 0 -35.715 0 -35.715 0c-4.836 0 -9.021 -1.767 -12.556 -5.301c-3.534 -3.534 -5.301 -7.72 -5.301 -12.556c0 0 0 0 0 0m0 -142.857c0 0 0 -35.714 0 -35.714c0 -4.837 1.767 -9.022 5.301 -12.556c3.535 -3.534 7.72 -5.302 12.556 -5.302c0 0 35.715 0 35.715 0c4.836 0 9.021 1.768 12.555 5.302c3.535 3.534 5.302 7.719 5.302 12.556c0 0 0 35.714 0 35.714c0 4.836 -1.767 9.021 -5.302 12.556c-3.534 3.534 -7.719 5.301 -12.555 5.301c0 0 -35.715 0 -35.715 0c-4.836 0 -9.021 -1.767 -12.556 -5.301c-3.534 -3.535 -5.301 -7.72 -5.301 -12.556c0 0 0 0 0 0m142.857 428.571c0 0 0 -35.714 0 -35.714c0 -4.836 1.767 -9.022 5.302 -12.556c3.534 -3.534 7.719 -5.301 12.555 -5.301c0 0 35.715 0 35.715 0c4.836 0 9.021 1.767 12.556 5.301c3.534 3.534 5.301 7.72 5.301 12.556c0 0 0 35.714 0 35.714c0 4.837 -1.767 9.022 -5.301 12.556c-3.535 3.534 -7.72 5.301 -12.556 5.301c0 0 -35.715 0 -35.715 0c-4.836 0 -9.021 -1.767 -12.555 -5.301c-3.535 -3.534 -5.302 -7.719 -5.302 -12.556c0 0 0 0 0 0m0 -142.857c0 0 0 -35.714 0 -35.714c0 -4.836 1.767 -9.022 5.302 -12.556c3.534 -3.534 7.719 -5.301 12.555 -5.301c0 0 35.715 0 35.715 0c4.836 0 9.021 1.767 12.556 5.301c3.534 3.534 5.301 7.72 5.301 12.556c0 0 0 35.714 0 35.714c0 4.836 -1.767 9.022 -5.301 12.556c-3.535 3.534 -7.72 5.301 -12.556 5.301c0 0 -35.715 0 -35.715 0c-4.836 0 -9.021 -1.767 -12.555 -5.301c-3.535 -3.534 -5.302 -7.72 -5.302 -12.556c0 0 0 0 0 0m0 -142.857c0 0 0 -35.714 0 -35.714c0 -4.837 1.767 -9.022 5.302 -12.556c3.534 -3.534 7.719 -5.301 12.555 -5.301c0 0 35.715 0 35.715 0c4.836 0 9.021 1.767 12.556 5.301c3.534 3.534 5.301 7.719 5.301 12.556c0 0 0 35.714 0 35.714c0 4.836 -1.767 9.022 -5.301 12.556c-3.535 3.534 -7.72 5.301 -12.556 5.301c0 0 -35.715 0 -35.715 0c-4.836 0 -9.021 -1.767 -12.555 -5.301c-3.535 -3.534 -5.302 -7.72 -5.302 -12.556c0 0 0 0 0 0m0 -142.857c0 0 0 -35.714 0 -35.714c0 -4.837 1.767 -9.022 5.302 -12.556c3.534 -3.534 7.719 -5.302 12.555 -5.302c0 0 35.715 0 35.715 0c4.836 0 9.021 1.768 12.556 5.302c3.534 3.534 5.301 7.719 5.301 12.556c0 0 0 35.714 0 35.714c0 4.836 -1.767 9.021 -5.301 12.556c-3.535 3.534 -7.72 5.301 -12.556 5.301c0 0 -35.715 0 -35.715 0c-4.836 0 -9.021 -1.767 -12.555 -5.301c-3.535 -3.535 -5.302 -7.72 -5.302 -12.556c0 0 0 0 0 0m142.857 428.571c0 0 0 -35.714 0 -35.714c0 -4.836 1.768 -9.022 5.302 -12.556c3.534 -3.534 7.719 -5.301 12.556 -5.301c0 0 35.714 0 35.714 0c4.836 0 9.021 1.767 12.556 5.301c3.534 3.534 5.301 7.72 5.301 12.556c0 0 0 35.714 0 35.714c0 4.837 -1.767 9.022 -5.301 12.556c-3.535 3.534 -7.72 5.301 -12.556 5.301c0 0 -35.714 0 -35.714 0c-4.837 0 -9.022 -1.767 -12.556 -5.301c-3.534 -3.534 -5.302 -7.719 -5.302 -12.556c0 0 0 0 0 0m0 -142.857c0 0 0 -35.714 0 -35.714c0 -4.836 1.768 -9.022 5.302 -12.556c3.534 -3.534 7.719 -5.301 12.556 -5.301c0 0 35.714 0 35.714 0c4.836 0 9.021 1.767 12.556 5.301c3.534 3.534 5.301 7.72 5.301 12.556c0 0 0 35.714 0 35.714c0 4.836 -1.767 9.022 -5.301 12.556c-3.535 3.534 -7.72 5.301 -12.556 5.301c0 0 -35.714 0 -35.714 0c-4.837 0 -9.022 -1.767 -12.556 -5.301c-3.534 -3.534 -5.302 -7.72 -5.302 -12.556c0 0 0 0 0 0m0 -142.857c0 0 0 -35.714 0 -35.714c0 -4.837 1.768 -9.022 5.302 -12.556c3.534 -3.534 7.719 -5.301 12.556 -5.301c0 0 35.714 0 35.714 0c4.836 0 9.021 1.767 12.556 5.301c3.534 3.534 5.301 7.719 5.301 12.556c0 0 0 35.714 0 35.714c0 4.836 -1.767 9.022 -5.301 12.556c-3.535 3.534 -7.72 5.301 -12.556 5.301c0 0 -35.714 0 -35.714 0c-4.837 0 -9.022 -1.767 -12.556 -5.301c-3.534 -3.534 -5.302 -7.72 -5.302 -12.556c0 0 0 0 0 0m0 -142.857c0 0 0 -35.714 0 -35.714c0 -4.837 1.768 -9.022 5.302 -12.556c3.534 -3.534 7.719 -5.302 12.556 -5.302c0 0 35.714 0 35.714 0c4.836 0 9.021 1.768 12.556 5.302c3.534 3.534 5.301 7.719 5.301 12.556c0 0 0 35.714 0 35.714c0 4.836 -1.767 9.021 -5.301 12.556c-3.535 3.534 -7.72 5.301 -12.556 5.301c0 0 -35.714 0 -35.714 0c-4.837 0 -9.022 -1.767 -12.556 -5.301c-3.534 -3.535 -5.302 -7.72 -5.302 -12.556c0 0 0 0 0 0m142.858 571.428c0 0 0 -35.714 0 -35.714c0 -4.836 1.767 -9.021 5.301 -12.556c3.534 -3.534 7.719 -5.301 12.556 -5.301c0 0 35.714 0 35.714 0c4.836 0 9.022 1.767 12.556 5.301c3.534 3.535 5.301 7.72 5.301 12.556c0 0 0 35.714 0 35.714c0 4.837 -1.767 9.022 -5.301 12.556c-3.534 3.534 -7.72 5.302 -12.556 5.302c0 0 -35.714 0 -35.714 0c-4.837 0 -9.022 -1.768 -12.556 -5.302c-3.534 -3.534 -5.301 -7.719 -5.301 -12.556c0 0 0 0 0 0m0 -142.857c0 0 0 -35.714 0 -35.714c0 -4.836 1.767 -9.022 5.301 -12.556c3.534 -3.534 7.719 -5.301 12.556 -5.301c0 0 35.714 0 35.714 0c4.836 0 9.022 1.767 12.556 5.301c3.534 3.534 5.301 7.72 5.301 12.556c0 0 0 35.714 0 35.714c0 4.837 -1.767 9.022 -5.301 12.556c-3.534 3.534 -7.72 5.301 -12.556 5.301c0 0 -35.714 0 -35.714 0c-4.837 0 -9.022 -1.767 -12.556 -5.301c-3.534 -3.534 -5.301 -7.719 -5.301 -12.556c0 0 0 0 0 0m0 -142.857c0 0 0 -35.714 0 -35.714c0 -4.836 1.767 -9.022 5.301 -12.556c3.534 -3.534 7.719 -5.301 12.556 -5.301c0 0 35.714 0 35.714 0c4.836 0 9.022 1.767 12.556 5.301c3.534 3.534 5.301 7.72 5.301 12.556c0 0 0 35.714 0 35.714c0 4.836 -1.767 9.022 -5.301 12.556c-3.534 3.534 -7.72 5.301 -12.556 5.301c0 0 -35.714 0 -35.714 0c-4.837 0 -9.022 -1.767 -12.556 -5.301c-3.534 -3.534 -5.301 -7.72 -5.301 -12.556c0 0 0 0 0 0m0 -142.857c0 0 0 -35.714 0 -35.714c0 -4.837 1.767 -9.022 5.301 -12.556c3.534 -3.534 7.719 -5.301 12.556 -5.301c0 0 35.714 0 35.714 0c4.836 0 9.022 1.767 12.556 5.301c3.534 3.534 5.301 7.719 5.301 12.556c0 0 0 35.714 0 35.714c0 4.836 -1.767 9.022 -5.301 12.556c-3.534 3.534 -7.72 5.301 -12.556 5.301c0 0 -35.714 0 -35.714 0c-4.837 0 -9.022 -1.767 -12.556 -5.301c-3.534 -3.534 -5.301 -7.72 -5.301 -12.556c0 0 0 0 0 0m0 -142.857c0 0 0 -35.714 0 -35.714c0 -4.837 1.767 -9.022 5.301 -12.556c3.534 -3.534 7.719 -5.302 12.556 -5.302c0 0 35.714 0 35.714 0c4.836 0 9.022 1.768 12.556 5.302c3.534 3.534 5.301 7.719 5.301 12.556c0 0 0 35.714 0 35.714c0 4.836 -1.767 9.021 -5.301 12.556c-3.534 3.534 -7.72 5.301 -12.556 5.301c0 0 -35.714 0 -35.714 0c-4.837 0 -9.022 -1.767 -12.556 -5.301c-3.534 -3.535 -5.301 -7.72 -5.301 -12.556c0 0 0 0 0 0" />
  </g>
</svg>