<svg height="1000" width="785.714" xmlns="http://www.w3.org/2000/svg"><path d="M0 964.288v-928.512q0 -14.508 10.602 -25.11t25.11 -10.602h714.24q14.508 0 25.11 10.602t10.602 25.11v928.512q0 14.508 -10.602 25.11t-25.11 10.602h-714.24q-14.508 0 -25.11 -10.602t-10.602 -25.11zm71.424 -35.712h214.272v-124.992q0 -7.254 5.301 -12.555t12.555 -5.301h178.56q7.254 0 12.555 5.301t5.301 12.555v124.992h214.272v-857.088h-642.816v857.088zm71.424 -160.704v-35.712q0 -7.254 5.301 -12.555t12.555 -5.301h35.712q7.254 0 12.555 5.301t5.301 12.555v35.712q0 7.254 -5.301 12.555t-12.555 5.301h-35.712q-7.254 0 -12.555 -5.301t-5.301 -12.555zm0 -142.848v-35.712q0 -7.254 5.301 -12.555t12.555 -5.301h35.712q7.254 0 12.555 5.301t5.301 12.555v35.712q0 7.254 -5.301 12.555t-12.555 5.301h-35.712q-7.254 0 -12.555 -5.301t-5.301 -12.555zm0 -142.848v-35.712q0 -7.254 5.301 -12.555t12.555 -5.301h35.712q7.254 0 12.555 5.301t5.301 12.555v35.712q0 7.254 -5.301 12.555t-12.555 5.301h-35.712q-7.254 0 -12.555 -5.301t-5.301 -12.555zm0 -142.848v-35.712q0 -7.254 5.301 -12.555t12.555 -5.301h35.712q7.254 0 12.555 5.301t5.301 12.555v35.712q0 7.254 -5.301 12.555t-12.555 5.301h-35.712q-7.254 0 -12.555 -5.301t-5.301 -12.555zm0 -142.848v-35.712q0 -7.254 5.301 -12.555t12.555 -5.301h35.712q7.254 0 12.555 5.301t5.301 12.555v35.712q0 7.254 -5.301 12.555t-12.555 5.301h-35.712q-7.254 0 -12.555 -5.301t-5.301 -12.555zm142.848 428.544v-35.712q0 -7.254 5.301 -12.555t12.555 -5.301h35.712q7.254 0 12.555 5.301t5.301 12.555v35.712q0 7.254 -5.301 12.555t-12.555 5.301h-35.712q-7.254 0 -12.555 -5.301t-5.301 -12.555zm0 -142.848v-35.712q0 -7.254 5.301 -12.555t12.555 -5.301h35.712q7.254 0 12.555 5.301t5.301 12.555v35.712q0 7.254 -5.301 12.555t-12.555 5.301h-35.712q-7.254 0 -12.555 -5.301t-5.301 -12.555zm0 -142.848v-35.712q0 -7.254 5.301 -12.555t12.555 -5.301h35.712q7.254 0 12.555 5.301t5.301 12.555v35.712q0 7.254 -5.301 12.555t-12.555 5.301h-35.712q-7.254 0 -12.555 -5.301t-5.301 -12.555zm0 -142.848v-35.712q0 -7.254 5.301 -12.555t12.555 -5.301h35.712q7.254 0 12.555 5.301t5.301 12.555v35.712q0 7.254 -5.301 12.555t-12.555 5.301h-35.712q-7.254 0 -12.555 -5.301t-5.301 -12.555zm142.848 428.544v-35.712q0 -7.254 5.301 -12.555t12.555 -5.301h35.712q7.254 0 12.555 5.301t5.301 12.555v35.712q0 7.254 -5.301 12.555t-12.555 5.301h-35.712q-7.254 0 -12.555 -5.301t-5.301 -12.555zm0 -142.848v-35.712q0 -7.254 5.301 -12.555t12.555 -5.301h35.712q7.254 0 12.555 5.301t5.301 12.555v35.712q0 7.254 -5.301 12.555t-12.555 5.301h-35.712q-7.254 0 -12.555 -5.301t-5.301 -12.555zm0 -142.848v-35.712q0 -7.254 5.301 -12.555t12.555 -5.301h35.712q7.254 0 12.555 5.301t5.301 12.555v35.712q0 7.254 -5.301 12.555t-12.555 5.301h-35.712q-7.254 0 -12.555 -5.301t-5.301 -12.555zm0 -142.848v-35.712q0 -7.254 5.301 -12.555t12.555 -5.301h35.712q7.254 0 12.555 5.301t5.301 12.555v35.712q0 7.254 -5.301 12.555t-12.555 5.301h-35.712q-7.254 0 -12.555 -5.301t-5.301 -12.555zm142.848 571.392v-35.712q0 -7.254 5.301 -12.555t12.555 -5.301h35.712q7.254 0 12.555 5.301t5.301 12.555v35.712q0 7.254 -5.301 12.555t-12.555 5.301h-35.712q-7.254 0 -12.555 -5.301t-5.301 -12.555zm0 -142.848v-35.712q0 -7.254 5.301 -12.555t12.555 -5.301h35.712q7.254 0 12.555 5.301t5.301 12.555v35.712q0 7.254 -5.301 12.555t-12.555 5.301h-35.712q-7.254 0 -12.555 -5.301t-5.301 -12.555zm0 -142.848v-35.712q0 -7.254 5.301 -12.555t12.555 -5.301h35.712q7.254 0 12.555 5.301t5.301 12.555v35.712q0 7.254 -5.301 12.555t-12.555 5.301h-35.712q-7.254 0 -12.555 -5.301t-5.301 -12.555zm0 -142.848v-35.712q0 -7.254 5.301 -12.555t12.555 -5.301h35.712q7.254 0 12.555 5.301t5.301 12.555v35.712q0 7.254 -5.301 12.555t-12.555 5.301h-35.712q-7.254 0 -12.555 -5.301t-5.301 -12.555zm0 -142.848v-35.712q0 -7.254 5.301 -12.555t12.555 -5.301h35.712q7.254 0 12.555 5.301t5.301 12.555v35.712q0 7.254 -5.301 12.555t-12.555 5.301h-35.712q-7.254 0 -12.555 -5.301t-5.301 -12.555z"/></svg>