<svg height="1000" width="857.1" xmlns="http://www.w3.org/2000/svg"><path d="M750 0q14.5 0 25.1 10.6t10.6 25.1v928.6q0 14.5 -10.6 25.1T750 1000H35.7q-14.5 0 -25.1 -10.6T0 964.3V35.7Q0 21.2 10.6 10.6T35.7 0H750zM285.7 160.7v35.7q0 7.8 5 12.9t12.9 5h35.7q7.8 0 12.8 -5t5 -12.9v-35.7q0 -7.8 -5 -12.8t-12.8 -5h-35.7q-7.8 0 -12.9 5t-5 12.8zm0 142.9v35.7q0 7.8 5 12.8t12.9 5h35.7q7.8 0 12.8 -5t5 -12.8v-35.7q0 -7.8 -5 -12.9t-12.8 -5h-35.7q-7.8 0 -12.9 5t-5 12.9zm0 142.8v35.7q0 7.9 5 12.9t12.9 5h35.7q7.8 0 12.8 -5t5 -12.9v-35.7q0 -7.8 -5 -12.8t-12.8 -5h-35.7q-7.8 0 -12.9 5t-5 12.8zm0 142.9V625q0 7.8 5 12.8t12.9 5.1h35.7q7.8 0 12.8 -5.1t5 -12.8v-35.7q0 -7.8 -5 -12.8t-12.8 -5.1h-35.7q-7.8 0 -12.9 5.1t-5 12.8zm-71.4 178.6v-35.8q0 -7.8 -5 -12.8t-12.9 -5h-35.7q-7.8 0 -12.8 5t-5 12.8v35.8q0 7.8 5 12.8t12.8 5h35.7q7.8 0 12.9 -5t5 -12.8zm0 -142.9v-35.7q0 -7.8 -5 -12.8t-12.9 -5.1h-35.7q-7.8 0 -12.8 5.1t-5 12.8V625q0 7.8 5 12.8t12.8 5.1h35.7q7.8 0 12.9 -5.1t5 -12.8zm0 -142.9v-35.7q0 -7.8 -5 -12.8t-12.9 -5h-35.7q-7.8 0 -12.8 5t-5 12.8v35.7q0 7.9 5 12.9t12.8 5h35.7q7.8 0 12.9 -5t5 -12.9zm0 -142.8v-35.7q0 -7.8 -5 -12.9t-12.9 -5h-35.7q-7.8 0 -12.8 5t-5 12.9v35.7q0 7.8 5 12.8t12.8 5h35.7q7.8 0 12.9 -5t5 -12.8zm0 -142.9v-35.7q0 -7.8 -5 -12.8t-12.9 -5h-35.7q-7.8 0 -12.8 5t-5 12.8v35.7q0 7.8 5 12.9t12.8 5h35.7q7.8 0 12.9 -5t5 -12.9zM500 910.7V803.6q0 -7.8 -5 -12.9t-12.9 -5H303.6q-7.8 0 -12.9 5t-5 12.9v107.1q0 7.8 5 12.8t12.9 5.1h178.5q7.9 0 12.9 -5.1t5 -12.8zM500 625v-35.7q0 -7.8 -5 -12.8t-12.9 -5.1h-35.7q-7.8 0 -12.8 5.1t-5 12.8V625q0 7.8 5 12.8t12.8 5.1h35.7q7.9 0 12.9 -5.1t5 -12.8zm0 -142.9v-35.7q0 -7.8 -5 -12.8t-12.9 -5h-35.7q-7.8 0 -12.8 5t-5 12.8v35.7q0 7.9 5 12.9t12.8 5h35.7q7.9 0 12.9 -5t5 -12.9zm0 -142.8v-35.7q0 -7.8 -5 -12.9t-12.9 -5h-35.7q-7.8 0 -12.8 5t-5 12.9v35.7q0 7.8 5 12.8t12.8 5h35.7q7.9 0 12.9 -5t5 -12.8zm0 -142.9v-35.7q0 -7.8 -5 -12.8t-12.9 -5h-35.7q-7.8 0 -12.8 5t-5 12.8v35.7q0 7.8 5 12.9t12.8 5h35.7q7.9 0 12.9 -5t5 -12.9zm142.9 571.5v-35.8q0 -7.8 -5.1 -12.8t-12.8 -5h-35.7q-7.8 0 -12.8 5t-5.1 12.8v35.8q0 7.8 5.1 12.8t12.8 5H625q7.8 0 12.8 -5t5.1 -12.8zm0 -142.9v-35.7q0 -7.8 -5.1 -12.8T625 571.4h-35.7q-7.8 0 -12.8 5.1t-5.1 12.8V625q0 7.8 5.1 12.8t12.8 5.1H625q7.8 0 12.8 -5.1t5.1 -12.8zm0 -142.9v-35.7q0 -7.8 -5.1 -12.8t-12.8 -5h-35.7q-7.8 0 -12.8 5t-5.1 12.8v35.7q0 7.9 5.1 12.9t12.8 5H625q7.8 0 12.8 -5t5.1 -12.9zm0 -142.8v-35.7q0 -7.8 -5.1 -12.9t-12.8 -5h-35.7q-7.8 0 -12.8 5t-5.1 12.9v35.7q0 7.8 5.1 12.8t12.8 5H625q7.8 0 12.8 -5t5.1 -12.8zm0 -142.9v-35.7q0 -7.8 -5.1 -12.8t-12.8 -5h-35.7q-7.8 0 -12.8 5t-5.1 12.8v35.7q0 7.8 5.1 12.9t12.8 5H625q7.8 0 12.8 -5t5.1 -12.9z"/></svg>