<svg height="1000" width="786" xmlns="http://www.w3.org/2000/svg"><path d="M0 964.288l0-928.512q0-14.508 10.602-25.11t25.11-10.602l714.24 0q14.508 0 25.11 10.602t10.602 25.11l0 928.512q0 14.508-10.602 25.11t-25.11 10.602l-714.24 0q-14.508 0-25.11-10.602t-10.602-25.11zm71.424-35.712l214.272 0l0-124.992q0-7.254 5.301-12.555t12.555-5.301l178.56 0q7.254 0 12.555 5.301t5.301 12.555l0 124.992l214.272 0l0-857.088l-642.816 0l0 857.088zm71.424-160.704l0-35.712q0-7.254 5.301-12.555t12.555-5.301l35.712 0q7.254 0 12.555 5.301t5.301 12.555l0 35.712q0 7.254-5.301 12.555t-12.555 5.301l-35.712 0q-7.254 0-12.555-5.301t-5.301-12.555zm0-142.848l0-35.712q0-7.254 5.301-12.555t12.555-5.301l35.712 0q7.254 0 12.555 5.301t5.301 12.555l0 35.712q0 7.254-5.301 12.555t-12.555 5.301l-35.712 0q-7.254 0-12.555-5.301t-5.301-12.555zm0-142.848l0-35.712q0-7.254 5.301-12.555t12.555-5.301l35.712 0q7.254 0 12.555 5.301t5.301 12.555l0 35.712q0 7.254-5.301 12.555t-12.555 5.301l-35.712 0q-7.254 0-12.555-5.301t-5.301-12.555zm0-142.848l0-35.712q0-7.254 5.301-12.555t12.555-5.301l35.712 0q7.254 0 12.555 5.301t5.301 12.555l0 35.712q0 7.254-5.301 12.555t-12.555 5.301l-35.712 0q-7.254 0-12.555-5.301t-5.301-12.555zm0-142.848l0-35.712q0-7.254 5.301-12.555t12.555-5.301l35.712 0q7.254 0 12.555 5.301t5.301 12.555l0 35.712q0 7.254-5.301 12.555t-12.555 5.301l-35.712 0q-7.254 0-12.555-5.301t-5.301-12.555zm142.848 428.544l0-35.712q0-7.254 5.301-12.555t12.555-5.301l35.712 0q7.254 0 12.555 5.301t5.301 12.555l0 35.712q0 7.254-5.301 12.555t-12.555 5.301l-35.712 0q-7.254 0-12.555-5.301t-5.301-12.555zm0-142.848l0-35.712q0-7.254 5.301-12.555t12.555-5.301l35.712 0q7.254 0 12.555 5.301t5.301 12.555l0 35.712q0 7.254-5.301 12.555t-12.555 5.301l-35.712 0q-7.254 0-12.555-5.301t-5.301-12.555zm0-142.848l0-35.712q0-7.254 5.301-12.555t12.555-5.301l35.712 0q7.254 0 12.555 5.301t5.301 12.555l0 35.712q0 7.254-5.301 12.555t-12.555 5.301l-35.712 0q-7.254 0-12.555-5.301t-5.301-12.555zm0-142.848l0-35.712q0-7.254 5.301-12.555t12.555-5.301l35.712 0q7.254 0 12.555 5.301t5.301 12.555l0 35.712q0 7.254-5.301 12.555t-12.555 5.301l-35.712 0q-7.254 0-12.555-5.301t-5.301-12.555zm142.848 428.544l0-35.712q0-7.254 5.301-12.555t12.555-5.301l35.712 0q7.254 0 12.555 5.301t5.301 12.555l0 35.712q0 7.254-5.301 12.555t-12.555 5.301l-35.712 0q-7.254 0-12.555-5.301t-5.301-12.555zm0-142.848l0-35.712q0-7.254 5.301-12.555t12.555-5.301l35.712 0q7.254 0 12.555 5.301t5.301 12.555l0 35.712q0 7.254-5.301 12.555t-12.555 5.301l-35.712 0q-7.254 0-12.555-5.301t-5.301-12.555zm0-142.848l0-35.712q0-7.254 5.301-12.555t12.555-5.301l35.712 0q7.254 0 12.555 5.301t5.301 12.555l0 35.712q0 7.254-5.301 12.555t-12.555 5.301l-35.712 0q-7.254 0-12.555-5.301t-5.301-12.555zm0-142.848l0-35.712q0-7.254 5.301-12.555t12.555-5.301l35.712 0q7.254 0 12.555 5.301t5.301 12.555l0 35.712q0 7.254-5.301 12.555t-12.555 5.301l-35.712 0q-7.254 0-12.555-5.301t-5.301-12.555zm142.848 571.392l0-35.712q0-7.254 5.301-12.555t12.555-5.301l35.712 0q7.254 0 12.555 5.301t5.301 12.555l0 35.712q0 7.254-5.301 12.555t-12.555 5.301l-35.712 0q-7.254 0-12.555-5.301t-5.301-12.555zm0-142.848l0-35.712q0-7.254 5.301-12.555t12.555-5.301l35.712 0q7.254 0 12.555 5.301t5.301 12.555l0 35.712q0 7.254-5.301 12.555t-12.555 5.301l-35.712 0q-7.254 0-12.555-5.301t-5.301-12.555zm0-142.848l0-35.712q0-7.254 5.301-12.555t12.555-5.301l35.712 0q7.254 0 12.555 5.301t5.301 12.555l0 35.712q0 7.254-5.301 12.555t-12.555 5.301l-35.712 0q-7.254 0-12.555-5.301t-5.301-12.555zm0-142.848l0-35.712q0-7.254 5.301-12.555t12.555-5.301l35.712 0q7.254 0 12.555 5.301t5.301 12.555l0 35.712q0 7.254-5.301 12.555t-12.555 5.301l-35.712 0q-7.254 0-12.555-5.301t-5.301-12.555zm0-142.848l0-35.712q0-7.254 5.301-12.555t12.555-5.301l35.712 0q7.254 0 12.555 5.301t5.301 12.555l0 35.712q0 7.254-5.301 12.555t-12.555 5.301l-35.712 0q-7.254 0-12.555-5.301t-5.301-12.555z"/></svg>