<svg height="1000" width="785.714" xmlns="http://www.w3.org/2000/svg"><path d="M214.272 732.16v35.712q0 7.254 -5.301 12.555t-12.555 5.301h-35.712q-7.254 0 -12.555 -5.301t-5.301 -12.555v-35.712q0 -7.254 5.301 -12.555t12.555 -5.301h35.712q7.254 0 12.555 5.301t5.301 12.555zm0 -142.848v35.712q0 7.254 -5.301 12.555t-12.555 5.301h-35.712q-7.254 0 -12.555 -5.301t-5.301 -12.555v-35.712q0 -7.254 5.301 -12.555t12.555 -5.301h35.712q7.254 0 12.555 5.301t5.301 12.555zm142.848 0v35.712q0 7.254 -5.301 12.555t-12.555 5.301h-35.712q-7.254 0 -12.555 -5.301t-5.301 -12.555v-35.712q0 -7.254 5.301 -12.555t12.555 -5.301h35.712q7.254 0 12.555 5.301t5.301 12.555zm-142.848 -142.848v35.712q0 7.254 -5.301 12.555t-12.555 5.301h-35.712q-7.254 0 -12.555 -5.301t-5.301 -12.555v-35.712q0 -7.254 5.301 -12.555t12.555 -5.301h35.712q7.254 0 12.555 5.301t5.301 12.555zm428.544 285.696v35.712q0 7.254 -5.301 12.555t-12.555 5.301h-35.712q-7.254 0 -12.555 -5.301t-5.301 -12.555v-35.712q0 -7.254 5.301 -12.555t12.555 -5.301h35.712q7.254 0 12.555 5.301t5.301 12.555zm-142.848 -142.848v35.712q0 7.254 -5.301 12.555t-12.555 5.301h-35.712q-7.254 0 -12.555 -5.301t-5.301 -12.555v-35.712q0 -7.254 5.301 -12.555t12.555 -5.301h35.712q7.254 0 12.555 5.301t5.301 12.555zm-142.848 -142.848v35.712q0 7.254 -5.301 12.555t-12.555 5.301h-35.712q-7.254 0 -12.555 -5.301t-5.301 -12.555v-35.712q0 -7.254 5.301 -12.555t12.555 -5.301h35.712q7.254 0 12.555 5.301t5.301 12.555zm-142.848 -142.848v35.712q0 7.254 -5.301 12.555t-12.555 5.301h-35.712q-7.254 0 -12.555 -5.301t-5.301 -12.555v-35.712q0 -7.254 5.301 -12.555t12.555 -5.301h35.712q7.254 0 12.555 5.301t5.301 12.555zm428.544 285.696v35.712q0 7.254 -5.301 12.555t-12.555 5.301h-35.712q-7.254 0 -12.555 -5.301t-5.301 -12.555v-35.712q0 -7.254 5.301 -12.555t12.555 -5.301h35.712q7.254 0 12.555 5.301t5.301 12.555zm-142.848 -142.848v35.712q0 7.254 -5.301 12.555t-12.555 5.301h-35.712q-7.254 0 -12.555 -5.301t-5.301 -12.555v-35.712q0 -7.254 5.301 -12.555t12.555 -5.301h35.712q7.254 0 12.555 5.301t5.301 12.555zm-142.848 -142.848v35.712q0 7.254 -5.301 12.555t-12.555 5.301h-35.712q-7.254 0 -12.555 -5.301t-5.301 -12.555v-35.712q0 -7.254 5.301 -12.555t12.555 -5.301h35.712q7.254 0 12.555 5.301t5.301 12.555zm-142.848 -142.848v35.712q0 7.254 -5.301 12.555t-12.555 5.301h-35.712q-7.254 0 -12.555 -5.301t-5.301 -12.555v-35.712q0 -7.254 5.301 -12.555t12.555 -5.301h35.712q7.254 0 12.555 5.301t5.301 12.555zm428.544 285.696v35.712q0 7.254 -5.301 12.555t-12.555 5.301h-35.712q-7.254 0 -12.555 -5.301t-5.301 -12.555v-35.712q0 -7.254 5.301 -12.555t12.555 -5.301h35.712q7.254 0 12.555 5.301t5.301 12.555zm-142.848 -142.848v35.712q0 7.254 -5.301 12.555t-12.555 5.301h-35.712q-7.254 0 -12.555 -5.301t-5.301 -12.555v-35.712q0 -7.254 5.301 -12.555t12.555 -5.301h35.712q7.254 0 12.555 5.301t5.301 12.555zm-142.848 -142.848v35.712q0 7.254 -5.301 12.555t-12.555 5.301h-35.712q-7.254 0 -12.555 -5.301t-5.301 -12.555v-35.712q0 -7.254 5.301 -12.555t12.555 -5.301h35.712q7.254 0 12.555 5.301t5.301 12.555zm285.696 142.848v35.712q0 7.254 -5.301 12.555t-12.555 5.301h-35.712q-7.254 0 -12.555 -5.301t-5.301 -12.555v-35.712q0 -7.254 5.301 -12.555t12.555 -5.301h35.712q7.254 0 12.555 5.301t5.301 12.555zm-142.848 -142.848v35.712q0 7.254 -5.301 12.555t-12.555 5.301h-35.712q-7.254 0 -12.555 -5.301t-5.301 -12.555v-35.712q0 -7.254 5.301 -12.555t12.555 -5.301h35.712q7.254 0 12.555 5.301t5.301 12.555zm142.848 0v35.712q0 7.254 -5.301 12.555t-12.555 5.301h-35.712q-7.254 0 -12.555 -5.301t-5.301 -12.555v-35.712q0 -7.254 5.301 -12.555t12.555 -5.301h35.712q7.254 0 12.555 5.301t5.301 12.555zm-142.848 767.808h214.272v-857.088h-642.816v857.088h214.272v-124.992q0 -7.254 5.301 -12.555t12.555 -5.301h178.56q7.254 0 12.555 5.301t5.301 12.555v124.992zm285.696 -892.8v928.512q0 14.508 -10.602 25.11t-25.11 10.602h-714.24q-14.508 0 -25.11 -10.602t-10.602 -25.11v-928.512q0 -14.508 10.602 -25.11t25.11 -10.602h714.24q14.508 0 25.11 10.602t10.602 25.11z"/></svg>