<svg height="1000" width="857.143" xmlns="http://www.w3.org/2000/svg"><path d="M0 964.288v-928.512q0 -14.508 10.602 -25.11t25.11 -10.602h714.24q14.508 0 25.11 10.602t10.602 25.11v928.512q0 14.508 -10.602 25.11t-25.11 10.602h-714.24q-14.508 0 -25.11 -10.602t-10.602 -25.11zm142.848 -196.416q0 7.812 5.022 12.834t12.834 5.022h35.712q7.812 0 12.834 -5.022t5.022 -12.834v-35.712q0 -7.812 -5.022 -12.834t-12.834 -5.022h-35.712q-7.812 0 -12.834 5.022t-5.022 12.834v35.712zm0 -142.848q0 7.812 5.022 12.834t12.834 5.022h35.712q7.812 0 12.834 -5.022t5.022 -12.834v-35.712q0 -7.812 -5.022 -12.834t-12.834 -5.022h-35.712q-7.812 0 -12.834 5.022t-5.022 12.834v35.712zm0 -142.848q0 7.812 5.022 12.834t12.834 5.022h35.712q7.812 0 12.834 -5.022t5.022 -12.834v-35.712q0 -7.812 -5.022 -12.834t-12.834 -5.022h-35.712q-7.812 0 -12.834 5.022t-5.022 12.834v35.712zm0 -142.848q0 7.812 5.022 12.834t12.834 5.022h35.712q7.812 0 12.834 -5.022t5.022 -12.834v-35.712q0 -7.812 -5.022 -12.834t-12.834 -5.022h-35.712q-7.812 0 -12.834 5.022t-5.022 12.834v35.712zm0 -142.848q0 7.812 5.022 12.834t12.834 5.022h35.712q7.812 0 12.834 -5.022t5.022 -12.834v-35.712q0 -7.812 -5.022 -12.834t-12.834 -5.022h-35.712q-7.812 0 -12.834 5.022t-5.022 12.834v35.712zm142.848 607.104v107.136q0 7.812 5.022 12.834t12.834 5.022h178.56q7.812 0 12.834 -5.022t5.022 -12.834v-107.136q0 -7.812 -5.022 -12.834t-12.834 -5.022h-178.56q-7.812 0 -12.834 5.022t-5.022 12.834zm0 -178.56q0 7.812 5.022 12.834t12.834 5.022h35.712q7.812 0 12.834 -5.022t5.022 -12.834v-35.712q0 -7.812 -5.022 -12.834t-12.834 -5.022h-35.712q-7.812 0 -12.834 5.022t-5.022 12.834v35.712zm0 -142.848q0 7.812 5.022 12.834t12.834 5.022h35.712q7.812 0 12.834 -5.022t5.022 -12.834v-35.712q0 -7.812 -5.022 -12.834t-12.834 -5.022h-35.712q-7.812 0 -12.834 5.022t-5.022 12.834v35.712zm0 -142.848q0 7.812 5.022 12.834t12.834 5.022h35.712q7.812 0 12.834 -5.022t5.022 -12.834v-35.712q0 -7.812 -5.022 -12.834t-12.834 -5.022h-35.712q-7.812 0 -12.834 5.022t-5.022 12.834v35.712zm0 -142.848q0 7.812 5.022 12.834t12.834 5.022h35.712q7.812 0 12.834 -5.022t5.022 -12.834v-35.712q0 -7.812 -5.022 -12.834t-12.834 -5.022h-35.712q-7.812 0 -12.834 5.022t-5.022 12.834v35.712zm142.848 428.544q0 7.812 5.022 12.834t12.834 5.022h35.712q7.812 0 12.834 -5.022t5.022 -12.834v-35.712q0 -7.812 -5.022 -12.834t-12.834 -5.022h-35.712q-7.812 0 -12.834 5.022t-5.022 12.834v35.712zm0 -142.848q0 7.812 5.022 12.834t12.834 5.022h35.712q7.812 0 12.834 -5.022t5.022 -12.834v-35.712q0 -7.812 -5.022 -12.834t-12.834 -5.022h-35.712q-7.812 0 -12.834 5.022t-5.022 12.834v35.712zm0 -142.848q0 7.812 5.022 12.834t12.834 5.022h35.712q7.812 0 12.834 -5.022t5.022 -12.834v-35.712q0 -7.812 -5.022 -12.834t-12.834 -5.022h-35.712q-7.812 0 -12.834 5.022t-5.022 12.834v35.712zm0 -142.848q0 7.812 5.022 12.834t12.834 5.022h35.712q7.812 0 12.834 -5.022t5.022 -12.834v-35.712q0 -7.812 -5.022 -12.834t-12.834 -5.022h-35.712q-7.812 0 -12.834 5.022t-5.022 12.834v35.712zm142.848 571.392q0 7.812 5.022 12.834t12.834 5.022h35.712q7.812 0 12.834 -5.022t5.022 -12.834v-35.712q0 -7.812 -5.022 -12.834t-12.834 -5.022h-35.712q-7.812 0 -12.834 5.022t-5.022 12.834v35.712zm0 -142.848q0 7.812 5.022 12.834t12.834 5.022h35.712q7.812 0 12.834 -5.022t5.022 -12.834v-35.712q0 -7.812 -5.022 -12.834t-12.834 -5.022h-35.712q-7.812 0 -12.834 5.022t-5.022 12.834v35.712zm0 -142.848q0 7.812 5.022 12.834t12.834 5.022h35.712q7.812 0 12.834 -5.022t5.022 -12.834v-35.712q0 -7.812 -5.022 -12.834t-12.834 -5.022h-35.712q-7.812 0 -12.834 5.022t-5.022 12.834v35.712zm0 -142.848q0 7.812 5.022 12.834t12.834 5.022h35.712q7.812 0 12.834 -5.022t5.022 -12.834v-35.712q0 -7.812 -5.022 -12.834t-12.834 -5.022h-35.712q-7.812 0 -12.834 5.022t-5.022 12.834v35.712zm0 -142.848q0 7.812 5.022 12.834t12.834 5.022h35.712q7.812 0 12.834 -5.022t5.022 -12.834v-35.712q0 -7.812 -5.022 -12.834t-12.834 -5.022h-35.712q-7.812 0 -12.834 5.022t-5.022 12.834v35.712z"/></svg>