<svg height="1000" width="785.7" xmlns="http://www.w3.org/2000/svg"><path d="M214.3 732.1v35.8q0 7.2 -5.3 12.5t-12.6 5.3h-35.7q-7.2 0 -12.5 -5.3t-5.3 -12.5v-35.8q0 -7.2 5.3 -12.5t12.5 -5.3h35.7q7.3 0 12.6 5.3t5.3 12.5zm0 -142.8V625q0 7.3 -5.3 12.6t-12.6 5.3h-35.7q-7.2 0 -12.5 -5.3T142.9 625v-35.7q0 -7.3 5.3 -12.6t12.5 -5.3h35.7q7.3 0 12.6 5.3t5.3 12.6zm142.8 0V625q0 7.3 -5.3 12.6t-12.5 5.3h-35.7q-7.3 0 -12.6 -5.3T285.7 625v-35.7q0 -7.3 5.3 -12.6t12.6 -5.3h35.7q7.2 0 12.5 5.3t5.3 12.6zM214.3 446.4v35.7q0 7.3 -5.3 12.6t-12.6 5.3h-35.7q-7.2 0 -12.5 -5.3t-5.3 -12.6v-35.7q0 -7.2 5.3 -12.5t12.5 -5.3h35.7q7.3 0 12.6 5.3t5.3 12.5zm428.6 285.7v35.8q0 7.2 -5.3 12.5t-12.6 5.3h-35.7q-7.3 0 -12.6 -5.3t-5.3 -12.5v-35.8q0 -7.2 5.3 -12.5t12.6 -5.3H625q7.3 0 12.6 5.3t5.3 12.5zM500 589.3V625q0 7.3 -5.3 12.6t-12.6 5.3h-35.7q-7.2 0 -12.5 -5.3T428.6 625v-35.7q0 -7.3 5.3 -12.6t12.5 -5.3h35.7q7.3 0 12.6 5.3t5.3 12.6zM357.1 446.4v35.7q0 7.3 -5.3 12.6t-12.5 5.3h-35.7q-7.3 0 -12.6 -5.3t-5.3 -12.6v-35.7q0 -7.2 5.3 -12.5t12.6 -5.3h35.7q7.2 0 12.5 5.3t5.3 12.5zM214.3 303.6v35.7q0 7.2 -5.3 12.5t-12.6 5.3h-35.7q-7.2 0 -12.5 -5.3t-5.3 -12.5v-35.7q0 -7.3 5.3 -12.6t12.5 -5.3h35.7q7.3 0 12.6 5.3t5.3 12.6zm428.6 285.7V625q0 7.3 -5.3 12.6t-12.6 5.3h-35.7q-7.3 0 -12.6 -5.3T571.4 625v-35.7q0 -7.3 5.3 -12.6t12.6 -5.3H625q7.3 0 12.6 5.3t5.3 12.6zM500 446.4v35.7q0 7.3 -5.3 12.6t-12.6 5.3h-35.7q-7.2 0 -12.5 -5.3t-5.3 -12.6v-35.7q0 -7.2 5.3 -12.5t12.5 -5.3h35.7q7.3 0 12.6 5.3t5.3 12.5zM357.1 303.6v35.7q0 7.2 -5.3 12.5t-12.5 5.3h-35.7q-7.3 0 -12.6 -5.3t-5.3 -12.5v-35.7q0 -7.3 5.3 -12.6t12.6 -5.3h35.7q7.2 0 12.5 5.3t5.3 12.6zM214.3 160.7v35.7q0 7.3 -5.3 12.6t-12.6 5.3h-35.7q-7.2 0 -12.5 -5.3t-5.3 -12.6v-35.7q0 -7.2 5.3 -12.5t12.5 -5.3h35.7q7.3 0 12.6 5.3t5.3 12.5zm428.6 285.7v35.7q0 7.3 -5.3 12.6T625 500h-35.7q-7.3 0 -12.6 -5.3t-5.3 -12.6v-35.7q0 -7.2 5.3 -12.5t12.6 -5.3H625q7.3 0 12.6 5.3t5.3 12.5zM500 303.6v35.7q0 7.2 -5.3 12.5t-12.6 5.3h-35.7q-7.2 0 -12.5 -5.3t-5.3 -12.5v-35.7q0 -7.3 5.3 -12.6t12.5 -5.3h35.7q7.3 0 12.6 5.3t5.3 12.6zM357.1 160.7v35.7q0 7.3 -5.3 12.6t-12.5 5.3h-35.7q-7.3 0 -12.6 -5.3t-5.3 -12.6v-35.7q0 -7.2 5.3 -12.5t12.6 -5.3h35.7q7.2 0 12.5 5.3t5.3 12.5zm285.8 142.9v35.7q0 7.2 -5.3 12.5t-12.6 5.3h-35.7q-7.3 0 -12.6 -5.3t-5.3 -12.5v-35.7q0 -7.3 5.3 -12.6t12.6 -5.3H625q7.3 0 12.6 5.3t5.3 12.6zM500 160.7v35.7q0 7.3 -5.3 12.6t-12.6 5.3h-35.7q-7.2 0 -12.5 -5.3t-5.3 -12.6v-35.7q0 -7.2 5.3 -12.5t12.5 -5.3h35.7q7.3 0 12.6 5.3t5.3 12.5zm142.9 0v35.7q0 7.3 -5.3 12.6t-12.6 5.3h-35.7q-7.3 0 -12.6 -5.3t-5.3 -12.6v-35.7q0 -7.2 5.3 -12.5t12.6 -5.3H625q7.3 0 12.6 5.3t5.3 12.5zM500 928.6h214.3V71.4H71.4v857.2h214.3v-125q0 -7.3 5.3 -12.6t12.6 -5.3h178.5q7.3 0 12.6 5.3t5.3 12.6v125zM785.7 35.7v928.6q0 14.5 -10.6 25.1T750 1000H35.7q-14.5 0 -25.1 -10.6T0 964.3V35.7Q0 21.2 10.6 10.6T35.7 0H750q14.5 0 25.1 10.6t10.6 25.1z"/></svg>