<svg height="1000" width="857.143" xmlns="http://www.w3.org/2000/svg"><path d="M571.392 500.032q0 59.148 -41.85 100.998t-100.998 41.85 -100.998 -41.85 -41.85 -100.998 41.85 -100.998 100.998 -41.85 100.998 41.85 41.85 100.998zm71.424 0q0 -88.722 -62.775 -151.497t-151.497 -62.775 -151.497 62.775 -62.775 151.497 62.775 151.497 151.497 62.775 151.497 -62.775 62.775 -151.497zm71.424 0q0 118.296 -83.7 201.996t-201.996 83.7 -201.996 -83.7 -83.7 -201.996 83.7 -201.996 201.996 -83.7 201.996 83.7 83.7 201.996zm71.424 0q0 -72.54 -28.458 -138.663t-76.167 -113.832 -113.832 -76.167 -138.663 -28.458 -138.663 28.458 -113.832 76.167 -76.167 113.832 -28.458 138.663 28.458 138.663 76.167 113.832 113.832 76.167 138.663 28.458 138.663 -28.458 113.832 -76.167 76.167 -113.832 28.458 -138.663zm71.424 0q0 116.622 -57.474 215.109t-155.961 155.961 -215.109 57.474 -215.109 -57.474 -155.961 -155.961 -57.474 -215.109 57.474 -215.109 155.961 -155.961 215.109 -57.474 215.109 57.474 155.961 155.961 57.474 215.109z"/></svg>