<svg height="1000" width="857.143" xmlns="http://www.w3.org/2000/svg"><path d="M214.272 678.592q0 -29.574 -20.925 -50.499t-50.499 -20.925 -50.499 20.925 -20.925 50.499 20.925 50.499 50.499 20.925 50.499 -20.925 20.925 -50.499zm571.392 0q0 -29.574 -20.925 -50.499t-50.499 -20.925 -50.499 20.925 -20.925 50.499 20.925 50.499 50.499 20.925 50.499 -20.925 20.925 -50.499zm-25.668 -220.968l-40.176 -214.272q-2.79 -12.834 -12.555 -20.925t-22.599 -8.091h-512.244q-12.834 0 -22.599 8.091t-12.555 20.925l-40.176 214.272q-2.79 16.74 7.812 29.574t27.342 12.834h592.596q16.74 0 27.342 -12.834t7.812 -29.574zm-126.108 -341.496q0 -11.16 -7.812 -18.972t-18.972 -7.812h-357.12q-11.16 0 -18.972 7.812t-7.812 18.972 7.812 18.972 18.972 7.812h357.12q11.16 0 18.972 -7.812t7.812 -18.972zm223.2 404.55v336.474h-71.424v71.424q0 29.574 -20.925 50.499t-50.499 20.925 -50.499 -20.925 -20.925 -50.499v-71.424h-428.544v71.424q0 29.574 -20.925 50.499t-50.499 20.925 -50.499 -20.925 -20.925 -50.499v-71.424h-71.424v-336.474q0 -62.496 13.95 -124.434l57.474 -253.332q5.022 -43.524 54.405 -76.446t128.34 -49.662 174.375 -16.74 174.375 16.74 128.34 49.662 54.405 76.446l58.59 253.332q12.834 56.916 12.834 124.434z"/></svg>