<svg height="1000" width="857.1" xmlns="http://www.w3.org/2000/svg"><path d="M214.3 678.6q0 -29.6 -20.9 -50.5t-50.5 -21 -50.5 21 -21 50.5 21 50.5 50.5 20.9 50.5 -20.9 20.9 -50.5zm571.4 0q0 -29.6 -20.9 -50.5t-50.5 -21 -50.5 21 -20.9 50.5 20.9 50.5 50.5 20.9 50.5 -20.9 20.9 -50.5zM760 457.6L719.9 243.3q-2.8 -12.8 -12.6 -20.9t-22.6 -8.1H172.4q-12.8 0 -22.6 8.1t-12.5 20.9L97.1 457.6q-2.8 16.7 7.8 29.6t27.4 12.8h592.6q16.7 0 27.3 -12.8t7.8 -29.6zM633.9 116.1q0 -11.2 -7.8 -19t-19 -7.8H250q-11.2 0 -19 7.8t-7.8 19T231 135t19 7.9h357.1q11.2 0 19 -7.9t7.8 -18.9zm223.2 404.5v336.5h-71.4v71.5q0 29.5 -20.9 50.5t-50.5 20.9 -50.5 -20.9 -20.9 -50.5v-71.5H214.3v71.5q0 29.5 -20.9 50.5t-50.5 20.9T92.4 979.1t-21 -50.5v-71.5H0V520.6Q0 458.1 14 396.2L71.4 142.9q5.1 -43.6 54.4 -76.5T254.2 16.7 428.6 0 603 16.7t128.3 49.7 54.4 76.5l58.6 253.3q12.8 56.9 12.8 124.4z"/></svg>