<svg height="1000" width="1000" xmlns="http://www.w3.org/2000/svg"><path d="M214.3 857.1q0 -29.5 -20.9 -50.5t-50.5 -20.9 -50.5 20.9 -21 50.5 21 50.5 50.5 21 50.5 -21 20.9 -50.5zm214.3 0q0 -29.5 -21 -50.5t-50.5 -20.9 -50.5 20.9 -20.9 50.5 20.9 50.5 50.5 21 50.5 -21 21 -50.5zM214.3 642.9q0 -29.6 -20.9 -50.5t-50.5 -21 -50.5 21 -21 50.5 21 50.5 50.5 20.9 50.5 -20.9 20.9 -50.5zm428.6 214.2q0 -29.5 -21 -50.5t-50.5 -20.9 -50.5 20.9T500 857.1t20.9 50.5 50.5 21 50.5 -21 21 -50.5zM428.6 642.9q0 -29.6 -21 -50.5t-50.5 -21 -50.5 21 -20.9 50.5 20.9 50.5 50.5 20.9 50.5 -20.9 21 -50.5zM214.3 428.6q0 -29.6 -20.9 -50.5t-50.5 -21 -50.5 21 -21 50.5 21 50.5 50.5 20.9 50.5 -20.9 20.9 -50.5zm428.6 214.3q0 -29.6 -21 -50.5t-50.5 -21 -50.5 21T500 642.9t20.9 50.5 50.5 20.9 50.5 -20.9 21 -50.5zM428.6 428.6q0 -29.6 -21 -50.5t-50.5 -21 -50.5 21 -20.9 50.5 20.9 50.5 50.5 20.9 50.5 -20.9 21 -50.5zm428.5 428.5V642.9q0 -29.1 -21.2 -50.3t-50.2 -21.2 -50.2 21.2 -21.2 50.3v214.2q0 29.1 21.2 50.3t50.2 21.2 50.2 -21.2 21.2 -50.3zM642.9 428.6q0 -29.6 -21 -50.5t-50.5 -21 -50.5 21T500 428.6t20.9 50.5 50.5 20.9 50.5 -20.9 21 -50.5zM857.1 250V107.1q0 -14.5 -10.6 -25.1T821.4 71.4H107.1Q92.6 71.4 82 82t-10.6 25.1V250q0 14.5 10.6 25.1t25.1 10.6h714.3q14.5 0 25.1 -10.6T857.1 250zm0 178.6q0 -29.6 -20.9 -50.5t-50.5 -21 -50.5 21 -20.9 50.5 20.9 50.5 50.5 20.9 50.5 -20.9 20.9 -50.5zM928.6 71.4v857.2q0 29 -21.2 50.2t-50.3 21.2H71.4q-29 0 -50.2 -21.2T0 928.6V71.4q0 -29 21.2 -50.2T71.4 0h785.7q29.1 0 50.3 21.2t21.2 50.2z"/></svg>