<svg height="1000" width="1000" xmlns="http://www.w3.org/2000/svg"><path d="M214.272 857.152q0 -29.574 -20.925 -50.499t-50.499 -20.925 -50.499 20.925 -20.925 50.499 20.925 50.499 50.499 20.925 50.499 -20.925 20.925 -50.499zm214.272 0q0 -29.574 -20.925 -50.499t-50.499 -20.925 -50.499 20.925 -20.925 50.499 20.925 50.499 50.499 20.925 50.499 -20.925 20.925 -50.499zm-214.272 -214.272q0 -29.574 -20.925 -50.499t-50.499 -20.925 -50.499 20.925 -20.925 50.499 20.925 50.499 50.499 20.925 50.499 -20.925 20.925 -50.499zm428.544 214.272q0 -29.574 -20.925 -50.499t-50.499 -20.925 -50.499 20.925 -20.925 50.499 20.925 50.499 50.499 20.925 50.499 -20.925 20.925 -50.499zm-214.272 -214.272q0 -29.574 -20.925 -50.499t-50.499 -20.925 -50.499 20.925 -20.925 50.499 20.925 50.499 50.499 20.925 50.499 -20.925 20.925 -50.499zm-214.272 -214.272q0 -29.574 -20.925 -50.499t-50.499 -20.925 -50.499 20.925 -20.925 50.499 20.925 50.499 50.499 20.925 50.499 -20.925 20.925 -50.499zm428.544 214.272q0 -29.574 -20.925 -50.499t-50.499 -20.925 -50.499 20.925 -20.925 50.499 20.925 50.499 50.499 20.925 50.499 -20.925 20.925 -50.499zm-214.272 -214.272q0 -29.574 -20.925 -50.499t-50.499 -20.925 -50.499 20.925 -20.925 50.499 20.925 50.499 50.499 20.925 50.499 -20.925 20.925 -50.499zm428.544 428.544v-214.272q0 -29.016 -21.204 -50.22t-50.22 -21.204 -50.22 21.204 -21.204 50.22v214.272q0 29.016 21.204 50.22t50.22 21.204 50.22 -21.204 21.204 -50.22zm-214.272 -428.544q0 -29.574 -20.925 -50.499t-50.499 -20.925 -50.499 20.925 -20.925 50.499 20.925 50.499 50.499 20.925 50.499 -20.925 20.925 -50.499zm214.272 -178.56v-142.848q0 -14.508 -10.602 -25.11t-25.11 -10.602h-714.24q-14.508 0 -25.11 10.602t-10.602 25.11v142.848q0 14.508 10.602 25.11t25.11 10.602h714.24q14.508 0 25.11 -10.602t10.602 -25.11zm0 178.56q0 -29.574 -20.925 -50.499t-50.499 -20.925 -50.499 20.925 -20.925 50.499 20.925 50.499 50.499 20.925 50.499 -20.925 20.925 -50.499zm71.424 -357.12v857.088q0 29.016 -21.204 50.22t-50.22 21.204h-785.664q-29.016 0 -50.22 -21.204t-21.204 -50.22v-857.088q0 -29.016 21.204 -50.22t50.22 -21.204h785.664q29.016 0 50.22 21.204t21.204 50.22z"/></svg>