<svg height="1000" width="1000" xmlns="http://www.w3.org/2000/svg"><path d="M857.1 142.9q29.1 0 50.3 21.2t21.2 50.2v714.3q0 29 -21.2 50.2t-50.3 21.2H71.4q-29 0 -50.2 -21.2T0 928.6V214.3q0 -29 21.2 -50.2t50.2 -21.2h71.5V89.3q0 -36.8 26.2 -63.1T232.1 0h35.8q36.8 0 63 26.2t26.2 63.1v53.6h214.3V89.3q0 -36.8 26.3 -63.1T660.7 0h35.7q36.9 0 63.1 26.2t26.2 63.1v53.6h71.4zM642.9 89.3V250q0 7.8 5 12.8t12.8 5.1h35.7q7.8 0 12.9 -5.1t5 -12.8V89.3q0 -7.8 -5 -12.8t-12.9 -5.1h-35.7q-7.8 0 -12.8 5.1t-5 12.8zm-428.6 0V250q0 7.8 5 12.8t12.8 5.1h35.8q7.8 0 12.8 -5.1t5 -12.8V89.3q0 -7.8 -5 -12.8t-12.8 -5.1h-35.8q-7.8 0 -12.8 5.1t-5 12.8zm642.8 839.3V357.1H71.4v571.5h785.7zM500 607.1h125q7.8 0 12.8 5.1t5.1 12.8v35.7q0 7.8 -5.1 12.8t-12.8 5.1H500v125q0 7.8 -5 12.8t-12.9 5h-35.7q-7.8 0 -12.8 -5t-5 -12.8v-125h-125q-7.8 0 -12.9 -5.1t-5 -12.8V625q0 -7.8 5 -12.8t12.9 -5.1h125v-125q0 -7.8 5 -12.8t12.8 -5h35.7q7.9 0 12.9 5t5 12.8v125z"/></svg>