<svg height="1000" width="929" xmlns="http://www.w3.org/2000/svg"><path d="M0 928.576l0-714.24q0-29.016 21.204-50.22t50.22-21.204l71.424 0l0-53.568q0-36.828 26.226-63.054t63.054-26.226l35.712 0q36.828 0 63.054 26.226t26.226 63.054l0 53.568l214.272 0l0-53.568q0-36.828 26.226-63.054t63.054-26.226l35.712 0q36.828 0 63.054 26.226t26.226 63.054l0 53.568l71.424 0q29.016 0 50.22 21.204t21.204 50.22l0 714.24q0 29.016-21.204 50.22t-50.22 21.204l-785.664 0q-29.016 0-50.22-21.204t-21.204-50.22zm71.424 0l160.704 0l0-160.704l-160.704 0l0 160.704zm0-196.416l160.704 0l0-178.56l-160.704 0l0 178.56zm0-214.272l160.704 0l0-160.704l-160.704 0l0 160.704zm142.848-267.84q0 7.254 5.301 12.555t12.555 5.301l35.712 0q7.254 0 12.555-5.301t5.301-12.555l0-160.704q0-7.254-5.301-12.555t-12.555-5.301l-35.712 0q-7.254 0-12.555 5.301t-5.301 12.555l0 160.704zm53.568 678.528l178.56 0l0-160.704l-178.56 0l0 160.704zm0-196.416l178.56 0l0-178.56l-178.56 0l0 178.56zm0-214.272l178.56 0l0-160.704l-178.56 0l0 160.704zm214.272 410.688l178.56 0l0-160.704l-178.56 0l0 160.704zm0-196.416l178.56 0l0-178.56l-178.56 0l0 178.56zm0-214.272l178.56 0l0-160.704l-178.56 0l0 160.704zm160.704-267.84q0 7.254 5.301 12.555t12.555 5.301l35.712 0q7.254 0 12.555-5.301t5.301-12.555l0-160.704q0-7.254-5.301-12.555t-12.555-5.301l-35.712 0q-7.254 0-12.555 5.301t-5.301 12.555l0 160.704zm53.568 678.528l160.704 0l0-160.704l-160.704 0l0 160.704zm0-196.416l160.704 0l0-178.56l-160.704 0l0 178.56zm0-214.272l160.704 0l0-160.704l-160.704 0l0 160.704z"/></svg>