<svg height="1000" width="928.6" xmlns="http://www.w3.org/2000/svg"><path d="M71.4 928.6h160.7V767.9H71.4v160.7zm196.5 0h178.5V767.9H267.9v160.7zM71.4 732.1h160.7V553.6H71.4v178.5zm196.5 0h178.5V553.6H267.9v178.5zM71.4 517.9h160.7V357.1H71.4v160.8zm410.7 410.7h178.6V767.9H482.1v160.7zM267.9 517.9h178.5V357.1H267.9v160.8zm428.5 410.7h160.7V767.9H696.4v160.7zM482.1 732.1h178.6V553.6H482.1v178.5zM285.7 250V89.3q0 -7.3 -5.3 -12.6t-12.5 -5.3h-35.8q-7.2 0 -12.5 5.3t-5.3 12.6V250q0 7.3 5.3 12.6t12.5 5.3h35.8q7.2 0 12.5 -5.3t5.3 -12.6zm410.7 482.1h160.7V553.6H696.4v178.5zM482.1 517.9h178.6V357.1H482.1v160.8zm214.3 0h160.7V357.1H696.4v160.8zM714.3 250V89.3q0 -7.3 -5.3 -12.6t-12.6 -5.3h-35.7q-7.2 0 -12.5 5.3t-5.3 12.6V250q0 7.3 5.3 12.6t12.5 5.3h35.7q7.3 0 12.6 -5.3t5.3 -12.6zm214.3 -35.7v714.3q0 29 -21.2 50.2t-50.3 21.2H71.4q-29 0 -50.2 -21.2T0 928.6V214.3q0 -29 21.2 -50.2t50.2 -21.2h71.5V89.3q0 -36.8 26.2 -63.1T232.1 0h35.8q36.8 0 63 26.2t26.2 63.1v53.6h214.3V89.3q0 -36.8 26.3 -63.1T660.7 0h35.7q36.9 0 63.1 26.2t26.2 63.1v53.6h71.4q29.1 0 50.3 21.2t21.2 50.2z"/></svg>