<svg height="1000" width="928.571" xmlns="http://www.w3.org/2000/svg"><path d="M71.424 928.576h785.664v-571.392h-785.664v571.392zm214.272 -678.528v-160.704q0 -7.812 -5.022 -12.834t-12.834 -5.022h-35.712q-7.812 0 -12.834 5.022t-5.022 12.834v160.704q0 7.812 5.022 12.834t12.834 5.022h35.712q7.812 0 12.834 -5.022t5.022 -12.834zm428.544 0v-160.704q0 -7.812 -5.022 -12.834t-12.834 -5.022h-35.712q-7.812 0 -12.834 5.022t-5.022 12.834v160.704q0 7.812 5.022 12.834t12.834 5.022h35.712q7.812 0 12.834 -5.022t5.022 -12.834zm214.272 -35.712v714.24q0 29.016 -21.204 50.22t-50.22 21.204h-785.664q-29.016 0 -50.22 -21.204t-21.204 -50.22v-714.24q0 -29.016 21.204 -50.22t50.22 -21.204h71.424v-53.568q0 -36.828 26.226 -63.054t63.054 -26.226h35.712q36.828 0 63.054 26.226t26.226 63.054v53.568h214.272v-53.568q0 -36.828 26.226 -63.054t63.054 -26.226h35.712q36.828 0 63.054 26.226t26.226 63.054v53.568h71.424q29.016 0 50.22 21.204t21.204 50.22z"/></svg>