<svg height="1000px" width="928.5714285714286px" xmlns="http://www.w3.org/2000/svg">
  <g>
    <path d="M928.5714285714286 214.28571428571422c0 0 0 714.286 0 714.286c0 19.345 -7.068 36.086 -21.205 50.223c-14.137 14.137 -30.878 21.205 -50.224 21.205c0 0 -785.714 0 -785.714 0c-19.345 0 -36.086 -7.068 -50.223 -21.205c-14.137 -14.137 -21.205 -30.878 -21.205 -50.223c0 0 0 -714.286 0 -714.286c0 -19.345 7.068 -36.086 21.205 -50.223c14.137 -14.137 30.878 -21.206 50.223 -21.206c0 0 71.429 0 71.429 0c0 0 0 -53.571 0 -53.571c0 -24.554 8.742 -45.573 26.227 -63.058c17.486 -17.485 38.505 -26.228 63.058 -26.228c0 0 35.715 0 35.715 0c24.553 0 45.573 8.743 63.058 26.228c17.485 17.485 26.227 38.504 26.227 63.058c0 0 0 53.571 0 53.571c0 0 214.286 0 214.286 0c0 0 0 -53.571 0 -53.571c0 -24.554 8.743 -45.573 26.228 -63.058c17.485 -17.485 38.504 -26.228 63.058 -26.228c0 0 35.714 0 35.714 0c24.554 0 45.573 8.743 63.058 26.228c17.485 17.485 26.228 38.504 26.228 63.058c0 0 0 53.571 0 53.571c0 0 71.428 0 71.428 0c19.346 0 36.087 7.069 50.224 21.206c14.137 14.137 21.205 30.878 21.205 50.223c0 0 0 0 0 0m-214.286 35.714c0 0 0 -160.714 0 -160.714c0 -4.836 -1.767 -9.022 -5.301 -12.556c-3.534 -3.534 -7.72 -5.301 -12.556 -5.301c0 0 -35.714 0 -35.714 0c-4.836 0 -9.022 1.767 -12.556 5.301c-3.534 3.534 -5.301 7.72 -5.301 12.556c0 0 0 160.714 0 160.714c0 4.837 1.767 9.022 5.301 12.556c3.534 3.534 7.72 5.301 12.556 5.301c0 0 35.714 0 35.714 0c4.836 0 9.022 -1.767 12.556 -5.301c3.534 -3.534 5.301 -7.719 5.301 -12.556c0 0 0 0 0 0m-17.857 267.857c0 0 160.714 0 160.714 0c0 0 0 -160.714 0 -160.714c0 0 -160.714 0 -160.714 0c0 0 0 160.714 0 160.714c0 0 0 0 0 0m-214.286 0c0 0 178.572 0 178.572 0c0 0 0 -160.714 0 -160.714c0 0 -178.572 0 -178.572 0c0 0 0 160.714 0 160.714c0 0 0 0 0 0m214.286 214.286c0 0 160.714 0 160.714 0c0 0 0 -178.571 0 -178.571c0 0 -160.714 0 -160.714 0c0 0 0 178.571 0 178.571c0 0 0 0 0 0m-410.714 -482.143c0 0 0 -160.714 0 -160.714c0 -4.836 -1.767 -9.022 -5.301 -12.556c-3.535 -3.534 -7.72 -5.301 -12.556 -5.301c0 0 -35.715 0 -35.715 0c-4.836 0 -9.021 1.767 -12.555 5.301c-3.535 3.534 -5.302 7.72 -5.302 12.556c0 0 0 160.714 0 160.714c0 4.837 1.767 9.022 5.302 12.556c3.534 3.534 7.719 5.301 12.555 5.301c0 0 35.715 0 35.715 0c4.836 0 9.021 -1.767 12.556 -5.301c3.534 -3.534 5.301 -7.719 5.301 -12.556c0 0 0 0 0 0m196.428 482.143c0 0 178.572 0 178.572 0c0 0 0 -178.571 0 -178.571c0 0 -178.572 0 -178.572 0c0 0 0 178.571 0 178.571c0 0 0 0 0 0m214.286 196.429c0 0 160.714 0 160.714 0c0 0 0 -160.715 0 -160.715c0 0 -160.714 0 -160.714 0c0 0 0 160.715 0 160.715c0 0 0 0 0 0m-428.571 -410.715c0 0 178.571 0 178.571 0c0 0 0 -160.714 0 -160.714c0 0 -178.571 0 -178.571 0c0 0 0 160.714 0 160.714c0 0 0 0 0 0m214.285 410.715c0 0 178.572 0 178.572 0c0 0 0 -160.715 0 -160.715c0 0 -178.572 0 -178.572 0c0 0 0 160.715 0 160.715c0 0 0 0 0 0m-410.714 -410.715c0 0 160.714 0 160.714 0c0 0 0 -160.714 0 -160.714c0 0 -160.714 0 -160.714 0c0 0 0 160.714 0 160.714c0 0 0 0 0 0m196.429 214.286c0 0 178.571 0 178.571 0c0 0 0 -178.571 0 -178.571c0 0 -178.571 0 -178.571 0c0 0 0 178.571 0 178.571c0 0 0 0 0 0m-196.429 0c0 0 160.714 0 160.714 0c0 0 0 -178.571 0 -178.571c0 0 -160.714 0 -160.714 0c0 0 0 178.571 0 178.571c0 0 0 0 0 0m196.429 196.429c0 0 178.571 0 178.571 0c0 0 0 -160.715 0 -160.715c0 0 -178.571 0 -178.571 0c0 0 0 160.715 0 160.715c0 0 0 0 0 0m-196.429 0c0 0 160.714 0 160.714 0c0 0 0 -160.715 0 -160.715c0 0 -160.714 0 -160.714 0c0 0 0 160.715 0 160.715c0 0 0 0 0 0" />
  </g>
</svg>