<svg height="1000px" width="750px" xmlns="http://www.w3.org/2000/svg">
  <g>
    <path d="M0 819c0 0 0 -549 0 -549c0 -15.333 5.5 -28.5 16.5 -39.5c11 -11 24.167 -16.5 39.5 -16.5c0 0 36 0 36 0c0 0 0 69 0 69c0 18.667 6.5 34.5 19.5 47.5c13 13 28.833 19.5 47.5 19.5c0 0 15 0 15 0c18.667 0 34.667 -6.5 48 -19.5c13.333 -13 20 -28.833 20 -47.5c0 0 0 -69 0 -69c0 0 58 0 58 0c0 0 0 69 0 69c0 18.667 6.5 34.5 19.5 47.5c13 13 28.833 19.5 47.5 19.5c0 0 16 0 16 0c18.667 0 34.5 -6.5 47.5 -19.5c13 -13 19.5 -28.833 19.5 -47.5c0 0 0 -69 0 -69c0 0 58 0 58 0c0 0 0 69 0 69c0 18.667 6.667 34.5 20 47.5c13.333 13 29.333 19.5 48 19.5c0 0 15 0 15 0c18.667 0 34.5 -6.5 47.5 -19.5c13 -13 19.5 -28.833 19.5 -47.5c0 0 0 -69 0 -69c0 0 36 0 36 0c15.333 0 28.5 5.5 39.5 16.5c11 11 16.5 24.167 16.5 39.5c0 0 0 549 0 549c0 15.333 -5.5 28.5 -16.5 39.5c-11 11 -24.167 16.5 -39.5 16.5c0 0 -638 0 -638 0c-15.333 0 -28.5 -5.5 -39.5 -16.5c-11 -11 -16.5 -24.167 -16.5 -39.5c0 0 0 0 0 0m75 -19c0 0 600 0 600 0c0 0 0 -398 0 -398c0 0 -600 0 -600 0c0 0 0 398 0 398c0 0 0 0 0 0m54 -517c0 0 0 -128 0 -128c0 -8 3 -15 9 -21c6 -6 13 -9 21 -9c0 0 15 0 15 0c8.667 0 15.833 3 21.5 9c5.667 6 8.5 13 8.5 21c0 0 0 128 0 128c0 8 -2.833 14.833 -8.5 20.5c-5.667 5.667 -12.833 8.5 -21.5 8.5c0 0 -15 0 -15 0c-8 0 -15 -2.833 -21 -8.5c-6 -5.667 -9 -12.5 -9 -20.5c0 0 0 0 0 0m48 434c0 -24 6.667 -43.5 20 -58.5c13.333 -15 27.833 -28 43.5 -39c15.667 -11 30.167 -21.667 43.5 -32c13.333 -10.333 20 -22.5 20 -36.5c0 -13.333 -3.833 -23 -11.5 -29c-7.667 -6 -17.167 -9 -28.5 -9c-7.333 0 -14.167 1.5 -20.5 4.5c-6.333 3 -11.833 6.833 -16.5 11.5c-2.667 2.667 -5 5.333 -7 8c-2 2.667 -4 5.667 -6 9c0 0 -34 -23 -34 -23c4.667 -9.333 11.333 -18.333 20 -27c7.333 -7.333 16.5 -13.667 27.5 -19c11 -5.333 24.5 -8 40.5 -8c23.333 0 43.667 6.833 61 20.5c17.333 13.667 26 33.167 26 58.5c0 14 -3 26.167 -9 36.5c-6 10.333 -13.667 19.667 -23 28c-9.333 8.333 -19.333 15.833 -30 22.5c-10.667 6.667 -20.667 13.333 -30 20c-9.333 6.667 -17.167 13.667 -23.5 21c-6.333 7.333 -9.5 15.667 -9.5 25c0 0 92 0 92 0c0 0 0 -34 0 -34c0 0 42 0 42 0c0 0 0 73 0 73c0 0 -185 0 -185 0c-0.667 -4 -1.167 -8 -1.5 -12c-0.333 -4 -0.5 -7.667 -0.5 -11c0 0 0 0 0 0m161 -434c0 0 0 -128 0 -128c0 -8 2.833 -15 8.5 -21c5.667 -6 12.5 -9 20.5 -9c0 0 16 0 16 0c8 0 15 3 21 9c6 6 9 13 9 21c0 0 0 128 0 128c0 8 -3 14.833 -9 20.5c-6 5.667 -13 8.5 -21 8.5c0 0 -16 0 -16 0c-8 0 -14.833 -2.833 -20.5 -8.5c-5.667 -5.667 -8.5 -12.5 -8.5 -20.5c0 0 0 0 0 0m59 262c0 0 0 -71 0 -71c0 0 187 0 187 0c0 0 0 34 0 34c0 0 -117 232 -117 232c0 0 -51 0 -51 0c0 0 107 -212 107 -212c2 -5.333 4 -9 6 -11c0 0 3 -4 3 -4c0 0 0 -1 0 -1c-2 0 -3.667 0.333 -5 1c0 0 -13 0 -13 0c0 0 -75 0 -75 0c0 0 0 32 0 32c0 0 -42 0 -42 0c0 0 0 0 0 0m149 -262c0 0 0 -128 0 -128c0 -8 2.833 -15 8.5 -21c5.667 -6 12.833 -9 21.5 -9c0 0 15 0 15 0c8 0 15 3 21 9c6 6 9 13 9 21c0 0 0 128 0 128c0 8 -3 14.833 -9 20.5c-6 5.667 -13 8.5 -21 8.5c0 0 -15 0 -15 0c-8.667 0 -15.833 -2.833 -21.5 -8.5c-5.667 -5.667 -8.5 -12.5 -8.5 -20.5c0 0 0 0 0 0" />
  </g>
</svg>