<svg height="1000px" width="764.6484375px" xmlns="http://www.w3.org/2000/svg">
  <g>
    <path d="M0 825.439453125c0 0 0 -560.059 0 -560.059c0 -15.299 5.697 -28.564 17.09 -39.795c11.393 -11.23 24.739 -16.845 40.039 -16.845c0 0 19.043 0 19.043 0c0 0 0 -6.348 0 -6.348c0 -10.091 1.627 -20.264 4.883 -30.517c3.255 -10.254 8.545 -19.369 15.869 -27.344c7.324 -7.975 17.008 -14.486 29.053 -19.531c12.044 -5.046 26.692 -7.569 43.945 -7.569c17.252 0 31.901 2.523 43.945 7.569c12.044 5.045 21.729 11.556 29.053 19.531c7.324 7.975 12.695 17.171 16.113 27.588c3.418 10.416 5.127 20.507 5.127 30.273c0 0 0 6.348 0 6.348c0 0 23.926 0 23.926 0c0 0 0 -6.348 0 -6.348c0 -10.091 1.628 -20.264 4.883 -30.517c3.255 -10.254 8.545 -19.369 15.869 -27.344c7.324 -7.975 17.008 -14.486 29.053 -19.531c12.044 -5.046 26.692 -7.569 43.945 -7.569c17.253 0 31.901 2.523 43.945 7.569c12.045 5.045 21.892 11.556 29.541 19.531c7.65 7.975 13.184 17.171 16.602 27.588c3.418 10.416 5.127 20.507 5.127 30.273c0 0 0 6.348 0 6.348c0 0 23.926 0 23.926 0c0 0 0 -6.348 0 -6.348c0 -10.091 1.709 -20.264 5.127 -30.517c3.417 -10.254 8.789 -19.369 16.113 -27.344c7.324 -7.975 16.927 -14.486 28.808 -19.531c11.882 -5.046 26.612 -7.569 44.19 -7.569c17.252 0 31.901 2.523 43.945 7.569c12.044 5.045 21.729 11.556 29.053 19.531c7.324 7.975 12.614 17.171 15.869 27.588c3.255 10.416 4.883 20.507 4.883 30.273c0 0 0 6.348 0 6.348c0 0 19.043 0 19.043 0c15.299 0 28.646 5.615 40.039 16.845c11.393 11.231 17.09 24.496 17.09 39.795c0 0 0 560.059 0 560.059c0 15.299 -5.697 28.646 -17.09 40.039c-11.393 11.393 -24.74 17.09 -40.039 17.09c0 0 -650.879 0 -650.879 0c-15.3 0 -28.646 -5.697 -40.039 -17.09c-11.393 -11.393 -17.09 -24.74 -17.09 -40.039c0 0 0 0 0 0m77.148 -20.02c0 0 137.696 0 137.696 0c0 0 0 -122.07 0 -122.07c0 0 -137.696 0 -137.696 0c0 0 0 122.07 0 122.07c0 0 0 0 0 0m0 -140.625c0 0 137.696 0 137.696 0c0 0 0 -123.046 0 -123.046c0 0 -137.696 0 -137.696 0c0 0 0 123.046 0 123.046c0 0 0 0 0 0m0 -142.089c0 0 137.696 0 137.696 0c0 0 0 -123.047 0 -123.047c0 0 -137.696 0 -137.696 0c0 0 0 123.047 0 123.047c0 0 0 0 0 0m55.665 -208.985c0 18.555 12.369 27.832 37.109 27.832c24.739 0 37.109 -9.277 37.109 -27.832c0 0 0 -111.328 0 -111.328c0 -18.555 -12.37 -27.832 -37.109 -27.832c-24.74 0 -37.109 9.277 -37.109 27.832c0 0 0 111.328 0 111.328c0 0 0 0 0 0m101.074 491.699c0 0 139.16 0 139.16 0c0 0 0 -122.07 0 -122.07c0 0 -139.16 0 -139.16 0c0 0 0 122.07 0 122.07c0 0 0 0 0 0m0 -140.625c0 0 139.16 0 139.16 0c0 0 0 -123.046 0 -123.046c0 0 -139.16 0 -139.16 0c0 0 0 123.046 0 123.046c0 0 0 0 0 0m0 -142.089c0 0 139.16 0 139.16 0c0 0 0 -123.047 0 -123.047c0 0 -139.16 0 -139.16 0c0 0 0 123.047 0 123.047c0 0 0 0 0 0m112.304 -208.985c0 10.091 2.605 17.253 7.813 21.485c5.208 4.231 14.486 6.347 27.832 6.347c13.346 0 22.868 -2.197 28.564 -6.592c5.697 -4.394 8.545 -11.474 8.545 -21.24c0 0 0 -111.328 0 -111.328c0 -9.44 -2.848 -16.439 -8.545 -20.996c-5.696 -4.557 -15.218 -6.836 -28.564 -6.836c-13.346 0 -22.624 2.36 -27.832 7.08c-5.208 4.72 -7.813 11.638 -7.813 20.752c0 0 0 111.328 0 111.328c0 0 0 0 0 0m45.899 491.699c0 0 138.672 0 138.672 0c0 0 0 -122.07 0 -122.07c0 0 -138.672 0 -138.672 0c0 0 0 122.07 0 122.07c0 0 0 0 0 0m0 -140.625c0 0 138.672 0 138.672 0c0 0 0 -123.046 0 -123.046c0 0 -138.672 0 -138.672 0c0 0 0 123.046 0 123.046c0 0 0 0 0 0m0 -142.089c0 0 138.672 0 138.672 0c0 0 0 -123.047 0 -123.047c0 0 -138.672 0 -138.672 0c0 0 0 123.047 0 123.047c0 0 0 0 0 0m157.715 282.714c0 0 138.183 0 138.183 0c0 0 0 -122.07 0 -122.07c0 0 -138.183 0 -138.183 0c0 0 0 122.07 0 122.07c0 0 0 0 0 0m0 -140.625c0 0 138.183 0 138.183 0c0 0 0 -123.046 0 -123.046c0 0 -138.183 0 -138.183 0c0 0 0 123.046 0 123.046c0 0 0 0 0 0m0 -142.089c0 0 138.183 0 138.183 0c0 0 0 -123.047 0 -123.047c0 0 -138.183 0 -138.183 0c0 0 0 123.047 0 123.047c0 0 0 0 0 0m8.3 -208.985c0 18.555 12.37 27.832 37.11 27.832c24.739 0 36.946 -9.277 36.621 -27.832c0 0 0 -111.328 0 -111.328c0 -18.555 -12.207 -27.832 -36.621 -27.832c-24.74 0 -37.11 9.277 -37.11 27.832c0 0 0 111.328 0 111.328c0 0 0 0 0 0" />
  </g>
</svg>