<svg height="1000" width="1000" xmlns="http://www.w3.org/2000/svg"><path d="M0 857.2v-714.2q0-29.6 20.9-50.5t50.5-20.9h857.1q29.6 0 50.5 20.9t20.9 50.5v714.2q0 29.6-20.9 50.5t-50.5 20.9h-857.1q-29.6 0-50.5-20.9t-20.9-50.5zm71.4 0h857.1v-71.4h-857.1v71.4zm0-571.4h857.1v-142.8h-462l-35.7 71.4h-359.4v71.4zm71.4-107.1h214.3v-71.4h-214.3v71.4zm142.8 358.2q0 88.7 62.8 151.5t151.5 62.8 151.5-62.8 62.8-151.5-62.8-151.5-151.5-62.8-151.5 62.8-62.8 151.5zm71.4 0q0-59.1 41.9-101t101-41.9 101 41.9 41.9 101-41.9 101-101 41.9-101-41.9-41.9-101zm53.6-1.1q0 7.8 5 12.8t12.8 5 12.8-5 5-12.8q0-22.3 15.6-37.9t37.9-15.6q7.8 0 12.8-5t5-12.8-5-12.8-12.8-5q-36.8 0-63.1 26.2t-26.2 63.1z"/></svg>