<svg height="1000px" width="900px" xmlns="http://www.w3.org/2000/svg">
  <g>
    <path d="M0 819c0 0 0 -525 0 -525c0 -15.333 5.5 -28.667 16.5 -40c11 -11.333 24.167 -17 39.5 -17c0 0 179 0 179 0c0 0 28 -61 28 -61c6 -14 16.833 -26 32.5 -36c15.667 -10 31.167 -15 46.5 -15c0 0 216 0 216 0c15.333 0 30.833 5 46.5 15c15.667 10 26.5 22 32.5 36c0 0 28 61 28 61c0 0 179 0 179 0c15.333 0 28.5 5.667 39.5 17c11 11.333 16.5 24.667 16.5 40c0 0 0 525 0 525c0 15.333 -5.5 28.5 -16.5 39.5c-11 11 -24.167 16.5 -39.5 16.5c0 0 -788 0 -788 0c-15.333 0 -28.5 -5.5 -39.5 -16.5c-11 -11 -16.5 -24.167 -16.5 -39.5c0 0 0 0 0 0m216 -263c0 32.667 6.167 63.167 18.5 91.5c12.333 28.333 29 53.167 50 74.5c21 21.333 45.833 38.167 74.5 50.5c28.667 12.333 59 18.5 91 18.5c32 0 62.333 -6.167 91 -18.5c28.667 -12.333 53.5 -29.167 74.5 -50.5c21 -21.333 37.667 -46.167 50 -74.5c12.333 -28.333 18.5 -58.833 18.5 -91.5c0 -32 -6.167 -62.333 -18.5 -91c-12.333 -28.667 -29 -53.5 -50 -74.5c-21 -21 -45.833 -37.667 -74.5 -50c-28.667 -12.333 -59 -18.5 -91 -18.5c-32 0 -62.333 6.167 -91 18.5c-28.667 12.333 -53.5 29 -74.5 50c-21 21 -37.667 45.833 -50 74.5c-12.333 28.667 -18.5 59 -18.5 91c0 0 0 0 0 0m75 0c0 -22 4.167 -42.667 12.5 -62c8.333 -19.333 19.667 -36.167 34 -50.5c14.333 -14.333 31.167 -25.667 50.5 -34c19.333 -8.333 40 -12.5 62 -12.5c22 0 42.667 4.167 62 12.5c19.333 8.333 36.167 19.667 50.5 34c14.333 14.333 25.667 31.167 34 50.5c8.333 19.333 12.5 40 12.5 62c0 22 -4.167 42.667 -12.5 62c-8.333 19.333 -19.667 36.333 -34 51c-14.333 14.667 -31.167 26.167 -50.5 34.5c-19.333 8.333 -40 12.5 -62 12.5c-22 0 -42.667 -4.167 -62 -12.5c-19.333 -8.333 -36.167 -19.833 -50.5 -34.5c-14.333 -14.667 -25.667 -31.667 -34 -51c-8.333 -19.333 -12.5 -40 -12.5 -62c0 0 0 0 0 0" />
  </g>
</svg>