<svg height="1000" width="1071.4" xmlns="http://www.w3.org/2000/svg"><path d="M535.7 375q66.4 0 113.6 47.2t47.1 113.5 -47.1 113.6 -113.6 47.1T422.2 649.3 375 535.7t47.2 -113.5T535.7 375zM928.6 142.9q59.1 0 101 41.8t41.8 101v500q0 59.2 -41.8 101t-101 41.9H142.9q-59.2 0 -101 -41.9T0 785.7v-500q0 -59.1 41.9 -101t101 -41.8h125L296.3 67q10.6 -27.4 38.8 -47.2T392.9 0h285.7q29.5 0 57.7 19.8T775.1 67l28.5 75.9h125zM535.7 785.7q103.3 0 176.6 -73.4t73.4 -176.6T712.3 359.1 535.7 285.7t-176.6 73.4 -73.4 176.6 73.4 176.6 176.6 73.4z"/></svg>