<svg height="1000" width="1000" xmlns="http://www.w3.org/2000/svg"><path d="M0 857.152v-714.24q0 -29.574 20.925 -50.499t50.499 -20.925h857.088q29.574 0 50.499 20.925t20.925 50.499v714.24q0 29.574 -20.925 50.499t-50.499 20.925h-857.088q-29.574 0 -50.499 -20.925t-20.925 -50.499zm71.424 0h857.088v-71.424h-857.088v71.424zm0 -571.392h857.088v-142.848h-462.024l-35.712 71.424h-359.352v71.424zm71.424 -107.136h214.272v-71.424h-214.272v71.424zm142.848 358.236q0 88.722 62.775 151.497t151.497 62.775 151.497 -62.775 62.775 -151.497 -62.775 -151.497 -151.497 -62.775 -151.497 62.775 -62.775 151.497zm71.424 0q0 -59.148 41.85 -100.998t100.998 -41.85 100.998 41.85 41.85 100.998 -41.85 100.998 -100.998 41.85 -100.998 -41.85 -41.85 -100.998zm53.568 -1.116q0 7.812 5.022 12.834t12.834 5.022 12.834 -5.022 5.022 -12.834q0 -22.32 15.624 -37.944t37.944 -15.624q7.812 0 12.834 -5.022t5.022 -12.834 -5.022 -12.834 -12.834 -5.022q-36.828 0 -63.054 26.226t-26.226 63.054z"/></svg>