<svg height="1000px" width="1071.4285714285716px" xmlns="http://www.w3.org/2000/svg">
  <g>
    <path d="M0 785.7142857142857c0 0 0 -500 0 -500c0 -39.435 13.951 -73.103 41.853 -101.004c27.901 -27.902 61.57 -41.853 101.004 -41.853c0 0 125 0 125 0c0 0 28.46 -75.893 28.46 -75.893c7.068 -18.229 19.996 -33.947 38.783 -47.154c18.788 -13.207 38.04 -19.81 57.757 -19.81c0 0 285.714 0 285.714 0c19.718 0 38.97 6.603 57.757 19.81c18.787 13.207 31.715 28.925 38.784 47.154c0 0 28.459 75.893 28.459 75.893c0 0 125 0 125 0c39.435 0 73.103 13.951 101.005 41.853c27.902 27.901 41.853 61.569 41.853 101.004c0 0 0 500 0 500c0 39.435 -13.951 73.103 -41.853 101.004c-27.902 27.902 -61.57 41.853 -101.005 41.853c0 0 -785.714 0 -785.714 0c-39.434 0 -73.103 -13.951 -101.004 -41.853c-27.902 -27.901 -41.853 -61.569 -41.853 -101.004c0 0 0 0 0 0m285.714 -250c0 68.824 24.461 127.697 73.382 176.618c48.921 48.921 107.794 73.382 176.618 73.382c68.825 0 127.697 -24.461 176.619 -73.382c48.921 -48.921 73.381 -107.794 73.381 -176.618c0 -68.824 -24.46 -127.697 -73.381 -176.618c-48.922 -48.921 -107.794 -73.382 -176.619 -73.382c-68.824 0 -127.697 24.461 -176.618 73.382c-48.921 48.921 -73.382 107.794 -73.382 176.618c0 0 0 0 0 0m89.286 0c0 -44.271 15.718 -82.124 47.154 -113.56c31.436 -31.436 69.289 -47.154 113.56 -47.154c44.271 0 82.125 15.718 113.561 47.154c31.436 31.436 47.154 69.289 47.154 113.56c0 44.271 -15.718 82.124 -47.154 113.56c-31.436 31.436 -69.29 47.154 -113.561 47.154c-44.271 0 -82.124 -15.718 -113.56 -47.154c-31.436 -31.436 -47.154 -69.289 -47.154 -113.56c0 0 0 0 0 0" />
  </g>
</svg>