<svg height="1000" width="1000" xmlns="http://www.w3.org/2000/svg"><path d="M517.824 464.32q0 -7.812 -5.022 -12.834t-12.834 -5.022q-36.828 0 -63.054 26.226t-26.226 63.054q0 7.812 5.022 12.834t12.834 5.022 12.834 -5.022 5.022 -12.834q0 -22.32 15.624 -37.944t37.944 -15.624q7.812 0 12.834 -5.022t5.022 -12.834zm124.992 72.54q0 59.148 -41.85 100.998t-100.998 41.85 -100.998 -41.85 -41.85 -100.998 41.85 -100.998 100.998 -41.85 100.998 41.85 41.85 100.998zm-571.392 320.292h857.088v-71.424h-857.088v71.424zm642.816 -320.292q0 -88.722 -62.775 -151.497t-151.497 -62.775 -151.497 62.775 -62.775 151.497 62.775 151.497 151.497 62.775 151.497 -62.775 62.775 -151.497zm-571.392 -358.236h214.272v-71.424h-214.272v71.424zm-71.424 107.136h857.088v-142.848h-462.024l-35.712 71.424h-359.352v71.424zm928.512 -142.848v714.24q0 29.574 -20.925 50.499t-50.499 20.925h-857.088q-29.574 0 -50.499 -20.925t-20.925 -50.499v-714.24q0 -29.574 20.925 -50.499t50.499 -20.925h857.088q29.574 0 50.499 20.925t20.925 50.499z"/></svg>