<svg height="1000px" width="900px" xmlns="http://www.w3.org/2000/svg">
  <g>
    <path d="M0 819c0 0 0 -638 0 -638c0 -15.333 5.5 -28.5 16.5 -39.5c11 -11 24.167 -16.5 39.5 -16.5c0 0 788 0 788 0c15.333 0 28.5 5.5 39.5 16.5c11 11 16.5 24.167 16.5 39.5c0 0 0 638 0 638c0 15.333 -5.5 28.5 -16.5 39.5c-11 11 -24.167 16.5 -39.5 16.5c0 0 -788 0 -788 0c-15.333 0 -28.5 -5.5 -39.5 -16.5c-11 -11 -16.5 -24.167 -16.5 -39.5c0 0 0 0 0 0m75 -22c0 0 750 0 750 0c0 0 0 -56 0 -56c0 0 -750 0 -750 0c0 0 0 56 0 56c0 0 0 0 0 0m0 -481c0 0 750 0 750 0c0 0 0 -113 0 -113c0 0 -467 0 -467 0c0 0 -7 45 -7 45c0 0 -276 0 -276 0c0 0 0 68 0 68c0 0 0 0 0 0m55 -96c0 0 154 0 154 0c0 0 0 -45 0 -45c0 0 -154 0 -154 0c0 0 0 45 0 45c0 0 0 0 0 0m142 309c0 24.667 4.667 47.833 14 69.5c9.333 21.667 22 40.5 38 56.5c16 16 34.833 28.667 56.5 38c21.667 9.333 44.833 14 69.5 14c24.667 0 47.833 -4.667 69.5 -14c21.667 -9.333 40.5 -22 56.5 -38c16 -16 28.667 -34.833 38 -56.5c9.333 -21.667 14 -44.833 14 -69.5c0 -24.667 -4.667 -47.833 -14 -69.5c-9.333 -21.667 -22 -40.5 -38 -56.5c-16 -16 -34.833 -28.667 -56.5 -38c-21.667 -9.333 -44.833 -14 -69.5 -14c-24.667 0 -47.833 4.667 -69.5 14c-21.667 9.333 -40.5 22 -56.5 38c-16 16 -28.667 34.833 -38 56.5c-9.333 21.667 -14 44.833 -14 69.5c0 0 0 0 0 0m56 0c0 -16.667 3.167 -32.5 9.5 -47.5c6.333 -15 15 -28 26 -39c11 -11 24 -19.667 39 -26c15 -6.333 30.833 -9.5 47.5 -9.5c16.667 0 32.5 3.167 47.5 9.5c15 6.333 28 15 39 26c11 11 19.667 24 26 39c6.333 15 9.5 30.833 9.5 47.5c0 16.667 -3.167 32.5 -9.5 47.5c-6.333 15 -15 28 -26 39c-11 11 -24 19.667 -39 26c-15 6.333 -30.833 9.5 -47.5 9.5c-16.667 0 -32.5 -3.167 -47.5 -9.5c-15 -6.333 -28 -15 -39 -26c-11 -11 -19.667 -24 -26 -39c-6.333 -15 -9.5 -30.833 -9.5 -47.5c0 0 0 0 0 0m35 0c0 5.333 2 10 6 14c4 4 8.667 6 14 6c6 0 11 -2 15 -6c4 -4 6 -8.667 6 -14c0 -13.333 4.5 -24.333 13.5 -33c9 -8.667 19.833 -13 32.5 -13c0 0 0 -1 0 -1c6 0 11 -2 15 -6c4 -4 6 -8.667 6 -14c0 -6 -2 -11 -6 -15c-4 -4 -9 -6 -15 -6c-24 0 -44.5 8.667 -61.5 26c-17 17.333 -25.5 38 -25.5 62c0 0 0 0 0 0" />
  </g>
</svg>