<svg height="1000px" width="899.90234375px" xmlns="http://www.w3.org/2000/svg">
  <g>
    <path d="M0 818.84765625c0 0 0 -524.902 0 -524.902c0 -15.3 5.534 -28.646 16.602 -40.039c11.067 -11.394 24.251 -17.09 39.55 -17.09c0 0 178.711 0 178.711 0c0 0 28.321 -61.035 28.321 -61.035c5.859 -13.998 16.601 -25.961 32.226 -35.889c15.625 -9.928 31.087 -14.893 46.387 -14.893c0 0 216.308 0 216.308 0c15.3 0 30.762 4.965 46.387 14.893c15.625 9.928 26.53 21.891 32.715 35.889c0 0 27.832 61.035 27.832 61.035c0 0 179.199 0 179.199 0c15.3 0 28.402 5.696 39.307 17.09c10.905 11.393 16.357 24.739 16.357 40.039c0 0 0 524.902 0 524.902c0 15.299 -5.452 28.483 -16.357 39.551c-10.905 11.067 -24.007 16.601 -39.307 16.601c0 0 -788.086 0 -788.086 0c-15.299 0 -28.483 -5.534 -39.55 -16.601c-11.068 -11.068 -16.602 -24.252 -16.602 -39.551c0 0 0 0 0 0m215.82 -262.695c0 32.552 6.185 62.988 18.555 91.308c12.37 28.321 29.053 53.142 50.049 74.463c20.996 21.322 45.898 38.167 74.707 50.537c28.808 12.37 59.163 18.555 91.064 18.555c31.901 0 62.175 -6.185 90.821 -18.555c28.645 -12.37 53.466 -29.215 74.463 -50.537c20.996 -21.321 37.679 -46.142 50.048 -74.463c12.37 -28.32 18.555 -58.756 18.555 -91.308c0 -31.901 -6.185 -62.256 -18.555 -91.065c-12.369 -28.808 -29.052 -53.711 -50.048 -74.707c-20.997 -20.996 -45.818 -37.679 -74.463 -50.049c-28.646 -12.369 -58.92 -18.554 -90.821 -18.554c-31.901 0 -62.256 6.185 -91.064 18.554c-28.809 12.37 -53.711 29.053 -74.707 50.049c-20.996 20.996 -37.679 45.817 -50.049 74.463c-12.37 28.646 -18.555 59.082 -18.555 91.309c0 0 0 0 0 0m75.196 0c0 -22.136 4.15 -42.888 12.451 -62.256c8.301 -19.369 19.612 -36.214 33.935 -50.537c14.323 -14.323 31.169 -25.635 50.537 -33.936c19.369 -8.301 40.121 -12.451 62.256 -12.451c22.136 0 42.806 4.15 62.012 12.451c19.206 8.301 35.97 19.613 50.293 33.936c14.323 14.323 25.635 31.168 33.936 50.537c8.3 19.368 12.451 40.12 12.451 62.256c0 22.135 -4.151 42.806 -12.451 62.011c-8.301 19.206 -19.613 36.133 -33.936 50.782c-14.323 14.648 -31.169 26.123 -50.537 34.423c-19.369 8.301 -39.958 12.452 -61.768 12.452c-22.135 0 -42.887 -4.151 -62.256 -12.452c-19.368 -8.3 -36.214 -19.775 -50.537 -34.423c-14.323 -14.649 -25.634 -31.657 -33.935 -51.026c-8.301 -19.368 -12.451 -39.957 -12.451 -61.767c0 0 0 0 0 0" />
  </g>
</svg>