<svg height="1000" width="1000" xmlns="http://www.w3.org/2000/svg"><path d="M517.9 464.3q0 -7.8 -5.1 -12.8T500 446.4q-36.8 0 -63.1 26.3t-26.2 63q0 7.8 5 12.8t12.9 5.1 12.8 -5.1 5 -12.8q0 -22.3 15.7 -37.9T500 482.1q7.8 0 12.8 -5t5.1 -12.8zm125 72.5q0 59.2 -41.9 101t-101 41.9T399 637.8t-41.9 -101 41.9 -101T500 394t101 41.8 41.9 101zM71.4 857.1h857.2v-71.4H71.4v71.4zM714.3 536.8q0 -88.7 -62.8 -151.5T500 322.5t-151.5 62.8 -62.8 151.5 62.8 151.5T500 751.1t151.5 -62.8 62.8 -151.5zM142.9 178.6h214.2v-71.5H142.9v71.5zM71.4 285.7h857.2V142.9H466.5l-35.7 71.4H71.4v71.4zM1000 142.9v714.2q0 29.6 -20.9 50.5t-50.5 21H71.4q-29.5 0 -50.5 -21T0 857.1V142.9Q0 113.3 20.9 92.4t50.5 -21h857.2q29.5 0 50.5 21t20.9 50.5z"/></svg>