<svg height="1000px" width="899.90234375px" xmlns="http://www.w3.org/2000/svg">
  <g>
    <path d="M0 818.84765625c0 0 0 -637.695 0 -637.695c0 -15.3 5.534 -28.483 16.602 -39.551c11.067 -11.068 24.251 -16.602 39.55 -16.602c0 0 788.086 0 788.086 0c15.3 0 28.402 5.534 39.307 16.602c10.905 11.068 16.357 24.251 16.357 39.551c0 0 0 637.695 0 637.695c0 15.299 -5.452 28.483 -16.357 39.551c-10.905 11.067 -24.007 16.601 -39.307 16.601c0 0 -788.086 0 -788.086 0c-15.299 0 -28.483 -5.534 -39.55 -16.601c-11.068 -11.068 -16.602 -24.252 -16.602 -39.551c0 0 0 0 0 0m75.195 -21.973c0 0 750 0 750 0c0 0 0 -55.664 0 -55.664c0 0 -750 0 -750 0c0 0 0 55.664 0 55.664c0 0 0 0 0 0m0 -480.957c0 0 750 0 750 0c0 0 0 -112.793 0 -112.793c0 0 -467.285 0 -467.285 0c0 0 -6.836 44.922 -6.836 44.922c0 0 -275.879 0 -275.879 0c0 0 0 67.871 0 67.871c0 0 0 0 0 0m54.688 -95.703c0 0 154.297 0 154.297 0c0 0 0 -45.41 0 -45.41c0 0 -154.297 0 -154.297 0c0 0 0 45.41 0 45.41c0 0 0 0 0 0m142.09 308.594c0 24.74 4.638 47.933 13.916 69.58c9.277 21.647 21.972 40.527 38.086 56.641c16.113 16.113 34.993 28.808 56.64 38.086c21.647 9.277 44.841 13.916 69.58 13.916c24.74 0 47.852 -4.639 69.336 -13.916c21.485 -9.278 40.283 -21.973 56.397 -38.086c16.113 -16.114 28.808 -34.994 38.086 -56.641c9.277 -21.647 13.916 -44.84 13.916 -69.58c0 -24.74 -4.639 -47.933 -13.916 -69.58c-9.278 -21.647 -21.973 -40.446 -38.086 -56.397c-16.114 -15.95 -34.994 -28.564 -56.641 -37.841c-21.647 -9.278 -44.678 -13.916 -69.092 -13.916c-24.739 0 -47.933 4.638 -69.58 13.916c-21.647 9.277 -40.527 21.891 -56.64 37.841c-16.114 15.951 -28.809 34.75 -38.086 56.397c-9.278 21.647 -13.916 44.84 -13.916 69.58c0 0 0 0 0 0m56.152 0c0 -16.602 3.174 -32.389 9.521 -47.363c6.348 -14.974 14.974 -27.995 25.879 -39.063c10.905 -11.068 23.845 -19.694 38.819 -25.879c14.974 -6.185 30.924 -9.277 47.851 -9.277c16.602 0 32.39 3.092 47.364 9.277c14.974 6.185 27.994 14.811 39.062 25.879c11.068 11.068 19.694 24.089 25.879 39.063c6.185 14.974 9.277 30.761 9.277 47.363c0 16.601 -3.092 32.471 -9.277 47.607c-6.185 15.137 -14.811 28.158 -25.879 39.063c-11.068 10.905 -24.088 19.531 -39.062 25.879c-14.974 6.347 -30.762 9.521 -47.364 9.521c-16.601 0 -32.47 -3.174 -47.607 -9.521c-15.137 -6.348 -28.158 -14.974 -39.063 -25.879c-10.905 -10.905 -19.531 -23.845 -25.879 -38.818c-6.347 -14.974 -9.521 -30.925 -9.521 -47.852c0 0 0 0 0 0m34.668 0c0 5.208 2.034 9.847 6.103 13.916c4.069 4.069 8.708 6.103 13.916 6.103c5.86 0 10.824 -2.034 14.893 -6.103c4.069 -4.069 6.104 -8.708 6.104 -13.916c0 -13.346 4.557 -24.333 13.671 -32.959c9.115 -8.626 20.02 -12.939 32.715 -12.94c0 0 0 -0.976 0 -0.976c5.86 0 10.824 -1.953 14.893 -5.859c4.069 -3.907 6.103 -8.627 6.103 -14.161c0 -5.859 -2.034 -10.823 -6.103 -14.892c-4.069 -4.069 -9.033 -6.104 -14.893 -6.104c-24.088 0 -44.677 8.708 -61.767 26.123c-17.09 17.416 -25.635 38.005 -25.635 61.768c0 0 0 0 0 0" />
  </g>
</svg>