<svg height="1000" width="1072" xmlns="http://www.w3.org/2000/svg"><path d="M0 785.728l0-499.968q0-59.148 41.85-100.998t100.998-41.85l124.992 0l28.458-75.888q10.602-27.342 38.781-47.151t57.753-19.809l285.696 0q29.574 0 57.753 19.809t38.781 47.151l28.458 75.888l124.992 0q59.148 0 100.998 41.85t41.85 100.998l0 499.968q0 59.148-41.85 100.998t-100.998 41.85l-785.664 0q-59.148 0-100.998-41.85t-41.85-100.998zm285.696-249.984q0 103.23 73.377 176.607t176.607 73.377 176.607-73.377 73.377-176.607-73.377-176.607-176.607-73.377-176.607 73.377-73.377 176.607zm89.28 0q0-66.402 47.151-113.553t113.553-47.151 113.553 47.151 47.151 113.553-47.151 113.553-113.553 47.151-113.553-47.151-47.151-113.553z"/></svg>