<svg height="1000px" width="1000px" xmlns="http://www.w3.org/2000/svg">
  <g>
    <path d="M0 857.1428571428571c0 0 0 -714.286 0 -714.286c0 -19.717 6.975 -36.551 20.926 -50.502c13.951 -13.951 30.785 -20.926 50.503 -20.926c0 0 857.142 0 857.142 0c19.718 0 36.552 6.975 50.503 20.926c13.951 13.951 20.926 30.785 20.926 50.502c0 0 0 714.286 0 714.286c0 19.717 -6.975 36.551 -20.926 50.502c-13.951 13.951 -30.785 20.927 -50.503 20.927c0 0 -857.142 0 -857.142 0c-19.718 0 -36.552 -6.976 -50.503 -20.927c-13.951 -13.951 -20.926 -30.785 -20.926 -50.502c0 0 0 0 0 0m71.429 0c0 0 857.142 0 857.142 0c0 0 0 -71.429 0 -71.429c0 0 -857.142 0 -857.142 0c0 0 0 71.429 0 71.429c0 0 0 0 0 0m0 -571.429c0 0 857.142 0 857.142 0c0 0 0 -142.857 0 -142.857c0 0 -462.053 0 -462.053 0c0 0 -35.714 71.429 -35.714 71.429c0 0 -359.375 0 -359.375 0c0 0 0 71.428 0 71.428c0 0 0 0 0 0m71.428 -107.142c0 0 214.286 0 214.286 0c0 0 0 -71.429 0 -71.429c0 0 -214.286 0 -214.286 0c0 0 0 71.429 0 71.429c0 0 0 0 0 0m142.857 358.258c0 59.152 20.927 109.655 62.779 151.507c41.853 41.853 92.355 62.779 151.507 62.779c59.152 0 109.654 -20.926 151.507 -62.779c41.852 -41.852 62.779 -92.355 62.779 -151.506c0 -59.152 -20.927 -109.655 -62.779 -151.507c-41.853 -41.853 -92.355 -62.779 -151.507 -62.779c-59.152 0 -109.654 20.926 -151.507 62.779c-41.852 41.852 -62.779 92.355 -62.779 151.507c0 0 0 0 0 0m71.429 0c0 -39.435 13.951 -73.103 41.853 -101.005c27.901 -27.902 61.569 -41.853 101.004 -41.853c39.435 0 73.103 13.951 101.004 41.853c27.902 27.902 41.853 61.57 41.853 101.005c0 39.434 -13.951 73.102 -41.853 101.004c-27.901 27.902 -61.569 41.853 -101.004 41.853c-39.435 0 -73.103 -13.951 -101.004 -41.853c-27.902 -27.902 -41.853 -61.57 -41.853 -101.005c0 0 0 0 0 0m53.571 -1.116c0 5.209 1.674 9.487 5.023 12.835c3.348 3.348 7.626 5.023 12.834 5.023c5.209 0 9.487 -1.675 12.835 -5.023c3.348 -3.348 5.023 -10.044 5.023 -20.089c0 -10.045 5.208 -20.275 15.625 -30.692c10.416 -10.417 20.647 -15.625 30.692 -15.625c10.044 0 16.741 -1.674 20.089 -5.022c3.348 -3.349 5.022 -7.627 5.022 -12.835c0 -5.208 -1.674 -9.487 -5.022 -12.835c-3.348 -3.348 -7.627 -5.022 -12.835 -5.022c-24.554 0 -45.573 8.742 -63.058 26.227c-17.485 17.486 -26.228 38.505 -26.228 63.058c0 0 0 0 0 0" />
  </g>
</svg>