<svg height="1000" width="1071.4" xmlns="http://www.w3.org/2000/svg"><path d="M0 785.7v-500q0-59.1 41.9-101t101-41.9h125l28.5-75.9q10.6-27.3 38.8-47.2t57.8-19.8h285.7q29.6 0 57.8 19.8t38.8 47.2l28.5 75.9h125q59.1 0 101 41.9t41.9 101v500q0 59.1-41.9 101t-101 41.9h-785.7q-59.1 0-101-41.9t-41.9-101zm285.7-250q0 103.2 73.4 176.6t176.6 73.4 176.6-73.4 73.4-176.6-73.4-176.6-176.6-73.4-176.6 73.4-73.4 176.6zm89.3 0q0-66.4 47.2-113.6t113.6-47.2 113.6 47.2 47.2 113.6-47.2 113.6-113.6 47.2-113.6-47.2-47.2-113.6z"/></svg>