<svg height="1000px" width="785.7142857142858px" xmlns="http://www.w3.org/2000/svg">
  <g>
    <path d="M61.38392857142858 737.7232142857142c0 -14.881 5.208 -27.53 15.625 -37.946c0 0 164.063 -164.063 164.063 -164.063c0 0 -164.063 -164.062 -164.063 -164.062c-10.417 -10.417 -15.625 -23.066 -15.625 -37.947c0 -14.881 5.208 -27.53 15.625 -37.946c0 0 75.893 -75.893 75.893 -75.893c10.417 -10.417 23.065 -15.625 37.946 -15.625c14.881 0 27.53 5.208 37.947 15.625c0 0 164.062 164.062 164.062 164.062c0 0 164.063 -164.062 164.063 -164.062c10.416 -10.417 23.065 -15.625 37.946 -15.625c14.881 0 27.53 5.208 37.947 15.625c0 0 75.892 75.893 75.892 75.893c10.417 10.416 15.625 23.065 15.625 37.946c0 14.881 -5.208 27.53 -15.625 37.947c0 0 -164.062 164.062 -164.062 164.062c0 0 164.062 164.063 164.062 164.063c10.417 10.416 15.625 23.065 15.625 37.946c0 14.881 -5.208 27.53 -15.625 37.946c0 0 -75.892 75.893 -75.892 75.893c-10.417 10.417 -23.066 15.625 -37.947 15.625c-14.881 0 -27.53 -5.208 -37.946 -15.625c0 0 -164.063 -164.062 -164.063 -164.062c0 0 -164.062 164.062 -164.062 164.062c-10.417 10.417 -23.066 15.625 -37.947 15.625c-14.881 0 -27.529 -5.208 -37.946 -15.625c0 0 -75.893 -75.893 -75.893 -75.893c-10.417 -10.416 -15.625 -23.065 -15.625 -37.946c0 0 0 0 0 0" />
  </g>
</svg>