<svg height="1000" width="858" xmlns="http://www.w3.org/2000/svg"><path d="M0 500.032q0-116.622 57.474-215.109t155.961-155.961 215.109-57.474 215.109 57.474 155.961 155.961 57.474 215.109-57.474 215.109-155.961 155.961-215.109 57.474-215.109-57.474-155.961-155.961-57.474-215.109zm142.848 0q0 58.032 22.599 110.763t61.101 91.233 91.233 61.101 110.763 22.599 110.763-22.599 91.233-61.101 61.101-91.233 22.599-110.763-22.599-110.763-61.101-91.233-91.233-61.101-110.763-22.599-110.763 22.599-91.233 61.101-61.101 91.233-22.599 110.763zm86.49 107.136q0-15.066 10.044-25.11l82.026-82.026-82.026-82.026q-10.044-10.044-10.044-25.11t10.044-25.11l56.916-56.916q10.044-10.044 25.11-10.044t25.11 10.044l82.026 82.026 82.026-82.026q10.044-10.044 25.11-10.044t25.11 10.044l56.916 56.916q10.044 10.044 10.044 25.11t-10.044 25.11l-82.026 82.026 82.026 82.026q10.044 10.044 10.044 25.11t-10.044 25.11l-56.916 56.916q-10.044 10.044-25.11 10.044t-25.11-10.044l-82.026-82.026-82.026 82.026q-10.044 10.044-25.11 10.044t-25.11-10.044l-56.916-56.916q-10.044-10.044-10.044-25.11z"/></svg>