<svg height="1000px" width="750px" xmlns="http://www.w3.org/2000/svg">
  <g>
    <path d="M0 500c0 -52 9.833 -100.667 29.5 -146c19.667 -45.333 46.5 -85 80.5 -119c34 -34 73.667 -60.833 119 -80.5c45.333 -19.667 94 -29.5 146 -29.5c52 0 100.667 9.833 146 29.5c45.333 19.667 85 46.5 119 80.5c34 34 60.833 73.667 80.5 119c19.667 45.333 29.5 94 29.5 146c0 52 -9.833 100.667 -29.5 146c-19.667 45.333 -46.5 85 -80.5 119c-34 34 -73.667 60.833 -119 80.5c-45.333 19.667 -94 29.5 -146 29.5c-52 0 -100.667 -9.833 -146 -29.5c-45.333 -19.667 -85 -46.5 -119 -80.5c-34 -34 -60.833 -73.667 -80.5 -119c-19.667 -45.333 -29.5 -94 -29.5 -146c0 0 0 0 0 0m113 0c0 36 6.833 70 20.5 102c13.667 32 32.333 59.833 56 83.5c23.667 23.667 51.5 42.333 83.5 56c32 13.667 66 20.5 102 20.5c36 0 70 -6.833 102 -20.5c32 -13.667 60 -32.333 84 -56c24 -23.667 42.833 -51.5 56.5 -83.5c13.667 -32 20.5 -66 20.5 -102c0 -36 -6.833 -70 -20.5 -102c-13.667 -32 -32.5 -60 -56.5 -84c-24 -24 -52 -42.833 -84 -56.5c-32 -13.667 -66 -20.5 -102 -20.5c-36 0 -70 6.833 -102 20.5c-32 13.667 -59.833 32.5 -83.5 56.5c-23.667 24 -42.333 52 -56 84c-13.667 32 -20.5 66 -20.5 102c0 0 0 0 0 0m99 -91c0 -5.333 1.667 -10 5 -14c0 0 53 -53 53 -53c4 -3.333 8.667 -5 14 -5c5.333 0 9.667 1.667 13 5c0 0 78 78 78 78c0 0 78 -78 78 -78c4 -3.333 8.667 -5 14 -5c5.333 0 9.667 1.667 13 5c0 0 53 53 53 53c3.333 4 5 8.667 5 14c0 5.333 -1.667 9.667 -5 13c0 0 -78 78 -78 78c0 0 78 78 78 78c8 9.333 8 18.333 0 27c0 0 -53 53 -53 53c-9.333 8 -18.333 8 -27 0c0 0 -78 -78 -78 -78c0 0 -78 78 -78 78c-3.333 3.333 -7.667 5 -13 5c-5.333 0 -10 -1.667 -14 -5c0 0 -53 -53 -53 -53c-8 -8.667 -8 -17.667 0 -27c0 0 79 -78 79 -78c0 0 -79 -78 -79 -78c-3.333 -3.333 -5 -7.667 -5 -13c0 0 0 0 0 0" />
  </g>
</svg>