<svg height="1000px" width="750px" xmlns="http://www.w3.org/2000/svg">
  <g>
    <path d="M0 499.5c0 -48 9.167 -95 27.5 -141c18.333 -46 45.833 -87.333 82.5 -124c36.667 -36.667 78 -64 124 -82c46 -18 93 -27 141 -27c48 0 95 9 141 27c46 18 87.333 45.333 124 82c36.667 36.667 64.167 78 82.5 124c18.333 46 27.5 93 27.5 141c0 48 -9.167 95 -27.5 141c-18.333 46 -45.833 87.333 -82.5 124c-36.667 36.667 -78 64.167 -124 82.5c-46 18.333 -93 27.5 -141 27.5c-48 0 -95 -9.167 -141 -27.5c-46 -18.333 -87.333 -45.833 -124 -82.5c-36.667 -36.667 -64.167 -78 -82.5 -124c-18.333 -46 -27.5 -93 -27.5 -141c0 0 0 0 0 0m185 136c0 0 55 54 55 54c3.333 3.333 7 5 11 5c4 0 7.667 -1.667 11 -5c0 0 114 -114 114 -114c0 0 103 104 103 104c3.333 3.333 7 5 11 5c4 0 7.667 -1.667 11 -5c0 0 53 -53 53 -53c7.333 -7.333 7.333 -14.667 0 -22c0 0 -104 -103 -104 -103c0 0 115 -115 115 -115c7.333 -7.333 7.333 -14.667 0 -22c0 0 -55 -55 -55 -55c-7.333 -7.333 -14.667 -7.333 -22 0c0 0 -114 115 -114 115c0 0 -104 -104 -104 -104c-7.333 -7.333 -14.667 -7.333 -22 0c0 0 -52 53 -52 53c-3.333 3.333 -5 7 -5 11c0 4 1.667 7.667 5 11c0 0 103 103 103 103c0 0 -114 115 -114 115c-6.667 6.667 -6.667 14 0 22c0 0 0 0 0 0" />
  </g>
</svg>