<svg height="1000" width="857.1" xmlns="http://www.w3.org/2000/svg"><path d="M612.2 602.1l-81.5 81.5q-5.6 5.6 -12.8 5.6T505 683.6l-76.4 -76.5 -76.5 76.5q-5.6 5.6 -12.8 5.6t-12.8 -5.6L245 602.1q-5.6 -5.6 -5.6 -12.8t5.6 -12.8L321.4 500 245 423.5q-5.6 -5.5 -5.6 -12.8t5.6 -12.8l81.5 -81.5q5.5 -5.6 12.8 -5.6t12.8 5.6l76.5 76.5L505 316.4q5.6 -5.6 12.9 -5.6t12.8 5.6l81.5 81.5q5.5 5.6 5.5 12.8t-5.5 12.8L535.7 500l76.5 76.5q5.5 5.5 5.5 12.8t-5.5 12.8zM732.1 500q0 -82.6 -40.7 -152.3T580.9 237.2 428.6 196.4t-152.4 40.8T165.7 347.7 125 500t40.7 152.3 110.5 110.5 152.4 40.8 152.3 -40.8T691.4 652.3 732.1 500zm125 0q0 116.6 -57.4 215.1t-156 156 -215.1 57.5T213.4 871.1 57.5 715.1 0 500 57.5 284.9t155.9 -156T428.6 71.4t215.1 57.5 156 156T857.1 500z"/></svg>