<svg height="1000" width="857.143" xmlns="http://www.w3.org/2000/svg"><path d="M612.126 602.146l-81.468 81.468q-5.58 5.58 -12.834 5.58t-12.834 -5.58l-76.446 -76.446 -76.446 76.446q-5.58 5.58 -12.834 5.58t-12.834 -5.58l-81.468 -81.468q-5.58 -5.58 -5.58 -12.834t5.58 -12.834l76.446 -76.446 -76.446 -76.446q-5.58 -5.58 -5.58 -12.834t5.58 -12.834l81.468 -81.468q5.58 -5.58 12.834 -5.58t12.834 5.58l76.446 76.446 76.446 -76.446q5.58 -5.58 12.834 -5.58t12.834 5.58l81.468 81.468q5.58 5.58 5.58 12.834t-5.58 12.834l-76.446 76.446 76.446 76.446q5.58 5.58 5.58 12.834t-5.58 12.834zm119.97 -102.114q0 -82.584 -40.734 -152.334t-110.484 -110.484 -152.334 -40.734 -152.334 40.734 -110.484 110.484 -40.734 152.334 40.734 152.334 110.484 110.484 152.334 40.734 152.334 -40.734 110.484 -110.484 40.734 -152.334zm124.992 0q0 116.622 -57.474 215.109t-155.961 155.961 -215.109 57.474 -215.109 -57.474 -155.961 -155.961 -57.474 -215.109 57.474 -215.109 155.961 -155.961 215.109 -57.474 215.109 57.474 155.961 155.961 57.474 215.109z"/></svg>