<svg height="1000px" width="857.1428571428571px" xmlns="http://www.w3.org/2000/svg">
  <g>
    <path d="M0 499.99999999999994c0 -77.753 19.159 -149.461 57.478 -215.123c38.318 -65.662 90.308 -117.652 155.971 -155.971c65.662 -38.318 137.369 -57.477 215.122 -57.477c77.753 0 149.461 19.159 215.123 57.477c65.662 38.319 117.653 90.309 155.971 155.971c38.319 65.662 57.478 137.37 57.478 215.123c0 77.753 -19.159 149.461 -57.478 215.123c-38.318 65.662 -90.309 117.652 -155.971 155.971c-65.662 38.318 -137.37 57.477 -215.123 57.477c-77.753 0 -149.46 -19.159 -215.122 -57.477c-65.663 -38.319 -117.653 -90.309 -155.971 -155.971c-38.319 -65.662 -57.478 -137.37 -57.478 -215.123c0 0 0 0 0 0m215.96 126.116c0 10.045 3.534 18.601 10.603 25.67c0 0 50.223 50.223 50.223 50.223c7.068 7.068 15.625 10.603 25.669 10.603c9.673 0 18.044 -3.535 25.112 -10.603c0 0 101.004 -101.005 101.004 -101.005c0 0 101.005 101.005 101.005 101.005c7.068 7.068 15.439 10.603 25.111 10.603c10.045 0 18.602 -3.535 25.67 -10.603c0 0 50.223 -50.223 50.223 -50.223c7.069 -7.069 10.603 -15.625 10.603 -25.67c0 -9.673 -3.534 -18.043 -10.603 -25.112c0 0 -101.004 -101.004 -101.004 -101.004c0 0 101.004 -101.004 101.004 -101.004c7.069 -7.069 10.603 -15.439 10.603 -25.112c0 -10.045 -3.534 -18.601 -10.603 -25.67c0 0 -50.223 -50.223 -50.223 -50.223c-7.068 -7.068 -15.625 -10.603 -25.669 -10.603c-9.673 0 -18.044 3.535 -25.112 10.603c0 0 -101.005 101.005 -101.005 101.005c0 0 -101.004 -101.005 -101.004 -101.005c-7.068 -7.068 -15.439 -10.603 -25.112 -10.603c-10.044 0 -18.601 3.535 -25.669 10.603c0 0 -50.224 50.223 -50.224 50.223c-7.068 7.069 -10.602 15.625 -10.602 25.67c0 9.673 3.534 18.043 10.602 25.112c0 0 101.005 101.004 101.005 101.004c0 0 -101.005 101.004 -101.005 101.004c-7.068 7.069 -10.602 15.439 -10.602 25.112c0 0 0 0 0 0" />
  </g>
</svg>