<svg height="1000" width="857.1" xmlns="http://www.w3.org/2000/svg"><path d="M641.2 626.1q0 -14.5 -10.6 -25.1l-101 -101 101 -101q10.6 -10.6 10.6 -25.1 0 -15.1 -10.6 -25.7L580.4 298q-10.6 -10.6 -25.7 -10.6 -14.5 0 -25.1 10.6l-101 101 -101 -101Q317 287.4 302.5 287.4q-15.1 0 -25.7 10.6l-50.2 50.2Q216 358.8 216 373.9q0 14.5 10.6 25.1l101 101 -101 101Q216 611.6 216 626.1q0 15.1 10.6 25.7l50.2 50.2q10.6 10.6 25.7 10.6 14.5 0 25.1 -10.6l101 -101 101 101q10.6 10.6 25.1 10.6 15.1 0 25.7 -10.6l50.2 -50.2q10.6 -10.6 10.6 -25.7zM857.1 500q0 116.6 -57.4 215.1t-156 156 -215.1 57.5T213.4 871.1 57.5 715.1 0 500 57.5 284.9t155.9 -156T428.6 71.4t215.1 57.5 156 156T857.1 500z"/></svg>