<svg height="1000px" width="750px" xmlns="http://www.w3.org/2000/svg">
  <g>
    <path d="M0 779.541015625c0 -12.533 4.72 -23.519 14.16 -32.959c0 0 248.047 -249.023 248.047 -249.023c0 0 -248.047 -244.141 -248.047 -244.141c-9.44 -9.44 -14.16 -20.426 -14.16 -32.959c0 -12.533 4.72 -23.519 14.16 -32.959c0 0 48.828 -48.828 48.828 -48.828c9.44 -9.44 20.508 -14.16 33.203 -14.16c12.696 0 23.601 4.72 32.715 14.16c0 0 246.094 246.094 246.094 246.094c0 0 246.094 -246.094 246.094 -246.094c9.44 -9.44 20.426 -14.16 32.959 -14.16c12.532 0 23.519 4.72 32.959 14.16c0 0 48.828 48.828 48.828 48.828c9.44 9.44 14.16 20.508 14.16 33.203c0 12.695 -4.72 23.6 -14.16 32.715c0 0 -248.047 249.023 -248.047 249.023c0 0 248.047 244.141 248.047 244.141c9.44 9.44 14.16 20.264 14.16 32.471c0 12.207 -4.72 23.03 -14.16 32.47c0 0 -48.828 49.805 -48.828 49.805c-9.44 9.44 -20.508 14.16 -33.203 14.16c-12.696 0 -23.601 -4.72 -32.715 -14.16c0 0 -246.094 -246.582 -246.094 -246.582c0 0 -247.07 246.582 -247.07 246.582c-9.44 9.44 -20.264 14.16 -32.471 14.16c-12.207 0 -23.031 -4.72 -32.471 -14.16c0 0 -48.828 -48.828 -48.828 -48.828c-9.44 -9.44 -14.16 -20.426 -14.16 -32.959c0 0 0 0 0 0" />
  </g>
</svg>