<svg height="1000px" width="779.78515625px" xmlns="http://www.w3.org/2000/svg">
  <g>
    <path d="M0 500c0 -50.13 9.521 -99.202 28.564 -147.217c19.043 -48.014 47.445 -90.901 85.206 -128.662c38.085 -38.086 81.136 -66.65 129.15 -85.693c48.014 -19.043 97.005 -28.565 146.973 -28.565c49.967 0 98.958 9.522 146.972 28.565c48.015 19.043 91.065 47.607 129.151 85.693c38.086 38.086 66.569 81.055 85.449 128.906c18.88 47.852 28.32 96.843 28.32 146.973c0 50.13 -9.44 99.121 -28.32 146.973c-18.88 47.851 -47.363 90.82 -85.449 128.906c-38.086 38.086 -81.136 66.65 -129.151 85.693c-48.014 19.043 -97.005 28.565 -146.972 28.565c-49.968 0 -98.959 -9.522 -146.973 -28.565c-48.014 -19.043 -91.065 -47.607 -129.15 -85.693c-38.086 -38.086 -66.569 -81.055 -85.45 -128.906c-18.88 -47.852 -28.32 -96.843 -28.32 -146.973c0 0 0 0 0 0m187.988 129.395c0 4.231 1.628 8.138 4.883 11.718c0 0 56.152 56.641 56.152 56.641c3.256 3.255 7.081 4.964 11.475 5.127c4.395 0.163 8.219 -1.546 11.475 -5.127c0 0 119.14 -118.652 119.14 -118.652c0 0 106.934 107.91 106.934 107.91c3.255 3.255 7.08 4.883 11.474 4.883c4.395 0 8.22 -1.628 11.475 -4.883c0 0 55.176 -55.176 55.176 -55.176c7.487 -7.487 7.487 -15.137 0 -22.949c0 0 -108.399 -106.934 -108.399 -106.934c0 0 120.118 -120.117 120.118 -120.117c7.487 -7.487 7.487 -15.137 0 -22.949c0 0 -57.129 -56.153 -57.129 -56.153c-8.138 -8.138 -15.788 -8.138 -22.95 0c0 0 -118.652 119.141 -118.652 119.141c0 0 -108.398 -107.91 -108.398 -107.91c-3.255 -3.255 -6.999 -4.883 -11.231 -4.883c-4.232 0 -8.138 1.628 -11.719 4.883c0 0 -53.71 55.176 -53.71 55.176c-8.138 7.487 -8.138 15.136 0 22.949c0 0 106.933 106.933 106.933 106.933c0 0 -118.164 119.141 -118.164 119.141c-3.255 3.255 -4.883 6.999 -4.883 11.231c0 0 0 0 0 0" />
  </g>
</svg>