<svg height="1000px" width="857.1428571428571px" xmlns="http://www.w3.org/2000/svg">
  <g>
    <path d="M0 499.99999999999994c0 -77.753 19.159 -149.461 57.478 -215.123c38.318 -65.662 90.308 -117.652 155.971 -155.971c65.662 -38.318 137.369 -57.477 215.122 -57.477c77.753 0 149.461 19.159 215.123 57.477c65.662 38.319 117.653 90.309 155.971 155.971c38.319 65.662 57.478 137.37 57.478 215.123c0 77.753 -19.159 149.461 -57.478 215.123c-38.318 65.662 -90.309 117.652 -155.971 155.971c-65.662 38.318 -137.37 57.477 -215.123 57.477c-77.753 0 -149.46 -19.159 -215.122 -57.477c-65.663 -38.319 -117.653 -90.309 -155.971 -155.971c-38.319 -65.662 -57.478 -137.37 -57.478 -215.123c0 0 0 0 0 0m142.857 0c0 38.69 7.534 75.614 22.601 110.77c15.067 35.156 35.435 65.569 61.105 91.239c25.669 25.67 56.082 46.038 91.238 61.105c35.157 15.067 72.08 22.6 110.77 22.6c38.691 0 75.614 -7.533 110.771 -22.6c35.156 -15.067 65.569 -35.435 91.238 -61.105c25.67 -25.67 46.038 -56.083 61.105 -91.239c15.067 -35.156 22.601 -72.08 22.601 -110.77c0 -38.69 -7.534 -75.614 -22.601 -110.77c-15.067 -35.156 -35.435 -65.569 -61.105 -91.239c-25.669 -25.67 -56.082 -46.038 -91.238 -61.105c-35.157 -15.067 -72.08 -22.6 -110.771 -22.6c-38.69 0 -75.613 7.533 -110.77 22.6c-35.156 15.067 -65.569 35.435 -91.238 61.105c-25.67 25.67 -46.038 56.083 -61.105 91.239c-15.067 35.156 -22.601 72.08 -22.601 110.77c0 0 0 0 0 0m86.496 107.143c0 -10.045 3.348 -18.415 10.044 -25.112c0 0 82.032 -82.031 82.032 -82.031c0 0 -82.032 -82.031 -82.032 -82.031c-6.696 -6.697 -10.044 -15.067 -10.044 -25.112c0 -10.045 3.348 -18.415 10.044 -25.111c0 0 56.92 -56.92 56.92 -56.92c6.696 -6.697 15.067 -10.045 25.112 -10.045c10.044 0 18.415 3.348 25.111 10.045c0 0 82.031 82.031 82.031 82.031c0 0 82.032 -82.031 82.032 -82.031c6.696 -6.697 15.067 -10.045 25.111 -10.045c10.045 0 18.415 3.348 25.112 10.045c0 0 56.92 56.92 56.92 56.92c6.696 6.696 10.044 15.066 10.044 25.111c0 10.045 -3.348 18.415 -10.044 25.112c0 0 -82.032 82.031 -82.032 82.031c0 0 82.032 82.031 82.032 82.031c6.696 6.697 10.044 15.067 10.044 25.112c0 10.044 -3.348 18.415 -10.044 25.111c0 0 -56.92 56.92 -56.92 56.92c-6.697 6.697 -15.067 10.045 -25.112 10.045c-10.044 0 -18.415 -3.348 -25.111 -10.045c0 0 -82.032 -82.031 -82.032 -82.031c0 0 -82.031 82.031 -82.031 82.031c-6.696 6.697 -15.067 10.045 -25.111 10.045c-10.045 0 -18.416 -3.348 -25.112 -10.045c0 0 -56.92 -56.92 -56.92 -56.92c-6.696 -6.696 -10.044 -15.067 -10.044 -25.111c0 0 0 0 0 0" />
  </g>
</svg>