<svg height="1000" width="857.1" xmlns="http://www.w3.org/2000/svg"><path d="M0 500q0-116.6 57.5-215.1t156-156 215.1-57.5 215.1 57.5 156 156 57.5 215.1-57.5 215.1-156 156-215.1 57.5-215.1-57.5-156-156-57.5-215.1zm215.9 126.1q0 15.1 10.6 25.7l50.2 50.2q10.6 10.6 25.7 10.6 14.5 0 25.1-10.6l101-101 101 101q10.6 10.6 25.1 10.6 15.1 0 25.7-10.6l50.2-50.2q10.6-10.6 10.6-25.7 0-14.5-10.6-25.1l-101-101 101-101q10.6-10.6 10.6-25.1 0-15.1-10.6-25.7l-50.2-50.2q-10.6-10.6-25.7-10.6-14.5 0-25.1 10.6l-101 101-101-101q-10.6-10.6-25.1-10.6-15.1 0-25.7 10.6l-50.2 50.2q-10.6 10.6-10.6 25.7 0 14.5 10.6 25.1l101 101-101 101q-10.6 10.6-10.6 25.1z"/></svg>