<svg height="1000" width="857.143" xmlns="http://www.w3.org/2000/svg"><path d="M641.142 626.14q0 -14.508 -10.602 -25.11l-100.998 -100.998 100.998 -100.998q10.602 -10.602 10.602 -25.11 0 -15.066 -10.602 -25.668l-50.22 -50.22q-10.602 -10.602 -25.668 -10.602 -14.508 0 -25.11 10.602l-100.998 100.998 -100.998 -100.998q-10.602 -10.602 -25.11 -10.602 -15.066 0 -25.668 10.602l-50.22 50.22q-10.602 10.602 -10.602 25.668 0 14.508 10.602 25.11l100.998 100.998 -100.998 100.998q-10.602 10.602 -10.602 25.11 0 15.066 10.602 25.668l50.22 50.22q10.602 10.602 25.668 10.602 14.508 0 25.11 -10.602l100.998 -100.998 100.998 100.998q10.602 10.602 25.11 10.602 15.066 0 25.668 -10.602l50.22 -50.22q10.602 -10.602 10.602 -25.668zm215.946 -126.108q0 116.622 -57.474 215.109t-155.961 155.961 -215.109 57.474 -215.109 -57.474 -155.961 -155.961 -57.474 -215.109 57.474 -215.109 155.961 -155.961 215.109 -57.474 215.109 57.474 155.961 155.961 57.474 215.109z"/></svg>