<svg height="1000" width="928.571" xmlns="http://www.w3.org/2000/svg"><path d="M678.528 392.896q0 -14.508 -10.602 -25.11t-25.11 -10.602h-71.424v-71.424q0 -14.508 -10.602 -25.11t-25.11 -10.602 -25.11 10.602 -10.602 25.11v71.424h-71.424q-14.508 0 -25.11 10.602t-10.602 25.11 10.602 25.11 25.11 10.602h71.424v71.424q0 14.508 10.602 25.11t25.11 10.602 25.11 -10.602 10.602 -25.11v-71.424h71.424q14.508 0 25.11 -10.602t10.602 -25.11zm-321.408 464.256q0 29.574 -20.925 50.499t-50.499 20.925 -50.499 -20.925 -20.925 -50.499 20.925 -50.499 50.499 -20.925 50.499 20.925 20.925 50.499zm499.968 0q0 29.574 -20.925 50.499t-50.499 20.925 -50.499 -20.925 -20.925 -50.499 20.925 -50.499 50.499 -20.925 50.499 20.925 20.925 50.499zm71.424 -607.104v285.696q0 13.392 -8.928 23.715t-22.878 11.997l-582.552 68.076q.558 3.906 2.511 11.997t3.348 14.787 1.395 12.276q0 8.928 -13.392 35.712h513.36q14.508 0 25.11 10.602t10.602 25.11 -10.602 25.11 -25.11 10.602h-571.392q-14.508 0 -25.11 -10.602t-10.602 -25.11q0 -7.812 6.138 -22.041t16.461 -33.201 11.439 -21.204l-98.766 -459.234h-113.832q-14.508 0 -25.11 -10.602t-10.602 -25.11 10.602 -25.11 25.11 -10.602h142.848q8.928 0 15.903 3.627t11.16 8.649 7.254 13.671 4.185 14.787 3.069 16.461 2.511 14.229h670.158q14.508 0 25.11 10.602t10.602 25.11z"/></svg>