<svg height="1000" width="928.6" xmlns="http://www.w3.org/2000/svg"><path d="M714.3 392.9q0 -14.6 -10.6 -25.2t-25.1 -10.6 -25.1 10.6l-82.1 81.5V285.7q0 -14.5 -10.6 -25.1T535.7 250t-25.1 10.6T500 285.7v163.5l-82 -81.5q-10.6 -10.6 -25.1 -10.6t-25.2 10.6 -10.6 25.2 10.6 25.1l142.9 142.8q10.6 10.6 25.1 10.6t25.1 -10.6L703.7 418q10.6 -10.6 10.6 -25.1zM357.1 857.1q0 29.6 -20.9 50.5t-50.5 21 -50.5 -21 -20.9 -50.5 20.9 -50.5 50.5 -20.9 50.5 20.9 20.9 50.5zm500 0q0 29.6 -20.9 50.5t-50.5 21 -50.5 -21 -20.9 -50.5 20.9 -50.5 50.5 -20.9 50.5 20.9 20.9 50.5zM928.6 250v285.7q0 13.4 -9 23.7t-22.8 12l-582.6 68.1q.5 3.9 2.5 12t3.3 14.8 1.4 12.3q0 8.9 -13.4 35.7h513.4q14.5 0 25.1 10.6t10.6 25.1 -10.6 25.1 -25.1 10.6H250q-14.5 0 -25.1 -10.6T214.3 750q0 -7.8 6.1 -22t16.5 -33.2 11.4 -21.3L149.6 214.3H35.7q-14.5 0 -25.1 -10.6T0 178.6t10.6 -25.1 25.1 -10.6h142.9q8.9 0 15.9 3.6t11.1 8.6 7.3 13.7 4.2 14.8 3 16.5 2.6 14.2h670.2q14.5 0 25.1 10.6t10.6 25.1z"/></svg>