<svg height="1000" width="1285.7" xmlns="http://www.w3.org/2000/svg"><path d="M66.4 380.6h49.7L91 320.3zm346.5 293.5L454.2 630l-39 -44.1h-91v27.4h79.3V644h-79.3v30.1h88.7zm88.2 -43.5l55.3 61.4V570.9zm160.7 -26.2q0 -18.5 -22.3 -18.5h-46.9v38.5H639q22.8 0 22.8 -20zm161.3 -2.3q0 -16.2 -23.4 -16.2h-45.8V620h45.2q24 0 24 -17.9zM668 342.1q0 -16.2 -23.5 -16.2h-45.7v33.5H644q24 0 24 -17.3zm256.1 38.5h49.7l-24.6 -60.3zm-534 -86.5v151.2h-36.9V327l-52.4 118.3H269L216.5 327v118.3h-73.6l-14 -33.5H53.6l-14 33.5H.6L65.3 294.1h53.6l61.3 143.4V294.1h59.2l47.4 102.7 43 -102.7h60.3zm310.2 310.3q0 11.1 -3 19.5t-7.8 13.9 -12.6 9.2 -14.5 5.6 -17.6 2.5 -17.6 .6 -18.1 -.3 -16.5 -.3v50.8h-70.3l-44.6 -50.2 -46.3 50.2H288.5V554.7h145.1l44.6 49.7L524 554.7h115.5q60.8 0 60.8 49.7zM537.9 414.1v31.2h-121V294.1h121v31.8h-84.8v27.3h82.6v30.7h-82.6v30.2h84.8zM1285.7 726v127.8q0 30.7 -21.5 52.7t-52.1 22.1H73.7q-30.7 0 -52.2 -22.1T0 853.8V475.4h61.9l14 -34h30.7l13.9 34h121.7v-25.6l10.6 25.6h63L327 449.2v26.2h301.9v-55.2l5.6 -.6q5.6 0 5.6 7.9v47.9h155.7v-12.8q12.8 6.7 30.7 10.1t29.2 3.6 35.2 -.3 28.7 -.6l14 -34h31.2l14 34h126.7v-32.3l18.9 32.3H1226V264.5h-100.4v24.6l-14 -24.6h-103.2v24.6l-12.9 -24.6H856.6q-38.5 0 -60.8 12.3v-12.3h-96v12.3Q686.4 264.5 659 264.5H308.6l-24 54.1 -24 -54.1H150.1v24.6l-12.3 -24.6H43.5L0 364.4V146.2Q0 115.5 21.5 93.5T73.7 71.4h1138.4q30.6 0 52.1 22.1t21.5 52.7v378.4h-67q-28.4 0 -45.2 12.2v-12.2h-98.7q-30.7 0 -43.6 12.2v-12.2H854.9v12.2q-17.3 -12.2 -48.5 -12.2H689.7v12.2Q676.9 524.6 639 524.6H508.4l-30.2 32.3 -27.9 -32.3H255.6v210.9H447l30.7 -32.9 29 32.9h117.7v-49.7h11.8q32.9 0 50.2 -7.2v56.9h97.1v-55.3h4.4q4.5 0 5.6 1.2t1.1 5.5v48.6h295.2q31.9 0 49.2 -13.4v13.4h93.7q33.5 0 53 -9.5zm-423 -130.6q0 12.9 -6.7 24t-18.9 16.2q13.9 5 18.9 14.5t5 25.7v30.1h-36.2v-25.1q0 -18.4 -6.7 -24.3t-25.7 -5.8h-38.5v55.2h-36.3V554.7h86q26.8 0 42.9 8.4t16.2 32.3zM708.1 334.8q0 13.4 -6.9 24.6t-18.7 16.2q14.5 5 19.2 14.2t4.8 25.9v29.6h-36.3q0 -5 .3 -14.8t0 -13.9 -1.7 -10.3 -4.7 -9 -9.8 -4.7 -16.5 -2h-39v54.7h-35.7V294.1l85.3 .5q27.4 0 43.6 8.1t16.1 32.1zm295.2 339.9v31.2H882.8V554.7h120.5v31.2h-84.2v27.4h82.6V644h-82.6v30.1zM765.6 294.1v151.2h-36.8V294.1h36.8zm386.7 363.8q0 48 -56.9 48h-70.3v-32.4h70.3q19 0 19 -13.9 0 -8.9 -9.5 -11.7t-23.1 -2.8 -27.7 -2 -23.4 -12.5 -9.5 -30.7q0 -21.8 14.5 -33.5t36.8 -11.7h72.6v31.8h-66.4q-20.1 0 -20.1 13.9 0 9 9.8 11.5t23.4 2.2 27.3 1.4 23.5 12 9.7 30.4zM1285.7 630v56.4q-13.4 19.5 -49.1 19.5h-69.7v-32.4h69.7q18.4 0 18.4 -13.9 0 -7.3 -7 -10.6t-17.3 -3.1 -22.3 -1.1 -22.3 -4.5T1168.8 627t-7 -27.1q0 -21.8 14.8 -33.5t37.1 -11.7h72v31.8h-65.8q-20.1 0 -20.1 13.9 0 11.2 16.2 12.3t38.2 2.8 31.5 14.5zm-92.1 -335.4v150.7h-51.3L1074.2 332v113.3h-73.6L986 411.8h-74.7l-14 33.5h-41.8q-72 0 -72 -74.2 0 -77 74.2 -77h35.2V327q-3.9 0 -15.7 -.5t-15.9 -.3 -12.8 1.1 -12 3.6 -8.1 7.5 -6.4 12.9 -1.7 18.7q0 21.2 7.5 32.3t27.7 11.2h16.2L923 294.6h54.1l60.8 142.9V294.6h55.3l63.6 105v-105h36.8z"/></svg>