<svg height="1000" width="1285.714" xmlns="http://www.w3.org/2000/svg"><path d="M66.402 380.62h49.662l-25.11 -60.264zm346.518 293.508l41.292 -44.082 -39.06 -44.082h-90.954v27.342h79.236v30.69h-79.236v30.132h88.722zm88.164 -43.524l55.242 61.38v-121.086zm160.704 -26.226q0 -18.414 -22.32 -18.414h-46.872v38.502h46.314q22.878 0 22.878 -20.088zm161.262 -2.232q0 -16.182 -23.436 -16.182h-45.756v34.038h45.198q23.994 0 23.994 -17.856zm-155.124 -260.028q0 -16.182 -23.436 -16.182h-45.756v33.48h45.198q23.994 0 23.994 -17.298zm256.122 38.502h49.662l-24.552 -60.264zm-534.006 -86.49v151.218h-36.828v-118.296l-52.452 118.296h-31.806l-52.452 -118.296v118.296h-73.656l-13.95 -33.48h-75.33l-13.95 33.48h-39.06l64.728 -151.218h53.568l61.38 143.406v-143.406h59.148l47.43 102.672 42.966 -102.672h60.264zm310.248 310.248q0 11.16 -3.069 19.53t-7.812 13.95 -12.555 9.207 -14.508 5.58 -17.577 2.511 -17.577 .558 -18.135 -.279 -16.461 -.279v50.778h-70.308l-44.64 -50.22 -46.314 50.22h-142.848v-151.218h145.08l44.64 49.662 45.756 -49.662h115.506q60.822 0 60.822 49.662zm-162.378 -190.278v31.248h-121.086v-151.218h121.086v31.806h-84.816v27.342h82.584v30.69h-82.584v30.132h84.816zm747.72 311.922v127.782q0 30.69 -21.483 52.731t-52.173 22.041h-1138.32q-30.69 0 -52.173 -22.041t-21.483 -52.731v-378.324h61.938l13.95 -34.038h30.69l13.95 34.038h121.644v-25.668l10.602 25.668h63.054l11.16 -26.226v26.226h301.878v-55.242l5.58 -.558q5.58 0 5.58 7.812v47.988h155.682v-12.834q12.834 6.696 30.69 10.044t29.295 3.627 35.154 -.279 28.737 -.558l13.95 -34.038h31.248l13.95 34.038h126.666v-32.364l18.972 32.364h101.556v-210.924h-100.44v24.552l-13.95 -24.552h-103.23v24.552l-12.834 -24.552h-138.942q-38.502 0 -60.822 12.276v-12.276h-95.976v12.276q-13.392 -12.276 -40.734 -12.276h-350.424l-23.994 54.126 -23.994 -54.126h-110.484v24.552l-12.276 -24.552h-94.302l-43.524 99.882v-218.178q0 -30.69 21.483 -52.731t52.173 -22.041h1138.32q30.69 0 52.173 22.041t21.483 52.731v378.324h-66.96q-28.458 0 -45.198 12.276v-12.276h-98.766q-30.69 0 -43.524 12.276v-12.276h-176.328v12.276q-17.298 -12.276 -48.546 -12.276h-116.622v12.276q-12.834 -12.276 -50.778 -12.276h-130.572l-30.132 32.364 -27.9 -32.364h-194.742v210.924h191.394l30.69 -32.922 29.016 32.922h117.738v-49.662h11.718q32.922 0 50.22 -7.254v56.916h97.092v-55.242h4.464q4.464 0 5.58 1.116t1.116 5.58v48.546h295.182q31.806 0 49.104 -13.392v13.392h93.744q33.48 0 53.01 -9.486zm-422.964 -130.572q0 12.834 -6.696 23.994t-18.972 16.182q13.95 5.022 18.972 14.508t5.022 25.668v30.132h-36.27v-25.11q0 -18.414 -6.696 -24.273t-25.668 -5.859h-38.502v55.242h-36.27v-151.218h85.932q26.784 0 42.966 8.37t16.182 32.364zm-154.566 -260.586q0 13.392 -6.975 24.552t-18.693 16.182q14.508 5.022 19.251 14.229t4.743 25.947v29.574h-36.27q0 -5.022 .279 -14.787t0 -13.95 -1.674 -10.323 -4.743 -8.928 -9.765 -4.743 -16.461 -1.953h-39.06v54.684h-35.712v-151.218l85.374 .558q27.342 0 43.524 8.091t16.182 32.085zm295.182 339.822v31.248h-120.528v-151.218h120.528v31.248h-84.258v27.342h82.584v30.69h-82.584v30.132zm-237.708 -380.556v151.218h-36.828v-151.218h36.828zm386.694 363.816q0 47.988 -56.916 47.988h-70.308v-32.364h70.308q18.972 0 18.972 -13.95 0 -8.928 -9.486 -11.718t-23.157 -2.79 -27.621 -1.953 -23.436 -12.555 -9.486 -30.69q0 -21.762 14.508 -33.48t36.828 -11.718h72.54v31.806h-66.402q-20.088 0 -20.088 13.95 0 8.928 9.765 11.439t23.436 2.232 27.342 1.395 23.436 11.997 9.765 30.411zm133.362 -27.9v56.358q-13.392 19.53 -49.104 19.53h-69.75v-32.364h69.75q18.414 0 18.414 -13.95 0 -7.254 -6.975 -10.602t-17.298 -3.069 -22.32 -1.116 -22.32 -4.464 -17.298 -13.392 -6.975 -27.063q0 -21.762 14.787 -33.48t37.107 -11.718h71.982v31.806h-65.844q-20.088 0 -20.088 13.95 0 11.16 16.182 12.276t38.223 2.79 31.527 14.508zm-92.07 -335.358v150.66h-51.336l-68.076 -113.274v113.274h-73.656l-14.508 -33.48h-74.772l-13.95 33.48h-41.85q-71.982 0 -71.982 -74.214 0 -77.004 74.214 -77.004h35.154v32.922q-3.906 0 -15.624 -.558t-15.903 -.279 -12.834 1.116 -11.997 3.627 -8.091 7.533 -6.417 12.834 -1.674 18.693q0 21.204 7.533 32.364t27.621 11.16h16.182l51.336 -118.854h54.126l60.822 142.848v-142.848h55.242l63.612 104.904v-104.904h36.828z"/></svg>