<svg height="1000" width="1285.714" xmlns="http://www.w3.org/2000/svg"><path d="M174.654 433.63q0 28.458 -20.088 46.872 -16.182 14.508 -49.662 14.508h-9.486v-122.76h9.486q34.038 0 49.662 15.066 20.088 17.298 20.088 46.314zm991.008 -36.27q0 29.016 -35.712 29.016h-10.602v-56.358h11.16q35.154 0 35.154 27.342zm-953.622 36.27q0 -41.292 -27.9 -67.239t-71.982 -25.947h-53.01v185.814h53.01q41.292 0 66.402 -21.204 33.48 -28.458 33.48 -71.424zm16.74 92.628h36.27v-185.814h-36.27v185.814zm178.56 -56.358q0 -22.32 -11.439 -34.596t-42.129 -23.436q-16.182 -5.58 -22.041 -10.602t-5.859 -12.834q0 -8.928 7.533 -14.787t19.251 -5.859q16.182 0 29.574 15.066l18.972 -24.552q-22.878 -20.646 -54.684 -20.646 -24.552 0 -41.292 15.345t-16.74 37.665q0 19.53 10.044 30.969t35.712 20.367q20.646 7.254 25.11 10.602 10.602 6.696 10.602 18.972 0 11.16 -7.812 18.693t-20.088 7.533q-26.784 0 -39.618 -24.552l-23.436 22.32q24.552 35.712 64.17 35.712 28.458 0 46.314 -17.019t17.856 -44.361zm155.124 50.22v-42.966q-20.646 20.646 -43.524 20.646 -27.342 0 -44.919 -18.135t-17.577 -46.035q0 -26.784 17.577 -45.477t43.245 -18.693q23.994 0 45.198 21.204v-42.966q-22.32 -11.16 -44.64 -11.16 -41.292 0 -70.029 28.179t-28.737 68.913 28.458 68.913 69.75 28.179q23.436 0 45.198 -10.602zm687.456 337.032v-294.066q-36.27 22.32 -80.631 46.872t-132.525 65.286 -183.861 76.725 -232.965 75.051 -281.232 65.844h875.502q14.508 0 25.11 -10.602t10.602 -25.11zm-474.858 -422.406q0 -41.85 -29.574 -71.424t-71.424 -29.574 -71.424 29.574 -29.574 71.424 29.574 71.424 71.424 29.574 71.424 -29.574 29.574 -71.424zm84.816 96.534l80.352 -190.836h-39.618l-50.22 124.992 -49.662 -124.992h-39.618l79.236 190.836h19.53zm96.534 -5.022h102.672v-31.248h-66.402v-50.22h64.17v-31.248h-64.17v-41.292h66.402v-31.806h-102.672v185.814zm218.178 0h44.64l-58.59 -78.12q42.408 -8.928 42.408 -52.452 0 -26.226 -17.298 -40.734t-48.546 -14.508h-54.126v185.814h36.27v-74.214h5.022zm111.042 -379.998v707.544q0 31.248 -21.483 53.01t-52.173 21.762h-1138.32q-30.69 0 -52.173 -21.762t-21.483 -53.01v-707.544q0 -31.248 21.483 -53.01t52.173 -21.762h1138.32q30.69 0 52.173 21.762t21.483 53.01z"/></svg>