<svg height="1000" width="1285.7" xmlns="http://www.w3.org/2000/svg"><path d="M478.8 692.5V305.8q-59.2 22.9 -96 75.6t-36.8 118 36.8 118.1 96 75zM760 499.4q0 -65.2 -36.8 -118t-96 -75.6v387.3q59.2 -22.9 96 -75.6T760 499.4zm120 0q0 88.8 -43.8 164.1T717.1 782.6 553 826.5q-66.4 0 -126.9 -26T321.7 730.7 252 626.4t-26 -127q0 -88.7 43.8 -164T389 216.2t164 -43.8 164.1 43.8 119.1 119.2 43.8 164zm213.8 3.9q0 -77.5 -31 -145.9T980.5 242.7 861.3 169.6 720.4 142.9H552.5q-98.3 0 -180.6 45.2T240.8 316.4 192 503.3q0 95.5 48.5 177.2t131.7 129.2 180.3 47.4h167.9q72 0 140.4 -28.1t119.7 -75.4 82.3 -113 31 -137.3zm191.9 -360.4v714.2q0 29.1 -21.2 50.3t-50.2 21.2H71.4q-29 0 -50.2 -21.2T0 857.1V142.9Q0 113.8 21.2 92.6T71.4 71.4h1142.9q29 0 50.2 21.2t21.2 50.3z"/></svg>