<svg height="1000" width="1285.7" xmlns="http://www.w3.org/2000/svg"><path d="M174.7 433.6q0 28.5 -20.1 46.9Q138.4 495 104.9 495h-9.5V372.2h9.5q34.1 0 49.7 15.1 20.1 17.3 20.1 46.3zm991 -36.3q0 29 -35.7 29h-10.6V370h11.2q35.1 0 35.1 27.3zm-953.6 36.3q0 -41.3 -27.9 -67.2t-72 -26h-53v185.8h53q41.3 0 66.4 -21.2 33.5 -28.4 33.5 -71.4zm16.7 92.6h36.3V340.4h-36.3v185.8zm178.6 -56.3q0 -22.4 -11.5 -34.6t-42.1 -23.5q-16.2 -5.5 -22 -10.6t-5.9 -12.8q0 -8.9 7.5 -14.8t19.3 -5.9q16.2 0 29.6 15.1l18.9 -24.5q-22.9 -20.7 -54.7 -20.7 -24.5 0 -41.3 15.4t-16.7 37.6q0 19.6 10 31t35.8 20.4q20.6 7.2 25.1 10.6 10.6 6.7 10.6 18.9 0 11.2 -7.8 18.7t-20.1 7.6q-26.8 0 -39.6 -24.6L279 495.5q24.6 35.8 64.2 35.8 28.5 0 46.3 -17.1t17.9 -44.3zm155.1 50.2v-43q-20.6 20.7 -43.5 20.7 -27.4 0 -44.9 -18.2t-17.6 -46q0 -26.8 17.6 -45.5t43.2 -18.7q24 0 45.2 21.2v-42.9q-22.3 -11.2 -44.6 -11.2 -41.3 0 -70.1 28.2t-28.7 68.9 28.4 68.9 69.8 28.2q23.4 0 45.2 -10.6zm687.5 337v-294q-36.3 22.3 -80.6 46.8t-132.6 65.3T853 752t-233 75 -281.3 65.9h875.6q14.5 0 25.1 -10.6t10.6 -25.2zM775.1 434.7q0 -41.8 -29.6 -71.4t-71.4 -29.6 -71.4 29.6 -29.6 71.4 29.6 71.4 71.4 29.6 71.4 -29.6 29.6 -71.4zm84.8 96.6l80.4 -190.9h-39.6l-50.3 125 -49.6 -125h-39.6l79.2 190.9h19.5zm96.6 -5.1h102.7V495h-66.5v-50.2h64.2v-31.3h-64.2v-41.3h66.5v-31.8H956.5v185.8zm218.2 0h44.6l-58.6 -78.1q42.4 -8.9 42.4 -52.5 0 -26.2 -17.3 -40.7t-48.5 -14.5h-54.2v185.8h36.3V452h5zm111 -380v707.6q0 31.2 -21.5 53t-52.1 21.8H73.7q-30.7 0 -52.2 -21.8T0 853.8V146.2Q0 115 21.5 93.2T73.7 71.4h1138.4q30.6 0 52.1 21.8t21.5 53z"/></svg>