<svg height="1000" width="1285.7" xmlns="http://www.w3.org/2000/svg"><path d="M1088.7 556.9q0 14.5 -8.6 24.9t-21.5 13.1q-4.5 1.1 -10.1 1.1h-85.3v-78.1h85.3q5.6 0 10.1 1.1 12.8 2.8 21.5 13.1t8.6 24.8zm-10 -118.8q0 13.9 -8.4 23.4t-21.2 11.7q-1.7 .6 -8.4 .6h-77.5v-72h77.5q1.7 0 4.8 .3t3.6 .2q12.8 2.3 21.2 12t8.4 23.8zm-672.4 91.5V357.7H279v171.9q0 32.3 -21.2 52.7t-58.6 20.4q-60.2 0 -127.8 -32.9v62.5q29.6 8.3 67.6 12.8t60.8 5l23.4 .6q183 0 183 -121.1zm398.4 102.7v-63.1q-55.3 29 -111.6 32.9 -60.3 4.5 -94.3 -22.9T564.7 500t34.1 -79.2 94.3 -22.9q56.3 3.9 111.6 32.3v-62.5Q777.9 361 748.9 356.9t-44.7 -5.3l-15.6 -1.2q-70.9 -3.3 -121.9 7.9t-78.4 33.4 -39.6 49.1T436.4 500t12.3 59.2 39.6 49.1 78.4 33.4 121.9 7.9q56.4 -2.3 116.1 -17.3zm409.6 -64.2q0 -30.2 -24 -49.4t-60.8 -22V495q31.8 -4.5 49.6 -23.2t17.9 -44.3q0 -30.7 -22.9 -49.2t-59.7 -20q-1.7 0 -6.7 -.3t-7.8 -.3H846v284.6h274q41.3 0 67.8 -20.4t26.5 -53.8zm71.4 -425.2v714.2q0 29.1 -21.2 50.3t-50.2 21.2H71.4q-29 0 -50.2 -21.2T0 857.1V142.9Q0 113.8 21.2 92.6T71.4 71.4h1142.9q29 0 50.2 21.2t21.2 50.3z"/></svg>