<svg height="1000" width="1285.7" xmlns="http://www.w3.org/2000/svg"><path d="M624.4 190.3Q553 142.9 467.6 142.9q-57.4 0 -110.2 22.6T266.7 226t-60.5 90.4 -22.6 109.9q0 58.1 22.6 110.5t60.5 90.4 90.4 60.6 110.5 22.6q85.4 0 156.8 -47.5Q551.3 603.2 525.1 514.8t.3 -176.6 99 -147.9zm18.5 13.4q-70.4 55.2 -96 139.2t-.3 167.7 96.3 139q70.8 -55.3 96.2 -139t-.3 -167.7T642.9 203.7zm18.4 -13.4q72.5 59.7 99 148.1t.3 176.9 -99.3 147.6q71.4 47.5 156.8 47.5 58 0 110.5 -22.6t90.4 -60.6 60.5 -90.4 22.6 -110.5q0 -57.4 -22.6 -109.9T1019 226t-90.7 -60.5T818.1 142.9q-85.4 0 -156.8 47.4zm413.5 402.9h3.9v-1.7h-9.5v1.7h3.9v9.5h1.7v-9.5zm16.2 9.5h2.2v-11.2h-2.8l-3.3 7.3 -3.4 -7.3h-2.8v11.2h1.7v-8.4l3.3 7.3h2.3l2.8 -7.3v8.4zm-4.5 245.5v1.1h-2.8v-1.6h2.8v.5zm0 5h1.7l-2.3 -2.8h1.2l.5 -.5q.6 -.6 .6 -1.7t-.6 -1.7l-.5 -.5h-5.1v7.2h1.7v-2.8h.6zM382.3 815.3q0 -10.6 6.1 -17.3t16.7 -6.7q10.1 0 16.2 7t6.2 17q0 10.6 -6.2 17.3t-16.2 6.7q-10.6 0 -16.7 -6.7t-6.1 -17.3zm263.9 -24.6q16.7 0 19.5 17.9h-39q2.8 -17.9 19.5 -17.9zm198.7 24.6q0 -10.6 6.1 -17.3t16.2 -6.7 16.4 7 6.5 17q0 10.6 -6.2 17.3t-16.7 6.7q-10.1 0 -16.2 -6.7t-6.1 -17.3zm151.8 0q0 -10.1 6.4 -17t16.4 -7 16.5 7 6.4 17q0 10.6 -6.4 17.3t-16.5 6.7 -16.4 -7 -6.4 -17zm88.1 40.2q-1.1 0 -2.2 -.6 -.6 0 -1.7 -1.1t-1.1 -1.7q-.6 -1.1 -.6 -2.2 0 -1.7 .6 -2.2 0 -1.2 1.1 -2.3l.6 -.5q1.1 0 1.1 -.6 1.1 -.5 2.2 -.5 1.7 0 2.3 .5l2.2 1.1 1.1 2.3v.5q.6 1.1 .6 1.7l-.6 .5v1.7t-.6 .6l-.5 1.1q-1.1 1.1 -2.2 1.1 -.6 .6 -2.3 .6zm-750.5 -2.3H351v-47.4q0 -13.4 -8.1 -21.5t-22 -8.6q-17.9 0 -26.3 13.4 -7.8 -13.4 -25.1 -13.4 -13.4 0 -21.7 11.1v-8.9H231v75.3h16.8v-41.8q0 -20.1 18.4 -20.1 16.7 0 16.7 20.1v41.8h16.2v-41.8q0 -20.1 18.4 -20.1 16.8 0 16.8 20.1v41.8zm92.6 0h16.2v-75.3h-16.2v8.9q-9.5 -11.1 -24 -11.1 -16.2 0 -26.8 11.1t-10.6 28.5 10.6 28.5 26.8 11.1q15.6 0 24 -11.1v9.4zm99.3 -22.8q0 -19 -26.2 -22.4l-7.8 -1.1q-12.8 -2.2 -12.8 -7.8 0 -8.4 13.9 -8.4 12.8 0 24 6.2l6.7 -13.4q-12.3 -7.8 -30.7 -7.8 -14.5 0 -22.9 6.7t-8.3 17.8q0 18.4 26.2 21.8l7.2 1.1q13.4 2.2 13.4 7.8 0 9.5 -17.3 9.5 -13.9 0 -25.1 -7.8l-7.2 12.8q13.9 9.5 32.3 9.5 16.2 0 25.4 -6.7t9.2 -17.8zm72.6 18.9l-4.5 -13.9q-7.2 3.9 -14.5 3.9 -10.6 0 -10.6 -12.3v-34H596v-15.1h-26.8V755h-16.7v22.9h-15.7V793h15.7v34q0 27.9 26.2 27.9 11.7 0 20.1 -5.6zm48 -73.6q-16.2 0 -26.8 11.1t-10.6 28.5q0 17.8 10.9 28.7t27.6 10.9q18.4 0 30.7 -10.6L670.8 832q-10.1 8.4 -21.8 8.4 -19 0 -22.9 -18.4h56.4v-6.7q0 -17.9 -10.1 -28.7t-25.6 -10.9zm88.7 0q-12.8 0 -19.5 11.1v-8.9h-16.8v75.3H716v-42.4q0 -19.5 16.1 -19.5 5.6 0 10.1 2.2l5 -15.6q-5 -2.2 -11.7 -2.2zm16.7 39.6q0 17.3 10.9 28.5t29.3 11.1q16.2 0 26.8 -8.9l-7.8 -13.4q-10.1 7.2 -19.5 6.7 -10.1 0 -16.5 -6.7T769 815.3t6.4 -17.3 16.5 -6.7q10.6 0 19.5 6.7l7.8 -13.4q-11.2 -8.9 -26.8 -8.9 -18.4 0 -29.3 11.1t-10.9 28.5zM889 853.2h16.7v-75.3H889v8.9q-8.4 -11.1 -23.5 -11.1 -16.2 0 -27.1 11.1t-10.8 28.5 10.8 28.5 27.1 11.1q15.6 0 23.5 -11.1v9.4zm74.2 -77.5q-12.9 0 -19.6 11.1v-8.9h-16.1v75.3h16.1v-42.4q0 -19.5 16.2 -19.5 5.6 0 10.1 2.2l5 -15.6q-4.5 -2.2 -11.7 -2.2zm78.1 77.5h16.2v-106h-16.2v39.6q-8.4 -11.1 -24 -11.1t-26.5 11.4 -10.9 28.2 10.9 28.2 26.5 11.4q16.2 0 24 -11.2v9.5zm43.5 -11.1l-1.1 .5h-1.7q-1.1 .6 -2.2 1.7 -1.7 .6 -1.7 2.2 -.5 1.2 -.5 3.4 0 1.7 .5 2.8 0 1.1 1.7 2.2 1.1 1.1 2.2 1.7t2.8 .5q2.3 0 3.4 -.5 0 -.6 1.1 -1.1l1.1 -.6q.6 -.5 1.7 -2.2 .5 -1.1 .5 -2.8 0 -2.2 -.5 -3.4 -.6 -.5 -1.7 -2.2 0 -.5 -1.1 -1.1l-1.1 -.6q-.6 0 -1.7 -.2t-1.7 -.3zm200.9 -699.2v714.2q0 29.1 -21.2 50.3t-50.2 21.2H71.4q-29 0 -50.2 -21.2T0 857.1V142.9Q0 113.8 21.2 92.6T71.4 71.4h1142.9q29 0 50.2 21.2t21.2 50.3z"/></svg>