<svg height="1000" width="1285.714" xmlns="http://www.w3.org/2000/svg"><path d="M374.418 520.678h-7.254q-26.226 0 -26.226 17.856 0 12.276 11.16 12.276 9.486 0 15.624 -8.37t6.696 -21.762zm220.41 -20.088h34.596v-1.674q.558 -2.232 .279 -3.627t-.558 -3.906 -1.116 -4.464 -2.511 -3.627 -4.185 -2.79 -6.417 -1.116q-15.624 0 -20.088 21.204zm301.32 20.088h-6.696q-26.784 0 -26.784 17.856 0 12.276 11.16 12.276 9.486 0 15.624 -8.37t6.696 -21.762zm178.002 -14.508q0 -22.878 -16.74 -22.878 -10.602 0 -17.298 11.16t-6.696 28.458q0 23.436 15.624 23.436 11.16 0 18.135 -11.16t6.975 -29.016zm-806.31 -78.678h48.546l-24.552 146.196h-31.248l17.856 -112.158 -39.618 112.158h-21.762l-2.232 -111.6 -18.972 111.6h-29.574l24.552 -146.196h45.198l1.116 90.954zm141.174 59.706q0 3.348 -2.232 23.436 -8.928 56.358 -9.486 63.054h-26.226l.558 -12.276q-11.16 14.508 -32.364 14.508 -12.834 0 -20.925 -8.928t-8.091 -23.436q0 -21.762 14.508 -33.759t40.734 -11.997q7.812 0 12.834 .558 0 -1.674 .279 -3.069t.558 -2.511 .279 -1.674q0 -11.16 -20.088 -11.16 -16.182 0 -32.922 5.58 0 -2.232 3.906 -26.784 21.204 -6.138 37.386 -6.138 41.292 0 41.292 34.596zm87.048 -32.364l-4.464 27.342q-12.276 -1.674 -22.878 -1.674 -15.066 0 -15.066 9.486 0 4.464 2.511 6.696t11.997 6.138q22.32 10.602 22.32 33.48 0 40.176 -48.546 39.618 -18.972 0 -32.364 -3.348 0 -1.116 3.906 -27.342 16.182 4.464 28.458 4.464 17.856 0 17.856 -10.602 0 -3.906 -2.511 -6.417t-11.997 -6.975q-23.994 -11.16 -23.994 -32.922 0 -40.176 46.872 -40.176 16.74 0 27.9 2.232zm49.104 0h15.624l-3.906 29.016h-16.182q-1.116 9.486 -3.627 22.599t-3.906 21.483 -1.395 10.044q0 8.928 10.602 8.928 4.464 0 8.928 -1.116l-4.464 26.226q-11.718 3.906 -22.32 3.906 -23.994 0 -25.11 -26.226 0 -6.696 4.464 -31.248 1.674 -11.16 13.95 -81.468h30.69zm113.274 40.734q0 12.834 -3.906 29.016h-61.938q-1.674 12.276 5.58 18.414t21.204 6.138q16.74 0 32.364 -7.812l-5.022 30.132q-16.74 4.464 -31.806 4.464 -53.01 0 -53.01 -53.01 0 -30.69 15.345 -50.499t38.781 -19.809q19.53 0 30.969 11.718t11.439 31.248zm77.562 -41.292q-7.254 12.834 -12.276 34.596 -12.276 -1.116 -17.298 13.392t-13.95 71.424h-31.248l1.674 -7.812q12.276 -72.54 16.182 -111.042h28.458l-1.674 18.414q7.812 -11.718 14.229 -16.461t15.903 -2.511zm104.346 -22.878l-5.022 31.806q-15.624 -7.812 -27.9 -7.812 -17.298 0 -28.458 15.345t-11.16 39.339q0 16.74 7.533 26.226t21.483 9.486q11.718 0 26.784 -7.254l-5.58 32.922q-15.624 4.464 -27.9 4.464 -25.11 0 -39.897 -17.019t-14.787 -46.035q0 -39.06 19.809 -63.891t51.057 -24.831q14.508 0 34.038 7.254zm90.396 55.8q0 10.044 -2.232 23.436 -7.254 44.082 -9.486 63.054h-25.668l.558 -12.276q-11.16 14.508 -32.922 14.508 -12.834 0 -20.646 -8.928t-7.812 -23.436q0 -21.762 14.229 -33.759t40.455 -11.997q8.37 0 12.834 .558 1.116 -3.906 1.116 -7.254 0 -11.16 -20.088 -11.16 -16.182 0 -32.922 5.58 0 -2.232 4.464 -26.784 21.204 -6.138 37.386 -6.138 40.734 0 40.734 34.596zm78.678 -32.922q-7.812 13.392 -11.718 34.596 -12.834 -1.116 -17.577 12.834t-14.229 71.982h-31.248l1.674 -7.812q10.602 -58.032 16.182 -111.042h29.016q0 6.138 -2.232 18.414 8.37 -11.718 14.787 -16.461t15.345 -2.511zm78.678 -26.784h31.248l-23.994 146.196h-29.574l1.674 -10.602q-12.834 12.834 -29.016 12.834 -17.298 0 -27.621 -13.392t-10.323 -35.712q0 -29.574 15.345 -51.336t35.991 -21.762q17.298 0 29.574 16.182zm61.938 72.54q0 -82.584 -40.455 -152.334t-110.484 -110.484 -152.613 -40.734q-100.998 0 -183.024 61.38 70.866 64.728 95.418 158.472h-27.9q-24.552 -83.7 -88.164 -141.174 -63.612 57.474 -88.164 141.174h-27.9q24.552 -93.744 95.418 -158.472 -82.026 -61.38 -183.024 -61.38 -82.584 0 -152.613 40.734t-110.484 110.484 -40.455 152.334 40.455 152.334 110.484 110.484 152.613 40.734q100.998 0 183.024 -61.38 -66.96 -61.938 -92.07 -147.312h27.9q25.668 77.004 84.816 130.014 59.148 -53.01 84.816 -130.014h27.9q-25.11 85.374 -92.07 147.312 82.026 61.38 183.024 61.38 82.584 0 152.613 -40.734t110.484 -110.484 40.455 -152.334zm135.594 -357.12v714.24q0 29.016 -21.204 50.22t-50.22 21.204h-1142.784q-29.016 0 -50.22 -21.204t-21.204 -50.22v-714.24q0 -29.016 21.204 -50.22t50.22 -21.204h1142.784q29.016 0 50.22 21.204t21.204 50.22z"/></svg>