<svg height="1000" width="1285.7" xmlns="http://www.w3.org/2000/svg"><path d="M374.4 520.6h-7.2q-26.2 0 -26.2 17.9 0 12.3 11.1 12.3 9.5 0 15.6 -8.4t6.7 -21.8zm220.5 -20h34.6v-1.7q.5 -2.2 .2 -3.6t-.5 -3.9 -1.1 -4.5 -2.5 -3.6 -4.2 -2.8 -6.4 -1.1q-15.7 0 -20.1 21.2zm301.3 20h-6.7q-26.8 0 -26.8 17.9 0 12.3 11.2 12.3 9.5 0 15.6 -8.4t6.7 -21.8zm178 -14.5q0 -22.8 -16.7 -22.8 -10.6 0 -17.3 11.1t-6.7 28.5q0 23.4 15.6 23.4 11.2 0 18.1 -11.1t7 -29.1zM267.9 427.5h48.5l-24.5 146.2h-31.3l17.9 -112.2 -39.7 112.2h-21.7l-2.3 -111.6 -18.9 111.6h-29.6l24.5 -146.2H236l1.2 90.9zM409 487.2q0 3.3 -2.2 23.4 -8.9 56.4 -9.5 63.1h-26.2l.6 -12.3q-11.2 14.5 -32.4 14.5 -12.8 0 -20.9 -8.9t-8.1 -23.5q0 -21.7 14.5 -33.7t40.7 -12q7.8 0 12.8 .5 0 -1.6 .3 -3t.6 -2.6 .3 -1.6q0 -11.2 -20.1 -11.2 -16.2 0 -32.9 5.6 0 -2.2 3.9 -26.8 21.2 -6.1 37.3 -6.1 41.3 0 41.3 34.6zm87.1 -32.4l-4.5 27.3q-12.2 -1.6 -22.8 -1.6 -15.1 0 -15.1 9.5 0 4.4 2.5 6.7t12 6.1q22.3 10.6 22.3 33.5 0 40.2 -48.5 39.6 -19 0 -32.4 -3.4 0 -1.1 3.9 -27.3 16.2 4.5 28.5 4.5 17.8 0 17.8 -10.6 0 -3.9 -2.5 -6.5t-12 -6.9q-24 -11.2 -24 -33 0 -40.1 46.9 -40.1 16.7 0 27.9 2.2zm49.1 0h15.6l-3.9 29h-16.2q-1.1 9.5 -3.6 22.6t-3.9 21.5 -1.4 10q0 9 10.6 9 4.5 0 8.9 -1.1l-4.4 26.2q-11.7 3.9 -22.3 3.9 -24 0 -25.2 -26.2 0 -6.7 4.5 -31.3 1.7 -11.1 14 -81.5h30.6zm113.3 40.7q0 12.9 -3.9 29.1h-62q-1.6 12.2 5.6 18.4t21.2 6.1q16.8 0 32.4 -7.8l-5 30.1q-16.8 4.5 -31.8 4.5 -53.1 0 -53.1 -53 0 -30.7 15.4 -50.5t38.8 -19.8q19.5 0 30.9 11.7t11.5 31.2zM736 454.2q-7.2 12.9 -12.2 34.6 -12.3 -1.1 -17.3 13.4t-14 71.5h-31.2l1.6 -7.9q12.3 -72.5 16.2 -111h28.5l-1.7 18.4q7.8 -11.7 14.2 -16.4t15.9 -2.6zm104.4 -22.8l-5 31.8q-15.6 -7.8 -27.9 -7.8 -17.3 0 -28.5 15.3T767.9 510q0 16.8 7.5 26.3t21.5 9.5q11.7 0 26.8 -7.3l-5.6 32.9q-15.6 4.5 -27.9 4.5 -25.1 0 -39.9 -17t-14.8 -46.1q0 -39 19.8 -63.9t51.1 -24.8q14.5 0 34 7.3zm90.4 55.8q0 10 -2.2 23.4 -7.3 44.1 -9.5 63.1h-25.7l.6 -12.3q-11.2 14.5 -33 14.5 -12.8 0 -20.6 -8.9t-7.8 -23.5q0 -21.7 14.2 -33.7t40.5 -12q8.3 0 12.8 .5 1.1 -3.9 1.1 -7.2 0 -11.2 -20.1 -11.2 -16.1 0 -32.9 5.6 0 -2.2 4.5 -26.8 21.2 -6.1 37.4 -6.1 40.7 0 40.7 34.6zm78.7 -33q-7.8 13.4 -11.7 34.6 -12.9 -1.1 -17.6 12.9t-14.2 72h-31.3l1.7 -7.9q10.6 -58 16.2 -111h29q0 6.1 -2.2 18.4 8.3 -11.7 14.7 -16.4t15.4 -2.6zm78.7 -26.7h31.2l-24 146.2h-29.6l1.7 -10.6q-12.8 12.8 -29 12.8 -17.3 0 -27.6 -13.4t-10.3 -35.7q0 -29.6 15.3 -51.4t36 -21.7q17.3 0 29.6 16.2zm61.9 72.5q0 -82.6 -40.4 -152.3T999.2 237.2 846.5 196.4q-101 0 -183 61.4 70.9 64.7 95.4 158.5H731Q706.5 332.6 642.9 275.1q-63.7 57.5 -88.2 141.2h-27.9q24.5 -93.8 95.4 -158.5 -82 -61.4 -183 -61.4 -82.6 0 -152.6 40.8T176.1 347.7 135.6 500t40.5 152.3 110.5 110.5 152.6 40.8q101 0 183 -61.4 -67 -62 -92.1 -147.3H558q25.7 77 84.9 130 59.1 -53 84.8 -130h27.9q-25.1 85.3 -92.1 147.3 82 61.4 183 61.4 82.6 0 152.7 -40.8t110.5 -110.5T1150.1 500zm135.6 -357.1v714.2q0 29.1 -21.2 50.3t-50.2 21.2H71.4q-29 0 -50.2 -21.2T0 857.1V142.9Q0 113.8 21.2 92.6T71.4 71.4h1142.9q29 0 50.2 21.2t21.2 50.3z"/></svg>