<svg height="1000" width="1285.714" xmlns="http://www.w3.org/2000/svg"><path d="M179.676 472.69h-8.37q-10.602 0 -10.602 -10.044 0 -15.624 10.602 -47.43 2.79 -8.37 8.37 -10.881t15.624 -2.511q42.966 0 42.966 27.342 0 22.878 -17.019 33.201t-41.571 10.323zm190.836 89.838q-26.226 0 -26.226 -16.182 0 -34.596 68.634 -34.596l1.674 1.674q-2.79 49.104 -44.082 49.104zm431.892 -88.722h-8.37q-10.602 0 -10.602 -10.602 0 -15.624 10.602 -47.43 2.79 -8.37 8.091 -10.602t15.903 -2.232q42.966 0 42.966 27.342 0 22.878 -17.019 33.201t-41.571 10.323zm190.836 89.28q-26.226 0 -26.226 -16.74 0 -34.596 68.634 -34.596l1.674 1.674q-2.79 49.662 -44.082 49.662zm-785.106 -204.786h-71.424q-4.464 0 -8.091 2.232t-4.743 4.185 -3.906 6.975q-1.674 3.906 -25.11 106.02t-23.436 107.136q0 3.906 3.069 6.975t7.533 3.069h34.596q13.95 0 18.135 -19.251l8.37 -38.502t18.135 -19.251q26.226 0 48.825 -4.185t44.919 -13.671 35.433 -29.295 13.113 -47.151q0 -20.088 -8.091 -34.038t-22.878 -20.367 -29.853 -8.649 -34.596 -2.232zm193.068 53.568q-21.204 0 -41.292 3.348 -1.116 0 -4.743 .558t-5.022 .837l-4.185 .837t-4.185 1.116 -3.627 1.674 -3.627 2.232 -2.79 2.79 -2.511 3.906 -2.232 5.022q-5.022 16.182 -5.022 21.762t5.022 5.58q2.79 0 11.997 -2.79t10.881 -3.348q16.74 -4.464 32.364 -4.464 41.292 0 41.292 20.088 0 6.138 -5.58 7.812 -4.464 1.116 -10.044 1.674t-11.997 .837 -9.765 .837q-21.204 2.232 -35.991 5.58t-31.527 10.881 -25.389 21.762 -8.649 34.875q0 21.204 14.508 33.201t35.712 11.997q13.392 0 25.389 -3.627t18.414 -7.254 21.483 -13.113q-1.674 3.906 -1.674 8.37t3.069 7.533 6.975 3.069h31.248q.558 -.558 3.906 -1.953t4.185 -1.953 2.79 -1.953 2.79 -3.069 1.395 -4.464l25.11 -108.252q2.232 -7.254 2.232 -16.74 0 -45.198 -80.91 -45.198zm294.624 2.79h-41.292q-12.276 0 -21.762 12.834 -2.79 3.906 -16.461 28.458t-25.947 45.477 -14.508 21.483l-2.79 -2.232q0 -42.966 -15.066 -92.628 -.558 -2.79 -1.953 -4.743t-3.348 -3.627 -3.627 -2.79 -4.743 -1.674 -4.743 -.837 -5.301 -.558 -5.022 -.279h-10.323q-21.204 0 -21.204 11.718l.558 2.79q2.79 29.574 13.95 84.258t13.95 79.794q1.116 8.928 1.116 13.392 0 10.602 -17.019 34.317t-17.019 32.643q0 7.254 22.32 7.254 34.038 0 42.408 -13.95l136.71 -231.57q5.58 -11.16 5.58 -14.508 0 -5.022 -4.464 -5.022zm135.036 -55.242h-71.982q-10.044 0 -16.182 12.834 -3.348 7.254 -25.947 106.857t-22.599 106.299q0 11.16 23.994 11.16h14.229000000000001t5.301 -.558 4.743 -1.116 4.743 -1.674 3.627 -2.511 3.069 -3.348 1.674 -4.743l11.718 -50.778q1.116 -5.58 5.859 -9.486t10.881 -3.906q26.226 0 48.825 -3.906t44.919 -13.671 35.433 -29.295 13.113 -46.872q0 -20.088 -8.091 -34.038t-22.878 -20.367 -29.853 -8.649 -34.596 -2.232zm193.068 52.452q-14.508 0 -41.292 3.348 -21.204 3.348 -26.784 8.928 -3.906 4.464 -6.138 10.602 -4.464 13.392 -4.464 21.762 0 5.58 4.464 5.58 .558 0 22.878 -6.696 16.74 -4.464 32.364 -4.464 41.292 0 41.292 20.088 0 6.696 -5.58 7.812 -2.232 .558 -31.806 3.906 -21.204 2.232 -35.991 5.58t-31.527 10.881 -25.389 21.762 -8.649 34.875 14.508 32.643 35.712 11.997q13.392 0 25.11 -3.348t18.972 -7.254 21.204 -13.392q-1.674 8.37 -1.674 8.928 0 2.79 1.116 4.743t3.627 3.069 4.464 1.953 5.859 1.116 5.301 .279h9.765q23.436 0 26.784 -13.95l25.11 -108.252q1.674 -8.37 1.674 -17.298 0 -45.198 -80.91 -45.198zm179.676 -50.778h-30.69q-13.95 0 -18.414 22.32 -5.58 24.552 -20.367 93.186t-23.715 106.02v2.79q0 8.928 8.928 10.044h32.364000000000004q5.58 0 10.323 -3.627t5.859 -9.207l46.314 -208.692h-.558l.558 -2.79q0 -3.906 -3.069 -6.975t-7.533 -3.069zm82.026 -218.178v714.24q0 29.016 -21.204 50.22t-50.22 21.204h-1142.784q-29.016 0 -50.22 -21.204t-21.204 -50.22v-714.24q0 -29.016 21.204 -50.22t50.22 -21.204h1142.784q29.016 0 50.22 21.204t21.204 50.22z"/></svg>