<svg height="1000" width="1285.7" xmlns="http://www.w3.org/2000/svg"><path d="M415.7 505.6q0 20.6 -14.2 34.3t-34.9 13.7q-16.2 0 -25.9 -9t-9.8 -24.5q0 -20.7 14 -34.9T379.5 471q15.6 0 25.9 9.2t10.3 25.4zm438.1 -83.2q0 23.5 -12.3 31.8t-36.8 8.4l-17.9 .6 9.5 -59.7q1.1 -6.2 7.3 -6.2h10q12.3 0 19.5 1.1t14 7 6.7 17zm195.9 83.2q0 20.1 -14.3 34t-34.3 14q-16.2 0 -26.2 -9t-10.1 -24.5q0 -20.7 14 -34.9t34.6 -14.2q15.6 0 25.9 9.2t10.4 25.4zM286.3 410.2q0 -33 -21.5 -47.8t-56.1 -14.7h-89.3q-10.6 0 -11.7 10.6L71.4 585.9q-.5 3.4 1.7 6.2t5.6 2.8h42.4q11.2 0 12.3 -10.6l10 -61.4q.6 -4.5 3.9 -7.3t8.4 -3.6 9.5 -.8 10.6 .5 7.8 .6q48 0 75.3 -27.1t27.4 -75zm172.4 174.1l22.9 -145.7q.5 -3.3 -1.7 -6.1t-5.6 -2.8h-42.4q-7.8 0 -9.5 18.4 -15 -22.3 -53 -22.3 -40.2 0 -68.3 30.1t-28.2 70.9q0 32.9 19.2 52.4t51.6 19.6q15.7 0 32.4 -6.7t26.8 -17.9q-2.2 6.7 -2.2 11.7 0 9 7.2 9h38.5q10.6 0 12.3 -10.6zM708.1 437.5q0 -2.8 -2.2 -5.3t-5 -2.5h-43q-6.1 0 -10 5.6l-59.2 87 -24.5 -83.7q-2.8 -8.9 -12.3 -8.9H510q-2.7 0 -5 2.5t-2.2 5.3q0 1.1 10.9 32.9t23.4 68.7 13.1 39q-45.7 62.5 -45.7 67 0 7.2 7.2 7.2h43q6.1 0 10 -5.5L707 441.4q1.1 -1.1 1.1 -3.9zm212.1 -27.3q0 -33 -21.5 -47.8t-56.1 -14.7h-88.7q-11.2 0 -12.3 10.6l-36.2 227.6q-.6 3.4 1.6 6.2t5.6 2.8h45.8q6.7 0 8.9 -7.3l10 -64.7q.6 -4.5 4 -7.3t8.3 -3.6 9.5 -.8 10.6 .5 7.8 .6q48 0 75.4 -27.1t27.3 -75zm172.4 174.1l22.9 -145.7q.6 -3.3 -1.7 -6.1t-5.5 -2.8h-42.5q-7.8 0 -9.4 18.4 -14.5 -22.3 -53.1 -22.3 -40.1 0 -68.3 30.1t-28.2 70.9q0 32.9 19.3 52.4t51.6 19.6q16.2 0 32.9 -6.7t26.2 -17.9q0 .6 -1.1 5t-1.1 6.7q0 9 7.3 9h38.5q10.6 0 12.2 -10.6zM1214.3 356v-.5q0 -7.8 -7.3 -7.8h-41.3q-6.1 0 -7.2 6.1l-36.3 232.1 -.5 1.2q0 2.7 2.2 5.3t5.6 2.5h36.8q10.6 0 11.7 -10.6zm-995.5 74.8q-2.8 19.5 -14.6 25.7t-33.4 6.1l-18.5 .6 9.5 -59.7q1.1 -6.2 7.3 -6.2h10.6q22.3 0 32.4 6.4t6.6 27.1zM1285.7 142.9v714.2q0 29.1 -21.2 50.3t-50.2 21.2H71.4q-29 0 -50.2 -21.2T0 857.1V142.9Q0 113.8 21.2 92.6T71.4 71.4h1142.9q29 0 50.2 21.2t21.2 50.3z"/></svg>