<svg height="1000" width="1285.7" xmlns="http://www.w3.org/2000/svg"><path d="M891.2 503.9q0 38.5 -11.7 59.2 -10.6 19.5 -29.1 19.5 -12.8 0 -22.8 -5v-125q16.2 -16.8 31.8 -16.8 31.8 0 31.8 68.1zm244.4 -20.1h-61.4q3.4 -54.7 31.3 -54.7 28.4 0 30.1 54.7zm-870 75.4q0 -33 -18.4 -51.1T190.8 476q-20 -7.2 -29 -13.4t-8.9 -13.9q0 -14.5 21.2 -14.5 32.4 0 69.2 18.4l10 -62.5Q216 372.2 170.2 372.2q-43 0 -68.6 21.2 -26.8 21.8 -26.8 60.8 0 32.4 18.1 50.5t55.5 31.6q21.8 7.8 30.5 14.2t8.6 15.3q0 17.3 -26.8 17.3 -16.2 0 -39 -6.9t-40.2 -17l-10.1 63q40.2 22.9 93.8 22.9 45.2 0 72 -20.7 28.4 -22.8 28.4 -65.2zm164.6 -120l10.6 -62h-53.5v-75.3l-72 11.7 -10.1 63.6 -25.6 4.5 -9.5 57.5h34.6v122.2q0 46.9 24.5 66.9 21.2 16.8 62 16.8 17.8 0 44.1 -6.1v-65.9q-17.9 3.9 -24.6 3.9 -23.4 0 -23.4 -27.9V439.2h42.9zm176.4 13.9v-77.5q-8.4 -1.7 -15.6 -1.7 -17.9 0 -31 8.9t-18.7 25.7l-5.6 -31.3h-73.1v262.9h83.7V469.3Q560.8 452 592.1 452q8.9 0 14.5 1.1zm20.6 187h83.7V377.2h-83.7v262.9zm347.1 -139q0 -68.1 -25.1 -99.9 -22.3 -29 -61.9 -29 -35.7 0 -65.3 31.3l-4.5 -26.3h-73.6v360l83.7 -14V639q20.1 6.1 37.9 6.1 46.3 0 74.8 -31.3 34 -36.2 34 -112.7zM713.2 306.9q0 -18.4 -12.9 -31.2t-31.2 -12.9 -31.3 12.9T625 306.9t12.8 31.5 31.3 13.2 31.2 -13.2 12.9 -31.5zm501.1 199.2q0 -63 -26.8 -98.2 -27.9 -35.7 -80.4 -35.7 -53.5 0 -84.5 36.8t-31 100.5q0 71.4 35.2 104.9 30.7 30.7 89.8 30.7 56.4 0 89.3 -22.3l-8.9 -57.5q-31.8 17.3 -71.4 17.3 -24 0 -35.2 -10.6 -12.8 -10.6 -15.6 -36.8h138.4q1.1 -7.9 1.1 -29.1zm71.4 -363.2v714.2q0 29.1 -21.2 50.3t-50.2 21.2H71.4q-29 0 -50.2 -21.2T0 857.1V142.9Q0 113.8 21.2 92.6T71.4 71.4h1142.9q29 0 50.2 21.2t21.2 50.3z"/></svg>