<svg height="1000" width="1285.714" xmlns="http://www.w3.org/2000/svg"><path d="M891.126 503.938q0 38.502 -11.718 59.148 -10.602 19.53 -29.016 19.53 -12.834 0 -22.878 -5.022v-124.992q16.182 -16.74 31.806 -16.74 31.806 0 31.806 68.076zm244.404 -20.088h-61.38q3.348 -54.684 31.248 -54.684 28.458 0 30.132 54.684zm-869.922 75.33q0 -32.922 -18.414 -51.057t-56.358 -32.085q-20.088 -7.254 -29.016 -13.392t-8.928 -13.95q0 -14.508 21.204 -14.508 32.364 0 69.192 18.414l10.044 -62.496q-37.386 -17.856 -83.142 -17.856 -42.966 0 -68.634 21.204 -26.784 21.762 -26.784 60.822 0 32.364 18.135 50.499t55.521 31.527q21.762 7.812 30.411 14.229t8.649 15.345q0 17.298 -26.784 17.298 -16.182 0 -39.06 -6.975t-40.176 -17.019l-10.044 63.054q40.176 22.878 93.744 22.878 45.198 0 71.982 -20.646 28.458 -22.878 28.458 -65.286zm164.61 -119.97l10.602 -61.938h-53.568v-75.33l-71.982 11.718 -10.044 63.612 -25.668 4.464 -9.486 57.474h34.596v122.202q0 46.872 24.552 66.96 21.204 16.74 61.938 16.74 17.856 0 44.082 -6.138v-65.844q-17.856 3.906 -24.552 3.906 -23.436 0 -23.436 -27.9v-109.926h42.966zm176.328 13.95v-77.562q-8.37 -1.674 -15.624 -1.674 -17.856 0 -30.969 8.928t-18.693 25.668l-5.58 -31.248h-73.098v262.818h83.7v-170.748q14.508 -17.298 45.756 -17.298 8.928 0 14.508 1.116zm20.646 186.93h83.7v-262.818h-83.7v262.818zm347.076 -138.942q0 -68.076 -25.11 -99.882 -22.32 -29.016 -61.938 -29.016 -35.712 0 -65.286 31.248l-4.464 -26.226h-73.656v359.91l83.7 -13.95v-84.258q20.088 6.138 37.944 6.138 46.314 0 74.772 -31.248 34.038 -36.27 34.038 -112.716zm-261.144 -194.184q0 -18.414 -12.834 -31.248t-31.248 -12.834 -31.248 12.834 -12.834 31.248 12.834 31.527 31.248 13.113 31.248 -13.113 12.834 -31.527zm501.084 199.206q0 -63.054 -26.784 -98.208 -27.9 -35.712 -80.352 -35.712 -53.568 0 -84.537 36.828t-30.969 100.44q0 71.424 35.154 104.904 30.69 30.69 89.838 30.69 56.358 0 89.28 -22.32l-8.928 -57.474q-31.806 17.298 -71.424 17.298 -23.994 0 -35.154 -10.602 -12.834 -10.602 -15.624 -36.828h138.384q1.116 -7.812 1.116 -29.016zm71.424 -363.258v714.24q0 29.016 -21.204 50.22t-50.22 21.204h-1142.784q-29.016 0 -50.22 -21.204t-21.204 -50.22v-714.24q0 -29.016 21.204 -50.22t50.22 -21.204h1142.784q29.016 0 50.22 21.204t21.204 50.22z"/></svg>