<svg height="1000" width="1285.714" xmlns="http://www.w3.org/2000/svg"><path d="M1102.05 552.484h-77.004q7.812 -20.646 36.828 -99.882l1.674 -5.022q2.232 -5.58 5.58 -14.508t5.022 -14.508l6.696 30.69zm-805.752 -36.27l-32.364 -164.61q-6.138 -30.132 -41.85 -30.132h-149.544l-1.116 7.254q173.538 44.082 224.874 187.488zm99.882 -194.742l-90.396 244.404 -9.486 -49.662q-14.508 -39.06 -47.43 -72.261t-73.098 -49.383l75.33 284.58h97.65l145.638 -357.678h-98.208zm77.562 358.236h92.628l58.032 -358.236h-92.628zm428.544 -349.308q-38.502 -15.066 -83.142 -15.066 -68.634 0 -112.158 32.922t-44.082 85.374q-.558 56.916 80.91 97.092 26.784 12.834 37.386 22.878t10.602 21.762q0 16.74 -16.74 25.668t-38.502 8.928q-47.988 0 -87.048 -18.414l-12.276 -6.138 -12.834 80.352q41.292 18.972 103.23 18.972 72.54 .558 116.343 -32.922t44.919 -89.28q0 -59.148 -78.12 -97.092 -27.342 -13.95 -39.618 -23.436t-12.276 -21.204q0 -12.276 13.671 -21.483t39.339 -9.207q39.06 -.558 69.192 13.392l8.37 4.464zm237.15 -8.928h-71.424q-36.27 0 -48.546 30.132l-137.268 328.104h97.092l19.53 -53.568h118.296q2.79 12.276 11.16 53.568h85.932zm146.196 -178.56v714.24q0 29.016 -21.204 50.22t-50.22 21.204h-1142.784q-29.016 0 -50.22 -21.204t-21.204 -50.22v-714.24q0 -29.016 21.204 -50.22t50.22 -21.204h1142.784q29.016 0 50.22 21.204t21.204 50.22z"/></svg>