<svg height="1000" width="1285.7" xmlns="http://www.w3.org/2000/svg"><path d="M1102.1 552.5h-77q7.8 -20.7 36.8 -99.9l1.7 -5.1q2.2 -5.5 5.6 -14.5t5 -14.5l6.7 30.7zM296.3 516.2L264 351.6q-6.2 -30.2 -41.9 -30.2H72.5l-1.1 7.3Q245 372.8 296.3 516.2zm99.9 -194.8l-90.4 244.4 -9.5 -49.6q-14.5 -39.1 -47.4 -72.3t-73.1 -49.4l75.3 284.6h97.7L494.4 321.4h-98.2zm77.6 358.3h92.6l58 -358.3h-92.6zM902.3 330.4q-38.5 -15.1 -83.1 -15.1 -68.6 0 -112.2 32.9t-44.1 85.4q-.5 56.9 81 97.1 26.7 12.8 37.4 22.9t10.6 21.7q0 16.8 -16.8 25.7t-38.5 8.9q-48 0 -87 -18.4l-12.3 -6.1 -12.9 80.3q41.3 19 103.3 19 72.5 .6 116.3 -32.9t45 -89.3q0 -59.2 -78.2 -97.1Q783.5 451.5 771.2 442t-12.3 -21.2q0 -12.3 13.7 -21.5t39.3 -9.2q39.1 -.6 69.2 13.4l8.4 4.4zm237.2 -9h-71.4q-36.3 0 -48.6 30.2L882.3 679.7h97.1l19.5 -53.6h118.3q2.8 12.3 11.1 53.6h86zm146.2 -178.5v714.2q0 29.1 -21.2 50.3t-50.2 21.2H71.4q-29 0 -50.2 -21.2T0 857.1V142.9Q0 113.8 21.2 92.6T71.4 71.4h1142.9q29 0 50.2 21.2t21.2 50.3z"/></svg>