<svg height="1000" width="1142.857" xmlns="http://www.w3.org/2000/svg"><path d="M438.03 562.528h115.506q-7.812 88.164 -54.963 138.663t-119.691 50.499q-90.396 0 -142.011 -64.728t-51.615 -176.328q0 -108.252 51.894 -173.817t130.014 -65.565q82.584 0 129.456 48.546t54.126 137.826h-113.274q-2.79 -35.712 -19.809 -55.242t-45.477 -19.53q-31.806 0 -49.383 33.759t-17.577 99.045q0 26.784 2.79 46.872t10.044 38.781 22.32 28.737 36.828 10.044q53.01 0 60.822 -77.562zm397.296 0h114.948q-7.812 88.164 -54.684 138.663t-119.412 50.499q-90.396 0 -142.011 -64.728t-51.615 -176.328q0 -108.252 51.894 -173.817t130.014 -65.565q82.584 0 129.456 48.546t54.126 137.826h-113.832q-2.232 -35.712 -19.53 -55.242t-45.198 -19.53q-31.806 0 -49.383 33.759t-17.577 99.045q0 26.784 2.79 46.872t10.044 38.781 22.041 28.737 36.549 10.044q27.342 0 42.687 -21.204t18.693 -56.358zm200.322 -66.402q0 -115.506 -8.649 -171.306t-33.759 -89.838q-3.348 -4.464 -7.533 -7.812t-11.997 -8.37 -8.928 -6.138q-47.988 -35.154 -388.926 -35.154 -348.75 0 -396.18 35.154 -2.79 2.232 -9.765 6.417t-11.718 7.812 -8.091 8.091q-25.11 33.48 -33.48 89.001t-8.37 172.143q0 116.064 8.37 171.585t33.48 89.559q3.348 4.464 8.37 8.37t11.439 7.812 9.765 6.696q24.552 18.414 133.641 27.342t262.539 8.928q340.38 0 388.926 -36.27 2.79 -2.232 9.486 -6.138t11.439 -7.812 7.533 -8.928q25.668 -33.48 34.038 -88.722t8.37 -172.422zm107.136 -424.638v857.088h-1142.784v-857.088h1142.784z"/></svg>