<svg height="1000px" width="857.1428571428571px" xmlns="http://www.w3.org/2000/svg">
  <g>
    <path d="M0 392.85714285714283c0 0 0 -250 0 -250c0 -15.625 7.347 -26.6 22.042 -32.924c5.205 -2.24 10.188 -3.36 14.949 -3.36c8.682 0 16.627 3.724 23.835 11.172c0 0 72.545 71.987 72.545 71.987c39.806 -37.574 85.286 -66.685 136.439 -87.333c51.154 -20.647 104.911 -30.971 161.273 -30.971c56.361 0 110.956 11.347 163.783 34.041c52.827 22.693 98.4 53.199 136.719 91.517c38.318 38.319 68.824 83.892 91.518 136.719c22.693 52.828 34.04 108.259 34.04 166.295c0 58.036 -11.347 113.467 -34.04 166.295c-22.694 52.827 -53.2 98.4 -91.518 136.718c-38.319 38.319 -83.892 68.825 -136.719 91.518c-52.827 22.694 -110.398 34.04 -172.712 34.04c-62.314 0 -122.768 -14.137 -181.362 -42.41c-58.593 -28.274 -108.073 -67.895 -148.437 -118.862c-40.365 -50.967 -67.801 -109.003 -82.31 -174.107c-1.116 -5.208 0.093 -10.138 3.627 -14.788c3.534 -4.65 8.277 -6.976 14.23 -6.976c0 0 111.049 0 111.049 0c8.556 0 14.137 4.279 16.741 12.835c18.601 60.268 53.013 108.91 103.237 145.927c50.223 37.016 106.77 55.524 169.642 55.524c38.691 0 75.614 -7.533 110.771 -22.6c35.156 -15.067 65.569 -35.436 91.238 -61.105c25.67 -25.67 46.038 -56.083 61.105 -91.239c15.067 -35.156 22.601 -72.08 22.601 -110.77c0 -38.691 -7.534 -75.614 -22.601 -110.77c-15.067 -35.156 -35.435 -65.569 -61.105 -91.239c-25.669 -25.67 -56.082 -46.038 -91.238 -61.105c-35.157 -15.067 -71.522 -22.6 -109.096 -22.6c-76.637 0 -141.928 25.483 -195.871 76.45c0 0 76.451 77.009 76.451 77.009c7.448 7.208 11.172 15.153 11.172 23.836c0 4.761 -1.12 9.743 -3.36 14.948c-6.324 14.695 -17.299 22.042 -32.924 22.042c0 0 -250 0 -250 0c-9.672 0 -18.043 -3.534 -25.111 -10.602c-7.069 -7.069 -10.603 -15.439 -10.603 -25.112c0 0 0 0 0 0" />
  </g>
</svg>