<svg height="1000" width="857.143" xmlns="http://www.w3.org/2000/svg"><path d="M0 392.896v-249.984q0 -23.436 22.32 -32.922 21.762 -9.486 38.502 7.812l72.54 71.982q59.706 -56.358 136.431 -87.327t158.751 -30.969q87.048 0 166.284 34.038t136.71 91.512 91.512 136.71 34.038 166.284 -34.038 166.284 -91.512 136.71 -136.71 91.512 -166.284 34.038q-99.882 0 -187.767 -42.408t-148.428 -118.854 -82.305 -174.096q-1.674 -7.812 3.906 -15.066 5.022 -6.696 13.95 -6.696h111.042q12.834 0 16.74 12.834 27.9 90.396 103.23 145.917t169.632 55.521q58.032 0 110.763 -22.599t91.233 -61.101 61.101 -91.233 22.599 -110.763 -22.599 -110.763 -61.101 -91.233 -91.233 -61.101 -110.763 -22.599q-54.684 0 -104.904 19.809t-89.28 56.637l76.446 77.004q17.298 16.74 7.812 38.502 -9.486 22.32 -32.922 22.32h-249.984q-14.508 0 -25.11 -10.602t-10.602 -25.11z"/></svg>