<svg height="1000px" width="857.1428571428571px" xmlns="http://www.w3.org/2000/svg">
  <g>
    <path d="M0 392.85714285714283c0 0 0 -250 0 -250c0 -15.625 7.44 -26.6 22.321 -32.924c14.509 -6.325 27.344 -3.72 38.505 7.812c0 0 72.545 71.987 72.545 71.987c39.806 -37.574 85.286 -66.685 136.439 -87.333c51.154 -20.647 104.074 -30.971 158.761 -30.971c58.036 0 113.468 11.347 166.295 34.041c52.827 22.693 98.4 53.199 136.719 91.517c38.318 38.319 68.824 83.892 91.518 136.719c22.693 52.828 34.04 108.259 34.04 166.295c0 58.036 -11.347 113.467 -34.04 166.295c-22.694 52.827 -53.2 98.4 -91.518 136.718c-38.319 38.319 -83.892 68.825 -136.719 91.518c-52.827 22.694 -108.259 34.04 -166.295 34.04c-66.592 0 -129.185 -14.137 -187.779 -42.41c-58.593 -28.274 -108.073 -67.895 -148.437 -118.862c-40.365 -50.967 -67.801 -109.003 -82.31 -174.107c-1.116 -5.209 0.186 -10.231 3.906 -15.067c3.348 -4.464 7.998 -6.697 13.951 -6.697c0 0 111.049 0 111.049 0c8.556 0 14.137 4.279 16.741 12.835c18.601 60.268 53.013 108.91 103.237 145.927c50.223 37.016 106.77 55.524 169.642 55.524c38.691 0 75.614 -7.533 110.771 -22.6c35.156 -15.067 65.569 -35.436 91.238 -61.105c25.67 -25.67 46.038 -56.083 61.105 -91.239c15.067 -35.156 22.601 -72.08 22.601 -110.77c0 -38.691 -7.534 -75.614 -22.601 -110.77c-15.067 -35.156 -35.435 -65.569 -61.105 -91.239c-25.669 -25.67 -56.082 -46.038 -91.238 -61.105c-35.157 -15.067 -72.08 -22.6 -110.771 -22.6c-36.458 0 -71.428 6.603 -104.91 19.81c-33.482 13.207 -63.244 32.087 -89.286 56.64c0 0 76.451 77.009 76.451 77.009c11.533 11.161 14.137 23.996 7.812 38.505c-6.324 14.881 -17.299 22.321 -32.924 22.321c0 0 -250 0 -250 0c-9.672 0 -18.043 -3.534 -25.111 -10.602c-7.069 -7.069 -10.603 -15.439 -10.603 -25.112c0 0 0 0 0 0" />
  </g>
</svg>