<svg height="1000" width="857.1" xmlns="http://www.w3.org/2000/svg"><path d="M0 392.9v-250q0-23.4 22.3-32.9 21.8-9.5 38.5 7.8l72.5 72q59.7-56.4 136.4-87.3t158.8-31q87 0 166.3 34t136.7 91.5 91.5 136.7 34 166.3-34 166.3-91.5 136.7-136.7 91.5-166.3 34q-99.9 0-187.8-42.4t-148.4-118.9-82.3-174.1q-1.7-7.8 3.9-15.1 5-6.7 14-6.7h111q12.8 0 16.7 12.8 27.9 90.4 103.2 145.9t169.6 55.5q58 0 110.8-22.6t91.2-61.1 61.1-91.2 22.6-110.8-22.6-110.8-61.1-91.2-91.2-61.1-110.8-22.6q-54.7 0-104.9 19.8t-89.3 56.6l76.4 77q17.3 16.7 7.8 38.5-9.5 22.3-32.9 22.3h-250q-14.5 0-25.1-10.6t-10.6-25.1z"/></svg>