<svg height="1000" width="857.143" xmlns="http://www.w3.org/2000/svg"><path d="M857.088 500.032q0 87.048 -34.038 166.284t-91.512 136.71 -136.71 91.512 -166.284 34.038q-95.976 0 -182.466 -40.455t-147.312 -114.111q-3.906 -5.58 -3.627 -12.555t4.743 -11.439l76.446 -77.004q5.58 -5.022 13.95 -5.022 8.928 1.116 12.834 6.696 40.734 53.01 99.882 82.026t125.55 29.016q58.032 0 110.763 -22.599t91.233 -61.101 61.101 -91.233 22.599 -110.763 -22.599 -110.763 -61.101 -91.233 -91.233 -61.101 -110.763 -22.599q-54.684 0 -104.904 19.809t-89.28 56.637l76.446 77.004q17.298 16.74 7.812 38.502 -9.486 22.32 -32.922 22.32h-249.984q-14.508 0 -25.11 -10.602t-10.602 -25.11v-249.984q0 -23.436 22.32 -32.922 21.762 -9.486 38.502 7.812l72.54 71.982q59.706 -56.358 136.431 -87.327t158.751 -30.969q87.048 0 166.284 34.038t136.71 91.512 91.512 136.71 34.038 166.284z"/></svg>