<svg height="1000" width="857.143" xmlns="http://www.w3.org/2000/svg"><path d="M767.808 500.032l77.004 75.33q16.74 15.624 11.16 39.06 -6.696 22.878 -29.016 28.458l-104.904 26.784 29.574 103.788q6.696 22.878 -10.602 39.06 -16.182 17.298 -39.06 10.602l-103.788 -29.574 -26.784 104.904q-5.58 22.32 -28.458 29.016 -6.696 1.116 -10.602 1.116 -17.298 0 -28.458 -12.276l-75.33 -77.004 -75.33 77.004q-15.624 16.74 -39.06 11.16 -22.878 -6.138 -28.458 -29.016l-26.784 -104.904 -103.788 29.574q-22.878 6.696 -39.06 -10.602 -17.298 -16.182 -10.602 -39.06l29.574 -103.788 -104.904 -26.784q-22.32 -5.58 -29.016 -28.458 -5.58 -23.436 11.16 -39.06l77.004 -75.33 -77.004 -75.33q-16.74 -15.624 -11.16 -39.06 6.696 -22.878 29.016 -28.458l104.904 -26.784 -29.574 -103.788q-6.696 -22.878 10.602 -39.06 16.182 -17.298 39.06 -10.602l103.788 29.574 26.784 -104.904q5.58 -22.878 28.458 -28.458 22.878 -6.696 39.06 10.602l75.33 77.562 75.33 -77.562q16.182 -16.74 39.06 -10.602 22.878 5.58 28.458 28.458l26.784 104.904 103.788 -29.574q22.878 -6.696 39.06 10.602 17.298 16.182 10.602 39.06l-29.574 103.788 104.904 26.784q22.32 5.58 29.016 28.458 5.58 23.436 -11.16 39.06z"/></svg>