<svg height="1000px" width="779.78515625px" xmlns="http://www.w3.org/2000/svg">
  <g>
    <path d="M0 595.21484375c0 -10.742 3.743 -19.857 11.23 -27.344c0 0 69.825 -67.871 69.825 -67.871c0 0 -69.825 -67.871 -69.825 -67.871c-7.487 -7.487 -11.23 -16.601 -11.23 -27.344c0 -8.138 2.686 -15.462 8.057 -21.972c5.371 -6.511 11.963 -10.743 19.775 -12.696c0 0 95.215 -23.925 95.215 -23.925c-1.953 -5.86 -4.476 -13.672 -7.568 -23.438c-3.093 -9.766 -6.104 -19.694 -9.034 -29.785c-2.929 -10.091 -5.534 -19.775 -7.812 -29.053c-2.279 -9.277 -3.418 -16.846 -3.418 -22.705c0 -10.091 3.499 -18.636 10.498 -25.635c6.999 -6.998 15.381 -10.498 25.146 -10.498c5.86 0 13.509 1.14 22.95 3.418c9.44 2.279 19.205 4.964 29.296 8.057c10.092 3.092 19.939 6.103 29.541 9.033c9.603 2.93 17.334 5.371 23.194 7.324c0 0 23.926 -94.726 23.926 -94.726c1.953 -8.138 6.347 -14.893 13.183 -20.264c6.836 -5.371 14.16 -8.057 21.973 -8.057c11.393 0 20.019 3.744 25.879 11.231c0 0 69.336 69.824 69.336 69.824c0 0 67.871 -69.824 67.871 -69.824c7.487 -7.487 16.113 -11.231 25.879 -11.231c8.789 0 16.52 2.523 23.193 7.569c6.673 5.045 10.986 11.963 12.94 20.752c0 0 23.925 94.726 23.925 94.726c5.86 -1.953 13.672 -4.394 23.438 -7.324c9.765 -2.93 19.612 -5.941 29.541 -9.033c9.928 -3.093 19.612 -5.778 29.053 -8.057c9.44 -2.278 17.089 -3.418 22.949 -3.418c9.44 0 17.822 3.5 25.146 10.498c7.324 6.999 10.987 15.544 10.987 25.635c0 5.859 -1.14 13.428 -3.418 22.705c-2.279 9.278 -4.965 18.962 -8.057 29.053c-3.092 10.091 -6.104 19.938 -9.033 29.541c-2.93 9.603 -5.371 17.497 -7.324 23.682c0 0 94.726 23.925 94.726 23.925c8.138 1.953 14.811 6.267 20.02 12.94c5.208 6.673 7.812 13.916 7.812 21.728c0 10.743 -3.581 19.857 -10.742 27.344c0 0 -70.801 67.871 -70.801 67.871c0 0 70.801 67.871 70.801 67.871c7.487 7.487 11.068 16.602 10.742 27.344c0 8.138 -2.604 15.462 -7.812 21.973c-5.209 6.51 -11.882 10.742 -20.02 12.695c0 0 -94.726 23.926 -94.726 23.926c1.953 5.859 4.394 13.672 7.324 23.437c2.929 9.766 5.941 19.694 9.033 29.785c3.092 10.092 5.778 19.776 8.057 29.053c2.278 9.277 3.418 16.846 3.418 22.705c0 9.44 -3.5 17.822 -10.498 25.147c-6.999 7.324 -15.544 10.986 -25.635 10.986c-5.86 0 -13.509 -1.139 -22.949 -3.418c-9.441 -2.279 -19.125 -4.964 -29.053 -8.057c-9.929 -3.092 -19.694 -6.103 -29.297 -9.033c-9.603 -2.929 -17.497 -5.371 -23.682 -7.324c0 0 -23.925 94.727 -23.925 94.727c-1.954 8.138 -6.267 14.892 -12.94 20.263c-6.673 5.371 -14.079 8.057 -22.217 8.057c-10.742 0 -19.694 -3.744 -26.855 -11.231c0 0 -67.871 -69.824 -67.871 -69.824c0 0 -69.336 69.824 -69.336 69.824c-5.86 7.487 -14.486 11.231 -25.879 11.231c-8.138 0 -15.462 -2.686 -21.973 -8.057c-6.51 -5.371 -10.905 -12.125 -13.183 -20.263c0 0 -23.926 -94.727 -23.926 -94.727c-5.86 1.953 -13.591 4.395 -23.194 7.324c-9.602 2.93 -19.449 5.941 -29.541 9.033c-10.091 3.093 -19.775 5.778 -29.052 8.057c-9.278 2.279 -17.009 3.418 -23.194 3.418c-10.091 0 -18.554 -3.662 -25.39 -10.986c-6.836 -7.325 -10.254 -15.707 -10.254 -25.147c0 -5.859 1.139 -13.428 3.418 -22.705c2.278 -9.277 4.883 -18.961 7.812 -29.053c2.93 -10.091 5.941 -19.938 9.034 -29.541c3.092 -9.602 5.615 -17.496 7.568 -23.681c0 0 -95.215 -23.926 -95.215 -23.926c-8.138 -1.953 -14.811 -6.266 -20.019 -12.939c-5.209 -6.674 -7.813 -13.916 -7.813 -21.729c0 0 0 0 0 0" />
  </g>
</svg>