<svg height="1000px" width="857.1428571428571px" xmlns="http://www.w3.org/2000/svg">
  <g>
    <path d="M767.8571428571429 499.99999999999994c0 0 77.009 75.335 77.009 75.335c11.161 10.044 14.695 22.879 10.603 38.504c-4.093 15.625 -13.579 25.298 -28.46 29.018c0 0 -104.911 26.786 -104.911 26.786c0 0 29.576 103.794 29.576 103.794c4.464 15.253 0.93 28.274 -10.603 39.063c-10.788 11.533 -23.809 15.067 -39.062 10.603c0 0 -103.795 -29.576 -103.795 -29.576c0 0 -26.786 104.911 -26.786 104.911c-3.72 14.88 -13.206 24.553 -28.459 29.017c-4.465 0.744 -10.231 1.116 -17.3 1.116c-7.068 0 -14.322 -4.092 -21.763 -12.276c0 0 -75.335 -77.009 -75.335 -77.009c0 0 -75.335 77.009 -75.335 77.009c-10.416 11.16 -23.437 14.881 -39.062 11.16c-15.253 -4.092 -24.74 -13.765 -28.46 -29.017c0 0 -26.786 -104.911 -26.786 -104.911c0 0 -103.794 29.576 -103.794 29.576c-15.253 4.464 -28.274 0.93 -39.063 -10.603c-11.532 -10.789 -15.067 -23.81 -10.602 -39.062c0 0 29.575 -103.795 29.575 -103.795c0 0 -104.91 -26.786 -104.91 -26.786c-14.881 -3.72 -24.368 -13.393 -28.46 -29.018c-4.092 -15.625 -0.558 -28.46 10.603 -38.504c0 0 77.009 -75.335 77.009 -75.335c0 0 -77.009 -75.335 -77.009 -75.335c-11.161 -10.044 -14.695 -22.879 -10.603 -38.504c4.092 -15.625 13.579 -25.298 28.46 -29.018c0 0 104.91 -26.786 104.91 -26.786c0 0 -29.575 -103.794 -29.575 -103.794c-4.465 -15.253 -0.93 -28.274 10.602 -39.063c10.789 -11.533 23.81 -15.067 39.063 -10.603c0 0 103.794 29.576 103.794 29.576c0 0 26.786 -104.91 26.786 -104.91c3.72 -15.253 13.207 -24.74 28.46 -28.46c15.253 -4.465 28.274 -0.93 39.062 10.602c0 0 75.335 77.567 75.335 77.567c0 0 75.335 -77.567 75.335 -77.567c10.789 -11.16 23.81 -14.881 39.063 -11.16c15.253 3.72 24.739 13.393 28.459 29.018c0 0 26.786 104.91 26.786 104.91c0 0 103.795 -29.576 103.795 -29.576c15.253 -4.464 28.274 -0.93 39.062 10.603c11.533 10.789 15.067 23.81 10.603 39.063c0 0 -29.576 103.794 -29.576 103.794c0 0 104.911 26.786 104.911 26.786c14.881 3.72 24.367 13.393 28.46 29.018c4.092 15.625 0.558 28.46 -10.603 38.504c0 0 -77.009 75.335 -77.009 75.335" />
  </g>
</svg>