<svg height="1000px" width="857.1428571428571px" xmlns="http://www.w3.org/2000/svg">
  <g>
    <path d="M0.027221261160714286 601.8655133928571c0 -10.337 4.083 -19.181 12.25 -26.531c0 0 77.008 -75.335 77.008 -75.335c0 0 -77.008 -75.334 -77.008 -75.334c-8.167 -7.35 -12.25 -16.194 -12.25 -26.531c0 -3.791 0.549 -7.782 1.647 -11.974c4.092 -15.625 13.579 -25.297 28.46 -29.018c0 0 104.91 -26.785 104.91 -26.785c0 0 -29.575 -103.795 -29.575 -103.795c-1.246 -4.257 -1.869 -8.34 -1.869 -12.249c0 -10.098 4.157 -19.036 12.471 -26.814c7.778 -8.314 16.716 -12.471 26.814 -12.471c3.909 0 7.992 0.623 12.249 1.869c0 0 103.794 29.576 103.794 29.576c0 0 26.786 -104.911 26.786 -104.911c3.72 -15.253 13.207 -24.74 28.46 -28.46c4.256 -1.246 8.339 -1.869 12.248 -1.869c10.098 0 19.037 4.157 26.814 12.472c0 0 75.335 77.567 75.335 77.567c0 0 75.335 -77.567 75.335 -77.567c8.092 -8.371 17.439 -12.556 28.041 -12.556c3.535 0 7.208 0.465 11.022 1.395c15.252 3.72 24.739 13.393 28.459 29.018c0 0 26.786 104.911 26.786 104.911c0 0 103.795 -29.576 103.795 -29.576c4.256 -1.246 8.339 -1.869 12.248 -1.869c10.098 0 19.036 4.157 26.814 12.471c8.315 7.778 12.472 16.716 12.472 26.815c0 3.908 -0.623 7.991 -1.869 12.248c0 0 -29.576 103.795 -29.576 103.795c0 0 104.911 26.785 104.911 26.785c14.881 3.721 24.367 13.393 28.46 29.018c1.097 4.192 1.646 8.183 1.646 11.974c0 10.337 -4.083 19.181 -12.249 26.531c0 0 -77.009 75.334 -77.009 75.334c0 0 77.009 75.335 77.009 75.335c8.166 7.35 12.249 16.194 12.249 26.531c0 3.79 -0.549 7.782 -1.646 11.974c-4.093 15.625 -13.579 25.297 -28.46 29.018c0 0 -104.911 26.785 -104.911 26.785c0 0 29.576 103.795 29.576 103.795c1.246 4.257 1.869 8.339 1.869 12.248c0 10.099 -4.157 19.037 -12.472 26.814c-7.778 8.315 -16.716 12.472 -26.814 12.472c-3.909 0 -7.992 -0.623 -12.248 -1.869c0 0 -103.795 -29.576 -103.795 -29.576c0 0 -26.786 104.911 -26.786 104.911c-3.72 14.881 -13.207 24.553 -28.459 29.018c-4.465 0.744 -10.231 1.116 -17.3 1.116c-7.068 0 -14.323 -4.092 -21.763 -12.277c0 0 -75.335 -77.009 -75.335 -77.009c0 0 -75.335 77.009 -75.335 77.009c-7.812 8.371 -17.089 12.556 -27.832 12.556c-3.58 0 -7.324 -0.465 -11.23 -1.395c-15.253 -4.092 -24.74 -13.765 -28.46 -29.018c0 0 -26.786 -104.911 -26.786 -104.911c0 0 -103.794 29.576 -103.794 29.576c-4.257 1.246 -8.34 1.869 -12.249 1.869c-10.098 0 -19.036 -4.157 -26.814 -12.472c-8.314 -7.777 -12.471 -16.715 -12.471 -26.814c0 -3.909 0.623 -7.991 1.869 -12.248c0 0 29.575 -103.795 29.575 -103.795c0 0 -104.91 -26.785 -104.91 -26.785c-14.881 -3.721 -24.368 -13.393 -28.46 -29.018c-1.098 -4.192 -1.647 -8.184 -1.647 -11.974c0 0 0 0 0 0" />
  </g>
</svg>