<svg height="1000px" width="857.1428571428571px" xmlns="http://www.w3.org/2000/svg">
  <g>
    <path d="M1.1160714285714286 614.3973214285713c-3.72 -15.625 0 -28.646 11.161 -39.063c0 0 77.009 -75.334 77.009 -75.334c0 0 -77.009 -75.335 -77.009 -75.335c-11.161 -10.417 -14.881 -23.438 -11.161 -39.063c4.464 -15.253 14.137 -24.739 29.018 -28.459c0 0 104.911 -26.786 104.911 -26.786c0 0 -29.576 -103.795 -29.576 -103.795c-4.465 -15.253 -0.93 -28.274 10.602 -39.062c10.789 -11.533 23.81 -15.067 39.063 -10.603c0 0 103.795 29.576 103.795 29.576c0 0 26.785 -104.911 26.785 -104.911c3.72 -15.253 13.207 -24.739 28.46 -28.46c15.253 -4.464 28.274 -0.93 39.063 10.603c0 0 75.334 77.567 75.334 77.567c0 0 75.335 -77.567 75.335 -77.567c10.789 -11.161 23.81 -14.695 39.063 -10.603c15.253 3.721 24.739 13.207 28.46 28.46c0 0 26.785 104.911 26.785 104.911c0 0 103.795 -29.576 103.795 -29.576c15.253 -4.464 28.274 -0.93 39.062 10.603c11.533 10.788 15.067 23.809 10.603 39.062c0 0 -29.576 103.795 -29.576 103.795c0 0 104.911 26.786 104.911 26.786c14.881 3.72 24.553 13.206 29.018 28.459c3.72 15.625 0 28.646 -11.161 39.063c0 0 -77.009 75.335 -77.009 75.335c0 0 77.009 75.334 77.009 75.334c11.161 10.417 14.881 23.438 11.161 39.063c-4.465 15.253 -14.137 24.74 -29.018 28.46c0 0 -104.911 26.786 -104.911 26.786c0 0 29.576 103.794 29.576 103.794c4.464 15.253 0.93 28.274 -10.603 39.063c-10.788 11.532 -23.809 15.067 -39.062 10.602c0 0 -103.795 -29.576 -103.795 -29.576c0 0 -26.785 104.911 -26.785 104.911c-3.721 14.881 -13.207 24.554 -28.46 29.018c-4.465 0.744 -7.999 1.116 -10.603 1.116c-11.533 0 -21.019 -4.092 -28.46 -12.277c0 0 -75.335 -77.009 -75.335 -77.009c0 0 -75.334 77.009 -75.334 77.009c-10.417 11.161 -23.438 14.881 -39.063 11.161c-15.253 -4.092 -24.74 -13.765 -28.46 -29.018c0 0 -26.786 -104.911 -26.786 -104.911c0 0 -103.794 29.576 -103.794 29.576c-15.253 4.465 -28.274 0.93 -39.063 -10.602c-11.532 -10.789 -15.067 -23.81 -10.602 -39.063c0 0 29.576 -103.794 29.576 -103.794c0 0 -104.911 -26.786 -104.911 -26.786c-14.881 -3.72 -24.554 -13.207 -29.018 -28.46c0 0 0 0 0 0" />
  </g>
</svg>