<svg height="1000" width="857.1" xmlns="http://www.w3.org/2000/svg"><path d="M1.1 614.4q-5.6-23.4 11.2-39.1l77-75.3-77-75.3q-16.7-15.6-11.2-39.1 6.7-22.9 29-28.5l104.9-26.8-29.6-103.8q-6.7-22.9 10.6-39.1 16.2-17.3 39.1-10.6l103.8 29.6 26.8-104.9q5.6-22.9 28.5-28.5 22.9-6.7 39.1 10.6l75.3 77.6 75.3-77.6q16.2-16.7 39.1-10.6 22.9 5.6 28.5 28.5l26.8 104.9 103.8-29.6q22.9-6.7 39.1 10.6 17.3 16.2 10.6 39.1l-29.6 103.8 104.9 26.8q22.3 5.6 29 28.5 5.6 23.4-11.2 39.1l-77 75.3 77 75.3q16.7 15.6 11.2 39.1-6.7 22.9-29 28.5l-104.9 26.8 29.6 103.8q6.7 22.9-10.6 39.1-16.2 17.3-39.1 10.6l-103.8-29.6-26.8 104.9q-5.6 22.3-28.5 29-6.7 1.1-10.6 1.1-17.3 0-28.5-12.3l-75.3-77-75.3 77q-15.6 16.7-39.1 11.2-22.9-6.1-28.5-29l-26.8-104.9-103.8 29.6q-22.9 6.7-39.1-10.6-17.3-16.2-10.6-39.1l29.6-103.8-104.9-26.8q-22.3-5.6-29-28.5z"/></svg>