<svg height="1000" width="1071.429" xmlns="http://www.w3.org/2000/svg"><path d="M0 839.296v-678.528q0 -36.828 26.226 -63.054t63.054 -26.226h892.8q36.828 0 63.054 26.226t26.226 63.054v678.528q0 36.828 -26.226 63.054t-63.054 26.226h-892.8q-36.828 0 -63.054 -26.226t-26.226 -63.054zm71.424 0q0 7.254 5.301 12.555t12.555 5.301h892.8q7.254 0 12.555 -5.301t5.301 -12.555v-678.528q0 -7.254 -5.301 -12.555t-12.555 -5.301h-892.8q-7.254 0 -12.555 5.301t-5.301 12.555v678.528zm71.424 -53.568v-214.272h142.848v214.272h-142.848zm214.272 0v-499.968h142.848v499.968h-142.848zm214.272 0v-357.12h142.848v357.12h-142.848zm214.272 0v-571.392h142.848v571.392h-142.848z"/></svg>