<svg height="1000" width="1142.857" xmlns="http://www.w3.org/2000/svg"><path d="M1142.784 857.152v71.424h-1142.784v-857.088h71.424v785.664h1071.36zm-71.424 -696.384v242.73q0 11.718 -10.881 16.461t-19.809 -4.185l-67.518 -67.518 -353.214 353.214q-5.58 5.58 -12.834 5.58t-12.834 -5.58l-130.014 -130.014 -232.128 232.128 -107.136 -107.136 326.43 -326.43q5.58 -5.58 12.834 -5.58t12.834 5.58l130.014 130.014 258.912 -258.912 -67.518 -67.518q-8.928 -8.928 -4.185 -19.809t16.461 -10.881h242.73q7.812 0 12.834 5.022t5.022 12.834z"/></svg>