<svg height="1000px" width="900px" xmlns="http://www.w3.org/2000/svg">
  <g>
    <path d="M0 819c0 0 0 -638 0 -638c0 -15.333 5.667 -28.5 17 -39.5c11.333 -11 24.667 -16.5 40 -16.5c0 0 787 0 787 0c15.333 0 28.5 5.5 39.5 16.5c11 11 16.5 24.167 16.5 39.5c0 0 0 638 0 638c0 15.333 -5.5 28.5 -16.5 39.5c-11 11 -24.167 16.5 -39.5 16.5c0 0 -787 0 -787 0c-15.333 0 -28.667 -5.5 -40 -16.5c-11.333 -11 -17 -24.167 -17 -39.5c0 0 0 0 0 0m75 -19c0 0 750 0 750 0c0 0 0 -600 0 -600c0 0 -750 0 -750 0c0 0 0 600 0 600c0 0 0 0 0 0m75 -54c0 0 0 -177 0 -177c0 0 99 0 99 0c0 0 0 177 0 177c0 0 -99 0 -99 0c0 0 0 0 0 0m167 0c0 0 0 -379 0 -379c0 0 98 0 98 0c0 0 0 379 0 379c0 0 -98 0 -98 0c0 0 0 0 0 0m168 0c0 0 0 -289 0 -289c0 0 99 0 99 0c0 0 0 289 0 289c0 0 -99 0 -99 0c0 0 0 0 0 0m166 0c0 0 0 -450 0 -450c0 0 99 0 99 0c0 0 0 450 0 450c0 0 -99 0 -99 0c0 0 0 0 0 0" />
  </g>
</svg>