<svg height="1000px" width="899.90234375px" xmlns="http://www.w3.org/2000/svg">
  <g>
    <path d="M0 818.84765625c0 0 0 -637.695 0 -637.695c0 -15.3 5.697 -28.483 17.09 -39.551c11.393 -11.068 24.739 -16.602 40.039 -16.602c0 0 787.109 0 787.109 0c15.3 0 28.402 5.534 39.307 16.602c10.905 11.068 16.357 24.251 16.357 39.551c0 0 0 637.695 0 637.695c0 15.299 -5.452 28.483 -16.357 39.551c-10.905 11.067 -24.007 16.601 -39.307 16.601c0 0 -787.109 0 -787.109 0c-15.3 0 -28.646 -5.534 -40.039 -16.601c-11.393 -11.068 -17.09 -24.252 -17.09 -39.551c0 0 0 0 0 0m75.195 -19.043c0 0 750 0 750 0c0 0 0 -599.609 0 -599.609c0 0 -750 0 -750 0c0 0 0 599.609 0 599.609c0 0 0 0 0 0m74.707 -53.711c0 0 0 -177.246 0 -177.246c0 0 99.121 0 99.121 0c0 0 0 177.246 0 177.246c0 0 -99.121 0 -99.121 0c0 0 0 0 0 0m166.993 0c0 0 0 -378.906 0 -378.906c0 0 98.144 0 98.144 0c0 0 0 378.906 0 378.906c0 0 -98.144 0 -98.144 0c0 0 0 0 0 0m167.968 0c0 0 0 -289.062 0 -289.062c0 0 99.121 0 99.121 0c0 0 0 289.062 0 289.062c0 0 -99.121 0 -99.121 0c0 0 0 0 0 0m166.016 0c0 0 0 -450.195 0 -450.195c0 0 99.121 0 99.121 0c0 0 0 450.195 0 450.195c0 0 -99.121 0 -99.121 0c0 0 0 0 0 0" />
  </g>
</svg>