<svg height="1000" width="1071.4" xmlns="http://www.w3.org/2000/svg"><path d="M0 839.3v-678.5q0-36.8 26.2-63.1t63.1-26.2h892.8q36.8 0 63.1 26.2t26.2 63.1v678.5q0 36.8-26.2 63.1t-63.1 26.2h-892.8q-36.8 0-63.1-26.2t-26.2-63.1zm71.4 0q0 7.3 5.3 12.6t12.6 5.3h892.8q7.3 0 12.6-5.3t5.3-12.6v-678.5q0-7.3-5.3-12.6t-12.6-5.3h-892.8q-7.3 0-12.6 5.3t-5.3 12.6v678.5zm71.4-53.6v-214.3h142.8v214.3h-142.8zm214.3 0v-500h142.8v500h-142.8zm214.3 0v-357.1h142.8v357.1h-142.8zm214.3 0v-571.4h142.8v571.4h-142.8z"/></svg>