<svg height="1000px" width="935.546875px" xmlns="http://www.w3.org/2000/svg">
  <g>
    <path d="M0 388.18359375c0 -31.901 6.51 -61.605 19.531 -89.111c13.021 -27.507 30.355 -52.084 52.002 -73.731c21.647 -21.647 46.143 -40.12 73.487 -55.42c27.343 -15.299 55.013 -27.669 83.007 -37.109c24.74 -8.138 49.886 -13.997 75.44 -17.578c25.553 -3.581 51.025 -5.371 76.416 -5.371c26.041 0 51.92 1.871 77.637 5.615c25.716 3.743 50.944 9.521 75.683 17.334c27.995 9.44 55.664 21.81 83.008 37.109c27.344 15.3 51.676 33.773 72.998 55.42c21.322 21.647 38.411 46.143 51.27 73.487c12.858 27.343 19.287 57.128 19.287 89.355c0 31.901 -6.429 61.523 -19.287 88.867c-12.859 27.344 -29.948 51.677 -51.27 72.998c-21.322 21.322 -45.654 39.795 -72.998 55.42c-27.344 15.625 -55.013 28.158 -83.008 37.598c-50.13 15.299 -101.237 22.949 -153.32 22.949c-12.044 0 -23.845 -0.488 -35.401 -1.465c-11.556 -0.976 -23.356 -2.116 -35.4 -3.418c-48.828 37.435 -103.516 62.663 -164.062 75.684c-6.511 1.302 -13.51 2.848 -20.997 4.638c-7.487 1.791 -14.811 2.686 -21.972 2.686c-3.906 0 -7.406 -1.546 -10.498 -4.639c-3.093 -3.092 -4.639 -6.917 -4.639 -11.474c0 -3.255 1.221 -6.104 3.662 -8.545c0 0 6.592 -6.592 6.592 -6.592c16.602 -16.602 28.402 -32.227 35.4 -46.875c6.999 -14.648 12.777 -33.691 17.334 -57.129c-20.507 -11.393 -39.795 -24.739 -57.861 -40.039c-18.066 -15.299 -33.936 -32.226 -47.607 -50.781c-13.672 -18.555 -24.496 -38.737 -32.471 -60.547c-7.975 -21.81 -11.963 -44.922 -11.963 -69.336c0 0 0 0 0 0m78.125 0c0 23.438 4.964 44.108 14.893 62.012c9.928 17.903 22.542 34.017 37.841 48.34c15.3 14.322 32.308 27.018 51.026 38.086c18.717 11.067 37.028 21.484 54.931 31.25c0 0 -9.765 54.199 -9.765 54.199c10.742 -5.86 21.077 -12.696 31.006 -20.508c9.928 -7.813 19.612 -15.3 29.052 -22.461c15.3 1.953 30.762 3.906 46.387 5.859c15.625 1.953 31.087 2.93 46.387 2.93c43.945 0 86.914 -6.673 128.906 -20.019c19.857 -5.86 40.039 -14.323 60.547 -25.391c20.508 -11.068 39.062 -24.251 55.664 -39.551c16.602 -15.299 30.273 -32.471 41.016 -51.514c10.742 -19.043 16.113 -40.12 16.113 -63.232c0 -23.437 -5.371 -44.84 -16.113 -64.209c-10.743 -19.368 -24.414 -36.54 -41.016 -51.514c-16.602 -14.974 -35.075 -27.994 -55.42 -39.062c-20.345 -11.068 -40.609 -19.531 -60.791 -25.391c-20.508 -7.487 -41.585 -12.695 -63.232 -15.625c-21.647 -2.929 -43.539 -4.394 -65.674 -4.394c-21.485 0 -42.969 1.465 -64.453 4.394c-21.485 2.93 -42.969 8.138 -64.453 15.625c-19.206 5.86 -39.144 14.323 -59.815 25.391c-20.67 11.068 -39.388 24.088 -56.152 39.062c-16.765 14.974 -30.436 32.146 -41.016 51.514c-10.579 19.369 -15.869 40.772 -15.869 64.209c0 0 0 0 0 0m238.77 360.84c0 0 13.183 -7.813 13.183 -7.813c16.602 1.953 33.203 2.93 49.805 2.93c64.127 0 126.139 -10.091 186.035 -30.273c36.133 -12.045 70.475 -28.239 103.027 -48.584c32.552 -20.345 61.361 -44.353 86.426 -72.022c25.065 -27.669 45.085 -58.594 60.059 -92.773c14.974 -34.18 22.461 -71.615 22.461 -112.305c0 -13.346 -0.977 -27.018 -2.93 -41.016c29.297 23.438 53.467 50.944 72.51 82.52c19.043 31.575 28.564 66.406 28.564 104.492c0 24.74 -3.987 47.933 -11.963 69.58c-7.975 21.647 -18.799 41.748 -32.47 60.303c-13.672 18.555 -29.541 35.482 -47.608 50.781c-18.066 15.3 -37.353 28.646 -57.861 40.039c4.557 23.438 10.335 42.481 17.334 57.129c6.998 14.649 18.799 30.274 35.4 46.875c1.953 1.953 4.151 4.313 6.592 7.08c2.441 2.767 3.662 5.778 3.662 9.033c0 5.209 -1.709 9.034 -5.127 11.475c-3.418 2.441 -7.405 3.662 -11.963 3.662c-6.51 0 -13.509 -0.895 -20.996 -2.685c-7.487 -1.791 -14.16 -3.337 -20.019 -4.639c-60.547 -13.346 -115.235 -38.574 -164.063 -75.684c-12.044 1.302 -23.844 2.442 -35.4 3.418c-11.556 0.977 -23.356 1.465 -35.401 1.465c-41.992 0 -83.333 -5.208 -124.023 -15.625c-40.69 -10.417 -79.102 -26.204 -115.234 -47.363c0 0 0 0 0 0" />
  </g>
</svg>