<svg height="1000px" width="1000px" xmlns="http://www.w3.org/2000/svg">
  <g>
    <path d="M958.1473214285714 443.0803571428571c27.902 39.807 41.853 82.31 41.853 127.511c0 45.201 -13.207 87.24 -39.621 126.116c-26.414 38.877 -62.686 71.708 -108.817 98.494c8.185 19.345 15.811 33.575 22.88 42.689c7.068 9.115 12.09 15.625 15.067 19.532c2.976 3.906 7.812 9.393 14.509 16.462c6.696 7.068 10.602 11.253 11.718 12.555c0 0 3.349 3.907 3.349 3.907c0 0 0.837 0.93 2.511 2.79c1.674 1.86 2.418 2.79 2.232 2.79c-0.186 0 0.465 1.023 1.953 3.069c1.86 3.72 2.79 6.604 2.79 8.65c0 2.046 -0.372 4.65 -1.116 7.812c-0.744 3.162 -2.976 6.232 -6.696 9.208c-3.721 2.976 -7.813 4.278 -12.277 3.906c-74.777 -10.417 -142.485 -37.202 -203.125 -80.357c-33.482 5.952 -66.22 8.929 -98.214 8.929c-100.819 0 -188.617 -24.554 -263.393 -73.661c21.577 1.488 37.946 2.232 49.107 2.232c123.884 0 230.469 -32.366 319.754 -97.098c46.503 -34.226 82.218 -73.661 107.143 -118.304c24.926 -44.643 37.389 -91.89 37.389 -141.741c0 -28.646 -4.279 -56.92 -12.835 -84.821c47.991 26.413 85.937 59.523 113.839 99.33c0 0 0 0 0 0m-663.504 262.277c-60.64 43.155 -128.349 69.94 -203.125 80.357c0 0 -1.675 0 -1.675 0c-4.092 0 -7.905 -1.488 -11.439 -4.464c-3.535 -2.977 -5.581 -5.953 -6.139 -8.929c-0.558 -2.976 -0.837 -5.115 -0.837 -6.417c0 -1.302 0.093 -2.511 0.279 -3.628c-0.186 -1.116 0.093 -2.232 0.837 -3.348c2.232 -4.092 3.907 -6.696 5.023 -7.812c1.116 -1.116 2.232 -2.325 3.348 -3.628c0 0 3.348 -3.906 3.348 -3.906c0 0 3.906 -4.185 11.719 -12.556c7.812 -8.37 12.649 -13.857 14.509 -16.462c1.86 -2.604 5.952 -7.905 12.277 -15.904c8.928 -11.16 17.485 -26.599 25.669 -46.317c-46.131 -26.785 -82.403 -59.709 -108.817 -98.772c-26.413 -39.062 -39.62 -82.589 -39.62 -130.58c0 -47.991 17.485 -93.936 52.455 -137.835c34.97 -43.899 82.682 -78.59 143.136 -104.074c60.454 -25.483 126.209 -38.225 197.266 -38.225c71.056 0 136.812 12.742 197.265 38.225c60.454 25.484 108.166 60.175 143.137 104.074c34.97 43.899 52.455 91.704 52.455 143.415c0 51.711 -17.485 99.516 -52.455 143.415c-34.971 43.899 -82.683 78.59 -143.137 104.074c-60.453 25.484 -126.209 38.225 -197.265 38.225c-31.994 0 -64.732 -2.976 -98.214 -8.928c0 0 0 0 0 0" />
  </g>
</svg>