<svg height="1000px" width="900px" xmlns="http://www.w3.org/2000/svg">
  <g>
    <path d="M0 391.8888895511627c0 -36.667 9.667 -71.167 29 -103.5c19.333 -32.333 45.5 -60.667 78.5 -85c33 -24.333 71.667 -43.5 116 -57.5c44.333 -14 91.833 -21 142.5 -21c50.667 0 98.167 7 142.5 21c44.333 14 83 33.167 116 57.5c33 24.333 59 52.667 78 85c19 32.333 28.5 66.833 28.5 103.5c0 37.333 -9.5 72.167 -28.5 104.5c-19 32.333 -45 60.5 -78 84.5c-33 24 -71.667 43 -116 57c-44.333 14 -91.833 21 -142.5 21c-12 0 -23.667 -0.5 -35 -1.5c-11.333 -1 -22.667 -2.167 -34 -3.5c-22.667 17.333 -47 32.333 -73 45c-26 12.667 -54 22.333 -84 29c-13.333 3.333 -26.667 5.333 -40 6c-8 1.333 -13.333 -2.333 -16 -11c0 0 0 -1 0 -1c-1.333 -3.333 -0.833 -6.333 1.5 -9c2.333 -2.667 4.833 -5.333 7.5 -8c11.333 -11.333 21.333 -23.667 30 -37c8.667 -13.333 15.667 -34.667 21 -64c-44 -24 -79 -54.333 -105 -91c-26 -36.667 -39 -77 -39 -121c0 0 0 0 0 0m305 347c5.333 -2.667 9.333 -5 12 -7c8.667 1.333 17 2 25 2c0 0 24 0 24 0c62 0 119.667 -8.833 173 -26.5c53.333 -17.667 99.833 -41.833 139.5 -72.5c39.667 -30.667 70.833 -66.833 93.5 -108.5c22.667 -41.667 34 -86.5 34 -134.5c0 -12.667 -1 -25.667 -3 -39c30 24 53.667 51.167 71 81.5c17.333 30.333 26 63.167 26 98.5c0 44 -13 84.167 -39 120.5c-26 36.333 -61 66.833 -105 91.5c5.333 29.333 12.333 50.5 21 63.5c8.667 13 18.667 25.167 30 36.5c2.667 3.333 5.167 6.333 7.5 9c2.333 2.667 2.833 5.667 1.5 9c-0.667 4 -2.667 7.167 -6 9.5c-3.333 2.333 -6.667 3.167 -10 2.5c-7.333 -1.333 -14.167 -2.5 -20.5 -3.5c-6.333 -1 -12.833 -2.167 -19.5 -3.5c-58.667 -12.667 -111 -37 -157 -73c-11.333 1.333 -22.667 2.5 -34 3.5c-11.333 1 -23 1.5 -35 1.5c-44 0 -85.167 -5.333 -123.5 -16c-38.333 -10.667 -73.5 -25.667 -105.5 -45c0 0 0 0 0 0" />
  </g>
</svg>