<svg height="1000" width="1000" xmlns="http://www.w3.org/2000/svg"><path d="M785.664 428.608q0 77.562 -52.452 143.406t-143.127 104.067 -197.253 38.223q-47.988 0 -98.208 -8.928 -69.192 49.104 -155.124 71.424 -20.088 5.022 -47.988 8.928h-1.674q-6.138 0 -11.439 -4.464t-6.417 -11.718q-.558 -1.674 -.558 -3.627t.279 -3.627 1.116 -3.348l1.395 -2.79t1.953 -3.069 2.232 -2.79 2.511 -2.79 2.232 -2.511q2.79 -3.348 12.834 -13.95t14.508 -16.461 12.555 -16.182 13.95 -21.483 11.439 -24.552q-69.192 -40.176 -108.81 -98.766t-39.618 -124.992q0 -77.562 52.452 -143.406t143.127 -104.067 197.253 -38.223 197.253 38.223 143.127 104.067 52.452 143.406zm214.272 142.848q0 66.96 -39.618 125.271t-108.81 98.487q5.58 13.392 11.439 24.552t13.95 21.483 12.555 16.182 14.508 16.461 12.834 13.95q.558 .558 2.232 2.511t2.511 2.79 2.232 2.79 1.953 3.069l1.395 2.79t1.116 3.348 .279 3.627 -.558 3.627q-1.674 7.812 -7.254 12.276t-12.276 3.906q-27.9 -3.906 -47.988 -8.928 -85.932 -22.32 -155.124 -71.424 -50.22 8.928 -98.208 8.928 -151.218 0 -263.376 -73.656 32.364 2.232 49.104 2.232 89.838 0 172.422 -25.11t147.312 -71.982q69.75 -51.336 107.136 -118.296t37.386 -141.732q0 -42.966 -12.834 -84.816 71.982 39.618 113.832 99.324t41.85 128.34z"/></svg>