<svg height="1000px" width="1000px" xmlns="http://www.w3.org/2000/svg">
  <g>
    <path d="M0 422.9910714285714c0 -47.991 17.485 -93.936 52.455 -137.835c34.971 -43.899 82.683 -78.59 143.137 -104.073c60.453 -25.484 126.209 -38.226 197.265 -38.226c71.057 0 136.812 12.742 197.266 38.226c60.454 25.483 108.166 60.174 143.136 104.073c34.97 43.899 52.455 91.704 52.455 143.415c0 51.712 -17.485 99.517 -52.455 143.416c-34.97 43.898 -82.682 78.59 -143.136 104.073c-60.454 25.484 -126.209 38.226 -197.266 38.226c-31.994 0 -64.732 -2.977 -98.214 -8.929c-60.64 43.155 -128.348 69.941 -203.125 80.357c0 0 -1.674 0 -1.674 0c-4.093 0 -7.906 -1.488 -11.44 -4.464c-3.534 -2.976 -5.58 -5.952 -6.138 -8.929c-0.558 -2.976 -0.837 -5.115 -0.837 -6.417c0 -1.302 0.093 -2.511 0.279 -3.627c-0.186 -1.116 0.093 -2.232 0.837 -3.349c2.232 -4.092 3.906 -6.696 5.022 -7.812c1.116 -1.116 2.232 -2.325 3.348 -3.627c0 0 3.348 -3.906 3.348 -3.906c0 0 3.907 -4.186 11.719 -12.556c7.813 -8.371 12.649 -13.858 14.509 -16.462c1.86 -2.605 5.952 -7.906 12.277 -15.904c8.928 -11.161 17.485 -26.6 25.67 -46.317c-46.131 -26.786 -82.404 -59.71 -108.817 -98.773c-26.414 -39.062 -39.621 -82.589 -39.621 -130.58c0 0 0 0 0 0m343.75 360.491c21.577 1.488 37.946 2.232 49.107 2.232c123.884 0 230.469 -32.366 319.755 -97.098c46.503 -34.226 82.217 -73.661 107.142 -118.304c24.926 -44.642 37.389 -91.889 37.389 -141.741c0 -28.645 -4.278 -56.919 -12.835 -84.821c47.991 26.414 85.938 59.524 113.839 99.33c27.902 39.807 41.853 82.311 41.853 127.511c0 45.201 -13.207 87.24 -39.621 126.117c-26.413 38.876 -62.686 71.707 -108.816 98.493c8.184 19.345 15.811 33.575 22.879 42.69c7.068 9.114 12.091 15.625 15.067 19.531c2.976 3.906 7.812 9.393 14.509 16.462c6.696 7.068 10.603 11.254 11.719 12.556c0 0 3.348 3.906 3.348 3.906c0 0 0.837 0.93 2.511 2.79c1.674 1.86 2.418 2.79 2.232 2.79c-0.186 0 0.465 1.023 1.953 3.069c1.86 3.721 2.79 6.604 2.79 8.65c0 2.046 -0.372 4.65 -1.116 7.813c-0.744 3.162 -2.976 6.231 -6.696 9.207c-3.307 2.646 -6.908 3.968 -10.803 3.968c-0.486 0 -0.978 -0.02 -1.474 -0.062c-74.777 -10.416 -142.485 -37.202 -203.125 -80.357c-33.482 5.953 -66.22 8.929 -98.214 8.929c-100.819 0 -188.616 -24.554 -263.393 -73.661c0 0 0 0 0 0" />
  </g>
</svg>