<svg height="1000px" width="935.546875px" xmlns="http://www.w3.org/2000/svg">
  <g>
    <path d="M0 388.08079808950424c0 -38.737 10.01 -74.951 30.029 -108.643c20.02 -33.691 47.201 -63.069 81.543 -88.134c34.343 -25.065 74.463 -44.922 120.362 -59.571c45.898 -14.648 95.214 -21.972 147.949 -21.972c52.734 0 102.132 7.324 148.193 21.972c46.061 14.649 86.263 34.506 120.606 59.571c34.342 25.065 61.442 54.443 81.298 88.134c19.857 33.692 29.786 69.906 29.786 108.643c0 38.086 -9.929 74.056 -29.786 107.91c-19.856 33.854 -46.956 63.314 -81.298 88.379c-34.343 25.065 -74.545 44.922 -120.606 59.57c-46.061 14.649 -95.459 21.973 -148.193 21.973c-12.044 0 -24.007 -0.488 -35.889 -1.465c-11.881 -0.976 -23.519 -2.116 -34.912 -3.418c-47.852 36.784 -102.539 62.012 -164.062 75.684c-6.511 1.302 -13.103 2.523 -19.776 3.662c-6.673 1.139 -13.753 2.36 -21.24 3.662c-3.906 0.651 -7.406 -0.407 -10.498 -3.174c-3.093 -2.767 -5.29 -5.778 -6.592 -9.033c0 0 0 -0.977 0 -0.977c-1.302 -3.906 -0.814 -7.08 1.465 -9.521c2.279 -2.441 5.208 -5.29 8.789 -8.545c5.859 -5.859 11.475 -11.8 16.846 -17.822c5.371 -6.022 10.172 -12.858 14.404 -20.508c4.232 -7.65 8.219 -16.683 11.963 -27.1c3.743 -10.416 6.917 -23.274 9.521 -38.574c-45.898 -25.391 -82.356 -57.21 -109.375 -95.459c-27.018 -38.249 -40.527 -79.997 -40.527 -125.244c0 0 0 0 0 0m316.895 360.84c1.953 -1.302 4.15 -2.604 6.591 -3.906c2.442 -1.302 4.639 -2.605 6.592 -3.907c16.602 1.953 33.203 2.93 49.805 2.93c64.127 0 124.186 -9.196 180.176 -27.588c55.989 -18.392 104.492 -43.62 145.507 -75.683c41.016 -32.064 73.324 -69.743 96.924 -113.038c23.6 -43.294 35.401 -89.843 35.401 -139.648c0 -13.346 -0.977 -27.018 -2.93 -41.016c31.25 25.391 55.908 53.874 73.975 85.45c18.066 31.575 27.099 65.429 27.099 101.562c0 45.247 -13.509 86.996 -40.527 125.244c-27.018 38.249 -63.477 70.069 -109.375 95.459c2.604 15.3 5.696 28.158 9.277 38.574c3.581 10.417 7.731 19.45 12.451 27.1c4.72 7.65 9.603 14.486 14.649 20.508c5.045 6.022 10.498 11.963 16.357 17.822c3.255 3.255 6.104 6.266 8.545 9.033c2.442 2.767 3.011 5.778 1.709 9.034c0 0 0 0.976 0 0.976c-0.651 3.906 -2.685 7.08 -6.103 9.522c-3.418 2.441 -7.081 3.336 -10.987 2.685c-7.487 -1.302 -14.567 -2.523 -21.24 -3.662c-6.673 -1.139 -13.265 -2.36 -19.775 -3.662c-31.25 -6.511 -60.547 -16.276 -87.891 -29.297c-27.344 -13.021 -52.734 -28.483 -76.172 -46.387c-11.393 1.302 -23.03 2.442 -34.912 3.418c-11.881 0.977 -23.844 1.465 -35.889 1.465c-45.898 0 -89.03 -5.696 -129.394 -17.09c-40.365 -11.393 -76.986 -26.692 -109.863 -45.898c0 0 0 0 0 0" />
  </g>
</svg>