<svg height="1000px" width="1000px" xmlns="http://www.w3.org/2000/svg">
  <g>
    <path d="M0 428.57142857142856c0 -51.711 17.485 -99.516 52.455 -143.415c34.971 -43.899 82.683 -78.59 143.137 -104.074c60.453 -25.483 126.209 -38.225 197.265 -38.225c71.057 0 136.812 12.742 197.266 38.225c60.454 25.484 108.166 60.175 143.136 104.074c34.97 43.899 52.455 91.704 52.455 143.415c0 51.711 -17.485 99.516 -52.455 143.415c-34.97 43.899 -82.682 78.59 -143.136 104.074c-60.454 25.483 -126.209 38.225 -197.266 38.225c-31.994 0 -64.732 -2.976 -98.214 -8.928c-46.131 32.738 -97.842 56.547 -155.134 71.428c-13.393 3.349 -29.39 6.325 -47.991 8.929c0 0 -1.674 0 -1.674 0c-4.093 0 -7.906 -1.488 -11.44 -4.464c-3.534 -2.977 -5.673 -6.883 -6.417 -11.719c-0.372 -1.116 -0.558 -2.325 -0.558 -3.627c0 -1.302 0.093 -2.512 0.279 -3.628c0.186 -1.116 0.558 -2.232 1.116 -3.348c0 0 1.395 -2.79 1.395 -2.79c0 0 0.651 -1.023 1.953 -3.069c1.302 -2.046 2.046 -2.976 2.232 -2.79c0.186 0.186 1.023 -0.744 2.511 -2.791c1.488 -2.046 2.232 -2.883 2.232 -2.511c1.86 -2.232 6.139 -6.882 12.835 -13.951c6.697 -7.068 11.533 -12.555 14.509 -16.462c2.976 -3.906 7.162 -9.3 12.556 -16.183c5.394 -6.882 10.045 -14.044 13.951 -21.484c3.906 -7.441 7.719 -15.625 11.44 -24.554c-46.131 -26.785 -82.404 -59.709 -108.817 -98.772c-26.414 -39.062 -39.621 -80.729 -39.621 -125c0 0 0 0 0 0m71.429 0c0 30.506 9.858 59.896 29.575 88.17c19.718 28.273 47.434 52.827 83.148 73.66c0 0 54.129 31.25 54.129 31.25c0 0 -19.531 46.875 -19.531 46.875c12.649 -7.44 24.182 -14.695 34.598 -21.763c0 0 24.554 -17.299 24.554 -17.299c0 0 29.576 5.58 29.576 5.58c29.018 5.209 57.477 7.813 85.379 7.813c56.92 0 110.119 -9.673 159.598 -29.018c49.48 -19.345 88.821 -45.573 118.025 -78.683c29.204 -33.11 43.806 -68.639 43.806 -106.585c0 -37.946 -14.602 -73.475 -43.806 -106.585c-29.204 -33.11 -68.545 -59.338 -118.025 -78.683c-49.479 -19.345 -102.678 -29.018 -159.598 -29.018c-56.919 0 -110.119 9.673 -159.598 29.018c-49.479 19.345 -88.821 45.573 -118.025 78.683c-29.203 33.11 -43.805 68.639 -43.805 106.585c0 0 0 0 0 0m272.321 354.911c21.577 1.488 37.946 2.232 49.107 2.232c59.896 0 117.374 -8.371 172.433 -25.112c55.06 -16.741 104.167 -40.736 147.322 -71.986c46.503 -34.227 82.217 -73.661 107.142 -118.304c24.926 -44.643 37.389 -91.89 37.389 -141.741c0 -28.646 -4.278 -56.92 -12.835 -84.821c47.991 26.413 85.938 59.523 113.839 99.33c27.902 39.806 41.853 82.589 41.853 128.348c0 44.643 -13.207 86.403 -39.621 125.279c-26.413 38.877 -62.686 71.708 -108.816 98.493c3.72 8.929 7.533 17.114 11.439 24.554c3.906 7.441 8.557 14.602 13.951 21.484c5.394 6.883 9.58 12.277 12.556 16.183c2.976 3.907 7.812 9.394 14.509 16.463c6.696 7.068 10.975 11.718 12.835 13.95c0.372 0.372 1.116 1.209 2.232 2.512c1.116 1.302 1.953 2.232 2.511 2.79c0.558 0.558 1.302 1.488 2.232 2.79c0.93 1.302 1.581 2.325 1.953 3.069c0 0 1.395 2.79 1.395 2.79c0 0 0.372 1.116 1.116 3.349c0.744 2.232 0.837 3.441 0.279 3.627c-0.558 0.186 -0.744 1.395 -0.558 3.627c-1.116 5.208 -3.534 9.301 -7.254 12.277c-3.72 2.976 -7.813 4.278 -12.277 3.906c-18.601 -2.604 -34.598 -5.58 -47.991 -8.929c-57.292 -14.881 -109.003 -38.69 -155.134 -71.428c-33.482 5.952 -66.22 8.928 -98.214 8.928c-100.819 0 -188.616 -24.553 -263.393 -73.66c0 0 0 0 0 0" />
  </g>
</svg>