<svg height="1000" width="1000" xmlns="http://www.w3.org/2000/svg"><path d="M0 428.6q0-77.6 52.5-143.4t143.1-104.1 197.3-38.2 197.3 38.2 143.1 104.1 52.5 143.4-52.5 143.4-143.1 104.1-197.3 38.2q-48 0-98.2-8.9-69.2 49.1-155.1 71.4-20.1 5-48 8.9h-1.7q-6.1 0-11.4-4.5t-6.4-11.7q-.6-1.7-.6-3.6t.3-3.6 1.1-3.3l1.4-2.8 2-3.1 2.2-2.8 2.5-2.8 2.2-2.5q2.8-3.3 12.8-14t14.5-16.5 12.6-16.2 14-21.5 11.4-24.6q-69.2-40.2-108.8-98.8t-39.6-125zm71.4 0q0 45.8 29.6 88.2t83.1 73.7l54.1 31.2-19.5 46.9q19-11.2 34.6-21.8l24.6-17.3 29.6 5.6q43.5 7.8 85.4 7.8 85.4 0 159.6-29t118-78.7 43.8-106.6-43.8-106.6-118-78.7-159.6-29-159.6 29-118 78.7-43.8 106.6zm272.3 354.9q32.4 2.2 49.1 2.2 89.8 0 172.4-25.1t147.3-72q69.8-51.3 107.1-118.3t37.4-141.7q0-43-12.8-84.8 72 39.6 113.8 99.3t41.9 128.3q0 67-39.6 125.3t-108.8 98.5q5.6 13.4 11.4 24.6t14 21.5 12.6 16.2 14.5 16.5 12.8 14q.6.6 2.2 2.5t2.5 2.8 2.2 2.8 2 3.1l1.4 2.8 1.1 3.3.3 3.6-.6 3.6q-1.7 7.8-7.3 12.3t-12.3 3.9q-27.9-3.9-48-8.9-85.9-22.3-155.1-71.4-50.2 8.9-98.2 8.9-151.2 0-263.4-73.7z"/></svg>