<svg height="1000" width="1000" xmlns="http://www.w3.org/2000/svg"><path d="M392.9 214.3q-85.4 0 -159.6 29T115.2 322 71.4 428.6q0 45.7 29.6 88.1t83.2 73.7l54.1 31.3 -19.5 46.8q18.9 -11.1 34.5 -21.7l24.6 -17.3 29.6 5.5q43.5 7.9 85.4 7.9 85.3 0 159.6 -29.1t118 -78.6 43.8 -106.6T670.5 322t-118 -78.7 -159.6 -29zm0 -71.4q106.5 0 197.2 38.2t143.2 104.1 52.4 143.4T733.3 572 590.1 676.1t-197.2 38.2q-48 0 -98.3 -8.9 -69.2 49.1 -155.1 71.4 -20.1 5 -48 8.9h-1.7q-6.1 0 -11.4 -4.4T72 769.5q-.6 -1.6 -.6 -3.6t.3 -3.6 1.1 -3.4l1.4 -2.8t2 -3 2.2 -2.8 2.5 -2.8 2.2 -2.5q2.8 -3.4 12.9 -14t14.5 -16.4T123 698.4t14 -21.5 11.4 -24.6Q79.2 612.2 39.6 553.6T0 428.6Q0 351 52.5 285.2T195.6 181.1t197.3 -38.2zm458.7 652.3q5.5 13.4 11.4 24.6t14 21.4 12.5 16.2 14.5 16.5 12.9 13.9q.5 .6 2.2 2.5t2.5 2.8 2.2 2.8 2 3.1l1.4 2.8t1.1 3.3 .3 3.7 -.6 3.6q-1.7 7.8 -7.2 12.3t-12.3 3.9q-27.9 -3.9 -48 -9Q774.6 897.3 705.4 848.2q-50.3 8.9 -98.3 8.9 -151.2 0 -263.3 -73.6 32.3 2.2 49.1 2.2 89.8 0 172.4 -25.1t147.3 -72q69.8 -51.3 107.2 -118.3t37.3 -141.7q0 -43 -12.8 -84.9 72 39.7 113.8 99.4t41.9 128.3q0 67 -39.6 125.3t-108.8 98.5z"/></svg>