<svg height="1000px" width="1000px" xmlns="http://www.w3.org/2000/svg">
  <g>
    <path d="M851.5625 795.2008928571428c8.185 19.345 15.811 33.575 22.879 42.69c7.069 9.114 12.091 15.625 15.067 19.531c2.977 3.906 7.813 9.394 14.509 16.462c6.697 7.068 10.603 11.254 11.719 12.556c0 0 3.348 3.906 3.348 3.906c0 0 0.837 0.93 2.511 2.79c1.675 1.86 2.419 2.79 2.233 2.79c-0.186 0 0.465 1.024 1.953 3.07c1.86 3.72 2.79 6.603 2.79 8.649c0 2.046 -0.372 4.65 -1.116 7.813c-0.744 3.162 -2.976 6.231 -6.697 9.207c-3.72 2.976 -7.812 4.279 -12.276 3.907c-74.777 -10.417 -142.485 -37.203 -203.125 -80.358c-33.482 5.953 -66.221 8.929 -98.215 8.929c-100.818 0 -188.616 -24.554 -263.392 -73.661c21.577 1.488 37.946 2.232 49.107 2.232c123.884 0 230.468 -32.366 319.754 -97.098c46.503 -34.226 82.217 -73.661 107.143 -118.303c24.926 -44.643 37.388 -91.89 37.388 -141.741c0 -28.646 -4.278 -56.92 -12.834 -84.822c47.991 26.414 85.937 59.524 113.839 99.33c27.902 39.807 41.852 82.311 41.852 127.512c0 45.201 -13.206 87.239 -39.62 126.116c-26.414 38.876 -62.686 71.707 -108.817 98.493c0 0 0 0 0 0m-556.92 -89.844c-60.64 43.155 -128.348 69.941 -203.125 80.357c0 0 -1.674 0 -1.674 0c-4.092 0 -7.905 -1.488 -11.439 -4.464c-3.535 -2.976 -5.581 -5.952 -6.139 -8.928c-0.558 -2.977 -0.837 -5.116 -0.837 -6.418c0 -1.302 0.093 -2.511 0.279 -3.627c-0.186 -1.116 0.093 -2.232 0.837 -3.348c2.232 -4.093 3.906 -6.697 5.022 -7.813c1.117 -1.116 2.233 -2.325 3.349 -3.627c0 0 3.348 -3.906 3.348 -3.906c0 0 3.906 -4.186 11.719 -12.556c7.812 -8.371 12.648 -13.858 14.509 -16.462c1.86 -2.604 5.952 -7.906 12.276 -15.904c8.929 -11.161 17.485 -26.6 25.67 -46.317c-46.131 -26.786 -82.403 -59.71 -108.817 -98.772c-26.414 -39.063 -39.621 -82.59 -39.621 -130.581c0 -47.991 17.486 -93.936 52.456 -137.835c34.97 -43.898 82.682 -78.59 143.136 -104.073c60.454 -25.484 126.209 -38.226 197.266 -38.226c71.056 0 136.811 12.742 197.265 38.226c60.454 25.483 108.166 60.175 143.136 104.073c34.971 43.899 52.456 91.704 52.456 143.416c0 51.711 -17.485 99.516 -52.456 143.415c-34.97 43.899 -82.682 78.59 -143.136 104.073c-60.454 25.484 -126.209 38.226 -197.265 38.226c-31.994 0 -64.733 -2.976 -98.215 -8.929c0 0 0 0 0 0m98.215 -491.071c-56.92 0 -110.119 9.672 -159.599 29.018c-49.479 19.345 -88.82 45.573 -118.024 78.683c-29.204 33.11 -43.806 66.778 -43.806 101.004c0 67.709 37.574 123.512 112.723 167.411c0 0 54.13 31.25 54.13 31.25c0 0 -19.532 46.875 -19.532 46.875c12.649 -7.441 24.182 -14.695 34.599 -21.763c0 0 24.553 -17.3 24.553 -17.3c0 0 29.576 5.581 29.576 5.581c29.018 5.208 57.478 7.812 85.38 7.812c56.919 0 110.119 -9.672 159.598 -29.018c49.479 -19.345 88.821 -45.573 118.024 -78.683c29.204 -33.11 43.806 -68.638 43.806 -106.584c0 -37.947 -14.602 -73.475 -43.806 -106.585c-29.203 -33.11 -68.545 -59.338 -118.024 -78.683c-49.479 -19.346 -102.679 -29.018 -159.598 -29.018c0 0 0 0 0 0" />
  </g>
</svg>