<svg height="1000px" width="928.5714285714286px" xmlns="http://www.w3.org/2000/svg">
  <g>
    <path d="M0 696.4285714285713c0 0 0 -464.286 0 -464.286c0 -44.271 15.718 -82.124 47.154 -113.56c31.436 -31.436 69.289 -47.154 113.56 -47.154c0 0 464.286 0 464.286 0c44.271 0 82.124 15.718 113.56 47.154c31.436 31.436 47.154 69.289 47.154 113.56c0 0 0 464.286 0 464.286c0 44.271 -15.718 82.124 -47.154 113.56c-31.436 31.436 -69.289 47.154 -113.56 47.154c0 0 -464.286 0 -464.286 0c-44.271 0 -82.124 -15.718 -113.56 -47.154c-31.436 -31.436 -47.154 -69.289 -47.154 -113.56c0 0 0 0 0 0m71.429 0c0 24.554 8.742 45.573 26.227 63.058c17.485 17.485 38.505 26.228 63.058 26.228c0 0 464.286 0 464.286 0c24.554 0 45.573 -8.743 63.058 -26.228c17.485 -17.485 26.228 -38.504 26.228 -63.058c0 0 0 -464.286 0 -464.286c0 -24.553 -8.743 -45.573 -26.228 -63.058c-17.485 -17.485 -38.504 -26.227 -63.058 -26.227c0 0 -464.286 0 -464.286 0c-24.553 0 -45.573 8.742 -63.058 26.227c-17.485 17.485 -26.227 38.505 -26.227 63.058c0 0 0 464.286 0 464.286c0 0 0 0 0 0" />
  </g>
</svg>