<svg height="1000" width="928.571" xmlns="http://www.w3.org/2000/svg"><path d="M0 696.448v-464.256q0 -66.402 47.151 -113.553t113.553 -47.151h464.256q66.402 0 113.553 47.151t47.151 113.553v464.256q0 66.402 -47.151 113.553t-113.553 47.151h-464.256q-66.402 0 -113.553 -47.151t-47.151 -113.553zm71.424 0q0 36.828 26.226 63.054t63.054 26.226h464.256q36.828 0 63.054 -26.226t26.226 -63.054v-464.256q0 -36.828 -26.226 -63.054t-63.054 -26.226h-464.256q-36.828 0 -63.054 26.226t-26.226 63.054v464.256z"/></svg>