<svg height="1000px" width="900px" xmlns="http://www.w3.org/2000/svg">
  <g>
    <path d="M0 725c0 0 0 -450 0 -450c0 -20.667 4 -40.167 12 -58.5c8 -18.333 18.667 -34.167 32 -47.5c13.333 -13.333 29.167 -24 47.5 -32c18.333 -8 37.833 -12 58.5 -12c0 0 525 0 525 0c8.667 0 17 1 25 3c0 0 -91 91 -91 91c0 0 -459 0 -459 0c-15.333 0 -28.5 5.5 -39.5 16.5c-11 11 -16.5 24.167 -16.5 39.5c0 0 0 450 0 450c0 15.333 5.5 28.5 16.5 39.5c11 11 24.167 16.5 39.5 16.5c0 0 525 0 525 0c15.333 0 28.5 -5.5 39.5 -16.5c11 -11 16.5 -24.167 16.5 -39.5c0 0 0 -159 0 -159c0 0 94 -94 94 -94c0 0 0 253 0 253c0 20.667 -4 40 -12 58c-8 18 -18.833 33.833 -32.5 47.5c-13.667 13.667 -29.5 24.5 -47.5 32.5c-18 8 -37.333 12 -58 12c0 0 -525 0 -525 0c-20.667 0 -40.167 -4 -58.5 -12c-18.333 -8 -34.167 -18.833 -47.5 -32.5c-13.333 -13.667 -24 -29.5 -32 -47.5c-8 -18 -12 -37.333 -12 -58c0 0 0 0 0 0m188 -322c0 -10.667 3.667 -19.667 11 -27c0 0 48 -48 48 -48c7.333 -7.333 16.333 -11 27 -11c10.667 0 19.667 3.667 27 11c0 0 166 166 166 166c0 0 319 -320 319 -320c7.333 -7.333 16.5 -11 27.5 -11c11 0 20.167 3.667 27.5 11c0 0 48 48 48 48c7.333 7.333 11 16.333 11 27c0 10.667 -3.667 19.667 -11 27c0 0 -347 347 -347 347c0 0 -48 48 -48 48c-7.333 7.333 -16.333 11 -27 11c-10.667 0 -19.667 -3.667 -27 -11c0 0 -49 -48 -49 -48c0 0 -192 -193 -192 -193c-7.333 -7.333 -11 -16.333 -11 -27c0 0 0 0 0 0" />
  </g>
</svg>