<svg height="1000" width="928.6" xmlns="http://www.w3.org/2000/svg"><path d="M785.7 519v177.4q0 66.4 -47.1 113.6T625 857.1H160.7Q94.3 857.1 47.2 810T0 696.4V232.1Q0 165.7 47.2 118.6T160.7 71.4H625q35.2 0 65.3 14 8.4 3.9 10 12.8 1.7 9.5 -5 16.2L668 141.7q-5.6 5.6 -12.9 5.6 -1.6 0 -5 -1.1 -12.8 -3.3 -25.1 -3.3H160.7q-36.8 0 -63 26.2t-26.3 63v464.3q0 36.9 26.3 63.1t63 26.2H625q36.8 0 63.1 -26.2t26.2 -63.1V554.7q0 -7.3 5 -12.3L755 506.7q5.6 -5.6 12.9 -5.6 3.3 0 6.7 1.7 11.1 4.5 11.1 16.2zM914.6 246.1L460.4 700.3q-13.4 13.4 -31.8 13.4t-31.8 -13.4l-240 -239.9Q143.4 447 143.4 428.6t13.4 -31.8l61.4 -61.4Q231.6 322 250 322t31.8 13.4l146.8 146.7 361 -361q13.4 -13.4 31.8 -13.4t31.8 13.4l61.4 61.4q13.4 13.4 13.4 31.8t-13.4 31.8z"/></svg>