<svg height="1000px" width="899.90234375px" xmlns="http://www.w3.org/2000/svg">
  <g>
    <path d="M0 725.09765625c0 0 0 -450.195 0 -450.195c0 -20.508 3.988 -39.958 11.963 -58.35c7.975 -18.392 18.636 -34.261 31.982 -47.607c13.347 -13.347 29.216 -24.008 47.608 -31.983c18.392 -7.975 37.842 -11.963 58.349 -11.963c0 0 524.903 0 524.903 0c8.789 0 17.252 0.977 25.39 2.93c0 0 -91.308 91.309 -91.308 91.309c0 0 -458.985 0 -458.985 0c-15.299 0 -28.401 5.452 -39.306 16.357c-10.905 10.905 -16.358 24.007 -16.358 39.307c0 0 0 450.195 0 450.195c0 15.299 5.453 28.402 16.358 39.307c10.905 10.905 24.007 16.357 39.306 16.357c0 0 524.903 0 524.903 0c15.299 0 28.483 -5.452 39.55 -16.357c11.068 -10.905 16.602 -24.008 16.602 -39.307c0 0 0 -159.18 0 -159.18c0 0 94.238 -93.75 94.238 -93.75c0 0 0 252.93 0 252.93c0 20.508 -4.069 39.795 -12.207 57.861c-8.138 18.067 -19.043 33.936 -32.715 47.608c-13.671 13.672 -29.459 24.495 -47.363 32.47c-17.903 7.976 -37.272 11.963 -58.105 11.963c0 0 -524.903 0 -524.903 0c-20.507 0 -39.957 -3.987 -58.349 -11.963c-18.392 -7.975 -34.261 -18.798 -47.608 -32.47c-13.346 -13.672 -24.007 -29.541 -31.982 -47.608c-7.975 -18.066 -11.963 -37.353 -11.963 -57.861c0 0 0 0 0 0m187.988 -322.021c0 -10.58 3.744 -19.613 11.231 -27.1c0 0 47.851 -47.852 47.851 -47.852c7.487 -7.487 16.52 -11.23 27.1 -11.23c10.579 0 19.45 3.743 26.611 11.23c0 0 166.016 166.016 166.016 166.016c0 0 319.336 -320.313 319.336 -320.313c7.487 -7.487 16.683 -11.149 27.588 -10.986c10.905 0.163 19.938 3.825 27.099 10.986c0 0 48.34 48.34 48.34 48.34c7.487 7.487 11.149 16.52 10.986 27.1c-0.162 10.579 -3.824 19.45 -10.986 26.611c0 0 -347.168 347.168 -347.168 347.168c0 0 -47.851 47.852 -47.851 47.852c-7.487 7.487 -16.521 11.23 -27.1 11.23c-10.579 0 -19.613 -3.743 -27.1 -11.23c0 0 -48.828 -47.852 -48.828 -47.852c0 0 -191.894 -192.871 -191.894 -192.871c-7.487 -7.487 -11.231 -16.52 -11.231 -27.099c0 0 0 0 0 0" />
  </g>
</svg>