<svg height="1000px" width="928.5714285714286px" xmlns="http://www.w3.org/2000/svg">
  <g>
    <path d="M914.6205357142858 246.09375c0 0 -454.241 454.241 -454.241 454.241c-8.929 8.929 -19.531 13.393 -31.808 13.393c-12.277 0 -22.88 -4.464 -31.808 -13.393c0 0 -239.956 -239.955 -239.956 -239.955c-8.928 -8.929 -13.392 -19.532 -13.392 -31.808c0 -12.277 4.464 -22.88 13.392 -31.808c0 0 61.384 -61.384 61.384 -61.384c8.929 -8.929 19.532 -13.393 31.808 -13.393c12.277 0 22.88 4.464 31.808 13.393c0 0 146.764 146.763 146.764 146.763c0 0 361.049 -361.049 361.049 -361.049c8.929 -8.929 19.531 -13.393 31.808 -13.393c12.277 0 22.88 4.464 31.808 13.393c0 0 61.384 61.384 61.384 61.384c8.929 8.928 13.393 19.531 13.393 31.808c0 12.277 -4.464 22.879 -13.393 31.808c0 0 0 0 0 0m-128.906 272.879c0 0 0 177.456 0 177.456c0 44.271 -15.718 82.124 -47.154 113.56c-31.436 31.436 -69.29 47.154 -113.561 47.154c0 0 -464.285 0 -464.285 0c-44.271 0 -82.125 -15.718 -113.561 -47.154c-31.436 -31.436 -47.154 -69.289 -47.154 -113.56c0 0 0 -464.286 0 -464.286c0 -44.271 15.718 -82.124 47.154 -113.56c31.436 -31.436 69.29 -47.154 113.561 -47.154c0 0 464.285 0 464.285 0c23.438 0 45.201 4.65 65.291 13.951c5.58 2.604 8.928 6.882 10.044 12.835c1.116 5.952 -0.558 11.346 -5.022 16.183c0 0 -27.344 27.343 -27.344 27.343c-3.72 3.721 -7.068 5.581 -10.044 5.581c-3.349 0 -7.627 -0.744 -12.835 -2.232c-5.209 -1.489 -11.905 -2.233 -20.09 -2.233c0 0 -464.285 0 -464.285 0c-24.554 0 -45.573 8.743 -63.058 26.228c-17.485 17.485 -26.228 38.505 -26.228 63.058c0 0 0 464.286 0 464.286c0 24.553 8.743 45.573 26.228 63.058c17.485 17.485 38.504 26.228 63.058 26.228c0 0 464.285 0 464.285 0c24.554 0 45.573 -8.743 63.059 -26.228c17.485 -17.485 26.227 -38.505 26.227 -63.058c0 0 0 -141.741 0 -141.741c0 -4.837 1.674 -8.929 5.023 -12.277c0 0 35.714 -35.714 35.714 -35.714c3.348 -3.721 6.882 -5.581 10.602 -5.581c3.721 0 6.697 0.558 8.929 1.674c7.441 2.977 11.161 8.371 11.161 16.183c0 0 0 0 0 0" />
  </g>
</svg>