<svg height="1000" width="928.6" xmlns="http://www.w3.org/2000/svg"><path d="M0 696.4v-464.3q0-66.4 47.2-113.6t113.6-47.2h464.3q35.2 0 65.3 14 8.4 3.9 10 12.8 1.7 9.5-5 16.2l-27.3 27.3q-5.6 5.6-12.8 5.6-1.7 0-5-1.1-12.8-3.3-25.1-3.3h-464.3q-36.8 0-63.1 26.2t-26.2 63.1v464.3q0 36.8 26.2 63.1t63.1 26.2h464.3q36.8 0 63.1-26.2t26.2-63.1v-141.7q0-7.3 5-12.3l35.7-35.7q5.6-5.6 12.8-5.6 3.3 0 6.7 1.7 11.2 4.5 11.2 16.2v177.4q0 66.4-47.2 113.6t-113.6 47.2h-464.3q-66.4 0-113.6-47.2t-47.2-113.6zm143.4-267.8q0-18.4 13.4-31.8l61.4-61.4q13.4-13.4 31.8-13.4t31.8 13.4l146.8 146.8 361-361q13.4-13.4 31.8-13.4t31.8 13.4l61.4 61.4q13.4 13.4 13.4 31.8t-13.4 31.8l-454.2 454.2q-13.4 13.4-31.8 13.4t-31.8-13.4l-239.9-239.9q-13.4-13.4-13.4-31.8z"/></svg>