<svg height="1000" width="928.571" xmlns="http://www.w3.org/2000/svg"><path d="M785.664 519.004v177.444q0 66.402 -47.151 113.553t-113.553 47.151h-464.256q-66.402 0 -113.553 -47.151t-47.151 -113.553v-464.256q0 -66.402 47.151 -113.553t113.553 -47.151h464.256q35.154 0 65.286 13.95 8.37 3.906 10.044 12.834 1.674 9.486 -5.022 16.182l-27.342 27.342q-5.58 5.58 -12.834 5.58 -1.674 0 -5.022 -1.116 -12.834 -3.348 -25.11 -3.348h-464.256q-36.828 0 -63.054 26.226t-26.226 63.054v464.256q0 36.828 26.226 63.054t63.054 26.226h464.256q36.828 0 63.054 -26.226t26.226 -63.054v-141.732q0 -7.254 5.022 -12.276l35.712 -35.712q5.58 -5.58 12.834 -5.58 3.348 0 6.696 1.674 11.16 4.464 11.16 16.182zm128.898 -272.862l-454.212 454.212q-13.392 13.392 -31.806 13.392t-31.806 -13.392l-239.94 -239.94q-13.392 -13.392 -13.392 -31.806t13.392 -31.806l61.38 -61.38q13.392 -13.392 31.806 -13.392t31.806 13.392l146.754 146.754 361.026 -361.026q13.392 -13.392 31.806 -13.392t31.806 13.392l61.38 61.38q13.392 13.392 13.392 31.806t-13.392 31.806z"/></svg>