<svg height="1000px" width="928.5714285714286px" xmlns="http://www.w3.org/2000/svg">
  <g>
    <path d="M0 696.4285714285713c0 0 0 -464.286 0 -464.286c0 -44.271 15.718 -82.124 47.154 -113.56c31.436 -31.436 69.289 -47.154 113.56 -47.154c0 0 464.286 0 464.286 0c23.438 0 45.201 4.65 65.29 13.951c5.581 2.604 8.929 6.882 10.045 12.835c1.116 6.324 -0.558 11.718 -5.022 16.183c0 0 -27.344 27.344 -27.344 27.344c-3.72 3.72 -7.999 5.58 -12.835 5.58c-1.116 0 -2.79 -0.372 -5.022 -1.116c-8.557 -2.232 -16.927 -3.348 -25.112 -3.348c0 0 -464.286 0 -464.286 0c-24.553 0 -45.573 8.742 -63.058 26.227c-17.485 17.485 -26.227 38.505 -26.227 63.058c0 0 0 464.286 0 464.286c0 24.554 8.742 45.573 26.227 63.058c17.485 17.485 38.505 26.228 63.058 26.228c0 0 464.286 0 464.286 0c24.554 0 45.573 -8.743 63.058 -26.228c17.485 -17.485 26.228 -38.504 26.228 -63.058c0 0 0 -141.741 0 -141.741c0 -4.836 1.674 -8.929 5.022 -12.277c0 0 35.714 -35.714 35.714 -35.714c3.721 -3.72 7.999 -5.58 12.835 -5.58c2.232 0 4.464 0.558 6.697 1.674c7.44 2.976 11.16 8.37 11.16 16.183c0 0 0 177.455 0 177.455c0 44.271 -15.718 82.124 -47.154 113.56c-31.436 31.436 -69.289 47.154 -113.56 47.154c0 0 -464.286 0 -464.286 0c-44.271 0 -82.124 -15.718 -113.56 -47.154c-31.436 -31.436 -47.154 -69.289 -47.154 -113.56c0 0 0 0 0 0m143.415 -267.857c0 -12.277 4.464 -22.88 13.393 -31.808c0 0 61.384 -61.384 61.384 -61.384c8.929 -8.929 19.531 -13.393 31.808 -13.393c12.277 0 22.879 4.464 31.808 13.393c0 0 146.763 146.763 146.763 146.763c0 0 361.05 -361.049 361.05 -361.049c8.928 -8.928 19.531 -13.393 31.808 -13.393c12.276 0 22.879 4.465 31.808 13.393c0 0 61.384 61.384 61.384 61.384c8.928 8.929 13.392 19.531 13.392 31.808c0 12.277 -4.464 22.88 -13.392 31.808c0 0 -454.242 454.241 -454.242 454.241c-8.928 8.929 -19.531 13.393 -31.808 13.393c-12.276 0 -22.879 -4.464 -31.808 -13.393c0 0 -239.955 -239.955 -239.955 -239.955c-8.929 -8.929 -13.393 -19.531 -13.393 -31.808c0 0 0 0 0 0" />
  </g>
</svg>