<svg height="1000px" width="825.1953125px" xmlns="http://www.w3.org/2000/svg">
  <g>
    <path d="M0 725.09765625c0 0 0 -450.195 0 -450.195c0 -20.508 3.988 -39.795 11.963 -57.862c7.975 -18.066 18.799 -33.935 32.471 -47.607c13.671 -13.672 29.541 -24.496 47.607 -32.471c18.066 -7.975 37.354 -11.963 57.861 -11.963c0 0 524.903 0 524.903 0c20.507 0 39.795 3.988 57.861 11.963c18.066 7.975 33.936 18.799 47.607 32.471c13.672 13.672 24.577 29.541 32.715 47.607c8.138 18.067 12.207 37.354 12.207 57.862c0 0 0 450.195 0 450.195c0 20.508 -4.069 39.795 -12.207 57.861c-8.138 18.067 -19.043 33.936 -32.715 47.608c-13.671 13.672 -29.459 24.495 -47.363 32.47c-17.903 7.976 -37.272 11.963 -58.105 11.963c0 0 -524.903 0 -524.903 0c-20.507 0 -39.795 -3.987 -57.861 -11.963c-18.066 -7.975 -33.936 -18.798 -47.607 -32.47c-13.672 -13.672 -24.496 -29.541 -32.471 -47.608c-7.975 -18.066 -11.963 -37.353 -11.963 -57.861c0 0 0 0 0 0m94.238 0c0 15.299 5.453 28.402 16.358 39.307c10.905 10.905 24.007 16.357 39.306 16.357c0 0 524.903 0 524.903 0c15.299 0 28.483 -5.452 39.55 -16.357c11.068 -10.905 16.602 -24.008 16.602 -39.307c0 0 0 -450.195 0 -450.195c0 -15.3 -5.534 -28.402 -16.602 -39.307c-11.067 -10.905 -24.251 -16.357 -39.55 -16.357c0 0 -524.903 0 -524.903 0c-15.299 0 -28.401 5.452 -39.306 16.357c-10.905 10.905 -16.358 24.007 -16.358 39.307c0 0 0 450.195 0 450.195c0 0 0 0 0 0" />
  </g>
</svg>