<svg height="1000" width="714.286" xmlns="http://www.w3.org/2000/svg"><path d="M35.712 267.904q0 -22.32 15.624 -37.944t37.944 -15.624 37.944 15.624l127.224 127.224h205.344l127.224 -127.224q15.624 -15.624 37.944 -15.624t37.944 15.624 15.624 37.944 -15.624 37.944l-162.936 162.936v459.792q0 25.668 -18.414 44.082t-44.082 18.414 -44.082 -18.414 -18.414 -44.082v-214.272h-35.712v214.272q0 25.668 -18.414 44.082t-44.082 18.414 -44.082 -18.414 -18.414 -44.082v-459.792l-162.936 -162.936q-15.624 -15.624 -15.624 -37.944zm196.416 -53.568q0 -51.894 36.549 -88.443t88.443 -36.549 88.443 36.549 36.549 88.443 -36.549 88.443 -88.443 36.549 -88.443 -36.549 -36.549 -88.443z"/></svg>