<svg height="1000" width="1000" xmlns="http://www.w3.org/2000/svg"><path d="M498.3 0q134 -1.1 251.7 67 129.5 74.7 196.4 207.6l-414 -21.8q-89.3 -5 -164.1 41.6t-103.2 128L111 185.8q71.5 -88.7 173.6 -137T498.3 0zM81.5 226l188 370q40.2 79.8 117.8 121.1t163.5 25.1L422.4 993.9Q304.1 975.4 207.6 906T55.5 729.6 0 500Q0 351 81.5 226zm885 94.3q32.4 83.7 33.2 173.3t-27 170.7 -85.4 151.8T750 933q-128.3 74.3 -277.9 66.4l226 -347.6q49.1 -73.1 46 -162.1T684.7 334.8zM500 331.5q69.8 0 119.1 49.4T668.5 500t-49.4 119.1T500 668.5 380.9 619.1 331.5 500t49.4 -119.1T500 331.5z"/></svg>