<svg height="1000" width="1000" xmlns="http://www.w3.org/2000/svg"><path d="M999.936 500.032q0 101.556 -39.618 194.184t-106.578 159.588 -159.588 106.578 -194.184 39.618 -194.184 -39.618 -159.588 -106.578 -106.578 -159.588 -39.618 -194.184q0 -123.876 56.358 -231.291t154.287 -176.886 217.899 -86.769v145.08q-123.318 25.11 -204.507 123.318t-81.189 226.548q0 72.54 28.458 138.663t76.167 113.832 113.832 76.167 138.663 28.458 138.663 -28.458 113.832 -76.167 76.167 -113.832 28.458 -138.663q0 -128.34 -81.189 -226.548t-204.507 -123.318v-145.08q119.97 17.298 217.899 86.769t154.287 176.886 56.358 231.291z"/></svg>