<svg height="1000" width="857.143" xmlns="http://www.w3.org/2000/svg"><path d="M428.544 142.912q-72.54 0 -138.663 28.458t-113.832 76.167 -76.167 113.832 -28.458 138.663 28.458 138.663 76.167 113.832 113.832 76.167 138.663 28.458 138.663 -28.458 113.832 -76.167 76.167 -113.832 28.458 -138.663 -28.458 -138.663 -76.167 -113.832 -113.832 -76.167 -138.663 -28.458zm428.544 357.12q0 116.622 -57.474 215.109t-155.961 155.961 -215.109 57.474 -215.109 -57.474 -155.961 -155.961 -57.474 -215.109 57.474 -215.109 155.961 -155.961 215.109 -57.474 215.109 57.474 155.961 155.961 57.474 215.109z"/></svg>