<svg height="1000" width="857.143" xmlns="http://www.w3.org/2000/svg"><path d="M499.968 303.616v249.984q0 7.812 -5.022 12.834t-12.834 5.022h-178.56q-7.812 0 -12.834 -5.022t-5.022 -12.834v-35.712q0 -7.812 5.022 -12.834t12.834 -5.022h124.992v-196.416q0 -7.812 5.022 -12.834t12.834 -5.022h35.712q7.812 0 12.834 5.022t5.022 12.834zm232.128 196.416q0 -82.584 -40.734 -152.334t-110.484 -110.484 -152.334 -40.734 -152.334 40.734 -110.484 110.484 -40.734 152.334 40.734 152.334 110.484 110.484 152.334 40.734 152.334 -40.734 110.484 -110.484 40.734 -152.334zm124.992 0q0 116.622 -57.474 215.109t-155.961 155.961 -215.109 57.474 -215.109 -57.474 -155.961 -155.961 -57.474 -215.109 57.474 -215.109 155.961 -155.961 215.109 -57.474 215.109 57.474 155.961 155.961 57.474 215.109z"/></svg>