<svg height="1000" width="857.143" xmlns="http://www.w3.org/2000/svg"><path d="M0 500.032q0 -116.622 57.474 -215.109t155.961 -155.961 215.109 -57.474 215.109 57.474 155.961 155.961 57.474 215.109 -57.474 215.109 -155.961 155.961 -215.109 57.474 -215.109 -57.474 -155.961 -155.961 -57.474 -215.109zm142.848 0q0 58.032 22.599 110.763t61.101 91.233 91.233 61.101 110.763 22.599 110.763 -22.599 91.233 -61.101 61.101 -91.233 22.599 -110.763 -22.599 -110.763 -61.101 -91.233 -91.233 -61.101 -110.763 -22.599 -110.763 22.599 -91.233 61.101 -61.101 91.233 -22.599 110.763zm214.272 53.568v-249.984q0 -7.254 5.301 -12.555t12.555 -5.301h35.712q7.254 0 12.555 5.301t5.301 12.555v196.416h160.704q7.254 0 12.555 5.301t5.301 12.555v35.712q0 7.254 -5.301 12.555t-12.555 5.301h-214.272q-7.254 0 -12.555 -5.301t-5.301 -12.555z"/></svg>