<svg height="1000" width="857.1" xmlns="http://www.w3.org/2000/svg"><path d="M0 500q0-116.6 57.5-215.1t156-156 215.1-57.5 215.1 57.5 156 156 57.5 215.1-57.5 215.1-156 156-215.1 57.5-215.1-57.5-156-156-57.5-215.1zm142.8 0q0 58 22.6 110.8t61.1 91.2 91.2 61.1 110.8 22.6 110.8-22.6 91.2-61.1 61.1-91.2 22.6-110.8-22.6-110.8-61.1-91.2-91.2-61.1-110.8-22.6-110.8 22.6-91.2 61.1-61.1 91.2-22.6 110.8zm214.3 53.6v-250q0-7.3 5.3-12.6t12.6-5.3h35.7q7.3 0 12.6 5.3t5.3 12.6v196.4h160.7q7.3 0 12.6 5.3t5.3 12.6v35.7q0 7.3-5.3 12.6t-12.6 5.3h-214.3q-7.3 0-12.6-5.3t-5.3-12.6z"/></svg>