<svg height="1000px" width="779.78515625px" xmlns="http://www.w3.org/2000/svg">
  <g>
    <path d="M0 500c0 -54.036 10.173 -104.736 30.518 -152.1c20.345 -47.363 48.177 -88.704 83.496 -124.023c35.319 -35.319 76.66 -63.151 124.023 -83.496c47.363 -20.345 98.063 -30.518 152.1 -30.518c54.036 0 104.655 10.173 151.855 30.518c47.201 20.345 88.542 48.177 124.024 83.496c35.481 35.319 63.313 76.66 83.496 124.023c20.182 47.364 30.273 98.064 30.273 152.1c0 54.036 -10.091 104.736 -30.273 152.1c-20.183 47.363 -48.015 88.704 -83.496 124.023c-35.482 35.319 -76.823 63.151 -124.024 83.496c-47.2 20.345 -97.819 30.518 -151.855 30.518c-54.037 0 -104.737 -10.173 -152.1 -30.518c-47.363 -20.345 -88.704 -48.177 -124.023 -83.496c-35.319 -35.319 -63.151 -76.66 -83.496 -124.023c-20.345 -47.364 -30.518 -98.064 -30.518 -152.1c0 0 0 0 0 0m117.188 0c0 38.086 7.161 73.568 21.484 106.445c14.323 32.878 33.773 61.687 58.349 86.426c24.577 24.74 53.386 44.271 86.426 58.594c33.041 14.323 68.604 21.484 106.69 21.484c38.086 0 73.567 -7.161 106.445 -21.484c32.878 -14.323 61.686 -33.854 86.426 -58.594c24.739 -24.739 44.271 -53.548 58.594 -86.426c14.322 -32.877 21.484 -68.359 21.484 -106.445c0 -38.086 -7.162 -73.568 -21.484 -106.445c-14.323 -32.878 -33.855 -61.687 -58.594 -86.426c-24.74 -24.74 -53.63 -44.271 -86.67 -58.594c-33.04 -14.323 -68.441 -21.484 -106.201 -21.484c-38.086 0 -73.649 7.161 -106.69 21.484c-33.04 14.323 -61.849 33.854 -86.426 58.594c-24.576 24.739 -44.026 53.548 -58.349 86.426c-14.323 32.877 -21.484 68.359 -21.484 106.445c0 0 0 0 0 0m192.871 78.125c0 0 0 -227.051 0 -227.051c0 -10.742 3.824 -19.938 11.474 -27.588c7.65 -7.649 16.846 -11.474 27.588 -11.474c0 0 39.063 0 39.063 0c11.393 0 20.67 3.825 27.832 11.474c7.161 7.65 10.742 16.846 10.742 27.588c0 0 0 148.926 0 148.926c0 0 98.144 0 98.144 0c10.743 0 19.938 3.825 27.588 11.475c7.65 7.649 11.475 16.845 11.475 27.587c0 0 0 39.063 0 39.063c0 10.742 -3.825 19.938 -11.475 27.588c-7.65 7.65 -16.845 11.475 -27.588 11.475c0 0 -175.781 0 -175.781 0c-10.742 0 -19.938 -3.825 -27.588 -11.475c-7.65 -7.65 -11.474 -16.846 -11.474 -27.588c0 0 0 0 0 0" />
  </g>
</svg>