<svg height="1000px" width="750px" xmlns="http://www.w3.org/2000/svg">
  <g>
    <path d="M0 500c0 -52 9.833 -100.667 29.5 -146c19.667 -45.333 46.5 -85 80.5 -119c34 -34 73.667 -60.833 119 -80.5c45.333 -19.667 94 -29.5 146 -29.5c52 0 100.667 9.833 146 29.5c45.333 19.667 85 46.5 119 80.5c34 34 60.833 73.667 80.5 119c19.667 45.333 29.5 94 29.5 146c0 52 -9.833 100.667 -29.5 146c-19.667 45.333 -46.5 85 -80.5 119c-34 34 -73.667 60.833 -119 80.5c-45.333 19.667 -94 29.5 -146 29.5c-52 0 -100.667 -9.833 -146 -29.5c-45.333 -19.667 -85 -46.5 -119 -80.5c-34 -34 -60.833 -73.667 -80.5 -119c-19.667 -45.333 -29.5 -94 -29.5 -146c0 0 0 0 0 0m113 0c0 36 6.833 70 20.5 102c13.667 32 32.333 59.833 56 83.5c23.667 23.667 51.5 42.333 83.5 56c32 13.667 66 20.5 102 20.5c36 0 70 -6.833 102 -20.5c32 -13.667 60 -32.333 84 -56c24 -23.667 42.833 -51.5 56.5 -83.5c13.667 -32 20.5 -66 20.5 -102c0 -36 -6.833 -70 -20.5 -102c-13.667 -32 -32.5 -60 -56.5 -84c-24 -24 -52 -42.833 -84 -56.5c-32 -13.667 -66 -20.5 -102 -20.5c-36 0 -70 6.833 -102 20.5c-32 13.667 -59.833 32.5 -83.5 56.5c-23.667 24 -42.333 52 -56 84c-13.667 32 -20.5 66 -20.5 102c0 0 0 0 0 0m206 0c0 0 0 -150 0 -150c0 -15.333 5.5 -28.5 16.5 -39.5c11 -11 24.167 -16.5 39.5 -16.5c15.333 0 28.5 5.5 39.5 16.5c11 11 16.5 24.167 16.5 39.5c0 0 0 127 0 127c0 0 90 89 90 89c11.333 11.333 17 24.667 17 40c0 15.333 -5.667 28.667 -17 40c-5.333 5.333 -11.5 9.333 -18.5 12c-7 2.667 -14.167 4 -21.5 4c-7.333 0 -14.5 -1.333 -21.5 -4c-7 -2.667 -13.167 -6.667 -18.5 -12c0 0 -106 -106 -106 -106c-0.667 -0.667 -1 -1.333 -1 -2c0 -0.667 -0.333 -1.333 -1 -2c-4.667 -4.667 -8 -9.333 -10 -14c-2.667 -6 -4 -13.333 -4 -22c0 0 0 0 0 0" />
  </g>
</svg>