<svg height="1000px" width="857.1428571428571px" xmlns="http://www.w3.org/2000/svg">
  <g>
    <path d="M0 499.99999999999994c0 -77.753 19.159 -149.461 57.478 -215.123c38.318 -65.662 90.308 -117.652 155.971 -155.971c65.662 -38.318 137.369 -57.477 215.122 -57.477c77.753 0 149.461 19.159 215.123 57.477c65.662 38.319 117.653 90.309 155.971 155.971c38.319 65.662 57.478 137.37 57.478 215.123c0 77.753 -19.159 149.461 -57.478 215.123c-38.318 65.662 -90.309 117.652 -155.971 155.971c-65.662 38.318 -137.37 57.477 -215.123 57.477c-77.753 0 -149.46 -19.159 -215.122 -57.477c-65.663 -38.319 -117.653 -90.309 -155.971 -155.971c-38.319 -65.662 -57.478 -137.37 -57.478 -215.123c0 0 0 0 0 0m142.857 0c0 38.69 7.534 75.614 22.601 110.77c15.067 35.156 35.435 65.569 61.105 91.239c25.669 25.67 56.082 46.038 91.238 61.105c35.157 15.067 72.08 22.6 110.77 22.6c38.691 0 75.614 -7.533 110.771 -22.6c35.156 -15.067 65.569 -35.435 91.238 -61.105c25.67 -25.67 46.038 -56.083 61.105 -91.239c15.067 -35.156 22.601 -72.08 22.601 -110.77c0 -38.69 -7.534 -75.614 -22.601 -110.77c-15.067 -35.156 -35.435 -65.569 -61.105 -91.239c-25.669 -25.67 -56.082 -46.038 -91.238 -61.105c-35.157 -15.067 -72.08 -22.6 -110.771 -22.6c-38.69 0 -75.613 7.533 -110.77 22.6c-35.156 15.067 -65.569 35.435 -91.238 61.105c-25.67 25.67 -46.038 56.083 -61.105 91.239c-15.067 35.156 -22.601 72.08 -22.601 110.77c0 0 0 0 0 0m214.286 53.571c0 0 0 -250 0 -250c0 -4.836 1.767 -9.021 5.301 -12.555c3.534 -3.535 7.72 -5.302 12.556 -5.302c0 0 35.714 0 35.714 0c4.837 0 9.022 1.767 12.556 5.302c3.534 3.534 5.301 7.719 5.301 12.555c0 0 0 196.429 0 196.429c0 0 160.715 0 160.715 0c4.836 0 9.021 1.767 12.556 5.301c3.534 3.535 5.301 7.72 5.301 12.556c0 0 0 35.714 0 35.714c0 4.837 -1.767 9.022 -5.301 12.556c-3.535 3.534 -7.72 5.302 -12.556 5.302c0 0 -214.286 0 -214.286 0c-4.836 0 -9.022 -1.768 -12.556 -5.302c-3.534 -3.534 -5.301 -7.719 -5.301 -12.556c0 0 0 0 0 0" />
  </g>
</svg>