<svg height="1000" width="857.143" xmlns="http://www.w3.org/2000/svg"><path d="M428.544 71.488q116.622 0 215.109 57.474t155.961 155.961 57.474 215.109 -57.474 215.109 -155.961 155.961 -215.109 57.474 -215.109 -57.474 -155.961 -155.961 -57.474 -215.109 57.474 -215.109 155.961 -155.961 215.109 -57.474zm0 732.096q82.584 0 152.334 -40.734t110.484 -110.484 40.734 -152.334 -40.734 -152.334 -110.484 -110.484 -152.334 -40.734 -152.334 40.734 -110.484 110.484 -40.734 152.334 40.734 152.334 110.484 110.484 152.334 40.734zm142.848 -303.552q14.508 0 25.11 10.602t10.602 25.11v53.568q0 14.508 -10.602 25.11t-25.11 10.602h-232.128q-14.508 0 -25.11 -10.602t-10.602 -25.11v-267.84q0 -14.508 10.602 -25.11t25.11 -10.602h53.568q14.508 0 25.11 10.602t10.602 25.11v178.56h142.848z"/></svg>