<svg height="1000" width="1000" xmlns="http://www.w3.org/2000/svg"><path d="M928.6 910.7V303.6q0 -7.3 -5.3 -12.6t-12.6 -5.3H303.6q-7.3 0 -12.6 5.3t-5.3 12.6v607.1q0 7.3 5.3 12.6t12.6 5.3h607.1q7.3 0 12.6 -5.3t5.3 -12.6zM1000 303.6v607.1q0 36.8 -26.2 63.1t-63.1 26.2H303.6q-36.9 0 -63.1 -26.2t-26.2 -63.1V303.6q0 -36.9 26.2 -63.1t63.1 -26.2h607.1q36.8 0 63.1 26.2t26.2 63.1zM785.7 89.3v89.3h-71.4V89.3q0 -7.3 -5.3 -12.6t-12.6 -5.3H89.3q-7.3 0 -12.6 5.3t-5.3 12.6v607.1q0 7.3 5.3 12.6t12.6 5.3h89.3v71.4H89.3q-36.8 0 -63.1 -26.2T0 696.4V89.3Q0 52.5 26.2 26.2T89.3 0h607.1q36.9 0 63.1 26.2t26.2 63.1z"/></svg>