<svg height="1000px" width="1071.4285714285716px" xmlns="http://www.w3.org/2000/svg">
  <g>
    <path d="M1024.5535714285716 509.2075892857142c31.25 38.876 46.875 85.658 46.875 140.346c0 54.687 -20.926 102.958 -62.779 144.81c-41.853 41.853 -92.355 62.779 -151.507 62.779c0 0 -607.143 0 -607.143 0c-68.824 0 -127.697 -24.46 -176.618 -73.381c-48.921 -48.922 -73.382 -107.794 -73.382 -176.619c0 -49.107 13.207 -94.029 39.621 -134.765c26.414 -40.737 61.198 -71.15 104.353 -91.239c-0.744 -10.417 -1.116 -18.415 -1.116 -23.996c0 -78.869 27.901 -146.205 83.705 -202.009c55.803 -55.803 123.14 -83.705 202.009 -83.705c58.78 0 112.072 16.369 159.877 49.107c47.805 32.738 82.682 75.521 104.632 128.348c26.041 -23.065 57.849 -34.598 95.424 -34.598c37.574 0 70.312 13.951 98.214 41.853c27.902 27.902 41.853 61.57 41.853 101.004c0 27.902 -7.627 53.572 -22.88 77.009c47.991 11.161 87.612 36.18 118.862 75.056c0 0 0 0 0 0" />
  </g>
</svg>