<svg height="1000px" width="917.96875px" xmlns="http://www.w3.org/2000/svg">
  <g>
    <path d="M0 691.650390625c0 -22.786 3.825 -44.352 11.475 -64.697c7.649 -20.345 18.147 -38.819 31.494 -55.42c13.346 -16.602 29.052 -30.599 47.119 -41.992c18.066 -11.394 37.679 -19.694 58.838 -24.903c-10.742 -13.346 -19.043 -27.995 -24.903 -43.945c-5.859 -15.951 -8.789 -33.04 -8.789 -51.27c0 -21.484 3.988 -41.503 11.963 -60.058c7.976 -18.555 18.799 -34.668 32.471 -48.34c13.672 -13.672 29.785 -24.495 48.34 -32.471c18.555 -7.975 38.574 -11.963 60.058 -11.963c36.784 0 68.685 11.719 95.704 35.157c5.859 -24.74 15.869 -47.771 30.029 -69.092c14.16 -21.322 30.924 -39.795 50.293 -55.42c19.368 -15.625 41.015 -27.832 64.941 -36.621c23.926 -8.789 49.561 -13.184 76.904 -13.184c31.25 0 60.873 6.022 88.868 18.067c27.994 12.044 52.327 28.401 72.998 49.072c20.67 20.67 37.028 45.003 49.072 72.998c12.044 27.995 18.066 57.617 18.066 88.867c0 18.555 -2.115 36.377 -6.347 53.467c-4.232 17.09 -10.091 33.284 -17.578 48.584c38.086 19.206 68.766 46.875 92.041 83.008c23.274 36.133 34.912 76.497 34.912 121.093c0 31.902 -6.022 61.687 -18.067 89.356c-12.044 27.669 -28.564 52.002 -49.56 72.998c-20.996 20.996 -45.329 37.516 -72.998 49.561c-27.67 12.044 -57.455 18.066 -89.356 18.066c0 0 -497.07 0 -497.07 0c-26.042 0 -50.7 -4.964 -73.975 -14.893c-23.274 -9.928 -43.619 -23.6 -61.035 -41.015c-17.415 -17.416 -31.087 -37.761 -41.015 -61.035c-9.929 -23.275 -14.893 -47.933 -14.893 -73.975c0 0 0 0 0 0" />
  </g>
</svg>