<svg height="1000px" width="1071.4285714285716px" xmlns="http://www.w3.org/2000/svg">
  <g>
    <path d="M0 607.1428571428571c0 -49.107 13.207 -94.029 39.621 -134.766c26.413 -40.736 61.197 -71.149 104.352 -91.238c-0.744 -10.417 -1.116 -18.416 -1.116 -23.996c0 -78.869 27.902 -146.205 83.706 -202.009c55.803 -55.804 123.139 -83.705 202.008 -83.705c58.78 0 112.073 16.369 159.878 49.107c47.805 32.738 82.682 75.521 104.631 128.348c26.042 -23.065 56.92 -34.598 92.634 -34.598c39.435 0 73.103 13.951 101.005 41.853c27.902 27.901 41.852 61.569 41.852 101.004c0 27.902 -7.626 53.571 -22.879 77.009c47.991 11.161 87.612 36.179 118.862 75.056c31.25 38.876 46.875 83.426 46.875 133.649c0 59.152 -20.927 109.654 -62.779 151.507c-41.853 41.853 -92.355 62.779 -151.507 62.779c0 0 -607.143 0 -607.143 0c-68.824 0 -127.697 -24.461 -176.618 -73.382c-48.921 -48.921 -73.382 -107.794 -73.382 -176.618c0 0 0 0 0 0" />
  </g>
</svg>