<svg height="1000" width="1000" xmlns="http://www.w3.org/2000/svg"><path d="M0 652.366v-304.668q0 -22.878 18.972 -35.712l457.002 -304.668q11.718 -7.254 23.994 -7.254t23.994 7.254l457.002 304.668q18.972 12.834 18.972 35.712v304.668q0 22.878 -18.972 35.712l-457.002 304.668q-11.718 7.254 -23.994 7.254t-23.994 -7.254l-457.002 -304.668q-18.972 -12.834 -18.972 -35.712zm85.932 -80.352l107.694 -71.982 -107.694 -71.982v143.964zm34.596 80.352l336.474 224.316v-200.322l-186.372 -124.434zm0 -304.668l150.102 100.44 186.372 -124.434v-200.322zm227.664 152.334l151.776 101.556 151.776 -101.556 -151.776 -101.556zm194.742 376.65l336.474 -224.316 -150.102 -100.44 -186.372 124.434v200.322zm0 -552.978l186.372 124.434 150.102 -100.44 -336.474 -224.316v200.322zm263.376 176.328l107.694 71.982v-143.964z"/></svg>