<svg height="1000" width="1000" xmlns="http://www.w3.org/2000/svg"><path d="M120.528 652.366l336.474 224.316v-200.322l-186.372 -124.434zm-34.596 -80.352l107.694 -71.982 -107.694 -71.982v143.964zm457.002 304.668l336.474 -224.316 -150.102 -100.44 -186.372 124.434v200.322zm-42.966 -275.094l151.776 -101.556 -151.776 -101.556 -151.776 101.556zm-229.338 -153.45l186.372 -124.434v-200.322l-336.474 224.316zm535.68 51.894l107.694 71.982v-143.964zm-77.004 -51.894l150.102 -100.44 -336.474 -224.316v200.322zm270.63 -100.44v304.668q0 22.878 -18.972 35.712l-457.002 304.668q-11.718 7.254 -23.994 7.254t-23.994 -7.254l-457.002 -304.668q-18.972 -12.834 -18.972 -35.712v-304.668q0 -22.878 18.972 -35.712l457.002 -304.668q11.718 -7.254 23.994 -7.254t23.994 7.254l457.002 304.668q18.972 12.834 18.972 35.712z"/></svg>