<svg height="1000" width="1000" xmlns="http://www.w3.org/2000/svg"><path d="M120.5 652.3L457 876.7V676.3L270.6 551.9zM85.9 572l107.7 -72L85.9 428v144zM543 876.7L879.5 652.3 729.4 551.9 543 676.3v200.4zM500 601.6L651.8 500 500 398.4 348.2 500zM270.6 448.1L457 323.7V123.3L120.5 347.7zM806.4 500l107.7 72V428zm-77 -51.9L879.5 347.7 543 123.3v200.4zM1000 347.7v304.6q0 22.9 -19 35.8L524 992.7q-11.7 7.3 -24 7.3t-24 -7.3L19 688.1Q0 675.2 0 652.3V347.7q0 -22.9 19 -35.8L476 7.3Q487.7 0 500 0t24 7.3l457 304.6q19 12.9 19 35.8z"/></svg>