<svg height="1000" width="1071.429" xmlns="http://www.w3.org/2000/svg"><path d="M344.286 780.706l-27.9 27.9q-5.58 5.58 -12.834 5.58t-12.834 -5.58l-260.028 -260.028q-5.58 -5.58 -5.58 -12.834t5.58 -12.834l260.028 -260.028q5.58 -5.58 12.834 -5.58t12.834 5.58l27.9 27.9q5.58 5.58 5.58 12.834t-5.58 12.834l-219.294 219.294 219.294 219.294q5.58 5.58 5.58 12.834t-5.58 12.834zm329.778 -595.386l-208.134 720.378q-2.232 7.254 -8.649 10.881t-13.113 1.395l-34.596 -9.486q-7.254 -2.232 -10.881 -8.649t-1.395 -13.671l208.134 -720.378q2.232 -7.254 8.649 -10.881t13.113 -1.395l34.596 9.486q7.254 2.232 10.881 8.649t1.395 13.671zm366.606 363.258l-260.028 260.028q-5.58 5.58 -12.834 5.58t-12.834 -5.58l-27.9 -27.9q-5.58 -5.58 -5.58 -12.834t5.58 -12.834l219.294 -219.294 -219.294 -219.294q-5.58 -5.58 -5.58 -12.834t5.58 -12.834l27.9 -27.9q5.58 -5.58 12.834 -5.58t12.834 5.58l260.028 260.028q5.58 5.58 5.58 12.834t-5.58 12.834z"/></svg>