<svg height="1000" width="1000" xmlns="http://www.w3.org/2000/svg"><path d="M864.4 378.9q30.7 0 47.7 15.9t17 46.6 -18.9 45.8 -50.8 15h-75.9V601h-14V378.9h94.9zm89.8 329.2l-2.2 6.2 -2.8 5.6q-63 128.3 -184.4 204.2T500 1000q-101.6 0 -194.2 -39.6T146.2 853.8 39.6 694.2 0 500 39.6 305.8 146.2 146.2 305.8 39.6 500 0q136.2 0 253.6 69.2t183.9 188.6l1.1 2.2 4.5 9q-16.8 8.3 -76.2 38.2t-91.2 47.2q-3.4 1.6 -267.3 149.5Q722.7 606 954.2 708.1zM500 987.7q139.5 0 258.1 -73.9t180 -199.5l-160.2 -72q-40.2 78.1 -115 123.9T500 811.9q-84.3 0 -156.2 -41.8T229.9 656.3 188.1 500t41.8 -156.2T343.8 229.9 500 188.1t156.3 41 113.8 114.1l156.2 -79.8Q861.6 147.3 747.2 79.8T500 12.3q-66.4 0 -129.7 17.6T253.6 78.7t-98.5 76.4 -76.4 98.5T29.9 370.3 12.3 500t17.6 129.7 48.8 116.7 76.4 98.5 98.5 76.4 116.7 48.8T500 987.7z"/></svg>