<svg height="1000" width="1000" xmlns="http://www.w3.org/2000/svg"><path d="M883.9 719.9l-121.6 -62q-41.3 67 -109.7 105.5t-147 38.5q-82.1 0 -151.2 -40.2T245 652.3 204.8 501.7q0 -61.4 23.7 -116.9t64.2 -96 96 -64.2 116.9 -23.7q73.1 0 138.1 33.8t107.4 94l120 -69.8Q809.7 164.6 711.2 111T500 57.5q-89.8 0 -171.9 35.1t-141.2 94.3T92.6 328.1 57.5 500t35.1 171.9 94.3 141.2 141.2 94.3T500 942.5q118.9 0 221.8 -59.7T883.9 719.9zM574.8 498.3l386.7 196.5Q896.8 835.9 774.8 918T500 1000q-101.6 0 -194.2 -39.6T146.2 853.8 39.6 694.2 0 500 39.6 305.8 146.2 146.2 305.8 39.6 500 0q145.1 0 262.6 74.5T949.8 279zM861 500h-21.7v89.3h-53.6V392.9h75.9q17.9 0 30.4 11.1t15.9 26.8 .6 31.3 -15.4 26.7T861 500z"/></svg>