<svg height="1000" width="1071.429" xmlns="http://www.w3.org/2000/svg"><path d="M928.512 357.184q0 -44.64 -31.248 -75.888t-75.888 -31.248h-35.712v214.272h35.712q44.64 0 75.888 -31.248t31.248 -75.888zm-928.512 428.544h999.936q0 59.148 -41.85 100.998t-100.998 41.85h-714.24q-59.148 0 -100.998 -41.85t-41.85 -100.998zm1035.648 -428.544q0 88.722 -62.775 151.497t-151.497 62.775h-35.712v17.856q0 51.336 -36.828 88.164t-88.164 36.828h-392.832q-51.336 0 -88.164 -36.828t-36.828 -88.164v-410.688q0 -14.508 10.602 -25.11t25.11 -10.602h642.816q88.722 0 151.497 62.775t62.775 151.497z"/></svg>