<svg height="1000" width="1036" xmlns="http://www.w3.org/2000/svg"><path d="M0 785.728l999.936 0q0 59.148-41.85 100.998t-100.998 41.85l-714.24 0q-59.148 0-100.998-41.85t-41.85-100.998zm142.848-196.416l0-410.688q0-14.508 10.602-25.11t25.11-10.602l642.816 0q88.722 0 151.497 62.775t62.775 151.497-62.775 151.497-151.497 62.775l-35.712 0l0 17.856q0 51.336-36.828 88.164t-88.164 36.828l-392.832 0q-51.336 0-88.164-36.828t-36.828-88.164zm642.816-124.992l35.712 0q44.64 0 75.888-31.248t31.248-75.888-31.248-75.888-75.888-31.248l-35.712 0l0 214.272z"/></svg>