<svg height="1000px" width="1071.4285714285716px" xmlns="http://www.w3.org/2000/svg">
  <g>
    <path d="M0 785.7142857142857c0 0 1000 0 1000 0c0 39.435 -13.951 73.103 -41.853 101.004c-27.901 27.902 -61.57 41.853 -101.004 41.853c0 0 -714.286 0 -714.286 0c-39.434 0 -73.103 -13.951 -101.004 -41.853c-27.902 -27.901 -41.853 -61.569 -41.853 -101.004c0 0 0 0 0 0m142.857 -196.429c0 0 0 -410.714 0 -410.714c0 -9.672 3.534 -18.043 10.603 -25.111c7.068 -7.069 15.439 -10.603 25.111 -10.603c0 0 642.858 0 642.858 0c59.151 0 109.654 20.926 151.506 62.779c41.853 41.853 62.779 92.355 62.779 151.507c0 59.151 -20.926 109.654 -62.779 151.506c-41.852 41.853 -92.355 62.779 -151.506 62.779c0 0 -35.715 0 -35.715 0c0 0 0 17.857 0 17.857c0 34.227 -12.277 63.616 -36.83 88.17c-24.554 24.554 -53.944 36.83 -88.17 36.83c0 0 -392.857 0 -392.857 0c-34.226 0 -63.616 -12.276 -88.17 -36.83c-24.553 -24.553 -36.83 -53.943 -36.83 -88.17c0 0 0 0 0 0m642.857 -125c0 0 35.715 0 35.715 0c29.761 0 55.059 -10.416 75.892 -31.25c20.834 -20.833 31.25 -46.131 31.25 -75.892c0 -29.762 -10.416 -55.06 -31.25 -75.893c-20.833 -20.834 -46.131 -31.25 -75.892 -31.25c0 0 -35.715 0 -35.715 0c0 0 0 214.285 0 214.285c0 0 0 0 0 0" />
  </g>
</svg>