<svg height="1000px" width="1071.4285714285716px" xmlns="http://www.w3.org/2000/svg">
  <g>
    <path d="M1035.7142857142858 357.1428571428571c0 59.152 -20.926 109.654 -62.779 151.507c-41.853 41.852 -92.355 62.779 -151.507 62.779c0 0 -35.714 0 -35.714 0c0 0 0 17.857 0 17.857c0 34.226 -12.277 63.616 -36.83 88.169c-24.554 24.554 -53.944 36.831 -88.17 36.831c0 0 -392.857 0 -392.857 0c-34.226 0 -63.616 -12.277 -88.17 -36.831c-24.553 -24.553 -36.83 -53.943 -36.83 -88.169c0 0 0 -410.714 0 -410.714c0 -9.673 3.534 -18.044 10.603 -25.112c7.068 -7.068 15.439 -10.603 25.111 -10.603c0 0 642.857 0 642.857 0c59.152 0 109.654 20.927 151.507 62.779c41.853 41.853 62.779 92.355 62.779 151.507c0 0 0 0 0 0m-1035.714 428.571c0 0 1000 0 1000 0c0 39.435 -13.951 73.103 -41.853 101.005c-27.902 27.902 -61.57 41.853 -101.004 41.853c0 0 -714.286 0 -714.286 0c-39.435 0 -73.103 -13.951 -101.005 -41.853c-27.901 -27.902 -41.852 -61.57 -41.852 -101.005c0 0 0 0 0 0m928.571 -428.571c0 -29.762 -10.417 -55.06 -31.25 -75.893c-20.833 -20.833 -46.131 -31.25 -75.893 -31.25c0 0 -35.714 0 -35.714 0c0 0 0 214.286 0 214.286c0 0 35.714 0 35.714 0c29.762 0 55.06 -10.417 75.893 -31.25c20.833 -20.833 31.25 -46.131 31.25 -75.893c0 0 0 0 0 0" />
  </g>
</svg>