<svg height="1000px" width="900px" xmlns="http://www.w3.org/2000/svg">
  <g>
    <path d="M0 482.5c0 0 0 -84 0 -84c0 -4 1.667 -6 5 -6c9.333 -2.667 19.167 -4.667 29.5 -6c10.333 -1.333 20.5 -2.667 30.5 -4c2.667 0 5 -0.167 7 -0.5c2 -0.333 4.333 -0.5 7 -0.5c4 -14 9.667 -28 17 -42c-6 -9.333 -12.667 -18.667 -20 -28c-7.333 -9.333 -15 -18.667 -23 -28c-3.333 -3.333 -3.333 -6.333 0 -9c9.333 -11.333 19.333 -22.5 30 -33.5c10.667 -11 21.667 -21.167 33 -30.5c4 -2.667 7 -2.333 9 1c5.333 5.333 11 10.167 17 14.5c6 4.333 12 8.833 18 13.5c0 0 21 15 21 15c14 -7.333 28 -13 42 -17c1.333 -14 2.833 -27 4.5 -39c1.667 -12 3.833 -23.667 6.5 -35c0 -3.333 2 -5 6 -5c0 0 84 0 84 0c4.667 0 7 2 7 6c1.333 9.333 2.833 18.833 4.5 28.5c1.667 9.667 3.167 19.5 4.5 29.5c0 0 2 15 2 15c13.333 4 27 9.667 41 17c5.333 -4.667 11.667 -9.333 19 -14c6.667 -5.333 13.167 -10.333 19.5 -15c6.333 -4.667 12.5 -9.667 18.5 -15c4 -2.667 7 -2.333 9 1c3.333 2.667 6.333 5.333 9 8c0 0 8 8 8 8c0 0 22 22 22 22c8 8 15.667 16.333 23 25c2 3.333 2 6.333 0 9c-6.667 7.333 -13.333 15.5 -20 24.5c-6.667 9 -14.333 19.167 -23 30.5c4 7.333 7.5 14.667 10.5 22c3 7.333 5.833 14.667 8.5 22c5.333 1.333 11.167 2.333 17.5 3c6.333 0.667 12.833 1.667 19.5 3c0 0 18 2 18 2c6 0.667 11.667 1.667 17 3c4 1.333 6 3.667 6 7c0 0 0 84 0 84c0 3.333 -1.667 5.667 -5 7c-9.333 2 -19.167 3.667 -29.5 5c-10.333 1.333 -20.5 2.667 -30.5 4c-2.667 0 -7.333 0.667 -14 2c-4 13.333 -9.667 27 -17 41c6 9.333 12.667 18.667 20 28c7.333 9.333 15 18.667 23 28c2.667 3.333 2.667 6.333 0 9c-9.333 11.333 -19.333 22.5 -30 33.5c-10.667 11 -21.667 21.167 -33 30.5c-4 2.667 -7 2.333 -9 -1c-5.333 -4.667 -11 -9.333 -17 -14c-6 -4.667 -12 -9 -18 -13c-3.333 -3.333 -6.833 -6.167 -10.5 -8.5c-3.667 -2.333 -7.167 -4.833 -10.5 -7.5c-14 7.333 -28 13 -42 17c-1.333 11.333 -2.667 23.5 -4 36.5c-1.333 13 -3.667 25.5 -7 37.5c-1.333 3.333 -3.667 5 -7 5c0 0 -84 0 -84 0c-4 0 -6 -1.667 -6 -5c-2 -9.333 -3.667 -19 -5 -29c0 0 -4 -30 -4 -30c0 0 -2 -15 -2 -15c-13.333 -4 -27 -9.667 -41 -17c-3.333 2.667 -6.5 5 -9.5 7c-3 2 -6.167 4.333 -9.5 7c-6.667 5.333 -13.167 10.333 -19.5 15c-6.333 4.667 -12.5 9.667 -18.5 15c-4 2.667 -7 2.333 -9 -1c-3.333 -2.667 -6 -5.333 -8 -8c0 0 -9 -8 -9 -8c-7.333 -7.333 -14.833 -14.667 -22.5 -22c-7.667 -7.333 -15.167 -15.667 -22.5 -25c-2.667 -2.667 -2.667 -5.333 0 -8c8 -9.333 15.5 -18.833 22.5 -28.5c7 -9.667 13.5 -18.833 19.5 -27.5c-6.667 -13.333 -12.667 -28 -18 -44c-5.333 -1.333 -11.167 -2.333 -17.5 -3c-6.333 -0.667 -12.833 -1.667 -19.5 -3c0 0 -18 -2 -18 -2c-6 -0.667 -12 -1.667 -18 -3c-3.333 -1.333 -5 -3.667 -5 -7c0 0 0 0 0 0m197 -41c0 23.333 8.333 43.333 25 60c16.667 16.667 36.667 25 60 25c23.333 0 43.333 -8.333 60 -25c16.667 -16.667 25 -36.667 25 -60c0 -23.333 -8.333 -43.333 -25 -60c-16.667 -16.667 -36.667 -25 -60 -25c-23.333 0 -43.333 8.333 -60 25c-16.667 16.667 -25 36.667 -25 60c0 0 0 0 0 0m327 244c-1.333 -4 0 -6.667 4 -8c7.333 -2.667 14.333 -5.333 21 -8c6.667 -2.667 13.667 -5.333 21 -8c0.667 -3.333 1.167 -6.333 1.5 -9c0.333 -2.667 1.167 -5.667 2.5 -9c1.333 -3.333 2.5 -6.167 3.5 -8.5c1 -2.333 2.167 -5.167 3.5 -8.5c-4.667 -6.667 -9 -13.167 -13 -19.5c-4 -6.333 -8 -12.833 -12 -19.5c-2 -3.333 -1.333 -6 2 -8c0 0 62 -56 62 -56c2.667 -2.667 5.667 -3 9 -1c6 4.667 11.833 9.333 17.5 14c5.667 4.667 11.5 9.667 17.5 15c12 -4.667 23.667 -7.333 35 -8c3.333 -7.333 6.833 -14.333 10.5 -21c3.667 -6.667 7.167 -13 10.5 -19c2 -3.333 4.667 -4.333 8 -3c0 0 80 25 80 25c3.333 1.333 5 4 5 8c-1.333 7.333 -2.667 14.5 -4 21.5c-1.333 7 -2.667 14.167 -4 21.5c5.333 4 10 8.333 14 13c4 4.667 7.667 9.667 11 15c8 -0.667 15.667 -1.167 23 -1.5c7.333 -0.333 14.667 -0.5 22 -0.5c3.333 0 5.667 1.667 7 5c0 0 18 83 18 83c1.333 3.333 0 5.667 -4 7c-7.333 3.333 -14.333 6.167 -21 8.5c-6.667 2.333 -13.667 4.833 -21 7.5c-0.667 3.333 -1.167 6.333 -1.5 9c-0.333 2.667 -1.167 5.667 -2.5 9c-1.333 3.333 -2.5 6.167 -3.5 8.5c-1 2.333 -2.167 4.833 -3.5 7.5c4.667 6.667 9.167 13.167 13.5 19.5c4.333 6.333 8.167 12.833 11.5 19.5c1.333 3.333 0.667 6 -2 8c0 0 -62 57 -62 57c-2.667 2.667 -5.667 2.667 -9 0c-5.333 -4.667 -11 -9.333 -17 -14c-6 -4.667 -11.667 -9.333 -17 -14c-13.333 4.667 -25.667 7.333 -37 8c-3.333 7.333 -6.667 14.333 -10 21c-3.333 6.667 -6.667 13 -10 19c-2 3.333 -4.667 4.333 -8 3c0 0 -80 -25 -80 -25c-3.333 -1.333 -5 -4 -5 -8c1.333 -7.333 2.5 -14.667 3.5 -22c1 -7.333 2.167 -14.667 3.5 -22c-9.333 -8 -17.333 -17 -24 -27c-8 1.333 -15.833 2.167 -23.5 2.5c-7.667 0.333 -15.167 0.167 -22.5 -0.5c-3.333 0 -5.667 -1.667 -7 -5c0 0 -17 -82 -17 -82m36 -419c0 -3.333 1.667 -5.667 5 -7c6.667 -1.333 13.333 -2.833 20 -4.5c6.667 -1.667 13.333 -3.167 20 -4.5c1.333 -2.667 2.333 -5.333 3 -8c0.667 -2.667 1.667 -5.333 3 -8c1.333 -2.667 2.833 -5 4.5 -7c1.667 -2 3.167 -4.333 4.5 -7c-3.333 -6.667 -6.333 -13.167 -9 -19.5c-2.667 -6.333 -5.333 -12.5 -8 -18.5c-1.333 -2.667 -0.667 -5.333 2 -8c0 0 64 -42 64 -42c3.333 -2 6 -1.667 8 1c5.333 4.667 10.167 9.5 14.5 14.5c4.333 5 8.833 10.167 13.5 15.5c10.667 -2 21.667 -3 33 -3c8 -12 16 -23 24 -33c2 -2 4.667 -2.667 8 -2c0 0 69 34 69 34c3.333 2 4.333 4.667 3 8c-1.333 6.667 -3.167 13 -5.5 19c-2.333 6 -4.5 12.333 -6.5 19c6.667 8.667 12.667 18.333 18 29c7.333 0.667 14.5 1.167 21.5 1.5c7 0.333 13.833 1.167 20.5 2.5c3.333 1.333 5 3.333 5 6c0 0 5 77 5 77c0 2.667 -1.667 4.667 -5 6c-6.667 1.333 -13.167 2.833 -19.5 4.5c-6.333 1.667 -13.167 3.167 -20.5 4.5c-1.333 2.667 -2.333 5.167 -3 7.5c-0.667 2.333 -1.667 4.833 -3 7.5c-2 4.667 -4.667 9.333 -8 14c3.333 6.667 6.333 13.167 9 19.5c2.667 6.333 5.333 12.5 8 18.5c1.333 3.333 0.333 6 -3 8c0 0 -63 42 -63 42c-3.333 2 -6 1.667 -8 -1c-8.667 -8 -18 -18 -28 -30c-5.333 1.333 -10.833 2.333 -16.5 3c-5.667 0.667 -11.5 0.667 -17.5 0c-4 6 -8 11.833 -12 17.5c-4 5.667 -8 11.167 -12 16.5c-2 2 -4.667 2.333 -8 1c0 0 -69 -34 -69 -34c-3.333 -1.333 -4.333 -3.667 -3 -7c2 -6.667 4 -13.167 6 -19.5c2 -6.333 4.333 -12.833 7 -19.5c-4 -4 -7.5 -8.333 -10.5 -13c-3 -4.667 -5.833 -9.667 -8.5 -15c-7.333 -0.667 -14.5 -1.167 -21.5 -1.5c-7 -0.333 -13.833 -1.167 -20.5 -2.5c-3.333 0 -5 -2 -5 -6c0 0 -5 -76 -5 -76m98 404c-4.667 14.667 -3.5 28.833 3.5 42.5c7 13.667 18.167 22.833 33.5 27.5c14.667 5.333 28.833 4.5 42.5 -2.5c13.667 -7 22.833 -18.167 27.5 -33.5c5.333 -14.667 4.5 -28.833 -2.5 -42.5c-7 -13.667 -18.167 -23.167 -33.5 -28.5c-14.667 -4.667 -28.833 -3.5 -42.5 3.5c-13.667 7 -23.167 18.167 -28.5 33.5c0 0 0 0 0 0m23 -361c4.667 13.333 13.333 23.333 26 30c13.333 6 26.667 6.833 40 2.5c13.333 -4.333 23 -12.833 29 -25.5c6.667 -13.333 7.667 -26.667 3 -40c-4.667 -13.333 -13.333 -23 -26 -29c-12.667 -6.667 -25.667 -7.667 -39 -3c-13.333 4.667 -23.333 13.333 -30 26c-6.667 12.667 -7.667 25.667 -3 39c0 0 0 0 0 0" />
  </g>
</svg>