<svg height="1000px" width="935.546875px" xmlns="http://www.w3.org/2000/svg">
  <g>
    <path d="M0 481.93359375c0 0 0 -87.891 0 -87.891c0 -2.604 3.662 -5.127 10.986 -7.568c7.325 -2.441 15.788 -4.313 25.391 -5.615c9.603 -1.302 18.799 -2.442 27.588 -3.418c8.789 -0.977 14.811 -1.465 18.066 -1.465c3.907 -15.951 9.929 -30.273 18.067 -42.969c-7.487 -10.091 -14.893 -20.101 -22.217 -30.029c-7.324 -9.928 -14.893 -19.613 -22.705 -29.053c0 0 -1.953 -4.883 -1.953 -4.883c0 -1.953 3.336 -6.754 10.009 -14.404c6.674 -7.65 14.323 -15.788 22.95 -24.414c8.626 -8.626 16.764 -16.276 24.414 -22.949c7.649 -6.673 12.451 -10.01 14.404 -10.01c0.651 0 3.988 2.116 10.01 6.348c6.022 4.231 12.695 9.196 20.019 14.892c7.325 5.697 14.323 11.231 20.996 16.602c6.674 5.371 10.661 8.708 11.963 10.01c13.998 -8.138 28.646 -14.161 43.946 -18.067c0 -2.604 0.488 -8.626 1.464 -18.066c0.977 -9.44 2.116 -18.799 3.418 -28.076c1.302 -9.278 3.011 -17.741 5.127 -25.391c2.116 -7.65 4.802 -11.475 8.057 -11.475c0 0 86.914 0 86.914 0c2.604 0 5.127 3.825 7.568 11.475c2.442 7.65 4.314 16.113 5.616 25.391c1.302 9.277 2.441 18.636 3.418 28.076c0.976 9.44 1.79 15.462 2.441 18.066c14.648 3.906 28.646 9.603 41.992 17.09c10.091 -7.487 20.264 -14.893 30.518 -22.217c10.254 -7.324 20.101 -14.892 29.541 -22.705c0 0 3.906 -1.953 3.906 -1.953c1.302 0 5.778 3.499 13.428 10.498c7.65 6.999 15.706 14.649 24.17 22.949c8.463 8.301 16.194 16.276 23.193 23.926c6.999 7.65 10.498 12.451 10.498 14.404c0 1.302 -2.197 4.965 -6.592 10.987c-4.394 6.022 -9.277 12.532 -14.648 19.531c-5.371 6.999 -10.58 13.672 -15.625 20.019c-5.046 6.348 -8.22 10.499 -9.522 12.452c7.487 12.695 13.835 27.669 19.043 44.922c3.256 0.651 9.278 1.464 18.067 2.441c8.789 0.976 17.822 2.36 27.099 4.15c9.278 1.791 17.579 3.662 24.903 5.616c7.324 1.953 10.986 4.231 10.986 6.835c0 0 0 86.915 0 86.915c0 3.255 -3.662 5.94 -10.986 8.056c-7.324 2.116 -15.625 3.988 -24.903 5.615c-9.277 1.628 -18.473 2.767 -27.588 3.418c-9.114 0.651 -14.973 1.302 -17.578 1.954c-4.557 13.997 -10.579 28.32 -18.066 42.968c7.487 10.091 14.73 19.938 21.728 29.541c6.999 9.603 14.893 19.125 23.682 28.565c0 0 0.977 4.883 0.977 4.883c0 1.953 -3.337 6.835 -10.01 14.648c-6.673 7.812 -14.404 16.032 -23.193 24.658c-8.79 8.627 -17.009 16.276 -24.659 22.949c-7.649 6.674 -12.451 10.01 -14.404 10.01c-0.651 0 -3.988 -2.197 -10.01 -6.592c-6.022 -4.394 -12.695 -9.44 -20.019 -15.136c-7.324 -5.697 -14.16 -10.987 -20.508 -15.869c-6.348 -4.883 -10.498 -8.138 -12.451 -9.766c-14.649 7.487 -28.972 13.509 -42.969 18.066c0 3.256 -0.488 9.278 -1.465 18.067c-0.976 8.789 -2.278 17.985 -3.906 27.588c-1.628 9.602 -3.662 18.066 -6.104 25.39c-2.441 7.324 -4.964 10.987 -7.568 10.987c0 0 -86.914 0 -86.914 0c-2.604 0 -5.127 -3.663 -7.568 -10.987c-2.442 -7.324 -4.314 -15.788 -5.616 -25.39c-1.302 -9.603 -2.441 -18.718 -3.418 -27.344c-0.976 -8.626 -1.464 -14.73 -1.464 -18.311c-14.649 -3.906 -28.972 -9.928 -42.969 -18.066c-10.091 7.487 -20.101 15.055 -30.029 22.705c-9.929 7.65 -19.613 15.544 -29.053 23.682c0 0 -4.883 0.976 -4.883 0.976c-1.302 0 -5.778 -3.336 -13.428 -10.01c-7.649 -6.673 -15.625 -14.322 -23.926 -22.949c-8.3 -8.626 -15.787 -16.846 -22.46 -24.658c-6.674 -7.813 -10.01 -12.695 -10.01 -14.648c0 -0.651 2.116 -3.988 6.347 -10.01c4.232 -6.022 9.034 -12.533 14.405 -19.531c5.371 -6.999 10.416 -13.672 15.136 -20.02c4.721 -6.348 7.732 -10.498 9.034 -12.451c-7.487 -13.998 -13.835 -29.297 -19.043 -45.899c-3.256 -0.651 -9.278 -1.464 -18.067 -2.441c-8.789 -0.977 -17.822 -2.116 -27.099 -3.418c-9.278 -1.302 -17.578 -3.011 -24.903 -5.127c-7.324 -2.116 -10.986 -4.476 -10.986 -7.08c0 0 0 0 0 0m205.078 -42.969c0 12.045 2.36 23.438 7.08 34.18c4.72 10.742 11.068 20.101 19.043 28.076c7.975 7.975 17.416 14.242 28.32 18.799c10.905 4.557 22.38 6.836 34.424 6.836c12.045 0 23.438 -2.279 34.18 -6.836c10.742 -4.557 20.101 -10.824 28.076 -18.799c7.975 -7.975 14.242 -17.334 18.799 -28.076c4.557 -10.742 6.836 -22.135 6.836 -34.18c0 -12.044 -2.279 -23.519 -6.836 -34.424c-4.557 -10.905 -10.824 -20.345 -18.799 -28.32c-7.975 -7.975 -17.334 -14.323 -28.076 -19.043c-10.742 -4.72 -22.135 -7.08 -34.18 -7.08c-24.739 0 -45.735 8.626 -62.988 25.879c-17.253 17.253 -25.879 38.249 -25.879 62.988c0 0 0 0 0 0m338.867 251.953c0 -1.953 2.198 -4.069 6.592 -6.347c4.395 -2.279 9.44 -4.639 15.137 -7.08c5.696 -2.442 11.149 -4.476 16.357 -6.104c5.209 -1.627 8.789 -2.767 10.742 -3.418c1.303 -7.487 2.849 -13.834 4.639 -19.043c1.79 -5.208 4.313 -11.23 7.568 -18.066c-1.302 -1.302 -3.418 -4.069 -6.347 -8.301c-2.93 -4.232 -5.941 -8.708 -9.033 -13.428c-3.093 -4.72 -5.778 -9.277 -8.057 -13.672c-2.279 -4.394 -3.418 -7.242 -3.418 -8.545c0 -1.302 3.011 -5.126 9.033 -11.474c6.022 -6.348 13.021 -13.021 20.996 -20.02c7.976 -6.998 15.625 -13.509 22.95 -19.531c7.324 -6.022 11.962 -10.01 13.916 -11.963c0 0 3.906 -1.953 3.906 -1.953c1.302 0 3.987 1.384 8.056 4.15c4.069 2.767 8.22 5.941 12.452 9.522c4.231 3.581 8.382 7.08 12.451 10.498c4.069 3.418 6.754 5.778 8.056 7.08c11.394 -3.906 23.763 -6.999 37.11 -9.277c0.651 -1.953 2.116 -5.453 4.394 -10.498c2.279 -5.046 4.965 -10.01 8.057 -14.893c3.092 -4.883 5.941 -9.359 8.545 -13.428c2.604 -4.069 4.883 -6.103 6.836 -6.103c1.302 0 6.836 1.139 16.601 3.418c9.766 2.278 20.101 5.29 31.006 9.033c10.905 3.744 20.752 7.568 29.541 11.475c8.789 3.906 13.184 7.649 13.184 11.23c0 7.487 -0.895 15.137 -2.686 22.949c-1.79 7.813 -3.336 15.463 -4.638 22.95c5.208 3.906 9.847 8.219 13.916 12.939c4.069 4.72 7.731 9.684 10.986 14.893c8.138 -0.651 16.195 -1.14 24.17 -1.465c7.975 -0.326 15.706 -0.489 23.193 -0.489c2.604 0 5.534 4.314 8.789 12.94c3.256 8.626 6.104 18.473 8.545 29.541c2.442 11.068 4.476 21.566 6.104 31.494c1.627 9.928 2.441 16.357 2.441 19.287c0 1.953 -2.197 4.069 -6.592 6.348c-4.394 2.278 -9.196 4.394 -14.404 6.347c-5.208 1.954 -10.498 3.988 -15.869 6.104c-5.371 2.116 -9.033 3.499 -10.986 4.15c-2.93 12.37 -6.674 23.926 -11.231 34.668c0.651 1.953 2.523 4.965 5.615 9.034c3.093 4.069 6.104 8.463 9.034 13.183c2.929 4.72 5.533 9.196 7.812 13.428c2.279 4.232 3.418 7.161 3.418 8.789c0 1.302 -3.011 5.127 -9.033 11.475c-6.022 6.347 -13.021 13.02 -20.996 20.019c-7.976 6.999 -15.625 13.591 -22.949 19.775c-7.325 6.185 -11.963 10.417 -13.917 12.696c0 0 -3.906 1.953 -3.906 1.953c-1.302 0 -3.987 -1.384 -8.056 -4.15c-4.069 -2.767 -8.22 -5.941 -12.452 -9.522c-4.231 -3.581 -8.382 -7.08 -12.451 -10.498c-4.069 -3.418 -6.754 -5.778 -8.056 -7.08c-12.045 3.906 -24.74 6.999 -38.086 9.277c-0.651 1.953 -2.116 5.453 -4.395 10.498c-2.278 5.046 -4.801 10.01 -7.568 14.893c-2.767 4.883 -5.453 9.359 -8.057 13.428c-2.604 4.069 -4.883 6.103 -6.836 6.103c-1.953 0 -7.65 -1.221 -17.09 -3.662c-9.44 -2.441 -19.612 -5.452 -30.517 -9.033c-10.905 -3.581 -20.671 -7.406 -29.297 -11.475c-8.626 -4.069 -12.94 -7.731 -12.94 -10.986c0 -7.487 0.814 -15.218 2.442 -23.193c1.627 -7.976 3.092 -15.544 4.394 -22.706c-5.208 -3.906 -9.847 -8.219 -13.916 -12.939c-4.069 -4.72 -7.731 -9.684 -10.986 -14.893c-7.487 0.651 -14.893 1.14 -22.217 1.465c-7.324 0.326 -14.567 0.489 -21.728 0.489c0 0 -7.08 0 -7.08 0c0 0 -1.384 -1.791 -4.151 -5.372c-0.651 -2.604 -1.953 -8.382 -3.906 -17.334c-1.953 -8.951 -4.15 -18.391 -6.592 -28.32c-2.441 -9.928 -4.476 -18.961 -6.103 -27.099c-1.628 -8.138 -2.442 -12.859 -2.442 -14.161c0 0 0 0 0 0m38.086 -435.058c0 -1.953 2.035 -3.906 6.104 -5.86c4.069 -1.953 8.87 -3.58 14.404 -4.882c5.534 -1.302 10.986 -2.279 16.357 -2.93c5.372 -0.651 9.034 -1.302 10.987 -1.953c3.255 -10.742 8.301 -21.159 15.137 -31.25c-0.652 -1.302 -1.954 -4.151 -3.907 -8.545c-1.953 -4.395 -3.987 -8.871 -6.103 -13.428c-2.116 -4.557 -3.988 -8.708 -5.615 -12.451c-1.628 -3.744 -2.442 -6.266 -2.442 -7.568c0 -1.954 3.499 -5.616 10.498 -10.987c6.999 -5.371 14.974 -11.067 23.926 -17.09c8.952 -6.022 17.334 -11.311 25.146 -15.869c7.813 -4.557 12.37 -6.836 13.672 -6.836c1.302 0 3.418 1.465 6.348 4.395c2.93 2.93 6.266 6.429 10.01 10.498c3.743 4.069 7.08 7.894 10.009 11.475c2.93 3.58 5.046 6.022 6.348 7.324c4.557 -1.302 9.196 -2.279 13.916 -2.93c4.72 -0.651 9.522 -0.651 14.404 0c0 0 6.836 0 6.836 0c0.651 -1.302 2.442 -3.988 5.371 -8.057c2.93 -4.069 5.941 -8.219 9.034 -12.451c3.092 -4.232 5.94 -8.056 8.545 -11.474c2.604 -3.418 4.557 -5.127 5.859 -5.127c1.302 0 6.185 1.871 14.648 5.615c8.464 3.743 17.497 7.975 27.1 12.695c9.603 4.72 18.229 9.359 25.879 13.916c7.65 4.558 11.475 7.813 11.475 9.766c0 1.302 -0.651 3.825 -1.954 7.568c-1.302 3.744 -2.604 7.975 -3.906 12.696c-1.302 4.72 -2.685 9.196 -4.15 13.427c-1.465 4.232 -2.523 6.999 -3.174 8.301c6.51 8.138 12.858 17.904 19.043 29.297c16.601 1.302 28.646 2.441 36.133 3.418c7.487 0.976 12.207 3.988 14.16 9.033c1.953 5.046 2.767 13.509 2.441 25.391c-0.325 11.881 0.163 29.215 1.465 52.002c0 1.953 -2.034 3.987 -6.103 6.103c-4.069 2.116 -8.708 3.825 -13.916 5.127c-5.209 1.302 -10.498 2.279 -15.87 2.93c-5.371 0.651 -9.033 1.302 -10.986 1.953c-4.232 11.719 -9.277 21.973 -15.137 30.762c0.651 1.302 1.954 3.987 3.907 8.056c1.953 4.069 4.15 8.464 6.591 13.184c2.442 4.72 4.476 9.033 6.104 12.939c1.628 3.907 2.441 6.185 2.441 6.836c0 1.953 -3.662 5.778 -10.986 11.475c-7.324 5.697 -15.462 11.556 -24.414 17.578c-8.952 6.022 -17.334 11.393 -25.146 16.113c-7.813 4.72 -12.045 7.08 -12.696 7.08c-1.302 0 -3.581 -1.546 -6.836 -4.638c-3.255 -3.093 -6.754 -6.592 -10.498 -10.498c-3.743 -3.907 -7.08 -7.731 -10.01 -11.475c-2.929 -3.743 -5.045 -6.266 -6.347 -7.568c-4.557 1.302 -9.196 2.278 -13.916 2.929c-4.72 0.651 -9.522 0.651 -14.405 0c0 0 -6.835 0 -6.835 0c-1.303 1.302 -3.256 3.988 -5.86 8.057c-2.604 4.069 -5.452 8.301 -8.545 12.695c-3.092 4.395 -6.103 8.22 -9.033 11.475c-2.93 3.255 -5.046 4.883 -6.348 4.883c-1.302 0 -6.184 -1.791 -14.648 -5.371c-8.464 -3.581 -17.334 -7.731 -26.611 -12.451c-9.278 -4.721 -17.741 -9.441 -25.391 -14.161c-7.65 -4.72 -11.475 -8.056 -11.475 -10.009c0 -0.651 0.489 -3.011 1.465 -7.08c0.977 -4.069 2.279 -8.383 3.906 -12.94c1.628 -4.557 3.093 -9.033 4.395 -13.428c1.302 -4.394 2.279 -7.243 2.93 -8.545c-7.487 -7.487 -13.672 -17.089 -18.555 -28.808c-17.253 -0.651 -29.46 -1.465 -36.621 -2.442c-7.162 -0.976 -11.882 -3.987 -14.16 -9.033c-2.279 -5.045 -3.093 -13.59 -2.442 -25.635c0.651 -12.044 0 -29.785 -1.953 -53.222c0 0 0 0 0 0m100.098 437.988c0 15.951 5.615 29.785 16.846 41.504c11.23 11.719 24.983 17.578 41.259 17.578c15.951 0 29.704 -5.615 41.26 -16.846c11.556 -11.23 17.334 -25.309 17.334 -42.236c0 -15.95 -5.615 -29.541 -16.846 -40.771c-11.23 -11.231 -25.146 -16.846 -41.748 -16.846c-15.95 0 -29.622 5.615 -41.015 16.846c-11.393 11.23 -17.09 24.821 -17.09 40.771c0 0 0 0 0 0m23.926 -409.668c0 15.3 5.127 28.076 15.381 38.33c10.253 10.254 22.705 15.381 37.353 15.381c15.3 0 28.158 -5.127 38.574 -15.381c10.417 -10.254 15.625 -22.705 15.625 -37.353c0 -15.3 -5.127 -28.158 -15.381 -38.575c-10.253 -10.416 -22.867 -15.625 -37.841 -15.625c-15.3 0 -28.077 5.209 -38.33 15.625c-10.254 10.417 -15.381 22.95 -15.381 37.598c0 0 0 0 0 0" />
  </g>
</svg>