<svg height="1000px" width="1071.4285714285716px" xmlns="http://www.w3.org/2000/svg">
  <g>
    <path d="M1071.4285714285716 175.22321428571422c0 0 0 78.125 0 78.125c0 5.952 -27.716 11.719 -83.147 17.299c-4.465 10.045 -10.045 19.717 -16.741 29.018c18.973 42.039 28.459 65.755 28.459 71.15c0 5.394 -0.744 8.649 -2.232 9.765c-45.387 26.414 -68.452 39.621 -69.196 39.621c-2.976 0 -11.533 -8.743 -25.67 -26.228c-14.137 -17.485 -23.809 -30.134 -29.018 -37.946c-7.44 0.744 -13.02 1.116 -16.741 1.116c-3.72 0 -9.3 -0.372 -16.741 -1.116c-5.208 7.812 -14.881 20.461 -29.018 37.946c-14.137 17.485 -22.693 26.228 -25.669 26.228c-0.744 0 -23.81 -13.207 -69.197 -39.621c-1.488 -1.116 -2.232 -4.371 -2.232 -9.765c0 -5.395 9.487 -29.111 28.46 -71.15c-6.696 -9.301 -12.277 -18.973 -16.741 -29.018c-55.432 -5.58 -83.147 -11.347 -83.147 -17.299c0 0 0 -78.125 0 -78.125c0 -5.952 27.715 -11.719 83.147 -17.299c4.836 -10.789 10.417 -20.461 16.741 -29.018c-18.973 -42.039 -28.46 -65.755 -28.46 -71.15c0 -5.394 0.744 -8.556 2.232 -9.486c1.488 -0.93 7.999 -4.743 19.532 -11.44c31.994 -18.601 49.014 -27.902 51.06 -27.902c2.046 0 10.137 8.65 24.274 25.949c14.137 17.299 23.81 29.855 29.018 37.667c7.441 -0.744 13.021 -1.116 16.741 -1.116c3.721 0 9.301 0.372 16.741 1.116c18.974 -26.413 36.087 -47.247 51.34 -62.5c0 0 3.348 -1.116 3.348 -1.116c1.488 0 24.553 13.021 69.196 39.063c1.488 1.116 2.232 4.371 2.232 9.765c0 5.395 -9.486 29.111 -28.459 71.15c6.324 8.557 11.904 18.229 16.741 29.018c55.431 5.58 83.147 11.347 83.147 17.299c0 0 0 0 0 0m0 571.429c0 0 0 78.125 0 78.125c0 5.952 -27.716 11.718 -83.147 17.299c-4.465 10.044 -10.045 19.717 -16.741 29.018c18.973 42.038 28.459 65.755 28.459 71.149c0 5.394 -0.744 8.65 -2.232 9.766c-45.387 26.413 -68.452 39.62 -69.196 39.62c-2.976 0 -11.533 -8.742 -25.67 -26.227c-14.137 -17.486 -23.809 -30.134 -29.018 -37.947c-7.44 0.744 -13.02 1.116 -16.741 1.116c-3.72 0 -9.3 -0.372 -16.741 -1.116c-5.208 7.813 -14.881 20.461 -29.018 37.947c-14.137 17.485 -22.693 26.227 -25.669 26.227c-0.744 0 -23.81 -13.207 -69.197 -39.62c-1.488 -1.116 -2.232 -4.372 -2.232 -9.766c0 -5.394 9.487 -29.111 28.46 -71.149c-6.696 -9.301 -12.277 -18.974 -16.741 -29.018c-55.432 -5.581 -83.147 -11.347 -83.147 -17.299c0 0 0 -78.125 0 -78.125c0 -5.953 27.715 -11.719 83.147 -17.3c4.836 -10.788 10.417 -20.461 16.741 -29.017c-18.973 -42.039 -28.46 -65.756 -28.46 -71.15c0 -5.394 0.744 -8.556 2.232 -9.487c1.488 -0.93 7.999 -4.743 19.532 -11.439c31.994 -18.601 49.014 -27.902 51.06 -27.902c2.046 0 10.137 8.649 24.274 25.949c14.137 17.299 23.81 29.855 29.018 37.667c7.441 -0.744 13.021 -1.116 16.741 -1.116c3.721 0 9.301 0.372 16.741 1.116c18.974 -26.414 36.087 -47.247 51.34 -62.5c0 0 3.348 -1.116 3.348 -1.116c1.488 0 24.553 13.021 69.196 39.062c1.488 1.116 2.232 4.372 2.232 9.766c0 5.394 -9.486 29.111 -28.459 71.15c6.324 8.556 11.904 18.229 16.741 29.017c55.431 5.581 83.147 11.347 83.147 17.3c0 0 0 0 0 0m-357.143 -297.433c0 0 0 103.236 0 103.236c0 3.72 -1.302 7.348 -3.906 10.882c-2.604 3.534 -5.58 5.487 -8.929 5.859c0 0 -86.495 13.393 -86.495 13.393c-4.092 13.021 -10.045 27.158 -17.857 42.411c12.648 17.857 29.39 39.248 50.223 64.174c2.604 3.72 3.906 7.626 3.906 11.719c0 4.092 -2.79 9.579 -8.37 16.462c-5.581 6.882 -19.439 21.391 -41.574 43.526c-22.136 22.136 -35.993 33.204 -41.574 33.204c-5.58 0 -10.23 -1.302 -13.951 -3.907c0 0 -64.174 -50.223 -64.174 -50.223c-13.765 7.069 -28.088 12.835 -42.969 17.299c-4.092 40.179 -8.37 69.011 -12.834 86.496c-2.604 8.928 -8.185 13.393 -16.741 13.393c0 0 -103.795 0 -103.795 0c-4.092 0 -7.813 -1.395 -11.161 -4.186c-3.348 -2.79 -5.208 -6.045 -5.58 -9.765c0 0 -12.835 -85.38 -12.835 -85.38c-12.649 -3.72 -26.6 -9.486 -41.853 -17.299c0 0 -65.848 49.665 -65.848 49.665c-2.604 2.605 -6.138 3.907 -10.603 3.907c-4.464 0 -8.556 -1.488 -12.276 -4.465c-53.572 -49.479 -80.357 -79.241 -80.357 -89.285c0 -4.465 7.347 -15.904 22.042 -34.32c14.695 -18.415 25.019 -31.715 30.971 -39.899c-8.557 -16.369 -15.067 -31.622 -19.531 -45.759c0 0 -84.822 -13.393 -84.822 -13.393c-3.72 -0.372 -6.882 -2.139 -9.486 -5.301c-2.604 -3.162 -3.907 -6.79 -3.907 -10.882c0 0 0 -103.237 0 -103.237c0 -3.72 1.303 -7.347 3.907 -10.881c2.604 -3.534 5.58 -5.488 8.928 -5.86c0 0 86.496 -13.392 86.496 -13.392c4.092 -13.021 10.044 -27.158 17.857 -42.411c-12.649 -17.857 -29.39 -39.249 -50.223 -64.174c-2.604 -4.093 -3.907 -8.092 -3.907 -11.998c0 -3.906 2.698 -9.394 8.092 -16.462c5.394 -7.069 19.252 -21.578 41.574 -43.527c22.321 -21.949 36.272 -32.924 41.852 -32.924c5.581 0 10.231 1.302 13.951 3.906c0 0 64.174 50.223 64.174 50.223c12.649 -6.696 26.972 -12.648 42.969 -17.857c4.092 -40.178 8.371 -68.824 12.835 -85.937c2.604 -8.929 8.184 -13.393 16.741 -13.393c0 0 103.795 0 103.795 0c4.092 0 7.812 1.395 11.16 4.185c3.349 2.79 5.209 6.046 5.581 9.766c0 0 12.834 85.379 12.834 85.379c12.649 3.721 26.6 9.487 41.853 17.299c0 0 65.848 -49.665 65.848 -49.665c2.977 -2.604 6.604 -3.906 10.882 -3.906c4.278 0 8.278 1.488 11.998 4.464c53.571 49.479 80.357 79.241 80.357 89.286c0 4.092 -7.347 15.439 -22.042 34.04c-14.695 18.601 -24.833 31.994 -30.413 40.179c8.556 17.857 14.881 33.11 18.973 45.759c0 0 84.821 12.834 84.821 12.834c8.929 1.861 13.393 7.441 13.393 16.742c0 0 0 0 0 0m193.36 -184.431c13.95 -13.951 20.926 -30.692 20.926 -50.223c0 -19.532 -7.069 -36.366 -21.206 -50.503c-14.136 -14.137 -30.877 -21.205 -50.223 -21.205c-19.345 0 -36.086 7.068 -50.223 21.205c-14.137 14.137 -21.205 30.971 -21.205 50.503c0 19.531 6.975 36.272 20.926 50.223c13.951 13.951 30.785 20.926 50.502 20.926c19.718 0 36.552 -6.975 50.503 -20.926c0 0 0 0 0 0m0 571.428c13.95 -13.951 20.926 -30.692 20.926 -50.223c0 -19.531 -7.069 -36.365 -21.206 -50.502c-14.136 -14.137 -30.877 -21.206 -50.223 -21.206c-19.345 0 -36.086 7.069 -50.223 21.206c-14.137 14.137 -21.205 30.971 -21.205 50.502c0 19.531 6.975 36.272 20.926 50.223c13.951 13.951 30.785 20.927 50.502 20.927c19.718 0 36.552 -6.976 50.503 -20.927c0 0 0 0 0 0m-407.646 -336.216c0 -39.435 -13.95 -73.103 -41.852 -101.005c-27.902 -27.901 -61.57 -41.852 -101.005 -41.852c-39.434 0 -73.102 13.951 -101.004 41.852c-27.902 27.902 -41.853 61.57 -41.853 101.005c0 39.434 13.951 73.102 41.853 101.004c27.902 27.902 61.57 41.853 101.004 41.853c39.435 0 73.103 -13.951 101.005 -41.853c27.902 -27.902 41.852 -61.57 41.852 -101.004c0 0 0 0 0 0" />
  </g>
</svg>