<svg height="1000" width="1071.4" xmlns="http://www.w3.org/2000/svg"><path d="M0 550.8v-103.2q0-5.6 3.9-10.9t8.9-5.9l86.5-13.4q6.1-19.5 17.9-42.4-19-26.8-50.2-64.2-3.9-6.1-3.9-11.2 0-6.7 3.9-11.2 12.3-16.7 45.8-49.7t44.1-32.9q6.1 0 11.7 3.9l64.2 50.2q19-10 43-17.9 6.1-60.3 12.8-85.9 3.9-13.4 16.7-13.4h103.8q6.1 0 11.2 4.2t5.6 9.8l12.8 85.4q19 5.6 41.9 17.3l65.8-49.7q4.5-3.9 11.2-3.9 6.1 0 11.7 4.5 80.4 74.2 80.4 89.3 0 5-3.9 10.6-6.7 8.9-23.4 30.1t-25.1 33.5q12.8 26.8 19 45.8l84.8 12.8q5.6 1.1 9.5 5.9t3.9 10.9v103.2q0 5.6-3.9 10.9t-8.9 5.9l-86.5 13.4q-6.1 19.5-17.9 42.4 19 26.8 50.2 64.2 3.9 5.6 3.9 11.2 0 6.7-3.9 10.6-12.8 16.7-46 49.9t-43.8 33.2q-6.1 0-11.7-3.9l-64.2-50.2q-20.6 10.6-43 17.3-6.1 60.3-12.8 86.5-3.9 13.4-16.7 13.4h-103.8q-6.1 0-11.2-4.2t-5.6-9.8l-12.8-85.4q-19-5.6-41.9-17.3l-65.8 49.7q-3.9 3.9-11.2 3.9-6.1 0-11.7-4.5-80.4-74.2-80.4-89.3 0-5 3.9-10.6 5.6-7.8 22.9-29.6t26.2-34q-12.8-24.6-19.5-45.8l-84.8-13.4q-5.6-.6-9.5-5.3t-3.9-10.9zm214.3-50.8q0 59.1 41.9 101t101 41.9 101-41.9 41.9-101-41.9-101-101-41.9-101 41.9-41.9 101zm428.5 324.8v-78.1q0-8.9 83.1-17.3 7.3-16.2 16.7-29-28.5-63.1-28.5-77 0-2.2 2.2-3.9 2.2-1.1 19.5-11.2t32.9-19 16.7-8.9q4.5 0 25.7 25.9t29 37.7q11.2-1.1 16.7-1.1t16.7 1.1q28.5-39.6 51.3-62.5l3.3-1.1q2.2 0 69.2 39.1 2.2 1.7 2.2 3.9 0 14-28.5 77 9.5 12.8 16.7 29 83.1 8.4 83.1 17.3v78.1q0 8.9-83.1 17.3-6.7 15.1-16.7 29 28.5 63.1 28.5 77 0 2.2-2.2 3.9-68.1 39.6-69.2 39.6-4.5 0-25.7-26.2t-29-37.9q-11.2 1.1-16.7 1.1t-16.7-1.1q-7.8 11.7-29 37.9t-25.7 26.2q-1.1 0-69.2-39.6-2.2-1.7-2.2-3.9 0-14 28.5-77-10-14-16.7-29-83.1-8.4-83.1-17.3zm0-571.4v-78.1q0-8.9 83.1-17.3 7.3-16.2 16.7-29-28.5-63.1-28.5-77 0-2.2 2.2-3.9 2.2-1.1 19.5-11.2t32.9-19 16.7-8.9q4.5 0 25.7 25.9t29 37.7q11.2-1.1 16.7-1.1t16.7 1.1q28.5-39.6 51.3-62.5l3.3-1.1q2.2 0 69.2 39.1 2.2 1.7 2.2 3.9 0 14-28.5 77 9.5 12.8 16.7 29 83.1 8.4 83.1 17.3v78.1q0 8.9-83.1 17.3-6.7 15.1-16.7 29 28.5 63.1 28.5 77 0 2.2-2.2 3.9-68.1 39.6-69.2 39.6-4.5 0-25.7-26.2t-29-37.9q-11.2 1.1-16.7 1.1t-16.7-1.1q-7.8 11.7-29 37.9t-25.7 26.2q-1.1 0-69.2-39.6-2.2-1.7-2.2-3.9 0-14 28.5-77-10-14-16.7-29-83.1-8.4-83.1-17.3zm142.8 532.3q0 29.6 20.9 50.5t50.5 20.9 50.5-20.9 20.9-50.5q0-29-21.2-50.2t-50.2-21.2-50.2 21.2-21.2 50.2zm0-571.4q0 29.6 20.9 50.5t50.5 20.9 50.5-20.9 20.9-50.5q0-29-21.2-50.2t-50.2-21.2-50.2 21.2-21.2 50.2z"/></svg>