<svg height="1000px" width="1071.4285714285716px" xmlns="http://www.w3.org/2000/svg">
  <g>
    <path d="M0 550.78125c0 0 0 -103.237 0 -103.237c0 -3.72 1.302 -7.347 3.906 -10.881c2.604 -3.535 5.581 -5.488 8.929 -5.86c0 0 86.495 -13.393 86.495 -13.393c4.093 -13.02 10.045 -27.157 17.857 -42.41c-12.648 -17.857 -29.389 -39.249 -50.223 -64.174c-2.604 -4.093 -3.906 -7.813 -3.906 -11.161c0 -4.464 1.302 -8.185 3.906 -11.161c8.185 -11.161 23.438 -27.716 45.759 -49.665c22.322 -21.949 37.017 -32.924 44.085 -32.924c4.092 0 7.999 1.302 11.719 3.906c0 0 64.174 50.223 64.174 50.223c12.649 -6.696 26.972 -12.648 42.969 -17.857c4.092 -40.178 8.37 -68.824 12.834 -85.937c2.605 -8.929 8.185 -13.393 16.742 -13.393c0 0 103.794 0 103.794 0c4.092 0 7.813 1.395 11.161 4.185c3.348 2.79 5.208 6.046 5.58 9.766c0 0 12.835 85.379 12.835 85.379c12.649 3.72 26.6 9.487 41.853 17.299c0 0 65.848 -49.665 65.848 -49.665c2.976 -2.604 6.696 -3.906 11.161 -3.906c4.092 0 7.998 1.488 11.718 4.464c53.572 49.479 80.358 79.241 80.358 89.286c0 3.348 -1.303 6.882 -3.907 10.603c-4.464 5.952 -12.276 15.997 -23.437 30.134c-11.161 14.136 -19.531 25.297 -25.112 33.482c8.557 17.857 14.881 33.11 18.973 45.759c0 0 84.822 12.834 84.822 12.834c3.72 0.744 6.882 2.698 9.486 5.86c2.605 3.162 3.907 6.789 3.907 10.881c0 0 0 103.237 0 103.237c0 3.72 -1.302 7.348 -3.907 10.882c-2.604 3.534 -5.58 5.487 -8.928 5.859c0 0 -86.496 13.393 -86.496 13.393c-4.092 13.021 -10.044 27.158 -17.857 42.411c12.649 17.857 29.39 39.248 50.223 64.174c2.605 3.72 3.907 7.44 3.907 11.161c0 4.464 -1.302 7.998 -3.907 10.602c-8.556 11.161 -23.902 27.809 -46.038 49.944c-22.135 22.136 -36.737 33.204 -43.805 33.204c-4.093 0 -7.999 -1.303 -11.719 -3.907c0 0 -64.174 -50.223 -64.174 -50.223c-13.765 7.069 -28.088 12.835 -42.969 17.299c-4.092 40.179 -8.37 69.011 -12.835 86.496c-2.604 8.928 -8.184 13.393 -16.741 13.393c0 0 -103.794 0 -103.794 0c-4.093 0 -7.813 -1.395 -11.161 -4.186c-3.348 -2.79 -5.209 -6.045 -5.581 -9.765c0 0 -12.834 -85.38 -12.834 -85.38c-12.649 -3.72 -26.6 -9.486 -41.853 -17.299c0 0 -65.848 49.665 -65.848 49.665c-2.604 2.604 -6.325 3.907 -11.161 3.907c-4.092 0 -7.998 -1.489 -11.719 -4.465c-53.571 -49.479 -80.357 -79.241 -80.357 -89.285c0 -3.349 1.302 -6.883 3.906 -10.603c3.721 -5.208 11.347 -15.067 22.88 -29.576c11.533 -14.509 20.275 -25.856 26.228 -34.04c-8.557 -16.369 -15.067 -31.622 -19.532 -45.759c0 0 -84.821 -13.393 -84.821 -13.393c-3.72 -0.372 -6.883 -2.139 -9.487 -5.301c-2.604 -3.163 -3.906 -6.79 -3.906 -10.882c0 0 0 0 0 0m214.286 -50.781c0 39.434 13.951 73.102 41.852 101.004c27.902 27.902 61.57 41.853 101.005 41.853c39.434 0 73.103 -13.951 101.004 -41.853c27.902 -27.902 41.853 -61.57 41.853 -101.004c0 -39.435 -13.951 -73.103 -41.853 -101.005c-27.901 -27.902 -61.57 -41.852 -101.004 -41.852c-39.435 0 -73.103 13.95 -101.005 41.852c-27.901 27.902 -41.852 61.57 -41.852 101.005c0 0 0 0 0 0m428.571 324.777c0 0 0 -78.125 0 -78.125c0 -5.953 27.716 -11.719 83.147 -17.3c4.837 -10.788 10.417 -20.461 16.742 -29.017c-18.974 -42.039 -28.46 -67.709 -28.46 -77.009c0 -1.488 0.744 -2.791 2.232 -3.907c1.488 -0.744 7.998 -4.464 19.531 -11.16c11.533 -6.697 22.508 -13.021 32.924 -18.974c10.417 -5.952 15.997 -8.928 16.741 -8.928c2.976 0 11.533 8.649 25.67 25.949c14.137 17.299 23.809 29.854 29.018 37.667c7.44 -0.744 13.021 -1.116 16.741 -1.116c3.72 0 9.3 0.372 16.741 1.116c18.973 -26.414 36.086 -47.247 51.339 -62.5c0 0 3.348 -1.116 3.348 -1.116c1.489 0 24.554 13.021 69.197 39.062c1.488 1.116 2.232 2.419 2.232 3.907c0 9.3 -9.487 34.97 -28.46 77.009c6.325 8.556 11.905 18.229 16.741 29.017c55.432 5.581 83.148 11.347 83.148 17.3c0 0 0 78.125 0 78.125c0 5.952 -27.716 11.718 -83.148 17.299c-4.464 10.044 -10.044 19.717 -16.741 29.017c18.973 42.039 28.46 67.709 28.46 77.009c0 1.489 -0.744 2.791 -2.232 3.907c-45.387 26.413 -68.453 39.62 -69.197 39.62c-2.976 0 -11.532 -8.742 -25.669 -26.227c-14.137 -17.486 -23.81 -30.134 -29.018 -37.947c-7.441 0.744 -13.021 1.116 -16.741 1.116c-3.72 0 -9.301 -0.372 -16.741 -1.116c-5.209 7.813 -14.881 20.461 -29.018 37.947c-14.137 17.485 -22.694 26.227 -25.67 26.227c-0.744 0 -23.809 -13.207 -69.196 -39.62c-1.488 -1.116 -2.232 -2.418 -2.232 -3.907c0 -9.3 9.486 -34.97 28.46 -77.009c-6.697 -9.3 -12.277 -18.973 -16.742 -29.017c-55.431 -5.581 -83.147 -11.347 -83.147 -17.299c0 0 0 0 0 0m0 -571.429c0 0 0 -78.125 0 -78.125c0 -5.952 27.716 -11.719 83.147 -17.299c4.837 -10.789 10.417 -20.461 16.742 -29.018c-18.974 -42.039 -28.46 -67.708 -28.46 -77.009c0 -1.488 0.744 -2.79 2.232 -3.906c1.488 -0.744 7.998 -4.464 19.531 -11.161c11.533 -6.696 22.508 -13.021 32.924 -18.973c10.417 -5.952 15.997 -8.929 16.741 -8.929c2.976 0 11.533 8.65 25.67 25.949c14.137 17.299 23.809 29.855 29.018 37.667c7.44 -0.744 13.021 -1.116 16.741 -1.116c3.72 0 9.3 0.372 16.741 1.116c18.973 -26.413 36.086 -47.247 51.339 -62.5c0 0 3.348 -1.116 3.348 -1.116c1.489 0 24.554 13.021 69.197 39.063c1.488 1.116 2.232 2.418 2.232 3.906c0 9.301 -9.487 34.97 -28.46 77.009c6.325 8.557 11.905 18.229 16.741 29.018c55.432 5.58 83.148 11.347 83.148 17.299c0 0 0 78.125 0 78.125c0 5.952 -27.716 11.719 -83.148 17.299c-4.464 10.045 -10.044 19.717 -16.741 29.018c18.973 42.039 28.46 67.708 28.46 77.009c0 1.488 -0.744 2.79 -2.232 3.906c-45.387 26.414 -68.453 39.621 -69.197 39.621c-2.976 0 -11.532 -8.743 -25.669 -26.228c-14.137 -17.485 -23.81 -30.134 -29.018 -37.946c-7.441 0.744 -13.021 1.116 -16.741 1.116c-3.72 0 -9.301 -0.372 -16.741 -1.116c-5.209 7.812 -14.881 20.461 -29.018 37.946c-14.137 17.485 -22.694 26.228 -25.67 26.228c-0.744 0 -23.809 -13.207 -69.196 -39.621c-1.488 -1.116 -2.232 -2.418 -2.232 -3.906c0 -9.301 9.486 -34.97 28.46 -77.009c-6.697 -9.301 -12.277 -18.973 -16.742 -29.018c-55.431 -5.58 -83.147 -11.347 -83.147 -17.299c0 0 0 0 0 0m142.857 532.366c0 19.717 6.976 36.551 20.927 50.502c13.951 13.951 30.785 20.927 50.502 20.927c19.717 0 36.551 -6.976 50.502 -20.927c13.951 -13.951 20.926 -30.785 20.926 -50.502c0 -19.345 -7.068 -36.086 -21.205 -50.223c-14.137 -14.137 -30.878 -21.206 -50.223 -21.206c-19.345 0 -36.086 7.069 -50.223 21.206c-14.137 14.137 -21.206 30.878 -21.206 50.223c0 0 0 0 0 0m0 -571.429c0 19.718 6.976 36.552 20.927 50.503c13.951 13.951 30.785 20.926 50.502 20.926c19.717 0 36.551 -6.975 50.502 -20.926c13.951 -13.951 20.926 -30.785 20.926 -50.503c0 -19.345 -7.068 -36.086 -21.205 -50.223c-14.137 -14.137 -30.878 -21.205 -50.223 -21.205c-19.345 0 -36.086 7.068 -50.223 21.205c-14.137 14.137 -21.206 30.878 -21.206 50.223c0 0 0 0 0 0" />
  </g>
</svg>