<svg height="1000px" width="857.1428571428571px" xmlns="http://www.w3.org/2000/svg">
  <g>
    <path d="M857.1428571428571 439.1741071428571c0 0 0 123.884 0 123.884c0 4.464 -1.488 8.742 -4.464 12.835c-2.976 4.092 -6.697 6.51 -11.161 7.254c0 0 -103.237 15.625 -103.237 15.625c-7.068 20.089 -14.323 37.017 -21.763 50.781c13.021 18.602 32.924 44.271 59.71 77.009c3.72 4.465 5.58 9.115 5.58 13.951c0 4.837 -3.348 11.626 -10.044 20.369c-6.697 8.742 -23.438 26.32 -50.224 52.734c-26.785 26.414 -43.34 39.62 -49.665 39.62c-6.324 0 -12.091 -1.674 -17.299 -5.022c0 0 -77.009 -60.268 -77.009 -60.268c-16.369 8.557 -33.296 15.625 -50.781 21.206c-5.953 50.595 -11.347 85.193 -16.183 103.794c-2.604 10.417 -9.301 15.625 -20.089 15.625c0 0 -123.884 0 -123.884 0c-5.209 0 -9.766 -1.581 -13.672 -4.743c-3.907 -3.162 -6.046 -7.161 -6.418 -11.998c0 0 -15.625 -102.678 -15.625 -102.678c-18.229 -5.953 -34.97 -12.835 -50.223 -20.648c0 0 -78.683 59.71 -78.683 59.71c-3.72 3.348 -8.277 5.023 -13.672 5.023c-5.394 0 -10.137 -2.047 -14.23 -6.139c-46.875 -42.411 -77.567 -73.661 -92.076 -93.75c-2.604 -3.72 -3.906 -7.905 -3.906 -12.556c0 -4.65 2.139 -9.951 6.418 -15.904c4.278 -5.952 13.113 -17.392 26.506 -34.319c13.393 -16.927 23.438 -30.041 30.134 -39.341c-10.044 -18.602 -17.671 -37.017 -22.879 -55.246c0 0 -102.121 -15.067 -102.121 -15.067c-10.789 -1.488 -16.183 -8.184 -16.183 -20.089c0 0 0 -123.884 0 -123.884c0 -4.464 1.488 -8.743 4.464 -12.835c2.977 -4.092 6.511 -6.51 10.603 -7.254c0 0 103.795 -15.625 103.795 -15.625c5.208 -17.114 12.463 -34.227 21.763 -51.34c-14.881 -21.205 -34.784 -46.875 -59.71 -77.009c-3.72 -4.464 -5.58 -8.742 -5.58 -12.834c0 -4.093 3.255 -10.696 9.766 -19.811c6.51 -9.114 23.251 -26.971 50.223 -53.571c26.972 -26.6 43.713 -39.9 50.223 -39.9c6.51 0 12.184 1.86 17.02 5.581c0 0 77.009 59.709 77.009 59.709c16.369 -8.556 33.296 -15.625 50.781 -21.205c5.953 -50.595 11.347 -85.193 16.183 -103.795c2.604 -10.416 9.301 -15.625 20.09 -15.625c0 0 123.884 0 123.884 0c5.208 0 9.765 1.582 13.671 4.744c3.907 3.162 6.046 7.161 6.418 11.998c0 0 15.625 102.678 15.625 102.678c18.229 5.952 34.97 12.835 50.223 20.647c0 0 79.241 -59.709 79.241 -59.709c3.348 -3.349 7.627 -5.023 12.835 -5.023c5.208 0 10.045 1.86 14.509 5.581c47.991 44.27 78.683 75.892 92.076 94.866c2.604 2.976 3.906 6.882 3.906 11.718c0 4.837 -2.139 10.231 -6.417 16.183c-4.279 5.953 -13.114 17.393 -26.507 34.32c-13.393 16.927 -23.438 30.041 -30.134 39.341c9.673 18.601 17.299 36.831 22.879 54.688c0 0 102.121 15.625 102.121 15.625c10.789 1.488 16.183 8.184 16.183 20.089c0 0 0 0 0 0m-285.714 60.826c0 -39.435 -13.951 -73.103 -41.853 -101.005c-27.902 -27.901 -61.57 -41.852 -101.004 -41.852c-39.435 0 -73.103 13.951 -101.005 41.852c-27.902 27.902 -41.853 61.57 -41.853 101.005c0 39.434 13.951 73.103 41.853 101.004c27.902 27.902 61.57 41.853 101.005 41.853c39.434 0 73.102 -13.951 101.004 -41.853c27.902 -27.901 41.853 -61.57 41.853 -101.004c0 0 0 0 0 0" />
  </g>
</svg>