<svg height="1000px" width="777.83203125px" xmlns="http://www.w3.org/2000/svg">
  <g>
    <path d="M0 556.15234375c0 0 0 -115.234 0 -115.234c0 -3.907 4.964 -7.406 14.893 -10.498c9.928 -3.093 21.077 -5.616 33.447 -7.569c12.37 -1.953 24.414 -3.418 36.133 -4.394c11.718 -0.977 19.531 -1.791 23.437 -2.442c5.86 -19.856 13.835 -38.899 23.926 -57.129c-17.904 -26.692 -37.435 -52.246 -58.594 -76.66c0 0 -3.418 -7.324 -3.418 -7.324c0 -2.604 4.558 -8.87 13.672 -18.799c9.115 -9.928 19.287 -20.589 30.518 -31.982c11.23 -11.393 22.054 -21.566 32.47 -30.518c10.417 -8.952 16.927 -13.428 19.532 -13.428c0.651 0 4.964 3.012 12.939 9.034c7.975 6.022 16.846 12.695 26.611 20.019c9.766 7.324 18.962 14.323 27.588 20.996c8.627 6.673 13.916 10.661 15.869 11.963c9.441 -5.208 18.962 -9.521 28.565 -12.939c9.603 -3.418 19.45 -6.755 29.541 -10.01c0 -3.906 0.488 -11.882 1.465 -23.926c0.976 -12.044 2.441 -24.251 4.394 -36.621c1.953 -12.37 4.476 -23.6 7.569 -33.691c3.092 -10.091 6.591 -15.137 10.498 -15.137c0 0 115.722 0 115.722 0c4.558 0 7.65 2.441 9.278 7.324c3.906 15.951 6.673 32.715 8.3 50.293c1.628 17.578 3.907 34.831 6.836 51.758c10.092 2.604 19.776 5.697 29.053 9.277c9.277 3.581 18.473 8.138 27.588 13.672c2.604 -1.953 8.138 -6.266 16.602 -12.939c8.463 -6.673 17.496 -13.672 27.099 -20.996c9.603 -7.325 18.229 -13.835 25.879 -19.532c7.65 -5.696 12.451 -8.545 14.404 -8.545c1.954 0 7.976 4.476 18.067 13.428c10.091 8.952 20.67 19.125 31.738 30.518c11.068 11.393 21.078 22.054 30.029 31.982c8.952 9.929 13.428 16.195 13.428 18.799c0 1.302 -2.848 5.941 -8.545 13.916c-5.696 7.975 -12.044 16.683 -19.043 26.123c-6.998 9.44 -13.834 18.473 -20.508 27.1c-6.673 8.626 -10.66 13.916 -11.962 15.869c10.742 17.903 19.042 37.923 24.902 60.058c15.95 3.256 32.796 5.372 50.537 6.348c17.741 0.977 34.261 4.232 49.561 9.766c5.208 1.302 7.812 4.231 7.812 8.789c0 0 0 115.234 0 115.234c0 3.906 -4.801 7.406 -14.404 10.498c-9.603 3.093 -20.752 5.615 -33.448 7.569c-12.695 1.953 -25.065 3.418 -37.109 4.394c-12.044 0.977 -20.019 1.79 -23.926 2.441c-4.557 18.555 -12.207 37.598 -22.949 57.129c17.904 26.693 37.598 52.246 59.082 76.661c0 0 2.93 7.324 2.93 7.324c0 2.604 -4.476 8.87 -13.428 18.799c-8.952 9.928 -19.124 20.589 -30.518 31.982c-11.393 11.393 -22.216 21.566 -32.47 30.518c-10.254 8.951 -16.846 13.427 -19.776 13.427c-0.651 0 -4.964 -3.011 -12.939 -9.033c-7.975 -6.022 -16.764 -12.695 -26.367 -20.019c-9.603 -7.325 -18.718 -14.323 -27.344 -20.997c-8.626 -6.673 -14.079 -10.66 -16.357 -11.962c-9.441 5.208 -18.962 9.684 -28.565 13.427c-9.603 3.744 -19.287 6.918 -29.053 9.522c-0.651 3.906 -1.546 11.963 -2.685 24.17c-1.139 12.207 -2.686 24.577 -4.639 37.109c-1.953 12.533 -4.232 23.845 -6.836 33.936c-2.604 10.091 -6.022 15.136 -10.254 15.136c0 0 -115.722 0 -115.722 0c-4.558 0 -7.65 -2.767 -9.278 -8.3c-4.557 -15.951 -7.649 -32.715 -9.277 -50.293c-1.628 -17.579 -3.418 -34.343 -5.371 -50.293c-19.857 -5.86 -38.9 -13.998 -57.129 -24.414c-13.346 10.091 -26.53 19.938 -39.551 29.541c-13.021 9.602 -25.879 19.775 -38.574 30.517c0 0 -5.859 1.953 -5.859 1.953c-1.954 0 -7.976 -4.476 -18.067 -13.427c-10.091 -8.952 -20.589 -19.125 -31.494 -30.518c-10.905 -11.393 -20.833 -22.054 -29.785 -31.982c-8.952 -9.929 -13.428 -16.195 -13.428 -18.799c0 -0.651 2.604 -4.964 7.813 -12.94c5.208 -7.975 11.312 -16.683 18.31 -26.123c6.999 -9.44 13.835 -18.473 20.508 -27.099c6.673 -8.627 10.986 -14.242 12.939 -16.846c-10.742 -17.904 -19.042 -37.923 -24.902 -60.059c-16.601 -3.255 -33.61 -5.371 -51.025 -6.347c-17.416 -0.977 -33.773 -4.232 -49.073 -9.766c-5.208 -1.302 -7.812 -4.232 -7.812 -8.789c0 0 0 0 0 0m271.973 -57.129c0 15.951 3.011 31.087 9.033 45.41c6.022 14.323 14.323 26.856 24.902 37.598c10.58 10.742 23.112 19.287 37.598 25.635c14.486 6.347 29.704 9.521 45.654 9.521c15.951 0 31.087 -3.174 45.41 -9.521c14.323 -6.348 26.612 -14.893 36.866 -25.635c10.253 -10.742 18.554 -23.275 24.902 -37.598c6.348 -14.323 9.521 -29.459 9.521 -45.41c0 -15.95 -3.173 -30.924 -9.521 -44.922c-6.348 -13.997 -14.649 -26.367 -24.902 -37.109c-10.254 -10.742 -22.543 -19.125 -36.866 -25.147c-14.323 -6.022 -29.459 -9.033 -45.41 -9.033c-15.95 0 -31.168 3.011 -45.654 9.033c-14.486 6.022 -27.018 14.405 -37.598 25.147c-10.579 10.742 -18.88 23.112 -24.902 37.109c-6.022 13.998 -9.033 28.972 -9.033 44.922c0 0 0 0 0 0" />
  </g>
</svg>