<svg height="1000" width="857.1" xmlns="http://www.w3.org/2000/svg"><path d="M0 560.9v-123.9q0-6.7 4.5-12.8t10.6-7.3l103.8-15.6q7.8-25.7 21.8-51.3-22.3-31.8-59.7-77-5.6-6.7-5.6-13.4 0-5.6 5-12.8 14.5-20.1 55-60t52.7-39.9q7.3 0 14.5 5.6l77 59.7q24.6-12.8 50.8-21.2 8.9-75.9 16.2-103.8 3.9-15.6 20.1-15.6h123.9q7.8 0 13.7 4.7t6.4 12l15.6 102.7q27.3 8.9 50.2 20.6l79.2-59.7q5-5 13.4-5 7.3 0 14 5.6 72 66.4 92.1 94.9 3.9 4.5 3.9 12.3 0 6.7-4.5 12.8-8.4 11.7-28.5 37.1t-30.1 39.3q14.5 27.9 22.9 54.7l102.1 15.6q7.3 1.1 11.7 7t4.5 13.1v123.9q0 6.7-4.5 12.8t-11.2 7.3l-103.2 15.6q-10.6 30.1-21.8 50.8 19.5 27.9 59.7 77 5.6 6.7 5.6 14t-5 12.8q-15.1 20.6-55.2 60.3t-52.5 39.6q-6.7 0-14.5-5l-77-60.3q-24.6 12.8-50.8 21.2-8.9 75.9-16.2 103.8-3.9 15.6-20.1 15.6h-123.9q-7.8 0-13.7-4.7t-6.4-12l-15.6-102.7q-27.3-8.9-50.2-20.6l-78.7 59.7q-5.6 5-14 5-7.8 0-14-6.1-70.3-63.6-92.1-93.7-3.9-5.6-3.9-12.8 0-6.7 4.5-12.8 8.4-11.7 28.5-37.1t30.1-39.3q-15.1-27.9-22.9-55.2l-102.1-15.1q-7.3-1.1-11.7-7t-4.5-13.1zm285.7-60.8q0 59.1 41.9 101t101 41.9 101-41.9 41.9-101-41.9-101-101-41.9-101 41.9-41.9 101z"/></svg>