<svg height="1000px" width="857.1428571428571px" xmlns="http://www.w3.org/2000/svg">
  <g>
    <path d="M0 560.8258928571429c0 0 0 -123.884 0 -123.884c0 -4.464 1.488 -8.742 4.464 -12.835c2.976 -4.092 6.511 -6.51 10.603 -7.254c0 0 103.795 -15.625 103.795 -15.625c5.208 -17.113 12.462 -34.226 21.763 -51.34c-14.881 -21.205 -34.784 -46.875 -59.71 -77.008c-3.72 -4.465 -5.58 -8.743 -5.58 -12.835c0 -4.093 3.255 -10.696 9.765 -19.811c6.511 -9.114 23.252 -26.971 50.224 -53.571c26.971 -26.6 43.712 -39.9 50.223 -39.9c6.51 0 12.184 1.861 17.02 5.581c0 0 77.009 59.71 77.009 59.71c16.369 -8.557 33.296 -15.625 50.781 -21.206c5.953 -50.595 11.347 -85.193 16.183 -103.794c2.604 -10.417 9.301 -15.625 20.089 -15.625c0 0 123.884 0 123.884 0c5.209 0 9.766 1.581 13.672 4.743c3.907 3.162 6.046 7.161 6.418 11.998c0 0 15.625 102.678 15.625 102.678c18.229 5.953 34.97 12.835 50.223 20.648c0 0 79.241 -59.71 79.241 -59.71c3.348 -3.348 7.626 -5.023 12.835 -5.023c5.208 0 10.044 1.861 14.509 5.581c47.991 44.271 78.683 75.893 92.076 94.866c2.604 2.976 3.906 6.882 3.906 11.719c0 4.836 -2.139 10.23 -6.418 16.183c-4.278 5.952 -13.113 17.392 -26.506 34.319c-13.393 16.927 -23.438 30.041 -30.134 39.341c9.672 18.602 17.299 36.831 22.879 54.688c0 0 102.121 15.625 102.121 15.625c10.789 1.488 16.183 8.184 16.183 20.089c0 0 0 123.884 0 123.884c0 4.464 -1.488 8.743 -4.464 12.835c-2.977 4.092 -6.697 6.51 -11.161 7.254c0 0 -103.237 15.625 -103.237 15.625c-7.068 20.09 -14.323 37.017 -21.763 50.782c13.021 18.601 32.924 44.271 59.71 77.009c3.72 4.464 5.58 9.114 5.58 13.95c0 4.837 -3.348 11.626 -10.045 20.369c-6.696 8.742 -23.437 26.32 -50.223 52.734c-26.786 26.414 -43.341 39.621 -49.665 39.621c-6.324 0 -12.091 -1.674 -17.299 -5.023c0 0 -77.009 -60.267 -77.009 -60.267c-16.369 8.556 -33.296 15.625 -50.781 21.205c-5.953 50.595 -11.347 85.193 -16.183 103.795c-2.604 10.416 -9.301 15.625 -20.09 15.625c0 0 -123.884 0 -123.884 0c-5.208 0 -9.765 -1.582 -13.671 -4.744c-3.907 -3.162 -6.046 -7.161 -6.418 -11.998c0 0 -15.625 -102.678 -15.625 -102.678c-18.229 -5.952 -34.97 -12.835 -50.223 -20.647c0 0 -78.683 59.709 -78.683 59.709c-3.72 3.349 -8.278 5.023 -13.672 5.023c-5.394 0 -10.138 -2.046 -14.23 -6.139c-46.875 -42.41 -77.567 -73.66 -92.076 -93.75c-2.604 -3.72 -3.906 -7.905 -3.906 -12.555c0 -4.651 2.139 -9.952 6.417 -15.904c4.279 -5.953 13.114 -17.393 26.507 -34.32c13.393 -16.927 23.438 -30.041 30.134 -39.341c-10.045 -18.601 -17.671 -37.017 -22.879 -55.246c0 0 -102.121 -15.067 -102.121 -15.067c-10.789 -1.488 -16.183 -8.184 -16.183 -20.089c0 0 0 0 0 0m285.714 -60.826c0 39.435 13.951 73.103 41.853 101.005c27.902 27.901 61.57 41.852 101.004 41.852c39.435 0 73.103 -13.951 101.005 -41.852c27.902 -27.902 41.853 -61.57 41.853 -101.005c0 -39.434 -13.951 -73.103 -41.853 -101.004c-27.902 -27.902 -61.57 -41.853 -101.005 -41.853c-39.434 0 -73.102 13.951 -101.004 41.853c-27.902 27.901 -41.853 61.57 -41.853 101.004c0 0 0 0 0 0" />
  </g>
</svg>