<svg height="1000" width="857.1" xmlns="http://www.w3.org/2000/svg"><path d="M639 623.3q-9.5 19.6 -31.9 19.6H250q-22.3 0 -31.8 -19.6 -10.1 -19.5 2.8 -36.8l178.6 -250q10.6 -15.1 29 -15.1t29 15.1l178.6 250q12.8 17.3 2.8 36.8zm75.3 144.6V232.1q0 -7.2 -5.3 -12.5t-12.6 -5.3H160.7q-7.2 0 -12.5 5.3t-5.3 12.5v535.8q0 7.2 5.3 12.5t12.5 5.3h535.7q7.3 0 12.6 -5.3t5.3 -12.5zM857.1 232.1v535.8q0 66.4 -47.1 113.5t-113.6 47.2H160.7q-66.4 0 -113.5 -47.2T0 767.9V232.1Q0 165.7 47.2 118.6T160.7 71.4h535.7q66.4 0 113.6 47.2t47.1 113.5z"/></svg>