<svg height="1000" width="857.143" xmlns="http://www.w3.org/2000/svg"><path d="M571.392 321.472v357.12q0 14.508 -10.602 25.11t-25.11 10.602q-11.16 0 -20.646 -6.696l-249.984 -178.56q-15.066 -10.602 -15.066 -29.016t15.066 -29.016l249.984 -178.56q9.486 -6.696 20.646 -6.696 14.508 0 25.11 10.602t10.602 25.11zm142.848 446.4v-535.68q0 -7.254 -5.301 -12.555t-12.555 -5.301h-535.68q-7.254 0 -12.555 5.301t-5.301 12.555v535.68q0 7.254 5.301 12.555t12.555 5.301h535.68q7.254 0 12.555 -5.301t5.301 -12.555zm142.848 -535.68v535.68q0 66.402 -47.151 113.553t-113.553 47.151h-535.68q-66.402 0 -113.553 -47.151t-47.151 -113.553v-535.68q0 -66.402 47.151 -113.553t113.553 -47.151h535.68q66.402 0 113.553 47.151t47.151 113.553z"/></svg>