<svg height="1000" width="857.1" xmlns="http://www.w3.org/2000/svg"><path d="M571.4 321.4v357.2q0 14.5 -10.6 25.1t-25.1 10.6q-11.1 0 -20.6 -6.7L265.1 529Q250 518.4 250 500t15.1 -29l250 -178.6q9.5 -6.7 20.6 -6.7 14.5 0 25.1 10.6t10.6 25.1zm142.9 446.5V232.1q0 -7.2 -5.3 -12.5t-12.6 -5.3H160.7q-7.2 0 -12.5 5.3t-5.3 12.5v535.8q0 7.2 5.3 12.5t12.5 5.3h535.7q7.3 0 12.6 -5.3t5.3 -12.5zM857.1 232.1v535.8q0 66.4 -47.1 113.5t-113.6 47.2H160.7q-66.4 0 -113.5 -47.2T0 767.9V232.1Q0 165.7 47.2 118.6T160.7 71.4h535.7q66.4 0 113.6 47.2t47.1 113.5z"/></svg>