<svg height="1000px" width="928.5714285714286px" xmlns="http://www.w3.org/2000/svg">
  <g>
    <path d="M928.5714285714286 160.71428571428567c0 0 0 678.571 0 678.571c0 24.554 -8.743 45.573 -26.228 63.058c-17.485 17.486 -38.504 26.228 -63.058 26.228c0 0 -750 0 -750 0c-24.553 0 -45.573 -8.742 -63.058 -26.228c-17.485 -17.485 -26.227 -38.504 -26.227 -63.058c0 0 0 -678.571 0 -678.571c0 -24.554 8.742 -45.573 26.227 -63.058c17.485 -17.485 38.505 -26.228 63.058 -26.228c0 0 750 0 750 0c24.554 0 45.573 8.743 63.058 26.228c17.485 17.485 26.228 38.504 26.228 63.058c0 0 0 0 0 0m-71.429 678.571c0 0 0 -625 0 -625c0 0 -357.142 0 -357.142 0c0 0 0 642.858 0 642.858c0 0 339.285 0 339.285 0c4.837 0 9.022 -1.768 12.556 -5.302c3.534 -3.534 5.301 -7.719 5.301 -12.556c0 0 0 0 0 0m-767.857 17.858c0 0 339.286 0 339.286 0c0 0 0 -642.858 0 -642.858c0 0 -357.143 0 -357.143 0c0 0 0 625 0 625c0 4.837 1.767 9.022 5.301 12.556c3.535 3.534 7.72 5.302 12.556 5.302c0 0 0 0 0 0" />
  </g>
</svg>