<svg height="1000" width="1000" xmlns="http://www.w3.org/2000/svg"><path d="M999.936 500.032q0 97.092 -66.96 179.397t-181.908 130.014 -251.1 47.709q-39.06 0 -80.91 -4.464 -110.484 97.65 -256.68 135.036 -27.342 7.812 -63.612 12.276 -9.486 1.116 -17.019 -5.022t-9.765 -16.182v-.558q-1.674 -2.232 -.279 -6.696t1.116 -5.58 2.511 -5.301l3.348 -5.022t3.906 -4.743 4.464 -5.022q3.906 -4.464 17.298 -19.251t19.251 -21.204 17.298 -22.041 18.135 -28.458 15.066 -32.922 14.508 -42.408q-87.606 -49.662 -138.105 -122.76t-50.499 -156.798q0 -72.54 39.618 -138.663t106.578 -114.111 159.588 -76.167 194.184 -28.179q136.152 0 251.1 47.709t181.908 130.014 66.96 179.397z"/></svg>