<svg height="1000px" width="900px" xmlns="http://www.w3.org/2000/svg">
  <g>
    <path d="M0 453.88893127441406c0 -45.333 11.833 -88 35.5 -128c23.667 -40 55.833 -74.833 96.5 -104.5c40.667 -29.667 88.333 -53.167 143 -70.5c54.667 -17.333 113 -26 175 -26c62 0 120.333 8.667 175 26c54.667 17.333 102.333 40.833 143 70.5c40.667 29.667 72.833 64.5 96.5 104.5c23.667 40 35.5 82.667 35.5 128c0 45.333 -11.833 88 -35.5 128c-23.667 40 -55.833 74.833 -96.5 104.5c-40.667 29.667 -88.333 53.167 -143 70.5c-54.667 17.333 -113 26 -175 26c-29.333 0 -57.333 -2 -84 -6c-28 21.333 -58.167 39.667 -90.5 55c-32.333 15.333 -66.833 27 -103.5 35c0 0 -24 4 -24 4c-8 1.333 -16.333 2.667 -25 4c-10.667 1.333 -17.333 -3.333 -20 -14c0 0 0 -1 0 -1c-1.333 -4.667 -0.333 -8.333 3 -11c0 0 9 -10 9 -10c6.667 -7.333 13.167 -14.5 19.5 -21.5c6.333 -7 12 -15.167 17 -24.5c5 -9.333 9.667 -20.167 14 -32.5c4.333 -12.333 8.167 -27.5 11.5 -45.5c-54 -30 -97 -67.5 -129 -112.5c-32 -45 -48 -94.5 -48 -148.5c0 0 0 0 0 0" />
  </g>
</svg>