<svg height="1000px" width="1000px" xmlns="http://www.w3.org/2000/svg">
  <g>
    <path d="M1000 499.99999999999994c0 64.732 -22.321 124.535 -66.964 179.408c-44.643 54.874 -105.283 98.215 -181.92 130.023c-76.637 31.808 -160.342 47.712 -251.116 47.712c-26.042 0 -53.013 -1.488 -80.915 -4.464c-73.661 65.104 -159.226 110.119 -256.697 135.044c-44.27 12.649 -71.242 15.067 -80.915 7.255c-5.208 -4.093 -8.37 -9.487 -9.486 -16.183c0 0 0 -0.558 0 -0.558c-1.116 -1.488 -1.209 -3.721 -0.279 -6.697c0.93 -2.976 1.302 -4.836 1.116 -5.58c-0.186 -0.372 0.651 -2.046 2.511 -5.022c4.092 -5.953 7.719 -10.696 10.882 -14.23c3.162 -3.535 9.207 -10.231 18.136 -20.09c8.928 -9.858 15.346 -16.927 19.252 -21.205c3.906 -4.278 9.673 -11.626 17.299 -22.042c7.627 -10.417 13.672 -19.904 18.136 -28.46c12.649 -23.81 22.508 -48.921 29.576 -75.335c-58.408 -33.11 -104.446 -74.033 -138.114 -122.768c-33.668 -48.735 -50.502 -99.144 -50.502 -151.228c0 -52.083 13.207 -100.167 39.621 -144.252c26.413 -44.085 61.941 -82.124 106.584 -114.118c44.643 -31.994 97.843 -57.385 159.599 -76.172c61.756 -18.787 132.254 -28.181 211.495 -28.181c79.241 0 157.18 15.904 233.817 47.712c76.637 31.808 137.277 75.149 181.92 130.023c44.643 54.873 66.964 114.676 66.964 179.408c0 0 0 0 0 0" />
  </g>
</svg>