<svg height="1000px" width="935.546875px" xmlns="http://www.w3.org/2000/svg">
  <g>
    <path d="M0 452.05543155316263c0 -47.201 12.37 -91.553 37.109 -133.057c24.74 -41.504 58.269 -77.718 100.586 -108.642c42.318 -30.925 91.716 -55.42 148.194 -73.487c56.478 -18.066 117.106 -27.099 181.884 -27.099c64.779 0 125.489 9.033 182.129 27.099c56.641 18.067 106.12 42.562 148.438 73.487c42.318 30.924 75.846 67.057 100.586 108.398c24.739 41.341 37.109 85.775 37.109 133.301c0 47.201 -12.37 91.471 -37.109 132.813c-24.74 41.341 -58.268 77.555 -100.586 108.642c-42.318 31.087 -91.797 55.583 -148.438 73.486c-56.64 17.904 -117.35 26.856 -182.129 26.856c-29.947 0 -59.244 -1.953 -87.89 -5.859c-57.292 45.247 -124.186 76.497 -200.684 93.75c-8.138 1.302 -16.357 2.685 -24.658 4.15c-8.301 1.465 -17.171 2.848 -26.611 4.15c-5.209 0.651 -9.685 -0.407 -13.428 -3.174c-3.744 -2.766 -6.266 -6.754 -7.568 -11.962c-1.302 -5.209 -0.489 -9.522 2.441 -12.94c2.93 -3.418 6.185 -6.754 9.766 -10.01c7.487 -7.487 14.485 -14.729 20.996 -21.728c6.51 -6.999 12.451 -15.3 17.822 -24.903c5.371 -9.602 10.254 -20.914 14.648 -33.935c4.395 -13.021 8.22 -28.809 11.475 -47.363c-56.641 -31.901 -101.481 -71.208 -134.521 -117.92c-33.041 -46.713 -49.561 -98.063 -49.561 -154.053c0 0 0 0 0 0" />
  </g>
</svg>