<svg height="1000" width="1000" xmlns="http://www.w3.org/2000/svg"><path d="M500 214.3q-113.8 0 -212.9 38.8T129.7 357.7 71.4 500q0 62.5 39.9 119.1t112.5 98l48.5 27.9 -15 53.5q-13.4 50.8 -39.1 96Q303 859.4 371.7 799.1l23.9 -21.2 31.9 3.4q38.5 4.4 72.5 4.4 113.8 0 212.9 -38.8T870.3 642.3 928.6 500 870.3 357.7 712.9 253.1 500 214.3zM1000 500q0 97.1 -67 179.4t-181.9 130T500 857.1q-39.1 0 -80.9 -4.4 -110.5 97.6 -256.7 135Q135 995.5 98.8 1000H96q-8.4 0 -15.1 -5.9T72 978.8v-.6q-1.7 -2.2 -.3 -6.7t1.1 -5.5 2.5 -5.3l3.4 -5.1t3.9 -4.7 4.5 -5q3.9 -4.5 17.3 -19.3t19.2 -21.2 17.3 -22T159 854.9 174.1 822t14.5 -42.4Q101 729.9 50.5 656.8T0 500Q0 402.9 67 320.6t181.9 -130T500 142.9t251.1 47.7 181.9 130 67 179.4z"/></svg>