<svg height="1000px" width="935.546875px" xmlns="http://www.w3.org/2000/svg">
  <g>
    <path d="M0 452.1484375c0 -40.039 7.975 -76.742 23.926 -110.107c15.95 -33.366 37.109 -63.233 63.476 -89.6c26.368 -26.367 56.397 -49.072 90.088 -68.115c33.692 -19.043 67.79 -34.099 102.295 -45.166c30.599 -10.091 61.605 -17.497 93.018 -22.217c31.412 -4.72 63.069 -7.08 94.97 -7.08c31.901 0 63.558 2.36 94.971 7.08c31.413 4.72 62.419 12.126 93.018 22.217c34.505 11.393 68.685 26.53 102.539 45.41c33.854 18.88 63.965 41.504 90.332 67.871c26.367 26.367 47.526 56.234 63.476 89.6c15.951 33.365 23.926 70.068 23.926 110.107c0 40.039 -7.975 76.66 -23.926 109.863c-15.95 33.203 -37.109 62.989 -63.476 89.356c-26.367 26.367 -56.397 49.235 -90.088 68.603c-33.691 19.369 -67.953 34.424 -102.783 45.166c-30.599 10.091 -61.524 17.416 -92.774 21.973c-31.25 4.557 -62.988 6.836 -95.215 6.836c-29.947 0 -59.244 -1.953 -87.89 -5.86c-29.948 23.438 -61.768 42.806 -95.459 58.106c-33.692 15.299 -68.766 27.181 -105.225 35.644c-8.789 1.303 -17.822 3.012 -27.099 5.127c-9.278 2.116 -17.985 3.174 -26.123 3.174c-5.209 0 -9.685 -1.871 -13.428 -5.615c-3.744 -3.743 -5.615 -8.219 -5.615 -13.428c0 -3.906 1.383 -7.405 4.15 -10.498c2.767 -3.092 5.452 -5.94 8.057 -8.545c10.091 -10.742 18.717 -20.589 25.879 -29.541c7.161 -8.951 13.265 -18.31 18.31 -28.076c5.046 -9.765 9.115 -20.264 12.207 -31.494c3.093 -11.23 5.941 -24.17 8.545 -38.818c-25.391 -13.998 -49.072 -30.355 -71.045 -49.073c-21.973 -18.717 -41.504 -39.55 -58.594 -62.5c-17.089 -22.949 -30.436 -47.933 -40.039 -74.951c-9.603 -27.018 -14.404 -55.501 -14.404 -85.449c0 0 0 0 0 0m78.125 0c0 23.438 3.988 45.085 11.963 64.941c7.975 19.857 18.636 38.33 31.982 55.42c13.347 17.09 28.646 32.634 45.899 46.631c17.252 13.998 35.319 26.205 54.199 36.621c8.789 4.558 17.09 9.033 24.902 13.428c7.813 4.395 15.788 9.033 23.926 13.916c-3.255 15.3 -6.103 30.599 -8.545 45.898c-2.441 15.3 -5.615 30.599 -9.521 45.899c19.205 -9.44 37.353 -19.938 54.443 -31.494c17.09 -11.556 34.261 -24.007 51.514 -37.354c17.903 2.604 35.888 4.883 53.955 6.836c18.066 1.953 36.377 2.93 54.931 2.93c50.782 0 100.912 -6.999 150.391 -20.996c27.344 -8.138 55.176 -19.287 83.496 -33.447c28.32 -14.161 54.118 -31.576 77.393 -52.247c23.274 -20.67 42.236 -44.026 56.885 -70.068c14.648 -26.042 21.972 -55.013 21.972 -86.914c0 -31.901 -7.324 -60.872 -21.972 -86.914c-14.649 -26.042 -33.611 -49.398 -56.885 -70.068c-23.275 -20.671 -49.073 -38.168 -77.393 -52.491c-28.32 -14.323 -56.152 -25.553 -83.496 -33.691c-49.479 -13.997 -99.609 -20.996 -150.391 -20.996c-51.432 0 -101.399 6.999 -149.902 20.996c-27.344 8.138 -55.176 19.368 -83.496 33.691c-28.32 14.323 -54.118 31.82 -77.393 52.491c-23.274 20.67 -42.236 43.945 -56.884 69.824c-14.649 25.879 -21.973 54.931 -21.973 87.158c0 0 0 0 0 0" />
  </g>
</svg>