<svg height="1000" width="1000" xmlns="http://www.w3.org/2000/svg"><path d="M0 500q0-97.1 67-179.4t181.9-130 251.1-47.7 251.1 47.7 181.9 130 67 179.4-67 179.4-181.9 130-251.1 47.7q-39.1 0-80.9-4.5-110.5 97.7-256.7 135-27.3 7.8-63.6 12.3h-2.8q-8.4 0-15.1-5.9t-8.9-15.3v-.6q-1.7-2.2-.3-6.7t1.1-5.6 2.5-5.3l3.3-5 3.9-4.7 4.5-5q3.9-4.5 17.3-19.3t19.3-21.2 17.3-22 18.1-28.5 15.1-32.9 14.5-42.4q-87.6-49.7-138.1-122.8t-50.5-156.8zm71.4 0q0 62.5 39.9 119.1t112.4 97.9l48.5 27.9-15.1 53.6q-13.4 50.8-39.1 96 84.8-35.2 153.5-95.4l24-21.2 31.8 3.3q38.5 4.5 72.5 4.5 113.8 0 212.9-38.8t157.4-104.6 58.3-142.3-58.3-142.3-157.4-104.6-212.9-38.8-212.9 38.8-157.4 104.6-58.3 142.3z"/></svg>