<svg height="1000px" width="1000px" xmlns="http://www.w3.org/2000/svg">
  <g>
    <path d="M0 499.99999999999994c0 -48.363 13.207 -94.587 39.621 -138.672c26.413 -44.085 61.941 -82.124 106.584 -114.118c44.643 -31.994 97.843 -57.385 159.599 -76.172c61.756 -18.787 126.488 -28.181 194.196 -28.181c90.774 0 174.479 15.904 251.116 47.712c76.637 31.808 137.277 75.149 181.92 130.023c44.643 54.873 66.964 114.676 66.964 179.408c0 64.732 -22.321 124.535 -66.964 179.408c-44.643 54.874 -105.283 98.215 -181.92 130.023c-76.637 31.808 -160.342 47.712 -251.116 47.712c-26.042 0 -53.013 -1.488 -80.915 -4.464c-73.661 65.104 -159.226 110.119 -256.697 135.044c-18.229 5.209 -39.434 9.301 -63.616 12.277c-6.324 0.744 -11.997 -0.93 -17.02 -5.022c-5.022 -4.093 -8.277 -9.487 -9.765 -16.183c0 0 0 -0.558 0 -0.558c-1.116 -1.488 -1.209 -3.721 -0.279 -6.697c0.93 -2.976 1.302 -4.836 1.116 -5.58c-0.186 -0.744 0.651 -2.511 2.511 -5.302c0 0 3.348 -5.022 3.348 -5.022c0 0 1.302 -1.581 3.906 -4.743c2.604 -3.162 4.093 -4.836 4.465 -5.022c2.604 -2.977 8.37 -9.394 17.299 -19.253c8.928 -9.858 15.346 -16.927 19.252 -21.205c3.906 -4.278 9.673 -11.626 17.299 -22.042c7.627 -10.417 13.672 -19.904 18.136 -28.46c4.464 -8.557 9.487 -19.532 15.067 -32.924c5.58 -13.393 10.417 -27.53 14.509 -42.411c-58.408 -33.11 -104.446 -74.033 -138.114 -122.768c-33.668 -48.735 -50.502 -101.004 -50.502 -156.808c0 0 0 0 0 0" />
  </g>
</svg>