<svg height="1000px" width="1000px" xmlns="http://www.w3.org/2000/svg">
  <g>
    <path d="M95.98214285714286 1000c-12.649 0 -20.647 -7.068 -23.996 -21.205c0 0 0 -0.558 0 -0.558c-1.116 -1.488 -1.209 -3.721 -0.279 -6.697c0.931 -2.976 1.303 -4.836 1.117 -5.58c-0.186 -0.372 0.651 -2.046 2.511 -5.022c4.092 -5.953 7.719 -10.696 10.881 -14.23c3.163 -3.535 9.208 -10.231 18.137 -20.09c8.928 -9.858 15.346 -16.927 19.252 -21.205c3.906 -4.278 9.672 -11.626 17.299 -22.042c7.626 -10.417 13.672 -19.904 18.136 -28.46c12.649 -23.81 22.507 -48.921 29.576 -75.335c-58.408 -33.11 -104.446 -74.033 -138.114 -122.768c-33.668 -48.735 -50.502 -103.237 -50.502 -163.504c0 -60.268 22.321 -117.839 66.964 -172.712c44.643 -54.874 105.283 -98.215 181.92 -130.023c76.637 -31.808 160.342 -47.712 251.116 -47.712c90.774 0 174.479 15.904 251.116 47.712c76.637 31.808 137.277 75.149 181.92 130.023c44.642 54.873 66.964 114.676 66.964 179.408c0 64.732 -22.322 124.535 -66.964 179.408c-44.643 54.874 -105.283 98.215 -181.92 130.023c-76.637 31.808 -160.342 47.712 -251.116 47.712c-26.042 0 -53.014 -1.488 -80.915 -4.464c-73.661 65.104 -159.227 110.119 -256.697 135.044c-18.229 5.209 -39.434 9.301 -63.616 12.277c0 0 -2.79 0 -2.79 0c0 0 0 0 0 0m404.018 -785.714c-75.893 0 -146.857 12.928 -212.891 38.783c-66.034 25.856 -118.489 60.733 -157.366 104.632c-38.876 44.271 -58.315 89.472 -58.315 135.603c0 91.517 50.782 166.108 152.344 223.772c0 0 48.549 27.902 48.549 27.902c0 0 -15.067 53.571 -15.067 53.571c-8.928 33.854 -21.949 65.848 -39.062 95.982c56.547 -23.437 107.701 -55.245 153.46 -95.424c0 0 23.995 -21.205 23.995 -21.205c0 0 31.808 3.348 31.808 3.348c25.67 2.976 49.851 4.464 72.545 4.464c75.893 0 146.856 -12.928 212.89 -38.783c66.035 -25.856 118.49 -60.733 157.367 -104.632c38.876 -43.899 58.314 -91.332 58.314 -142.299c0 -50.967 -19.438 -98.4 -58.314 -142.299c-38.877 -43.899 -91.332 -78.776 -157.367 -104.632c-66.034 -25.855 -136.997 -38.783 -212.89 -38.783c0 0 0 0 0 0" />
  </g>
</svg>