<svg height="1000px" width="1000px" xmlns="http://www.w3.org/2000/svg">
  <g>
    <path d="M0 493.3035714285714c0 -60.268 22.321 -117.839 66.964 -172.712c44.643 -54.874 105.283 -98.214 181.92 -130.022c76.637 -31.808 160.342 -47.712 251.116 -47.712c90.774 0 174.479 15.904 251.116 47.712c76.637 31.808 137.277 75.148 181.92 130.022c44.643 54.873 66.964 114.676 66.964 179.408c0 64.733 -22.321 124.535 -66.964 179.409c-44.643 54.873 -105.283 98.214 -181.92 130.022c-76.637 31.808 -160.342 47.712 -251.116 47.712c-26.042 0 -53.013 -1.488 -80.915 -4.464c-73.661 65.104 -159.226 110.119 -256.697 135.045c-18.229 5.208 -39.434 9.3 -63.616 12.276c0 0 -2.79 0 -2.79 0c-12.649 0 -20.647 -7.068 -23.995 -21.205c0 0 0 -0.558 0 -0.558c-1.116 -1.488 -1.209 -3.72 -0.279 -6.696c0.93 -2.977 1.302 -4.837 1.116 -5.581c-0.186 -0.372 0.651 -2.046 2.511 -5.022c4.092 -5.952 7.719 -10.696 10.882 -14.23c3.162 -3.534 9.207 -10.231 18.136 -20.089c8.928 -9.859 15.346 -16.927 19.252 -21.206c3.906 -4.278 9.673 -11.625 17.299 -22.042c7.627 -10.417 13.672 -19.903 18.136 -28.46c12.649 -23.809 22.508 -48.921 29.576 -75.335c-58.408 -33.11 -104.446 -74.032 -138.114 -122.768c-33.668 -48.735 -50.502 -103.236 -50.502 -163.504c0 0 0 0 0 0m71.429 0c0 91.518 50.781 166.109 152.343 223.772c0 0 48.549 27.902 48.549 27.902c0 0 -15.067 53.572 -15.067 53.572c-8.928 33.854 -21.949 65.848 -39.062 95.982c56.548 -23.438 107.701 -55.246 153.46 -95.424c0 0 23.995 -21.206 23.995 -21.206c0 0 31.808 3.348 31.808 3.348c25.67 2.977 49.852 4.465 72.545 4.465c75.893 0 146.856 -12.928 212.891 -38.784c66.034 -25.855 118.489 -60.733 157.366 -104.631c38.876 -43.899 58.314 -91.332 58.314 -142.3c0 -50.967 -19.438 -98.4 -58.314 -142.299c-38.877 -43.898 -91.332 -78.776 -157.366 -104.631c-66.035 -25.856 -136.998 -38.784 -212.891 -38.784c-75.893 0 -146.856 12.928 -212.891 38.784c-66.034 25.855 -118.489 60.733 -157.366 104.631c-38.876 44.271 -58.314 89.472 -58.314 135.603c0 0 0 0 0 0" />
  </g>
</svg>