<svg height="1000px" width="1000px" xmlns="http://www.w3.org/2000/svg">
  <g>
    <path d="M0 505.5803571428571c0 -52.083 13.207 -100.167 39.621 -144.252c26.413 -44.085 61.941 -82.124 106.584 -114.119c44.643 -31.994 97.843 -57.384 159.599 -76.171c61.756 -18.788 132.254 -28.181 211.495 -28.181c79.241 0 157.18 15.904 233.817 47.712c76.637 31.808 137.277 75.149 181.92 130.022c44.643 54.874 66.964 114.677 66.964 179.409c0 64.732 -22.321 124.535 -66.964 179.408c-44.643 54.874 -105.283 98.214 -181.92 130.022c-76.637 31.808 -160.342 47.713 -251.116 47.713c-26.042 0 -53.013 -1.489 -80.915 -4.465c-73.661 65.104 -159.226 110.119 -256.697 135.045c-27.367 7.819 -48.124 11.729 -62.269 11.729c-8.737 0 -14.952 -1.492 -18.646 -4.475c-5.208 -4.092 -8.37 -9.486 -9.486 -16.183c0 0 0 -0.558 0 -0.558c-1.116 -1.488 -1.209 -3.72 -0.279 -6.696c0.93 -2.976 1.302 -4.836 1.116 -5.581c-0.186 -0.372 0.651 -2.046 2.511 -5.022c4.092 -5.952 7.72 -10.696 10.882 -14.23c3.162 -3.534 9.207 -10.23 18.136 -20.089c8.928 -9.859 15.346 -16.927 19.252 -21.205c3.906 -4.279 9.673 -11.626 17.299 -22.043c7.627 -10.416 13.672 -19.903 18.136 -28.46c12.649 -23.809 22.508 -48.921 29.576 -75.334c-58.407 -33.111 -104.445 -74.033 -138.114 -122.768c-33.668 -48.735 -50.502 -99.145 -50.502 -151.228c0 0 0 0 0 0" />
  </g>
</svg>