<svg height="1000" width="1000" xmlns="http://www.w3.org/2000/svg"><path d="M357.1 500q0 -29.6 -20.9 -50.5t-50.5 -20.9 -50.5 20.9T214.3 500t20.9 50.5 50.5 20.9 50.5 -20.9T357.1 500zm214.3 0q0 -29.6 -20.9 -50.5T500 428.6t-50.5 20.9T428.6 500t20.9 50.5 50.5 20.9 50.5 -20.9T571.4 500zm214.3 0q0 -29.6 -20.9 -50.5t-50.5 -20.9 -50.5 20.9T642.9 500t20.9 50.5 50.5 20.9 50.5 -20.9T785.7 500zm214.3 0q0 97.1 -67 179.4t-181.9 130T500 857.1q-61.4 0 -117.7 -10 -96.6 96.5 -242.8 127.8 -29 5.6 -48 7.2 -6.7 .6 -12.3 -3.3T72 968.7q-2.2 -8.3 11.1 -20.6 2.8 -2.8 13.2 -12T110.5 923t13.1 -14.2T137 891.2t11.4 -20.7 11.2 -26.8 8.1 -32 7 -40.5Q93.2 721 46.6 650.4T0 500Q0 402.9 67 320.6t181.9 -130T500 142.9t251.1 47.7 181.9 130 67 179.4z"/></svg>