<svg height="1000px" width="1000px" xmlns="http://www.w3.org/2000/svg">
  <g>
    <path d="M0 499.99999999999994c0 -64.732 22.321 -124.535 66.964 -179.408c44.643 -54.874 105.283 -98.215 181.92 -130.023c76.637 -31.808 160.342 -47.712 251.116 -47.712c90.774 0 174.479 15.904 251.116 47.712c76.637 31.808 137.277 75.149 181.92 130.023c44.643 54.873 66.964 114.676 66.964 179.408c0 64.732 -22.321 124.535 -66.964 179.408c-44.643 54.874 -105.283 98.215 -181.92 130.023c-76.637 31.808 -160.342 47.712 -251.116 47.712c-26.042 0 -53.013 -1.488 -80.915 -4.464c-73.661 65.104 -159.226 110.119 -256.697 135.044c-18.229 5.209 -39.434 9.301 -63.616 12.277c0 0 -2.79 0 -2.79 0c-5.58 0 -10.603 -1.953 -15.067 -5.859c-4.464 -3.907 -7.44 -9.022 -8.928 -15.346c0 0 0 -0.558 0 -0.558c-1.116 -1.488 -1.209 -3.721 -0.279 -6.697c0.93 -2.976 1.302 -4.836 1.116 -5.58c-0.186 -0.744 0.651 -2.511 2.511 -5.302c0 0 3.348 -5.022 3.348 -5.022c0 0 1.302 -1.581 3.906 -4.743c2.604 -3.162 4.093 -4.836 4.465 -5.022c2.604 -2.977 8.37 -9.394 17.299 -19.253c8.928 -9.858 15.346 -16.927 19.252 -21.205c3.906 -4.278 9.673 -11.626 17.299 -22.042c7.627 -10.417 13.672 -19.904 18.136 -28.46c4.464 -8.557 9.487 -19.532 15.067 -32.924c5.58 -13.393 10.417 -27.53 14.509 -42.411c-58.408 -33.11 -104.446 -74.033 -138.114 -122.768c-33.668 -48.735 -50.502 -101.004 -50.502 -156.808c0 0 0 0 0 0m71.429 0c0 41.667 13.299 81.38 39.899 119.141c26.6 37.76 64.081 70.405 112.444 97.935c0 0 48.549 27.902 48.549 27.902c0 0 -15.067 53.571 -15.067 53.571c-8.928 33.854 -21.949 65.848 -39.062 95.982c56.548 -23.437 107.701 -55.245 153.46 -95.424c0 0 23.995 -21.205 23.995 -21.205c0 0 31.808 3.348 31.808 3.348c25.67 2.976 49.852 4.464 72.545 4.464c75.893 0 146.856 -12.928 212.891 -38.783c66.034 -25.856 118.489 -60.733 157.366 -104.632c38.876 -43.899 58.314 -91.332 58.314 -142.299c0 -50.967 -19.438 -98.4 -58.314 -142.299c-38.877 -43.899 -91.332 -78.776 -157.366 -104.632c-66.035 -25.855 -136.998 -38.783 -212.891 -38.783c-75.893 0 -146.856 12.928 -212.891 38.783c-66.034 25.856 -118.489 60.733 -157.366 104.632c-38.876 43.899 -58.314 91.332 -58.314 142.299c0 0 0 0 0 0" />
  </g>
</svg>