<svg height="1000" width="857.143" xmlns="http://www.w3.org/2000/svg"><path d="M357.12 607.168l142.848 -71.424 -142.848 -71.424v142.848zm214.272 -329.778v302.436l-285.696 142.848v-302.436zm160.704 222.642q0 -82.584 -40.734 -152.334t-110.484 -110.484 -152.334 -40.734 -152.334 40.734 -110.484 110.484 -40.734 152.334 40.734 152.334 110.484 110.484 152.334 40.734 152.334 -40.734 110.484 -110.484 40.734 -152.334zm124.992 0q0 116.622 -57.474 215.109t-155.961 155.961 -215.109 57.474 -215.109 -57.474 -155.961 -155.961 -57.474 -215.109 57.474 -215.109 155.961 -155.961 215.109 -57.474 215.109 57.474 155.961 155.961 57.474 215.109z"/></svg>