<svg height="1000" width="1142.9" xmlns="http://www.w3.org/2000/svg"><path d="M1142.9 499.4q0 11.8 -7.3 20.4t-18.4 10.9l-114.4 198.7q1.7 5 1.7 10 0 11.2 -7 19.8t-18.1 10.9l-107.7 188q1.6 4.5 1.6 9 0 12.8 -9.2 22.3t-22.6 9.5q-13.9 0 -22.9 -10.1H595.4q-9.5 11.2 -24 11.2t-24 -11.2H324.8q-9.5 11.2 -24 11.2 -12.9 0 -22.3 -9.2T269 968.2q0 -4.5 2.2 -11.2L163.5 770.1q-11.2 -2.2 -18.1 -10.9t-7 -19.8q0 -5 1.7 -10L25.1 530.7Q14 527.9 7 519.3T0 499.4q0 -11.7 7.5 -20.3t18.7 -10.9l111.1 -192q0 -.5 -.3 -1.6t-.3 -1.7q0 -20.1 19 -28.5L272.3 41.9q-2.2 -5.6 -2.2 -10.1 0 -13.4 9.5 -22.6T301.9 0q14.5 0 24.6 11.7h220.9Q556.4 0 571.4 0t24 11.7h222.1Q827.6 0 842.1 0q12.8 0 22.3 9.2t9.5 22.6q0 3.4 -2.2 10.1l115.5 199.7q12.8 .6 21.7 9.8t9 21.5q0 7.2 -3.9 15l104.3 180.8q10.6 2.3 17.6 10.9t7 19.8zM593.2 945.3h217.1L619.4 747.8h-79.8L348.8 945.3h200.9q10 -8.9 21.7 -8.9t21.8 8.9zM62.5 492.2q.6 2.2 .6 7.2 0 5.6 -1.2 8.4L178 708.7q1.1 0 2.5 .6t3.1 1.4l2.8 1.4L291.3 601V407.4L186.9 299.1q-7.2 4.5 -16.1 5.6zM550.2 54.7H333.7l106 111.6L748.9 54.7H592.6q-8.9 8.9 -21.2 8.9t-21.2 -8.9zM942.5 731q.6 -3.3 2.8 -6.1l-35.7 -38 -9.5 44.1h42.4zm-59.1 0l12.2 -58.6L755 524 589.8 695.3 625 731h258.4zm-49.1 205.4l8.9 -15.6 36.3 -173H641.2L827 939.2q4.5 -2.3 7.3 -2.8zm-511.8 8.9h2.8L516.2 747.8H308v186.9l2.3 3.4q7.8 2.7 12.2 7.2zM308 731h224.4l35.7 -36.8L395.6 515.1 308 607.7V731zm-107.7 0h91V625.6l-93.8 98.7q2.3 4.5 2.8 6.7zm-.5 -460.4q0 .6 .3 1.2t.2 1.1q0 8.9 -4.4 16.2l95.4 98.7V237.7zm108.2 -39v173.5l85.4 87.6L559.2 317.5 434.7 185.8zm2.3 -169.7l-2.3 4.5v147.3l114.4 -41.3L315.8 60.3q-3.3 1.1 -5.5 1.6zm497.2 -7.2h-9L452 179.7l118.9 125.5zM570.9 329.2L405.1 505l173.6 178L743.9 511.7zm-187 174.1L308 424.7v158.4zm195.3 203.2L555.8 731h47.4zM766.7 512.3l132.9 140 73.6 -348.2 -1.7 -2.8 -.5 -.5zm192 -223.2q-4.5 -7.3 -4.5 -16.2v-1.1L833.7 61.9q-2.8 -.5 -7.2 -2.7L582.6 317.5l173 182.5zM291.3 219.9V95.4l-91 157.4zm0 527.9h-91l91 157.9V747.8zm605.5 0L870 874.4l72.5 -126.6h-45.7zm68 -39.1l115.6 -201.4q-1.2 -5.6 -1.2 -7.9 0 -.5 1.7 -8.9L985.5 325.3l-72 341.6 43 45.7q2.8 -1.7 8.3 -3.9z"/></svg>