<svg height="1000" width="1142.857" xmlns="http://www.w3.org/2000/svg"><path d="M1142.784 499.474q0 11.718 -7.254 20.367t-18.414 10.881l-114.39 198.648q1.674 5.022 1.674 10.044 0 11.16 -6.975 19.809t-18.135 10.881l-107.694 188.046q1.674 4.464 1.674 8.928 0 12.834 -9.207 22.32t-22.599 9.486q-13.95 0 -22.878 -10.044h-223.2q-9.486 11.16 -23.994 11.16t-23.994 -11.16h-222.642q-9.486 11.16 -23.994 11.16 -12.834 0 -22.32 -9.207t-9.486 -22.599q0 -4.464 2.232 -11.16l-107.694 -186.93q-11.16 -2.232 -18.135 -10.881t-6.975 -19.809q0 -5.022 1.674 -10.044l-114.948 -198.648q-11.16 -2.79 -18.135 -11.439t-6.975 -19.809q0 -11.718 7.533 -20.367t18.693 -10.881l111.042 -191.952q0 -.558 -.279 -1.674t-.279 -1.674q0 -20.088 18.972 -28.458l116.622 -202.554q-2.232 -5.58 -2.232 -10.044 0 -13.392 9.486 -22.599t22.32 -9.207q14.508 0 24.552 11.718h220.968q8.928 -11.718 23.994 -11.718t23.994 11.718h222.084q10.044 -11.718 24.552 -11.718 12.834 0 22.32 9.207t9.486 22.599q0 3.348 -2.232 10.044l115.506 199.764q12.834 .558 21.762 9.765t8.928 21.483q0 7.254 -3.906 15.066l104.346 180.792q10.602 2.232 17.577 10.881t6.975 19.809zm-549.63 445.842h217.062l-190.836 -197.532h-79.794l-190.836 197.532h200.88q10.044 -8.928 21.762 -8.928t21.762 8.928zm-530.658 -453.096q.558 2.232 .558 7.254 0 5.58 -1.116 8.37l116.064 200.88q1.116 0 2.511 .558t3.069 1.395l2.79 1.395 104.904 -111.042v-193.626l-104.346 -108.252q-7.254 4.464 -16.182 5.58zm487.692 -437.472h-216.504l106.02 111.6 309.132 -111.6h-156.24q-8.928 8.928 -21.204 8.928t-21.204 -8.928zm392.274 676.296q.558 -3.348 2.79 -6.138l-35.712 -37.944 -9.486 44.082h42.408zm-59.148 0l12.276 -58.59 -140.616 -148.428 -165.168 171.306 35.154 35.712h258.354zm-49.104 205.344l8.928 -15.624 36.27 -172.98h-238.266l185.814 191.394q4.464 -2.232 7.254 -2.79zm-511.686 8.928h2.79l190.836 -197.532h-208.134v186.93l2.232 3.348q7.812 2.79 12.276 7.254zm-14.508 -214.272h224.316l35.712 -36.828 -172.422 -179.118 -87.606 92.628v123.318zm-107.694 0h90.954v-105.462l-93.744 98.766q2.232 4.464 2.79 6.696zm-.558 -460.35q0 .558 .279 1.116t.279 1.116q0 8.928 -4.464 16.182l95.418 98.766v-150.102zm108.252 -39.06v173.538l85.374 87.606 165.726 -175.212 -124.434 -131.688zm2.232 -169.632l-2.232 4.464v147.312l114.39 -41.292 -106.578 -112.158q-3.348 1.116 -5.58 1.674zm497.178 -7.254h-8.928l-346.518 124.992 118.854 125.55zm-236.592 274.536l-165.726 175.77 173.538 178.002 165.168 -171.306zm-186.93 174.096l-75.888 -78.678v158.472zm195.3 203.112l-23.436 24.552h47.43zm187.488 -194.184l132.804 140.058 73.656 -348.192 -1.674 -2.79 -.558 -.558zm191.952 -223.2q-4.464 -7.254 -4.464 -16.182v-1.116l-120.528 -209.808q-2.79 -.558 -7.254 -2.79l-243.846 258.354 172.98 182.466zm-667.368 -69.192v-124.434l-90.954 157.356zm0 527.868h-90.954l90.954 157.914v-157.914zm605.43 0l-26.784 126.666 72.54 -126.666h-45.756zm68.076 -39.06l115.506 -201.438q-1.116 -5.58 -1.116 -7.812 0 -.558 1.674 -8.928l-95.418 -165.168 -71.982 341.496 42.966 45.756q2.79 -1.674 8.37 -3.906z"/></svg>