<svg height="1000" width="1000" xmlns="http://www.w3.org/2000/svg"><path d="M77 71.4h109.9q-39 35.7 -70.3 83.2 -20.1 31.2 -32.9 64.2t-16.7 70 -4.8 66.9 5.9 73.7 11.7 70.3 15.6 76.2q2.3 10.6 3.4 15.6 28.4 132.8 45.2 183.6 31.8 95.4 84.8 153.5H77q-26.8 0 -45.8 -19T12.3 863.8V136.2q0 -26.8 18.9 -45.8T77 71.4zm674.1 0H923q26.8 0 45.8 19t18.9 45.8v727.6q0 26.8 -18.9 45.8t-45.8 19h-99.3Q942 811.4 933 613.3l-261.7 56.3q-1.1 25.2 -6.7 45.8t-17.3 40.2 -33.2 33.2 -52.2 20.4q-68.6 14.5 -111 -22.4 -17.9 -15 -29.6 -34t-28.7 -72 -36 -144Q337.1 445.9 331.2 390.1t-3.1 -77.6 12.9 -43q11.1 -22.8 34.8 -40.7T433 203.7q25.1 -6.7 46.6 -3.6t37.4 9.4 30.2 19.6 23.9 26.8 19.3 31.5l261.2 -55.8Q813.6 133.9 751.1 71.4z"/></svg>