<svg height="1000" width="857.1" xmlns="http://www.w3.org/2000/svg"><path d="M641.7 599.3v60.9q0 27.9 -20.3 49.6t-52.5 33.8 -65.8 18.1 -65.6 6.2q-114.4 0 -191.1 -77.6T169.6 497.2q0 -113.3 75.9 -189.2t189.2 -75.9q19 0 42.1 2.6t51.9 10 51.7 19 38.5 31.5 15.6 45.2v60.8q0 9 -8.9 9h-65.9q-8.9 0 -8.9 -9v-39q0 -24 -36.6 -37.7t-76.7 -13.7q-78.1 0 -127.5 51.1t-49.4 132.5q0 84.3 51.1 139.2t130.3 55q37.9 0 77 -13.4t39 -36.8v-39.1q0 -3.9 2.5 -6.4t5.9 -2.5h66.4q3.4 0 6.2 2.5t2.7 6.4zM428.6 142.9q-72.6 0 -138.7 28.4t-113.8 76.2T99.9 361.3 71.4 500t28.5 138.7 76.2 113.8 113.8 76.2 138.7 28.4 138.6 -28.4 113.9 -76.2 76.2 -113.8T785.7 500 757.3 361.3 681.1 247.5 567.2 171.3 428.6 142.9zM857.1 500q0 116.6 -57.4 215.1t-156 156 -215.1 57.5T213.4 871.1 57.5 715.1 0 500 57.5 284.9t155.9 -156T428.6 71.4t215.1 57.5 156 156T857.1 500z"/></svg>