<svg height="1000" width="857.143" xmlns="http://www.w3.org/2000/svg"><path d="M641.7 599.356v60.822q0 27.9 -20.367 49.662t-52.452 33.759 -65.844 18.135 -65.565 6.138q-114.39 0 -191.115 -77.562t-76.725 -193.068q0 -113.274 75.888 -189.162t189.162 -75.888q18.972 0 42.129 2.511t51.894 10.044 51.615 18.972 38.502 31.527 15.624 45.198v60.822q0 8.928 -8.928 8.928h-65.844q-8.928 0 -8.928 -8.928v-39.06q0 -23.994 -36.549 -37.665t-76.725 -13.671q-78.12 0 -127.503 51.057t-49.383 132.525q0 84.258 51.057 139.221t130.293 54.963q37.944 0 77.004 -13.392t39.06 -36.828v-39.06q0 -3.906 2.511 -6.417t5.859 -2.511h66.402q3.348 0 6.138 2.511t2.79 6.417zm-213.156 -456.444q-72.54 0 -138.663 28.458t-113.832 76.167 -76.167 113.832 -28.458 138.663 28.458 138.663 76.167 113.832 113.832 76.167 138.663 28.458 138.663 -28.458 113.832 -76.167 76.167 -113.832 28.458 -138.663 -28.458 -138.663 -76.167 -113.832 -113.832 -76.167 -138.663 -28.458zm428.544 357.12q0 116.622 -57.474 215.109t-155.961 155.961 -215.109 57.474 -215.109 -57.474 -155.961 -155.961 -57.474 -215.109 57.474 -215.109 155.961 -155.961 215.109 -57.474 215.109 57.474 155.961 155.961 57.474 215.109z"/></svg>