<svg height="1000" width="1000" xmlns="http://www.w3.org/2000/svg"><path d="M337.6 688.1Q423 688.1 481 630q7.8 -10 1.7 -20.1l-25.1 -45.7q-3.4 -7.3 -13.4 -9.5 -8.9 -1.1 -15.1 6.1l-2.2 1.7q-2.2 2.2 -6.4 5.6t-9.8 7.2 -13.1 8.1 -15.9 7.6 -18.7 5.3 -20.9 1.9q-42.4 0 -69.8 -27.9T245 499.4q0 -42.4 26.8 -70t68 -27.6q20.7 0 39.9 7.8t28.2 15.6l9 7.8q6.1 6.2 14.5 5.6 8.9 -1.1 13.4 -7.8l29.5 -43.5q7.3 -11.2 -1.1 -21.8 -1.7 -2.2 -6.1 -6.7t-16.8 -13.1 -27 -15.6 -37.7 -12.6 -48 -5.6q-82.6 0 -137.3 53.9T145.6 500q0 81.5 54.2 134.8t137.8 53.3zm351.6 0q85.4 0 143.4 -58.1 7.8 -10 2.2 -20.1l-25.1 -45.7q-4.5 -7.8 -13.9 -9.5 -9 -1.1 -15.1 6.1l-2.2 1.7q-2.3 2.2 -6.5 5.6t-9.7 7.2 -13.1 8.1 -15.9 7.6 -18.7 5.3 -21 1.9q-42.4 0 -69.7 -27.9t-27.4 -70.9q0 -42.4 26.8 -70t68.1 -27.6q20.7 0 39.9 7.8t28.2 15.6l8.9 7.8q6.2 6.2 14.5 5.6 9 -1.1 13.4 -7.8l29.6 -43.5q7.2 -11.2 -1.1 -21.8 -1.7 -2.2 -6.2 -6.7t-16.7 -13.1 -27.1 -15.6 -37.6 -12.6 -48 -5.6q-82.1 0 -137 53.9t-55 134.2q0 81.5 54.1 134.8t137.9 53.3zM500 89.3q-83.7 0 -159.6 32.6t-130.9 87.6 -87.6 130.9T89.3 500t32.6 159.6 87.6 130.9 130.9 87.6T500 910.7t159.6 -32.6 130.9 -87.6 87.6 -130.9T910.7 500 878.1 340.4 790.5 209.5 659.6 121.9 500 89.3zM500 0q101.6 0 194.2 39.6t159.6 106.6 106.6 159.6T1000 500t-39.6 194.2T853.8 853.8 694.2 960.4 500 1000 305.8 960.4 146.2 853.8 39.6 694.2 0 500 39.6 305.8 146.2 146.2 305.8 39.6 500 0z"/></svg>