<svg height="1000px" width="1071.4285714285716px" xmlns="http://www.w3.org/2000/svg">
  <g>
    <path d="M357.14285714285717 785.7142857142857c0 0 0 -71.429 0 -71.429c0 0 214.286 0 214.286 0c0 0 0 71.429 0 71.429c0 0 -214.286 0 -214.286 0c0 0 0 0 0 0m-214.286 0c0 0 0 -71.429 0 -71.429c0 0 142.857 0 142.857 0c0 0 0 71.429 0 71.429c0 0 -142.857 0 -142.857 0c0 0 0 0 0 0m839.286 71.429c4.836 0 9.022 -1.768 12.556 -5.302c3.534 -3.534 5.301 -7.719 5.301 -12.556c0 0 0 -339.285 0 -339.285c0 0 -928.571 0 -928.571 0c0 0 0 339.285 0 339.285c0 4.837 1.767 9.022 5.301 12.556c3.534 3.534 7.72 5.302 12.556 5.302c0 0 892.857 0 892.857 0c0 0 0 0 0 0m-892.857 -714.286c-4.836 0 -9.022 1.767 -12.556 5.301c-3.534 3.534 -5.301 7.72 -5.301 12.556c0 0 0 125 0 125c0 0 928.571 0 928.571 0c0 0 0 -125 0 -125c0 -4.836 -1.767 -9.022 -5.301 -12.556c-3.534 -3.534 -7.72 -5.301 -12.556 -5.301c0 0 -892.857 0 -892.857 0c0 0 0 0 0 0m892.857 -71.429c24.554 0 45.573 8.743 63.058 26.228c17.485 17.485 26.228 38.504 26.228 63.058c0 0 0 678.571 0 678.571c0 24.554 -8.743 45.573 -26.228 63.058c-17.485 17.486 -38.504 26.228 -63.058 26.228c0 0 -892.857 0 -892.857 0c-24.554 0 -45.573 -8.742 -63.058 -26.228c-17.485 -17.485 -26.228 -38.504 -26.228 -63.058c0 0 0 -678.571 0 -678.571c0 -24.554 8.743 -45.573 26.228 -63.058c17.485 -17.485 38.504 -26.228 63.058 -26.228c0 0 892.857 0 892.857 0c0 0 0 0 0 0" />
  </g>
</svg>