<svg height="1000" width="1072" xmlns="http://www.w3.org/2000/svg"><path d="M0 839.296l0-678.528q0-36.828 26.226-63.054t63.054-26.226l892.8 0q36.828 0 63.054 26.226t26.226 63.054l0 678.528q0 36.828-26.226 63.054t-63.054 26.226l-892.8 0q-36.828 0-63.054-26.226t-26.226-63.054zm71.424 0q0 7.254 5.301 12.555t12.555 5.301l892.8 0q7.254 0 12.555-5.301t5.301-12.555l0-339.264l-928.512 0l0 339.264zm0-553.536l928.512 0l0-124.992q0-7.254-5.301-12.555t-12.555-5.301l-892.8 0q-7.254 0-12.555 5.301t-5.301 12.555l0 124.992zm71.424 499.968l0-71.424l142.848 0l0 71.424l-142.848 0zm214.272 0l0-71.424l214.272 0l0 71.424l-214.272 0z"/></svg>