<svg height="1000" width="1071.429" xmlns="http://www.w3.org/2000/svg"><path d="M982.08 71.488q36.828 0 63.054 26.226t26.226 63.054v678.528q0 36.828 -26.226 63.054t-63.054 26.226h-892.8q-36.828 0 -63.054 -26.226t-26.226 -63.054v-678.528q0 -36.828 26.226 -63.054t63.054 -26.226h892.8zm-892.8 71.424q-7.254 0 -12.555 5.301t-5.301 12.555v124.992h928.512v-124.992q0 -7.254 -5.301 -12.555t-12.555 -5.301h-892.8zm892.8 714.24q7.254 0 12.555 -5.301t5.301 -12.555v-339.264h-928.512v339.264q0 7.254 5.301 12.555t12.555 5.301h892.8zm-839.232 -71.424v-71.424h142.848v71.424h-142.848zm214.272 0v-71.424h214.272v71.424h-214.272z"/></svg>