<svg height="1000" width="1285.7" xmlns="http://www.w3.org/2000/svg"><path d="M357.1 910.7L571.4 803.6V628.3l-214.3 91.6v190.8zM321.4 657.4l225.5 -96.6L321.4 464.3 96 560.8zm607.2 253.3l214.3 -107.1V628.3l-214.3 91.6v190.8zM892.9 657.4l225.4 -96.6L892.9 464.3l-225.5 96.5zm-250 -163.5l214.2 -92.1V253.3l-214.2 91.6v149zM607.1 282.4L853.2 176.9 607.1 71.4 361 176.9zm607.2 289v232.2q0 20.1 -10.6 37.4t-29 26.2l-250 125q-14 7.8 -31.8 7.8T861 992.2l-250 -125q-2.7 -1.1 -3.9 -2.2 -1.1 1.1 -3.9 2.2l-250 125q-13.9 7.8 -31.8 7.8t-31.8 -7.8l-250 -125Q21.2 858.3 10.6 841T0 803.6V571.4q0 -21.2 12 -39t31.5 -26.8L285.7 401.8V178.6q0 -21.2 12 -39.1t31.5 -26.8L579.2 5.6Q592.1 0 607.1 0T635 5.6l250 107.1q19.6 9 31.6 26.8t12 39.1v223.2l242.2 103.8q20 8.9 31.8 26.8t11.7 39z"/></svg>