<svg height="1000" width="1285.714" xmlns="http://www.w3.org/2000/svg"><path d="M357.12 910.72l214.272 -107.136v-175.212l-214.272 91.512v190.836zm-35.712 -253.332l225.432 -96.534 -225.432 -96.534 -225.432 96.534zm607.104 253.332l214.272 -107.136v-175.212l-214.272 91.512v190.836zm-35.712 -253.332l225.432 -96.534 -225.432 -96.534 -225.432 96.534zm-249.984 -163.494l214.272 -92.07v-148.428l-214.272 91.512v148.986zm-35.712 -211.482l246.078 -105.462 -246.078 -105.462 -246.078 105.462zm607.104 289.044v232.128q0 20.088 -10.602 37.386t-29.016 26.226l-249.984 124.992q-13.95 7.812 -31.806 7.812t-31.806 -7.812l-249.984 -124.992q-2.79 -1.116 -3.906 -2.232 -1.116 1.116 -3.906 2.232l-249.984 124.992q-13.95 7.812 -31.806 7.812t-31.806 -7.812l-249.984 -124.992q-18.414 -8.928 -29.016 -26.226t-10.602 -37.386v-232.128q0 -21.204 11.997 -39.06t31.527 -26.784l242.172 -103.788v-223.2q0 -21.204 11.997 -39.06t31.527 -26.784l249.984 -107.136q12.834 -5.58 27.9 -5.58t27.9 5.58l249.984 107.136q19.53 8.928 31.527 26.784t11.997 39.06v223.2l242.172 103.788q20.088 8.928 31.806 26.784t11.718 39.06z"/></svg>