<svg height="1000px" width="747px" xmlns="http://www.w3.org/2000/svg">
  <g>
    <path d="M0 500.243896484375c0 -52 9.833 -100.667 29.5 -146c19.667 -45.333 46.5 -85 80.5 -119c34 -34 73.667 -60.833 119 -80.5c45.333 -19.667 94 -29.5 146 -29.5c44 0 86.5 7.667 127.5 23c41 15.333 78.5 37 112.5 65c0 0 76 -76 76 -76c10.667 -10.667 19.667 -14.5 27 -11.5c7.333 3 11 12.167 11 27.5c0 0 0 217 0 217c0 10 -3.667 18.667 -11 26c-6.667 6.667 -15 10 -25 10c0 0 -217 1 -217 1c-15.333 0 -24.5 -3.833 -27.5 -11.5c-3 -7.667 0.833 -16.833 11.5 -27.5c0 0 75 -75 75 -75c-23.333 -17.333 -48.5 -31 -75.5 -41c-27 -10 -55.167 -15 -84.5 -15c-36 0 -70 6.833 -102 20.5c-32 13.667 -59.833 32.5 -83.5 56.5c-23.667 24 -42.333 52 -56 84c-13.667 32 -20.5 66 -20.5 102c0 36 6.833 70 20.5 102c13.667 32 32.333 59.833 56 83.5c23.667 23.667 51.5 42.333 83.5 56c32 13.667 66 20.5 102 20.5c32.667 0 63.833 -5.667 93.5 -17c29.667 -11.333 56.167 -27.167 79.5 -47.5c23.333 -20.333 42.667 -44.333 58 -72c15.333 -27.667 25 -57.833 29 -90.5c0.667 -4 3 -8 7 -12c4.667 -3.333 9.333 -4.667 14 -4c0 0 75 10 75 10c5.333 0.667 9.5 3 12.5 7c3 4 4.167 8.667 3.5 14c-6 46 -20 88.833 -42 128.5c-22 39.667 -49.667 74 -83 103c-33.333 29 -71.167 51.833 -113.5 68.5c-42.333 16.667 -86.833 25 -133.5 25c-52 0 -100.667 -9.833 -146 -29.5c-45.333 -19.667 -85 -46.5 -119 -80.5c-34 -34 -60.833 -73.667 -80.5 -119c-19.667 -45.333 -29.5 -94 -29.5 -146c0 0 0 0 0 0" />
  </g>
</svg>