<svg height="1000px" width="776.85546875px" xmlns="http://www.w3.org/2000/svg">
  <g>
    <path d="M0 500c0 -54.036 10.173 -104.736 30.518 -152.1c20.345 -47.363 48.177 -88.704 83.496 -124.023c35.319 -35.319 76.66 -63.151 124.023 -83.496c47.363 -20.345 98.063 -30.518 152.1 -30.518c45.898 0 90.006 7.894 132.324 23.682c42.318 15.788 81.217 38.656 116.699 68.603c0 0 78.613 -79.101 78.613 -79.101c11.394 -11.393 20.915 -15.381 28.565 -11.963c7.65 3.418 11.474 12.777 11.475 28.076c0 0 0 226.074 0 226.074c-0.001 10.743 -3.581 19.694 -10.743 26.856c-3.255 3.255 -7.08 5.859 -11.474 7.812c-4.395 1.953 -9.196 2.93 -14.405 2.93c0 0 -226.074 0 -226.074 0c-15.299 0 -24.821 -3.825 -28.564 -11.475c-3.744 -7.649 0.081 -17.171 11.474 -28.564c0 0 78.125 -77.637 78.125 -77.637c-23.437 -18.554 -49.316 -32.877 -77.636 -42.968c-28.321 -10.092 -57.78 -15.137 -88.379 -15.137c-38.086 0 -73.649 7.161 -106.69 21.484c-33.04 14.323 -61.849 33.854 -86.426 58.594c-24.576 24.739 -44.026 53.548 -58.349 86.426c-14.323 32.877 -21.484 68.359 -21.484 106.445c0 38.086 7.161 73.568 21.484 106.445c14.323 32.878 33.773 61.687 58.349 86.426c24.577 24.74 53.386 44.271 86.426 58.594c33.041 14.323 68.604 21.484 106.69 21.484c33.854 0 66.162 -6.022 96.924 -18.066c30.761 -12.044 58.268 -28.565 82.519 -49.561c24.251 -20.996 44.352 -45.98 60.303 -74.951c15.95 -28.971 26.367 -60.058 31.25 -93.262c0 -5.208 2.278 -9.602 6.836 -13.183c4.557 -3.255 9.603 -4.558 15.136 -3.906c0 0 76.661 9.765 76.661 9.765c5.208 1.302 9.521 3.988 12.939 8.057c3.418 4.069 4.802 8.707 4.15 13.916c-6.51 47.851 -21.077 92.529 -43.701 134.033c-22.623 41.504 -51.269 77.393 -85.937 107.666c-34.668 30.273 -74.056 53.955 -118.164 71.045c-44.108 17.09 -90.414 25.635 -138.916 25.635c-54.037 0 -104.737 -10.173 -152.1 -30.518c-47.363 -20.345 -88.704 -48.177 -124.023 -83.496c-35.319 -35.319 -63.151 -76.66 -83.496 -124.023c-20.345 -47.364 -30.518 -98.064 -30.518 -152.1c0 0 0 0 0 0" />
  </g>
</svg>