<svg height="1000px" width="857.1428571428571px" xmlns="http://www.w3.org/2000/svg">
  <g>
    <path d="M0 499.99999999999994c0 -58.036 11.347 -113.467 34.04 -166.295c22.694 -52.827 53.2 -98.4 91.518 -136.718c38.318 -38.319 83.891 -68.825 136.719 -91.518c52.827 -22.694 108.259 -34.04 166.294 -34.04c54.688 0 107.608 10.323 158.762 30.971c51.153 20.647 96.633 49.758 136.439 87.332c0 0 72.545 -71.986 72.545 -71.986c10.789 -11.533 23.809 -14.137 39.062 -7.813c14.509 6.324 21.764 17.299 21.764 32.924c0 0 0 250 0 250c0 9.673 -3.534 18.043 -10.603 25.112c-7.068 7.068 -15.439 10.602 -25.111 10.602c0 0 -250 0 -250 0c-15.625 0 -26.6 -7.44 -32.925 -22.321c-6.324 -14.509 -3.72 -27.344 7.813 -38.504c0 0 77.009 -77.009 77.009 -77.009c-55.06 -50.968 -119.978 -76.451 -194.755 -76.451c-38.69 0 -75.613 7.533 -110.77 22.6c-35.156 15.067 -65.569 35.435 -91.239 61.105c-25.669 25.67 -46.037 56.083 -61.104 91.239c-15.067 35.156 -22.601 72.08 -22.601 110.77c0 38.69 7.534 75.614 22.601 110.77c15.067 35.156 35.435 65.569 61.104 91.239c25.67 25.67 56.083 46.038 91.239 61.105c35.157 15.067 72.08 22.6 110.77 22.6c62.872 0 119.42 -18.508 169.643 -55.524c50.223 -37.017 84.636 -85.659 103.237 -145.927c2.604 -8.556 8.184 -12.834 16.741 -12.834c0 0 111.049 0 111.049 0c5.952 0 10.603 2.232 13.951 6.696c3.72 4.836 5.022 9.859 3.906 15.067c-14.509 65.104 -41.945 123.14 -82.31 174.107c-40.365 50.967 -89.844 90.588 -148.438 118.862c-58.593 28.274 -121.186 42.41 -187.779 42.41c-58.035 0 -113.467 -11.346 -166.294 -34.04c-52.828 -22.693 -98.401 -53.199 -136.719 -91.518c-38.318 -38.318 -68.824 -83.891 -91.518 -136.718c-22.693 -52.828 -34.04 -108.259 -34.04 -166.295c0 0 0 0 0 0" />
  </g>
</svg>