<svg height="1000" width="857.143" xmlns="http://www.w3.org/2000/svg"><path d="M857.088 142.912v249.984q0 14.508 -10.602 25.11t-25.11 10.602h-249.984q-23.436 0 -32.922 -22.32 -9.486 -21.762 7.812 -38.502l77.004 -77.004q-82.584 -76.446 -194.742 -76.446 -58.032 0 -110.763 22.599t-91.233 61.101 -61.101 91.233 -22.599 110.763 22.599 110.763 61.101 91.233 91.233 61.101 110.763 22.599q66.402 0 125.55 -29.016t99.882 -82.026q3.906 -5.58 12.834 -6.696 7.812 0 13.95 5.022l76.446 77.004q5.022 4.464 5.301 11.439t-4.185 12.555q-60.822 73.656 -147.312 114.111t-182.466 40.455q-87.048 0 -166.284 -34.038t-136.71 -91.512 -91.512 -136.71 -34.038 -166.284 34.038 -166.284 91.512 -136.71 136.71 -91.512 166.284 -34.038q82.026 0 158.751 30.969t136.431 87.327l72.54 -71.982q16.182 -17.298 39.06 -7.812 21.762 9.486 21.762 32.922z"/></svg>