<svg height="1000" width="857.1" xmlns="http://www.w3.org/2000/svg"><path d="M857.1 142.9v250q0 14.5 -10.6 25.1t-25.1 10.6h-250q-23.4 0 -32.9 -22.3 -9.5 -21.8 7.8 -38.6l77 -77Q540.7 214.3 428.6 214.3q-58.1 0 -110.8 22.6T226.6 298t-61.1 91.2T142.9 500t22.6 110.8 61.1 91.2 91.2 61.1 110.8 22.6q66.4 0 125.5 -29t99.9 -82q3.9 -5.6 12.9 -6.7 7.8 0 13.9 5l76.5 77q5 4.5 5.3 11.4t-4.2 12.6Q697.5 847.7 611 888.1t-182.4 40.5q-87.1 0 -166.3 -34.1T125.6 803 34 666.3 0 500 34 333.7 125.6 197t136.7 -91.5T428.6 71.4q82 0 158.7 31t136.5 87.3l72.5 -72q16.2 -17.3 39.1 -7.8 21.7 9.5 21.7 33z"/></svg>