<svg height="1000" width="858" xmlns="http://www.w3.org/2000/svg"><path d="M0 500.032q0-87.048 34.038-166.284t91.512-136.71 136.71-91.512 166.284-34.038q82.026 0 158.751 30.969t136.431 87.327l72.54-71.982q16.182-17.298 39.06-7.812 21.762 9.486 21.762 32.922l0 249.984q0 14.508-10.602 25.11t-25.11 10.602l-249.984 0q-23.436 0-32.922-22.32-9.486-21.762 7.812-38.502l77.004-77.004q-82.584-76.446-194.742-76.446-58.032 0-110.763 22.599t-91.233 61.101-61.101 91.233-22.599 110.763 22.599 110.763 61.101 91.233 91.233 61.101 110.763 22.599q94.302 0 169.632-55.521t103.23-145.917q3.906-12.834 16.74-12.834l111.042 0q8.928 0 13.95 6.696 5.58 7.254 3.906 15.066-21.762 97.65-82.305 174.096t-148.428 118.854-187.767 42.408q-87.048 0-166.284-34.038t-136.71-91.512-91.512-136.71-34.038-166.284z"/></svg>