<svg height="1000px" width="857.1428571428571px" xmlns="http://www.w3.org/2000/svg">
  <g>
    <path d="M857.1428571428571 142.85714285714278c0 0 0 250 0 250c0 9.673 -3.534 18.043 -10.603 25.112c-7.068 7.068 -15.439 10.602 -25.111 10.602c0 0 -250 0 -250 0c-15.625 0 -26.6 -7.44 -32.924 -22.321c-6.325 -14.881 -3.721 -27.716 7.812 -38.505c0 0 77.009 -77.009 77.009 -77.009c-55.059 -50.967 -119.978 -76.45 -194.754 -76.45c-38.691 0 -75.614 7.533 -110.771 22.6c-35.156 15.067 -65.569 35.435 -91.238 61.105c-25.67 25.67 -46.038 56.083 -61.105 91.239c-15.067 35.156 -22.601 72.079 -22.601 110.77c0 38.69 7.534 75.614 22.601 110.77c15.067 35.156 35.435 65.569 61.105 91.239c25.669 25.669 56.082 46.038 91.238 61.105c35.157 15.067 72.08 22.6 110.771 22.6c62.872 0 119.419 -18.508 169.642 -55.524c50.224 -37.017 84.636 -85.659 103.237 -145.927c2.604 -8.556 8.185 -12.835 16.741 -12.835c0 0 111.049 0 111.049 0c5.953 0 10.789 2.233 14.509 6.697c3.72 4.464 4.836 9.486 3.348 15.067c-14.509 65.104 -41.945 123.14 -82.31 174.107c-40.364 50.967 -89.844 90.588 -148.437 118.862c-58.222 28.273 -118.583 42.41 -181.083 42.41c-62.5 0 -120.164 -11.346 -172.991 -34.04c-52.827 -22.693 -98.4 -53.199 -136.719 -91.518c-38.318 -38.318 -68.824 -83.891 -91.518 -136.718c-22.693 -52.828 -34.04 -108.259 -34.04 -166.295c0 -58.036 11.347 -113.467 34.04 -166.295c22.694 -52.827 53.2 -98.4 91.518 -136.719c38.319 -38.318 83.892 -68.824 136.719 -91.517c52.827 -22.694 107.515 -34.041 164.062 -34.041c56.548 0 110.305 10.324 161.273 30.971c50.967 20.648 96.354 49.759 136.16 87.333c0 0 72.545 -71.987 72.545 -71.987c10.789 -11.532 23.624 -14.137 38.505 -7.812c14.881 6.324 22.321 17.299 22.321 32.924c0 0 0 0 0 0" />
  </g>
</svg>