<svg height="1000" width="857.1" xmlns="http://www.w3.org/2000/svg"><path d="M0 500q0-87 34-166.3t91.5-136.7 136.7-91.5 166.3-34q82 0 158.8 31t136.4 87.3l72.5-72q16.2-17.3 39.1-7.8 21.8 9.5 21.8 32.9v250q0 14.5-10.6 25.1t-25.1 10.6h-250q-23.4 0-32.9-22.3-9.5-21.8 7.8-38.5l77-77q-82.6-76.4-194.7-76.4-58 0-110.8 22.6t-91.2 61.1-61.1 91.2-22.6 110.8 22.6 110.8 61.1 91.2 91.2 61.1 110.8 22.6q94.3 0 169.6-55.5t103.2-145.9q3.9-12.8 16.7-12.8h111q8.9 0 14 6.7 5.6 7.3 3.9 15.1-21.8 97.7-82.3 174.1t-148.4 118.9-187.8 42.4q-87 0-166.3-34t-136.7-91.5-91.5-136.7-34-166.3z"/></svg>