<svg height="1000" width="857.143" xmlns="http://www.w3.org/2000/svg"><path d="M428.544 428.608q132.246 0 247.194 -23.994t181.35 -70.866v94.86q0 38.502 -57.474 71.424t-156.24 52.173 -214.83 19.251 -214.83 -19.251 -156.24 -52.173 -57.474 -71.424v-94.86q66.402 46.872 181.35 70.866t247.194 23.994zm0 428.544q132.246 0 247.194 -23.994t181.35 -70.866v94.86q0 38.502 -57.474 71.424t-156.24 52.173 -214.83 19.251 -214.83 -19.251 -156.24 -52.173 -57.474 -71.424v-94.86q66.402 46.872 181.35 70.866t247.194 23.994zm0 -214.272q132.246 0 247.194 -23.994t181.35 -70.866v94.86q0 38.502 -57.474 71.424t-156.24 52.173 -214.83 19.251 -214.83 -19.251 -156.24 -52.173 -57.474 -71.424v-94.86q66.402 46.872 181.35 70.866t247.194 23.994zm0 -642.816q116.064 0 214.83 19.251t156.24 52.173 57.474 71.424v71.424q0 38.502 -57.474 71.424t-156.24 52.173 -214.83 19.251 -214.83 -19.251 -156.24 -52.173 -57.474 -71.424v-71.424q0 -38.502 57.474 -71.424t156.24 -52.173 214.83 -19.251z"/></svg>