<svg height="1000" width="857.1" xmlns="http://www.w3.org/2000/svg"><path d="M428.6 428.6q132.2 0 247.2 -24t181.3 -70.9v94.9q0 38.5 -57.4 71.4t-156.3 52.2 -214.8 19.2T213.7 552.2 57.5 500 0 428.6v-94.9q66.4 46.9 181.4 70.9t247.2 24zm0 428.5q132.2 0 247.2 -24t181.3 -70.8v94.8q0 38.5 -57.4 71.5t-156.3 52.1T428.6 1000 213.7 980.7 57.5 928.6 0 857.1v-94.8q66.4 46.9 181.4 70.8t247.2 24zm0 -214.2q132.2 0 247.2 -24T857.1 548v94.9q0 38.5 -57.4 71.4t-156.3 52.2 -214.8 19.2T213.7 766.5 57.5 714.3 0 642.9V548q66.4 46.9 181.4 70.9t247.2 24zM428.6 0q116 0 214.8 19.3t156.3 52.1 57.4 71.5v71.4q0 38.5 -57.4 71.4t-156.3 52.2 -214.8 19.2T213.7 337.9 57.5 285.7 0 214.3v-71.4Q0 104.4 57.5 71.4T213.7 19.3 428.6 0z"/></svg>