<svg height="1000px" width="1071.4285714285716px" xmlns="http://www.w3.org/2000/svg">
  <g>
    <path d="M0 696.4285714285713c0 0 0 -607.143 0 -607.143c0 -24.553 8.743 -45.573 26.228 -63.058c17.485 -17.485 38.504 -26.228 63.058 -26.228c0 0 892.857 0 892.857 0c24.553 0 45.573 8.743 63.058 26.228c17.485 17.485 26.228 38.505 26.228 63.058c0 0 0 607.143 0 607.143c0 24.554 -8.743 45.573 -26.228 63.058c-17.485 17.485 -38.505 26.228 -63.058 26.228c0 0 -303.572 0 -303.572 0c0 20.833 8.929 48.363 26.786 82.589c5.953 11.161 8.929 20.461 8.929 27.902c0 7.44 -3.535 14.695 -10.603 21.763c-7.068 7.069 -15.439 10.603 -25.112 10.603c0 0 -285.714 0 -285.714 0c-9.672 0 -18.043 -3.534 -25.111 -10.603c-7.069 -7.068 -10.603 -14.323 -10.603 -21.763c0 -7.441 2.976 -16.741 8.928 -27.902c17.858 -33.482 26.786 -61.012 26.786 -82.589c0 0 -303.571 0 -303.571 0c-24.554 0 -45.573 -8.743 -63.058 -26.228c-17.485 -17.485 -26.228 -38.504 -26.228 -63.058c0 0 0 0 0 0m71.429 -142.857c0 4.836 1.767 9.021 5.301 12.556c3.534 3.534 7.719 5.301 12.556 5.301c0 0 892.857 0 892.857 0c4.836 0 9.021 -1.767 12.556 -5.301c3.534 -3.535 5.301 -7.72 5.301 -12.556c0 0 0 -464.286 0 -464.286c0 -4.836 -1.767 -9.021 -5.301 -12.556c-3.535 -3.534 -7.72 -5.301 -12.556 -5.301c0 0 -892.857 0 -892.857 0c-4.837 0 -9.022 1.767 -12.556 5.301c-3.534 3.535 -5.301 7.72 -5.301 12.556c0 0 0 464.286 0 464.286c0 0 0 0 0 0" />
  </g>
</svg>