<svg height="1000" width="1072" xmlns="http://www.w3.org/2000/svg"><path d="M0 696.448l0-607.104q0-36.828 26.226-63.054t63.054-26.226l892.8 0q36.828 0 63.054 26.226t26.226 63.054l0 607.104q0 36.828-26.226 63.054t-63.054 26.226l-303.552 0q0 20.646 8.928 43.245t17.856 39.618 8.928 24.273q0 14.508-10.602 25.11t-25.11 10.602l-285.696 0q-14.508 0-25.11-10.602t-10.602-25.11q0-7.812 8.928-24.552t17.856-39.06 8.928-43.524l-303.552 0q-36.828 0-63.054-26.226t-26.226-63.054zm71.424-142.848q0 7.254 5.301 12.555t12.555 5.301l892.8 0q7.254 0 12.555-5.301t5.301-12.555l0-464.256q0-7.254-5.301-12.555t-12.555-5.301l-892.8 0q-7.254 0-12.555 5.301t-5.301 12.555l0 464.256z"/></svg>