<svg height="1000" width="1071.4" xmlns="http://www.w3.org/2000/svg"><path d="M0 696.4v-607.1q0-36.8 26.2-63.1t63.1-26.2h892.8q36.8 0 63.1 26.2t26.2 63.1v607.1q0 36.8-26.2 63.1t-63.1 26.2h-303.6q0 20.6 8.9 43.2t17.9 39.6 8.9 24.3q0 14.5-10.6 25.1t-25.1 10.6h-285.7q-14.5 0-25.1-10.6t-10.6-25.1q0-7.8 8.9-24.6t17.9-39.1 8.9-43.5h-303.6q-36.8 0-63.1-26.2t-26.2-63.1zm71.4-142.8q0 7.3 5.3 12.6t12.6 5.3h892.8q7.3 0 12.6-5.3t5.3-12.6v-464.3q0-7.3-5.3-12.6t-12.6-5.3h-892.8q-7.3 0-12.6 5.3t-5.3 12.6v464.3z"/></svg>