<svg height="1000" width="1071.4" xmlns="http://www.w3.org/2000/svg"><path d="M1000 553.6V89.3q0 -7.3 -5.3 -12.6t-12.6 -5.3H89.3q-7.3 0 -12.6 5.3t-5.3 12.6v464.3q0 7.2 5.3 12.5t12.6 5.3h892.8q7.3 0 12.6 -5.3t5.3 -12.5zm71.4 -464.3v607.1q0 36.9 -26.2 63.1t-63.1 26.2H678.6q0 20.7 8.9 43.3t17.9 39.6 8.9 24.3q0 14.5 -10.6 25.1t-25.1 10.6H392.9q-14.6 0 -25.2 -10.6t-10.6 -25.1q0 -7.9 9 -24.6t17.8 -39.1 9 -43.5H89.3q-36.8 0 -63.1 -26.2T0 696.4V89.3Q0 52.5 26.2 26.2T89.3 0h892.8q36.9 0 63.1 26.2t26.2 63.1z"/></svg>