<svg height="1000" width="857.143" xmlns="http://www.w3.org/2000/svg"><path d="M0 851.014v-701.964q0 -32.364 22.599 -54.963t54.963 -22.599h701.964q32.364 0 54.963 22.599t22.599 54.963v701.964q0 32.364 -22.599 54.963t-54.963 22.599h-701.964q-32.364 0 -54.963 -22.599t-22.599 -54.963zm39.618 0q0 15.624 11.16 26.784t26.784 11.16h701.964q15.624 0 26.784 -11.16t11.16 -26.784v-701.964q0 -15.624 -11.16 -26.784t-26.784 -11.16h-701.964q-15.624 0 -26.784 11.16t-11.16 26.784v701.964zm27.9 0v-78.678l396.738 -108.81 -118.296 -244.962q2.232 -.558 6.696 -1.395t6.696 -.837q94.86 -17.856 169.353 -11.997t123.318 25.668 80.073 52.731q15.066 15.624 -13.95 23.436 -35.712 8.928 -142.848 34.596l-54.126 -110.484q-61.938 -3.906 -133.92 8.928l104.904 215.946 297.414 -80.91v276.768q0 3.906 -3.069 6.975t-6.975 3.069h-701.964q-3.906 0 -6.975 -3.069t-3.069 -6.975zm0 -389.484v-312.48q0 -3.906 3.069 -6.975t6.975 -3.069h701.964q3.906 0 6.975 3.069t3.069 6.975v238.824q-47.43 -16.74 -104.904 -29.016 -164.052 -35.712 -359.91 -6.696l-10.044 1.674 -36.27 -74.772h-130.014l47.43 106.02q-73.656 28.458 -128.34 76.446zm69.75 165.168q-13.392 -113.274 92.628 -170.19l71.982 150.66 -142.29 34.038q-7.812 1.674 -14.508 -2.511t-7.812 -11.997z"/></svg>