<svg height="1000" width="1142.857" xmlns="http://www.w3.org/2000/svg"><path d="M118.296 428.608l347.634 371.07 -167.4 -371.07h-180.234zm453.096 430.776l194.742 -430.776h-389.484zm-271.188 -502.2l113.832 -214.272h-146.196l-160.704 214.272h193.068zm376.65 442.494l347.634 -371.07h-180.234zm-295.74 -442.494h380.556l-113.832 -214.272h-152.892zm461.466 0h193.068l-160.704 -214.272h-146.196zm78.678 -271.188l214.272 285.696q7.812 10.044 7.254 23.157t-9.486 22.599l-535.68 571.392q-10.044 11.16 -26.226 11.16t-26.226 -11.16l-535.68 -571.392q-8.928 -9.486 -9.486 -22.599t7.254 -23.157l214.272 -285.696q10.044 -14.508 28.458 -14.508h642.816q18.414 0 28.458 14.508z"/></svg>