<svg height="1000" width="1142.857" xmlns="http://www.w3.org/2000/svg"><path d="M183.024 157.42h113.832v548.514h-296.856v-388.926h183.024v-159.588zm0 457.002v-205.902h-68.634v205.902h68.634zm159.588 -297.414v388.926h114.39v-388.926h-114.39zm0 -159.588v113.832h114.39v-113.832h-114.39zm160.146 159.588h297.414v525.636h-297.414v-90.954h183.024v-45.756h-183.024v-388.926zm183.024 297.414v-205.902h-68.634v205.902h68.634zm160.146 -297.414h296.856v525.636h-296.856v-90.954h182.466v-45.756h-182.466v-388.926zm182.466 297.414v-205.902h-68.634v205.902h68.634z"/></svg>