<svg height="1000" width="1142.857" xmlns="http://www.w3.org/2000/svg"><path d="M0 705.934v-388.926h183.024v-159.588h113.832v548.514h-296.856zm114.39 -91.512h68.634v-205.902h-68.634v205.902zm228.222 91.512h114.39v-388.926h-114.39v388.926zm0 -434.682h114.39v-113.832h-114.39v113.832zm160.146 571.392v-90.954h183.024v-45.756h-183.024v-388.926h297.414v525.636h-297.414zm114.39 -228.222h68.634v-205.902h-68.634v205.902zm228.78 228.222v-90.954h182.466v-45.756h-182.466v-388.926h296.856v525.636h-296.856zm113.832 -228.222h68.634v-205.902h-68.634v205.902z"/></svg>