<svg height="1000" width="857.143" xmlns="http://www.w3.org/2000/svg"><path d="M819.144 265.672q7.812 7.812 15.624 20.088h-263.376v-263.376q12.276 7.812 20.088 15.624zm-265.608 91.512h303.552v589.248q0 22.32 -15.624 37.944t-37.944 15.624h-749.952q-22.32 0 -37.944 -15.624t-15.624 -37.944v-892.8q0 -22.32 15.624 -37.944t37.944 -15.624h446.4v303.552q0 22.32 15.624 37.944t37.944 15.624zm89.28 410.688v-35.712q0 -7.812 -5.022 -12.834t-12.834 -5.022h-392.832q-7.812 0 -12.834 5.022t-5.022 12.834v35.712q0 7.812 5.022 12.834t12.834 5.022h392.832q7.812 0 12.834 -5.022t5.022 -12.834zm0 -142.848v-35.712q0 -7.812 -5.022 -12.834t-12.834 -5.022h-392.832q-7.812 0 -12.834 5.022t-5.022 12.834v35.712q0 7.812 5.022 12.834t12.834 5.022h392.832q7.812 0 12.834 -5.022t5.022 -12.834zm0 -142.848v-35.712q0 -7.812 -5.022 -12.834t-12.834 -5.022h-392.832q-7.812 0 -12.834 5.022t-5.022 12.834v35.712q0 7.812 5.022 12.834t12.834 5.022h392.832q7.812 0 12.834 -5.022t5.022 -12.834z"/></svg>