<svg height="1000px" width="714.2857142857143px" xmlns="http://www.w3.org/2000/svg">
  <g>
    <path d="M714.2857142857143 428.57142857142856c0 0 0 446.429 0 446.429c0 14.881 -5.208 27.529 -15.625 37.946c-10.417 10.417 -23.065 15.625 -37.946 15.625c0 0 -607.143 0 -607.143 0c-14.881 0 -27.53 -5.208 -37.947 -15.625c-10.416 -10.417 -15.625 -23.065 -15.625 -37.946c0 0 0 -750 0 -750c0 -14.881 5.209 -27.53 15.625 -37.947c10.417 -10.417 23.066 -15.625 37.947 -15.625c0 0 303.571 0 303.571 0c14.881 0 31.25 3.72 49.107 11.161c17.857 7.44 31.994 16.369 42.411 26.786c0 0 227.679 227.678 227.679 227.678c10.416 10.417 19.345 24.554 26.785 42.411c7.441 17.857 11.161 34.226 11.161 49.107c0 0 0 0 0 0m-285.714 -71.429c0 0 166.852 0 166.852 0c0 0 -166.852 -166.852 -166.852 -166.852c0 0 0 166.852 0 166.852c0 0 0 0 0 0m-357.143 500c0 0 571.428 0 571.428 0c0 0 0 -428.571 0 -428.571c0 0 -232.142 0 -232.142 0c-14.881 0 -27.53 -5.208 -37.947 -15.625c-10.417 -10.417 -15.625 -23.065 -15.625 -37.946c0 0 0 -232.143 0 -232.143c0 0 -285.714 0 -285.714 0c0 0 0 714.285 0 714.285c0 0 0 0 0 0m500 -339.285c0 0 0 35.714 0 35.714c0 5.208 -1.674 9.487 -5.022 12.835c-3.349 3.348 -7.627 5.022 -12.835 5.022c0 0 -392.857 0 -392.857 0c-5.209 0 -9.487 -1.674 -12.835 -5.022c-3.348 -3.348 -5.023 -7.627 -5.023 -12.835c0 0 0 -35.714 0 -35.714c0 -5.209 1.675 -9.487 5.023 -12.835c3.348 -3.348 7.626 -5.022 12.835 -5.022c0 0 392.857 0 392.857 0c5.208 0 9.486 1.674 12.835 5.022c3.348 3.348 5.022 7.626 5.022 12.835c0 0 0 0 0 0m0 142.857c0 0 0 35.714 0 35.714c0 5.208 -1.674 9.487 -5.022 12.835c-3.349 3.348 -7.627 5.022 -12.835 5.022c0 0 -392.857 0 -392.857 0c-5.209 0 -9.487 -1.674 -12.835 -5.022c-3.348 -3.348 -5.023 -7.627 -5.023 -12.835c0 0 0 -35.714 0 -35.714c0 -5.208 1.675 -9.487 5.023 -12.835c3.348 -3.348 7.626 -5.022 12.835 -5.022c0 0 392.857 0 392.857 0c5.208 0 9.486 1.674 12.835 5.022c3.348 3.348 5.022 7.627 5.022 12.835c0 0 0 0 0 0" />
  </g>
</svg>