<svg height="1000" width="714.3" xmlns="http://www.w3.org/2000/svg"><path d="M0 875v-750q0-22.3 15.6-37.9t37.9-15.6h303.6q22.3 0 49.1 11.2t42.4 26.8l227.7 227.7q15.6 15.6 26.8 42.4t11.2 49.1v446.4q0 22.3-15.6 37.9t-37.9 15.6h-607.1q-22.3 0-37.9-15.6t-15.6-37.9zm71.4-17.9h571.4v-428.5h-232.1q-22.3 0-37.9-15.6t-15.6-37.9v-232.1h-285.7v714.2zm71.4-160.7v-35.7q0-7.8 5-12.8t12.8-5h392.8q7.8 0 12.8 5t5 12.8v35.7q0 7.8-5 12.8t-12.8 5h-392.8q-7.8 0-12.8-5t-5-12.8zm0-142.8v-35.7q0-7.8 5-12.8t12.8-5h392.8q7.8 0 12.8 5t5 12.8v35.7q0 7.8-5 12.8t-12.8 5h-392.8q-7.8 0-12.8-5t-5-12.8zm285.7-196.4h166.8l-166.8-166.8v166.8z"/></svg>