<svg height="1000" width="857.1" xmlns="http://www.w3.org/2000/svg"><path d="M819.2 265.6q7.8 7.8 15.6 20.1H571.4V22.3q12.3 7.8 20.1 15.6zm-265.6 91.5h303.5v589.3q0 22.4 -15.6 38t-37.9 15.6h-750q-22.4 0 -38 -15.6T0 946.4V53.6q0 -22.3 15.6 -38T53.6 0H500v303.6q0 22.3 15.6 37.9t38 15.6zm89.3 410.8v-35.8q0 -7.8 -5.1 -12.8t-12.8 -5H232.1q-7.8 0 -12.8 5t-5 12.8v35.8q0 7.8 5 12.8t12.8 5H625q7.8 0 12.8 -5t5.1 -12.8zm0 -142.9v-35.7q0 -7.8 -5.1 -12.8T625 571.4H232.1q-7.8 0 -12.8 5.1t-5 12.8V625q0 7.8 5 12.8t12.8 5.1H625q7.8 0 12.8 -5.1t5.1 -12.8zm0 -142.9v-35.7q0 -7.8 -5.1 -12.8t-12.8 -5H232.1q-7.8 0 -12.8 5t-5 12.8v35.7q0 7.9 5 12.9t12.8 5H625q7.8 0 12.8 -5t5.1 -12.9z"/></svg>