<svg height="1000" width="715" xmlns="http://www.w3.org/2000/svg"><path d="M0 875.008l0-749.952q0-22.32 15.624-37.944t37.944-15.624l303.552 0q22.32 0 49.104 11.16t42.408 26.784l227.664 227.664q15.624 15.624 26.784 42.408t11.16 49.104l0 446.4q0 22.32-15.624 37.944t-37.944 15.624l-607.104 0q-22.32 0-37.944-15.624t-15.624-37.944zm71.424-17.856l571.392 0l0-428.544l-232.128 0q-22.32 0-37.944-15.624t-15.624-37.944l0-232.128l-285.696 0l0 714.24zm71.424-160.704l0-35.712q0-7.812 5.022-12.834t12.834-5.022l392.832 0q7.812 0 12.834 5.022t5.022 12.834l0 35.712q0 7.812-5.022 12.834t-12.834 5.022l-392.832 0q-7.812 0-12.834-5.022t-5.022-12.834zm0-142.848l0-35.712q0-7.812 5.022-12.834t12.834-5.022l392.832 0q7.812 0 12.834 5.022t5.022 12.834l0 35.712q0 7.812-5.022 12.834t-12.834 5.022l-392.832 0q-7.812 0-12.834-5.022t-5.022-12.834zm285.696-196.416l166.842 0l-166.842-166.842l0 166.842z"/></svg>