<svg height="1000" width="857.143" xmlns="http://www.w3.org/2000/svg"><path d="M0 946.432v-892.8q0 -22.32 15.624 -37.944t37.944 -15.624h499.968q22.32 0 49.104 11.16t42.408 26.784l174.096 174.096q15.624 15.624 26.784 42.408t11.16 49.104v642.816q0 22.32 -15.624 37.944t-37.944 15.624h-749.952q-22.32 0 -37.944 -15.624t-15.624 -37.944zm71.424 -17.856h714.24v-571.392h-232.128q-22.32 0 -37.944 -15.624t-15.624 -37.944v-232.128h-428.544v857.088zm142.848 -160.704v-35.712q0 -7.812 5.022 -12.834t12.834 -5.022h392.832q7.812 0 12.834 5.022t5.022 12.834v35.712q0 7.812 -5.022 12.834t-12.834 5.022h-392.832q-7.812 0 -12.834 -5.022t-5.022 -12.834zm0 -142.848v-35.712q0 -7.812 5.022 -12.834t12.834 -5.022h392.832q7.812 0 12.834 5.022t5.022 12.834v35.712q0 7.812 -5.022 12.834t-12.834 5.022h-392.832q-7.812 0 -12.834 -5.022t-5.022 -12.834zm0 -142.848v-35.712q0 -7.812 5.022 -12.834t12.834 -5.022h392.832q7.812 0 12.834 5.022t5.022 12.834v35.712q0 7.812 -5.022 12.834t-12.834 5.022h-392.832q-7.812 0 -12.834 -5.022t-5.022 -12.834zm357.12 -196.416h209.808q-5.58 -16.182 -12.276 -22.878l-174.654 -174.654q-6.696 -6.696 -22.878 -12.276v209.808z"/></svg>