<svg height="1000" width="714.286" xmlns="http://www.w3.org/2000/svg"><path d="M0 875.008v-749.952q0 -22.32 15.624 -37.944t37.944 -15.624h303.552q22.32 0 49.104 11.16t42.408 26.784l227.664 227.664q15.624 15.624 26.784 42.408t11.16 49.104v446.4q0 22.32 -15.624 37.944t-37.944 15.624h-607.104q-22.32 0 -37.944 -15.624t-15.624 -37.944zm71.424 -17.856h571.392v-428.544h-232.128q-22.32 0 -37.944 -15.624t-15.624 -37.944v-232.128h-285.696v714.24zm71.424 -160.704v-35.712q0 -7.812 5.022 -12.834t12.834 -5.022h392.832q7.812 0 12.834 5.022t5.022 12.834v35.712q0 7.812 -5.022 12.834t-12.834 5.022h-392.832q-7.812 0 -12.834 -5.022t-5.022 -12.834zm0 -142.848v-35.712q0 -7.812 5.022 -12.834t12.834 -5.022h392.832q7.812 0 12.834 5.022t5.022 12.834v35.712q0 7.812 -5.022 12.834t-12.834 5.022h-392.832q-7.812 0 -12.834 -5.022t-5.022 -12.834zm285.696 -196.416h166.842l-166.842 -166.842v166.842z"/></svg>