<svg height="1000" width="714.286" xmlns="http://www.w3.org/2000/svg"><path d="M571.392 767.872v-35.712q0 -7.812 -5.022 -12.834t-12.834 -5.022h-392.832q-7.812 0 -12.834 5.022t-5.022 12.834v35.712q0 7.812 5.022 12.834t12.834 5.022h392.832q7.812 0 12.834 -5.022t5.022 -12.834zm0 -142.848v-35.712q0 -7.812 -5.022 -12.834t-12.834 -5.022h-392.832q-7.812 0 -12.834 5.022t-5.022 12.834v35.712q0 7.812 5.022 12.834t12.834 5.022h392.832q7.812 0 12.834 -5.022t5.022 -12.834zm142.848 -196.416v446.4q0 22.32 -15.624 37.944t-37.944 15.624h-607.104q-22.32 0 -37.944 -15.624t-15.624 -37.944v-749.952q0 -22.32 15.624 -37.944t37.944 -15.624h303.552v303.552q0 22.32 15.624 37.944t37.944 15.624h303.552zm-1.674 -71.424h-284.022v-284.022q45.756 8.37 73.656 36.27l174.096 174.096q27.9 27.9 36.27 73.656z"/></svg>