<svg height="1000px" width="714.2857142857143px" xmlns="http://www.w3.org/2000/svg">
  <g>
    <path d="M0 875c0 0 0 -750 0 -750c0 -14.881 5.208 -27.53 15.625 -37.946c10.417 -10.417 23.065 -15.625 37.946 -15.625c0 0 303.572 0 303.572 0c14.881 0 31.25 3.72 49.107 11.16c17.857 7.441 31.994 16.369 42.411 26.786c0 0 227.678 227.679 227.678 227.679c10.417 10.416 19.346 24.553 26.786 42.41c7.44 17.857 11.161 34.226 11.161 49.107c0 0 0 446.429 0 446.429c0 14.881 -5.209 27.53 -15.625 37.946c-10.417 10.417 -23.066 15.625 -37.947 15.625c0 0 -607.143 0 -607.143 0c-14.881 0 -27.529 -5.208 -37.946 -15.625c-10.417 -10.416 -15.625 -23.065 -15.625 -37.946c0 0 0 0 0 0m71.429 -17.857c0 0 571.428 0 571.428 0c0 0 0 -428.572 0 -428.572c0 0 -232.143 0 -232.143 0c-14.881 0 -27.529 -5.208 -37.946 -15.625c-10.417 -10.416 -15.625 -23.065 -15.625 -37.946c0 0 0 -232.143 0 -232.143c0 0 -285.714 0 -285.714 0c0 0 0 714.286 0 714.286c0 0 0 0 0 0m357.142 -500c0 0 166.853 0 166.853 0c0 0 -166.853 -166.853 -166.853 -166.853c0 0 0 166.853 0 166.853c0 0 0 0 0 0" />
  </g>
</svg>