<svg height="1000px" width="600px" xmlns="http://www.w3.org/2000/svg">
  <g>
    <path d="M0 819c0 0 0 -638 0 -638c0 -15.333 5.5 -28.5 16.5 -39.5c11 -11 24.167 -16.5 39.5 -16.5c0 0 219 0 219 0c0 0 0 269 0 269c0 15.333 5.5 28.5 16.5 39.5c11 11 24.167 16.5 39.5 16.5c0 0 269 0 269 0c0 0 0 369 0 369c0 15.333 -5.5 28.5 -16.5 39.5c-11 11 -24.167 16.5 -39.5 16.5c0 0 -488 0 -488 0c-15.333 0 -28.5 -5.5 -39.5 -16.5c-11 -11 -16.5 -24.167 -16.5 -39.5c0 0 0 0 0 0m331 -425c0 0 0 -266 0 -266c0 0 3 0 3 0c0 0 263 263 263 263c0 0 0 3 0 3c0 0 -266 0 -266 0c0 0 0 0 0 0" />
  </g>
</svg>