<svg height="1000px" width="599.609375px" xmlns="http://www.w3.org/2000/svg">
  <g>
    <path d="M0 836.9140625c0 0 0 -674.805 0 -674.805c0 -10.091 3.662 -18.799 10.986 -26.123c7.325 -7.324 16.358 -10.986 27.1 -10.986c0 0 299.805 0 299.805 0c10.742 0 22.298 2.685 34.668 8.057c12.369 5.371 22.135 11.637 29.296 18.798c0 0 171.387 171.387 171.387 171.387c7.487 7.487 13.835 17.334 19.043 29.541c5.208 12.207 7.813 23.682 7.813 34.424c0 0 0 449.707 0 449.707c0 10.742 -3.662 19.775 -10.987 27.1c-7.324 7.324 -16.032 10.986 -26.123 10.986c0 0 -524.902 0 -524.902 0c-10.742 0 -19.775 -3.662 -27.1 -10.986c-7.324 -7.325 -10.986 -16.358 -10.986 -27.1c0 0 0 0 0 0m75.195 -37.109c0 0 449.707 0 449.707 0c0 0 0 -337.891 0 -337.891c0 0 -224.121 0 -224.121 0c-10.091 0 -18.717 -3.662 -25.879 -10.986c-7.161 -7.325 -10.742 -16.358 -10.742 -27.1c0 0 0 -223.633 0 -223.633c0 0 -188.965 0 -188.965 0c0 0 0 599.61 0 599.61c0 0 0 0 0 0m55.664 -83.985c0 0 0 -56.64 0 -56.64c0 0 338.379 0 338.379 0c0 0 0 56.64 0 56.64c0 0 -338.379 0 -338.379 0c0 0 0 0 0 0m0 -131.836c0 0 0 -56.152 0 -56.152c0 0 338.379 0 338.379 0c0 0 0 56.152 0 56.152c0 0 -338.379 0 -338.379 0c0 0 0 0 0 0m208.008 -196.777c0 0 186.035 0 186.035 0c0 -1.302 -0.651 -3.499 -1.953 -6.592c-1.302 -3.092 -2.278 -4.964 -2.929 -5.615c0 0 -170.899 -169.922 -170.899 -169.922c-0.651 -1.302 -2.197 -2.279 -4.639 -2.93c-2.441 -0.651 -4.313 -1.302 -5.615 -1.953c0 0 0 187.012 0 187.012c0 0 0 0 0 0" />
  </g>
</svg>