<svg height="1000px" width="1000px" xmlns="http://www.w3.org/2000/svg">
  <g>
    <path d="M0 732.1428571428571c0 0 0 -375 0 -375c0 -14.881 3.72 -31.25 11.161 -49.107c7.44 -17.857 16.369 -31.994 26.785 -42.411c0 0 227.679 -227.678 227.679 -227.678c10.417 -10.417 24.554 -19.346 42.411 -26.786c17.857 -7.441 34.226 -11.161 49.107 -11.161c0 0 232.143 0 232.143 0c14.881 0 27.529 5.208 37.946 15.625c10.417 10.417 15.625 23.066 15.625 37.947c0 0 0 183.035 0 183.035c25.298 -14.881 49.107 -22.321 71.429 -22.321c0 0 232.143 0 232.143 0c14.881 0 27.529 5.208 37.946 15.625c10.417 10.417 15.625 23.065 15.625 37.946c0 0 0 678.572 0 678.572c0 14.881 -5.208 27.529 -15.625 37.946c-10.417 10.417 -23.065 15.625 -37.946 15.625c0 0 -535.715 0 -535.715 0c-14.881 0 -27.529 -5.208 -37.946 -15.625c-10.417 -10.417 -15.625 -23.065 -15.625 -37.946c0 0 0 -160.715 0 -160.715c0 0 -303.572 0 -303.572 0c-14.881 0 -27.529 -5.208 -37.946 -15.625c-10.417 -10.416 -15.625 -23.065 -15.625 -37.946c0 0 0 0 0 0m71.429 -17.857c0 0 285.714 0 285.714 0c0 0 0 -142.857 0 -142.857c0 -14.881 3.72 -31.25 11.161 -49.107c7.44 -17.858 16.369 -31.994 26.785 -42.411c0 0 176.34 -176.339 176.34 -176.339c0 0 0 -232.143 0 -232.143c0 0 -214.286 0 -214.286 0c0 0 0 232.143 0 232.143c0 14.881 -5.208 27.529 -15.625 37.946c-10.417 10.417 -23.066 15.625 -37.947 15.625c0 0 -232.142 0 -232.142 0c0 0 0 357.143 0 357.143c0 0 0 0 0 0m47.433 -428.572c0 0 166.852 0 166.852 0c0 0 0 -166.852 0 -166.852c0 0 -166.852 166.852 -166.852 166.852m309.709 642.858c0 0 500 0 500 0c0 0 0 -642.858 0 -642.858c0 0 -214.285 0 -214.285 0c0 0 0 232.143 0 232.143c0 14.881 -5.209 27.53 -15.625 37.947c-10.417 10.416 -23.066 15.625 -37.947 15.625c0 0 -232.143 0 -232.143 0c0 0 0 357.143 0 357.143c0 0 0 0 0 0m47.433 -428.572c0 0 166.853 0 166.853 0c0 0 0 -166.853 0 -166.853c0 0 -166.853 166.853 -166.853 166.853" />
  </g>
</svg>