<svg height="1000px" width="1000px" xmlns="http://www.w3.org/2000/svg">
  <g>
    <path d="M928.5714285714286 928.5714285714286c0 0 0 -642.857 0 -642.857c0 0 -214.286 0 -214.286 0c0 0 0 232.143 0 232.143c0 14.881 -5.208 27.529 -15.625 37.946c-10.416 10.417 -23.065 15.625 -37.946 15.625c0 0 -232.143 0 -232.143 0c0 0 0 357.143 0 357.143c0 0 500 0 500 0c0 0 0 0 0 0m-533.482 -448.661c0 0 176.339 -176.339 176.339 -176.339c0 0 0 -232.143 0 -232.143c0 0 -214.286 0 -214.286 0c0 0 0 232.143 0 232.143c0 14.881 -5.208 27.53 -15.625 37.946c-10.416 10.417 -23.065 15.625 -37.946 15.625c0 0 -232.143 0 -232.143 0c0 0 0 357.143 0 357.143c0 0 285.714 0 285.714 0c0 0 0 -142.857 0 -142.857c0 -14.881 3.721 -31.25 11.161 -49.107c7.441 -17.857 16.369 -31.994 26.786 -42.411c0 0 0 0 0 0m-109.375 -361.049c0 0 -166.853 166.853 -166.853 166.853c0 0 166.853 0 166.853 0c0 0 0 -166.853 0 -166.853c0 0 0 0 0 0m357.143 214.286c0 0 -166.853 166.853 -166.853 166.853c0 0 166.853 0 166.853 0c0 0 0 -166.853 0 -166.853c0 0 0 0 0 0m303.571 -118.862c14.881 0 27.53 5.209 37.947 15.625c10.416 10.417 15.625 23.066 15.625 37.947c0 0 0 678.571 0 678.571c0 14.881 -5.209 27.53 -15.625 37.947c-10.417 10.416 -23.066 15.625 -37.947 15.625c0 0 -535.714 0 -535.714 0c-14.881 0 -27.53 -5.209 -37.947 -15.625c-10.416 -10.417 -15.625 -23.066 -15.625 -37.947c0 0 0 -160.714 0 -160.714c0 0 -303.571 0 -303.571 0c-14.881 0 -27.53 -5.208 -37.946 -15.625c-10.417 -10.417 -15.625 -23.066 -15.625 -37.947c0 0 0 -375 0 -375c0 -14.881 3.72 -31.25 11.16 -49.107c7.441 -17.857 16.369 -31.994 26.786 -42.41c0 0 227.679 -227.679 227.679 -227.679c10.416 -10.417 24.553 -19.345 42.41 -26.786c17.857 -7.44 34.226 -11.16 49.107 -11.16c0 0 232.143 0 232.143 0c14.881 0 27.53 5.208 37.947 15.625c10.416 10.416 15.625 23.065 15.625 37.946c0 0 0 183.036 0 183.036c25.297 -14.881 49.107 -22.322 71.428 -22.322c0 0 232.143 0 232.143 0c0 0 0 0 0 0" />
  </g>
</svg>