<svg height="1000" width="1000" xmlns="http://www.w3.org/2000/svg"><path d="M0 732.16v-374.976q0 -22.32 11.16 -49.104t26.784 -42.408l227.664 -227.664q15.624 -15.624 42.408 -26.784t49.104 -11.16h232.128q22.32 0 37.944 15.624t15.624 37.944v183.024q37.944 -22.32 71.424 -22.32h232.128q22.32 0 37.944 15.624t15.624 37.944v678.528q0 22.32 -15.624 37.944t-37.944 15.624h-535.68q-22.32 0 -37.944 -15.624t-15.624 -37.944v-160.704h-303.552q-22.32 0 -37.944 -15.624t-15.624 -37.944zm71.424 -17.856h285.696v-142.848q0 -22.32 11.16 -49.104t26.784 -42.408l176.328 -176.328v-232.128h-214.272v232.128q0 22.32 -15.624 37.944t-37.944 15.624h-232.128v357.12zm47.43 -428.544h166.842v-166.842zm309.69 642.816h499.968v-642.816h-214.272v232.128q0 22.32 -15.624 37.944t-37.944 15.624h-232.128v357.12zm47.43 -428.544h166.842v-166.842z"/></svg>