<svg height="1000" width="1000" xmlns="http://www.w3.org/2000/svg"><path d="M0 732.16l0-374.976q0-22.32 11.16-49.104t26.784-42.408l227.664-227.664q15.624-15.624 42.408-26.784t49.104-11.16l232.128 0q22.32 0 37.944 15.624t15.624 37.944l0 183.024q37.944-22.32 71.424-22.32l232.128 0q22.32 0 37.944 15.624t15.624 37.944l0 678.528q0 22.32-15.624 37.944t-37.944 15.624l-535.68 0q-22.32 0-37.944-15.624t-15.624-37.944l0-160.704l-303.552 0q-22.32 0-37.944-15.624t-15.624-37.944zm71.424-17.856l285.696 0l0-142.848q0-22.32 11.16-49.104t26.784-42.408l176.328-176.328l0-232.128l-214.272 0l0 232.128q0 22.32-15.624 37.944t-37.944 15.624l-232.128 0l0 357.12zm47.43-428.544l166.842 0l0-166.842zm309.69 642.816l499.968 0l0-642.816l-214.272 0l0 232.128q0 22.32-15.624 37.944t-37.944 15.624l-232.128 0l0 357.12zm47.43-428.544l166.842 0l0-166.842z"/></svg>