<svg height="1000" width="1000" xmlns="http://www.w3.org/2000/svg"><path d="M0 732.2v-375q0-22.3 11.2-49.1t26.8-42.4l227.7-227.7q15.6-15.6 42.4-26.8t49.1-11.2h232.1q22.3 0 37.9 15.6t15.6 37.9v183q37.9-22.3 71.4-22.3h232.1q22.3 0 37.9 15.6t15.6 37.9v678.5q0 22.3-15.6 37.9t-37.9 15.6h-535.7q-22.3 0-37.9-15.6t-15.6-37.9v-160.7h-303.6q-22.3 0-37.9-15.6t-15.6-37.9zm71.4-17.9h285.7v-142.8q0-22.3 11.2-49.1t26.8-42.4l176.3-176.3v-232.1h-214.3v232.1q0 22.3-15.6 37.9t-37.9 15.6h-232.1v357.1zm47.4-428.5h166.8v-166.8zm309.7 642.8h500v-642.8h-214.3v232.1q0 22.3-15.6 37.9t-37.9 15.6h-232.1v357.1zm47.4-428.5h166.8v-166.8z"/></svg>