<svg height="1000" width="571.429" xmlns="http://www.w3.org/2000/svg"><path d="M545.724 661.294q0 85.374 -55.521 147.033t-144.243 76.167v97.65q0 7.812 -5.022 12.834t-12.834 5.022h-75.33q-7.254 0 -12.555 -5.301t-5.301 -12.555v-97.65q-36.828 -5.022 -71.145 -17.298t-56.637 -24.831 -41.292 -26.784 -25.947 -20.925 -9.765 -10.044q-9.486 -11.718 -1.116 -22.878l57.474 -75.33q3.906 -5.58 12.834 -6.696 8.37 -1.116 13.392 5.022l1.116 1.116q63.054 55.242 135.594 69.75 20.646 4.464 41.292 4.464 45.198 0 79.515 -23.994t34.317 -68.076q0 -15.624 -8.37 -29.574t-18.693 -23.436 -32.643 -20.925 -36.828 -17.856 -44.64 -18.135q-21.762 -8.928 -34.317 -13.95t-34.317 -14.787 -34.875 -17.298 -31.527 -19.809 -29.853 -23.715 -24.273 -27.342 -19.809 -32.364 -11.718 -37.107 -4.743 -43.524q0 -77.004 54.684 -135.036t142.29 -74.772v-100.44q0 -7.254 5.301 -12.555t12.555 -5.301h75.33q7.812 0 12.834 5.022t5.022 12.834v98.208q31.806 3.348 61.659 12.834t48.546 18.693 35.433 20.925 21.762 16.182 8.37 7.812q9.486 10.044 2.79 21.204l-45.198 81.468q-4.464 8.37 -12.834 8.928 -7.812 1.674 -15.066 -3.906 -1.674 -1.674 -8.091 -6.696t-21.762 -14.787 -32.643 -17.856 -41.571 -14.508 -47.709 -6.417q-53.01 0 -86.49 23.994t-33.48 61.938q0 14.508 4.743 26.784t16.461 23.157 22.041 18.414 31.248 17.298 33.759 15.066 39.06 15.345q29.574 11.16 45.198 17.577t42.408 19.53 42.129 23.715 34.596 27.9 29.574 35.433 17.577 42.687 7.254 52.452z"/></svg>