<svg height="1000" width="571.4" xmlns="http://www.w3.org/2000/svg"><path d="M545.8 661.3q0 85.4 -55.6 147T346 884.5v97.6q0 7.9 -5 12.9t-12.9 5h-75.3q-7.3 0 -12.6 -5.3t-5.3 -12.6v-97.6q-36.8 -5 -71.1 -17.3t-56.7 -24.8T65.8 815.6t-25.9 -21 -9.8 -10Q20.6 772.9 29 761.7l57.5 -75.3q3.9 -5.6 12.8 -6.7 8.4 -1.1 13.4 5l1.1 1.1q63.1 55.3 135.6 69.8 20.7 4.4 41.3 4.4 45.2 0 79.6 -24t34.3 -68q0 -15.7 -8.4 -29.6T377.5 615t-32.6 -21T308 576.2 263.4 558q-21.8 -8.9 -34.3 -13.9t-34.3 -14.8T159.9 512t-31.6 -19.8T98.5 468.5 74.2 441.1 54.4 408.8 42.7 371.7t-4.8 -43.6q0 -77 54.7 -135t142.3 -74.8V17.9q0 -7.3 5.3 -12.6T252.8 0h75.3q7.8 0 12.9 5t5 12.9v98.2q31.8 3.3 61.6 12.8t48.6 18.7 35.4 20.9 21.8 16.2 8.4 7.8q9.4 10.1 2.8 21.2l-45.2 81.5q-4.5 8.4 -12.9 8.9 -7.8 1.7 -15 -3.9 -1.7 -1.7 -8.1 -6.7t-21.8 -14.8T389 260.9t-41.6 -14.5T299.7 240q-53 0 -86.5 24t-33.5 61.9q0 14.5 4.7 26.8t16.5 23.1 22 18.5 31.3 17.3 33.7 15T327 442q29.6 11.1 45.2 17.5t42.4 19.6 42.2 23.7 34.6 27.9 29.5 35.4 17.6 42.7 7.3 52.5z"/></svg>