<svg height="1000" width="857.143" xmlns="http://www.w3.org/2000/svg"><path d="M571.392 500.032q0 59.148 -41.85 100.998t-100.998 41.85 -100.998 -41.85 -41.85 -100.998 41.85 -100.998 100.998 -41.85 100.998 41.85 41.85 100.998zm-142.848 -303.552q-82.584 0 -152.334 40.734t-110.484 110.484 -40.734 152.334 40.734 152.334 110.484 110.484 152.334 40.734 152.334 -40.734 110.484 -110.484 40.734 -152.334 -40.734 -152.334 -110.484 -110.484 -152.334 -40.734zm428.544 303.552q0 116.622 -57.474 215.109t-155.961 155.961 -215.109 57.474 -215.109 -57.474 -155.961 -155.961 -57.474 -215.109 57.474 -215.109 155.961 -155.961 215.109 -57.474 215.109 57.474 155.961 155.961 57.474 215.109z"/></svg>