<svg height="1000" width="928.6" xmlns="http://www.w3.org/2000/svg"><path d="M714.3 750q0 -14.5 -10.6 -25.1t-25.1 -10.6 -25.1 10.6T642.9 750t10.6 25.1 25.1 10.6 25.1 -10.6T714.3 750zm142.8 0q0 -14.5 -10.6 -25.1t-25.1 -10.6 -25.1 10.6T785.7 750t10.6 25.1 25.1 10.6 25.1 -10.6T857.1 750zm71.5 -125v178.6q0 22.3 -15.7 37.9T875 857.1H53.6q-22.4 0 -38 -15.6T0 803.6V625q0 -22.3 15.6 -37.9t38 -15.7h259.5l75.3 75.9q32.4 31.3 75.9 31.3t75.9 -31.3l75.9 -75.9H875q22.3 0 37.9 15.7t15.7 37.9zM747.2 307.5q9.5 22.9 -7.8 39l-250 250q-10 10.6 -25.1 10.6t-25.1 -10.6l-250 -250q-17.3 -16.1 -7.8 -39 9.4 -21.8 32.9 -21.8h142.8v-250q0 -14.5 10.6 -25.1T392.9 0h142.8q14.5 0 25.1 10.6t10.6 25.1v250h142.9q23.4 0 32.9 21.8z"/></svg>