<svg height="1000px" width="1071.4285714285716px" xmlns="http://www.w3.org/2000/svg">
  <g>
    <path d="M1024.8325892857142 509.76562499999994c31.064 38.876 46.596 85.565 46.596 140.067c0 54.501 -20.926 102.679 -62.779 144.531c-41.853 41.853 -92.355 62.779 -151.507 62.779c0 0 -607.143 0 -607.143 0c-68.824 0 -127.697 -24.46 -176.618 -73.381c-48.921 -48.922 -73.382 -107.794 -73.382 -176.619c0 -48.363 13.021 -93.006 39.063 -133.928c26.042 -40.923 61.012 -71.615 104.911 -92.076c-0.744 -11.161 -1.116 -19.159 -1.116 -23.996c0 -78.869 27.901 -146.205 83.705 -202.009c55.803 -55.803 123.14 -83.705 202.009 -83.705c58.036 0 111.142 16.183 159.319 48.549c48.177 32.366 83.24 75.335 105.19 128.906c26.413 -23.065 58.315 -34.598 95.703 -34.598c37.388 0 70.033 13.951 97.935 41.853c27.902 27.902 41.853 61.57 41.853 101.004c0 28.274 -7.627 53.944 -22.88 77.009c48.363 11.533 88.077 36.738 119.141 75.614c0 0 0 0 0 0m-316.127 21.484c3.72 -4.464 5.58 -9.114 5.58 -13.951c0 -4.836 -1.674 -8.928 -5.022 -12.276c-3.348 -3.349 -7.627 -5.023 -12.835 -5.023c0 0 -125 0 -125 0c0 0 0 -196.428 0 -196.428c0 -4.837 -1.767 -9.022 -5.301 -12.556c-3.535 -3.534 -7.72 -5.301 -12.556 -5.301c0 0 -107.143 0 -107.143 0c-4.836 0 -9.022 1.767 -12.556 5.301c-3.534 3.534 -5.301 7.719 -5.301 12.556c0 0 0 196.428 0 196.428c0 0 -125 0 -125 0c-4.836 0 -9.022 1.767 -12.556 5.302c-3.534 3.534 -5.301 7.812 -5.301 12.835c0 5.022 1.674 9.207 5.022 12.555c0 0 196.429 196.429 196.429 196.429c3.348 3.348 7.626 5.022 12.834 5.022c5.209 0 9.487 -1.674 12.835 -5.022c0 0 195.871 -195.871 195.871 -195.871" />
  </g>
</svg>