<svg height="1000px" width="750px" xmlns="http://www.w3.org/2000/svg">
  <g>
    <path d="M0 360.4736328125c0 -12.207 4.72 -23.031 14.16 -32.471c0 0 48.828 -49.804 48.828 -49.804c9.44 -9.44 20.508 -14.161 33.203 -14.161c12.696 0 23.601 4.721 32.715 14.161c0 0 248.047 248.535 248.047 248.535c0 0 244.141 -248.535 244.141 -248.535c9.44 -9.44 20.426 -14.161 32.959 -14.161c12.532 0 23.519 4.721 32.959 14.161c0 0 48.828 49.804 48.828 49.804c9.44 9.44 14.323 20.264 14.648 32.471c0.326 12.207 -4.231 23.031 -13.672 32.471c0 0 -328.613 329.101 -328.613 329.101c-9.44 9.44 -20.508 14.079 -33.203 13.916c-12.695 -0.162 -23.763 -4.801 -33.203 -13.916c0 0 -327.637 -329.101 -327.637 -329.101c-9.44 -9.44 -14.16 -20.264 -14.16 -32.471c0 0 0 0 0 0" />
  </g>
</svg>