<svg height="1000px" width="900px" xmlns="http://www.w3.org/2000/svg">
  <g>
    <path d="M0 856c0 0 0 -300 0 -300c0 -5.333 1.833 -9.833 5.5 -13.5c3.667 -3.667 8.167 -5.5 13.5 -5.5c0 0 112 0 112 0c5.333 0 9.833 1.833 13.5 5.5c3.667 3.667 5.5 8.167 5.5 13.5c0 0 0 169 0 169c0 0 600 0 600 0c0 0 0 -169 0 -169c0 -5.333 1.833 -9.833 5.5 -13.5c3.667 -3.667 8.167 -5.5 13.5 -5.5c0 0 112 0 112 0c5.333 0 9.833 1.833 13.5 5.5c3.667 3.667 5.5 8.167 5.5 13.5c0 0 0 300 0 300c0 12.667 -6.333 19 -19 19c0 0 -862 0 -862 0c-12.667 0 -19 -6.333 -19 -19c0 0 0 0 0 0m169 -442c2 -5.333 8.333 -8 19 -8c0 0 150 0 150 0c0 0 0 -244 0 -244c0 -10 3.5 -18.667 10.5 -26c7 -7.333 15.833 -11 26.5 -11c0 0 150 0 150 0c10.667 0 19.667 3.667 27 11c7.333 7.333 11 16 11 26c0 0 0 244 0 244c0 0 150 0 150 0c10 0 16 2.667 18 8c2 5.333 -0.667 11.667 -8 19c0 0 -246 247 -246 247c-7.333 7.333 -16.333 11 -27 11c-10.667 0 -19.667 -3.667 -27 -11c0 0 -246 -247 -246 -247c-7.333 -7.333 -10 -13.667 -8 -19c0 0 0 0 0 0" />
  </g>
</svg>