<svg height="1000" width="858" xmlns="http://www.w3.org/2000/svg"><path d="M0 500.032q0-116.622 57.474-215.109t155.961-155.961 215.109-57.474 215.109 57.474 155.961 155.961 57.474 215.109-57.474 215.109-155.961 155.961-215.109 57.474-215.109-57.474-155.961-155.961-57.474-215.109zm142.848 0q0 58.032 22.599 110.763t61.101 91.233 91.233 61.101 110.763 22.599 110.763-22.599 91.233-61.101 61.101-91.233 22.599-110.763-22.599-110.763-61.101-91.233-91.233-61.101-110.763-22.599-110.763 22.599-91.233 61.101-61.101 91.233-22.599 110.763zm89.28 17.856q0-7.254 5.301-12.555t12.555-5.301l107.136 0l0-196.416q0-7.254 5.301-12.555t12.555-5.301l107.136 0q7.254 0 12.555 5.301t5.301 12.555l0 196.416l107.136 0q7.812 0 12.834 5.022t5.022 12.834q0 6.696-5.58 13.392l-178.002 178.002q-5.022 5.022-12.834 5.022t-12.834-5.022l-178.56-178.56q-5.022-5.022-5.022-12.834z"/></svg>