<svg height="1000px" width="928.5714285714286px" xmlns="http://www.w3.org/2000/svg">
  <g>
    <path d="M29.575892857142858 393.13616071428567c0 -19.903 7.068 -36.923 21.205 -51.06c0 0 41.295 -41.853 41.295 -41.853c14.509 -13.765 31.529 -20.647 51.06 -20.647c19.532 0 36.18 6.882 49.944 20.647c0 0 271.206 271.205 271.206 271.205c0 0 271.205 -271.205 271.205 -271.205c13.765 -13.765 30.413 -20.647 49.944 -20.647c19.532 0 36.552 6.882 51.061 20.647c0 0 41.852 41.853 41.852 41.853c13.765 14.509 20.648 31.529 20.648 51.06c0 19.531 -6.883 36.179 -20.648 49.944c0 0 -363.281 363.281 -363.281 363.281c-14.137 14.137 -31.157 21.206 -51.06 21.206c-19.903 0 -36.552 -7.069 -49.944 -21.206c0 0 -363.282 -363.281 -363.282 -363.281c-14.137 -13.393 -21.205 -30.041 -21.205 -49.944c0 0 0 0 0 0" />
  </g>
</svg>