<svg height="1000" width="857.143" xmlns="http://www.w3.org/2000/svg"><path d="M624.96 517.888q0 6.696 -5.58 13.392l-178.002 178.002q-6.138 5.022 -12.834 5.022t-12.834 -5.022l-178.56 -178.56q-8.37 -8.928 -3.906 -19.53 4.464 -11.16 16.74 -11.16h107.136v-196.416q0 -7.812 5.022 -12.834t12.834 -5.022h107.136q7.812 0 12.834 5.022t5.022 12.834v196.416h107.136q7.812 0 12.834 5.022t5.022 12.834zm-196.416 -321.408q-82.584 0 -152.334 40.734t-110.484 110.484 -40.734 152.334 40.734 152.334 110.484 110.484 152.334 40.734 152.334 -40.734 110.484 -110.484 40.734 -152.334 -40.734 -152.334 -110.484 -110.484 -152.334 -40.734zm428.544 303.552q0 116.622 -57.474 215.109t-155.961 155.961 -215.109 57.474 -215.109 -57.474 -155.961 -155.961 -57.474 -215.109 57.474 -215.109 155.961 -155.961 215.109 -57.474 215.109 57.474 155.961 155.961 57.474 215.109z"/></svg>