<svg height="1000px" width="750px" xmlns="http://www.w3.org/2000/svg">
  <g>
    <path d="M0 500c0 -52 9.833 -100.667 29.5 -146c19.667 -45.333 46.5 -85 80.5 -119c34 -34 73.667 -60.833 119 -80.5c45.333 -19.667 94 -29.5 146 -29.5c52 0 100.667 9.833 146 29.5c45.333 19.667 85 46.5 119 80.5c34 34 60.833 73.667 80.5 119c19.667 45.333 29.5 94 29.5 146c0 52 -9.833 100.667 -29.5 146c-19.667 45.333 -46.5 85 -80.5 119c-34 34 -73.667 60.833 -119 80.5c-45.333 19.667 -94 29.5 -146 29.5c-52 0 -100.667 -9.833 -146 -29.5c-45.333 -19.667 -85 -46.5 -119 -80.5c-34 -34 -60.833 -73.667 -80.5 -119c-19.667 -45.333 -29.5 -94 -29.5 -146c0 0 0 0 0 0m113 0c0 36 6.833 70 20.5 102c13.667 32 32.333 59.833 56 83.5c23.667 23.667 51.5 42.333 83.5 56c32 13.667 66 20.5 102 20.5c36 0 70 -6.833 102 -20.5c32 -13.667 60 -32.333 84 -56c24 -23.667 42.833 -51.5 56.5 -83.5c13.667 -32 20.5 -66 20.5 -102c0 -36 -6.833 -70 -20.5 -102c-13.667 -32 -32.5 -59.833 -56.5 -83.5c-24 -23.667 -52 -42.333 -84 -56c-32 -13.667 -66 -20.5 -102 -20.5c-36 0 -70 6.833 -102 20.5c-32 13.667 -59.833 32.333 -83.5 56c-23.667 23.667 -42.333 51.5 -56 83.5c-13.667 32 -20.5 66 -20.5 102c0 0 0 0 0 0m93 26c2.667 -6.667 10.667 -10 24 -10c0 0 79 0 79 0c0 0 0 -185 0 -185c0 -5.333 1.833 -9.833 5.5 -13.5c3.667 -3.667 8.167 -5.5 13.5 -5.5c0 0 94 0 94 0c5.333 0 9.833 1.833 13.5 5.5c3.667 3.667 5.5 8.167 5.5 13.5c0 0 0 185 0 185c0 0 79 0 79 0c13.333 0 21.333 3.333 24 10c2.667 6.667 -0.667 14.667 -10 24c0 0 -136 136 -136 136c-6 6 -13.667 9 -23 9c-8.667 0 -16.333 -3 -23 -9c0 0 -136 -136 -136 -136c-9.333 -9.333 -12.667 -17.333 -10 -24c0 0 0 0 0 0" />
  </g>
</svg>