<svg height="1000" width="857.143" xmlns="http://www.w3.org/2000/svg"><path d="M716.472 500.59q0 -15.066 -10.044 -25.11l-50.778 -50.778q-10.044 -10.044 -25.11 -10.044t-25.11 10.044l-105.462 105.462v-280.116q0 -14.508 -10.602 -25.11t-25.11 -10.602h-71.424q-14.508 0 -25.11 10.602t-10.602 25.11v280.116l-105.462 -105.462q-10.602 -10.602 -25.11 -10.602t-25.11 10.602l-50.778 50.778q-10.044 10.044 -10.044 25.11t10.044 25.11l201.996 201.996 50.778 50.778q10.044 10.044 25.11 10.044t25.11 -10.044l50.778 -50.778 201.996 -201.996q10.044 -10.044 10.044 -25.11zm140.616 -.558q0 116.622 -57.474 215.109t-155.961 155.961 -215.109 57.474 -215.109 -57.474 -155.961 -155.961 -57.474 -215.109 57.474 -215.109 155.961 -155.961 215.109 -57.474 215.109 57.474 155.961 155.961 57.474 215.109z"/></svg>