<svg height="1000" width="1071.429" xmlns="http://www.w3.org/2000/svg"><path d="M714.24 517.888q0 -7.812 -5.022 -12.834t-12.834 -5.022h-124.992v-196.416q0 -7.254 -5.301 -12.555t-12.555 -5.301h-107.136q-7.254 0 -12.555 5.301t-5.301 12.555v196.416h-124.992q-7.254 0 -12.555 5.301t-5.301 12.555q0 7.812 5.022 12.834l196.416 196.416q5.022 5.022 12.834 5.022t12.834 -5.022l195.858 -195.858q5.58 -6.696 5.58 -13.392zm357.12 124.992q0 88.722 -62.775 151.497t-151.497 62.775h-607.104q-103.23 0 -176.607 -73.377t-73.377 -176.607q0 -72.54 39.06 -133.92t104.904 -92.07q-1.116 -16.74 -1.116 -23.994 0 -118.296 83.7 -201.996t201.996 -83.7q87.048 0 159.309 48.546t105.183 128.898q39.618 -34.596 92.628 -34.596 59.148 0 100.998 41.85t41.85 100.998q0 42.408 -22.878 77.004 72.54 17.298 119.133 75.609t46.593 133.083z"/></svg>