<svg height="1000" width="858" xmlns="http://www.w3.org/2000/svg"><path d="M0 500.032q0-21.204 9.765-38.781t27.621-30.69 35.154-22.599 40.176-20.646 34.596-18.414q30.69-19.53 71.982-55.8 1.674-1.116 9.486-7.812t11.997-10.602 11.997-11.439 12.555-13.392 10.044-12.555 7.812-13.113 2.511-11.997l0-160.704q0-29.574 20.925-50.499t50.499-20.925l357.12 0q29.574 0 50.499 20.925t20.925 50.499l0 160.704q0 32.922 32.922 124.434 38.502 106.02 38.502 176.886 0 79.236-43.245 128.34t-121.365 48.546l-2.79-.558q-42.408 34.038-99.324 34.038-12.276 0-23.994-1.674-30.132 16.74-66.402 20.646l0 94.302q0 58.59-42.408 100.719t-100.998 42.129q-57.474 0-99.882-42.408t-42.408-100.44l0-208.692q-30.132 12.276-71.424 12.276-67.518 0-105.183-45.477t-37.665-115.227zm71.424 0q0 39.618 17.019 64.449t54.405 24.831q23.994 0 47.151-8.37t37.944-18.414 30.69-18.414 27.063-8.37l0 321.408q0 27.9 21.483 49.662t49.941 21.762q29.016 0 50.22-21.204t21.204-50.22l0-184.698q25.668 19.53 57.474 19.53 38.502 0 66.402-29.574 17.856 10.044 38.502 10.044t41.013-9.765 29.295-26.505q13.392 2.232 31.248 2.232 47.43 0 70.308-27.063t22.878-75.609q0-46.872-17.856-102.114t-35.712-108.252-17.856-93.186l0-17.856l-357.12 0l0 17.856q0 25.668-13.95 50.778t-29.016 40.176-40.176 36.828q-5.022 4.464-7.812 6.696-45.198 40.176-80.91 62.496-12.276 7.812-37.944 21.204-1.674.558-12.555 5.859t-20.088 10.323-19.809 11.16-17.019 11.997-6.417 10.323zm571.392-392.832q0 14.508 10.602 25.11t25.11 10.602 25.11-10.602 10.602-25.11-10.602-25.11-25.11-10.602-25.11 10.602-10.602 25.11z"/></svg>