<svg height="1000px" width="928.5714285714286px" xmlns="http://www.w3.org/2000/svg">
  <g>
    <path d="M878.3482142857143 342.0758928571428c13.765 14.509 20.647 31.529 20.647 51.06c0 19.532 -6.882 36.18 -20.647 49.944c0 0 -363.281 363.282 -363.281 363.282c-14.137 14.137 -31.157 21.205 -51.061 21.205c-19.903 0 -36.551 -7.068 -49.944 -21.205c0 0 -363.281 -363.282 -363.281 -363.282c-14.137 -13.392 -21.205 -30.04 -21.205 -49.944c0 -19.903 7.068 -36.923 21.205 -51.06c0 0 41.295 -41.853 41.295 -41.853c14.509 -13.765 31.529 -20.647 51.06 -20.647c19.531 0 36.179 6.882 49.944 20.647c0 0 271.205 271.206 271.205 271.206c0 0 271.206 -271.206 271.206 -271.206c13.765 -13.765 30.413 -20.647 49.944 -20.647c19.531 0 36.551 6.882 51.06 20.647c0 0 41.853 41.853 41.853 41.853" />
  </g>
</svg>