<svg height="1000px" width="857.1428571428571px" xmlns="http://www.w3.org/2000/svg">
  <g>
    <path d="M0 499.99999999999994c0 -14.137 3.255 -27.065 9.766 -38.783c6.51 -11.719 15.718 -21.95 27.622 -30.692c11.905 -8.743 23.624 -16.276 35.157 -22.601c11.532 -6.324 24.925 -13.207 40.178 -20.647c15.253 -7.441 26.786 -13.579 34.598 -18.415c20.462 -13.021 44.457 -31.622 71.987 -55.804c1.116 -0.744 4.278 -3.348 9.487 -7.812c5.208 -4.465 9.207 -7.999 11.997 -10.603c2.791 -2.604 6.79 -6.418 11.998 -11.44c5.209 -5.022 9.394 -9.486 12.556 -13.393c3.162 -3.906 6.51 -8.091 10.045 -12.556c3.534 -4.464 6.138 -8.835 7.812 -13.113c1.674 -4.279 2.511 -8.278 2.511 -11.998c0 0 0 -160.714 0 -160.714c0 -19.718 6.976 -36.552 20.927 -50.503c13.951 -13.951 30.785 -20.926 50.502 -20.926c0 0 357.143 0 357.143 0c19.717 0 36.551 6.975 50.502 20.926c13.951 13.951 20.926 30.785 20.926 50.503c0 0 0 160.714 0 160.714c0 21.949 10.975 63.43 32.924 124.442c25.67 70.684 38.505 129.65 38.505 176.897c0 52.828 -14.416 95.61 -43.248 128.348c-28.832 32.738 -69.289 48.921 -121.373 48.549c0 0 -2.79 -0.558 -2.79 -0.558c-28.274 22.694 -61.384 34.041 -99.33 34.041c-8.185 0 -16.183 -0.558 -23.996 -1.674c-20.089 11.16 -42.224 18.043 -66.406 20.647c0 0 0 94.308 0 94.308c0 39.062 -14.137 72.638 -42.411 100.725c-28.274 28.088 -61.942 42.132 -101.004 42.132c-38.319 0 -71.615 -14.137 -99.889 -42.411c-28.273 -28.274 -42.41 -61.756 -42.41 -100.446c0 0 0 -208.705 0 -208.705c-20.09 8.184 -43.899 12.276 -71.429 12.276c-45.015 0 -80.078 -15.16 -105.19 -45.48c-25.111 -30.32 -37.667 -68.731 -37.667 -115.234c0 0 0 0 0 0m71.429 0c0 26.414 5.673 47.898 17.02 64.453c11.346 16.555 29.483 24.833 54.408 24.833c15.997 0 31.715 -2.79 47.154 -8.371c15.439 -5.58 28.088 -11.719 37.947 -18.415c9.858 -6.696 20.089 -12.835 30.692 -18.415c10.602 -5.581 19.624 -8.371 27.064 -8.371c0 0 0 321.429 0 321.429c0 18.601 7.162 35.156 21.485 49.665c14.323 14.509 30.971 21.763 49.944 21.763c19.345 0 36.086 -7.068 50.223 -21.205c14.137 -14.137 21.205 -30.878 21.205 -50.223c0 0 0 -184.71 0 -184.71c17.114 13.021 36.273 19.531 57.478 19.531c25.67 0 47.805 -9.858 66.406 -29.576c11.905 6.697 24.74 10.045 38.505 10.045c13.765 0 27.437 -3.255 41.015 -9.766c13.579 -6.51 23.345 -15.346 29.297 -26.506c8.929 1.488 19.346 2.232 31.25 2.232c31.622 0 55.06 -9.022 70.313 -27.065c15.253 -18.043 22.879 -43.248 22.879 -75.614c0 -31.25 -5.952 -65.29 -17.857 -102.12c-11.905 -36.831 -23.809 -72.917 -35.714 -108.259c-11.905 -35.342 -17.857 -66.406 -17.857 -93.192c0 0 0 -17.857 0 -17.857c0 0 -357.143 0 -357.143 0c0 0 0 17.857 0 17.857c0 17.113 -4.65 34.04 -13.951 50.781c-9.301 16.741 -18.973 30.134 -29.018 40.179c-10.045 10.044 -23.437 22.321 -40.178 36.83c-3.349 2.976 -5.953 5.208 -7.813 6.696c-30.134 26.786 -57.106 47.62 -80.915 62.5c-8.185 5.209 -20.833 12.277 -37.947 21.206c-1.116 0.372 -5.301 2.325 -12.555 5.859c-7.255 3.534 -13.951 6.976 -20.09 10.324c-6.138 3.348 -12.741 7.068 -19.81 11.161c-7.068 4.092 -12.742 8.091 -17.02 11.997c-4.278 3.907 -6.417 7.348 -6.417 10.324c0 0 0 0 0 0m571.428 -392.857c0 9.672 3.534 18.043 10.603 25.111c7.068 7.069 15.439 10.603 25.111 10.603c9.673 0 18.044 -3.534 25.112 -10.603c7.068 -7.068 10.603 -15.439 10.603 -25.111c0 -9.673 -3.535 -18.043 -10.603 -25.112c-7.068 -7.068 -15.439 -10.602 -25.112 -10.602c-9.672 0 -18.043 3.534 -25.111 10.602c-7.069 7.069 -10.603 15.439 -10.603 25.112c0 0 0 0 0 0" />
  </g>
</svg>