<svg height="1000" width="928.571" xmlns="http://www.w3.org/2000/svg"><path d="M714.24 750.016q0 -14.508 -10.602 -25.11t-25.11 -10.602 -25.11 10.602 -10.602 25.11 10.602 25.11 25.11 10.602 25.11 -10.602 10.602 -25.11zm142.848 0q0 -14.508 -10.602 -25.11t-25.11 -10.602 -25.11 10.602 -10.602 25.11 10.602 25.11 25.11 10.602 25.11 -10.602 10.602 -25.11zm71.424 -124.992v178.56q0 22.32 -15.624 37.944t-37.944 15.624h-821.376q-22.32 0 -37.944 -15.624t-15.624 -37.944v-178.56q0 -22.32 15.624 -37.944t37.944 -15.624h259.47l75.33 75.888q32.364 31.248 75.888 31.248t75.888 -31.248l75.888 -75.888h258.912q22.32 0 37.944 15.624t15.624 37.944zm-181.35 -317.502q9.486 22.878 -7.812 39.06l-249.984 249.984q-10.044 10.602 -25.11 10.602t-25.11 -10.602l-249.984 -249.984q-17.298 -16.182 -7.812 -39.06 9.486 -21.762 32.922 -21.762h142.848v-249.984q0 -14.508 10.602 -25.11t25.11 -10.602h142.848q14.508 0 25.11 10.602t10.602 25.11v249.984h142.848q23.436 0 32.922 21.762z"/></svg>