<svg height="1000" width="857.1" xmlns="http://www.w3.org/2000/svg"><path d="M0 500q0-116.6 57.5-215.1t156-156 215.1-57.5 215.1 57.5 156 156 57.5 215.1-57.5 215.1-156 156-215.1 57.5-215.1-57.5-156-156-57.5-215.1zm140.6.6q0 15.1 10 25.1l202 202 50.8 50.8q10 10 25.1 10t25.1-10l50.8-50.8 202-202q10-10 10-25.1t-10-25.1l-50.8-50.8q-10-10-25.1-10t-25.1 10l-105.5 105.5v-280.1q0-14.5-10.6-25.1t-25.1-10.6h-71.4q-14.5 0-25.1 10.6t-10.6 25.1v280.1l-105.5-105.5q-10.6-10.6-25.1-10.6t-25.1 10.6l-50.8 50.8q-10 10-10 25.1z"/></svg>