<svg height="1000" width="857.1" xmlns="http://www.w3.org/2000/svg"><path d="M716.5 500.6q0 -15.1 -10 -25.2l-50.8 -50.7q-10.1 -10.1 -25.1 -10.1t-25.1 10.1L500 530.1V250q0 -14.5 -10.6 -25.1t-25.1 -10.6h-71.4q-14.6 0 -25.2 10.6T357.1 250v280.1L251.7 424.7q-10.6 -10.6 -25.1 -10.6t-25.1 10.6l-50.8 50.7q-10.1 10.1 -10.1 25.2t10.1 25.1l202 202 50.8 50.8q10 10 25.1 10t25.1 -10l50.8 -50.8 202 -202q10 -10.1 10 -25.1zm140.6 -.6q0 116.6 -57.4 215.1t-156 156 -215.1 57.5T213.4 871.1 57.5 715.1 0 500 57.5 284.9t155.9 -156T428.6 71.4t215.1 57.5 156 156T857.1 500z"/></svg>