<svg height="1000" width="857.1" xmlns="http://www.w3.org/2000/svg"><path d="M0 500q0-21.2 9.8-38.8t27.6-30.7 35.2-22.6 40.2-20.6 34.6-18.4q30.7-19.5 72-55.8 1.7-1.1 9.5-7.8t12-10.6 12-11.4 12.6-13.4 10-12.6 7.8-13.1 2.5-12v-160.7q0-29.6 20.9-50.5t50.5-20.9h357.1q29.6 0 50.5 20.9t20.9 50.5v160.7q0 32.9 32.9 124.4 38.5 106 38.5 176.9 0 79.2-43.2 128.3t-121.4 48.5l-2.8-.6q-42.4 34-99.3 34-12.3 0-24-1.7-30.1 16.7-66.4 20.6v94.3q0 58.6-42.4 100.7t-101 42.1q-57.5 0-99.9-42.4t-42.4-100.4v-208.7q-30.1 12.3-71.4 12.3-67.5 0-105.2-45.5t-37.7-115.2zm71.4 0q0 39.6 17 64.4t54.4 24.8q24 0 47.2-8.4t37.9-18.4 30.7-18.4 27.1-8.4v321.4q0 27.9 21.5 49.7t49.9 21.8q29 0 50.2-21.2t21.2-50.2v-184.7q25.7 19.5 57.5 19.5 38.5 0 66.4-29.6 17.9 10 38.5 10t41-9.8 29.3-26.5q13.4 2.2 31.2 2.2 47.4 0 70.3-27.1t22.9-75.6q0-46.9-17.9-102.1t-35.7-108.3-17.9-93.2v-17.9h-357.1v17.9q0 25.7-14 50.8t-29 40.2-40.2 36.8q-5 4.5-7.8 6.7-45.2 40.2-80.9 62.5-12.3 7.8-37.9 21.2-1.7.6-12.6 5.9t-20.1 10.3-19.8 11.2-17 12-6.4 10.3zm571.4-392.8q0 14.5 10.6 25.1t25.1 10.6 25.1-10.6 10.6-25.1-10.6-25.1-25.1-10.6-25.1 10.6-10.6 25.1z"/></svg>