<svg height="1000px" width="928.5714285714286px" xmlns="http://www.w3.org/2000/svg">
  <g>
    <path d="M29.575892857142858 392.85714285714283c0 -19.717 7.068 -36.644 21.205 -50.781c0 0 41.295 -41.853 41.295 -41.853c14.509 -13.765 31.436 -20.647 50.781 -20.647c19.718 0 36.459 6.882 50.223 20.647c0 0 271.206 271.205 271.206 271.205c0 0 271.205 -271.205 271.205 -271.205c13.765 -13.765 30.506 -20.647 50.223 -20.647c19.346 0 36.273 6.882 50.782 20.647c0 0 41.852 41.853 41.852 41.853c13.765 14.509 20.648 31.436 20.648 50.781c0 19.717 -6.883 36.458 -20.648 50.223c0 0 -363.281 363.281 -363.281 363.281c-14.137 14.137 -31.064 21.206 -50.781 21.206c-20.089 0 -36.831 -7.069 -50.223 -21.206c0 0 -363.282 -363.281 -363.282 -363.281c-14.137 -13.393 -21.205 -30.134 -21.205 -50.223c0 0 0 0 0 0" />
  </g>
</svg>