<svg height="1000px" width="857.1428571428571px" xmlns="http://www.w3.org/2000/svg">
  <g>
    <path d="M0 499.99999999999994c0 -27.53 12.463 -50.595 37.388 -69.196c17.486 -13.021 38.226 -25.391 62.221 -37.11c23.996 -11.719 43.062 -22.042 57.199 -30.971c14.137 -8.928 28.367 -19.624 42.69 -32.087c14.323 -12.463 24.088 -20.926 29.297 -25.39c5.208 -4.465 9.207 -7.999 11.997 -10.603c2.791 -2.604 6.79 -6.418 11.998 -11.44c5.209 -5.022 9.394 -9.486 12.556 -13.393c3.162 -3.906 6.603 -8.091 10.324 -12.556c6.696 -8.556 10.044 -16.927 10.044 -25.111c0 0 0 -160.714 0 -160.714c0 -19.718 6.976 -36.552 20.927 -50.503c13.951 -13.951 30.785 -20.926 50.502 -20.926c0 0 357.143 0 357.143 0c19.717 0 36.551 6.975 50.502 20.926c13.951 13.951 20.926 30.785 20.926 50.503c0 0 0 160.714 0 160.714c0 21.949 11.905 65.848 35.715 131.696c23.809 65.849 35.714 123.791 35.714 173.828c0 50.038 -14.416 91.425 -43.248 124.163c-28.508 32.371 -68.382 48.556 -119.622 48.556c-0.582 0 -1.166 -0.002 -1.751 -0.007c0 0 -2.79 -0.558 -2.79 -0.558c-28.274 22.694 -61.384 34.041 -99.33 34.041c-8.185 0 -16.183 -0.558 -23.996 -1.675c-20.089 11.161 -42.225 18.044 -66.406 20.648c0 0 0 94.308 0 94.308c0 39.062 -14.137 72.637 -42.411 100.725c-28.274 28.088 -61.756 42.132 -100.446 42.132c-38.691 0 -72.173 -14.137 -100.447 -42.411c-28.273 -28.274 -42.41 -61.756 -42.41 -100.446c0 0 0 -208.706 0 -208.706c-20.09 8.185 -43.899 12.277 -71.429 12.277c-45.015 0 -80.078 -15.16 -105.19 -45.48c-25.111 -30.32 -37.667 -68.731 -37.667 -115.234c0 0 0 0 0 0m71.429 0c0 26.414 5.673 47.898 17.02 64.453c11.346 16.555 27.25 24.833 47.712 24.833c20.461 0 38.411 -2.79 53.85 -8.371c15.439 -5.58 27.995 -11.719 37.668 -18.415c26.413 -17.857 45.758 -26.786 58.035 -26.786c0 0 0 321.429 0 321.429c0 18.601 7.162 35.156 21.485 49.665c14.323 14.509 31.064 21.763 50.223 21.763c19.159 0 35.807 -7.068 49.944 -21.205c14.137 -14.137 21.205 -30.878 21.205 -50.223c0 0 0 -184.71 0 -184.71c17.114 13.021 37.389 19.531 60.826 19.531c23.438 0 44.457 -9.858 63.058 -29.576c11.905 6.697 24.74 10.045 38.505 10.045c13.765 0 27.437 -3.255 41.015 -9.766c13.579 -6.51 23.345 -15.346 29.297 -26.506c8.929 1.488 19.346 2.232 31.25 2.232c62.128 0 93.192 -34.226 93.192 -102.679c0 -31.25 -5.952 -65.29 -17.857 -102.12c-11.905 -36.831 -23.809 -72.917 -35.714 -108.259c-11.905 -35.342 -17.857 -66.406 -17.857 -93.192c0 0 0 -17.857 0 -17.857c0 0 -357.143 0 -357.143 0c0 0 0 17.857 0 17.857c0 17.113 -4.65 34.04 -13.951 50.781c-9.301 16.741 -18.973 30.134 -29.018 40.179c-17.113 17.113 -33.11 31.622 -47.991 43.526c-30.134 26.786 -53.199 45.201 -69.196 55.246c-15.997 10.045 -28.553 17.392 -37.668 22.042c-9.114 4.651 -17.299 8.743 -24.553 12.277c-7.255 3.534 -13.951 6.976 -20.09 10.324c-6.138 3.348 -12.741 7.068 -19.81 11.161c-15.625 8.928 -23.437 16.369 -23.437 22.321c0 0 0 0 0 0m571.428 -392.857c0 9.672 3.534 18.043 10.603 25.111c7.068 7.069 15.439 10.603 25.111 10.603c9.673 0 18.044 -3.534 25.112 -10.603c7.068 -7.068 10.603 -15.439 10.603 -25.111c0 -9.673 -3.535 -18.043 -10.603 -25.112c-7.068 -7.068 -15.439 -10.602 -25.112 -10.602c-9.672 0 -18.043 3.534 -25.111 10.602c-7.069 7.069 -10.603 15.439 -10.603 25.112c0 0 0 0 0 0" />
  </g>
</svg>