<svg height="1000" width="870" xmlns="http://www.w3.org/2000/svg"><path d="M0 464.32q0-29.574 21.204-50.778l41.292-41.85q21.762-20.646 50.778-20.646 29.574 0 50.22 20.646l164.052 164.052l0-392.832q0-29.016 21.204-50.22t50.22-21.204l71.424 0q29.016 0 50.22 21.204t21.204 50.22l0 392.832l164.052-164.052q20.646-20.646 50.22-20.646 29.016 0 50.778 20.646l41.85 41.85q20.646 21.762 20.646 50.778 0 29.574-20.646 50.22l-363.258 363.816q-21.762 20.646-50.778 20.646-29.574 0-50.22-20.646l-363.258-363.816q-21.204-20.088-21.204-50.22z"/></svg>