<svg height="1000" width="857.1" xmlns="http://www.w3.org/2000/svg"><path d="M0 500q0-116.6 57.5-215.1t156-156 215.1-57.5 215.1 57.5 156 156 57.5 215.1-57.5 215.1-156 156-215.1 57.5-215.1-57.5-156-156-57.5-215.1zm142.8 0q0 58 22.6 110.8t61.1 91.2 91.2 61.1 110.8 22.6 110.8-22.6 91.2-61.1 61.1-91.2 22.6-110.8-22.6-110.8-61.1-91.2-91.2-61.1-110.8-22.6-110.8 22.6-91.2 61.1-61.1 91.2-22.6 110.8zm89.3 17.9q0-7.3 5.3-12.6t12.6-5.3h107.1v-196.4q0-7.3 5.3-12.6t12.6-5.3h107.1q7.3 0 12.6 5.3t5.3 12.6v196.4h107.1q7.8 0 12.8 5t5 12.8q0 6.7-5.6 13.4l-178 178q-5 5-12.8 5t-12.8-5l-178.6-178.6q-5-5-5-12.8z"/></svg>