<svg height="1000px" width="928.5714285714286px" xmlns="http://www.w3.org/2000/svg">
  <g>
    <path d="M878.3482142857143 413.5044642857142c13.765 14.509 20.647 31.529 20.647 51.06c0 19.532 -6.882 36.18 -20.647 49.944c0 0 -363.281 363.84 -363.281 363.84c-14.509 13.765 -31.529 20.647 -51.061 20.647c-19.531 0 -36.179 -6.882 -49.944 -20.647c0 0 -363.281 -363.84 -363.281 -363.84c-14.137 -13.392 -21.205 -30.04 -21.205 -49.944c0 -19.903 7.068 -36.923 21.205 -51.06c0 0 41.295 -41.853 41.295 -41.853c14.509 -13.765 31.529 -20.647 51.06 -20.647c19.531 0 36.179 6.882 49.944 20.647c0 0 164.063 164.063 164.063 164.063c0 0 0 -392.857 0 -392.857c0 -19.346 7.068 -36.087 21.205 -50.224c14.137 -14.136 30.878 -21.205 50.223 -21.205c0 0 71.429 0 71.429 0c19.345 0 36.086 7.069 50.223 21.205c14.137 14.137 21.205 30.878 21.205 50.224c0 0 0 392.857 0 392.857c0 0 164.063 -164.063 164.063 -164.063c13.765 -13.765 30.413 -20.647 49.944 -20.647c19.531 0 36.551 6.882 51.06 20.647c0 0 41.853 41.853 41.853 41.853" />
  </g>
</svg>