<svg height="1000px" width="928.5714285714286px" xmlns="http://www.w3.org/2000/svg">
  <g>
    <path d="M0 910.7142857142857c0 0 0 -321.429 0 -321.429c0 -5.208 1.674 -9.486 5.022 -12.834c3.349 -3.349 7.627 -5.023 12.835 -5.023c0 0 107.143 0 107.143 0c5.208 0 9.487 1.674 12.835 5.023c3.348 3.348 5.022 7.626 5.022 12.834c0 0 0 196.429 0 196.429c0 0 642.857 0 642.857 0c0 0 0 -196.429 0 -196.429c0 -5.208 1.674 -9.486 5.023 -12.834c3.348 -3.349 7.626 -5.023 12.834 -5.023c0 0 107.143 0 107.143 0c5.209 0 9.487 1.674 12.835 5.023c3.348 3.348 5.022 7.626 5.022 12.834c0 0 0 321.429 0 321.429c0 5.208 -1.674 9.487 -5.022 12.835c-3.348 3.348 -7.626 5.022 -12.835 5.022c0 0 -892.857 0 -892.857 0c-5.208 0 -9.486 -1.674 -12.835 -5.022c-3.348 -3.348 -5.022 -7.627 -5.022 -12.835c0 0 0 0 0 0m181.362 -460.379c6.324 -14.509 17.299 -21.764 32.924 -21.764c0 0 142.857 0 142.857 0c0 0 0 -250 0 -250c0 -9.672 3.534 -18.043 10.603 -25.111c7.068 -7.069 15.439 -10.603 25.111 -10.603c0 0 142.857 0 142.857 0c9.673 0 18.043 3.534 25.112 10.603c7.068 7.068 10.603 15.439 10.603 25.111c0 0 0 250 0 250c0 0 142.857 0 142.857 0c15.625 0 26.599 7.255 32.924 21.764c6.324 15.253 3.72 28.273 -7.813 39.062c0 0 -250 250 -250 250c-6.696 7.068 -15.067 10.603 -25.111 10.603c-10.045 0 -18.415 -3.535 -25.112 -10.603c0 0 -250 -250 -250 -250c-11.533 -10.789 -14.137 -23.809 -7.812 -39.062c0 0 0 0 0 0" />
  </g>
</svg>