<svg height="1000" width="1071.4" xmlns="http://www.w3.org/2000/svg"><path d="M714.3 517.9q0 -7.9 -5 -12.9t-12.9 -5h-125V303.6q0 -7.3 -5.3 -12.6t-12.5 -5.3H446.4q-7.2 0 -12.5 5.3t-5.3 12.6V500h-125q-7.3 0 -12.6 5.3t-5.3 12.6q0 7.8 5 12.8l196.5 196.4q5 5 12.8 5t12.8 -5L708.7 531.3q5.6 -6.7 5.6 -13.4zm357.1 125q0 88.7 -62.8 151.5t-151.5 62.7H250q-103.2 0 -176.6 -73.3T0 607.1Q0 534.6 39.1 473.2T144 381.1q-1.1 -16.7 -1.1 -24 0 -118.3 83.7 -202t202 -83.7q87 0 159.3 48.6t105.2 128.9q39.6 -34.6 92.6 -34.6 59.2 0 101 41.8t41.9 101q0 42.5 -22.9 77.1 72.5 17.3 119.1 75.6t46.6 133.1z"/></svg>