<svg height="1000px" width="750px" xmlns="http://www.w3.org/2000/svg">
  <g>
    <path d="M0 360.5c0 -12.333 4.667 -23.167 14 -32.5c0 0 49 -50 49 -50c9.333 -9.333 20.333 -14 33 -14c12.667 0 23.667 4.667 33 14c0 0 248 249 248 249c0 0 244 -249 244 -249c9.333 -9.333 20.333 -14 33 -14c12.667 0 23.667 4.667 33 14c0 0 49 50 49 50c9.333 9.333 14.167 20.167 14.5 32.5c0.333 12.333 -4.167 23.167 -13.5 32.5c0 0 -329 329 -329 329c-9.333 9.333 -20.333 14 -33 14c-12.667 0 -23.667 -4.667 -33 -14c0 0 -328 -329 -328 -329c-9.333 -9.333 -14 -20.167 -14 -32.5c0 0 0 0 0 0" />
  </g>
</svg>