<svg height="1000" width="928.571" xmlns="http://www.w3.org/2000/svg"><path d="M0 910.72v-321.408q0 -7.812 5.022 -12.834t12.834 -5.022h107.136q7.812 0 12.834 5.022t5.022 12.834v196.416h642.816v-196.416q0 -7.812 5.022 -12.834t12.834 -5.022h107.136q7.812 0 12.834 5.022t5.022 12.834v321.408q0 7.812 -5.022 12.834t-12.834 5.022h-892.8q-7.812 0 -12.834 -5.022t-5.022 -12.834zm181.35 -460.35q9.486 -21.762 32.922 -21.762h142.848v-249.984q0 -14.508 10.602 -25.11t25.11 -10.602h142.848q14.508 0 25.11 10.602t10.602 25.11v249.984h142.848q23.436 0 32.922 21.762 9.486 22.878 -7.812 39.06l-249.984 249.984q-10.044 10.602 -25.11 10.602t-25.11 -10.602l-249.984 -249.984q-17.298 -16.182 -7.812 -39.06z"/></svg>