<svg height="1000" width="929" xmlns="http://www.w3.org/2000/svg"><path d="M0 910.72l0-321.408q0-7.812 5.022-12.834t12.834-5.022l107.136 0q7.812 0 12.834 5.022t5.022 12.834l0 196.416l642.816 0l0-196.416q0-7.812 5.022-12.834t12.834-5.022l107.136 0q7.812 0 12.834 5.022t5.022 12.834l0 321.408q0 7.812-5.022 12.834t-12.834 5.022l-892.8 0q-7.812 0-12.834-5.022t-5.022-12.834zm181.35-460.35q9.486-21.762 32.922-21.762l142.848 0l0-249.984q0-14.508 10.602-25.11t25.11-10.602l142.848 0q14.508 0 25.11 10.602t10.602 25.11l0 249.984l142.848 0q23.436 0 32.922 21.762 9.486 22.878-7.812 39.06l-249.984 249.984q-10.044 10.602-25.11 10.602t-25.11-10.602l-249.984-249.984q-17.298-16.182-7.812-39.06z"/></svg>