<svg height="1000px" width="928.5714285714286px" xmlns="http://www.w3.org/2000/svg">
  <g>
    <path d="M29.575892857142858 464.2857142857142c0 -19.717 7.068 -36.644 21.205 -50.781c0 0 41.295 -41.853 41.295 -41.853c14.509 -13.765 31.436 -20.647 50.781 -20.647c19.718 0 36.459 6.882 50.223 20.647c0 0 164.063 164.063 164.063 164.063c0 0 0 -392.858 0 -392.858c0 -19.345 7.068 -36.086 21.205 -50.223c14.137 -14.137 30.878 -21.205 50.224 -21.205c0 0 71.428 0 71.428 0c19.345 0 36.086 7.068 50.223 21.205c14.137 14.137 21.206 30.878 21.206 50.223c0 0 0 392.858 0 392.858c0 0 164.062 -164.063 164.062 -164.063c13.765 -13.765 30.506 -20.647 50.223 -20.647c19.346 0 36.273 6.882 50.782 20.647c0 0 41.852 41.853 41.852 41.853c13.765 14.509 20.648 31.436 20.648 50.781c0 19.717 -6.883 36.458 -20.648 50.223c0 0 -363.281 363.84 -363.281 363.84c-14.509 13.764 -31.436 20.647 -50.781 20.647c-19.717 0 -36.459 -6.883 -50.223 -20.647c0 0 -363.282 -363.84 -363.282 -363.84c-14.137 -13.393 -21.205 -30.134 -21.205 -50.223c0 0 0 0 0 0" />
  </g>
</svg>