<svg height="1000px" width="750px" xmlns="http://www.w3.org/2000/svg">
  <g>
    <path d="M0 500c0 -12.695 4.72 -23.763 14.16 -33.203c0 0 48.828 -48.828 48.828 -48.828c9.44 -9.44 20.508 -14.16 33.203 -14.16c12.696 0 23.601 4.72 32.715 14.16c0 0 165.039 165.039 165.039 165.039c0 0 0 -412.11 0 -412.11c0 -12.695 4.476 -23.518 13.428 -32.47c8.952 -8.952 19.775 -13.428 32.471 -13.428c0 0 70.312 0 70.312 0c13.347 0 24.333 4.476 32.959 13.428c8.627 8.952 12.94 19.775 12.94 32.47c0 0 0 412.11 0 412.11c0 0 166.015 -165.039 166.015 -165.039c9.44 -9.44 20.264 -14.16 32.471 -14.16c12.207 0 23.031 4.72 32.471 14.16c0 0 49.804 48.828 49.804 48.828c9.441 9.44 14.161 20.508 14.161 33.203c0 12.695 -4.72 23.763 -14.161 33.203c0 0 -328.613 327.637 -328.613 327.637c-9.44 9.44 -20.508 14.16 -33.203 14.16c-12.695 0 -23.763 -4.72 -33.203 -14.16c0 0 -327.637 -327.637 -327.637 -327.637c-9.44 -9.44 -14.16 -20.508 -14.16 -33.203c0 0 0 0 0 0" />
  </g>
</svg>