<svg height="1000px" width="928.5714285714286px" xmlns="http://www.w3.org/2000/svg">
  <g>
    <path d="M910.7142857142858 571.4285714285713c5.208 0 9.487 1.674 12.835 5.022c3.348 3.349 5.022 7.627 5.022 12.835c0 0 0 321.429 0 321.429c0 5.208 -1.674 9.486 -5.022 12.835c-3.348 3.348 -7.627 5.022 -12.835 5.022c0 0 -892.857 0 -892.857 0c-5.208 0 -9.487 -1.674 -12.835 -5.022c-3.348 -3.349 -5.022 -7.627 -5.022 -12.835c0 0 0 -321.429 0 -321.429c0 -5.208 1.674 -9.486 5.022 -12.835c3.348 -3.348 7.627 -5.022 12.835 -5.022c0 0 107.143 0 107.143 0c5.208 0 9.486 1.674 12.835 5.022c3.348 3.349 5.022 7.627 5.022 12.835c0 0 0 196.429 0 196.429c0 0 642.857 0 642.857 0c0 0 0 -196.429 0 -196.429c0 -5.208 1.674 -9.486 5.022 -12.835c3.349 -3.348 7.627 -5.022 12.835 -5.022c0 0 107.143 0 107.143 0c0 0 0 0 0 0m-196.429 -142.857c15.625 0 26.6 7.44 32.925 22.321c6.324 14.881 3.72 27.716 -7.813 38.505c0 0 -250 250 -250 250c-6.696 7.068 -15.067 10.602 -25.112 10.602c-10.044 0 -18.415 -3.534 -25.111 -10.602c0 0 -250 -250 -250 -250c-11.533 -10.789 -14.137 -23.624 -7.813 -38.505c6.325 -14.881 17.299 -22.321 32.924 -22.321c0 0 142.858 0 142.858 0c0 0 0 -250 0 -250c0 -9.673 3.534 -18.043 10.602 -25.112c7.069 -7.068 15.439 -10.602 25.112 -10.602c0 0 142.857 0 142.857 0c9.673 0 18.043 3.534 25.112 10.602c7.068 7.069 10.602 15.439 10.602 25.112c0 0 0 250 0 250c0 0 142.857 0 142.857 0c0 0 0 0 0 0" />
  </g>
</svg>