<svg height="1000px" width="857.1428571428571px" xmlns="http://www.w3.org/2000/svg">
  <g>
    <path d="M785.7142857142858 232.1428571428571c0 21.949 11.905 65.848 35.714 131.696c23.81 65.849 35.715 123.791 35.715 173.829c0 50.037 -14.416 91.424 -43.248 124.162c-28.832 32.739 -69.29 48.922 -121.373 48.55c0 0 -2.79 -0.558 -2.79 -0.558c-28.274 22.693 -61.384 34.04 -99.33 34.04c-8.185 0 -16.184 -0.558 -23.996 -1.674c-20.089 11.16 -42.225 18.043 -66.406 20.647c0 0 0 94.308 0 94.308c0 39.062 -14.137 72.638 -42.411 100.725c-28.274 28.088 -61.756 42.132 -100.446 42.132c-38.691 0 -72.173 -14.137 -100.447 -42.411c-28.274 -28.273 -42.411 -61.756 -42.411 -100.446c0 0 0 -208.705 0 -208.705c-20.089 8.184 -43.898 12.276 -71.428 12.276c-45.015 0 -80.078 -15.16 -105.19 -45.479c-25.111 -30.32 -37.667 -68.732 -37.667 -115.235c0 -27.53 12.463 -50.595 37.388 -69.196c17.485 -13.021 38.226 -25.391 62.221 -37.11c23.996 -11.718 43.062 -22.042 57.199 -30.971c14.137 -8.928 28.367 -19.624 42.689 -32.087c14.323 -12.462 24.089 -20.926 29.297 -25.39c5.209 -4.465 9.208 -7.999 11.998 -10.603c2.79 -2.604 6.79 -6.417 11.998 -11.44c5.208 -5.022 9.393 -9.486 12.556 -13.393c3.162 -3.906 6.603 -8.091 10.323 -12.555c6.697 -8.557 10.045 -16.927 10.045 -25.112c0 0 0 -160.714 0 -160.714c0 -19.718 6.975 -36.552 20.926 -50.503c13.951 -13.95 30.785 -20.926 50.503 -20.926c0 0 357.142 0 357.142 0c19.718 0 36.552 6.976 50.503 20.926c13.951 13.951 20.926 30.785 20.926 50.503c0 0 0 160.714 0 160.714c0 0 0 0 0 0m-71.429 -125c0 -9.673 -3.534 -18.043 -10.602 -25.112c-7.069 -7.068 -15.439 -10.602 -25.112 -10.602c-9.672 0 -18.043 3.534 -25.111 10.602c-7.069 7.069 -10.603 15.439 -10.603 25.112c0 9.673 3.534 18.043 10.603 25.112c7.068 7.068 15.439 10.602 25.111 10.602c9.673 0 18.043 -3.534 25.112 -10.602c7.068 -7.069 10.602 -15.439 10.602 -25.112c0 0 0 0 0 0m-21.763 531.25c62.128 0 93.192 -34.226 93.192 -102.679c0 -31.25 -5.952 -65.29 -17.857 -102.12c-11.905 -36.83 -23.81 -72.917 -35.714 -108.259c-11.905 -35.342 -17.858 -66.406 -17.858 -93.192c0 0 0 -17.857 0 -17.857c0 0 -357.142 0 -357.142 0c0 0 0 17.857 0 17.857c0 17.113 -4.651 34.04 -13.951 50.781c-9.301 16.741 -18.974 30.134 -29.018 40.179c-17.113 17.113 -33.11 31.622 -47.991 43.527c-30.134 26.785 -53.2 45.201 -69.197 55.245c-15.997 10.045 -28.553 17.392 -37.667 22.043c-9.115 4.65 -17.299 8.742 -24.554 12.276c-7.254 3.535 -13.951 6.976 -20.089 10.324c-6.138 3.348 -12.742 7.068 -19.81 11.161c-15.625 8.928 -23.438 16.369 -23.438 22.321c0 26.414 5.674 47.898 17.02 64.453c11.347 16.555 27.251 24.833 47.712 24.833c20.462 0 38.412 -2.79 53.851 -8.371c15.439 -5.58 27.995 -11.718 37.667 -18.415c26.414 -17.857 45.759 -26.786 58.036 -26.786c0 0 0 321.429 0 321.429c0 18.601 7.161 35.156 21.484 49.665c14.323 14.509 31.064 21.764 50.224 21.764c19.159 0 35.807 -7.069 49.944 -21.206c14.137 -14.137 21.205 -30.878 21.205 -50.223c0 0 0 -184.71 0 -184.71c17.113 13.021 37.389 19.531 60.826 19.531c23.438 0 44.457 -9.858 63.058 -29.575c11.905 6.696 24.74 10.044 38.505 10.044c13.764 0 27.436 -3.255 41.015 -9.765c13.579 -6.511 23.345 -15.346 29.297 -26.507c8.929 1.488 19.345 2.232 31.25 2.232c0 0 0 0 0 0" />
  </g>
</svg>