<svg height="1000px" width="899.90234375px" xmlns="http://www.w3.org/2000/svg">
  <g>
    <path d="M0 855.95703125c0 0 0 -299.805 0 -299.805c0 -5.208 1.872 -9.684 5.615 -13.427c3.744 -3.744 8.22 -5.616 13.428 -5.616c0 0 111.816 0 111.816 0c5.209 0 9.685 1.791 13.428 5.371c3.744 3.581 5.615 8.138 5.615 13.672c0 0 0 168.946 0 168.946c0 0 600.098 0 600.098 0c0 0 0 -168.946 0 -168.946c0 -5.208 1.872 -9.684 5.615 -13.427c3.744 -3.744 8.22 -5.616 13.428 -5.616c0 0 111.816 0 111.816 0c5.209 0 9.685 1.791 13.428 5.371c3.744 3.581 5.615 8.138 5.615 13.672c0 0 0 299.805 0 299.805c0 12.695 -6.347 19.043 -19.043 19.043c0 0 -861.816 0 -861.816 0c-12.695 0 -19.043 -6.348 -19.043 -19.043c0 0 0 0 0 0m168.701 -442.139c2.116 -5.371 8.545 -8.056 19.287 -8.056c0 0 149.903 0 149.903 0c0 0 0 -243.653 0 -243.653c0 -10.091 3.499 -18.798 10.498 -26.123c6.998 -7.324 15.869 -10.986 26.611 -10.986c0 0 149.902 0 149.902 0c10.743 0 19.776 3.662 27.1 10.986c7.324 7.325 10.986 16.032 10.986 26.123c0 0 0 243.653 0 243.653c0 0 149.903 0 149.903 0c10.091 0 16.113 2.685 18.066 8.056c1.953 5.371 -0.651 11.8 -7.812 19.287c0 0 -246.094 247.071 -246.094 247.071c-7.487 7.487 -16.52 11.149 -27.1 10.986c-10.579 -0.163 -19.612 -3.825 -27.099 -10.986c0 0 -246.094 -247.071 -246.094 -247.071c-7.487 -7.487 -10.173 -13.916 -8.057 -19.287c0 0 0 0 0 0" />
  </g>
</svg>