<svg height="1000px" width="1071.4285714285716px" xmlns="http://www.w3.org/2000/svg">
  <g>
    <path d="M0 607.1428571428571c0 -48.363 13.021 -93.006 39.063 -133.929c26.041 -40.922 61.011 -71.614 104.91 -92.075c-0.744 -11.161 -1.116 -19.16 -1.116 -23.996c0 -78.869 27.902 -146.205 83.706 -202.009c55.803 -55.804 123.139 -83.705 202.008 -83.705c58.036 0 111.143 16.183 159.32 48.549c48.177 32.366 83.24 75.335 105.189 128.906c26.414 -23.065 58.315 -34.598 95.703 -34.598c37.389 0 70.034 13.951 97.936 41.853c27.902 27.901 41.852 61.569 41.852 101.004c0 28.274 -7.626 53.943 -22.879 77.009c48.363 11.533 88.077 36.737 119.141 75.614c31.064 38.876 46.596 85.565 46.596 140.067c0 54.501 -20.927 102.678 -62.779 144.531c-41.853 41.853 -92.355 62.779 -151.507 62.779c0 0 -607.143 0 -607.143 0c-68.824 0 -127.697 -24.461 -176.618 -73.382c-48.921 -48.921 -73.382 -107.794 -73.382 -176.618c0 0 0 0 0 0m285.714 -89.007c0 5.023 1.674 9.208 5.023 12.556c0 0 196.428 196.429 196.428 196.429c3.348 3.348 7.627 5.022 12.835 5.022c5.208 0 9.487 -1.674 12.835 -5.022c0 0 195.87 -195.871 195.87 -195.871c3.721 -4.464 5.581 -9.114 5.581 -13.951c0 -4.836 -1.674 -8.928 -5.023 -12.277c-3.348 -3.348 -7.626 -5.022 -12.834 -5.022c0 0 -125 0 -125 0c0 0 0 -196.428 0 -196.428c0 -4.837 -1.768 -9.022 -5.302 -12.556c-3.534 -3.534 -7.719 -5.302 -12.556 -5.302c0 0 -107.142 0 -107.142 0c-4.837 0 -9.022 1.768 -12.556 5.302c-3.534 3.534 -5.302 7.719 -5.302 12.556c0 0 0 196.428 0 196.428c0 0 -125 0 -125 0c-4.836 0 -9.021 1.767 -12.555 5.301c-3.535 3.535 -5.302 7.813 -5.302 12.835c0 0 0 0 0 0" />
  </g>
</svg>