<svg height="1000" width="857.143" xmlns="http://www.w3.org/2000/svg"><path d="M571.392 837.064q-23.436 -134.478 -78.12 -277.884h-1.116l-1.116 .558q-8.928 3.348 -23.994 9.207t-56.358 27.342 -76.446 45.756 -73.098 63.891 -57.474 82.584l-8.37 -6.138q102.672 83.7 233.244 83.7 73.656 0 142.848 -29.016zm-103.23 -338.706q-11.718 -27.342 -29.574 -61.938 -173.538 51.894 -375.534 51.894 -.558 3.906 -.558 11.718 0 69.192 24.552 131.967t69.192 112.437q27.9 -49.662 68.913 -92.907t79.515 -69.471 72.819 -45.198 55.521 -26.784l20.646 -7.254q2.232 -.558 7.254 -1.953t7.254 -2.511zm-59.706 -118.296q-66.96 -118.854 -136.152 -210.924 -77.004 36.27 -130.572 103.788t-71.424 151.776q168.516 0 338.148 -44.64zm381.672 178.002q-117.18 -33.48 -228.222 -16.182 48.546 133.362 71.424 261.702 61.938 -41.85 103.23 -105.741t53.568 -139.779zm-449.19 -413.478q-.558 0 -1.116 .558 .558 -.558 1.116 -.558zm329.22 80.91q-103.23 -91.512 -241.614 -91.512 -42.408 0 -86.49 10.602 73.098 94.86 137.268 213.156 38.502 -14.508 72.54 -33.759t53.847 -34.317 36.549 -31.806 20.925 -22.599zm124.434 270.63q-1.674 -129.456 -83.142 -228.78l-.558 .558q-5.022 6.696 -10.602 13.671t-24.273 24.831 -39.618 33.759 -55.8 36.27 -73.377 35.991q13.95 29.574 24.552 53.01 1.116 3.348 3.627 9.765t4.185 9.207q20.088 -2.79 41.571 -3.906t41.013 -1.116 38.502 .837 35.712 2.232 31.527 3.069 26.784 3.627 20.367 3.348 13.95 2.511zm62.496 3.906q0 116.622 -57.474 215.109t-155.961 155.961 -215.109 57.474 -215.109 -57.474 -155.961 -155.961 -57.474 -215.109 57.474 -215.109 155.961 -155.961 215.109 -57.474 215.109 57.474 155.961 155.961 57.474 215.109z"/></svg>