<svg height="1000" width="857.1" xmlns="http://www.w3.org/2000/svg"><path d="M571.4 837.1Q548 702.6 493.3 559.2h-1.1l-1.1 .5q-9 3.4 -24 9.2t-56.4 27.4T334.3 642t-73.1 63.9 -57.5 82.6l-8.4 -6.1q102.7 83.7 233.3 83.7 73.6 0 142.8 -29zM468.2 498.3Q456.5 471 438.6 436.4 265.1 488.3 63.1 488.3q-.6 3.9 -.6 11.7 0 69.2 24.6 132t69.2 112.4q27.9 -49.6 68.9 -92.9T304.7 582t72.8 -45.2T433 510l20.7 -7.2q2.2 -.6 7.2 -2t7.3 -2.5zM408.5 380Q341.5 261.2 272.3 169.1q-77 36.3 -130.6 103.8T70.3 424.7q168.5 0 338.2 -44.7zm381.7 178Q673 524.6 561.9 541.9q48.6 133.3 71.5 261.7 61.9 -41.9 103.2 -105.8T790.2 558zM341 144.5q-.6 0 -1.2 .6 .6 -.6 1.2 -.6zm329.2 80.9Q567 133.9 428.6 133.9q-42.4 0 -86.5 10.6 73.1 94.9 137.3 213.2 38.5 -14.5 72.5 -33.8t53.8 -34.3 36.6 -31.8 20.9 -22.6zm124.4 270.7Q793 366.6 711.5 267.3l-.6 .6q-5 6.7 -10.6 13.6t-24.2 24.9 -39.7 33.7 -55.8 36.3 -73.3 36q13.9 29.6 24.5 53 1.1 3.3 3.6 9.8t4.2 9.2q20.1 -2.8 41.6 -3.9t41 -1.1 38.5 .8 35.7 2.2 31.6 3.1 26.7 3.6 20.4 3.4 14 2.5zm62.5 3.9q0 116.6 -57.4 215.1t-156 156 -215.1 57.5T213.4 871.1 57.5 715.1 0 500 57.5 284.9t155.9 -156T428.6 71.4t215.1 57.5 156 156T857.1 500z"/></svg>