<svg height="1000" width="1000" xmlns="http://www.w3.org/2000/svg"><path d="M35.712 545.788l188.604 -151.218 275.652 170.19 -190.836 159.03zm0 -301.878l273.42 -178.002 190.836 159.03 -275.652 169.632zm191.394 520.614v-60.264l82.026 53.568 190.836 -158.472v-1.116l.558 .558 .558 -.558v1.116l191.394 158.472 82.026 -53.568v60.264l-273.42 163.494v.558l-.558 -.558 -.558 .558v-.558zm272.862 -199.764l275.652 -170.19 188.604 151.218 -272.862 178.002zm0 -339.822l191.394 -159.03 272.862 178.002 -188.604 150.66z"/></svg>