<svg height="1000" width="857.143" xmlns="http://www.w3.org/2000/svg"><path d="M651.186 885.052q-2.79 -10.602 -13.392 -2.79 -16.74 12.276 -48.546 21.762t-73.098 9.486q-71.982 0 -107.694 -27.342 -2.79 -2.232 -7.254 -2.232 -6.138 0 -14.508 6.696 -3.906 3.348 -4.185 8.928t4.185 11.16q18.972 17.856 48.825 25.668t57.195 6.975 55.242 -2.511q22.878 -2.232 47.151 -11.439t36.27 -16.74 15.903 -11.439q6.696 -6.696 3.906 -16.182zm-21.762 -64.17q-10.602 -26.226 -21.762 -34.038 -12.834 -8.37 -42.408 -8.37 -26.226 0 -39.618 5.58 -16.182 6.696 -43.524 31.248 -14.508 13.392 -6.696 24.552 5.022 4.464 9.765 2.511t17.577 -13.113q1.674 -1.116 5.859 -4.743t5.859 -4.743 5.58 -3.906 6.417 -3.906 6.975 -2.79 8.37 -2.511 9.207 -1.395 11.439 -.558q15.066 0 24.831 4.185t12.834 8.091 7.533 12.276q5.58 9.486 6.975 11.16t6.975 -.558q12.834 -6.696 7.812 -18.972zm198.09 -156.798q0 -12.276 -2.79 -24.831t-9.207 -25.11 -18.972 -20.367 -29.295 -7.812q-18.414 0 -54.126 23.157t-71.982 46.593 -56.358 23.436q-15.066 .558 -35.433 -10.602t-42.408 -27.342 -46.593 -32.364 -55.8 -27.342 -61.938 -10.602q-64.17 .558 -109.926 43.803t-46.872 99.603q-1.116 62.496 41.292 91.512 16.182 11.16 34.875 15.903t57.753 4.743q31.806 0 73.656 -18.135t74.772 -39.618 66.96 -39.339 51.894 -17.298q14.508 .558 36.27 17.577t39.897 37.386 37.944 37.665 30.969 17.856q19.53 1.674 32.643 -7.812t30.969 -35.154q15.624 -22.878 23.715 -56.358t8.091 -59.148zm29.574 -89.28q0 91.512 -34.596 169.911t-92.628 131.688 -135.315 83.421 -162.099 30.132 -163.494 -32.085 -138.105 -87.606 -95.139 -134.757 -35.712 -168.516q0 -49.662 10.881 -96.255t27.342 -81.189 39.339 -66.123 43.803 -52.452 43.803 -38.781 35.991 -25.947 23.715 -13.671q7.812 -4.464 28.458 -14.787t30.411 -15.903 26.784 -16.74 33.759 -24.552q20.088 -15.624 32.364 -40.455t16.74 -70.029q71.982 86.49 103.788 107.694 24.552 16.182 72.54 37.944t71.982 36.828q11.718 7.254 21.762 13.95t33.759 25.947 42.408 39.339 41.85 53.01 38.502 68.076 26.226 82.863 10.881 99.045z"/></svg>