<svg height="1000" width="857.1" xmlns="http://www.w3.org/2000/svg"><path d="M651.2 885q-2.8 -10.6 -13.4 -2.7 -16.7 12.2 -48.5 21.7t-73.1 9.5q-72 0 -107.7 -27.3 -2.8 -2.3 -7.3 -2.3 -6.1 0 -14.5 6.7 -3.9 3.4 -4.2 9t4.2 11.1q19 17.9 48.8 25.7t57.2 7 55.3 -2.6q22.9 -2.2 47.1 -11.4t36.3 -16.7 15.9 -11.5q6.7 -6.7 3.9 -16.2zm-21.7 -64.1q-10.6 -26.3 -21.8 -34.1 -12.8 -8.3 -42.4 -8.3 -26.2 0 -39.6 5.5 -16.2 6.7 -43.6 31.3 -14.5 13.4 -6.7 24.5 5.1 4.5 9.8 2.6t17.6 -13.2q1.7 -1.1 5.8 -4.7t5.9 -4.7 5.6 -4 6.4 -3.9 7 -2.7 8.4 -2.6 9.2 -1.4 11.4 -.5q15.1 0 24.8 4.2t12.9 8.1 7.5 12.2q5.6 9.5 7 11.2t7 -.6q12.8 -6.7 7.8 -18.9zM827.6 664.1q0 -12.3 -2.8 -24.9t-9.2 -25.1 -19 -20.3 -29.3 -7.9q-18.4 0 -54.1 23.2t-72 46.6 -56.4 23.4q-15 .6 -35.4 -10.6T507 641.2t-46.6 -32.4 -55.8 -27.3 -62 -10.6q-64.1 .5 -109.9 43.8t-46.9 99.6q-1.1 62.5 41.3 91.5 16.2 11.2 34.9 15.9t57.8 4.8q31.8 0 73.6 -18.2t74.8 -39.6 67 -39.3 51.9 -17.3q14.5 .5 36.2 17.5t39.9 37.4 38 37.7 30.9 17.8q19.6 1.7 32.7 -7.8t31 -35.1q15.6 -22.9 23.7 -56.4t8.1 -59.1zm29.5 -89.3q0 91.5 -34.6 169.9t-92.6 131.7 -135.3 83.4T432.5 990 269 957.9 130.9 870.3 35.7 735.5 0 567q0 -49.7 10.9 -96.3t27.3 -81.2 39.4 -66.1 43.8 -52.5 43.8 -38.8 36 -25.9 23.7 -13.7q7.8 -4.4 28.4 -14.8t30.5 -15.9 26.7 -16.7 33.8 -24.6q20.1 -15.6 32.4 -40.4T393.4 10q72 86.5 103.8 107.7 24.6 16.2 72.6 38t71.9 36.8q11.8 7.3 21.8 14t33.8 25.9 42.4 39.4 41.8 53 38.5 68.1 26.3 82.8 10.8 99.1z"/></svg>