<svg height="1000" width="1000" xmlns="http://www.w3.org/2000/svg"><path d="M38.5 443.6h.6Q48 373.3 71.7 308.9t64.2 -121.1 93.5 -98.2T354.1 24 508.4 0q128.9 0 231 58.9t164.1 169.3q58 104.4 58 246.7v104.9H333.7q.6 61.9 29.9 107.4t76.1 68.4 105.8 31.8 118.8 1.7 116.1 -26T877.2 716v210.3q-51.3 30.7 -128 51.4t-174.4 21.2T398.4 969.3Q293 928.6 224.6 830.4T155.1 622.8q-1.6 -135.1 62 -229.9T398.4 243.3q-26.7 33.5 -43.5 70t-25.7 89h354.4q4.5 -42.9 -4.5 -78.1t-26.2 -56.6 -39.3 -37.1 -45 -22.9 -41.8 -11.5 -31.3 -4.7l-12.2 -.6q-75.4 2.8 -144.9 24.9T213.7 274t-98.2 78.4 -77 91.2z"/></svg>