<svg height="1000px" width="899.90234375px" xmlns="http://www.w3.org/2000/svg">
  <g>
    <path d="M0 725.5859375c0 0 0 -450.195 0 -450.195c0 -20.508 3.988 -39.958 11.963 -58.35c7.975 -18.392 18.636 -34.261 31.982 -47.607c13.347 -13.347 29.216 -24.008 47.608 -31.983c18.392 -7.975 37.842 -11.963 58.349 -11.963c0 0 524.903 0 524.903 0c1.302 0 3.011 0.163 5.127 0.489c2.116 0.325 3.825 0.488 5.127 0.488c0 0 -93.262 93.262 -93.262 93.262c0 0 -441.895 0 -441.895 0c-15.299 0 -28.401 5.452 -39.306 16.357c-10.905 10.905 -16.358 24.007 -16.358 39.307c0 0 0 450.195 0 450.195c0 15.299 5.453 28.402 16.358 39.307c10.905 10.905 24.007 16.357 39.306 16.357c0 0 524.903 0 524.903 0c15.299 0 28.483 -5.452 39.55 -16.357c11.068 -10.905 16.602 -24.008 16.602 -39.307c0 0 0 -217.285 0 -217.285c0 0 94.238 -93.75 94.238 -93.75c0 0 0 311.035 0 311.035c0 20.508 -4.069 39.795 -12.207 57.861c-8.138 18.067 -19.043 33.936 -32.715 47.608c-13.671 13.672 -29.459 24.495 -47.363 32.47c-17.903 7.976 -37.272 11.963 -58.105 11.963c0 0 -524.903 0 -524.903 0c-20.507 0 -39.957 -3.987 -58.349 -11.963c-18.392 -7.975 -34.261 -18.798 -47.608 -32.47c-13.346 -13.672 -24.007 -29.541 -31.982 -47.608c-7.975 -18.066 -11.963 -37.353 -11.963 -57.861c0 0 0 0 0 0m308.105 -8.301c0 0 52.735 -160.644 52.735 -160.644c0 0 318.359 -318.36 318.359 -318.36c0 0 107.91 108.399 107.91 108.399c0 0 -317.871 317.871 -317.871 317.871c0 0 -161.133 52.734 -161.133 52.734m114.747 -148.926c1.953 2.605 4.72 3.907 8.3 3.907c3.256 0 5.86 -1.302 7.813 -3.907c0 0 250 -249.023 250 -249.023c5.859 -5.859 5.859 -11.556 0 -17.09c-5.86 -5.208 -11.556 -5.208 -17.09 0c0 0 -249.023 249.024 -249.023 249.024c-5.86 5.859 -5.86 11.556 0 17.089c0 0 0 0 0 0m310.058 -383.789c0 0 44.922 -45.898 44.922 -45.898c9.44 -9.44 20.508 -14.16 33.203 -14.16c12.695 0 23.275 4.72 31.738 14.16c0 0 22.461 21.973 22.461 21.973c0 0 21.973 21.972 21.973 21.972c8.789 9.44 13.265 20.264 13.428 32.471c0.163 12.207 -4.313 23.031 -13.428 32.471c0 0 -46.387 44.922 -46.387 44.922c0 0 -107.91 -107.911 -107.91 -107.911" />
  </g>
</svg>