<svg height="1000px" width="1000px" xmlns="http://www.w3.org/2000/svg">
  <g>
    <path d="M0 696.4285714285713c0 0 0 -464.286 0 -464.286c0 -44.271 15.718 -82.124 47.154 -113.56c31.436 -31.436 69.289 -47.154 113.56 -47.154c0 0 464.286 0 464.286 0c23.438 0 45.201 4.65 65.29 13.951c5.581 2.604 8.929 6.882 10.045 12.835c1.116 5.952 -0.558 11.346 -5.022 16.183c0 0 -27.344 27.344 -27.344 27.344c-5.581 5.208 -12.091 6.696 -19.531 4.464c-7.441 -2.232 -15.253 -3.348 -23.438 -3.348c0 0 -464.286 0 -464.286 0c-24.553 0 -45.573 8.742 -63.058 26.227c-17.485 17.485 -26.227 38.505 -26.227 63.058c0 0 0 464.286 0 464.286c0 24.554 8.742 45.573 26.227 63.058c17.485 17.485 38.505 26.228 63.058 26.228c0 0 464.286 0 464.286 0c24.554 0 45.573 -8.743 63.058 -26.228c17.485 -17.485 26.228 -38.504 26.228 -63.058c0 0 0 -70.313 0 -70.313c0 -4.836 1.674 -8.928 5.022 -12.276c0 0 35.714 -35.715 35.714 -35.715c5.581 -5.58 12.091 -6.882 19.532 -3.906c7.44 2.976 11.16 8.371 11.16 16.183c0 0 0 106.027 0 106.027c0 44.271 -15.718 82.124 -47.154 113.56c-31.436 31.436 -69.289 47.154 -113.56 47.154c0 0 -464.286 0 -464.286 0c-44.271 0 -82.124 -15.718 -113.56 -47.154c-31.436 -31.436 -47.154 -69.289 -47.154 -113.56c0 0 0 0 0 0m357.143 17.857c0 0 0 -160.714 0 -160.714c0 0 375 -375 375 -375c0 0 160.714 160.714 160.714 160.714c0 0 -375 375 -375 375c0 0 -160.714 0 -160.714 0c0 0 0 0 0 0m53.571 -107.143c0 0 53.572 0 53.572 0c0 0 0 53.572 0 53.572c0 0 31.25 0 31.25 0c0 0 64.732 -64.732 64.732 -64.732c0 0 -84.822 -84.822 -84.822 -84.822c0 0 -64.732 64.732 -64.732 64.732c0 0 0 31.25 0 31.25c0 0 0 0 0 0m116.072 -133.928c5.952 5.952 12.09 5.766 18.415 -0.558c0 0 195.312 -195.313 195.312 -195.313c3.258 -3.258 4.887 -6.467 4.887 -9.626c0 -2.973 -1.443 -5.903 -4.329 -8.789c-2.886 -2.886 -5.815 -4.329 -8.789 -4.329c-3.159 0 -6.368 1.629 -9.626 4.887c0 0 -195.312 195.313 -195.312 195.313c-6.325 6.324 -6.511 12.462 -0.558 18.415c0 0 0 0 0 0m241.071 -330.357c0 0 51.339 -51.34 51.339 -51.34c10.417 -10.416 23.066 -15.625 37.947 -15.625c14.881 0 27.53 5.209 37.946 15.625c0 0 84.822 84.822 84.822 84.822c10.416 10.416 15.625 23.065 15.625 37.946c0 14.881 -5.209 27.53 -15.625 37.947c0 0 -51.34 51.339 -51.34 51.339c0 0 -160.714 -160.714 -160.714 -160.714" />
  </g>
</svg>