<svg height="1000px" width="1000px" xmlns="http://www.w3.org/2000/svg">
  <g>
    <path d="M979.9107142857143 252.23214285714278c0 0 -51.339 51.339 -51.339 51.339c0 0 -160.715 -160.714 -160.715 -160.714c0 0 51.34 -51.339 51.34 -51.339c10.416 -10.417 23.065 -15.625 37.946 -15.625c14.881 0 27.53 5.208 37.947 15.625c0 0 84.821 84.821 84.821 84.821c10.417 10.417 15.625 23.066 15.625 37.947c0 14.881 -5.208 27.529 -15.625 37.946c0 0 0 0 0 0m-247.768 -73.661c0 0 160.714 160.715 160.714 160.715c0 0 -375 375 -375 375c0 0 -160.714 0 -160.714 0c0 0 0 -160.715 0 -160.715c0 0 375 -375 375 -375m53.572 411.831c0 0 0 106.026 0 106.026c0 44.271 -15.718 82.125 -47.154 113.561c-31.436 31.436 -69.29 47.154 -113.561 47.154c0 0 -464.285 0 -464.285 0c-44.271 0 -82.125 -15.718 -113.561 -47.154c-31.436 -31.436 -47.154 -69.29 -47.154 -113.561c0 0 0 -464.285 0 -464.285c0 -44.271 15.718 -82.125 47.154 -113.561c31.436 -31.436 69.29 -47.154 113.561 -47.154c0 0 464.285 0 464.285 0c23.438 0 45.201 4.651 65.29 13.951c5.581 2.604 8.929 6.883 10.045 12.835c1.116 5.953 -0.558 11.347 -5.022 16.183c0 0 -27.344 27.344 -27.344 27.344c-5.58 5.208 -12.091 6.696 -19.531 4.464c-7.441 -2.232 -15.253 -3.348 -23.438 -3.348c0 0 -464.285 0 -464.285 0c-24.554 0 -45.573 8.743 -63.058 26.228c-17.486 17.485 -26.228 38.504 -26.228 63.058c0 0 0 464.285 0 464.285c0 24.554 8.742 45.573 26.228 63.058c17.485 17.486 38.504 26.228 63.058 26.228c0 0 464.285 0 464.285 0c24.554 0 45.573 -8.742 63.058 -26.228c17.485 -17.485 26.228 -38.504 26.228 -63.058c0 0 0 -70.312 0 -70.312c0 -4.836 1.674 -8.929 5.022 -12.277c0 0 35.715 -35.714 35.715 -35.714c5.58 -5.58 12.09 -6.883 19.531 -3.906c7.44 2.976 11.161 8.37 11.161 16.183c0 0 0 0 0 0m-44.643 -331.474c-5.953 -5.952 -12.091 -5.766 -18.415 0.558c0 0 -195.313 195.313 -195.313 195.313c-6.324 6.324 -6.51 12.463 -0.558 18.415c5.952 5.953 12.091 5.767 18.415 -0.558c0 0 195.313 -195.312 195.313 -195.312c6.324 -6.325 6.51 -12.463 0.558 -18.416c0 0 0 0 0 0m-245.536 401.786c0 0 64.732 -64.732 64.732 -64.732c0 0 -84.821 -84.821 -84.821 -84.821c0 0 -64.732 64.732 -64.732 64.732c0 0 0 31.25 0 31.25c0 0 53.571 0 53.571 0c0 0 0 53.571 0 53.571c0 0 31.25 0 31.25 0c0 0 0 0 0 0" />
  </g>
</svg>