<svg height="1000" width="1000" xmlns="http://www.w3.org/2000/svg"><path d="M495.5 660.7L560.3 596l-84.9 -84.8 -64.7 64.7v31.2h53.6v53.6h31.2zM741.1 258.9q-9 -8.9 -18.4 .6L527.3 454.8q-9.4 9.5 -.5 18.4t18.4 -.5L740.5 277.3q9.5 -9.4 .6 -18.4zm44.6 331.5v106q0 66.4 -47.1 113.6T625 857.1H160.7Q94.3 857.1 47.2 810T0 696.4V232.1Q0 165.7 47.2 118.6T160.7 71.4H625q35.2 0 65.3 14 8.4 3.9 10 12.8 1.7 9.5 -5 16.2L668 141.7q-7.8 7.9 -17.9 4.5 -12.8 -3.3 -25.1 -3.3H160.7q-36.8 0 -63 26.2t-26.3 63v464.3q0 36.9 26.3 63.1t63 26.2H625q36.8 0 63.1 -26.2t26.2 -63.1v-70.3q0 -7.2 5 -12.3L755 578.1q8.4 -8.3 19.6 -3.9t11.1 16.2zM732.1 178.6l160.8 160.7 -375 375H357.1V553.6zm247.8 73.6l-51.3 51.4L767.9 142.9l51.3 -51.4q15.6 -15.6 37.9 -15.6t38 15.6l84.8 84.8q15.6 15.7 15.6 38t-15.6 37.9z"/></svg>