<svg height="1000px" width="900px" xmlns="http://www.w3.org/2000/svg">
  <g>
    <path d="M0 725.5c0 0 0 -450 0 -450c0 -20.667 4 -40.167 12 -58.5c8 -18.333 18.667 -34.167 32 -47.5c13.333 -13.333 29.167 -24 47.5 -32c18.333 -8 37.833 -12 58.5 -12c0 0 525 0 525 0c1.333 0 3 0.167 5 0.5c2 0.333 3.667 0.5 5 0.5c0 0 -93 93 -93 93c0 0 -442 0 -442 0c-15.333 0 -28.5 5.5 -39.5 16.5c-11 11 -16.5 24.167 -16.5 39.5c0 0 0 450 0 450c0 15.333 5.5 28.5 16.5 39.5c11 11 24.167 16.5 39.5 16.5c0 0 525 0 525 0c15.333 0 28.5 -5.5 39.5 -16.5c11 -11 16.5 -24.167 16.5 -39.5c0 0 0 -217 0 -217c0 0 94 -94 94 -94c0 0 0 311 0 311c0 20.667 -4 40 -12 58c-8 18 -18.833 33.833 -32.5 47.5c-13.667 13.667 -29.5 24.5 -47.5 32.5c-18 8 -37.333 12 -58 12c0 0 -525 0 -525 0c-20.667 0 -40.167 -4 -58.5 -12c-18.333 -8 -34.167 -18.833 -47.5 -32.5c-13.333 -13.667 -24 -29.5 -32 -47.5c-8 -18 -12 -37.333 -12 -58c0 0 0 0 0 0m308 -8c0 0 53 -161 53 -161c0 0 318 -318 318 -318c0 0 108 108 108 108c0 0 -318 318 -318 318c0 0 -161 53 -161 53m115 -149c2 2.667 4.667 4 8 4c3.333 0 6 -1.333 8 -4c0 0 250 -249 250 -249c6 -6 6 -11.667 0 -17c-6 -5.333 -11.667 -5.333 -17 0c0 0 -249 249 -249 249c-6 6 -6 11.667 0 17c0 0 0 0 0 0m310 -384c0 0 45 -46 45 -46c9.333 -9.333 20.333 -14 33 -14c12.667 0 23.333 4.667 32 14c0 0 22 22 22 22c0 0 22 22 22 22c8.667 9.333 13.167 20.167 13.5 32.5c0.333 12.333 -4.167 23.167 -13.5 32.5c0 0 -46 45 -46 45c0 0 -108 -108 -108 -108" />
  </g>
</svg>