<svg height="1000" width="1000" xmlns="http://www.w3.org/2000/svg"><path d="M0 696.4v-464.3q0-66.4 47.2-113.6t113.6-47.2h464.3q35.2 0 65.3 14 8.4 3.9 10 12.8 1.7 9.5-5 16.2l-27.3 27.3q-7.8 7.8-17.9 4.5-12.8-3.3-25.1-3.3h-464.3q-36.8 0-63.1 26.2t-26.2 63.1v464.3q0 36.8 26.2 63.1t63.1 26.2h464.3q36.8 0 63.1-26.2t26.2-63.1v-70.3q0-7.3 5-12.3l35.7-35.7q8.4-8.4 19.5-3.9t11.2 16.2v106q0 66.4-47.2 113.6t-113.6 47.2h-464.3q-66.4 0-113.6-47.2t-47.2-113.6zm357.1 17.9v-160.7l375-375 160.7 160.7-375 375h-160.7zm53.6-107.1h53.6v53.6h31.2l64.7-64.7-84.8-84.8-64.7 64.7v31.2zm116.1-133.9q8.9 8.9 18.4-.6l195.3-195.3q9.5-9.5.6-18.4t-18.4.6l-195.3 195.3q-9.5 9.5-.6 18.4zm241.1-330.3l51.3-51.3q15.6-15.6 37.9-15.6t37.9 15.6l84.8 84.8q15.6 15.6 15.6 37.9t-15.6 37.9l-51.3 51.3z"/></svg>