<svg height="1000" width="1000" xmlns="http://www.w3.org/2000/svg"><path d="M748.3 437.5q16.2 -24.6 -3.6 -72.3t-67.8 -79.5q-32.4 -21.7 -70 -29.8T541 253.3 502.8 274q-6.7 12.8 -2.5 15.6t23.7 5.6q12.8 1.7 21.5 2.8t24.8 5.3 31.3 9.8q20.1 7.2 37.6 17.5t29.6 20.7 22.3 21.5 17 21.2 12.3 19.2 9.2 15.9 6.7 10.4 5.9 3.3 6.1 -5.3zm202.6 320.3q-29 70.9 -82.9 122.8t-119.7 78.9 -141.2 33.8 -148.4 -7.5T318.6 935 201.5 844.9t-79 -131.5 -26 -169.3q.6 -22.9 4.8 -47.2t7 -35.7 13.4 -44.9 12.8 -40.7q-28.5 116 .5 221.5t96.6 177.5T394 889.5t193.1 46.3 194.7 -41.5T943.1 757.8q11.1 -15.1 10 -7.8 0 2.2 -2.2 7.8zM817.5 507.3q0 58 -22.6 111t-60.5 91.5T644 770.9t-110.5 22.6T423 770.9t-90.4 -61.1T272 618.3t-22.6 -111T272 396.2t60.6 -91.5T423 243.6 533.5 221 644 243.6t90.4 61.1 60.5 91.5 22.6 111.1zM977.7 346.5q-36.3 -82 -100.7 -140T735.8 120.8 572.8 91t-167.9 20.3 -153.8 72 -122.8 118T55.2 467.1t-5.5 208.1Q22.3 585.4 20.9 501.4T40.7 349.3t60.9 -126.6 92.3 -100.8T309.4 51.6 438.9 12 574.2 7t131.7 30.1 120.6 69.5 99.3 109.9q18.4 27.9 34.6 67.5t17.3 62.5zm-34.6 190.9q6.7 -136.2 -76.2 -232.2T645.6 171.3q-4.4 0 -5.5 -2.8t13.4 -4.4q69.7 2.2 128.3 27.9t96.5 66.9 64.8 94.1 32.6 111 -.5 116.1 -34.4 110.2 -68.3 93.2 -103.2 65.6T630.6 875Q690.8 858.3 743 830.4t97.1 -68.7 72.3 -98.5 30.7 -125.8z"/></svg>