<svg height="1000px" width="750px" xmlns="http://www.w3.org/2000/svg">
  <g>
    <path d="M0 804.8124089837074c0 0 0 -96.68 0 -96.68c0 -9.44 3.337 -17.496 10.01 -24.17c6.673 -6.673 14.73 -10.009 24.17 -10.009c0 0 681.64 0 681.64 0c9.44 0 17.497 3.336 24.17 10.009c6.673 6.674 10.01 14.73 10.01 24.17c0 0 0 96.68 0 96.68c0 9.44 -3.337 17.497 -10.01 24.17c-6.673 6.673 -14.73 10.01 -24.17 10.01c0 0 -681.64 0 -681.64 0c-9.44 0 -17.497 -3.337 -24.17 -10.01c-6.673 -6.673 -10.01 -14.73 -10.01 -24.17c0 0 0 0 0 0m2.93 -255.859c-5.86 -13.998 -3.581 -26.368 6.836 -37.11c0 0 341.308 -340.82 341.308 -340.82c6.511 -6.51 14.486 -9.847 23.926 -10.01c9.44 -0.163 17.415 3.174 23.926 10.01c0 0 341.308 340.82 341.308 340.82c10.743 10.742 13.021 23.112 6.836 37.11c-5.208 13.997 -15.625 20.996 -31.25 20.996c0 0 -681.64 0 -681.64 0c-15.3 0 -25.716 -6.999 -31.25 -20.996c0 0 0 0 0 0" />
  </g>
</svg>