<svg height="1000px" width="750px" xmlns="http://www.w3.org/2000/svg">
  <g>
    <path d="M0 805c0 0 0 -97 0 -97c0 -9.333 3.333 -17.333 10 -24c6.667 -6.667 14.667 -10 24 -10c0 0 682 0 682 0c9.333 0 17.333 3.333 24 10c6.667 6.667 10 14.667 10 24c0 0 0 97 0 97c0 9.333 -3.333 17.333 -10 24c-6.667 6.667 -14.667 10 -24 10c0 0 -682 0 -682 0c-9.333 0 -17.333 -3.333 -24 -10c-6.667 -6.667 -10 -14.667 -10 -24c0 0 0 0 0 0m3 -256c-6 -14 -3.667 -26.333 7 -37c0 0 341 -341 341 -341c6.667 -6.667 14.667 -10 24 -10c9.333 0 17.333 3.333 24 10c0 0 341 341 341 341c10.667 10.667 13 23 7 37c-5.333 14 -15.667 21 -31 21c0 0 -682 0 -682 0c-15.333 0 -25.667 -7 -31 -21c0 0 0 0 0 0" />
  </g>
</svg>