<svg height="1000px" width="858.2589285714286px" xmlns="http://www.w3.org/2000/svg">
  <g>
    <path d="M-0.2455357142857143 560.4988839285713c0 -4.083 2.686 -8.81 8.058 -14.182c0 0 396.205 -396.205 396.205 -396.205c7.069 -7.069 15.439 -10.603 25.112 -10.603c9.673 0 18.043 3.534 25.112 10.603c0 0 396.205 396.205 396.205 396.205c5.372 5.372 8.058 10.099 8.058 14.182c0 1.289 -0.268 2.514 -0.804 3.675c-2.232 4.836 -8.184 7.254 -17.857 7.254c0 0 -821.428 0 -821.428 0c-9.673 0 -15.625 -2.418 -17.857 -7.254c-0.536 -1.161 -0.804 -2.386 -0.804 -3.675c0 0 0 0 0 0m0.804 260.93c0 0 0 -142.857 0 -142.857c0 -9.673 3.534 -18.044 10.602 -25.112c7.069 -7.069 15.439 -10.603 25.112 -10.603c0 0 785.714 0 785.714 0c9.673 0 18.043 3.534 25.112 10.603c7.068 7.068 10.602 15.439 10.602 25.112c0 0 0 142.857 0 142.857c0 9.672 -3.534 18.043 -10.602 25.111c-7.069 7.069 -15.439 10.603 -25.112 10.603c0 0 -785.714 0 -785.714 0c-9.673 0 -18.043 -3.534 -25.112 -10.603c-7.068 -7.068 -10.602 -15.439 -10.602 -25.111c0 0 0 0 0 0" />
  </g>
</svg>