<svg height="1000px" width="858.2589285714286px" xmlns="http://www.w3.org/2000/svg">
  <g>
    <path d="M0.5580357142857143 821.4285714285714c0 0 0 -142.857 0 -142.857c0 -9.673 3.534 -18.043 10.603 -25.112c7.068 -7.068 15.439 -10.602 25.111 -10.602c0 0 785.715 0 785.715 0c9.672 0 18.043 3.534 25.111 10.602c7.069 7.069 10.603 15.439 10.603 25.112c0 0 0 142.857 0 142.857c0 9.673 -3.534 18.043 -10.603 25.112c-7.068 7.068 -15.439 10.602 -25.111 10.602c0 0 -785.715 0 -785.715 0c-9.672 0 -18.043 -3.534 -25.111 -10.602c-7.069 -7.069 -10.603 -15.439 -10.603 -25.112c0 0 0 0 0 0m0 -257.254c-2.232 -4.837 0.186 -10.789 7.254 -17.858c0 0 396.206 -396.205 396.206 -396.205c7.068 -7.068 15.439 -10.603 25.111 -10.603c9.673 0 18.044 3.535 25.112 10.603c0 0 396.205 396.205 396.205 396.205c7.069 7.069 9.487 13.021 7.255 17.858c-2.232 4.836 -8.185 7.254 -17.857 7.254c0 0 -821.429 0 -821.429 0c-9.672 0 -15.625 -2.418 -17.857 -7.254c0 0 0 0 0 0" />
  </g>
</svg>