<svg height="1000px" width="858.2589285714286px" xmlns="http://www.w3.org/2000/svg">
  <g>
    <path d="M821.9866071428571 857.1428571428571c0 0 -785.714 0 -785.714 0c-9.673 0 -18.043 -3.534 -25.112 -10.603c-7.068 -7.068 -10.603 -15.439 -10.603 -25.111c0 0 0 -142.857 0 -142.857c0 -9.673 3.535 -18.044 10.603 -25.112c7.069 -7.068 15.439 -10.603 25.112 -10.603c0 0 785.714 0 785.714 0c9.673 0 18.043 3.535 25.112 10.603c7.068 7.068 10.602 15.439 10.602 25.112c0 0 0 142.857 0 142.857c0 9.672 -3.534 18.043 -10.602 25.111c-7.069 7.069 -15.439 10.603 -25.112 10.603c0 0 0 0 0 0m-814.174 -310.826c0 0 396.205 -396.205 396.205 -396.205c7.069 -7.069 15.439 -10.603 25.112 -10.603c9.672 0 18.043 3.534 25.111 10.603c0 0 396.206 396.205 396.206 396.205c7.068 7.069 9.486 13.021 7.254 17.857c-2.232 4.837 -8.184 7.255 -17.857 7.255c0 0 -821.428 0 -821.428 0c-9.673 0 -15.625 -2.418 -17.858 -7.255c-2.232 -4.836 0.186 -10.788 7.255 -17.857c0 0 0 0 0 0" />
  </g>
</svg>