<svg height="1000" width="214.286" xmlns="http://www.w3.org/2000/svg"><path d="M214.272 696.448v107.136q0 22.32 -15.624 37.944t-37.944 15.624h-107.136q-22.32 0 -37.944 -15.624t-15.624 -37.944v-107.136q0 -22.32 15.624 -37.944t37.944 -15.624h107.136q22.32 0 37.944 15.624t15.624 37.944zm0 -285.696v107.136q0 22.32 -15.624 37.944t-37.944 15.624h-107.136q-22.32 0 -37.944 -15.624t-15.624 -37.944v-107.136q0 -22.32 15.624 -37.944t37.944 -15.624h107.136q22.32 0 37.944 15.624t15.624 37.944zm0 -285.696v107.136q0 22.32 -15.624 37.944t-37.944 15.624h-107.136q-22.32 0 -37.944 -15.624t-15.624 -37.944v-107.136q0 -22.32 15.624 -37.944t37.944 -15.624h107.136q22.32 0 37.944 15.624t15.624 37.944z"/></svg>