<svg height="1000" width="785.7" xmlns="http://www.w3.org/2000/svg"><path d="M214.3 410.7v107.2q0 22.3 -15.6 37.9t-38 15.6H53.6q-22.3 0 -38 -15.6T0 517.9V410.7q0 -22.3 15.6 -37.9t38 -15.7h107.1q22.3 0 38 15.7t15.6 37.9zm285.7 0v107.2q0 22.3 -15.6 37.9t-38 15.6H339.3q-22.3 0 -38 -15.6t-15.6 -37.9V410.7q0 -22.3 15.6 -37.9t38 -15.7h107.1q22.4 0 38 15.7t15.6 37.9zm285.7 0v107.2q0 22.3 -15.6 37.9t-38 15.6H625q-22.3 0 -37.9 -15.6t-15.7 -37.9V410.7q0 -22.3 15.7 -37.9T625 357.1h107.1q22.4 0 38 15.7t15.6 37.9z"/></svg>