<svg height="1000" width="1000" xmlns="http://www.w3.org/2000/svg"><path d="M487.692 914.068v36.828q-116.064 -3.348 -214.83 -61.101t-157.914 -153.729l32.364 -18.972q16.182 27.342 40.734 55.242l36.27 -31.806q82.584 93.744 205.344 118.296l-9.486 47.988q36.27 6.696 67.518 7.254zm-333.684 -295.74l-46.314 15.624q12.276 33.48 27.342 62.496l-31.806 18.414q-54.684 -100.44 -54.684 -214.83t54.684 -214.83l31.806 18.414q-16.74 31.248 -27.342 62.496l45.756 15.624q-19.53 55.8 -19.53 118.296 0 60.822 20.088 118.296zm698.616 98.766l32.364 18.972q-59.148 95.976 -157.914 153.729t-214.83 61.101v-36.828q31.248 -.558 67.518 -7.254l-9.486 -47.988q122.76 -24.552 205.344 -118.296l36.27 31.806q24.552 -27.9 40.734 -55.242zm-84.258 -309.132l-130.014 44.64q7.812 23.436 7.812 47.43t-7.812 47.43l129.456 44.64q-17.298 51.336 -54.684 94.302l-103.23 -90.396q-31.806 37.386 -82.026 47.43l26.784 134.478q-29.016 5.58 -54.684 5.58t-54.684 -5.58l26.784 -134.478q-50.22 -10.044 -82.026 -47.43l-103.23 90.396q-37.386 -42.966 -54.684 -94.302l129.456 -44.64q-7.812 -23.436 -7.812 -47.43t7.812 -47.43l-130.014 -44.64q18.414 -51.894 55.242 -94.302l103.23 90.396q32.922 -37.944 82.026 -47.988l-26.784 -133.92q24.552 -5.58 54.684 -5.58t54.684 5.58l-26.784 133.92q49.104 10.044 82.026 47.988l103.23 -90.396q36.828 42.408 55.242 94.302zm-280.674 -358.794v36.828q-36.27 1.116 -67.518 7.254l9.486 47.988q-122.76 23.436 -205.344 117.738l-36.27 -31.248q-21.204 23.436 -40.734 54.684l-31.806 -18.414q59.148 -95.976 157.356 -153.729t214.83 -61.101zm463.698 450.864q0 114.39 -54.684 214.83l-31.806 -18.414q15.066 -29.016 27.342 -62.496l-46.314 -15.624q20.088 -57.474 20.088 -118.296 0 -62.496 -19.53 -118.296l45.756 -15.624q-10.602 -31.248 -27.342 -62.496l31.806 -18.414q54.684 100.44 54.684 214.83zm-66.96 -236.034l-31.806 18.414q-19.53 -31.248 -40.734 -54.684l-36.27 31.248q-82.584 -94.302 -205.344 -117.738l9.486 -47.988q-31.248 -6.138 -67.518 -7.254v-36.828q116.622 3.348 214.83 61.101t157.356 153.729zm90.954 236.034q0 -96.534 -37.665 -184.698t-101.277 -151.776 -151.776 -101.277 -184.698 -37.665 -184.698 37.665 -151.776 101.277 -101.277 151.776 -37.665 184.698 37.665 184.698 101.277 151.776 151.776 101.277 184.698 37.665 184.698 -37.665 151.776 -101.277 101.277 -151.776 37.665 -184.698zm24.552 0q0 101.556 -39.618 194.184t-106.578 159.588 -159.588 106.578 -194.184 39.618 -194.184 -39.618 -159.588 -106.578 -106.578 -159.588 -39.618 -194.184 39.618 -194.184 106.578 -159.588 159.588 -106.578 194.184 -39.618 194.184 39.618 159.588 106.578 106.578 159.588 39.618 194.184z"/></svg>