<svg height="1000" width="1000" xmlns="http://www.w3.org/2000/svg"><path d="M487.7 914.1v36.8q-116 -3.4 -214.8 -61.1T115 736l32.3 -18.9q16.2 27.3 40.8 55.2l36.2 -31.8q82.6 93.8 205.4 118.3l-9.5 48q36.3 6.7 67.5 7.3zM154 618.3l-46.3 15.6q12.3 33.5 27.3 62.5l-31.8 18.4Q48.5 614.4 48.5 500t54.7 -214.8l31.8 18.4q-16.7 31.2 -27.3 62.5l45.8 15.6Q133.9 437.5 133.9 500q0 60.8 20.1 118.3zm698.7 98.8L885 736q-59.1 96 -157.9 153.8t-214.8 61.1v-36.8q31.2 -.6 67.5 -7.3l-9.5 -48Q693.1 834.3 775.7 740.5l36.2 31.8q24.6 -27.9 40.8 -55.2zM768.4 407.9l-130 44.7q7.8 23.4 7.8 47.4t-7.8 47.4l129.5 44.7q-17.3 51.3 -54.7 94.3L609.9 596q-31.8 37.4 -82 47.4l26.8 134.5q-29 5.6 -54.7 5.6t-54.7 -5.6l26.8 -134.5q-50.2 -10 -82 -47.4l-103.3 90.4q-37.4 -43 -54.7 -94.3l129.5 -44.7Q353.8 524 353.8 500t7.8 -47.4l-130 -44.7Q250 356 286.8 313.6L390.1 404q32.9 -37.9 82 -48L445.3 222.1q24.6 -5.6 54.7 -5.6t54.7 5.6L527.9 356q49.1 10.1 82 48l103.3 -90.4q36.8 42.4 55.2 94.3zM487.7 49.1v36.8q-36.2 1.2 -67.5 7.3l9.5 48Q306.9 164.6 224.3 258.9l-36.2 -31.2q-21.2 23.4 -40.8 54.7L115.5 264q59.2 -96 157.4 -153.8T487.7 49.1zM951.5 500q0 114.4 -54.7 214.8L865 696.4q15 -29 27.3 -62.5L846 618.3Q866.1 560.8 866.1 500q0 -62.5 -19.6 -118.3l45.8 -15.6Q881.7 334.8 865 303.6l31.8 -18.4q54.7 100.4 54.7 214.8zm-67 -236l-31.8 18.4q-19.6 -31.3 -40.8 -54.7l-36.2 31.2Q693.1 164.6 570.3 141.2l9.5 -48q-31.3 -6.1 -67.5 -7.3V49.1q116.6 3.4 214.8 61.1T884.5 264zm90.9 236q0 -96.5 -37.6 -184.7T836.5 163.5 684.7 62.2 500 24.6 315.3 62.2 163.5 163.5 62.2 315.3 24.6 500t37.6 184.7 101.3 151.8 151.8 101.3T500 975.4t184.7 -37.6T836.5 836.5 937.8 684.7 975.4 500zm24.6 0q0 101.6 -39.6 194.2T853.8 853.8 694.2 960.4 500 1000 305.8 960.4 146.2 853.8 39.6 694.2 0 500 39.6 305.8 146.2 146.2 305.8 39.6 500 0t194.2 39.6 159.6 106.6 106.6 159.6T1000 500z"/></svg>