<svg height="1000" width="1000" xmlns="http://www.w3.org/2000/svg"><path d="M1000 365v545.7q0 36.8 -26.2 63.1t-63.1 26.2H89.3q-36.8 0 -63.1 -26.2T0 910.7V365q0 -8.4 6.1 -13.4 4.5 -3.9 21.8 -19.3t23.2 -20.1 25.4 -20.9 39 -31 53.6 -40.7 80.1 -59.7T356.6 81.5q2.8 -2.3 29.3 -22.3t39.9 -29.3 35.7 -19.6T500 0t38.5 10.3 36.3 19.8 39.6 29.1 29 22.3q61.4 44.6 107.4 78.4t80.1 59.7 53.6 40.7 39 31 25.4 20.9 23.2 20.1 21.8 19.3q6.1 5 6.1 13.4zM685.3 691.4Q832 584.8 877.8 550.8q6.1 -4.5 7 -11.5t-3.7 -13.1l-21.2 -29q-4.4 -6.1 -11.7 -7t-13.4 3.7Q705.9 588.2 643.4 633.4q-2.8 1.6 -29 21.7t-39.9 29.3 -36 19.6T500 714.3 461.5 704t-36 -19.6 -39.9 -29.3 -29 -21.7Q252.8 558.6 165.2 493.9q-6.2 -4.5 -13.4 -3.7t-11.7 7l-21.2 29q-4.5 6.2 -3.7 13.1t7 11.5q45.8 34 192.5 140.6 5.6 4.5 27.9 21.2t36.3 26.2 35.7 22.1 43.3 18.7 42.1 6.1 42.1 -6.1 44.1 -19.3 36 -22 36.3 -26.5 26.8 -20.4z"/></svg>