<svg height="1000" width="1000" xmlns="http://www.w3.org/2000/svg"><path d="M822.5 509.5l21.8 28.4q4.5 6.2 3.6 13.2t-6.4 11.4q-24 19 -70.6 55t-81.7 63 -37.4 28.8Q630 727.1 618.3 736t-33.8 22.9 -42.6 20.4 -41.3 6.4h-1.2q-20.6 0 -41.3 -6.4t-42.4 -20.4 -34 -23.1 -33.5 -26.5q-2.8 -2.3 -36.3 -28.2t-80 -62 -68.4 -52.7q-6.1 -4.5 -7 -11.4t3.7 -13.1l20.6 -29.1q4.5 -6.1 12 -7.2t13.7 3.9q52.4 40.7 170.7 131.7 2.8 2.2 24.3 19.5t33.8 26 31.5 18.1 32.6 9.5h1.2q13.4 0 32.6 -9.5t31.5 -18.1 33.8 -26 24.3 -19.5Q766.7 530.7 797.4 506.1q6.2 -4.4 13.4 -3.6t11.7 7zm106.1 401.2V392.9q-50.3 -46.4 -88.8 -77.6Q789.1 274 622.8 145.6q-1.7 -1.1 -24 -19.5T564.7 99.3 533.5 81.2t-32.9 -9.8h-1.2q-13.4 0 -32.9 9.8t-31.2 18.1 -34.1 26.8 -24 19.5q-119.9 92.7 -176 137t-72.3 58.1 -45.8 41.6q-7.8 6.7 -11.7 10.6v517.8q0 7.3 5.3 12.6t12.6 5.3h821.4q7.3 0 12.6 -5.3t5.3 -12.6zM1000 392.9v517.8q0 36.8 -26.2 63.1t-63.1 26.2H89.3q-36.8 0 -63.1 -26.2T0 910.7V392.9q0 -31.3 22.9 -52.5Q91.5 276.8 218.2 178.3T348.2 77q20.1 -16.7 32.9 -26.5t34.4 -23.4T457.9 6.7 499.4 0h1.2q20.6 0 41.5 6.7t42.4 20.4 34.4 23.4T651.8 77q24 20.1 87 68.1T865 243.9t112.1 96.5q22.9 21.2 22.9 52.5z"/></svg>