<svg height="1000" width="1000" xmlns="http://www.w3.org/2000/svg"><path d="M500 455.4Q442 346 410.7 300.2 333.1 187.5 217.1 122.8q-19 -10.6 -39.1 -20.1Q128.3 80.4 125.6 84.8t18.9 21.2l21.8 17.3q34.6 24 62.8 52.2t52.7 65 39.3 63.1 39.4 73.1q5 9.5 7.2 13.9 24.6 46.9 46.9 85.4t54.7 85.9 64.5 83.7 73.1 69 82.8 50.5q85.4 36.8 86 33.4 .5 -1.6 -27.4 -20.6 -29.5 -20.1 -45.2 -31.8Q660.2 713.7 603.2 628.3T500 455.4zm-193.6 303q-42.4 -33.5 -74 -69.8t-54.7 -80.1 -39.6 -86.2T105.5 418.5t-29 -116.6T42.7 161.3 0 0q152.3 0 277.6 20.1t211.5 51.3 151.2 80.7 103.6 96.2 61.3 110.8 31.3 111.3 7 110.8 -5.3 96.5T827 757.8t-7.2 59.7L1000 1000h-58L785.2 841q-12.3 1.1 -51.1 7.8t-67.8 10.6 -77 3.3 -89.6 -9.5 -93.4 -32.9 -99.9 -61.9z"/></svg>