<svg height="1000" width="857.1" xmlns="http://www.w3.org/2000/svg"><path d="M289.1 102.1v365.5q57.4 .6 106.8 -.8t70.1 -3.1l20.6 -1.6q38 -1.2 50.5 -13.7t22.1 -52.8l18.4 -79.2H635l-7.8 179.7 3.9 178h-57.4l-16.2 -70.9q-8.4 -37.9 -25.1 -51.9t-46.9 -14.5q-48.6 -4.4 -196.4 -4.4v310.2q0 43.6 24.2 64.5t74.5 20.9h199.3q19.5 0 33.2 -1.1t30.6 -4.2 30.2 -10 27 -17.9 25.7 -28.2 21.8 -40.7l51.9 -120.5h49.6Q853.8 726 839.6 846t-17.1 154q-81.4 -2.8 -147 -4.5t-90.7 -2.2h-375L0 1000v-56.9l70.9 -14q37.4 -7.2 51 -20.6t14.3 -44.1l4.4 -358.8q1.7 -224.4 -4.4 -360 -1.2 -34 -14.3 -46.8t-51 -20.1L0 65.3V8.4l209.8 6.7h391.8q77.5 0 208.7 -15.1 -3.4 37.9 -7.8 108.5T795.8 231l-2.8 51.4h-51.9l-17.9 -69.2Q705.9 145.6 681.9 113t-63 -32.6H313.1q-15.7 0 -19.9 4.7t-4.1 17z"/></svg>