<svg height="1000" width="571.4" xmlns="http://www.w3.org/2000/svg"><path d="M544.6 729.4l19.6 88.7q1.6 6.7 -1.7 12.5t-9.5 8.1l-2.8 .6q-2.2 1.1 -5.8 1.9t-9 2.5 -12 3.1 -14.2 2.8 -16.7 2.8 -18.7 2.5 -20.4 1.7 -21.5 .5q-130.6 0 -228.2 -72.8T70.9 588.2h-53q-7.3 0 -12.6 -5.3T0 570.3v-63Q0 500 5.3 494.7t12.6 -5.3h36.8q-1.1 -31.8 .5 -58.6H17.9q-7.9 0 -12.9 -5T0 412.9v-63.6q0 -7.8 5 -12.8t12.9 -5h54.6Q109.9 214.3 208.4 142.9T431.9 71.4q56.9 0 108.3 12.9 6.1 1.6 11.1 8.3 3.4 6.2 1.7 13.4l-24 88.8q-1.7 7.2 -7.8 10.8t-13.4 1.4l-2.2 -.5q-2.3 -.6 -6.4 -1.4l-9.8 -2t-12.6 -1.9 -14.5 -1.7 -16.2 -1.4 -16.4 -.6q-70.3 0 -126.1 35.8t-83.7 98.2H481q9 0 14 6.7 5.6 6.7 3.9 14.5l-13.4 63.6q-2.8 14.5 -17.9 14.5H195.3q-1.7 20.7 0 58.6h256.2q8.3 0 13.9 6.7 5 6.7 3.4 15.1l-13.4 62.5q-1.2 6.1 -6.2 10.3t-11.1 4.2h-216q26.8 65.3 83.4 103.5T433 729.9q10.1 0 20.1 -.8t18.7 -2 16.5 -2.5 13.7 -2.8 10.3 -2.5l6.7 -1.7 2.8 -1.1q7.2 -2.8 14.5 1.1 6.7 3.9 8.3 11.8z"/></svg>