<svg height="1000" width="571.429" xmlns="http://www.w3.org/2000/svg"><path d="M544.608 729.37l19.53 88.722q1.674 6.696 -1.674 12.555t-9.486 8.091l-2.79 .558q-2.232 1.116 -5.859 1.953t-8.928 2.511 -11.997 3.069 -14.229 2.79 -16.74 2.79 -18.693 2.511 -20.367 1.674 -21.483 .558q-130.572 0 -228.222 -72.819t-132.804 -196.137h-53.01q-7.254 0 -12.555 -5.301t-5.301 -12.555v-63.054q0 -7.254 5.301 -12.555t12.555 -5.301h36.828q-1.116 -31.806 .558 -58.59h-37.386q-7.812 0 -12.834 -5.022t-5.022 -12.834v-63.612q0 -7.812 5.022 -12.834t12.834 -5.022h54.684q37.386 -117.18 135.873 -188.604t223.479 -71.424q56.916 0 108.252 12.834 6.138 1.674 11.16 8.37 3.348 6.138 1.674 13.392l-23.994 88.722q-1.674 7.254 -7.812 10.881t-13.392 1.395l-2.232 -.558q-2.232 -.558 -6.417 -1.395l-9.765 -1.953t-12.555 -1.953 -14.508 -1.674 -16.182 -1.395 -16.461 -.558q-70.308 0 -126.108 35.712t-83.7 98.208h261.144q8.928 0 13.95 6.696 5.58 6.696 3.906 14.508l-13.392 63.612q-2.79 14.508 -17.856 14.508h-272.304q-1.674 20.646 0 58.59h256.122q8.37 0 13.95 6.696 5.022 6.696 3.348 15.066l-13.392 62.496q-1.116 6.138 -6.138 10.323t-11.16 4.185h-215.946q26.784 65.286 83.421 103.509t127.503 38.223q10.044 0 20.088 -.837t18.693 -1.953 16.461 -2.511 13.671 -2.79 10.323 -2.511l6.696 -1.674 2.79 -1.116q7.254 -2.79 14.508 1.116 6.696 3.906 8.37 11.718z"/></svg>