<svg height="1000" width="1000" xmlns="http://www.w3.org/2000/svg"><path d="M0 714.3q0-7.8 5-12.8l178.6-178.6q5-5 12.8-5 7.3 0 12.6 5.3t5.3 12.6v107.1h767.8q7.3 0 12.6 5.3t5.3 12.6v107.1q0 7.3-5.3 12.6t-12.6 5.3h-767.8v107.1q0 7.3-5.3 12.6t-12.6 5.3q-6.7 0-13.4-5.6l-178-178.6q-5-5-5-12.3zm0-303.6v-107.1q0-7.3 5.3-12.6t12.6-5.3h767.8v-107.1q0-7.8 5-12.8t12.8-5q6.7 0 13.4 5.6l178 178q5 5 5 12.8t-5 12.8l-178.6 178.6q-5 5-12.8 5-7.3 0-12.6-5.3t-5.3-12.6v-107.1h-767.8q-7.3 0-12.6-5.3t-5.3-12.6z"/></svg>