<svg height="1000" width="1000" xmlns="http://www.w3.org/2000/svg"><path d="M0 714.304q0-7.812 5.022-12.834l178.56-178.56q5.022-5.022 12.834-5.022 7.254 0 12.555 5.301t5.301 12.555l0 107.136l767.808 0q7.254 0 12.555 5.301t5.301 12.555l0 107.136q0 7.254-5.301 12.555t-12.555 5.301l-767.808 0l0 107.136q0 7.254-5.301 12.555t-12.555 5.301q-6.696 0-13.392-5.58l-178.002-178.56q-5.022-5.022-5.022-12.276zm0-303.552l0-107.136q0-7.254 5.301-12.555t12.555-5.301l767.808 0l0-107.136q0-7.812 5.022-12.834t12.834-5.022q6.696 0 13.392 5.58l178.002 178.002q5.022 5.022 5.022 12.834t-5.022 12.834l-178.56 178.56q-5.022 5.022-12.834 5.022-7.254 0-12.555-5.301t-5.301-12.555l0-107.136l-767.808 0q-7.254 0-12.555-5.301t-5.301-12.555z"/></svg>