<svg height="1000" width="1000" xmlns="http://www.w3.org/2000/svg"><path d="M999.936 660.736v107.136q0 7.254 -5.301 12.555t-12.555 5.301h-767.808v107.136q0 7.254 -5.301 12.555t-12.555 5.301q-6.696 0 -13.392 -5.58l-178.002 -178.56q-5.022 -5.022 -5.022 -12.276 0 -7.812 5.022 -12.834l178.56 -178.56q5.022 -5.022 12.834 -5.022 7.254 0 12.555 5.301t5.301 12.555v107.136h767.808q7.254 0 12.555 5.301t5.301 12.555zm0 -303.552q0 7.812 -5.022 12.834l-178.56 178.56q-5.022 5.022 -12.834 5.022 -7.254 0 -12.555 -5.301t-5.301 -12.555v-107.136h-767.808q-7.254 0 -12.555 -5.301t-5.301 -12.555v-107.136q0 -7.254 5.301 -12.555t12.555 -5.301h767.808v-107.136q0 -7.812 5.022 -12.834t12.834 -5.022q6.696 0 13.392 5.58l178.002 178.002q5.022 5.022 5.022 12.834z"/></svg>