<svg height="1000" width="1000" xmlns="http://www.w3.org/2000/svg"><path d="M1000 660.7v107.2q0 7.2 -5.3 12.5t-12.6 5.3H214.3v107.2q0 7.2 -5.3 12.5t-12.6 5.3q-6.7 0 -13.4 -5.6L5 726.6Q0 721.5 0 714.3q0 -7.8 5 -12.8L183.6 522.9q5 -5 12.8 -5 7.3 0 12.6 5.3t5.3 12.5v107.2h767.8q7.3 0 12.6 5.3t5.3 12.5zm0 -303.6q0 7.9 -5 12.9L816.4 548.5q-5 5.1 -12.8 5.1 -7.3 0 -12.6 -5.3t-5.3 -12.6V428.6H17.9q-7.3 0 -12.6 -5.3T0 410.7V303.6Q0 296.3 5.3 291t12.6 -5.3h767.8V178.6q0 -7.8 5 -12.9t12.9 -5q6.7 0 13.4 5.6l178 178q5 5 5 12.8z"/></svg>