<svg height="1000px" width="1000px" xmlns="http://www.w3.org/2000/svg">
  <g>
    <path d="M0 714.2857142857142c0 -5.208 1.674 -9.487 5.022 -12.835c0 0 178.572 -178.571 178.572 -178.571c3.348 -3.348 7.626 -5.023 12.835 -5.023c5.208 0 9.486 1.768 12.834 5.302c3.349 3.534 5.023 7.719 5.023 12.556c0 0 0 107.142 0 107.142c0 0 767.857 0 767.857 0c4.836 0 9.021 1.768 12.556 5.302c3.534 3.534 5.301 7.719 5.301 12.556c0 0 0 107.142 0 107.142c0 4.837 -1.767 9.022 -5.301 12.556c-3.535 3.534 -7.72 5.302 -12.556 5.302c0 0 -767.857 0 -767.857 0c0 0 0 107.142 0 107.142c0 4.837 -1.767 9.022 -5.302 12.556c-3.906 3.534 -8.091 5.302 -12.555 5.302c-4.465 0 -8.929 -1.861 -13.393 -5.581c0 0 -178.014 -178.571 -178.014 -178.571c-3.348 -2.976 -5.022 -7.069 -5.022 -12.277c0 0 0 0 0 0m0 -303.571c0 0 0 -107.143 0 -107.143c0 -4.837 1.767 -9.022 5.301 -12.556c3.535 -3.534 7.72 -5.301 12.556 -5.301c0 0 767.857 0 767.857 0c0 0 0 -107.143 0 -107.143c0 -5.209 1.674 -9.487 5.023 -12.835c3.348 -3.348 7.44 -5.022 12.276 -5.022c4.837 0 9.487 1.86 13.951 5.58c0 0 178.014 178.013 178.014 178.013c3.348 3.349 5.022 7.627 5.022 12.835c0 5.208 -1.674 9.487 -5.022 12.835c0 0 -178.572 178.571 -178.572 178.571c-3.348 3.349 -7.626 5.023 -12.835 5.023c-5.208 0 -9.486 -1.767 -12.834 -5.302c-3.349 -3.534 -5.023 -7.719 -5.023 -12.555c0 0 0 -107.143 0 -107.143c0 0 -767.857 0 -767.857 0c-4.836 0 -9.021 -1.767 -12.556 -5.302c-3.534 -3.534 -5.301 -7.719 -5.301 -12.555c0 0 0 0 0 0" />
  </g>
</svg>