<svg height="1000" width="857.143" xmlns="http://www.w3.org/2000/svg"><path d="M638.91 376.714q10.044 19.53 -2.79 36.828l-178.56 249.984q-10.602 15.066 -29.016 15.066t-29.016 -15.066l-178.56 -249.984q-12.834 -17.298 -2.79 -36.828 9.486 -19.53 31.806 -19.53h357.12q22.32 0 31.806 19.53zm75.33 391.158v-535.68q0 -7.254 -5.301 -12.555t-12.555 -5.301h-535.68q-7.254 0 -12.555 5.301t-5.301 12.555v535.68q0 7.254 5.301 12.555t12.555 5.301h535.68q7.254 0 12.555 -5.301t5.301 -12.555zm142.848 -535.68v535.68q0 66.402 -47.151 113.553t-113.553 47.151h-535.68q-66.402 0 -113.553 -47.151t-47.151 -113.553v-535.68q0 -66.402 47.151 -113.553t113.553 -47.151h535.68q66.402 0 113.553 47.151t47.151 113.553z"/></svg>