<svg height="1000" width="857.1" xmlns="http://www.w3.org/2000/svg"><path d="M607.1 500q0 18.4 -15 29l-250 178.6q-17.3 12.8 -36.9 2.8 -19.5 -9.5 -19.5 -31.8V321.4q0 -22.3 19.5 -31.8 19.6 -10 36.9 2.8l250 178.6q15 10.6 15 29zm107.2 267.9V232.1q0 -7.8 -5 -12.8t-12.9 -5H160.7q-7.8 0 -12.8 5t-5 12.8v535.8q0 7.8 5 12.8t12.8 5h535.7q7.8 0 12.9 -5t5 -12.8zM857.1 232.1v535.8q0 66.4 -47.1 113.5t-113.6 47.2H160.7q-66.4 0 -113.5 -47.2T0 767.9V232.1Q0 165.7 47.2 118.6T160.7 71.4h535.7q66.4 0 113.6 47.2t47.1 113.5z"/></svg>