<svg height="1000" width="857.143" xmlns="http://www.w3.org/2000/svg"><path d="M607.104 500.032q0 18.414 -15.066 29.016l-249.984 178.56q-17.298 12.834 -36.828 2.79 -19.53 -9.486 -19.53 -31.806v-357.12q0 -22.32 19.53 -31.806 19.53 -10.044 36.828 2.79l249.984 178.56q15.066 10.602 15.066 29.016zm107.136 267.84v-535.68q0 -7.812 -5.022 -12.834t-12.834 -5.022h-535.68q-7.812 0 -12.834 5.022t-5.022 12.834v535.68q0 7.812 5.022 12.834t12.834 5.022h535.68q7.812 0 12.834 -5.022t5.022 -12.834zm142.848 -535.68v535.68q0 66.402 -47.151 113.553t-113.553 47.151h-535.68q-66.402 0 -113.553 -47.151t-47.151 -113.553v-535.68q0 -66.402 47.151 -113.553t113.553 -47.151h535.68q66.402 0 113.553 47.151t47.151 113.553z"/></svg>