<svg height="1000" width="1000" xmlns="http://www.w3.org/2000/svg"><path d="M500 35.7q-94.3 0 -180.2 36.8t-148.2 99.1T72.5 319.8 35.7 500t36.8 180.2 99.1 148.2 148.2 99.1T500 964.3t180.2 -36.8 148.2 -99.1 99.1 -148.2T964.3 500 927.5 319.8 828.4 171.6 680.2 72.5 500 35.7zM500 0q101.6 0 194.2 39.6t159.6 106.6 106.6 159.6T1000 500t-39.6 194.2T853.8 853.8 694.2 960.4 500 1000 305.8 960.4 146.2 853.8 39.6 694.2 0 500 39.6 305.8 146.2 146.2 305.8 39.6 500 0zM276.8 464.3q8.9 0 8.9 8.9v267.9q0 8.9 -8.9 8.9h-17.9q-8.9 0 -8.9 -8.9V473.2q0 -8.9 8.9 -8.9h17.9zM500 500q29.6 0 50.5 20.9t20.9 50.5q0 19.6 -9.7 35.7t-26 25.7v63.6q0 7.8 -5 12.9t-12.8 5h-35.8q-7.8 0 -12.8 -5t-5 -12.9v-63.6q-16.2 -9.5 -26 -25.7t-9.7 -35.7q0 -29.5 20.9 -50.5T500 500zm0 -428.6q116.6 0 215.1 57.5t156 156T928.6 500t-57.5 215.1 -156 156T500 928.6 284.9 871.1t-156 -156T71.4 500t57.5 -215.1 156 -156T500 71.4zM303.6 339.3v53.6q0 7.8 5 12.8t12.8 5h35.7q7.9 0 12.9 -5t5 -12.8v-53.6q0 -51.9 36.6 -88.5T500 214.3t88.4 36.5 36.6 88.5v53.6q0 7.8 5 12.8t12.9 5h35.7q7.8 0 12.8 -5t5 -12.8v-53.6q0 -81.5 -57.4 -139T500 142.9t-139 57.4 -57.4 139zM785.7 750V464.3q0 -14.5 -10.6 -25.1T750 428.6H250q-14.5 0 -25.1 10.6t-10.6 25.1V750q0 14.5 10.6 25.1t25.1 10.6h500q14.5 0 25.1 -10.6T785.7 750z"/></svg>