<svg height="1000" width="928.571" xmlns="http://www.w3.org/2000/svg"><path d="M785.664 551.926v144.522q0 66.402 -47.151 113.553t-113.553 47.151h-464.256q-66.402 0 -113.553 -47.151t-47.151 -113.553v-464.256q0 -66.402 47.151 -113.553t113.553 -47.151h142.29q7.254 0 12.555 5.301t5.301 12.555q0 15.066 -14.508 17.856 -42.966 14.508 -74.214 33.48 -5.58 2.232 -8.928 2.232h-62.496q-36.828 0 -63.054 26.226t-26.226 63.054v464.256q0 36.828 26.226 63.054t63.054 26.226h464.256q36.828 0 63.054 -26.226t26.226 -63.054v-119.412q0 -10.602 10.044 -16.182 15.624 -7.254 30.132 -20.646 8.928 -8.928 19.53 -4.464 11.718 5.022 11.718 16.182zm132.246 -276.768l-214.272 214.272q-10.044 10.602 -25.11 10.602 -6.696 0 -13.95 -2.79 -21.762 -9.486 -21.762 -32.922v-107.136h-89.28q-180.234 0 -244.404 73.098 -66.402 76.446 -41.292 263.934 1.674 12.834 -11.16 18.972 -4.464 1.116 -6.696 1.116 -8.928 0 -14.508 -7.254 -5.58 -7.812 -11.718 -17.298t-22.041 -38.223 -27.621 -55.521 -21.483 -63.612 -9.765 -68.076q0 -27.342 1.953 -50.778t7.812 -50.22 15.624 -49.104 26.226 -45.477 38.223 -41.292 52.731 -34.317 69.471 -27.063 89.001 -17.019 109.647 -6.138h89.28v-107.136q0 -23.436 21.762 -32.922 7.254 -2.79 13.95 -2.79 14.508 0 25.11 10.602l214.272 214.272q10.602 10.602 10.602 25.11t-10.602 25.11z"/></svg>