<svg height="1000px" width="928.5714285714286px" xmlns="http://www.w3.org/2000/svg">
  <g>
    <path d="M0 696.4285714285713c0 0 0 -464.286 0 -464.286c0 -44.271 15.718 -82.124 47.154 -113.56c31.436 -31.436 69.289 -47.154 113.56 -47.154c0 0 142.299 0 142.299 0c4.837 0 9.022 1.767 12.556 5.301c3.534 3.535 5.302 7.72 5.302 12.556c0 10.045 -4.837 15.997 -14.509 17.857c-28.646 9.673 -53.386 20.834 -74.219 33.482c-3.72 1.489 -6.697 2.233 -8.929 2.233c0 0 -62.5 0 -62.5 0c-24.553 0 -45.573 8.742 -63.058 26.227c-17.485 17.485 -26.227 38.505 -26.227 63.058c0 0 0 464.286 0 464.286c0 24.554 8.742 45.573 26.227 63.058c17.485 17.485 38.505 26.228 63.058 26.228c0 0 464.286 0 464.286 0c24.554 0 45.573 -8.743 63.058 -26.228c17.485 -17.485 26.228 -38.504 26.228 -63.058c0 0 0 -119.42 0 -119.42c0 -7.068 3.348 -12.462 10.044 -16.183c10.417 -4.836 20.462 -11.718 30.134 -20.647c5.953 -5.952 12.463 -7.44 19.532 -4.464c7.812 3.348 11.718 8.742 11.718 16.183c0 0 0 144.531 0 144.531c0 44.271 -15.718 82.124 -47.154 113.56c-31.436 31.436 -69.289 47.154 -113.56 47.154c0 0 -464.286 0 -464.286 0c-44.271 0 -82.124 -15.718 -113.56 -47.154c-31.436 -31.436 -47.154 -69.289 -47.154 -113.56c0 0 0 0 0 0m142.857 -232.143c0 -18.229 0.651 -35.156 1.953 -50.781c1.302 -15.625 3.907 -32.366 7.813 -50.223c3.906 -17.857 9.114 -34.227 15.625 -49.107c6.51 -14.881 15.253 -30.041 26.227 -45.48c10.975 -15.439 23.717 -29.204 38.226 -41.295c14.509 -12.091 32.087 -23.531 52.734 -34.319c20.648 -10.789 43.806 -19.81 69.476 -27.065c25.669 -7.254 55.338 -12.928 89.006 -17.02c33.669 -4.092 70.22 -6.138 109.654 -6.138c0 0 89.286 0 89.286 0c0 0 0 -107.143 0 -107.143c0 -15.625 7.255 -26.6 21.764 -32.924c4.836 -1.861 9.486 -2.791 13.95 -2.791c9.673 0 18.044 3.535 25.112 10.603c0 0 214.286 214.286 214.286 214.286c7.068 7.068 10.602 15.439 10.602 25.111c0 9.673 -3.534 18.044 -10.602 25.112c0 0 -214.286 214.286 -214.286 214.286c-6.696 7.068 -15.067 10.602 -25.112 10.602c-4.464 0 -9.114 -0.93 -13.95 -2.79c-14.509 -6.324 -21.764 -17.299 -21.764 -32.924c0 0 0 -107.143 0 -107.143c0 0 -89.286 0 -89.286 0c-120.163 0 -201.636 24.368 -244.419 73.103c-44.271 50.967 -58.036 138.951 -41.295 263.951c1.116 8.556 -2.604 14.881 -11.161 18.973c-2.976 0.744 -5.208 1.116 -6.696 1.116c-5.952 0 -10.789 -2.418 -14.509 -7.254c-3.72 -5.209 -7.626 -10.975 -11.719 -17.299c-4.092 -6.325 -11.439 -19.067 -22.042 -38.226c-10.603 -19.159 -19.81 -37.667 -27.623 -55.524c-7.812 -17.858 -14.974 -39.063 -21.484 -63.616c-6.511 -24.554 -9.766 -47.248 -9.766 -68.081c0 0 0 0 0 0" />
  </g>
</svg>