<svg height="1000px" width="899.90234375px" xmlns="http://www.w3.org/2000/svg">
  <g>
    <path d="M0 725.09765625c0 0 0 -450.195 0 -450.195c0 -20.508 3.988 -39.958 11.963 -58.35c7.975 -18.392 18.636 -34.261 31.982 -47.607c13.347 -13.347 29.216 -24.008 47.608 -31.983c18.392 -7.975 37.842 -11.963 58.349 -11.963c0 0 408.203 0 408.203 0c-1.953 10.091 -2.929 20.345 -2.929 30.762c0 0 0 25.391 0 25.391c-53.386 6.51 -103.841 19.205 -151.367 38.086c0 0 -253.907 0 -253.907 0c-15.299 0 -28.401 5.452 -39.306 16.357c-10.905 10.905 -16.358 24.007 -16.358 39.307c0 0 0 450.195 0 450.195c0 15.299 5.453 28.402 16.358 39.307c10.905 10.905 24.007 16.357 39.306 16.357c0 0 524.903 0 524.903 0c15.299 0 28.483 -5.452 39.55 -16.357c11.068 -10.905 16.602 -24.008 16.602 -39.307c0 0 0 -54.199 0 -54.199c5.208 -3.255 10.335 -6.755 15.381 -10.498c5.045 -3.744 10.335 -8.22 15.869 -13.428c0 0 62.988 -62.012 62.988 -62.012c0 0 0 140.137 0 140.137c0 20.508 -4.069 39.795 -12.207 57.861c-8.138 18.067 -19.043 33.936 -32.715 47.608c-13.671 13.672 -29.459 24.495 -47.363 32.47c-17.903 7.976 -37.272 11.963 -58.105 11.963c0 0 -524.903 0 -524.903 0c-20.507 0 -39.957 -3.987 -58.349 -11.963c-18.392 -7.975 -34.261 -18.798 -47.608 -32.47c-13.346 -13.672 -24.007 -29.541 -31.982 -47.608c-7.975 -18.066 -11.963 -37.353 -11.963 -57.861c0 0 0 0 0 0m187.988 -39.795c0 0 0 -18.31 0 -18.31c0 -54.037 9.196 -104.9 27.588 -152.588c18.392 -47.689 46.55 -89.356 84.473 -125c37.923 -35.645 85.693 -63.802 143.31 -84.473c57.618 -20.671 125.814 -31.331 204.59 -31.982c0 0 0 -112.793 0 -112.793c0 -18.555 4.639 -29.867 13.916 -33.936c9.278 -4.069 20.589 0.57 33.936 13.916c0 0 191.406 190.918 191.406 190.918c8.789 8.138 13.021 18.717 12.695 31.738c0 12.696 -4.231 23.112 -12.695 31.25c0 0 -191.406 190.918 -191.406 190.918c-13.347 13.347 -24.658 17.985 -33.936 13.916c-9.277 -4.069 -13.916 -15.381 -13.916 -33.935c0 0 0 -126.953 0 -126.953c-67.383 0 -126.709 6.998 -177.978 20.996c-51.27 13.997 -94.564 32.959 -129.883 56.884c-35.319 23.926 -62.988 52.247 -83.008 84.961c-20.019 32.715 -32.633 67.79 -37.842 105.225c-1.302 8.789 -6.347 13.184 -15.136 13.184c-8.138 0 -12.859 -4.395 -14.161 -13.184c-1.302 -7.487 -1.953 -14.404 -1.953 -20.752c0 0 0 0 0 0" />
  </g>
</svg>