<svg height="1000px" width="900px" xmlns="http://www.w3.org/2000/svg">
  <g>
    <path d="M0 725.192138671875c0 0 0 -450 0 -450c0 -20.667 4 -40.167 12 -58.5c8 -18.333 18.667 -34.167 32 -47.5c13.333 -13.333 29.167 -24 47.5 -32c18.333 -8 37.833 -12 58.5 -12c0 0 408 0 408 0c-2 10 -3 20.333 -3 31c0 0 0 25 0 25c-53.333 6.667 -103.667 19.333 -151 38c0 0 -254 0 -254 0c-15.333 0 -28.5 5.5 -39.5 16.5c-11 11 -16.5 24.167 -16.5 39.5c0 0 0 450 0 450c0 15.333 5.5 28.5 16.5 39.5c11 11 24.167 16.5 39.5 16.5c0 0 525 0 525 0c15.333 0 28.5 -5.5 39.5 -16.5c11 -11 16.5 -24.167 16.5 -39.5c0 0 0 -54 0 -54c5.333 -3.333 10.5 -6.833 15.5 -10.5c5 -3.667 10.167 -8.167 15.5 -13.5c0 0 63 -62 63 -62c0 0 0 140 0 140c0 20.667 -4 40 -12 58c-8 18 -18.833 33.833 -32.5 47.5c-13.667 13.667 -29.5 24.5 -47.5 32.5c-18 8 -37.333 12 -58 12c0 0 -525 0 -525 0c-20.667 0 -40.167 -4 -58.5 -12c-18.333 -8 -34.167 -18.833 -47.5 -32.5c-13.333 -13.667 -24 -29.5 -32 -47.5c-8 -18 -12 -37.333 -12 -58c0 0 0 0 0 0m188 -40c0 0 0 -18 0 -18c0 -54 9.167 -104.833 27.5 -152.5c18.333 -47.667 46.5 -89.333 84.5 -125c38 -35.667 85.833 -63.833 143.5 -84.5c57.667 -20.667 125.833 -31.333 204.5 -32c0 0 0 -113 0 -113c0 -18.667 4.667 -30 14 -34c9.333 -4 20.667 0.667 34 14c0 0 191 191 191 191c8.667 8 13 18.667 13 32c0 12.667 -4.333 23 -13 31c0 0 -191 191 -191 191c-13.333 13.333 -24.667 18 -34 14c-9.333 -4 -14 -15.333 -14 -34c0 0 0 -127 0 -127c-67.333 0 -126.667 7 -178 21c-51.333 14 -94.667 33 -130 57c-35.333 24 -63 52.333 -83 85c-20 32.667 -32.667 67.667 -38 105c-1.333 8.667 -6.333 13 -15 13c-8 0 -12.667 -4.333 -14 -13c-1.333 -7.333 -2 -14.333 -2 -21c0 0 0 0 0 0" />
  </g>
</svg>