<svg height="1000" width="928.6" xmlns="http://www.w3.org/2000/svg"><path d="M785.7 551.9v144.5q0 66.4 -47.1 113.6T625 857.1H160.7Q94.3 857.1 47.2 810T0 696.4V232.1Q0 165.7 47.2 118.6T160.7 71.4H303q7.3 0 12.6 5.3t5.3 12.6q0 15.1 -14.5 17.8 -43 14.6 -74.3 33.5 -5.5 2.3 -8.9 2.3h-62.5q-36.8 0 -63 26.2t-26.3 63v464.3q0 36.9 26.3 63.1t63 26.2H625q36.8 0 63.1 -26.2t26.2 -63.1V577q0 -10.6 10 -16.2 15.7 -7.2 30.2 -20.6 8.9 -8.9 19.5 -4.5 11.7 5 11.7 16.2zM918 275.1L703.7 489.4Q693.6 500 678.6 500q-6.7 0 -14 -2.8 -21.7 -9.5 -21.7 -32.9V357.1h-89.3q-180.3 0 -244.4 73.1 -66.5 76.5 -41.3 264 1.6 12.8 -11.2 19 -4.5 1.1 -6.7 1.1 -8.9 0 -14.5 -7.3 -5.6 -7.8 -11.7 -17.3t-22.1 -38.2T174.1 596t-21.5 -63.6 -9.7 -68.1q0 -27.4 1.9 -50.8t7.8 -50.2 15.6 -49.1 26.3 -45.5 38.2 -41.3 52.7 -34.3T354.9 166t89 -17 109.7 -6.1h89.3V35.7q0 -23.4 21.7 -32.9Q671.9 0 678.6 0q14.5 0 25.1 10.6L918 224.9q10.6 10.6 10.6 25.1T918 275.1z"/></svg>