<svg height="1000" width="928.6" xmlns="http://www.w3.org/2000/svg"><path d="M0 696.4v-464.3q0-66.4 47.2-113.6t113.6-47.2h142.3q7.3 0 12.6 5.3t5.3 12.6q0 15.1-14.5 17.9-43 14.5-74.2 33.5-5.6 2.2-8.9 2.2h-62.5q-36.8 0-63.1 26.2t-26.2 63.1v464.3q0 36.8 26.2 63.1t63.1 26.2h464.3q36.8 0 63.1-26.2t26.2-63.1v-119.4q0-10.6 10-16.2 15.6-7.3 30.1-20.6 8.9-8.9 19.5-4.5 11.7 5 11.7 16.2v144.5q0 66.4-47.2 113.6t-113.6 47.2h-464.3q-66.4 0-113.6-47.2t-47.2-113.6zm142.8-232.1q0-27.3 2-50.8t7.8-50.2 15.6-49.1 26.2-45.5 38.2-41.3 52.7-34.3 69.5-27.1 89-17 109.6-6.1h89.3v-107.1q0-23.4 21.8-32.9 7.3-2.8 14-2.8 14.5 0 25.1 10.6l214.3 214.3q10.6 10.6 10.6 25.1t-10.6 25.1l-214.3 214.3q-10 10.6-25.1 10.6-6.7 0-14-2.8-21.8-9.5-21.8-32.9v-107.1h-89.3q-180.2 0-244.4 73.1-66.4 76.4-41.3 263.9 1.7 12.8-11.2 19-4.5 1.1-6.7 1.1-8.9 0-14.5-7.3-5.6-7.8-11.7-17.3t-22-38.2-27.6-55.5-21.5-63.6-9.8-68.1z"/></svg>