<svg height="1000" width="857.1" xmlns="http://www.w3.org/2000/svg"><path d="M560.8 614.4L757.3 418q10.6 -10.6 10.6 -25.1t-10.6 -25.2L560.8 171.3Q544.1 154 522.3 163.5 500 173 500 196.4v89.3q-66.4 0 -120.5 10.9t-90.7 28.5 -63.6 44 -42.7 53.3 -24.9 60.9 -12 62.2 -2.7 61.6q0 101 93.1 225.5 5.6 6.7 14 6.7 3.9 0 7.3 -1.7 12.2 -5 10.6 -18.4 -24.6 -197.5 34.6 -264 25.6 -29 72.5 -42.1T500 500v89.3q0 23.4 22.3 32.9 6.7 2.8 13.4 2.8 14.5 0 25.1 -10.6zM857.1 232.1v535.8q0 66.4 -47.1 113.5t-113.6 47.2H160.7q-66.4 0 -113.5 -47.2T0 767.9V232.1Q0 165.7 47.2 118.6T160.7 71.4h535.7q66.4 0 113.6 47.2t47.1 113.5z"/></svg>