<svg height="1000px" width="928.5714285714286px" xmlns="http://www.w3.org/2000/svg">
  <g>
    <path d="M917.96875 275.1116071428571c0 0 -214.286 214.286 -214.286 214.286c-6.696 7.068 -13.672 10.602 -20.926 10.602c-7.255 0 -13.3 -0.93 -18.136 -2.79c-14.509 -6.324 -21.764 -17.299 -21.764 -32.924c0 0 0 -107.143 0 -107.143c0 0 -89.285 0 -89.285 0c-120.164 0 -202.009 24.926 -245.536 74.777c-43.527 49.851 -56.92 137.277 -40.179 262.277c1.116 8.556 -1.209 14.044 -6.975 16.462c-5.766 2.418 -10.51 3.627 -14.23 3.627c-3.72 0 -7.44 -2.511 -11.161 -7.533c-3.72 -5.023 -7.626 -10.696 -11.718 -17.02c-4.093 -6.325 -11.44 -19.067 -22.043 -38.226c-10.603 -19.159 -19.81 -37.667 -27.623 -55.524c-20.833 -47.62 -31.25 -91.518 -31.25 -131.697c0 -61.384 8.557 -111.421 25.67 -150.111c49.851 -114.212 178.199 -171.317 385.045 -171.317c0 0 89.285 0 89.285 0c0 0 0 -107.143 0 -107.143c0 -15.625 7.255 -26.6 21.764 -32.924c4.836 -1.861 10.788 -2.791 17.857 -2.791c7.068 0 14.137 3.535 21.205 10.603c0 0 214.286 214.286 214.286 214.286c7.068 7.068 10.603 15.439 10.603 25.111c0 9.673 -3.535 18.044 -10.603 25.112c0 0 0 0 0 0m-132.254 276.786c0 0 0 144.531 0 144.531c0 44.271 -15.718 82.124 -47.154 113.56c-31.436 31.436 -69.29 47.154 -113.561 47.154c0 0 -464.285 0 -464.285 0c-44.271 0 -82.125 -15.718 -113.561 -47.154c-31.436 -31.436 -47.154 -69.289 -47.154 -113.56c0 0 0 -464.286 0 -464.286c0 -44.271 15.718 -82.124 47.154 -113.56c31.436 -31.436 69.29 -47.154 113.561 -47.154c0 0 142.299 0 142.299 0c4.836 0 9.021 1.767 12.555 5.301c3.535 3.535 5.302 7.72 5.302 12.556c0 10.045 -4.837 15.997 -14.509 17.857c-28.646 9.673 -53.386 20.834 -74.219 33.482c-3.72 1.488 -6.696 2.233 -8.928 2.233c0 0 -62.5 0 -62.5 0c-24.554 0 -45.573 8.742 -63.058 26.227c-17.486 17.485 -26.228 38.505 -26.228 63.058c0 0 0 464.286 0 464.286c0 24.554 8.742 45.573 26.228 63.058c17.485 17.485 38.504 26.228 63.058 26.228c0 0 464.285 0 464.285 0c24.554 0 45.573 -8.743 63.058 -26.228c17.485 -17.485 26.228 -38.504 26.228 -63.058c0 0 0 -119.42 0 -119.42c0 -7.068 3.348 -12.462 10.045 -16.183c10.416 -4.836 19.531 -10.974 27.343 -18.415c7.813 -7.44 15.439 -9.58 22.88 -6.417c7.44 3.162 11.161 8.463 11.161 15.904c0 0 0 0 0 0" />
  </g>
</svg>