<svg height="1000" width="857.143" xmlns="http://www.w3.org/2000/svg"><path d="M560.79 614.422l196.416 -196.416q10.602 -10.602 10.602 -25.11t-10.602 -25.11l-196.416 -196.416q-16.74 -17.298 -38.502 -7.812 -22.32 9.486 -22.32 32.922v89.28q-66.402 0 -120.528 10.881t-90.675 28.458 -63.612 44.082 -42.687 53.289 -24.831 60.822 -11.997 62.217 -2.79 61.659q0 100.998 93.186 225.432 5.58 6.696 13.95 6.696 3.906 0 7.254 -1.674 12.276 -5.022 10.602 -18.414 -24.552 -197.532 34.596 -263.934 25.668 -29.016 72.54 -42.129t124.992 -13.113v89.28q0 23.436 22.32 32.922 6.696 2.79 13.392 2.79 14.508 0 25.11 -10.602zm296.298 -382.23v535.68q0 66.402 -47.151 113.553t-113.553 47.151h-535.68q-66.402 0 -113.553 -47.151t-47.151 -113.553v-535.68q0 -66.402 47.151 -113.553t113.553 -47.151h535.68q66.402 0 113.553 47.151t47.151 113.553z"/></svg>