<svg height="1000" width="929" xmlns="http://www.w3.org/2000/svg"><path d="M0 696.448l0-464.256q0-66.402 47.151-113.553t113.553-47.151l142.29 0q7.254 0 12.555 5.301t5.301 12.555q0 15.066-14.508 17.856-42.966 14.508-74.214 33.48-5.58 2.232-8.928 2.232l-62.496 0q-36.828 0-63.054 26.226t-26.226 63.054l0 464.256q0 36.828 26.226 63.054t63.054 26.226l464.256 0q36.828 0 63.054-26.226t26.226-63.054l0-119.412q0-10.602 10.044-16.182 15.624-7.254 30.132-20.646 8.928-8.928 19.53-4.464 11.718 5.022 11.718 16.182l0 144.522q0 66.402-47.151 113.553t-113.553 47.151l-464.256 0q-66.402 0-113.553-47.151t-47.151-113.553zm142.848-232.128q0-27.342 1.953-50.778t7.812-50.22 15.624-49.104 26.226-45.477 38.223-41.292 52.731-34.317 69.471-27.063 89.001-17.019 109.647-6.138l89.28 0l0-107.136q0-23.436 21.762-32.922 7.254-2.79 13.95-2.79 14.508 0 25.11 10.602l214.272 214.272q10.602 10.602 10.602 25.11t-10.602 25.11l-214.272 214.272q-10.044 10.602-25.11 10.602-6.696 0-13.95-2.79-21.762-9.486-21.762-32.922l0-107.136l-89.28 0q-180.234 0-244.404 73.098-66.402 76.446-41.292 263.934 1.674 12.834-11.16 18.972-4.464 1.116-6.696 1.116-8.928 0-14.508-7.254-5.58-7.812-11.718-17.298t-22.041-38.223-27.621-55.521-21.483-63.612-9.765-68.076z"/></svg>