<svg height="1000" width="785.7" xmlns="http://www.w3.org/2000/svg"><path d="M285.7 107.1q0 -14.5 -10.6 -25.1T250 71.4 224.9 82t-10.6 25.1 10.6 25.2 25.1 10.6 25.1 -10.6 10.6 -25.2zm500 -17.8v178.6q0 8.9 -6.7 13.9 -4.4 3.9 -11.1 3.9 -2.3 0 -3.9 -.5L514 231.6q-6.2 -1.1 -10.1 -6.2T500 214.3H357.1v56.9q62 12.8 102.4 61.9T500 446.4v446.5q0 14.5 -10.6 25.1t-25.1 10.6H178.6q-14.5 0 -25.1 -10.6t-10.6 -25.1V446.4q0 -59.1 34.8 -106.3t90.2 -63.9v-61.9H250q-32.9 0 -64.2 13.1t-51 29.6 -36.9 37.1 -22.6 29.8 -7.8 13.7Q58 357.1 35.7 357.1q-8.9 0 -16.2 -3.9Q6.7 346.5 2 332.6t1.9 -27.4q2.8 -5.5 8.1 -14.5t20.9 -29.8 33.8 -39.1 47.4 -37.4 60.6 -29.3q-14 -23.4 -14 -48 0 -36.8 26.2 -63T250 17.9t63.1 26.2 26.2 63q0 18.5 -7.8 35.8H500q0 -6.2 3.9 -11.2t10.1 -6.1L764 72q1.6 -.6 3.9 -.6 6.7 0 11.1 3.9 6.7 5.1 6.7 14z"/></svg>