<svg height="1000" width="785.714" xmlns="http://www.w3.org/2000/svg"><path d="M285.696 107.2q0 -14.508 -10.602 -25.11t-25.11 -10.602 -25.11 10.602 -10.602 25.11 10.602 25.11 25.11 10.602 25.11 -10.602 10.602 -25.11zm499.968 -17.856v178.56q0 8.928 -6.696 13.95 -4.464 3.906 -11.16 3.906 -2.232 0 -3.906 -.558l-249.984 -53.568q-6.138 -1.116 -10.044 -6.138t-3.906 -11.16h-142.848v56.916q61.938 12.834 102.393 61.938t40.455 113.274v446.4q0 14.508 -10.602 25.11t-25.11 10.602h-285.696q-14.508 0 -25.11 -10.602t-10.602 -25.11v-446.4q0 -59.148 34.875 -106.299t90.117 -63.891v-61.938h-17.856q-32.922 0 -64.17 13.113t-51.057 29.574 -36.828 37.107 -22.599 29.853 -7.812 13.671q-9.486 19.53 -31.806 19.53 -8.928 0 -16.182 -3.906 -12.834 -6.696 -17.577 -20.646t1.953 -27.342q2.79 -5.58 8.091 -14.508t20.925 -29.853 33.759 -39.06 47.43 -37.386 60.543 -29.295q-13.95 -23.436 -13.95 -47.988 0 -36.828 26.226 -63.054t63.054 -26.226 63.054 26.226 26.226 63.054q0 18.414 -7.812 35.712h168.516q0 -6.138 3.906 -11.16t10.044 -6.138l249.984 -53.568q1.674 -.558 3.906 -.558 6.696 0 11.16 3.906 6.696 5.022 6.696 13.95z"/></svg>