<svg height="1000px" width="900px" xmlns="http://www.w3.org/2000/svg">
  <g>
    <path d="M0 500.6428527832031c0 -14.333 4 -27.833 12 -40.5c25.333 -40.667 54.333 -77.167 87 -109.5c32.667 -32.333 67.833 -59.667 105.5 -82c37.667 -22.333 77.167 -39.333 118.5 -51c41.333 -11.667 83.667 -17.5 127 -17.5c17.333 0 34.5 1.167 51.5 3.5c17 2.333 33.833 5.167 50.5 8.5c0 0 43 -77 43 -77c2.667 -4.667 6.667 -7.667 12 -9c4 -2 8.667 -1.667 14 1c0 0 65 37 65 37c4.667 2.667 7.833 6.5 9.5 11.5c1.667 5 1.167 9.833 -1.5 14.5c0 0 -378 675 -378 675c-2 4.667 -5.667 7.667 -11 9c-1.333 0.667 -3 1 -5 1c-2 0 -5 -0.667 -9 -2c0 0 -66 -37 -66 -37c-4.667 -2.667 -7.667 -6.5 -9 -11.5c-1.333 -5 -0.667 -9.833 2 -14.5c0 0 32 -56 32 -56c-47.333 -22 -91.167 -51 -131.5 -87c-40.333 -36 -75.833 -78.333 -106.5 -127c-8 -12 -12 -25.167 -12 -39.5c0 0 0 0 0 0m75 -0.5c26.667 42.667 57.833 80 93.5 112c35.667 32 74.833 57.667 117.5 77c0 0 28 -51 28 -51c-28 -20.667 -50.5 -46.667 -67.5 -78c-17 -31.333 -25.5 -66 -25.5 -104c0 -25.333 4.167 -49.5 12.5 -72.5c8.333 -23 19.5 -44.167 33.5 -63.5c-38 20 -73.333 45 -106 75c-32.667 30 -61.333 65 -86 105c0 0 0 0 0 0m225 -44c0 7.333 2.667 13.833 8 19.5c5.333 5.667 12 8.5 20 8.5c8 0 14.667 -2.833 20 -8.5c5.333 -5.667 8 -12.167 8 -19.5c0 -25.333 8.667 -46.667 26 -64c17.333 -17.333 38.667 -26 64 -26c8 0 14.667 -2.833 20 -8.5c5.333 -5.667 8 -12.167 8 -19.5c0 -8 -2.667 -14.667 -8 -20c-5.333 -5.333 -12 -8 -20 -8c-20 0 -39 3.833 -57 11.5c-18 7.667 -33.5 18 -46.5 31c-13 13 -23.333 28.5 -31 46.5c-7.667 18 -11.5 37 -11.5 57c0 0 0 0 0 0m153 344c0 0 43 -78 43 -78c68 -8 130.167 -31.5 186.5 -70.5c56.333 -39 103.833 -89.5 142.5 -151.5c-35.333 -55.333 -78 -101.333 -128 -138c0 0 37 -67 37 -67c30 21.333 58 45.667 84 73c26 27.333 49.667 58 71 92c7.333 12.667 11 26.167 11 40.5c0 14.333 -3.667 27.5 -11 39.5c-52 82.667 -115.833 146.5 -191.5 191.5c-75.667 45 -157.167 67.833 -244.5 68.5c0 0 0 0 0 0m75 -135c0 0 139 -249 139 -249c1.333 6.667 2.333 13.167 3 19.5c0.667 6.333 1 13.167 1 20.5c0 24 -3.5 46.833 -10.5 68.5c-7 21.667 -16.833 41.5 -29.5 59.5c-12.667 18 -27.833 34 -45.5 48c-17.667 14 -36.833 25 -57.5 33c0 0 0 0 0 0" />
  </g>
</svg>