<svg height="1000" width="1000" xmlns="http://www.w3.org/2000/svg"><path d="M309.69 744.994l43.524 -78.678q-48.546 -35.154 -75.888 -88.722t-27.342 -113.274q0 -67.518 34.038 -125.55 -127.782 65.286 -212.598 196.974 93.186 143.964 238.266 209.25zm217.062 -423.522q0 -11.16 -7.812 -18.972t-18.972 -7.812q-69.75 0 -119.691 49.941t-49.941 119.691q0 11.16 7.812 18.972t18.972 7.812 18.972 -7.812 7.812 -18.972q0 -47.988 34.038 -82.026t82.026 -34.038q11.16 0 18.972 -7.812t7.812 -18.972zm202.554 -106.578q0 3.906 -.558 5.022 -58.59 104.904 -175.77 315.828t-176.328 316.386l-27.342 49.662q-5.58 8.928 -15.624 8.928 -6.696 0 -74.772 -39.06 -8.928 -5.58 -8.928 -15.624 0 -6.696 24.552 -48.546 -79.794 -36.27 -147.033 -96.534t-116.343 -136.71q-11.16 -17.298 -11.16 -38.502t11.16 -38.502q85.374 -131.13 212.04 -207.018t276.768 -75.888q49.662 0 100.44 9.486l30.132 -54.126q5.58 -8.928 15.624 -8.928 2.79 0 10.044 3.348t17.298 8.649 18.414 10.323 17.577 10.323 10.881 6.417q8.928 5.58 8.928 15.066zm20.646 249.426q0 77.562 -44.082 141.453t-116.622 91.791l156.24 -280.116q4.464 25.11 4.464 46.872zm249.984 71.424q0 19.53 -11.16 38.502 -21.762 35.712 -60.822 80.91 -83.7 95.976 -193.905 148.986t-234.081 53.01l41.292 -73.656q118.296 -10.044 219.015 -76.446t168.237 -171.306q-64.17 -99.882 -157.356 -164.052l35.154 -62.496q53.01 35.712 101.835 85.374t80.631 102.672q11.16 18.972 11.16 38.502z"/></svg>