<svg height="1000" width="1000" xmlns="http://www.w3.org/2000/svg"><path d="M309.7 745l43.5 -78.7q-48.5 -35.2 -75.9 -88.7T250 464.3q0 -67.5 34 -125.6Q156.3 404 71.4 535.7q93.2 144 238.3 209.3zM526.8 321.4q0 -11.1 -7.8 -18.9t-19 -7.9q-69.8 0 -119.7 50t-49.9 119.7q0 11.1 7.8 19t18.9 7.8 19 -7.8 7.8 -19q0 -48 34.1 -82t82 -34.1q11.2 0 19 -7.8t7.8 -19zM729.4 214.8q0 4 -.6 5.1Q670.2 324.8 553 535.7T376.7 852.1l-27.4 49.7q-5.5 8.9 -15.6 8.9 -6.7 0 -74.8 -39Q250 866.1 250 856q0 -6.7 24.6 -48.5Q194.8 771.2 127.5 710.9T11.2 574.2Q0 556.9 0 535.7t11.2 -38.5q85.3 -131.1 212 -207T500 214.3q49.7 0 100.4 9.5l30.2 -54.2q5.6 -8.9 15.6 -8.9 2.8 0 10.1 3.4t17.2 8.6T692 183t17.5 10.4 10.9 6.4q9 5.6 9 15zM750 464.3q0 77.6 -44.1 141.4t-116.6 91.8L745.5 417.4q4.5 25.1 4.5 46.9zm250 71.4q0 19.5 -11.2 38.5 -21.7 35.7 -60.8 80.9 -83.7 96 -193.9 149t-234.1 53l41.3 -73.6q118.3 -10.1 219 -76.5T928.6 535.7q-64.2 -99.9 -157.4 -164l35.2 -62.5q53 35.7 101.8 85.3t80.6 102.7q11.2 19 11.2 38.5z"/></svg>