<svg height="1000px" width="899.90234375px" xmlns="http://www.w3.org/2000/svg">
  <g>
    <path d="M0 500.62778592109674c0 -14.323 4.069 -27.832 12.207 -40.527c25.391 -40.69 54.362 -77.23 86.914 -109.619c32.552 -32.39 67.708 -59.734 105.469 -82.032c37.76 -22.298 77.23 -39.225 118.408 -50.781c41.178 -11.556 83.578 -17.334 127.197 -17.334c17.253 0 34.343 1.139 51.27 3.418c16.927 2.279 33.691 5.046 50.293 8.301c0 0 43.457 -77.149 43.457 -77.149c2.604 -4.557 6.51 -7.487 11.719 -8.789c3.906 -1.953 8.626 -1.627 14.16 0.977c0 0 64.941 37.109 64.941 37.109c4.557 2.604 7.731 6.429 9.522 11.475c1.79 5.045 1.22 9.847 -1.709 14.404c0 0 -377.93 675.293 -377.93 675.293c-1.953 4.557 -5.534 7.487 -10.742 8.789c-1.302 0.651 -3.093 0.977 -5.371 0.977c-1.953 0 -4.883 -0.651 -8.789 -1.953c0 0 -65.918 -37.11 -65.918 -37.11c-4.558 -2.604 -7.569 -6.429 -9.034 -11.474c-1.464 -5.046 -0.895 -9.847 1.709 -14.405c0 0 32.227 -56.152 32.227 -56.152c-47.201 -22.135 -90.983 -51.188 -131.348 -87.158c-40.364 -35.97 -75.846 -78.207 -106.445 -126.709c-8.138 -12.044 -12.207 -25.228 -12.207 -39.551c0 0 0 0 0 0m75.195 -0.488c26.693 42.643 57.862 79.996 93.506 112.06c35.645 32.064 74.789 57.699 117.432 76.905c0 0 27.832 -50.782 27.832 -50.782c-27.995 -20.507 -50.456 -46.468 -67.383 -77.881c-16.927 -31.412 -25.391 -66.162 -25.391 -104.248c0 -25.39 4.151 -49.56 12.452 -72.509c8.3 -22.95 19.449 -44.19 33.447 -63.721c-38.086 19.857 -73.486 44.84 -106.201 74.951c-32.715 30.111 -61.28 65.186 -85.694 105.225c0 0 0 0 0 0m224.61 -43.946c0 7.487 2.685 13.998 8.056 19.532c5.371 5.534 12.126 8.3 20.264 8.3c8.138 0 14.811 -2.848 20.02 -8.544c5.208 -5.697 7.812 -12.126 7.812 -19.288c0 -25.39 8.708 -46.712 26.123 -63.964c17.415 -17.253 38.656 -25.879 63.721 -25.879c8.138 0 14.892 -2.849 20.263 -8.545c5.372 -5.697 8.057 -12.289 8.057 -19.776c0 -8.138 -2.685 -14.811 -8.057 -20.019c-5.371 -5.209 -12.125 -7.813 -20.263 -7.813c-19.857 0 -38.819 3.825 -56.885 11.475c-18.066 7.65 -33.529 17.985 -46.387 31.006c-12.858 13.021 -23.193 28.564 -31.006 46.631c-7.812 18.066 -11.718 37.028 -11.718 56.884c0 0 0 0 0 0m153.32 343.75c0 0 42.969 -77.636 42.969 -77.636c68.034 -8.138 130.208 -31.739 186.523 -70.801c56.315 -39.063 103.841 -89.518 142.578 -151.367c-35.481 -55.339 -78.287 -101.4 -128.418 -138.184c0 0 37.11 -66.894 37.11 -66.894c29.948 21.484 57.942 45.898 83.984 73.242c26.042 27.344 49.805 57.942 71.289 91.797c7.487 12.695 11.149 26.204 10.986 40.527c-0.162 14.323 -3.824 27.507 -10.986 39.551c-52.083 82.682 -115.967 146.484 -191.65 191.406c-75.684 44.922 -157.145 67.708 -244.385 68.359c0 0 0 0 0 0m74.707 -134.765c0 0 139.16 -249.024 139.16 -249.024c1.302 6.511 2.279 12.94 2.93 19.287c0.651 6.348 0.976 13.265 0.976 20.752c0 24.089 -3.499 46.957 -10.498 68.604c-6.998 21.647 -16.845 41.422 -29.541 59.326c-12.695 17.904 -27.832 33.854 -45.41 47.852c-17.578 13.997 -36.784 25.065 -57.617 33.203c0 0 0 0 0 0" />
  </g>
</svg>