<svg height="1000" width="1000" xmlns="http://www.w3.org/2000/svg"><path d="M0 535.7q0-21.2 11.2-38.5 85.4-131.1 212-207t276.8-75.9q49.7 0 100.4 9.5l30.1-54.1q5.6-8.9 15.6-8.9 2.8 0 10 3.3t17.3 8.6 18.4 10.3 17.6 10.3 10.9 6.4q8.9 5.6 8.9 15.1 0 3.9-.6 5-58.6 104.9-175.8 315.8t-176.3 316.4l-27.3 49.7q-5.6 8.9-15.6 8.9-6.7 0-74.8-39.1-8.9-5.6-8.9-15.6 0-6.7 24.6-48.5-79.8-36.3-147-96.5t-116.3-136.7q-11.2-17.3-11.2-38.5zm71.4 0q93.2 144 238.3 209.3l43.5-78.7q-48.5-35.2-75.9-88.7t-27.3-113.3q0-67.5 34-125.6-127.8 65.3-212.6 197zm258.9-71.4q0 11.2 7.8 19t19 7.8 19-7.8 7.8-19q0-48 34-82t82-34q11.2 0 19-7.8t7.8-19-7.8-19-19-7.8q-69.8 0-119.7 49.9t-49.9 119.7zm169.6 392.8l41.3-73.7q118.3-10 219-76.4t168.2-171.3q-64.2-99.9-157.4-164.1l35.2-62.5q53 35.7 101.8 85.4t80.6 102.7q11.2 19 11.2 38.5t-11.2 38.5q-21.8 35.7-60.8 80.9-83.7 96-193.9 149t-234.1 53zm89.3-159.6l156.2-280.1q4.5 25.1 4.5 46.9 0 77.6-44.1 141.5t-116.6 91.8z"/></svg>