<svg height="1000px" width="1000px" xmlns="http://www.w3.org/2000/svg">
  <g>
    <path d="M1000 535.7142857142857c0 24.182 -25.949 66.127 -77.846 125.837c-51.897 59.71 -114.583 107.236 -188.058 142.578c-73.475 35.342 -151.507 53.014 -234.096 53.014c0 0 41.295 -73.661 41.295 -73.661c78.869 -6.697 151.878 -32.18 219.029 -76.451c67.15 -44.271 123.233 -101.377 168.247 -171.317c-42.782 -66.592 -95.238 -121.28 -157.366 -164.062c0 0 35.157 -62.5 35.157 -62.5c35.342 23.809 69.289 52.269 101.841 85.379c32.552 33.11 59.431 67.336 80.636 102.679c7.441 12.648 11.161 25.483 11.161 38.504c0 0 0 0 0 0m-250 -71.429c0 51.712 -14.695 98.866 -44.085 141.462c-29.39 42.597 -68.266 73.196 -116.629 91.797c0 0 156.25 -280.134 156.25 -280.134c2.976 16.742 4.464 32.367 4.464 46.875c0 0 0 0 0 0m-40.458 -270.926c6.139 3.534 10.975 6.418 14.509 8.65c3.535 2.232 5.302 5.58 5.302 10.044c0 4.465 -0.186 7.069 -0.558 7.813c-39.063 69.94 -97.657 175.223 -175.782 315.848c-78.125 140.625 -136.904 246.094 -176.339 316.406c0 0 -27.344 49.665 -27.344 49.665c-3.72 5.953 -8.37 8.929 -13.951 8.929c-5.58 0 -31.064 -13.021 -76.45 -39.062c-5.953 -3.721 -8.929 -8.371 -8.929 -13.951c0 -5.581 8.185 -22.322 24.554 -50.224c-106.771 -48.735 -194.569 -126.488 -263.393 -233.259c-7.441 -11.532 -11.161 -24.367 -11.161 -38.504c0 -14.137 3.72 -26.972 11.161 -38.504c56.919 -87.426 127.604 -156.436 212.053 -207.032c84.45 -50.595 176.712 -75.893 276.786 -75.893c33.11 0 66.592 3.163 100.446 9.487c0 0 30.134 -54.129 30.134 -54.129c3.721 -5.953 7.72 -8.929 11.998 -8.929c4.278 0 8.836 1.116 13.672 3.348c4.836 2.232 10.603 5.116 17.299 8.65c6.697 3.534 12.835 6.975 18.415 10.323c5.581 3.349 11.44 6.79 17.578 10.324c0 0 0 0 0 0m-182.756 128.069c0 -7.44 -2.604 -13.765 -7.813 -18.973c-5.208 -5.208 -11.533 -7.812 -18.973 -7.812c-46.503 0 -86.403 16.648 -119.699 49.944c-33.296 33.296 -49.944 73.195 -49.944 119.698c0 7.441 2.604 13.765 7.813 18.974c5.208 5.208 11.532 7.812 18.973 7.812c7.44 0 13.765 -2.604 18.973 -7.812c5.208 -5.209 7.813 -11.533 7.813 -18.974c0 -31.994 11.346 -59.337 34.04 -82.031c22.693 -22.693 50.037 -34.04 82.031 -34.04c7.44 0 13.765 -2.604 18.973 -7.812c5.209 -5.209 7.813 -11.533 7.813 -18.974c0 0 0 0 0 0m-217.076 423.549c0 0 43.527 -78.683 43.527 -78.683c-32.366 -23.437 -57.664 -53.013 -75.893 -88.727c-18.229 -35.715 -27.344 -74.777 -27.344 -117.188c0 -42.411 11.347 -82.961 34.04 -121.652c-85.193 43.527 -156.064 109.189 -212.611 196.987c62.128 95.982 141.555 165.737 238.281 209.263c0 0 0 0 0 0" />
  </g>
</svg>