<svg height="1000px" width="1000px" xmlns="http://www.w3.org/2000/svg">
  <g>
    <path d="M0 535.7142857142857c0 -14.137 3.72 -26.972 11.161 -38.504c56.919 -87.426 127.604 -156.436 212.053 -207.032c84.45 -50.595 176.712 -75.893 276.786 -75.893c33.11 0 66.592 3.163 100.446 9.487c0 0 30.134 -54.129 30.134 -54.129c3.721 -5.953 8.929 -8.929 15.625 -8.929c1.86 0 5.209 1.116 10.045 3.348c4.836 2.232 10.603 5.116 17.299 8.65c6.697 3.534 12.835 6.975 18.415 10.323c5.581 3.349 11.44 6.79 17.578 10.324c6.139 3.534 9.766 5.673 10.882 6.418c5.952 3.72 8.929 8.742 8.929 15.066c0 2.605 -0.186 4.279 -0.558 5.023c-39.063 69.94 -97.657 175.223 -175.782 315.848c-78.125 140.625 -136.904 246.094 -176.339 316.406c0 0 -27.344 49.665 -27.344 49.665c-3.72 5.953 -8.928 8.929 -15.625 8.929c-4.464 0 -29.39 -13.021 -74.776 -39.063c-5.953 -3.72 -8.929 -8.928 -8.929 -15.625c0 -4.464 8.185 -20.647 24.554 -48.549c-53.2 -24.181 -102.214 -56.361 -147.043 -96.54c-44.829 -40.178 -83.612 -85.751 -116.35 -136.719c-7.441 -11.532 -11.161 -24.367 -11.161 -38.504c0 0 0 0 0 0m71.429 0c62.128 95.982 141.555 165.737 238.281 209.263c0 0 43.527 -78.683 43.527 -78.683c-32.366 -23.437 -57.664 -53.013 -75.893 -88.727c-18.229 -35.715 -27.344 -73.475 -27.344 -113.282c0 -45.014 11.347 -86.867 34.04 -125.558c-85.193 43.527 -156.064 109.189 -212.611 196.987c0 0 0 0 0 0m258.928 -71.429c0 7.441 2.604 13.765 7.813 18.974c5.208 5.208 11.532 7.812 18.973 7.812c7.44 0 13.765 -2.604 18.973 -7.812c5.208 -5.209 7.813 -11.533 7.813 -18.974c0 -31.994 11.346 -59.337 34.04 -82.031c22.693 -22.693 50.037 -34.04 82.031 -34.04c7.44 0 13.765 -2.604 18.973 -7.813c5.209 -5.208 7.813 -11.532 7.813 -18.973c0 -7.44 -2.604 -13.765 -7.813 -18.973c-5.208 -5.208 -11.533 -7.812 -18.973 -7.812c-46.503 0 -86.403 16.648 -119.699 49.944c-33.296 33.296 -49.944 73.195 -49.944 119.698c0 0 0 0 0 0m169.643 392.858c0 0 41.295 -73.661 41.295 -73.661c78.869 -6.697 151.878 -32.18 219.029 -76.451c67.15 -44.271 123.233 -101.377 168.247 -171.317c-42.782 -66.592 -95.238 -121.28 -157.366 -164.063c0 0 35.157 -62.5 35.157 -62.5c35.342 23.81 69.289 52.27 101.841 85.38c32.552 33.11 59.431 67.336 80.636 102.679c7.441 12.648 11.161 25.483 11.161 38.504c0 13.021 -3.72 25.856 -11.161 38.504c-14.509 23.81 -34.784 50.782 -60.826 80.916c-55.803 63.988 -120.442 113.653 -193.917 148.995c-73.475 35.342 -151.507 53.014 -234.096 53.014c0 0 0 0 0 0m89.286 -159.599c0 0 156.25 -280.134 156.25 -280.134c2.976 16.741 4.464 32.366 4.464 46.875c0 51.712 -14.695 98.866 -44.085 141.462c-29.39 42.597 -68.266 73.196 -116.629 91.797c0 0 0 0 0 0" />
  </g>
</svg>