<svg height="1000px" width="900px" xmlns="http://www.w3.org/2000/svg">
  <g>
    <path d="M0 500.5c0 -14.333 4 -27.833 12 -40.5c25.333 -40.667 54.333 -77.167 87 -109.5c32.667 -32.333 67.833 -59.667 105.5 -82c37.667 -22.333 77.167 -39.333 118.5 -51c41.333 -11.667 83.667 -17.5 127 -17.5c44 0 86.667 5.833 128 17.5c41.333 11.667 80.667 28.5 118 50.5c37.333 22 72.333 49.167 105 81.5c32.667 32.333 62 69.167 88 110.5c7.333 12.667 11 26.167 11 40.5c0 14.333 -3.667 27.5 -11 39.5c-26 41.333 -55.333 78.167 -88 110.5c-32.667 32.333 -67.667 59.5 -105 81.5c-37.333 22 -76.667 38.833 -118 50.5c-41.333 11.667 -84 17.5 -128 17.5c-43.333 0 -85.667 -5.833 -127 -17.5c-41.333 -11.667 -80.833 -28.667 -118.5 -51c-37.667 -22.333 -72.833 -49.667 -105.5 -82c-32.667 -32.333 -61.667 -68.833 -87 -109.5c-8 -12 -12 -25.167 -12 -39.5c0 0 0 0 0 0m75 -0.5c21.333 34 45.667 65 73 93c27.333 28 57 51.667 89 71c32 19.333 65.833 34.333 101.5 45c35.667 10.667 72.833 16 111.5 16c38.667 0 75.833 -5.333 111.5 -16c35.667 -10.667 69.5 -25.667 101.5 -45c32 -19.333 61.667 -43 89 -71c27.333 -28 51.667 -59 73 -93c-26 -42 -56.5 -78.833 -91.5 -110.5c-35 -31.667 -73.5 -57.167 -115.5 -76.5c16.667 19.333 29.667 41 39 65c9.333 24 14 50 14 78c0 31.333 -5.833 60.5 -17.5 87.5c-11.667 27 -27.833 50.833 -48.5 71.5c-20.667 20.667 -44.667 36.833 -72 48.5c-27.333 11.667 -56.333 17.5 -87 17.5c-31.333 0 -60.5 -5.833 -87.5 -17.5c-27 -11.667 -50.833 -27.833 -71.5 -48.5c-20.667 -20.667 -36.833 -44.5 -48.5 -71.5c-11.667 -27 -17.5 -56.167 -17.5 -87.5c0 -25.333 4.167 -49.5 12.5 -72.5c8.333 -23 19.5 -43.833 33.5 -62.5c-38 19.333 -73.333 44.167 -106 74.5c-32.667 30.333 -61.333 65.167 -86 104.5c0 0 0 0 0 0m225 -44c0 7.333 2.667 13.833 8 19.5c5.333 5.667 12 8.5 20 8.5c8 0 14.667 -2.833 20 -8.5c5.333 -5.667 8 -12.167 8 -19.5c0 -25.333 8.667 -46.667 26 -64c17.333 -17.333 38.667 -26 64 -26c8 0 14.667 -2.833 20 -8.5c5.333 -5.667 8 -12.167 8 -19.5c0 -8 -2.667 -14.667 -8 -20c-5.333 -5.333 -12 -8 -20 -8c-20 0 -39 3.833 -57 11.5c-18 7.667 -33.5 18 -46.5 31c-13 13 -23.333 28.5 -31 46.5c-7.667 18 -11.5 37 -11.5 57c0 0 0 0 0 0" />
  </g>
</svg>