<svg height="1000" width="1000" xmlns="http://www.w3.org/2000/svg"><path d="M0 535.7q0-19 11.2-38.5 78.1-127.8 210.1-205.3t278.7-77.6 278.7 77.6 210.1 205.3q11.2 19.5 11.2 38.5t-11.2 38.5q-78.1 128.3-210.1 205.6t-278.7 77.3-278.7-77.6-210.1-205.3q-11.2-19.5-11.2-38.5zm71.4 0q74.2 114.4 186.1 182.2t242.5 67.8 242.5-67.8 186.1-182.2q-84.8-131.7-212.6-197 34 58 34 125.6 0 103.2-73.4 176.6t-176.6 73.4-176.6-73.4-73.4-176.6q0-67.5 34-125.6-127.8 65.3-212.6 197zm258.9-71.4q0 11.2 7.8 19t19 7.8 19-7.8 7.8-19q0-48 34-82t82-34q11.2 0 19-7.8t7.8-19-7.8-19-19-7.8q-69.8 0-119.7 49.9t-49.9 119.7z"/></svg>