<svg height="1000px" width="1000px" xmlns="http://www.w3.org/2000/svg">
  <g>
    <path d="M1000 535.7142857142857c0 12.649 -3.72 25.484 -11.161 38.504c-52.083 85.566 -122.117 154.111 -210.1 205.637c-87.984 51.525 -180.897 77.288 -278.739 77.288c-97.842 0 -190.755 -25.856 -278.739 -77.567c-87.983 -51.712 -158.017 -120.164 -210.1 -205.358c-7.441 -13.02 -11.161 -25.855 -11.161 -38.504c0 -12.649 3.72 -25.484 11.161 -38.504c52.083 -85.194 122.117 -153.646 210.1 -205.358c87.984 -51.711 180.897 -77.567 278.739 -77.567c97.842 0 190.755 25.856 278.739 77.567c87.983 51.712 158.017 120.164 210.1 205.358c7.441 13.02 11.161 25.855 11.161 38.504c0 0 0 0 0 0m-473.214 -214.286c0 -7.44 -2.604 -13.765 -7.813 -18.973c-5.208 -5.208 -11.533 -7.812 -18.973 -7.812c-46.503 0 -86.403 16.648 -119.699 49.944c-33.296 33.296 -49.944 73.195 -49.944 119.698c0 7.441 2.604 13.765 7.813 18.974c5.208 5.208 11.532 7.812 18.973 7.812c7.44 0 13.765 -2.604 18.973 -7.812c5.208 -5.209 7.813 -11.533 7.813 -18.974c0 -31.994 11.346 -59.337 34.04 -82.031c22.693 -22.693 50.037 -34.04 82.031 -34.04c7.44 0 13.765 -2.604 18.973 -7.812c5.209 -5.209 7.813 -11.533 7.813 -18.974c0 0 0 0 0 0m401.785 214.286c-56.547 -87.798 -127.418 -153.46 -212.611 -196.987c22.693 38.691 34.04 80.544 34.04 125.558c0 68.825 -24.461 127.698 -73.382 176.619c-48.921 48.921 -107.794 73.381 -176.618 73.381c-68.824 0 -127.697 -24.46 -176.618 -73.381c-48.921 -48.921 -73.382 -107.794 -73.382 -176.619c0 -45.014 11.347 -86.867 34.04 -125.558c-85.193 43.527 -156.064 109.189 -212.611 196.987c49.479 76.265 111.514 136.998 186.104 182.199c74.591 45.201 155.413 67.801 242.467 67.801c87.054 0 167.876 -22.6 242.467 -67.801c74.59 -45.201 136.625 -105.934 186.104 -182.199c0 0 0 0 0 0" />
  </g>
</svg>