<svg height="1000" width="1000" xmlns="http://www.w3.org/2000/svg"><path d="M0 535.744q0 -18.972 11.16 -38.502 78.12 -127.782 210.087 -205.344t278.721 -77.562 278.721 77.562 210.087 205.344q11.16 19.53 11.16 38.502t-11.16 38.502q-78.12 128.34 -210.087 205.623t-278.721 77.283 -278.721 -77.562 -210.087 -205.344q-11.16 -19.53 -11.16 -38.502zm71.424 0q74.214 114.39 186.093 182.187t242.451 67.797 242.451 -67.797 186.093 -182.187q-84.816 -131.688 -212.598 -196.974 34.038 58.032 34.038 125.55 0 103.23 -73.377 176.607t-176.607 73.377 -176.607 -73.377 -73.377 -176.607q0 -67.518 34.038 -125.55 -127.782 65.286 -212.598 196.974zm258.912 -71.424q0 11.16 7.812 18.972t18.972 7.812 18.972 -7.812 7.812 -18.972q0 -47.988 34.038 -82.026t82.026 -34.038q11.16 0 18.972 -7.812t7.812 -18.972 -7.812 -18.972 -18.972 -7.812q-69.75 0 -119.691 49.941t-49.941 119.691z"/></svg>