<svg height="1000" width="1000" xmlns="http://www.w3.org/2000/svg"><path d="M928.6 535.7Q843.8 404 716 338.7q34 58.1 34 125.6 0 103.2 -73.4 176.6T500 714.3 323.4 640.9 250 464.3q0 -67.5 34 -125.6Q156.3 404 71.4 535.7q74.2 114.4 186.1 182.2T500 785.7t242.5 -67.8T928.6 535.7zM526.8 321.4q0 -11.1 -7.8 -18.9t-19 -7.9q-69.8 0 -119.7 50t-49.9 119.7q0 11.1 7.8 19t18.9 7.8 19 -7.8 7.8 -19q0 -48 34.1 -82t82 -34.1q11.2 0 19 -7.8t7.8 -19zM1000 535.7q0 19 -11.2 38.5Q910.7 702.6 778.7 779.9T500 857.1 221.3 779.6 11.2 574.2Q0 554.7 0 535.7t11.2 -38.5Q89.3 369.4 221.3 291.9T500 214.3t278.7 77.6 210.1 205.3q11.2 19.5 11.2 38.5z"/></svg>