<svg height="1000px" width="899.90234375px" xmlns="http://www.w3.org/2000/svg">
  <g>
    <path d="M0 500.48828125c0 -14.323 4.069 -27.832 12.207 -40.527c25.391 -40.69 54.362 -77.149 86.914 -109.375c32.552 -32.227 67.708 -59.571 105.469 -82.032c37.76 -22.461 77.23 -39.469 118.408 -51.025c41.178 -11.556 83.578 -17.334 127.197 -17.334c43.946 0 86.589 5.778 127.93 17.334c41.341 11.556 80.648 28.402 117.92 50.537c37.272 22.136 72.266 49.317 104.98 81.543c32.715 32.227 62.093 69.011 88.135 110.352c7.487 12.695 11.149 26.204 10.986 40.527c-0.162 14.323 -3.824 27.507 -10.986 39.551c-26.042 41.341 -55.42 78.206 -88.135 110.595c-32.714 32.39 -67.708 59.571 -104.98 81.543c-37.272 21.973 -76.579 38.737 -117.92 50.293c-41.341 11.556 -83.984 17.334 -127.93 17.334c-43.294 0 -85.612 -5.778 -126.953 -17.334c-41.341 -11.556 -80.892 -28.483 -118.652 -50.781c-37.761 -22.298 -72.998 -49.642 -105.713 -82.031c-32.715 -32.389 -61.605 -68.929 -86.67 -109.619c-8.138 -12.044 -12.207 -25.228 -12.207 -39.551c0 0 0 0 0 0m75.195 -0.488c21.485 33.854 45.817 64.86 72.998 93.017c27.181 28.158 56.804 51.839 88.868 71.045c32.063 19.206 65.918 34.18 101.562 44.922c35.645 10.742 72.835 16.113 111.572 16.113c38.737 0 75.928 -5.371 111.573 -16.113c35.644 -10.742 69.417 -25.716 101.318 -44.922c31.901 -19.206 61.523 -42.806 88.867 -70.801c27.344 -27.994 51.758 -59.082 73.242 -93.261c-26.041 -41.992 -56.559 -78.858 -91.552 -110.596c-34.994 -31.738 -73.487 -57.21 -115.479 -76.416c16.602 19.206 29.541 40.853 38.818 64.941c9.278 24.089 13.916 50.131 13.916 78.125c0 31.25 -5.778 60.385 -17.334 87.403c-11.556 27.018 -27.669 50.862 -48.339 71.533c-20.671 20.671 -44.678 36.865 -72.022 48.584c-27.344 11.719 -56.478 17.578 -87.402 17.578c-31.25 0 -60.384 -5.859 -87.403 -17.578c-27.018 -11.719 -50.862 -27.913 -71.533 -48.584c-20.67 -20.671 -36.784 -44.515 -48.34 -71.533c-11.556 -27.018 -17.334 -56.153 -17.334 -87.403c0 -25.39 4.151 -49.56 12.452 -72.509c8.3 -22.95 19.449 -43.864 33.447 -62.744c-38.086 19.205 -73.486 44.026 -106.201 74.462c-32.715 30.437 -61.28 65.349 -85.694 104.737c0 0 0 0 0 0m224.61 -43.946c0 7.487 2.685 13.998 8.056 19.532c5.371 5.534 12.126 8.3 20.264 8.3c8.138 0 14.811 -2.848 20.02 -8.544c5.208 -5.697 7.812 -12.126 7.812 -19.288c0 -25.39 8.708 -46.712 26.123 -63.964c17.415 -17.253 38.656 -25.879 63.721 -25.879c8.138 0 14.892 -2.849 20.263 -8.545c5.372 -5.697 8.057 -12.289 8.057 -19.776c0 -8.138 -2.685 -14.811 -8.057 -20.019c-5.371 -5.209 -12.125 -7.813 -20.263 -7.813c-19.857 0 -38.819 3.825 -56.885 11.475c-18.066 7.65 -33.529 17.985 -46.387 31.006c-12.858 13.021 -23.193 28.564 -31.006 46.631c-7.812 18.066 -11.718 37.028 -11.718 56.884c0 0 0 0 0 0" />
  </g>
</svg>