<svg height="1000" width="1000" xmlns="http://www.w3.org/2000/svg"><path d="M947.484 52.516q52.452 52.452 52.452 126.387t-52.452 125.829l-125.55 124.434 58.032 58.032q5.58 5.58 5.58 12.834t-5.58 12.834l-117.18 117.18q-5.58 5.58 -12.834 5.58t-12.834 -5.58l-58.59 -58.59 -336.474 336.474q-20.646 20.646 -50.22 20.646h-113.274l-142.848 71.424 -35.712 -35.712 71.424 -142.848v-113.274q0 -29.574 20.646 -50.22l336.474 -336.474 -58.59 -58.59q-5.58 -5.58 -5.58 -12.834t5.58 -12.834l117.18 -117.18q5.58 -5.58 12.834 -5.58t12.834 5.58l58.032 58.032 124.434 -125.55q51.894 -52.452 125.829 -52.452t126.387 52.452zm-661.788 768.924l321.408 -321.408 -107.136 -107.136 -321.408 321.408v107.136h107.136z"/></svg>