<svg height="1000" width="1000" xmlns="http://www.w3.org/2000/svg"><path d="M947.5 52.5q52.5 52.4 52.5 126.4t-52.5 125.8L822 429.1l58 58.1q5.6 5.5 5.6 12.8t-5.6 12.8L762.8 630q-5.5 5.6 -12.8 5.6T737.2 630l-58.6 -58.6L342.1 907.9q-20.7 20.7 -50.2 20.7H178.6L35.7 1000 0 964.3 71.4 821.4V708.1q0 -29.5 20.7 -50.2L428.6 321.4 370 262.8q-5.6 -5.5 -5.6 -12.8t5.6 -12.8L487.2 120q5.5 -5.6 12.8 -5.6t12.8 5.6l58.1 58L695.3 52.5Q747.2 0 821.1 0t126.4 52.5zM285.7 821.4L607.1 500 500 392.9 178.6 714.3v107.1h107.1z"/></svg>