<svg height="1000px" width="750px" xmlns="http://www.w3.org/2000/svg">
  <g>
    <path d="M0 780.76171875c0 0 0 -561.523 0 -561.523c0 -12.696 2.523 -24.903 7.568 -36.622c5.046 -11.718 11.719 -21.728 20.02 -30.029c8.301 -8.301 18.148 -14.974 29.541 -20.019c11.393 -5.046 23.763 -7.569 37.109 -7.569c0 0 561.524 0 561.524 0c26.041 0 48.258 9.196 66.65 27.588c18.392 18.392 27.588 40.609 27.588 66.651c0 0 0 561.523 0 561.523c0 13.346 -2.523 25.716 -7.568 37.109c-5.046 11.394 -11.719 21.241 -20.02 29.541c-8.301 8.301 -18.31 14.974 -30.029 20.02c-11.719 5.045 -23.926 7.568 -36.621 7.568c0 0 -561.524 0 -561.524 0c-26.041 0 -48.258 -9.196 -66.65 -27.588c-18.392 -18.392 -27.588 -40.608 -27.588 -66.65c0 0 0 0 0 0m94.238 -413.574c0.651 11.393 3.093 23.844 7.325 37.353c4.231 13.509 9.114 26.286 14.648 38.33c5.208 12.045 10.661 23.763 16.357 35.157c5.697 11.393 11.149 21.647 16.358 30.761c24.088 41.993 52.816 81.218 86.181 117.676c33.366 36.458 70.069 67.383 110.108 92.774c10.091 5.859 21.077 11.8 32.959 17.822c11.881 6.022 24.17 11.312 36.865 15.869c13.346 5.208 26.856 10.335 40.527 15.381c13.672 5.045 26.856 8.545 39.551 10.498c20.508 3.255 38.819 2.93 54.932 -0.977c16.113 -3.906 30.843 -9.44 44.189 -16.601c8.789 -3.907 18.148 -9.359 28.076 -16.358c9.929 -6.998 17.172 -15.543 21.729 -25.634c1.302 -2.605 2.767 -6.999 4.395 -13.184c1.627 -6.185 3.092 -12.37 4.394 -18.555c1.302 -6.185 2.36 -12.288 3.174 -18.31c0.814 -6.022 0.407 -10.824 -1.221 -14.405c-1.302 -3.906 -5.29 -7.487 -11.963 -10.742c-6.673 -3.255 -12.614 -6.673 -17.822 -10.254c-13.997 -8.138 -25.635 -14.811 -34.912 -20.019c-9.277 -5.209 -20.264 -11.393 -32.959 -18.555c-5.208 -3.255 -11.068 -7.08 -17.578 -11.474c-6.511 -4.395 -12.696 -6.592 -18.555 -6.592c-7.487 0 -15.055 4.476 -22.705 13.427c-7.65 8.952 -13.753 16.032 -18.311 21.241c-3.906 4.557 -9.847 11.556 -17.822 20.996c-7.975 9.44 -15.706 14.485 -23.193 15.136c-4.557 0.652 -9.847 -0.976 -15.869 -4.882c-6.022 -3.907 -12.126 -7.65 -18.311 -11.231c-34.505 -19.206 -64.127 -41.341 -88.867 -66.406c-24.74 -25.065 -46.712 -53.874 -65.918 -86.426c-3.255 -5.208 -6.755 -11.312 -10.498 -18.31c-3.744 -6.999 -4.964 -13.265 -3.662 -18.799c0.651 -5.86 4.639 -11.312 11.963 -16.358c7.324 -5.045 13.102 -9.847 17.334 -14.404c4.557 -5.208 9.684 -11.23 15.381 -18.066c5.696 -6.836 8.87 -13.835 9.521 -20.996c1.302 -5.209 0.488 -11.394 -2.441 -18.555c-2.93 -7.162 -5.534 -13.997 -7.813 -20.508c-5.208 -13.997 -9.847 -26.367 -13.916 -37.109c-4.069 -10.742 -8.382 -23.112 -12.939 -37.11c-1.953 -5.208 -3.907 -11.8 -5.86 -19.775c-1.953 -7.975 -5.371 -12.94 -10.254 -14.893c-2.604 -1.302 -6.917 -2.441 -12.939 -3.418c-6.022 -0.976 -12.37 -1.709 -19.043 -2.197c-6.673 -0.488 -12.777 -0.488 -18.311 0c-5.533 0.488 -9.44 0.733 -11.718 0.733c0 0 -3.907 0 -3.907 0c-10.742 5.208 -20.914 12.613 -30.517 22.216c-9.603 9.603 -17.904 20.915 -24.902 33.936c-6.999 13.021 -12.533 27.344 -16.602 42.969c-4.069 15.625 -5.615 31.901 -4.639 48.828c0 0 0 0 0 0" />
  </g>
</svg>