<svg height="1000px" width="385.7421875px" xmlns="http://www.w3.org/2000/svg">
  <g>
    <path d="M0 461.669921875c0 0 0 -99.121 0 -99.121c0 -5.208 1.872 -9.847 5.615 -13.916c3.744 -4.069 8.22 -6.104 13.428 -6.104c0 0 61.035 0 61.035 0c0 0 0 -49.804 0 -49.804c0 -116.537 59.57 -174.968 178.711 -175.293c40.039 0 77.8 5.045 113.281 15.136c10.743 3.256 15.463 10.254 14.16 20.997c0 0 -13.183 97.167 -13.183 97.167c-1.302 5.209 -3.906 9.441 -7.813 12.696c-5.208 3.255 -10.254 4.232 -15.136 2.929c-11.394 -2.604 -23.194 -4.557 -35.401 -5.859c-12.207 -1.302 -23.03 -1.953 -32.47 -1.953c-17.253 0 -27.914 2.686 -31.983 8.057c-4.069 5.371 -6.103 16.357 -6.103 32.959c0 0 0 42.968 0 42.968c0 0 108.886 0 108.886 0c4.558 0 9.278 2.279 14.161 6.836c3.255 3.256 4.882 7.976 4.882 14.16c0 0 -8.3 100.098 -8.3 100.098c0 5.208 -1.791 9.359 -5.372 12.451c-3.58 3.093 -7.975 4.639 -13.183 4.639c0 0 -101.074 0 -101.074 0c0 0 0 382.812 0 382.812c0 5.209 -1.872 9.685 -5.616 13.428c-3.743 3.744 -8.219 5.615 -13.427 5.615c0 0 -125.977 0 -125.977 0c-5.208 0 -9.684 -1.871 -13.428 -5.615c-3.743 -3.743 -5.615 -8.219 -5.615 -13.428c0 0 0 -382.812 0 -382.812c0 0 -61.035 0 -61.035 0c-5.208 0 -9.684 -1.872 -13.428 -5.615c-3.743 -3.744 -5.615 -8.22 -5.615 -13.428c0 0 0 0 0 0" />
  </g>
</svg>