<svg height="1000px" width="899.90234375px" xmlns="http://www.w3.org/2000/svg">
  <g>
    <path d="M0 799.8046875c0 0 0 -599.609 0 -599.609c0 -20.508 7.324 -38.168 21.973 -52.979c14.648 -14.811 32.389 -22.217 53.222 -22.217c0 0 750 0 750 0c20.508 0 38.086 7.325 52.735 21.973c14.648 14.648 21.972 32.389 21.972 53.223c0 0 0 599.609 0 599.609c0 20.508 -7.324 38.167 -21.972 52.979c-14.649 14.811 -32.227 22.216 -52.735 22.216c0 0 -750 0 -750 0c-20.507 0 -38.167 -7.324 -52.978 -21.972c-14.811 -14.649 -22.217 -32.39 -22.217 -53.223c0 0 0 0 0 0m75.195 0c0 0 750 0 750 0c0 0 0 -280.762 0 -280.762c0 0 -750 0 -750 0c0 0 0 280.762 0 280.762c0 0 0 0 0 0m0 -468.75c0 0 750 0 750 0c0 0 0 -130.859 0 -130.859c0 0 -750 0 -750 0c0 0 0 130.859 0 130.859c0 0 0 0 0 0m51.758 421.875c0 0 0 -56.152 0 -56.152c0 0 149.902 0 149.902 0c0 0 0 56.152 0 56.152c0 0 -149.902 0 -149.902 0c0 0 0 0 0 0m203.125 0c0 0 0 -56.152 0 -56.152c0 0 217.774 0 217.774 0c0 0 0 56.152 0 56.152c0 0 -217.774 0 -217.774 0c0 0 0 0 0 0" />
  </g>
</svg>