<svg height="1000px" width="899.90234375px" xmlns="http://www.w3.org/2000/svg">
  <g>
    <path d="M0 507.080078125c0 0 0 -111.816 0 -111.816c0 -20.508 7.324 -38.168 21.973 -52.979c14.648 -14.811 32.389 -22.217 53.222 -22.217c0 0 243.653 0 243.653 0c37.435 0 77.311 -5.452 119.629 -16.357c42.317 -10.905 83.821 -25.554 124.511 -43.945c40.69 -18.392 79.02 -39.226 114.991 -62.5c35.97 -23.275 66.324 -47.282 91.064 -72.022c20.508 0 38.167 7.324 52.978 21.973c14.812 14.648 22.217 32.389 22.217 53.222c0 0 0 179.688 0 179.688c15.951 3.906 29.216 12.451 39.795 25.635c10.58 13.183 15.869 28.401 15.869 45.654c0 17.253 -5.289 32.389 -15.869 45.41c-10.579 13.021 -23.844 21.484 -39.795 25.391c0 0 0 180.176 0 180.176c0 20.507 -7.405 38.085 -22.217 52.734c-14.811 14.648 -32.47 21.973 -52.978 21.973c-22.135 -22.136 -48.828 -43.62 -80.078 -64.454c-31.25 -20.833 -64.86 -39.957 -100.83 -57.373c-35.97 -17.415 -72.998 -32.308 -111.084 -44.677c-38.086 -12.37 -75.033 -20.508 -110.84 -24.414c-13.997 3.906 -25.391 10.416 -34.18 19.531c-8.789 9.114 -14.811 19.287 -18.066 30.517c-3.255 11.231 -3.581 22.705 -0.977 34.424c2.604 11.719 8.627 22.298 18.067 31.739c-8.138 13.346 -11.882 25.634 -11.231 36.865c0.651 11.23 3.988 22.054 10.01 32.47c6.022 10.417 14.079 20.427 24.17 30.03c10.091 9.603 20.833 19.124 32.226 28.564c-6.51 13.998 -17.822 24.658 -33.935 31.983c-16.113 7.324 -33.366 11.474 -51.758 12.451c-18.392 0.976 -36.377 -0.733 -53.955 -5.127c-17.578 -4.395 -31.413 -11.475 -41.504 -21.24c-5.859 -19.857 -12.37 -40.202 -19.531 -61.036c-7.162 -20.833 -13.021 -42.073 -17.578 -63.72c-4.558 -21.647 -6.836 -44.108 -6.836 -67.383c0 -23.275 3.906 -47.933 11.719 -73.975c0 0 -97.657 0 -97.657 0c-20.507 0 -38.167 -7.324 -52.978 -21.972c-14.811 -14.649 -22.217 -32.39 -22.217 -53.223c0 0 0 0 0 0m394.043 6.348c33.203 5.208 66.813 13.183 100.83 23.925c34.017 10.743 67.383 23.438 100.098 38.086c32.715 14.649 63.883 30.762 93.506 48.34c29.622 17.578 56.477 35.808 80.566 54.688c0 0 0 -454.102 0 -454.102c-24.74 19.206 -51.758 37.679 -81.055 55.42c-29.297 17.741 -60.302 33.773 -93.017 48.096c-32.715 14.323 -66.081 26.937 -100.098 37.842c-34.017 10.905 -67.627 18.798 -100.83 23.681c0 0 0 124.024 0 124.024c0 0 0 0 0 0" />
  </g>
</svg>