<svg height="1000px" width="858.88671875px" xmlns="http://www.w3.org/2000/svg">
  <g>
    <path d="M0 720.21484375c33.854 -25.391 61.849 -53.467 83.984 -84.229c22.136 -30.761 39.877 -63.476 53.223 -98.144c13.346 -34.668 23.112 -71.126 29.297 -109.375c6.185 -38.249 10.742 -77.393 13.672 -117.432c1.953 -27.343 11.067 -53.222 27.344 -77.636c16.276 -24.414 36.783 -45.736 61.523 -63.965c24.74 -18.229 51.269 -32.715 79.59 -43.457c28.32 -10.742 55.501 -16.114 81.543 -16.114c24.088 0 50.618 5.372 79.59 16.114c28.971 10.742 55.908 25.065 80.81 42.968c24.903 17.904 45.899 38.9 62.988 62.989c17.09 24.088 25.635 49.804 25.635 77.148c1.953 39.388 6.429 78.369 13.428 116.944c6.999 38.574 17.334 75.52 31.006 110.839c13.672 35.319 31.494 68.523 53.467 99.61c21.972 31.087 49.235 59 81.787 83.74c-1.302 22.786 -10.417 41.423 -27.344 55.908c-16.927 14.486 -36.458 21.729 -58.594 21.729c0 0 -229.004 0 -229.004 0c-5.859 26.692 -19.287 48.746 -40.283 66.162c-20.996 17.415 -45.491 26.123 -73.486 26.123c-27.995 0 -52.653 -8.708 -73.975 -26.123c-21.321 -17.416 -35.075 -39.47 -41.26 -66.162c0 0 -229.003 0 -229.003 0c-22.136 0 -41.667 -7.325 -58.594 -21.973c-16.927 -14.648 -26.042 -33.203 -27.344 -55.664c0 0 0 0 0 0m116.211 0c0 0 626.953 0 626.953 0c-25.391 -27.995 -46.468 -57.861 -63.232 -89.6c-16.765 -31.738 -30.437 -64.615 -41.016 -98.632c-10.579 -34.017 -18.717 -68.848 -24.414 -104.493c-5.697 -35.644 -9.847 -71.858 -12.451 -108.642c-1.302 -17.904 -7.975 -34.831 -20.02 -50.781c-12.044 -15.951 -26.53 -29.948 -43.457 -41.993c-16.927 -12.044 -35.075 -21.403 -54.443 -28.076c-19.369 -6.673 -37.354 -10.01 -53.955 -10.01c-15.3 0 -32.796 3.5 -52.49 10.498c-19.694 6.999 -38.249 16.195 -55.665 27.588c-17.415 11.394 -32.307 24.903 -44.677 40.528c-12.37 15.625 -18.88 31.738 -19.531 48.34c-1.954 36.132 -5.778 72.347 -11.475 108.642c-5.697 36.296 -13.998 71.777 -24.902 106.445c-10.905 34.668 -25.066 68.034 -42.481 100.098c-17.415 32.064 -38.33 62.093 -62.744 90.088c0 0 0 0 0 0m231.934 52.734c0 22.787 7.975 42.155 23.925 58.106c15.951 15.95 35.319 23.926 58.106 23.926c5.859 0 8.789 -3.256 8.789 -9.766c0 -6.51 -2.93 -9.928 -8.789 -10.254c-17.253 0 -32.064 -6.022 -44.434 -18.066c-12.37 -12.045 -18.554 -26.693 -18.554 -43.946c0 -6.51 -3.093 -9.765 -9.278 -9.765c-6.51 0 -9.765 3.255 -9.765 9.765c0 0 0 0 0 0" />
  </g>
</svg>