<svg height="1000px" width="779.78515625px" xmlns="http://www.w3.org/2000/svg">
  <g>
    <path d="M0 496.826171875c0 -25.391 5.534 -43.213 16.602 -53.467c11.067 -10.254 24.739 -17.415 41.015 -21.484c16.276 -4.069 33.61 -6.917 52.002 -8.545c18.392 -1.628 34.587 -6.348 48.584 -14.16c13.346 -7.487 25.472 -18.067 36.377 -31.739c10.905 -13.671 22.054 -26.204 33.447 -37.597c5.86 -5.209 11.8 -10.661 17.823 -16.358c6.022 -5.696 12.451 -11.149 19.287 -16.357c7.487 -5.859 13.834 -11.312 19.043 -16.357c5.208 -5.046 10.091 -11.963 14.648 -20.752c0 0 0 -169.922 0 -169.922c0 -15.951 5.697 -29.623 17.09 -41.016c11.393 -11.393 25.065 -17.09 41.016 -17.09c0 0 313.964 0 313.964 0c15.951 0 29.623 5.697 41.016 17.09c11.393 11.393 17.09 25.065 17.09 41.016c0 0 0 183.105 0 183.105c0 19.857 2.685 39.958 8.057 60.303c5.371 20.345 11.23 41.178 17.578 62.5c6.347 21.322 12.125 43.457 17.334 66.406c5.208 22.949 7.812 47.119 7.812 72.51c0 22.786 -2.767 44.352 -8.301 64.697c-5.533 20.345 -13.997 38.168 -25.39 53.467c-11.393 15.299 -26.123 27.588 -44.19 36.865c-18.066 9.278 -39.306 13.916 -63.72 13.916c-14.649 12.696 -31.495 21.892 -50.538 27.588c-19.042 5.697 -38.33 6.917 -57.861 3.662c-15.299 9.44 -32.552 15.788 -51.758 19.043c0 0 0 97.656 0 97.656c0 15.951 -2.848 31.169 -8.545 45.655c-5.696 14.485 -13.671 26.855 -23.925 37.109c-10.254 10.254 -22.38 18.392 -36.377 24.414c-13.998 6.022 -29.134 9.033 -45.41 9.033c-16.602 0 -31.902 -3.011 -45.899 -9.033c-13.997 -6.022 -26.123 -14.16 -36.377 -24.414c-10.254 -10.254 -18.229 -22.542 -23.926 -36.865c-5.696 -14.323 -8.545 -29.622 -8.545 -45.899c0 0 -0.976 -183.593 -0.976 -183.593c0 0 0 -65.43 0 -65.43c-15.3 7.487 -31.332 13.753 -48.096 18.799c-16.764 5.045 -33.773 7.568 -51.025 7.568c-18.555 0 -36.865 -3.174 -54.932 -9.521c-18.066 -6.348 -34.098 -15.218 -48.096 -26.612c-13.997 -11.393 -25.146 -25.227 -33.447 -41.504c-8.301 -16.276 -12.451 -34.505 -12.451 -54.687c0 0 0 0 0 0m58.594 -5.371c0.325 2.279 0.488 4.069 0.488 5.371c0 12.044 2.686 22.542 8.057 31.494c5.371 8.952 12.369 16.439 20.996 22.461c8.626 6.022 18.229 10.742 28.808 14.16c10.58 3.418 21.241 5.127 31.983 5.127c15.95 0 30.599 -2.523 43.945 -7.568c13.346 -5.046 26.205 -10.58 38.574 -16.602c12.37 -6.022 24.577 -11.718 36.621 -17.09c12.045 -5.371 24.74 -8.056 38.086 -8.056c0 55.338 0.163 110.351 0.489 165.039c0.325 54.687 0.488 110.026 0.488 166.015c0 16.602 5.127 30.274 15.381 41.016c10.254 10.742 24.007 16.113 41.26 16.113c16.601 0 29.947 -5.289 40.039 -15.869c10.091 -10.579 15.136 -24.332 15.136 -41.26c0 -29.296 0.163 -58.268 0.489 -86.914c0.325 -28.645 0.488 -57.617 0.488 -86.914c4.557 4.558 10.172 8.871 16.846 12.94c6.673 4.069 13.753 6.103 21.24 6.103c24.088 0 44.108 -9.603 60.058 -28.808c9.441 6.51 20.345 9.765 32.715 9.765c12.045 0 24.089 -3.011 36.133 -9.033c12.044 -6.022 20.671 -14.73 25.879 -26.123c3.906 0.651 7.894 1.139 11.963 1.465c4.069 0.325 8.545 0.488 13.428 0.488c15.95 0 29.215 -3.092 39.795 -9.277c10.579 -6.185 19.042 -14.323 25.39 -24.414c6.348 -10.091 10.905 -21.81 13.672 -35.156c2.767 -13.347 4.15 -27.019 4.15 -41.016c0 -22.787 -2.685 -45.166 -8.056 -67.139c-5.371 -21.972 -11.068 -43.782 -17.09 -65.429c-6.022 -21.648 -11.719 -43.295 -17.09 -64.942c-5.371 -21.647 -8.057 -43.864 -8.057 -66.65c0 0 -313.964 0 -313.964 0c0 0 0 2.441 0 2.441c-5.209 13.347 -10.987 24.17 -17.334 32.471c-6.348 8.301 -13.184 15.95 -20.508 22.949c-7.324 6.999 -15.137 13.835 -23.438 20.508c-8.3 6.673 -17.496 14.567 -27.588 23.682c-13.346 13.346 -26.041 27.181 -38.086 41.503c-12.044 14.323 -26.367 26.205 -42.968 35.645c-17.253 9.44 -36.377 15.788 -57.373 19.043c-20.996 3.255 -41.26 6.999 -60.791 11.23c0 0 -5.86 1.465 -5.86 1.465c0 0 -1.302 1.465 -3.906 4.395c-0.651 1.302 -0.814 3.092 -0.488 5.371c0 0 0 0 0 0m532.226 -306.641c0 10.742 3.825 19.938 11.475 27.588c7.65 7.65 16.846 11.475 27.588 11.475c11.393 0 20.752 -3.825 28.076 -11.475c7.324 -7.65 10.986 -16.846 10.986 -27.588c0 -11.393 -3.662 -20.752 -10.986 -28.076c-7.324 -7.324 -16.683 -10.986 -28.076 -10.986c-10.742 0 -19.938 3.743 -27.588 11.23c-7.65 7.487 -11.475 16.765 -11.475 27.832c0 0 0 0 0 0" />
  </g>
</svg>