<svg height="1000px" width="779.78515625px" xmlns="http://www.w3.org/2000/svg">
  <g>
    <path d="M0 500c0 -54.036 10.173 -104.736 30.518 -152.1c20.345 -47.363 48.177 -88.704 83.496 -124.023c35.319 -35.319 76.66 -63.151 124.023 -83.496c47.363 -20.345 98.063 -30.518 152.1 -30.518c54.036 0 104.655 10.173 151.855 30.518c47.201 20.345 88.542 48.177 124.024 83.496c35.481 35.319 63.313 76.66 83.496 124.023c20.182 47.364 30.273 98.064 30.273 152.1c0 54.036 -10.091 104.736 -30.273 152.1c-20.183 47.363 -48.015 88.704 -83.496 124.023c-35.482 35.319 -76.823 63.151 -124.024 83.496c-47.2 20.345 -97.819 30.518 -151.855 30.518c-54.037 0 -104.737 -10.173 -152.1 -30.518c-47.363 -20.345 -88.704 -48.177 -124.023 -83.496c-35.319 -35.319 -63.151 -76.66 -83.496 -124.023c-20.345 -47.364 -30.518 -98.064 -30.518 -152.1c0 0 0 0 0 0m117.188 24.902c0 9.44 3.336 17.497 10.009 24.17c6.673 6.673 14.567 10.01 23.682 10.01c0 0 299.316 0 299.316 0c0 0 -120.117 120.117 -120.117 120.117c-6.51 6.511 -9.847 14.405 -10.01 23.682c-0.162 9.277 3.174 17.334 10.01 24.17c0 0 36.133 36.133 36.133 36.133c6.51 6.51 14.241 9.765 23.193 9.765c8.952 0 17.172 -3.255 24.659 -9.765c0 0 238.769 -239.258 238.769 -239.258c6.51 -6.511 9.847 -14.486 10.01 -23.926c0.163 -9.44 -3.174 -17.415 -10.01 -23.926c0 0 -238.769 -239.258 -238.769 -239.258c-6.511 -6.51 -14.486 -9.765 -23.926 -9.765c-9.44 0 -17.416 3.255 -23.926 9.765c0 0 -36.133 36.133 -36.133 36.133c-6.51 6.511 -9.847 14.323 -10.01 23.438c-0.162 9.114 3.174 17.252 10.01 24.414c0 0 120.117 120.117 120.117 120.117c0 0 -299.316 0 -299.316 0c-9.44 0 -17.415 3.174 -23.926 9.521c-6.51 6.348 -9.765 14.242 -9.765 23.682c0 0 0 50.781 0 50.781c0 0 0 0 0 0" />
  </g>
</svg>