<svg height="1000px" width="779.78515625px" xmlns="http://www.w3.org/2000/svg">
  <g>
    <path d="M0 500c0 -52.734 10.335 -102.783 31.006 -150.146c20.67 -47.364 48.828 -88.868 84.473 -124.512c35.644 -35.645 76.985 -63.802 124.023 -84.473c47.038 -20.67 97.249 -31.006 150.635 -31.006c52.734 0 102.702 10.336 149.902 31.006c47.201 20.671 88.623 48.828 124.268 84.473c35.644 35.644 63.802 77.148 84.472 124.512c20.671 47.363 31.006 97.412 31.006 150.146c0 53.385 -10.335 103.597 -31.006 150.635c-20.67 47.038 -48.828 88.379 -84.472 124.023c-35.645 35.645 -77.067 63.802 -124.268 84.473c-47.2 20.67 -97.168 31.006 -149.902 31.006c-53.386 0 -103.597 -10.336 -150.635 -31.006c-47.038 -20.671 -88.379 -48.828 -124.023 -84.473c-35.645 -35.644 -63.803 -76.985 -84.473 -124.023c-20.671 -47.038 -31.006 -97.25 -31.006 -150.635c0 0 0 0 0 0m90.82 -182.129c0 0 1.953 0 1.953 0c1.303 0 3.337 -0.488 6.104 -1.465c2.767 -0.976 4.15 0.489 4.15 4.395c0 1.302 -0.488 3.011 -1.465 5.127c-0.976 2.116 0.814 3.174 5.372 3.174c1.302 0 2.115 -0.977 2.441 -2.93c0.326 -1.953 0.814 -1.953 1.465 0c0 0 1.953 7.812 1.953 7.812c0 0 0 0.977 0 0.977c0 1.302 -0.814 2.279 -2.441 2.93c-1.628 0.651 -2.116 1.627 -1.465 2.929c1.302 1.302 2.848 1.953 4.638 1.953c0 0 4.639 0 4.639 0c0 0 1.953 -0.976 1.953 -0.976c0 0 0.977 -0.977 0.977 -0.977c0 1.953 0.976 3.337 2.929 4.151c1.954 0.814 3.581 1.22 4.883 1.22c0 0 0.977 0 0.977 0c0 0.651 -0.651 1.302 -1.953 1.954c-1.302 0.651 -1.302 1.627 0 2.929c0 0 11.23 1.953 11.23 1.953c0 0 0 0.977 0 0.977c0 0 6.836 14.16 6.836 14.16c0 1.302 -0.488 2.93 -1.465 4.883c-0.976 1.953 -2.116 2.93 -3.418 2.93c-1.302 0 -1.79 -0.489 -1.465 -1.465c0.326 -0.977 0.489 -2.116 0.489 -3.418c0 -1.302 -0.326 -2.442 -0.977 -3.418c-0.651 -0.977 -3.092 -1.465 -7.324 -1.465c-0.651 0 -1.465 0.163 -2.441 0.488c-0.977 0.326 -1.14 1.14 -0.489 2.442c0 0 5.86 12.695 5.86 12.695c0 0 1.464 0.977 1.464 0.977c0 0 0.977 0.976 0.977 0.976c-3.255 0 -5.452 3.906 -6.592 11.719c-1.139 7.812 -1.709 13.346 -1.709 16.601c0 0 1.953 8.789 1.953 8.789c0 0 0.977 2.93 0.977 2.93c0 0 0 1.953 0 1.953c0 0 -1.953 9.278 -1.953 9.278c0 0 14.16 20.996 14.16 20.996c0 0 2.93 0 2.93 0c0.651 1.302 0.325 2.604 -0.977 3.906c-1.302 1.302 -1.628 2.604 -0.976 3.906c0 0 3.906 3.906 3.906 3.906c0 3.256 0.651 5.616 1.953 7.081c1.302 1.464 3.418 3.499 6.348 6.103c-0.651 3.906 2.685 7.568 10.009 10.986c7.325 3.418 11.963 5.778 13.916 7.08c2.605 7.487 5.86 14.893 9.766 22.217c3.906 7.324 8.626 13.591 14.16 18.799c0 0 0.977 6.836 0.977 6.836c0 0.651 -0.814 1.302 -2.442 1.953c-1.627 0.651 -1.79 1.628 -0.488 2.93c0 0 7.812 3.418 7.812 3.418c1.303 -1.302 3.012 0 5.127 3.906c2.116 3.906 3.825 6.51 5.127 7.813c0 0 -0.976 2.929 -0.976 2.929c0 0 5.859 8.301 5.859 8.301c0 0 2.93 0.977 2.93 0.977c0 0 1.953 -3.907 1.953 -3.907c-1.302 -3.255 -3.581 -7.568 -6.836 -12.939c-3.255 -5.371 -6.592 -10.58 -10.01 -15.625c-3.418 -5.046 -6.266 -9.603 -8.545 -13.672c-2.278 -4.069 -3.418 -6.429 -3.418 -7.08c0 -0.651 -0.325 -3.255 -0.976 -7.813c-0.651 -4.557 -1.302 -7.324 -1.953 -8.3c1.953 1.302 4.394 2.522 7.324 3.662c2.93 1.139 5.371 2.36 7.324 3.662c1.302 8.138 4.476 14.648 9.522 19.531c5.045 4.883 9.521 10.417 13.427 16.602c-1.302 1.302 -1.302 2.116 0 2.441c1.302 0.326 2.442 0.488 3.418 0.488c1.302 1.302 1.953 3.581 1.953 6.836c4.558 5.209 10.499 12.37 17.823 21.485c7.324 9.114 10.986 16.276 10.986 21.484c0 0 0 0.977 0 0.977c0 0 -1.953 6.836 -1.953 6.836c1.953 5.208 5.29 9.358 10.01 12.451c4.72 3.092 9.358 5.615 13.916 7.568c0 0 1.953 0 1.953 0c6.51 3.255 13.183 6.755 20.019 10.498c6.836 3.744 13.835 6.917 20.996 9.522c0 0 11.231 -6.836 11.231 -6.836c2.604 0.651 5.371 2.278 8.301 4.882c2.929 2.605 6.266 5.616 10.01 9.034c3.743 3.418 8.138 6.591 13.183 9.521c5.046 2.93 10.824 4.72 17.334 5.371c4.557 -3.255 6.836 -2.441 6.836 2.442c0 0 0 1.953 0 1.953c0 0 12.207 14.648 12.207 14.648c0 0 1.953 7.324 1.953 7.324c3.255 1.954 6.592 4.395 10.01 7.325c3.418 2.929 6.103 6.185 8.057 9.765c0 0 1.953 0 1.953 0c3.255 0 5.94 1.465 8.056 4.395c2.116 2.93 4.802 4.394 8.057 4.394c1.953 0 2.93 -0.976 2.93 -2.929c0 -4.558 0.325 -7.569 0.976 -9.034c0.651 -1.464 1.465 -2.36 2.442 -2.685c0.976 -0.326 1.953 -0.488 2.929 -0.488c0.977 0 1.465 -0.651 1.465 -1.953c0 0 -1.953 -2.93 -1.953 -2.93c-1.302 0 -2.279 0.814 -2.93 2.441c-0.651 1.628 -1.627 1.791 -2.929 0.489c0 0 -6.836 3.906 -6.836 3.906c0 0 -8.301 -1.953 -8.301 -1.953c0 0 -11.719 -20.02 -11.719 -20.02c0 0 3.906 -27.832 3.906 -27.832c0.652 -1.302 -0.569 -2.767 -3.662 -4.394c-3.092 -1.628 -3.987 -3.256 -2.685 -4.883c-4.557 -2.604 -10.091 -3.907 -16.602 -3.907c-1.302 0 -4.638 0.489 -10.01 1.465c-5.371 0.977 -8.056 0.489 -8.056 -1.465c0 -1.953 0.488 -4.557 1.465 -7.812c0.976 -3.255 2.116 -6.755 3.418 -10.498c1.302 -3.744 2.278 -6.917 2.929 -9.522c0.651 -2.604 0.977 -4.231 0.977 -4.882c0 0 6.348 -13.184 6.348 -13.184c0 0 -1.465 -1.953 -1.465 -1.953c0 0 -7.813 -1.953 -7.813 -1.953c-1.302 0 -3.418 0.976 -6.347 2.929c-2.93 1.954 -5.778 4.314 -8.545 7.081c-2.767 2.766 -5.127 5.452 -7.08 8.056c-1.954 2.604 -2.93 4.883 -2.93 6.836c0 0 -21.973 4.883 -21.973 4.883c-4.557 0 -8.301 -1.953 -11.23 -5.859c-1.302 -5.209 -4.069 -10.987 -8.301 -17.334c-4.232 -6.348 -6.348 -11.963 -6.348 -16.846c0 -7.487 1.302 -14.486 3.907 -20.996c2.604 -6.511 1.627 -13.509 -2.93 -20.996c0.651 0 1.465 -0.326 2.441 -0.977c0.977 -0.651 1.14 -1.627 0.489 -2.93c0 0 5.859 -6.836 5.859 -6.836c0 0 0.977 -0.976 0.977 -0.976c0 0 0.976 0.976 0.976 0.976c4.557 -3.255 10.579 -4.394 18.066 -3.417c7.487 0.976 12.208 -1.303 14.161 -6.836c0 0 7.812 6.347 7.812 6.347c1.302 0.651 2.767 -0.081 4.395 -2.197c1.627 -2.116 2.441 -3.825 2.441 -5.127c0 0 -3.906 -1.953 -3.906 -1.953c0 0 19.043 -4.883 19.043 -4.883c0 0 0.976 2.93 0.976 2.93c0 0 9.278 -0.977 9.278 -0.977c0 0 10.742 6.836 10.742 6.836c1.302 0 2.604 -0.814 3.906 -2.441c1.302 -1.628 2.767 -1.791 4.395 -0.489c0 0 9.765 10.254 9.765 10.254c-1.302 2.605 -1.465 4.558 -0.488 5.86c0.977 1.302 1.465 2.604 1.465 3.906c0 1.953 1.709 6.429 5.127 13.428c3.418 6.998 6.429 10.498 9.033 10.498c3.255 0 4.72 -2.116 4.395 -6.348c-0.326 -4.232 -0.489 -6.999 -0.489 -8.301c0 -6.51 -1.302 -12.858 -3.906 -19.043c-2.604 -6.185 -5.046 -12.532 -7.324 -19.043c0 0 0 -2.929 0 -2.929c0 -3.255 2.034 -6.104 6.103 -8.545c4.069 -2.442 6.104 -3.988 6.104 -4.639c3.255 -2.604 6.917 -5.208 10.986 -7.812c4.069 -2.605 7.08 -5.697 9.033 -9.278c0 0 3.907 -7.812 3.907 -7.812c0 0 0 -4.883 0 -4.883c0 0 2.929 0 2.929 0c0 0 0.651 -0.977 1.953 -2.93c0 -0.651 -0.488 -1.22 -1.464 -1.709c-0.977 -0.488 -2.116 -1.383 -3.418 -2.685c-1.302 -0.651 -2.605 -1.628 -3.907 -2.93c0 0 2.93 -1.953 2.93 -1.953c1.302 -1.953 2.279 -4.395 2.93 -7.324c0.651 -2.93 0.325 -5.534 -0.977 -7.813c0 0 7.324 -3.906 7.324 -3.906c-0.651 1.953 0 3.255 1.954 3.906c1.953 0.651 3.58 0.651 4.882 0c0 0 4.883 -7.812 4.883 -7.812c-1.302 -3.255 -2.116 -4.395 -2.441 -3.418c-0.326 0.976 0.488 -0.163 2.441 -3.418c3.255 -1.302 6.429 -2.849 9.522 -4.639c3.092 -1.79 6.266 -2.685 9.521 -2.685c0.651 0.651 1.302 0.976 1.953 0.976c1.953 0 2.93 -0.325 2.93 -0.976c0 -3.256 -0.651 -5.209 -1.953 -5.86c0 0 5.859 -12.207 5.859 -12.207c4.557 0 7.975 -1.953 10.254 -5.859c0 0 8.789 -0.977 8.789 -0.977c1.953 -0.651 2.93 -1.953 2.93 -3.906c0 0 0 -0.977 0 -0.977c0 0 17.09 -4.882 17.09 -4.882c0 0 1.953 -5.371 1.953 -5.371c0 0 -4.883 -6.836 -4.883 -6.836c0.651 0 0.977 -0.651 0.977 -1.954c0 -1.302 -0.652 -2.278 -1.954 -2.929c-1.302 -0.651 -2.441 -1.302 -3.418 -1.953c-0.976 -0.651 -2.115 -1.302 -3.418 -1.953c0 0 -1.953 0.976 -1.953 0.976c0 0 1.953 -0.976 1.953 -0.976c0 0 2.93 0 2.93 0c0 0 6.348 0 6.348 0c0 0 1.465 -1.465 4.394 -4.395c0 -3.906 -2.278 -5.859 -6.836 -5.859c-5.859 0 -12.614 1.383 -20.263 4.15c-7.65 2.767 -12.94 7.406 -15.869 13.916c0 0 -6.836 3.906 -6.836 3.906c0 0 8.789 -8.789 8.789 -8.789c0 0 1.465 -2.93 1.465 -2.93c0 -1.302 -1.547 -2.197 -4.639 -2.685c-3.093 -0.488 -3.988 -0.732 -2.686 -0.732c5.86 0 10.336 -0.652 13.428 -1.954c3.093 -1.302 5.615 -2.767 7.568 -4.394c1.954 -1.628 3.988 -3.255 6.104 -4.883c2.116 -1.628 5.127 -3.092 9.033 -4.394c7.487 1.302 14.649 1.627 21.485 0.976c6.835 -0.651 13.997 -0.976 21.484 -0.976c1.953 -1.303 3.906 -2.686 5.859 -4.151c1.953 -1.465 3.255 -3.174 3.907 -5.127c0 0 11.23 -1.953 11.23 -1.953c1.302 1.302 3.255 0.977 5.859 -0.976c2.605 -1.954 3.907 -3.581 3.907 -4.883c0 -3.256 -1.791 -5.371 -5.371 -6.348c-3.581 -0.977 -5.372 -3.255 -5.372 -6.836c0 -0.651 0.163 -1.628 0.489 -2.93c0.325 -1.302 -0.163 -1.953 -1.465 -1.953c-1.953 0 -5.127 0.977 -9.522 2.93c-4.394 1.953 -7.568 3.581 -9.521 4.883c-1.302 0.651 -2.116 0.488 -2.441 -0.488c-0.326 -0.977 -0.489 -2.116 -0.489 -3.418c0 0 0.977 0.976 0.977 0.976c0 0 3.906 -1.953 3.906 -1.953c0 0 11.231 -3.906 11.231 -3.906c0 0 1.953 -1.953 1.953 -1.953c0 -1.954 -1.221 -3.256 -3.662 -3.907c-2.442 -0.651 -4.314 -0.976 -5.616 -0.976c-1.302 0 -3.255 0.488 -5.859 1.465c-2.604 0.976 -3.906 0.488 -3.906 -1.465c0 0 0.976 -1.953 0.976 -1.953c-3.906 -3.256 -7.405 -6.918 -10.498 -10.987c-3.092 -4.069 -4.638 -6.754 -4.638 -8.056c0 -1.302 0.162 -2.686 0.488 -4.151c0.325 -1.465 -0.488 -2.197 -2.442 -2.197c-1.302 0 -2.441 0.163 -3.418 0.488c-0.976 0.326 -1.464 -0.488 -1.464 -2.441c0 -1.302 -0.814 -4.069 -2.442 -8.301c-1.627 -4.232 -3.906 -6.348 -6.836 -6.348c0 0 -3.906 3.907 -3.906 3.907c0 1.953 -0.977 3.418 -2.93 4.394c-1.953 0.977 -2.929 2.116 -2.929 3.418c0 0 -1.954 0 -1.954 0c0 0 -10.253 5.86 -10.253 5.86c-0.651 -1.302 -1.465 -1.628 -2.442 -0.977c-0.976 0.651 -2.116 0.977 -3.418 0.977c0 0 -0.976 0 -0.976 0c0 0 -0.977 0.976 -0.977 0.976c2.604 0 3.744 -1.465 3.418 -4.394c-0.325 -2.93 -1.465 -4.395 -3.418 -4.395c0 0 -7.812 1.953 -7.812 1.953c-1.303 0 -2.035 -0.163 -2.198 -0.488c-0.162 -0.326 0.163 -0.977 0.977 -1.953c0.814 -0.977 1.546 -2.116 2.197 -3.418c0.651 -1.302 0.651 -2.604 0 -3.906c-0.651 -1.302 -1.709 -1.465 -3.174 -0.489c-1.465 0.977 -2.197 0.814 -2.197 -0.488c0 0 2.93 0 2.93 0c0 0 2.441 -2.441 2.441 -2.441c0.651 -0.651 0.407 -1.791 -0.732 -3.418c-1.14 -1.628 -2.035 -2.767 -2.686 -3.418c0 0 -10.742 -1.953 -10.742 -1.953c0 0 -6.836 -5.86 -6.836 -5.86c-0.651 0.651 -1.872 0.163 -3.662 -1.465c-1.79 -1.627 -3.337 -2.767 -4.639 -3.418c0 0 -7.812 2.93 -7.812 2.93c0 0 -19.043 -4.394 -19.043 -4.394c-1.302 0 -2.604 0.406 -3.906 1.22c-1.303 0.814 -1.954 1.872 -1.954 3.174c0 1.302 0.651 2.279 1.954 2.93c1.302 0.651 1.953 1.627 1.953 2.929c0 1.303 0.488 4.802 1.465 10.498c0.976 5.697 0.162 7.894 -2.442 6.592c0 0 -4.883 6.836 -4.883 6.836c0.651 1.302 1.791 2.442 3.418 3.418c1.628 0.977 3.255 2.197 4.883 3.662c1.628 1.465 3.093 3.174 4.395 5.127c1.302 1.953 1.627 4.883 0.976 8.789c0 0 -21.972 15.137 -21.972 15.137c0 0 0 1.953 0 1.953c0 2.604 0.651 5.046 1.953 7.324c1.302 2.279 2.604 5.209 3.906 8.789c3.255 1.303 4.801 2.442 4.639 3.418c-0.163 0.977 -1.303 1.954 -3.418 2.93c-2.116 0.977 -4.151 1.953 -6.104 2.93c-1.953 0.976 -2.93 1.79 -2.93 2.441c0 0.651 -0.651 0.977 -1.953 0.977c0 0 -3.906 0 -3.906 0c0 0 -1.953 0 -1.953 0c0 -0.651 0.325 -1.14 0.976 -1.465c0.651 -0.326 0.977 -1.139 0.977 -2.442c0 0 -9.277 -5.859 -9.277 -5.859c0 0 0 0.977 0 0.977c0 0 -3.907 -7.813 -3.907 -7.813c1.302 -3.255 1.465 -5.615 0.489 -7.08c-0.977 -1.465 -1.465 -3.174 -1.465 -5.127c0 -5.208 -2.36 -7.812 -7.08 -7.812c-4.72 0 -9.684 0.651 -14.893 1.953c1.302 -0.651 1.14 -1.709 -0.488 -3.174c-1.628 -1.465 -2.767 -2.197 -3.418 -2.197c-5.208 0 -11.393 -2.279 -18.555 -6.836c-7.161 -4.558 -13.021 -6.836 -17.578 -6.836c-1.953 0 -4.232 0.325 -6.836 0.976c-2.604 0.651 -5.045 1.302 -7.324 1.953c1.302 -0.651 2.116 -2.278 2.441 -4.882c0 0 -6.347 -11.231 -6.347 -11.231c0 0 -0.977 -0.976 -0.977 -0.976c-1.953 0 -4.232 0.813 -6.836 2.441c-2.604 1.628 -3.906 0.163 -3.906 -4.394c0 -0.652 0.325 -1.303 0.977 -1.954c0.651 -0.651 0.651 -1.302 0 -1.953c-0.652 -3.906 0.162 -7.243 2.441 -10.009c2.279 -2.767 4.069 -5.778 5.371 -9.034c1.302 -1.302 1.953 -2.604 1.953 -3.906c0 -1.302 0.651 -1.953 1.953 -1.953c2.604 0 5.127 -0.732 7.569 -2.197c2.441 -1.465 5.289 -2.523 8.545 -3.174c0 0 0.976 -2.93 0.976 -2.93c0 -1.302 -3.499 -2.441 -10.498 -3.418c-6.999 -0.976 -10.498 -2.116 -10.498 -3.418c0 0 0.977 -0.976 0.977 -0.976c6.51 1.953 11.474 3.092 14.892 3.418c3.418 0.325 6.266 0 8.545 -0.977c2.279 -0.976 4.964 -2.279 8.057 -3.906c3.092 -1.628 7.894 -3.906 14.404 -6.836c0 -1.302 -3.499 -2.604 -10.498 -3.906c-6.999 -1.302 -11.475 -2.605 -13.428 -3.907c0 0 5.86 0 5.86 0c1.302 0 3.011 0.326 5.127 0.977c2.115 0.651 3.824 1.302 5.127 1.953c0 1.302 0.976 2.116 2.929 2.441c1.953 0.326 3.581 0.489 4.883 0.489c0 0 7.324 -4.883 7.324 -4.883c0 0 0 -2.93 0 -2.93c0 0 -1.953 -2.929 -1.953 -2.929c0 0 10.742 -1.954 10.742 -1.954c-0.651 -0.651 -0.488 -1.302 0.489 -1.953c0.976 -0.651 1.79 -0.976 2.441 -0.976c1.953 0 3.988 0.976 6.104 2.929c2.115 1.954 3.499 2.93 4.15 2.93c0 0 9.766 -3.906 9.766 -3.906c-0.652 -0.651 0.244 -1.139 2.685 -1.465c2.441 -0.325 3.174 -1.302 2.197 -2.93c0 0 -6.836 -7.812 -6.836 -7.812c-0.651 0 -1.139 -0.488 -1.464 -1.465c-0.326 -0.977 -0.163 -1.465 0.488 -1.465c3.255 0 4.232 -1.627 2.93 -4.883c-2.605 -1.302 -5.372 -2.848 -8.301 -4.638c-2.93 -1.791 -6.185 -2.686 -9.766 -2.686c-1.302 0 -2.767 0.326 -4.394 0.977c-1.628 0.651 -2.442 1.79 -2.442 3.418c0 1.302 0.814 1.953 2.442 1.953c1.627 0 2.767 0.651 3.418 1.953c1.302 1.302 0.976 1.953 -0.977 1.953c-1.953 0 -2.93 0.326 -2.93 0.977c-2.604 0 -5.045 1.953 -7.324 5.859c-2.279 3.906 -5.208 6.673 -8.789 8.301c-1.302 0 -1.79 -0.407 -1.465 -1.221c0.326 -0.814 0.163 -1.546 -0.488 -2.197c-0.651 -1.302 -1.79 -2.116 -3.418 -2.442c-1.628 -0.325 -2.441 -1.139 -2.441 -2.441c0 -1.302 0.813 -3.418 2.441 -6.348c1.628 -2.929 -0.488 -4.394 -6.348 -4.394c-2.604 0 -4.476 0.976 -5.615 2.929c-1.139 1.954 -2.36 3.907 -3.662 5.86c0 0 -10.742 -12.207 -10.742 -12.207c0 0 -8.301 -0.977 -8.301 -0.977c0 -2.604 0.57 -4.883 1.709 -6.836c1.139 -1.953 -0.407 -4.557 -4.639 -7.812c-1.953 -1.302 -3.743 -2.523 -5.371 -3.662c-1.627 -1.14 -3.418 -1.709 -5.371 -1.709c-0.651 0 -2.197 0.732 -4.639 2.197c-2.441 1.465 -4.638 2.848 -6.591 4.15c-1.953 1.302 -2.93 2.605 -2.93 3.907c0 1.302 1.628 1.953 4.883 1.953c0 0 -0.977 0 -0.977 0c-1.953 0 -2.929 1.302 -2.929 3.906c0 0.651 1.546 1.465 4.638 2.441c3.093 0.977 5.29 1.465 6.592 1.465c1.302 -0.651 2.279 -0.407 2.93 0.733c0.651 1.139 1.627 1.709 2.929 1.709c0 0 3.907 -1.465 3.907 -1.465c0 0 0 2.441 0 2.441c-0.651 0.651 -0.977 1.302 -0.977 1.953c0 0 0.977 3.907 0.977 3.907c0 0 -9.766 4.882 -9.766 4.882c-0.651 0.651 -1.302 0.977 -1.953 0.977c-0.651 0 -1.465 0.325 -2.442 0.977c0 1.953 0.896 3.987 2.686 6.103c1.79 2.116 -0.081 3.174 -5.615 3.174c0 0 -2.93 -1.953 -2.93 -1.953c0 -2.604 -2.685 -4.802 -8.057 -6.592c-5.371 -1.79 -11.881 -3.011 -19.531 -3.662c-7.65 -0.651 -15.299 -1.139 -22.949 -1.465c-7.65 -0.326 -13.428 -0.488 -17.334 -0.488c0 0 -16.113 4.883 -16.113 4.883c0 0 3.906 9.277 3.906 9.277c-1.302 0 -2.116 0.488 -2.441 1.465c-0.326 0.976 0.162 1.79 1.464 2.441c-1.302 -1.302 -3.743 -3.662 -7.324 -7.08c-3.581 -3.418 -6.022 -5.127 -7.324 -5.127c0 0 -8.301 -1.953 -8.301 -1.953c-11.393 0.651 -24.088 6.022 -38.086 16.113c-13.997 10.091 -27.669 21.81 -41.015 35.157c-13.347 13.346 -25.635 27.018 -36.866 41.015c-11.23 13.998 -19.938 25.554 -26.123 34.668c0 0 0 0 0 0m139.16 228.027c0 0 0.977 0 0.977 0c0 0 -0.977 0 -0.977 0c0 0 0 0 0 0m7.813 -360.839c4.557 -0.651 8.708 -1.954 12.451 -3.907c3.744 -1.953 7.731 -2.929 11.963 -2.929c0 0 2.93 1.953 2.93 1.953c1.953 0.651 3.743 0.976 5.371 0.976c1.627 0 3.092 0.651 4.394 1.953c2.605 -0.651 5.371 -0.325 8.301 0.977c0 0 2.93 -1.953 2.93 -1.953c0 0 0 -3.906 0 -3.906c0 0 -0.977 -2.442 -0.977 -2.442c0 0 2.93 0.977 2.93 0.977c1.953 0 3.906 -1.628 5.859 -4.883c0 0 -0.976 -1.953 -0.976 -1.953c-1.302 -0.651 -2.93 -1.302 -4.883 -1.953c-1.953 -0.651 -3.581 -0.977 -4.883 -0.977c-1.302 0 -3.988 0.814 -8.057 2.442c-4.069 1.627 -8.626 3.499 -13.671 5.615c-5.046 2.116 -9.847 4.15 -14.405 6.103c-4.557 1.953 -7.649 3.256 -9.277 3.907c0 0 0 0 0 0m210.449 647.949c0 1.302 0.488 2.767 1.465 4.394c0.977 1.628 1.465 3.093 1.465 4.395c0 1.627 -0.326 2.767 -0.977 3.418c37.435 -6.511 72.754 -18.636 105.957 -36.377c33.203 -17.741 62.826 -40.609 88.868 -68.604c0 0 -0.977 0 -0.977 0c-2.604 1.302 -4.883 1.302 -6.836 0c0 0 -2.441 1.954 -2.441 1.954c0 0 -5.86 -1.954 -5.86 -1.954c0 0 -1.953 0 -1.953 0c0 0 -1.953 3.907 -1.953 3.907c0 0 0.977 -3.907 0.977 -3.907c-1.954 -2.604 -4.232 -5.045 -6.836 -7.324c0 0 -1.953 -0.976 -1.953 -0.976c-1.303 0 -1.954 1.302 -1.954 3.906c0.651 -5.208 -0.732 -9.684 -4.15 -13.428c-3.418 -3.743 -7.731 -5.615 -12.939 -5.615c0 0.651 -0.326 0.976 -0.977 0.976c0 0 -1.953 0 -1.953 0c0 0 -2.442 -1.953 -2.442 -1.953c0 0 3.418 0 3.418 0c0 0 1.954 -5.859 1.954 -5.859c0 0 -5.372 -3.906 -5.372 -3.906c0 0 -0.976 0.976 -0.976 0.976c-4.557 -0.651 -7.813 -3.255 -9.766 -7.812c0 0 -1.953 -0.977 -1.953 -0.977c0 0 -0.976 0.977 -0.976 0.977c0 0 -1.954 0.976 -1.954 0.976c-3.906 1.302 -7.324 2.604 -10.253 3.907c-3.907 -1.303 -6.836 -2.93 -8.79 -4.883c0 0 -13.183 0.976 -13.183 0.976c0 -1.953 -0.651 -3.987 -1.953 -6.103c-1.302 -2.116 -3.255 -3.174 -5.86 -3.174c-3.255 0 -6.591 0.325 -10.009 0.977c-3.418 0.651 -5.778 2.766 -7.08 6.347c0 1.302 0.325 2.604 0.976 3.906c0.651 1.303 1.302 2.279 1.953 2.93c0 0 0 3.906 0 3.906c0 0 -0.976 2.93 -0.976 2.93c0 0 -1.953 0.977 -1.953 0.977c0 0 -0.977 0 -0.977 0c0 0 -2.93 -7.813 -2.93 -7.813c0 0 2.93 -4.883 2.93 -4.883c-0.651 -1.302 -0.977 -3.011 -0.977 -5.127c0 -2.116 -0.325 -3.825 -0.976 -5.127c0 0 -0.977 -1.953 -0.977 -1.953c0 0 -2.929 0 -2.929 0c0 0 -7.325 4.883 -7.325 4.883c0 0 -3.906 0 -3.906 0c0 0 -1.953 1.953 -1.953 1.953c-0.651 0.651 -0.977 1.302 -0.977 1.953c0 0.651 -0.325 1.14 -0.976 1.465c0 0 -0.977 -1.465 -0.977 -1.465c0 0 -3.906 0 -3.906 0c-2.604 2.605 -4.069 5.697 -4.394 9.278c0 0 1.464 1.953 1.464 1.953c0 0 -4.394 2.93 -4.394 2.93c0 0 -0.977 1.953 -0.977 1.953c0 0 -2.929 1.953 -2.929 1.953c0 0.651 -0.163 0.976 -0.489 0.976c-0.325 0 -0.488 0.326 -0.488 0.977c0 0 0 0.976 0 0.976c0 0 0 4.395 0 4.395c0 0 -0.977 0.977 -0.977 0.977c0 0 0 -1.954 0 -1.954c0 0 -0.976 -0.976 -0.976 -0.976c-0.651 -3.906 -4.395 -7.324 -11.231 -10.254c0 0 -2.929 0 -2.929 0c0 0 0 1.953 0 1.953c0.651 1.953 2.034 3.662 4.15 5.127c2.116 1.465 3.825 2.848 5.127 4.15c-0.651 -0.651 -1.465 -0.813 -2.441 -0.488c-0.977 0.326 -1.465 0.814 -1.465 1.465c0 0 0 1.953 0 1.953c0 0 6.836 9.766 6.836 9.766c0 0 0 19.043 0 19.043c0 0 1.953 4.883 1.953 4.883c-1.302 5.208 -3.906 9.602 -7.813 13.183c0 0 0 -0.976 0 -0.976c0 0 -1.953 0.976 -1.953 0.976c0 0 -1.465 0.977 -1.465 0.977c0 0 -0.976 4.882 -0.976 4.882c0 0 0.976 0.977 0.976 0.977c0 0 0 0.977 0 0.977c0 0 -1.953 -1.954 -1.953 -1.954c0 0 -0.976 6.348 -0.976 6.348c0 0 -5.86 1.953 -5.86 1.953c-1.953 1.302 -2.767 3.093 -2.441 5.371c0.325 2.279 -0.488 4.069 -2.441 5.371c0 0 0.976 1.954 0.976 1.954c0 0 -2.93 2.929 -2.93 2.929c0 1.302 -0.162 2.36 -0.488 3.174c-0.325 0.814 -0.488 1.872 -0.488 3.174c0 0 0.976 6.836 0.976 6.836c0 0 2.93 1.953 2.93 1.953c0 0 1.953 -1.953 1.953 -1.953c0 0 0.977 -2.93 0.977 -2.93c0 0 0.976 5.86 0.976 5.86c0 1.302 -0.651 2.604 -1.953 3.906c-1.953 1.302 -3.906 2.848 -5.859 4.638c-1.953 1.791 -2.93 4.314 -2.93 7.569c0 0 0 0 0 0" />
  </g>
</svg>