<svg height="1000px" width="779.78515625px" xmlns="http://www.w3.org/2000/svg">
  <g>
    <path d="M0 319.82421875c0 -28.646 5.534 -55.745 16.602 -81.299c11.067 -25.553 26.041 -47.851 44.921 -66.894c18.881 -19.043 41.016 -34.099 66.407 -45.166c25.39 -11.068 52.734 -16.602 82.031 -16.602c27.995 0 55.013 5.371 81.055 16.113c26.041 10.743 48.665 25.716 67.871 44.922c2.604 2.604 6.103 5.941 10.498 10.01c4.394 4.069 8.626 8.138 12.695 12.207c4.069 4.069 7.568 8.219 10.498 12.451c2.93 4.232 4.395 8.301 4.395 12.207c0 5.86 -1.953 10.905 -5.86 15.137c-1.953 2.604 -6.022 4.557 -12.207 5.859c-15.299 3.256 -29.622 6.918 -42.968 10.987c-13.347 4.069 -27.344 9.196 -41.993 15.381c-1.302 1.302 -3.906 1.953 -7.812 1.953c-3.906 0 -8.057 -1.709 -12.451 -5.127c-4.395 -3.418 -9.44 -6.918 -15.137 -10.498c-5.697 -3.581 -12.533 -7.08 -20.508 -10.498c-7.975 -3.418 -17.334 -5.127 -28.076 -5.127c-11.393 0 -22.217 2.197 -32.471 6.591c-10.254 4.395 -19.043 10.417 -26.367 18.067c-7.324 7.65 -13.184 16.439 -17.578 26.367c-4.395 9.928 -6.592 20.915 -6.592 32.959c0 13.346 2.848 25.553 8.545 36.621c5.697 11.068 12.695 21.403 20.996 31.006c8.301 9.603 17.497 18.799 27.588 27.588c10.091 8.789 19.369 17.415 27.832 25.879c0 0 87.891 86.914 87.891 86.914c7.487 8.138 16.357 14.16 26.611 18.066c10.254 3.906 21.077 5.86 32.471 5.86c13.997 0 25.879 -2.605 35.644 -7.813c9.766 -5.208 17.253 -7.812 22.461 -7.812c3.906 0 10.254 3.499 19.043 10.498c8.789 6.998 17.822 14.974 27.1 23.925c9.277 8.952 17.415 17.904 24.414 26.856c6.999 8.952 10.498 15.869 10.498 20.752c0 9.44 -5.859 17.741 -17.578 24.902c-11.719 7.162 -25.228 13.428 -40.528 18.799c-15.299 5.371 -30.599 9.603 -45.898 12.695c-15.3 3.093 -27.018 4.639 -35.156 4.639c-27.995 0 -54.769 -5.371 -80.323 -16.113c-25.553 -10.742 -48.421 -25.716 -68.603 -44.922c0 0 -147.949 -148.926 -147.949 -148.926c-19.857 -19.206 -35.157 -41.911 -45.899 -68.115c-10.742 -26.205 -16.113 -53.304 -16.113 -81.299c0 0 0 0 0 0m282.227 62.012c0 -9.44 5.778 -17.741 17.334 -24.903c11.556 -7.161 24.983 -13.427 40.283 -18.798c15.299 -5.372 30.599 -9.603 45.898 -12.696c15.3 -3.092 27.018 -4.638 35.156 -4.638c27.995 0 55.013 5.371 81.055 16.113c26.042 10.742 48.665 25.716 67.871 44.922c0 0 147.949 148.925 147.949 148.925c19.857 19.206 35.157 41.911 45.899 68.116c10.742 26.204 16.113 53.304 16.113 81.299c0 29.296 -5.452 56.559 -16.357 81.787c-10.905 25.228 -25.879 47.363 -44.922 66.406c-19.043 19.043 -41.423 34.098 -67.139 45.166c-25.716 11.068 -52.897 16.601 -81.543 16.601c-27.995 0 -54.931 -5.533 -80.81 -16.601c-25.879 -11.068 -48.584 -26.204 -68.116 -45.41c-2.604 -2.604 -6.103 -5.778 -10.498 -9.522c-4.394 -3.743 -8.545 -7.812 -12.451 -12.207c-3.906 -4.394 -7.405 -8.707 -10.498 -12.939c-3.092 -4.232 -4.638 -8.464 -4.638 -12.696c0 -5.859 2.115 -10.416 6.347 -13.671c1.953 -2.605 5.86 -4.558 11.719 -5.86c15.299 -3.255 29.622 -6.917 42.969 -10.986c13.346 -4.069 27.343 -9.522 41.992 -16.357c3.906 -1.303 6.673 -1.954 8.301 -1.954c3.906 0 8.056 1.709 12.451 5.127c4.394 3.418 9.359 6.918 14.892 10.498c5.534 3.581 12.207 7.08 20.02 10.498c7.812 3.418 17.253 5.127 28.32 5.127c23.438 0 43.132 -8.056 59.082 -24.17c15.951 -16.113 23.926 -35.725 23.926 -58.837c0 -13.347 -2.767 -25.717 -8.301 -37.11c-5.534 -11.393 -12.695 -21.728 -21.484 -31.006c-8.789 -9.277 -17.985 -18.31 -27.588 -27.099c-9.603 -8.789 -18.799 -17.416 -27.588 -25.879c0 0 -86.914 -87.891 -86.914 -87.891c-17.253 -15.95 -37.272 -24.088 -60.059 -24.414c-13.997 0 -25.797 2.848 -35.4 8.545c-9.603 5.697 -17.171 8.545 -22.705 8.545c-3.906 0 -10.173 -3.499 -18.799 -10.498c-8.626 -6.999 -17.578 -14.974 -26.855 -23.926c-9.278 -8.952 -17.416 -18.066 -24.414 -27.344c-6.999 -9.277 -10.498 -16.032 -10.498 -20.263c0 0 0 0 0 0" />
  </g>
</svg>