<svg height="1000px" width="935.546875px" xmlns="http://www.w3.org/2000/svg">
  <g>
    <path d="M0 787.109375c0 -27.995 7.161 -55.339 21.484 -82.031c14.323 -26.693 32.797 -50.537 55.42 -71.533c22.624 -20.997 47.77 -37.842 75.44 -50.538c27.669 -12.695 55.176 -19.043 82.519 -19.043c0 0 6.348 0 6.348 0c5.859 -8.138 15.137 -17.985 27.832 -29.541c12.695 -11.556 22.949 -21.077 30.762 -28.564c0 0 0 -5.859 0 -5.859c0 0 0 -5.86 0 -5.86c-3.907 -3.906 -8.545 -8.382 -13.916 -13.427c-5.371 -5.046 -11.068 -10.254 -17.09 -15.625c-6.022 -5.372 -11.475 -10.58 -16.358 -15.625c-4.882 -5.046 -8.626 -9.522 -11.23 -13.428c-27.344 1.953 -55.42 -3.418 -84.229 -16.113c-28.808 -12.696 -54.85 -29.867 -78.125 -51.514c-23.274 -21.647 -42.236 -46.143 -56.884 -73.486c-14.649 -27.344 -21.973 -54.688 -21.973 -82.032c0 -31.901 10.173 -57.047 30.518 -75.439c20.345 -18.392 46.468 -27.588 78.369 -27.588c26.692 0 54.036 6.348 82.031 19.043c27.995 12.695 53.304 29.541 75.928 50.537c22.623 20.996 41.178 44.84 55.664 71.533c14.485 26.693 21.728 54.037 21.728 82.031c0 3.256 -0.244 6.755 -0.732 10.498c-0.488 3.744 -1.058 7.243 -1.709 10.499c0 0 41.992 37.109 41.992 37.109c0 0 16.602 -8.301 16.602 -8.301c11.067 -5.859 25.797 -13.428 44.189 -22.705c18.392 -9.277 39.388 -19.938 62.988 -31.982c23.601 -12.045 47.771 -24.414 72.51 -37.11c24.74 -12.695 49.235 -25.228 73.486 -37.597c24.252 -12.37 46.224 -23.682 65.918 -33.936c19.694 -10.254 36.377 -18.717 50.049 -25.391c13.672 -6.673 22.136 -10.986 25.391 -12.939c5.208 -2.604 11.23 -4.069 18.066 -4.395c4.558 0 10.905 0.733 19.043 2.198c8.138 1.465 16.683 3.011 25.635 4.638c8.952 1.628 17.578 3.418 25.879 5.371c8.301 1.954 15.055 3.256 20.264 3.907c9.44 1.302 17.171 5.615 23.193 12.939c6.022 7.324 9.033 15.707 9.033 25.147c0 13.997 -5.696 24.739 -17.09 32.226c0 0 -341.797 236.817 -341.797 236.817c0 0 341.797 236.816 341.797 236.816c11.394 7.487 17.09 18.229 17.09 32.227c0 9.44 -3.011 17.822 -9.033 25.146c-6.022 7.324 -13.753 11.637 -23.193 12.94c-5.209 1.302 -11.963 2.766 -20.264 4.394c-8.301 1.628 -16.927 3.255 -25.879 4.883c-8.952 1.627 -17.497 3.174 -25.635 4.639c-8.138 1.464 -14.485 2.197 -19.043 2.197c-3.255 0 -6.266 -0.407 -9.033 -1.221c-2.767 -0.814 -5.778 -1.872 -9.033 -3.174c0 0 -411.133 -209.961 -411.133 -209.961c0 0 -41.992 37.11 -41.992 37.11c0.651 3.255 1.221 6.754 1.709 10.498c0.488 3.743 0.732 7.243 0.732 10.498c0 27.995 -7.243 55.338 -21.728 82.031c-14.486 26.693 -33.041 50.537 -55.664 71.533c-22.624 20.996 -47.933 37.842 -75.928 50.537c-27.995 12.696 -55.339 19.043 -82.031 19.043c-31.901 0 -58.024 -9.196 -78.369 -27.588c-20.345 -18.391 -30.518 -43.538 -30.518 -75.439c0 0 0 0 0 0m96.191 -575.195c0 7.487 1.791 15.543 5.372 24.17c3.58 8.626 8.056 16.927 13.427 24.902c5.371 7.975 11.068 15.299 17.09 21.973c6.022 6.673 11.637 12.288 16.846 16.845c11.393 9.44 24.739 18.311 40.039 26.612c15.299 8.3 30.599 12.451 45.898 12.451c3.255 0 7.65 -0.651 13.184 -1.953c0 0 0 -2.93 0 -2.93c0 -7.487 -1.872 -15.381 -5.615 -23.682c-3.744 -8.3 -8.22 -16.438 -13.428 -24.414c-5.208 -7.975 -10.824 -15.462 -16.846 -22.461c-6.022 -6.998 -11.8 -12.776 -17.334 -17.334c-11.393 -9.44 -24.739 -18.31 -40.039 -26.611c-15.299 -8.301 -30.599 -12.451 -45.898 -12.451c-4.558 0 -8.789 0.651 -12.696 1.953c0 0 0 2.93 0 2.93c0 0 0 0 0 0m0.977 575.195c0 1.953 0.325 3.581 0.977 4.883c1.953 0 3.743 0.163 5.371 0.488c1.627 0.326 3.418 0.488 5.371 0.488c13.346 0 27.995 -3.987 43.945 -11.963c15.951 -7.975 31.006 -17.985 45.166 -30.029c14.16 -12.044 25.879 -25.553 35.156 -40.527c9.278 -14.974 13.916 -29.46 13.916 -43.457c0 -1.302 -0.162 -2.116 -0.488 -2.442c-0.325 -0.325 -0.488 -1.139 -0.488 -2.441c-2.604 -0.651 -6.348 -0.977 -11.231 -0.977c-13.346 0 -27.995 3.988 -43.945 11.963c-15.951 7.976 -30.925 17.985 -44.922 30.03c-13.997 12.044 -25.635 25.553 -34.912 40.527c-9.277 14.974 -13.916 29.46 -13.916 43.457c0 0 0 0 0 0m188.965 -212.891c17.252 8.138 30.599 19.369 40.039 33.692c0 0 52.734 -46.875 52.734 -46.875c0 0 21.973 13.183 21.973 13.183c0 0 496.094 -343.261 496.094 -343.261c0 0 -83.985 -15.137 -83.985 -15.137c0 0 -476.074 243.164 -476.074 243.164c0 0 2.93 62.012 2.93 62.012c0 0 -53.711 53.222 -53.711 53.222m0 -148.437c0 0 17.09 17.09 17.09 17.09c3.906 -9.44 9.847 -16.114 17.822 -20.02c7.975 -3.906 16.683 -8.138 26.123 -12.695c0 0 -20.996 -18.067 -20.996 -18.067c-9.44 14.649 -22.787 25.879 -40.039 33.692c0 0 0 0 0 0m75.683 74.219c0 -11.394 3.825 -20.752 11.475 -28.077c7.65 -7.324 17.171 -10.986 28.564 -10.986c10.743 0 19.776 3.662 27.1 10.986c7.324 7.325 10.986 16.683 10.986 28.077c0 10.742 -3.662 19.938 -10.986 27.588c-7.324 7.649 -16.683 11.474 -28.076 11.474c-10.742 0 -19.938 -3.825 -27.588 -11.474c-7.65 -7.65 -11.475 -16.846 -11.475 -27.588c0 0 0 0 0 0m79.102 94.238c0 0 372.07 189.941 372.07 189.941c0 0 83.985 -15.136 83.985 -15.136c0 0 -354.981 -245.118 -354.981 -245.118c0 0 -101.074 70.313 -101.074 70.313" />
  </g>
</svg>