<svg height="1000px" width="779.78515625px" xmlns="http://www.w3.org/2000/svg">
  <g>
    <path d="M0 687.01171875c0 0 0 -345.215 0 -345.215c0 -10.742 2.686 -22.217 8.057 -34.424c5.371 -12.207 11.637 -22.054 18.798 -29.541c0 0 125.977 -125.976 125.977 -125.976c7.487 -7.487 17.415 -13.835 29.785 -19.043c12.37 -5.209 23.763 -7.813 34.18 -7.813c0 0 226.074 0 226.074 0c10.091 0 18.799 3.662 26.123 10.987c7.324 7.324 10.986 16.032 10.986 26.123c0 0 0 122.07 0 122.07c5.209 -2.604 10.987 -4.801 17.334 -6.592c6.348 -1.79 12.94 -2.685 19.776 -2.685c0 0 226.074 0 226.074 0c10.091 0 18.718 3.662 25.879 10.986c7.161 7.324 10.742 16.032 10.742 26.123c0 0 0 524.902 0 524.902c0 10.743 -3.662 19.776 -10.986 27.1c-7.324 7.324 -15.869 10.986 -25.635 10.986c0 0 -405.273 0 -405.273 0c-10.743 0 -19.776 -3.662 -27.1 -10.986c-7.324 -7.324 -10.986 -16.357 -10.986 -27.1c0 0 0 -111.816 0 -111.816c0 0 -261.719 0 -261.719 0c-10.742 0 -19.775 -3.662 -27.1 -10.986c-7.324 -7.325 -10.986 -16.358 -10.986 -27.1c0 0 0 0 0 0m75.195 -37.109c0 0 224.61 0 224.61 0c0 0 0 -143.067 0 -143.067c0 -14.648 1.709 -28.808 5.127 -42.48c3.418 -13.672 10.823 -25.716 22.216 -36.133c0 0 77.637 -79.102 77.637 -79.102c0 0 0 -148.925 0 -148.925c0 0 -135.742 0 -135.742 0c0 0 0 156.738 0 156.738c0 10.091 -3.662 18.799 -10.986 26.123c-7.325 7.324 -16.032 10.986 -26.123 10.986c0 0 -156.739 0 -156.739 0c0 0 0 255.86 0 255.86c0 0 0 0 0 0m15.625 -331.055c0 0 103.028 0 103.028 0c0 0 0 -103.027 0 -103.027c0 0 -103.028 103.027 -103.028 103.027m284.18 480.957c0 0 330.078 0 330.078 0c0 0 0 -449.707 0 -449.707c0 0 -136.23 0 -136.23 0c0 0 0 156.738 0 156.738c0 10.091 -3.662 18.799 -10.987 26.123c-7.324 7.324 -15.869 10.987 -25.634 10.987c0 0 -157.227 0 -157.227 0c0 0 0 255.859 0 255.859c0 0 0 0 0 0m16.113 -330.566c0 0 103.028 0 103.028 0c0 0 0 -103.028 0 -103.028c0 0 -103.028 103.028 -103.028 103.028" />
  </g>
</svg>