<svg height="1000px" width="717.7734375px" xmlns="http://www.w3.org/2000/svg">
  <g>
    <path d="M0 324.21875c0 -29.297 5.697 -56.966 17.09 -83.008c11.393 -26.041 26.693 -48.747 45.898 -68.115c19.206 -19.369 41.83 -34.749 67.871 -46.143c26.042 -11.393 53.711 -17.089 83.008 -17.089c28.646 0 56.153 5.533 82.52 16.601c26.367 11.068 49.642 26.53 69.824 46.387c0 0 319.824 320.312 319.824 320.312c3.906 3.907 5.86 8.464 5.86 13.672c0 3.255 -1.791 7.569 -5.372 12.94c-3.58 5.371 -7.893 10.579 -12.939 15.625c-5.046 5.045 -10.254 9.44 -15.625 13.183c-5.371 3.744 -9.684 5.615 -12.939 5.615c-5.209 0 -9.929 -2.115 -14.161 -6.347c0 0 -319.824 -319.824 -319.824 -319.824c-13.346 -13.347 -28.32 -23.357 -44.922 -30.03c-16.601 -6.673 -34.017 -10.009 -52.246 -10.009c-18.555 0 -36.133 3.499 -52.734 10.498c-16.602 6.998 -31.087 16.683 -43.457 29.052c-12.37 12.37 -22.054 26.856 -29.053 43.457c-6.999 16.602 -10.498 34.343 -10.498 53.223c0 17.904 3.337 35.156 10.01 51.758c6.673 16.601 16.683 31.575 30.029 44.922c0 0 363.77 364.257 363.77 364.257c17.903 17.904 39.55 26.856 64.941 26.856c12.695 0 24.74 -2.523 36.133 -7.568c11.393 -5.046 21.24 -11.719 29.541 -20.02c8.301 -8.301 14.974 -18.148 20.019 -29.541c5.046 -11.393 7.569 -23.275 7.569 -35.644c0 -25.391 -9.115 -47.201 -27.344 -65.43c0 0 -274.902 -274.903 -274.902 -274.903c-9.44 -9.44 -20.671 -13.997 -33.692 -13.671c-13.346 0 -24.902 4.801 -34.668 14.404c-9.765 9.603 -14.648 21.077 -14.648 34.424c0 13.346 4.72 24.739 14.16 34.179c0 0 231.934 231.934 231.934 231.934c3.906 3.906 5.859 8.464 5.859 13.672c0 3.255 -1.79 7.568 -5.371 12.939c-3.581 5.371 -7.894 10.58 -12.94 15.625c-5.045 5.046 -10.254 9.44 -15.625 13.184c-5.371 3.743 -9.684 5.615 -12.939 5.615c-5.208 0 -9.928 -2.116 -14.16 -6.347c0 0 -231.934 -230.958 -231.934 -230.958c-11.393 -12.044 -20.426 -25.878 -27.099 -41.503c-6.674 -15.625 -10.01 -31.739 -10.01 -48.34c0 -17.253 3.336 -33.61 10.01 -49.073c6.673 -15.462 15.706 -28.971 27.099 -40.527c11.393 -11.556 24.984 -20.67 40.772 -27.344c15.787 -6.673 32.308 -10.009 49.56 -10.009c16.602 0 32.715 3.336 48.34 10.009c15.625 6.674 29.46 15.707 41.504 27.1c0 0 273.926 274.902 273.926 274.902c33.203 33.203 49.804 73.243 49.804 120.118c0 24.088 -4.475 46.386 -13.427 66.894c-8.952 20.508 -21.078 38.412 -36.377 53.711c-15.3 15.299 -33.285 27.507 -53.955 36.621c-20.671 9.115 -43.05 13.672 -67.139 13.672c-46.549 0 -86.589 -16.764 -120.117 -50.293c0 0 -363.77 -363.77 -363.77 -363.77c-19.856 -19.856 -35.319 -42.968 -46.386 -69.335c-11.068 -26.368 -16.602 -53.874 -16.602 -82.52c0 0 0 0 0 0" />
  </g>
</svg>