<svg height="1000px" width="750px" xmlns="http://www.w3.org/2000/svg">
  <g>
    <path d="M0 799.8046875c0 0 0 -599.609 0 -599.609c0 -20.508 7.324 -38.168 21.973 -52.979c14.648 -14.811 32.389 -22.217 53.222 -22.217c0 0 524.903 0 524.903 0c20.507 0 38.086 7.325 52.734 21.973c0 0 75.195 75.195 75.195 75.195c14.649 14.649 21.973 32.227 21.973 52.735c0 0 0 524.902 0 524.902c0 20.508 -7.324 38.167 -21.973 52.979c-14.648 14.811 -32.389 22.216 -53.222 22.216c0 0 -599.61 0 -599.61 0c-20.508 0 -38.167 -7.324 -52.978 -21.972c-14.811 -14.649 -22.217 -32.39 -22.217 -53.223c0 0 0 0 0 0m75.195 -337.891c0 0 524.903 0 524.903 0c0 0 0 -261.718 0 -261.718c0 0 -524.903 0 -524.903 0c0 0 0 261.718 0 261.718c0 0 0 0 0 0m337.891 -37.109c0 0 0 -187.988 0 -187.988c0 0 92.773 0 92.773 0c0 0 0 187.988 0 187.988c0 0 -92.773 0 -92.773 0c0 0 0 0 0 0" />
  </g>
</svg>