<svg height="1000px" width="899.90234375px" xmlns="http://www.w3.org/2000/svg">
  <g>
    <path d="M0 771.97265625c0 -12.695 2.523 -24.902 7.568 -36.621c5.046 -11.719 11.719 -21.729 20.02 -30.029c8.301 -8.301 18.148 -14.893 29.541 -19.776c11.393 -4.883 23.763 -7.324 37.109 -7.324c12.696 0 24.658 2.441 35.889 7.324c11.23 4.883 21.159 11.475 29.785 19.776c8.626 8.3 15.462 18.31 20.508 30.029c5.045 11.719 7.568 23.926 7.568 36.621c0 13.346 -2.523 25.716 -7.568 37.109c-5.046 11.394 -11.882 21.241 -20.508 29.541c-8.626 8.301 -18.636 14.974 -30.029 20.02c-11.393 5.045 -23.275 7.568 -35.645 7.568c-26.041 0 -48.258 -9.196 -66.65 -27.588c-18.392 -18.392 -27.588 -40.608 -27.588 -66.65c0 0 0 0 0 0m0 -271.973c0 -12.695 2.523 -24.902 7.568 -36.621c5.046 -11.719 11.719 -21.728 20.02 -30.029c8.301 -8.301 18.148 -14.974 29.541 -20.02c11.393 -5.045 23.763 -7.568 37.109 -7.568c12.696 0 24.658 2.523 35.889 7.568c11.23 5.046 21.159 11.719 29.785 20.02c8.626 8.301 15.462 18.31 20.508 30.029c5.045 11.719 7.568 23.926 7.568 36.621c0 13.347 -2.523 25.716 -7.568 37.11c-5.046 11.393 -11.882 21.24 -20.508 29.541c-8.626 8.301 -18.636 14.974 -30.029 20.019c-11.393 5.046 -23.275 7.569 -35.645 7.569c-13.346 0 -25.716 -2.523 -37.109 -7.569c-11.393 -5.045 -21.24 -11.718 -29.541 -20.019c-8.301 -8.301 -14.974 -18.148 -20.02 -29.541c-5.045 -11.394 -7.568 -23.763 -7.568 -37.11c0 0 0 0 0 0m0 -271.972c0 -12.696 2.523 -24.903 7.568 -36.621c5.046 -11.719 11.719 -21.729 20.02 -30.03c8.301 -8.3 18.148 -14.974 29.541 -20.019c11.393 -5.046 23.763 -7.569 37.109 -7.569c12.696 0 24.658 2.523 35.889 7.569c11.23 5.045 21.159 11.719 29.785 20.019c8.626 8.301 15.462 18.311 20.508 30.03c5.045 11.718 7.568 23.925 7.568 36.621c0 13.346 -2.523 25.716 -7.568 37.109c-5.046 11.393 -11.882 21.24 -20.508 29.541c-8.626 8.301 -18.636 14.893 -30.029 19.775c-11.393 4.883 -23.275 7.325 -35.645 7.325c-13.346 0 -25.716 -2.442 -37.109 -7.325c-11.393 -4.882 -21.24 -11.474 -29.541 -19.775c-8.301 -8.301 -14.974 -18.148 -20.02 -29.541c-5.045 -11.393 -7.568 -23.763 -7.568 -37.109c0 0 0 0 0 0m254.883 571.777c0 0 0 -55.664 0 -55.664c0 -10.742 3.662 -19.775 10.986 -27.1c7.324 -7.324 16.358 -10.986 27.1 -10.986c0 0 569.824 0 569.824 0c10.091 0 18.799 3.662 26.123 10.986c7.324 7.325 10.986 16.358 10.986 27.1c0 0 0 55.664 0 55.664c0 10.742 -3.662 19.613 -10.986 26.611c-7.324 6.999 -16.032 10.498 -26.123 10.498c0 0 -569.824 0 -569.824 0c-10.742 0 -19.776 -3.499 -27.1 -10.498c-7.324 -6.998 -10.986 -15.869 -10.986 -26.611c0 0 0 0 0 0m0 -271.973c0 0 0 -55.664 0 -55.664c0 -10.742 3.662 -19.775 10.986 -27.099c7.324 -7.325 16.358 -10.987 27.1 -10.987c0 0 569.824 0 569.824 0c10.091 0 18.799 3.662 26.123 10.987c7.324 7.324 10.986 16.357 10.986 27.099c0 0 0 55.664 0 55.664c0 10.743 -3.662 19.776 -10.986 27.1c-7.324 7.324 -16.032 10.986 -26.123 10.986c0 0 -569.824 0 -569.824 0c-10.742 0 -19.776 -3.662 -27.1 -10.986c-7.324 -7.324 -10.986 -16.357 -10.986 -27.1c0 0 0 0 0 0m0 -271.972c0 0 0 -55.664 0 -55.664c0 -10.743 3.662 -19.776 10.986 -27.1c7.324 -7.324 16.358 -10.986 27.1 -10.986c0 0 569.824 0 569.824 0c10.091 0 18.799 3.662 26.123 10.986c7.324 7.324 10.986 16.357 10.986 27.1c0 0 0 55.664 0 55.664c0 10.742 -3.662 19.775 -10.986 27.099c-7.324 7.325 -16.032 10.987 -26.123 10.987c0 0 -569.824 0 -569.824 0c-10.742 0 -19.776 -3.662 -27.1 -10.987c-7.324 -7.324 -10.986 -16.357 -10.986 -27.099c0 0 0 0 0 0" />
  </g>
</svg>