<svg height="1000px" width="899.90234375px" xmlns="http://www.w3.org/2000/svg">
  <g>
    <path d="M0 584.9609375c0 -17.904 4.964 -32.552 14.893 -43.945c9.928 -11.394 21.077 -21.403 33.447 -30.03c12.37 -8.626 23.6 -16.764 33.691 -24.414c10.091 -7.649 15.137 -16.845 15.137 -27.588c0 -9.44 -2.848 -16.601 -8.545 -21.484c-5.697 -4.883 -13.265 -7.324 -22.705 -7.324c-8.138 0 -15.3 2.441 -21.484 7.324c-6.185 4.883 -11.719 10.742 -16.602 17.578c0 0 -25.879 -18.066 -25.879 -18.066c7.487 -12.696 17.009 -22.543 28.565 -29.541c11.556 -6.999 24.332 -10.498 38.33 -10.498c17.903 0 33.61 5.208 47.119 15.625c13.509 10.416 20.263 25.228 20.263 44.433c0 15.951 -4.882 28.972 -14.648 39.063c-9.766 10.091 -20.671 19.124 -32.715 27.099c-12.044 7.976 -23.03 15.625 -32.959 22.95c-9.928 7.324 -14.892 16.357 -14.892 27.099c0 0 69.824 0 69.824 0c0 0 0 -26.367 0 -26.367c0 0 32.226 0 32.226 0c0 0 0 56.152 0 56.152c0 0 -141.113 0 -141.113 0c-0.651 -3.255 -1.139 -6.266 -1.465 -9.033c-0.325 -2.767 -0.488 -5.778 -0.488 -9.033c0 0 0 0 0 0m1.953 263.184c0 0 18.067 -26.368 18.067 -26.368c1.953 1.302 3.906 3.011 5.859 5.127c1.953 2.116 4.394 3.825 7.324 5.127c3.906 2.604 8.708 4.883 14.404 6.836c5.697 1.953 11.801 2.93 18.311 2.93c11.393 0 20.426 -2.93 27.1 -8.789c6.673 -5.86 10.009 -13.509 10.009 -22.949c0 -10.091 -3.825 -17.985 -11.474 -23.682c-7.65 -5.697 -17.171 -8.545 -28.565 -8.545c0 0 -11.23 0 -11.23 0c0 0 -7.813 -18.066 -7.813 -18.066c0 0 43.946 -52.735 43.946 -52.735c0 0 2.929 -2.929 2.929 -2.929c0 0 1.14 -0.977 3.418 -2.93c0 0 1.953 -2.93 1.953 -2.93c0 0 -4.394 0 -4.394 0c-1.302 0.651 -3.581 0.977 -6.836 0.977c0 0 -44.922 0 -44.922 0c0 0 0 23.926 0 23.926c0 0 -32.226 0 -32.226 0c0 0 0 -54.2 0 -54.2c0 0 128.417 0 128.417 0c0 0 0 25.879 0 25.879c0 0 -47.363 56.153 -47.363 56.153c13.347 1.953 25.391 7.649 36.133 17.089c10.742 9.441 16.113 22.787 16.113 40.04c0 17.252 -6.185 32.714 -18.554 46.386c-12.37 13.672 -30.274 20.508 -53.711 20.508c-11.394 0 -21.241 -1.465 -29.541 -4.394c-8.301 -2.93 -15.056 -6.185 -20.264 -9.766c-8.138 -4.557 -13.835 -8.789 -17.09 -12.695c0 0 0 0 0 0m4.883 -673.34c0 0 51.269 -49.805 51.269 -49.805c0 0 32.715 0 32.715 0c0 0 0 175.781 0 175.781c0 0 45.41 0 45.41 0c0 0 0 30.274 0 30.274c0 0 -126.464 0 -126.464 0c0 0 0 -30.274 0 -30.274c0 0 45.41 0 45.41 0c0 0 0 -125.976 0 -125.976c0 0 0 -3.907 0 -3.907c0 0 -0.977 0 -0.977 0c-3.255 5.209 -6.917 9.848 -10.986 13.917c-4.069 4.069 -8.871 8.544 -14.404 13.427c0 0 -21.973 -23.437 -21.973 -23.437m248.047 625c0 0 0 -55.664 0 -55.664c0 -10.743 3.662 -19.776 10.986 -27.1c7.324 -7.324 16.358 -10.986 27.1 -10.986c0 0 569.824 0 569.824 0c10.091 0 18.799 3.662 26.123 10.986c7.324 7.324 10.986 16.357 10.986 27.1c0 0 0 55.664 0 55.664c0 10.742 -3.662 19.612 -10.986 26.611c-7.324 6.999 -16.032 10.498 -26.123 10.498c0 0 -569.824 0 -569.824 0c-10.742 0 -19.776 -3.499 -27.1 -10.498c-7.324 -6.999 -10.986 -15.869 -10.986 -26.611c0 0 0 0 0 0m0 -271.973c0 0 0 -55.664 0 -55.664c0 -10.742 3.662 -19.775 10.986 -27.1c7.324 -7.324 16.358 -10.986 27.1 -10.986c0 0 569.824 0 569.824 0c10.091 0 18.799 3.662 26.123 10.986c7.324 7.325 10.986 16.358 10.986 27.1c0 0 0 55.664 0 55.664c0 10.742 -3.662 19.775 -10.986 27.1c-7.324 7.324 -16.032 10.986 -26.123 10.986c0 0 -569.824 0 -569.824 0c-10.742 0 -19.776 -3.662 -27.1 -10.986c-7.324 -7.325 -10.986 -16.358 -10.986 -27.1c0 0 0 0 0 0m0 -271.973c0 0 0 -55.664 0 -55.664c0 -10.742 3.662 -19.775 10.986 -27.099c7.324 -7.324 16.358 -10.987 27.1 -10.987c0 0 569.824 0 569.824 0c10.091 0 18.799 3.663 26.123 10.987c7.324 7.324 10.986 16.357 10.986 27.099c0 0 0 55.664 0 55.664c0 10.743 -3.662 19.776 -10.986 27.1c-7.324 7.324 -16.032 10.986 -26.123 10.986c0 0 -569.824 0 -569.824 0c-10.742 0 -19.776 -3.662 -27.1 -10.986c-7.324 -7.324 -10.986 -16.357 -10.986 -27.1c0 0 0 0 0 0" />
  </g>
</svg>