<svg height="1000px" width="750px" xmlns="http://www.w3.org/2000/svg">
  <g>
    <path d="M0 537.109375c0 0 0 -74.219 0 -74.219c0 0 750 0 750 0c0 0 0 74.219 0 74.219c0 0 -750 0 -750 0c0 0 0 0 0 0m130.859 -206.055c0 -38.086 7.162 -70.963 21.485 -98.632c14.323 -27.67 33.528 -50.619 57.617 -68.848c24.088 -18.229 51.758 -31.738 83.008 -40.527c31.25 -8.79 64.29 -13.184 99.121 -13.184c28.646 0 57.292 3.336 85.937 10.01c28.646 6.673 56.641 14.729 83.985 24.17c6.51 23.437 10.986 48.828 13.427 76.171c2.442 27.344 3.663 52.898 3.663 76.661c0 3.255 -0.163 6.917 -0.489 10.986c-0.325 4.069 -0.814 8.057 -1.465 11.963c0 0 -6.347 0.976 -6.347 0.976c-7.487 -0.651 -15.625 -0.976 -24.414 -0.976c-8.789 0 -16.927 -0.977 -24.414 -2.93c-5.86 -19.206 -13.021 -37.842 -21.485 -55.908c-8.463 -18.066 -18.636 -34.098 -30.517 -48.096c-11.882 -13.997 -26.205 -25.146 -42.969 -33.447c-16.764 -8.301 -36.703 -12.451 -59.814 -12.451c-15.951 0 -31.332 2.197 -46.143 6.592c-14.811 4.394 -27.832 10.905 -39.063 19.531c-11.23 8.626 -20.345 19.45 -27.343 32.471c-6.999 13.02 -10.498 28.157 -10.498 45.41c0 19.205 4.638 35.807 13.916 49.804c9.277 13.998 21.565 26.205 36.865 36.622c15.299 10.416 32.471 19.287 51.514 26.611c19.043 7.324 38.248 14.16 57.617 20.508c19.368 6.347 37.842 12.695 55.42 19.043c17.578 6.347 32.714 13.102 45.41 20.263c0 0 -339.844 0 -339.844 0c-10.742 -17.252 -19.124 -35.237 -25.146 -53.955c-6.023 -18.717 -9.034 -38.33 -9.034 -58.838c0 0 0 0 0 0m8.301 392.578c0 0 0 -30.761 0 -30.761c0 0 0 -21.973 0 -21.973c0 0 53.711 -0.976 53.711 -0.976c10.091 23.437 20.508 45.328 31.25 65.673c10.742 20.345 23.112 38.005 37.109 52.979c13.998 14.974 30.925 26.611 50.782 34.912c19.856 8.301 44.596 12.451 74.218 12.451c17.904 0 35.808 -2.685 53.711 -8.057c17.904 -5.371 34.261 -13.183 49.073 -23.437c14.811 -10.254 26.855 -23.031 36.132 -38.33c9.278 -15.3 13.917 -33.04 13.917 -53.223c0 -24.739 -7.976 -45.573 -23.926 -62.5c-15.951 -16.927 -35.319 -31.25 -58.106 -42.969c-22.786 -11.718 -46.631 -21.402 -71.533 -29.052c-24.902 -7.65 -46.468 -15.056 -64.697 -22.217c0 0 301.269 0 301.269 0c2.604 5.208 5.046 11.475 7.325 18.799c2.278 7.324 3.987 15.137 5.126 23.437c1.14 8.301 2.035 16.439 2.686 24.414c0.651 7.976 0.977 15.056 0.977 21.241c0 42.643 -7.732 79.427 -23.194 110.351c-15.462 30.925 -36.133 56.397 -62.011 76.416c-25.879 20.02 -56.153 34.912 -90.821 44.678c-34.668 9.766 -71.37 14.648 -110.107 14.648c-17.253 0 -32.39 -0.651 -45.41 -1.953c-13.021 -1.302 -25.717 -3.336 -38.086 -6.103c-12.37 -2.767 -25.065 -6.104 -38.086 -10.01c-13.021 -3.906 -28.158 -8.626 -45.41 -14.16c-3.907 -1.302 -10.092 -3.255 -18.555 -5.86c-8.464 -2.604 -14.323 -5.208 -17.578 -7.812c-2.604 -1.953 -4.558 -10.173 -5.86 -24.658c-1.302 -14.486 -2.278 -30.192 -2.929 -47.119c-0.651 -16.928 -0.977 -33.204 -0.977 -48.829c0 0 0 0 0 0" />
  </g>
</svg>