<svg height="1000px" width="750px" xmlns="http://www.w3.org/2000/svg">
  <g>
    <path d="M0 875.30517578125c0 0 0 -75.195 0 -75.195c0 0 750 0 750 0c0 0 0 75.195 0 75.195c0 0 -750 0 -750 0c0 0 0 0 0 0m0 -748.047c3.255 -0.651 6.429 -0.976 9.521 -0.976c0 0 9.522 0 9.522 0c23.437 0 46.305 0.813 68.603 2.441c22.299 1.628 44.678 2.441 67.139 2.441c32.552 0 65.186 -0.325 97.901 -0.976c32.714 -0.651 65.185 -1.628 97.412 -2.93c-1.302 5.208 -1.465 11.149 -0.489 17.822c0.977 6.674 1.465 12.777 1.465 18.311c0 0 0 3.906 0 3.906c-21.484 3.255 -39.062 4.395 -52.734 3.418c-13.672 -0.976 -24.333 -0.163 -31.983 2.442c-7.649 2.604 -12.939 8.951 -15.869 19.043c-2.929 10.091 -4.394 27.832 -4.394 53.222c0 44.597 0.651 88.867 1.953 132.813c1.302 43.945 2.93 88.379 4.883 133.3c2.604 47.852 16.927 86.426 42.968 115.723c26.042 29.297 64.779 43.945 116.211 43.945c40.69 0 74.382 -4.801 101.075 -14.404c26.692 -9.603 48.014 -23.926 63.964 -42.969c15.951 -19.043 27.263 -42.887 33.936 -71.533c6.673 -28.646 10.01 -61.686 10.01 -99.121c0 -6.51 -0.326 -17.09 -0.977 -31.738c-0.651 -14.649 -1.465 -31.332 -2.441 -50.049c-0.977 -18.717 -2.36 -38.086 -4.151 -58.105c-1.79 -20.02 -3.662 -38.493 -5.615 -55.42c-1.953 -16.927 -4.069 -31.413 -6.347 -43.457c-2.279 -12.045 -4.721 -19.369 -7.325 -21.973c-10.742 -10.742 -23.437 -16.113 -38.086 -16.113c-1.953 0 -5.778 0.162 -11.474 0.488c-5.697 0.325 -11.556 0.488 -17.578 0.488c-6.023 0 -11.556 -0.163 -16.602 -0.488c-5.046 -0.326 -8.545 -0.814 -10.498 -1.465c0 0 0.977 -40.039 0.977 -40.039c26.692 -1.302 53.222 -0.814 79.589 1.465c26.368 2.278 53.223 3.418 80.567 3.418c12.695 0 25.309 -0.814 37.842 -2.442c12.532 -1.627 25.472 -2.441 38.818 -2.441c1.302 0 2.848 0.163 4.639 0.488c1.79 0.326 3.336 0.489 4.638 0.489c0.651 3.906 1.302 7.893 1.953 11.962c0.651 4.069 0.977 8.057 0.977 11.963c0 3.907 -0.651 8.627 -1.953 14.161c-7.487 1.953 -16.032 3.255 -25.635 3.906c-9.603 0.651 -19.043 1.79 -28.32 3.418c-9.278 1.627 -17.09 4.313 -23.438 8.056c-6.347 3.744 -9.521 10.01 -9.521 18.799c0 4.557 0.163 8.952 0.488 13.184c0.326 4.232 0.814 8.789 1.465 13.672c0.651 1.953 1.465 8.219 2.441 18.798c0.977 10.58 1.791 23.438 2.442 38.575c0.651 15.136 1.302 31.657 1.953 49.56c0.651 17.904 1.302 34.668 1.953 50.293c0.651 15.625 1.139 29.46 1.465 41.504c0.325 12.044 0.488 20.182 0.488 24.414c0 12.044 -0.325 25.147 -0.976 39.307c-0.651 14.16 -1.954 28.646 -3.907 43.457c-1.953 14.811 -4.801 29.053 -8.545 42.724c-3.743 13.672 -8.545 25.717 -14.404 36.133c-13.346 22.136 -30.355 40.69 -51.025 55.664c-20.671 14.974 -42.969 26.774 -66.895 35.401c-23.926 8.626 -48.909 14.811 -74.951 18.554c-26.042 3.744 -51.107 5.616 -75.195 5.616c-23.438 0 -46.957 -1.547 -70.557 -4.639c-23.6 -3.092 -46.468 -8.87 -68.603 -17.334c-31.25 -11.393 -55.827 -25.798 -73.731 -43.213c-17.904 -17.415 -31.575 -37.109 -41.016 -59.082c-9.44 -21.973 -15.299 -46.143 -17.578 -72.51c-2.278 -26.367 -3.418 -54.524 -3.418 -84.472c0 0 0 -156.739 0 -156.739c0 0 0 -20.507 0 -20.507c0 0 -0.162 -10.173 -0.488 -30.518c-0.325 -20.345 -1.139 -30.192 -2.441 -29.541c-1.302 0.651 -2.93 -5.534 -4.883 -18.555c-3.906 -5.208 -9.929 -9.033 -18.067 -11.474c-8.138 -2.442 -16.845 -4.151 -26.123 -5.127c-9.277 -0.977 -18.473 -1.465 -27.588 -1.465c-9.114 0 -16.276 -0.651 -21.484 -1.953c0 0 -1.953 -41.016 -1.953 -41.016" />
  </g>
</svg>