<svg height="1000px" width="899.90234375px" xmlns="http://www.w3.org/2000/svg">
  <g>
    <path d="M0 692.626953125c0 0 0 -197.266 0 -197.266c0 -8.138 0.977 -16.52 2.93 -25.146c1.953 -8.626 4.801 -17.253 8.545 -25.879c3.743 -8.626 8.138 -16.927 13.183 -24.902c5.046 -7.976 10.173 -14.567 15.381 -19.776c0 0 108.887 -108.398 108.887 -108.398c5.208 -5.209 11.881 -10.335 20.019 -15.381c8.138 -5.046 16.52 -9.359 25.147 -12.94c8.626 -3.58 17.252 -6.429 25.879 -8.544c8.626 -2.116 17.008 -3.174 25.146 -3.174c0 0 39.063 0 39.063 0c0 0 0 -96.68 0 -96.68c0 -10.091 3.662 -18.799 10.986 -26.123c7.324 -7.324 15.869 -10.986 25.635 -10.986c0 0 541.015 0 541.015 0c10.743 0 19.776 3.662 27.1 10.986c7.324 7.324 10.986 16.032 10.986 26.123c0 0 0 538.086 0 538.086c0 10.091 -3.662 18.717 -10.986 25.879c-7.324 7.161 -16.357 10.742 -27.1 10.742c0 0 -36.621 0 -36.621 0c0 0 0 3.418 0 3.418c0 20.508 -4.069 39.958 -12.207 58.35c-8.138 18.392 -18.799 34.261 -31.982 47.607c-13.184 13.346 -28.971 24.007 -47.363 31.983c-18.392 7.975 -38.005 11.962 -58.838 11.962c-20.508 0 -39.958 -3.987 -58.35 -11.962c-18.392 -7.976 -34.261 -18.637 -47.607 -31.983c-13.347 -13.346 -24.008 -29.215 -31.983 -47.607c-7.975 -18.392 -11.963 -37.842 -11.963 -58.35c0 0 0 -3.418 0 -3.418c0 0 -149.902 0 -149.902 0c0 0 0 3.418 0 3.418c0 20.508 -3.988 39.958 -11.963 58.35c-7.975 18.392 -18.636 34.261 -31.982 47.607c-13.347 13.346 -29.216 24.007 -47.608 31.983c-18.392 7.975 -37.842 11.962 -58.349 11.962c-20.508 0 -39.958 -3.987 -58.35 -11.962c-18.392 -7.976 -34.261 -18.637 -47.607 -31.983c-13.347 -13.346 -24.008 -29.215 -31.983 -47.607c-7.975 -18.392 -11.963 -37.842 -11.963 -58.35c0 0 0 -3.418 0 -3.418c0 0 -38.086 0 -38.086 0c-10.091 0 -18.798 -3.662 -26.123 -10.986c-7.324 -7.324 -10.986 -15.869 -10.986 -25.635c0 0 0 0 0 0m94.238 -166.992c0 0 188.965 0 188.965 0c0 0 0 -180.176 0 -180.176c0 0 -38.086 0 -38.086 0c-3.255 0 -8.382 1.302 -15.381 3.906c-6.998 2.604 -11.963 5.371 -14.892 8.301c0 0 -108.887 107.91 -108.887 107.91c-2.604 2.604 -5.208 7.406 -7.812 14.405c-2.605 6.998 -3.907 12.125 -3.907 15.38c0 0 0 30.274 0 30.274c0 0 0 0 0 0m74.707 207.031c0 15.3 5.534 28.402 16.602 39.307c11.068 10.905 24.251 16.357 39.551 16.357c15.299 0 28.401 -5.452 39.306 -16.357c10.905 -10.905 16.358 -24.007 16.358 -39.307c0 -15.299 -5.453 -28.483 -16.358 -39.551c-10.905 -11.067 -24.007 -16.601 -39.306 -16.601c-15.3 0 -28.483 5.452 -39.551 16.357c-11.068 10.905 -16.602 24.17 -16.602 39.795c0 0 0 0 0 0m450.196 0c0 15.3 5.452 28.402 16.357 39.307c10.905 10.905 24.007 16.357 39.307 16.357c15.299 0 28.483 -5.452 39.55 -16.357c11.068 -10.905 16.602 -24.007 16.602 -39.307c0 -15.299 -5.452 -28.483 -16.357 -39.551c-10.905 -11.067 -24.17 -16.601 -39.795 -16.601c-15.3 0 -28.402 5.452 -39.307 16.357c-10.905 10.905 -16.357 24.17 -16.357 39.795c0 0 0 0 0 0" />
  </g>
</svg>