<svg height="1000px" width="750px" xmlns="http://www.w3.org/2000/svg">
  <g>
    <path d="M0 708.0078125c0 0 0 -213.867 0 -213.867c17.904 22.135 37.516 37.842 58.838 47.119c21.322 9.277 46.305 13.916 74.951 13.916c0 0 17.578 0 17.578 0c0 0 5.534 -0.651 16.602 -1.953c-2.604 7.487 -4.883 14.323 -6.836 20.508c-1.953 6.185 -2.93 13.02 -2.93 20.507c0 13.347 2.93 25.961 8.789 37.842c5.86 11.882 12.858 22.868 20.996 32.959c-33.854 1.302 -66.162 4.964 -96.924 10.987c-30.761 6.022 -61.116 16.683 -91.064 31.982c0 0 0 0 0 0m0 -425.781c0 0 0 -62.989 0 -62.989c0 -12.695 2.523 -24.902 7.568 -36.621c5.046 -11.718 11.719 -21.728 20.02 -30.029c8.301 -8.301 18.148 -14.974 29.541 -20.019c11.393 -5.046 23.763 -7.569 37.109 -7.569c0 0 561.524 0 561.524 0c26.041 0 48.258 9.196 66.65 27.588c18.392 18.392 27.588 40.609 27.588 66.65c0 0 0 561.524 0 561.524c0 13.346 -2.523 25.716 -7.568 37.109c-5.046 11.394 -11.719 21.241 -20.02 29.541c-8.301 8.301 -18.31 14.974 -30.029 20.02c-11.719 5.045 -23.926 7.568 -36.621 7.568c0 0 -284.668 0 -284.668 0c7.487 -12.695 13.346 -25.879 17.578 -39.551c4.232 -13.671 6.348 -28.157 6.348 -43.457c0 -22.786 -3.5 -42.48 -10.499 -59.082c-6.998 -16.601 -15.869 -31.25 -26.611 -43.945c-10.742 -12.695 -22.217 -24.007 -34.424 -33.936c-12.207 -9.928 -23.681 -19.287 -34.423 -28.076c-10.743 -8.789 -19.613 -17.496 -26.612 -26.123c-6.999 -8.626 -10.498 -18.31 -10.498 -29.052c0 -15.951 5.534 -29.216 16.602 -39.795c11.067 -10.58 23.437 -22.38 37.109 -35.401c13.672 -13.021 25.96 -29.215 36.865 -48.584c10.905 -19.368 16.358 -45.98 16.358 -79.834c0 -25.39 -6.348 -50.944 -19.043 -76.66c-12.696 -25.716 -29.948 -45.573 -51.758 -59.57c0 0 63.965 0 63.965 0c0 0 64.941 -37.11 64.941 -37.11c0 0 -208.984 0 -208.984 0c-41.992 0 -80.648 5.86 -115.967 17.579c-35.319 11.718 -65.999 34.993 -92.041 69.824c0 0 0 0 0 0m0.977 509.765c4.557 -18.554 13.509 -34.179 26.855 -46.875c13.346 -12.695 29.053 -22.705 47.119 -30.029c18.067 -7.324 36.784 -12.695 56.153 -16.113c19.368 -3.418 37.353 -5.127 53.955 -5.127c0 0 15.38 0 15.38 0c0 0 5.127 0.325 15.381 0.976c12.045 8.789 24.74 17.66 38.086 26.612c13.347 8.952 25.554 18.961 36.621 30.029c11.068 11.068 20.101 23.275 27.1 36.621c6.999 13.346 10.498 28.32 10.498 44.922c0 15.299 -3.092 29.297 -9.277 41.992c0 0 -224.61 0 -224.61 0c-23.437 0 -44.026 -7.975 -61.767 -23.926c-17.741 -15.95 -28.239 -35.644 -31.494 -59.082c0 0 0 0 0 0m48.828 -451.171c0 -13.998 1.871 -27.833 5.615 -41.504c3.743 -13.672 9.44 -25.635 17.09 -35.889c7.65 -10.254 17.334 -18.555 29.053 -24.902c11.718 -6.348 25.553 -9.522 41.503 -9.522c22.136 0 41.342 6.673 57.618 20.02c16.276 13.346 29.541 29.703 39.795 49.072c10.253 19.368 17.903 40.202 22.949 62.5c5.045 22.298 7.568 42.399 7.568 60.303c0 14.648 -1.465 28.32 -4.394 41.015c-2.93 12.696 -7.894 23.845 -14.893 33.448c-6.999 9.602 -16.195 17.252 -27.588 22.949c-11.393 5.696 -25.065 8.545 -41.016 8.545c-21.484 0 -40.364 -6.348 -56.64 -19.043c-16.276 -12.696 -30.111 -28.321 -41.504 -46.875c-11.393 -18.555 -20.101 -38.656 -26.123 -60.303c-6.022 -21.647 -9.033 -41.585 -9.033 -59.814c0 0 0 0 0 0m367.187 20.996c0 0 108.887 0 108.887 0c0 0 0 109.375 0 109.375c0 0 53.223 0 53.223 0c0 0 0 -109.375 0 -109.375c0 0 108.886 0 108.886 0c0 0 0 -52.735 0 -52.735c0 0 -108.886 0 -108.886 0c0 0 0 -109.863 0 -109.863c0 0 -53.223 0 -53.223 0c0 0 0 109.863 0 109.863c0 0 -108.887 0 -108.887 0c0 0 0 52.735 0 52.735c0 0 0 0 0 0" />
  </g>
</svg>