<svg height="1000px" width="599.609375px" xmlns="http://www.w3.org/2000/svg">
  <g>
    <path d="M2.9296875 354.4820249080658c6.51 -15.299 18.229 -22.949 35.156 -22.949c0 0 524.903 0 524.903 0c16.276 0 27.669 7.65 34.179 22.949c6.511 15.299 3.744 28.971 -8.3 41.016c0 0 -261.719 262.207 -261.719 262.207c-8.789 7.487 -17.904 11.067 -27.344 10.742c-9.44 0 -18.392 -3.581 -26.855 -10.742c0 0 -261.719 -262.207 -261.719 -262.207c-12.044 -12.045 -14.811 -25.717 -8.301 -41.016c0 0 0 0 0 0" />
  </g>
</svg>