<svg height="1000px" width="337.890625px" xmlns="http://www.w3.org/2000/svg">
  <g>
    <path d="M0 499.9999953433871c0 -10.742 3.743 -19.694 11.23 -26.855c0 0 262.696 -262.207 262.696 -262.207c5.208 -5.209 11.393 -8.627 18.554 -10.254c7.162 -1.628 14.323 -0.814 21.485 2.441c7.487 2.604 13.346 7.08 17.578 13.428c4.232 6.347 6.348 13.102 6.348 20.263c0 0 0 525.391 0 525.391c0 8.138 -2.116 15.137 -6.348 20.996c-4.232 5.86 -10.091 10.417 -17.578 13.672c-7.487 3.255 -14.649 4.069 -21.485 2.441c-6.835 -1.627 -13.02 -5.045 -18.554 -10.254c0 0 -262.696 -263.183 -262.696 -263.183c-7.487 -7.487 -11.23 -16.113 -11.23 -25.879c0 0 0 0 0 0" />
  </g>
</svg>