<svg height="1000px" width="599.609375px" xmlns="http://www.w3.org/2000/svg">
  <g>
    <path d="M0 368.896484375c0 -10.091 3.662 -18.962 10.986 -26.611c7.325 -7.65 16.032 -11.475 26.123 -11.475c0 0 525.879 0 525.879 0c10.091 0 18.799 3.744 26.123 11.231c7.325 7.487 10.987 16.438 10.987 26.855c0 10.742 -3.744 19.857 -11.231 27.344c0 0 -261.719 261.719 -261.719 261.719c-7.487 7.486 -16.601 11.23 -27.343 11.23c-11.394 0 -20.02 -3.744 -25.879 -11.231c0 0 -262.696 -261.718 -262.696 -261.718c-7.487 -7.487 -11.23 -16.602 -11.23 -27.344c0 0 0 0 0 0" />
  </g>
</svg>