<svg height="1000px" width="599.609375px" xmlns="http://www.w3.org/2000/svg">
  <g>
    <path d="M0 631.103515625c0 -10.742 3.743 -19.857 11.23 -27.344c0 0 261.719 -261.718 261.719 -261.718c7.487 -7.487 16.439 -11.231 26.856 -11.231c10.742 0 19.856 3.744 27.343 11.231c0 0 261.719 261.718 261.719 261.718c7.487 7.487 11.231 16.602 11.231 27.344c0 10.091 -3.662 18.962 -10.987 26.611c-7.324 7.65 -16.032 11.475 -26.123 11.475c0 0 -525.879 0 -525.879 0c-10.091 0 -18.798 -3.744 -26.123 -11.231c-7.324 -7.487 -10.986 -16.438 -10.986 -26.855c0 0 0 0 0 0" />
  </g>
</svg>