<svg height="1000px" width="899.90234375px" xmlns="http://www.w3.org/2000/svg">
  <g>
    <path d="M0 818.84765625c0 0 0 -441.895 0 -441.895c3.255 3.256 6.592 6.104 10.01 8.545c3.418 2.442 6.754 4.965 10.01 7.569c41.992 31.25 83.658 62.418 125 93.506c41.341 31.087 82.356 62.907 123.046 95.459c12.696 10.091 26.042 20.263 40.039 30.517c13.998 10.254 28.484 19.531 43.457 27.832c14.974 8.301 30.681 14.974 47.12 20.02c16.438 5.045 33.284 7.568 50.537 7.568c17.903 0 34.993 -2.523 51.269 -7.568c16.276 -5.046 31.901 -11.556 46.875 -19.532c14.974 -7.975 29.46 -17.089 43.457 -27.343c13.998 -10.254 27.67 -20.752 41.016 -31.494c40.69 -32.552 81.706 -64.372 123.047 -95.459c41.341 -31.088 83.008 -62.256 125 -93.506c3.255 -2.604 6.592 -5.127 10.01 -7.569c3.418 -2.441 6.754 -5.289 10.009 -8.545c0 0 0 441.895 0 441.895c0 15.299 -5.452 28.483 -16.357 39.551c-10.905 11.067 -24.007 16.601 -39.307 16.601c0 0 -788.086 0 -788.086 0c-15.299 0 -28.483 -5.534 -39.55 -16.601c-11.068 -11.068 -16.602 -24.252 -16.602 -39.551c0 0 0 0 0 0m0.977 -644.043c0 -13.346 5.859 -24.984 17.578 -34.912c11.718 -9.928 24.251 -14.893 37.597 -14.893c0 0 788.086 0 788.086 0c13.347 0 25.798 4.965 37.354 14.893c11.556 9.928 17.334 21.566 17.334 34.912c0 10.091 -3.011 21.322 -9.033 33.691c-6.023 12.37 -13.347 24.577 -21.973 36.622c-8.626 12.044 -17.904 23.03 -27.832 32.959c-9.928 9.928 -18.636 17.822 -26.123 23.681c-40.039 29.948 -79.346 59.652 -117.92 89.111c-38.574 29.46 -77.555 59.164 -116.943 89.112c-8.138 5.859 -17.497 13.183 -28.077 21.972c-10.579 8.79 -21.565 17.172 -32.959 25.147c-11.393 7.975 -22.949 14.811 -34.668 20.508c-11.718 5.696 -22.461 8.545 -32.226 8.545c0 0 -0.977 0 -0.977 0c0 0 -0.976 0 -0.976 0c-10.091 0 -20.996 -2.849 -32.715 -8.545c-11.719 -5.697 -23.193 -12.533 -34.424 -20.508c-11.23 -7.975 -22.217 -16.357 -32.959 -25.147c-10.742 -8.789 -20.182 -16.113 -28.32 -21.972c-39.388 -29.948 -78.369 -59.57 -116.944 -88.867c-38.574 -29.297 -77.88 -59.082 -117.92 -89.356c-7.486 -5.859 -16.194 -13.753 -26.123 -23.681c-9.928 -9.929 -19.205 -20.915 -27.832 -32.959c-8.626 -12.045 -15.95 -24.252 -21.972 -36.622c-6.022 -12.369 -9.033 -23.6 -9.033 -33.691c0 0 0 0 0 0" />
  </g>
</svg>