<svg height="1000px" width="776.85546875px" xmlns="http://www.w3.org/2000/svg">
  <g>
    <path d="M0 551.7578125c-1.302 -12.695 4.395 -20.02 17.09 -21.973c0 0 77.148 -9.765 77.148 -9.765c3.907 -0.651 8.789 0.651 14.649 3.906c3.906 2.604 6.347 6.999 7.324 13.184c4.557 33.203 14.811 64.29 30.762 93.261c15.95 28.972 35.97 53.955 60.058 74.951c24.089 20.997 51.595 37.517 82.52 49.561c30.924 12.044 63.476 18.066 97.656 18.066c37.435 0 72.754 -7.161 105.957 -21.484c33.203 -14.323 62.175 -33.854 86.914 -58.594c24.74 -24.739 44.271 -53.548 58.594 -86.425c14.323 -32.878 21.484 -68.36 21.484 -106.446c0 -38.086 -7.161 -73.568 -21.484 -106.445c-14.323 -32.878 -33.854 -61.686 -58.594 -86.426c-24.739 -24.739 -53.792 -44.271 -87.158 -58.594c-33.366 -14.323 -68.604 -21.484 -105.713 -21.484c-30.599 0 -60.14 4.964 -88.623 14.893c-28.483 9.928 -54.281 24.332 -77.393 43.212c0 0 77.637 77.637 77.637 77.637c11.393 11.393 15.3 20.915 11.719 28.565c-3.581 7.649 -13.021 11.474 -28.32 11.474c0 0 -226.075 0 -226.075 0c-5.208 0 -10.009 -0.976 -14.404 -2.929c-4.394 -1.954 -8.382 -4.558 -11.963 -7.813c-8.138 -8.138 -12.044 -17.09 -11.719 -26.855c0 0 0 -226.075 0 -226.075c0 -15.299 3.988 -24.658 11.963 -28.076c7.976 -3.418 17.66 0.57 29.053 11.963c0 0 79.102 79.102 79.102 79.102c35.481 -29.948 74.3 -52.816 116.455 -68.604c42.155 -15.788 86.344 -23.682 132.568 -23.682c54.036 0 104.655 10.173 151.856 30.518c47.2 20.345 88.46 48.177 123.779 83.496c35.319 35.319 63.151 76.66 83.496 124.024c20.345 47.363 30.517 98.063 30.517 152.099c0 54.037 -10.172 104.737 -30.517 152.1c-20.345 47.363 -48.177 88.704 -83.496 124.023c-35.319 35.319 -76.66 63.151 -124.024 83.496c-47.363 20.345 -97.9 30.518 -151.611 30.518c-48.828 0 -95.215 -8.545 -139.16 -25.635c-43.945 -17.09 -83.252 -40.771 -117.92 -71.045c-34.668 -30.273 -63.395 -66.081 -86.182 -107.422c-22.786 -41.341 -37.435 -86.1 -43.945 -134.277c0 0 0 0 0 0" />
  </g>
</svg>