<svg height="1000px" width="935.546875px" xmlns="http://www.w3.org/2000/svg">
  <g>
    <path d="M0 557.12890625c0 -15.951 6.022 -30.762 18.066 -44.434c12.045 -13.671 26.368 -20.507 42.969 -20.507c11.393 0 22.461 3.58 33.203 10.742c-6.51 -4.558 -9.928 -10.58 -10.254 -18.067c0 -2.604 1.302 -6.51 3.907 -11.718c0 0 163.086 -245.118 163.086 -245.118c4.557 -6.51 10.579 -9.928 18.066 -10.253c5.208 0 9.115 1.464 11.719 4.394c-8.138 -5.859 -14.649 -12.858 -19.532 -20.996c-4.882 -8.138 -7.324 -17.253 -7.324 -27.344c0 -15.95 6.185 -30.599 18.555 -43.945c12.37 -13.346 26.53 -20.02 42.48 -20.02c10.743 0 20.834 3.093 30.274 9.278c0 0 250.976 166.992 250.976 166.992c7.487 5.208 13.347 11.8 17.579 19.775c4.231 7.976 6.347 16.683 6.347 26.123c0 8.138 -1.709 16.032 -5.127 23.682c-3.418 7.65 -7.731 14.404 -12.939 20.264c-5.209 5.859 -11.719 10.66 -19.531 14.404c-7.813 3.743 -15.625 5.615 -23.438 5.615c-10.742 0 -21.81 -3.743 -33.203 -11.23c6.51 4.557 9.928 10.579 10.254 18.066c0 4.557 -1.302 8.626 -3.906 12.207c0 0 -51.27 77.149 -51.27 77.149c0 0 110.84 73.73 110.84 73.73c4.557 -1.302 9.114 -2.279 13.672 -2.93c4.557 -0.651 9.114 -0.976 13.672 -0.976c17.252 0 32.552 4.72 45.898 14.16c0 0 231.934 153.809 231.934 153.809c12.044 8.789 21.565 19.449 28.564 31.982c6.999 12.533 10.498 26.286 10.498 41.26c0 24.088 -8.545 44.596 -25.635 61.523c-17.089 16.927 -37.516 25.391 -61.279 25.391c-17.904 0 -34.017 -5.046 -48.34 -15.137c0 0 -231.933 -153.808 -231.933 -153.808c-22.787 -15.3 -34.994 -36.622 -36.621 -63.965c0 0 -111.329 -74.219 -111.329 -74.219c0 0 -51.757 77.148 -51.757 77.148c-4.558 6.511 -10.58 9.766 -18.067 9.766c-4.557 0 -8.626 -1.302 -12.207 -3.906c17.904 12.695 27.018 28.971 27.344 48.828c0 8.138 -1.709 15.869 -5.127 23.193c-3.418 7.324 -7.975 13.998 -13.672 20.02c-5.697 6.022 -12.207 10.823 -19.531 14.404c-7.324 3.581 -14.893 5.371 -22.705 5.371c-11.393 0 -21.485 -2.93 -30.274 -8.789c0 0 -250.976 -166.992 -250.976 -166.992c-15.951 -10.742 -23.926 -25.716 -23.926 -44.922c0 0 0 0 0 0" />
  </g>
</svg>