<svg height="1000px" width="917.96875px" xmlns="http://www.w3.org/2000/svg">
  <g>
    <path d="M0 576.416015625c0 -63.477 11.963 -122.965 35.889 -178.467c23.925 -55.501 56.722 -104.085 98.388 -145.752c41.667 -41.666 90.332 -74.544 145.996 -98.633c55.664 -24.088 115.235 -36.132 178.711 -36.132c63.477 0 123.047 12.044 178.711 36.132c55.664 24.089 104.33 56.967 145.996 98.633c41.667 41.667 74.463 90.332 98.389 145.996c23.926 55.664 35.889 115.072 35.889 178.223c0 25.391 -2.36 51.27 -7.08 77.637c-4.72 26.367 -11.556 52.246 -20.508 77.636c-8.952 25.391 -20.101 49.724 -33.447 72.998c-13.347 23.275 -28.321 44.515 -44.922 63.721c-7.487 9.44 -17.09 14.16 -28.809 14.16c0 0 -648.437 0 -648.437 0c-12.045 0 -21.648 -4.72 -28.809 -14.16c-17.253 -19.206 -32.389 -40.446 -45.41 -63.721c-13.021 -23.274 -24.007 -47.607 -32.959 -72.998c-8.952 -25.39 -15.788 -51.269 -20.508 -77.636c-4.72 -26.367 -7.08 -52.246 -7.08 -77.637c0 0 0 0 0 0m77.148 0c0 15.951 5.453 29.46 16.358 40.527c10.905 11.068 24.333 16.602 40.283 16.602c15.951 0 29.46 -5.534 40.527 -16.602c11.068 -11.067 16.602 -24.576 16.602 -40.527c0 -15.951 -5.615 -29.378 -16.846 -40.283c-11.23 -10.905 -24.658 -16.358 -40.283 -16.358c-15.95 0 -29.378 5.453 -40.283 16.358c-10.905 10.905 -16.358 24.332 -16.358 40.283c0 0 0 0 0 0m94.727 -229.98c0 15.95 5.697 29.622 17.09 41.015c11.393 11.393 24.739 17.09 40.039 17.09c15.95 0 29.622 -5.697 41.016 -17.09c11.393 -11.393 17.089 -25.065 17.089 -41.015c0 -15.951 -5.696 -29.379 -17.089 -40.284c-11.394 -10.905 -25.066 -16.357 -41.016 -16.357c-15.3 0 -28.646 5.452 -40.039 16.357c-11.393 10.905 -17.09 24.333 -17.09 40.284c0 0 0 0 0 0m190.918 383.3c0 26.693 9.359 49.317 28.076 67.871c18.718 18.555 41.423 27.832 68.115 27.832c26.693 0 49.398 -9.277 68.116 -27.832c18.717 -18.554 28.076 -41.178 28.076 -67.871c0 -15.95 -4.232 -30.761 -12.696 -44.433c-8.463 -13.672 -19.368 -25.228 -32.714 -34.668c1.302 -4.558 3.824 -13.509 7.568 -26.856c3.743 -13.346 8.138 -28.89 13.184 -46.631c5.045 -17.74 10.416 -36.295 16.113 -55.664c5.696 -19.368 10.661 -37.353 14.892 -53.955c4.232 -16.601 7.894 -30.924 10.987 -42.968c3.092 -12.045 4.638 -19.043 4.638 -20.997c0 -7.487 -2.848 -13.997 -8.544 -19.531c-5.697 -5.534 -12.289 -8.301 -19.776 -8.301c-6.51 0 -12.288 1.954 -17.334 5.86c-5.045 3.906 -8.545 8.952 -10.498 15.137c0 0 -65.918 237.792 -65.918 237.792c-12.695 0.652 -24.739 3.5 -36.133 8.545c-11.393 5.046 -21.24 11.882 -29.541 20.508c-8.3 8.627 -14.811 18.636 -19.531 30.029c-4.72 11.394 -7.08 23.438 -7.08 36.133c0 0 0 0 0 0m39.062 -478.027c0 15.95 5.534 29.378 16.602 40.283c11.068 10.905 24.577 16.358 40.527 16.358c15.951 0 29.46 -5.453 40.528 -16.358c11.067 -10.905 16.601 -24.333 16.601 -40.283c0 -15.951 -5.534 -29.46 -16.601 -40.527c-11.068 -11.068 -24.577 -16.602 -40.528 -16.602c-15.95 0 -29.459 5.534 -40.527 16.602c-11.068 11.067 -16.602 24.576 -16.602 40.527c0 0 0 0 0 0m229.004 94.727c0 15.95 5.697 29.459 17.09 40.527c11.393 11.068 25.065 16.601 41.016 16.601c15.95 0 29.459 -5.533 40.527 -16.601c11.068 -11.068 16.602 -24.577 16.602 -40.527c0 -15.951 -5.534 -29.379 -16.602 -40.284c-11.068 -10.905 -24.577 -16.357 -40.527 -16.357c-15.951 0 -29.623 5.452 -41.016 16.357c-11.393 10.905 -17.09 24.333 -17.09 40.284c0 0 0 0 0 0m96.192 229.98c0 15.951 5.534 29.46 16.601 40.527c11.068 11.068 24.577 16.602 40.528 16.602c15.95 0 29.378 -5.534 40.283 -16.602c10.905 -11.067 16.357 -24.576 16.357 -40.527c0 -15.951 -5.452 -29.378 -16.357 -40.283c-10.905 -10.905 -24.333 -16.358 -40.283 -16.358c-15.951 0 -29.46 5.453 -40.528 16.358c-11.067 10.905 -16.601 24.332 -16.601 40.283c0 0 0 0 0 0" />
  </g>
</svg>