<svg height="1000px" width="899.90234375px" xmlns="http://www.w3.org/2000/svg">
  <g>
    <path d="M0 836.9140625c0 0 0 -187.012 0 -187.012c0 -10.742 3.662 -19.775 10.986 -27.099c7.325 -7.325 16.358 -10.987 27.1 -10.987c0 0 64.941 0 64.941 0c0 0 0 -74.707 0 -74.707c0 -17.903 6.511 -33.203 19.532 -45.898c13.02 -12.695 28.483 -19.043 46.386 -19.043c0 0 252.93 0 252.93 0c0 0 0 -84.961 0 -84.961c0 0 -65.918 0 -65.918 0c-10.091 0 -18.799 -3.499 -26.123 -10.498c-7.324 -6.999 -10.986 -15.869 -10.986 -26.611c0 0 0 -187.989 0 -187.989c0 -10.091 3.662 -18.799 10.986 -26.123c7.324 -7.324 16.032 -10.986 26.123 -10.986c0 0 187.988 0 187.988 0c10.091 0 18.799 3.662 26.123 10.986c7.325 7.324 10.987 16.032 10.987 26.123c0 0 0 187.989 0 187.989c0 10.742 -3.662 19.612 -10.987 26.611c-7.324 6.999 -16.032 10.498 -26.123 10.498c0 0 -65.918 0 -65.918 0c0 0 0 84.961 0 84.961c0 0 252.93 0 252.93 0c17.904 0 33.366 6.266 46.387 18.799c13.021 12.532 19.531 27.913 19.531 46.142c0 0 0 74.707 0 74.707c0 0 65.918 0 65.918 0c10.091 0 18.799 3.662 26.123 10.987c7.324 7.324 10.986 16.357 10.986 27.099c0 0 0 187.012 0 187.012c0 10.742 -3.662 19.775 -10.986 27.1c-7.324 7.324 -16.032 10.986 -26.123 10.986c0 0 -187.988 0 -187.988 0c-10.742 0 -19.532 -3.662 -26.367 -10.986c-6.836 -7.325 -10.254 -16.358 -10.254 -27.1c0 0 0 -187.012 0 -187.012c0 -10.742 3.499 -19.775 10.498 -27.099c6.998 -7.325 15.706 -10.987 26.123 -10.987c0 0 66.406 0 66.406 0c0 0 0 -74.707 0 -74.707c0 -5.859 -3.418 -8.952 -10.254 -9.277c0 0 -252.93 0 -252.93 0c0 0 0 83.984 0 83.984c0 0 65.918 0 65.918 0c10.091 0 18.799 3.662 26.123 10.987c7.325 7.324 10.987 16.357 10.987 27.099c0 0 0 187.012 0 187.012c0 10.742 -3.662 19.775 -10.987 27.1c-7.324 7.324 -16.032 10.986 -26.123 10.986c0 0 -187.988 0 -187.988 0c-10.091 0 -18.799 -3.662 -26.123 -10.986c-7.324 -7.325 -10.986 -16.358 -10.986 -27.1c0 0 0 -187.012 0 -187.012c0 -10.742 3.662 -19.775 10.986 -27.099c7.324 -7.325 16.032 -10.987 26.123 -10.987c0 0 65.918 0 65.918 0c0 0 0 -83.984 0 -83.984c0 0 -252.93 0 -252.93 0c-6.51 0 -9.765 3.092 -9.765 9.277c0 0 0 74.707 0 74.707c0 0 65.918 0 65.918 0c10.742 0 19.775 3.662 27.099 10.987c7.324 7.324 10.987 16.357 10.987 27.099c0 0 0 187.012 0 187.012c0 10.742 -3.663 19.775 -10.987 27.1c-7.324 7.324 -16.357 10.986 -27.099 10.986c0 0 -187.012 0 -187.012 0c-10.742 0 -19.775 -3.662 -27.1 -10.986c-7.324 -7.325 -10.986 -16.358 -10.986 -27.1c0 0 0 0 0 0" />
  </g>
</svg>