<svg height="1000px" width="779.78515625px" xmlns="http://www.w3.org/2000/svg">
  <g>
    <path d="M0 687.01171875c0 0 0 -524.902 0 -524.902c0 -10.091 3.662 -18.799 10.986 -26.123c7.325 -7.325 16.358 -10.987 27.1 -10.987c0 0 449.707 0 449.707 0c10.091 0 18.799 3.662 26.123 10.987c7.324 7.324 10.986 16.032 10.986 26.123c0 0 0 112.793 0 112.793c0 0 16.114 0 16.114 0c0 0 29.785 0 29.785 0c8.138 0 17.171 2.197 27.099 6.591c9.929 4.395 17.985 9.196 24.17 14.405c0 0 136.719 137.207 136.719 137.207c5.859 5.859 10.824 13.834 14.893 23.926c4.069 10.091 6.103 19.043 6.103 26.855c0 0 0 30.273 0 30.273c0 0 0 331.055 0 331.055c0 8.789 -2.767 15.951 -8.301 21.485c-5.533 5.533 -12.695 8.3 -21.484 8.3c0 0 -419.922 0 -419.922 0c-8.789 0 -16.032 -2.848 -21.728 -8.545c-5.697 -5.696 -8.545 -12.776 -8.545 -21.24c0 0 0 -120.117 0 -120.117c0 0 -261.719 0 -261.719 0c-10.742 0 -19.775 -3.662 -27.1 -10.986c-7.324 -7.325 -10.986 -16.358 -10.986 -27.1c0 0 0 0 0 0m134.766 -457.031c0 3.906 1.546 7.405 4.638 10.498c3.093 3.092 6.592 4.638 10.498 4.638c0 0 225.098 0 225.098 0c3.906 0 7.406 -1.546 10.498 -4.638c3.092 -3.093 4.639 -6.592 4.639 -10.498c0 0 0 -29.785 0 -29.785c0 -3.907 -1.547 -7.406 -4.639 -10.498c-3.092 -3.093 -6.592 -4.639 -10.498 -4.639c0 0 -225.098 0 -225.098 0c-3.906 0 -7.405 1.465 -10.498 4.394c-3.092 2.93 -4.638 6.511 -4.638 10.743c0 0 0 29.785 0 29.785c0 0 0 0 0 0m225.097 584.961c0 0 360.352 0 360.352 0c0 0 0 -270.996 0 -270.996c0 0 -179.199 0 -179.199 0c-8.789 0 -15.951 -2.849 -21.485 -8.545c-5.534 -5.697 -8.301 -12.777 -8.301 -21.241c0 0 0 -179.199 0 -179.199c0 0 -151.367 0 -151.367 0c0 0 0 479.981 0 479.981c0 0 0 0 0 0m210.938 -331.055c0 0 149.414 0 149.414 0c0 -0.651 -0.57 -1.953 -1.709 -3.906c-1.139 -1.953 -2.035 -3.581 -2.686 -4.883c0 0 -136.718 -136.231 -136.718 -136.231c0 -1.302 -0.977 -1.953 -2.93 -1.953c-0.651 0 -0.977 -0.162 -0.977 -0.488c0 -0.325 -0.325 -0.488 -0.976 -0.488c-0.651 0 -1.221 -0.163 -1.709 -0.489c-0.489 -0.325 -1.058 -0.488 -1.709 -0.488c0 0 0 148.926 0 148.926c0 0 0 0 0 0" />
  </g>
</svg>