<svg height="1000" width="428.571" xmlns="http://www.w3.org/2000/svg"><path d="M0 457.066v-111.6q0 -8.928 6.138 -15.066t15.066 -6.138h68.076v-57.474q0 -98.766 49.104 -147.033t148.986 -48.267q66.96 0 125.55 16.74 7.812 2.232 12.276 8.928t3.348 14.508l-15.066 108.81q-1.116 8.928 -8.928 14.508 -7.812 5.022 -16.74 3.348 -42.408 -8.928 -75.33 -8.928 -27.342 0 -34.596 8.649t-7.254 37.107v49.104h121.086q8.928 0 15.066 6.696 6.138 7.254 5.58 16.182l-7.812 111.6q-1.116 8.37 -6.975 14.229t-14.229 5.859h-112.716v428.544q0 8.928 -6.138 15.066t-14.508 6.138h-139.5q-8.928 0 -15.066 -6.138t-6.138 -15.066v-428.544h-68.076q-8.928 0 -15.066 -6.417t-6.138 -15.345z"/></svg>