<svg height="1000" width="857.143" xmlns="http://www.w3.org/2000/svg"><path d="M729.306 512.308l12.834 -122.202h-110.484v-60.822q0 -27.342 8.649 -38.223t39.897 -10.881h61.38v-122.202h-97.65q-84.816 0 -121.644 40.176t-36.828 118.854v73.098h-73.098v122.202h73.098v354.33h146.196v-354.33h97.65zm127.782 -280.116v535.68q0 66.402 -47.151 113.553t-113.553 47.151h-535.68q-66.402 0 -113.553 -47.151t-47.151 -113.553v-535.68q0 -66.402 47.151 -113.553t113.553 -47.151h535.68q66.402 0 113.553 47.151t47.151 113.553z"/></svg>