<svg height="1000" width="857.143" xmlns="http://www.w3.org/2000/svg"><path d="M809.658 71.488q19.53 0 33.48 13.95t13.95 33.48v762.228q0 19.53 -13.95 33.48t-33.48 13.95h-218.178v-332.01h111.042l16.74 -129.456h-127.782v-82.584q0 -31.248 13.113 -46.872t51.057 -15.624l68.076 -.558v-115.506q-35.154 -5.022 -99.324 -5.022 -75.888 0 -121.365 44.64t-45.477 126.108v95.418h-111.6v129.456h111.6v332.01h-410.13q-19.53 0 -33.48 -13.95t-13.95 -33.48v-762.228q0 -19.53 13.95 -33.48t33.48 -13.95h762.228z"/></svg>