<svg height="1000px" width="428.57142857142856px" xmlns="http://www.w3.org/2000/svg">
  <g>
    <path d="M0 457.03124999999994c0 0 0 -111.607 0 -111.607c0 -5.953 2.046 -10.975 6.138 -15.067c4.093 -4.092 9.115 -6.138 15.067 -6.138c0 0 68.081 0 68.081 0c0 0 0 -57.478 0 -57.478c0 -65.848 16.369 -114.863 49.107 -147.043c32.738 -32.18 82.403 -48.27 148.995 -48.27c44.643 0 86.496 5.581 125.558 16.741c5.209 1.488 9.301 4.465 12.277 8.929c2.976 4.464 4.092 9.301 3.348 14.509c0 0 -15.067 108.817 -15.067 108.817c-0.744 5.952 -3.72 10.789 -8.928 14.509c-5.208 3.348 -10.789 4.464 -16.741 3.348c-28.274 -5.952 -53.386 -8.929 -75.335 -8.929c-18.229 0 -29.762 2.884 -34.598 8.65c-4.837 5.766 -7.255 18.136 -7.255 37.109c0 0 0 49.108 0 49.108c0 0 121.094 0 121.094 0c5.952 0 10.975 2.232 15.067 6.696c4.092 4.836 5.952 10.231 5.58 16.183c0 0 -7.812 111.607 -7.812 111.607c-0.744 5.58 -3.069 10.324 -6.976 14.23c-3.906 3.906 -8.649 5.859 -14.229 5.859c0 0 -112.724 0 -112.724 0c0 0 0 428.572 0 428.572c0 5.952 -2.046 10.975 -6.138 15.067c-4.092 4.092 -8.929 6.138 -14.509 6.138c0 0 -139.509 0 -139.509 0c-5.952 0 -10.975 -2.046 -15.067 -6.138c-4.092 -4.092 -6.138 -9.115 -6.138 -15.067c0 0 0 -428.572 0 -428.572c0 0 -68.081 0 -68.081 0c-5.952 0 -10.974 -2.139 -15.067 -6.417c-4.092 -4.278 -6.138 -9.394 -6.138 -15.346c0 0 0 0 0 0" />
  </g>
</svg>