<svg height="1000px" width="750px" xmlns="http://www.w3.org/2000/svg">
  <g>
    <path d="M0.9765625 780.76171875c0 0 0 -561.523 0 -561.523c0 -12.696 2.523 -24.903 7.568 -36.622c5.046 -11.718 11.719 -21.728 20.02 -30.029c8.301 -8.301 18.148 -14.974 29.541 -20.019c11.393 -5.046 23.437 -7.569 36.133 -7.569c0 0 562.988 0 562.988 0c26.042 0 48.177 9.196 66.406 27.588c18.229 18.392 27.344 40.609 27.344 66.651c0 0 0 561.523 0 561.523c0 13.346 -2.523 25.716 -7.568 37.109c-5.046 11.394 -11.719 21.241 -20.02 29.541c-8.301 8.301 -18.31 14.974 -30.029 20.02c-11.719 5.045 -23.763 7.568 -36.133 7.568c0 0 -237.305 0 -237.305 0c0 0 0 -313.965 0 -313.965c0 0 83.985 0 83.985 0c3.906 0 7.405 -1.302 10.498 -3.906c3.092 -2.604 4.638 -6.022 4.638 -10.254c0 0 5.86 -82.031 5.86 -82.031c0 -4.557 -1.302 -8.464 -3.906 -11.719c-3.256 -3.255 -6.999 -4.883 -11.231 -4.883c0 0 -89.844 0 -89.844 0c0 0 0 -36.132 0 -36.132c0 -13.347 1.709 -22.217 5.127 -26.612c3.418 -4.394 12.126 -6.591 26.123 -6.591c8.138 0 17.172 0.651 27.1 1.953c9.928 1.302 19.45 3.092 28.564 5.371c1.953 0 4.151 -0.244 6.592 -0.733c2.442 -0.488 4.313 -1.383 5.615 -2.685c3.256 -1.953 5.534 -5.534 6.836 -10.742c0 0 11.231 -79.102 11.231 -79.102c1.302 -9.44 -2.767 -15.137 -12.207 -17.09c-29.297 -8.138 -59.896 -12.044 -91.797 -11.719c-97.982 0 -146.973 47.689 -146.973 143.067c0 0 0 41.015 0 41.015c0 0 -50.293 0 -50.293 0c-10.742 0 -15.95 5.209 -15.625 15.625c0 0 0 82.032 0 82.032c0 3.906 1.465 7.405 4.395 10.498c2.929 3.092 6.673 4.638 11.23 4.638c0 0 50.293 0 50.293 0c0 0 0 313.965 0 313.965c0 0 -191.894 0 -191.894 0c-12.696 0 -24.74 -2.523 -36.133 -7.568c-11.393 -5.046 -21.24 -11.719 -29.541 -20.02c-8.301 -8.3 -14.974 -18.147 -20.02 -29.541c-5.045 -11.393 -7.568 -23.763 -7.568 -37.109c0 0 0 0 0 0" />
  </g>
</svg>