<svg height="1000px" width="750px" xmlns="http://www.w3.org/2000/svg">
  <g>
    <path d="M1 781c0 0 0 -562 0 -562c0 -12.667 2.5 -24.833 7.5 -36.5c5 -11.667 11.667 -21.667 20 -30c8.333 -8.333 18.167 -15 29.5 -20c11.333 -5 23.333 -7.5 36 -7.5c0 0 563 0 563 0c26 0 48.167 9.167 66.5 27.5c18.333 18.333 27.5 40.5 27.5 66.5c0 0 0 562 0 562c0 13.333 -2.5 25.667 -7.5 37c-5 11.333 -11.667 21.167 -20 29.5c-8.333 8.333 -18.333 15 -30 20c-11.667 5 -23.833 7.5 -36.5 7.5c0 0 -237 0 -237 0c0 0 0 -314 0 -314c0 0 84 0 84 0c4 0 7.5 -1.333 10.5 -4c3 -2.667 4.5 -6 4.5 -10c0 0 6 -82 6 -82c0 -4.667 -1.333 -8.667 -4 -12c-3.333 -3.333 -7 -5 -11 -5c0 0 -90 0 -90 0c0 0 0 -36 0 -36c0 -13.333 1.667 -22.167 5 -26.5c3.333 -4.333 12 -6.5 26 -6.5c8 0 17 0.667 27 2c10 1.333 19.667 3 29 5c2 0 4.167 -0.167 6.5 -0.5c2.333 -0.333 4.167 -1.167 5.5 -2.5c3.333 -2 5.667 -5.667 7 -11c0 0 11 -79 11 -79c1.333 -9.333 -2.667 -15 -12 -17c-29.333 -8 -60 -12 -92 -12c-98 0 -147 47.667 -147 143c0 0 0 41 0 41c0 0 -50 0 -50 0c-10.667 0 -16 5.333 -16 16c0 0 0 82 0 82c0 4 1.5 7.5 4.5 10.5c3 3 6.833 4.5 11.5 4.5c0 0 50 0 50 0c0 0 0 314 0 314c0 0 -192 0 -192 0c-12.667 0 -24.667 -2.5 -36 -7.5c-11.333 -5 -21.167 -11.667 -29.5 -20c-8.333 -8.333 -15 -18.167 -20 -29.5c-5 -11.333 -7.5 -23.667 -7.5 -37c0 0 0 0 0 0" />
  </g>
</svg>