<svg height="1000" width="857.143" xmlns="http://www.w3.org/2000/svg"><path d="M696.384 71.488q66.402 0 113.553 47.151t47.151 113.553v535.68q0 66.402 -47.151 113.553t-113.553 47.151h-104.904v-332.01h111.042l16.74 -129.456h-127.782v-82.584q0 -31.248 13.113 -46.872t51.057 -15.624l68.076 -.558v-115.506q-35.154 -5.022 -99.324 -5.022 -75.888 0 -121.365 44.64t-45.477 126.108v95.418h-111.6v129.456h111.6v332.01h-296.856q-66.402 0 -113.553 -47.151t-47.151 -113.553v-535.68q0 -66.402 47.151 -113.553t113.553 -47.151h535.68z"/></svg>