<svg height="1000" width="857.143" xmlns="http://www.w3.org/2000/svg"><path d="M0 767.872v-535.68q0 -66.402 47.151 -113.553t113.553 -47.151h535.68q66.402 0 113.553 47.151t47.151 113.553v535.68q0 66.402 -47.151 113.553t-113.553 47.151h-107.136v-339.264h113.274l16.74 -124.992h-130.014v-79.794q0 -30.132 15.624 -46.314t53.568 -16.182l73.656 -.558v-115.506q-53.568 -5.022 -100.44 -5.022 -75.888 0 -121.644 44.919t-45.756 125.829v92.628h-124.992v124.992h124.992v339.264h-303.552q-66.402 0 -113.553 -47.151t-47.151 -113.553z"/></svg>