<svg height="1000" width="857.1" xmlns="http://www.w3.org/2000/svg"><path d="M0 767.9v-535.7q0-66.4 47.2-113.6t113.6-47.2h535.7q66.4 0 113.6 47.2t47.2 113.6v535.7q0 66.4-47.2 113.6t-113.6 47.2h-195.3q-1.1 0-1.1-.6v-374.4h98.8q17.3 0 17.9-12.8l6.7-91.5q1.1-8.4-4.5-14-5.6-6.7-13.4-6.7h-105.5v-40.2q0-24.6 6.4-31.8t30.4-7.3q31.8 0 65.3 7.3 7.3 1.7 14.5-2.8 6.1-4.5 7.3-12.3l12.8-92.6q1.1-6.7-3.1-12.6t-10.9-7.5q-51.9-14.5-109.9-14.5-173.5 0-173.5 166.8v47.4h-53q-7.3 0-12.8 5.9t-5.6 13.7v96q0 4.5 3.1 6.7t5.6 2.5 9.8.3h53v374.4l5.6.6h-184.1q-66.4 0-113.6-47.2t-47.2-113.6z"/></svg>