<svg height="1000" width="858" xmlns="http://www.w3.org/2000/svg"><path d="M0 767.872l0-535.68q0-66.402 47.151-113.553t113.553-47.151l535.68 0q66.402 0 113.553 47.151t47.151 113.553l0 535.68q0 66.402-47.151 113.553t-113.553 47.151l-195.3 0q-1.116 0-1.116-.558l0-374.418l98.766 0q17.298 0 17.856-12.834l6.696-91.512q1.116-8.37-4.464-13.95-5.58-6.696-13.392-6.696l-105.462 0l0-40.176q0-24.552 6.417-31.806t30.411-7.254q31.806 0 65.286 7.254 7.254 1.674 14.508-2.79 6.138-4.464 7.254-12.276l12.834-92.628q1.116-6.696-3.069-12.555t-10.881-7.533q-51.894-14.508-109.926-14.508-173.538 0-173.538 166.842l0 47.43l-53.01 0q-7.254 0-12.834 5.859t-5.58 13.671l0 95.976q0 4.464 3.069 6.696t5.58 2.511 9.765.279l53.01 0l0 374.418l5.58.558l-184.14 0q-66.402 0-113.553-47.151t-47.151-113.553z"/></svg>