<svg height="1000px" width="857.1428571428571px" xmlns="http://www.w3.org/2000/svg">
  <g>
    <path d="M267.8571428571429 544.0848214285713c0 6.324 6.138 9.487 18.415 9.487c0 0 53.014 0 53.014 0c0 0 0 374.442 0 374.442c0 0 5.58 0.558 5.58 0.558c0 0 -184.152 0 -184.152 0c-44.271 0 -82.124 -15.718 -113.56 -47.154c-31.436 -31.436 -47.154 -69.29 -47.154 -113.561c0 0 0 -535.714 0 -535.714c0 -44.271 15.718 -82.124 47.154 -113.56c31.436 -31.436 69.289 -47.154 113.56 -47.154c0 0 535.714 0 535.714 0c44.271 0 82.125 15.718 113.561 47.154c31.436 31.436 47.154 69.289 47.154 113.56c0 0 0 535.714 0 535.714c0 44.271 -15.718 82.125 -47.154 113.561c-31.436 31.436 -69.29 47.154 -113.561 47.154c0 0 -195.312 0 -195.312 0c-0.744 0 -1.116 -0.186 -1.116 -0.558c0 0 0 -374.442 0 -374.442c0 0 98.772 0 98.772 0c11.533 0 17.485 -4.279 17.857 -12.835c0 0 6.697 -91.518 6.697 -91.518c0.744 -5.58 -0.744 -10.417 -4.465 -14.509c-3.72 -4.092 -8.184 -6.138 -13.392 -6.138c0 0 -105.469 0 -105.469 0c0 0 0 -40.179 0 -40.179c0 -16.369 2.139 -26.972 6.417 -31.808c4.279 -4.836 15.718 -7.254 34.319 -7.254c18.602 0 39.063 2.418 61.384 7.254c4.837 1.116 9.673 0.186 14.509 -2.79c4.093 -2.976 6.511 -7.069 7.255 -12.277c0 0 12.835 -92.634 12.835 -92.634c0.744 -4.464 -0.279 -8.649 -3.07 -12.556c-2.79 -3.906 -6.417 -6.417 -10.881 -7.533c-34.599 -9.673 -71.243 -14.509 -109.933 -14.509c-115.7 0 -173.549 55.617 -173.549 166.853c0 0 0 47.433 0 47.433c0 0 -53.014 0 -53.014 0c-4.836 0 -9.114 1.953 -12.835 5.859c-3.72 3.906 -5.58 8.464 -5.58 13.672c0 0 0 95.982 0 95.982c0 0 0 0 0 0" />
  </g>
</svg>