<svg height="1000px" width="428.57142857142856px" xmlns="http://www.w3.org/2000/svg">
  <g>
    <path d="M387.83482142857144 238.28125c-28.274 -5.952 -52.455 -8.929 -72.545 -8.929c-20.089 0 -32.552 2.884 -37.388 8.65c-4.836 5.766 -7.255 18.136 -7.255 37.109c0 0 0 49.108 0 49.108c0 0 121.094 0 121.094 0c5.953 0 10.975 2.325 15.067 6.975c4.092 4.65 5.953 9.952 5.581 15.904c0 0 -7.813 111.607 -7.813 111.607c-0.744 5.58 -3.069 10.324 -6.975 14.23c-3.907 3.906 -8.65 5.859 -14.23 5.859c0 0 -112.724 0 -112.724 0c0 0 0 428.572 0 428.572c0 5.952 -2.046 10.975 -6.138 15.067c-4.092 4.092 -8.928 6.138 -14.509 6.138c0 0 -139.509 0 -139.509 0c-5.952 0 -10.974 -2.046 -15.067 -6.138c-4.092 -4.092 -6.138 -9.115 -6.138 -15.067c0 0 0 -428.572 0 -428.572c0 0 -68.08 0 -68.08 0c-5.953 0 -10.975 -2.139 -15.067 -6.417c-4.093 -4.278 -6.139 -9.394 -6.139 -15.346c0 0 0 -111.607 0 -111.607c0 -5.953 2.046 -10.975 6.139 -15.067c4.092 -4.092 9.114 -6.139 15.067 -6.139c0 0 68.08 0 68.08 0c0 0 0 -57.477 0 -57.477c0 -65.848 16.369 -114.863 49.107 -147.043c32.738 -32.18 82.403 -48.27 148.996 -48.27c44.642 0 86.495 5.581 125.558 16.741c5.208 1.488 9.3 4.465 12.276 8.929c2.977 4.464 4.093 9.301 3.349 14.509c0 0 -15.067 108.817 -15.067 108.817c-0.744 5.952 -3.721 10.696 -8.929 14.23c-5.208 3.534 -10.789 4.743 -16.741 3.627c0 0 0 0 0 0" />
  </g>
</svg>