<svg height="1000px" width="928.5714285714286px" xmlns="http://www.w3.org/2000/svg">
  <g>
    <path d="M68.08035714285714 499.99999999999994c0 -9.673 3.534 -18.043 10.603 -25.112c0 0 396.205 -396.205 396.205 -396.205c5.372 -5.372 10.099 -8.058 14.182 -8.058c1.289 0 2.514 0.268 3.675 0.804c4.836 2.232 7.255 8.184 7.255 17.857c0 0 0 396.205 0 396.205c1.86 -4.092 4.278 -7.626 7.254 -10.603c0 0 396.205 -396.205 396.205 -396.205c5.372 -5.372 10.1 -8.058 14.183 -8.058c1.289 0 2.514 0.268 3.675 0.804c4.836 2.232 7.254 8.184 7.254 17.857c0 0 0 821.428 0 821.428c0 9.673 -2.418 15.625 -7.254 17.857c-1.161 0.536 -2.386 0.804 -3.675 0.804c-4.083 0 -8.811 -2.686 -14.183 -8.058c0 0 -396.205 -396.205 -396.205 -396.205c-2.976 -3.349 -5.394 -6.883 -7.254 -10.603c0 0 0 396.205 0 396.205c0 9.673 -2.419 15.625 -7.255 17.857c-1.161 0.536 -2.386 0.804 -3.675 0.804c-4.083 0 -8.81 -2.686 -14.182 -8.058c0 0 -396.205 -396.205 -396.205 -396.205c-7.069 -7.069 -10.603 -15.439 -10.603 -25.112c0 0 0 0 0 0" />
  </g>
</svg>