<svg height="1000px" width="750px" xmlns="http://www.w3.org/2000/svg">
  <g>
    <path d="M0 500.1063346862793c0 -8.464 2.604 -15.625 7.813 -21.484c0 0 319.335 -345.215 319.335 -345.215c4.558 -5.86 11.231 -8.789 20.02 -8.789c3.255 0 6.836 0.976 10.742 2.929c11.393 4.558 17.09 13.835 17.09 27.832c0 0 0 689.454 0 689.454c0 13.346 -5.697 22.623 -17.09 27.832c-12.044 5.208 -22.298 2.929 -30.762 -6.836c0 0 -319.335 -344.239 -319.335 -344.239c-5.209 -5.859 -7.813 -13.02 -7.813 -21.484c0 0 0 0 0 0m375 0c0 -8.464 2.604 -15.625 7.813 -21.484c0 0 319.335 -345.215 319.335 -345.215c4.558 -5.86 11.231 -8.789 20.02 -8.789c3.255 0 6.836 0.976 10.742 2.929c11.393 4.558 17.09 13.835 17.09 27.832c0 0 0 689.454 0 689.454c0 13.346 -5.697 22.623 -17.09 27.832c-12.044 5.208 -22.298 2.929 -30.762 -6.836c0 0 -319.335 -344.239 -319.335 -344.239c-5.209 -5.859 -7.813 -13.02 -7.813 -21.484c0 0 0 0 0 0" />
  </g>
</svg>