<svg height="1000px" width="928.5714285714286px" xmlns="http://www.w3.org/2000/svg">
  <g>
    <path d="M0 910.7142857142857c0 0 0 -821.429 0 -821.429c0 -9.672 2.418 -15.625 7.254 -17.857c4.837 -2.232 10.789 0.186 17.858 7.255c0 0 396.205 396.205 396.205 396.205c2.976 2.976 5.394 6.511 7.254 10.603c0 0 0 -396.206 0 -396.206c0 -9.672 2.419 -15.625 7.255 -17.857c4.836 -2.232 10.789 0.186 17.857 7.255c0 0 396.205 396.205 396.205 396.205c7.069 7.069 10.603 15.439 10.603 25.112c0 9.672 -3.534 18.043 -10.603 25.111c0 0 -396.205 396.206 -396.205 396.206c-7.068 7.068 -13.021 9.486 -17.857 7.254c-4.836 -2.232 -7.255 -8.184 -7.255 -17.857c0 0 0 -396.205 0 -396.205c-1.86 3.72 -4.278 7.254 -7.254 10.602c0 0 -396.205 396.206 -396.205 396.206c-7.069 7.068 -13.021 9.486 -17.858 7.254c-4.836 -2.232 -7.254 -8.184 -7.254 -17.857c0 0 0 0 0 0" />
  </g>
</svg>