<svg height="1000px" width="750px" xmlns="http://www.w3.org/2000/svg">
  <g>
    <path d="M0 845.1665954589844c0 0 0 -690 0 -690c0 -12.667 5.667 -22 17 -28c12.667 -4.667 23 -2.333 31 7c0 0 319 344 319 344c5.333 6 8 13.333 8 22c0 8.667 -2.667 16 -8 22c0 0 -319 344 -319 344c-5.333 6 -12 9 -20 9c-2 0 -5.667 -0.667 -11 -2c-11.333 -5.333 -17 -14.667 -17 -28c0 0 0 0 0 0m375 0c0 0 0 -690 0 -690c0 -12.667 5.667 -22 17 -28c12.667 -4.667 23 -2.333 31 7c0 0 319 344 319 344c5.333 6 8 13.333 8 22c0 8.667 -2.667 16 -8 22c0 0 -319 344 -319 344c-5.333 6 -12 9 -20 9c-2 0 -5.667 -0.667 -11 -2c-11.333 -5.333 -17 -14.667 -17 -28c0 0 0 0 0 0" />
  </g>
</svg>