<svg height="1000px" width="750px" xmlns="http://www.w3.org/2000/svg">
  <g>
    <path d="M0 845.3775346279144c0 0 0 -690.43 0 -690.43c0 -12.695 5.697 -21.972 17.09 -27.832c12.695 -4.557 22.949 -2.278 30.762 6.836c0 0 319.336 344.238 319.336 344.238c5.208 5.86 7.812 13.184 7.812 21.973c0 8.789 -2.604 16.113 -7.813 21.973c0 0 -319.335 344.238 -319.335 344.238c-5.209 5.859 -11.882 8.789 -20.02 8.789c-1.953 0 -5.534 -0.651 -10.742 -1.953c-11.393 -5.208 -17.09 -14.486 -17.09 -27.832c0 0 0 0 0 0m375 0c0 0 0 -690.43 0 -690.43c0 -12.695 5.697 -21.972 17.09 -27.832c12.695 -4.557 22.949 -2.278 30.762 6.836c0 0 319.335 344.238 319.335 344.238c5.209 5.86 7.813 13.184 7.813 21.973c0 8.789 -2.604 16.113 -7.813 21.973c0 0 -319.335 344.238 -319.335 344.238c-5.209 5.859 -11.882 8.789 -20.02 8.789c-1.953 0 -5.534 -0.651 -10.742 -1.953c-11.393 -5.208 -17.09 -14.486 -17.09 -27.832c0 0 0 0 0 0" />
  </g>
</svg>