<svg height="1000px" width="928.5714285714286px" xmlns="http://www.w3.org/2000/svg">
  <g>
    <path d="M68.08035714285714 499.99999999999994c0 -9.673 3.534 -18.043 10.603 -25.112c0 0 396.205 -396.205 396.205 -396.205c7.068 -7.068 13.021 -9.487 17.857 -7.254c4.836 2.232 7.255 8.184 7.255 17.857c0 0 0 396.205 0 396.205c1.86 -4.092 4.278 -7.626 7.254 -10.603c0 0 396.205 -396.205 396.205 -396.205c7.069 -7.068 13.021 -9.487 17.858 -7.254c4.836 2.232 7.254 8.184 7.254 17.857c0 0 0 821.428 0 821.428c0 9.673 -2.418 15.625 -7.254 17.857c-4.837 2.233 -10.789 -0.186 -17.858 -7.254c0 0 -396.205 -396.205 -396.205 -396.205c-2.976 -3.349 -5.394 -6.883 -7.254 -10.603c0 0 0 396.205 0 396.205c0 9.673 -2.419 15.625 -7.255 17.857c-4.836 2.233 -10.789 -0.186 -17.857 -7.254c0 0 -396.205 -396.205 -396.205 -396.205c-7.069 -7.069 -10.603 -15.439 -10.603 -25.112c0 0 0 0 0 0" />
  </g>
</svg>