<svg height="1000px" width="750px" xmlns="http://www.w3.org/2000/svg">
  <g>
    <path d="M0 500.1088562011719c0 -8.333 2.667 -15.5 8 -21.5c0 0 319 -345 319 -345c4.667 -6 11.333 -9 20 -9c3.333 0 7 1 11 3c11.333 4.667 17 14 17 28c0 0 0 689 0 689c0 13.333 -5.667 22.667 -17 28c-12 5.333 -22.333 3 -31 -7c0 0 -319 -344 -319 -344c-5.333 -6 -8 -13.167 -8 -21.5c0 0 0 0 0 0m375 0c0 -8.333 2.667 -15.5 8 -21.5c0 0 319 -345 319 -345c4.667 -6 11.333 -9 20 -9c3.333 0 7 1 11 3c11.333 4.667 17 14 17 28c0 0 0 689 0 689c0 13.333 -5.667 22.667 -17 28c-12 5.333 -22.333 3 -31 -7c0 0 -319 -344 -319 -344c-5.333 -6 -8 -13.167 -8 -21.5c0 0 0 0 0 0" />
  </g>
</svg>