<svg height="1000" width="1000" xmlns="http://www.w3.org/2000/svg"><path d="M160.704 214.336q36.828 0 63.054 26.226t26.226 63.054v607.104q0 36.828 -26.226 63.054t-63.054 26.226h-71.424q-36.828 0 -63.054 -26.226t-26.226 -63.054v-607.104q0 -36.828 26.226 -63.054t63.054 -26.226h71.424zm767.808 90.954q32.364 18.972 51.894 51.894t19.53 71.424v428.544q0 59.148 -41.85 100.998t-100.998 41.85h-482.112q-36.828 0 -63.054 -26.226t-26.226 -63.054v-857.088q0 -22.32 15.624 -37.944t37.944 -15.624h374.976q22.32 0 49.104 11.16t42.408 26.784l84.816 84.816q15.624 15.624 26.784 42.408t11.16 49.104v90.954zm-410.688 551.862v-71.424q0 -7.812 -5.022 -12.834t-12.834 -5.022h-71.424q-7.812 0 -12.834 5.022t-5.022 12.834v71.424q0 7.812 5.022 12.834t12.834 5.022h71.424q7.812 0 12.834 -5.022t5.022 -12.834zm0 -142.848v-71.424q0 -7.812 -5.022 -12.834t-12.834 -5.022h-71.424q-7.812 0 -12.834 5.022t-5.022 12.834v71.424q0 7.812 5.022 12.834t12.834 5.022h71.424q7.812 0 12.834 -5.022t5.022 -12.834zm0 -142.848v-71.424q0 -7.812 -5.022 -12.834t-12.834 -5.022h-71.424q-7.812 0 -12.834 5.022t-5.022 12.834v71.424q0 7.812 5.022 12.834t12.834 5.022h71.424q7.812 0 12.834 -5.022t5.022 -12.834zm142.848 285.696v-71.424q0 -7.812 -5.022 -12.834t-12.834 -5.022h-71.424q-7.812 0 -12.834 5.022t-5.022 12.834v71.424q0 7.812 5.022 12.834t12.834 5.022h71.424q7.812 0 12.834 -5.022t5.022 -12.834zm0 -142.848v-71.424q0 -7.812 -5.022 -12.834t-12.834 -5.022h-71.424q-7.812 0 -12.834 5.022t-5.022 12.834v71.424q0 7.812 5.022 12.834t12.834 5.022h71.424q7.812 0 12.834 -5.022t5.022 -12.834zm0 -142.848v-71.424q0 -7.812 -5.022 -12.834t-12.834 -5.022h-71.424q-7.812 0 -12.834 5.022t-5.022 12.834v71.424q0 7.812 5.022 12.834t12.834 5.022h71.424q7.812 0 12.834 -5.022t5.022 -12.834zm142.848 285.696v-71.424q0 -7.812 -5.022 -12.834t-12.834 -5.022h-71.424q-7.812 0 -12.834 5.022t-5.022 12.834v71.424q0 7.812 5.022 12.834t12.834 5.022h71.424q7.812 0 12.834 -5.022t5.022 -12.834zm0 -142.848v-71.424q0 -7.812 -5.022 -12.834t-12.834 -5.022h-71.424q-7.812 0 -12.834 5.022t-5.022 12.834v71.424q0 7.812 5.022 12.834t12.834 5.022h71.424q7.812 0 12.834 -5.022t5.022 -12.834zm0 -142.848v-71.424q0 -7.812 -5.022 -12.834t-12.834 -5.022h-71.424q-7.812 0 -12.834 5.022t-5.022 12.834v71.424q0 7.812 5.022 12.834t12.834 5.022h71.424q7.812 0 12.834 -5.022t5.022 -12.834zm53.568 -214.272v-142.848h-89.28q-22.32 0 -37.944 -15.624t-15.624 -37.944v-89.28h-357.12v285.696h499.968z"/></svg>