<svg height="1000" width="1000" xmlns="http://www.w3.org/2000/svg"><path d="M160.7 214.3q36.8 0 63.1 26.2t26.2 63.1v607.1q0 36.8 -26.2 63.1t-63.1 26.2H89.3q-36.8 0 -63.1 -26.2T0 910.7V303.6q0 -36.9 26.2 -63.1t63.1 -26.2h71.4zm767.9 90.9q32.3 19 51.9 51.9t19.5 71.5v428.5q0 59.2 -41.9 101t-101 41.9H375q-36.8 0 -63.1 -26.2t-26.2 -63.1V53.6q0 -22.3 15.6 -38T339.3 0h375q22.3 0 49.1 11.2t42.4 26.7l84.8 84.9q15.7 15.6 26.8 42.4t11.2 49.1v90.9zM517.9 857.1v-71.4q0 -7.8 -5.1 -12.8t-12.8 -5h-71.4q-7.8 0 -12.9 5t-5 12.8v71.4q0 7.9 5 12.9t12.9 5H500q7.8 0 12.8 -5t5.1 -12.9zm0 -142.8v-71.4q0 -7.9 -5.1 -12.9T500 625h-71.4q-7.8 0 -12.9 5t-5 12.9v71.4q0 7.8 5 12.8t12.9 5H500q7.8 0 12.8 -5t5.1 -12.8zm0 -142.9V500q0 -7.8 -5.1 -12.8T500 482.1h-71.4q-7.8 0 -12.9 5.1t-5 12.8v71.4q0 7.8 5 12.9t12.9 5H500q7.8 0 12.8 -5t5.1 -12.9zm142.8 285.7v-71.4q0 -7.8 -5 -12.8t-12.8 -5h-71.5q-7.8 0 -12.8 5t-5 12.8v71.4q0 7.9 5 12.9t12.8 5h71.5q7.8 0 12.8 -5t5 -12.9zm0 -142.8v-71.4q0 -7.9 -5 -12.9t-12.8 -5h-71.5q-7.8 0 -12.8 5t-5 12.9v71.4q0 7.8 5 12.8t12.8 5h71.5q7.8 0 12.8 -5t5 -12.8zm0 -142.9V500q0 -7.8 -5 -12.8t-12.8 -5.1h-71.5q-7.8 0 -12.8 5.1t-5 12.8v71.4q0 7.8 5 12.9t12.8 5h71.5q7.8 0 12.8 -5t5 -12.9zm142.9 285.7v-71.4q0 -7.8 -5.1 -12.8t-12.8 -5h-71.4q-7.8 0 -12.8 5t-5.1 12.8v71.4q0 7.9 5.1 12.9t12.8 5h71.4q7.8 0 12.8 -5t5.1 -12.9zm0 -142.8v-71.4q0 -7.9 -5.1 -12.9t-12.8 -5h-71.4q-7.8 0 -12.8 5t-5.1 12.9v71.4q0 7.8 5.1 12.8t12.8 5h71.4q7.8 0 12.8 -5t5.1 -12.8zm0 -142.9V500q0 -7.8 -5.1 -12.8t-12.8 -5.1h-71.4q-7.8 0 -12.8 5.1t-5.1 12.8v71.4q0 7.8 5.1 12.9t12.8 5h71.4q7.8 0 12.8 -5t5.1 -12.9zm53.5 -214.3V214.3h-89.2q-22.4 0 -38 -15.6t-15.6 -38V71.4H357.1v285.7h500z"/></svg>