<svg height="1000" width="714.286" xmlns="http://www.w3.org/2000/svg"><path d="M714.24 589.312q0 22.32 -15.624 37.944t-37.944 15.624q-28.458 0 -44.64 -23.994l-126.666 -190.278h-25.11v73.656l137.826 229.338q5.022 8.37 5.022 18.414 0 14.508 -10.602 25.11t-25.11 10.602h-107.136v151.776q0 25.668 -18.414 44.082t-44.082 18.414h-89.28q-25.668 0 -44.082 -18.414t-18.414 -44.082v-151.776h-107.136q-14.508 0 -25.11 -10.602t-10.602 -25.11q0 -10.044 5.022 -18.414l137.826 -229.338v-73.656h-25.11l-126.666 190.278q-16.182 23.994 -44.64 23.994 -22.32 0 -37.944 -15.624t-15.624 -37.944q0 -16.182 8.928 -29.574l142.848 -214.272q40.734 -59.706 98.208 -59.706h214.272q57.474 0 98.208 59.706l142.848 214.272q8.928 13.392 8.928 29.574zm-232.128 -446.4q0 51.894 -36.549 88.443t-88.443 36.549 -88.443 -36.549 -36.549 -88.443 36.549 -88.443 88.443 -36.549 88.443 36.549 36.549 88.443z"/></svg>