<svg height="1000" width="1071.4" xmlns="http://www.w3.org/2000/svg"><path d="M0 500v-71.4l107.1-13.4v-4.5h-71.4v-17.9h-17.9v-107.1l17.9-17.9h53.6l107.1 125h89.3v-232.1h-35.7v-17.9h178.6q14.5 0 25.1 2.5t10.6 6.4-10.6 6.4-25.1 2.5h-38.5l163.5 196.4h35.7l125 35.7 196.4 17.9q145.6 32.4 160.1 51.9l.6 1.7q-.6 17.9-160.7 53.6l-196.4 17.9-125 35.7h-35.7l-163.5 196.4h38.5q14.5 0 25.1 2.5t10.6 6.4-10.6 6.4-25.1 2.5h-178.60000000000002v-17.9h35.7v-232.1h-89.3l-107.1 125h-53.6l-17.9-17.9v-107.1h17.9v-17.9h71.4v-4.5z"/></svg>