<svg height="1000" width="1071.429" xmlns="http://www.w3.org/2000/svg"><path d="M1071.36 535.744q-.558 17.856 -160.704 53.568l-196.416 17.856 -124.992 35.712h-35.712l-163.494 196.416h38.502q14.508 0 25.11 2.511t10.602 6.417 -10.602 6.417 -25.11 2.511h-178.56v-17.856h35.712v-232.128h-89.28l-107.136 124.992h-53.568l-17.856 -17.856v-107.136h17.856v-17.856h71.424v-4.464l-107.136 -13.392v-71.424l107.136 -13.392v-4.464h-71.424v-17.856h-17.856v-107.136l17.856 -17.856h53.568l107.136 124.992h89.28v-232.128h-35.712v-17.856h178.56q14.508 0 25.11 2.511t10.602 6.417 -10.602 6.417 -25.11 2.511h-38.502l163.494 196.416h35.712l124.992 35.712 196.416 17.856q145.638 32.364 160.146 51.894z"/></svg>