<svg height="1000px" width="1071.4285714285716px" xmlns="http://www.w3.org/2000/svg">
  <g>
    <path d="M0 499.99999999999994c0 0 0 -71.429 0 -71.429c0 0 107.143 -13.392 107.143 -13.392c0 0 0 -4.465 0 -4.465c0 0 -71.429 0 -71.429 0c0 0 0 -17.857 0 -17.857c0 0 -17.857 0 -17.857 0c0 0 0 -107.143 0 -107.143c0 0 17.857 -17.857 17.857 -17.857c0 0 53.572 0 53.572 0c0 0 107.143 125 107.143 125c0 0 89.285 0 89.285 0c0 0 0 -232.143 0 -232.143c0 0 -35.714 0 -35.714 0c0 0 0 -17.857 0 -17.857c0 0 35.714 0 35.714 0c0 0 89.286 0 89.286 0c0 0 53.571 0 53.571 0c9.673 0 18.044 0.837 25.112 2.511c7.068 1.674 10.603 3.814 10.603 6.418c0 2.604 -3.535 4.743 -10.603 6.417c-7.068 1.674 -15.439 2.511 -25.112 2.511c0 0 -38.504 0 -38.504 0c0 0 163.504 196.429 163.504 196.429c0 0 35.715 0 35.715 0c0 0 125 35.714 125 35.714c0 0 196.428 17.857 196.428 17.857c97.098 21.578 150.484 38.877 160.157 51.898c0 0 0.558 1.674 0.558 1.674c-0.372 11.904 -53.944 29.762 -160.715 53.571c0 0 -196.428 17.857 -196.428 17.857c0 0 -125 35.715 -125 35.715c0 0 -35.715 0 -35.715 0c0 0 -163.504 196.428 -163.504 196.428c0 0 38.504 0 38.504 0c9.673 0 18.044 0.837 25.112 2.511c7.068 1.674 10.603 3.814 10.603 6.418c0 2.604 -3.535 4.743 -10.603 6.417c-7.068 1.674 -15.439 2.511 -25.112 2.511c0 0 -53.571 0 -53.571 0c0 0 -89.286 0 -89.286 0c0 0 -35.714 0 -35.714 0c0 0 0 -17.857 0 -17.857c0 0 35.714 0 35.714 0c0 0 0 -232.143 0 -232.143c0 0 -89.285 0 -89.285 0c0 0 -107.143 125 -107.143 125c0 0 -53.572 0 -53.572 0c0 0 -17.857 -17.857 -17.857 -17.857c0 0 0 -107.143 0 -107.143c0 0 17.857 0 17.857 0c0 0 0 -17.857 0 -17.857c0 0 71.429 0 71.429 0c0 0 0 -4.464 0 -4.464c0 0 -107.143 -13.393 -107.143 -13.393" />
  </g>
</svg>