<svg height="1000" width="1071.4" xmlns="http://www.w3.org/2000/svg"><path d="M1071.4 535.7q-.5 17.9 -160.7 53.6l-196.4 17.8 -125 35.8h-35.7L390.1 839.3h38.5q14.5 0 25.1 2.5t10.6 6.4 -10.6 6.4 -25.1 2.5H250v-17.8h35.7V607.1h-89.3l-107.1 125H35.7L17.9 714.3V607.1h17.8v-17.8h71.4v-4.5L0 571.4V500l107.1 -13.4v-4.5H35.7v-17.8H17.9V357.1l17.8 -17.8h53.6l107.1 125h89.3V232.1H250v-17.8h178.6q14.5 0 25.1 2.5t10.6 6.4 -10.6 6.4 -25.1 2.5h-38.5l163.5 196.5h35.7l125 35.7 196.4 17.8q145.7 32.4 160.2 51.9z"/></svg>