<svg height="1000" width="1054" xmlns="http://www.w3.org/2000/svg"><path d="M-17.856 500.032l0-71.424l107.136-13.392l0-4.464l-71.424 0l0-17.856l-17.856 0l0-107.136l17.856-17.856l53.568 0l107.136 124.992l89.28 0l0-232.128l-35.712 0l0-17.856l178.56 0q14.508 0 25.11 2.511t10.602 6.417-10.602 6.417-25.11 2.511l-38.502 0l163.494 196.416l35.712 0l124.992 35.712 196.416 17.856q145.638 32.364 160.146 51.894l.558 1.674q-.558 17.856-160.704 53.568l-196.416 17.856-124.992 35.712l-35.712 0l-163.494 196.416l38.502 0q14.508 0 25.11 2.511t10.602 6.417-10.602 6.417-25.11 2.511l-178.56 0l0-17.856l35.712 0l0-232.128l-89.28 0l-107.136 124.992l-53.568 0l-17.856-17.856l0-107.136l17.856 0l0-17.856l71.424 0l0-4.464z"/></svg>