<svg height="1000px" width="1071.4285714285716px" xmlns="http://www.w3.org/2000/svg">
  <g>
    <path d="M464.2857142857143 151.78571428571422c0 5.952 -11.905 8.929 -35.714 8.929c0 0 -38.505 0 -38.505 0c0 0 163.505 196.428 163.505 196.428c0 0 35.714 0 35.714 0c0 0 125 35.714 125 35.714c0 0 196.429 17.858 196.429 17.858c97.098 21.577 150.483 38.876 160.156 51.897c0 0 0.558 1.674 0.558 1.674c-0.372 11.905 -53.944 29.762 -160.714 53.571c0 0 -196.429 17.858 -196.429 17.858c0 0 -125 35.714 -125 35.714c0 0 -35.714 0 -35.714 0c0 0 -163.505 196.428 -163.505 196.428c0 0 38.505 0 38.505 0c23.809 0 35.714 2.977 35.714 8.929c0 5.952 -11.905 8.929 -35.714 8.929c0 0 -178.572 0 -178.572 0c0 0 0 -17.858 0 -17.858c0 0 35.715 0 35.715 0c0 0 0 -232.142 0 -232.142c0 0 -89.286 0 -89.286 0c0 0 -107.143 125 -107.143 125c0 0 -53.571 0 -53.571 0c0 0 -17.858 -17.858 -17.858 -17.858c0 0 0 -107.142 0 -107.142c0 0 17.858 0 17.858 0c0 0 0 -17.858 0 -17.858c0 0 71.428 0 71.428 0c0 0 0 -4.464 0 -4.464c0 0 -107.143 -13.393 -107.143 -13.393c0 0 0 -71.428 0 -71.428c0 0 107.143 -13.393 107.143 -13.393c0 0 0 -4.464 0 -4.464c0 0 -71.428 0 -71.428 0c0 0 0 -17.858 0 -17.858c0 0 -17.858 0 -17.858 0c0 0 0 -107.142 0 -107.142c0 0 17.858 -17.858 17.858 -17.858c0 0 53.571 0 53.571 0c0 0 107.143 125 107.143 125c0 0 89.286 0 89.286 0c0 0 0 -232.142 0 -232.142c0 0 -35.715 0 -35.715 0c0 0 0 -17.858 0 -17.858c0 0 178.572 0 178.572 0c23.809 0 35.714 2.977 35.714 8.929c0 0 0 0 0 0" />
  </g>
</svg>