<svg height="1000" width="857.1" xmlns="http://www.w3.org/2000/svg"><path d="M819.2 212.1q15.6 15.6 26.8 42.4t11.1 49.1v642.8q0 22.4 -15.6 38t-37.9 15.6h-750q-22.3 0 -38 -15.6T0 946.4V53.6q0 -22.4 15.6 -38T53.6 0h500q22.3 0 49.1 11.2t42.4 26.7zM571.4 75.9v209.8h209.9Q775.7 269.5 769 262.8L594.3 88.2q-6.7 -6.7 -22.9 -12.3zm214.3 852.7V357.1H553.6q-22.3 0 -38 -15.6T500 303.6V71.4H71.4v857.2h714.3zM239.4 798v59.1h156.8V798h-41.8l57.4 -89.9q2.8 -3.9 5.6 -9.2t4.2 -7.5 1.9 -2.2h1.2q.5 2.2 2.8 5.6 1.1 2.2 2.5 4.1t3.3 4.5 3.6 4.7l59.8 89.9h-42.5v59.1h162.4V798h-37.9L471.5 645.6 580.4 488.3h37.3v-59.7H462.1v59.7h41.2L445.9 577q-2.3 3.9 -5.6 9.2t-5 7.5l-1.1 1.7H433q-.5 -2.2 -2.8 -5.6 -3.3 -6.1 -9.4 -12.8l-59.2 -88.7H404v-59.7H242.2v59.7h37.9l105.5 151.8L277.3 798h-37.9z"/></svg>