<svg height="1000" width="857.143" xmlns="http://www.w3.org/2000/svg"><path d="M0 946.432v-892.8q0 -22.32 15.624 -37.944t37.944 -15.624h499.968q22.32 0 49.104 11.16t42.408 26.784l174.096 174.096q15.624 15.624 26.784 42.408t11.16 49.104v642.816q0 22.32 -15.624 37.944t-37.944 15.624h-749.952q-22.32 0 -37.944 -15.624t-15.624 -37.944zm71.424 -17.856h714.24v-571.392h-232.128q-22.32 0 -37.944 -15.624t-15.624 -37.944v-232.128h-428.544v857.088zm160.704 -71.424h182.466v-59.148h-51.894v-93.186h76.446q42.408 0 65.844 -8.37 37.386 -12.834 59.427 -48.546t22.041 -81.468q0 -45.198 -20.646 -78.678t-55.8 -48.546q-26.784 -10.602 -72.54 -10.602h-205.344v59.706h51.336v309.69h-51.336v59.148zm130.572 -215.388v-149.544h66.96q29.016 0 46.314 10.044 31.248 18.414 31.248 64.17 0 49.662 -34.596 66.96 -17.298 8.37 -43.524 8.37h-66.402zm208.692 -356.004h209.808q-5.58 -16.182 -12.276 -22.878l-174.654 -174.654q-6.696 -6.696 -22.878 -12.276v209.808z"/></svg>