<svg height="1000" width="857.1" xmlns="http://www.w3.org/2000/svg"><path d="M819.2 212.1q15.6 15.6 26.8 42.4t11.1 49.1v642.8q0 22.4 -15.6 38t-37.9 15.6h-750q-22.3 0 -38 -15.6T0 946.4V53.6q0 -22.4 15.6 -38T53.6 0h500q22.3 0 49.1 11.2t42.4 26.7zM571.4 75.9v209.8h209.9Q775.7 269.5 769 262.8L594.3 88.2q-6.7 -6.7 -22.9 -12.3zm214.3 852.7V357.1H553.6q-22.3 0 -38 -15.6T500 303.6V71.4H71.4v857.2h714.3zM130 428.6v59.7h39.1l91.5 368.8h88.7l71.5 -270.6q3.9 -11.2 5.5 -25.7 1.2 -8.9 1.2 -13.4h2.2l1.7 13.4q.5 1.7 1.9 11.2t3.1 14.5l71.4 270.6h88.7l91.6 -368.8h39v-59.7H559.7v59.7h50.2l-55.2 244.4q-2.8 11.2 -3.9 25.7l-1.1 11.7h-2.3l-1.6 -11.7q-.6 -2.8 -2.3 -11.7t-2.8 -14L460.4 428.6h-63.6l-80.4 304.1q-1.1 5 -2.5 13.7t-2 12l-2.2 11.7h-2.2l-1.1 -11.7q-1.2 -14.5 -3.9 -25.7L247.2 488.3h50.2v-59.7H130z"/></svg>