<svg height="1000" width="857.1" xmlns="http://www.w3.org/2000/svg"><path d="M819.2 212.1q15.6 15.6 26.8 42.4t11.1 49.1v642.8q0 22.4 -15.6 38t-37.9 15.6h-750q-22.3 0 -38 -15.6T0 946.4V53.6q0 -22.4 15.6 -38T53.6 0h500q22.3 0 49.1 11.2t42.4 26.7zM571.4 75.9v209.8h209.9Q775.7 269.5 769 262.8L594.3 88.2q-6.7 -6.7 -22.9 -12.3zm214.3 852.7V357.1H553.6q-22.3 0 -38 -15.6T500 303.6V71.4H71.4v857.2h714.3zM232.1 798v59.1h182.5V798h-51.9v-93.2h76.5q42.4 0 65.8 -8.4 37.4 -12.8 59.5 -48.5t22 -81.5q0 -45.2 -20.7 -78.7T510 439.2q-26.7 -10.6 -72.5 -10.6H232.1v59.7h51.4V798h-51.4zm197 -156.3h-66.4V492.2h67q29 0 46.3 10 31.3 18.4 31.3 64.2 0 49.7 -34.6 67 -17.3 8.3 -43.6 8.3z"/></svg>