<svg height="1000" width="857.143" xmlns="http://www.w3.org/2000/svg"><path d="M819.144 212.104q15.624 15.624 26.784 42.408t11.16 49.104v642.816q0 22.32 -15.624 37.944t-37.944 15.624h-749.952q-22.32 0 -37.944 -15.624t-15.624 -37.944v-892.8q0 -22.32 15.624 -37.944t37.944 -15.624h499.968q22.32 0 49.104 11.16t42.408 26.784zm-247.752 -136.152v209.808h209.808q-5.58 -16.182 -12.276 -22.878l-174.654 -174.654q-6.696 -6.696 -22.878 -12.276zm214.272 852.624v-571.392h-232.128q-22.32 0 -37.944 -15.624t-15.624 -37.944v-232.128h-428.544v857.088h714.24zm-546.282 -130.572v59.148h156.798v-59.148h-41.85l57.474 -89.838q2.79 -3.906 5.58 -9.207t4.185 -7.533 1.953 -2.232h1.116q.558 2.232 2.79 5.58 1.116 2.232 2.511 4.185t3.348 4.464 3.627 4.743l59.706 89.838h-42.408v59.148h162.378v-59.148h-37.944l-107.136 -152.334 108.81 -157.356h37.386v-59.706h-155.682v59.706h41.292l-57.474 88.722q-2.232 3.906 -5.58 9.207t-5.022 7.533l-1.116 1.674h-1.116q-.558 -2.232 -2.79 -5.58 -3.348 -6.138 -9.486 -12.834l-59.148 -88.722h42.408v-59.706h-161.82v59.706h37.944l105.462 151.776 -108.252 157.914h-37.944z"/></svg>