<svg height="1000" width="857.143" xmlns="http://www.w3.org/2000/svg"><path d="M819.144 212.104q15.624 15.624 26.784 42.408t11.16 49.104v642.816q0 22.32 -15.624 37.944t-37.944 15.624h-749.952q-22.32 0 -37.944 -15.624t-15.624 -37.944v-892.8q0 -22.32 15.624 -37.944t37.944 -15.624h499.968q22.32 0 49.104 11.16t42.408 26.784zm-247.752 -136.152v209.808h209.808q-5.58 -16.182 -12.276 -22.878l-174.654 -174.654q-6.696 -6.696 -22.878 -12.276zm214.272 852.624v-571.392h-232.128q-22.32 0 -37.944 -15.624t-15.624 -37.944v-232.128h-428.544v857.088h714.24zm-286.812 -330.894q18.414 14.508 46.872 31.248 32.922 -3.906 65.286 -3.906 82.026 0 98.766 27.342 8.928 12.276 1.116 29.016 0 .558 -.558 1.116l-1.116 1.116v.558q-3.348 21.204 -39.618 21.204 -26.784 0 -64.17 -11.16t-72.54 -29.574q-123.318 13.392 -218.736 46.314 -85.374 146.196 -135.036 146.196 -8.37 0 -15.624 -3.906l-13.392 -6.696q-.558 -.558 -3.348 -2.79 -5.58 -5.58 -3.348 -20.088 5.022 -22.32 31.248 -51.057t73.656 -53.847q7.812 -5.022 12.834 3.348 1.116 1.116 1.116 2.232 29.016 -47.43 59.706 -109.926 37.944 -75.888 58.032 -146.196 -13.392 -45.756 -17.019 -89.001t3.627 -71.145q6.138 -22.32 23.436 -22.32h12.276q12.834 0 19.53 8.37 10.044 11.718 5.022 37.944 -1.116 3.348 -2.232 4.464 .558 1.674 .558 4.464v16.74q-1.116 68.634 -7.812 107.136 30.69 91.512 81.468 132.804zm-321.408 229.338q29.016 -13.392 76.446 -88.164 -28.458 22.32 -48.825 46.872t-27.621 41.292zm222.084 -513.36q-8.37 23.436 -1.116 73.656 .558 -3.906 3.906 -24.552 0 -1.674 3.906 -23.994 .558 -2.232 2.232 -4.464 -.558 -.558 -.558 -1.116t-.279 -.837 -.279 -.837q-.558 -12.276 -7.254 -20.088 0 .558 -.558 1.116v1.116zm-69.192 368.838q75.33 -30.132 158.472 -45.198 -1.116 -.558 -7.254 -5.301t-8.928 -7.533q-42.408 -37.386 -70.866 -98.208 -15.066 47.988 -46.314 109.926 -16.74 31.248 -25.11 46.314zm360.468 -8.928q-13.392 -13.392 -78.12 -13.392 42.408 15.624 69.192 15.624 7.812 0 10.044 -.558 0 -.558 -1.116 -1.674z"/></svg>