<svg height="1000" width="857.143" xmlns="http://www.w3.org/2000/svg"><path d="M819.144 212.104q15.624 15.624 26.784 42.408t11.16 49.104v642.816q0 22.32 -15.624 37.944t-37.944 15.624h-749.952q-22.32 0 -37.944 -15.624t-15.624 -37.944v-892.8q0 -22.32 15.624 -37.944t37.944 -15.624h499.968q22.32 0 49.104 11.16t42.408 26.784zm-247.752 -136.152v209.808h209.808q-5.58 -16.182 -12.276 -22.878l-174.654 -174.654q-6.696 -6.696 -22.878 -12.276zm214.272 852.624v-571.392h-232.128q-22.32 0 -37.944 -15.624t-15.624 -37.944v-232.128h-428.544v857.088h714.24zm-439.704 -454.212q11.16 4.464 11.16 16.74v303.552q0 12.276 -11.16 16.74 -4.464 1.116 -6.696 1.116 -6.696 0 -12.834 -5.022l-92.628 -93.186h-73.098q-7.812 0 -12.834 -5.022t-5.022 -12.834v-107.136q0 -7.812 5.022 -12.834t12.834 -5.022h73.098l92.628 -93.186q8.928 -8.37 19.53 -3.906zm232.686 384.462q17.298 0 27.9 -13.392 71.982 -88.722 71.982 -202.554t-71.982 -202.554q-8.928 -11.718 -23.994 -13.392t-26.226 7.812q-11.718 9.486 -13.113 24.273t8.091 26.505q55.8 68.634 55.8 157.356t-55.8 157.356q-9.486 11.718 -8.091 26.505t13.113 23.715q10.044 8.37 22.32 8.37zm-117.738 -82.584q15.066 0 26.226 -11.16 48.546 -51.894 48.546 -122.202t-48.546 -122.202q-10.044 -10.602 -25.11 -11.16t-25.668 9.486 -11.16 24.831 10.044 25.947q29.016 31.806 29.016 73.098t-29.016 73.098q-10.602 11.16 -10.044 25.947t11.16 24.831q11.16 9.486 24.552 9.486z"/></svg>