<svg height="1000" width="857.143" xmlns="http://www.w3.org/2000/svg"><path d="M819.144 212.104q15.624 15.624 26.784 42.408t11.16 49.104v642.816q0 22.32 -15.624 37.944t-37.944 15.624h-749.952q-22.32 0 -37.944 -15.624t-15.624 -37.944v-892.8q0 -22.32 15.624 -37.944t37.944 -15.624h499.968q22.32 0 49.104 11.16t42.408 26.784zm-247.752 -136.152v209.808h209.808q-5.58 -16.182 -12.276 -22.878l-174.654 -174.654q-6.696 -6.696 -22.878 -12.276zm214.272 852.624v-571.392h-232.128q-22.32 0 -37.944 -15.624t-15.624 -37.944v-232.128h-428.544v857.088h714.24zm-357.12 -499.968q29.016 0 50.22 21.204t21.204 50.22v214.272q0 29.016 -21.204 50.22t-50.22 21.204h-214.272q-29.016 0 -50.22 -21.204t-21.204 -50.22v-214.272q0 -29.016 21.204 -50.22t50.22 -21.204h214.272zm274.536 1.116q11.16 4.464 11.16 16.74v321.408q0 12.276 -11.16 16.74 -4.464 1.116 -6.696 1.116 -7.812 0 -12.834 -5.022l-147.87 -148.428v-50.22l147.87 -148.428q5.022 -5.022 12.834 -5.022 2.232 0 6.696 1.116z"/></svg>