<svg height="1000" width="857.1" xmlns="http://www.w3.org/2000/svg"><path d="M357.1 214.3v-71.4h-71.4v71.4h71.4zm71.5 71.4v-71.4h-71.5v71.4h71.5zm-71.5 71.4v-71.4h-71.4v71.4h71.4zm71.5 71.5v-71.5h-71.5v71.5h71.5zM819.2 212.1q15.6 15.6 26.8 42.4t11.1 49.1v642.8q0 22.4 -15.6 38t-37.9 15.6h-750q-22.3 0 -38 -15.6T0 946.4V53.6q0 -22.4 15.6 -38T53.6 0h500q22.3 0 49.1 11.2t42.4 26.7zM571.4 75.9v209.8h209.9Q775.7 269.5 769 262.8L594.3 88.2q-6.7 -6.7 -22.9 -12.3zm214.3 852.7V357.1H553.6q-22.3 0 -38 -15.6T500 303.6V71.4h-71.4v71.5h-71.5V71.4H71.4v857.2h714.3zM435.8 526.2L495.5 721q4.5 15 4.5 29 0 46.3 -40.5 76.7t-102.4 30.4T254.7 826.7 214.3 750q0 -14 4.5 -29 11.7 -35.2 66.9 -221v-71.4h71.4V500h44.1q12.3 0 21.8 7.3t12.8 18.9zm-78.7 259.5q29.6 0 50.5 -10.6t21 -25.1 -21 -25.1 -50.5 -10.6 -50.5 10.6T285.7 750t20.9 25.1 50.5 10.6z"/></svg>