<svg height="1000" width="857.1" xmlns="http://www.w3.org/2000/svg"><path d="M819.2 212.1q15.6 15.6 26.8 42.4t11.1 49.1v642.8q0 22.4 -15.6 38t-37.9 15.6h-750q-22.3 0 -38 -15.6T0 946.4V53.6q0 -22.4 15.6 -38T53.6 0h500q22.3 0 49.1 11.2t42.4 26.7zM571.4 75.9v209.8h209.9Q775.7 269.5 769 262.8L594.3 88.2q-6.7 -6.7 -22.9 -12.3zm214.3 852.7V357.1H553.6q-22.3 0 -38 -15.6T500 303.6V71.4H71.4v857.2h714.3zm-357.1 -500q29 0 50.2 21.2T500 500v214.3q0 29 -21.2 50.2t-50.2 21.2H214.3q-29 0 -50.2 -21.2t-21.2 -50.2V500q0 -29 21.2 -50.2t50.2 -21.2h214.3zm274.5 1.1q11.2 4.5 11.2 16.7v321.5q0 12.2 -11.2 16.7 -4.4 1.1 -6.7 1.1 -7.8 0 -12.8 -5L535.7 632.3V582L683.6 433.6q5 -5 12.8 -5 2.3 0 6.7 1.1z"/></svg>