<svg height="1000" width="857.143" xmlns="http://www.w3.org/2000/svg"><path d="M0 946.432v-892.8q0 -22.32 15.624 -37.944t37.944 -15.624h499.968q22.32 0 49.104 11.16t42.408 26.784l174.096 174.096q15.624 15.624 26.784 42.408t11.16 49.104v642.816q0 22.32 -15.624 37.944t-37.944 15.624h-749.952q-22.32 0 -37.944 -15.624t-15.624 -37.944zm71.424 -17.856h714.24v-571.392h-232.128q-22.32 0 -37.944 -15.624t-15.624 -37.944v-232.128h-428.544v857.088zm71.424 -71.424v-107.136l107.136 -107.136 71.424 71.424 214.272 -214.272 178.56 178.56v178.56h-571.392zm0 -392.832q0 -44.64 31.248 -75.888t75.888 -31.248 75.888 31.248 31.248 75.888 -31.248 75.888 -75.888 31.248 -75.888 -31.248 -31.248 -75.888zm428.544 -178.56h209.808q-5.58 -16.182 -12.276 -22.878l-174.654 -174.654q-6.696 -6.696 -22.878 -12.276v209.808z"/></svg>