<svg height="1000" width="857.143" xmlns="http://www.w3.org/2000/svg"><path d="M0 946.432v-892.8q0 -22.32 15.624 -37.944t37.944 -15.624h499.968q22.32 0 49.104 11.16t42.408 26.784l174.096 174.096q15.624 15.624 26.784 42.408t11.16 49.104v642.816q0 22.32 -15.624 37.944t-37.944 15.624h-749.952q-22.32 0 -37.944 -15.624t-15.624 -37.944zm71.424 -17.856h714.24v-571.392h-232.128q-22.32 0 -37.944 -15.624t-15.624 -37.944v-232.128h-71.424v71.424h-71.424v-71.424h-285.696v857.088zm142.848 -178.56q0 -13.95 4.464 -29.016 11.718 -35.154 66.96 -220.968v-71.424h71.424v71.424h44.082q12.276 0 21.762 7.254t12.834 18.972l59.706 194.742q4.464 15.066 4.464 29.016 0 46.314 -40.455 76.725t-102.393 30.411 -102.393 -30.411 -40.455 -76.725zm71.424 0q0 14.508 20.925 25.11t50.499 10.602 50.499 -10.602 20.925 -25.11 -20.925 -25.11 -50.499 -10.602 -50.499 10.602 -20.925 25.11zm0 -392.832h71.424v-71.424h-71.424v71.424zm0 -142.848h71.424v-71.424h-71.424v71.424zm71.424 214.272h71.424v-71.424h-71.424v71.424zm0 -142.848h71.424v-71.424h-71.424v71.424zm214.272 0h209.808q-5.58 -16.182 -12.276 -22.878l-174.654 -174.654q-6.696 -6.696 -22.878 -12.276v209.808z"/></svg>