<svg height="1000" width="857.143" xmlns="http://www.w3.org/2000/svg"><path d="M819.144 212.104q15.624 15.624 26.784 42.408t11.16 49.104v642.816q0 22.32 -15.624 37.944t-37.944 15.624h-749.952q-22.32 0 -37.944 -15.624t-15.624 -37.944v-892.8q0 -22.32 15.624 -37.944t37.944 -15.624h499.968q22.32 0 49.104 11.16t42.408 26.784zm-247.752 -136.152v209.808h209.808q-5.58 -16.182 -12.276 -22.878l-174.654 -174.654q-6.696 -6.696 -22.878 -12.276zm214.272 852.624v-571.392h-232.128q-22.32 0 -37.944 -15.624t-15.624 -37.944v-232.128h-428.544v857.088h714.24zm-655.65 -499.968v59.706h39.06l91.512 368.838h88.722l71.424 -270.63q3.906 -11.16 5.58 -25.668 1.116 -8.928 1.116 -13.392h2.232l1.674 13.392q.558 1.674 1.953 11.16t3.069 14.508l71.424 270.63h88.722l91.512 -368.838h39.06v-59.706h-167.4v59.706h50.22l-55.242 244.404q-2.79 11.16 -3.906 25.668l-1.116 11.718h-2.232l-1.674 -11.718q-.558 -2.79 -2.232 -11.718t-2.79 -13.95l-80.352 -304.11h-63.612l-80.352 304.11q-1.116 5.022 -2.511 13.671t-1.953 11.997l-2.232 11.718h-2.232l-1.116 -11.718q-1.116 -14.508 -3.906 -25.668l-55.242 -244.404h50.22v-59.706h-167.4z"/></svg>