<svg height="1000" width="857.1" xmlns="http://www.w3.org/2000/svg"><path d="M819.2 212.1q15.6 15.6 26.8 42.4t11.1 49.1v642.8q0 22.4 -15.6 38t-37.9 15.6h-750q-22.3 0 -38 -15.6T0 946.4V53.6q0 -22.4 15.6 -38T53.6 0h500q22.3 0 49.1 11.2t42.4 26.7zM571.4 75.9v209.8h209.9Q775.7 269.5 769 262.8L594.3 88.2q-6.7 -6.7 -22.9 -12.3zm214.3 852.7V357.1H553.6q-22.3 0 -38 -15.6T500 303.6V71.4H71.4v857.2h714.3zm-517.8 -500q4.4 -6.2 11.7 -7t13.4 3.6l28.4 21.2q6.2 4.5 7 11.7t-3.6 13.4L223.2 607.1l101.6 135.6q4.4 6.2 3.6 13.4t-7 11.8L293 789.1q-6.2 4.4 -13.4 3.6t-11.7 -7l-126.2 -168q-7.8 -10.6 0 -21.2zm447.5 167.9q7.8 10.6 0 21.2l-126.1 168q-4.5 6.2 -11.7 7t-13.4 -3.6l-28.5 -21.2q-6.1 -4.5 -7 -11.8t3.7 -13.4L633.9 607.1 532.4 471.5q-4.5 -6.1 -3.7 -13.4t7 -11.7l28.5 -21.2q6.1 -4.4 13.4 -3.6t11.7 7zm-346 257.3q-7.2 -1.1 -11.4 -7.3t-3.1 -13.4l77 -463.7q1.1 -7.2 7.3 -11.4t13.4 -3.1l35.1 5.6q7.3 1.1 11.5 7.2t3 13.4l-77 463.8q-1.1 7.2 -7.2 11.4t-13.4 3.1z"/></svg>