<svg height="1000" width="857.143" xmlns="http://www.w3.org/2000/svg"><path d="M819.144 212.104q15.624 15.624 26.784 42.408t11.16 49.104v642.816q0 22.32 -15.624 37.944t-37.944 15.624h-749.952q-22.32 0 -37.944 -15.624t-15.624 -37.944v-892.8q0 -22.32 15.624 -37.944t37.944 -15.624h499.968q22.32 0 49.104 11.16t42.408 26.784zm-247.752 -136.152v209.808h209.808q-5.58 -16.182 -12.276 -22.878l-174.654 -174.654q-6.696 -6.696 -22.878 -12.276zm214.272 852.624v-571.392h-232.128q-22.32 0 -37.944 -15.624t-15.624 -37.944v-232.128h-428.544v857.088h714.24zm-517.824 -499.968q4.464 -6.138 11.718 -6.975t13.392 3.627l28.458 21.204q6.138 4.464 6.975 11.718t-3.627 13.392l-101.556 135.594 101.556 135.594q4.464 6.138 3.627 13.392t-6.975 11.718l-28.458 21.204q-6.138 4.464 -13.392 3.627t-11.718 -6.975l-126.108 -167.958q-7.812 -10.602 0 -21.204zm447.516 167.958q7.812 10.602 0 21.204l-126.108 167.958q-4.464 6.138 -11.718 6.975t-13.392 -3.627l-28.458 -21.204q-6.138 -4.464 -6.975 -11.718t3.627 -13.392l101.556 -135.594 -101.556 -135.594q-4.464 -6.138 -3.627 -13.392t6.975 -11.718l28.458 -21.204q6.138 -4.464 13.392 -3.627t11.718 6.975zm-345.96 257.238q-7.254 -1.116 -11.439 -7.254t-3.069 -13.392l77.004 -463.698q1.116 -7.254 7.254 -11.439t13.392 -3.069l35.154 5.58q7.254 1.116 11.439 7.254t3.069 13.392l-77.004 463.698q-1.116 7.254 -7.254 11.439t-13.392 3.069z"/></svg>