<svg height="1000px" width="785.7142857142858px" xmlns="http://www.w3.org/2000/svg">
  <g>
    <path d="M2.7901785714285716 164.62053571428567c6.324 -14.509 17.299 -21.763 32.924 -21.763c0 0 714.286 0 714.286 0c15.625 0 26.6 7.254 32.924 21.763c6.324 15.253 3.72 28.274 -7.813 39.063c0 0 -275.111 275.111 -275.111 275.111c0 0 0 414.063 0 414.063c0 15.625 -7.255 26.599 -21.764 32.924c-4.836 1.86 -9.486 2.79 -13.95 2.79c-10.045 0 -18.416 -3.534 -25.112 -10.603c0 0 -142.857 -142.857 -142.857 -142.857c-7.069 -7.068 -10.603 -15.439 -10.603 -25.112c0 0 0 -271.205 0 -271.205c0 0 -275.111 -275.112 -275.111 -275.112c-11.533 -10.788 -14.137 -23.809 -7.813 -39.062c0 0 0 0 0 0" />
  </g>
</svg>