<svg height="1000px" width="764.6484375px" xmlns="http://www.w3.org/2000/svg">
  <g>
    <path d="M0 155.517578125c0 -10.742 3.662 -19.775 10.986 -27.1c7.325 -7.324 16.358 -10.986 27.1 -10.986c0 0 688.965 0 688.965 0c10.742 0 19.775 3.662 27.099 10.986c7.325 7.325 10.987 16.358 10.987 27.1c0 10.742 -3.744 19.694 -11.231 26.855c0 0 -275.879 275.879 -275.879 275.879c0 0 0 386.231 0 386.231c0 10.742 -3.662 19.775 -10.986 27.099c-7.324 7.325 -16.357 10.987 -27.1 10.987c-10.742 0 -19.694 -3.744 -26.855 -11.231c0 0 -115.234 -114.746 -115.234 -114.746c-7.487 -7.487 -11.068 -16.601 -10.743 -27.344c0 0 0 -270.996 0 -270.996c0 0 -275.879 -275.879 -275.879 -275.879c-7.487 -7.487 -11.23 -16.438 -11.23 -26.855c0 0 0 0 0 0" />
  </g>
</svg>