<svg height="1000px" width="785.7142857142858px" xmlns="http://www.w3.org/2000/svg">
  <g>
    <path d="M750 142.85714285714278c15.625 0 26.6 7.44 32.924 22.321c6.325 14.881 3.72 27.716 -7.812 38.505c0 0 -275.112 275.112 -275.112 275.112c0 0 0 414.062 0 414.062c0 15.625 -7.254 26.6 -21.763 32.924c-4.837 1.86 -10.882 2.79 -18.137 2.79c-7.254 0 -14.229 -3.534 -20.926 -10.602c0 0 -142.857 -142.858 -142.857 -142.858c-7.068 -7.068 -10.603 -15.439 -10.603 -25.111c0 0 0 -271.205 0 -271.205c0 0 -275.111 -275.112 -275.111 -275.112c-11.533 -10.789 -14.137 -23.624 -7.813 -38.505c6.325 -14.881 17.299 -22.321 32.924 -22.321c0 0 714.286 0 714.286 0c0 0 0 0 0 0" />
  </g>
</svg>