<svg height="1000px" width="785.7142857142858px" xmlns="http://www.w3.org/2000/svg">
  <g>
    <path d="M-0.5696595982142857 180.21763392857144c0 -4.757 1.12 -9.771 3.36 -15.041c6.324 -14.881 17.299 -22.322 32.924 -22.322c0 0 714.286 0 714.286 0c15.625 0 26.599 7.441 32.924 22.322c2.24 5.27 3.36 10.284 3.36 15.041c0 8.675 -3.724 16.496 -11.173 23.463c0 0 -275.111 275.112 -275.111 275.112c0 0 0 414.062 0 414.062c0 15.625 -7.255 26.6 -21.764 32.925c-4.836 1.86 -10.881 2.79 -18.136 2.79c-7.254 0 -14.23 -3.534 -20.926 -10.603c0 0 -142.857 -142.857 -142.857 -142.857c-7.069 -7.068 -10.603 -15.439 -10.603 -25.112c0 0 0 -271.205 0 -271.205c0 0 -275.112 -275.112 -275.112 -275.112c-7.448 -6.967 -11.172 -14.788 -11.172 -23.463c0 0 0 0 0 0" />
  </g>
</svg>