<svg height="1000px" width="705.56640625px" xmlns="http://www.w3.org/2000/svg">
  <g>
    <path d="M0 659.423828125c0 -40.039 10.335 -81.38 31.006 -124.023c20.67 -42.644 49.072 -81.381 85.205 -116.211c3.255 -5.209 8.708 -7.325 16.357 -6.348c7.65 0.977 12.777 4.395 15.381 10.254c1.302 5.208 1.302 9.928 0 14.16c-2.604 11.393 -4.883 25.065 -6.836 41.016c-1.953 15.95 -2.604 32.47 -1.953 49.56c0.651 17.09 2.767 33.61 6.348 49.561c3.581 15.95 9.765 29.622 18.555 41.015c10.091 12.045 22.786 20.02 38.085 23.926c-15.95 -50.13 -22.46 -97.819 -19.531 -143.066c2.93 -45.248 10.905 -87.403 23.926 -126.465c13.021 -39.063 29.541 -74.382 49.561 -105.957c20.019 -31.576 39.306 -58.757 57.861 -81.543c18.555 -22.787 34.505 -40.121 47.851 -52.002c13.347 -11.882 20.345 -18.311 20.997 -19.287c8.138 -5.86 15.787 -5.86 22.949 0c3.255 2.604 5.452 6.103 6.592 10.498c1.139 4.394 1.057 8.382 -0.245 11.963c0 0.651 -2.522 7.568 -7.568 20.752c-5.046 13.183 -8.545 29.785 -10.498 49.804c-1.953 20.02 -0.814 41.911 3.418 65.674c4.232 23.763 15.788 45.899 34.668 66.406c12.044 13.998 23.031 27.833 32.959 41.504c9.928 13.672 18.392 28.89 25.391 45.655c6.998 16.764 12.532 36.295 16.601 58.593c4.069 22.299 6.104 48.747 6.104 79.346c0 10.742 -5.046 17.09 -15.137 19.043c-3.906 0.651 -7.894 0 -11.963 -1.953c-4.069 -1.953 -6.755 -5.046 -8.057 -9.277c-4.557 -10.091 -11.393 -18.067 -20.507 -23.926c-9.115 -5.86 -19.369 -8.789 -30.762 -8.789c-15.3 0 -28.239 5.452 -38.819 16.357c-10.579 10.905 -15.869 24.17 -15.869 39.795c0 39.388 25.391 58.919 76.172 58.594c31.901 0 56.804 -10.254 74.707 -30.762c12.044 -13.997 20.752 -30.517 26.123 -49.56c5.371 -19.043 8.708 -37.679 10.01 -55.909c1.302 -18.229 1.628 -34.912 0.977 -50.048c-0.651 -15.137 -1.302 -25.31 -1.954 -30.518c-1.953 -3.906 -1.953 -8.626 0 -14.16c2.605 -5.859 7.732 -9.277 15.381 -10.254c7.65 -0.977 13.428 1.139 17.334 6.348c36.133 34.505 64.372 73.16 84.717 115.966c20.345 42.806 30.518 84.229 30.518 124.268c0 35.482 -8.382 67.301 -25.147 95.459c-16.764 28.158 -40.446 52.246 -71.045 72.266c-30.599 20.019 -67.708 35.563 -111.328 46.63c-43.62 11.068 -92.122 16.602 -145.508 16.602c-53.385 0 -101.888 -5.534 -145.507 -16.602c-43.62 -11.067 -80.811 -26.611 -111.573 -46.63c-30.761 -20.02 -54.443 -44.19 -71.045 -72.51c-16.601 -28.32 -24.902 -60.059 -24.902 -95.215c0 0 0 0 0 0" />
  </g>
</svg>