<svg height="1000" width="785.714" xmlns="http://www.w3.org/2000/svg"><path d="M785.664 946.432v35.712q0 7.254 -5.301 12.555t-12.555 5.301h-749.952q-7.254 0 -12.555 -5.301t-5.301 -12.555v-35.712q0 -7.254 5.301 -12.555t12.555 -5.301h749.952q7.254 0 12.555 5.301t5.301 12.555zm-142.848 -589.248q0 43.524 -13.671 80.352t-35.712 62.775 -48.825 49.104 -53.568 43.245 -48.825 40.176 -35.712 45.477 -13.671 53.847q0 53.568 37.386 124.992l-2.232 -.558 .558 .558q-50.22 -22.878 -89.28 -46.314t-77.283 -55.8 -63.333 -68.355 -40.455 -83.979 -15.345 -102.672q0 -43.524 13.671 -80.352t35.712 -62.775 48.825 -49.104 53.568 -43.245 48.825 -40.176 35.712 -45.477 13.671 -53.847q0 -52.452 -36.828 -124.992l1.674 .558 -.558 -.558q50.22 22.878 89.28 46.314t77.283 55.8 63.333 68.355 40.455 83.979 15.345 102.672z"/></svg>