<svg height="1000" width="785.7" xmlns="http://www.w3.org/2000/svg"><path d="M0 946.4q0-7.3 5.3-12.6t12.6-5.3h750q7.3 0 12.6 5.3t5.3 12.6v35.7q0 7.3-5.3 12.6t-12.6 5.3h-750q-7.3 0-12.6-5.3t-5.3-12.6v-35.7zm142.8-446.4q0-43.5 13.7-80.4t35.7-62.8 48.8-49.1 53.6-43.2 48.8-40.2 35.7-45.5 13.7-53.8q0-52.5-36.8-125l1.7.6-.6-.6q50.2 22.9 89.3 46.3t77.3 55.8 63.3 68.4 40.5 84 15.3 102.7q0 43.5-13.7 80.4t-35.7 62.8-48.8 49.1-53.6 43.2-48.8 40.2-35.7 45.5-13.7 53.8q0 53.6 37.4 125l-2.2-.6.6.6q-50.2-22.9-89.3-46.3t-77.3-55.8-63.3-68.4-40.5-84-15.3-102.7z"/></svg>