<svg height="1000px" width="785.7142857142858px" xmlns="http://www.w3.org/2000/svg">
  <g>
    <path d="M0 946.4285714285714c0 -4.836 1.767 -9.022 5.301 -12.556c3.535 -3.534 7.72 -5.301 12.556 -5.301c0 0 750 0 750 0c4.836 0 9.022 1.767 12.556 5.301c3.534 3.534 5.301 7.72 5.301 12.556c0 0 0 35.714 0 35.714c0 4.837 -1.767 9.022 -5.301 12.556c-3.534 3.534 -7.72 5.301 -12.556 5.301c0 0 -750 0 -750 0c-4.836 0 -9.021 -1.767 -12.556 -5.301c-3.534 -3.534 -5.301 -7.719 -5.301 -12.556c0 0 0 -35.714 0 -35.714c0 0 0 0 0 0m142.857 -446.429c0 -29.017 4.557 -55.803 13.672 -80.357c9.115 -24.553 21.019 -45.48 35.714 -62.779c14.695 -17.299 30.971 -33.668 48.828 -49.107c17.858 -15.439 35.715 -29.855 53.572 -43.248c17.857 -13.393 34.133 -26.785 48.828 -40.178c14.695 -13.393 26.6 -28.553 35.714 -45.48c9.115 -16.927 13.672 -34.877 13.672 -53.851c0 -34.97 -12.277 -76.636 -36.83 -125c0 0 1.674 0.558 1.674 0.558c0 0 -0.558 -0.558 -0.558 -0.558c33.482 15.253 63.244 30.692 89.286 46.317c26.041 15.625 51.804 34.227 77.288 55.804c25.483 21.577 46.596 44.364 63.337 68.359c16.741 23.996 30.227 51.991 40.457 83.985c10.231 31.994 15.346 66.22 15.346 102.678c0 29.018 -4.557 55.804 -13.672 80.357c-9.114 24.554 -21.019 45.48 -35.714 62.779c-14.695 17.3 -30.971 33.669 -48.828 49.108c-17.857 15.439 -35.714 29.854 -53.572 43.247c-17.857 13.393 -34.133 26.786 -48.828 40.179c-14.695 13.393 -26.599 28.553 -35.714 45.48c-9.115 16.927 -13.672 34.877 -13.672 53.85c0 35.715 12.463 77.381 37.389 125c0 0 -2.233 -0.558 -2.233 -0.558c0 0 0.558 0.558 0.558 0.558c-33.482 -15.253 -63.244 -30.692 -89.285 -46.317c-26.042 -15.625 -51.805 -34.226 -77.288 -55.803c-25.484 -21.578 -46.596 -44.364 -63.337 -68.36c-16.741 -23.995 -30.227 -51.99 -40.458 -83.984c-10.231 -31.994 -15.346 -66.22 -15.346 -102.679c0 0 0 0 0 0" />
  </g>
</svg>