<svg height="1000" width="1000" xmlns="http://www.w3.org/2000/svg"><path d="M503.9 1000Q346 1000 222.4 916T38.5 693.6Q6.1 620.5 1.1 525.7T15.6 340.1 77.6 166 177.5 30.7l-6.2 156.8q6.2 -7.8 38 -8.6t39 8.6q23.5 -45.2 89.6 -77T468.8 77.6q-30.2 25.1 -66.7 82.8t-32.7 91.3q14 4.4 34.9 7.5t35.2 4.2 37.9 2.2 28.2 1.7q8.4 2.8 5.3 25.4t-17 42.1q-2.8 3.9 -9.2 10.3T453.1 365t-56.3 18.9l8.3 105.5L327.6 452q-10.1 24 -4.2 45.5t20.1 37.1 36.5 23.2 45.2 3.6q28.5 -5 54.7 -19.3T526.5 517t41 -9.7q34.1 2.2 50 18.4t10.8 36.2q-.5 1.2 -1.3 3.1t-4.8 7 -10 8.6 -17.6 5.9 -26 .6q-33.4 53 -80.6 75.6t-116.9 16.4q41.3 34.1 90.7 46.1t94 3.3 86.2 -29 71.4 -48.8 45 -58.1q24 -50.7 21.7 -107.4T759.2 380t-43.8 -69.7q48.6 21.2 76.5 44.3t42.9 62.8Q843.2 322.5 802.7 226T685.8 67.5q147.9 43 229.9 156t84.3 288.8q1.1 70.8 -22.6 142.3t-68.9 132.8T803 896.8t-138.1 75.6 -161 27.6z"/></svg>