<svg height="1000px" width="675px" xmlns="http://www.w3.org/2000/svg">
  <g>
    <path d="M0 661c0 -38.667 10.167 -78.5 30.5 -119.5c20.333 -41 47.833 -78.167 82.5 -111.5c-7.333 50 -7.167 90.167 0.5 120.5c7.667 30.333 17.833 54.167 30.5 71.5c14.667 20 32.333 34.667 53 44c-16 -70 -20.667 -138 -14 -204c2.667 -28 7.833 -57.167 15.5 -87.5c7.667 -30.333 19 -60.333 34 -90c15 -29.667 34.5 -58.167 58.5 -85.5c24 -27.333 53.667 -52 89 -74c-15.333 32.667 -22.667 62.667 -22 90c0.667 27.333 4.333 51 11 71c7.333 23.333 18.667 44.667 34 64c10.667 12.667 20.833 25.167 30.5 37.5c9.667 12.333 18 26.5 25 42.5c7 16 12.5 34.833 16.5 56.5c4 21.667 6 47.833 6 78.5c-6 -13.333 -15 -24 -27 -32c-12 -8 -25.667 -12 -41 -12c-21.333 0 -39.167 7.333 -53.5 22c-14.333 14.667 -21.5 32.333 -21.5 53c0 10.667 1.833 20.667 5.5 30c3.667 9.333 9.333 17.667 17 25c7.667 7.333 17.667 13 30 17c12.333 4 27.167 6 44.5 6c29.333 -2.667 55 -13 77 -31c8.667 -8 17.167 -17.833 25.5 -29.5c8.333 -11.667 15.167 -26 20.5 -43c5.333 -17 8.667 -37 10 -60c1.333 -23 -0.333 -49.833 -5 -80.5c0 0 -1 0 -1 0c34.667 33.333 62.167 70.5 82.5 111.5c20.333 41 30.5 80.833 30.5 119.5c0 36 -8.833 67.333 -26.5 94c-17.667 26.667 -41.833 48.833 -72.5 66.5c-30.667 17.667 -66.333 31 -107 40c-40.667 9 -84.333 13.5 -131 13.5c-46.667 0 -90.5 -4.5 -131.5 -13.5c-41 -9 -76.833 -22.333 -107.5 -40c-30.667 -17.667 -54.833 -39.833 -72.5 -66.5c-17.667 -26.667 -26.5 -58 -26.5 -94c0 0 0 0 0 0" />
  </g>
</svg>