<svg height="1000px" width="785.7142857142858px" xmlns="http://www.w3.org/2000/svg">
  <g>
    <path d="M0 946.4285714285714c0 -4.836 1.767 -9.022 5.301 -12.556c3.535 -3.534 7.72 -5.301 12.556 -5.301c0 0 750 0 750 0c4.836 0 9.022 1.767 12.556 5.301c3.534 3.534 5.301 7.72 5.301 12.556c0 0 0 35.714 0 35.714c0 4.837 -1.767 9.022 -5.301 12.556c-3.534 3.534 -7.72 5.301 -12.556 5.301c0 0 -750 0 -750 0c-4.836 0 -9.021 -1.767 -12.556 -5.301c-3.534 -3.534 -5.301 -7.719 -5.301 -12.556c0 0 0 -35.714 0 -35.714c0 0 0 0 0 0m142.857 -446.429c0 -56.547 16.369 -104.166 49.107 -142.857c24.182 -28.646 51.805 -54.594 82.869 -77.846c31.064 -23.251 54.036 -41.573 68.917 -54.966c32.738 -30.134 49.107 -62.965 49.107 -98.494c0 -35.528 -12.277 -77.473 -36.83 -125.837c0 0 1.674 0.558 1.674 0.558c0 0 -0.558 -0.558 -0.558 -0.558c108.631 49.852 185.268 106.771 229.911 170.759c16.741 23.81 30.227 51.712 40.457 83.706c10.231 31.994 15.346 64.36 15.346 97.098c0 32.738 -4.557 61.384 -13.672 85.937c-9.114 24.554 -21.019 45.48 -35.714 62.779c-14.695 17.3 -30.971 33.669 -48.828 49.108c-17.857 15.439 -35.714 29.854 -53.572 43.247c-17.857 13.393 -34.226 26.786 -49.107 40.179c-32.738 30.134 -49.107 63.151 -49.107 99.051c0 35.901 12.463 77.66 37.389 125.279c0 0 -2.233 -0.558 -2.233 -0.558c0 0 0.558 0.558 0.558 0.558c-108.631 -49.851 -185.267 -106.771 -229.91 -170.759c-37.203 -53.199 -55.804 -115.327 -55.804 -186.384c0 0 0 0 0 0" />
  </g>
</svg>