<svg height="1000px" width="785.7142857142858px" xmlns="http://www.w3.org/2000/svg">
  <g>
    <path d="M627.5111607142858 254.46428571428567c10.231 31.994 15.346 64.36 15.346 97.098c0 32.738 -4.557 61.384 -13.672 85.938c-9.114 24.553 -21.019 45.48 -35.714 62.779c-14.695 17.299 -30.971 33.668 -48.828 49.107c-17.857 15.439 -35.715 29.855 -53.572 43.248c-17.857 13.392 -34.226 26.785 -49.107 40.178c-32.738 30.134 -49.107 63.151 -49.107 99.052c0 35.9 12.463 77.66 37.388 125.279c0 0 -2.232 -0.558 -2.232 -0.558c0 0 0.558 0.558 0.558 0.558c-108.631 -49.852 -185.268 -106.771 -229.91 -170.759c-37.203 -53.2 -55.804 -115.328 -55.804 -186.384c0 -56.548 16.369 -104.167 49.107 -142.857c24.182 -28.646 51.804 -54.595 82.868 -77.846c31.064 -23.252 54.037 -41.574 68.918 -54.967c32.738 -30.134 49.107 -62.965 49.107 -98.493c0 -35.529 -12.277 -77.474 -36.83 -125.837c0 0 1.674 0.558 1.674 0.558c0 0 -0.558 -0.558 -0.558 -0.558c108.631 49.851 185.268 106.771 229.91 170.759c16.741 23.809 30.227 51.711 40.458 83.705c0 0 0 0 0 0m158.203 691.964c0 0 0 35.715 0 35.715c0 4.836 -1.767 9.021 -5.301 12.555c-3.534 3.535 -7.72 5.302 -12.556 5.302c0 0 -750 0 -750 0c-4.836 0 -9.022 -1.767 -12.556 -5.302c-3.534 -3.534 -5.301 -7.719 -5.301 -12.555c0 0 0 -35.715 0 -35.715c0 -4.836 1.767 -9.021 5.301 -12.556c3.534 -3.534 7.72 -5.301 12.556 -5.301c0 0 750 0 750 0c4.836 0 9.022 1.767 12.556 5.301c3.534 3.535 5.301 7.72 5.301 12.556c0 0 0 0 0 0" />
  </g>
</svg>