<svg height="1000" width="857.1" xmlns="http://www.w3.org/2000/svg"><path d="M737.7 500q0 25.1 -2.8 42.4l-131.7 -7.8 125 43.5q-10.6 40.8 -32.3 78.7L576.5 599.3l98.7 88.2q-24.5 34 -59.7 60.3l-87.6 -99.4 57.5 120q-34.1 20.7 -78.1 32.9L463.2 674.1 471 808q-21.2 3.4 -42.4 3.4T386.2 808L394 675.2l-43.6 126.1q-41.2 -10.6 -78.1 -32.9l57.5 -120 -87.6 99.4q-32.9 -24 -60.3 -60.3l99.4 -88.2 -119.5 58.1q-21.7 -38.5 -32.3 -78.7l125 -44.1 -132.3 7.8Q119.4 519 119.4 500q0 -19.5 2.8 -43l132.8 7.8 -125.5 -44q10.6 -40.8 32.3 -78.2l119.5 58.1 -98.8 -88.8q25.6 -34 59.7 -60.2l88.2 99.3L272.9 231q37.4 -21.7 78.1 -32.3l43 125L386.7 192q20.1 -3.4 41.9 -3.4 21.2 0 42.4 3.4l-7.8 132.2 43.5 -125.5q41.3 10.6 78.1 32.9L527.3 351l88.2 -99.3q34.1 26.2 59.7 60.2l-98.7 88.8 118.8 -58.1q20.7 34.6 32.4 78.7l-125 43.5L734.9 457q2.8 17.3 2.8 43zm16.8 0q0 -89.3 -43.8 -164.9T591.8 215.7 428.6 171.9q-66.4 0 -126.7 25.9t-104.1 69.8 -69.5 104.6T102.7 500q0 66.4 25.6 127.2t69.5 104.7 104.1 69.7 126.7 26q88.1 0 163.2 -43.8T710.7 664.3 754.5 500zm40.7 -213.7v427.4L428.6 927.5 61.9 713.7V286.3L428.6 72.5zm-366.6 673L823.7 729.4V270.1L428.6 40.7 33.5 270.1v459.3zM857.1 250v500l-428.5 250L0 750V250L428.6 0z"/></svg>