<svg height="1000px" width="1000px" xmlns="http://www.w3.org/2000/svg">
  <g>
    <path d="M35.714285714285715 142.85714285714278c0 -19.717 6.975 -36.551 20.926 -50.502c13.951 -13.951 30.785 -20.927 50.503 -20.927c19.717 0 36.551 6.976 50.502 20.927c13.951 13.951 20.926 30.785 20.926 50.502c0 26.786 -11.905 47.247 -35.714 61.384c0 0 0 706.473 0 706.473c0 4.836 -1.767 9.022 -5.301 12.556c-3.535 3.534 -7.72 5.301 -12.556 5.301c0 0 -35.715 0 -35.715 0c-4.836 0 -9.021 -1.767 -12.555 -5.301c-3.535 -3.534 -5.302 -7.72 -5.302 -12.556c0 0 0 -706.473 0 -706.473c-23.809 -14.137 -35.714 -34.598 -35.714 -61.384c0 0 0 0 0 0m142.857 535.714c0 0 0 -414.062 0 -414.062c0 -11.905 5.767 -22.136 17.299 -30.692c7.813 -5.209 22.508 -13.207 44.085 -23.996c87.798 -44.643 166.109 -66.964 234.933 -66.964c39.807 0 77.009 5.394 111.607 16.183c34.598 10.789 75.335 27.158 122.21 49.107c14.137 7.069 30.506 10.603 49.107 10.603c20.09 0 41.946 -3.906 65.569 -11.719c23.624 -7.812 44.085 -16.555 61.384 -26.228c17.299 -9.672 33.668 -18.415 49.107 -26.227c15.439 -7.813 25.577 -11.719 30.413 -11.719c9.673 0 18.044 3.534 25.112 10.603c7.068 7.068 10.603 15.439 10.603 25.111c0 0 0 425.782 0 425.782c0 9.3 -2.325 16.462 -6.976 21.484c-4.65 5.022 -11.997 10.138 -22.042 15.346c-79.985 43.155 -148.624 64.732 -205.915 64.732c-22.694 0 -45.666 -4.092 -68.918 -12.277c-23.251 -8.184 -43.434 -17.113 -60.547 -26.785c-17.113 -9.673 -38.597 -18.602 -64.453 -26.786c-25.855 -8.185 -52.362 -12.277 -79.52 -12.277c-71.428 0 -157.738 27.158 -258.928 81.473c-6.325 3.348 -12.463 5.023 -18.416 5.023c-9.672 0 -18.043 -3.535 -25.111 -10.603c-7.069 -7.069 -10.603 -15.439 -10.603 -25.112c0 0 0 0 0 0" />
  </g>
</svg>