<svg height="1000" width="1000" xmlns="http://www.w3.org/2000/svg"><path d="M35.7 142.9q0-29.6 20.9-50.5t50.5-20.9 50.5 20.9 20.9 50.5q0 40.2-35.7 61.4v706.4q0 7.3-5.3 12.6t-12.6 5.3h-35.7q-7.3 0-12.6-5.3t-5.3-12.6v-706.4q-35.7-21.2-35.7-61.4zm142.8 535.7v-414q0-17.9 17.3-30.7 11.7-7.8 44.1-24 131.7-67 234.9-67 59.7 0 111.6 16.2t122.2 49.1q21.2 10.6 49.1 10.6 30.1 0 65.6-11.7t61.4-26.2 49.1-26.2 30.4-11.7q14.5 0 25.1 10.6t10.6 25.1v425.8q0 14-7 21.5t-22 15.3q-120 64.7-205.9 64.7-34 0-68.9-12.3t-60.5-26.8-64.4-26.8-79.5-12.3q-107.1 0-258.9 81.5-9.5 5-18.4 5-14.5 0-25.1-10.6t-10.6-25.1z"/></svg>