<svg height="1000" width="1000" xmlns="http://www.w3.org/2000/svg"><path d="M178.6 142.9q0 40.1 -35.7 61.3v706.5q0 7.3 -5.3 12.6t-12.6 5.3H89.3q-7.3 0 -12.6 -5.3t-5.3 -12.6V204.2Q35.7 183 35.7 142.9q0 -29.6 20.9 -50.5t50.5 -21 50.5 21 21 50.5zm821.4 35.7v425.8q0 13.9 -7 21.4t-22 15.4q-120 64.7 -205.9 64.7 -34.1 0 -69 -12.3t-60.5 -26.7 -64.5 -26.8 -79.5 -12.3q-107.1 0 -258.9 81.5 -9.5 5 -18.4 5 -14.5 0 -25.1 -10.6t-10.6 -25.1V264.5q0 -17.8 17.3 -30.7 11.7 -7.8 44.1 -24 131.7 -66.9 234.9 -66.9 59.7 0 111.6 16.1t122.2 49.1q21.2 10.7 49.1 10.7 30.1 0 65.6 -11.8t61.4 -26.2 49.1 -26.2 30.4 -11.7q14.5 0 25.1 10.6t10.6 25.1z"/></svg>