<svg height="1000px" width="900px" xmlns="http://www.w3.org/2000/svg">
  <g>
    <path d="M0 200c0 -20.667 7.333 -38.333 22 -53c14.667 -14.667 32.333 -22 53 -22c20.667 0 38.333 7.333 53 22c14.667 14.667 22 32.333 22 53c0 13.333 -3.333 25.5 -10 36.5c-6.667 11 -15.667 20.167 -27 27.5c0 0 0 592 0 592c0 5.333 -1.833 9.833 -5.5 13.5c-3.667 3.667 -8.167 5.5 -13.5 5.5c0 0 -38 0 -38 0c-5.333 0 -9.667 -1.833 -13 -5.5c-3.333 -3.667 -5 -8.167 -5 -13.5c0 0 0 -592 0 -592c-11.333 -7.333 -20.5 -16.5 -27.5 -27.5c-7 -11 -10.5 -23.167 -10.5 -36.5c0 0 0 0 0 0m150 472c0 0 0 -364 0 -364c0 -10.667 3.167 -21.333 9.5 -32c6.333 -10.667 14.167 -18.667 23.5 -24c34 -18 64.667 -32 92 -42c27.333 -10 50.667 -17.333 70 -22c22.667 -5.333 43 -8.333 61 -9c22 0 42.167 1.833 60.5 5.5c18.333 3.667 35.833 8.5 52.5 14.5c16.667 6 32.833 13 48.5 21c15.667 8 31.833 16.333 48.5 25c20.667 9.333 44.333 14.667 71 16c22.667 1.333 49.333 -1.167 80 -7.5c30.667 -6.333 64.333 -20.5 101 -42.5c9.333 -5.333 17 -6.333 23 -3c6 3.333 9 10.333 9 21c0 0 0 365 0 365c0 10 -3 20.5 -9 31.5c-6 11 -13.667 19.167 -23 24.5c-36.667 22 -70.333 36.167 -101 42.5c-30.667 6.333 -57.333 8.833 -80 7.5c-26.667 -1.333 -50.333 -6.667 -71 -16c-16.667 -8.667 -32.833 -17 -48.5 -25c-15.667 -8 -31.833 -15 -48.5 -21c-16.667 -6 -34.167 -10.833 -52.5 -14.5c-18.333 -3.667 -38.5 -5.5 -60.5 -5.5c-18 0.667 -38.333 3.667 -61 9c-19.333 4.667 -42.667 12 -70 22c-27.333 10 -58 24.333 -92 43c-9.333 5.333 -17.167 6 -23.5 2c-6.333 -4 -9.5 -11.333 -9.5 -22c0 0 0 0 0 0" />
  </g>
</svg>