<svg height="1000px" width="1000px" xmlns="http://www.w3.org/2000/svg">
  <g>
    <path d="M1000 178.57142857142856c0 0 0 425.781 0 425.781c0 9.301 -2.325 16.462 -6.975 21.485c-4.651 5.022 -11.998 10.137 -22.043 15.346c-79.985 43.154 -148.623 64.732 -205.915 64.732c-40.179 0 -83.333 -13.021 -129.464 -39.063c-46.131 -26.041 -94.122 -39.062 -143.974 -39.062c-71.428 0 -157.738 27.157 -258.928 81.473c-6.325 3.348 -13.393 5.022 -21.205 5.022c-7.813 0 -15.253 -3.534 -22.322 -10.602c-7.068 -7.069 -10.603 -15.439 -10.603 -25.112c0 0 0 -414.063 0 -414.063c0 -11.904 4.837 -21.298 14.509 -28.18c9.673 -6.883 25.298 -15.718 46.875 -26.507c87.798 -44.643 166.109 -66.964 234.933 -66.964c39.807 0 77.009 5.394 111.608 16.183c34.598 10.788 75.334 27.157 122.209 49.107c14.137 7.068 30.878 10.603 50.224 10.603c19.345 0 40.829 -3.907 64.453 -11.719c23.995 -7.813 44.55 -16.555 61.663 -26.228c45.387 -25.297 72.358 -37.946 80.915 -37.946c8.556 0 16.369 3.534 23.437 10.602c7.069 7.069 10.603 15.439 10.603 25.112c0 0 0 0 0 0m-842.355 -86.217c13.951 13.951 20.926 32.553 20.926 55.804c0 23.252 -11.904 41.946 -35.714 56.083c0 0 0 706.473 0 706.473c0 4.836 -1.767 9.021 -5.301 12.556c-3.534 3.534 -7.72 5.301 -12.556 5.301c0 0 -35.714 0 -35.714 0c-4.837 0 -9.022 -1.767 -12.556 -5.301c-3.534 -3.535 -5.301 -7.72 -5.301 -12.556c0 0 0 -706.473 0 -706.473c-23.81 -14.137 -35.715 -32.831 -35.715 -56.083c0 -23.251 6.976 -41.853 20.927 -55.804c13.951 -13.95 30.785 -20.926 50.502 -20.926c19.717 0 36.551 6.976 50.502 20.926c0 0 0 0 0 0" />
  </g>
</svg>