<svg height="1000" width="1000" xmlns="http://www.w3.org/2000/svg"><path d="M178.56 142.912q0 40.176 -35.712 61.38v706.428q0 7.254 -5.301 12.555t-12.555 5.301h-35.712q-7.254 0 -12.555 -5.301t-5.301 -12.555v-706.428q-35.712 -21.204 -35.712 -61.38 0 -29.574 20.925 -50.499t50.499 -20.925 50.499 20.925 20.925 50.499zm821.376 35.712v425.754q0 13.95 -6.975 21.483t-22.041 15.345q-119.97 64.728 -205.902 64.728 -34.038 0 -68.913 -12.276t-60.543 -26.784 -64.449 -26.784 -79.515 -12.276q-107.136 0 -258.912 81.468 -9.486 5.022 -18.414 5.022 -14.508 0 -25.11 -10.602t-10.602 -25.11v-414.036q0 -17.856 17.298 -30.69 11.718 -7.812 44.082 -23.994 131.688 -66.96 234.918 -66.96 59.706 0 111.6 16.182t122.202 49.104q21.204 10.602 49.104 10.602 30.132 0 65.565 -11.718t61.38 -26.226 49.104 -26.226 30.411 -11.718q14.508 0 25.11 10.602t10.602 25.11z"/></svg>