<svg height="1000" width="1000" xmlns="http://www.w3.org/2000/svg"><path d="M928.512 583.174v-343.728q-94.302 50.778 -170.748 50.778 -45.756 0 -80.91 -17.856 -55.8 -27.342 -102.672 -42.687t-99.324 -15.345q-96.534 0 -224.874 70.866v334.242q136.71 -63.054 241.614 -63.054 30.69 0 57.753 4.185t54.684 14.508 42.966 17.298 46.035 22.041l15.624 7.812q24.552 12.276 56.358 12.276 66.96 0 163.494 -51.336zm-749.952 -440.262q0 19.53 -9.765 35.712t-25.947 25.668v706.428q0 7.812 -5.022 12.834t-12.834 5.022h-35.712q-7.812 0 -12.834 -5.022t-5.022 -12.834v-706.428q-16.182 -9.486 -25.947 -25.668t-9.765 -35.712q0 -29.574 20.925 -50.499t50.499 -20.925 50.499 20.925 20.925 50.499zm821.376 35.712v425.754q0 21.762 -19.53 31.806 -5.58 2.79 -9.486 5.022 -121.644 64.728 -205.902 64.728 -49.104 0 -88.164 -19.53l-15.624 -7.812q-35.712 -18.414 -55.242 -26.784t-50.778 -16.182 -63.612 -7.812q-56.916 0 -131.409 24.552t-127.503 56.916q-8.37 5.022 -18.414 5.022 -8.928 0 -17.856 -4.464 -17.856 -10.602 -17.856 -31.248v-414.036q0 -19.53 17.298 -30.69 19.53 -11.718 43.803 -23.715t63.612 -29.016 85.095 -27.621 86.49 -10.602q62.496 0 116.622 17.298t116.622 47.988q21.204 10.602 49.662 10.602 68.076 0 172.98 -62.496 12.276 -6.696 17.298 -9.486 17.298 -8.928 34.596 1.116 17.298 11.16 17.298 30.69z"/></svg>