<svg height="1000px" width="899.90234375px" xmlns="http://www.w3.org/2000/svg">
  <g>
    <path d="M0 200.1953125c0 -20.508 7.324 -38.167 21.973 -52.979c14.648 -14.811 32.389 -22.216 53.222 -22.216c20.508 0 38.086 7.405 52.735 22.216c14.648 14.812 21.972 32.471 21.972 52.979c0 13.346 -3.336 25.472 -10.009 36.377c-6.674 10.905 -15.707 20.101 -27.1 27.588c0 0 0 591.797 0 591.797c0 5.208 -1.79 9.684 -5.371 13.427c-3.581 3.744 -7.975 5.616 -13.184 5.616c0 0 -38.086 0 -38.086 0c-5.208 0 -9.521 -1.872 -12.939 -5.616c-3.418 -3.743 -5.127 -8.219 -5.127 -13.427c0 0 0 -591.797 0 -591.797c-11.393 -7.487 -20.589 -16.683 -27.588 -27.588c-6.999 -10.905 -10.498 -23.031 -10.498 -36.377c0 0 0 0 0 0m149.902 471.68c0 0 0 -363.77 0 -363.77c0 -10.742 3.174 -21.484 9.522 -32.226c6.347 -10.743 14.241 -18.718 23.681 -23.926c33.855 -17.904 64.454 -31.901 91.797 -41.992c27.344 -10.092 50.782 -17.416 70.313 -21.973c22.786 -5.208 42.969 -8.138 60.547 -8.789c22.135 0 42.399 1.79 60.791 5.371c18.392 3.581 35.888 8.382 52.49 14.404c16.602 6.022 32.715 13.021 48.34 20.996c15.625 7.976 31.901 16.358 48.828 25.147c20.508 9.44 44.108 14.811 70.801 16.113c22.786 1.302 49.479 -1.221 80.078 -7.568c30.599 -6.348 64.29 -20.589 101.074 -42.725c9.44 -5.208 17.09 -6.185 22.949 -2.93c5.86 3.256 8.789 10.254 8.789 20.997c0 0 0 365.234 0 365.234c0 10.091 -3.011 20.589 -9.033 31.494c-6.022 10.905 -13.59 18.962 -22.705 24.17c-36.784 22.135 -70.475 36.377 -101.074 42.725c-30.599 6.347 -57.292 8.87 -80.078 7.568c-26.693 -1.302 -50.293 -6.673 -70.801 -16.113c-16.602 -8.789 -32.796 -17.172 -48.584 -25.147c-15.788 -7.975 -31.982 -14.974 -48.584 -20.996c-16.602 -6.022 -34.098 -10.823 -52.49 -14.404c-18.392 -3.581 -38.656 -5.371 -60.791 -5.371c-17.904 0.651 -38.086 3.58 -60.547 8.789c-19.206 4.557 -42.562 11.881 -70.069 21.972c-27.506 10.092 -58.186 24.415 -92.041 42.969c-9.44 5.209 -17.334 5.86 -23.681 1.953c-6.348 -3.906 -9.522 -11.23 -9.522 -21.972c0 0 0 0 0 0" />
  </g>
</svg>