<svg height="1000" width="1000" xmlns="http://www.w3.org/2000/svg"><path d="M464.256 558.064v-107.136q-100.998 8.928 -214.272 65.286v103.23q114.39 -53.568 214.272 -61.38zm0 -233.244v-109.926q-95.976 4.464 -214.272 70.308v105.462q119.97 -61.938 214.272 -65.844zm464.256 258.354v-102.672q-131.13 64.728 -214.272 39.618v-124.992q-11.16 -3.348 -21.762 -8.37 -2.79 -1.674 -18.414 -9.486t-19.251 -9.486 -17.577 -8.37 -19.251 -8.649 -18.135 -7.254 -20.088 -6.975 -19.53 -4.743 -22.041 -4.185 -22.041 -2.232 -24.552 -1.116q-12.834 0 -27.342 1.674v123.876h10.602q56.916 0 107.415 16.182t110.205 45.756q10.602 5.022 21.762 8.37v104.904q23.436 9.486 50.778 9.486 66.96 0 163.494 -51.336zm0 -238.266v-105.462q-94.302 50.778 -170.748 50.778 -25.11 0 -43.524 -4.464v109.368q82.584 23.436 214.272 -50.22zm-749.952 -201.996q0 19.53 -9.765 35.712t-25.947 25.668v706.428q0 7.812 -5.022 12.834t-12.834 5.022h-35.712q-7.812 0 -12.834 -5.022t-5.022 -12.834v-706.428q-16.182 -9.486 -25.947 -25.668t-9.765 -35.712q0 -29.574 20.925 -50.499t50.499 -20.925 50.499 20.925 20.925 50.499zm821.376 35.712v425.754q0 21.762 -19.53 31.806 -5.58 2.79 -9.486 5.022 -121.644 64.728 -205.902 64.728 -49.104 0 -88.164 -19.53l-15.624 -7.812q-35.712 -18.414 -55.242 -26.784t-50.778 -16.182 -63.612 -7.812q-56.916 0 -131.409 24.552t-127.503 56.916q-8.37 5.022 -18.414 5.022 -8.928 0 -17.856 -4.464 -17.856 -10.602 -17.856 -31.248v-414.036q0 -19.53 17.298 -30.69 19.53 -11.718 43.803 -23.715t63.612 -29.016 85.095 -27.621 86.49 -10.602q62.496 0 116.622 17.298t116.622 47.988q21.204 10.602 49.662 10.602 68.076 0 172.98 -62.496 12.276 -6.696 17.298 -9.486 17.298 -8.928 34.596 1.116 17.298 11.16 17.298 30.69z"/></svg>