<svg height="1000" width="500" xmlns="http://www.w3.org/2000/svg"><path d="M493.83 315.892q10.044 11.16 3.906 24.552l-301.32 645.606q-7.254 13.95 -23.436 13.95 -2.232 0 -7.812 -1.116 -9.486 -2.79 -14.229 -10.602t-2.511 -16.74l109.926 -450.864 -226.548 56.358q-2.232 .558 -6.696 .558 -10.044 0 -17.298 -6.138 -10.044 -8.37 -7.254 -21.762l112.158 -460.35q2.232 -7.812 8.928 -12.834t15.624 -5.022h183.024q10.602 0 17.856 6.975t7.254 16.461q0 4.464 -2.79 10.044l-95.418 258.354 220.968 -54.684q4.464 -1.116 6.696 -1.116 10.602 0 18.972 8.37z"/></svg>