<svg height="1000px" width="500px" xmlns="http://www.w3.org/2000/svg">
  <g>
    <path d="M468.1919642857143 308.59375c2.976 -0.744 6.603 -1.116 10.882 -1.116c4.278 0 9.486 3.255 15.625 9.766c6.138 6.51 7.161 14.229 3.069 23.158c0 0 -301.339 645.647 -301.339 645.647c-4.837 9.301 -12.649 13.951 -23.438 13.951c-10.045 0 -17.02 -3.255 -20.926 -9.765c-3.906 -6.511 -5.116 -12.742 -3.627 -18.695c0 0 109.933 -450.892 109.933 -450.892c0 0 -226.563 56.361 -226.563 56.361c-1.488 0.372 -4.65 0.558 -9.487 0.558c-4.836 0 -10.137 -2.418 -15.904 -7.254c-5.766 -4.837 -7.719 -11.719 -5.859 -20.648c0 0 112.165 -460.379 112.165 -460.379c3.348 -11.905 11.533 -17.857 24.554 -17.857c0 0 183.036 0 183.036 0c7.068 0 13.02 2.325 17.857 6.975c4.836 4.651 7.254 9.301 7.254 13.951c0 4.65 -0.93 8.836 -2.79 12.556c0 0 -95.424 258.37 -95.424 258.37c0 0 220.982 -54.687 220.982 -54.687" />
  </g>
</svg>