<svg height="1000px" width="500px" xmlns="http://www.w3.org/2000/svg">
  <g>
    <path d="M0.5580357142857143 549.6651785714286c0 0 112.165 -460.379 112.165 -460.379c1.488 -5.209 4.464 -9.487 8.929 -12.835c4.464 -3.348 9.672 -5.023 15.625 -5.023c0 0 183.035 0 183.035 0c7.069 0 13.021 2.326 17.858 6.976c4.836 4.65 7.254 10.137 7.254 16.462c0 2.976 -0.93 6.324 -2.79 10.045c0 0 -95.424 258.37 -95.424 258.37c0 0 220.982 -54.687 220.982 -54.687c2.976 -0.744 5.208 -1.116 6.696 -1.116c7.069 0 13.393 2.79 18.974 8.37c6.696 7.441 7.998 15.625 3.906 24.554c0 0 -301.339 645.647 -301.339 645.647c-4.837 9.301 -12.649 13.951 -23.438 13.951c-1.488 0 -4.092 -0.372 -7.812 -1.116c-6.325 -1.86 -11.068 -5.395 -14.23 -10.603c-3.163 -5.208 -4 -10.789 -2.512 -16.741c0 0 109.934 -450.893 109.934 -450.893c0 0 -226.563 56.362 -226.563 56.362c-1.488 0.372 -3.72 0.558 -6.696 0.558c-6.697 0 -12.463 -2.046 -17.3 -6.139c-6.696 -5.58 -9.114 -12.834 -7.254 -21.763c0 0 0 0 0 0" />
  </g>
</svg>