<svg height="1000px" width="455.56640625px" xmlns="http://www.w3.org/2000/svg">
  <g>
    <path d="M0 519.04296875c0 -2.604 0.326 -4.232 0.977 -4.883c0 0 102.05 -455.078 102.05 -455.078c1.302 -5.208 3.988 -9.521 8.057 -12.939c4.069 -3.418 8.708 -5.127 13.916 -5.127c0 0 167.969 0 167.969 0c5.859 0 10.986 2.197 15.381 6.591c4.394 4.395 6.591 9.847 6.591 16.358c0 1.953 -0.162 3.581 -0.488 4.883c-0.325 1.302 -0.814 3.092 -1.465 5.371c0 0 -87.89 255.859 -87.89 255.859c3.906 -1.302 11.556 -3.499 22.949 -6.592c11.393 -3.092 24.577 -6.591 39.551 -10.498c14.974 -3.906 30.436 -8.219 46.386 -12.939c15.951 -4.72 31.088 -8.871 45.411 -12.451c14.322 -3.581 26.529 -6.592 36.621 -9.034c10.091 -2.441 16.113 -3.662 18.066 -3.662c5.859 0 10.986 2.198 15.381 6.592c4.394 4.395 6.592 9.847 6.592 16.358c0 3.906 -0.326 6.998 -0.977 9.277c0 0 -275.879 637.695 -275.879 637.695c-3.255 9.44 -10.254 14.16 -20.996 14.16c-5.859 0 -11.23 -2.197 -16.113 -6.591c-4.883 -4.395 -7.324 -9.847 -7.324 -16.358c0 -1.953 0.488 -3.581 1.464 -4.883c0 0 99.61 -446.289 99.61 -446.289c-3.906 1.302 -11.719 3.662 -23.438 7.08c-11.718 3.418 -25.065 7.08 -40.039 10.987c-14.974 3.906 -30.761 8.219 -47.363 12.939c-16.602 4.72 -32.064 9.115 -46.387 13.184c-14.323 4.069 -26.692 7.243 -37.109 9.521c-10.417 2.279 -16.602 3.418 -18.555 3.418c-6.51 0 -11.963 -2.36 -16.357 -7.08c-4.395 -4.72 -6.592 -10.01 -6.592 -15.869c0 0 0 0 0 0" />
  </g>
</svg>