<svg height="1000px" width="500px" xmlns="http://www.w3.org/2000/svg">
  <g>
    <path d="M-0.12249553571428573 555.8331473214286c0 -1.934 0.227 -3.99 0.681 -6.168c0 0 112.165 -460.379 112.165 -460.379c3.348 -11.905 11.532 -17.858 24.553 -17.858c0 0 183.036 0 183.036 0c7.068 0 13.021 2.326 17.857 6.976c4.836 4.65 7.255 9.301 7.255 13.951c0 4.65 -0.93 8.835 -2.791 12.556c0 0 -95.424 258.37 -95.424 258.37c0 0 220.982 -54.687 220.982 -54.687c2.977 -0.744 6.604 -1.116 10.882 -1.116c4.278 0 9.487 3.255 15.625 9.765c3.683 3.906 5.525 8.248 5.525 13.025c0 3.184 -0.819 6.562 -2.456 10.134c0 0 -301.339 645.647 -301.339 645.647c-4.836 9.301 -12.649 13.951 -23.437 13.951c-10.045 0 -17.021 -3.255 -20.927 -9.766c-3.906 -6.51 -5.115 -12.742 -3.627 -18.694c0 0 109.933 -450.893 109.933 -450.893c0 0 -226.562 56.362 -226.562 56.362c-1.489 0.372 -4.651 0.558 -9.487 0.558c-4.836 0 -10.138 -2.418 -15.904 -7.255c-4.36 -3.656 -6.54 -8.483 -6.54 -14.479c0 0 0 0 0 0" />
  </g>
</svg>