<svg height="1000" width="857.143" xmlns="http://www.w3.org/2000/svg"><path d="M696.384 71.488q66.402 0 113.553 47.151t47.151 113.553v535.68q0 66.402 -47.151 113.553t-113.553 47.151h-535.68q-66.402 0 -113.553 -47.151t-47.151 -113.553v-535.68q0 -66.402 47.151 -113.553t113.553 -47.151h535.68zm-306.9 428.544q0 -49.104 -34.596 -83.7t-83.7 -34.596 -83.7 34.596 -34.596 83.7 34.596 83.7 83.7 34.596 83.7 -34.596 34.596 -83.7zm314.712 0q0 -49.104 -34.596 -83.7t-83.7 -34.596 -83.7 34.596 -34.596 83.7 34.596 83.7 83.7 34.596 83.7 -34.596 34.596 -83.7z"/></svg>