<svg height="1000px" width="899.56640625px" xmlns="http://www.w3.org/2000/svg">
  <g>
    <path d="M0.5 663c0 0 34 -144 34 -144c1.333 -5.333 2 -11.333 2 -18c0 -6.667 -0.667 -12.667 -2 -18c0 0 -34 -144 -34 -144c-1.333 -5.333 -0.667 -9.833 2 -13.5c2.667 -3.667 6.667 -5.5 12 -5.5c0 0 45 0 45 0c5.333 0 11 1.5 17 4.5c6 3 10.667 6.5 14 10.5c0 0 85 110 85 110c29.333 -6 60 -10.667 92 -14c32 -3.333 63.333 -5 94 -5c0 0 12 0 12 0c0 0 -61 -283 -61 -283c-1.333 -5.333 -0.5 -9.667 2.5 -13c3 -3.333 7.167 -5 12.5 -5c0 0 64 0 64 0c5.333 0 10.667 1.5 16 4.5c5.333 3 9.333 6.833 12 11.5c0 0 164 285 164 285c0 0 157 0 157 0c19.333 0 38.667 2.167 58 6.5c19.333 4.333 36.5 10 51.5 17c15 7 27.167 15 36.5 24c9.333 9 13.667 18.167 13 27.5c0.667 9.333 -3.667 18.5 -13 27.5c-9.333 9 -21.5 17 -36.5 24c-15 7 -32.167 12.667 -51.5 17c-19.333 4.333 -38.667 6.5 -58 6.5c0 0 -158 0 -158 0c0 0 -163 283 -163 283c-2.667 4.667 -6.667 8.5 -12 11.5c-5.333 3 -10.667 4.5 -16 4.5c0 0 -64 0 -64 0c-5.333 0 -9.5 -1.667 -12.5 -5c-3 -3.333 -3.833 -7.667 -2.5 -13c0 0 61 -281 61 -281c0 0 -12 0 -12 0c-30.667 0 -62 -1.833 -94 -5.5c-32 -3.667 -62.667 -8.167 -92 -13.5c0 0 -85 110 -85 110c-8 9.333 -18.333 14 -31 14c0 0 -45 0 -45 0c-5.333 0 -9.333 -1.667 -12 -5c-2.667 -3.333 -3.333 -7.667 -2 -13c0 0 0 0 0 0" />
  </g>
</svg>