<svg height="1000" width="785.714" xmlns="http://www.w3.org/2000/svg"><path d="M0 589.87q0 -7.812 5.022 -12.834l35.712 -36.27q5.022 -5.022 12.834 -5.022t140.616 37.944l136.71 -136.71 -320.85 -152.892q-10.044 -4.464 -10.044 -16.182 0 -7.812 5.022 -12.834l35.712 -35.712q5.022 -5.022 12.834 -5.022 2.232 0 3.348 .558l416.268 79.794 133.92 -133.92q83.142 -83.142 131.688 -83.142 17.856 0 29.295 11.439t11.439 29.295q0 48.546 -83.142 131.688l-133.92 133.92 79.794 416.268 .558 3.348q0 7.812 -5.022 12.834l-35.712 35.712q-5.022 5.022 -12.834 5.022 -11.718 0 -16.182 -10.044l-152.892 -320.85 -136.71 136.71q37.944 132.804 37.944 140.616t-5.022 12.834l-35.712 35.712q-5.022 5.022 -12.834 5.022 -10.044 0 -15.624 -8.928l-86.49 -156.24 -156.24 -86.49q-9.486 -5.022 -9.486 -15.624z"/></svg>