<svg height="1000" width="785.7" xmlns="http://www.w3.org/2000/svg"><path d="M767.9 89.3q24.5 29 6.7 82.6t-60.3 96l-89.9 89.8 89.3 388.4q2.8 10.6 -6.7 18.4l-71.4 53.6q-3.9 3.3 -10.6 3.3 -2.2 0 -3.9 -.5 -8.4 -1.7 -11.7 -9L453.7 528.5 309.2 673l29.5 108.3q2.8 9.4 -4.4 17.2l-53.6 53.6q-5 5 -12.8 5h-1.2q-8.3 -1.1 -13.4 -7.2L147.9 709.3 7.3 603.8Q1.1 599.9 0 591q-.6 -7.3 5 -14l53.6 -54.1q5 -5 12.8 -5 3.4 0 4.5 .5L184.2 548 328.7 403.5 45.2 247.8q-7.8 -4.5 -9.5 -13.4 -1.1 -9 5 -15.1l71.5 -71.4q7.8 -7.3 16.7 -4.5L500 232.1l89.3 -89.2q42.4 -42.5 96 -60.3t82.6 6.7z"/></svg>