<svg height="1000px" width="785.7142857142858px" xmlns="http://www.w3.org/2000/svg">
  <g>
    <path d="M0 589.84375c0 -5.208 1.674 -9.487 5.022 -12.835c0 0 35.715 -36.272 35.715 -36.272c3.348 -3.348 7.626 -5.022 12.834 -5.022c5.209 0 52.084 12.648 140.625 37.946c0 0 136.719 -136.719 136.719 -136.719c0 0 -320.87 -152.902 -320.87 -152.902c-6.697 -2.976 -10.045 -8.37 -10.045 -16.183c0 -5.208 1.674 -9.486 5.022 -12.834c0 0 35.715 -35.715 35.715 -35.715c3.348 -3.348 7.626 -5.022 12.834 -5.022c1.489 0 2.605 0.186 3.349 0.558c0 0 416.294 79.799 416.294 79.799c0 0 133.929 -133.928 133.929 -133.928c55.431 -55.432 99.33 -83.148 131.696 -83.148c11.905 0 21.671 3.813 29.297 11.44c7.627 7.626 11.44 17.392 11.44 29.297c0 32.366 -27.716 76.265 -83.147 131.696c0 0 -133.929 133.929 -133.929 133.929c0 0 79.799 416.294 79.799 416.294c0 0 0.558 3.349 0.558 3.349c0 5.208 -1.674 9.486 -5.022 12.835c0 0 -35.714 35.714 -35.714 35.714c-3.349 3.348 -7.627 5.022 -12.835 5.022c-7.813 0 -13.207 -3.348 -16.183 -10.045c0 0 -152.902 -320.87 -152.902 -320.87c0 0 -136.719 136.719 -136.719 136.719c25.298 88.541 37.947 135.416 37.947 140.625c0 5.208 -1.675 9.486 -5.023 12.834c0 0 -35.714 35.715 -35.714 35.715c-3.348 3.348 -7.627 5.022 -12.835 5.022c-6.696 0 -11.905 -2.976 -15.625 -8.928c0 0 -86.495 -156.25 -86.495 -156.25c0 0 -156.25 -86.496 -156.25 -86.496c-6.325 -3.348 -9.487 -8.557 -9.487 -15.625c0 0 0 0 0 0" />
  </g>
</svg>