<svg height="1000px" width="785.7142857142858px" xmlns="http://www.w3.org/2000/svg">
  <g>
    <path d="M779.5758928571429 118.30357142857133c0 32.366 -27.716 76.265 -83.147 131.696c0 0 -133.929 133.929 -133.929 133.929c0 0 79.799 416.295 79.799 416.295c0 0 0.558 3.348 0.558 3.348c0 5.208 -1.674 9.486 -5.022 12.835c0 0 -35.714 35.714 -35.714 35.714c-3.349 3.348 -8.371 5.022 -15.067 5.022c-6.697 0 -11.347 -3.348 -13.951 -10.044c0 0 -152.902 -320.871 -152.902 -320.871c0 0 -136.719 136.719 -136.719 136.719c25.298 88.542 37.947 135.417 37.947 140.625c0 5.208 -1.674 9.486 -5.023 12.835c0 0 -35.714 35.714 -35.714 35.714c-3.348 3.348 -7.998 5.022 -13.951 5.022c-5.952 0 -10.789 -2.976 -14.509 -8.928c0 0 -86.495 -156.25 -86.495 -156.25c0 0 -156.25 -86.496 -156.25 -86.496c-6.325 -3.348 -9.487 -7.998 -9.487 -13.951c0 -5.952 1.674 -10.788 5.022 -14.509c0 0 35.715 -36.272 35.715 -36.272c3.348 -3.348 7.626 -5.022 12.835 -5.022c5.208 0 52.083 12.649 140.625 37.946c0 0 136.718 -136.719 136.718 -136.719c0 0 -320.87 -152.901 -320.87 -152.901c-6.697 -2.605 -10.045 -7.255 -10.045 -13.951c0 -6.697 1.674 -11.719 5.022 -15.067c0 0 35.715 -35.715 35.715 -35.715c3.348 -3.348 6.696 -5.022 10.044 -5.022c3.349 0 5.395 0.186 6.139 0.558c0 0 416.294 79.799 416.294 79.799c0 0 133.929 -133.928 133.929 -133.928c55.432 -55.432 99.33 -83.148 131.696 -83.148c11.905 0 21.671 3.814 29.297 11.44c7.627 7.627 11.44 17.392 11.44 29.297c0 0 0 0 0 0" />
  </g>
</svg>