<svg height="1000" width="785.7" xmlns="http://www.w3.org/2000/svg"><path d="M0 589.9q0-7.8 5-12.8l35.7-36.3q5-5 12.8-5t140.6 37.9l136.7-136.7-320.9-152.9q-10-4.5-10-16.2 0-7.8 5-12.8l35.7-35.7q5-5 12.8-5 2.2 0 3.3.6l416.3 79.8 133.9-133.9q83.1-83.1 131.7-83.1 17.9 0 29.3 11.4t11.4 29.3q0 48.5-83.1 131.7l-133.9 133.9 79.8 416.3.6 3.3q0 7.8-5 12.8l-35.7 35.7q-5 5-12.8 5-11.7 0-16.2-10l-152.9-320.9-136.7 136.7q37.9 132.8 37.9 140.6t-5 12.8l-35.7 35.7q-5 5-12.8 5-10 0-15.6-8.9l-86.5-156.2-156.2-86.5q-9.5-5-9.5-15.6z"/></svg>