<svg height="1000" width="785.714" xmlns="http://www.w3.org/2000/svg"><path d="M767.808 89.344q24.552 29.016 6.696 82.584t-60.264 95.976l-89.838 89.838 89.28 388.368q2.79 10.602 -6.696 18.414l-71.424 53.568q-3.906 3.348 -10.602 3.348 -2.232 0 -3.906 -.558 -8.37 -1.674 -11.718 -8.928l-155.682 -283.464 -144.522 144.522 29.574 108.252q2.79 9.486 -4.464 17.298l-53.568 53.568q-5.022 5.022 -12.834 5.022h-1.116q-8.37 -1.116 -13.392 -7.254l-105.462 -140.616 -140.616 -105.462q-6.138 -3.906 -7.254 -12.834 -.558 -7.254 5.022 -13.95l53.568 -54.126q5.022 -5.022 12.834 -5.022 3.348 0 4.464 .558l108.252 29.574 144.522 -144.522 -283.464 -155.682q-7.812 -4.464 -9.486 -13.392 -1.116 -8.928 5.022 -15.066l71.424 -71.424q7.812 -7.254 16.74 -4.464l371.07 88.722 89.28 -89.28q42.408 -42.408 95.976 -60.264t82.584 6.696z"/></svg>