<svg height="1000px" width="778.80859375px" xmlns="http://www.w3.org/2000/svg">
  <g>
    <path d="M0 611.328125c0 0 0 -1.953 0 -1.953c0 -10.091 3.743 -19.369 11.23 -27.832c0 0 14.649 -14.16 14.649 -14.16c6.51 -8.138 15.625 -12.045 27.344 -11.719c2.604 0 4.231 0.325 4.882 0.976c0 0 136.719 15.625 136.719 15.625c12.696 -20.507 27.914 -42.399 45.655 -65.673c17.74 -23.275 38.167 -47.933 61.279 -73.975c0 0 -284.668 -223.144 -284.668 -223.144c-10.091 -8.138 -15.137 -17.741 -15.137 -28.809c0 0 0 -1.953 0 -1.953c0 -10.091 3.744 -19.531 11.231 -28.32c0 0 27.832 -27.833 27.832 -27.833c8.789 -7.487 18.066 -11.23 27.832 -11.23c0 0 6.591 0 6.591 0c0 0 2.198 0.651 6.592 1.953c0 0 392.09 143.067 392.09 143.067c0 0 73.731 -72.754 73.731 -72.754c22.786 -22.787 48.99 -40.69 78.613 -53.711c29.622 -13.021 56.803 -19.532 81.543 -19.532c23.437 0 41.178 6.023 53.222 18.067c6.511 5.859 11.068 13.346 13.672 22.461c2.605 9.114 3.907 19.368 3.907 30.762c0 24.739 -6.267 51.92 -18.799 81.542c-12.533 29.623 -30.518 55.665 -53.955 78.125c0 0 -73.242 74.219 -73.242 74.219c0 0 143.066 392.09 143.066 392.09c1.953 3.906 2.93 8.138 2.93 12.695c0 10.743 -3.907 20.183 -11.719 28.321c0 0 -28.32 27.832 -28.32 27.832c-7.487 8.138 -16.765 12.207 -27.832 12.207c0 0 -1.954 0 -1.954 0c-11.393 -1.302 -20.996 -6.348 -28.808 -15.137c0 0 -222.168 -286.133 -222.168 -286.133c-26.693 23.438 -51.677 43.946 -74.951 61.524c-23.275 17.578 -45.329 32.715 -66.162 45.41c0 0 17.089 137.207 17.089 137.207c0 0 0 4.883 0 4.883c0 10.742 -3.58 19.694 -10.742 26.855c0 0 -15.137 15.137 -15.137 15.137c-7.487 7.487 -16.927 11.23 -28.32 11.23c0 0 -1.953 0 -1.953 0c-12.695 -1.302 -22.298 -6.347 -28.809 -15.136c0 0 -100.097 -132.813 -100.097 -132.813c0 0 -133.789 -101.074 -133.789 -101.074c-9.44 -8.138 -14.486 -17.904 -15.137 -29.297c0 0 0 0 0 0" />
  </g>
</svg>