<svg height="1000px" width="857.1428571428571px" xmlns="http://www.w3.org/2000/svg">
  <g>
    <path d="M857.1428571428571 357.1428571428571c0 0 0 517.857 0 517.857c0 14.881 -5.208 27.53 -15.625 37.947c-10.417 10.416 -23.065 15.625 -37.946 15.625c0 0 -750 0 -750 0c-14.881 0 -27.53 -5.209 -37.947 -15.625c-10.417 -10.417 -15.625 -23.066 -15.625 -37.947c0 0 0 -750 0 -750c0 -14.881 5.208 -27.53 15.625 -37.946c10.417 -10.417 23.066 -15.625 37.947 -15.625c0 0 517.857 0 517.857 0c14.881 0 31.25 3.72 49.107 11.16c17.857 7.441 31.994 16.369 42.411 26.786c0 0 156.25 156.25 156.25 156.25c10.416 10.417 19.345 24.554 26.785 42.411c7.441 17.857 11.161 34.226 11.161 49.107c0 0 0 0 0 0m-357.143 -17.857c0 0 0 -178.572 0 -178.572c0 -4.836 -1.767 -9.021 -5.301 -12.555c-3.534 -3.535 -7.72 -5.302 -12.556 -5.302c0 0 -107.143 0 -107.143 0c-4.836 0 -9.021 1.767 -12.556 5.302c-3.534 3.534 -5.301 7.719 -5.301 12.555c0 0 0 178.572 0 178.572c0 4.836 1.767 9.021 5.301 12.556c3.535 3.534 7.72 5.301 12.556 5.301c0 0 107.143 0 107.143 0c4.836 0 9.022 -1.767 12.556 -5.301c3.534 -3.535 5.301 -7.72 5.301 -12.556c0 0 0 0 0 0m214.286 517.857c0 0 71.428 0 71.428 0c0 0 0 -500 0 -500c0 -5.208 -1.86 -12.37 -5.58 -21.484c-3.72 -9.115 -7.44 -15.532 -11.161 -19.253c0 0 -156.808 -156.808 -156.808 -156.808c-3.72 -3.72 -10.044 -7.44 -18.973 -11.16c-8.928 -3.721 -16.183 -5.581 -21.763 -5.581c0 0 0 232.143 0 232.143c0 14.881 -5.209 27.53 -15.625 37.947c-10.417 10.416 -23.066 15.625 -37.947 15.625c0 0 -321.428 0 -321.428 0c-14.881 0 -27.53 -5.209 -37.947 -15.625c-10.416 -10.417 -15.625 -23.066 -15.625 -37.947c0 0 0 -232.143 0 -232.143c0 0 -71.428 0 -71.428 0c0 0 0 714.286 0 714.286c0 0 71.428 0 71.428 0c0 0 0 -232.143 0 -232.143c0 -14.881 5.209 -27.53 15.625 -37.946c10.417 -10.417 23.066 -15.625 37.947 -15.625c0 0 464.285 0 464.285 0c14.881 0 27.53 5.208 37.947 15.625c10.417 10.416 15.625 23.065 15.625 37.946c0 0 0 232.143 0 232.143c0 0 0 0 0 0m-500 0c0 0 428.571 0 428.571 0c0 0 0 -214.286 0 -214.286c0 0 -428.571 0 -428.571 0c0 0 0 214.286 0 214.286c0 0 0 0 0 0" />
  </g>
</svg>