<svg height="1000" width="857.1" xmlns="http://www.w3.org/2000/svg"><path d="M0 875v-750q0-22.3 15.6-37.9t37.9-15.6h517.8q22.3 0 49.1 11.2t42.4 26.8l156.2 156.2q15.6 15.6 26.8 42.4t11.2 49.1v517.8q0 22.3-15.6 37.9t-37.9 15.6h-750q-22.3 0-37.9-15.6t-15.6-37.9zm71.4-17.9h71.4v-232.1q0-22.3 15.6-37.9t37.9-15.6h464.3q22.3 0 37.9 15.6t15.6 37.9v232.1h71.4v-500q0-7.8-5.6-21.5t-11.2-19.3l-156.8-156.8q-5.6-5.6-19-11.2t-21.8-5.6v232.1q0 22.3-15.6 37.9t-37.9 15.6h-321.4q-22.3 0-37.9-15.6t-15.6-37.9v-232.1h-71.4v714.2zm142.8 0h428.5v-214.3h-428.5v214.3zm142.8-517.8q0 7.3 5.3 12.6t12.6 5.3h107.1q7.3 0 12.6-5.3t5.3-12.6v-178.6q0-7.3-5.3-12.6t-12.6-5.3h-107.1q-7.3 0-12.6 5.3t-5.3 12.6v178.6z"/></svg>