<svg height="1000px" width="857.1428571428571px" xmlns="http://www.w3.org/2000/svg">
  <g>
    <path d="M0 875c0 0 0 -750 0 -750c0 -14.881 5.208 -27.53 15.625 -37.946c10.417 -10.417 23.065 -15.625 37.946 -15.625c0 0 517.858 0 517.858 0c14.881 0 31.25 3.72 49.107 11.16c17.857 7.441 31.994 16.369 42.41 26.786c0 0 156.25 156.25 156.25 156.25c10.417 10.417 19.346 24.554 26.786 42.411c7.441 17.857 11.161 34.226 11.161 49.107c0 0 0 517.857 0 517.857c0 14.881 -5.208 27.53 -15.625 37.946c-10.417 10.417 -23.066 15.625 -37.947 15.625c0 0 -750 0 -750 0c-14.881 0 -27.529 -5.208 -37.946 -15.625c-10.417 -10.416 -15.625 -23.065 -15.625 -37.946c0 0 0 0 0 0m71.429 -17.857c0 0 71.428 0 71.428 0c0 0 0 -232.143 0 -232.143c0 -14.881 5.208 -27.53 15.625 -37.946c10.417 -10.417 23.066 -15.625 37.947 -15.625c0 0 464.285 0 464.285 0c14.881 0 27.53 5.208 37.947 15.625c10.416 10.416 15.625 23.065 15.625 37.946c0 0 0 232.143 0 232.143c0 0 71.428 0 71.428 0c0 0 0 -500 0 -500c0 -5.208 -1.86 -12.37 -5.58 -21.485c-3.72 -9.114 -7.441 -15.532 -11.161 -19.252c0 0 -156.808 -156.808 -156.808 -156.808c-3.72 -3.72 -10.044 -7.44 -18.973 -11.161c-8.929 -3.72 -16.183 -5.58 -21.763 -5.58c0 0 0 232.143 0 232.143c0 14.881 -5.209 27.53 -15.625 37.946c-10.417 10.417 -23.066 15.625 -37.947 15.625c0 0 -321.428 0 -321.428 0c-14.881 0 -27.53 -5.208 -37.947 -15.625c-10.417 -10.416 -15.625 -23.065 -15.625 -37.946c0 0 0 -232.143 0 -232.143c0 0 -71.428 0 -71.428 0c0 0 0 714.286 0 714.286c0 0 0 0 0 0m142.857 0c0 0 428.571 0 428.571 0c0 0 0 -214.286 0 -214.286c0 0 -428.571 0 -428.571 0c0 0 0 214.286 0 214.286c0 0 0 0 0 0m142.857 -517.857c0 4.836 1.767 9.021 5.301 12.556c3.534 3.534 7.72 5.301 12.556 5.301c0 0 107.143 0 107.143 0c4.836 0 9.021 -1.767 12.556 -5.301c3.534 -3.535 5.301 -7.72 5.301 -12.556c0 0 0 -178.572 0 -178.572c0 -4.836 -1.767 -9.021 -5.301 -12.556c-3.535 -3.534 -7.72 -5.301 -12.556 -5.301c0 0 -107.143 0 -107.143 0c-4.836 0 -9.022 1.767 -12.556 5.301c-3.534 3.535 -5.301 7.72 -5.301 12.556c0 0 0 178.572 0 178.572c0 0 0 0 0 0" />
  </g>
</svg>