<svg height="1000" width="857.1" xmlns="http://www.w3.org/2000/svg"><path d="M214.3 857.1h428.6V642.9H214.3v214.2zm500 0h71.4v-500q0 -7.8 -5.6 -21.4T769 316.4L612.2 159.6q-5.6 -5.6 -19 -11.2t-21.8 -5.5V375q0 22.3 -15.6 37.9t-37.9 15.7H196.4q-22.3 0 -37.9 -15.7T142.9 375V142.9H71.4v714.2h71.5V625q0 -22.3 15.6 -37.9t37.9 -15.7h464.3q22.3 0 38 15.7t15.6 37.9v232.1zM500 339.3V160.7q0 -7.2 -5.3 -12.5t-12.6 -5.3H375q-7.3 0 -12.6 5.3t-5.3 12.5v178.6q0 7.2 5.3 12.5t12.6 5.3h107.1q7.3 0 12.6 -5.3t5.3 -12.5zm357.1 17.8V875q0 22.3 -15.6 37.9t-37.9 15.7h-750q-22.4 0 -38 -15.7T0 875V125Q0 102.7 15.6 87.1t38 -15.7h517.8q22.4 0 49.1 11.2t42.4 26.8l156.3 156.2q15.6 15.7 26.8 42.4t11.1 49.1z"/></svg>