<svg height="1000" width="857.143" xmlns="http://www.w3.org/2000/svg"><path d="M214.272 857.152h428.544v-214.272h-428.544v214.272zm499.968 0h71.424v-499.968q0 -7.812 -5.58 -21.483t-11.16 -19.251l-156.798 -156.798q-5.58 -5.58 -18.972 -11.16t-21.762 -5.58v232.128q0 22.32 -15.624 37.944t-37.944 15.624h-321.408q-22.32 0 -37.944 -15.624t-15.624 -37.944v-232.128h-71.424v714.24h71.424v-232.128q0 -22.32 15.624 -37.944t37.944 -15.624h464.256q22.32 0 37.944 15.624t15.624 37.944v232.128zm-214.272 -517.824v-178.56q0 -7.254 -5.301 -12.555t-12.555 -5.301h-107.136q-7.254 0 -12.555 5.301t-5.301 12.555v178.56q0 7.254 5.301 12.555t12.555 5.301h107.136q7.254 0 12.555 -5.301t5.301 -12.555zm357.12 17.856v517.824q0 22.32 -15.624 37.944t-37.944 15.624h-749.952q-22.32 0 -37.944 -15.624t-15.624 -37.944v-749.952q0 -22.32 15.624 -37.944t37.944 -15.624h517.824q22.32 0 49.104 11.16t42.408 26.784l156.24 156.24q15.624 15.624 26.784 42.408t11.16 49.104z"/></svg>