<svg height="1000" width="858" xmlns="http://www.w3.org/2000/svg"><path d="M0 875.008l0-749.952q0-22.32 15.624-37.944t37.944-15.624l517.824 0q22.32 0 49.104 11.16t42.408 26.784l156.24 156.24q15.624 15.624 26.784 42.408t11.16 49.104l0 517.824q0 22.32-15.624 37.944t-37.944 15.624l-749.952 0q-22.32 0-37.944-15.624t-15.624-37.944zm71.424-17.856l71.424 0l0-232.128q0-22.32 15.624-37.944t37.944-15.624l464.256 0q22.32 0 37.944 15.624t15.624 37.944l0 232.128l71.424 0l0-499.968q0-7.812-5.58-21.483t-11.16-19.251l-156.798-156.798q-5.58-5.58-18.972-11.16t-21.762-5.58l0 232.128q0 22.32-15.624 37.944t-37.944 15.624l-321.408 0q-22.32 0-37.944-15.624t-15.624-37.944l0-232.128l-71.424 0l0 714.24zm142.848 0l428.544 0l0-214.272l-428.544 0l0 214.272zm142.848-517.824q0 7.254 5.301 12.555t12.555 5.301l107.136 0q7.254 0 12.555-5.301t5.301-12.555l0-178.56q0-7.254-5.301-12.555t-12.555-5.301l-107.136 0q-7.254 0-12.555 5.301t-5.301 12.555l0 178.56z"/></svg>