<svg height="1000px" width="899.90234375px" xmlns="http://www.w3.org/2000/svg">
  <g>
    <path d="M0 818.84765625c0 0 0 -637.695 0 -637.695c0 -15.3 5.534 -28.483 16.602 -39.551c11.067 -11.068 24.251 -16.602 39.55 -16.602c0 0 337.891 0 337.891 0c15.299 0 28.483 5.534 39.551 16.602c11.067 11.068 16.601 24.251 16.601 39.551c0 15.299 5.453 28.401 16.358 39.306c10.905 10.905 24.007 16.358 39.306 16.358c0 0 338.379 0 338.379 0c15.3 0 28.402 5.696 39.307 17.09c10.905 11.393 16.357 24.739 16.357 40.039c0 0 0 524.902 0 524.902c0 15.299 -5.452 28.483 -16.357 39.551c-10.905 11.067 -24.007 16.601 -39.307 16.601c0 0 -788.086 0 -788.086 0c-15.299 0 -28.483 -5.534 -39.55 -16.601c-11.068 -11.068 -16.602 -24.252 -16.602 -39.551c0 0 0 0 0 0" />
  </g>
</svg>