<svg height="1000" width="928.571" xmlns="http://www.w3.org/2000/svg"><path d="M857.088 732.16v-392.832q0 -22.32 -15.624 -37.944t-37.944 -15.624h-392.832q-22.32 0 -37.944 -15.624t-15.624 -37.944v-35.712q0 -22.32 -15.624 -37.944t-37.944 -15.624h-178.56q-22.32 0 -37.944 15.624t-15.624 37.944v535.68q0 22.32 15.624 37.944t37.944 15.624h678.528q22.32 0 37.944 -15.624t15.624 -37.944zm71.424 -392.832v392.832q0 51.336 -36.828 88.164t-88.164 36.828h-678.528q-51.336 0 -88.164 -36.828t-36.828 -88.164v-535.68q0 -51.336 36.828 -88.164t88.164 -36.828h178.56q51.336 0 88.164 36.828t36.828 88.164v17.856h374.976q51.336 0 88.164 36.828t36.828 88.164z"/></svg>