<svg height="1000px" width="899.90234375px" xmlns="http://www.w3.org/2000/svg">
  <g>
    <path d="M0 689.94140625c0 0 0 -508.789 0 -508.789c0 -15.3 5.534 -28.483 16.602 -39.551c11.067 -11.068 24.251 -16.601 39.55 -16.601c0 0 337.891 0 337.891 0c15.299 0 28.483 5.533 39.551 16.601c11.067 11.068 16.601 24.251 16.601 39.551c0 15.299 5.453 28.402 16.358 39.307c10.905 10.905 24.007 16.357 39.306 16.357c0 0 216.309 0 216.309 0c15.299 0 28.402 5.697 39.307 17.09c10.905 11.393 16.357 24.739 16.357 40.039c0 0 0 107.91 0 107.91c0 0 -599.609 0 -599.609 0c-12.045 0 -23.763 2.035 -35.157 6.104c-11.393 4.069 -22.054 9.602 -31.982 16.601c-9.928 6.999 -18.555 15.3 -25.879 24.902c-7.324 9.603 -13.102 20.101 -17.334 31.495c0 0 -67.871 208.984 -67.871 208.984m20.996 185.059c0 0 120.117 -371.094 120.117 -371.094c1.953 -7.487 6.918 -13.835 14.893 -19.043c7.975 -5.208 15.706 -7.813 23.193 -7.813c0 0 720.703 0 720.703 0c0 0 -126.953 370.118 -126.953 370.118c-1.953 7.487 -6.917 13.997 -14.892 19.531c-7.976 5.534 -15.707 8.301 -23.194 8.301c0 0 -713.867 0 -713.867 0c0 0 0 0 0 0" />
  </g>
</svg>