<svg height="1000" width="1049" xmlns="http://www.w3.org/2000/svg"><path d="M0 732.16l0-535.68q0-51.336 36.828-88.164t88.164-36.828l178.56 0q51.336 0 88.164 36.828t36.828 88.164l0 17.856l303.552 0q51.336 0 88.164 36.828t36.828 88.164l0 89.28l-464.256 0q-52.452 0-109.926 26.505t-91.512 66.681l-188.046 220.968-2.79 3.348q0-2.232-.279-6.975t-.279-6.975zm40.734 93.744q0-17.298 17.298-36.828l187.488-220.968q23.994-28.458 67.239-48.267t80.073-19.809l607.104 0q18.972 0 33.759 7.254t14.787 23.994q0 17.298-17.298 36.828l-187.488 220.968q-23.994 28.458-67.239 48.267t-80.073 19.809l-607.104 0q-18.972 0-33.759-7.254t-14.787-23.994z"/></svg>