<svg height="1000px" width="1071.4285714285716px" xmlns="http://www.w3.org/2000/svg">
  <g>
    <path d="M0 732.1428571428571c0 0 0 -535.714 0 -535.714c0 -34.226 12.277 -63.616 36.83 -88.17c24.554 -24.553 53.944 -36.83 88.17 -36.83c0 0 178.571 0 178.571 0c34.227 0 63.616 12.277 88.17 36.83c24.554 24.554 36.83 53.944 36.83 88.17c0 0 0 17.857 0 17.857c0 0 303.572 0 303.572 0c34.226 0 63.616 12.277 88.169 36.83c24.554 24.554 36.831 53.944 36.831 88.17c0 0 0 89.286 0 89.286c0 0 107.143 0 107.143 0c20.089 0 38.504 4.557 55.245 13.671c16.741 9.115 29.204 22.229 37.389 39.342c5.58 11.905 8.37 24.554 8.37 37.946c0 23.066 -8.556 45.387 -25.669 66.965c0 0 -164.621 202.567 -164.621 202.567c-15.997 19.717 -37.574 35.993 -64.732 48.828c-27.158 12.835 -53.2 19.252 -78.125 19.252c0 0 -607.143 0 -607.143 0c-34.226 0 -63.616 -12.277 -88.17 -36.83c-24.553 -24.554 -36.83 -53.944 -36.83 -88.17c0 0 0 0 0 0m71.429 -59.71c0 0 142.857 -175.781 142.857 -175.781c16.369 -19.717 37.946 -35.993 64.732 -48.828c26.786 -12.835 52.827 -19.252 78.125 -19.252c0 0 428.571 0 428.571 0c0 0 0 -89.286 0 -89.286c0 -14.881 -5.208 -27.53 -15.625 -37.947c-10.416 -10.416 -23.065 -15.625 -37.946 -15.625c0 0 -321.429 0 -321.429 0c-14.881 0 -27.529 -5.208 -37.946 -15.625c-10.417 -10.416 -15.625 -23.065 -15.625 -37.946c0 0 0 -35.714 0 -35.714c0 -14.881 -5.208 -27.53 -15.625 -37.947c-10.417 -10.416 -23.066 -15.625 -37.947 -15.625c0 0 -178.571 0 -178.571 0c-14.881 0 -27.53 5.209 -37.946 15.625c-10.417 10.417 -15.625 23.066 -15.625 37.947c0 0 0 476.004 0 476.004c0 0 0 0 0 0m23.995 93.75c0 13.021 9.859 19.531 29.576 19.531c0 0 607.143 0 607.143 0c14.881 0 30.878 -4.092 47.991 -12.276c17.113 -8.185 30.32 -18.044 39.62 -29.576c0 0 164.063 -202.567 164.063 -202.567c6.696 -8.185 10.045 -15.439 10.045 -21.764c0 -13.02 -9.859 -19.531 -29.576 -19.531c0 0 -607.143 0 -607.143 0c-14.881 0 -30.785 3.999 -47.712 11.998c-16.927 7.998 -30.227 17.764 -39.9 29.297c0 0 -164.062 202.567 -164.062 202.567c-6.697 8.928 -10.045 16.369 -10.045 22.321c0 0 0 0 0 0" />
  </g>
</svg>