<svg height="1000" width="929" xmlns="http://www.w3.org/2000/svg"><path d="M0 732.16l0-535.68q0-51.336 36.828-88.164t88.164-36.828l178.56 0q51.336 0 88.164 36.828t36.828 88.164l0 17.856l374.976 0q51.336 0 88.164 36.828t36.828 88.164l0 392.832q0 51.336-36.828 88.164t-88.164 36.828l-678.528 0q-51.336 0-88.164-36.828t-36.828-88.164zm71.424 0q0 22.32 15.624 37.944t37.944 15.624l678.528 0q22.32 0 37.944-15.624t15.624-37.944l0-392.832q0-22.32-15.624-37.944t-37.944-15.624l-392.832 0q-22.32 0-37.944-15.624t-15.624-37.944l0-35.712q0-22.32-15.624-37.944t-37.944-15.624l-178.56 0q-22.32 0-37.944 15.624t-15.624 37.944l0 535.68z"/></svg>