<svg height="1000" width="1071.4" xmlns="http://www.w3.org/2000/svg"><path d="M0 732.2v-535.7q0-51.3 36.8-88.2t88.2-36.8h178.6q51.3 0 88.2 36.8t36.8 88.2v17.9h303.6q51.3 0 88.2 36.8t36.8 88.2v89.3h107.1q30.1 0 55.2 13.7t37.4 39.3q8.4 17.9 8.4 37.9 0 34.6-25.7 67l-164.6 202.6q-24 29.6-64.7 48.8t-78.1 19.3h-607.1q-51.3 0-88.2-36.8t-36.8-88.2zm71.4-59.7l142.8-175.8q24.6-29.6 64.7-48.8t78.1-19.3h428.5v-89.3q0-22.3-15.6-37.9t-37.9-15.6h-321.4q-22.3 0-37.9-15.6t-15.6-37.9v-35.7q0-22.3-15.6-37.9t-37.9-15.6h-178.6q-22.3 0-37.9 15.6t-15.6 37.9v476zm24 93.7q0 19.5 29.6 19.5h607.1q22.3 0 48-12.3t39.6-29.6l164.1-202.6q10-12.3 10-21.8 0-19.5-29.6-19.5h-607.1q-22.3 0-47.7 12t-39.9 29.3l-164.1 202.6q-10 13.4-10 22.3z"/></svg>