<svg height="1000" width="1066" xmlns="http://www.w3.org/2000/svg"><path d="M0 732.16l0-535.68q0-51.336 36.828-88.164t88.164-36.828l178.56 0q51.336 0 88.164 36.828t36.828 88.164l0 17.856l303.552 0q51.336 0 88.164 36.828t36.828 88.164l0 89.28l107.136 0q30.132 0 55.242 13.671t37.386 39.339q8.37 17.856 8.37 37.944 0 34.596-25.668 66.96l-164.61 202.554q-23.994 29.574-64.728 48.825t-78.12 19.251l-607.104 0q-51.336 0-88.164-36.828t-36.828-88.164zm71.424-59.706l142.848-175.77q24.552-29.574 64.728-48.825t78.12-19.251l428.544 0l0-89.28q0-22.32-15.624-37.944t-37.944-15.624l-321.408 0q-22.32 0-37.944-15.624t-15.624-37.944l0-35.712q0-22.32-15.624-37.944t-37.944-15.624l-178.56 0q-22.32 0-37.944 15.624t-15.624 37.944l0 475.974zm23.994 93.744q0 19.53 29.574 19.53l607.104 0q22.32 0 47.988-12.276t39.618-29.574l164.052-202.554q10.044-12.276 10.044-21.762 0-19.53-29.574-19.53l-607.104 0q-22.32 0-47.709 11.997t-39.897 29.295l-164.052 202.554q-10.044 13.392-10.044 22.32z"/></svg>