<svg height="1000px" width="1071.4285714285716px" xmlns="http://www.w3.org/2000/svg">
  <g>
    <path d="M1019.53125 442.24330357142856c16.741 9.115 28.553 20.926 35.435 35.435c6.883 14.509 10.324 30.878 10.324 49.107c0 18.23 -8.557 38.133 -25.67 59.71c0 0 -164.62 202.567 -164.62 202.567c-15.997 19.717 -37.575 35.993 -64.732 48.828c-27.158 12.835 -53.2 19.253 -78.125 19.253c0 0 -607.143 0 -607.143 0c-34.226 0 -63.616 -12.277 -88.17 -36.831c-24.553 -24.553 -36.83 -53.943 -36.83 -88.169c0 0 0 -535.715 0 -535.715c0 -34.226 12.277 -63.616 36.83 -88.169c24.554 -24.554 53.944 -36.831 88.17 -36.831c0 0 178.571 0 178.571 0c34.226 0 63.616 12.277 88.17 36.831c24.553 24.553 36.83 53.943 36.83 88.169c0 0 0 17.857 0 17.857c0 0 303.572 0 303.572 0c34.226 0 63.616 12.277 88.169 36.831c24.554 24.553 36.831 53.943 36.831 88.169c0 0 0 89.286 0 89.286c0 0 107.142 0 107.142 0c20.09 0 38.505 4.557 55.246 13.672c0 0 0 0 0 0m-662.388 -13.672c0 0 428.571 0 428.571 0c0 0 0 -89.286 0 -89.286c0 -14.881 -5.208 -27.529 -15.625 -37.946c-10.417 -10.417 -23.065 -15.625 -37.946 -15.625c0 0 -321.429 0 -321.429 0c-14.881 0 -27.53 -5.208 -37.946 -15.625c-10.417 -10.417 -15.625 -23.065 -15.625 -37.946c0 0 0 -35.715 0 -35.715c0 -14.881 -5.209 -27.529 -15.625 -37.946c-10.417 -10.417 -23.066 -15.625 -37.947 -15.625c0 0 -178.571 0 -178.571 0c-14.881 0 -27.53 5.208 -37.947 15.625c-10.416 10.417 -15.625 23.065 -15.625 37.946c0 0 0 476.005 0 476.005c0 0 142.857 -175.782 142.857 -175.782c16.37 -19.717 37.947 -35.993 64.733 -48.828c26.785 -12.834 52.827 -19.252 78.125 -19.252c0 0 0 0 0 0m636.718 90.96c0 -13.021 -9.858 -19.531 -29.576 -19.531c0 0 -607.142 0 -607.142 0c-14.881 0 -30.785 3.999 -47.712 11.997c-16.928 7.999 -30.227 17.765 -39.9 29.297c0 0 -164.062 202.567 -164.062 202.567c-6.697 8.929 -10.045 16.369 -10.045 22.322c0 13.021 9.858 19.531 29.576 19.531c0 0 607.143 0 607.143 0c14.881 0 30.878 -4.092 47.991 -12.277c17.113 -8.184 30.32 -18.043 39.62 -29.576c0 0 164.063 -202.567 164.063 -202.567c6.696 -8.184 10.044 -15.439 10.044 -21.763c0 0 0 0 0 0" />
  </g>
</svg>