<svg height="1000px" width="900px" xmlns="http://www.w3.org/2000/svg">
  <g>
    <path d="M0 690c0 0 0 -509 0 -509c0 -15.333 5.5 -28.5 16.5 -39.5c11 -11 24.167 -16.5 39.5 -16.5c0 0 338 0 338 0c15.333 0 28.5 5.5 39.5 16.5c11 11 16.5 24.167 16.5 39.5c0 15.333 5.5 28.5 16.5 39.5c11 11 24.167 16.5 39.5 16.5c0 0 216 0 216 0c15.333 0 28.5 5.667 39.5 17c11 11.333 16.5 24.667 16.5 40c0 0 0 108 0 108c0 0 -600 0 -600 0c-12 0 -23.667 2 -35 6c-11.333 4 -22 9.5 -32 16.5c-10 7 -18.667 15.333 -26 25c-7.333 9.667 -13 20.167 -17 31.5c0 0 -68 209 -68 209m21 185c0 0 120 -371 120 -371c2 -7.333 7 -13.667 15 -19c8 -5.333 15.667 -8 23 -8c0 0 721 0 721 0c0 0 -127 370 -127 370c-2 7.333 -7 13.833 -15 19.5c-8 5.667 -15.667 8.5 -23 8.5c0 0 -714 0 -714 0c0 0 0 0 0 0" />
  </g>
</svg>