<svg height="1000px" width="1071.4285714285716px" xmlns="http://www.w3.org/2000/svg">
  <g>
    <path d="M0.5580357142857143 746.09375c0 0 -0.558 -13.951 -0.558 -13.951c0 0 0 -535.714 0 -535.714c0 -34.226 12.277 -63.616 36.83 -88.17c24.554 -24.553 53.944 -36.83 88.17 -36.83c0 0 178.571 0 178.571 0c34.227 0 63.616 12.277 88.17 36.83c24.554 24.554 36.83 53.944 36.83 88.17c0 0 0 17.857 0 17.857c0 0 303.572 0 303.572 0c34.226 0 63.616 12.277 88.169 36.83c24.554 24.554 36.831 53.944 36.831 88.17c0 0 0 89.286 0 89.286c0 0 -464.286 0 -464.286 0c-34.97 0 -71.614 8.835 -109.933 26.506c-38.318 17.672 -68.824 39.9 -91.518 66.686c0 0 -190.848 224.33 -190.848 224.33m999.442 -246.094c32.366 0 48.549 10.417 48.549 31.25c0 11.161 -5.766 23.438 -17.299 36.831c0 0 -187.5 220.982 -187.5 220.982c-15.997 18.973 -38.411 35.063 -67.243 48.27c-28.832 13.207 -55.525 19.81 -80.078 19.81c0 0 -607.143 0 -607.143 0c-12.649 0 -23.903 -2.418 -33.761 -7.254c-9.859 -4.837 -14.788 -12.928 -14.788 -24.275c0 -11.347 5.766 -23.53 17.299 -36.551c0 0 187.5 -220.982 187.5 -220.982c15.997 -18.974 38.411 -35.064 67.243 -48.27c28.832 -13.207 55.525 -19.811 80.078 -19.811c0 0 607.143 0 607.143 0c0 0 0 0 0 0" />
  </g>
</svg>