<svg height="1000px" width="928.5714285714286px" xmlns="http://www.w3.org/2000/svg">
  <g>
    <path d="M0 732.1428571428571c0 0 0 -535.714 0 -535.714c0 -34.226 12.277 -63.616 36.83 -88.17c24.554 -24.553 53.944 -36.83 88.17 -36.83c0 0 178.571 0 178.571 0c34.227 0 63.616 12.277 88.17 36.83c24.554 24.554 36.83 53.944 36.83 88.17c0 0 0 17.857 0 17.857c0 0 375 0 375 0c34.227 0 63.616 12.277 88.17 36.83c24.554 24.554 36.83 53.944 36.83 88.17c0 0 0 392.857 0 392.857c0 34.226 -12.276 63.616 -36.83 88.17c-24.553 24.553 -53.943 36.83 -88.17 36.83c0 0 -678.571 0 -678.571 0c-34.226 0 -63.616 -12.277 -88.17 -36.83c-24.553 -24.554 -36.83 -53.944 -36.83 -88.17c0 0 0 0 0 0" />
  </g>
</svg>