<svg height="1000px" width="928.5714285714286px" xmlns="http://www.w3.org/2000/svg">
  <g>
    <path d="M0 928.5714285714286c0 0 1.116 -44.085 1.116 -44.085c8.185 -2.604 23.066 -5.952 44.643 -10.044c33.11 -5.953 53.571 -11.719 61.384 -17.3c7.44 -5.952 16.369 -18.601 26.786 -37.946c0 0 132.254 -343.75 132.254 -343.75c0 0 156.25 -404.018 156.25 -404.018c0 0 41.853 0 41.853 0c0 0 29.576 0 29.576 0c0 0 6.138 11.719 6.138 11.719c0 0 114.397 267.857 114.397 267.857c38.319 90.03 61.384 145.275 69.197 165.737c14.509 37.946 32.366 81.659 53.571 131.138c9.673 21.577 21.764 52.083 36.272 91.518c8.929 24.925 21.02 52.641 36.273 83.147c8.184 18.229 14.695 28.832 19.531 31.808c8.185 7.069 21.019 11.347 38.505 12.835c17.485 2.232 36.644 7.255 57.477 15.067c2.232 14.509 3.348 25.112 3.348 31.808c0 5.208 -0.186 10.045 -0.558 14.509c-29.762 0 -65.476 -1.488 -107.142 -4.464c-34.599 -2.976 -69.755 -4.465 -105.469 -4.465c-29.39 0 -54.502 0.372 -75.335 1.116c0 0 -111.607 6.139 -111.607 6.139c0 0 -32.366 1.116 -32.366 1.116c0 -16.741 0.744 -31.25 2.232 -43.527c0 0 73.103 -15.625 73.103 -15.625c20.833 -4.836 33.482 -9.114 37.946 -12.835c4.464 -4.464 6.696 -9.486 6.696 -15.067c0 -5.58 -1.116 -11.532 -3.348 -17.857c0 0 -26.227 -63.616 -26.227 -63.616c0 0 -51.34 -127.232 -51.34 -127.232c0 0 -251.116 -1.116 -251.116 -1.116c-10.789 24.182 -30.134 75.149 -58.036 152.902c-8.556 23.809 -12.834 39.434 -12.834 46.875c0 11.532 3.162 19.531 9.486 23.995c9.673 7.813 28.832 13.765 57.478 17.857c1.116 0 3.627 0.372 7.533 1.116c3.907 0.745 9.487 1.675 16.741 2.791c7.255 1.116 14.788 2.232 22.601 3.348c0.372 10.417 0.558 21.205 0.558 32.366c0 6.324 -0.372 11.347 -1.116 15.067c-24.554 0 -89.472 -3.72 -194.755 -11.161c0 0 -26.785 4.464 -26.785 4.464c-30.134 5.209 -61.198 7.813 -93.192 7.813c0 0 -11.719 0 -11.719 0c0 0 0 0 0 0m309.71 -365.513c27.158 0.372 55.71 0.744 85.658 1.116c29.948 0.372 52.084 0.651 66.407 0.837c14.322 0.186 24.088 0.279 29.296 0.279c0 0 16.183 -1.116 16.183 -1.116c-11.904 -35.343 -29.017 -80.171 -51.339 -134.487c-19.717 -49.107 -36.83 -88.356 -51.339 -117.745c0 0 -94.866 251.116 -94.866 251.116" />
  </g>
</svg>