<svg height="1000px" width="928.5714285714286px" xmlns="http://www.w3.org/2000/svg">
  <g>
    <path d="M11.71875 928.5714285714286c0 0 -11.719 0 -11.719 0c0 0 1.116 -44.085 1.116 -44.085c8.185 -2.604 25.949 -6.417 53.293 -11.44c27.343 -5.022 44.922 -10.323 52.734 -15.904c7.441 -5.952 16.369 -18.601 26.786 -37.946c0 0 288.504 -747.768 288.504 -747.768c0 0 71.429 0 71.429 0c0 0 6.138 11.719 6.138 11.719c0 0 114.398 267.857 114.398 267.857c38.318 90.03 63.058 149.647 74.218 178.85c11.161 29.204 24.461 61.57 39.9 97.099c15.439 35.528 29.018 69.382 40.736 101.562c11.719 32.18 23.438 60.454 35.157 84.822c11.718 24.367 19.996 38.039 24.832 41.015c8.185 7.069 21.02 11.533 38.505 13.393c17.485 1.86 36.644 6.697 57.477 14.509c2.233 14.509 3.349 24.74 3.349 30.692c0 5.952 -0.186 11.161 -0.558 15.625c-29.762 0 -63.709 -1.488 -101.842 -4.464c-38.132 -2.976 -73.475 -4.465 -106.027 -4.465c-32.552 0 -59.244 0.372 -80.078 1.117c0 0 -111.607 6.138 -111.607 6.138c0 0 -32.366 1.116 -32.366 1.116c0 -16.741 0.744 -31.25 2.232 -43.527c0 0 73.103 -15.625 73.103 -15.625c20.833 -4.836 33.482 -9.3 37.946 -13.393c4.465 -4.092 6.697 -8.928 6.697 -14.509c0 -5.58 -1.116 -11.532 -3.349 -17.857c0 0 -77.567 -190.848 -77.567 -190.848c0 0 -251.116 -1.116 -251.116 -1.116c-10.788 24.182 -25.297 61.663 -43.526 112.444c-18.23 50.781 -27.344 80.915 -27.344 90.402c0 9.487 3.999 17.299 11.998 23.437c7.998 6.139 19.438 10.231 34.319 12.277c15.253 2.046 24.739 3.441 28.46 4.186c7.44 1.488 20.461 3.534 39.062 6.138c0.372 10.417 0.558 19.996 0.558 28.739c0 8.742 -0.372 14.974 -1.116 18.694c-24.553 0 -89.472 -3.72 -194.754 -11.161c0 0 -26.786 4.464 -26.786 4.464c-30.134 5.209 -61.198 7.813 -93.192 7.813c0 0 0 0 0 0m297.991 -365.513c108.631 1.488 169.085 2.232 181.362 2.232c0 0 16.183 -1.116 16.183 -1.116c-11.905 -35.343 -28.367 -78.869 -49.386 -130.581c-21.02 -51.711 -38.784 -92.262 -53.293 -121.651c0 0 -94.866 251.116 -94.866 251.116" />
  </g>
</svg>