<svg height="1000" width="928.571" xmlns="http://www.w3.org/2000/svg"><path d="M404.55 311.986l-94.86 251.1q18.414 0 76.167 1.116t89.559 1.116q10.602 0 31.806 -1.116 -48.546 -141.174 -102.672 -252.216zm-404.55 616.59l1.116 -44.082q12.834 -3.906 31.248 -6.975t31.806 -5.859 27.621 -8.091 24.831 -16.182 17.298 -28.179l132.246 -343.728 156.24 -403.992h71.424q4.464 7.812 6.138 11.718l114.39 267.84q18.414 43.524 59.148 143.685t63.612 153.171q8.37 18.972 32.364 80.631t40.176 94.023q11.16 25.11 19.53 31.806 10.602 8.37 49.104 16.461t46.872 11.439q3.348 21.204 3.348 31.806 0 2.232 -.279 7.254t-.279 7.254q-35.154 0 -106.02 -4.464t-106.578 -4.464q-42.408 0 -119.97 3.906t-99.324 4.464q0 -23.994 2.232 -43.524l73.098 -15.624q.558 0 6.975 -1.395t8.649 -1.953 8.091 -2.511 8.37 -3.627 6.138 -4.464 5.022 -6.138 1.395 -7.812q0 -8.928 -17.298 -53.847t-40.176 -99.045 -23.436 -55.8l-251.1 -1.116q-14.508 32.364 -42.687 109.089t-28.179 90.675q0 12.276 7.812 20.925t24.273 13.671 27.063 7.533 31.806 4.743 22.878 2.232q.558 10.602 .558 32.364 0 5.022 -1.116 15.066 -32.364 0 -97.371 -5.58t-97.371 -5.58q-4.464 0 -14.787 2.232t-11.997 2.232q-44.64 7.812 -104.904 7.812z"/></svg>