<svg height="1000" width="928.6" xmlns="http://www.w3.org/2000/svg"><path d="M0 928.6l1.1-44.1q12.3-3.9 44.6-10 49.7-8.9 61.4-17.3 11.2-8.9 26.8-37.9l132.2-343.7 156.2-404h71.5l6.1 11.7 114.4 267.8q57.5 135 69.2 165.7 21.8 56.9 53.6 131.1 14.5 32.4 36.3 91.5 13.4 37.4 36.3 83.1 12.3 27.3 19.5 31.8 12.3 10.6 38.5 12.8 26.2 3.3 57.5 15.1 3.3 21.8 3.3 31.8 0 7.8-.6 14.5-44.6 0-107.1-4.5-51.9-4.5-105.5-4.5-44.1 0-75.3 1.1l-111.6 6.1-32.4 1.1q0-25.1 2.2-43.5l73.1-15.6q31.2-7.3 37.9-12.8 6.7-6.7 6.7-15.1t-3.3-17.9l-26.2-63.6-51.3-127.2-251.1-1.1q-16.2 36.3-58 152.9-12.8 35.7-12.8 46.9 0 17.3 9.5 24 14.5 11.7 57.5 17.9 1.7 0 7.5 1.1t16.7 2.8 22.6 3.3q.6 15.6.6 32.4 0 9.5-1.1 15.1-36.8 0-194.7-11.2l-26.8 4.5q-45.2 7.8-93.2 7.8h-11.7zm309.7-365.5q40.7.6 85.7 1.1t66.4.8 29.3.3l16.2-1.1q-17.9-53-51.3-134.5-29.6-73.7-51.3-117.7z"/></svg>