<svg height="1000" width="928.6" xmlns="http://www.w3.org/2000/svg"><path d="M404.6 311.9l-94.9 251.2q18.4 0 76.2 1.1t89.5 1.1q10.6 0 31.9 -1.1Q458.7 423 404.6 311.9zM0 928.6l1.1 -44.1q12.9 -3.9 31.3 -7t31.8 -5.8 27.6 -8.1 24.8 -16.2 17.3 -28.2L266.2 475.4l156.2 -404h71.5q4.4 7.8 6.1 11.7L614.4 351q18.4 43.5 59.1 143.7t63.7 153.2q8.3 19 32.3 80.6t40.2 94q11.2 25.2 19.5 31.9 10.6 8.3 49.1 16.4t46.9 11.5q3.4 21.2 3.4 31.8 0 2.2 -.3 7.2t-.3 7.3q-35.1 0 -106 -4.5t-106.6 -4.5q-42.4 0 -120 3.9t-99.3 4.5q0 -24 2.2 -43.5l73.1 -15.6q.6 0 7 -1.4t8.7 -2 8 -2.5 8.4 -3.6 6.2 -4.5 5 -6.1 1.4 -7.8q0 -9 -17.3 -53.9t-40.2 -99 -23.4 -55.8L284 631.1q-14.5 32.4 -42.6 109.1t-28.2 90.7q0 12.3 7.8 20.9t24.3 13.7 27 7.5 31.8 4.8T327 880q.6 10.6 .6 32.4 0 5 -1.1 15.1 -32.4 0 -97.4 -5.6t-97.4 -5.6q-4.5 0 -14.8 2.2t-12 2.3Q60.3 928.6 0 928.6z"/></svg>