<svg height="1000" width="928.571" xmlns="http://www.w3.org/2000/svg"><path d="M404.55 311.986l-94.86 251.1q40.734 .558 85.653 1.116t66.402 .837 29.295 .279l16.182 -1.116q-17.856 -53.01 -51.336 -134.478 -29.574 -73.656 -51.336 -117.738zm-392.832 616.59h-11.718l1.116 -44.082q12.276 -3.906 44.64 -10.044 49.662 -8.928 61.38 -17.298 11.16 -8.928 26.784 -37.944l132.246 -343.728 156.24 -403.992h71.424l6.138 11.718 114.39 267.84q57.474 135.036 69.192 165.726 21.762 56.916 53.568 131.13 14.508 32.364 36.27 91.512 13.392 37.386 36.27 83.142 12.276 27.342 19.53 31.806 12.276 10.602 38.502 12.834 26.226 3.348 57.474 15.066 3.348 21.762 3.348 31.806 0 7.812 -.558 14.508 -44.64 0 -107.136 -4.464 -51.894 -4.464 -105.462 -4.464 -44.082 0 -75.33 1.116l-111.6 6.138 -32.364 1.116q0 -25.11 2.232 -43.524l73.098 -15.624q31.248 -7.254 37.944 -12.834 6.696 -6.696 6.696 -15.066t-3.348 -17.856l-26.226 -63.612 -51.336 -127.224 -251.1 -1.116q-16.182 36.27 -58.032 152.892 -12.834 35.712 -12.834 46.872 0 17.298 9.486 23.994 14.508 11.718 57.474 17.856 1.674 0 7.533 1.116t16.74 2.79 22.599 3.348q.558 15.624 .558 32.364 0 9.486 -1.116 15.066 -36.828 0 -194.742 -11.16l-26.784 4.464q-45.198 7.812 -93.186 7.812z"/></svg>