<svg height="1000" width="857.1" xmlns="http://www.w3.org/2000/svg"><path d="M0 71.4h857.1v857.2H0V71.4zM506.7 250l-6.7 18.4 41.9 46.3 -17.3 63.6 13.9 14 59.7 -31.8 59.7 31.8 14 -14 -17.3 -63.6 41.8 -46.3L689.7 250h-53l-29.6 -53.6h-17.8L559.7 250h-53zm-149 91q17.9 0 24.8 8.9T389 385l97 -11.7q0 -30.7 -9.7 -51.6t-28.2 -31.2 -38.5 -14.3 -47.4 -3.9q-74.3 0 -111.1 32.1t-36.8 101.9v40.1h-53.6v71.5h42.4q11.2 0 11.2 4.4v213.2q0 7.8 -2.8 11.2t-10 3.9l-40.8 3.9v49.1h250v-48l-83.1 -7.8q-3.4 -.6 -4.8 -.9t-1.9 -1.4 -.3 -2.2 .5 -3.9 .3 -5.6V517.9H428l21.2 -71.5H320.3q-3.3 0 -1.1 -3.3t2.2 -5v-44.7q0 -15.1 .9 -22.6t4.2 -15.6T337.3 344t20.4 -3zm338.7 462.6v-48l-30.1 -5q-3.9 -.6 -5.3 -1.4t-1.4 -1.7 .6 -4.2 .5 -6.7V446.4H507.3l-12.9 56.4 46.3 12.3q12.9 3.9 12.9 15v206.5q0 7.8 -3.4 10.3t-11.1 3.7l-39.1 5v48h196.4z"/></svg>