<svg height="1000px" width="802.734375px" xmlns="http://www.w3.org/2000/svg">
  <g>
    <path d="M0 875c0 0 0.977 -39.063 0.977 -39.063c3.255 -1.302 8.056 -2.604 14.404 -3.906c6.348 -1.302 14.241 -2.604 23.681 -3.906c29.948 -5.859 47.527 -11.23 52.735 -16.113c5.208 -3.255 13.346 -14.323 24.414 -33.203c0 0 113.769 -299.805 113.769 -299.805c0 0 135.254 -354.004 135.254 -354.004c0 0 35.645 0 35.645 0c0 0 25.879 0 25.879 0c0 0 5.371 9.766 5.371 9.766c0 0 98.633 235.351 98.633 235.351c10.742 25.391 21.159 50.049 31.25 73.975c10.091 23.926 19.694 47.607 28.808 71.045c9.44 23.437 17.985 44.596 25.635 63.476c7.65 18.88 14.567 35.645 20.752 50.293c3.906 9.44 8.545 20.834 13.916 34.18c5.371 13.346 11.312 28.646 17.822 45.898c7.487 21.485 17.904 45.899 31.25 73.243c8.138 15.95 13.672 25.227 16.602 27.832c6.51 5.859 17.578 9.765 33.203 11.718c8.138 0.651 16.195 2.198 24.17 4.639c7.975 2.441 16.52 5.29 25.635 8.545c1.953 12.044 3.092 20.996 3.418 26.855c0 0 0 5.127 0 5.127c0 0 -0.489 2.686 -1.465 8.057c-13.998 0 -28.646 -0.326 -43.945 -0.977c-15.3 -0.651 -31.25 -1.627 -47.852 -2.929c-17.253 -1.302 -33.366 -2.279 -48.34 -2.93c-14.974 -0.651 -29.134 -0.977 -42.48 -0.977c0 0 -39.063 0 -39.063 0c0 0 -8.626 0.326 -25.879 0.977c0 0 -97.168 4.883 -97.168 4.883c0 0 -27.832 0.976 -27.832 0.976c0 -6.51 0.163 -12.939 0.489 -19.287c0.325 -6.347 0.813 -12.614 1.464 -18.799c0 0 62.989 -12.695 62.989 -12.695c18.554 -4.557 29.459 -8.626 32.714 -12.207c3.907 -2.604 6.023 -6.999 6.348 -13.183c0 -4.558 -1.139 -9.441 -3.418 -14.649c0 0 -22.949 -56.152 -22.949 -56.152c0 0 -43.945 -110.84 -43.945 -110.84c0 0 -217.774 -0.977 -217.774 -0.977c-3.906 9.44 -9.928 25.065 -18.066 46.875c-8.138 21.81 -18.88 50.782 -32.227 86.914c-7.487 20.508 -11.067 34.18 -10.742 41.016c0 8.789 2.604 15.788 7.813 20.996c4.557 3.255 11.067 6.104 19.531 8.545c8.463 2.441 18.717 4.639 30.762 6.592c4.557 1.302 18.229 3.255 41.015 5.859c0 0 0 28.809 0 28.809c0 5.208 -0.325 9.603 -0.976 13.183c-11.394 0 -31.088 -0.813 -59.082 -2.441c-27.995 -1.628 -64.454 -4.232 -109.375 -7.812c0 0 -23.926 4.394 -23.926 4.394c-13.998 2.604 -27.507 4.395 -40.528 5.371c-13.02 0.977 -26.204 1.465 -39.55 1.465c0 0 -9.766 0 -9.766 0c0 0 0 0 0 0m268.066 -319.824c43.946 0.651 79.102 1.302 105.469 1.953c26.367 0.651 43.457 0.651 51.27 0c0 0 14.16 -0.977 14.16 -0.977c-5.86 -16.601 -12.451 -34.749 -19.776 -54.443c-7.324 -19.694 -15.706 -40.934 -25.146 -63.721c-9.44 -22.786 -17.822 -42.643 -25.147 -59.57c-7.324 -16.927 -13.59 -31.087 -18.798 -42.48c0 0 -82.032 219.238 -82.032 219.238" />
  </g>
</svg>