<svg height="1000px" width="785.7142857142858px" xmlns="http://www.w3.org/2000/svg">
  <g>
    <path d="M0 392.85714285714283c0 0 0 -357.143 0 -357.143c0 -9.672 3.534 -18.043 10.603 -25.111c7.068 -7.069 15.439 -10.603 25.111 -10.603c9.673 0 18.043 3.534 25.112 10.603c7.068 7.068 10.603 15.439 10.603 25.111c0 0 0 232.143 0 232.143c0 9.673 3.534 18.043 10.602 25.112c7.069 7.068 15.439 10.602 25.112 10.602c9.672 0 18.043 -3.534 25.111 -10.602c7.069 -7.069 10.603 -15.439 10.603 -25.112c0 0 0 -232.143 0 -232.143c0 -9.672 3.534 -18.043 10.603 -25.111c7.068 -7.069 15.439 -10.603 25.111 -10.603c9.673 0 18.044 3.534 25.112 10.603c7.068 7.068 10.603 15.439 10.603 25.111c0 0 0 232.143 0 232.143c0 9.673 3.534 18.043 10.602 25.112c7.069 7.068 15.439 10.602 25.112 10.602c9.673 0 18.043 -3.534 25.112 -10.602c7.068 -7.069 10.602 -15.439 10.602 -25.112c0 0 0 -232.143 0 -232.143c0 -9.672 3.535 -18.043 10.603 -25.111c7.068 -7.069 15.439 -10.603 25.112 -10.603c9.672 0 18.043 3.534 25.111 10.603c7.069 7.068 10.603 15.439 10.603 25.111c0 0 0 357.143 0 357.143c0 22.693 -6.604 43.341 -19.81 61.942c-13.207 18.601 -30.413 31.622 -51.619 39.062c0 0 0 434.71 0 434.71c0 19.346 -7.068 36.087 -21.205 50.224c-14.137 14.136 -30.878 21.205 -50.223 21.205c0 0 -71.429 0 -71.429 0c-19.345 0 -36.086 -7.069 -50.223 -21.206c-14.137 -14.136 -21.205 -30.877 -21.205 -50.223c0 0 0 -434.71 0 -434.71c-21.206 -7.44 -38.412 -20.461 -51.619 -39.062c-13.207 -18.601 -19.81 -39.249 -19.81 -61.942c0 0 0 0 0 0m428.571 232.143c0 0 0 -446.429 0 -446.429c0 -49.107 17.486 -91.146 52.456 -126.116c34.97 -34.97 77.009 -52.455 126.116 -52.455c0 0 142.857 0 142.857 0c9.673 0 18.043 3.534 25.112 10.603c7.068 7.068 10.602 15.439 10.602 25.111c0 0 0 892.857 0 892.857c0 19.346 -7.068 36.087 -21.205 50.223c-14.137 14.137 -30.878 21.206 -50.223 21.206c0 0 -71.429 0 -71.429 0c-19.345 0 -36.086 -7.069 -50.223 -21.206c-14.137 -14.136 -21.205 -30.877 -21.205 -50.223c0 0 0 -285.714 0 -285.714c0 0 -125 0 -125 0c-4.837 0 -9.022 -1.767 -12.556 -5.301c-3.534 -3.535 -5.302 -7.72 -5.302 -12.556c0 0 0 0 0 0" />
  </g>
</svg>