<svg height="1000px" width="785.7142857142858px" xmlns="http://www.w3.org/2000/svg">
  <g>
    <path d="M785.7142857142858 35.714285714285666c0 0 0 892.857 0 892.857c0 19.345 -7.068 36.086 -21.205 50.223c-14.137 14.137 -30.878 21.206 -50.224 21.206c0 0 -71.428 0 -71.428 0c-19.345 0 -36.086 -7.069 -50.223 -21.206c-14.137 -14.137 -21.206 -30.878 -21.206 -50.223c0 0 0 -285.714 0 -285.714c0 0 -125 0 -125 0c-4.836 0 -9.021 -1.767 -12.556 -5.301c-3.534 -3.535 -5.301 -7.72 -5.301 -12.556c0 0 0 -446.429 0 -446.429c0 -49.107 17.485 -91.146 52.455 -126.116c34.971 -34.97 77.009 -52.455 126.117 -52.455c0 0 142.857 0 142.857 0c9.672 0 18.043 3.534 25.111 10.602c7.069 7.069 10.603 15.439 10.603 25.112c0 0 0 0 0 0m-428.571 0c0 0 0 357.143 0 357.143c0 22.693 -6.604 43.341 -19.811 61.942c-13.207 18.601 -30.413 31.622 -51.618 39.062c0 0 0 434.71 0 434.71c0 19.345 -7.068 36.086 -21.205 50.223c-14.137 14.137 -30.878 21.206 -50.224 21.206c0 0 -71.428 0 -71.428 0c-19.345 0 -36.086 -7.069 -50.223 -21.206c-14.137 -14.137 -21.206 -30.878 -21.206 -50.223c0 0 0 -434.71 0 -434.71c-21.205 -7.44 -38.411 -20.461 -51.618 -39.062c-13.207 -18.601 -19.81 -39.249 -19.81 -61.942c0 0 0 -357.143 0 -357.143c0 -9.673 3.534 -18.043 10.602 -25.112c7.069 -7.068 15.439 -10.602 25.112 -10.602c9.673 0 18.043 3.534 25.112 10.602c7.068 7.069 10.602 15.439 10.602 25.112c0 0 0 232.143 0 232.143c0 9.672 3.535 18.043 10.603 25.111c7.068 7.069 15.439 10.603 25.112 10.603c9.672 0 18.043 -3.534 25.111 -10.603c7.069 -7.068 10.603 -15.439 10.603 -25.111c0 0 0 -232.143 0 -232.143c0 -9.673 3.534 -18.043 10.603 -25.112c7.068 -7.068 15.439 -10.602 25.111 -10.602c9.673 0 18.043 3.534 25.112 10.602c7.068 7.069 10.602 15.439 10.602 25.112c0 0 0 232.143 0 232.143c0 9.672 3.535 18.043 10.603 25.111c7.069 7.069 15.439 10.603 25.112 10.603c9.672 0 18.043 -3.534 25.111 -10.603c7.069 -7.068 10.603 -15.439 10.603 -25.111c0 0 0 -232.143 0 -232.143c0 -9.673 3.534 -18.043 10.603 -25.112c7.068 -7.068 15.439 -10.602 25.111 -10.602c9.673 0 18.043 3.534 25.112 10.602c7.068 7.069 10.603 15.439 10.603 25.112c0 0 0 0 0 0" />
  </g>
</svg>