<svg height="1000" width="785.714" xmlns="http://www.w3.org/2000/svg"><path d="M357.12 35.776v357.12q0 34.038 -19.809 61.938t-51.615 39.06v434.682q0 29.016 -21.204 50.22t-50.22 21.204h-71.424q-29.016 0 -50.22 -21.204t-21.204 -50.22v-434.682q-31.806 -11.16 -51.615 -39.06t-19.809 -61.938v-357.12q0 -14.508 10.602 -25.11t25.11 -10.602 25.11 10.602 10.602 25.11v232.128q0 14.508 10.602 25.11t25.11 10.602 25.11 -10.602 10.602 -25.11v-232.128q0 -14.508 10.602 -25.11t25.11 -10.602 25.11 10.602 10.602 25.11v232.128q0 14.508 10.602 25.11t25.11 10.602 25.11 -10.602 10.602 -25.11v-232.128q0 -14.508 10.602 -25.11t25.11 -10.602 25.11 10.602 10.602 25.11zm428.544 0v892.8q0 29.016 -21.204 50.22t-50.22 21.204h-71.424q-29.016 0 -50.22 -21.204t-21.204 -50.22v-285.696h-124.992q-7.254 0 -12.555 -5.301t-5.301 -12.555v-446.4q0 -73.656 52.452 -126.108t126.108 -52.452h142.848q14.508 0 25.11 10.602t10.602 25.11z"/></svg>