<svg height="1000" width="785.7" xmlns="http://www.w3.org/2000/svg"><path d="M357.1 35.7v357.2q0 34 -19.8 61.9t-51.6 39.1v434.7q0 29 -21.2 50.2t-50.2 21.2h-71.4q-29.1 0 -50.3 -21.2T71.4 928.6V493.9Q39.6 482.7 19.8 454.8T0 392.9V35.7Q0 21.2 10.6 10.6T35.7 0t25.1 10.6 10.6 25.1v232.2q0 14.5 10.6 25.1t25.1 10.6T132.3 293t10.6 -25.1V35.7q0 -14.5 10.6 -25.1T178.6 0t25.1 10.6 10.6 25.1v232.2q0 14.5 10.6 25.1t25.1 10.6T275.1 293t10.6 -25.1V35.7q0 -14.5 10.6 -25.1T321.4 0t25.1 10.6 10.6 25.1zm428.6 0v892.9q0 29 -21.2 50.2t-50.2 21.2h-71.4q-29.1 0 -50.3 -21.2t-21.2 -50.2V642.9h-125q-7.2 0 -12.5 -5.3T428.6 625V178.6q0 -73.7 52.4 -126.1T607.1 0H750q14.5 0 25.1 10.6t10.6 25.1z"/></svg>