<svg height="1000" width="786" xmlns="http://www.w3.org/2000/svg"><path d="M0 392.896l0-357.12q0-14.508 10.602-25.11t25.11-10.602 25.11 10.602 10.602 25.11l0 232.128q0 14.508 10.602 25.11t25.11 10.602 25.11-10.602 10.602-25.11l0-232.128q0-14.508 10.602-25.11t25.11-10.602 25.11 10.602 10.602 25.11l0 232.128q0 14.508 10.602 25.11t25.11 10.602 25.11-10.602 10.602-25.11l0-232.128q0-14.508 10.602-25.11t25.11-10.602 25.11 10.602 10.602 25.11l0 357.12q0 34.038-19.809 61.938t-51.615 39.06l0 434.682q0 29.016-21.204 50.22t-50.22 21.204l-71.424 0q-29.016 0-50.22-21.204t-21.204-50.22l0-434.682q-31.806-11.16-51.615-39.06t-19.809-61.938zm428.544 232.128l0-446.4q0-73.656 52.452-126.108t126.108-52.452l142.848 0q14.508 0 25.11 10.602t10.602 25.11l0 892.8q0 29.016-21.204 50.22t-50.22 21.204l-71.424 0q-29.016 0-50.22-21.204t-21.204-50.22l0-285.696l-124.992 0q-7.254 0-12.555-5.301t-5.301-12.555z"/></svg>