<svg height="1000" width="785.7" xmlns="http://www.w3.org/2000/svg"><path d="M0 392.9v-357.1q0-14.5 10.6-25.1t25.1-10.6 25.1 10.6 10.6 25.1v232.1q0 14.5 10.6 25.1t25.1 10.6 25.1-10.6 10.6-25.1v-232.1q0-14.5 10.6-25.1t25.1-10.6 25.1 10.6 10.6 25.1v232.1q0 14.5 10.6 25.1t25.1 10.6 25.1-10.6 10.6-25.1v-232.1q0-14.5 10.6-25.1t25.1-10.6 25.1 10.6 10.6 25.1v357.1q0 34-19.8 61.9t-51.6 39.1v434.7q0 29-21.2 50.2t-50.2 21.2h-71.4q-29 0-50.2-21.2t-21.2-50.2v-434.7q-31.8-11.2-51.6-39.1t-19.8-61.9zm428.5 232.1v-446.4q0-73.7 52.5-126.1t126.1-52.5h142.8q14.5 0 25.1 10.6t10.6 25.1v892.8q0 29-21.2 50.2t-50.2 21.2h-71.4q-29 0-50.2-21.2t-21.2-50.2v-285.7h-125q-7.3 0-12.6-5.3t-5.3-12.6z"/></svg>