<svg height="1000" width="571.4" xmlns="http://www.w3.org/2000/svg"><path d="M160.7 821.4q0 -22.3 -15.6 -37.9t-38 -15.6 -37.9 15.6 -15.6 37.9 15.6 38 37.9 15.6 38 -15.6 15.6 -38zm0 -642.8q0 -22.3 -15.6 -38t-38 -15.6 -37.9 15.6 -15.6 38 15.6 37.9 37.9 15.6 38 -15.6 15.6 -37.9zM517.9 250q0 -22.3 -15.7 -37.9t-37.9 -15.7 -38 15.7T410.7 250t15.6 37.9 38 15.7 37.9 -15.7T517.9 250zm53.5 0q0 29 -14.5 53.9t-39 38.7q-1.2 160.2 -126.2 231.1 -37.9 21.2 -113.2 45.2 -71.5 22.3 -94.6 39.6t-23.2 55.8v14.5q24.6 13.9 39.1 38.8t14.5 53.8q0 44.7 -31.3 75.9t-75.9 31.3T31.3 897.3 0 821.4q0 -29 14.5 -53.8t39.1 -38.8V271.2Q29 257.3 14.5 232.4T0 178.6q0 -44.7 31.3 -75.9t75.8 -31.3 75.9 31.3 31.3 75.9q0 29 -14.5 53.8t-39.1 38.8v277.3q30.1 -14.5 86 -31.8 30.6 -9.4 48.8 -16.4T334.8 483t32.9 -22.1 22.6 -28.4T406 393.7t4.7 -51.1q-24.5 -13.9 -39 -38.7T357.1 250q0 -44.6 31.3 -75.9t75.9 -31.2 75.9 31.2 31.2 75.9z"/></svg>