<svg height="1000" width="571.429" xmlns="http://www.w3.org/2000/svg"><path d="M160.704 821.44q0 -22.32 -15.624 -37.944t-37.944 -15.624 -37.944 15.624 -15.624 37.944 15.624 37.944 37.944 15.624 37.944 -15.624 15.624 -37.944zm0 -642.816q0 -22.32 -15.624 -37.944t-37.944 -15.624 -37.944 15.624 -15.624 37.944 15.624 37.944 37.944 15.624 37.944 -15.624 15.624 -37.944zm357.12 71.424q0 -22.32 -15.624 -37.944t-37.944 -15.624 -37.944 15.624 -15.624 37.944 15.624 37.944 37.944 15.624 37.944 -15.624 15.624 -37.944zm53.568 0q0 29.016 -14.508 53.847t-39.06 38.781q-1.116 160.146 -126.108 231.012 -37.944 21.204 -113.274 45.198 -71.424 22.32 -94.581 39.618t-23.157 55.8v14.508q24.552 13.95 39.06 38.781t14.508 53.847q0 44.64 -31.248 75.888t-75.888 31.248 -75.888 -31.248 -31.248 -75.888q0 -29.016 14.508 -53.847t39.06 -38.781v-457.56q-24.552 -13.95 -39.06 -38.781t-14.508 -53.847q0 -44.64 31.248 -75.888t75.888 -31.248 75.888 31.248 31.248 75.888q0 29.016 -14.508 53.847t-39.06 38.781v277.326q30.132 -14.508 85.932 -31.806 30.69 -9.486 48.825 -16.461t39.339 -17.298 32.922 -22.041 22.599 -28.458 15.624 -38.781 4.743 -51.057q-24.552 -13.95 -39.06 -38.781t-14.508 -53.847q0 -44.64 31.248 -75.888t75.888 -31.248 75.888 31.248 31.248 75.888z"/></svg>