<svg height="1000" width="1000" xmlns="http://www.w3.org/2000/svg"><path d="M357.1 562.5v-125q0 -8.9 -8.9 -8.9h-53.6q-8.9 0 -8.9 8.9v125q0 8.9 8.9 8.9h53.6q8.9 0 8.9 -8.9zm285.8 0v-125q0 -8.9 -9 -8.9h-53.5q-9 0 -9 8.9v125q0 8.9 9 8.9h53.5q9 0 9 -8.9zm285.7 17.9V1000H571.4V821.4q0 -44.6 -31.2 -75.9t-75.9 -31.2 -75.9 31.2 -31.3 75.9V1000H0V580.4q0 -9 8.9 -9h53.6q8.9 0 8.9 9v62.5h71.5V294.6q0 -8.9 8.9 -8.9h53.6q8.9 0 8.9 8.9v62.5h71.4v-62.5q0 -8.9 8.9 -8.9h53.6q8.9 0 8.9 8.9v62.5h71.5v-62.5q0 -3.3 1.4 -5.3t4.7 -2.7 5.3 -1.2 6.4 0 5.1 .3V67.5Q433.6 59.2 433.6 39.6q0 -12.8 9.2 -21.7t21.5 -9 21.5 9 9.2 21.7q0 19.6 -17.9 27.9V77q25.1 -5.6 46.3 -5.6 11.8 0 33.2 4.2t30.5 4.2q9.4 0 26.2 -4.2t20.6 -4.2q9 0 9 9v117.1q0 8.4 -19.6 12t-34.6 3.7q-10 0 -30.4 -4.2t-31 -4.2q-22.3 0 -50.2 6.7v74.2q.6 0 5 -.3t6.5 0 5.3 1.2 4.7 2.7 1.4 5.3v62.5h71.4v-62.5q0 -8.9 9 -8.9h53.5q9 0 9 8.9v62.5h71.4v-62.5q0 -8.9 8.9 -8.9h53.6q8.9 0 8.9 8.9v348.3h71.4v-62.5q0 -9 9 -9h53.5q9 0 9 9z"/></svg>