<svg height="1000" width="857.1" xmlns="http://www.w3.org/2000/svg"><path d="M521.2 83.7Q344.3 151.2 210.9 286T11.2 598.8Q0 549.1 0 500.6 0 384.5 57.2 286T212.6 130.3 426.9 73.1q45.8 0 94.3 10.6zm150.1 66.4q51.9 36.3 91.5 86.5 -217 63.1 -376.4 223.5T165.2 837.6Q113.3 797.4 78.7 747.2 141.2 531.8 299.1 372.8T671.3 150.1zm-409 744.4Q326.5 695.9 474.1 547.4T819.8 333.1q22.3 51.4 30.1 108.9 -163 66.9 -288 192.5t-191.4 289q-57.4 -7.8 -108.2 -29zm594.8 32.4Q749.4 899 652.3 862.7 577 909.6 490.5 922.4 551.3 808 643.4 715.7T849.3 561.9Q837.6 646.8 793 720.4q36.2 97.7 64.1 206.5z"/></svg>