<svg height="1000" width="857.143" xmlns="http://www.w3.org/2000/svg"><path d="M521.172 83.764q-176.886 67.518 -310.248 202.275t-199.764 312.759q-11.16 -49.662 -11.16 -98.208 0 -116.064 57.195 -214.551t155.403 -155.682 214.272 -57.195q45.756 0 94.302 10.602zm150.102 66.402q51.894 36.27 91.512 86.49 -217.062 63.054 -376.371 223.479t-221.247 377.487q-51.894 -40.176 -86.49 -90.396 62.496 -215.388 220.41 -374.418t372.186 -222.642zm-409.014 744.372q64.17 -198.648 211.761 -347.076t345.681 -214.272q22.32 51.336 30.132 108.81 -162.936 66.96 -287.928 192.51t-191.394 289.044q-57.474 -7.812 -108.252 -29.016zm594.828 32.364q-107.694 -27.9 -204.786 -64.17 -75.33 46.872 -161.82 59.706 60.822 -114.39 152.892 -206.739t205.902 -153.729q-11.718 84.816 -56.358 158.472 36.27 97.65 64.17 206.46z"/></svg>