<svg height="1000px" width="1000px" xmlns="http://www.w3.org/2000/svg">
  <g>
    <path d="M125 909.0401785714286c0 13.021 -5.952 19.531 -17.857 19.531c-8.557 0 -16.183 -7.254 -22.88 -21.763c-56.175 -121.652 -84.263 -217.541 -84.263 -287.668c0 -70.126 9.859 -130.115 29.576 -179.966c60.268 -149.926 223.028 -224.888 488.281 -224.888c0 0 125 0 125 0c0 0 0 -142.858 0 -142.858c0 -9.672 3.534 -18.043 10.603 -25.111c7.068 -7.069 15.439 -10.603 25.111 -10.603c9.673 0 18.044 3.534 25.112 10.603c0 0 285.714 285.714 285.714 285.714c7.069 7.069 10.603 15.439 10.603 25.112c0 9.672 -3.534 18.043 -10.603 25.111c0 0 -285.714 285.715 -285.714 285.715c-7.068 7.068 -15.439 10.602 -25.112 10.602c-9.672 0 -18.043 -3.534 -25.111 -10.602c-7.069 -7.069 -10.603 -15.439 -10.603 -25.112c0 0 0 -142.857 0 -142.857c0 0 -125 0 -125 0c-117.559 0 -203.497 13.021 -257.812 39.062c-47.247 22.322 -81.846 53.944 -103.795 94.866c-24.554 46.503 -36.83 106.027 -36.83 178.572c0 20.461 0.93 43.341 2.79 68.638c0 0 2.79 27.902 2.79 27.902" />
  </g>
</svg>