<svg height="1000px" width="1000px" xmlns="http://www.w3.org/2000/svg">
  <g>
    <path d="M0 625c0 -74.033 9.859 -135.975 29.576 -185.826c60.268 -149.925 223.028 -224.888 488.281 -224.888c0 0 125 0 125 0c0 0 0 -142.857 0 -142.857c0 -9.673 3.534 -18.044 10.603 -25.112c7.068 -7.068 15.439 -10.603 25.111 -10.603c9.673 0 18.044 3.535 25.112 10.603c0 0 285.714 285.714 285.714 285.714c7.069 7.069 10.603 15.439 10.603 25.112c0 9.672 -3.534 18.043 -10.603 25.111c0 0 -285.714 285.715 -285.714 285.715c-7.068 7.068 -15.439 10.602 -25.112 10.602c-9.672 0 -18.043 -3.534 -25.111 -10.602c-7.069 -7.069 -10.603 -15.439 -10.603 -25.112c0 0 0 -142.857 0 -142.857c0 0 -125 0 -125 0c-36.458 0 -69.103 1.116 -97.935 3.348c-28.832 2.232 -57.478 6.232 -85.938 11.998c-28.459 5.766 -53.199 13.672 -74.218 23.716c-21.02 10.045 -40.644 22.973 -58.873 38.784c-18.229 15.811 -33.11 34.598 -44.643 56.362c-11.533 21.763 -20.554 47.526 -27.065 77.288c-6.51 29.761 -9.765 63.43 -9.765 101.004c0 20.461 0.93 43.341 2.79 68.638c0 2.233 0.465 6.604 1.395 13.114c0.93 6.511 1.395 11.44 1.395 14.788c0 5.581 -1.581 10.231 -4.743 13.951c-3.163 3.72 -7.534 5.58 -13.114 5.58c-5.953 0 -11.161 -3.162 -15.625 -9.486c-2.604 -3.348 -5.022 -7.441 -7.255 -12.277c-2.232 -4.836 -4.743 -10.417 -7.533 -16.741c-2.79 -6.324 -4.743 -10.789 -5.859 -13.393c-47.247 -106.027 -70.871 -189.918 -70.871 -251.674c0 0 0 0 0 0" />
  </g>
</svg>