<svg height="1000px" width="899.90234375px" xmlns="http://www.w3.org/2000/svg">
  <g>
    <path d="M0 808.349609375c0 -68.034 11.637 -132.08 34.912 -192.139c23.275 -60.058 58.757 -112.548 106.445 -157.47c47.689 -44.922 108.073 -80.567 181.153 -106.934c73.079 -26.367 159.586 -39.876 259.521 -40.527c0 0 0 -143.067 0 -143.067c0 -23.437 5.86 -37.597 17.578 -42.48c11.719 -4.883 26.205 0.976 43.457 17.578c0 0 239.747 240.723 239.747 240.723c11.393 10.742 17.089 24.088 17.089 40.039c0 15.299 -5.696 28.645 -17.089 40.039c0 0 -239.747 241.211 -239.747 241.211c-16.601 16.601 -30.924 22.379 -42.968 17.334c-12.045 -5.046 -18.067 -19.125 -18.067 -42.237c0 0 0 -161.132 0 -161.132c-85.286 0.651 -160.319 9.847 -225.097 27.587c-64.779 17.741 -119.467 41.748 -164.063 72.022c-44.596 30.273 -79.59 65.918 -104.98 106.933c-25.391 41.016 -41.342 85.124 -47.852 132.325c-1.302 10.742 -7.324 16.113 -18.066 16.113c0 0 -0.977 0 -0.977 0c-10.742 0 -16.764 -5.371 -18.066 -16.113c-1.953 -16.602 -2.93 -33.203 -2.93 -49.805c0 0 0 0 0 0" />
  </g>
</svg>