<svg height="1000" width="1000" xmlns="http://www.w3.org/2000/svg"><path d="M1000 357.1q0 14.6 -10.6 25.2L703.7 668q-10.6 10.6 -25.1 10.6T653.5 668t-10.6 -25.1V500h-125q-54.7 0 -98 3.3t-85.9 12 -74.2 23.8 -58.9 38.7 -44.6 56.4 -27.1 77.3 -9.8 101q0 30.7 2.8 68.6 0 3.4 1.4 13.2T125 909q0 8.4 -4.7 14t-13.2 5.6q-8.9 0 -15.6 -9.5 -3.9 -5 -7.2 -12.3t-7.6 -16.7 -5.8 -13.4Q0 717.6 0 625 0 514 29.6 439.2 120 214.3 517.9 214.3h125V71.4q0 -14.5 10.6 -25.1t25.1 -10.6 25.1 10.6L989.4 332q10.6 10.6 10.6 25.1z"/></svg>