<svg height="1000" width="1000" xmlns="http://www.w3.org/2000/svg"><path d="M999.936 357.184q0 14.508 -10.602 25.11l-285.696 285.696q-10.602 10.602 -25.11 10.602t-25.11 -10.602 -10.602 -25.11v-142.848h-124.992q-54.684 0 -97.929 3.348t-85.932 11.997 -74.214 23.715 -58.869 38.781 -44.64 56.358 -27.063 77.283 -9.765 100.998q0 30.69 2.79 68.634 0 3.348 1.395 13.113t1.395 14.787q0 8.37 -4.743 13.95t-13.113 5.58q-8.928 0 -15.624 -9.486 -3.906 -5.022 -7.254 -12.276t-7.533 -16.74 -5.859 -13.392q-70.866 -159.03 -70.866 -251.658 0 -111.042 29.574 -185.814 90.396 -224.874 488.25 -224.874h124.992v-142.848q0 -14.508 10.602 -25.11t25.11 -10.602 25.11 10.602l285.696 285.696q10.602 10.602 10.602 25.11z"/></svg>