<svg height="1000px" width="900px" xmlns="http://www.w3.org/2000/svg">
  <g>
    <path d="M0 809.1151733398438c0 -68 11.667 -132 35 -192c23.333 -60 58.833 -112.5 106.5 -157.5c47.667 -45 108 -80.667 181 -107c73 -26.333 159.5 -39.833 259.5 -40.5c0 0 0 -143 0 -143c0 -23.333 5.833 -37.5 17.5 -42.5c11.667 -5 26.167 0.833 43.5 17.5c0 0 240 241 240 241c11.333 10.667 17 24 17 40c0 15.333 -5.667 28.667 -17 40c0 0 -240 241 -240 241c-16.667 16.667 -31 22.5 -43 17.5c-12 -5 -18 -19.167 -18 -42.5c0 0 0 -161 0 -161c-85.333 0.667 -160.333 9.833 -225 27.5c-64.667 17.667 -119.333 41.667 -164 72c-44.667 30.333 -79.667 66 -105 107c-25.333 41 -41.333 85.167 -48 132.5c-1.333 10.667 -7.333 16 -18 16c0 0 -1 0 -1 0c-10.667 0 -16.667 -5.333 -18 -16c-2 -16.667 -3 -33.333 -3 -50c0 0 0 0 0 0" />
  </g>
</svg>