<svg height="1000" width="714.3" xmlns="http://www.w3.org/2000/svg"><path d="M558 242.2l20.7 -108.3q2.8 -12.8 -5 -22.3t-19.6 -9.5H156.8q-12.8 0 -21.5 9.5t-8.6 20.7v614.4q0 3.9 3.3 .5L292.4 550.8q12.8 -14.5 21.2 -18.7t26.8 -4.2h133.4q12.2 0 20.6 -8.1t10.1 -16.5q13.4 -72.5 20.6 -106.5 2.2 -11.8 -6.4 -22.4t-20.4 -10.6h-164q-16.2 0 -26.8 -10.6t-10.6 -26.7V303q0 -16.2 10.6 -26.5t26.8 -10.3h193q10.1 0 19.6 -7.6T558 242.2zM684.7 118.3Q676.3 159 654.9 267t-38.8 195.3 -19.6 96.9q-3.3 12.2 -5 18.1t-7.8 18.1T570 613.8t-21.5 11.8 -32.3 5.5H365q-7.3 0 -12.3 5.6 -4.5 5 -237.7 275.7 -12.3 13.9 -32.7 15.9t-27.1 -3.1Q24.6 912.9 24.6 870.5V83.7Q24.6 53 45.8 26.5T112.7 0h495.6q53 0 70.8 29.6t5.6 88.7zm0 0l-88.2 440.9q2.3 -9.5 19.6 -96.9T654.9 267t29.8 -148.7z"/></svg>