<svg height="1000" width="714.286" xmlns="http://www.w3.org/2000/svg"><path d="M558 242.236l20.646 -108.252q2.79 -12.834 -5.022 -22.32t-19.53 -9.486h-397.296q-12.834 0 -21.483 9.486t-8.649 20.646v614.358q0 3.906 3.348 .558l162.378 -196.416q12.834 -14.508 21.204 -18.693t26.784 -4.185h133.362q12.276 0 20.646 -8.091t10.044 -16.461q13.392 -72.54 20.646 -106.578 2.232 -11.718 -6.417 -22.32t-20.367 -10.602h-164.052q-16.182 0 -26.784 -10.602t-10.602 -26.784v-23.436q0 -16.182 10.602 -26.505t26.784 -10.323h193.068q10.044 0 19.53 -7.533t11.16 -16.461zm126.666 -123.876q-8.37 40.734 -29.853 148.707t-38.781 195.3 -19.53 96.813q-3.348 12.276 -5.022 18.135t-7.812 18.135 -13.671 18.414 -21.483 11.718 -32.364 5.58h-151.218q-7.254 0 -12.276 5.58 -4.464 5.022 -237.708 275.652 -12.276 13.95 -32.643 15.903t-27.063 -3.069q-30.69 -12.276 -30.69 -54.684v-786.78q0 -30.69 21.204 -57.195t66.96 -26.505h495.504q53.01 0 70.866 29.574t5.58 88.722zm0 0l-88.164 440.82q2.232 -9.486 19.53 -96.813t38.781 -195.3 29.853 -148.707z"/></svg>