<svg height="1000" width="928.571" xmlns="http://www.w3.org/2000/svg"><path d="M827.514 571.456l-327.546 327.546q-29.016 29.574 -71.145 29.574t-71.703 -29.574l-327.546 -327.546q-29.574 -29.574 -29.574 -71.424t29.574 -71.424l327.546 -327.546q29.574 -29.574 71.424 -29.574t71.424 29.574l147.87 147.87 -222.084 222.642 -104.904 -104.904q-23.436 -23.436 -55.242 -23.436 -32.922 0 -55.8 22.878l-66.96 67.518q-23.436 22.32 -23.436 55.242 0 32.364 23.436 55.8l226.548 227.664q16.74 15.624 37.386 20.646l3.348 2.232h15.624q33.48 0 55.242 -22.878l345.402 -345.402 1.116 1.674q29.574 29.574 29.574 71.424t-29.574 71.424zm-42.966 -349.308l66.96 66.96q7.812 8.37 7.812 20.088t-7.812 20.088l-407.34 407.34q-9.486 8.37 -20.646 8.37 -2.232 0 -3.348 -.558 -10.044 -1.116 -16.74 -7.812l-227.106 -227.664q-7.812 -8.37 -7.812 -20.088t7.812 -19.53l67.518 -66.96q7.254 -8.37 19.53 -8.37t20.088 8.37l140.616 140.616 320.292 -320.85q8.37 -8.37 20.088 -8.37t20.088 8.37z"/></svg>