<svg height="1000" width="857.143" xmlns="http://www.w3.org/2000/svg"><path d="M0 500.032q0 -116.622 57.474 -215.109t155.961 -155.961 215.109 -57.474 215.109 57.474 155.961 155.961 57.474 215.109 -57.474 215.109 -155.961 155.961 -215.109 57.474 -215.109 -57.474 -155.961 -155.961 -57.474 -215.109zm71.424 0q0 72.54 28.458 138.663t76.167 113.832 113.832 76.167 138.663 28.458 138.663 -28.458 113.832 -76.167 76.167 -113.832 28.458 -138.663 -28.458 -138.663 -76.167 -113.832 -113.832 -76.167 -138.663 -28.458 -138.663 28.458 -113.832 76.167 -76.167 113.832 -28.458 138.663zm142.848 -142.848q0 -29.574 20.925 -50.499t50.499 -20.925 50.499 20.925 20.925 50.499 -20.925 50.499 -50.499 20.925 -50.499 -20.925 -20.925 -50.499zm10.044 328.662q20.646 -67.518 77.004 -108.81t127.224 -41.292 127.224 41.292 77.004 108.81q4.464 13.95 -2.232 27.063t-20.646 17.577 -27.342 -2.232 -17.856 -21.204q-13.95 -44.64 -51.615 -72.261t-84.537 -27.621 -84.537 27.621 -51.615 72.261q-4.464 14.508 -17.577 21.204t-27.063 2.232q-14.508 -4.464 -21.204 -17.577t-2.232 -27.063zm275.652 -328.662q0 -29.574 20.925 -50.499t50.499 -20.925 50.499 20.925 20.925 50.499 -20.925 50.499 -50.499 20.925 -50.499 -20.925 -20.925 -50.499z"/></svg>