<svg height="1000" width="1071.4" xmlns="http://www.w3.org/2000/svg"><path d="M464.3 607.1v-71.4q0 -7.8 -5 -12.8t-12.9 -5H339.3V410.7q0 -7.8 -5 -12.8t-12.9 -5H250q-7.8 0 -12.8 5t-5.1 12.8v107.2H125q-7.8 0 -12.8 5t-5.1 12.8v71.4q0 7.9 5.1 12.9t12.8 5h107.1v107.1q0 7.9 5.1 12.9t12.8 5h71.4q7.8 0 12.9 -5t5 -12.9V625h107.1q7.8 0 12.9 -5t5 -12.9zm321.4 35.8q0 -29.6 -20.9 -50.5t-50.5 -21 -50.5 21 -20.9 50.5 20.9 50.5 50.5 20.9 50.5 -20.9 20.9 -50.5zM928.6 500q0 -29.6 -21 -50.5t-50.5 -20.9 -50.5 20.9T785.7 500t20.9 50.5 50.5 20.9 50.5 -20.9 21 -50.5zm142.8 71.4q0 118.3 -83.7 202t-202 83.7q-107.1 0 -188.6 -71.4H474.3q-81.4 71.4 -188.6 71.4 -118.3 0 -202 -83.7T0 571.4t83.7 -202 202 -83.7h500q118.3 0 202 83.7t83.7 202z"/></svg>