<svg height="1000" width="1071.429" xmlns="http://www.w3.org/2000/svg"><path d="M464.256 607.168v-71.424q0 -7.812 -5.022 -12.834t-12.834 -5.022h-107.136v-107.136q0 -7.812 -5.022 -12.834t-12.834 -5.022h-71.424q-7.812 0 -12.834 5.022t-5.022 12.834v107.136h-107.136q-7.812 0 -12.834 5.022t-5.022 12.834v71.424q0 7.812 5.022 12.834t12.834 5.022h107.136v107.136q0 7.812 5.022 12.834t12.834 5.022h71.424q7.812 0 12.834 -5.022t5.022 -12.834v-107.136h107.136q7.812 0 12.834 -5.022t5.022 -12.834zm321.408 35.712q0 -29.574 -20.925 -50.499t-50.499 -20.925 -50.499 20.925 -20.925 50.499 20.925 50.499 50.499 20.925 50.499 -20.925 20.925 -50.499zm142.848 -142.848q0 -29.574 -20.925 -50.499t-50.499 -20.925 -50.499 20.925 -20.925 50.499 20.925 50.499 50.499 20.925 50.499 -20.925 20.925 -50.499zm142.848 71.424q0 118.296 -83.7 201.996t-201.996 83.7q-107.136 0 -188.604 -71.424h-122.76q-81.468 71.424 -188.604 71.424 -118.296 0 -201.996 -83.7t-83.7 -201.996 83.7 -201.996 201.996 -83.7h499.968q118.296 0 201.996 83.7t83.7 201.996z"/></svg>