<svg height="1000" width="1000" xmlns="http://www.w3.org/2000/svg"><path d="M214.3 642.9q0 -29.6 -20.9 -50.5t-50.5 -21 -50.5 21 -21 50.5 21 50.5 50.5 20.9 50.5 -20.9 20.9 -50.5zm107.1 -250q0 -29.6 -20.9 -50.5t-50.5 -21 -50.5 21 -20.9 50.5 20.9 50.5 50.5 20.9 50.5 -20.9 20.9 -50.5zm238.9 268.4l56.3 -213.2Q620 433.6 612.4 421T591 404.6t-26.8 3.6 -16.8 22l-56.3 213.2q-33.5 2.8 -59.7 24.3t-35.2 55q-11.2 42.9 11.2 81.4t65.3 49.7 81.4 -11.2 49.7 -65.3q8.9 -33.4 -3.4 -65.2t-40.1 -50.8zm368.3 -18.4q0 -29.6 -21 -50.5t-50.5 -21 -50.5 21 -20.9 50.5 20.9 50.5 50.5 20.9 50.5 -20.9 21 -50.5zM571.4 285.7q0 -29.6 -20.9 -50.5T500 214.3t-50.5 20.9 -20.9 50.5 20.9 50.5 50.5 20.9 50.5 -20.9 20.9 -50.5zm250 107.2q0 -29.6 -20.9 -50.5t-50.5 -21 -50.5 21 -20.9 50.5 20.9 50.5 50.5 20.9 50.5 -20.9 20.9 -50.5zm178.6 250q0 145.6 -78.7 269.5 -10.6 16.2 -30.1 16.2H108.8q-19.5 0 -30.1 -16.2Q0 789.1 0 642.9 0 541.3 39.6 448.7T146.2 289.1 305.8 182.5 500 142.9t194.2 39.6 159.6 106.6 106.6 159.6 39.6 194.2z"/></svg>