<svg height="1000px" width="1000px" xmlns="http://www.w3.org/2000/svg">
  <g>
    <path d="M0 642.8571428571429c0 -67.708 13.207 -132.44 39.621 -194.196c26.413 -61.756 61.941 -114.956 106.584 -159.599c44.643 -44.643 97.843 -80.171 159.599 -106.584c61.756 -26.414 126.488 -39.621 194.196 -39.621c67.708 0 132.44 13.207 194.196 39.621c61.756 26.413 114.956 61.941 159.599 106.584c44.642 44.643 80.171 97.843 106.584 159.599c26.414 61.756 39.621 126.488 39.621 194.196c0 97.098 -26.228 186.942 -78.683 269.531c-7.068 10.789 -17.113 16.183 -30.134 16.183c0 0 -782.366 0 -782.366 0c-13.021 0 -23.066 -5.394 -30.134 -16.183c-52.455 -82.217 -78.683 -172.061 -78.683 -269.531c0 0 0 0 0 0m71.429 0c0 19.717 6.975 36.551 20.926 50.502c13.951 13.951 30.785 20.927 50.502 20.927c19.717 0 36.551 -6.976 50.502 -20.927c13.951 -13.951 20.927 -30.785 20.927 -50.502c0 -19.717 -6.976 -36.551 -20.927 -50.502c-13.951 -13.951 -30.785 -20.927 -50.502 -20.927c-19.717 0 -36.551 6.976 -50.502 20.927c-13.951 13.951 -20.926 30.785 -20.926 50.502c0 0 0 0 0 0m107.142 -250c0 19.717 6.976 36.551 20.927 50.502c13.951 13.951 30.785 20.927 50.502 20.927c19.717 0 36.551 -6.976 50.502 -20.927c13.951 -13.951 20.927 -30.785 20.927 -50.502c0 -19.717 -6.976 -36.551 -20.927 -50.502c-13.951 -13.951 -30.785 -20.927 -50.502 -20.927c-19.717 0 -36.551 6.976 -50.502 20.927c-13.951 13.951 -20.927 30.785 -20.927 50.502c0 0 0 0 0 0m213.401 358.428c0 17.526 5.131 35.141 15.394 52.844c14.881 25.67 36.645 42.225 65.29 49.665c9.549 2.481 18.932 3.721 28.15 3.721c18.436 0 36.21 -4.961 53.324 -14.881c25.669 -14.881 41.852 -34.971 48.549 -60.268c3.013 -11.384 4.52 -22.373 4.52 -32.965c0 -12.947 -2.251 -25.303 -6.752 -37.069c-8.185 -21.391 -21.578 -38.411 -40.179 -51.06c0 0 56.362 -213.17 56.362 -213.17c0.686 -2.976 1.03 -5.89 1.03 -8.743c0 -6.419 -1.739 -12.526 -5.216 -18.321c-5.022 -8.371 -12.183 -13.858 -21.484 -16.462c-9.301 -2.605 -18.229 -1.395 -26.786 3.627c-8.556 5.022 -14.137 12.37 -16.741 22.042c0 0 -56.361 213.17 -56.361 213.17c-22.322 1.86 -42.225 9.952 -59.71 24.274c-17.485 14.695 -29.576 34.692 -36.273 59.989c-2.078 7.851 -3.117 15.72 -3.117 23.607c0 0 0 0 0 0m36.599 -465.571c0 19.717 6.976 36.551 20.927 50.502c13.951 13.951 30.785 20.927 50.502 20.927c19.717 0 36.551 -6.976 50.502 -20.927c13.951 -13.951 20.927 -30.785 20.927 -50.502c0 -19.717 -6.976 -36.551 -20.927 -50.502c-13.951 -13.951 -30.785 -20.926 -50.502 -20.926c-19.717 0 -36.551 6.975 -50.502 20.926c-13.951 13.951 -20.927 30.785 -20.927 50.502c0 0 0 0 0 0m250 107.143c0 19.717 6.976 36.551 20.927 50.502c13.951 13.951 30.785 20.927 50.502 20.927c19.717 0 36.551 -6.976 50.502 -20.927c13.951 -13.951 20.927 -30.785 20.927 -50.502c0 -19.717 -6.976 -36.551 -20.927 -50.502c-13.951 -13.951 -30.785 -20.927 -50.502 -20.927c-19.717 0 -36.551 6.976 -50.502 20.927c-13.951 13.951 -20.927 30.785 -20.927 50.502c0 0 0 0 0 0m107.143 250c0 19.717 6.976 36.551 20.927 50.502c13.951 13.951 30.785 20.927 50.502 20.927c19.717 0 36.551 -6.976 50.502 -20.927c13.951 -13.951 20.926 -30.785 20.926 -50.502c0 -19.717 -6.975 -36.551 -20.926 -50.502c-13.951 -13.951 -30.785 -20.927 -50.502 -20.927c-19.717 0 -36.551 6.976 -50.502 20.927c-13.951 13.951 -20.927 30.785 -20.927 50.502c0 0 0 0 0 0" />
  </g>
</svg>