<svg height="1000" width="1000" xmlns="http://www.w3.org/2000/svg"><path d="M0 642.9q0-101.6 39.6-194.2t106.6-159.6 159.6-106.6 194.2-39.6 194.2 39.6 159.6 106.6 106.6 159.6 39.6 194.2q0 145.6-78.7 269.5-10.6 16.2-30.1 16.2h-782.3q-19.5 0-30.1-16.2-78.7-123.3-78.7-269.5zm71.4 0q0 29.6 20.9 50.5t50.5 20.9 50.5-20.9 20.9-50.5-20.9-50.5-50.5-20.9-50.5 20.9-20.9 50.5zm107.1-250q0 29.6 20.9 50.5t50.5 20.9 50.5-20.9 20.9-50.5-20.9-50.5-50.5-20.9-50.5 20.9-20.9 50.5zm217.6 329.8q-11.2 43 11.2 81.5t65.3 49.7 81.5-11.2 49.7-65.3q8.9-33.5-3.3-65.3t-40.2-50.8l56.4-213.2q3.3-14.5-4.2-27.1t-21.5-16.5-26.8 3.6-16.7 22l-56.4 213.2q-33.5 2.8-59.7 24.3t-35.2 55zm32.4-436.9q0 29.6 20.9 50.5t50.5 20.9 50.5-20.9 20.9-50.5-20.9-50.5-50.5-20.9-50.5 20.9-20.9 50.5zm250 107.1q0 29.6 20.9 50.5t50.5 20.9 50.5-20.9 20.9-50.5-20.9-50.5-50.5-20.9-50.5 20.9-20.9 50.5zm107.1 250q0 29.6 20.9 50.5t50.5 20.9 50.5-20.9 20.9-50.5-20.9-50.5-50.5-20.9-50.5 20.9-20.9 50.5z"/></svg>