<svg height="1000" width="1000" xmlns="http://www.w3.org/2000/svg"><path d="M214.272 642.88q0 -29.574 -20.925 -50.499t-50.499 -20.925 -50.499 20.925 -20.925 50.499 20.925 50.499 50.499 20.925 50.499 -20.925 20.925 -50.499zm107.136 -249.984q0 -29.574 -20.925 -50.499t-50.499 -20.925 -50.499 20.925 -20.925 50.499 20.925 50.499 50.499 20.925 50.499 -20.925 20.925 -50.499zm238.824 268.398l56.358 -213.156q3.348 -14.508 -4.185 -27.063t-21.483 -16.461 -26.784 3.627 -16.74 22.041l-56.358 213.156q-33.48 2.79 -59.706 24.273t-35.154 54.963q-11.16 42.966 11.16 81.468t65.286 49.662 81.468 -11.16 49.662 -65.286q8.928 -33.48 -3.348 -65.286t-40.176 -50.778zm368.28 -18.414q0 -29.574 -20.925 -50.499t-50.499 -20.925 -50.499 20.925 -20.925 50.499 20.925 50.499 50.499 20.925 50.499 -20.925 20.925 -50.499zm-357.12 -357.12q0 -29.574 -20.925 -50.499t-50.499 -20.925 -50.499 20.925 -20.925 50.499 20.925 50.499 50.499 20.925 50.499 -20.925 20.925 -50.499zm249.984 107.136q0 -29.574 -20.925 -50.499t-50.499 -20.925 -50.499 20.925 -20.925 50.499 20.925 50.499 50.499 20.925 50.499 -20.925 20.925 -50.499zm178.56 249.984q0 145.638 -78.678 269.514 -10.602 16.182 -30.132 16.182h-782.316q-19.53 0 -30.132 -16.182 -78.678 -123.318 -78.678 -269.514 0 -101.556 39.618 -194.184t106.578 -159.588 159.588 -106.578 194.184 -39.618 194.184 39.618 159.588 106.578 106.578 159.588 39.618 194.184z"/></svg>