<svg height="1000px" width="1000px" xmlns="http://www.w3.org/2000/svg">
  <g>
    <path d="M1000 642.8571428571429c0 97.098 -26.228 186.942 -78.683 269.531c-7.068 10.789 -17.113 16.183 -30.134 16.183c0 0 -782.366 0 -782.366 0c-13.021 0 -23.066 -5.394 -30.134 -16.183c-52.455 -82.217 -78.683 -172.061 -78.683 -269.531c0 -67.708 13.207 -132.44 39.621 -194.196c26.413 -61.756 61.941 -114.956 106.584 -159.599c44.643 -44.643 97.843 -80.171 159.599 -106.584c61.756 -26.414 126.488 -39.621 194.196 -39.621c67.708 0 132.44 13.207 194.196 39.621c61.756 26.413 114.956 61.941 159.599 106.584c44.642 44.643 80.171 97.843 106.584 159.599c26.414 61.756 39.621 126.488 39.621 194.196c0 0 0 0 0 0m-178.571 -250c0 -19.717 -6.976 -36.551 -20.927 -50.502c-13.951 -13.951 -30.785 -20.927 -50.502 -20.927c-19.717 0 -36.551 6.976 -50.502 20.927c-13.951 13.951 -20.927 30.785 -20.927 50.502c0 19.717 6.976 36.551 20.927 50.502c13.951 13.951 30.785 20.927 50.502 20.927c19.717 0 36.551 -6.976 50.502 -20.927c13.951 -13.951 20.927 -30.785 20.927 -50.502c0 0 0 0 0 0m-250 -107.143c0 -19.717 -6.976 -36.551 -20.927 -50.502c-13.951 -13.951 -30.785 -20.926 -50.502 -20.926c-19.717 0 -36.551 6.975 -50.502 20.926c-13.951 13.951 -20.927 30.785 -20.927 50.502c0 19.717 6.976 36.551 20.927 50.502c13.951 13.951 30.785 20.927 50.502 20.927c19.717 0 36.551 -6.976 50.502 -20.927c13.951 -13.951 20.927 -30.785 20.927 -50.502c0 0 0 0 0 0m357.142 357.143c0 -19.717 -6.975 -36.551 -20.926 -50.502c-13.951 -13.951 -30.785 -20.927 -50.502 -20.927c-19.717 0 -36.551 6.976 -50.502 20.927c-13.951 13.951 -20.927 30.785 -20.927 50.502c0 19.717 6.976 36.551 20.927 50.502c13.951 13.951 30.785 20.927 50.502 20.927c19.717 0 36.551 -6.976 50.502 -20.927c13.951 -13.951 20.926 -30.785 20.926 -50.502c0 0 0 0 0 0m-368.303 18.415c0 0 56.361 -213.169 56.361 -213.169c2.233 -9.673 0.838 -18.695 -4.185 -27.065c-5.022 -8.371 -12.184 -13.858 -21.484 -16.462c-9.301 -2.604 -18.229 -1.395 -26.786 3.627c-8.556 5.022 -14.137 12.37 -16.741 22.042c0 0 -56.362 213.17 -56.362 213.17c-22.321 1.86 -42.224 9.952 -59.709 24.275c-17.486 14.695 -29.576 34.691 -36.273 59.988c-6.696 25.298 -2.604 50.782 12.277 76.451c14.881 25.67 36.644 42.225 65.29 49.665c28.646 7.441 55.804 3.721 81.473 -11.16c25.67 -14.881 41.853 -34.97 48.55 -60.268c6.696 -25.298 5.952 -48.642 -2.233 -70.034c-8.184 -21.391 -21.577 -38.411 -40.178 -51.06c0 0 0 0 0 0m-238.839 -268.415c0 -19.717 -6.976 -36.551 -20.927 -50.502c-13.951 -13.951 -30.785 -20.927 -50.502 -20.927c-19.717 0 -36.551 6.976 -50.502 20.927c-13.951 13.951 -20.927 30.785 -20.927 50.502c0 19.717 6.976 36.551 20.927 50.502c13.951 13.951 30.785 20.927 50.502 20.927c19.717 0 36.551 -6.976 50.502 -20.927c13.951 -13.951 20.927 -30.785 20.927 -50.502c0 0 0 0 0 0m-107.143 250c0 -19.717 -6.976 -36.551 -20.927 -50.502c-13.951 -13.951 -30.785 -20.927 -50.502 -20.927c-19.717 0 -36.551 6.976 -50.502 20.927c-13.951 13.951 -20.926 30.785 -20.926 50.502c0 19.717 6.975 36.551 20.926 50.502c13.951 13.951 30.785 20.927 50.502 20.927c19.717 0 36.551 -6.976 50.502 -20.927c13.951 -13.951 20.927 -30.785 20.927 -50.502c0 0 0 0 0 0" />
  </g>
</svg>