<svg height="1000" width="959.8" xmlns="http://www.w3.org/2000/svg"><path d="M873.3 71.4q36.3 0 61.4 25.4t25.1 61.7v289.6q0 98.2 -37.9 187.5T820 789.1 667.1 890.9t-186.6 37.7q-98.2 0 -187.3 -37.7T140.1 789.1 37.9 635.6 0 448.1V158.5Q0 122.8 25.7 97.1T87.1 71.4h786.2zM480.5 665.2q26.2 0 45.7 -18.4L751.7 430.2q20.6 -19.5 20.6 -47.4 0 -27.3 -19.2 -46.6T706.5 317q-26.3 0 -45.8 18.4l-180.2 173 -180.3 -173Q280.7 317 255 317q-27.3 0 -46.6 19.2t-19.2 46.6q0 28.5 20.1 47.4l226 216.6q18.4 18.4 45.2 18.4z"/></svg>