<svg height="1000" width="1000" xmlns="http://www.w3.org/2000/svg"><path d="M400.1 755.6L551.3 604.4 395.6 448.7l-49.1 49.1 107.2 106.6 -53.6 53.5L244.4 502.2 400.1 346.5l22.3 22.4L471 320.3l-70.9 -71.4L146.8 502.2zm199.8 -4.5L853.2 497.8 599.9 244.4 448.7 395.6l155.7 155.7 49.1 -49.1L546.3 395.6l53.6 -53.5 155.7 155.7L599.9 653.5l-22.3 -22.4L529 680.2zM1000 500q0 101.6 -39.6 194.2T853.8 853.8 694.2 960.4 500 1000 305.8 960.4 146.2 853.8 39.6 694.2 0 500 39.6 305.8 146.2 146.2 305.8 39.6 500 0t194.2 39.6 159.6 106.6 106.6 159.6T1000 500z"/></svg>