<svg height="1000" width="857.1" xmlns="http://www.w3.org/2000/svg"><path d="M517.9 756.7V357.1H339.3v399.6q0 13.9 10 21.5t25.7 7.5h107.1q15.7 0 25.7 -7.5t10.1 -21.5zm-254.5 -471h108.8l-70.3 -89.8q-14.5 -17.3 -38.5 -17.3 -22.3 0 -38 15.6t-15.6 37.9 15.6 38 38 15.6zm383.9 -53.6q0 -22.3 -15.6 -37.9t-37.9 -15.6q-24 0 -38.6 17.3l-69.7 89.8h108.3q22.3 0 37.9 -15.6t15.6 -38zM857.1 375v178.6q0 7.8 -5 12.8t-12.8 5h-53.6v232.2q0 22.3 -15.6 37.9t-38 15.6H125q-22.3 0 -37.9 -15.6T71.4 803.6V571.4H17.9q-7.9 0 -12.9 -5T0 553.6V375q0 -7.8 5 -12.8t12.9 -5.1h245.5q-51.9 0 -88.5 -36.5t-36.5 -88.5 36.5 -88.4 88.5 -36.6q59.7 0 93.7 43l71.5 92.1L500 150.1q34 -43 93.8 -43 51.8 0 88.4 36.6t36.6 88.4 -36.6 88.5 -88.4 36.5h245.5q7.8 0 12.8 5.1t5 12.8z"/></svg>