<svg height="1000px" width="857.1428571428571px" xmlns="http://www.w3.org/2000/svg">
  <g>
    <path d="M38.504464285714285 573.1026785714286c-25.67 0 -38.504 -6.51 -38.504 -19.531c0 0 0 -178.572 0 -178.572c0 -4.836 1.767 -9.021 5.301 -12.555c3.534 -3.535 7.719 -5.302 12.556 -5.302c0 0 245.535 0 245.535 0c-34.598 0 -64.081 -12.184 -88.448 -36.551c-24.368 -24.368 -36.552 -53.851 -36.552 -88.449c0 -34.598 12.184 -64.081 36.552 -88.448c24.367 -24.368 55.245 -36.552 92.634 -36.552c37.388 0 67.243 14.323 89.564 42.969c0 0 71.429 92.076 71.429 92.076c0 0 71.429 -92.076 71.429 -92.076c22.321 -28.646 52.176 -42.969 89.564 -42.969c37.389 0 68.267 12.184 92.634 36.552c24.368 24.367 36.552 53.85 36.552 88.448c0 34.598 -12.184 64.081 -36.552 88.449c-24.367 24.367 -53.85 36.551 -88.448 36.551c0 0 245.535 0 245.535 0c4.837 0 9.022 1.767 12.556 5.302c3.534 3.534 5.301 7.719 5.301 12.555c0 0 0 178.572 0 178.572c0 13.021 -12.834 19.531 -38.504 19.531c0 0 -32.924 -1.674 -32.924 -1.674c0 0 0 232.143 0 232.143c0 14.881 -5.209 27.53 -15.625 37.946c-10.417 10.417 -23.066 15.625 -37.947 15.625c0 0 -607.142 0 -607.142 0c-14.881 0 -27.53 -5.208 -37.947 -15.625c-10.417 -10.416 -15.625 -23.065 -15.625 -37.946c0 0 0 -232.143 0 -232.143c0 0 -32.924 1.674 -32.924 1.674m608.817 -340.96c0 -14.881 -5.208 -27.53 -15.625 -37.946c-10.417 -10.417 -23.531 -15.625 -39.342 -15.625c-15.811 0 -28.18 5.766 -37.109 17.299c0 0 -69.754 89.844 -69.754 89.844c0 0 108.259 0 108.259 0c14.88 0 27.529 -5.209 37.946 -15.625c10.417 -10.417 15.625 -23.066 15.625 -37.947c0 0 0 0 0 0m-383.929 53.572c0 0 108.817 0 108.817 0c0 0 -70.312 -89.844 -70.312 -89.844c-8.929 -11.533 -21.299 -17.299 -37.11 -17.299c-15.811 0 -28.924 5.208 -39.341 15.625c-10.417 10.416 -15.625 23.065 -15.625 37.946c0 14.881 5.208 27.53 15.625 37.947c10.417 10.416 23.065 15.625 37.946 15.625c0 0 0 0 0 0m254.465 470.982c0 0 0 -399.554 0 -399.554c0 0 -178.572 0 -178.572 0c0 0 0 399.554 0 399.554c0 9.3 3.441 16.462 10.324 21.484c6.882 5.022 15.346 7.534 25.391 7.534c0 0 107.142 0 107.142 0c10.045 0 18.509 -2.512 25.391 -7.534c6.882 -5.022 10.324 -12.184 10.324 -21.484c0 0 0 0 0 0" />
  </g>
</svg>