<svg height="1000px" width="917.96875px" xmlns="http://www.w3.org/2000/svg">
  <g>
    <path d="M0 595.458984375c0 0 0 -190.918 0 -190.918c0 -5.208 1.872 -9.684 5.615 -13.428c3.744 -3.743 8.22 -5.615 13.428 -5.615c0 0 263.184 0 263.184 0c-18.555 0 -36.052 -3.499 -52.491 -10.498c-16.438 -6.999 -30.68 -16.52 -42.724 -28.564c-12.045 -12.045 -21.566 -26.205 -28.565 -42.481c-6.998 -16.276 -10.498 -33.691 -10.498 -52.246c0 -18.555 3.5 -36.051 10.498 -52.49c6.999 -16.439 16.52 -30.681 28.565 -42.725c12.044 -12.044 26.204 -21.566 42.48 -28.564c16.276 -6.999 33.854 -10.498 52.735 -10.498c19.856 0 38.655 3.987 56.396 11.963c17.741 7.975 32.145 19.287 43.213 33.935c0 0 77.148 99.121 77.148 99.121c0 0 77.149 -99.121 77.149 -99.121c11.393 -14.648 25.879 -25.96 43.457 -33.935c17.578 -7.976 36.458 -11.963 56.64 -11.963c18.555 0 35.971 3.499 52.247 10.498c16.276 6.998 30.436 16.52 42.48 28.564c12.044 12.044 21.566 26.205 28.564 42.481c6.999 16.276 10.499 33.854 10.499 52.734c0 18.555 -3.5 35.97 -10.499 52.246c-6.998 16.276 -16.52 30.436 -28.564 42.481c-12.044 12.044 -26.204 21.565 -42.48 28.564c-16.276 6.999 -33.692 10.498 -52.247 10.498c0 0 262.696 0 262.696 0c5.208 0 9.684 1.872 13.428 5.615c3.743 3.744 5.615 8.22 5.615 13.428c0 0 0 190.918 0 190.918c0 5.208 -1.791 9.684 -5.371 13.428c-3.581 3.743 -8.138 5.615 -13.672 5.615c0 0 -57.129 0 -57.129 0c0 0 0 210.937 0 210.937c0 15.3 -5.615 28.646 -16.846 40.04c-11.23 11.393 -24.821 17.089 -40.771 17.089c0 0 -650.391 0 -650.391 0c-15.95 0 -29.378 -5.696 -40.283 -17.089c-10.905 -11.394 -16.358 -24.74 -16.358 -40.04c0 0 0 -210.937 0 -210.937c0 0 -58.105 0 -58.105 0c-5.208 0 -9.684 -1.79 -13.428 -5.371c-3.743 -3.581 -5.615 -8.138 -5.615 -13.672c0 0 0 0 0 0m225.098 -343.75c0 15.951 5.452 29.378 16.357 40.283c10.905 10.905 24.496 16.358 40.772 16.358c0 0 115.722 0 115.722 0c0 0 -73.73 -95.704 -73.73 -95.704c-3.255 -3.255 -8.464 -7.242 -15.625 -11.962c-7.162 -4.72 -15.951 -7.08 -26.367 -7.08c-15.951 0 -29.46 5.696 -40.528 17.089c-11.067 11.394 -16.601 25.065 -16.601 41.016c0 0 0 0 0 0m137.695 522.949c0 10.742 3.906 19.938 11.719 27.588c7.812 7.65 16.927 11.475 27.343 11.475c0 0 114.258 0 114.258 0c10.742 0 19.938 -3.825 27.588 -11.475c7.65 -7.65 11.475 -16.846 11.475 -27.588c0 0 0 -389.16 0 -389.16c0 0 -192.383 0 -192.383 0c0 0 0 389.16 0 389.16c0 0 0 0 0 0m157.227 -466.308c0 0 116.21 0 116.21 0c15.951 0 29.379 -5.453 40.284 -16.358c10.905 -10.905 16.357 -24.332 16.357 -40.283c0 -15.951 -5.452 -29.622 -16.357 -41.016c-10.905 -11.393 -24.333 -17.089 -40.284 -17.089c-10.742 0 -19.612 2.36 -26.611 7.08c-6.999 4.72 -12.126 8.707 -15.381 11.963c0 0 -74.218 95.703 -74.218 95.703" />
  </g>
</svg>