<svg height="1000px" width="857.1428571428571px" xmlns="http://www.w3.org/2000/svg">
  <g>
    <path d="M0 553.5714285714286c0 0 0 -178.571 0 -178.571c0 -4.837 1.767 -9.022 5.301 -12.556c3.535 -3.534 7.72 -5.302 12.556 -5.302c0 0 245.536 0 245.536 0c-34.598 0 -64.081 -12.183 -88.449 -36.551c-24.367 -24.367 -36.551 -53.85 -36.551 -88.449c0 -34.598 12.184 -64.081 36.551 -88.448c24.368 -24.368 55.246 -36.552 92.634 -36.552c37.389 0 67.243 14.323 89.565 42.969c0 0 71.428 92.076 71.428 92.076c0 0 71.429 -92.076 71.429 -92.076c22.321 -28.646 52.176 -42.969 89.565 -42.969c37.388 0 68.266 12.184 92.634 36.552c24.367 24.367 36.551 53.85 36.551 88.448c0 34.599 -12.184 64.082 -36.551 88.449c-24.368 24.368 -53.851 36.551 -88.449 36.551c0 0 245.536 0 245.536 0c4.836 0 9.021 1.768 12.556 5.302c3.534 3.534 5.301 7.719 5.301 12.556c0 0 0 178.571 0 178.571c0 13.021 -12.835 19.531 -38.505 19.531c0 0 -32.924 -1.674 -32.924 -1.674c0 0 0 232.143 0 232.143c0 14.881 -5.208 27.53 -15.625 37.946c-10.416 10.417 -23.065 15.625 -37.946 15.625c0 0 -607.143 0 -607.143 0c-14.881 0 -27.53 -5.208 -37.946 -15.625c-10.417 -10.416 -15.625 -23.065 -15.625 -37.946c0 0 0 -232.143 0 -232.143c0 0 -32.925 1.674 -32.925 1.674c-25.669 0 -38.504 -6.51 -38.504 -19.531c0 0 0 0 0 0m209.821 -321.429c0 14.881 5.209 27.53 15.625 37.947c10.417 10.417 23.066 15.625 37.947 15.625c0 0 108.817 0 108.817 0c0 0 -70.313 -89.844 -70.313 -89.844c-8.928 -11.533 -21.298 -17.299 -37.109 -17.299c-15.811 0 -28.925 5.208 -39.342 15.625c-10.416 10.417 -15.625 23.065 -15.625 37.946c0 0 0 0 0 0m129.465 524.554c0 9.301 3.441 16.462 10.323 21.484c6.883 5.023 15.346 7.534 25.391 7.534c0 0 107.143 0 107.143 0c10.044 0 18.508 -2.511 25.39 -7.534c6.883 -5.022 10.324 -12.183 10.324 -21.484c0 0 0 -399.554 0 -399.554c0 0 -178.571 0 -178.571 0c0 0 0 399.554 0 399.554c0 0 0 0 0 0m146.205 -470.982c0 0 108.259 0 108.259 0c14.881 0 27.53 -5.208 37.946 -15.625c10.417 -10.417 15.625 -23.066 15.625 -37.947c0 -14.881 -5.208 -27.529 -15.625 -37.946c-10.416 -10.417 -23.53 -15.625 -39.341 -15.625c-15.811 0 -28.181 5.766 -37.109 17.299c0 0 -69.755 89.844 -69.755 89.844" />
  </g>
</svg>