<svg height="1000" width="857.143" xmlns="http://www.w3.org/2000/svg"><path d="M517.824 756.712v-399.528h-178.56v399.52799999999996q0 13.95 10.044 21.483t25.668 7.533h107.136q15.624 0 25.668 -7.533t10.044 -21.483zm-254.448 -470.952h108.81l-70.308 -89.838q-14.508 -17.298 -38.502 -17.298 -22.32 0 -37.944 15.624t-15.624 37.944 15.624 37.944 37.944 15.624zm383.904 -53.568q0 -22.32 -15.624 -37.944t-37.944 -15.624q-23.994 0 -38.502 17.298l-69.75 89.838h108.252q22.32 0 37.944 -15.624t15.624 -37.944zm209.808 142.848v178.56q0 7.812 -5.022 12.834t-12.834 5.022h-53.568v232.128q0 22.32 -15.624 37.944t-37.944 15.624h-607.104q-22.32 0 -37.944 -15.624t-15.624 -37.944v-232.128h-53.568q-7.812 0 -12.834 -5.022t-5.022 -12.834v-178.56q0 -7.812 5.022 -12.834t12.834 -5.022h245.52q-51.894 0 -88.443 -36.549t-36.549 -88.443 36.549 -88.443 88.443 -36.549q59.706 0 93.744 42.966l71.424 92.07 71.424 -92.07q34.038 -42.966 93.744 -42.966 51.894 0 88.443 36.549t36.549 88.443 -36.549 88.443 -88.443 36.549h245.52q7.812 0 12.834 5.022t5.022 12.834z"/></svg>