<svg height="1000px" width="857.1428571428571px" xmlns="http://www.w3.org/2000/svg">
  <g>
    <path d="M0 553.5714285714286c0 0 0 -178.571 0 -178.571c0 -4.837 1.767 -9.022 5.301 -12.556c3.535 -3.534 7.72 -5.302 12.556 -5.302c0 0 245.536 0 245.536 0c-34.598 0 -64.081 -12.183 -88.449 -36.551c-24.367 -24.367 -36.551 -53.85 -36.551 -88.449c0 -34.598 12.184 -64.081 36.551 -88.448c24.368 -24.368 53.851 -36.552 88.449 -36.552c40.178 0 71.428 14.323 93.75 42.969c0 0 71.428 92.076 71.428 92.076c0 0 71.429 -92.076 71.429 -92.076c22.321 -28.646 53.571 -42.969 93.75 -42.969c34.598 0 64.081 12.184 88.449 36.552c24.367 24.367 36.551 53.85 36.551 88.448c0 34.599 -12.184 64.082 -36.551 88.449c-24.368 24.368 -53.851 36.551 -88.449 36.551c0 0 245.536 0 245.536 0c4.836 0 9.021 1.768 12.556 5.302c3.534 3.534 5.301 7.719 5.301 12.556c0 0 0 178.571 0 178.571c0 5.208 -1.86 9.301 -5.581 12.277c-3.72 2.976 -8.742 4.929 -15.066 5.859c-6.325 0.93 -12.277 1.395 -17.858 1.395c-5.58 0 -11.997 -0.279 -19.252 -0.837c-7.254 -0.558 -11.812 -0.837 -13.672 -0.837c0 0 0 232.143 0 232.143c0 14.881 -5.208 27.53 -15.625 37.946c-10.416 10.417 -23.065 15.625 -37.946 15.625c0 0 -607.143 0 -607.143 0c-14.881 0 -27.53 -5.208 -37.946 -15.625c-10.417 -10.416 -15.625 -23.065 -15.625 -37.946c0 0 0 -232.143 0 -232.143c-1.861 0 -6.418 0.279 -13.672 0.837c-7.255 0.558 -13.672 0.837 -19.253 0.837c-5.58 0 -11.532 -0.465 -17.857 -1.395c-6.324 -0.93 -11.346 -2.883 -15.067 -5.859c-3.72 -2.976 -5.58 -7.069 -5.58 -12.277c0 0 0 0 0 0m209.821 -321.429c0 14.881 5.209 27.53 15.625 37.947c10.417 10.417 23.066 15.625 37.947 15.625c0 0 108.817 0 108.817 0c0 0 -70.313 -89.844 -70.313 -89.844c-8.928 -11.533 -21.763 -17.299 -38.504 -17.299c-14.881 0 -27.53 5.208 -37.947 15.625c-10.416 10.417 -15.625 23.065 -15.625 37.946c0 0 0 0 0 0m129.465 524.554c0 9.301 3.441 16.462 10.323 21.484c6.883 5.023 15.346 7.534 25.391 7.534c0 0 107.143 0 107.143 0c10.044 0 18.508 -2.511 25.39 -7.534c6.883 -5.022 10.324 -12.183 10.324 -21.484c0 0 0 -399.554 0 -399.554c0 0 -178.571 0 -178.571 0c0 0 0 399.554 0 399.554c0 0 0 0 0 0m146.205 -470.982c0 0 108.259 0 108.259 0c14.881 0 27.53 -5.208 37.946 -15.625c10.417 -10.417 15.625 -23.066 15.625 -37.947c0 -14.881 -5.208 -27.529 -15.625 -37.946c-10.416 -10.417 -23.065 -15.625 -37.946 -15.625c-16.741 0 -29.576 5.766 -38.504 17.299c0 0 -69.755 89.844 -69.755 89.844" />
  </g>
</svg>