<svg height="1000px" width="900px" xmlns="http://www.w3.org/2000/svg">
  <g>
    <path d="M0 594c0 0 0 -188 0 -188c0 -5.333 1.833 -9.833 5.5 -13.5c3.667 -3.667 8.167 -5.5 13.5 -5.5c0 0 258 0 258 0c-18 0 -35 -3.333 -51 -10c-16 -6.667 -30 -16 -42 -28c-12 -12 -21.5 -26 -28.5 -42c-7 -16 -10.5 -33 -10.5 -51c0 -18 3.5 -35 10.5 -51c7 -16 16.5 -29.833 28.5 -41.5c12 -11.667 26 -21 42 -28c16 -7 33 -10.5 51 -10.5c19.333 0 37.667 3.833 55 11.5c17.333 7.667 31.667 18.833 43 33.5c0 0 75 97 75 97c0 0 75 -97 75 -97c11.333 -14.667 25.667 -25.833 43 -33.5c17.333 -7.667 35.667 -11.5 55 -11.5c18 0 35 3.5 51 10.5c16 7 30 16.333 42 28c12 11.667 21.5 25.5 28.5 41.5c7 16 10.5 33 10.5 51c0 18 -3.5 35 -10.5 51c-7 16 -16.5 30 -28.5 42c-12 12 -26 21.333 -42 28c-16 6.667 -33 10 -51 10c0 0 258 0 258 0c5.333 0 9.833 1.833 13.5 5.5c3.667 3.667 5.5 8.167 5.5 13.5c0 0 0 188 0 188c0 5.333 -1.833 9.667 -5.5 13c-3.667 3.333 -8.167 5 -13.5 5c0 0 -56 0 -56 0c0 0 0 207 0 207c0 15.333 -5.5 28.5 -16.5 39.5c-11 11 -24.167 16.5 -39.5 16.5c0 0 -638 0 -638 0c-15.333 0 -28.5 -5.5 -39.5 -16.5c-11 -11 -16.5 -24.167 -16.5 -39.5c0 0 0 -207 0 -207c0 0 -56 0 -56 0c-5.333 0 -9.833 -1.667 -13.5 -5c-3.667 -3.333 -5.5 -7.667 -5.5 -13c0 0 0 0 0 0m220 -338c0 15.333 5.667 28.5 17 39.5c11.333 11 24.667 16.5 40 16.5c0 0 113 0 113 0c0 0 -73 -94 -73 -94c-3.333 -3.333 -8.333 -7.167 -15 -11.5c-6.667 -4.333 -15 -6.5 -25 -6.5c-15.333 0 -28.667 5.5 -40 16.5c-11.333 11 -17 24.167 -17 39.5c0 0 0 0 0 0m136 514c0 10 3.667 18.667 11 26c7.333 7.333 16.333 11 27 11c0 0 112 0 112 0c10.667 0 19.667 -3.667 27 -11c7.333 -7.333 11 -16 11 -26c0 0 0 -383 0 -383c0 0 -188 0 -188 0c0 0 0 383 0 383c0 0 0 0 0 0m153 -458c0 0 114 0 114 0c15.333 0 28.667 -5.5 40 -16.5c11.333 -11 17 -24.167 17 -39.5c0 -15.333 -5.667 -28.5 -17 -39.5c-11.333 -11 -24.667 -16.5 -40 -16.5c-10 0 -18.333 2.167 -25 6.5c-6.667 4.333 -11.667 8.167 -15 11.5c0 0 -74 94 -74 94" />
  </g>
</svg>