<svg height="1000" width="857.1" xmlns="http://www.w3.org/2000/svg"><path d="M0 553.6v-178.6q0-7.3 5.3-12.6t12.6-5.3h245.5q-51.9 0-88.4-36.5t-36.5-88.4 36.5-88.4 88.4-36.5q60.3 0 93.7 43l71.4 92.1 71.4-92.1q33.5-43 93.7-43 51.9 0 88.4 36.5t36.5 88.4-36.5 88.4-88.4 36.5h245.5q7.3 0 12.6 5.3t5.3 12.6v178.6q0 7.8-5.6 12.3t-15.1 5.9-17.9 1.4-19.3-.8-13.7-.8v232.1q0 22.3-15.6 37.9t-37.9 15.6h-607.1q-22.3 0-37.9-15.6t-15.6-37.9v-232.1q-2.8 0-13.7.8t-19.3.8-17.9-1.4-15.1-5.9-5.6-12.3zm209.8-321.4q0 22.3 15.6 37.9t37.9 15.6h108.8l-70.3-89.8q-13.4-17.3-38.5-17.3-22.3 0-37.9 15.6t-15.6 37.9zm129.5 524.5q0 14 10.3 21.5t25.4 7.5h107.1q15.1 0 25.4-7.5t10.3-21.5v-399.5h-178.6v399.5zm146.2-471h108.3q22.3 0 37.9-15.6t15.6-37.9-15.6-37.9-37.9-15.6q-25.1 0-38.5 17.3z"/></svg>