<svg height="1000" width="858" xmlns="http://www.w3.org/2000/svg"><path d="M0 553.6l0-178.56q0-7.254 5.301-12.555t12.555-5.301l245.52 0q-51.894 0-88.443-36.549t-36.549-88.443 36.549-88.443 88.443-36.549q60.264 0 93.744 42.966l71.424 92.07 71.424-92.07q33.48-42.966 93.744-42.966 51.894 0 88.443 36.549t36.549 88.443-36.549 88.443-88.443 36.549l245.52 0q7.254 0 12.555 5.301t5.301 12.555l0 178.56q0 7.812-5.58 12.276t-15.066 5.859-17.856 1.395-19.251-.837-13.671-.837l0 232.128q0 22.32-15.624 37.944t-37.944 15.624l-607.104 0q-22.32 0-37.944-15.624t-15.624-37.944l0-232.128q-2.79 0-13.671.837t-19.251.837-17.856-1.395-15.066-5.859-5.58-12.276zm209.808-321.408q0 22.32 15.624 37.944t37.944 15.624l108.81 0l-70.308-89.838q-13.392-17.298-38.502-17.298-22.32 0-37.944 15.624t-15.624 37.944zm129.456 524.52q0 13.95 10.323 21.483t25.389 7.533l107.136 0q15.066 0 25.389-7.533t10.323-21.483l0-399.528l-178.56 0l0 399.528zm146.196-470.952l108.252 0q22.32 0 37.944-15.624t15.624-37.944-15.624-37.944-37.944-15.624q-25.11 0-38.502 17.298z"/></svg>