<svg height="1000" width="857.1" xmlns="http://www.w3.org/2000/svg"><path d="M324.8 729.9q0 36.8 -51.9 36.8 -59.7 0 -59.7 -35.1 0 -35.7 54.7 -35.7 56.9 0 56.9 34zm-20.1 -260q0 47.4 -41.3 47.4 -43 0 -43 -46.9 0 -50.2 43 -50.2 20.1 0 30.7 14.2t10.6 35.5zM397.3 428v-69.7q-43.5 16.1 -75.3 16.1 -27.9 -16.1 -61.4 -16.1 -48 0 -80.9 31.8t-32.9 79.8q0 27.9 16.4 56.9t41 37.4v1.6Q183 575.3 183 613.3q0 29.6 22.9 43v1.6q-63 20.7 -63 77.6 0 25.1 11.1 43.8t30.2 28.5 40.1 14.2 45.2 4.5q125 0 125 -105 0 -37.3 -26.8 -55.2t-70.3 -25.7q-15 -2.8 -28.7 -11.4T255 607.1q0 -24.5 27.4 -29 42.9 -8.3 68 -39t25.2 -74.8q0 -13.4 -5.6 -29 20.6 -5.1 27.3 -7.3zm32.9 233.8h76.5q-1.1 -15 -1.1 -45.7v-216q0 -25.7 1.1 -38.5h-76.5q1.7 12.8 1.7 39.6V620q0 27.9 -1.7 41.8zm284.1 -8.9v-67.5q-16.8 11.7 -38 11.7 -29.5 0 -29.5 -45.8V425.8h29q5 0 14.8 .5t14.8 .6v-65.3h-58.6q0 -45.8 1.6 -56.9h-78.1q2.2 13.4 2.2 30.7v26.2h-33.4v65.3q20.1 -1.7 20.6 -1.7 1.7 0 6.1 .3t6.7 .3v1.1h-1.1V548q0 20.6 1.4 35.7t6.4 31.5 13.7 27.1 24.3 17.3 36.8 6.7q35.7 0 60.3 -13.4zm-198.7 -394q0 -20.1 -13.4 -35.4t-33.4 -15.4T435 223.2t-13.7 35.7q0 20.1 14 34.9t33.5 14.8T502 293.5t13.6 -34.6zm341.5 -26.8v535.8q0 66.4 -47.1 113.5t-113.6 47.2H160.7q-66.4 0 -113.5 -47.2T0 767.9V232.1Q0 165.7 47.2 118.6T160.7 71.4h535.7q66.4 0 113.6 47.2t47.1 113.5z"/></svg>