<svg height="1000" width="857.143" xmlns="http://www.w3.org/2000/svg"><path d="M324.756 729.928q0 36.828 -51.894 36.828 -59.706 0 -59.706 -35.154 0 -35.712 54.684 -35.712 56.916 0 56.916 34.038zm-20.088 -260.028q0 47.43 -41.292 47.43 -42.966 0 -42.966 -46.872 0 -50.22 42.966 -50.22 20.088 0 30.69 14.229t10.602 35.433zm92.628 -41.85v-69.75q-43.524 16.182 -75.33 16.182 -27.9 -16.182 -61.38 -16.182 -47.988 0 -80.91 31.806t-32.922 79.794q0 27.9 16.461 56.916t41.013 37.386v1.674q-21.204 9.486 -21.204 47.43 0 29.574 22.878 42.966v1.674q-63.054 20.646 -63.054 77.562 0 25.11 11.16 43.803t30.132 28.458 40.176 14.229 45.198 4.464q124.992 0 124.992 -104.904 0 -37.386 -26.784 -55.242t-70.308 -25.668q-15.066 -2.79 -28.737 -11.439t-13.671 -22.041q0 -24.552 27.342 -29.016 42.966 -8.37 68.076 -39.06t25.11 -74.772q0 -13.392 -5.58 -29.016 20.646 -5.022 27.342 -7.254zm32.922 233.802h76.446q-1.116 -15.066 -1.116 -45.756v-215.946q0 -25.668 1.116 -38.502h-76.446q1.674 12.834 1.674 39.618v218.736q0 27.9 -1.674 41.85zm284.022 -8.928v-67.518q-16.74 11.718 -37.944 11.718 -29.574 0 -29.574 -45.756v-125.55h29.016q5.022 0 14.787 .558t14.787 .558v-65.286h-58.59q0 -45.756 1.674 -56.916h-78.12q2.232 13.392 2.232 30.69v26.226h-33.48v65.286q20.088 -1.674 20.646 -1.674 1.674 0 6.138 .279t6.696 .279v1.116h-1.116v121.086q0 20.646 1.395 35.712t6.417 31.527 13.671 27.063 24.273 17.298 36.828 6.696q35.712 0 60.264 -13.392zm-198.648 -393.948q0 -20.088 -13.392 -35.433t-33.48 -15.345 -33.759 15.066 -13.671 35.712q0 20.088 13.95 34.875t33.48 14.787 33.201 -15.066 13.671 -34.596zm341.496 -26.784v535.68q0 66.402 -47.151 113.553t-113.553 47.151h-535.68q-66.402 0 -113.553 -47.151t-47.151 -113.553v-535.68q0 -66.402 47.151 -113.553t113.553 -47.151h535.68q66.402 0 113.553 47.151t47.151 113.553z"/></svg>