<svg height="1000" width="1000" xmlns="http://www.w3.org/2000/svg"><path d="M37.944 853.246q0 -92.07 101.556 -125.55v-2.232q-37.386 -22.878 -37.386 -70.308 0 -60.822 35.154 -76.446v-2.232q-40.176 -13.392 -66.681 -60.543t-26.505 -92.349q0 -77.562 53.01 -129.177t131.13 -51.615q53.568 0 99.324 26.226 54.684 0 121.644 -26.226v112.716q-20.088 6.696 -44.082 12.276 8.928 23.994 8.928 46.872 0 70.866 -40.734 120.807t-109.926 62.775q-22.32 4.464 -33.201 15.066t-10.881 32.364q0 17.298 12.555 28.737t32.364 17.856 43.803 12.276 47.988 14.229 43.803 20.925 32.364 35.712 12.555 54.963q0 169.632 -202.554 169.632 -38.502 0 -72.54 -6.975t-64.728 -22.878 -48.825 -45.756 -18.135 -71.145zm113.832 -6.138q0 56.358 95.976 56.358 84.258 0 84.258 -58.59 0 -55.8 -92.07 -55.8 -88.164 0 -88.164 58.032zm11.718 -422.406q0 75.33 69.192 75.33 66.402 0 66.402 -76.446 0 -34.038 -16.74 -56.916t-49.662 -22.878q-69.192 0 -69.192 80.91zm324.756 -342.612q0 -32.922 22.041 -57.474t54.963 -24.552q32.364 0 53.847 24.831t21.483 57.195 -21.762 56.637 -53.568 24.273q-32.364 0 -54.684 -24.273t-22.32 -56.637zm14.508 652.302q2.232 -25.11 2.232 -74.772v-339.822q0 -52.452 -2.232 -71.424h123.876q-2.232 18.414 -2.232 69.192v342.054q0 49.662 2.232 74.772h-123.876zm176.328 -379.998v-106.02h53.568v-42.408q0 -30.132 -3.348 -49.662h126.666q-3.348 22.878 -3.348 92.07h95.418v106.02q-8.37 0 -24.273 -1.116t-23.715 -1.116h-47.43v203.67q0 73.098 48.546 73.098 34.038 0 60.822 -18.414v109.368q-39.618 21.762 -97.092 21.762 -34.596 0 -59.706 -11.16t-39.06 -27.9 -22.041 -43.524 -10.323 -51.336 -2.232 -57.474v-195.858h1.116v-2.232q-3.906 0 -10.602 -.558t-10.044 -.558q-11.718 0 -32.922 3.348z"/></svg>