<svg height="1000" width="1000" xmlns="http://www.w3.org/2000/svg"><path d="M332 844.9q0 -55.8 -92 -55.8 -88.2 0 -88.2 58 0 56.4 96 56.4 84.2 0 84.2 -58.6zM299.1 423.5q0 -34 -16.7 -56.9t-49.7 -22.8q-69.2 0 -69.2 80.9 0 75.3 69.2 75.3 66.4 0 66.4 -76.5zM449.2 242.7v112.8q-20.1 6.7 -44.1 12.2 9 24 9 46.9 0 70.9 -40.8 120.8t-109.9 62.8q-22.3 4.5 -33.2 15.1t-10.9 32.3q0 17.3 12.6 28.8t32.3 17.8 43.8 12.3 48 14.3 43.8 20.9 32.4 35.7 12.6 55q0 169.6 -202.6 169.6 -38.5 0 -72.6 -7t-64.7 -22.9T56.1 924.4 37.9 853.2q0 -92 101.6 -125.5v-2.3q-37.4 -22.8 -37.4 -70.3 0 -60.8 35.2 -76.4v-2.2Q97.1 563.1 70.6 515.9T44.1 423.5q0 -77.5 53 -129.1t131.1 -51.7q53.6 0 99.4 26.3 54.7 0 121.6 -26.3zm177.5 491.7H502.8q2.2 -25.1 2.2 -74.8V319.8q0 -52.5 -2.2 -71.5h123.9q-2.3 18.4 -2.3 69.2v342.1q0 49.7 2.3 74.8zM962.1 610.5v109.4q-39.7 21.7 -97.1 21.7 -34.6 0 -59.8 -11.1t-39 -27.9T744.1 659t-10.3 -51.3 -2.2 -57.5V354.4h1.1v-2.3q-3.9 0 -10.6 -.5t-10 -.6q-11.8 0 -33 3.4V248.3h53.6v-42.4q0 -30.1 -3.3 -49.6H856q-3.3 22.8 -3.3 92h95.4v106.1q-8.4 0 -24.3 -1.2t-23.7 -1.1h-47.4v203.7q0 73.1 48.5 73.1 34.1 0 60.9 -18.4zM640.6 82q0 32.4 -21.7 56.7t-53.6 24.2q-32.4 0 -54.7 -24.2T488.3 82q0 -32.9 22 -57.4T565.3 0q32.4 0 53.8 24.8T640.6 82z"/></svg>