<svg height="1000px" width="901.85546875px" xmlns="http://www.w3.org/2000/svg">
  <g>
    <path d="M0 512.20703125c0 -37.435 6.022 -73.649 18.066 -108.643c12.045 -34.993 30.437 -66.487 55.176 -94.482c0 0 -1.465 -1.953 -1.465 -1.953c0 0 1.465 -0.977 1.465 -0.977c-5.208 -12.695 -8.707 -25.879 -10.498 -39.55c-1.79 -13.672 -2.685 -27.507 -2.685 -41.504c0 -8.138 0.325 -17.334 0.976 -27.588c0.651 -10.254 1.953 -20.915 3.906 -31.983c1.954 -11.067 4.476 -21.403 7.569 -31.006c3.092 -9.602 6.917 -17.822 11.474 -24.658c0 0 3.907 0 3.907 0c19.856 0 37.841 2.035 53.955 6.104c16.113 4.069 31.494 9.765 46.142 17.09c14.649 7.324 28.809 15.787 42.481 25.39c13.672 9.603 28.483 19.45 44.433 29.541c27.995 -8.138 57.048 -13.509 87.159 -16.113c30.11 -2.604 59.814 -3.906 89.111 -3.906c29.297 0 58.919 1.302 88.867 3.906c29.948 2.604 59.245 7.975 87.891 16.113c15.299 -10.091 29.948 -19.938 43.945 -29.541c13.997 -9.603 28.158 -18.066 42.48 -25.39c14.323 -7.325 29.541 -13.021 45.655 -17.09c16.113 -4.069 34.098 -6.104 53.955 -6.104c0 0 4.883 0 4.883 0c3.906 6.511 7.405 14.649 10.498 24.414c3.092 9.766 5.615 20.183 7.568 31.25c1.953 11.068 3.418 21.729 4.395 31.983c0.976 10.254 1.464 19.45 1.464 27.588c0 13.997 -0.976 27.832 -2.929 41.504c-1.953 13.671 -5.209 26.855 -9.766 39.55c0 0 0 0.977 0 0.977c0 0 -0.976 1.953 -0.976 1.953c24.739 27.995 43.05 59.489 54.931 94.482c11.882 34.994 17.822 71.208 17.822 108.643c0 75.846 -10.823 138.265 -32.47 187.256c-21.647 48.991 -52.328 87.484 -92.041 115.478c-39.714 27.995 -87.24 47.526 -142.578 58.594c-55.339 11.068 -116.537 16.602 -183.594 16.602c-67.383 0 -128.906 -5.534 -184.57 -16.602c-55.665 -11.068 -103.191 -30.599 -142.579 -58.594c-39.388 -27.994 -69.905 -66.487 -91.552 -115.478c-21.647 -48.991 -32.471 -111.41 -32.471 -187.256c0 0 0 0 0 0m122.07 126.953c0 47.201 10.498 83.659 31.494 109.375c20.997 25.716 47.852 44.596 80.567 56.641c32.715 12.044 68.359 19.043 106.933 20.996c38.575 1.953 75.603 2.93 111.084 2.93c24.089 0 48.91 -0.326 74.463 -0.977c25.554 -0.651 50.537 -2.686 74.951 -6.104c24.415 -3.418 47.608 -8.951 69.581 -16.601c21.972 -7.65 41.097 -18.636 57.373 -32.959c16.276 -14.323 29.296 -32.471 39.062 -54.443c9.766 -21.973 14.649 -48.91 14.649 -80.811c0 -27.344 -4.395 -51.351 -13.184 -72.021c-8.789 -20.671 -20.996 -38.005 -36.621 -52.002c-15.625 -13.998 -34.261 -24.496 -55.908 -31.495c-21.647 -6.998 -45.492 -10.498 -71.534 -10.498c-25.39 0 -50.862 1.14 -76.416 3.418c-25.553 2.279 -51.025 3.418 -76.416 3.418c-25.39 0 -50.944 -1.139 -76.66 -3.418c-25.716 -2.278 -51.269 -3.418 -76.66 -3.418c-52.734 0 -95.377 14.161 -127.93 42.481c-32.552 28.32 -48.828 70.15 -48.828 125.488c0 0 0 0 0 0m119.141 -20.019c0 -21.485 4.313 -39.877 12.939 -55.176c8.627 -15.3 19.287 -22.949 31.983 -22.949c12.695 0 23.519 7.649 32.471 22.949c8.951 15.299 13.427 33.691 13.427 55.176c0 21.484 -4.476 39.795 -13.427 54.931c-8.952 15.137 -19.776 22.705 -32.471 22.705c-12.696 0 -23.356 -7.568 -31.983 -22.705c-8.626 -15.136 -12.939 -33.447 -12.939 -54.931c0 0 0 0 0 0m146.973 129.882c-1.954 -5.208 0 -9.277 5.859 -12.207c5.208 -1.953 9.115 0.163 11.719 6.348c8.789 24.74 23.925 36.947 45.41 36.621c10.091 0 19.287 -3.336 27.588 -10.01c8.301 -6.673 14.079 -15.543 17.334 -26.611c2.604 -6.51 6.836 -8.626 12.695 -6.348c5.208 1.953 7.324 6.023 6.348 12.207c-5.209 15.3 -13.509 27.588 -24.903 36.866c-11.393 9.277 -24.414 13.916 -39.062 13.916c-13.998 0 -26.693 -4.639 -38.086 -13.916c-11.393 -9.278 -19.694 -21.566 -24.902 -36.866c0 0 0 0 0 0m33.691 -54.199c0 3.906 2.848 7.406 8.545 10.498c5.697 3.093 12.614 4.639 20.752 4.639c8.138 0 14.974 -1.546 20.508 -4.639c5.534 -3.092 8.3 -6.592 8.3 -10.498c0 -3.906 -2.848 -7.324 -8.544 -10.254c-5.697 -2.929 -12.452 -4.394 -20.264 -4.394c-8.138 0 -15.055 1.465 -20.752 4.394c-5.697 2.93 -8.545 6.348 -8.545 10.254c0 0 0 0 0 0m147.949 -75.683c0 21.484 4.558 39.795 13.672 54.931c9.115 15.137 20.02 22.705 32.715 22.705c12.695 0 23.356 -7.568 31.982 -22.705c8.627 -15.136 12.94 -33.447 12.94 -54.931c0 -21.485 -4.395 -39.877 -13.184 -55.176c-8.789 -15.3 -19.368 -22.949 -31.738 -22.949c-12.695 0 -23.6 7.649 -32.715 22.949c-9.114 15.299 -13.672 33.691 -13.672 55.176c0 0 0 0 0 0" />
  </g>
</svg>