<svg height="1000px" width="750px" xmlns="http://www.w3.org/2000/svg">
  <g>
    <path d="M0 781c0 0 0 -562 0 -562c0 -12.667 2.5 -24.833 7.5 -36.5c5 -11.667 11.667 -21.667 20 -30c8.333 -8.333 18.167 -15 29.5 -20c11.333 -5 23.667 -7.5 37 -7.5c0 0 562 0 562 0c26 0 48.167 9.167 66.5 27.5c18.333 18.333 27.5 40.5 27.5 66.5c0 0 0 562 0 562c0 13.333 -2.5 25.667 -7.5 37c-5 11.333 -11.667 21.167 -20 29.5c-8.333 8.333 -18.333 15 -30 20c-11.667 5 -23.833 7.5 -36.5 7.5c0 0 -562 0 -562 0c-26 0 -48.167 -9.167 -66.5 -27.5c-18.333 -18.333 -27.5 -40.5 -27.5 -66.5c0 0 0 0 0 0m94 -227c0 29.333 3.667 56.833 11 82.5c7.333 25.667 21.167 48 41.5 67c20.333 19 48.833 34 85.5 45c36.667 11 84.333 16.5 143 16.5c58.667 0 106.167 -5.5 142.5 -16.5c36.333 -11 64.833 -26 85.5 -45c20.667 -19 34.667 -41.333 42 -67c7.333 -25.667 11 -53.167 11 -82.5c0 -48.667 -15.333 -91 -46 -127c2.667 -10.667 4.333 -22.667 5 -36c0.667 -13.333 0.167 -26.333 -1.5 -39c-1.667 -12.667 -4.167 -24.667 -7.5 -36c-3.333 -11.333 -7.333 -21 -12 -29c0 0 -14 0 -14 0c-28 1.333 -52.667 8.667 -74 22c-21.333 13.333 -42.333 25.667 -63 37c0 0 -7 -1 -7 -1c-5.333 0 -11.5 -0.333 -18.5 -1c-7 -0.667 -14.333 -1.167 -22 -1.5c-7.667 -0.333 -14.5 -0.5 -20.5 -0.5c-12 0 -23.667 0.333 -35 1c-11.333 0.667 -22.333 1.667 -33 3c-20.667 -11.333 -41.667 -23.667 -63 -37c-21.333 -13.333 -46 -20.667 -74 -22c0 0 -14 0 -14 0c-5.333 8 -9.5 17.667 -12.5 29c-3 11.333 -5.333 23.333 -7 36c-1.667 12.667 -2.167 25.667 -1.5 39c0.667 13.333 2.333 25.333 5 36c-30.667 36 -46 78.333 -46 127c0 0 0 0 0 0m89 32c10 -40 38 -62.333 84 -67c8.667 -1.333 17.667 -1.833 27 -1.5c9.333 0.333 19.333 0.833 30 1.5c4.667 0 13.167 0.333 25.5 1c12.333 0.667 20.833 1 25.5 1c4.667 0 13.167 -0.333 25.5 -1c12.333 -0.667 20.833 -1 25.5 -1c10.667 -0.667 20.667 -1.167 30 -1.5c9.333 -0.333 18 0.167 26 1.5c46.667 4.667 75 27 85 67c5.333 22 4.333 42.5 -3 61.5c-7.333 19 -15.333 32.833 -24 41.5c-13.333 13.333 -35.333 24 -66 32c-30.667 8 -63.667 12 -99 12c-35.333 0 -68.333 -4 -99 -12c-30.667 -8 -52.667 -18.667 -66 -32c-8.667 -8.667 -16.667 -22.5 -24 -41.5c-7.333 -19 -8.333 -39.5 -3 -61.5c0 0 0 0 0 0m59 24c0 15.333 3.667 28.333 11 39c7.333 10.667 16.333 16 27 16c10.667 0 19.667 -5.333 27 -16c7.333 -10.667 11 -23.667 11 -39c0 -15.333 -3.667 -28.167 -11 -38.5c-7.333 -10.333 -16.333 -15.5 -27 -15.5c-10.667 0 -19.667 5.167 -27 15.5c-7.333 10.333 -11 23.167 -11 38.5c0 0 0 0 0 0m190 0c0 15.333 3.667 28.333 11 39c7.333 10.667 16.333 16 27 16c10.667 0 19.667 -5.333 27 -16c7.333 -10.667 11 -23.667 11 -39c0 -15.333 -3.667 -28.167 -11 -38.5c-7.333 -10.333 -16.333 -15.5 -27 -15.5c-10.667 0 -19.667 5.167 -27 15.5c-7.333 10.333 -11 23.167 -11 38.5c0 0 0 0 0 0" />
  </g>
</svg>