<svg height="1000px" width="928.5714285714286px" xmlns="http://www.w3.org/2000/svg">
  <g>
    <path d="M0 572.265625c0 -82.775 25.298 -153.739 75.893 -212.891c-10.045 -30.506 -15.067 -64.732 -15.067 -102.678c0 -37.947 9.486 -75.893 28.46 -113.839c40.178 0 75.521 7.347 106.026 22.042c30.506 14.695 65.663 37.667 105.469 68.917c54.688 -13.02 110.863 -19.531 168.527 -19.531c57.664 0 111.049 5.952 160.156 17.857c39.063 -30.506 73.847 -53.013 104.353 -67.522c30.506 -14.509 65.662 -21.763 105.469 -21.763c18.973 37.946 28.46 75.799 28.46 113.56c0 37.76 -5.023 71.707 -15.067 101.841c50.595 59.524 75.892 130.674 75.892 213.449c0 82.775 -11.346 147.228 -34.04 193.359c-14.137 28.646 -33.761 53.386 -58.873 74.219c-25.111 20.833 -51.339 36.83 -78.683 47.991c-27.715 11.161 -59.43 20.089 -95.145 26.786c-54.315 9.672 -106.584 14.509 -156.808 14.509c-50.223 0 -87.239 -0.558 -111.049 -1.674c-23.809 -1.116 -51.246 -3.442 -82.31 -6.976c-31.064 -3.534 -59.431 -9.114 -85.1 -16.741c-25.67 -7.626 -51.154 -17.206 -76.451 -28.739c-52.084 -23.809 -90.123 -59.43 -114.119 -106.864c-23.995 -47.433 -35.993 -112.537 -35.993 -195.312c0 0 0 0 0 0m125 97.377c0 38.691 5.952 70.22 17.857 94.587c11.905 24.368 26.972 43.527 45.201 57.478c18.229 13.951 40.923 25.019 68.08 33.203c43.899 13.765 97.657 20.647 161.273 20.647c0 0 93.75 0 93.75 0c106.027 -0.372 182.477 -18.415 229.352 -54.129c42.039 -31.994 63.058 -82.589 63.058 -151.786c0 -38.69 -12.834 -73.66 -38.504 -104.91c-25.67 -31.25 -60.454 -46.875 -104.353 -46.875c-15.253 0 -43.806 2.976 -85.658 8.928c-41.853 5.952 -78.776 8.929 -110.77 8.929c-31.994 0 -68.732 -2.977 -110.212 -8.929c-41.481 -5.952 -70.22 -8.928 -86.217 -8.928c-43.899 0 -78.683 15.625 -104.353 46.875c-25.669 31.25 -38.504 66.22 -38.504 104.91c0 0 0 0 0 0m89.286 8.929c0 -14.881 2.325 -30.134 6.975 -45.759c4.65 -15.625 12.649 -29.762 23.996 -42.411c11.346 -12.649 24.832 -18.973 40.457 -18.973c15.625 0 29.111 6.324 40.458 18.973c11.347 12.649 19.345 26.786 23.995 42.411c4.651 15.625 6.976 30.878 6.976 45.759c0 14.881 -2.325 30.134 -6.976 45.759c-4.65 15.625 -12.648 29.762 -23.995 42.41c-11.347 12.649 -24.833 18.974 -40.458 18.974c-15.625 0 -29.111 -6.325 -40.457 -18.974c-11.347 -12.648 -19.346 -26.785 -23.996 -42.41c-4.65 -15.625 -6.975 -30.878 -6.975 -45.759c0 0 0 0 0 0m357.143 0c0 -14.881 2.325 -30.134 6.975 -45.759c4.65 -15.625 12.649 -29.762 23.996 -42.411c11.346 -12.649 24.832 -18.973 40.457 -18.973c15.625 0 29.111 6.324 40.458 18.973c11.346 12.649 19.345 26.786 23.995 42.411c4.651 15.625 6.976 30.878 6.976 45.759c0 14.881 -2.325 30.134 -6.976 45.759c-4.65 15.625 -12.649 29.762 -23.995 42.41c-11.347 12.649 -24.833 18.974 -40.458 18.974c-15.625 0 -29.111 -6.325 -40.457 -18.974c-11.347 -12.648 -19.346 -26.785 -23.996 -42.41c-4.65 -15.625 -6.975 -30.878 -6.975 -45.759c0 0 0 0 0 0" />
  </g>
</svg>