<svg height="1000" width="857.1" xmlns="http://www.w3.org/2000/svg"><path d="M0 767.9v-535.7q0-66.4 47.2-113.6t113.6-47.2h535.7q66.4 0 113.6 47.2t47.2 113.6v535.7q0 66.4-47.2 113.6t-113.6 47.2h-535.7q-66.4 0-113.6-47.2t-47.2-113.6zm142.8-32.4q0 33.5 20.1 54.7t46.9 28.5 59.7 7.3q125 0 125-104.3 0-26.8-14.2-43.5t-34.9-23.7-41.3-12-34.9-13.1-14.2-22q0-24.6 27.3-29 43-8.4 68.1-39.1t25.1-74.8q0-13.4-5.6-29 16.7-3.9 27.3-7.3v-69.8q-43.5 16.2-75.3 16.2-27.9-16.2-61.4-16.2-48 0-80.9 31.8t-32.9 79.8q0 27.9 16.5 56.9t41 37.4v1.7q-21.2 9.5-21.2 47.4 0 29 22.9 43v1.7q-63.1 20.6-63.1 77.6zm70.3-3.9q0-35.7 54.7-35.7 56.9 0 56.9 34 0 36.8-51.9 36.8-59.7 0-59.7-35.2zm7.3-261.1q0-50.2 43-50.2 20.1 0 30.7 14.5t10.6 35.2q0 47.4-41.3 47.4-43 0-43-46.9zm200.9-211.5q0 20.1 14 34.9t33.5 14.8 33.2-15.1 13.7-34.6q0-20.1-13.4-35.4t-33.5-15.3-33.8 15.1-13.7 35.7zm8.9 402.9h76.4q-1.1-11.2-1.1-50.2v-207.6q0-32.9 1.1-42.4h-76.4q1.7 14.5 1.7 44.1v210.4q0 30.7-1.7 45.8zm108.8-234.9q20.1-1.7 20.6-1.7 2.2 0 6.4.3t6.4.3v1.1h-1.1v121.1q0 20.6 1.4 35.7t6.4 31.5 13.7 27.1 24.3 17.3 36.8 6.7q35.7 0 60.3-13.4v-67.5q-16.7 11.7-37.9 11.7-29.6 0-29.6-45.8v-125.6h29q5 0 14.8.6t14.8.6v-65.3h-58.6q0-45.8 1.7-56.9h-78.1q2.2 13.4 2.2 30.7v26.2h-33.5v65.3z"/></svg>