<svg height="1000" width="928.6" xmlns="http://www.w3.org/2000/svg"><path d="M0 580.4q0-132.2 75.9-221-15.1-45.8-15.1-94.9 0-64.7 28.5-121.6 60.3 0 106 22t105.5 68.9q82-19.5 172.4-19.5 82.6 0 156.2 17.9 58.6-45.8 104.3-67.5t105.5-21.8q28.5 56.9 28.5 121.6 0 48.5-15.1 93.7 75.9 89.3 75.9 222.1 0 115.5-34 184.7-21.2 43-58.9 74.2t-78.7 48-94.9 26.5-95.7 12.3-93.2 2.5q-43.5 0-79.2-1.7t-82.3-7-85.1-16.7-76.4-28.7-67.5-45.2-48-64.2q-34.6-68.6-34.6-184.7zm125 98.2q0 49.1 17.9 85.7t45.2 57.5 68.1 33.5 78.1 16.5 83.1 3.9h93.7q45.8 0 83.1-3.9t78.1-16.5 68.1-33.5 45.2-57.5 17.9-85.7q0-67-38.5-113.8t-104.3-46.9q-22.9 0-108.8 11.7-39.6 6.1-87.6 6.1t-87.6-6.1q-84.8-11.7-108.8-11.7-65.8 0-104.3 46.9t-38.5 113.8zm89.3 0q0-22.3 7-45.8t24-42.4 40.5-19 40.5 19 24 42.4 7 45.8-7 45.8-24 42.4-40.5 19-40.5-19-24-42.4-7-45.8zm357.1 0q0-22.3 7-45.8t24-42.4 40.5-19 40.5 19 24 42.4 7 45.8-7 45.8-24 42.4-40.5 19-40.5-19-24-42.4-7-45.8z"/></svg>