<svg height="1000px" width="928.5714285714286px" xmlns="http://www.w3.org/2000/svg">
  <g>
    <path d="M0 580.3571428571429c0 -88.17 25.298 -161.83 75.893 -220.982c-10.045 -30.506 -15.067 -62.128 -15.067 -94.866c0 -43.155 9.486 -83.706 28.46 -121.652c40.178 0 75.521 7.347 106.026 22.042c30.506 14.695 65.663 37.668 105.469 68.918c54.688 -13.021 112.165 -19.531 172.433 -19.531c55.06 0 107.143 5.952 156.25 17.857c39.063 -30.506 73.847 -53.014 104.353 -67.523c30.506 -14.509 65.662 -21.763 105.469 -21.763c18.973 37.946 28.46 78.497 28.46 121.652c0 32.366 -5.023 63.616 -15.067 93.75c50.595 59.524 75.892 133.556 75.892 222.098c0 77.009 -11.346 138.579 -34.04 184.71c-14.137 28.646 -33.761 53.385 -58.873 74.219c-25.111 20.833 -51.339 36.83 -78.683 47.991c-27.343 11.16 -58.965 19.996 -94.866 26.506c-35.9 6.511 -67.801 10.603 -95.703 12.277c-27.902 1.674 -58.966 2.511 -93.192 2.511c-29.018 0 -55.431 -0.558 -79.241 -1.674c-23.809 -1.116 -51.246 -3.441 -82.31 -6.975c-31.064 -3.534 -59.431 -9.115 -85.1 -16.741c-25.67 -7.627 -51.154 -17.206 -76.451 -28.739c-25.298 -11.533 -47.805 -26.6 -67.523 -45.201c-19.717 -18.601 -35.714 -39.993 -47.991 -64.174c-23.065 -45.759 -34.598 -107.329 -34.598 -184.71c0 0 0 0 0 0m125 98.214c0 32.738 5.952 61.291 17.857 85.659c11.905 24.367 26.972 43.527 45.201 57.477c18.229 13.951 40.923 25.112 68.08 33.483c27.158 8.37 53.2 13.857 78.125 16.462c24.926 2.604 52.642 3.906 83.148 3.906c0 0 93.75 0 93.75 0c30.506 0 58.221 -1.302 83.147 -3.906c24.926 -2.605 50.967 -8.092 78.125 -16.462c27.158 -8.371 49.851 -19.532 68.08 -33.483c18.23 -13.95 33.297 -33.11 45.201 -57.477c11.905 -24.368 17.857 -52.921 17.857 -85.659c0 -44.643 -12.834 -82.589 -38.504 -113.839c-25.67 -31.25 -60.454 -46.875 -104.353 -46.875c-15.253 0 -51.525 3.906 -108.817 11.719c-26.413 4.092 -55.617 6.138 -87.611 6.138c-31.994 0 -61.198 -2.046 -87.612 -6.138c-56.548 -7.813 -92.82 -11.719 -108.817 -11.719c-43.899 0 -78.683 15.625 -104.353 46.875c-25.669 31.25 -38.504 69.196 -38.504 113.839c0 0 0 0 0 0m89.286 0c0 -14.881 2.325 -30.134 6.975 -45.759c4.65 -15.625 12.649 -29.762 23.996 -42.41c11.346 -12.649 24.832 -18.974 40.457 -18.974c15.625 0 29.111 6.325 40.458 18.974c11.347 12.648 19.345 26.785 23.995 42.41c4.651 15.625 6.976 30.878 6.976 45.759c0 14.881 -2.325 30.134 -6.976 45.759c-4.65 15.625 -12.648 29.762 -23.995 42.411c-11.347 12.649 -24.833 18.973 -40.458 18.973c-15.625 0 -29.111 -6.324 -40.457 -18.973c-11.347 -12.649 -19.346 -26.786 -23.996 -42.411c-4.65 -15.625 -6.975 -30.878 -6.975 -45.759c0 0 0 0 0 0m357.143 0c0 -14.881 2.325 -30.134 6.975 -45.759c4.65 -15.625 12.649 -29.762 23.996 -42.41c11.346 -12.649 24.832 -18.974 40.457 -18.974c15.625 0 29.111 6.325 40.458 18.974c11.346 12.648 19.345 26.785 23.995 42.41c4.651 15.625 6.976 30.878 6.976 45.759c0 14.881 -2.325 30.134 -6.976 45.759c-4.65 15.625 -12.649 29.762 -23.995 42.411c-11.347 12.649 -24.833 18.973 -40.458 18.973c-15.625 0 -29.111 -6.324 -40.457 -18.973c-11.347 -12.649 -19.346 -26.786 -23.996 -42.411c-4.65 -15.625 -6.975 -30.878 -6.975 -45.759c0 0 0 0 0 0" />
  </g>
</svg>