<svg height="1000px" width="928.5714285714286px" xmlns="http://www.w3.org/2000/svg">
  <g>
    <path d="M852.6785714285714 358.2589285714285c50.595 59.524 75.893 130.673 75.893 213.449c0 82.775 -11.347 147.228 -34.04 193.359c-14.137 28.646 -33.761 53.385 -58.873 74.219c-25.112 20.833 -51.339 36.83 -78.683 47.991c-27.716 11.161 -59.431 20.089 -95.145 26.786c-54.316 9.672 -106.585 14.509 -156.808 14.509c-50.223 0 -87.24 -0.559 -111.049 -1.675c-23.81 -1.116 -51.247 -3.441 -82.311 -6.975c-31.064 -3.534 -59.43 -9.115 -85.1 -16.741c-25.67 -7.627 -51.153 -17.206 -76.451 -28.739c-52.083 -23.809 -90.123 -59.431 -114.118 -106.864c-23.996 -47.433 -35.994 -112.537 -35.994 -195.312c0 -82.776 25.298 -153.739 75.893 -212.891c-10.044 -30.506 -15.067 -64.732 -15.067 -102.678c0 -37.947 9.487 -75.893 28.46 -113.84c40.179 0 75.521 7.348 106.027 22.043c30.506 14.695 65.662 37.667 105.469 68.917c54.687 -13.021 110.863 -19.531 168.526 -19.531c57.664 0 111.05 5.952 160.157 17.857c39.062 -30.506 73.846 -53.013 104.352 -67.522c30.506 -14.509 65.663 -21.764 105.469 -21.764c18.973 37.947 28.46 75.8 28.46 113.56c0 37.761 -5.022 71.708 -15.067 101.842c0 0 0 0 0 0m-49.107 311.384c0 -38.691 -12.835 -73.661 -38.505 -104.911c-25.669 -31.25 -60.453 -46.875 -104.352 -46.875c-15.253 0 -43.806 2.976 -85.659 8.929c-41.852 5.952 -78.776 8.928 -110.77 8.928c-31.994 0 -68.731 -2.976 -110.212 -8.928c-41.481 -5.953 -70.219 -8.929 -86.216 -8.929c-43.899 0 -78.683 15.625 -104.353 46.875c-25.67 31.25 -38.505 66.22 -38.505 104.911c0 38.69 5.953 70.219 17.858 94.587c11.904 24.368 26.971 43.527 45.2 57.478c18.23 13.951 40.923 25.018 68.081 33.203c43.899 13.765 97.656 20.647 161.272 20.647c0 0 93.75 0 93.75 0c106.027 -0.372 182.478 -18.415 229.353 -54.129c42.039 -31.994 63.058 -82.59 63.058 -151.786c0 0 0 0 0 0m-89.286 8.929c0 14.88 -2.325 30.133 -6.975 45.758c-4.651 15.625 -12.649 29.762 -23.996 42.411c-11.347 12.649 -24.832 18.973 -40.457 18.973c-15.625 0 -29.111 -6.324 -40.458 -18.973c-11.347 -12.649 -19.345 -26.786 -23.996 -42.411c-4.65 -15.625 -6.975 -30.878 -6.975 -45.758c0 -14.881 2.325 -30.134 6.975 -45.759c4.651 -15.625 12.649 -29.762 23.996 -42.411c11.347 -12.649 24.833 -18.973 40.458 -18.973c15.625 0 29.11 6.324 40.457 18.973c11.347 12.649 19.345 26.786 23.996 42.411c4.65 15.625 6.975 30.878 6.975 45.759c0 0 0 0 0 0m-357.143 0c0 14.88 -2.325 30.133 -6.975 45.758c-4.65 15.625 -12.649 29.762 -23.996 42.411c-11.346 12.649 -24.832 18.973 -40.457 18.973c-15.625 0 -29.111 -6.324 -40.458 -18.973c-11.347 -12.649 -19.345 -26.786 -23.995 -42.411c-4.651 -15.625 -6.976 -30.878 -6.976 -45.758c0 -14.881 2.325 -30.134 6.976 -45.759c4.65 -15.625 12.648 -29.762 23.995 -42.411c11.347 -12.649 24.833 -18.973 40.458 -18.973c15.625 0 29.111 6.324 40.457 18.973c11.347 12.649 19.346 26.786 23.996 42.411c4.65 15.625 6.975 30.878 6.975 45.759c0 0 0 0 0 0" />
  </g>
</svg>