<svg height="1000" width="928.571" xmlns="http://www.w3.org/2000/svg"><path d="M357.12 678.592q0 22.32 -6.975 45.756t-23.994 42.408 -40.455 18.972 -40.455 -18.972 -23.994 -42.408 -6.975 -45.756 6.975 -45.756 23.994 -42.408 40.455 -18.972 40.455 18.972 23.994 42.408 6.975 45.756zm357.12 0q0 22.32 -6.975 45.756t-23.994 42.408 -40.455 18.972 -40.455 -18.972 -23.994 -42.408 -6.975 -45.756 6.975 -45.756 23.994 -42.408 40.455 -18.972 40.455 18.972 23.994 42.408 6.975 45.756zm89.28 0q0 -66.96 -38.502 -113.832t-104.346 -46.872q-22.878 0 -108.81 11.718 -39.618 6.138 -87.606 6.138t-87.606 -6.138q-84.816 -11.718 -108.81 -11.718 -65.844 0 -104.346 46.872t-38.502 113.832q0 49.104 17.856 85.653t45.198 57.474 68.076 33.48 78.12 16.461 83.142 3.906h93.744q45.756 0 83.142 -3.906t78.12 -16.461 68.076 -33.48 45.198 -57.474 17.856 -85.653zm124.992 -98.208q0 115.506 -34.038 184.698 -21.204 42.966 -58.869 74.214t-78.678 47.988 -94.86 26.505 -95.697 12.276 -93.186 2.511q-43.524 0 -79.236 -1.674t-82.305 -6.975 -85.095 -16.74 -76.446 -28.737 -67.518 -45.198 -47.988 -64.17q-34.596 -68.634 -34.596 -184.698 0 -132.246 75.888 -220.968 -15.066 -45.756 -15.066 -94.86 0 -64.728 28.458 -121.644 60.264 0 106.02 22.041t105.462 68.913q82.026 -19.53 172.422 -19.53 82.584 0 156.24 17.856 58.59 -45.756 104.346 -67.518t105.462 -21.762q28.458 56.916 28.458 121.644 0 48.546 -15.066 93.744 75.888 89.28 75.888 222.084z"/></svg>