<svg height="1000" width="857.1" xmlns="http://www.w3.org/2000/svg"><path d="M289.6 669.6q2.3 -3.3 -1.7 -7.2 -5 -3.9 -7.8 -1.1 -2.2 3.3 1.7 7.2 5 3.9 7.8 1.1zM274 646.8q-2.8 -3.9 -6.7 -2.3 -3.3 2.3 0 6.7 3.9 4.5 6.7 2.8 3.3 -2.2 0 -7.2zm-22.9 -22.4q1.1 -2.2 -2.8 -4.4 -3.9 -1.1 -4.4 1.1 -1.7 2.8 2.2 4.5 4.5 1.1 5 -1.2zm11.7 12.9q1.2 -.6 .9 -2.5t-2 -3.1q-3.3 -3.9 -5.6 -1.7t.6 6.2q3.3 3.3 6.1 1.1zm48 41.8q1.1 -3.9 -5 -6.1 -5 -1.7 -7.3 2.2 -1.1 3.9 5.1 6.2 5 1.6 7.2 -2.3zm23.5 1.7q0 -4.5 -6.7 -4.5 -5.6 0 -5.6 4.5t6.1 4.5 6.2 -4.5zm21.7 -3.9q-1.1 -3.9 -7.2 -2.8t-5 5q1.1 4.5 6.6 3.4t5.6 -5.6zM714.3 500q0 -118.3 -83.7 -202t-202 -83.7 -202 83.7 -83.7 202q0 93.2 54.6 167.7t140.7 103.5q10 1.7 14.8 -2.8t4.7 -11.1q0 -29.1 -.6 -53.1 -3.3 .6 -8.6 1.4t-19.8 1.2 -26.8 -2.3 -24.3 -11.1 -16.4 -23.2q-12.9 -32.9 -31.8 -41.3 -1.2 -.6 -2.6 -1.9l-4.4 -4.5t-3.9 -5.3 2.2 -4.2 10.9 -2q3.3 0 8.4 1.2t16.7 8.6 18.4 19.8q8.9 15.6 20.9 23.5t24.3 7.8 21.2 -2 16.8 -5.3q3.9 -26.2 18.4 -38.5 -27.4 -3.3 -48 -10.3T287.9 594 257 551.6t-10.9 -66.7q0 -44.1 29.6 -76.4 -13.4 -34.6 2.8 -75.9 10.6 -3.4 30.4 4.2t33.7 16.4l14.5 9q32.4 -9.5 71.5 -9.5t71.4 9.5q6.1 -3.9 15.9 -10.1t31 -14.5 31.8 -5q16.2 41.3 2.8 75.9 29.5 32.3 29.5 76.4 0 31.8 -7.8 56.1t-19.8 39.1 -29.8 24.8 -34.9 14.5 -38.2 6.7q19.5 17.3 19.5 53 0 22.4 -.3 49.7t-.3 28.5q0 6.7 4.8 11.1t14.8 2.8q85.9 -29 140.6 -103.5T714.3 500zM857.1 232.1v535.8q0 66.4 -47.1 113.5t-113.6 47.2H160.7q-66.4 0 -113.5 -47.2T0 767.9V232.1Q0 165.7 47.2 118.6T160.7 71.4h535.7q66.4 0 113.6 47.2t47.1 113.5z"/></svg>