<svg height="1000" width="857.143" xmlns="http://www.w3.org/2000/svg"><path d="M857.088 500.032q0 140.058 -81.747 251.937t-211.203 154.845q-15.066 2.79 -22.041 -3.906t-6.975 -16.74v-117.738q0 -54.126 -29.016 -79.236 31.806 -3.348 57.195 -10.044t52.452 -21.762 45.198 -37.107 29.574 -58.59 11.439 -83.979q0 -67.518 -44.082 -114.948 20.646 -50.778 -4.464 -113.832 -15.624 -5.022 -45.198 6.138t-51.336 24.552l-21.204 13.392q-51.894 -14.508 -107.136 -14.508t-107.136 14.508q-8.928 -6.138 -23.715 -15.066t-46.593 -21.483 -47.988 -7.533q-24.552 63.054 -3.906 113.832 -44.082 47.43 -44.082 114.948 0 47.43 11.439 83.7t29.295 58.59 44.919 37.386 52.452 21.762 57.195 10.044q-22.32 20.088 -27.342 57.474 -11.718 5.58 -25.11 8.37t-31.806 2.79 -36.549 -11.997 -30.969 -34.875q-10.602 -17.856 -27.063 -29.016t-27.621 -13.392l-11.16 -1.674q-11.718 0 -16.182 2.511t-2.79 6.417 5.022 7.812 7.254 6.696l3.906 2.79q12.276 5.58 24.273 21.204t17.577 28.458l5.58 12.834q7.254 21.204 24.552 34.317t37.386 16.74 38.781 3.906 30.969 -1.953l12.834 -2.232q0 21.204 .279 49.662t.279 30.132q0 10.044 -7.254 16.74t-22.32 3.906q-129.456 -42.966 -211.203 -154.845t-81.747 -251.937q0 -116.622 57.474 -215.109t155.961 -155.961 215.109 -57.474 215.109 57.474 155.961 155.961 57.474 215.109z"/></svg>