<svg height="1000" width="928.6" xmlns="http://www.w3.org/2000/svg"><path d="M357.1 678.6q0 22.3 -6.9 45.7t-24 42.4 -40.5 19 -40.4 -19 -24 -42.4 -7 -45.7 7 -45.8 24 -42.4 40.4 -19 40.5 19 24 42.4 6.9 45.8zm357.2 0q0 22.3 -7 45.7t-24 42.4 -40.4 19 -40.5 -19 -24 -42.4 -7 -45.7 7 -45.8 24 -42.4 40.5 -19 40.4 19 24 42.4 7 45.8zm89.3 0q0 -67 -38.5 -113.9T660.7 517.9q-22.9 0 -108.8 11.7 -39.6 6.1 -87.6 6.1t-87.6 -6.1Q291.9 517.9 267.9 517.9q-65.9 0 -104.4 46.8T125 678.6q0 49.1 17.9 85.6t45.2 57.5 68 33.5 78.2 16.5 83.1 3.9h93.8q45.7 0 83.1 -3.9t78.1 -16.5 68.1 -33.5 45.2 -57.5 17.9 -85.6zm125 -98.2q0 115.5 -34.1 184.7 -21.2 42.9 -58.8 74.2t-78.7 48 -94.9 26.5 -95.7 12.3 -93.2 2.5q-43.5 0 -79.2 -1.7t-82.3 -7 -85.1 -16.7 -76.5 -28.8T82.6 829.2t-48 -64.1Q0 696.4 0 580.4q0 -132.3 75.9 -221Q60.8 313.6 60.8 264.5q0 -64.7 28.5 -121.6 60.3 0 106 22t105.5 68.9q82 -19.5 172.4 -19.5 82.6 0 156.3 17.8 58.6 -45.7 104.3 -67.5t105.5 -21.7q28.4 56.9 28.4 121.6 0 48.6 -15 93.8 75.9 89.2 75.9 222.1z"/></svg>