<svg height="1000px" width="857.1428571428571px" xmlns="http://www.w3.org/2000/svg">
  <g>
    <path d="M857.1428571428571 232.1428571428571c0 0 0 535.714 0 535.714c0 44.271 -15.718 82.125 -47.154 113.561c-31.436 31.436 -69.289 47.154 -113.56 47.154c0 0 -535.715 0 -535.715 0c-44.27 0 -82.124 -15.718 -113.56 -47.154c-31.436 -31.436 -47.154 -69.29 -47.154 -113.561c0 0 0 -535.714 0 -535.714c0 -44.271 15.718 -82.124 47.154 -113.56c31.436 -31.436 69.29 -47.154 113.56 -47.154c0 0 535.715 0 535.715 0c44.271 0 82.124 15.718 113.56 47.154c31.436 31.436 47.154 69.289 47.154 113.56c0 0 0 0 0 0m-355.19 61.384c9.115 -10.045 13.672 -21.67 13.672 -34.877c0 -13.207 -4.464 -24.926 -13.393 -35.157c-8.928 -10.23 -20.089 -15.346 -33.482 -15.346c-13.393 0 -24.646 5.023 -33.761 15.067c-9.115 10.045 -13.672 21.857 -13.672 35.436c0 13.579 4.65 25.297 13.951 35.156c9.301 9.859 20.461 14.788 33.482 14.788c13.021 0 24.089 -5.022 33.203 -15.067c0 0 0 0 0 0m57.757 131.696c0 0 12.835 0.558 12.835 0.558c0 0 0 1.116 0 1.116c0 0 -1.116 0 -1.116 0c0 0 0 121.094 0 121.094c0 45.387 7.068 76.823 21.205 94.308c13.021 15.997 32.459 23.996 58.315 23.996c25.855 0 46.968 -4.464 63.337 -13.393c0 0 0 -67.522 0 -67.522c-11.161 7.812 -23.81 11.718 -37.947 11.718c-19.717 0 -29.575 -15.253 -29.575 -45.759c0 0 0 -125.558 0 -125.558c0 0 29.017 0 29.017 0c0 0 29.576 1.116 29.576 1.116c0 0 0 -65.29 0 -65.29c0 0 -58.593 0 -58.593 0c0 -30.506 0.558 -49.479 1.674 -56.919c0 0 -78.125 0 -78.125 0c1.488 8.928 2.232 19.159 2.232 30.692c0 0 0 26.227 0 26.227c0 0 -33.482 0 -33.482 0c0 0 0 65.29 0 65.29c13.392 -1.116 20.275 -1.674 20.647 -1.674c0 0 0 0 0 0m-129.464 236.608c0 0 76.451 0 76.451 0c-0.744 -7.441 -1.117 -24.182 -1.117 -50.224c0 0 0 -207.589 0 -207.589c0 -21.949 0.373 -36.086 1.117 -42.411c0 0 -76.451 0 -76.451 0c1.116 9.673 1.674 24.368 1.674 44.085c0 0 0 210.38 0 210.38c0 20.461 -0.558 35.714 -1.674 45.759c0 0 0 0 0 0m-32.924 -233.817c0 0 0 -69.755 0 -69.755c-29.018 10.789 -54.13 16.183 -75.335 16.183c-18.601 -10.789 -41.481 -16.183 -68.639 -16.183c-27.157 0 -51.711 10.603 -73.66 31.808c-21.95 21.205 -32.924 47.805 -32.924 79.799c0 18.601 5.487 37.575 16.462 56.92c10.974 19.345 24.646 31.808 41.015 37.388c0 0 0 1.674 0 1.674c-14.137 6.325 -21.205 20.648 -21.205 42.969c0 22.322 7.626 38.133 22.879 47.433c0 0 0 1.674 0 1.674c-42.038 13.765 -63.058 39.621 -63.058 77.567c0 22.322 6.697 40.551 20.09 54.688c22.693 23.809 58.221 35.714 106.584 35.714c83.334 0 125 -34.784 125 -104.353c0 -17.857 -4.743 -32.366 -14.23 -43.526c-9.486 -11.161 -21.112 -19.067 -34.877 -23.717c-13.765 -4.65 -27.53 -8.65 -41.294 -11.998c-32.738 -7.812 -49.108 -19.717 -49.108 -35.714c0 -15.997 9.115 -25.484 27.344 -28.46c28.646 -5.58 51.339 -18.601 68.081 -39.062c16.741 -20.462 25.111 -45.387 25.111 -74.777c0 -8.929 -1.86 -18.601 -5.58 -29.018c11.161 -2.604 20.275 -5.022 27.344 -7.254c0 0 0 0 0 0m-92.634 41.852c0 31.622 -14.044 47.433 -42.132 47.433c-28.088 0 -42.132 -16.183 -42.132 -48.549c0 -32.366 14.323 -48.549 42.969 -48.549c13.393 0 23.624 4.836 30.692 14.509c7.068 9.673 10.603 21.391 10.603 35.156c0 0 0 0 0 0m20.089 260.045c0 24.553 -18.601 36.83 -55.804 36.83c-37.202 0 -55.803 -11.812 -55.803 -35.435c0 -23.624 18.601 -35.435 55.803 -35.435c37.203 0 55.804 11.346 55.804 34.04c0 0 0 0 0 0" />
  </g>
</svg>