<svg height="1000" width="857.143" xmlns="http://www.w3.org/2000/svg"><path d="M219.852 754.48q-4.464 5.022 -11.16 -1.674 -7.254 -6.138 -2.232 -10.602 4.464 -5.022 11.16 1.674 6.696 6.138 2.232 10.602zm-23.436 -34.038q5.022 6.696 0 10.602 -4.464 3.348 -9.486 -3.906t0 -10.044q5.022 -3.906 9.486 3.348zm-34.038 -33.48q-2.79 3.906 -7.254 1.116 -5.58 -2.79 -3.906 -6.696 1.674 -2.79 7.254 -1.116 5.58 2.79 3.906 6.696zm17.298 18.972q-3.348 3.906 -8.928 -1.674 -5.022 -6.138 -1.116 -8.928 3.348 -3.348 8.928 1.674 5.022 6.138 1.116 8.928zm71.982 62.496q-2.232 6.696 -10.602 3.348 -9.486 -2.232 -7.254 -8.37t10.602 -3.906q8.928 2.79 7.254 8.928zm35.154 2.79q0 6.138 -8.928 6.138 -9.486 1.116 -9.486 -6.138 0 -6.138 8.928 -6.138 9.486 -1.116 9.486 6.138zm32.364 -5.58q1.116 5.58 -7.812 7.812t-10.044 -4.464 7.812 -8.37q8.928 -1.116 10.044 5.022zm537.912 -533.448v535.68q0 66.402 -47.151 113.553t-113.553 47.151h-124.992q-8.928 0 -13.671 -.558t-10.881 -2.79 -8.928 -8.091 -2.79 -15.345v-133.362q0 -54.126 -29.016 -79.236 31.806 -3.348 57.195 -10.044t52.452 -21.762 45.198 -37.107 29.574 -58.59 11.439 -83.979q0 -67.518 -44.082 -114.948 20.646 -50.778 -4.464 -113.832 -15.624 -5.022 -45.198 6.138t-51.336 24.552l-21.204 13.392q-51.894 -14.508 -107.136 -14.508t-107.136 14.508q-8.928 -6.138 -23.715 -15.066t-46.593 -21.483 -47.988 -7.533q-24.552 63.054 -3.906 113.832 -44.082 47.43 -44.082 114.948 0 47.43 11.439 83.7t29.295 58.59 44.919 37.386 52.452 21.762 57.195 10.044q-22.32 20.088 -27.342 57.474 -11.718 5.58 -25.11 8.37t-31.806 2.79 -36.549 -11.997 -30.969 -34.875q-10.602 -17.856 -27.063 -29.016t-27.621 -13.392l-11.16 -1.674q-11.718 0 -16.182 2.511t-2.79 6.417 5.022 7.812 7.254 6.696l3.906 2.79q12.276 5.58 24.273 21.204t17.577 28.458l5.58 12.834q7.254 21.204 24.552 34.317t37.386 16.74 38.781 3.906 30.969 -1.953l12.834 -2.232q0 21.204 .279 57.474t.279 37.944q0 12.276 -6.138 18.693t-12.276 7.254 -18.414 .837h-124.992q-66.402 0 -113.553 -47.151t-47.151 -113.553v-535.68q0 -66.402 47.151 -113.553t113.553 -47.151h535.68q66.402 0 113.553 47.151t47.151 113.553z"/></svg>