<svg height="1000" width="858" xmlns="http://www.w3.org/2000/svg"><path d="M0 767.872l0-535.68q0-66.402 47.151-113.553t113.553-47.151l535.68 0q66.402 0 113.553 47.151t47.151 113.553l0 535.68q0 66.402-47.151 113.553t-113.553 47.151l-535.68 0q-66.402 0-113.553-47.151t-47.151-113.553zm142.848-32.364q0 33.48 20.088 54.684t46.872 28.458 59.706 7.254q124.992 0 124.992-104.346 0-26.784-14.229-43.524t-34.875-23.715-41.292-11.997-34.875-13.113-14.229-22.041q0-24.552 27.342-29.016 42.966-8.37 68.076-39.06t25.11-74.772q0-13.392-5.58-29.016 16.74-3.906 27.342-7.254l0-69.75q-43.524 16.182-75.33 16.182-27.9-16.182-61.38-16.182-47.988 0-80.91 31.806t-32.922 79.794q0 27.9 16.461 56.916t41.013 37.386l0 1.674q-21.204 9.486-21.204 47.43 0 29.016 22.878 42.966l0 1.674q-63.054 20.646-63.054 77.562zm70.308-3.906q0-35.712 54.684-35.712 56.916 0 56.916 34.038 0 36.828-51.894 36.828-59.706 0-59.706-35.154zm7.254-261.144q0-50.22 42.966-50.22 20.088 0 30.69 14.508t10.602 35.154q0 47.43-41.292 47.43-42.966 0-42.966-46.872zm200.88-211.482q0 20.088 13.95 34.875t33.48 14.787 33.201-15.066 13.671-34.596q0-20.088-13.392-35.433t-33.48-15.345-33.759 15.066-13.671 35.712zm8.928 402.876l76.446 0q-1.116-11.16-1.116-50.22l0-207.576q0-32.922 1.116-42.408l-76.446 0q1.674 14.508 1.674 44.082l0 210.366q0 30.69-1.674 45.756zm108.81-234.918q20.088-1.674 20.646-1.674 2.232 0 6.417.279t6.417.279l0 1.116l-1.116 0l0 121.086q0 20.646 1.395 35.712t6.417 31.527 13.671 27.063 24.273 17.298 36.828 6.696q35.712 0 60.264-13.392l0-67.518q-16.74 11.718-37.944 11.718-29.574 0-29.574-45.756l0-125.55l29.016 0q5.022 0 14.787.558t14.787.558l0-65.286l-58.59 0q0-45.756 1.674-56.916l-78.12 0q2.232 13.392 2.232 30.69l0 26.226l-33.48 0l0 65.286z"/></svg>