<svg height="1000px" width="857.1428571428571px" xmlns="http://www.w3.org/2000/svg">
  <g>
    <path d="M0 499.99999999999994c0 -77.753 19.159 -149.461 57.478 -215.123c38.318 -65.662 90.308 -117.652 155.971 -155.971c65.662 -38.318 137.369 -57.477 215.122 -57.477c77.753 0 149.461 19.159 215.123 57.477c65.662 38.319 117.653 90.309 155.971 155.971c38.319 65.662 57.478 137.37 57.478 215.123c0 77.753 -19.159 149.461 -57.478 215.123c-38.318 65.662 -90.309 117.652 -155.971 155.971c-65.662 38.318 -137.37 57.477 -215.123 57.477c-77.753 0 -149.46 -19.159 -215.122 -57.477c-65.663 -38.319 -117.653 -90.309 -155.971 -155.971c-38.319 -65.662 -57.478 -137.37 -57.478 -215.123c0 0 0 0 0 0m71.429 0c0 77.753 23.158 148.158 69.475 211.217c46.317 63.058 106.492 106.119 180.525 129.185c0 0 0 -94.308 0 -94.308c-20.09 2.604 -32.925 3.906 -38.505 3.906c-40.923 0 -69.382 -18.601 -85.379 -55.804c-5.581 -14.136 -12.277 -25.855 -20.09 -35.156c-1.86 -2.232 -5.766 -5.766 -11.718 -10.603c-5.953 -4.836 -11.254 -9.3 -15.904 -13.392c-4.651 -4.093 -6.976 -7.069 -6.976 -8.929c0 -4.464 5.208 -6.696 15.625 -6.696c10.789 0 20.368 2.697 28.739 8.091c8.371 5.395 15.439 11.905 21.205 19.531c5.767 7.627 11.626 15.346 17.578 23.159c5.953 7.812 13.486 14.416 22.601 19.81c9.114 5.395 19.624 8.092 31.529 8.092c15.625 0 30.692 -2.604 45.201 -7.813c5.952 -21.205 17.671 -37.76 35.156 -49.665c-61.756 -5.952 -107.515 -21.484 -137.277 -46.596c-29.762 -25.112 -44.643 -66.871 -44.643 -125.279c0 -43.899 13.579 -80.729 40.737 -110.491c-5.208 -15.625 -7.812 -31.25 -7.812 -46.875c0 -21.577 5.022 -41.853 15.066 -60.826c21.206 0 39.993 3.627 56.362 10.882c16.369 7.254 35.156 18.508 56.362 33.761c28.274 -6.697 59.71 -10.045 94.308 -10.045c29.762 0 58.221 2.976 85.379 8.929c21.206 -14.881 39.9 -25.856 56.083 -32.924c16.183 -7.069 34.691 -10.603 55.524 -10.603c10.045 18.973 15.067 39.249 15.067 60.826c0 15.997 -2.604 31.436 -7.812 46.317c27.158 30.506 40.736 67.522 40.736 111.049c0 58.408 -14.881 100.353 -44.642 125.837c-29.762 25.484 -75.335 41.016 -136.719 46.596c25.669 17.485 38.504 41.853 38.504 73.103c0 0 0 126.116 0 126.116c74.033 -23.066 134.208 -66.127 180.525 -129.185c46.317 -63.059 69.475 -133.464 69.475 -211.217c0 -48.363 -9.486 -94.587 -28.46 -138.672c-18.973 -44.085 -44.363 -82.031 -76.171 -113.839c-31.808 -31.808 -69.755 -57.199 -113.84 -76.172c-44.085 -18.973 -90.308 -28.46 -138.672 -28.46c-48.363 0 -94.587 9.487 -138.671 28.46c-44.085 18.973 -82.032 44.364 -113.84 76.172c-31.808 31.808 -57.198 69.754 -76.172 113.839c-18.973 44.085 -28.459 90.309 -28.459 138.672c0 0 0 0 0 0" />
  </g>
</svg>