<svg height="1000" width="857.1" xmlns="http://www.w3.org/2000/svg"><path d="M0 500q0-116.6 57.5-215.1t156-156 215.1-57.5 215.1 57.5 156 156 57.5 215.1-57.5 215.1-156 156-215.1 57.5-215.1-57.5-156-156-57.5-215.1zm71.4 0q0 116.6 69.5 211.2t180.5 129.2v-94.3q-30.1 3.9-38.5 3.9-61.4 0-85.4-55.8-8.4-21.2-20.1-35.2-2.8-3.3-11.7-10.6t-15.9-13.4-7-8.9q0-6.7 15.6-6.7 16.2 0 28.7 8.1t21.2 19.5 17.6 23.2 22.6 19.8 31.5 8.1q23.4 0 45.2-7.8 8.9-31.8 35.2-49.7-92.6-8.9-137.3-46.6t-44.6-125.3q0-65.8 40.7-110.5-7.8-23.4-7.8-46.9 0-32.4 15.1-60.8 31.8 0 56.4 10.9t56.4 33.8q42.4-10 94.3-10 44.6 0 85.4 8.9 31.8-22.3 56.1-32.9t55.5-10.6q15.1 28.5 15.1 60.8 0 24-7.8 46.3 40.7 45.8 40.7 111 0 87.6-44.6 125.8t-136.7 46.6q38.5 26.2 38.5 73.1v126.1q111-34.6 180.5-129.2t69.5-211.2q0-72.5-28.5-138.7t-76.2-113.8-113.8-76.2-138.7-28.5-138.7 28.5-113.8 76.2-76.2 113.8-28.5 138.7z"/></svg>