<svg height="1000" width="857.1" xmlns="http://www.w3.org/2000/svg"><path d="M428.6 71.4q116.6 0 215.1 57.5t156 156T857.1 500q0 140.1 -81.7 252T564.2 906.8q-15.1 2.8 -22.3 -3.9t-7.3 -16.7q0 -1.7 .3 -42.7t.3 -75.1q0 -54.1 -29.1 -79.2 31.8 -3.4 57.2 -10.1t52.5 -21.7T661 620.3t29.6 -58.6 11.4 -84q0 -66.4 -44.1 -115 20.7 -50.8 -4.4 -113.8 -15.7 -5 -45.2 6.1t-51.4 24.6L535.7 293Q483.8 278.5 428.6 278.5T321.4 293q-8.9 -6.2 -23.7 -15.1t-46.6 -21.5 -47.4 -7.5q-25.1 63 -4.5 113.8 -44.1 48.6 -44.1 115 0 47.4 11.5 83.7t29.3 58.6 44.9 37.4 52.4 21.7 57.2 10.1q-21.7 20.1 -27.3 57.5 -11.7 5.5 -25.1 8.3t-31.8 2.8 -36.6 -12 -30.9 -34.9q-10.6 -17.8 -27.1 -29T144 668.5l-11.2 -1.6q-11.7 0 -16.2 2.5t-2.8 6.4 5.1 7.8 7.2 6.7l3.9 2.8q12.3 5.6 24.3 21.2t17.6 28.4l5.6 12.9q7.2 21.2 24.5 34.3t37.4 16.7 38.8 3.9 31 -1.9l12.8 -2.2q0 21.2 .3 49.3t.2 30.5q0 10 -7.2 16.7t-22.3 3.9Q163.5 863.8 81.8 752T0 500Q0 383.4 57.5 284.9t155.9 -156T428.6 71.4zM162.4 686.9q1.7 -3.9 -3.9 -6.7 -5.6 -1.6 -7.3 1.2 -1.6 3.9 3.9 6.7 5.1 3.3 7.3 -1.2zm17.3 19q3.9 -2.8 -1.1 -8.9 -5.6 -5 -9 -1.7 -3.9 2.8 1.2 8.9 5.5 5.6 8.9 1.7zm16.7 25.1q5.1 -3.9 0 -10.6 -4.4 -7.2 -9.5 -3.3 -5 2.8 0 10t9.5 3.9zm23.5 23.5q4.4 -4.5 -2.3 -10.6 -6.7 -6.7 -11.1 -1.7 -5 4.5 2.2 10.6 6.7 6.7 11.2 1.7zm31.8 13.9q1.6 -6.1 -7.3 -8.9 -8.4 -2.2 -10.6 3.9t7.3 8.4q8.3 3.3 10.6 -3.4zm35.1 2.8q0 -7.2 -9.5 -6.1 -8.9 0 -8.9 6.1 0 7.3 9.5 6.1 8.9 0 8.9 -6.1zm32.4 -5.6q-1.1 -6.1 -10 -5 -9 1.7 -7.9 8.4t10.1 4.4 7.8 -7.8z"/></svg>