<svg height="1000px" width="750px" xmlns="http://www.w3.org/2000/svg">
  <g>
    <path d="M0 780.76171875c0 0 0 -561.523 0 -561.523c0 -12.696 2.523 -24.903 7.568 -36.622c5.046 -11.718 11.719 -21.728 20.02 -30.029c8.301 -8.301 18.148 -14.974 29.541 -20.019c11.393 -5.046 23.763 -7.569 37.109 -7.569c0 0 561.524 0 561.524 0c26.041 0 48.258 9.196 66.65 27.588c18.392 18.392 27.588 40.609 27.588 66.651c0 0 0 561.523 0 561.523c0 13.346 -2.523 25.716 -7.568 37.109c-5.046 11.394 -11.719 21.241 -20.02 29.541c-8.301 8.301 -18.31 14.974 -30.029 20.02c-11.719 5.045 -23.926 7.568 -36.621 7.568c0 0 -164.551 0 -164.551 0c0 0 0 -12.207 0 -12.207c0 -12.695 0.325 -28.483 0.977 -47.363c0.651 -18.88 0.081 -37.679 -1.709 -56.397c-1.791 -18.717 -5.778 -35.725 -11.963 -51.025c-6.185 -15.299 -16.765 -26.042 -31.739 -32.226c61.198 -6.511 108.399 -24.415 141.602 -53.711c33.203 -29.297 49.805 -76.01 49.805 -140.137c0 -21.485 -3.663 -42.318 -10.987 -62.5c-7.324 -20.182 -18.31 -38.737 -32.959 -55.664c1.953 -7.487 3.255 -14.811 3.907 -21.973c0.651 -7.161 0.976 -14.486 0.976 -21.973c0 -13.346 -1.546 -28.157 -4.639 -44.433c-3.092 -16.276 -8.219 -30.111 -15.38 -41.504c0 0 -5.86 0 -5.86 0c-13.997 -0.651 -26.855 0.732 -38.574 4.15c-11.719 3.418 -22.786 7.894 -33.203 13.428c-10.417 5.534 -20.589 11.637 -30.518 18.311c-9.928 6.673 -20.589 13.102 -31.982 19.287c-10.742 -1.302 -21.403 -2.279 -31.983 -2.93c-10.579 -0.651 -21.24 -0.976 -31.982 -0.976c-10.742 0 -21.403 0.325 -31.982 0.976c-10.58 0.651 -21.241 1.628 -31.983 2.93c-11.393 -5.86 -22.054 -12.207 -31.982 -19.043c-9.929 -6.836 -20.101 -13.021 -30.518 -18.555c-10.417 -5.534 -21.403 -10.01 -32.959 -13.428c-11.556 -3.418 -24.495 -4.801 -38.818 -4.15c0 0 -5.86 0 -5.86 0c-7.487 11.393 -12.695 25.228 -15.625 41.504c-2.929 16.276 -4.394 31.087 -4.394 44.433c0 7.487 0.325 14.893 0.976 22.217c0.652 7.325 1.954 14.567 3.907 21.729c-14.649 16.601 -25.472 35.156 -32.471 55.664c-6.999 20.508 -10.498 41.341 -10.498 62.5c0 62.825 15.544 108.887 46.631 138.183c31.087 29.297 76.904 47.527 137.451 54.688c-12.695 5.208 -22.38 13.346 -29.053 24.414c-6.673 11.068 -11.963 23.275 -15.869 36.621c-8.789 2.604 -16.846 5.127 -24.17 7.568c-7.324 2.442 -15.543 3.663 -24.658 3.663c-17.904 0 -32.227 -4.639 -42.969 -13.916c-10.742 -9.278 -20.426 -19.45 -29.052 -30.518c-8.627 -11.068 -17.823 -21.24 -27.588 -30.518c-9.766 -9.277 -22.624 -13.916 -38.575 -13.916c-1.302 0 -4.638 0.326 -10.009 0.977c-5.371 0.651 -8.057 2.604 -8.057 5.859c0 7.487 3.174 12.696 9.521 15.625c6.348 2.93 11.475 6.022 15.381 9.278c12.696 10.091 21.892 21.647 27.588 34.668c5.697 13.02 12.045 25.472 19.043 37.353c6.999 11.882 17.171 22.054 30.518 30.518c13.346 8.463 34.017 12.695 62.012 12.695c11.393 0 24.414 -1.79 39.062 -5.371c0 3.255 -0.163 6.266 -0.488 9.033c-0.326 2.767 -0.489 5.453 -0.489 8.057c0 9.44 0.326 19.124 0.977 29.053c0.651 9.928 0.326 19.612 -0.977 29.052c0 0 -154.785 0 -154.785 0c-26.041 0 -48.258 -9.196 -66.65 -27.588c-18.392 -18.392 -27.588 -40.608 -27.588 -66.65c0 0 0 0 0 0" />
  </g>
</svg>