<svg height="1000px" width="857.1428571428571px" xmlns="http://www.w3.org/2000/svg">
  <g>
    <path d="M0 767.8571428571428c0 0 0 -535.714 0 -535.714c0 -44.271 15.718 -82.125 47.154 -113.561c31.436 -31.436 69.289 -47.154 113.56 -47.154c0 0 535.715 0 535.715 0c44.27 0 82.124 15.718 113.56 47.154c31.436 31.436 47.154 69.29 47.154 113.561c0 0 0 535.714 0 535.714c0 44.271 -15.718 82.124 -47.154 113.56c-31.436 31.436 -69.29 47.154 -113.56 47.154c0 0 -535.715 0 -535.715 0c-44.271 0 -82.124 -15.718 -113.56 -47.154c-31.436 -31.436 -47.154 -69.289 -47.154 -113.56c0 0 0 0 0 0m142.857 -32.366c0 22.321 6.697 40.551 20.089 54.687c13.393 14.137 29.018 23.624 46.875 28.46c17.858 4.837 37.761 7.255 59.71 7.255c83.334 0 125 -34.785 125 -104.353c0 -17.857 -4.743 -32.366 -14.23 -43.527c-9.486 -11.16 -21.112 -19.066 -34.877 -23.716c-13.765 -4.651 -27.53 -8.65 -41.295 -11.998c-13.764 -3.348 -25.39 -7.72 -34.877 -13.114c-9.486 -5.394 -14.23 -12.742 -14.23 -22.042c0 -16.369 9.115 -26.042 27.344 -29.018c28.646 -5.58 51.339 -18.601 68.08 -39.063c16.741 -20.461 25.112 -45.387 25.112 -74.776c0 -8.929 -1.86 -18.602 -5.58 -29.018c11.16 -2.604 20.275 -5.023 27.343 -7.255c0 0 0 -69.754 0 -69.754c-29.017 10.788 -54.129 16.183 -75.334 16.183c-18.602 -10.789 -39.063 -16.183 -61.384 -16.183c-31.994 0 -58.966 10.602 -80.916 31.808c-21.949 21.205 -32.924 47.805 -32.924 79.799c0 18.601 5.488 37.574 16.462 56.92c10.975 19.345 24.647 31.808 41.016 37.388c0 0 0 1.674 0 1.674c-14.137 6.324 -21.205 22.135 -21.205 47.433c0 19.345 7.626 33.668 22.879 42.969c0 0 0 1.674 0 1.674c-42.039 13.765 -63.058 39.621 -63.058 77.567c0 0 0 0 0 0m70.313 -3.906c0 -23.81 18.229 -35.715 54.687 -35.715c37.947 0 56.92 11.347 56.92 34.041c0 24.553 -17.299 36.83 -51.898 36.83c-39.806 0 -59.709 -11.719 -59.709 -35.156c0 0 0 0 0 0m7.254 -261.161c0 -33.482 14.323 -50.223 42.969 -50.223c13.393 0 23.623 4.836 30.692 14.509c7.068 9.672 10.602 21.391 10.602 35.156c0 31.622 -13.764 47.433 -41.294 47.433c-28.646 0 -42.969 -15.625 -42.969 -46.875c0 0 0 0 0 0m200.893 -211.496c0 13.393 4.65 25.019 13.951 34.878c9.3 9.858 20.461 14.788 33.482 14.788c13.021 0 24.089 -5.023 33.203 -15.067c9.115 -10.045 13.672 -21.578 13.672 -34.599c0 -13.392 -4.464 -25.204 -13.393 -35.435c-8.928 -10.23 -20.089 -15.346 -33.482 -15.346c-13.393 0 -24.647 5.022 -33.761 15.067c-9.115 10.045 -13.672 21.95 -13.672 35.714c0 0 0 0 0 0m8.929 402.902c0 0 76.45 0 76.45 0c-0.744 -7.44 -1.116 -24.181 -1.116 -50.223c0 0 0 -207.589 0 -207.589c0 -21.95 0.372 -36.087 1.116 -42.411c0 0 -76.45 0 -76.45 0c1.116 9.673 1.674 24.368 1.674 44.085c0 0 0 210.379 0 210.379c0 20.462 -0.558 35.715 -1.674 45.759c0 0 0 0 0 0m108.816 -234.933c13.393 -1.116 20.276 -1.674 20.648 -1.674c1.488 0 3.627 0.093 6.417 0.279c2.79 0.186 4.93 0.279 6.418 0.279c0 0 0 1.116 0 1.116c0 0 -1.116 0 -1.116 0c0 0 0 121.094 0 121.094c0 13.765 0.465 25.67 1.395 35.714c0.93 10.045 3.069 20.555 6.417 31.529c3.348 10.975 7.906 19.997 13.672 27.065c5.766 7.068 13.858 12.835 24.274 17.299c10.417 4.464 22.694 6.697 36.831 6.697c23.809 0 43.899 -4.465 60.268 -13.393c0 0 0 -67.523 0 -67.523c-11.161 7.813 -23.81 11.719 -37.947 11.719c-19.717 0 -29.576 -15.253 -29.576 -45.759c0 0 0 -125.558 0 -125.558c0 0 29.018 0 29.018 0c3.348 0 8.278 0.186 14.788 0.558c6.511 0.372 11.44 0.558 14.788 0.558c0 0 0 -65.29 0 -65.29c0 0 -58.594 0 -58.594 0c0 -30.506 0.558 -49.479 1.674 -56.92c0 0 -78.125 0 -78.125 0c1.489 8.929 2.233 19.16 2.233 30.692c0 0 0 26.228 0 26.228c0 0 -33.483 0 -33.483 0c0 0 0 65.29 0 65.29c0 0 0 0 0 0" />
  </g>
</svg>