<svg height="1000" width="857.143" xmlns="http://www.w3.org/2000/svg"><path d="M0 500.032q0 -116.622 57.474 -215.109t155.961 -155.961 215.109 -57.474 215.109 57.474 155.961 155.961 57.474 215.109 -57.474 215.109 -155.961 155.961 -215.109 57.474 -215.109 -57.474 -155.961 -155.961 -57.474 -215.109zm71.424 0q0 116.622 69.471 211.203t180.513 129.177v-94.302q-30.132 3.906 -38.502 3.906 -61.38 0 -85.374 -55.8 -8.37 -21.204 -20.088 -35.154 -2.79 -3.348 -11.718 -10.602t-15.903 -13.392 -6.975 -8.928q0 -6.696 15.624 -6.696 16.182 0 28.737 8.091t21.204 19.53 17.577 23.157 22.599 19.809 31.527 8.091q23.436 0 45.198 -7.812 8.928 -31.806 35.154 -49.662 -92.628 -8.928 -137.268 -46.593t-44.64 -125.271q0 -65.844 40.734 -110.484 -7.812 -23.436 -7.812 -46.872 0 -32.364 15.066 -60.822 31.806 0 56.358 10.881t56.358 33.759q42.408 -10.044 94.302 -10.044 44.64 0 85.374 8.928 31.806 -22.32 56.079 -32.922t55.521 -10.602q15.066 28.458 15.066 60.822 0 23.994 -7.812 46.314 40.734 45.756 40.734 111.042 0 87.606 -44.64 125.829t-136.71 46.593q38.502 26.226 38.502 73.098v126.108q111.042 -34.596 180.513 -129.177t69.471 -211.203q0 -72.54 -28.458 -138.663t-76.167 -113.832 -113.832 -76.167 -138.663 -28.458 -138.663 28.458 -113.832 76.167 -76.167 113.832 -28.458 138.663z"/></svg>