<svg height="1000" width="857.143" xmlns="http://www.w3.org/2000/svg"><path d="M0 500.032q0 -116.622 57.474 -215.109t155.961 -155.961 215.109 -57.474 215.109 57.474 155.961 155.961 57.474 215.109 -57.474 215.109 -155.961 155.961 -215.109 57.474 -215.109 -57.474 -155.961 -155.961 -57.474 -215.109zm222.921 -70.308q4.743 20.646 13.671 32.922l194.742 263.934 195.3 -263.934q8.928 -12.276 13.671 -32.922t-3.348 -47.43 -34.317 -44.082q-22.32 -14.508 -46.314 -14.229t-41.013 9.765 -30.411 25.11q-20.088 22.32 -53.568 22.32 -32.922 0 -53.01 -22.32 -13.392 -15.624 -30.411 -25.11t-41.013 -9.765 -46.872 14.229q-25.668 17.298 -33.759 44.082t-3.348 47.43z"/></svg>