<svg height="1000px" width="1000px" xmlns="http://www.w3.org/2000/svg">
  <g>
    <path d="M51.89732142857143 103.79464285714278c0 -8.557 3.348 -15.346 10.045 -20.368c6.696 -5.023 13.765 -8.278 21.205 -9.766c7.44 -1.488 15.439 -2.232 23.996 -2.232c0 0 785.714 0 785.714 0c8.556 0 16.555 0.744 23.995 2.232c7.441 1.488 14.509 4.743 21.206 9.766c6.696 5.022 10.044 11.811 10.044 20.368c0 13.021 -7.998 27.53 -23.995 43.527c0 0 -352.679 352.678 -352.679 352.678c0 0 0 428.572 0 428.572c0 0 178.572 0 178.572 0c9.672 0 18.043 3.534 25.111 10.602c7.069 7.069 10.603 15.439 10.603 25.112c0 9.673 -3.534 18.043 -10.603 25.112c-7.068 7.068 -15.439 10.602 -25.111 10.602c0 0 -500 0 -500 0c-9.673 0 -18.043 -3.534 -25.112 -10.602c-7.068 -7.069 -10.603 -15.439 -10.603 -25.112c0 -9.673 3.535 -18.043 10.603 -25.112c7.069 -7.068 15.439 -10.602 25.112 -10.602c0 0 178.571 0 178.571 0c0 0 0 -428.572 0 -428.572c0 0 -352.678 -352.678 -352.678 -352.678c-15.997 -15.997 -23.996 -30.506 -23.996 -43.527c0 0 0 0 0 0" />
  </g>
</svg>