<svg height="1000px" width="750px" xmlns="http://www.w3.org/2000/svg">
  <g>
    <path d="M2.9296875 147.94921875c6.51 -15.299 17.904 -22.949 34.18 -22.949c0 0 674.804 0 674.804 0c16.602 0 28.321 7.65 35.157 22.949c6.51 15.299 3.743 28.971 -8.301 41.016c0 0 -297.852 297.851 -297.852 297.851c0 0 0 312.988 0 312.988c0 0 121.094 0 121.094 0c10.742 0 19.775 3.663 27.1 10.987c7.324 7.324 10.986 16.032 10.986 26.123c0 10.742 -3.662 19.775 -10.986 27.099c-7.325 7.325 -16.358 10.987 -27.1 10.987c0 0 -375 0 -375 0c-10.091 0 -18.799 -3.662 -26.123 -10.987c-7.324 -7.324 -10.986 -16.357 -10.986 -27.099c0 -10.091 3.662 -18.799 10.986 -26.123c7.324 -7.324 16.032 -10.987 26.123 -10.987c0 0 122.07 0 122.07 0c0 0 0 -312.988 0 -312.988c0 0 -297.851 -297.851 -297.851 -297.851c-12.044 -12.045 -14.811 -25.717 -8.301 -41.016c0 0 0 0 0 0" />
  </g>
</svg>