<svg height="1000px" width="1000px" xmlns="http://www.w3.org/2000/svg">
  <g>
    <path d="M51.89732142857143 107.14285714285711c0 -10.417 3.348 -18.229 10.045 -23.438c10.788 -8.184 25.855 -12.276 45.201 -12.276c0 0 785.714 0 785.714 0c36.83 0 55.245 11.904 55.245 35.714c0 10.789 -7.998 24.182 -23.995 40.179c0 0 -352.679 352.678 -352.679 352.678c0 0 0 428.572 0 428.572c0 0 178.572 0 178.572 0c9.672 0 18.043 3.534 25.111 10.602c7.069 7.069 10.603 15.439 10.603 25.112c0 9.672 -3.534 18.043 -10.603 25.111c-7.068 7.069 -15.439 10.603 -25.111 10.603c0 0 -500 0 -500 0c-9.673 0 -18.043 -3.534 -25.112 -10.603c-7.068 -7.068 -10.603 -15.439 -10.603 -25.111c0 -9.673 3.535 -18.043 10.603 -25.112c7.069 -7.068 15.439 -10.602 25.112 -10.602c0 0 178.571 0 178.571 0c0 0 0 -428.572 0 -428.572c0 0 -352.678 -352.678 -352.678 -352.678c-15.997 -15.997 -23.996 -29.39 -23.996 -40.179c0 0 0 0 0 0" />
  </g>
</svg>