<svg height="1000px" width="750px" xmlns="http://www.w3.org/2000/svg">
  <g>
    <path d="M3 148c6.667 -15.333 18 -23 34 -23c0 0 675 0 675 0c16.667 0 28.333 7.667 35 23c6.667 15.333 4 29 -8 41c0 0 -298 298 -298 298c0 0 0 313 0 313c0 0 121 0 121 0c10.667 0 19.667 3.667 27 11c7.333 7.333 11 16 11 26c0 10.667 -3.667 19.667 -11 27c-7.333 7.333 -16.333 11 -27 11c0 0 -375 0 -375 0c-10 0 -18.667 -3.667 -26 -11c-7.333 -7.333 -11 -16.333 -11 -27c0 -10 3.667 -18.667 11 -26c7.333 -7.333 16 -11 26 -11c0 0 122 0 122 0c0 0 0 -313 0 -313c0 0 -298 -298 -298 -298c-12 -12 -14.667 -25.667 -8 -41c0 0 0 0 0 0" />
  </g>
</svg>