<svg height="1000" width="856.6" xmlns="http://www.w3.org/2000/svg"><path d="M415.2 170.2q0 -13.4 -1.1 -21.5T409.3 132t-11.7 -12.9T376.7 115q-21.8 0 -43.6 12.8 -58.5 32.4 -88.7 106.3t-30.1 150.4q0 24.5 4.7 47.7t14.8 44.9 29.3 34.9 45.5 13.1q2.2 0 10 .3t11.2 0 8.9 -1.7 8.4 -4.7 3.9 -9q8.9 -42.9 26.8 -129.1t26.8 -129.2q10.6 -50.8 10.6 -81.5zm420.7 366.1q0 3.9 -4.1 7.5t-8.7 3.6l-3.3 -.5q-12.3 -1.7 -34.6 -6.2T745 533.8t-35.2 -2.5q-93.2 0 -195.8 51.8 -8.4 4.5 -11.8 15.1 -5.5 20.1 -13.6 58.9T476 713.2Q463.2 764 436.9 813.3t-62.7 91.8 -86.3 68.7T184.7 1000Q109.4 1000 65 953.4T20.6 830.9q0 -29.6 10.9 -65.3t35.2 -65 54.4 -29.3q21.2 0 67 18.7t46.3 34.3q0 .6 -9.2 7t-22.1 17.3 -25.6 24.8 -21.8 34.1 -8.9 41.3q0 18.4 9.2 29.5t27 11.2q25.1 0 47.5 -17.6t37.1 -43.5 26.8 -58.9 18.1 -59.7 8.9 -50.2v-5q0 -1.1 -1.9 -2t-4.8 -.8h-5.5t-5.6 .3 -3.4 .2q-126.7 0 -196.4 -68.3T34 389.5q0 -60.3 19.3 -123.3T106.9 149t87 -93.5T308 5.6q29.1 -5 59.2 -5 208.7 0 208.7 200.9 0 54.6 -21.2 152.3t-24 117.7l1.7 1.7q56.3 -31.8 101.8 -49.1t93.5 -17.3q12.3 0 29.6 7.3 10.6 3.9 44.6 57.2t34 65z"/></svg>