<svg height="1000" width="857.1" xmlns="http://www.w3.org/2000/svg"><path d="M483.3 287.4q0 15.1 -7.3 52.4 -6.1 27.9 -17.6 83.7t-17 83.8q-1.1 6.1 -2.5 6.9t-7.5 1.4q-11.2 1.1 -17.3 1.1 -32.4 0 -46.9 -27.6t-14.5 -63.3q0 -49.1 19.5 -97.1t57.5 -69.2q15.6 -7.8 28.4 -7.8 15.7 0 20.4 9.2t4.8 26.5zM754.5 524q0 -7.8 -21.8 -42.1t-29 -37.1q-11.7 -4.5 -19 -4.5 -50.8 0 -126.1 43l-1.1 -1.2q1.7 -12.2 15.3 -75.3t13.7 -99.3q0 -130 -135 -130 -13.4 0 -38 3.3 -52.5 9.5 -94 49.9t-62.2 93 -20.7 105.4q0 81.5 44.9 125.6t127 44.1q13.9 0 13.9 1.6t-.5 2.8q-2.3 19 -14.5 65.3 -7.8 29 -28.8 56.4t-46 27.3q-23.4 0 -23.4 -26.2 0 -13.4 5.8 -26.5t14 -22 16.4 -15.9 14.5 -11.2 6.2 -4.8q0 -1.6 -3.9 -5.5 -13.4 -12.3 -32.7 -20.4T293 611.6q-19.6 0 -35.5 19t-22.8 41.8 -7 41.9q0 49.1 28.7 79.2t77.3 30.2q45.8 0 86.5 -29.6t65.6 -70.3 36.5 -85.4q3.4 -12.3 8.7 -37.1t8.1 -37.1q1.6 -6.7 7.8 -10.1 65.8 -33.5 126.6 -33.5 26.8 0 70.9 10.1 .6 .5 2.3 .5 2.7 0 5.3 -2.5t2.5 -4.7zM857.1 232.1v535.8q0 66.4 -47.1 113.5t-113.6 47.2H160.7q-66.4 0 -113.5 -47.2T0 767.9V232.1Q0 165.7 47.2 118.6T160.7 71.4h535.7q66.4 0 113.6 47.2t47.1 113.5z"/></svg>