<svg height="1000" width="857.143" xmlns="http://www.w3.org/2000/svg"><path d="M428.544 71.488q116.622 0 215.109 57.474t155.961 155.961 57.474 215.109 -57.474 215.109 -155.961 155.961 -215.109 57.474 -215.109 -57.474 -155.961 -155.961 -57.474 -215.109 57.474 -215.109 155.961 -155.961 215.109 -57.474zm152.892 290.718q-1.116 .558 -5.301 5.301t-7.533 5.301q1.116 0 2.511 -2.79t2.79 -6.138 1.953 -3.906q3.348 -3.906 12.276 -8.37 7.812 -3.348 29.016 -6.696 18.972 -4.464 28.458 6.138 -1.116 -1.116 5.301 -7.254t8.091 -6.696q1.674 -1.116 8.37 -2.511t8.37 -4.185l1.116 -12.276q-6.696 .558 -9.765 -3.906t-3.627 -11.718q0 1.116 -3.348 4.464 0 -3.906 -2.511 -4.464t-6.417 .558 -5.022 .558q-5.58 -1.674 -8.37 -4.185t-4.464 -9.207 -2.232 -8.37q-1.116 -2.79 -5.301 -5.859t-5.301 -5.859q-.558 -1.116 -1.395 -3.069t-1.674 -3.627 -2.232 -3.069 -3.069 -1.395 -3.906 2.79 -4.185 5.58 -2.511 2.79q-1.674 -1.116 -3.348 -.837t-2.511 .558 -2.511 1.674 -2.79 1.953q-1.674 1.116 -4.743 1.674t-4.743 1.116q8.37 -2.79 -.558 -6.138 -5.58 -2.232 -8.928 -1.674 5.022 -2.232 4.185 -6.696t-4.743 -7.812h2.79q-.558 -2.232 -4.743 -4.743t-9.765 -4.743 -7.254 -3.348q-4.464 -2.79 -18.972 -5.301t-18.414 -.279q-2.79 3.348 -2.511 5.859t2.232 7.812 1.953 6.975q.558 3.348 -3.069 7.254t-3.627 6.696q0 3.906 7.812 8.649t5.58 11.997q-1.674 4.464 -8.928 8.928t-8.928 6.696q-2.79 4.464 -.837 10.323t5.859 9.207q1.116 1.116 .837 2.232t-1.953 2.511 -3.069 2.232 -3.627 1.953l-1.674 1.116q-6.138 2.79 -11.439 -3.348t-7.533 -14.508q-3.906 -13.95 -8.928 -16.74 -12.834 -4.464 -16.182 .558 -2.79 -7.254 -22.878 -14.508 -13.95 -5.022 -32.364 -2.232 3.348 -.558 0 -8.37 -3.906 -8.37 -10.602 -6.696 1.674 -3.348 2.232 -9.765t.558 -7.533q1.674 -7.254 6.696 -12.834 .558 -.558 3.906 -4.743t5.301 -7.533 .279 -3.348q19.53 2.232 27.9 -6.138 2.79 -2.79 6.417 -9.486t5.859 -9.486q5.022 -3.348 7.812 -3.069t8.091 3.069 8.091 2.79q7.812 .558 8.649 -6.138t-4.185 -11.16q6.696 .558 1.674 -9.486 -2.79 -3.906 -4.464 -5.022 -6.696 -2.232 -15.066 2.79 -4.464 2.232 1.116 4.464 -.558 -.558 -5.301 5.859t-9.207 9.765 -8.928 -2.79q-.558 -.558 -3.069 -7.533t-5.301 -7.533q-4.464 0 -8.928 8.37 1.674 -4.464 -6.138 -8.37t-13.392 -4.464q10.602 -6.696 -4.464 -15.066 -3.906 -2.232 -11.439 -2.79t-10.881 2.232q-2.79 3.906 -3.069 6.417t2.79 4.464 5.859 3.069 6.417 2.232 4.743 1.674q7.812 5.58 4.464 7.812 -1.116 .558 -4.743 1.953t-6.417 2.511 -3.348 2.232q-1.674 2.232 0 7.812t-1.116 7.812q-2.79 -2.79 -5.022 -9.765t-3.906 -9.207q3.906 5.022 -13.95 3.348l-5.58 -.558q-2.232 0 -8.928 1.116t-11.439 .558 -7.533 -4.464q-2.232 -4.464 0 -11.16 .558 -2.232 2.232 -1.116 -2.232 -1.674 -6.138 -5.301t-5.58 -4.743q-25.668 8.37 -52.452 22.878 3.348 .558 6.696 -.558 2.79 -1.116 7.254 -3.627t5.58 -3.069q18.972 -7.812 23.436 -3.906l2.79 -2.79q7.812 8.928 11.16 13.95 -3.906 -2.232 -16.74 -.558 -11.16 3.348 -12.276 6.696 3.906 6.696 2.79 10.044 -2.232 -1.674 -6.417 -5.58t-8.091 -6.138 -8.37 -2.79q-8.928 0 -12.276 .558 -81.468 44.64 -131.13 123.876 3.906 3.906 6.696 4.464 2.232 .558 2.79 5.022t1.395 6.138 6.417 -1.674q5.022 4.464 1.674 10.602 .558 -.558 24.552 15.066 10.602 9.486 11.718 11.718 1.674 6.138 -5.58 10.044 -.558 -1.116 -5.022 -5.022t-5.022 -2.232q-1.674 2.79 .279 10.323t5.859 6.975q-3.906 0 -5.301 8.928t-1.395 19.809 -.558 13.113l1.116 .558q-1.674 6.696 3.069 19.251t11.997 10.881q-7.254 1.674 11.16 23.994 3.348 4.464 4.464 5.022 1.674 1.116 6.696 4.185t8.37 5.58 5.58 5.859q2.232 2.79 5.58 12.555t7.812 13.113q-1.116 3.348 5.301 11.16t5.859 12.834q-.558 0 -1.395 .558t-1.395 .558q1.674 3.906 8.649 7.812t8.649 7.254q.558 1.674 1.116 5.58t1.674 6.138 4.464 1.116q1.116 -11.16 -13.392 -34.596 -8.37 -13.95 -9.486 -16.182 -1.674 -2.79 -3.069 -8.649t-2.511 -8.091q1.116 0 3.348 .837t4.743 1.953 4.185 2.232 1.116 1.674q-1.674 3.906 1.116 9.765t6.696 10.323 9.486 10.602 6.696 7.254q3.348 3.348 7.812 10.881t0 7.533q5.022 0 11.16 5.58t9.486 11.16q2.79 4.464 4.464 14.508t2.79 13.392q1.116 3.906 4.743 7.533t6.975 5.301l8.928 4.464t7.254 3.906q2.79 1.116 10.323 5.859t11.997 6.417q5.58 2.232 8.928 2.232t8.091 -1.395 7.533 -1.953q8.37 -1.116 16.182 8.37t11.718 11.718q20.088 10.602 30.69 6.138 -1.116 .558 .279 4.185t4.464 8.649 5.022 8.091 3.069 4.743q2.79 3.348 10.044 8.37t10.044 8.37q3.348 -2.232 3.906 -5.022 -1.674 4.464 3.906 11.16t10.044 5.58q7.812 -1.674 7.812 -17.856 -17.298 8.37 -27.342 -10.044 0 -.558 -1.395 -3.069t-2.232 -4.743 -1.395 -4.743 0 -4.185 2.79 -1.674q5.022 0 5.58 -1.953t-1.116 -6.975 -2.232 -7.254q-.558 -4.464 -6.138 -11.16t-6.696 -8.37q-2.79 5.022 -8.928 4.464t-8.928 -5.022q0 .558 -.837 3.069t-.837 3.627q-7.254 0 -8.37 -.558 .558 -1.674 1.395 -9.765t1.953 -12.555q.558 -2.232 3.069 -6.696t4.185 -8.091 2.232 -6.975 -2.511 -5.301 -9.765 -1.395q-10.602 .558 -14.508 11.16 -.558 1.674 -1.674 5.859t-2.79 6.417 -5.022 3.906q-3.906 1.674 -13.392 1.116t-13.392 -2.79q-7.254 -4.464 -12.555 -16.182t-5.301 -20.646q0 -5.58 1.395 -14.787t1.674 -13.95 -3.069 -13.671q1.674 -1.116 5.022 -5.301t5.58 -5.859q1.116 -.558 2.511 -.837t2.511 0 2.232 -.837 1.674 -3.348q-.558 -.558 -2.232 -1.674 -1.674 -1.674 -2.232 -1.674 3.906 1.674 15.903 -.837t15.345 .837q8.37 6.138 12.276 -1.116 0 -.558 -1.395 -5.301t-.279 -7.533q2.79 15.066 16.182 5.022 1.674 1.674 8.649 2.79t9.765 2.79q1.674 1.116 3.906 3.069t3.069 2.511 2.79 -.279 4.743 -3.627q5.58 7.812 6.696 13.392 6.138 22.32 10.602 24.552 3.906 1.674 6.138 1.116t2.511 -5.301 0 -7.812 -.837 -6.975l-.558 -4.464v-10.044l-.558 -4.464q-8.37 -1.674 -10.323 -6.696t.837 -10.323 8.37 -10.323q.558 -.558 4.464 -1.953t8.649 -3.627 6.975 -4.464q11.718 -10.602 8.37 -19.53 3.906 0 6.138 -5.022 -.558 0 -2.79 -1.674t-4.185 -2.79 -2.511 -1.116q5.022 -2.79 1.116 -8.928 2.79 -1.674 4.185 -6.138t4.185 -5.58q5.022 6.696 11.718 1.116 3.906 -4.464 .558 -8.928 2.79 -3.906 11.439 -5.859t10.323 -5.301q3.906 1.116 4.464 -1.116t.558 -6.696 1.674 -6.696q2.232 -2.79 8.37 -5.022t7.254 -2.79l9.486 -6.138q1.674 -2.232 0 -2.232 10.044 1.116 17.298 -6.138 5.58 -6.138 -3.348 -11.16 1.674 -3.348 -1.674 -5.301t-8.37 -3.069q1.674 -.558 6.417 -.279t5.859 -.837q8.37 -5.58 -3.906 -8.928 -9.486 -2.79 -23.994 6.696zm-90.954 489.366q114.948 -20.088 195.858 -105.462 -1.674 -1.674 -6.975 -2.511t-6.975 -1.953q-10.044 -3.906 -13.392 -4.464 .558 -3.906 -1.395 -7.254t-4.464 -5.022 -6.975 -4.464 -6.138 -3.906q-1.116 -1.116 -3.906 -3.348t-3.906 -3.069 -4.185 -2.511 -4.743 -1.116 -5.58 .558l-1.674 .558q-1.674 .558 -3.069 1.395t-3.069 1.674 -2.232 1.674 0 1.395q-11.718 -9.486 -20.088 -12.276 -2.79 -.558 -6.138 -3.069t-5.859 -3.906 -5.58 -.837 -6.417 3.906q-2.79 2.79 -3.348 8.37t-1.116 7.254q-3.906 -2.79 0 -9.765t1.116 -10.323q-1.674 -3.348 -5.859 -2.511t-6.696 2.511 -6.417 4.743 -5.022 3.627 -4.743 3.069 -4.743 4.185q-1.674 2.232 -3.348 6.696t-2.79 6.138q-1.116 -2.232 -6.417 -3.627t-5.301 -3.069q1.116 5.58 2.232 19.53t2.79 21.204q3.906 17.298 -6.696 26.784 -15.066 13.95 -16.182 22.32 -2.232 12.276 6.696 14.508 0 3.906 -4.464 11.439t-3.906 11.997q0 3.348 1.116 8.928z"/></svg>