<svg height="1000" width="857.1" xmlns="http://www.w3.org/2000/svg"><path d="M428.6 71.4q116.6 0 215.1 57.5t156 156T857.1 500t-57.4 215.1 -156 156 -215.1 57.5T213.4 871.1 57.5 715.1 0 500 57.5 284.9t155.9 -156T428.6 71.4zm152.9 290.8q-1.1 .5 -5.3 5.3t-7.6 5.3q1.2 0 2.5 -2.8t2.8 -6.2 2 -3.9q3.3 -3.9 12.3 -8.3 7.8 -3.4 29 -6.7 19 -4.5 28.4 6.1 -1.1 -1.1 5.3 -7.2t8.1 -6.7q1.7 -1.2 8.4 -2.6t8.4 -4.1l1.1 -12.3q-6.7 .5 -9.8 -3.9t-3.6 -11.7q0 1.1 -3.3 4.4 0 -3.9 -2.6 -4.4t-6.4 .5 -5 .6q-5.6 -1.7 -8.4 -4.2t-4.4 -9.2 -2.3 -8.4q-1.1 -2.8 -5.3 -5.9t-5.3 -5.8Q620 269 619.1 267t-1.6 -3.6 -2.3 -3.1 -3 -1.4 -3.9 2.8 -4.2 5.6 -2.5 2.8q-1.7 -1.1 -3.4 -.8t-2.5 .5 -2.5 1.7 -2.8 1.9q-1.7 1.2 -4.7 1.7t-4.8 1.1q8.4 -2.8 -.5 -6.1 -5.6 -2.2 -9 -1.7 5.1 -2.2 4.2 -6.7t-4.7 -7.8h2.8q-.6 -2.2 -4.8 -4.7t-9.7 -4.8 -7.3 -3.3q-4.5 -2.8 -19 -5.3t-18.4 -.3q-2.8 3.3 -2.5 5.9t2.2 7.8 2 6.9q.5 3.4 -3.1 7.3t-3.6 6.7q0 3.9 7.8 8.6t5.6 12q-1.7 4.5 -8.9 9t-9 6.7q-2.8 4.4 -.8 10.3t5.8 9.2q1.2 1.1 .9 2.2t-2 2.5 -3 2.3 -3.7 1.9l-1.6 1.1q-6.2 2.8 -11.5 -3.3t-7.5 -14.5q-3.9 -14 -8.9 -16.8 -12.9 -4.4 -16.2 .6 -2.8 -7.3 -22.9 -14.5 -14 -5 -32.4 -2.2 3.4 -.6 0 -8.4 -3.9 -8.4 -10.6 -6.7 1.7 -3.4 2.3 -9.8t.5 -7.5q1.7 -7.3 6.7 -12.8 .6 -.6 3.9 -4.8t5.3 -7.5 .3 -3.4q19.5 2.3 27.9 -6.1 2.8 -2.8 6.4 -9.5t5.9 -9.5q5 -3.3 7.8 -3.1t8.1 3.1 8.1 2.8q7.8 .6 8.6 -6.1t-4.2 -11.2q6.7 .6 1.7 -9.5 -2.8 -3.9 -4.5 -5 -6.7 -2.2 -15 2.8 -4.5 2.2 1.1 4.5 -.6 -.6 -5.3 5.8t-9.2 9.8 -8.9 -2.8q-.6 -.6 -3.1 -7.5t-5.3 -7.6q-4.5 0 -8.9 8.4 1.6 -4.5 -6.2 -8.4t-13.4 -4.4q10.6 -6.7 -4.4 -15.1 -3.9 -2.2 -11.5 -2.8t-10.9 2.2q-2.7 3.9 -3 6.5t2.8 4.4 5.8 3.1 6.4 2.2 4.8 1.7q7.8 5.6 4.4 7.8 -1.1 .6 -4.7 2t-6.4 2.5 -3.4 2.2q-1.6 2.2 0 7.8t-1.1 7.8q-2.8 -2.8 -5 -9.7t-3.9 -9.2q3.9 5 -14 3.3l-5.5 -.6q-2.3 0 -9 1.2t-11.4 .5 -7.5 -4.4q-2.3 -4.5 0 -11.2 .5 -2.2 2.2 -1.1 -2.2 -1.7 -6.1 -5.3t-5.6 -4.8q-25.7 8.4 -52.5 22.9 3.4 .6 6.7 -.5 2.8 -1.2 7.3 -3.7t5.5 -3q19 -7.9 23.5 -4l2.8 -2.7q7.8 8.9 11.1 13.9 -3.9 -2.2 -16.7 -.5 -11.2 3.3 -12.3 6.6 3.9 6.7 2.8 10.1 -2.2 -1.7 -6.4 -5.6t-8.1 -6.1 -8.4 -2.8q-8.9 0 -12.2 .5 -81.5 44.7 -131.2 123.9 3.9 3.9 6.7 4.5 2.2 .5 2.8 5t1.4 6.2 6.4 -1.7q5 4.4 1.7 10.6 .5 -.6 24.5 15 10.6 9.5 11.8 11.8 1.6 6.1 -5.6 10 -.6 -1.1 -5 -5t-5.1 -2.2q-1.6 2.7 .3 10.3t5.9 7q-3.9 0 -5.3 8.9t-1.4 19.8 -.6 13.1l1.1 .6q-1.6 6.7 3.1 19.2t12 10.9q-7.3 1.7 11.2 24 3.3 4.5 4.4 5 1.7 1.1 6.7 4.2t8.4 5.6 5.6 5.8q2.2 2.8 5.6 12.6t7.8 13.1q-1.1 3.4 5.3 11.2t5.8 12.8q-.5 0 -1.4 .6t-1.4 .5q1.7 3.9 8.7 7.8t8.6 7.3q.6 1.7 1.2 5.6t1.6 6.1 4.5 1.1Q264.5 567 250 543.5q-8.4 -13.9 -9.5 -16.2 -1.7 -2.7 -3.1 -8.6t-2.5 -8.1q1.1 0 3.4 .8t4.7 2 4.2 2.2 1.1 1.7q-1.6 3.9 1.1 9.8t6.7 10.3 9.5 10.6 6.7 7.2q3.4 3.4 7.8 10.9t0 7.6q5.1 0 11.2 5.5t9.5 11.2q2.8 4.5 4.4 14.5t2.8 13.4q1.2 3.9 4.8 7.5t7 5.3l8.9 4.5t7.2 3.9q2.8 1.1 10.4 5.9t12 6.4q5.5 2.2 8.9 2.2t8.1 -1.4 7.5 -1.9q8.4 -1.1 16.2 8.3t11.7 11.8q20.1 10.6 30.7 6.1 -1.1 .6 .3 4.2t4.4 8.6 5.1 8.1 3 4.8q2.8 3.3 10.1 8.3t10 8.4q3.4 -2.2 3.9 -5 -1.6 4.4 3.9 11.1t10.1 5.6q7.8 -1.6 7.8 -17.8 -17.3 8.3 -27.3 -10.1 0 -.5 -1.4 -3t-2.3 -4.8 -1.4 -4.7 0 -4.2 2.8 -1.7q5 0 5.6 -1.9t-1.1 -7 -2.2 -7.3q-.6 -4.4 -6.2 -11.1t-6.7 -8.4q-2.8 5 -8.9 4.5t-8.9 -5.1q0 .6 -.9 3.1t-.8 3.6q-7.3 0 -8.4 -.5 .6 -1.7 1.4 -9.8t2 -12.5q.5 -2.3 3 -6.7t4.2 -8.1 2.3 -7 -2.6 -5.3 -9.7 -1.4q-10.6 .6 -14.5 11.2 -.6 1.6 -1.7 5.8t-2.8 6.4 -5 3.9q-3.9 1.7 -13.4 1.2t-13.4 -2.8q-7.3 -4.5 -12.6 -16.2t-5.3 -20.7q0 -5.5 1.4 -14.8t1.7 -13.9 -3.1 -13.7q1.7 -1.1 5.1 -5.3t5.5 -5.8q1.2 -.6 2.6 -.9t2.5 0 2.2 -.8 1.7 -3.4q-.6 -.5 -2.3 -1.6 -1.6 -1.7 -2.2 -1.7 3.9 1.7 15.9 -.8t15.4 .8q8.3 6.1 12.2 -1.1 0 -.6 -1.4 -5.3t-.2 -7.6q2.7 15.1 16.1 5.1 1.7 1.6 8.7 2.8t9.8 2.7q1.6 1.2 3.9 3.1t3 2.5 2.8 -.3 4.8 -3.6q5.5 7.8 6.7 13.4 6.1 22.3 10.6 24.6 3.9 1.6 6.1 1.1t2.5 -5.3 0 -7.8 -.8 -7l-.6 -4.5v-10l-.5 -4.5q-8.4 -1.7 -10.4 -6.7t.9 -10.3 8.3 -10.3q.6 -.6 4.5 -2t8.7 -3.6 6.9 -4.5q11.8 -10.6 8.4 -19.5 3.9 0 6.1 -5 -.5 0 -2.7 -1.7t-4.2 -2.8 -2.5 -1.1q5 -2.8 1.1 -8.9 2.8 -1.7 4.2 -6.2t4.1 -5.6q5.1 6.7 11.8 1.2 3.9 -4.5 .5 -9 2.8 -3.9 11.5 -5.8t10.3 -5.3q3.9 1.1 4.4 -1.1t.6 -6.7 1.7 -6.7q2.2 -2.8 8.4 -5.1t7.2 -2.7l9.5 -6.2q1.7 -2.2 0 -2.2 10 1.1 17.3 -6.2 5.6 -6.1 -3.4 -11.1 1.7 -3.4 -1.6 -5.3t-8.4 -3.1q1.7 -.5 6.4 -.3t5.9 -.8q8.3 -5.6 -3.9 -8.9 -9.5 -2.8 -24 6.7zm-91 489.4q115 -20.1 195.9 -105.5 -1.7 -1.7 -7 -2.5t-7 -2q-10 -3.9 -13.4 -4.4 .6 -3.9 -1.4 -7.3t-4.4 -5 -7 -4.5 -6.1 -3.9q-1.1 -1.1 -3.9 -3.3t-3.9 -3.1 -4.2 -2.5 -4.8 -1.1 -5.6 .5l-1.6 .6q-1.7 .5 -3.1 1.4t-3.1 1.7 -2.2 1.6 0 1.4Q596 704.2 587.6 701.5q-2.8 -.6 -6.1 -3.1t-5.9 -3.9 -5.6 -.9 -6.4 3.9q-2.8 2.8 -3.3 8.4t-1.1 7.3q-4 -2.8 0 -9.8t1.1 -10.3q-1.7 -3.4 -5.9 -2.5t-6.7 2.5 -6.4 4.7 -5 3.7 -4.8 3 -4.7 4.2q-1.7 2.2 -3.4 6.7t-2.8 6.1q-1.1 -2.2 -6.4 -3.6t-5.3 -3.1q1.1 5.6 2.3 19.6t2.8 21.2q3.9 17.3 -6.7 26.8 -15.1 13.9 -16.2 22.3 -2.3 12.3 6.7 14.5 0 3.9 -4.5 11.4t-3.9 12q0 3.4 1.1 9z"/></svg>