<svg height="1000px" width="857.1428571428571px" xmlns="http://www.w3.org/2000/svg">
  <g>
    <path d="M0 499.99999999999994c0 -77.753 19.159 -149.461 57.478 -215.123c38.318 -65.662 90.308 -117.652 155.971 -155.971c65.662 -38.318 137.369 -57.477 215.122 -57.477c77.753 0 149.461 19.159 215.123 57.477c65.662 38.319 117.653 90.309 155.971 155.971c38.319 65.662 57.478 137.37 57.478 215.123c0 77.753 -19.159 149.461 -57.478 215.123c-38.318 65.662 -90.309 117.652 -155.971 155.971c-65.662 38.318 -137.37 57.477 -215.123 57.477c-77.753 0 -149.46 -19.159 -215.122 -57.477c-65.663 -38.319 -117.653 -90.309 -155.971 -155.971c-38.319 -65.662 -57.478 -137.37 -57.478 -215.123c0 0 0 0 0 0m110.491 -198.103c0.372 0.744 0.837 2.791 1.395 6.139c0.558 3.348 1.209 4.929 1.953 4.743c0.744 -0.186 2.79 -1.023 6.139 -2.511c3.348 3.348 3.906 7.254 1.674 11.719c0.744 -0.744 7.44 3.162 20.089 11.718c20.833 14.881 24.926 24.74 12.277 29.576c0 0 0 -3.069 0 -3.069c0 0 0.186 -1.209 0.558 -3.627c-3.348 0.372 -6.883 -0.558 -10.603 -2.79c-1.116 2.232 -1.023 5.952 0.279 11.16c1.302 5.209 3.441 7.813 6.418 7.813c-2.977 0 -4.93 3.162 -5.86 9.486c-0.93 6.325 -1.395 13.486 -1.395 21.485c0 7.998 -0.186 12.742 -0.558 14.23c0 0 1.116 0.558 1.116 0.558c-1.116 4.836 0 11.812 3.348 20.926c3.349 9.115 7.813 12.928 13.393 11.44c-1.488 6.696 -0.558 10.603 2.79 11.719c-0.372 1.488 -0.372 2.976 0 4.464c0.372 1.488 1.21 3.069 2.512 4.743c1.302 1.674 2.418 2.976 3.348 3.906c0 0 4.185 4.186 4.185 4.186c0 0 3.348 3.348 3.348 3.348c10.417 4.092 18.043 9.487 22.88 16.183c1.488 2.232 3.441 6.789 5.859 13.672c2.418 6.882 5.302 11.626 8.65 14.23c-0.744 2.232 1.116 6.231 5.58 11.998c4.464 5.766 6.51 10.509 6.138 14.229c-0.372 0 -0.837 0.093 -1.395 0.279c-0.558 0.186 -1.023 0.279 -1.395 0.279c1.116 2.977 4.186 5.953 9.208 8.929c5.022 2.976 8.091 5.58 9.207 7.813c0.745 1.116 1.21 3.069 1.396 5.859c0.186 2.79 0.744 5.022 1.674 6.696c0.93 1.674 2.511 2.139 4.743 1.395c1.116 -8.928 -3.72 -21.577 -14.509 -37.946c-5.952 -10.045 -9.301 -15.811 -10.045 -17.299c-1.116 -1.86 -2.139 -4.929 -3.069 -9.208c-0.93 -4.278 -1.767 -7.161 -2.511 -8.649c10.045 3.348 14.881 5.766 14.509 7.254c-1.86 3.72 2.976 13.393 14.509 29.018c0.744 1.116 2.604 2.976 5.58 5.58c2.976 2.605 5.023 4.837 6.139 6.697c1.116 1.488 2.883 4.185 5.301 8.091c2.418 3.907 4.371 6.79 5.859 8.65c-0.372 0 -0.93 0.372 -1.674 1.116c0 0 -1.674 1.674 -1.674 1.674c1.488 0.744 3.162 1.674 5.022 2.79c1.861 1.116 3.349 1.953 4.465 2.511c1.116 0.558 2.511 1.489 4.185 2.791c1.674 1.302 3.069 2.697 4.185 4.185c5.953 6.696 9.673 12.835 11.161 18.415c0.372 1.488 0.465 4.371 0.279 8.65c-0.186 4.278 0.093 7.347 0.837 9.207c0.744 2.232 1.86 4.278 3.348 6.139c1.488 1.86 3.628 3.72 6.418 5.58c2.79 1.86 4.929 3.162 6.417 3.906c1.488 0.744 4.185 1.953 8.092 3.627c3.906 1.675 6.045 2.698 6.417 3.07c0.744 0.372 4.092 2.418 10.045 6.138c5.952 3.72 10.602 6.324 13.951 7.813c3.72 1.488 6.789 2.325 9.207 2.511c2.418 0.186 5.395 -0.279 8.929 -1.395c3.534 -1.116 6.417 -1.861 8.649 -2.233c5.953 -1.116 11.626 1.861 17.02 8.929c5.395 7.068 9.58 11.347 12.556 12.835c15.253 7.44 26.228 9.486 32.924 6.138c0 3.348 2.604 8.557 7.813 15.625c1.116 1.488 2.325 3.627 3.627 6.418c1.302 2.79 2.325 4.743 3.069 5.859c1.86 2.604 5.395 5.58 10.603 8.929c5.208 3.348 8.742 6.324 10.603 8.928c2.232 -1.116 3.906 -2.79 5.022 -5.022c4.836 13.021 9.3 19.345 13.393 18.973c1.86 0 3.348 -1.488 4.464 -4.464c0 0.372 -0.093 0.93 -0.279 1.674c2.003 -4.879 2.654 -9.158 1.953 -12.835c0 0 3.348 -2.232 3.348 -2.232c1.86 -1.488 2.791 -2.418 2.791 -2.79c-2.233 -2.232 -3.907 -1.674 -5.023 1.674c-11.16 5.208 -20.089 1.116 -26.785 -12.277c-0.745 -1.116 -1.582 -2.604 -2.512 -4.464c-0.93 -1.86 -1.86 -4.092 -2.79 -6.697c-0.93 -2.604 -1.209 -4.743 -0.837 -6.417c0.372 -1.674 1.488 -2.511 3.348 -2.511c4.093 0 6.418 -0.279 6.976 -0.837c0.558 -0.558 0.093 -1.674 -1.395 -3.348c-1.488 -1.675 -2.232 -3.07 -2.232 -4.186c-0.372 -1.488 -0.652 -3.813 -0.838 -6.975c-0.186 -3.162 -0.465 -5.488 -0.837 -6.976c0 0 -2.79 -3.348 -2.79 -3.348c-1.86 -2.232 -3.999 -4.743 -6.417 -7.533c-2.418 -2.791 -3.813 -4.558 -4.185 -5.302c-1.489 3.721 -4.558 5.302 -9.208 4.744c-4.65 -0.558 -8.092 -2.326 -10.324 -5.302c0.372 0.744 0.279 1.953 -0.279 3.628c-0.558 1.674 -0.837 2.883 -0.837 3.627c-5.208 0 -8.37 -0.186 -9.486 -0.558c0.372 -2.232 0.93 -6.139 1.674 -11.719c0.744 -5.58 1.488 -9.673 2.232 -12.277c0.372 -1.86 1.395 -4.371 3.069 -7.533c1.674 -3.163 3.162 -6.046 4.464 -8.65c1.302 -2.604 2.14 -5.208 2.512 -7.812c0.372 -2.605 -0.465 -4.558 -2.512 -5.86c-2.046 -1.302 -5.487 -1.767 -10.323 -1.395c-7.441 0.372 -12.835 4.464 -16.183 12.277c-0.372 1.116 -0.93 3.255 -1.674 6.417c-0.744 3.163 -1.675 5.488 -2.791 6.976c-1.116 1.488 -2.79 2.79 -5.022 3.906c-2.976 1.116 -7.998 1.488 -15.067 1.116c-7.068 -0.372 -11.905 -1.302 -14.509 -2.79c-5.208 -2.976 -9.672 -8.65 -13.393 -17.02c-3.72 -8.371 -5.766 -16.09 -6.138 -23.159c0 -3.72 0.558 -8.835 1.674 -15.346c1.116 -6.51 1.674 -11.532 1.674 -15.067c0 -3.534 -1.116 -8.463 -3.348 -14.787c1.116 -0.745 2.976 -2.698 5.58 -5.86c2.604 -3.162 4.651 -5.301 6.139 -6.417c0.744 -0.744 1.674 -1.116 2.79 -1.116c0 0 2.79 0 2.79 0c0 0 0.744 -0.372 2.232 -1.116c1.488 -0.744 2.046 -1.861 1.674 -3.349c-0.372 -0.372 -1.116 -0.93 -2.232 -1.674c-0.516 -0.516 -0.953 -0.913 -1.31 -1.191c1.81 0.669 5.037 0.694 9.681 0.075c5.58 -0.744 9.114 -1.116 10.602 -1.116c0 -0.372 4.093 -0.372 12.277 0c6.325 4.836 10.789 4.464 13.393 -1.116c0 -0.372 -0.465 -2.325 -1.395 -5.859c-0.93 -3.535 -1.023 -6.232 -0.279 -8.092c1.86 10.789 7.812 12.649 17.857 5.58c1.116 1.489 4.185 2.605 9.208 3.349c5.022 0.744 8.463 1.674 10.323 2.79c1.116 0.744 2.418 1.767 3.907 3.069c1.488 1.302 2.604 2.232 3.348 2.79c0.744 0.558 1.86 0.651 3.348 0.279c1.488 -0.372 3.162 -1.674 5.022 -3.906c4.093 6.324 6.511 10.975 7.255 13.951c4.092 15.997 7.812 24.926 11.16 26.786c2.977 0.744 5.302 1.116 6.976 1.116c1.674 0 2.604 -1.953 2.79 -5.86c0.186 -3.906 0.186 -6.789 0 -8.649c-0.186 -1.86 -0.465 -4.278 -0.837 -7.255c0 0 -1.116 -20.647 -1.116 -20.647c-5.952 -1.116 -9.673 -3.441 -11.161 -6.975c-1.488 -3.535 -1.209 -7.255 0.837 -11.161c2.046 -3.906 5.116 -7.534 9.208 -10.882c0.372 -0.372 3.441 -1.86 9.207 -4.464c5.767 -2.604 9.766 -4.836 11.998 -6.697c8.929 -7.068 12.091 -14.322 9.487 -21.763c3.348 0.744 5.394 -0.93 6.138 -5.022c0 0 -2.79 -1.674 -2.79 -1.674c-1.488 -1.116 -2.976 -2.14 -4.464 -3.07c-1.295 -0.809 -2.168 -1.125 -2.618 -0.948c3.93 -2.588 4.244 -5.899 0.944 -9.933c1.86 -1.116 3.348 -3.256 4.464 -6.418c1.116 -3.162 2.79 -5.301 5.022 -6.417c3.349 5.208 7.441 5.766 12.277 1.674c2.976 -3.348 3.348 -6.696 1.116 -10.045c1.86 -2.976 5.953 -5.115 12.277 -6.417c6.324 -1.302 10.045 -3.069 11.161 -5.301c1.86 0.372 3.162 0.372 3.906 0c0.744 -0.372 1.116 -1.209 1.116 -2.512c0 0 0 -4.185 0 -4.185c0 0 0.186 -1.581 0.558 -4.743c0.372 -3.162 0.93 -4.557 1.674 -4.185c1.488 -2.233 4.464 -4.186 8.929 -5.86c4.464 -1.674 7.068 -2.697 7.812 -3.069c0 0 10.603 -6.696 10.603 -6.696c1.243 -1.243 1.448 -1.967 0.614 -2.172c6.447 0.555 12.195 -1.511 17.243 -6.199c4.836 -4.464 3.906 -8.742 -2.79 -12.835c0.744 -2.604 0 -4.557 -2.232 -5.859c-2.232 -1.302 -5.209 -2.325 -8.929 -3.069c1.116 -0.372 3.348 -0.465 6.697 -0.279c3.348 0.186 5.58 -0.093 6.696 -0.837c5.58 -4.093 4.278 -7.255 -3.906 -9.487c-7.441 -1.86 -16.183 0.558 -26.228 7.254c-1.116 0.745 -3.534 2.977 -7.254 6.697c-3.721 3.72 -6.883 5.766 -9.487 6.138c5.58 -6.696 6.51 -10.788 2.79 -12.277c2.976 0.373 7.162 -1.302 12.556 -5.022c5.394 -3.72 8.277 -5.766 8.649 -6.138c1.489 -0.744 3.442 -1.209 5.86 -1.395c2.418 -0.186 3.999 -0.465 4.743 -0.837c26.414 -9.301 43.527 -9.115 51.339 0.558c2.977 -4.093 5.023 -6.883 6.139 -8.371c1.116 -1.488 2.883 -3.162 5.301 -5.022c2.418 -1.86 5.302 -3.348 8.65 -4.464c7.812 -2.605 12.091 -4.279 12.835 -5.023c0 0 0.558 -12.835 0.558 -12.835c-4.465 0.372 -7.813 -1.116 -10.045 -4.464c-2.232 -3.348 -3.534 -7.44 -3.906 -12.277c0 0 -3.349 4.465 -3.349 4.465c0 -2.233 -0.651 -3.628 -1.953 -4.186c-1.302 -0.558 -2.697 -0.651 -4.185 -0.279c-1.488 0.372 -3.255 0.744 -5.301 1.116c-2.046 0.372 -3.441 0.372 -4.186 0c-3.348 -0.744 -6.975 -3.627 -10.881 -8.649c-3.906 -5.022 -6.604 -8.092 -8.092 -9.208c3.348 0 5.023 -0.93 5.023 -2.79c-0.744 -1.86 -2.605 -3.348 -5.581 -4.464c0.372 -2.232 0 -3.72 -1.116 -4.465c-1.116 -0.744 -2.79 -0.744 -5.022 0c-0.744 -4.464 -0.93 -6.882 -0.558 -7.254c-2.232 -0.372 -4.278 -2.418 -6.139 -6.138c-1.86 -3.721 -3.348 -5.581 -4.464 -5.581c-0.744 0 -1.581 0.372 -2.511 1.116c-0.93 0.744 -1.86 1.767 -2.79 3.07c0 0 -2.79 3.906 -2.79 3.906c0 0 -0.651 1.023 -1.954 3.069c0 0 -1.116 1.116 -1.116 1.116c-4.464 -2.232 -8.928 -0.372 -13.392 5.58c-3.349 -0.372 -6.511 0 -9.487 1.116c5.58 -2.232 5.952 -4.65 1.116 -7.254c-4.092 -1.86 -7.998 -2.232 -11.719 -1.116c4.465 -1.86 6.325 -4.464 5.581 -7.813c-0.744 -3.348 -2.977 -6.324 -6.697 -8.928c0.372 0 1.116 0.186 2.232 0.558c1.116 0.372 1.86 0.558 2.232 0.558c-0.372 -1.86 -2.139 -3.627 -5.301 -5.301c-3.162 -1.674 -6.789 -3.349 -10.882 -5.023c-4.092 -1.674 -6.696 -2.883 -7.812 -3.627c-2.604 -1.86 -9.301 -3.813 -20.089 -5.859c-10.789 -2.046 -17.485 -2.325 -20.09 -0.837c-1.86 1.116 -2.976 2.232 -3.348 3.348c-0.372 1.116 -0.093 2.697 0.837 4.743c0.93 2.046 1.581 3.627 1.953 4.743c2.232 8.557 3.163 13.579 2.791 15.067c-0.372 1.116 -1.954 2.605 -4.744 4.465c-2.79 1.86 -3.813 4.092 -3.069 6.696c0.372 1.488 2.511 3.348 6.417 5.58c3.907 2.233 6.232 4.465 6.976 6.697c1.86 4.836 1.116 9.487 -2.232 13.951c-1.488 1.86 -4.279 3.906 -8.371 6.138c-4.092 2.232 -6.696 4.092 -7.812 5.581c-1.86 1.86 -2.511 3.999 -1.953 6.417c0.558 2.418 0.651 4.185 0.279 5.301c0.372 -0.372 0.558 -0.837 0.558 -1.395c0 -0.558 0.186 -1.023 0.558 -1.395c0 4.836 2.046 8.929 6.138 12.277c2.976 2.232 0 5.58 -8.929 10.045c-7.44 4.092 -11.16 4.836 -11.16 2.232c0.372 -2.976 -1.023 -5.953 -4.185 -8.929c-3.163 -2.976 -5.116 -5.208 -5.86 -6.696c-0.744 -1.488 -1.395 -5.023 -1.953 -10.603c-0.558 -5.58 -2.325 -9.487 -5.301 -11.719c-2.232 -1.488 -5.767 -2.232 -10.603 -2.232c-4.836 0 -8.185 0.93 -10.045 2.79c0 -3.72 -9.114 -9.3 -27.343 -16.741c-6.325 -2.976 -17.113 -3.72 -32.366 -2.232c2.604 -0.372 2.604 -3.534 0 -9.487c-2.977 -5.952 -6.883 -8.184 -11.719 -6.696c-2.976 -9.301 -3.72 -15.811 -2.232 -19.531c0.744 -1.86 2.418 -4.464 5.022 -7.813c2.604 -3.348 4.278 -6.138 5.022 -8.37c0.372 -1.116 3.255 -2.232 8.65 -3.348c5.394 -1.117 8.463 -2.605 9.207 -4.465c0.372 -1.488 -0.093 -2.697 -1.395 -3.627c-1.302 -0.93 -3.069 -1.767 -5.301 -2.511c19.717 2.232 31.436 -1.116 35.156 -10.045c1.767 -3.179 2.359 -5.688 1.777 -7.525c0.157 0.18 0.495 0.271 1.013 0.271c0.744 0 1.116 0.186 1.116 0.558c4.465 -1.116 5.767 -4.278 3.907 -9.487c7.068 -2.976 11.905 -4.464 14.509 -4.464c1.86 0.372 3.906 1.488 6.138 3.348c2.232 1.86 4.092 2.79 5.58 2.79c6.325 1.116 10.324 -0.744 11.998 -5.58c1.674 -4.836 -0.093 -9.115 -5.301 -12.835c2.604 1.488 3.906 0.372 3.906 -3.348c-0.372 -4.836 -1.674 -8.371 -3.906 -10.603c-1.116 -0.744 -2.325 -1.209 -3.627 -1.395c-1.302 -0.186 -2.512 -0.186 -3.628 0c-1.116 0.186 -2.418 0.093 -3.906 -0.279c-0.372 0 -1.86 -0.372 -4.464 -1.116c-0.372 0.372 -0.744 0.558 -1.116 0.558c0 0 -4.465 0 -4.465 0c-1.488 0.744 -2.232 1.674 -2.232 2.79c0 0 0 0.558 0 0.558c-0.372 1.116 0.372 2.232 2.232 3.349c0 0 2.791 0.558 2.791 0.558c0 0 1.674 1.116 1.674 1.116c-0.372 0 -0.837 0.465 -1.395 1.395c-0.558 0.93 -1.023 1.395 -1.395 1.395c0 1.116 0.558 2.046 1.674 2.79c-0.744 0.372 -3.349 1.767 -7.813 4.185c-4.464 2.418 -7.626 4.372 -9.486 5.86c-0.372 0.372 -1.116 0.837 -2.233 1.395c-1.116 0.558 -1.86 1.023 -2.232 1.395c-0.744 0.372 -1.488 0 -2.232 -1.116c-0.744 -1.116 -1.488 -2.79 -2.232 -5.023c-0.744 -2.232 -1.488 -4.371 -2.232 -6.417c-0.744 -2.046 -1.581 -3.906 -2.511 -5.58c-0.93 -1.674 -1.953 -2.512 -3.069 -2.512c-4.465 0 -7.813 3.163 -10.045 9.487c1.116 -3.72 -1.302 -6.975 -7.255 -9.766c-5.952 -2.79 -10.602 -4.185 -13.95 -4.185c7.44 -5.58 5.766 -11.161 -5.023 -16.741c0 0 -0.558 -0.558 -0.558 -0.558c-11.161 1.488 -19.531 2.79 -25.111 3.906c-0.744 2.232 -0.186 4.465 1.674 6.697c0 0 0 -1.116 0 -1.116c0.372 0.744 0.93 1.767 1.674 3.069c0.744 1.302 1.302 2.325 1.674 3.069c0 0 -3.348 -5.022 -3.348 -5.022c-0.372 2.604 0.744 4.278 3.348 5.022c1.116 0.372 3.069 0.651 5.859 0.837c2.79 0.186 4.558 0.465 5.302 0.837c1.116 0.372 1.953 0.744 2.511 1.116c0 0 4.185 2.79 4.185 2.79c0 0 1.023 1.117 3.069 3.349c2.046 2.232 1.581 3.162 -1.395 2.79c-0.744 0.372 -2.418 1.116 -5.022 2.232c-2.604 1.116 -4.929 2.139 -6.976 3.069c-2.046 0.93 -3.255 1.581 -3.627 1.953c-1.116 1.86 -1.116 4.837 0 8.929c1.116 4.092 0.744 6.882 -1.116 8.37c-1.86 -1.86 -3.72 -5.301 -5.58 -10.323c-1.506 -4.065 -2.767 -6.972 -3.785 -8.721c0.934 2.526 -4.873 3.294 -17.421 2.303c0 0 -4.464 -0.558 -4.464 -0.558c-1.488 0 -4.278 0.372 -8.37 1.116c-4.093 0.744 -7.069 0.93 -8.929 0.558c-2.604 0 -7.999 -1.116 -16.183 -3.348c0 0.744 -0.186 1.116 -0.558 1.116c0 0 -0.558 -1.116 -0.558 -1.116c0 0 1.116 0 1.116 0c2.604 -6.324 3.534 -10.975 2.79 -13.951c1.86 0 3.162 -0.372 3.906 -1.116c0 0 -3.348 -1.674 -3.348 -1.674c-1.116 0.372 -5.766 2.046 -13.951 5.022c0.744 1.117 2.232 2.884 4.465 5.302c2.232 2.418 3.906 4.557 5.022 6.417c-8.185 -2.232 -13.207 -1.86 -15.067 1.116c0 0.372 -1.674 0.372 -5.022 0c-9.301 -0.372 -13.765 0.93 -13.393 3.907c0.372 1.488 2.046 3.72 5.022 6.696c0 3.348 -0.186 5.022 -0.558 5.022c-10.045 -8.184 -15.625 -12.463 -16.741 -12.835c-63.988 30.878 -115.327 77.009 -154.018 138.393c0 0 0 0 0 0m264.509 231.585c0.25 0.187 0.557 0.348 0.922 0.483c-0.415 -0.322 -0.722 -0.483 -0.922 -0.483c0 0 0 0 0 0m16.741 -334.821c0.372 0 1.581 0.186 3.627 0.558c2.046 0.372 4 0.744 5.86 1.116c1.86 0.372 3.534 0.744 5.022 1.116c-5.952 -0.744 -10.789 -1.674 -14.509 -2.79c0 0 0 0 0 0m27.902 -19.532c0.15 0.075 0.428 0.158 0.835 0.248c-0.382 -0.165 -0.66 -0.248 -0.835 -0.248c0 0 0 0 0 0m0.835 0.246c1.612 0.357 5.24 0.832 10.884 1.426c-2.232 1.489 -3.72 2.605 -4.464 3.349c0 0 -1.675 -1.116 -1.675 -1.116c-0.744 -1.116 -1.767 -2.046 -3.069 -2.791c-0.689 -0.393 -1.247 -0.683 -1.676 -0.868c0 0 0 0 0 0m10.884 1.429c2.604 -1.489 5.115 -1.954 7.533 -1.396c2.418 0.559 3.813 1.954 4.185 4.186c-1.86 -1.116 -5.766 -2.046 -11.718 -2.79c0 0 0 0 0 0m11.718 2.79c0 0.113 0.035 0.208 0.103 0.287c-0.031 -0.098 -0.065 -0.193 -0.103 -0.287c0 0 0 0 0 0m51.34 685.268c75.148 -13.393 140.625 -47.061 196.428 -101.005c0 0 -1.674 0 -1.674 0c0 0 2.79 -1.116 2.79 -1.116c0 0 2.79 -2.79 2.79 -2.79c-2.604 -3.72 -7.998 -5.952 -16.183 -6.697c0.372 -4.464 -2.232 -9.393 -7.812 -14.787c-5.58 -5.395 -10.603 -8.278 -15.067 -8.65c0 -1.488 -1.953 -3.534 -5.859 -6.138c-3.907 -2.605 -7.162 -4.093 -9.766 -4.465c-3.348 -0.744 -8.371 0.93 -15.067 5.023c-2.147 0.92 -3.03 1.714 -2.648 2.381c-1.213 -1.176 -3.306 -3.086 -6.281 -5.73c-3.348 -2.976 -6.324 -5.022 -8.928 -6.138c-0.744 -0.372 -2.139 -0.558 -4.185 -0.558c-2.047 0 -3.628 -0.372 -4.744 -1.116c-0.372 -0.372 -1.488 -1.209 -3.348 -2.511c-1.86 -1.302 -3.162 -2.139 -3.906 -2.511c-0.744 -0.372 -1.953 -0.93 -3.627 -1.675c-1.675 -0.744 -3.07 -1.023 -4.186 -0.837c-1.116 0.186 -2.511 0.651 -4.185 1.396c-1.674 0.744 -3.255 1.86 -4.743 3.348c-1.488 1.488 -2.325 4.371 -2.511 8.649c-0.186 4.279 -0.651 6.976 -1.396 8.092c-2.976 -2.232 -3.069 -5.953 -0.279 -11.161c2.791 -5.208 3.07 -8.928 0.838 -11.161c-2.605 -2.604 -6.511 -2.697 -11.719 -0.279c-5.209 2.419 -9.115 5.302 -11.719 8.65c-0.372 0.372 -2.139 1.395 -5.301 3.069c-3.163 1.674 -5.302 3.069 -6.418 4.185c-1.488 2.233 -3.162 5.488 -5.022 9.766c-1.86 4.278 -2.976 6.789 -3.348 7.533c0 -0.744 -0.465 -1.953 -1.395 -3.627c-0.93 -1.674 -1.395 -2.883 -1.395 -3.627c-4.465 0.744 -7.441 0.186 -8.929 -1.674c1.727 5.527 3.134 8.648 4.219 9.364c-0.662 -0.331 -1.324 -0.662 -1.987 -0.994c-0.372 2.233 0.186 5.023 1.674 8.371c1.488 3.348 2.232 5.394 2.232 6.138c0.372 1.86 0.093 4.279 -0.837 7.255c-0.93 2.976 -1.395 5.022 -1.395 6.138c0 0.744 0.93 2.79 2.79 6.139c1.489 7.068 1.116 13.02 -1.116 17.857c0 0.372 -0.651 1.674 -1.953 3.906c-1.302 2.232 -2.511 4.278 -3.627 6.138c0 0 -1.116 2.791 -1.116 2.791c0 0 -1.116 -0.558 -1.116 -0.558c-0.372 -0.372 -0.744 -0.372 -1.116 0c-0.372 2.232 -2.046 4.65 -5.023 7.254c-2.976 2.604 -4.836 4.65 -5.58 6.138c-5.58 8.557 -7.254 15.625 -5.022 21.206c1.116 2.976 2.976 4.836 5.58 5.58c1.116 0.372 1.674 0 1.674 -1.116c0.372 3.348 -1.674 8.371 -6.138 15.067c0.372 0.372 1.116 0.93 2.232 1.674c-6.324 0 -8.185 2.604 -5.58 7.813c0 0 0 0 0 0m25.424 -126.797c0.084 0.055 0.165 0.096 0.245 0.123c-0.081 -0.041 -0.163 -0.082 -0.245 -0.123c0 0 0 0 0 0m5.268 -283.36c0.058 -0.037 0.116 -0.074 0.172 -0.111c-0.067 0.026 -0.124 0.063 -0.172 0.111c0 0 0 0 0 0m82.031 -76.451c0.205 0.023 0.41 0.044 0.614 0.061c-0.164 -0.04 -0.369 -0.061 -0.614 -0.061c0 0 0 0 0 0m15.212 348.364c0.081 0.142 0.22 0.278 0.415 0.409c-0.124 -0.125 -0.263 -0.261 -0.415 -0.409c0 0 0 0 0 0m37.801 -430.395c1.116 0.744 2.976 1.674 5.581 2.79c-2.233 1.488 -3.349 1.675 -3.349 0.558c-0.372 -0.372 -0.837 -0.93 -1.395 -1.674c-0.558 -0.744 -0.837 -1.302 -0.837 -1.674c0 0 0 0 0 0m5.581 2.79c4.092 -2.604 8.742 -6.696 13.95 -12.276c0 0 0 0.558 0 0.558c0 0.744 -1.767 2.604 -5.301 5.58c-3.534 2.976 -5.673 5.208 -6.417 6.696c-0.372 -0.372 -1.116 -0.558 -2.232 -0.558c0 0 0 0 0 0" />
  </g>
</svg>