<svg height="1000px" width="857.1428571428571px" xmlns="http://www.w3.org/2000/svg">
  <g>
    <path d="M0 499.99999999999994c0 -77.753 19.159 -149.461 57.478 -215.123c38.318 -65.662 90.308 -117.652 155.971 -155.971c65.662 -38.318 137.369 -57.477 215.122 -57.477c77.753 0 149.461 19.159 215.123 57.477c65.662 38.319 117.653 90.309 155.971 155.971c38.319 65.662 57.478 137.37 57.478 215.123c0 77.753 -19.159 149.461 -57.478 215.123c-38.318 65.662 -90.309 117.652 -155.971 155.971c-65.662 38.318 -137.37 57.477 -215.123 57.477c-77.753 0 -149.46 -19.159 -215.122 -57.477c-65.663 -38.319 -117.653 -90.309 -155.971 -155.971c-38.319 -65.662 -57.478 -137.37 -57.478 -215.123c0 0 0 0 0 0m97.098 -208.705c0 1.86 1.116 2.79 3.348 2.79c-2.604 0.744 -3.162 2.604 -1.674 5.58c0 0 1.116 0.558 1.116 0.558c0.744 0.744 1.488 0.93 2.233 0.558c2.976 -1.488 4.464 -2.79 4.464 -3.906c0 0 1.674 -0.558 1.674 -0.558c0 0 0.558 1.674 0.558 1.674c-0.744 0.744 -0.744 1.488 0 2.232c0.744 0.744 1.302 1.116 1.674 1.116c0 0 1.674 0.558 1.674 0.558c0 0 0 1.116 0 1.116c-2.232 0 -3.348 0.558 -3.348 1.675c0 0 -1.674 2.79 -1.674 2.79c0 0 0 1.116 0 1.116c0 0.372 1.302 1.209 3.906 2.511c2.604 1.302 4.557 1.674 5.859 1.116c1.303 -0.558 1.954 -1.023 1.954 -1.395c1.488 -1.488 2.232 -2.418 2.232 -2.79c0 0 0.558 1.116 0.558 1.116c-0.744 1.488 -0.372 2.604 1.116 3.348c0 0 0 0.558 0 0.558c0 1.116 0.186 1.674 0.558 1.674c0 0 0.558 0.558 0.558 0.558c-0.744 1.116 -0.744 2.232 0 3.348c0 0 0 0.558 0 0.558c0 0 -0.558 2.233 -0.558 2.233c0 0 2.79 0 2.79 0c0 0 2.232 2.232 2.232 2.232c0 4.464 1.302 5.394 3.906 2.79c0 0 1.117 -0.558 1.117 -0.558c-1.861 2.976 -1.303 4.464 1.674 4.464c1.116 0.372 2.232 0 3.348 -1.116c0.744 1.488 1.86 2.046 3.348 1.674c0 0 0.558 0 0.558 0c-1.488 1.488 -2.232 3.255 -2.232 5.302c0 2.046 0.93 3.069 2.79 3.069c0 0 0.558 0 0.558 0c0 0 2.79 -2.232 2.79 -2.232c0 -0.372 0.186 -0.558 0.558 -0.558c0 2.232 0.93 2.79 2.791 1.674c0 0.372 0.93 0.558 2.79 0.558c0 0 0 0.558 0 0.558c-1.488 1.488 -1.302 2.232 0.558 2.232c-0.372 0.744 -0.186 1.488 0.558 2.232c0.744 0.744 1.302 1.116 1.674 1.116c0 0 0.558 0.558 0.558 0.558c0 0.744 0.372 1.116 1.116 1.116c0 0 0.558 0.558 0.558 0.558c0 0 0 2.232 0 2.232c0 1.488 0.558 2.419 1.674 2.791c0 1.116 0.372 2.046 1.116 2.79c-0.744 0.744 -1.116 1.488 -1.116 2.232c0 0 -0.558 4.464 -0.558 4.464c0 0 -2.232 1.674 -2.232 1.674c0 0 -1.674 0.558 -1.674 0.558c0 0 -1.116 -0.558 -1.116 -0.558c0.372 -0.372 0.186 -1.302 -0.558 -2.79c1.488 -1.86 2.232 -3.348 2.232 -4.464c-0.372 -0.372 -1.116 -0.558 -2.232 -0.558c0 0 -1.674 1.674 -1.674 1.674c0 0 -1.116 0 -1.116 0c0 0 -3.907 -2.232 -3.907 -2.232c0 0 -1.116 -2.232 -1.116 -2.232c-1.488 -1.489 -2.604 -1.489 -3.348 0c-1.86 2.232 -0.372 6.324 4.464 12.276c0 1.488 0.558 2.419 1.674 2.791c-0.372 0.372 -0.372 1.023 0 1.953c0.372 0.93 1.117 1.395 2.233 1.395c0 0 0.558 1.674 0.558 1.674c-0.372 -0.372 -1.023 -0.558 -1.953 -0.558c-0.931 0 -1.768 0.372 -2.512 1.116c0 0 0 2.232 0 2.232c0 0 1.116 3.906 1.116 3.906c-0.744 0 -1.116 0.558 -1.116 1.674c0 0 -2.232 17.858 -2.232 17.858c-2.232 2.232 -2.79 4.836 -1.674 7.812c0 0 0 3.348 0 3.348c0 0 1.674 2.79 1.674 2.79c0 0 0 3.349 0 3.349c0 0 -0.558 0 -0.558 0c0 0 -0.558 1.674 -0.558 1.674c0 0 1.116 0.558 1.116 0.558c0.149 0 0.268 -0.03 0.357 -0.089c-0.491 1.145 -0.982 2.291 -1.473 3.437c0 0 0 1.116 0 1.116c0 0 1.116 1.674 1.116 1.674c0 0 0 1.116 0 1.116c-0.372 0 -0.558 0.372 -0.558 1.116c0 0 -0.558 1.674 -0.558 1.674c0 0.744 0.372 1.489 1.116 2.233c0 0 0.558 0 0.558 0c2.232 2.232 3.348 5.394 3.348 9.486c0 0 0.559 0.558 0.559 0.558c0 0 0 0.558 0 0.558c0 0 1.116 2.232 1.116 2.232c0 0 0 1.116 0 1.116c0 0 4.464 4.465 4.464 4.465c0 2.976 1.86 3.534 5.58 1.674c0 0 1.674 0.558 1.674 0.558c-1.488 0.744 -1.86 1.674 -1.116 2.79c0 0 0 2.79 0 2.79c-1.86 1.86 -1.302 3.534 1.674 5.023c0 0 0.558 0 0.558 0c0 0 1.116 0.558 1.116 0.558c0 0 0 1.674 0 1.674c0 0 -0.558 0.558 -0.558 0.558c0 0.372 -0.186 0.93 -0.558 1.674c0 0 3.907 5.58 3.907 5.58c0 0 1.116 1.116 1.116 1.116c1.488 1.86 2.418 2.79 2.79 2.79c0 0 2.232 1.675 2.232 1.675c0 0 6.138 3.348 6.138 3.348c0 0 0 2.79 0 2.79c0 0 -0.418 -0.14 -0.418 -0.14c0 0 5.441 4.604 5.441 4.604c0 0.744 0.372 1.116 1.116 1.116c0 0 2.79 1.116 2.79 1.116c0 0 1.116 0 1.116 0c0 0 2.232 1.116 2.232 1.116c0 0.745 0.372 1.117 1.116 1.117c0 0 2.232 1.116 2.232 1.116c0 0 5.023 5.022 5.023 5.022c0 0 1.116 2.79 1.116 2.79c0 0 0.558 1.116 0.558 1.116c0 0 0 1.116 0 1.116c0 0 2.232 3.906 2.232 3.906c0 0 0 1.117 0 1.117c0 0 1.116 1.116 1.116 1.116c0 0.372 0.558 1.116 1.674 2.232c0 0 -0.558 1.116 -0.558 1.116c0 0.744 0.93 2.418 2.79 5.022c0 0 0 1.116 0 1.116c0 0 3.349 5.581 3.349 5.581c0 0.744 0.93 1.488 2.79 2.232c0 0 0 1.116 0 1.116c0 0.744 -0.186 1.116 -0.558 1.116c0 0 -0.558 2.232 -0.558 2.232c0 0 8.928 7.813 8.928 7.813c0 0.744 0.372 1.116 1.116 1.116c0 0 2.232 2.79 2.232 2.79c0 0 0.558 4.464 0.558 4.464c-0.372 0.372 -0.558 0.744 -0.558 1.116c0 0 0 2.232 0 2.232c0 1.488 0.372 2.232 1.117 2.232c0 0 -1.117 0 -1.117 0c-2.604 0 -3.534 0.744 -2.79 2.233c2.976 5.208 5.581 6.882 7.813 5.022c1.116 0.372 1.674 0.186 1.674 -0.558c0 0 0 0.558 0 0.558c0 0.744 0.93 1.767 2.79 3.069c1.86 1.302 3.162 1.953 3.906 1.953c0 0 3.349 6.697 3.349 6.697c0 0 0 5.022 0 5.022c0 0 0.558 1.674 0.558 1.674c0 0 1.674 3.348 1.674 3.348c2.976 2.976 4.836 4.279 5.58 3.907c0 0 0 -6.697 0 -6.697c0 0 1.116 -1.116 1.116 -1.116c0 0 -1.116 -5.58 -1.116 -5.58c0 -0.372 -0.093 -0.558 -0.279 -0.558c-0.186 0 -0.279 -0.186 -0.279 -0.558c0 0 -2.232 -6.697 -2.232 -6.697c0 -1.116 -0.744 -1.674 -2.232 -1.674c0 0 -1.674 -3.348 -1.674 -3.348c0 -1.86 -0.558 -2.79 -1.675 -2.79c0 0 -1.116 -1.116 -1.116 -1.116c0 0 0 -1.116 0 -1.116c0 0 -0.558 -0.559 -0.558 -0.559c0 -0.372 -0.744 -1.116 -2.232 -2.232c0 0 -0.558 -1.674 -0.558 -1.674c-0.744 -3.72 -1.674 -5.58 -2.79 -5.58c0 0 -1.674 -3.906 -1.674 -3.906c-0.372 0 -0.558 -0.186 -0.558 -0.558c0 0 -3.348 -4.465 -3.348 -4.465c0 -0.372 -0.744 -1.302 -2.232 -2.79c-1.489 -1.488 -2.419 -2.232 -2.791 -2.232c0 0 -1.674 -2.232 -1.674 -2.232c0 0 -1.116 -7.255 -1.116 -7.255c0 -0.744 -0.372 -1.488 -1.116 -2.232c0 0 0 -5.022 0 -5.022c0 -1.116 -0.186 -1.86 -0.558 -2.232c0 0 -0.558 -1.116 -0.558 -1.116c0 0 6.696 3.906 6.696 3.906c1.117 0 1.861 -0.186 2.233 -0.558c1.86 1.86 2.976 2.79 3.348 2.79c0 0 1.674 0.558 1.674 0.558c0 0 1.116 1.116 1.116 1.116c0 0 -1.674 1.674 -1.674 1.674c0 0 0 1.674 0 1.674c0 0 3.906 3.907 3.906 3.907c0 0 0.558 2.79 0.558 2.79c0 0 2.79 4.464 2.79 4.464c0 0 0 1.116 0 1.116c0 0.744 0.372 1.116 1.116 1.116c0 0 1.116 3.348 1.116 3.348c0.372 0 0.559 0.187 0.559 0.559c0 0 1.116 2.79 1.116 2.79c0.372 0 0.558 0.186 0.558 0.558c0 0 2.232 2.232 2.232 2.232c0.372 -0.372 1.116 0.186 2.232 1.674c0 0 1.674 2.232 1.674 2.232c0 0 4.464 1.674 4.464 1.674c0 0 0 3.348 0 3.348c0.744 2.605 2.046 3.907 3.907 3.907c0 0 1.116 0 1.116 0c0 0 0.558 1.116 0.558 1.116c0 0.744 0.558 1.488 1.674 2.232c0 0 1.674 0 1.674 0c0 0 2.79 5.58 2.79 5.58c0 2.604 0.744 3.907 2.232 3.907c0 0 0 1.116 0 1.116c0 1.116 1.116 2.79 3.348 5.022c0 0 -3.906 2.232 -3.906 2.232c0 0 0 1.116 0 1.116c0 1.116 1.488 1.674 4.464 1.674c0 0 6.697 2.232 6.697 2.232c0 0 4.464 4.465 4.464 4.465c0 0 3.348 5.022 3.348 5.022c0 0 0.558 1.116 0.558 1.116c0.372 0.372 0.558 0.744 0.558 1.116c0 0 6.697 7.813 6.697 7.813c0 0 0 3.348 0 3.348c0 0.744 0.93 2.418 2.79 5.022c0 0 0 1.116 0 1.116c0 0 0.558 3.348 0.558 3.348c0 0 -0.558 1.117 -0.558 1.117c0 0 0 2.79 0 2.79c0 0 0.558 0.558 0.558 0.558c0 0 -1.116 1.116 -1.116 1.116c-0.372 0 -0.744 0.465 -1.116 1.395c-0.372 0.93 -0.372 1.581 0 1.953c0 0 0 1.674 0 1.674c0 0.372 0.186 0.558 0.558 0.558c0 0 3.348 5.022 3.348 5.022c0 0.373 0.372 0.931 1.116 1.675c0 0 3.907 1.116 3.907 1.116c0 0 1.674 1.674 1.674 1.674c0 0 2.232 1.116 2.232 1.116c0 0 2.79 3.906 2.79 3.906c0 0 1.674 1.674 1.674 1.674c0 0 8.929 2.79 8.929 2.79c0 0 2.232 0 2.232 0c0 0 10.602 8.371 10.602 8.371c0 0 1.117 0 1.117 0c0 0 29.017 13.393 29.017 13.393c0 0 1.116 0 1.116 0c0 0 2.233 1.116 2.233 1.116c0 0 8.37 -3.348 8.37 -3.348c2.604 0 3.906 -1.302 3.906 -3.907c0 0 1.116 -1.116 1.116 -1.116c0.372 0.372 1.117 0.558 2.233 0.558c0 0 0 -1.116 0 -1.116c0 0 2.79 0 2.79 0c0 0 2.79 2.79 2.79 2.79c0 0 0.558 2.233 0.558 2.233c0 0 0.558 1.116 0.558 1.116c0 0 3.348 2.79 3.348 2.79c0 0 5.023 5.022 5.023 5.022c0 0.744 1.86 2.976 5.58 6.697c0 0 0.558 1.116 0.558 1.116c0.372 0.372 0.744 0.558 1.116 0.558c0 0 3.906 2.79 3.906 2.79c0 0 1.116 0 1.116 0c0 0 1.674 0.558 1.674 0.558c0 0 2.791 -0.558 2.791 -0.558c0 0 15.067 6.696 15.067 6.696c0 0 1.116 0 1.116 0c0 0 2.232 0.558 2.232 0.558c0 0 0.558 0 0.558 0c0 0 1.116 0.558 1.116 0.558c0.744 0 1.86 -0.744 3.348 -2.232c0 0 3.348 0 3.348 0c-0.744 1.116 -0.558 2.232 0.558 3.348c0 0 0 0.558 0 0.558c-0.744 1.489 2.046 5.953 8.371 13.393c0 0 0 0.558 0 0.558c0 0 5.022 4.465 5.022 4.465c0 0 0 1.116 0 1.116c-0.372 0.372 -0.558 0.744 -0.558 1.116c0 0.372 0.186 0.558 0.558 0.558c0 0 0 2.232 0 2.232c0 1.488 0.372 2.418 1.116 2.79c0 0 1.674 0 1.674 0c0.372 0 0.558 0.186 0.558 0.558c0 0 2.791 2.232 2.791 2.232c0 0 0.558 0 0.558 0c0 0 1.674 2.791 1.674 2.791c0 1.116 0.558 1.674 1.674 1.674c0 0 1.116 0 1.116 0c0 0 5.022 3.348 5.022 3.348c0 0 2.232 0 2.232 0c0 0 2.233 6.138 2.233 6.138c0 0 1.116 0 1.116 0c0.372 0.372 0.744 0 1.116 -1.116c0 0 1.116 -0.558 1.116 -0.558c0 0 2.232 -4.464 2.232 -4.464c0 0 6.138 7.812 6.138 7.812c0 0 0.558 6.139 0.558 6.139c0 2.604 0.744 3.906 2.232 3.906c0 0 1.117 0 1.117 0c0 0 2.232 1.116 2.232 1.116c0 0.372 0.279 0.465 0.837 0.279c0.558 -0.186 1.581 -0.279 3.069 -0.279c1.488 0 2.232 -0.651 2.232 -1.953c0 -0.786 -0.135 -1.47 -0.406 -2.052c0.4 -1.422 0.722 -2.133 0.964 -2.133c0 0 2.79 -8.371 2.79 -8.371c0 0 -2.232 -1.674 -2.232 -1.674c0 0 2.79 0.558 2.79 0.558c0 0 0 -2.79 0 -2.79c0.372 0.372 0.93 0.186 1.674 -0.558c0 0 1.117 0 1.117 0c1.488 0 2.325 -0.372 2.511 -1.116c0.009 -0.036 0.016 -0.071 0.021 -0.107c0.21 1.598 0.854 2.935 1.932 4.013c0 0 1.674 0.558 1.674 0.558c0 0 0 -1.116 0 -1.116c1.116 -1.116 1.674 -1.86 1.674 -2.232c0 0 2.232 7.812 2.232 7.812c0 0 1.674 1.674 1.674 1.674c-1.116 0 -2.232 0.559 -3.348 1.675c-0.372 0.744 0 2.139 1.116 4.185c0 0 1.674 3.627 1.674 3.627c0 0.744 0.372 0.93 1.116 0.558c0 0 1.116 1.116 1.116 1.116c0 0 0 1.674 0 1.674c0 0.744 0.744 1.488 2.233 2.232c0 0 0 3.349 0 3.349c-0.745 1.488 -0.931 2.418 -0.559 2.79c0 0 0 0.558 0 0.558c0 0 -1.116 2.79 -1.116 2.79c-0.372 0.372 -1.116 0.93 -2.232 1.674c-1.116 0.744 -1.674 1.302 -1.674 1.674c0 0 0 3.907 0 3.907c0 0 6.697 2.232 6.697 2.232c0 0 -0.558 2.79 -0.558 2.79c0 1.86 0.744 3.534 2.232 5.022c0 0 -3.907 7.813 -3.907 7.813c0 0 -1.674 3.906 -1.674 3.906c0 0 -2.79 1.674 -2.79 1.674c0 0 -2.232 0.558 -2.232 0.558c-1.488 0 -2.232 1.488 -2.232 4.464c0 0 0.558 0.558 0.558 0.558c0 0 -1.116 1.674 -1.116 1.674c0 0 1.674 2.233 1.674 2.233c0 0 -2.232 -1.674 -2.232 -1.674c-0.744 0.744 -0.744 1.86 0 3.348c0 0 -1.116 2.79 -1.116 2.79c0 0 -2.79 0 -2.79 0c-0.745 0 -1.675 0.558 -2.791 1.674c-2.232 0.744 -3.348 1.86 -3.348 3.348c0 0 0 3.348 0 3.348c0 0 -0.558 2.233 -0.558 2.233c0 0 0 0.558 0 0.558c0 0 -1.674 1.674 -1.674 1.674c-0.744 0 -1.116 0.744 -1.116 2.232c0 0 1.674 1.674 1.674 1.674c-1.116 0 -2.046 0.744 -2.79 2.232c-1.488 1.488 -2.232 2.79 -2.232 3.906c0 0 0.558 1.674 0.558 1.674c0 0 -0.558 1.675 -0.558 1.675c0 0 1.116 3.348 1.116 3.348c0 0 -0.558 2.232 -0.558 2.232c0 1.488 0.372 2.418 1.116 2.79c1.116 1.116 2.046 1.674 2.79 1.674c0 0 0.558 -0.558 0.558 -0.558c1.116 0 1.86 -0.558 2.232 -1.674c0.372 -1.116 0.558 -1.767 0.558 -1.953c0 -0.186 0.186 -0.279 0.558 -0.279c0 0 0.558 5.022 0.558 5.022c0 0 -1.116 2.79 -1.116 2.79c0 0 -0.558 2.791 -0.558 2.791c0 0 -0.558 0.558 -0.558 0.558c0 0 -1.116 0.558 -1.116 0.558c0 0 -3.348 3.348 -3.348 3.348c0 0 0 1.674 0 1.674c0 0 2.232 1.116 2.232 1.116c0 0 0 0.558 0 0.558c0 0 -3.348 0.558 -3.348 0.558c0 0 -3.906 1.674 -3.906 1.674c0 0 -0.558 1.116 -0.558 1.116c0 0 -0.559 1.674 -0.559 1.674c0.372 0.372 0.559 0.744 0.559 1.117c0 0 1.116 2.232 1.116 2.232c0 0 0 1.674 0 1.674c0 0.372 0.186 0.558 0.558 0.558c0 0 6.138 3.906 6.138 3.906c0 0 0 2.79 0 2.79c0 0 -3.348 2.232 -3.348 2.232c-1.116 1.116 -1.488 1.86 -1.116 2.233c0 0 5.58 3.348 5.58 3.348c84.822 -15.625 156.622 -55.246 215.402 -118.862c-0.372 -0.372 -0.837 -0.558 -1.395 -0.558c-0.558 0 -0.837 0.558 -0.837 1.674c0 0 0 -1.674 0 -1.674c0 0 -0.558 0 -0.558 0c-1.86 0.744 -3.163 1.116 -3.907 1.116c0 0 -0.558 0 -0.558 0c0 0 -1.116 -2.232 -1.116 -2.232c0 0 -2.79 -1.116 -2.79 -1.116c0 0 -3.348 -0.558 -3.348 -0.558c-0.744 -0.744 -2.046 -0.186 -3.906 1.674c0 0 -1.674 -0.558 -1.674 -0.558c0 0 0 -1.674 0 -1.674c0 -0.372 -2.233 -1.302 -6.697 -2.79c0 0 -5.022 -0.558 -5.022 -0.558c0 0 -1.674 -2.232 -1.674 -2.232c-0.372 0 -0.558 -0.187 -0.558 -0.559c0 0 -1.116 -0.558 -1.116 -0.558c0 -0.372 -0.186 -0.558 -0.558 -0.558c0 0 -0.558 -0.558 -0.558 -0.558c0 0 -1.675 0.558 -1.675 0.558c0 0 0 -1.116 0 -1.116c0 0 -1.674 -1.674 -1.674 -1.674c0 0 0 -2.232 0 -2.232c0 0 -1.116 -2.232 -1.116 -2.232c0 -0.372 -2.232 -2.79 -6.696 -7.255c0 0 -1.116 -0.558 -1.116 -0.558c0 0 -1.674 -0.558 -1.674 -0.558c0 0 -0.558 -0.558 -0.558 -0.558c0 -0.744 -1.302 -1.86 -3.907 -3.348c0 0 -1.116 0 -1.116 0c-0.106 -0.424 -0.212 -0.849 -0.318 -1.273c0.104 0.051 0.21 0.103 0.318 0.157c0 0 0 -1.116 0 -1.116c-0.212 -0.106 -0.425 -0.213 -0.637 -0.319c-0.16 -0.638 -0.319 -1.275 -0.479 -1.913c0 0 -1.34 0 -1.34 0c-0.095 -0.09 -0.206 -0.183 -0.334 -0.279c-0.744 -0.558 -1.116 -1.209 -1.116 -1.953c0 -1.488 -0.93 -2.232 -2.79 -2.232c-0.744 -0.744 -1.488 -1.116 -2.232 -1.116c-0.744 0 -1.302 0.372 -1.674 1.116c-0.372 -0.744 -1.488 -1.116 -3.349 -1.116c0 0 -1.674 -1.675 -1.674 -1.675c0 -0.744 -0.558 -1.116 -1.674 -1.116c0 0 -1.116 0 -1.116 0c0 -0.372 -0.372 -0.93 -1.116 -1.674c0 0 -0.558 0 -0.558 0c0 0 0 -1.674 0 -1.674c0 -0.372 -0.372 -0.93 -1.116 -1.674c-0.744 -0.744 -1.488 -0.93 -2.232 -0.558c0 0 -1.116 0 -1.116 0c-1.488 0.744 -2.232 1.488 -2.232 2.232c0 0 -2.791 1.116 -2.791 1.116c0 0 -6.138 6.139 -6.138 6.139c0 0 -2.232 4.464 -2.232 4.464c0 0 -6.139 -6.139 -6.139 -6.139c0 0 -0.558 -5.58 -0.558 -5.58c-0.744 -1.488 -1.674 -2.232 -2.79 -2.232c0 0 -5.022 0 -5.022 0c0 0 -8.929 1.674 -8.929 1.674c0 0 -1.674 -2.79 -1.674 -2.79c0 -1.86 -0.372 -2.79 -1.116 -2.79c0 0 -1.116 -2.232 -1.116 -2.232c0 0 -3.906 -2.233 -3.906 -2.233c0 0 -3.906 0 -3.906 0c-1.116 -0.744 -4 -0.093 -8.65 1.954c-4.65 2.046 -6.975 3.441 -6.975 4.185c0 0 -0.558 1.116 -0.558 1.116c0 0 0 2.232 0 2.232c0 0 0.558 2.232 0.558 2.232c0 0.372 0.186 0.558 0.558 0.558c0 0 0 2.79 0 2.79c0 0 -1.116 0.558 -1.116 0.558c0 0 0 6.697 0 6.697c0 0 -1.675 0 -1.675 0c0 0 -1.116 -2.79 -1.116 -2.79c0 0 -0.558 0 -0.558 0c0 0 -1.116 -4.465 -1.116 -4.465c2.604 -4.464 3.907 -6.975 3.907 -7.533c0 -0.558 -0.186 -1.023 -0.558 -1.395c0 0 0 -1.116 0 -1.116c0 0 1.116 -3.348 1.116 -3.348c0 0 0 -2.233 0 -2.233c0 -0.744 -1.116 -1.674 -3.349 -2.79c0 0 -3.906 0 -3.906 0c0 0 -3.348 1.674 -3.348 1.674c0 0 -0.558 0 -0.558 0c0 0 -3.906 3.907 -3.906 3.907c0 0 -4.465 0 -4.465 0c-1.488 0 -2.79 1.488 -3.906 4.464c0 0 -0.558 0.558 -0.558 0.558c-2.976 -1.86 -4.836 -2.046 -5.58 -0.558c-2.232 1.488 -3.349 2.79 -3.349 3.906c0 0 0 1.116 0 1.116c0 0 -1.674 1.116 -1.674 1.116c0 0.372 -0.186 0.558 -0.558 0.558c-0.372 0 -0.558 0.186 -0.558 0.558c0 0 0 1.674 0 1.674c0 0 0.558 1.675 0.558 1.675c0 0.744 0.558 1.674 1.674 2.79c0 0 -0.558 2.232 -0.558 2.232c0 0 -1.116 0 -1.116 0c-1.86 0 -2.79 0.186 -2.79 0.558c0 0 -0.558 1.674 -0.558 1.674c0 0 -2.232 1.674 -2.232 1.674c-2.232 1.116 -2.976 2.418 -2.232 3.906c0 0 0 3.349 0 3.349c0 0 -1.116 0.558 -1.116 0.558c0 0 0 -1.674 0 -1.674c0 -1.117 -0.186 -1.675 -0.558 -1.675c0 0 -1.116 -3.348 -1.116 -3.348c0 0 -0.558 -5.022 -0.558 -5.022c0 0 -1.116 1.674 -1.116 1.674c0 0 -0.558 3.348 -0.558 3.348c-0.745 -0.744 -1.303 -1.116 -1.675 -1.116c0 0 0 -0.558 0 -0.558c0 0 -0.558 -0.558 -0.558 -0.558c0 -0.744 -1.488 -1.86 -4.464 -3.348c-4.224 -2.112 -6.366 -2.476 -6.427 -1.091c-0.163 -0.566 -0.81 -1.133 -1.943 -1.699c0 0 -1.117 0 -1.117 0c-1.488 -0.744 -2.511 -0.558 -3.069 0.558c-0.558 1.116 -0.651 2.046 -0.279 2.79c0 0 -2.79 0 -2.79 0c0 0 -5.022 1.674 -5.022 1.674c0 0 -1.674 0 -1.674 0c0 0 -1.116 -1.674 -1.116 -1.674c0 0 -2.233 0 -2.233 0c0 0 -2.232 1.674 -2.232 1.674c0 0 -1.116 -0.558 -1.116 -0.558c0 0 -1.116 0 -1.116 0c0 0 -1.116 -1.116 -1.116 -1.116c0 0 -1.116 0.558 -1.116 0.558c0 -0.744 -0.651 -1.581 -1.953 -2.511c-1.302 -0.93 -1.953 -1.767 -1.953 -2.511c0 0 -1.674 -1.116 -1.674 -1.116c0 0 -6.697 -11.719 -6.697 -11.719c-0.372 0 -0.558 -0.186 -0.558 -0.558c0 0 -0.558 -1.674 -0.558 -1.674c1.116 -4.093 1.488 -6.325 1.116 -6.697c0 0 1.674 -6.138 1.674 -6.138c0 0 2.79 0 2.79 0c2.605 -1.116 4.093 -1.86 4.465 -2.232c0 0 1.116 0 1.116 0c0 0 0 -1.674 0 -1.674c0 0 -4.464 -3.349 -4.464 -3.349c0 0 -3.349 -4.464 -3.349 -4.464c0 0 1.674 -3.906 1.674 -3.906c0 0 0 -1.116 0 -1.116c0 0 0.558 -1.116 0.558 -1.116c0 0 -1.674 -3.349 -1.674 -3.349c0 0 1.116 -1.116 1.116 -1.116c0 0 -0.558 0 -0.558 0c-0.372 -0.372 -1.116 0 -2.232 1.116c0 0 -0.558 0 -0.558 0c0 0 -3.348 -7.812 -3.348 -7.812c0 -2.604 -1.116 -3.906 -3.348 -3.906c0 0 -3.348 -6.139 -3.348 -6.139c0 0 -0.558 0 -0.558 0c0 0 -3.907 6.139 -3.907 6.139c0 0 -0.558 0 -0.558 0c0 0 -2.232 -1.116 -2.232 -1.116c0 0 -8.37 -1.116 -8.37 -1.116c0 0 -3.349 -3.907 -3.349 -3.907c0 0 -1.116 0 -1.116 0c0 0 -0.558 3.907 -0.558 3.907c0 0 -0.558 3.348 -0.558 3.348c-0.744 -0.744 -1.674 -0.93 -2.79 -0.558c-1.116 0.372 -1.674 0.744 -1.674 1.116c0 0 -1.116 0.558 -1.116 0.558c-1.116 -1.116 -2.232 -1.116 -3.348 0c-1.116 -1.116 -1.86 -1.674 -2.232 -1.674c0 0 0 -1.674 0 -1.674c0 0 1.674 -2.233 1.674 -2.233c0 0 0.558 0 0.558 0c0 0 3.348 -6.138 3.348 -6.138c0 0 0 -1.116 0 -1.116c0 0 -0.558 -1.674 -0.558 -1.674c0 0 0 -1.674 0 -1.674c2.604 -5.209 2.418 -8.371 -0.558 -9.487c0 0 0.558 -1.116 0.558 -1.116c0 0 0 -1.116 0 -1.116c0 0 0.558 -1.674 0.558 -1.674c0 0 2.79 -0.558 2.79 -0.558c1.488 0 2.232 -0.93 2.232 -2.79c0 0 0.558 -1.674 0.558 -1.674c0 0 0 -3.907 0 -3.907c0 0 5.023 -3.906 5.023 -3.906c0 0 0 -1.116 0 -1.116c0 0 -1.117 -2.79 -1.117 -2.79c0 0 1.117 -2.79 1.117 -2.79c0 -0.744 0.186 -1.302 0.558 -1.674c0 0 0 -2.233 0 -2.233c0.372 -0.744 0.186 -1.488 -0.558 -2.232c-0.744 -0.744 -1.396 -1.023 -1.954 -0.837c-0.558 0.186 -1.023 0.279 -1.395 0.279c0 0 -3.348 -1.116 -3.348 -1.116c0 0 -1.674 0 -1.674 0c0 0 -5.022 0.558 -5.022 0.558c0 0 -0.558 0 -0.558 0c0 0 -10.045 2.232 -10.045 2.232c0 0 -1.116 0 -1.116 0c0 0 -3.906 6.139 -3.906 6.139c0 0 0 0.558 0 0.558c0 0 -1.674 8.37 -1.674 8.37c0 0 0 3.349 0 3.349c-3.721 3.348 -5.581 5.394 -5.581 6.138c0 0 0.558 1.674 0.558 1.674c0 0 -2.79 1.116 -2.79 1.116c0 0 -5.58 -2.232 -5.58 -2.232c0 0 -2.232 0.558 -2.232 0.558c-0.372 0 -0.558 0.093 -0.558 0.279c0 0.186 -0.186 0.279 -0.558 0.279c0 0 -1.675 1.674 -1.675 1.674c0 0 -7.812 0 -7.812 0c0 0 -0.558 -0.558 -0.558 -0.558c0 0 -2.79 0.558 -2.79 0.558c0 0 -1.116 0 -1.116 0c0 0 -0.558 0.558 -0.558 0.558c0 0 -1.675 -1.116 -1.675 -1.116c0 -0.744 -0.558 -1.116 -1.674 -1.116c0 0 -0.558 0 -0.558 0c-2.604 -1.116 -4.092 -1.488 -4.464 -1.116c0 0 -2.79 -1.674 -2.79 -1.674c0 -1.488 -0.372 -2.232 -1.116 -2.232c0 0 -3.906 -8.371 -3.906 -8.371c0 0 0 -0.558 0 -0.558c0 0 -1.117 -1.116 -1.117 -1.116c0 0 0 -0.558 0 -0.558c0 -0.744 -0.372 -1.116 -1.116 -1.116c0 0 -7.254 -16.183 -7.254 -16.183c0 0 0 -0.558 0 -0.558c0 0 -1.116 -6.138 -1.116 -6.138c0 0 0 -1.117 0 -1.117c0.372 0 0.558 -0.372 0.558 -1.116c0 0 0.558 -1.674 0.558 -1.674c0 0 -0.558 -5.58 -0.558 -5.58c0 0 0.558 -3.348 0.558 -3.348c0 0 0 -1.116 0 -1.116c0 0 1.116 -8.371 1.116 -8.371c0 0 0.558 -0.558 0.558 -0.558c0 0 2.79 -6.696 2.79 -6.696c0 -2.233 -1.116 -6.139 -3.348 -11.719c0 0 0.558 -1.116 0.558 -1.116c0 0 0 -1.674 0 -1.674c0 -0.372 -0.744 -1.302 -2.232 -2.79c0 0 1.116 0 1.116 0c1.488 -0.745 2.232 -2.047 2.232 -3.907c1.488 0 2.232 -0.93 2.232 -2.79c1.488 0 2.232 -1.116 2.232 -3.348c0.744 0 1.396 -0.372 1.954 -1.116c0.558 -0.744 1.395 -1.023 2.511 -0.837c1.116 0.186 2.046 0.093 2.79 -0.279c0 0 1.116 0 1.116 0c2.604 -1.488 4.278 -2.976 5.022 -4.465c0 0 0 -1.674 0 -1.674c0 0 -4.464 -1.674 -4.464 -1.674c0 0 0 -1.674 0 -1.674c0 0 8.371 2.79 8.371 2.79c0 0 1.674 0 1.674 0c0.744 -0.372 1.302 -0.558 1.674 -0.558c0 0 1.674 -2.232 1.674 -2.232c0.744 0 1.116 -0.186 1.116 -0.558c0 0 6.696 0 6.696 0c4.837 2.232 7.441 2.79 7.813 1.674c0 0 0.558 0 0.558 0c0 0 0.558 1.674 0.558 1.674c0 0 1.116 0 1.116 0c0 0 1.674 -1.674 1.674 -1.674c0 0 0 -1.116 0 -1.116c0 0 4.464 2.79 4.464 2.79c0 0 4.465 0 4.465 0c0 0 1.116 1.116 1.116 1.116c0.372 -0.372 0.93 -0.558 1.674 -0.558c4.836 -4.836 4.836 -7.254 0 -7.254c0 0 -1.674 -3.348 -1.674 -3.348c0 0 1.674 -7.813 1.674 -7.813c0 0 1.116 0 1.116 0c0 0 0.558 5.022 0.558 5.022c0 0 0.558 4.465 0.558 4.465c0 0 1.674 0.558 1.674 0.558c1.86 0 2.976 -0.558 3.348 -1.674c0 0 2.79 0 2.79 0c0 0 0.559 -0.558 0.559 -0.558c0 0 1.116 0.558 1.116 0.558c0 0 2.79 0 2.79 0c0 0 3.906 -2.79 3.906 -2.79c0 0 0 0.558 0 0.558c0 1.116 0.558 1.953 1.674 2.511c1.116 0.558 2.046 0.465 2.79 -0.279c0 0 0 -0.558 0 -0.558c0 0 3.349 -1.116 3.349 -1.116c0.744 0.744 1.488 1.116 2.232 1.116c0.744 0 1.302 -0.186 1.674 -0.558c0 0 1.674 0 1.674 0c2.232 1.488 3.534 2.232 3.906 2.232c0 0 1.116 0.558 1.116 0.558c0 0 0 0.558 0 0.558c0.372 0.372 0.558 0.744 0.558 1.116c0 0 1.116 0.558 1.116 0.558c0 0.372 0.186 0.744 0.558 1.116c0 0 0 1.116 0 1.116c1.116 2.232 2.046 3.348 2.791 3.348c0 0 0.558 0 0.558 0c0 0 0.558 0.558 0.558 0.558c0.372 0.744 0.744 0.93 1.116 0.558c0 0 3.906 -1.116 3.906 -1.116c0 0 1.674 0 1.674 0c0 0 1.674 -2.79 1.674 -2.79c0 0 2.232 -1.116 2.232 -1.116c2.604 4.092 4.279 6.138 5.023 6.138c0 0 1.116 0 1.116 0c0 0 2.232 2.791 2.232 2.791c-0.744 4.836 -0.372 8.556 1.116 11.16c-1.116 1.116 -1.302 2.604 -0.558 4.465c0.744 1.86 1.488 2.79 2.232 2.79c0 0 1.674 0.558 1.674 0.558c0 1.116 0.558 2.046 1.674 2.79c0 0 0 1.116 0 1.116c-0.372 0.372 -0.372 1.488 0 3.348c0.372 1.86 1.116 2.79 2.232 2.79c0 0 1.674 1.117 1.674 1.117c0 0 2.233 4.464 2.233 4.464c0 0 1.674 1.674 1.674 1.674c2.604 0 3.906 -0.93 3.906 -2.79c0 0 1.674 -3.906 1.674 -3.906c0 0 0 -0.559 0 -0.559c0 0 1.116 -8.37 1.116 -8.37c0 0 0 -0.558 0 -0.558c0 0 -2.79 -8.371 -2.79 -8.371c0 0 0 -0.558 0 -0.558c0 0 -2.79 -7.812 -2.79 -7.812c0 0 3.348 -12.277 3.348 -12.277c0 0 0 -1.116 0 -1.116c0 -0.372 -1.395 -0.558 -4.185 -0.558c-2.79 0 -4.186 -0.186 -4.186 -0.558c0 0 -9.486 -2.79 -9.486 -2.79c0 0 0 -6.697 0 -6.697c0 0 4.464 -0.558 4.464 -0.558c0 0 3.348 -2.79 3.348 -2.79c1.488 0 2.232 -0.93 2.232 -2.79c0 0 3.349 -6.697 3.349 -6.697c0 0 -0.558 -4.464 -0.558 -4.464c0.372 0.372 0.93 0 1.674 -1.116c0.744 -1.116 1.302 -1.674 1.674 -1.674c0 0 0.558 2.79 0.558 2.79c0 0 1.116 2.232 1.116 2.232c0 0 0 -5.022 0 -5.022c0 0 5.022 0 5.022 0c0 0 1.116 1.116 1.116 1.116c0 0 1.116 -1.116 1.116 -1.116c0 0 1.117 -2.232 1.117 -2.232c0 0 2.232 -2.232 2.232 -2.232c0 0 0.558 -1.116 0.558 -1.116c0 0 3.906 -2.232 3.906 -2.232c0 0 2.79 -0.559 2.79 -0.559c1.488 0 2.232 -0.744 2.232 -2.232c0 0 0 -0.558 0 -0.558c2.232 -1.86 3.441 -3.255 3.628 -4.185c0.186 -0.93 0.744 -1.674 1.674 -2.232c0.93 -0.558 1.209 -1.395 0.837 -2.511c0 0 1.116 -1.116 1.116 -1.116c0 0 0 -2.232 0 -2.232c1.116 0 2.046 -0.559 2.79 -1.675c0 -1.488 -0.558 -2.976 -1.674 -4.464c0 0 0.558 -1.674 0.558 -1.674c0.744 0.744 1.953 1.116 3.627 1.116c1.674 0 2.511 -1.116 2.511 -3.348c0 -2.976 -1.116 -4.278 -3.348 -3.906c0 0 -1.116 0.558 -1.116 0.558c0 0 0 -1.116 0 -1.116c-0.372 -1.489 -1.302 -2.233 -2.79 -2.233c0 0 -2.232 -1.116 -2.232 -1.116c2.976 0 3.906 -1.86 2.79 -5.58c0 0 -2.232 -2.232 -2.232 -2.232c0.372 -0.744 0.372 -1.674 0 -2.79c1.86 0 2.79 -0.744 2.79 -2.232c0 0 2.232 -3.349 2.232 -3.349c0 -1.488 -0.186 -2.418 -0.558 -2.79c1.86 -1.116 2.79 -2.046 2.79 -2.79c0 0 0.558 -0.558 0.558 -0.558c0.372 0 0.558 0.093 0.558 0.279c0 0.186 0.186 0.279 0.558 0.279c0 0 0.558 0 0.558 0c0 0 2.79 1.674 2.79 1.674c6.325 2.604 9.487 2.046 9.487 -1.674c1.116 -1.116 1.674 -1.86 1.674 -2.232c0 0 1.674 -3.906 1.674 -3.906c0 -0.744 -0.744 -1.861 -2.232 -3.349c0 0 2.79 -3.906 2.79 -3.906c0.744 0 2.139 -0.465 4.186 -1.395c2.046 -0.93 3.069 -1.581 3.069 -1.953c0 0 5.58 -0.558 5.58 -0.558c0 0 1.116 0 1.116 0c0.372 0.372 0.558 0.372 0.558 0c0 0 2.79 0 2.79 0c1.489 0 2.233 -0.744 2.233 -2.232c0 0 1.116 -1.674 1.116 -1.674c0 0 1.674 0 1.674 0c0 0.744 0.465 1.116 1.395 1.116c0.93 0 1.953 -0.465 3.069 -1.395c1.116 -0.93 1.116 -1.954 0 -3.07c-1.116 -1.116 -1.86 -1.674 -2.232 -1.674c0 0 -0.558 -2.232 -0.558 -2.232c1.116 -1.116 1.488 -2.232 1.116 -3.348c0 0 1.674 -3.348 1.674 -3.348c0 0 0 -1.116 0 -1.116c0 0 0.558 -0.558 0.558 -0.558c0.744 0 1.116 -0.372 1.116 -1.116c0 0 3.348 -3.907 3.348 -3.907c0 0 0.558 0 0.558 0c0.372 -0.372 0.744 -0.558 1.116 -0.558c0 0 0.558 -0.558 0.558 -0.558c1.117 0.744 3.535 -0.744 7.255 -4.464c0 0 2.232 0 2.232 0c0 0 2.79 -1.116 2.79 -1.116c0.744 0.372 1.86 0.186 3.348 -0.558c0 0 2.791 0 2.791 0c1.116 -0.372 1.674 -0.93 1.674 -1.674c0 0 1.116 -3.348 1.116 -3.348c0 0 -0.558 -1.117 -0.558 -1.117c2.976 0.744 4.65 1.117 5.022 1.117c0 0 1.674 -0.559 1.674 -0.559c0.744 0 1.302 -0.186 1.674 -0.558c0 0 0 -0.558 0 -0.558c0 0 1.116 0.558 1.116 0.558c0 0 1.116 0 1.116 0c0.745 0 2.419 -0.93 5.023 -2.79c0 0 1.116 0 1.116 0c2.976 -1.488 4.092 -2.976 3.348 -4.464c2.976 -5.58 1.674 -9.301 -3.906 -11.161c0 0 -1.116 0 -1.116 0c0 0 1.116 -0.558 1.116 -0.558c1.116 -1.116 1.395 -2.232 0.837 -3.348c-0.558 -1.116 -1.581 -1.674 -3.069 -1.674c0 0 -1.674 0.558 -1.674 0.558c0 0 -0.558 -0.558 -0.558 -0.558c0 -1.488 -0.744 -2.232 -2.233 -2.232c0 0 -2.79 -1.116 -2.79 -1.116c0 0 -2.79 0 -2.79 0c0 0 6.138 -1.116 6.138 -1.116c0 0 0.558 0 0.558 0c0 0 3.349 1.116 3.349 1.116c4.092 0 6.138 -1.116 6.138 -3.349c1.86 0 2.79 -0.558 2.79 -1.674c0.372 -2.232 -0.558 -4.092 -2.79 -5.58c0 0 -0.558 0 -0.558 0c-0.372 -0.372 -0.93 -0.558 -1.674 -0.558c0 0 -2.79 0 -2.79 0c0 0 -0.558 -0.558 -0.558 -0.558c0 0 -1.674 0 -1.674 0c0 0 -6.697 0.558 -6.697 0.558c-0.372 0 -0.558 0.186 -0.558 0.558c0 0 -9.486 2.79 -9.486 2.79c0 0 -10.603 5.023 -10.603 5.023c0 0.372 -0.186 0.558 -0.558 0.558c0 0 -9.487 9.486 -9.487 9.486c0 0.372 -2.976 2.046 -8.928 5.022c0 0 5.58 -4.464 5.58 -4.464c0 0 0 -0.558 0 -0.558c5.208 -3.348 7.068 -5.766 5.58 -7.254c0 -1.488 -2.046 -2.418 -6.138 -2.79c0 0 -1.674 -1.117 -1.674 -1.117c0 0 8.37 2.233 8.37 2.233c0 0 2.233 0 2.233 0c0 0 1.116 -1.116 1.116 -1.116c0 0 1.116 -1.675 1.116 -1.675c0 0 1.116 -0.558 1.116 -0.558c0 0 1.116 -2.232 1.116 -2.232c0 0 2.79 -1.674 2.79 -1.674c0 0 1.116 -1.116 1.116 -1.116c0 0 0.558 0 0.558 0c0 0 7.255 -2.232 7.255 -2.232c1.488 0 2.232 -0.744 2.232 -2.232c0 0 1.674 -2.79 1.674 -2.79c0 0 1.116 0 1.116 0c0 0 0.558 -0.558 0.558 -0.558c0 0 2.79 0 2.79 0c0 0 1.674 2.79 1.674 2.79c0 0 0.558 0 0.558 0c0 0 3.907 -6.697 3.907 -6.697c0 0.744 0.372 0.744 1.116 0c0 0 3.348 -0.558 3.348 -0.558c0 0 3.348 0.558 3.348 0.558c0 0 6.138 0 6.138 0c0 0 1.116 -0.558 1.116 -0.558c0 0 4.465 1.116 4.465 1.116c0.744 0 1.302 -0.186 1.674 -0.558c0 0 6.696 0 6.696 0c0 0 0.558 0.558 0.558 0.558c0 0 2.232 0 2.232 0c1.489 0.744 2.605 0.93 3.349 0.558c0 0 5.022 0 5.022 0c0 0 1.674 1.116 1.674 1.116c0 0 3.348 1.117 3.348 1.117c0 0 1.674 3.348 1.674 3.348c0.372 0 0.745 -0.372 1.117 -1.116c0.372 -0.744 0.93 -1.488 1.674 -2.232c0 0 1.674 -5.581 1.674 -5.581c0 0 0.558 -0.558 0.558 -0.558c0 0 3.348 -2.232 3.348 -2.232c1.116 0 1.674 -0.744 1.674 -2.232c0 0 5.022 -3.906 5.022 -3.906c0 0 1.675 0 1.675 0c0 0 0.558 0.558 0.558 0.558c0 0 2.232 -1.116 2.232 -1.116c0 0 6.696 0 6.696 0c0 0 3.906 -2.791 3.906 -2.791c0 0 1.116 0 1.116 0c2.233 -1.488 3.349 -2.79 3.349 -3.906c0 -2.232 -0.93 -3.348 -2.791 -3.348c2.233 -2.232 2.605 -3.906 1.117 -5.022c0.744 -0.744 1.116 -1.489 1.116 -2.233c0 0 -0.558 -0.558 -0.558 -0.558c0 0 -1.675 0 -1.675 0c0 0 -1.116 0.558 -1.116 0.558c0 0 -1.674 0 -1.674 0c0 0 -3.906 -4.464 -3.906 -4.464c0 0 -2.232 1.116 -2.232 1.116c0 0 -1.116 -1.674 -1.116 -1.674c0 0 1.674 -2.79 1.674 -2.79c0 0 -0.558 -2.232 -0.558 -2.232c0 0 0 -2.232 0 -2.232c-1.116 3.348 -1.767 3.999 -1.953 1.953c-0.186 -2.046 -0.279 -4.558 -0.279 -7.534c0 0 -1.116 0 -1.116 0c0 0 -2.79 9.487 -2.79 9.487c-0.372 0 -0.745 0.186 -1.117 0.558c0 0 -0.558 0 -0.558 0c0 0 -3.906 1.116 -3.906 1.116c-0.744 0 -1.488 0.93 -2.232 2.79c0 0 -1.674 0 -1.674 0c0 0 2.79 -3.906 2.79 -3.906c0.372 0 0.93 -0.372 1.674 -1.116c3.72 -1.86 5.209 -3.72 4.464 -5.58c0 -2.233 -0.93 -3.349 -2.79 -3.349c0 0 -0.558 0 -0.558 0c0 0 -2.79 0.558 -2.79 0.558c-0.372 -0.372 -0.558 -0.372 -0.558 0c0 0 -0.558 0.558 -0.558 0.558c-0.744 -0.744 -1.488 -0.93 -2.232 -0.558c0 0 -1.674 0 -1.674 0c0 0 -2.79 1.674 -2.79 1.674c0 -0.372 -0.372 -0.93 -1.116 -1.674c0 0 -2.233 0 -2.233 0c-0.372 -0.372 -1.302 -0.558 -2.79 -0.558c1.488 -4.092 1.116 -6.138 -1.116 -6.138c-0.744 -1.116 -1.488 -1.674 -2.232 -1.674c0 0 -7.254 -3.906 -7.254 -3.906c0 -1.949 -0.558 -3.259 -1.674 -3.932c1.86 -0.178 2.79 -1.285 2.79 -3.323c0 -2.232 -1.861 -3.72 -5.581 -4.464c0.744 -0.744 1.116 -1.488 1.116 -2.232c0 -3.349 -2.604 -4.093 -7.812 -2.232c0 0 0 -2.233 0 -2.233c-0.744 -0.744 -1.302 -1.116 -1.674 -1.116c0 0 0.558 -1.674 0.558 -1.674c1.116 -0.744 1.488 -1.674 1.116 -2.79c0 0 -3.906 0 -3.906 0c0 0 -1.117 -2.232 -1.117 -2.232c0.745 -0.744 1.117 -1.488 1.117 -2.232c0 0 -1.675 -3.907 -1.675 -3.907c-0.372 0 -0.558 -0.093 -0.558 -0.279c0 -0.186 -0.186 -0.279 -0.558 -0.279c0 0 -1.116 -1.116 -1.116 -1.116c0.372 -1.488 -0.558 -2.232 -2.79 -2.232c-2.976 0.372 -4.464 1.674 -4.464 3.906c-0.744 0.372 -0.558 1.117 0.558 2.233c-1.488 0 -2.511 0.465 -3.069 1.395c-0.558 0.93 -0.465 1.581 0.279 1.953c0 0 -2.232 0.558 -2.232 0.558c-1.489 0 -2.233 0.744 -2.233 2.232c0 0 0 1.116 0 1.116c0 0 -3.348 -1.674 -3.348 -1.674c-0.744 0 -1.302 0.372 -1.674 1.116c0 0 -0.558 -0.558 -0.558 -0.558c0 0 -1.116 0 -1.116 0c-0.744 1.116 -1.302 1.674 -1.674 1.674c0 0 -5.58 5.022 -5.58 5.022c-1.861 -1.86 -3.907 -1.674 -6.139 0.558c0 0 -2.79 0.559 -2.79 0.559c0 0 1.116 -0.559 1.116 -0.559c0.372 0 0.558 -0.093 0.558 -0.279c0 -0.186 0.186 -0.279 0.558 -0.279c0 0 0.558 0 0.558 0c0 0 1.116 -1.116 1.116 -1.116c0 0 0 -0.558 0 -0.558c-0.372 -4.092 -1.116 -6.138 -2.232 -6.138c0 0 -0.558 0 -0.558 0c0 0 -1.116 -0.558 -1.116 -0.558c0 0 -7.813 2.232 -7.813 2.232c0 0 -3.906 -0.558 -3.906 -0.558c0 0 1.674 -0.558 1.674 -0.558c1.488 0 2.232 -0.744 2.232 -2.232c2.605 -0.744 3.907 -1.86 3.907 -3.348c0 0 0 -1.674 0 -1.674c0 -4.465 -1.86 -6.697 -5.581 -6.697c0 0 -3.348 -3.348 -3.348 -3.348c0 0 3.348 0 3.348 0c0 0 1.116 1.116 1.116 1.116c0.372 0.744 0.744 0.93 1.116 0.558c0 0 -1.116 -1.116 -1.116 -1.116c0.744 -0.372 0.372 -1.302 -1.116 -2.79c0 0 -1.116 -0.558 -1.116 -0.558c0 -2.232 -1.302 -2.604 -3.906 -1.116c0 0 -8.371 -2.233 -8.371 -2.233c-0.744 -2.232 -2.232 -3.348 -4.464 -3.348c0.744 -2.232 0.186 -3.348 -1.674 -3.348c-1.86 0 -2.976 0.186 -3.348 0.558c0 -0.744 -1.302 -2.232 -3.906 -4.464c0 0 -0.558 0 -0.558 0c0 0 -2.791 -1.116 -2.791 -1.116c0 0 -1.674 0 -1.674 0c0 0 -4.464 1.674 -4.464 1.674c-1.116 0 -1.674 0.558 -1.674 1.674c0 0 -5.58 -2.232 -5.58 -2.232c-0.372 0 -0.558 0.186 -0.558 0.558c0 0 -3.349 0.558 -3.349 0.558c-0.372 -0.372 -1.116 -0.93 -2.232 -1.674c0 0 -0.558 0 -0.558 0c0 0 -10.603 -1.674 -10.603 -1.674c0 0 -1.674 0.558 -1.674 0.558c-0.744 0 -1.581 0.465 -2.511 1.395c-0.93 0.93 -1.209 1.953 -0.837 3.069c0 0 0 1.116 0 1.116c0.744 1.116 1.302 1.674 1.674 1.674c0 0 2.232 1.674 2.232 1.674c0 0 0.558 1.116 0.558 1.116c-1.116 0.372 -1.674 1.116 -1.674 2.232c0 2.605 0.744 3.907 2.232 3.907c-0.744 1.488 -0.93 2.418 -0.558 2.79c0 0 -0.558 1.116 -0.558 1.116c0 0.744 0.186 1.302 0.558 1.674c0 0 0 1.116 0 1.116c0.744 0.744 1.489 1.302 2.233 1.674c-0.744 1.86 -0.93 3.162 -0.558 3.907c-2.605 0 -3.907 0.744 -3.907 2.232c0 0 -2.79 2.232 -2.79 2.232c-0.744 0 -1.116 0.372 -1.116 1.116c0 0 -0.558 1.116 -0.558 1.116c0 0 0 2.232 0 2.232c0 0.372 0.372 0.93 1.116 1.674c0 0 5.022 1.674 5.022 1.674c0 0 3.907 3.349 3.907 3.349c0 0 4.464 6.696 4.464 6.696c0 0 0.558 8.37 0.558 8.37c0 0 0 1.117 0 1.117c0 0 -1.674 2.232 -1.674 2.232c0 0 -2.232 2.232 -2.232 2.232c0 0 -1.116 2.232 -1.116 2.232c0 0 -2.791 1.674 -2.791 1.674c0 0 -0.558 0 -0.558 0c-2.604 2.604 -4.836 3.906 -6.696 3.906c0 0 -6.696 2.791 -6.696 2.791c-0.372 0 -1.117 0.558 -2.233 1.674c0 0 0 6.696 0 6.696c0 0 0.558 -1.674 0.558 -1.674c0.372 -2.232 0.745 -2.232 1.117 0c0 1.86 0.186 4.464 0.558 7.812c0 0 1.116 0 1.116 0c0 0 0 -1.674 0 -1.674c0 0 0.341 -1.709 0.341 -1.709c0.035 0.615 0.2 1.463 0.496 2.546c0.558 2.047 1.023 3.07 1.395 3.07c0 0 0 1.116 0 1.116c0 0 1.116 0.558 1.116 0.558c0 1.488 1.488 2.79 4.464 3.906c0 0 0 1.674 0 1.674c0 0 -6.138 4.464 -6.138 4.464c0 1.488 0.372 2.604 1.116 3.349c0 0 -1.674 2.232 -1.674 2.232c-0.744 -1.86 -1.953 -2.79 -3.628 -2.79c-1.674 0 -2.511 1.116 -2.511 3.348c0 0 0 1.116 0 1.116c0 0 -1.116 -1.116 -1.116 -1.116c-2.976 -0.372 -5.766 -0.186 -8.37 0.558c2.232 -1.488 3.069 -2.883 2.511 -4.186c-0.558 -1.302 -0.93 -1.953 -1.116 -1.953c-0.186 0 -0.279 -0.186 -0.279 -0.558c0 0 -3.906 -2.79 -3.906 -2.79c0 0 -1.117 0 -1.117 0c0 0 -1.116 -1.116 -1.116 -1.116c0 0 -2.79 0 -2.79 0c0.372 -0.372 0.558 -0.93 0.558 -1.674c0 0 -4.464 -6.696 -4.464 -6.696c0 0 1.116 -2.233 1.116 -2.233c0 0 0 -5.58 0 -5.58c0 0 -2.232 -4.464 -2.232 -4.464c0 0 1.116 -3.348 1.116 -3.348c1.116 -1.489 0.558 -2.791 -1.674 -3.907c0 0 -3.348 0 -3.348 0c0 0 -2.233 -1.116 -2.233 -1.116c0 0 -1.116 0 -1.116 0c-0.372 -0.372 -0.93 -0.186 -1.674 0.558c-1.488 -0.744 -2.79 -0.93 -3.906 -0.558c0 0 -0.558 1.116 -0.558 1.116c0 0 -0.558 0 -0.558 0c0 0 -4.464 -1.674 -4.464 -1.674c0 0 -2.79 0 -2.79 0c-0.745 0 -1.675 0.744 -2.791 2.232c0 0 0 -0.558 0 -0.558c0.744 -1.86 0.279 -3.348 -1.395 -4.464c-1.674 -1.116 -2.883 -1.674 -3.627 -1.674c0 0 -1.116 0 -1.116 0c0 0 -4.464 -1.674 -4.464 -1.674c0 0 -0.558 0 -0.558 0c0 0 -6.139 -1.674 -6.139 -1.674c0 0 -1.116 -0.558 -1.116 -0.558c0 0 -0.558 -1.116 -0.558 -1.116c0 0 -1.116 -1.116 -1.116 -1.116c0 0 -8.37 -4.465 -8.37 -4.465c0 0 -0.559 -0.558 -0.559 -0.558c0 0 -6.138 -0.558 -6.138 -0.558c0 0 -9.487 -3.348 -9.487 -3.348c0 0 -1.116 0 -1.116 0c0 0 -9.486 2.232 -9.486 2.232c0 0 -1.116 0 -1.116 0c-0.744 0 -1.116 0.186 -1.116 0.558c0 0 -2.232 0.558 -2.232 0.558c2.232 -2.232 2.976 -3.906 2.232 -5.022c0 0 -3.349 -7.813 -3.349 -7.813c0 0 -1.674 -2.79 -1.674 -2.79c0 0 -0.558 -0.558 -0.558 -0.558c-0.744 -1.116 -1.674 -1.674 -2.79 -1.674c0 0 -3.348 0 -3.348 0c-0.744 0 -1.674 0.93 -2.79 2.79c0 -1.86 -0.558 -2.79 -1.674 -2.79c0 0 -3.907 -2.79 -3.907 -2.79c0 0 1.116 -1.116 1.116 -1.116c0.745 -1.488 0.931 -2.418 0.558 -2.79c0 0 -0.558 -1.116 -0.558 -1.116c0 0 0.558 -2.233 0.558 -2.233c0 0 -0.558 -1.674 -0.558 -1.674c0 0 0.558 -1.116 0.558 -1.116c0.373 0 0.559 -0.372 0.559 -1.116c0 0 0 -3.348 0 -3.348c0 0 1.116 -0.558 1.116 -0.558c2.976 -4.092 4.464 -6.883 4.464 -8.371c0 0 1.116 -1.116 1.116 -1.116c2.604 -0.744 3.534 -1.86 2.79 -3.348c1.86 -1.86 2.604 -3.348 2.232 -4.464c0 0 1.674 0.558 1.674 0.558c0.372 0.372 1.209 -0.093 2.512 -1.395c1.302 -1.302 1.953 -2.325 1.953 -3.069c0 0 3.348 -0.559 3.348 -0.559c0 0 3.348 0.559 3.348 0.559c0 0 1.674 0 1.674 0c0 0 3.348 -1.675 3.348 -1.675c1.116 0 1.675 -0.837 1.675 -2.511c0 -1.674 -0.745 -2.511 -2.233 -2.511c0 0 -3.906 -1.116 -3.906 -1.116c0 0 -0.558 -0.558 -0.558 -0.558c-1.488 -0.744 -2.418 -0.744 -2.79 0c0 0 -4.464 1.116 -4.464 1.116c0 -1.86 -0.93 -2.976 -2.791 -3.348c-1.86 -0.372 -2.976 -0.372 -3.348 0c0 0 -2.232 0 -2.232 0c0 0 -1.116 -1.116 -1.116 -1.116c0 -0.372 0.372 -0.93 1.116 -1.674c0 0 1.674 1.116 1.674 1.116c0 0 0.558 0.558 0.558 0.558c0 0 13.951 2.79 13.951 2.79c0 0 2.232 0 2.232 0c0 0.372 0.372 0.558 1.116 0.558c0 0 1.674 0.558 1.674 0.558c0.745 0 1.303 -0.372 1.675 -1.116c0 0 1.116 0.558 1.116 0.558c0.744 -0.372 1.488 -0.93 2.232 -1.674c0 0 1.674 -3.348 1.674 -3.348c0 0 1.674 0 1.674 0c0 0 0.558 0.558 0.558 0.558c0 0 2.79 0 2.79 0c0 0 1.116 0.558 1.116 0.558c0 0 2.232 0 2.232 0c0 0 1.675 0.558 1.675 0.558c0 0 2.232 0 2.232 0c0 0 3.906 -1.674 3.906 -1.674c0 0 2.232 -2.232 2.232 -2.232c0 0 0.558 -1.117 0.558 -1.117c0 0 0.558 -0.558 0.558 -0.558c1.116 -0.372 2.046 -1.86 2.79 -4.464c0.806 -3.063 1.158 -5.462 1.056 -7.198c0.02 -0.017 0.04 -0.036 0.06 -0.056c0 0 0.558 3.906 0.558 3.906c0 0 1.675 -1.674 1.675 -1.674c0 0 1.116 0 1.116 0c0 0 3.348 -2.79 3.348 -2.79c0 0 0 -0.558 0 -0.558c0.372 -0.744 0.558 -1.675 0.558 -2.791c0 0 -1.674 -1.674 -1.674 -1.674c0 0 -0.558 -1.674 -0.558 -1.674c0 0 7.254 0 7.254 0c0.372 0 0.558 -0.186 0.558 -0.558c0 0 1.674 0 1.674 0c2.604 0 3.349 -1.116 2.232 -3.348c0 0 3.349 -1.116 3.349 -1.116c3.72 1.86 5.766 2.79 6.138 2.79c0 0 1.116 -0.558 1.116 -0.558c0 3.348 0.837 5.022 2.511 5.022c1.674 0 2.697 0.186 3.069 0.558c0 0 0.559 0 0.559 0c0 0 1.116 1.116 1.116 1.116c0 0 1.674 0 1.674 0c0.372 -1.116 1.488 -3.162 3.348 -6.138c1.116 0 2.046 -0.744 2.79 -2.232c0 0 2.79 0 2.79 0c0.744 -0.372 1.488 -1.302 2.232 -2.79c0.67 -2.009 -1.372 -4.319 -6.125 -6.93c1.108 -0.525 1.661 -1.935 1.661 -4.231c0 -2.976 -0.372 -4.65 -1.116 -5.022c0.372 -0.372 0.558 -1.302 0.558 -2.79c0 -1.489 -2.232 -3.349 -6.696 -5.581c0 0 -1.116 0 -1.116 0c0 0 -1.675 0.558 -1.675 0.558c0 -0.372 -0.744 -0.558 -2.232 -0.558c0 0 -2.79 0 -2.79 0c0 0 -5.022 -1.116 -5.022 -1.116c-0.372 0.372 -0.744 0.558 -1.116 0.558c0 0 -4.465 0 -4.465 0c-1.488 0.744 -2.232 1.674 -2.232 2.79c0 0 0 0.558 0 0.558c-0.372 1.116 0.372 2.232 2.232 3.349c0 0 2.791 0.558 2.791 0.558c0 0 1.674 1.116 1.674 1.116c-1.116 0 -1.674 0.744 -1.674 2.232c0 0 -2.233 0 -2.233 0c-0.744 0.744 -0.372 1.302 1.117 1.674c0 0 1.674 1.116 1.674 1.116c0 0 0 1.116 0 1.116c0 0 -5.581 2.79 -5.581 2.79c0 0 -5.58 0.558 -5.58 0.558c-0.744 0 -2.046 0.744 -3.906 2.232c-1.86 0 -2.79 0.558 -2.79 1.675c0 0 0 1.116 0 1.116c0 0 0.558 1.116 0.558 1.116c0 0 -1.117 1.116 -1.117 1.116c0 0 -0.558 0 -0.558 0c-0.372 0.372 -0.93 0.558 -1.674 0.558c0 0 -0.558 0.558 -0.558 0.558c0 0 -1.116 0 -1.116 0c0 -1.488 -2.232 -3.72 -6.696 -6.697c0 0 -0.558 -1.674 -0.558 -1.674c0 0 3.348 -5.58 3.348 -5.58c0 -1.488 -1.302 -2.79 -3.906 -3.906c-2.604 -1.116 -3.907 -1.86 -3.907 -2.232c0 0 -0.558 0 -0.558 0c-0.744 -0.745 -1.953 -0.559 -3.627 0.558c-1.674 1.116 -2.511 2.232 -2.511 3.348c0 0 0.558 0.558 0.558 0.558c0 0 -0.558 0.558 -0.558 0.558c-0.372 0 -0.558 0.093 -0.558 0.279c0 0.186 -0.186 0.279 -0.558 0.279c0 0 -2.232 3.906 -2.232 3.906c0 0 -0.558 -0.558 -0.558 -0.558c0 0 -2.232 -1.116 -2.232 -1.116c0 0 -0.558 -2.232 -0.558 -2.232c0.744 -1.488 0.558 -2.418 -0.558 -2.79c0 0 -1.116 -1.674 -1.116 -1.674c0 0 -0.559 0 -0.559 0c0 0 -4.464 -2.233 -4.464 -2.233c0 -1.488 -0.93 -2.232 -2.79 -2.232c0 0 -0.558 0 -0.558 0c0 0 -1.116 0.558 -1.116 0.558c0 0 -3.348 -1.674 -3.348 -1.674c0 0 -3.349 0 -3.349 0c0 0 0 -0.558 0 -0.558c1.861 -0.744 2.791 -1.86 2.791 -3.348c0 0 1.116 -1.116 1.116 -1.116c0 0 0 -0.558 0 -0.558c0.744 -0.744 -0.93 -2.79 -5.023 -6.139c0 0 0 -3.348 0 -3.348c0 0 -3.348 -2.79 -3.348 -2.79c-0.372 0 -0.744 -0.186 -1.116 -0.558c0 0 -1.116 0 -1.116 0c0 0 -4.464 -2.232 -4.464 -2.232c0 0 -1.116 0.558 -1.116 0.558c0 0 -1.674 -0.558 -1.674 -0.558c0 -1.116 -0.558 -1.86 -1.675 -2.232c-1.116 -0.372 -2.046 0.186 -2.79 1.674c0 0 -1.116 0 -1.116 0c-1.488 0.372 -2.232 1.488 -2.232 3.348c0 0 -0.558 1.116 -0.558 1.116c0 0 -2.232 0 -2.232 0c-0.744 -1.488 -1.488 -2.232 -2.232 -2.232c0 0 -0.558 0 -0.558 0c-2.232 0 -3.348 1.86 -3.348 5.58c0 2.409 0.27 4.709 0.812 6.901c-0.17 0.447 -0.254 0.937 -0.254 1.47c0.236 0.709 0.623 1.193 1.16 1.452c0.314 0.835 0.671 1.653 1.072 2.454c0 0 1.674 0 1.674 0c-0.064 -0.222 -0.127 -0.445 -0.191 -0.668c0.956 0.446 1.577 0.668 1.865 0.668c0 0 1.674 0 1.674 0c0 0 2.79 1.116 2.79 1.116c0 0 2.232 0 2.232 0c0.372 0.372 1.116 0 2.232 -1.116c0 0 2.791 1.116 2.791 1.116c0 0 1.674 -1.116 1.674 -1.116c0 0 1.116 0 1.116 0c0.372 0 0.558 0.279 0.558 0.837c0 0.558 0.186 0.837 0.558 0.837c0 0 2.79 1.116 2.79 1.116c0 0 0.558 1.116 0.558 1.116c-1.488 0.744 -2.232 1.674 -2.232 2.791c0 0 1.674 2.79 1.674 2.79c-0.744 0.372 -0.744 0.93 0 1.674c0 0 -8.928 5.022 -8.928 5.022c-0.372 0 -0.559 0.186 -0.559 0.558c0 0 -3.348 0 -3.348 0c-1.86 0 -2.976 0.558 -3.348 1.674c-0.372 1.116 0 2.232 1.116 3.349c0 0 0 1.116 0 1.116c0 0 1.674 3.906 1.674 3.906c-0.372 0.372 -0.558 1.023 -0.558 1.953c0 0.93 0.186 1.767 0.558 2.511c0 0 -1.674 4.464 -1.674 4.464c0 0 -1.674 0 -1.674 0c-1.116 0 -2.046 -2.232 -2.79 -6.696c0 0 -1.116 0 -1.116 0c0 0 -1.674 -1.116 -1.674 -1.116c0 0 -0.558 -1.674 -0.558 -1.674c0.744 -0.372 1.116 -1.488 1.116 -3.348c0 0 -0.558 -1.675 -0.558 -1.675c0.744 -1.116 0.744 -2.139 0 -3.069c-0.744 -0.93 -1.488 -1.395 -2.232 -1.395c0 0 -2.791 -0.558 -2.791 -0.558c-1.488 0 -2.232 1.488 -2.232 4.464c0 0 -3.348 0 -3.348 0c0 0 -4.464 -2.232 -4.464 -2.232c-0.372 0 -0.93 -0.186 -1.674 -0.558c0 0 -5.023 0 -5.023 0c0 0 -5.022 0.558 -5.022 0.558c-0.372 -0.372 -0.558 -0.372 -0.558 0c0 0.372 -0.186 0.558 -0.558 0.558c0 0 -8.371 0 -8.371 0c0 0 -5.58 1.116 -5.58 1.116c0 0 -2.232 0 -2.232 0c0 0 -1.116 -0.558 -1.116 -0.558c0 0 -4.465 0 -4.465 0c0 0 -1.116 -1.674 -1.116 -1.674c0 0 -4.464 0 -4.464 0c0 0 -2.232 -0.558 -2.232 -0.558c-0.376 -0.376 -0.71 -0.646 -1.002 -0.811c1.784 -3.709 2.676 -6.229 2.676 -7.559c0 0 0 -6.139 0 -6.139c0 0 -1.674 -1.674 -1.674 -1.674c4.836 1.488 7.254 1.116 7.254 -1.116c0 0 1.117 0 1.117 0c1.116 -0.372 1.767 -1.023 1.953 -1.953c0.186 -0.93 -0.279 -1.581 -1.395 -1.953c0 0 -4.465 0.558 -4.465 0.558c0 0 -1.116 3.348 -1.116 3.348c0 0 -2.79 -0.558 -2.79 -0.558c0 0 -0.558 0.558 -0.558 0.558c0 0 -1.674 0 -1.674 0c-0.372 -2.976 -1.116 -5.58 -2.232 -7.812c0 0 0 -1.116 0 -1.116c0 0 -2.232 -2.233 -2.232 -2.233c-0.744 0 -1.116 -0.186 -1.116 -0.558c0 0 -1.117 0 -1.117 0c0 0 -1.116 -2.232 -1.116 -2.232c0 0 0 -1.116 0 -1.116c-20.833 7.069 -42.038 16.369 -63.616 27.902c0 0 6.697 0 6.697 0c0 0 4.464 5.022 4.464 5.022c0 0 1.116 0 1.116 0c0 0 4.464 -3.906 4.464 -3.906c0 0 9.487 -3.348 9.487 -3.348c0 0 0.558 0 0.558 0c0 0 5.58 -2.232 5.58 -2.232c0 0 6.697 -0.558 6.697 -0.558c0 0 3.906 -2.233 3.906 -2.233c0.744 0 1.116 -0.372 1.116 -1.116c0 0 0.558 -1.116 0.558 -1.116c0 0 1.116 -1.116 1.116 -1.116c0 0 1.674 -0.558 1.674 -0.558c0 0 1.674 -1.116 1.674 -1.116c0 0.372 0.186 0.372 0.558 0c0 0 2.233 -0.558 2.233 -0.558c0 0 0.558 2.232 0.558 2.232c0 0 2.232 1.674 2.232 1.674c0 0 1.116 -1.116 1.116 -1.116c0 -1.86 0.372 -2.79 1.116 -2.79c0 0 1.116 0 1.116 0c0 0 1.674 3.906 1.674 3.906c1.488 4.093 2.418 5.953 2.79 5.581c0 0 3.349 0 3.349 0c0 0 0.558 1.116 0.558 1.116c0 0 1.116 2.79 1.116 2.79c1.019 1.165 2.038 2.329 3.057 3.494c-0.275 0.137 -0.55 0.275 -0.825 0.412c0 0 -2.232 -0.558 -2.232 -0.558c0 0 -3.349 0.558 -3.349 0.558c-1.86 -1.86 -3.534 -2.79 -5.022 -2.79c0 0 -0.558 0.558 -0.558 0.558c0 0 -0.558 0 -0.558 0c-0.372 -0.372 -0.93 -0.186 -1.674 0.558c0 0 -0.558 2.232 -0.558 2.232c0 0 -1.116 0 -1.116 0c0 0 -5.581 -3.348 -5.581 -3.348c0 0 -1.116 0.558 -1.116 0.558c0 0 0 0.558 0 0.558c0 0 -7.812 1.116 -7.812 1.116c-0.372 0 -1.023 0.651 -1.953 1.953c-0.93 1.302 -1.023 2.325 -0.279 3.069c0 0 0.558 1.675 0.558 1.675c0 0.744 0.744 1.488 2.232 2.232c0 0 0 1.116 0 1.116c0 0 1.674 1.674 1.674 1.674c-0.744 0 -1.302 0.558 -1.674 1.674c-0.372 1.116 -0.372 1.86 0 2.232c0 0 0.558 1.116 0.558 1.116c0 0 -2.79 -2.79 -2.79 -2.79c0 0 -1.116 -0.558 -1.116 -0.558c0 0 -1.674 -0.558 -1.674 -0.558c-1.116 -1.488 -1.861 -2.232 -2.233 -2.232c0 0 -2.232 -1.116 -2.232 -1.116c0 -2.232 -0.93 -3.348 -2.79 -3.348c-1.116 -1.861 -2.046 -2.791 -2.79 -2.791c0 0 -1.116 -0.558 -1.116 -0.558c-1.116 0 -1.953 -0.093 -2.511 -0.279c-0.558 -0.186 -1.209 -0.279 -1.953 -0.279c0 0 -0.558 0 -0.558 0c-0.744 -1.116 -3.721 -0.93 -8.929 0.558c0 0 -1.116 0 -1.116 0c-0.372 -0.372 -0.93 -0.558 -1.674 -0.558c0 0 -4.464 1.116 -4.464 1.116c0 0 -0.559 0 -0.559 0c-0.372 -0.372 -0.93 -0.558 -1.674 -0.558c0 0 -2.232 0.558 -2.232 0.558c0 0 -3.906 -2.232 -3.906 -2.232c0 0 -0.558 0 -0.558 0c0 0 -2.232 -0.558 -2.232 -0.558c0 0 -3.348 0.558 -3.348 0.558c0 0 2.232 1.116 2.232 1.116c-67.337 40.179 -108.631 81.846 -123.884 125c0 0 -4.464 0 -4.464 0c0 0 -5.581 2.79 -5.581 2.79c0 0 0 1.675 0 1.675c0 0 0 0 0 0m22.601 30.692c0 0.186 0.093 0.372 0.279 0.558c0.124 0.124 0.248 0.186 0.372 0.186c0 0 0.744 -0.744 0.744 -0.744c0 0 1.116 -0.558 1.116 -0.558c0 0 -0.558 -0.558 -0.558 -0.558c-0.744 -0.372 -1.302 -0.372 -1.674 0c0 0 0 0.558 0 0.558c-0.186 0.186 -0.279 0.372 -0.279 0.558c0 0 0 0 0 0m24.631 96.451c0.134 -0.09 0.201 -0.246 0.201 -0.469c-0.067 0.156 -0.134 0.312 -0.201 0.469c0 0 0 0 0 0m166.205 -258.695c0.283 0.324 0.566 0.647 0.849 0.971c0.236 -0.473 0.46 -0.93 0.672 -1.37c-0.227 -0.128 -0.429 -0.193 -0.605 -0.193c-0.268 0 -0.476 0.149 -0.625 0.447c-0.097 0.048 -0.194 0.097 -0.291 0.145c0 0 0 0 0 0m58.581 -22.26c0.185 -0.491 0.473 -0.931 0.862 -1.32c0 0 1.116 1.116 1.116 1.116c0 0 0.558 1.675 0.558 1.675c0.308 1.079 0.617 2.159 0.925 3.238c-0.28 -0.13 -0.588 -0.28 -0.925 -0.448c0 0 0 -0.558 0 -0.558c0 0 -0.558 -0.558 -0.558 -0.558c-0.407 0 -0.764 -0.074 -1.072 -0.223c-0.358 -0.951 -0.66 -1.925 -0.906 -2.922c0 0 0 0 0 0m49.411 41.088c1.116 1.117 1.86 1.675 2.232 1.675c0.248 -0.186 0.496 -0.372 0.744 -0.558c-0.62 -0.373 -1.24 -0.745 -1.86 -1.117c0 0 -1.116 0 -1.116 0c0 0 0 0 0 0m2.976 1.117c0.496 -0.373 0.992 -0.745 1.488 -1.117c0 0 0.558 0 0.558 0c2.891 1.218 5.285 2.28 7.18 3.186c0 0 -3.832 2.395 -3.832 2.395c0 0 -0.558 -0.558 -0.558 -0.558c0 -1.116 -0.372 -1.674 -1.116 -1.674c-1.24 -0.744 -2.48 -1.488 -3.72 -2.232c0 0 0 0 0 0m9.226 2.07c0 0 5.097 -3.186 5.097 -3.186c0 0 5.022 0 5.022 0c0.515 0 0.958 0.106 1.328 0.318c0 0 -6.35 5.821 -6.35 5.821c-0.66 -0.66 -2.358 -1.644 -5.097 -2.953c0 0 0 0 0 0m11.447 -2.868c0 0 0.346 -0.318 0.346 -0.318c0 0 0.005 0.569 0.005 0.569c-0.109 -0.096 -0.226 -0.18 -0.351 -0.251c0 0 0 0 0 0m0.351 0.251c0.045 2.473 0.396 3.418 1.051 2.836c-0.079 -1.342 -0.429 -2.288 -1.051 -2.836c0 0 0 0 0 0m39.616 -18.427c0 0 1.674 0 1.674 0c0.425 0 0.802 -0.077 1.129 -0.233c-0.528 -0.29 -1.091 -0.585 -1.687 -0.883c0 0 -1.116 1.116 -1.116 1.116m16.741 589.286c0 0 0 -2.232 0 -2.232c0 -0.744 0.372 -1.116 1.116 -1.116c0 0 0 -0.558 0 -0.558c0.295 0.295 0.532 0.634 0.71 1.017c-0.214 0.76 -0.451 1.723 -0.71 2.889c0 0 -1.116 0 -1.116 0c0 0 0 0 0 0m11.43 -19.506c-0.004 0.079 -0.001 0.164 0.009 0.254c0.007 0.058 0.014 0.115 0.021 0.172c0.021 -0.142 0.01 -0.284 -0.03 -0.426c0 0 0 0 0 0m0.072 -430.305c-0.031 -0.546 0.041 -0.907 0.216 -1.082c0 0 -0.216 1.082 -0.216 1.082m134.703 -30.658c0 0 1.674 0.558 1.674 0.558c0.195 0 0.381 -0.008 0.559 -0.025c-0.589 -0.355 -1.333 -0.533 -2.233 -0.533c0 0 0 0 0 0m6.697 465.402c0 0 0.558 -2.79 0.558 -2.79c0 0 0.558 0 0.558 0c0 0 3.75 2.143 3.75 2.143c0 0 -0.402 1.205 -0.402 1.205c-1.116 0 -1.674 1.302 -1.674 3.906c0 0 -2.79 -4.464 -2.79 -4.464m4.866 -0.647c0 0 0.156 0.089 0.156 0.089c0.354 -0.354 1.55 -0.034 3.588 0.959c-0.107 -0.426 -0.213 -0.852 -0.319 -1.278c-0.532 -0.266 -1.063 -0.531 -1.595 -0.797c0.308 -0.308 0.234 -0.68 -0.224 -1.116c0 0 -0.892 0 -0.892 0c0 0 -0.714 2.143 -0.714 2.143m3.504 -434.063c0.155 0.103 0.309 0.206 0.464 0.309c-0.134 -0.118 -0.289 -0.221 -0.464 -0.309c0 0 0 0 0 0m0.463 0.309c0.404 0.269 0.808 0.538 1.211 0.807c0 0 2.79 0 2.79 0c0.158 0.316 0.316 0.632 0.474 0.948c-0.299 0.337 -0.643 0.766 -1.032 1.285c0 0 -1.674 0 -1.674 0c-0.744 0 -1.116 -0.465 -1.116 -1.395c0 -0.712 -0.217 -1.26 -0.653 -1.645c0 0 0 0 0 0m4.476 1.754c0.214 0.429 0.428 0.857 0.642 1.285c0 0 2.233 0 2.233 0c0 0 2.79 -3.906 2.79 -3.906c-0.744 0 -1.116 0.186 -1.116 0.558c0 0 -3.349 1.116 -3.349 1.116c-0.242 0 -0.642 0.316 -1.2 0.947c0 0 0 0 0 0m10.686 457.201c0 0 1.116 -2.791 1.116 -2.791c0 0 1.674 -0.558 1.674 -0.558c0 0 0 0.558 0 0.558c0 0.372 -0.186 0.558 -0.558 0.558c0 0 -2.232 2.233 -2.232 2.233m12.835 8.37c0 0 0.558 0.558 0.558 0.558c0 0 2.79 -1.116 2.79 -1.116c0 -0.372 0.744 -0.558 2.232 -0.558c1.489 0 2.233 -0.186 2.233 -0.558c0 0 0 -1.116 0 -1.116c0 0 -5.023 -1.674 -5.023 -1.674c0 0 -1.674 0 -1.674 0c-0.744 0.744 -1.116 1.488 -1.116 2.232c0 0 0 2.232 0 2.232c0 0 0 0 0 0" />
  </g>
</svg>