<svg height="1000" width="857.1" xmlns="http://www.w3.org/2000/svg"><path d="M0 500q0-116.6 57.5-215.1t156-156 215.1-57.5 215.1 57.5 156 156 57.5 215.1-57.5 215.1-156 156-215.1 57.5-215.1-57.5-156-156-57.5-215.1zm110.5-198.1q.6 1.1 1.4 6.1t2 4.7 6.1-2.5q5 5 1.7 11.7 1.1-1.1 20.1 11.7 31.2 22.3 12.3 29.6v-3.1l.6-3.6q-5 .6-10.6-2.8-1.7 3.3.3 11.2t6.4 7.8q-4.5 0-5.9 9.5t-1.4 21.5-.6 14.2l1.1.6q-1.7 7.3 3.3 20.9t13.4 11.4q-2.2 10 2.8 11.7-.6 2.2 0 4.5t2.5 4.7 3.3 3.9l4.2 4.2 3.3 3.3q15.6 6.1 22.9 16.2 2.2 3.3 5.9 13.7t8.6 14.2q-1.1 3.3 5.6 12t6.1 14.2q-.6 0-1.4.3t-1.4.3q1.7 4.5 9.2 8.9t9.2 7.8q1.1 1.7 1.4 5.9t1.7 6.7 4.7 1.4q1.7-13.4-14.5-37.9-8.9-15.1-10-17.3-1.7-2.8-3.1-9.2t-2.5-8.6q15.1 5 14.5 7.3-2.8 5.6 14.5 29 1.1 1.7 5.6 5.6t6.1 6.7q1.7 2.2 5.3 8.1t5.9 8.6q-.6 0-1.7 1.1l-1.7 1.7q2.2 1.1 5 2.8t4.5 2.5 4.2 2.8 4.2 4.2q8.9 10 11.2 18.4.6 2.2.3 8.6t.8 9.2q1.1 3.3 3.3 6.1t6.4 5.6 6.4 3.9 8.1 3.6 6.4 3.1q1.1.6 10 6.1t14 7.8q5.6 2.2 9.2 2.5t8.9-1.4 8.6-2.2q8.9-1.7 17 8.9t12.6 12.8q22.9 11.2 32.9 6.1 0 5 7.8 15.6 1.7 2.2 3.6 6.4t3.1 5.9q2.8 3.9 10.6 8.9t10.6 8.9q3.3-1.7 5-5 7.3 19.5 13.4 19 2.8 0 4.5-4.5 0 .6-.3 1.7 3-7.3 2-12.8l3.3-2.2q2.8-2.2 2.8-2.8-3.3-3.3-5 1.7-16.7 7.8-26.8-12.3-1.1-1.7-2.5-4.5t-2.8-6.7-.8-6.4 3.3-2.5q6.1 0 7-.8t-1.4-3.3-2.2-4.2q-.6-2.2-.8-7t-.8-7l-2.8-3.3q-2.8-3.3-6.4-7.5t-4.2-5.3q-2.2 5.6-9.2 4.7t-10.3-5.3q.6 1.1-.3 3.6t-.8 3.6q-7.8 0-9.5-.6.6-3.3 1.7-11.7t2.2-12.3q.6-2.8 3.1-7.5t4.5-8.6 2.5-7.8-2.5-5.9-10.3-1.4q-11.2.6-16.2 12.3-.6 1.7-1.7 6.4t-2.8 7-5 3.9q-4.5 1.7-15.1 1.1t-14.5-2.8q-7.8-4.5-13.4-17t-6.1-23.2q0-5.6 1.7-15.3t1.7-15.1-3.3-14.8q1.7-1.1 5.6-5.9t6.1-6.4q1.1-1.1 2.8-1.1h2.8l2.2-1.1 1.7-3.3q-.6-.6-2.2-1.7-.8-.8-1.3-1.2 2.7 1 9.7.1 8.4-1.1 10.6-1.1 0-.6 12.3 0 9.5 7.3 13.4-1.1 0-.6-1.4-5.9t-.3-8.1q2.8 16.2 17.9 5.6 1.7 2.2 9.2 3.3t10.3 2.8q1.7 1.1 3.9 3.1t3.3 2.8 3.3.3 5-3.9q6.1 9.5 7.3 14 6.1 24 11.2 26.8 4.5 1.1 7 1.1t2.8-5.9 0-8.6-.8-7.3l-1.1-20.6q-8.9-1.7-11.2-7t.8-11.2 9.2-10.9q.6-.6 9.2-4.5t12-6.7q13.4-10.6 9.5-21.8 5 1.1 6.1-5l-2.8-1.7q-2.2-1.7-4.5-3.1-1.9-1.2-2.6-.9 5.9-3.9.9-9.9 2.8-1.7 4.5-6.4t5-6.4q5 7.8 12.3 1.7 4.5-5 1.1-10 2.8-4.5 12.3-6.4t11.2-5.3q2.8.6 3.9 0t1.1-2.5v-4.2l.6-4.7 1.7-4.2q2.2-3.3 8.9-5.9t7.8-3.1l10.6-6.7q1.9-1.9.6-2.2 9.7.8 17.2-6.2 7.3-6.7-2.8-12.8 1.1-3.9-2.2-5.9t-8.9-3.1q1.7-.6 6.7-.3t6.7-.8q8.4-6.1-3.9-9.5-11.2-2.8-26.2 7.3-1.7 1.1-7.3 6.7t-9.5 6.1q8.4-10 2.8-12.3 4.5.6 12.6-5t8.6-6.1q2.2-1.1 5.9-1.4t4.7-.8q39.6-14 51.3.6 4.5-6.1 6.1-8.4t5.3-5 8.6-4.5q11.7-3.9 12.8-5l.6-12.8q-6.7.6-10-4.5t-3.9-12.3l-3.3 4.5q0-3.3-2-4.2t-4.2-.3-5.3 1.1-4.2 0q-5-1.1-10.9-8.6t-8.1-9.2q5 0 5-2.8-1.1-2.8-5.6-4.5.6-3.3-1.1-4.5t-5 0q-1.1-6.7-.6-7.3-3.3-.6-6.1-6.1t-4.5-5.6q-1.1 0-2.5 1.1t-2.8 3.1l-2.8 3.9-2 3.1-1.1 1.1q-6.7-3.3-13.4 5.6-5-.6-9.5 1.1 8.4-3.3 1.1-7.3-6.1-2.8-11.7-1.1 6.7-2.8 5.6-7.8t-6.7-8.9q.6 0 2.2.6t2.2.6q-.6-2.8-5.3-5.3t-10.9-5-7.8-3.6q-3.9-2.8-20.1-5.9t-20.1-.8q-2.8 1.7-3.3 3.3t.8 4.7 2 4.7q3.3 12.8 2.8 15.1-.6 1.7-4.7 4.5t-3.1 6.7q.6 2.2 6.4 5.6t7 6.7q2.8 7.3-2.2 14-2.2 2.8-8.4 6.1t-7.8 5.6q-2.8 2.8-2 6.4t.3 5.3q.6-.6.6-1.4t.6-1.4q0 7.3 6.1 12.3 4.5 3.3-8.9 10-11.2 6.1-11.2 2.2.6-4.5-4.2-8.9t-5.9-6.7-2-10.6-5.3-11.7q-3.3-2.2-10.6-2.2t-10 2.8q0-5.6-27.3-16.7-9.5-4.5-32.4-2.2 3.9-.6 0-9.5-4.5-8.9-11.7-6.7-4.5-14-2.2-19.5 1.1-2.8 5-7.8t5-8.4q.6-1.7 8.6-3.3t9.2-4.5q.6-2.2-1.4-3.6t-5.3-2.5q29.6 3.3 35.2-10 2.6-4.8 1.8-7.5.2.3 1 .3 1.1 0 1.1.6 6.7-1.7 3.9-9.5 10.6-4.5 14.5-4.5 2.8.6 6.1 3.3t5.6 2.8q9.5 1.7 12-5.6t-5.3-12.8q3.9 2.2 3.9-3.3-.6-7.3-3.9-10.6-1.7-1.1-3.6-1.4t-3.6 0-3.9-.3q-.6 0-4.5-1.1-.6.6-1.1.6h-4.5q-2.2 1.1-2.2 2.8v.6q-.6 1.7 2.2 3.3l2.8.6 1.7 1.1q-.6 0-1.4 1.4t-1.4 1.4q0 1.7 1.7 2.8-1.1.6-7.8 4.2t-9.5 5.9q-.6.6-2.2 1.4t-2.2 1.4q-1.1.6-2.2-1.1t-2.2-5-2.2-6.4-2.5-5.6-3.1-2.5q-6.7 0-10 9.5 1.7-5.6-7.3-9.8t-14-4.2q11.2-8.4-5-16.7l-.6-.6q-16.7 2.2-25.1 3.9-1.1 3.3 1.7 6.7v-1.1q.6 1.1 1.7 3.1t1.7 3.1l-3.3-5q-.6 3.9 3.3 5 1.7.6 5.9.8t5.3.8q1.7.6 2.5 1.1l4.2 2.8 3.1 3.3-1.4 2.8q-1.1.6-5 2.2t-7 3.1-3.6 2q-1.7 2.8 0 8.9t-1.1 8.4q-2.8-2.8-5.6-10.3-2.3-6.1-3.8-8.7 1.4 3.8-17.4 2.3l-4.5-.6q-2.2 0-8.4 1.1t-8.9.6q-3.9 0-16.2-3.3 0 1.1-.6 1.1l-.6-1.1h1.1q3.9-9.5 2.8-14 2.8 0 3.9-1.1l-3.3-1.7q-1.7.6-14 5 1.1 1.7 4.5 5.3t5 6.4q-12.3-3.3-15.1 1.1 0 .6-5 0-14-.6-13.4 3.9.6 2.2 5 6.7 0 5-.6 5-15.1-12.3-16.7-12.8-96 46.3-154 138.4zm264.5 231.6q.4.3.9.5-.6-.5-.9-.5zm16.7-334.8q.6 0 3.6.6t5.9 1.1 5 1.1q-8.9-1.1-14.5-2.8zm27.9-19.5q.2.1.8.2-.6-.2-.8-.2zm.8.2q2.4.5 10.9 1.4-3.3 2.2-4.5 3.3l-1.7-1.1q-1.1-1.7-3.1-2.8-1-.6-1.7-.9zm10.9 1.4q3.9-2.2 7.5-1.4t4.2 4.2q-2.8-1.7-11.7-2.8zm11.7 2.8q0 .2.1.3 0-.1-.1-.3zm51.3 685.2q112.7-20.1 196.4-101h-1.7l2.8-1.1 2.8-2.8q-3.9-5.6-16.2-6.7.6-6.7-7.8-14.8t-15.1-8.6q0-2.2-5.9-6.1t-9.8-4.5q-5-1.1-15.1 5-3.2 1.4-2.6 2.4-1.8-1.8-6.3-5.7-5-4.5-8.9-6.1-1.1-.6-4.2-.6t-4.7-1.1q-.6-.6-3.3-2.5t-3.9-2.5-3.6-1.7-4.2-.8-4.2 1.4-4.7 3.3-2.5 8.6-1.4 8.1q-4.5-3.3-.3-11.2t.8-11.2q-3.9-3.9-11.7-.3t-11.7 8.6q-.6.6-5.3 3.1t-6.4 4.2q-2.2 3.3-5 9.8t-3.3 7.5q0-1.1-1.4-3.6t-1.4-3.6q-6.7 1.1-8.9-1.7 2.6 8.3 4.2 9.4l-2-1q-.6 3.3 1.7 8.4t2.2 6.1q.6 2.8-.8 7.3t-1.4 6.1q0 1.1 2.8 6.1 2.2 10.6-1.1 17.9 0 .6-2 3.9t-3.6 6.1l-1.1 2.8-1.1-.6q-.6-.6-1.1 0-.6 3.3-5 7.3t-5.6 6.1q-8.4 12.8-5 21.2 1.7 4.5 5.6 5.6 1.7.6 1.7-1.1.6 5-6.1 15.1.6.6 2.2 1.7-9.5 0-5.6 7.8zm25.4-126.8q.1.1.2.1-.1-.1-.2-.1zm5.3-283.3q.1-.1.2-.1-.1 0-.2.1zm82-76.4q.3 0 .6.1-.2-.1-.6-.1zm15.2 348.3q.1.2.4.4l-.4-.4zm37.8-430.4q1.7 1.1 5.6 2.8-3.3 2.2-3.3.6-.6-.6-1.4-1.7t-.8-1.7zm5.6 2.8q6.1-3.9 14-12.3v.6q0 1.1-5.3 5.6t-6.4 6.7q-.6-.6-2.2-.6z"/></svg>