<svg height="1000" width="857.143" xmlns="http://www.w3.org/2000/svg"><path d="M665.694 303.058q6.138 -3.906 13.95 -12.276v.558q0 1.116 -5.301 5.58t-6.417 6.696q-.558 -.558 -2.232 -.558zm-3.348 .558q-.558 -.558 -1.395 -1.674t-.837 -1.674q1.674 1.116 5.58 2.79 -3.348 2.232 -3.348 .558zm-256.122 -102.114q-8.928 -1.116 -14.508 -2.79 .558 0 3.627 .558t5.859 1.116 5.022 1.116zm25.11 -20.646q3.906 -2.232 7.533 -1.395t4.185 4.185q-2.79 -1.674 -11.718 -2.79zm-4.464 3.348l-1.674 -1.116q-1.116 -1.674 -3.069 -2.79t-2.511 -1.116q1.116 .558 11.718 1.674 -3.348 2.232 -4.464 3.348zm-56.916 -46.872v-1.116q.558 1.116 1.674 3.069t1.674 3.069zm-58.59 22.32q0 1.116 -.558 1.116l-.558 -1.116h1.116zm209.25 582.552v0zm-92.07 -670.716q116.622 0 215.109 57.474t155.961 155.961 57.474 215.109 -57.474 215.109 -155.961 155.961 -215.109 57.474 -215.109 -57.474 -155.961 -155.961 -57.474 -215.109 57.474 -215.109 155.961 -155.961 215.109 -57.474zm263.376 695.268l2.79 -2.79q-3.906 -5.58 -16.182 -6.696 .558 -6.696 -7.812 -14.787t-15.066 -8.649q0 -2.232 -5.859 -6.138t-9.765 -4.464q-5.022 -1.116 -15.066 5.022 -3.906 1.674 -2.232 2.79 -1.674 -1.674 -6.696 -6.138t-8.928 -6.138q-1.116 -.558 -4.185 -.558t-4.743 -1.116q-.558 -.558 -3.348 -2.511t-3.906 -2.511 -3.627 -1.674 -4.185 -.837 -4.185 1.395 -4.743 3.348 -2.511 8.649 -1.395 8.091q-4.464 -3.348 -.279 -11.16t.837 -11.16q-3.906 -3.906 -11.718 -.279t-11.718 8.649q-.558 .558 -5.301 3.069t-6.417 4.185q-2.232 3.348 -5.022 9.765t-3.348 7.533q0 -1.116 -1.395 -3.627t-1.395 -3.627q-6.696 1.116 -8.928 -1.674 2.79 8.928 4.464 9.486l-2.232 -1.116q-.558 3.348 1.674 8.37t2.232 6.138q.558 2.79 -.837 7.254t-1.395 6.138q0 1.116 2.79 6.138 2.232 10.602 -1.116 17.856 0 .558 -1.953 3.906t-3.627 6.138l-1.116 2.79 -1.116 -.558q-.558 -.558 -1.116 0 -.558 3.348 -5.022 7.254t-5.58 6.138q-8.37 12.834 -5.022 21.204 1.674 4.464 5.58 5.58 1.674 .558 1.674 -1.116 .558 5.022 -6.138 15.066 .558 .558 2.232 1.674 -9.486 0 -5.58 7.812 112.716 -20.088 196.416 -100.998h-1.674zm-312.48 -103.23q8.928 -1.674 17.019 8.928t12.555 12.834q22.878 11.16 32.922 6.138 0 5.022 7.812 15.624 1.674 2.232 3.627 6.417t3.069 5.859q2.79 3.906 10.602 8.928t10.602 8.928q3.348 -1.674 5.022 -5.022 7.254 19.53 13.392 18.972 2.79 0 4.464 -4.464 0 .558 -.279 1.674t-.837 1.674q3.906 -8.37 2.79 -14.508l3.348 -2.232q2.79 -2.232 2.79 -2.79 -3.348 -3.348 -5.022 1.674 -16.74 7.812 -26.784 -12.276 -1.116 -1.674 -2.511 -4.464t-2.79 -6.696 -.837 -6.417 3.348 -2.511q6.138 0 6.975 -.837t-1.395 -3.348 -2.232 -4.185q-.558 -2.232 -.837 -6.975t-.837 -6.975l-2.79 -3.348q-2.79 -3.348 -6.417 -7.533t-4.185 -5.301q-2.232 5.58 -9.207 4.743t-10.323 -5.301q.558 1.116 -.279 3.627t-.837 3.627q-7.812 0 -9.486 -.558 .558 -3.348 1.674 -11.718t2.232 -12.276q.558 -2.79 3.069 -7.533t4.464 -8.649 2.511 -7.812 -2.511 -5.859 -10.323 -1.395q-11.16 .558 -16.182 12.276 -.558 1.674 -1.674 6.417t-2.79 6.975 -5.022 3.906q-4.464 1.674 -15.066 1.116t-14.508 -2.79q-7.812 -4.464 -13.392 -17.019t-6.138 -23.157q0 -5.58 1.674 -15.345t1.674 -15.066 -3.348 -14.787q1.674 -1.116 5.58 -5.859t6.138 -6.417q1.116 -1.116 2.79 -1.116h2.79t2.232 -1.116 1.674 -3.348q-.558 -.558 -2.232 -1.674 -1.674 -1.674 -2.232 -1.674 2.232 1.674 10.602 .558t10.602 -1.116q0 -.558 12.276 0 9.486 7.254 13.392 -1.116 0 -.558 -1.395 -5.859t-.279 -8.091q2.79 16.182 17.856 5.58 1.674 2.232 9.207 3.348t10.323 2.79q1.674 1.116 3.906 3.069t3.348 2.79 3.348 .279 5.022 -3.906q6.138 9.486 7.254 13.95 6.138 23.994 11.16 26.784 4.464 1.116 6.975 1.116t2.79 -5.859 0 -8.649 -.837 -7.254l-1.116 -20.646q-8.928 -1.674 -11.16 -6.975t.837 -11.16 9.207 -10.881q.558 -.558 9.207 -4.464t11.997 -6.696q13.392 -10.602 9.486 -21.762 5.022 1.116 6.138 -5.022l-2.79 -1.674q-2.232 -1.674 -4.464 -3.069t-2.79 -.837q6.138 -3.906 1.116 -10.044 2.79 -1.674 4.464 -6.417t5.022 -6.417q5.022 7.812 12.276 1.674 4.464 -5.022 1.116 -10.044 2.79 -4.464 12.276 -6.417t11.16 -5.301q2.79 .558 3.906 0t1.116 -2.511v-4.185t.558 -4.743 1.674 -4.185q2.232 -3.348 8.928 -5.859t7.812 -3.069l10.602 -6.696q2.232 -2.232 0 -2.232 10.044 1.116 17.856 -6.138 7.254 -6.696 -2.79 -12.834 1.116 -3.906 -2.232 -5.859t-8.928 -3.069q1.674 -.558 6.696 -.279t6.696 -.837q8.37 -6.138 -3.906 -9.486 -11.16 -2.79 -26.226 7.254 -1.674 1.116 -7.254 6.696t-9.486 6.138q8.37 -10.044 2.79 -12.276 4.464 .558 12.555 -5.022t8.649 -6.138q2.232 -1.116 5.859 -1.395t4.743 -.837q39.618 -13.95 51.336 .558 4.464 -6.138 6.138 -8.37t5.301 -5.022 8.649 -4.464q11.718 -3.906 12.834 -5.022l.558 -12.834q-6.696 .558 -10.044 -4.464t-3.906 -12.276l-3.348 4.464q0 -3.348 -1.953 -4.185t-4.185 -.279 -5.301 1.116 -4.185 0q-5.022 -1.116 -10.881 -8.649t-8.091 -9.207q5.022 0 5.022 -2.79 -1.116 -2.79 -5.58 -4.464 .558 -3.348 -1.116 -4.464t-5.022 0q-1.116 -6.696 -.558 -7.254 -3.348 -.558 -6.138 -6.138t-4.464 -5.58q-1.116 0 -2.511 1.116t-2.79 3.069l-2.79 3.906t-1.953 3.069l-1.116 1.116q-6.696 -3.348 -13.392 5.58 -5.022 -.558 -9.486 1.116 8.37 -3.348 1.116 -7.254 -6.138 -2.79 -11.718 -1.116 6.696 -2.79 5.58 -7.812t-6.696 -8.928q.558 0 2.232 .558t2.232 .558q-.558 -2.79 -5.301 -5.301t-10.881 -5.022 -7.812 -3.627q-3.906 -2.79 -20.088 -5.859t-20.088 -.837q-2.79 1.674 -3.348 3.348t.837 4.743 1.953 4.743q3.348 12.834 2.79 15.066 -.558 1.674 -4.743 4.464t-3.069 6.696q.558 2.232 6.417 5.58t6.975 6.696q2.79 7.254 -2.232 13.95 -2.232 2.79 -8.37 6.138t-7.812 5.58q-2.79 2.79 -1.953 6.417t.279 5.301q.558 -.558 .558 -1.395t.558 -1.395q0 7.254 6.138 12.276 4.464 3.348 -8.928 10.044 -11.16 6.138 -11.16 2.232 .558 -4.464 -4.185 -8.928t-5.859 -6.696 -1.953 -10.602 -5.301 -11.718q-3.348 -2.232 -10.602 -2.232t-10.044 2.79q0 -5.58 -27.342 -16.74 -9.486 -4.464 -32.364 -2.232 3.906 -.558 0 -9.486 -4.464 -8.928 -11.718 -6.696 -4.464 -13.95 -2.232 -19.53 1.116 -2.79 5.022 -7.812t5.022 -8.37q.558 -1.674 8.649 -3.348t9.207 -4.464q.558 -2.232 -1.395 -3.627t-5.301 -2.511q29.574 3.348 35.154 -10.044 2.79 -5.022 1.674 -7.812 0 .558 1.116 .558t1.116 .558q6.696 -1.674 3.906 -9.486 10.602 -4.464 14.508 -4.464 2.79 .558 6.138 3.348t5.58 2.79q9.486 1.674 11.997 -5.58t-5.301 -12.834q3.906 2.232 3.906 -3.348 -.558 -7.254 -3.906 -10.602 -1.674 -1.116 -3.627 -1.395t-3.627 0 -3.906 -.279q-.558 0 -4.464 -1.116 -.558 .558 -1.116 .558h-4.464q-2.232 1.116 -2.232 2.79v.558q-.558 1.674 2.232 3.348l2.79 .558 1.674 1.116q-.558 0 -1.395 1.395t-1.395 1.395q0 1.674 1.674 2.79 -1.116 .558 -7.812 4.185t-9.486 5.859q-.558 .558 -2.232 1.395t-2.232 1.395q-1.116 .558 -2.232 -1.116t-2.232 -5.022 -2.232 -6.417 -2.511 -5.58 -3.069 -2.511q-6.696 0 -10.044 9.486 1.674 -5.58 -7.254 -9.765t-13.95 -4.185q11.16 -8.37 -5.022 -16.74l-.558 -.558q-16.74 2.232 -25.11 3.906 -1.116 3.348 1.674 6.696 -.558 3.906 3.348 5.022 0 .558 .279 .558t.279 .558q0 -.558 -.279 -.558t-.279 -.558q1.674 .558 5.859 .837t5.301 .837q1.674 .558 2.511 1.116l4.185 2.79t3.069 3.348 -1.395 2.79q-1.116 .558 -5.022 2.232t-6.975 3.069 -3.627 1.953q-1.674 2.79 0 8.928t-1.116 8.37q-2.79 -2.79 -5.58 -10.323t-4.464 -9.765q4.464 5.022 -16.74 3.348l-4.464 -.558q-2.232 0 -8.37 1.116t-8.928 .558q-3.906 0 -16.182 -3.348 3.906 -9.486 2.79 -13.95 2.79 0 3.906 -1.116l-3.348 -1.674q-1.674 .558 -13.95 5.022 1.116 1.674 4.464 5.301t5.022 6.417q-12.276 -3.348 -15.066 1.116 0 .558 -5.022 0 -13.95 -.558 -13.392 3.906 .558 2.232 5.022 6.696 0 5.022 -.558 5.022 -15.066 -12.276 -16.74 -12.834 -95.976 46.314 -154.008 138.384 .558 1.116 1.395 6.138t1.953 4.743 6.138 -2.511q5.022 5.022 1.674 11.718 1.116 -1.116 20.088 11.718 31.248 22.32 12.276 29.574v-3.069t.558 -3.627q-5.022 .558 -10.602 -2.79 -1.674 3.348 .279 11.16t6.417 7.812q-4.464 0 -5.859 9.486t-1.395 21.483 -.558 14.229l1.116 .558q-1.674 7.254 3.348 20.925t13.392 11.439q-2.232 10.044 2.79 11.718 -.558 2.232 0 4.464t2.511 4.743 3.348 3.906l4.185 4.185 3.348 3.348q15.624 6.138 22.878 16.182 2.232 3.348 5.859 13.671t8.649 14.229q-1.116 3.348 5.58 11.997t6.138 14.229q-.558 0 -1.395 .279t-1.395 .279q1.674 4.464 9.207 8.928t9.207 7.812q1.116 1.674 1.395 5.859t1.674 6.696 4.743 1.395q1.674 -13.392 -14.508 -37.944 -8.928 -15.066 -10.044 -17.298 -1.674 -2.79 -3.069 -9.207t-2.511 -8.649q15.066 5.022 14.508 7.254 -2.79 5.58 14.508 29.016 1.116 1.674 5.58 5.58t6.138 6.696q1.674 2.232 5.301 8.091t5.859 8.649q-.558 0 -1.674 1.116l-1.674 1.674q2.232 1.116 5.022 2.79t4.464 2.511 4.185 2.79 4.185 4.185q8.928 10.044 11.16 18.414 .558 2.232 .279 8.649t.837 9.207q1.116 3.348 3.348 6.138t6.417 5.58 6.417 3.906 8.091 3.627 6.417 3.069q1.116 .558 10.044 6.138t13.95 7.812q5.58 2.232 9.207 2.511t8.928 -1.395 8.649 -2.232z"/></svg>