<svg height="1000px" width="857.1428571428571px" xmlns="http://www.w3.org/2000/svg">
  <g>
    <path d="M493.86160714285717 871.6517857142857c0 0 6.138 3.906 6.138 3.906c0 0 0 2.79 0 2.79c0 0 -3.348 2.233 -3.348 2.233c-1.116 1.116 -1.488 1.86 -1.116 2.232c0 0 5.58 3.348 5.58 3.348c84.822 -15.625 156.622 -55.246 215.402 -118.862c-0.372 -0.372 -0.837 -0.558 -1.395 -0.558c-0.558 0 -0.837 0.558 -0.837 1.674c0 0 0 -1.674 0 -1.674c0 0 -0.558 0 -0.558 0c-1.86 0.744 -3.162 1.116 -3.906 1.116c0 0 -0.558 0 -0.558 0c0 0 -1.116 -2.232 -1.116 -2.232c0 0 -2.79 -1.116 -2.79 -1.116c0 0 -3.349 -0.558 -3.349 -0.558c-0.744 -0.744 -2.046 -0.186 -3.906 1.674c0 0 -1.674 -1.116 -1.674 -1.116c0 0 0 -1.116 0 -1.116c0 -0.372 -2.232 -1.302 -6.696 -2.79c0 0 -5.023 -0.558 -5.023 -0.558c0 0 -1.674 -2.232 -1.674 -2.232c-0.372 0 -0.558 -0.186 -0.558 -0.558c0 0 -1.116 -0.558 -1.116 -0.558c0 -0.372 -0.186 -0.558 -0.558 -0.558c0 0 -0.558 -0.558 -0.558 -0.558c0 -0.372 -0.558 -0.558 -1.674 -0.558c0 0 -1.674 -1.675 -1.674 -1.675c0 0 0 -2.232 0 -2.232c0 0 -1.116 -2.232 -1.116 -2.232c0 -0.372 -2.233 -2.79 -6.697 -7.254c0 0 -1.116 -0.558 -1.116 -0.558c0 0 -1.674 -0.558 -1.674 -0.558c0 0 -0.558 -0.558 -0.558 -0.558c0 -0.744 -1.302 -1.861 -3.906 -3.349c0 0 -1.116 0 -1.116 0c-0.372 -0.744 -0.558 -1.302 -0.558 -1.674c0.372 0 0.558 0.186 0.558 0.558c0 0 0 -1.116 0 -1.116c-0.372 -0.372 -0.744 -1.116 -1.116 -2.232c0 0 -1.116 0 -1.116 0c-1.117 -0.744 -1.675 -1.674 -1.675 -2.79c0 -1.116 -0.93 -1.674 -2.79 -1.674c-0.744 -0.744 -1.488 -1.116 -2.232 -1.116c-0.744 0 -1.302 0.372 -1.674 1.116c-0.372 -0.744 -1.488 -1.116 -3.348 -1.116c0 0 -1.674 -1.674 -1.674 -1.674c0 -0.744 -0.558 -1.116 -1.674 -1.116c0 0 -1.117 0 -1.117 0c0 -0.372 -0.372 -0.931 -1.116 -1.675c0 0 -0.558 0 -0.558 0c0 0 0 -1.674 0 -1.674c0 -0.372 -0.372 -0.93 -1.116 -1.674c-0.744 -0.744 -1.488 -0.93 -2.232 -0.558c0 0 -1.116 0 -1.116 0c-1.488 0.744 -2.232 1.488 -2.232 2.232c0 0 -2.79 1.116 -2.79 1.116c0 0 -6.139 6.139 -6.139 6.139c0 0 -2.232 4.464 -2.232 4.464c0 0 -6.138 -6.138 -6.138 -6.138c0 0 -0.558 -5.581 -0.558 -5.581c-0.744 -1.488 -1.674 -2.232 -2.79 -2.232c0 0 -5.023 0 -5.023 0c0 0 -8.928 1.674 -8.928 1.674c0 0 -1.674 -2.79 -1.674 -2.79c0 -1.86 -0.372 -2.79 -1.116 -2.79c0 0 -1.117 -2.232 -1.117 -2.232c0 0 -3.906 -2.232 -3.906 -2.232c0 0 -3.906 0 -3.906 0c-1.116 -0.744 -3.999 -0.093 -8.65 1.953c-4.65 2.046 -6.975 3.441 -6.975 4.185c0 0 -0.558 1.116 -0.558 1.116c0 0 0 2.232 0 2.232c0 0 0.558 2.232 0.558 2.232c0 0.372 0.186 0.558 0.558 0.558c0 0 0 2.791 0 2.791c0 0 -1.116 0.558 -1.116 0.558c0 0 0 6.696 0 6.696c0 0 -1.674 0 -1.674 0c0 0 -1.116 -2.79 -1.116 -2.79c0 0 -0.558 0 -0.558 0c0 0 -1.116 -4.464 -1.116 -4.464c2.604 -4.465 3.906 -6.976 3.906 -7.534c0 -0.558 -0.186 -1.023 -0.558 -1.395c0 0 0 -1.116 0 -1.116c0 0 1.116 -3.348 1.116 -3.348c0 0 0 -2.232 0 -2.232c0 -0.744 -1.116 -1.675 -3.348 -2.791c0 0 -3.907 0 -3.907 0c0 0 -3.348 1.675 -3.348 1.675c0 0 -0.558 0 -0.558 0c0 0 -3.906 3.906 -3.906 3.906c0 0 -4.464 0 -4.464 0c-1.488 0 -2.79 1.488 -3.907 4.464c0 0 -0.558 0.558 -0.558 0.558c-2.976 -1.86 -4.836 -2.046 -5.58 -0.558c-2.232 1.488 -3.348 2.79 -3.348 3.906c0 0 0 1.116 0 1.116c0 0 -1.674 1.116 -1.674 1.116c0 0.372 -0.186 0.558 -0.558 0.558c-0.372 0 -0.558 0.187 -0.558 0.559c0 0 0 1.674 0 1.674c0 0 0.558 1.674 0.558 1.674c0 0.744 0.558 1.674 1.674 2.79c0 0 -0.558 2.232 -0.558 2.232c0 0 -1.116 0 -1.116 0c-1.86 0 -2.79 0.186 -2.79 0.558c0 0 -0.559 1.674 -0.559 1.674c0 0 -2.232 1.674 -2.232 1.674c-2.232 1.116 -2.976 2.418 -2.232 3.907c0 0 0 3.348 0 3.348c0 0 -1.116 0.558 -1.116 0.558c0 0 0 -1.674 0 -1.674c0 -1.116 -0.186 -1.674 -0.558 -1.674c0 0 -1.116 -3.349 -1.116 -3.349c0 0 -0.558 -5.022 -0.558 -5.022c0 0 -1.116 1.674 -1.116 1.674c0 0 -0.558 3.348 -0.558 3.348c-0.744 -0.744 -1.302 -1.116 -1.674 -1.116c0 0 0 -0.558 0 -0.558c0 0 -0.558 -0.558 -0.558 -0.558c0 -0.744 -1.488 -1.86 -4.465 -3.348c-4.464 -2.232 -6.603 -2.511 -6.417 -0.837c0.186 1.674 0.837 3.069 1.953 4.185c0 0 1.674 0.558 1.674 0.558c0 0 0 -1.116 0 -1.116c0 0 1.674 -2.232 1.674 -2.232c0 0 2.233 0 2.233 0c0 0 0 7.813 0 7.813c0 0 1.674 1.674 1.674 1.674c-1.116 0 -2.233 0.558 -3.349 1.674c-0.372 0.744 0 2.139 1.116 4.185c0 0 1.675 3.627 1.675 3.627c0 0.744 0.372 0.93 1.116 0.558c0 0 1.116 1.116 1.116 1.116c0 0 0 1.675 0 1.675c0 0.744 0.744 1.488 2.232 2.232c0 0 0 3.348 0 3.348c-0.744 1.488 -0.93 2.418 -0.558 2.79c0 0 0 0.558 0 0.558c0 0 -1.116 2.79 -1.116 2.79c-0.372 0.372 -1.116 0.93 -2.232 1.674c-1.116 0.744 -1.674 1.302 -1.674 1.674c0 0 0 3.907 0 3.907c0 0 6.696 2.232 6.696 2.232c0 0 -0.558 2.79 -0.558 2.79c0 1.86 0.744 3.534 2.232 5.022c0 0 -3.906 7.813 -3.906 7.813c0 0 -1.674 3.906 -1.674 3.906c0 0 -2.79 1.674 -2.79 1.674c0 0 -2.233 0.558 -2.233 0.558c-1.488 0 -2.232 1.488 -2.232 4.465c0 0 0.558 0.558 0.558 0.558c0 0 -1.116 1.674 -1.116 1.674c0 0 1.674 2.232 1.674 2.232c0 0 -2.232 -1.674 -2.232 -1.674c-0.744 0.744 -0.744 1.86 0 3.348c0 0 -1.116 2.79 -1.116 2.79c0 0 -2.79 0 -2.79 0c-0.744 0 -1.674 0.558 -2.79 1.674c-2.232 0.744 -3.348 1.86 -3.348 3.348c0 0 0 3.349 0 3.349c0 0 -2.233 4.464 -2.233 4.464c-0.744 0 -1.116 0.744 -1.116 2.232c0 0 1.674 1.674 1.674 1.674c-1.116 0 -2.046 0.744 -2.79 2.232c-1.488 1.488 -2.232 2.791 -2.232 3.907c0 0 0.558 1.674 0.558 1.674c0 0 -0.558 1.674 -0.558 1.674c0 0 1.116 3.348 1.116 3.348c0 0 -0.558 2.232 -0.558 2.232c0 1.488 0.372 2.418 1.116 2.79c1.116 1.116 2.046 1.674 2.79 1.674c0 0 0.558 -0.558 0.558 -0.558c1.116 0 1.675 -0.372 1.675 -1.116c0 0 1.116 -1.674 1.116 -1.674c0 -0.744 0.186 -1.116 0.558 -1.116c0 0 0.558 5.022 0.558 5.022c0 0 -1.116 2.791 -1.116 2.791c0 0 -0.558 2.79 -0.558 2.79c0 0 -0.558 0.558 -0.558 0.558c0 0 -1.117 0.558 -1.117 0.558c0 0 -3.348 3.348 -3.348 3.348c0 0 0 1.674 0 1.674c0 0 2.232 1.116 2.232 1.116c0 0 0 0.558 0 0.558c0 0 -3.348 0.558 -3.348 0.558c0 0 -3.906 1.674 -3.906 1.674c0 0 -0.558 1.117 -0.558 1.117c0 0 -0.558 1.674 -0.558 1.674c0.372 0.372 0.558 0.744 0.558 1.116c0 0 1.116 2.232 1.116 2.232c0 0 0 1.674 0 1.674c0 0.372 0.186 0.558 0.558 0.558c0 0 0 0 0 0m-199.219 -710.937c0 0 -5.58 -3.349 -5.58 -3.349c0 0 -1.116 0.558 -1.116 0.558c0 0 0 0.558 0 0.558c0 0 -7.813 1.116 -7.813 1.116c-0.372 0 -1.023 0.651 -1.953 1.954c-0.93 1.302 -1.023 2.325 -0.279 3.069c0 0 0.558 1.674 0.558 1.674c0 0.744 0.744 1.488 2.232 2.232c0 0 0 1.116 0 1.116c0 0 1.674 1.674 1.674 1.674c-0.744 0 -1.302 0.558 -1.674 1.674c-0.372 1.116 -0.372 1.86 0 2.232c0 0 0.558 1.117 0.558 1.117c0 0 -2.79 -2.791 -2.79 -2.791c0 0 -1.116 -0.558 -1.116 -0.558c0 0 -1.674 -0.558 -1.674 -0.558c-1.116 -1.488 -1.86 -2.232 -2.232 -2.232c0 0 -2.232 -1.116 -2.232 -1.116c0 -2.232 -0.93 -3.348 -2.79 -3.348c-1.117 -1.86 -2.047 -2.79 -2.791 -2.79c0 0 -1.116 -0.558 -1.116 -0.558c-1.116 0 -1.953 -0.093 -2.511 -0.279c-0.558 -0.186 -1.209 -0.279 -1.953 -0.279c0 0 -0.558 0 -0.558 0c-0.744 -1.116 -3.72 -0.93 -8.929 0.558c0 0 -1.116 0 -1.116 0c-0.372 -0.372 -0.93 -0.558 -1.674 -0.558c0 0 -4.464 1.116 -4.464 1.116c0 0 -0.558 0 -0.558 0c-0.372 -0.372 -0.93 -0.558 -1.674 -0.558c0 0 -2.232 0.558 -2.232 0.558c0 0 -3.907 -2.232 -3.907 -2.232c0 0 -0.558 0 -0.558 0c0 0 -2.232 -0.559 -2.232 -0.559c0 0 -3.348 0.559 -3.348 0.559c0 0 2.232 1.116 2.232 1.116c-67.336 40.178 -108.631 81.845 -123.884 125c0 0 -4.464 0 -4.464 0c0 0 -5.58 2.79 -5.58 2.79c0 0 0 1.674 0 1.674c0 1.86 1.116 2.79 3.348 2.79c-2.604 0.744 -3.162 2.604 -1.674 5.58c0 0 1.116 0.558 1.116 0.558c0.744 0.744 1.488 0.93 2.232 0.558c2.976 -1.488 4.464 -2.79 4.464 -3.906c0 0 1.674 -0.558 1.674 -0.558c0 0 0.558 1.674 0.558 1.674c-0.744 0.744 -0.744 1.488 0 2.232c0.744 0.744 1.302 1.117 1.674 1.117c0 0 1.675 0.558 1.675 0.558c0 0 0 1.116 0 1.116c-2.233 0 -3.349 0.558 -3.349 1.674c0 0 -1.674 2.79 -1.674 2.79c0 0 0 1.116 0 1.116c0 0.372 1.302 1.209 3.906 2.511c2.605 1.302 4.558 1.674 5.86 1.116c1.302 -0.558 1.953 -1.023 1.953 -1.395c1.488 -1.488 2.232 -2.418 2.232 -2.79c0 0 0.558 1.116 0.558 1.116c-0.744 1.488 -0.372 2.604 1.116 3.348c0 0 0 0.558 0 0.558c0 1.116 0.186 1.674 0.558 1.674c0 0 0.558 0.558 0.558 0.558c-0.744 1.116 -0.744 2.233 0 3.349c0 0 0 0.558 0 0.558c0 0 -0.558 2.232 -0.558 2.232c0 0 2.79 0 2.79 0c0 0 2.233 2.232 2.233 2.232c0 4.464 1.302 5.394 3.906 2.79c0 0 1.116 -0.558 1.116 -0.558c-1.86 2.976 -1.302 4.464 1.674 4.464c1.116 0.372 2.232 0 3.348 -1.116c0.744 1.488 1.86 2.046 3.348 1.674c0 0 0.558 0 0.558 0c-1.488 1.488 -2.232 3.256 -2.232 5.302c0 2.046 0.93 3.069 2.791 3.069c0 0 0.558 0 0.558 0c0 0 2.79 -2.232 2.79 -2.232c0 -0.372 0.186 -0.558 0.558 -0.558c0 2.232 0.93 2.79 2.79 1.674c0 0.372 0.93 0.558 2.79 0.558c0 0 0 0.558 0 0.558c-1.488 1.488 -1.302 2.232 0.558 2.232c-0.372 0.744 -0.186 1.488 0.558 2.232c0.744 0.744 1.302 1.116 1.674 1.116c0 0 0.558 0.558 0.558 0.558c0 0.744 0.372 1.116 1.116 1.116c0 0 0.558 0.558 0.558 0.558c0 0 0 2.233 0 2.233c0 1.488 0.558 2.418 1.675 2.79c0 1.116 0.372 2.046 1.116 2.79c-0.744 0.744 -1.116 1.488 -1.116 2.232c0 0 -0.558 4.464 -0.558 4.464c0 0 -2.233 1.674 -2.233 1.674c0 0 -1.674 0.559 -1.674 0.559c0 0 -1.116 -0.559 -1.116 -0.559c0.372 -0.372 0.186 -1.302 -0.558 -2.79c1.488 -1.86 2.232 -3.348 2.232 -4.464c-0.372 -0.372 -1.116 -0.558 -2.232 -0.558c0 0 -1.674 1.674 -1.674 1.674c0 0 -1.116 0 -1.116 0c0 0 -3.906 -2.232 -3.906 -2.232c0 0 -1.116 -2.232 -1.116 -2.232c-1.488 -1.488 -2.604 -1.488 -3.349 0c-1.86 2.232 -0.372 6.324 4.465 12.277c0 1.488 0.558 2.418 1.674 2.79c-0.372 0.372 -0.372 1.023 0 1.953c0.372 0.93 1.116 1.395 2.232 1.395c0 0 0.558 1.674 0.558 1.674c-0.372 -0.372 -1.023 -0.558 -1.953 -0.558c-0.93 0 -1.767 0.372 -2.511 1.116c0 0 0 2.232 0 2.232c0 0 1.116 3.907 1.116 3.907c-0.744 0 -1.116 0.558 -1.116 1.674c0 0 -2.232 17.857 -2.232 17.857c-2.233 2.232 -2.791 4.836 -1.675 7.812c0 0 0 3.348 0 3.348c0 0 1.675 2.791 1.675 2.791c0 0 0 3.348 0 3.348c0 0 -0.558 0 -0.558 0c0 0 -0.558 1.674 -0.558 1.674c0 0 1.116 0.558 1.116 0.558c0 0 0.558 0 0.558 0c-0.372 1.116 -0.93 2.232 -1.674 3.348c0 0 0 1.116 0 1.116c0 0 1.116 1.674 1.116 1.674c0 0 0 1.116 0 1.116c-0.372 0 -0.558 0.372 -0.558 1.117c0 0 -0.558 1.674 -0.558 1.674c0 0.744 0.372 1.488 1.116 2.232c0 0 0.558 0 0.558 0c2.232 2.232 3.348 5.394 3.348 9.486c0 0 0.558 0.558 0.558 0.558c0 0 0 0.558 0 0.558c0 0 1.116 2.233 1.116 2.233c0 0 0 1.116 0 1.116c0 0 4.464 4.464 4.464 4.464c0 2.976 1.86 3.534 5.581 1.674c0 0 1.674 0.558 1.674 0.558c-1.488 0.744 -1.86 1.674 -1.116 2.79c0 0 0 2.79 0 2.79c-1.86 1.861 -1.302 3.535 1.674 5.023c0 0 0.558 0 0.558 0c0 0 1.116 0.558 1.116 0.558c0 0 0 1.674 0 1.674c0 0 -0.558 0.558 -0.558 0.558c0 0.372 -0.186 0.93 -0.558 1.674c0 0 3.906 5.58 3.906 5.58c0 0 1.116 1.117 1.116 1.117c1.488 1.86 2.418 2.79 2.79 2.79c0 0 2.232 1.674 2.232 1.674c0 0 6.139 3.348 6.139 3.348c0 0 0 2.232 0 2.232c0 0 5.022 5.022 5.022 5.022c0 0.745 0.372 1.117 1.116 1.117c0 0 2.79 1.116 2.79 1.116c0 0 1.116 0 1.116 0c0 0 2.233 1.116 2.233 1.116c0 0.744 0.372 1.116 1.116 1.116c0 0 2.232 1.116 2.232 1.116c0 0 5.022 5.022 5.022 5.022c0 0 1.116 2.79 1.116 2.79c0 0 0.558 1.116 0.558 1.116c0 0 0 1.116 0 1.116c0 0 2.232 3.907 2.232 3.907c0 0 0 1.116 0 1.116c0 0 1.116 1.116 1.116 1.116c0 0.372 0.558 1.116 1.675 2.232c0 0 -0.558 1.116 -0.558 1.116c0 0.744 0.93 2.418 2.79 5.022c0 0 0 1.116 0 1.116c0 0 3.348 5.581 3.348 5.581c0 0.744 0.93 1.488 2.79 2.232c0 0 0 1.116 0 1.116c0 0.744 -0.186 1.116 -0.558 1.116c0 0 -0.558 2.232 -0.558 2.232c0 0 8.929 7.813 8.929 7.813c0 0.744 0.372 1.116 1.116 1.116c0 0 2.232 2.79 2.232 2.79c0 0 0.558 4.464 0.558 4.464c-0.372 0.372 -0.558 0.744 -0.558 1.116c0 0 0 2.233 0 2.233c0 1.488 0.372 2.232 1.116 2.232c0 0 -1.116 0 -1.116 0c-2.604 0 -3.534 0.744 -2.79 2.232c2.976 5.208 5.58 6.882 7.812 5.022c1.116 0.372 1.674 0.186 1.674 -0.558c0 0 0 0.558 0 0.558c0 0.744 0.93 1.767 2.79 3.069c1.861 1.302 3.163 1.953 3.907 1.953c0 0 3.348 6.697 3.348 6.697c0 0 0 5.022 0 5.022c0 0 0.558 1.674 0.558 1.674c0 0 1.674 3.349 1.674 3.349c2.976 2.976 4.836 4.278 5.58 3.906c0 0 0 -6.697 0 -6.697c0 0 1.116 -1.116 1.116 -1.116c0 0 -1.116 -5.58 -1.116 -5.58c0 -0.372 -0.093 -0.558 -0.279 -0.558c-0.186 0 -0.279 -0.186 -0.279 -0.558c0 0 -2.232 -6.697 -2.232 -6.697c0 -1.116 -0.744 -1.674 -2.232 -1.674c0 0 -1.674 -3.348 -1.674 -3.348c0 -1.86 -0.558 -2.79 -1.674 -2.79c0 0 -1.116 -1.116 -1.116 -1.116c0 0 0 -1.116 0 -1.116c0 0 -0.558 -0.558 -0.558 -0.558c0 -0.372 -0.744 -1.116 -2.232 -2.232c0 0 -0.558 -1.675 -0.558 -1.675c-0.744 -3.72 -1.675 -5.58 -2.791 -5.58c0 0 -1.674 -3.906 -1.674 -3.906c-0.372 0 -0.558 -0.186 -0.558 -0.558c0 0 -3.348 -4.464 -3.348 -4.464c0 -0.372 -0.744 -1.303 -2.232 -2.791c-1.488 -1.488 -2.418 -2.232 -2.79 -2.232c0 0 -1.674 -2.232 -1.674 -2.232c0 0 -1.116 -7.254 -1.116 -7.254c0 -0.744 -0.372 -1.488 -1.117 -2.233c0 0 0 -5.022 0 -5.022c0 -1.116 -0.186 -1.86 -0.558 -2.232c0 0 -0.558 -1.116 -0.558 -1.116c0 0 6.697 3.906 6.697 3.906c1.116 0 1.86 -0.186 2.232 -0.558c1.86 1.86 2.976 2.79 3.348 2.79c0 0 1.674 0.558 1.674 0.558c0 0 1.116 1.116 1.116 1.116c0 0 -1.674 1.675 -1.674 1.675c0 0 0 1.674 0 1.674c0 0 3.906 3.906 3.906 3.906c0 0 0.559 2.79 0.559 2.79c0 0 2.79 4.464 2.79 4.464c0 0 0 1.116 0 1.116c0 0.744 0.372 1.117 1.116 1.117c0 0 1.116 3.348 1.116 3.348c0.372 0 0.558 0.186 0.558 0.558c0 0 1.116 2.79 1.116 2.79c0.372 0 0.558 0.186 0.558 0.558c0 0 2.232 2.232 2.232 2.232c0.372 0 1.488 1.302 3.348 3.906c0 0 0.558 0 0.558 0c0 0 4.465 1.674 4.465 1.674c0 0 0 3.349 0 3.349c0.744 2.604 2.046 3.906 3.906 3.906c0 0 1.116 0 1.116 0c0 0 0.558 1.116 0.558 1.116c0 0.744 0.558 1.488 1.674 2.232c0 0 1.674 0 1.674 0c0 0 2.79 5.581 2.79 5.581c0 2.604 0.744 3.906 2.233 3.906c0 0 0 1.116 0 1.116c0 1.116 1.116 2.79 3.348 5.022c0 0 -3.906 2.232 -3.906 2.232c0 0 0 1.116 0 1.116c0 1.116 1.488 1.674 4.464 1.674c0 0 6.696 2.233 6.696 2.233c0 0 4.465 4.464 4.465 4.464c0 0 3.348 5.022 3.348 5.022c0 0 0.558 1.116 0.558 1.116c0.372 0.372 0.558 0.744 0.558 1.116c0 0 6.696 7.813 6.696 7.813c0 0 0 3.348 0 3.348c0 0.744 0.93 2.418 2.79 5.022c0 0 0 1.116 0 1.116c0 0 0.558 3.349 0.558 3.349c0 0 -0.558 1.116 -0.558 1.116c0 0 0 2.79 0 2.79c0 0 0.558 0.558 0.558 0.558c0 0 -1.116 1.116 -1.116 1.116c-0.372 0 -0.744 0.465 -1.116 1.395c-0.372 0.93 -0.372 1.581 0 1.953c0 0 0 1.674 0 1.674c0 0.372 0.186 0.558 0.558 0.558c0 0 3.349 5.023 3.349 5.023c0 0.372 0.372 0.93 1.116 1.674c0 0 3.906 1.116 3.906 1.116c0 0 1.674 1.674 1.674 1.674c0 0 2.232 1.116 2.232 1.116c0 0 2.79 3.906 2.79 3.906c0 0 1.674 1.674 1.674 1.674c0 0 8.929 2.791 8.929 2.791c0 0 2.232 0 2.232 0c0 0 10.603 8.37 10.603 8.37c0 0 1.116 0 1.116 0c0 0 29.018 13.393 29.018 13.393c0 0 1.116 0 1.116 0c0 0 2.232 1.116 2.232 1.116c0 0 8.37 -3.348 8.37 -3.348c2.605 0 3.907 -1.302 3.907 -3.906c0 0 1.116 -1.116 1.116 -1.116c0.372 0.372 1.116 0.558 2.232 0.558c0 0 0 -1.116 0 -1.116c0 0 2.79 0 2.79 0c0 0 2.79 2.79 2.79 2.79c0 0 0.558 2.232 0.558 2.232c0 0 0.558 1.116 0.558 1.116c0 0 3.349 2.79 3.349 2.79c0 0 5.022 5.022 5.022 5.022c0 0.744 1.86 2.977 5.58 6.697c0 0 0.558 1.116 0.558 1.116c0.372 0.372 0.744 0.558 1.116 0.558c0 0 3.907 2.79 3.907 2.79c0 0 1.116 0 1.116 0c0 0 1.674 0.558 1.674 0.558c0 0 2.79 -0.558 2.79 -0.558c0 0 15.067 6.697 15.067 6.697c0 0 1.116 0 1.116 0c0 0 2.232 0.558 2.232 0.558c0 0 0.558 0 0.558 0c0 0 1.116 0.558 1.116 0.558c0.744 0 1.86 -0.744 3.348 -2.233c0 0 3.349 0 3.349 0c-0.744 1.117 -0.558 2.233 0.558 3.349c0 0 0 0.558 0 0.558c-0.744 1.488 2.046 5.952 8.37 13.393c0 0 0 0.558 0 0.558c0 0 5.023 4.464 5.023 4.464c0 0 0 1.116 0 1.116c-0.372 0.372 -0.558 0.744 -0.558 1.116c0 0.372 0.186 0.558 0.558 0.558c0 0 0 2.232 0 2.232c0 1.488 0.372 2.418 1.116 2.79c0 0 1.674 0 1.674 0c0.372 0 0.558 0.186 0.558 0.558c0 0 2.79 2.233 2.79 2.233c0 0 0.558 0 0.558 0c0 0 1.674 2.79 1.674 2.79c0 1.116 0.558 1.674 1.674 1.674c0 0 1.116 0 1.116 0c0 0 5.023 3.348 5.023 3.348c0 0 2.232 0 2.232 0c0 0 2.232 6.138 2.232 6.138c0 0 1.116 0 1.116 0c0.372 0.372 0.744 0 1.116 -1.116c0 0 1.116 -0.558 1.116 -0.558c0 0 2.232 -4.464 2.232 -4.464c0 0 6.139 7.813 6.139 7.813c0 0 0.558 6.138 0.558 6.138c0 2.604 0.744 3.906 2.232 3.906c0 0 1.116 0 1.116 0c0 0 2.232 1.116 2.232 1.116c0 0.372 0.279 0.465 0.837 0.279c0.558 -0.186 1.116 -0.279 1.674 -0.279c0.558 0 1.209 -0.372 1.953 -1.116c0 0 0.558 0 0.558 0c0 0 1.116 -1.674 1.116 -1.674c0 -2.232 0.186 -3.348 0.558 -3.348c0 0 2.791 -8.371 2.791 -8.371c0 0 -2.232 -1.674 -2.232 -1.674c0 0 2.79 0.558 2.79 0.558c0 0 0 -2.79 0 -2.79c0.372 0.372 0.93 0.186 1.674 -0.558c0 0 1.116 0 1.116 0c1.488 0 2.325 -0.372 2.511 -1.116c0.186 -0.744 -0.465 -1.488 -1.953 -2.232c0 0 -1.116 0 -1.116 0c-1.488 -0.744 -2.511 -0.558 -3.069 0.558c-0.558 1.116 -0.651 2.046 -0.279 2.79c0 0 -2.791 0 -2.791 0c0 0 -5.022 1.674 -5.022 1.674c0 0 -1.674 0 -1.674 0c0 0 -1.116 -1.674 -1.116 -1.674c0 0 -2.232 0 -2.232 0c0 0 -2.232 1.674 -2.232 1.674c0 0 -1.116 -0.558 -1.116 -0.558c0 0 -1.116 0 -1.116 0c0 0 -1.117 -1.116 -1.117 -1.116c0 0 -1.116 0.558 -1.116 0.558c0 -0.744 -0.651 -1.581 -1.953 -2.511c-1.302 -0.93 -1.953 -1.767 -1.953 -2.511c0 0 -1.674 -1.116 -1.674 -1.116c0 0 -6.696 -11.719 -6.696 -11.719c-0.372 0 -0.558 -0.186 -0.558 -0.558c0 0 -0.558 -1.674 -0.558 -1.674c1.116 -4.092 1.488 -6.325 1.116 -6.697c0 0 1.674 -6.138 1.674 -6.138c0 0 2.79 0 2.79 0c2.604 -1.116 4.092 -1.86 4.464 -2.232c0 0 1.116 0 1.116 0c0 0 0 -1.674 0 -1.674c0 0 -4.464 -3.348 -4.464 -3.348c0 0 -3.348 -4.465 -3.348 -4.465c0 0 1.674 -3.906 1.674 -3.906c0 0 0 -1.116 0 -1.116c0 0 0.558 -1.116 0.558 -1.116c0 0 -1.674 -3.348 -1.674 -3.348c0 0 1.116 -1.116 1.116 -1.116c0 0 -0.558 0 -0.558 0c-0.372 -0.372 -1.116 0 -2.232 1.116c0 0 -0.558 0 -0.558 0c0 0 -3.349 -7.813 -3.349 -7.813c0 -2.604 -1.116 -3.906 -3.348 -3.906c0 0 -3.348 -6.138 -3.348 -6.138c0 0 -0.558 0 -0.558 0c0 0 -3.906 6.138 -3.906 6.138c0 0 -0.558 0 -0.558 0c0 0 -2.232 -1.116 -2.232 -1.116c0 0 -8.371 -1.116 -8.371 -1.116c0 0 -3.348 -3.906 -3.348 -3.906c0 0 -1.116 0 -1.116 0c0 0 -0.558 3.906 -0.558 3.906c0 0 -0.558 3.348 -0.558 3.348c-0.744 -0.744 -1.674 -0.93 -2.791 -0.558c-1.116 0.372 -1.674 0.744 -1.674 1.116c0 0 -1.116 0.558 -1.116 0.558c-1.116 -1.116 -2.232 -1.116 -3.348 0c-1.116 -1.116 -1.86 -1.674 -2.232 -1.674c0 0 0 -1.674 0 -1.674c0 0 1.674 -2.232 1.674 -2.232c0 0 0.558 0 0.558 0c0 0 3.348 -6.139 3.348 -6.139c0 0 0 -1.116 0 -1.116c0 0 -0.558 -1.674 -0.558 -1.674c0 0 0 -1.674 0 -1.674c2.604 -5.208 2.418 -8.371 -0.558 -9.487c0 0 0.558 -1.116 0.558 -1.116c0 0 0 -1.116 0 -1.116c0 0 0.558 -1.674 0.558 -1.674c0 0 2.79 -0.558 2.79 -0.558c1.489 0 2.233 -0.93 2.233 -2.79c0 0 0.558 -1.674 0.558 -1.674c0 0 0 -3.906 0 -3.906c0 0 5.022 -3.907 5.022 -3.907c0 0 0 -1.116 0 -1.116c0 0 -1.116 -2.79 -1.116 -2.79c0 0 1.116 -2.79 1.116 -2.79c0 -0.744 0.186 -1.302 0.558 -1.674c0 0 0 -2.232 0 -2.232c0.372 -0.744 0.186 -1.488 -0.558 -2.232c-0.744 -0.745 -1.395 -1.024 -1.953 -0.838c-0.558 0.186 -1.023 0.279 -1.395 0.279c0 0 -3.348 -1.116 -3.348 -1.116c0 0 -1.675 0 -1.675 0c0 0 -5.022 0.558 -5.022 0.558c0 0 -0.558 0 -0.558 0c0 0 -10.045 2.233 -10.045 2.233c0 0 -1.116 0 -1.116 0c0 0 -3.906 6.138 -3.906 6.138c0 0 0 0.558 0 0.558c0 0 -1.674 8.371 -1.674 8.371c0 0 0 3.348 0 3.348c-3.72 3.348 -5.58 5.394 -5.58 6.138c0 0 0.558 1.674 0.558 1.674c0 0 -2.791 1.116 -2.791 1.116c0 0 -5.58 -2.232 -5.58 -2.232c0 0 -2.232 0.558 -2.232 0.558c-0.372 0 -0.558 0.093 -0.558 0.279c0 0.186 -0.186 0.279 -0.558 0.279c0 0 -1.674 1.674 -1.674 1.674c0 0 -7.813 0 -7.813 0c0 0 -0.558 -0.558 -0.558 -0.558c0 0 -2.79 0.558 -2.79 0.558c0 0 -1.116 0 -1.116 0c0 0 -0.558 0.558 -0.558 0.558c0 0 -1.674 -1.116 -1.674 -1.116c0 -0.744 -0.558 -1.116 -1.674 -1.116c0 0 -0.558 0 -0.558 0c-2.604 -1.116 -4.093 -1.488 -4.465 -1.116c0 0 -2.79 -1.674 -2.79 -1.674c0 -1.488 -0.372 -2.232 -1.116 -2.232c0 0 -3.906 -8.371 -3.906 -8.371c0 0 0 -0.558 0 -0.558c0 0 -1.116 -1.116 -1.116 -1.116c0 0 0 -0.558 0 -0.558c0 -0.744 -0.372 -1.116 -1.116 -1.116c0 0 -7.255 -16.183 -7.255 -16.183c0 0 0 -0.558 0 -0.558c0 0 -1.116 -6.138 -1.116 -6.138c0 0 0 -1.116 0 -1.116c0.372 0 0.558 -0.372 0.558 -1.116c0 0 0.558 -1.675 0.558 -1.675c0 0 -0.558 -5.58 -0.558 -5.58c0 0 0.558 -3.348 0.558 -3.348c0 0 0 -1.116 0 -1.116c0 0 1.116 -8.371 1.116 -8.371c0 0 0.558 -0.558 0.558 -0.558c0 0 2.791 -6.696 2.791 -6.696c0 -2.232 -1.116 -6.139 -3.349 -11.719c0 0 0.558 -1.116 0.558 -1.116c0 0 0 -1.674 0 -1.674c0 -0.372 -0.744 -1.302 -2.232 -2.79c0 0 1.116 0 1.116 0c1.488 -0.744 2.233 -2.046 2.233 -3.907c1.488 0 2.232 -0.93 2.232 -2.79c1.488 0 2.232 -1.116 2.232 -3.348c0.744 0 1.395 -0.372 1.953 -1.116c0.558 -0.744 1.395 -1.023 2.511 -0.837c1.116 0.186 2.046 0.093 2.79 -0.279c0 0 1.116 0 1.116 0c2.605 -1.488 4.279 -2.976 5.023 -4.464c0 0 0 -1.674 0 -1.674c0 0 -4.465 -1.675 -4.465 -1.675c0 0 0 -1.674 0 -1.674c0 0 8.371 2.791 8.371 2.791c0 0 1.674 0 1.674 0c0.744 -0.373 1.302 -0.559 1.674 -0.559c0 0 1.674 -2.232 1.674 -2.232c0.744 0 1.116 -0.186 1.116 -0.558c0 0 6.697 0 6.697 0c4.836 2.232 7.44 2.79 7.812 1.674c0 0 0.558 0 0.558 0c0 0 0.558 1.675 0.558 1.675c0 0 1.116 0 1.116 0c0 0 1.674 -1.675 1.674 -1.675c0 0 0 -1.116 0 -1.116c0 0 4.465 2.791 4.465 2.791c0 0 4.464 0 4.464 0c0 0 1.116 1.116 1.116 1.116c0.372 -0.372 0.93 -0.558 1.674 -0.558c4.837 -4.837 4.837 -7.255 0 -7.255c0 0 -1.674 -3.348 -1.674 -3.348c0 0 1.674 -7.813 1.674 -7.813c0 0 1.116 0 1.116 0c0 0 0.558 5.023 0.558 5.023c0 0 0.558 4.464 0.558 4.464c0 0 1.674 0.558 1.674 0.558c1.861 0 2.977 -0.558 3.349 -1.674c0 0 2.79 0 2.79 0c0 0 0.558 -0.558 0.558 -0.558c0 0 1.116 0.558 1.116 0.558c0 0 2.79 0 2.79 0c0 0 3.906 -2.79 3.906 -2.79c0 0 0 0.558 0 0.558c0 1.116 0.558 1.953 1.675 2.511c1.116 0.558 2.046 0.465 2.79 -0.279c0 0 0 -0.558 0 -0.558c0 0 3.348 -1.116 3.348 -1.116c0.744 0.744 1.488 1.116 2.232 1.116c0.744 0 1.302 -0.186 1.674 -0.558c0 0 1.674 0 1.674 0c2.232 1.488 3.535 2.232 3.907 2.232c0 0 1.116 0.558 1.116 0.558c0 0 0 0.558 0 0.558c0.372 0.372 0.558 0.744 0.558 1.116c0 0 1.116 0.558 1.116 0.558c0 0.372 0.186 0.744 0.558 1.116c0 0 0 1.116 0 1.116c1.116 2.232 2.046 3.349 2.79 3.349c0 0 0.558 0 0.558 0c0 0 0.558 0.558 0.558 0.558c0.372 0.744 0.744 0.93 1.116 0.558c0 0 3.906 -1.116 3.906 -1.116c0 0 1.674 0 1.674 0c0 0 1.675 -2.791 1.675 -2.791c0 0 2.232 -1.116 2.232 -1.116c2.604 4.093 4.278 6.139 5.022 6.139c0 0 1.116 0 1.116 0c0 0 2.232 2.79 2.232 2.79c-0.744 4.836 -0.372 8.556 1.116 11.161c-1.116 1.116 -1.302 2.604 -0.558 4.464c0.744 1.86 1.488 2.79 2.232 2.79c0 0 1.674 0.558 1.674 0.558c0 1.116 0.559 2.046 1.675 2.79c0 0 0 1.116 0 1.116c-0.372 0.372 -0.372 1.488 0 3.349c0.372 1.86 1.116 2.79 2.232 2.79c0 0 1.674 1.116 1.674 1.116c0 0 2.232 4.464 2.232 4.464c0 0 1.674 1.674 1.674 1.674c2.604 0 3.906 -0.93 3.906 -2.79c0 0 1.674 -3.906 1.674 -3.906c0 0 0 -0.558 0 -0.558c0 0 1.117 -8.371 1.117 -8.371c0 0 0 -0.558 0 -0.558c0 0 -2.791 -8.37 -2.791 -8.37c0 0 0 -0.558 0 -0.558c0 0 -2.79 -7.813 -2.79 -7.813c0 0 3.348 -12.277 3.348 -12.277c0 0 0 -1.116 0 -1.116c0 -0.372 -1.395 -0.558 -4.185 -0.558c-2.79 0 -4.185 -0.186 -4.185 -0.558c0 0 -9.487 -2.79 -9.487 -2.79c0 0 0 -6.696 0 -6.696c0 0 4.465 -0.559 4.465 -0.559c0 0 3.348 -2.79 3.348 -2.79c1.488 0 2.232 -0.93 2.232 -2.79c0 0 3.348 -6.696 3.348 -6.696c0 0 -0.558 -4.465 -0.558 -4.465c0.372 0.372 0.93 0 1.674 -1.116c0.744 -1.116 1.302 -1.674 1.674 -1.674c0 0 0.558 2.79 0.558 2.79c0 0 1.116 2.233 1.116 2.233c0 0 0 -5.023 0 -5.023c0 0 5.023 0 5.023 0c0 0 1.116 1.116 1.116 1.116c0 0 1.116 -1.116 1.116 -1.116c0 0 1.116 -2.232 1.116 -2.232c0 0 2.232 -2.232 2.232 -2.232c0 0 0.558 -1.116 0.558 -1.116c0 0 3.906 -2.232 3.906 -2.232c0 0 2.791 -0.558 2.791 -0.558c1.488 0 2.232 -0.744 2.232 -2.232c0 0 0 -0.558 0 -0.558c2.232 -1.861 3.441 -3.256 3.627 -4.186c0.186 -0.93 0.744 -1.674 1.674 -2.232c0.93 -0.558 1.209 -1.395 0.837 -2.511c0 0 1.116 -1.116 1.116 -1.116c0 0 0 -2.232 0 -2.232c1.116 0 2.046 -0.558 2.79 -1.674c0 -1.488 -0.558 -2.977 -1.674 -4.465c0 0 0.558 -1.674 0.558 -1.674c0.744 0.744 1.953 1.116 3.627 1.116c1.675 0 2.512 -1.116 2.512 -3.348c0 -2.976 -1.116 -4.278 -3.349 -3.906c0 0 -1.116 0.558 -1.116 0.558c0 0 0 -1.116 0 -1.116c-0.372 -1.488 -1.302 -2.232 -2.79 -2.232c0 0 -2.232 -1.116 -2.232 -1.116c2.976 0 3.906 -1.861 2.79 -5.581c0 0 -2.232 -2.232 -2.232 -2.232c0.372 -0.744 0.372 -1.674 0 -2.79c1.86 0 2.79 -0.744 2.79 -2.232c0 0 2.232 -3.348 2.232 -3.348c0 -1.489 -0.186 -2.419 -0.558 -2.791c1.86 -1.116 2.791 -2.046 2.791 -2.79c0 0 0.558 -0.558 0.558 -0.558c0.372 0 0.558 0.093 0.558 0.279c0 0.186 0.186 0.279 0.558 0.279c0 0 0.558 0 0.558 0c0 0 2.79 1.674 2.79 1.674c6.324 2.604 9.486 2.046 9.486 -1.674c1.117 -1.116 1.675 -1.86 1.675 -2.232c0 0 1.674 -3.906 1.674 -3.906c0 -0.744 -0.744 -1.86 -2.232 -3.348c0 0 2.79 -3.907 2.79 -3.907c0.744 0 2.139 -0.465 4.185 -1.395c2.046 -0.93 3.069 -1.581 3.069 -1.953c0 0 5.581 -0.558 5.581 -0.558c0 0 1.116 0 1.116 0c0.372 0.372 0.558 0.372 0.558 0c0 0 2.79 0 2.79 0c1.488 0 2.232 -0.744 2.232 -2.232c0 0 1.116 -1.674 1.116 -1.674c0 0 1.674 0 1.674 0c0 0.744 0.465 1.116 1.395 1.116c0.93 0 1.953 -0.465 3.069 -1.395c1.116 -0.93 1.116 -1.953 0 -3.069c-1.116 -1.116 -1.86 -1.674 -2.232 -1.674c0 0 -0.558 -2.233 -0.558 -2.233c1.116 -1.116 1.488 -2.232 1.116 -3.348c0 0 1.674 -3.348 1.674 -3.348c0 0 0 -1.116 0 -1.116c0 0 0.558 -0.558 0.558 -0.558c0.745 0 1.117 -0.372 1.117 -1.116c0 0 3.348 -3.906 3.348 -3.906c0 0 0.558 0 0.558 0c0.372 -0.373 0.744 -0.559 1.116 -0.559c0 0 0.558 -0.558 0.558 -0.558c1.116 0.744 3.534 -0.744 7.254 -4.464c0 0 2.232 0 2.232 0c0 0 2.791 -1.116 2.791 -1.116c0.744 0.372 1.86 0.186 3.348 -0.558c0 0 2.79 0 2.79 0c1.116 -0.372 1.674 -0.93 1.674 -1.674c0 0 1.116 -3.348 1.116 -3.348c0 0 -0.558 -1.116 -0.558 -1.116c2.976 0.744 4.651 1.116 5.023 1.116c0 0 1.674 -0.558 1.674 -0.558c0.744 0 1.302 -0.186 1.674 -0.558c0 0 0 -0.558 0 -0.558c0 0 1.116 0.558 1.116 0.558c0 0 1.116 0 1.116 0c0.744 0 2.418 -0.93 5.022 -2.791c0 0 1.116 0 1.116 0c2.976 -1.488 4.093 -2.976 3.348 -4.464c2.977 -5.58 1.675 -9.3 -3.906 -11.161c0 0 -1.116 0 -1.116 0c0 0 1.116 -0.558 1.116 -0.558c1.116 -1.116 1.395 -2.232 0.837 -3.348c-0.558 -1.116 -1.581 -1.674 -3.069 -1.674c0 0 -1.674 0.558 -1.674 0.558c0 0 -0.558 -0.558 -0.558 -0.558c0 -1.488 -0.744 -2.232 -2.232 -2.232c0 0 -2.79 -1.116 -2.79 -1.116c0 0 -2.791 0 -2.791 0c0 0 6.139 -1.116 6.139 -1.116c0 0 0.558 0 0.558 0c0 0 3.348 1.116 3.348 1.116c4.092 0 6.138 -1.116 6.138 -3.348c1.861 0 2.791 -0.558 2.791 -1.674c0.372 -2.233 -0.558 -4.093 -2.791 -5.581c0 0 -0.558 0 -0.558 0c-0.372 -0.372 -0.93 -0.558 -1.674 -0.558c0 0 -2.79 0 -2.79 0c0 0 -0.558 -0.558 -0.558 -0.558c0 0 -1.674 0 -1.674 0c0 0 -6.696 0.558 -6.696 0.558c-0.372 0 -0.558 0.186 -0.558 0.558c0 0 -9.487 2.79 -9.487 2.79c0 0 -10.603 5.023 -10.603 5.023c0 0.372 -0.186 0.558 -0.558 0.558c0 0 -9.486 9.486 -9.486 9.486c0 0.372 -2.977 2.046 -8.929 5.023c0 0 5.58 -4.465 5.58 -4.465c0 0 0 -0.558 0 -0.558c5.209 -3.348 7.069 -5.766 5.581 -7.254c0 -1.488 -2.046 -2.418 -6.139 -2.79c0 0 -1.674 -1.116 -1.674 -1.116c0 0 8.371 2.232 8.371 2.232c0 0 2.232 0 2.232 0c0 0 1.116 -1.116 1.116 -1.116c0 0 1.116 -1.674 1.116 -1.674c0 0 1.116 -0.558 1.116 -0.558c0 0 1.116 -2.233 1.116 -2.233c0 0 2.79 -1.674 2.79 -1.674c0 0 1.116 -1.116 1.116 -1.116c0 0 0.559 0 0.559 0c0 0 7.254 -2.232 7.254 -2.232c1.488 0 2.232 -0.744 2.232 -2.232c0 0 1.674 -2.79 1.674 -2.79c0 0 1.116 0 1.116 0c0 0 0.558 -0.558 0.558 -0.558c0 0 2.791 0 2.791 0c0 0 1.674 2.79 1.674 2.79c0 0 0.558 0 0.558 0c0 0 3.906 -6.696 3.906 -6.696c0 0.744 0.372 0.744 1.116 0c0 0 3.348 -0.559 3.348 -0.559c0 0 3.348 0.559 3.348 0.559c0 0 6.139 0 6.139 0c0 0 1.116 -0.559 1.116 -0.559c0 0 4.464 1.117 4.464 1.117c0.744 0 1.302 -0.186 1.674 -0.558c0 0 6.697 0 6.697 0c0 0 0.558 0.558 0.558 0.558c0 0 2.232 0 2.232 0c1.488 0.744 2.604 0.93 3.348 0.558c0 0 5.022 0 5.022 0c0 0 1.675 1.116 1.675 1.116c0 0 3.348 1.116 3.348 1.116c0 0 1.674 3.348 1.674 3.348c0.372 0 0.744 -0.372 1.116 -1.116c0.372 -0.744 0.93 -1.488 1.674 -2.232c0 0 1.674 -5.581 1.674 -5.581c0 0 0.558 -0.558 0.558 -0.558c0 0 3.348 -2.232 3.348 -2.232c1.116 0 1.674 -0.744 1.674 -2.232c0 0 5.023 -3.906 5.023 -3.906c0 0 1.674 0 1.674 0c0 0 0.558 0.558 0.558 0.558c0 0 2.232 -1.116 2.232 -1.116c0 0 6.697 0 6.697 0c0 0 3.906 -2.79 3.906 -2.79c0 0 1.116 0 1.116 0c2.232 -1.489 3.348 -2.791 3.348 -3.907c0 -2.232 -0.93 -3.348 -2.79 -3.348c2.232 -2.232 2.604 -3.906 1.116 -5.022c0.744 -0.744 1.116 -1.488 1.116 -2.232c0 0 -0.558 -0.558 -0.558 -0.558c0 0 -1.674 0 -1.674 0c0 0 -1.116 0.558 -1.116 0.558c0 0 -1.674 0 -1.674 0c0 0 -3.907 -4.465 -3.907 -4.465c0 0 -2.232 1.116 -2.232 1.116c0 0 -1.116 -1.674 -1.116 -1.674c0 0 1.674 -2.79 1.674 -2.79c0 0 -0.558 -2.232 -0.558 -2.232c0 0 0 -2.232 0 -2.232c-1.116 3.348 -1.767 3.999 -1.953 1.953c-0.186 -2.046 -0.279 -4.557 -0.279 -7.533c0 0 -1.116 0 -1.116 0c0 0 -2.79 9.486 -2.79 9.486c-0.372 0 -0.744 0.186 -1.116 0.558c0 0 -0.558 0 -0.558 0c0 0 -3.906 1.116 -3.906 1.116c-0.744 0 -1.489 0.93 -2.233 2.79c0 0 -1.674 0 -1.674 0c0 0 -0.558 0 -0.558 0c0 0 3.348 -3.906 3.348 -3.906c0.373 0 0.931 -0.372 1.675 -1.116c3.72 -1.86 5.208 -3.72 4.464 -5.58c0 -2.232 -0.93 -3.348 -2.79 -3.348c0 0 -0.558 0 -0.558 0c0 0 -2.791 0.558 -2.791 0.558c-0.372 -0.372 -0.558 -0.372 -0.558 0c0 0 -0.558 0.558 -0.558 0.558c-0.744 -0.744 -1.488 -0.93 -2.232 -0.558c0 0 -1.674 0 -1.674 0c0 0 -2.79 1.674 -2.79 1.674c0 -0.372 -0.372 -0.93 -1.116 -1.674c0 0 -2.232 0 -2.232 0c-0.372 -0.372 -1.302 -0.558 -2.79 -0.558c1.488 -4.093 1.116 -6.139 -1.116 -6.139c-0.745 -1.116 -1.489 -1.674 -2.233 -1.674c0 0 -7.254 -3.906 -7.254 -3.906c0 -2.232 -0.465 -3.441 -1.395 -3.627c-0.93 -0.186 -1.581 -0.466 -1.953 -0.838c2.976 1.117 4.464 0.372 4.464 -2.232c0 -2.604 -1.86 -4.278 -5.58 -5.022c0.744 -0.744 1.116 -1.488 1.116 -2.232c0 -3.348 -2.604 -4.092 -7.813 -2.232c0 0 0 -2.232 0 -2.232c-0.744 -0.744 -1.302 -1.116 -1.674 -1.116c0 0 0.558 -1.675 0.558 -1.675c1.116 -0.744 1.488 -1.674 1.116 -2.79c0 0 -3.906 0 -3.906 0c0 0 -1.116 -2.232 -1.116 -2.232c0.744 -0.744 1.116 -1.488 1.116 -2.232c0 0 -1.674 -3.906 -1.674 -3.906c-0.372 0 -0.558 -0.093 -0.558 -0.279c0 -0.186 -0.186 -0.279 -0.558 -0.279c0 0 -1.116 -1.116 -1.116 -1.116c0.372 -1.489 -0.558 -2.233 -2.79 -2.233c-2.977 0.372 -4.465 1.675 -4.465 3.907c-0.744 0.372 -0.558 1.116 0.558 2.232c-1.488 0 -2.511 0.465 -3.069 1.395c-0.558 0.93 -0.465 1.581 0.279 1.953c0 0 -2.232 0.558 -2.232 0.558c-1.488 0 -2.232 0.744 -2.232 2.232c0 0 0 1.116 0 1.116c0 0 -3.348 -1.674 -3.348 -1.674c-0.744 0 -1.302 0.372 -1.675 1.116c0 0 -0.558 -0.558 -0.558 -0.558c0 0 -1.116 0 -1.116 0c-0.744 1.116 -1.302 1.674 -1.674 1.674c0 0 -5.58 5.023 -5.58 5.023c-1.86 -1.86 -3.906 -1.674 -6.138 0.558c0 0 -2.791 0.558 -2.791 0.558c0 0 1.116 -0.558 1.116 -0.558c0.372 0 0.558 -0.093 0.558 -0.279c0 -0.186 0.186 -0.279 0.558 -0.279c0 0 0.559 0 0.559 0c0 0 1.116 -1.116 1.116 -1.116c0 0 0 -0.558 0 -0.558c-0.372 -4.093 -1.116 -6.139 -2.233 -6.139c0 0 -0.558 0 -0.558 0c0 0 -1.116 -0.558 -1.116 -0.558c0 0 -7.812 2.232 -7.812 2.232c0 0 -3.906 -0.558 -3.906 -0.558c0 0 1.674 -0.558 1.674 -0.558c1.488 0 2.232 -0.744 2.232 -2.232c2.604 -0.744 3.906 -1.86 3.906 -3.348c0 0 0 -1.674 0 -1.674c0 -4.465 -1.86 -6.697 -5.58 -6.697c0 0 -3.348 -3.348 -3.348 -3.348c0 0 3.348 0 3.348 0c0 0 1.116 1.116 1.116 1.116c0.372 0.744 0.744 0.93 1.116 0.558c0 0 -1.116 -1.116 -1.116 -1.116c0.744 -0.372 0.372 -1.302 -1.116 -2.79c0 0 -1.116 -0.558 -1.116 -0.558c0 -2.232 -1.302 -2.604 -3.907 -1.116c0 0 -8.37 -2.232 -8.37 -2.232c-0.744 -2.232 -2.232 -3.349 -4.464 -3.349c0.744 -2.232 0.186 -3.348 -1.675 -3.348c-1.86 0 -2.976 0.186 -3.348 0.558c0 -0.744 -1.302 -2.232 -3.906 -4.464c0 0 -0.558 0 -0.558 0c0 0 -2.79 -1.116 -2.79 -1.116c0 0 -1.674 0 -1.674 0c0 0 -4.465 1.674 -4.465 1.674c-1.116 0 -1.674 0.558 -1.674 1.674c0 0 -5.58 -2.232 -5.58 -2.232c-0.372 0 -0.558 0.186 -0.558 0.558c0 0 -3.348 0.558 -3.348 0.558c-0.372 -0.372 -1.116 -0.93 -2.232 -1.674c0 0 -0.558 0 -0.558 0c0 0 -10.603 -1.674 -10.603 -1.674c0 0 -1.674 0.558 -1.674 0.558c-0.744 0 -1.581 0.465 -2.511 1.395c-0.93 0.93 -1.209 1.953 -0.837 3.069c0 0 0 1.116 0 1.116c0.744 1.116 1.302 1.674 1.674 1.674c0 0 2.232 1.674 2.232 1.674c0 0 0.558 1.117 0.558 1.117c-1.116 0.372 -1.674 1.116 -1.674 2.232c0 2.604 0.744 3.906 2.232 3.906c-0.744 1.488 -0.93 2.418 -0.558 2.79c0 0 -0.558 1.116 -0.558 1.116c0 0.744 0.186 1.302 0.558 1.674c0 0 0 1.116 0 1.116c0.744 0.744 1.488 1.302 2.232 1.674c-0.744 1.861 -0.93 3.163 -0.558 3.907c-2.604 0 -3.906 0.744 -3.906 2.232c0 0 -2.791 2.232 -2.791 2.232c-0.744 0 -1.116 0.372 -1.116 1.116c0 0 -0.558 1.116 -0.558 1.116c0 0 0 2.232 0 2.232c0 0.372 0.372 0.93 1.116 1.674c0 0 5.023 1.675 5.023 1.675c0 0 3.906 3.348 3.906 3.348c0 0 4.464 6.696 4.464 6.696c0 0 0.558 8.371 0.558 8.371c0 0 0 1.116 0 1.116c0 0 -1.674 2.232 -1.674 2.232c0 0 -2.232 2.232 -2.232 2.232c0 0 -1.116 2.232 -1.116 2.232c0 0 -2.79 1.674 -2.79 1.674c0 0 -0.558 0 -0.558 0c-2.604 2.604 -4.836 3.907 -6.697 3.907c0 0 -6.696 2.79 -6.696 2.79c-0.372 0 -1.116 0.558 -2.232 1.674c0 0 0 6.696 0 6.696c0 0 0.558 -1.674 0.558 -1.674c0.372 -2.232 0.744 -2.232 1.116 0c0 1.86 0.186 4.464 0.558 7.813c0 0 1.116 0 1.116 0c0 0 0 -1.674 0 -1.674c0 0 0 -1.117 0 -1.117c0.372 0.372 0.744 1.303 1.116 2.791c0.372 1.488 0.744 2.232 1.116 2.232c0 0 0 1.116 0 1.116c0 0 1.116 0.558 1.116 0.558c0 1.488 1.488 2.79 4.465 3.906c0 0 0 1.674 0 1.674c0 0 -6.139 4.465 -6.139 4.465c0 1.488 0.372 2.604 1.116 3.348c0 0 -1.674 2.232 -1.674 2.232c-0.744 -1.86 -1.953 -2.79 -3.627 -2.79c-1.674 0 -2.511 1.116 -2.511 3.348c0 0 0 1.116 0 1.116c0 0 -1.116 -1.116 -1.116 -1.116c-2.977 -0.372 -5.767 -0.186 -8.371 0.558c2.232 -1.488 3.069 -2.883 2.511 -4.185c-0.558 -1.302 -0.93 -1.953 -1.116 -1.953c-0.186 0 -0.279 -0.186 -0.279 -0.558c0 0 -3.906 -2.791 -3.906 -2.791c0 0 -1.116 0 -1.116 0c0 0 -1.116 -1.116 -1.116 -1.116c0 0 -2.79 0 -2.79 0c0.372 -0.372 0.558 -0.93 0.558 -1.674c0 0 -4.465 -6.696 -4.465 -6.696c0 0 1.116 -2.232 1.116 -2.232c0 0 0 -5.581 0 -5.581c0 0 -2.232 -4.464 -2.232 -4.464c0 0 1.116 -3.348 1.116 -3.348c1.116 -1.488 0.558 -2.79 -1.674 -3.906c0 0 -3.348 0 -3.348 0c0 0 -2.232 -1.117 -2.232 -1.117c0 0 -1.116 0 -1.116 0c-0.372 -0.372 -0.93 -0.186 -1.674 0.558c-1.488 -0.744 -2.79 -0.93 -3.907 -0.558c0 0 -0.558 1.117 -0.558 1.117c0 0 -0.558 0 -0.558 0c0 0 -4.464 -1.675 -4.464 -1.675c0 0 -2.79 0 -2.79 0c-0.744 0 -1.674 0.744 -2.79 2.233c0 0 0 -0.558 0 -0.558c0.744 -1.861 0.279 -3.349 -1.395 -4.465c-1.674 -1.116 -2.884 -1.674 -3.628 -1.674c0 0 -1.116 0 -1.116 0c0 0 -4.464 -1.674 -4.464 -1.674c0 0 -0.558 0 -0.558 0c0 0 -6.138 -1.674 -6.138 -1.674c0 0 -1.116 -0.558 -1.116 -0.558c0 0 -0.558 -1.116 -0.558 -1.116c0 0 -1.117 -1.116 -1.117 -1.116c0 0 -8.37 -4.465 -8.37 -4.465c0 0 -0.558 -0.558 -0.558 -0.558c0 0 -6.139 -0.558 -6.139 -0.558c0 0 -9.486 -3.348 -9.486 -3.348c0 0 -1.116 0 -1.116 0c0 0 -9.487 2.232 -9.487 2.232c0 0 -1.116 0 -1.116 0c-0.744 0 -1.116 0.186 -1.116 0.558c0 0 -2.232 0.558 -2.232 0.558c2.232 -2.232 2.976 -3.906 2.232 -5.022c0 0 -3.348 -7.812 -3.348 -7.812c0 0 -1.674 -2.791 -1.674 -2.791c0 0 -0.558 -0.558 -0.558 -0.558c-0.744 -1.116 -1.674 -1.674 -2.79 -1.674c0 0 -3.349 0 -3.349 0c-0.744 0 -1.674 0.93 -2.79 2.79c0 -1.86 -0.558 -2.79 -1.674 -2.79c0 0 -3.906 -2.79 -3.906 -2.79c0 0 1.116 -1.116 1.116 -1.116c0.744 -1.488 0.93 -2.418 0.558 -2.79c0 0 -0.558 -1.116 -0.558 -1.116c0 0 0.558 -2.232 0.558 -2.232c0 0 -0.558 -1.675 -0.558 -1.675c0 0 0.558 -1.116 0.558 -1.116c0.372 0 0.558 -0.372 0.558 -1.116c0 0 0 -3.348 0 -3.348c0 0 1.116 -0.558 1.116 -0.558c2.976 -4.092 4.464 -6.882 4.464 -8.37c0 0 1.116 -1.117 1.116 -1.117c2.605 -0.744 3.535 -1.86 2.791 -3.348c1.86 -1.86 2.604 -3.348 2.232 -4.464c0 0 1.674 0.558 1.674 0.558c0.372 0.372 1.209 -0.093 2.511 -1.395c1.302 -1.302 1.953 -2.325 1.953 -3.069c0 0 3.348 -0.558 3.348 -0.558c0 0 3.348 0.558 3.348 0.558c0 0 1.675 0 1.675 0c0 0 3.348 -1.674 3.348 -1.674c1.116 0 1.674 -0.837 1.674 -2.512c0 -1.674 -0.744 -2.511 -2.232 -2.511c0 0 -3.906 -1.116 -3.906 -1.116c0 0 -0.559 -0.558 -0.559 -0.558c-1.488 -0.744 -2.418 -0.744 -2.79 0c0 0 -4.464 1.116 -4.464 1.116c0 -1.86 -0.93 -2.976 -2.79 -3.348c-1.86 -0.372 -2.976 -0.372 -3.348 0c0 0 -2.233 0 -2.233 0c0 0 -1.116 -1.116 -1.116 -1.116c0 -0.372 0.372 -0.93 1.116 -1.674c0 0 1.675 1.116 1.675 1.116c0 0 0.558 0.558 0.558 0.558c0 0 13.951 2.79 13.951 2.79c0 0 2.232 0 2.232 0c0 0.372 0.372 0.558 1.116 0.558c0 0 1.674 0.558 1.674 0.558c0.744 0 1.302 -0.372 1.674 -1.116c0 0 1.116 0.558 1.116 0.558c0.744 -0.372 1.488 -0.93 2.232 -1.674c0 0 1.674 -3.348 1.674 -3.348c0 0 1.674 0 1.674 0c0 0 0.558 0.558 0.558 0.558c0 0 2.791 0 2.791 0c0 0 1.116 0.558 1.116 0.558c0 0 2.232 0 2.232 0c0 0 1.674 0.558 1.674 0.558c0 0 2.232 0 2.232 0c0 0 3.906 -1.674 3.906 -1.674c0 0 2.232 -2.232 2.232 -2.232c0 0 0.558 -1.116 0.558 -1.116c0 0 0.559 -0.558 0.559 -0.558c1.116 -0.372 2.046 -1.861 2.79 -4.465c1.116 -4.836 1.302 -7.812 0.558 -8.928c-0.744 -1.116 -0.93 -1.674 -0.558 -1.674c0 0 0.558 2.232 0.558 2.232c0 1.488 0.186 1.86 0.558 1.116c0 0 0.558 3.906 0.558 3.906c0 0 1.674 -1.674 1.674 -1.674c0 0 1.116 0 1.116 0c0 0 3.348 -2.79 3.348 -2.79c0 0 0 -0.558 0 -0.558c0.372 -0.744 0.558 -1.674 0.558 -2.79c0 0 -1.674 -1.674 -1.674 -1.674c0 0 -0.558 -1.675 -0.558 -1.675c0 0 7.255 0 7.255 0c0.372 0 0.558 -0.186 0.558 -0.558c0 0 1.674 0 1.674 0c2.604 0 3.348 -1.116 2.232 -3.348c0 0 3.348 -1.116 3.348 -1.116c3.72 1.86 5.766 2.79 6.138 2.79c0 0 1.117 -0.558 1.117 -0.558c0 3.348 0.837 5.023 2.511 5.023c1.674 0 2.697 0.186 3.069 0.558c0 0 0.558 0 0.558 0c0 0 1.116 1.116 1.116 1.116c0 0 1.674 0 1.674 0c0.372 -1.116 1.488 -3.163 3.348 -6.139c1.116 0 2.046 -0.744 2.79 -2.232c0 0 2.791 0 2.791 0c3.72 -1.116 2.232 -4.464 -4.465 -10.045c1.488 -1.116 2.233 -2.79 2.233 -5.022c0 -2.232 -0.372 -3.534 -1.117 -3.906c0.372 -0.372 0.558 -1.302 0.558 -2.79c0 -1.488 -2.232 -3.348 -6.696 -5.581c0 0 -1.116 0 -1.116 0c0 0 -1.674 0.558 -1.674 0.558c0 -0.372 -0.744 -0.558 -2.232 -0.558c0 0 -2.79 0 -2.79 0c0 0 -5.023 -1.116 -5.023 -1.116c-0.372 0.372 -0.744 0.558 -1.116 0.558c0 0 -4.464 0 -4.464 0c-1.488 0.744 -2.232 1.674 -2.232 2.791c0 0 0 0.558 0 0.558c-0.372 1.116 0.372 2.232 2.232 3.348c0 0 2.79 0.558 2.79 0.558c0 0 1.674 1.116 1.674 1.116c-1.116 0 -1.674 0.744 -1.674 2.232c0 0 -2.232 0 -2.232 0c-0.744 0.744 -0.372 1.302 1.116 1.674c0 0 1.674 1.116 1.674 1.116c0 0 0 1.116 0 1.116c0 0 -5.58 2.79 -5.58 2.79c0 0 -5.581 0.558 -5.581 0.558c-0.744 0 -2.046 0.745 -3.906 2.233c-1.86 0 -2.79 0.558 -2.79 1.674c0 0 0 1.116 0 1.116c0 0 0.558 1.116 0.558 1.116c0 0 -1.116 1.116 -1.116 1.116c0 0 -0.558 0 -0.558 0c-0.372 0.372 -0.93 0.558 -1.674 0.558c0 0 -0.558 0.558 -0.558 0.558c0 0 -1.116 0 -1.116 0c0 -1.488 -2.232 -3.72 -6.697 -6.696c0 0 -0.558 -1.675 -0.558 -1.675c0 0 3.348 -5.58 3.348 -5.58c0 -1.488 -1.302 -2.79 -3.906 -3.906c-2.604 -1.116 -3.906 -1.86 -3.906 -2.232c0 0 -0.558 0 -0.558 0c-0.744 -0.744 -1.953 -0.558 -3.627 0.558c-1.674 1.116 -2.512 2.232 -2.512 3.348c0 0 0.559 0.558 0.559 0.558c0 0 -0.559 0.558 -0.559 0.558c-0.372 0 -0.558 0.093 -0.558 0.279c0 0.186 -0.186 0.279 -0.558 0.279c0 0 -2.232 3.906 -2.232 3.906c0 0 -0.558 -0.558 -0.558 -0.558c0 0 -2.232 -1.116 -2.232 -1.116c0 0 -0.558 -2.232 -0.558 -2.232c0.744 -1.488 0.558 -2.418 -0.558 -2.79c0 0 -1.116 -1.674 -1.116 -1.674c0 0 -0.558 0 -0.558 0c0 0 -4.464 -2.232 -4.464 -2.232c0 -1.488 -0.93 -2.232 -2.791 -2.232c0 0 -0.558 0 -0.558 0c0 0 -1.116 0.558 -1.116 0.558c0 0 -3.348 -1.675 -3.348 -1.675c0 0 -3.348 0 -3.348 0c0 0 0 -0.558 0 -0.558c1.86 -0.744 2.79 -1.86 2.79 -3.348c0 0 1.116 -1.116 1.116 -1.116c0 0 0 -0.558 0 -0.558c0.744 -0.744 -0.93 -2.79 -5.022 -6.138c0 0 0 -3.349 0 -3.349c0 0 -3.348 -2.79 -3.348 -2.79c-0.372 0 -0.744 -0.186 -1.116 -0.558c0 0 -1.117 0 -1.117 0c0 0 -4.464 -2.232 -4.464 -2.232c0 0 -1.116 0.558 -1.116 0.558c0 0 -1.674 -0.558 -1.674 -0.558c0 -1.116 -0.558 -1.86 -1.674 -2.232c-1.116 -0.372 -2.046 0.186 -2.79 1.674c0 0 -1.116 0 -1.116 0c-1.488 0.372 -2.232 1.488 -2.232 3.348c0 0 -0.559 1.116 -0.559 1.116c0 0 -2.232 0 -2.232 0c-0.744 -1.488 -1.488 -2.232 -2.232 -2.232c0 0 -0.558 0 -0.558 0c-2.232 0 -3.348 1.953 -3.348 5.86c0 3.906 0.093 5.952 0.279 6.138c0.186 0.186 0.279 0.465 0.279 0.837c0 0 0 1.116 0 1.116c0 0 2.232 3.906 2.232 3.906c0 0 1.674 0 1.674 0c0 0 0 -0.558 0 -0.558c0.744 0.372 1.302 0.558 1.674 0.558c0 0 1.674 0 1.674 0c0 0 2.791 1.116 2.791 1.116c0 0 2.232 0 2.232 0c0.372 0.372 1.116 0 2.232 -1.116c0 0 2.79 1.116 2.79 1.116c0 0 1.674 -1.116 1.674 -1.116c0 0 1.116 0 1.116 0c0.372 0 0.558 0.279 0.558 0.837c0 0.558 0.186 0.837 0.558 0.837c0 0 2.791 1.117 2.791 1.117c0 0 0.558 1.116 0.558 1.116c-1.489 0.744 -2.233 1.674 -2.233 2.79c0 0 1.675 2.79 1.675 2.79c-0.745 0.372 -0.745 0.93 0 1.674c0 0 -8.929 5.022 -8.929 5.022c-0.372 0 -0.558 0.186 -0.558 0.558c0 0 -3.348 0 -3.348 0c-1.86 0 -2.976 0.558 -3.349 1.675c-0.372 1.116 0 2.232 1.117 3.348c0 0 0 1.116 0 1.116c0 0 1.674 3.906 1.674 3.906c-0.372 0.372 -0.558 1.023 -0.558 1.953c0 0.93 0.186 1.767 0.558 2.511c0 0 -1.674 4.465 -1.674 4.465c0 0 -1.675 0 -1.675 0c-1.116 0 -2.046 -2.232 -2.79 -6.697c0 0 -1.116 0 -1.116 0c0 0 -1.674 -1.116 -1.674 -1.116c0 0 -0.558 -1.674 -0.558 -1.674c0.744 -0.372 1.116 -1.488 1.116 -3.348c0 0 -0.558 -1.674 -0.558 -1.674c0.744 -1.116 0.744 -2.139 0 -3.069c-0.744 -0.931 -1.488 -1.396 -2.232 -1.396c0 0 -2.79 -0.558 -2.79 -0.558c-1.488 0 -2.232 1.488 -2.232 4.465c0 0 -3.349 0 -3.349 0c0 0 -4.464 -2.232 -4.464 -2.232c-0.372 0 -0.93 -0.186 -1.674 -0.558c0 0 -5.022 0 -5.022 0c0 0 -5.023 0.558 -5.023 0.558c-0.372 -0.372 -0.558 -0.372 -0.558 0c0 0.372 -0.186 0.558 -0.558 0.558c0 0 -8.37 0 -8.37 0c0 0 -5.581 1.116 -5.581 1.116c0 0 -2.232 0 -2.232 0c0 0 -1.116 -0.558 -1.116 -0.558c0 0 -4.464 0 -4.464 0c0 0 -1.116 -1.674 -1.116 -1.674c0 0 -4.464 0 -4.464 0c0 0 -2.233 -0.559 -2.233 -0.559c-0.372 -0.372 -0.186 -1.488 0.558 -3.348c0.745 -1.86 1.117 -3.534 1.117 -5.022c0 0 0 -6.138 0 -6.138c0 0 -1.675 -1.675 -1.675 -1.675c4.837 1.489 7.255 1.117 7.255 -1.116c0 0 1.116 0 1.116 0c1.116 -0.372 1.767 -1.023 1.953 -1.953c0.186 -0.93 -0.279 -1.581 -1.395 -1.953c0 0 -4.464 0.558 -4.464 0.558c0 0 -1.116 3.348 -1.116 3.348c0 0 -2.791 -0.558 -2.791 -0.558c0 0 -0.558 0.558 -0.558 0.558c0 0 -1.674 0 -1.674 0c-0.372 -2.976 -1.116 -5.58 -2.232 -7.812c0 0 0 -1.116 0 -1.116c0 0 -2.232 -2.232 -2.232 -2.232c-0.744 0 -1.116 -0.186 -1.116 -0.558c0 0 -1.116 0 -1.116 0c0 0 -1.116 -2.233 -1.116 -2.233c0 0 0 -1.116 0 -1.116c-20.834 7.069 -42.039 16.369 -63.616 27.902c0 0 6.696 0 6.696 0c0 0 4.464 5.023 4.464 5.023c0 0 1.117 0 1.117 0c0 0 4.464 -3.907 4.464 -3.907c0 0 9.486 -3.348 9.486 -3.348c0 0 0.558 0 0.558 0c0 0 5.581 -2.232 5.581 -2.232c0 0 6.696 -0.558 6.696 -0.558c0 0 3.906 -2.232 3.906 -2.232c0.745 0 1.117 -0.372 1.117 -1.116c0 0 0.558 -1.116 0.558 -1.116c0 0 1.116 -1.116 1.116 -1.116c0 0 1.674 -0.559 1.674 -0.559c0 0 1.674 -1.116 1.674 -1.116c0 0.372 0.186 0.372 0.558 0c0 0 2.232 -0.558 2.232 -0.558c0 0 0.558 2.233 0.558 2.233c0 0 2.232 1.674 2.232 1.674c0 0 1.116 -1.116 1.116 -1.116c0 -1.861 0.372 -2.791 1.116 -2.791c0 0 1.116 0 1.116 0c0 0 1.675 3.907 1.675 3.907c1.488 4.092 2.418 5.952 2.79 5.58c0 0 3.348 0 3.348 0c1.488 2.976 2.604 5.022 3.348 6.138c0.744 1.116 0.93 1.674 0.558 1.674c0 0 -2.232 -0.558 -2.232 -0.558c0 0 -3.348 0.558 -3.348 0.558c-1.86 -1.86 -3.534 -2.79 -5.022 -2.79c0 0 -0.559 0.558 -0.559 0.558c0 0 -0.558 0 -0.558 0c-0.372 -0.372 -0.93 -0.186 -1.674 0.558c0 0 -0.558 2.233 -0.558 2.233c0 0 -1.116 0 -1.116 0c0 0 0 0 0 0m133.929 -89.286c77.753 0 149.46 19.159 215.123 57.477c65.662 38.319 117.652 90.309 155.971 155.971c38.318 65.663 57.477 137.37 57.477 215.123c0 77.753 -19.159 149.461 -57.477 215.123c-38.319 65.662 -90.309 117.653 -155.971 155.971c-65.663 38.318 -137.37 57.478 -215.123 57.478c-77.753 0 -149.461 -19.16 -215.123 -57.478c-65.662 -38.318 -117.652 -90.309 -155.971 -155.971c-38.318 -65.662 -57.478 -137.37 -57.478 -215.123c0 -77.753 19.16 -149.46 57.478 -215.123c38.319 -65.662 90.309 -117.652 155.971 -155.971c65.662 -38.318 137.37 -57.477 215.123 -57.477c0 0 0 0 0 0m231.585 663.504c0 -1.116 -0.558 -2.046 -1.674 -2.79c0 0 -1.117 0 -1.117 0c0 0 -0.558 2.232 -0.558 2.232c0 0 0 0 0 0c0.372 -0.372 1.489 -0.186 3.349 0.558c0 0 0 0 0 0m-7.255 -2.79c0 0 3.906 2.232 3.906 2.232c0 0 -0.558 1.116 -0.558 1.116c-1.116 0 -1.674 1.302 -1.674 3.907c0 0 -2.79 -4.465 -2.79 -4.465c0 0 0.558 -2.79 0.558 -2.79c0 0 0.558 0 0.558 0c0 0 0 0 0 0m22.88 27.344c0 0 1.116 -2.79 1.116 -2.79c0 -0.744 0.558 -1.302 1.674 -1.674c0 0 0 1.674 0 1.674c0 0.372 -0.186 0.558 -0.558 0.558c0 0 -2.232 2.232 -2.232 2.232m13.951 3.906c0 0 1.674 0 1.674 0c0 0 5.022 1.116 5.022 1.116c0 0 0 1.674 0 1.674c0 0.372 -0.744 0.558 -2.232 0.558c-1.488 0 -2.232 0.186 -2.232 0.558c0 0 -2.791 1.116 -2.791 1.116c0 0 -0.558 -0.558 -0.558 -0.558c0 0 0 -2.232 0 -2.232c0 -0.744 0.372 -1.488 1.117 -2.232c0 0 0 0 0 0m-319.755 -627.232c0 0 1.116 1.116 1.116 1.116c0 0 1.674 5.022 1.674 5.022c-0.372 -0.372 -0.744 -0.558 -1.116 -0.558c0 0 0 -0.558 0 -0.558c0 0 -0.558 -0.558 -0.558 -0.558c-1.116 0 -1.767 -0.558 -1.953 -1.674c-0.186 -1.116 0.093 -2.046 0.837 -2.79c0 0 0 0 0 0m112.165 24.554c0 0 1.674 0 1.674 0c0.372 0 0.558 -0.187 0.558 -0.559c-0.372 -0.372 -0.744 -0.558 -1.116 -0.558c0 0 -1.116 -1.116 -1.116 -1.116c0 0 0 2.233 0 2.233c0 0 0 0 0 0m-51.897 20.647c0 0 -3.348 2.79 -3.348 2.79c0 0 -0.558 -0.558 -0.558 -0.558c0 -1.116 -0.465 -1.86 -1.395 -2.232c-0.93 -0.372 -2.14 -0.93 -3.628 -1.674c0.372 -0.372 0.93 -0.744 1.674 -1.116c0 0 0.558 0 0.558 0c0 0 6.697 2.79 6.697 2.79m-11.719 -2.79c1.116 1.116 2.046 1.488 2.79 1.116c-0.744 -0.372 -1.302 -0.744 -1.674 -1.116c0 0 -1.116 0 -1.116 0c0 0 0 0 0 0m17.299 6.138c-1.116 -1.116 -2.976 -2.232 -5.58 -3.348c0 0 5.58 -2.79 5.58 -2.79c0 0 5.023 0 5.023 0c0.372 0 0.744 0.186 1.116 0.558c-2.604 2.232 -4.651 4.092 -6.139 5.58c0 0 0 0 0 0m74.219 116.071c-0.372 -0.744 -0.186 -1.302 0.558 -1.674c-0.372 0.372 -0.558 0.93 -0.558 1.674c0 0 0 0 0 0m135.603 -31.25c0 0 -0.558 0 -0.558 0c0 0 0.558 0 0.558 0c0 0 0 0 0 0m15.067 30.692c0 0 1.116 1.117 1.116 1.117c0 0 2.79 0 2.79 0c0.372 0.372 0.186 1.116 -0.558 2.232c0 0 -1.674 0 -1.674 0c-0.744 0 -1.116 -0.465 -1.116 -1.395c0 -0.931 -0.186 -1.582 -0.558 -1.954c0 0 0 0 0 0m0 0c0 0 -0.558 0 -0.558 0c0 0 0.558 0 0.558 0c0 0 0 0 0 0m5.58 1.117c0 0 3.348 -1.117 3.348 -1.117c0 0 -0.558 0.558 -0.558 0.558c0 0 -1.116 2.791 -1.116 2.791c0 0 -2.232 0 -2.232 0c-0.744 -1.488 -0.558 -2.232 0.558 -2.232c0 0 0 0 0 0m3.348 -1.117c0 0 0 0 0 0c0 0 0 0 0 0c0 0 0 0 0 0m0.558 -0.558c0 0 -0.558 0.558 -0.558 0.558c0 0 0.558 -0.558 0.558 -0.558m-170.759 450.335c0 0 -0.558 0 -0.558 0c0 0 0 -2.232 0 -2.232c0 -0.744 0.372 -1.116 1.116 -1.116c0 0 0 -0.558 0 -0.558c1.488 1.488 1.302 2.79 -0.558 3.906c0 0 0 0 0 0m-354.91 -331.473c0 0 0 -0.558 0 -0.558c0 0 0 0.558 0 0.558c0 0 0 0 0 0m-22.322 -97.098c0 0 -0.558 -0.558 -0.558 -0.558c-0.744 -0.372 -1.302 -0.372 -1.674 0c0 0 0 0.558 0 0.558c-0.372 0.372 -0.372 0.744 0 1.116c0.372 0.372 0.744 0.186 1.116 -0.558c0 0 1.116 -0.558 1.116 -0.558m189.732 -161.831c0 0 -1.116 -0.558 -1.116 -0.558c-0.372 0.372 -0.186 0.93 0.558 1.675c0 0 0.558 -1.117 0.558 -1.117" />
  </g>
</svg>