<svg height="1000" width="857.1" xmlns="http://www.w3.org/2000/svg"><path d="M511.7 505q0 -18.4 -3.3 -35.7h-202V543h121.1q-6.7 42.4 -41.6 67.2T306.4 635q-55.3 0 -94.3 -39.9T173 500t39.1 -95.1T306.4 365q51.9 0 85.3 32.9l58.1 -56.4Q389.5 285.7 306.4 285.7q-89.3 0 -151.8 62.8T92.1 500t62.5 151.5 151.8 62.8q92 0 148.7 -58.6T511.7 505zm192.5 25.7h60.9v-61.4h-60.9v-61.4h-61.3v61.4h-61.4v61.4h61.4v61.4h61.3v-61.4zM857.1 500q0 116.6 -57.4 215.1t-156 156 -215.1 57.5T213.4 871.1 57.5 715.1 0 500 57.5 284.9t155.9 -156T428.6 71.4t215.1 57.5 156 156T857.1 500z"/></svg>