<svg height="1000" width="714.286" xmlns="http://www.w3.org/2000/svg"><path d="M547.398 747.226q0 -13.95 -3.906 -27.342t-8.091 -23.436 -15.066 -23.157 -16.461 -19.53 -21.483 -19.251 -20.367 -16.182 -23.157 -16.74 -20.367 -14.508q-8.928 -1.116 -27.342 -1.116 -29.574 0 -58.311 3.906t-59.706 13.95 -54.126 25.668 -38.223 41.571 -15.066 58.869q0 31.248 13.113 56.916t34.038 42.129 48.546 27.9 55.8 16.182 56.637 4.743q32.364 0 62.217 -7.254t55.242 -21.762 40.734 -40.734 15.345 -60.822zm-65.286 -478.764q0 -32.922 -9.486 -70.029t-26.784 -71.982 -46.872 -57.753 -65.286 -22.878q-23.436 0 -46.035 10.881t-37.107 29.295q-25.668 32.922 -25.668 89.28 0 25.668 5.58 54.405t17.577 57.474 29.016 51.615 41.85 37.386 53.847 14.508q20.646 0 43.245 -9.207t36.549 -24.273q29.574 -31.248 29.574 -88.722zm-62.496 -268.398h232.686l-76.446 49.104h-73.656q41.85 35.154 63.054 74.214t21.204 89.28q0 40.176 -13.671 72.261t-33.201 51.894 -38.781 36.27 -32.922 34.317 -13.671 36.828q0 20.088 17.856 39.339t42.966 37.944 50.499 41.013 43.245 58.032 17.856 79.236q0 50.778 -27.342 96.534 -39.618 68.076 -116.901 100.161t-166.563 32.085q-73.656 0 -137.547 -23.157t-96.255 -76.725q-20.088 -32.922 -20.088 -73.098 0 -45.198 24.831 -83.7t66.123 -64.17q73.098 -45.756 225.432 -55.8 -17.856 -22.878 -26.505 -41.013t-8.649 -41.013q0 -22.32 11.718 -47.43 -25.668 2.232 -37.944 2.232 -82.584 0 -139.221 -53.847t-56.637 -136.431q0 -45.756 20.088 -88.722t55.242 -73.098q42.408 -36.828 101.556 -54.684t121.644 -17.856z"/></svg>