<svg height="1000" width="857.143" xmlns="http://www.w3.org/2000/svg"><path d="M0 740.53v-241.614q57.474 65.844 152.334 65.844 17.856 0 39.06 -2.79 -11.718 34.038 -11.718 47.988 0 37.386 35.154 83.142 -130.572 3.906 -214.83 47.43zm0 -501.642q0 -70.308 45.198 -118.854t115.506 -48.546h535.68q66.402 0 113.553 47.151t47.151 113.553v53.568h-142.848v-142.848h-71.424v142.848h-142.848v71.424h142.848v142.848h71.424v-142.848h142.848v410.688q0 66.402 -47.151 113.553t-113.553 47.151h-261.144q21.762 -40.734 21.762 -87.606 0 -36.828 -12.276 -68.355t-30.969 -51.894 -40.176 -39.618 -40.176 -33.201 -30.969 -30.411 -12.276 -33.201q0 -20.088 12.834 -37.944t31.248 -34.317 36.549 -35.991 30.969 -51.894 12.834 -73.098 -14.787 -81.189 -42.129 -66.123q-3.348 -3.348 -7.812 -6.138t-6.975 -4.185 -5.58 -5.301 -5.859 -9.486h75.33l75.33 -35.712h-243.846q-77.004 0 -136.431 21.483t-101.835 74.493zm7.254 575.856q13.392 -25.11 38.502 -43.245t55.8 -27.621 59.706 -13.392 59.706 -3.906q17.856 0 27.342 1.116 3.348 2.232 17.019 11.718t18.414 12.834 17.298 12.834 17.856 14.229 15.345 14.229 14.787 16.461 11.718 17.019 9.765 19.251 5.301 20.088 2.511 22.599q0 21.204 -5.58 39.618h-212.04q-53.01 0 -95.697 -31.527t-57.753 -82.305zm46.314 -501.084q0 -53.568 28.737 -92.07t80.631 -38.502q36.828 0 66.402 22.878t46.872 58.032 26.226 72.54 8.928 71.424q0 55.8 -24.273 89.559t-78.399 33.759q-28.458 0 -54.126 -14.508t-43.524 -37.665 -31.248 -52.173 -19.809 -58.032 -6.417 -55.242z"/></svg>