<svg height="1000px" width="857.1428571428571px" xmlns="http://www.w3.org/2000/svg">
  <g>
    <path d="M857.1428571428571 357.1428571428571c0 0 0 410.714 0 410.714c0 44.271 -15.718 82.125 -47.154 113.561c-31.436 31.436 -69.289 47.154 -113.56 47.154c0 0 -261.161 0 -261.161 0c14.509 -27.158 21.763 -54.688 21.763 -82.59c0 -27.901 -4.092 -52.362 -12.276 -73.381c-8.185 -21.02 -18.509 -38.319 -30.971 -51.898c-12.463 -13.579 -25.856 -26.785 -40.179 -39.62c-13.951 -12.835 -27.251 -23.903 -39.899 -33.203c-29.018 -21.578 -43.527 -42.783 -43.527 -63.616c0 -21.95 14.695 -45.945 44.085 -71.987c12.276 -11.161 24.46 -23.252 36.551 -36.272c12.091 -13.021 22.414 -30.32 30.971 -51.898c8.556 -21.577 12.835 -45.945 12.835 -73.102c0 -27.158 -4.93 -54.223 -14.788 -81.195c-9.859 -26.971 -23.903 -49.014 -42.132 -66.127c-2.976 -2.976 -6.696 -5.766 -11.161 -8.37c-6.324 -3.349 -11.346 -8.929 -15.067 -16.741c0 0 75.335 0 75.335 0c0 0 75.335 -35.715 75.335 -35.715c0 0 -243.862 0 -243.862 0c-51.339 0 -96.819 7.162 -136.439 21.485c-39.621 14.323 -73.568 39.155 -101.842 74.497c0 -46.875 15.067 -86.495 45.201 -118.861c30.134 -32.366 68.638 -48.549 115.513 -48.549c0 0 535.715 0 535.715 0c44.271 0 82.124 15.718 113.56 47.154c31.436 31.436 47.154 69.289 47.154 113.56c0 0 0 53.571 0 53.571c0 0 -142.857 0 -142.857 0c0 0 0 -142.857 0 -142.857c0 0 -71.429 0 -71.429 0c0 0 0 142.857 0 142.857c0 0 -142.857 0 -142.857 0c0 0 0 71.429 0 71.429c0 0 142.857 0 142.857 0c0 0 0 142.857 0 142.857c0 0 71.429 0 71.429 0c0 0 0 -142.857 0 -142.857c0 0 142.857 0 142.857 0c0 0 0 0 0 0m-554.688 -20.647c5.953 24.925 8.929 52.362 8.929 82.31c0 29.948 -8.091 56.176 -24.274 78.683c-16.184 22.507 -42.318 33.761 -78.404 33.761c-53.944 0 -96.913 -34.784 -128.907 -104.353c-17.485 -37.946 -26.227 -75.241 -26.227 -111.886c0 -36.644 9.579 -67.801 28.738 -93.471c19.16 -25.669 46.038 -38.504 80.637 -38.504c24.553 0 46.689 7.626 66.406 22.879c19.717 15.253 35.342 34.599 46.875 58.036c11.533 23.438 20.275 47.619 26.228 72.545c0 0 0 0 0 0m-87.612 356.585c-87.054 2.604 -158.668 18.415 -214.844 47.433c0 0 0 -241.63 0 -241.63c38.319 43.899 89.1 65.848 152.344 65.848c11.905 0 24.925 -0.93 39.062 -2.79c-7.812 22.694 -11.718 38.691 -11.718 47.991c0 24.926 11.718 52.642 35.156 83.148c0 0 0 0 0 0m160.993 173.27c1.674 7.254 2.511 16.369 2.511 27.343c0 10.975 -1.86 22.601 -5.58 34.878c0 0 -212.054 0 -212.054 0c-35.342 0 -67.243 -10.51 -95.703 -31.529c-28.46 -21.02 -47.712 -48.457 -57.756 -82.311c24.181 -45.759 75.52 -73.846 154.017 -84.263c19.346 -2.604 37.11 -3.906 53.293 -3.906c16.183 0 27.437 0.372 33.761 1.116c33.854 22.321 54.967 37.295 63.337 44.922c8.371 7.626 15.904 14.602 22.601 20.926c6.696 6.324 11.625 11.812 14.787 16.462c3.163 4.65 7.069 10.324 11.719 17.02c4.651 6.697 7.906 13.114 9.766 19.252c1.86 6.139 3.627 12.835 5.301 20.09c0 0 0 0 0 0" />
  </g>
</svg>