<svg height="1000" width="857.143" xmlns="http://www.w3.org/2000/svg"><path d="M462.582 679.708q0 42.408 -32.643 62.775t-77.841 20.367q-22.878 0 -44.919 -5.301t-42.129 -15.903 -32.364 -29.574 -12.276 -43.524q0 -25.668 13.95 -44.64t36.549 -28.737 45.756 -13.95 47.151 -4.185q11.16 0 17.298 1.116 1.116 .558 12.834 9.207t14.508 10.602 12.834 10.044 13.671 12.276 10.602 12.555 9.486 14.508 5.022 14.787 2.511 17.577zm-41.292 -304.11q0 33.48 -18.414 55.521t-51.336 22.041q-29.574 0 -51.894 -23.715t-32.085 -53.847 -9.765 -59.148q0 -34.038 17.856 -58.032t51.336 -23.994q29.574 0 52.173 25.11t32.364 56.358 9.765 59.706zm59.148 -143.406l49.104 -35.712h-147.87q-47.43 0 -89.838 17.856t-71.145 54.684 -28.737 85.374q0 51.894 35.991 86.211t88.443 34.317q12.276 0 23.994 -1.674 -7.254 16.182 -7.254 30.132 0 24.552 22.32 52.452 -97.65 6.696 -143.406 35.154 -26.226 16.182 -42.129 40.734t-15.903 53.01q0 23.994 10.323 43.245t27.063 31.527 38.502 20.646 43.245 11.718 42.687 3.348q33.48 0 67.239 -8.649t63.333 -25.668 47.988 -46.035 18.414 -65.286q0 -27.342 -11.16 -49.941t-27.342 -37.107 -32.364 -26.505 -27.342 -24.552 -11.16 -24.831 8.649 -23.715 20.925 -22.041 24.552 -23.436 20.925 -33.201 8.649 -46.035q0 -33.48 -12.555 -55.521t-40.455 -50.499h46.314zm162.378 249.984h71.424v-35.712h-71.424v-71.424h-35.712v71.424h-71.424v35.712h71.424v89.28h35.712v-89.28zm214.272 -249.984v535.68q0 66.402 -47.151 113.553t-113.553 47.151h-535.68q-66.402 0 -113.553 -47.151t-47.151 -113.553v-535.68q0 -66.402 47.151 -113.553t113.553 -47.151h535.68q66.402 0 113.553 47.151t47.151 113.553z"/></svg>