<svg height="1000px" width="857.1428571428571px" xmlns="http://www.w3.org/2000/svg">
  <g>
    <path d="M0 740.5133928571428c0 0 0 -241.629 0 -241.629c38.318 43.898 89.1 65.848 152.344 65.848c11.905 0 24.925 -0.93 39.062 -2.79c-7.812 22.693 -11.719 38.69 -11.719 47.991c0 24.925 11.719 52.641 35.157 83.147c-87.054 2.604 -158.668 18.415 -214.844 47.433c0 0 0 0 0 0m0 -501.674c0 -46.875 15.067 -86.496 45.201 -118.862c30.134 -32.366 68.638 -48.549 115.513 -48.549c0 0 535.715 0 535.715 0c44.27 0 82.124 15.718 113.56 47.154c31.436 31.436 47.154 69.29 47.154 113.56c0 0 0 53.572 0 53.572c0 0 -142.857 0 -142.857 0c0 0 0 -142.857 0 -142.857c0 0 -71.429 0 -71.429 0c0 0 0 142.857 0 142.857c0 0 -142.857 0 -142.857 0c0 0 0 71.428 0 71.428c0 0 142.857 0 142.857 0c0 0 0 142.858 0 142.858c0 0 71.429 0 71.429 0c0 0 0 -142.858 0 -142.858c0 0 142.857 0 142.857 0c0 0 0 410.715 0 410.715c0 44.271 -15.718 82.124 -47.154 113.56c-31.436 31.436 -69.29 47.154 -113.56 47.154c0 0 -261.161 0 -261.161 0c14.509 -27.158 21.763 -54.687 21.763 -82.589c0 -27.902 -4.092 -52.363 -12.277 -73.382c-8.184 -21.019 -18.508 -38.318 -30.971 -51.897c-12.462 -13.579 -25.855 -26.786 -40.178 -39.621c-13.951 -12.835 -27.251 -23.902 -39.9 -33.203c-29.018 -21.577 -43.526 -42.783 -43.526 -63.616c0 -21.949 14.695 -45.945 44.084 -71.987c12.277 -11.16 24.461 -23.251 36.552 -36.272c12.091 -13.021 22.414 -30.32 30.971 -51.897c8.556 -21.578 12.835 -45.945 12.835 -73.103c0 -27.158 -4.93 -54.222 -14.788 -81.194c-9.859 -26.972 -23.903 -49.014 -42.132 -66.127c-2.976 -2.977 -6.697 -5.767 -11.161 -8.371c-6.324 -3.348 -11.347 -8.928 -15.067 -16.741c0 0 75.335 0 75.335 0c0 0 75.335 -35.714 75.335 -35.714c0 0 -243.862 0 -243.862 0c-51.339 0 -96.819 7.161 -136.439 21.484c-39.621 14.323 -73.568 39.156 -101.842 74.498c0 0 0 0 0 0m7.254 575.893c24.182 -45.759 75.521 -73.847 154.018 -84.264c19.346 -2.604 37.11 -3.906 53.293 -3.906c16.183 0 27.436 0.372 33.761 1.116c33.854 22.322 54.966 37.296 63.337 44.922c8.37 7.627 15.904 14.602 22.6 20.926c6.697 6.325 11.626 11.812 14.788 16.462c3.163 4.651 7.069 10.324 11.719 17.021c4.65 6.696 7.906 13.113 9.766 19.252c1.86 6.138 3.627 12.835 5.301 20.089c1.674 7.255 2.511 16.369 2.511 27.344c0 10.975 -1.86 22.6 -5.58 34.877c0 0 -212.054 0 -212.054 0c-35.342 0 -67.243 -10.51 -95.703 -31.529c-28.46 -21.019 -47.712 -48.456 -57.757 -82.31c0 0 0 0 0 0m46.317 -499.721c0 -36.645 9.58 -67.802 28.739 -93.471c19.159 -25.67 46.038 -38.505 80.636 -38.505c24.554 0 46.689 7.627 66.407 22.88c19.717 15.253 35.342 34.598 46.875 58.036c11.532 23.437 20.275 47.619 26.227 72.544c5.953 24.926 8.929 52.362 8.929 82.31c0 29.948 -8.092 56.176 -24.275 78.683c-16.183 22.508 -42.317 33.762 -78.404 33.762c-53.943 0 -96.912 -34.785 -128.906 -104.353c-17.485 -37.946 -26.228 -75.242 -26.228 -111.886c0 0 0 0 0 0" />
  </g>
</svg>