<svg height="1000" width="857.1" xmlns="http://www.w3.org/2000/svg"><path d="M0 740.5v-241.6q57.5 65.8 152.3 65.8 17.9 0 39.1-2.8-11.7 34-11.7 48 0 37.4 35.2 83.1-130.6 3.9-214.8 47.4zm0-501.6q0-70.3 45.2-118.9t115.5-48.5h535.7q66.4 0 113.6 47.2t47.2 113.6v53.6h-142.8v-142.8h-71.4v142.8h-142.8v71.4h142.8v142.8h71.4v-142.8h142.8v410.7q0 66.4-47.2 113.6t-113.6 47.2h-261.1q21.8-40.7 21.8-87.6 0-36.8-12.3-68.4t-31-51.9-40.2-39.6-40.2-33.2-31-30.4-12.3-33.2q0-20.1 12.8-37.9t31.2-34.3 36.5-36 31-51.9 12.8-73.1-14.8-81.2-42.1-66.1q-3.3-3.3-7.8-6.1t-7-4.2-5.6-5.3-5.9-9.5h75.3l75.3-35.7h-243.8q-77 0-136.4 21.5t-101.8 74.5zm7.3 575.9q13.4-25.1 38.5-43.2t55.8-27.6 59.7-13.4 59.7-3.9q17.9 0 27.3 1.1 3.3 2.2 17 11.7t18.4 12.8 17.3 12.8 17.9 14.2 15.3 14.2 14.8 16.5 11.7 17 9.8 19.3 5.3 20.1 2.5 22.6q0 21.2-5.6 39.6h-212q-53 0-95.7-31.5t-57.8-82.3zm46.3-501.1q0-53.6 28.7-92.1t80.6-38.5q36.8 0 66.4 22.9t46.9 58 26.2 72.5 8.9 71.4q0 55.8-24.3 89.6t-78.4 33.8q-28.5 0-54.1-14.5t-43.5-37.7-31.2-52.2-19.8-58-6.4-55.2z"/></svg>