<svg height="1000" width="929" xmlns="http://www.w3.org/2000/svg"><path d="M0 825.904q0-34.038 20.646-75.33 17.856-35.712 53.568-61.659t80.91-39.618 86.49-20.088 83.7-7.533q-35.712-46.314-35.712-83.142 0-6.696 1.116-13.113t2.79-10.881 4.464-11.997 3.906-11.997q-22.32 2.79-39.06 2.79-83.142 0-142.569-54.684t-59.427-137.268q0-78.12 53.01-139.779t130.572-78.957q52.452-11.16 104.346-11.16l243.846 0l-75.33 44.082l-75.33 0q39.618 25.11 61.38 70.308t21.762 94.302q0 41.292-12.834 73.377t-31.248 51.615-36.828 35.991-31.248 34.038-12.834 37.665q0 14.508 9.207 28.458t23.994 26.784 32.643 26.784 35.712 30.969 32.643 36.828 23.994 47.43 9.207 59.427q0 89.28-78.12 157.356-84.816 73.098-234.36 73.098-32.922 0-66.681-5.58t-68.076-18.693-60.543-32.364-42.966-49.662-16.74-67.797zm103.23-25.668q0 37.944 19.809 67.797t51.894 46.872 67.239 25.389 70.866 8.37q32.922 0 62.775-6.975t56.079-21.762 41.571-41.013 15.345-61.38q0-11.718-2.511-22.599t-5.301-20.088-9.765-19.251-11.718-17.019-14.787-16.461-15.345-14.229-17.856-14.229-17.298-12.834-18.414-12.834-17.019-11.718q-9.486-1.116-27.9-1.116-30.132 0-59.148 3.906t-60.264 13.95-54.684 25.668-38.502 41.85-15.066 59.706zm60.822-558q0 26.226 6.417 55.242t19.809 58.032 31.248 52.173 43.524 37.665 54.126 14.508q54.126 0 78.399-33.759t24.273-89.559q0-33.48-9.207-71.145t-26.226-72.819-46.872-58.032-66.681-22.878q-51.894 0-80.352 38.502t-28.458 92.07zm407.34 43.524l0-71.424l142.848 0l0-142.848l71.424 0l0 142.848l142.848 0l0 71.424l-142.848 0l0 142.848l-71.424 0l0-142.848l-142.848 0z"/></svg>