<svg height="1000" width="1285.7" xmlns="http://www.w3.org/2000/svg"><path d="M801.9 509.5q0 116.1 -48.6 206.7T615 858t-206 51q-83.1 0 -159 -32.3T119.4 789.6 32.4 659 0 500 32.4 341t87 -130.6T250 123.3 409 91q159.6 0 274 107.1L572 304.7Q506.7 241.6 409 241.6q-68.6 0 -126.9 34.6t-92.4 94.1 -34 129.7 34 129.7 92.4 94.1T409 758.4q46.4 0 85.1 -12.9T558 713.4t43.8 -43.8 27.4 -46.3 12 -41.3H409V441.4h386.2q6.7 35.2 6.7 68.1zm483.8 -68.1v117.2h-116.6v116.6h-117.2V558.6H935.3V441.4h116.6V324.8h117.2v116.6h116.6z"/></svg>