<svg height="1000" width="857.1" xmlns="http://www.w3.org/2000/svg"><path d="M511.7 505q0 -14.5 -3.3 -35.7h-202V543h121.1q-1.7 13.4 -9.3 27.9t-20.9 29.5 -37.1 24.9 -53.8 9.7q-55.3 0 -94.3 -39.6T173 500t39.1 -95.4T306.4 365q51.3 0 85.3 32.9l58.1 -56.4Q389.5 285.7 306.4 285.7q-89.3 0 -151.8 62.8T92.1 500t62.5 151.5 151.8 62.8q92 0 148.7 -58.6T511.7 505zm192.5 25.7h60.9v-61.4h-60.9v-61.4h-61.3v61.4h-61.4v61.4h61.4v61.4h61.3v-61.4zM857.1 232.1v535.8q0 66.4 -47.1 113.5t-113.6 47.2H160.7q-66.4 0 -113.5 -47.2T0 767.9V232.1Q0 165.7 47.2 118.6T160.7 71.4h535.7q66.4 0 113.6 47.2t47.1 113.5z"/></svg>