<svg height="1000px" width="928.5714285714286px" xmlns="http://www.w3.org/2000/svg">
  <g>
    <path d="M0 825.8928571428571c0 -22.693 6.882 -47.805 20.647 -75.335c11.905 -23.809 29.762 -44.364 53.572 -61.663c23.809 -17.299 50.781 -30.506 80.915 -39.62c30.134 -9.115 58.966 -15.811 86.495 -20.09c27.53 -4.278 55.432 -6.789 83.706 -7.533c-23.81 -30.878 -35.714 -58.594 -35.714 -83.147c0 -4.465 0.372 -8.836 1.116 -13.114c0.744 -4.279 1.674 -7.906 2.79 -10.882c1.116 -2.976 2.604 -6.975 4.464 -11.998c1.86 -5.022 3.162 -9.021 3.906 -11.997c-14.881 1.86 -27.901 2.79 -39.062 2.79c-55.432 0 -102.958 -18.229 -142.578 -54.688c-39.621 -36.458 -59.431 -82.217 -59.431 -137.277c0 -52.083 17.671 -98.679 53.013 -139.788c35.343 -41.108 78.869 -67.429 130.581 -78.962c34.97 -7.44 69.754 -11.16 104.352 -11.16c0 0 243.862 0 243.862 0c0 0 -75.335 44.085 -75.335 44.085c0 0 -75.335 0 -75.335 0c26.414 16.741 46.875 40.178 61.384 70.312c14.509 30.134 21.764 61.57 21.764 94.308c0 27.53 -4.279 51.99 -12.835 73.382c-8.557 21.391 -18.973 38.597 -31.25 51.618c-12.277 13.021 -24.554 25.019 -36.831 35.993c-12.276 10.975 -22.693 22.322 -31.25 34.041c-8.556 11.718 -12.834 24.274 -12.834 37.667c0 9.673 3.069 19.159 9.207 28.46c6.139 9.3 14.137 18.229 23.996 26.786c9.858 8.556 20.74 17.485 32.645 26.785c11.905 9.301 23.809 19.624 35.714 30.971c11.905 11.347 22.787 23.624 32.645 36.831c9.859 13.206 17.857 29.017 23.996 47.433c6.138 18.415 9.207 38.225 9.207 59.43c0 59.524 -26.041 111.98 -78.125 157.366c-56.547 48.736 -134.672 73.103 -234.375 73.103c-21.949 0 -44.178 -1.86 -66.685 -5.58c-22.507 -3.72 -45.201 -9.952 -68.08 -18.694c-22.88 -8.743 -43.062 -19.532 -60.547 -32.366c-17.485 -12.835 -31.808 -29.39 -42.969 -49.666c-11.161 -20.275 -16.741 -42.875 -16.741 -67.801c0 0 0 0 0 0m103.237 -25.67c0 25.298 6.603 47.898 19.81 67.802c13.207 19.903 30.506 35.528 51.897 46.875c21.392 11.346 43.806 19.81 67.244 25.39c23.437 5.581 47.061 8.371 70.87 8.371c21.949 0 42.876 -2.325 62.779 -6.976c19.903 -4.65 38.598 -11.904 56.083 -21.763c17.485 -9.859 31.343 -23.53 41.573 -41.016c10.231 -17.485 15.346 -37.946 15.346 -61.384c0 -7.812 -0.837 -15.346 -2.511 -22.6c-1.674 -7.254 -3.441 -13.951 -5.301 -20.089c-1.86 -6.139 -5.116 -12.556 -9.766 -19.252c-4.65 -6.697 -8.556 -12.37 -11.719 -17.021c-3.162 -4.65 -8.091 -10.137 -14.788 -16.462c-6.696 -6.324 -11.811 -11.067 -15.346 -14.23c-3.534 -3.162 -9.486 -7.905 -17.857 -14.229c-8.37 -6.325 -14.137 -10.603 -17.299 -12.835c-3.162 -2.232 -9.3 -6.511 -18.415 -12.835c-9.115 -6.325 -14.788 -10.231 -17.02 -11.719c-6.324 -0.744 -15.625 -1.116 -27.902 -1.116c-20.089 0 -39.806 1.302 -59.152 3.906c-19.345 2.604 -39.434 7.255 -60.267 13.951c-20.834 6.697 -39.063 15.253 -54.688 25.67c-15.625 10.417 -28.46 24.367 -38.504 41.853c-10.045 17.485 -15.067 37.388 -15.067 59.709c0 0 0 0 0 0m60.826 -558.035c0 17.485 2.139 35.9 6.417 55.245c4.278 19.345 10.882 38.691 19.81 58.036c8.929 19.345 19.345 36.737 31.25 52.176c11.905 15.439 26.414 27.995 43.527 37.668c17.113 9.672 35.156 14.509 54.129 14.509c36.087 0 62.221 -11.254 78.404 -33.762c16.183 -22.507 24.275 -52.362 24.275 -89.564c0 -22.322 -3.069 -46.038 -9.208 -71.15c-6.138 -25.111 -14.881 -49.386 -26.227 -72.824c-11.347 -23.437 -26.972 -42.782 -46.875 -58.035c-19.904 -15.253 -42.132 -22.88 -66.686 -22.88c-34.598 0 -61.383 12.835 -80.357 38.505c-18.973 25.669 -28.459 56.361 -28.459 92.076c0 0 0 0 0 0m407.366 43.526c0 0 0 -71.428 0 -71.428c0 0 142.857 0 142.857 0c0 0 0 -142.857 0 -142.857c0 0 71.428 0 71.428 0c0 0 0 142.857 0 142.857c0 0 142.857 0 142.857 0c0 0 0 71.428 0 71.428c0 0 -142.857 0 -142.857 0c0 0 0 142.858 0 142.858c0 0 -71.428 0 -71.428 0c0 0 0 -142.858 0 -142.858c0 0 -142.857 0 -142.857 0c0 0 0 0 0 0" />
  </g>
</svg>