<svg height="1000px" width="750px" xmlns="http://www.w3.org/2000/svg">
  <g>
    <path d="M0 739.501953125c0 -32.552 9.196 -59.57 27.588 -81.055c18.392 -21.484 41.097 -38.655 68.115 -51.513c27.018 -12.858 56.152 -21.973 87.402 -27.344c31.25 -5.371 59.571 -8.382 84.961 -9.033c-7.487 -9.44 -14.241 -19.857 -20.263 -31.25c-6.022 -11.394 -9.033 -23.763 -9.033 -37.11c0 -7.487 1.057 -14.16 3.173 -20.019c2.116 -5.86 4.476 -12.37 7.08 -19.531c-5.208 1.302 -10.66 1.953 -16.357 1.953c0 0 -16.846 0 -16.846 0c-22.135 0 -43.294 -3.825 -63.476 -11.475c-20.183 -7.65 -37.761 -18.473 -52.735 -32.471c-14.974 -13.997 -27.018 -30.517 -36.132 -49.56c-9.115 -19.043 -13.672 -40.283 -13.672 -63.721c0 -22.135 4.069 -42.969 12.207 -62.5c8.138 -19.531 19.043 -37.353 32.715 -53.467c13.671 -16.113 29.622 -29.785 47.851 -41.015c18.229 -11.231 37.761 -19.287 58.594 -24.17c28.646 -5.86 57.292 -8.789 85.937 -8.789c0 0 200.684 0 200.684 0c0 0 -62.012 36.133 -62.012 36.133c0 0 -62.011 0 -62.011 0c23.437 13.997 40.852 33.61 52.246 58.837c11.393 25.228 17.089 50.863 17.089 76.905c0 30.599 -5.371 54.931 -16.113 72.998c-10.742 18.066 -22.624 33.447 -35.644 46.142c-13.021 12.696 -24.821 24.17 -35.401 34.424c-10.579 10.254 -15.869 23.031 -15.869 38.33c0 14.649 7.162 27.995 21.485 40.039c14.322 12.045 30.11 25.391 47.363 40.039c17.252 14.649 33.04 32.146 47.363 52.491c14.323 20.345 21.484 46.63 21.484 78.857c0 33.203 -8.138 61.768 -24.414 85.693c-16.276 23.926 -36.865 43.62 -61.767 59.082c-24.903 15.463 -52.572 26.856 -83.008 34.18c-30.436 7.324 -59.977 10.986 -88.623 10.986c-21.484 0 -44.515 -2.522 -69.092 -7.568c-24.577 -5.046 -47.363 -13.265 -68.359 -24.658c-20.996 -11.393 -38.33 -26.042 -52.002 -43.945c-13.672 -17.904 -20.508 -40.202 -20.508 -66.895c0 0 0 0 0 0m84.961 -21.973c0 22.136 5.697 41.016 17.09 56.641c11.393 15.625 25.553 28.402 42.48 38.33c16.927 9.928 35.563 17.09 55.908 21.484c20.346 4.395 39.47 6.592 57.373 6.592c16.602 0 33.611 -1.872 51.026 -5.615c17.415 -3.744 33.122 -9.928 47.119 -18.555c13.997 -8.626 25.309 -19.775 33.936 -33.447c8.626 -13.672 12.939 -30.436 12.939 -50.293c0 -15.95 -3.499 -30.518 -10.498 -43.701c-6.999 -13.184 -15.625 -24.902 -25.879 -35.156c-10.254 -10.254 -21.728 -19.857 -34.424 -28.809c-12.695 -8.952 -25.065 -17.497 -37.109 -25.635c-4.557 -0.651 -9.359 -1.139 -14.404 -1.465c-5.046 -0.325 -9.847 -0.488 -14.405 -0.488c-18.554 0 -38.574 2.035 -60.058 6.104c-21.485 4.069 -41.179 10.742 -59.082 20.019c-17.904 9.278 -32.715 21.566 -44.434 36.865c-11.719 15.3 -17.578 34.343 -17.578 57.129c0 0 0 0 0 0m49.805 -458.984c0 17.253 2.848 36.377 8.545 57.373c5.696 20.996 14.078 40.527 25.146 58.594c11.068 18.066 24.495 33.04 40.283 44.922c15.788 11.881 33.936 17.822 54.444 17.822c31.25 0 53.059 -10.01 65.429 -30.029c12.37 -20.02 18.555 -44.027 18.555 -72.022c0 -17.252 -2.36 -36.54 -7.08 -57.861c-4.72 -21.322 -12.044 -41.504 -21.973 -60.547c-9.928 -19.043 -22.623 -34.831 -38.086 -47.363c-15.462 -12.533 -33.772 -18.799 -54.931 -18.799c-15.3 0 -28.646 2.93 -40.039 8.789c-11.394 5.859 -20.752 13.835 -28.077 23.926c-7.324 10.091 -12.858 21.647 -16.601 34.668c-3.744 13.02 -5.615 26.53 -5.615 40.527c0 0 0 0 0 0m353.027 20.02c0 0 104.98 0 104.98 0c0 0 0 104.98 0 104.98c0 0 52.247 0 52.247 0c0 0 0 -104.98 0 -104.98c0 0 104.98 0 104.98 0c0 0 0 -51.27 0 -51.27c0 0 -104.98 0 -104.98 0c0 0 0 -105.957 0 -105.957c0 0 -52.247 0 -52.247 0c0 0 0 105.957 0 105.957c0 0 -104.98 0 -104.98 0c0 0 0 51.27 0 51.27c0 0 0 0 0 0" />
  </g>
</svg>