<svg height="1000px" width="928.5714285714286px" xmlns="http://www.w3.org/2000/svg">
  <g>
    <path d="M928.5714285714286 214.28571428571422c0 0 0 71.429 0 71.429c0 0 -142.857 0 -142.857 0c0 0 0 142.857 0 142.857c0 0 -71.429 0 -71.429 0c0 0 0 -142.857 0 -142.857c0 0 -142.857 0 -142.857 0c0 0 0 -71.429 0 -71.429c0 0 142.857 0 142.857 0c0 0 0 -142.857 0 -142.857c0 0 71.429 0 71.429 0c0 0 0 142.857 0 142.857c0 0 142.857 0 142.857 0c0 0 0 0 0 0m-579.799 -142.857c0 0 243.861 0 243.861 0c0 0 -75.334 44.085 -75.334 44.085c0 0 -75.335 0 -75.335 0c26.414 16.741 46.875 40.178 61.384 70.312c14.509 30.134 21.763 60.268 21.763 90.402c0 30.134 -4.278 55.897 -12.835 77.288c-8.556 21.391 -18.973 38.597 -31.25 51.618c-12.276 12.649 -24.553 24.554 -36.83 35.715c-29.39 26.413 -44.085 50.409 -44.085 71.986c-0.372 17.485 10.603 35.9 32.924 55.246c9.673 8.556 20.555 17.485 32.645 26.785c12.091 9.301 24.089 19.625 35.994 30.971c12.276 11.347 23.251 23.717 32.924 37.11c22.321 29.762 33.296 65.29 32.924 106.585c0 59.523 -27.158 112.816 -81.473 159.877c-54.316 47.061 -131.325 70.591 -231.027 70.591c-47.619 0 -87.705 -6.231 -120.257 -18.694c-32.552 -12.463 -57.57 -25.112 -75.056 -37.946c-17.485 -12.835 -31.808 -29.39 -42.968 -49.666c-11.161 -20.275 -16.741 -42.317 -16.741 -66.127c0 -23.809 6.417 -48.549 19.252 -74.219c12.835 -25.669 31.157 -47.154 54.966 -64.453c23.81 -17.299 50.782 -30.413 80.916 -39.341c55.803 -16.741 112.537 -26.042 170.2 -27.902c-23.809 -30.878 -35.714 -58.594 -35.714 -83.147c0 -8.929 0.93 -15.997 2.79 -21.206c5.581 -14.509 8.743 -23.437 9.487 -26.785c-14.881 1.86 -27.902 2.79 -39.063 2.79c-55.431 0 -102.957 -18.229 -142.578 -54.688c-39.62 -36.458 -59.431 -81.473 -59.431 -135.044c0 -53.572 17.672 -100.912 53.014 -142.02c35.342 -41.109 78.869 -67.43 130.58 -78.962c34.97 -7.441 69.755 -11.161 104.353 -11.161c0 0 0 0 0 0m48.828 354.632c16.183 -22.508 24.275 -48.643 24.275 -78.404c0 -29.762 -3.07 -57.199 -9.208 -82.311c-6.138 -25.111 -14.881 -49.386 -26.228 -72.823c-11.346 -23.438 -26.971 -42.783 -46.875 -58.036c-19.903 -15.253 -42.131 -22.88 -66.685 -22.88c-34.598 0 -61.384 12.835 -80.357 38.505c-18.973 25.67 -28.46 56.361 -28.46 92.076c0 37.574 8.743 75.335 26.228 113.281c19.717 42.783 44.643 72.731 74.777 89.844c17.113 9.672 35.156 14.509 54.129 14.509c36.086 0 62.221 -11.254 78.404 -33.761c0 0 0 0 0 0m75.893 452.846c10.231 -17.486 15.346 -34.041 15.346 -49.666c0 -15.625 -0.837 -27.064 -2.511 -34.319c-1.674 -7.254 -3.442 -13.951 -5.302 -20.089c-1.86 -6.139 -5.115 -12.556 -9.765 -19.252c-4.651 -6.697 -8.557 -12.37 -11.719 -17.02c-3.162 -4.651 -8.092 -10.138 -14.788 -16.463c-6.696 -6.324 -11.812 -11.067 -15.346 -14.229c-3.534 -3.163 -9.487 -7.906 -17.857 -14.23c-8.743 -6.325 -14.602 -10.603 -17.578 -12.835c-15.625 -11.161 -27.344 -19.345 -35.156 -24.554c-6.325 -0.744 -17.579 -1.116 -33.762 -1.116c-16.183 0 -33.947 1.302 -53.292 3.906c-19.345 2.605 -39.435 7.255 -60.268 13.951c-20.833 6.697 -39.062 15.253 -54.687 25.67c-15.625 10.417 -28.46 24.368 -38.505 41.853c-10.044 17.485 -15.067 38.132 -15.067 61.942c0 23.809 6.604 45.666 19.81 65.569c13.207 20.275 30.599 35.993 52.177 47.154c42.411 22.321 88.355 33.482 137.835 33.482c45.387 0 85.007 -9.673 118.861 -29.018c17.485 -9.672 31.343 -23.251 41.574 -40.736c0 0 0 0 0 0" />
  </g>
</svg>