<svg height="1000" width="928.571" xmlns="http://www.w3.org/2000/svg"><path d="M410.13 444.232q0 20.088 17.856 39.339t43.245 37.944 50.499 41.013 42.966 58.032 17.856 79.236q0 50.22 -26.784 96.534 -40.176 68.076 -117.738 100.161t-166.284 32.085q-73.656 0 -137.547 -23.157t-95.697 -76.725q-20.646 -33.48 -20.646 -73.098 0 -45.198 24.831 -83.7t66.123 -64.17q73.098 -45.756 225.432 -55.8 -17.856 -23.436 -26.505 -41.292t-8.649 -40.734q0 -20.088 11.718 -47.43 -25.668 2.232 -37.944 2.232 -82.584 0 -139.221 -53.847t-56.637 -136.431q0 -45.756 20.088 -88.722t55.242 -73.098q42.966 -36.828 101.835 -54.684t121.365 -17.856h233.244l-77.004 49.104h-73.098q41.292 35.154 62.496 74.214t21.204 89.28q0 40.176 -13.671 72.261t-32.922 51.894 -38.781 36.27 -33.201 34.317 -13.671 36.828zm-81.468 -53.568q21.204 0 43.524 -9.207t36.828 -24.273q29.574 -31.806 29.574 -88.722 0 -32.364 -9.486 -69.75t-27.063 -72.261 -47.151 -57.753 -65.286 -22.878q-23.436 0 -46.035 10.881t-36.549 29.295q-26.226 32.922 -26.226 89.28 0 25.668 5.58 54.405t17.577 57.474 29.016 51.615 41.85 37.386 53.847 14.508zm1.116 487.134q32.364 0 62.217 -7.254t55.242 -21.762 40.734 -40.734 15.345 -60.822q0 -13.95 -3.906 -27.342t-8.091 -23.436 -15.066 -23.157 -16.461 -19.53 -21.483 -19.251 -20.367 -16.182 -23.157 -16.74 -20.367 -14.508q-8.928 -1.116 -26.784 -1.116 -29.574 0 -58.59 3.906t-59.985 13.95 -54.126 25.668 -38.223 41.571 -15.066 58.869q0 39.06 19.53 68.913t51.057 46.314 66.402 24.552 71.145 8.091zm451.98 -488.808h118.854v60.264h-118.854v122.202h-58.59v-122.202h-118.296v-60.264h118.296v-121.086h58.59v121.086z"/></svg>