<svg height="1000" width="928.6" xmlns="http://www.w3.org/2000/svg"><path d="M0 825.9q0-34 20.6-75.3 17.9-35.7 53.6-61.7t80.9-39.6 86.5-20.1 83.7-7.5q-35.7-46.3-35.7-83.1 0-6.7 1.1-13.1t2.8-10.9 4.5-12 3.9-12q-22.3 2.8-39.1 2.8-83.1 0-142.6-54.7t-59.4-137.3q0-78.1 53-139.8t130.6-79q52.5-11.2 104.3-11.2h243.8l-75.3 44.1h-75.3q39.6 25.1 61.4 70.3t21.8 94.3q0 41.3-12.8 73.4t-31.2 51.6-36.8 36-31.2 34-12.8 37.7q0 14.5 9.2 28.5t24 26.8 32.6 26.8 35.7 31 32.6 36.8 24 47.4 9.2 59.4q0 89.3-78.1 157.4-84.8 73.1-234.4 73.1-32.9 0-66.7-5.6t-68.1-18.7-60.5-32.4-43-49.7-16.7-67.8zm103.2-25.7q0 37.9 19.8 67.8t51.9 46.9 67.2 25.4 70.9 8.4q32.9 0 62.8-7t56.1-21.8 41.6-41 15.3-61.4q0-11.7-2.5-22.6t-5.3-20.1-9.8-19.3-11.7-17-14.8-16.5-15.3-14.2-17.9-14.2-17.3-12.8-18.4-12.8-17-11.7q-9.5-1.1-27.9-1.1-30.1 0-59.1 3.9t-60.3 14-54.7 25.7-38.5 41.9-15.1 59.7zm60.8-558q0 26.2 6.4 55.2t19.8 58 31.2 52.2 43.5 37.7 54.1 14.5q54.1 0 78.4-33.8t24.3-89.6q0-33.5-9.2-71.1t-26.2-72.8-46.9-58-66.7-22.9q-51.9 0-80.4 38.5t-28.5 92.1zm407.3 43.5v-71.4h142.8v-142.8h71.4v142.8h142.8v71.4h-142.8v142.8h-71.4v-142.8h-142.8z"/></svg>