<svg height="1000px" width="857.1428571428571px" xmlns="http://www.w3.org/2000/svg">
  <g>
    <path d="M0 740.5133928571428c0 0 0 -241.629 0 -241.629c38.318 43.898 89.1 65.848 152.344 65.848c11.905 0 24.925 -0.93 39.062 -2.79c-7.812 22.693 -11.719 38.69 -11.719 47.991c0 24.925 11.719 52.641 35.157 83.147c-87.054 2.604 -158.668 18.415 -214.844 47.433c0 0 0 0 0 0m0 -501.674c0 -46.875 15.067 -86.496 45.201 -118.862c30.134 -32.366 68.638 -48.549 115.513 -48.549c0 0 535.715 0 535.715 0c44.27 0 82.124 15.718 113.56 47.154c31.436 31.436 47.154 69.29 47.154 113.56c0 0 0 53.572 0 53.572c0 0 -142.857 0 -142.857 0c0 0 0 -142.857 0 -142.857c0 0 -71.429 0 -71.429 0c0 0 0 142.857 0 142.857c0 0 -142.857 0 -142.857 0c0 0 0 71.428 0 71.428c0 0 142.857 0 142.857 0c0 0 0 142.858 0 142.858c0 0 71.429 0 71.429 0c0 0 0 -142.858 0 -142.858c0 0 142.857 0 142.857 0c0 0 0 410.715 0 410.715c0 44.271 -15.718 82.124 -47.154 113.56c-31.436 31.436 -69.29 47.154 -113.56 47.154c0 0 -261.161 0 -261.161 0c14.509 -27.158 21.763 -56.362 21.763 -87.612c0 -24.553 -4.092 -47.34 -12.277 -68.359c-8.184 -21.019 -18.508 -38.318 -30.971 -51.897c-12.462 -13.579 -25.855 -26.786 -40.178 -39.621c-14.323 -12.835 -27.716 -23.902 -40.179 -33.203c-12.462 -9.301 -22.786 -19.438 -30.971 -30.413c-8.184 -10.975 -12.276 -22.042 -12.276 -33.203c0 -13.393 4.278 -26.042 12.834 -37.946c8.557 -11.905 18.974 -23.345 31.25 -34.32c12.277 -10.974 24.461 -22.972 36.552 -35.993c12.091 -13.021 22.414 -30.32 30.971 -51.897c8.556 -21.578 12.835 -45.945 12.835 -73.103c0 -27.158 -4.93 -54.222 -14.788 -81.194c-9.859 -26.972 -23.903 -49.014 -42.132 -66.127c-2.232 -2.232 -4.836 -4.279 -7.813 -6.139c-2.976 -1.86 -5.301 -3.255 -6.975 -4.185c-1.674 -0.93 -3.534 -2.697 -5.58 -5.301c-2.047 -2.605 -4 -5.767 -5.86 -9.487c0 0 75.335 0 75.335 0c0 0 75.335 -35.714 75.335 -35.714c0 0 -243.862 0 -243.862 0c-51.339 0 -96.819 7.161 -136.439 21.484c-39.621 14.323 -73.568 39.156 -101.842 74.498c0 0 0 0 0 0m7.254 575.893c8.929 -16.741 21.764 -31.157 38.505 -43.248c16.741 -12.091 35.342 -21.298 55.804 -27.623c20.461 -6.324 40.364 -10.788 59.709 -13.393c19.346 -2.604 39.249 -3.906 59.71 -3.906c11.905 0 21.019 0.372 27.344 1.116c2.232 1.488 7.905 5.395 17.02 11.719c9.115 6.324 15.253 10.603 18.415 12.835c3.162 2.232 8.929 6.51 17.299 12.835c8.371 6.324 14.323 11.067 17.857 14.229c3.535 3.163 8.65 7.906 15.346 14.23c6.697 6.325 11.626 11.812 14.788 16.462c3.163 4.651 7.069 10.324 11.719 17.021c4.65 6.696 7.906 13.113 9.766 19.252c1.86 6.138 3.627 12.835 5.301 20.089c1.674 7.255 2.511 14.788 2.511 22.601c0 14.136 -1.86 27.343 -5.58 39.62c0 0 -212.054 0 -212.054 0c-35.342 0 -67.243 -10.51 -95.703 -31.529c-28.46 -21.019 -47.712 -48.456 -57.757 -82.31c0 0 0 0 0 0m46.317 -501.116c0 -35.715 9.58 -66.407 28.739 -92.076c19.159 -25.67 46.038 -38.505 80.636 -38.505c24.554 0 46.689 7.627 66.407 22.88c19.717 15.253 35.342 34.598 46.875 58.036c11.532 23.437 20.275 47.619 26.227 72.544c5.953 24.926 8.929 48.735 8.929 71.429c0 37.202 -8.092 67.057 -24.275 89.564c-16.183 22.508 -42.317 33.762 -78.404 33.762c-18.973 0 -37.016 -4.837 -54.129 -14.509c-17.113 -9.673 -31.622 -22.229 -43.527 -37.668c-11.905 -15.439 -22.321 -32.831 -31.25 -52.176c-8.928 -19.345 -15.532 -38.691 -19.81 -58.036c-4.278 -19.345 -6.418 -37.76 -6.418 -55.245c0 0 0 0 0 0" />
  </g>
</svg>