<svg height="1000px" width="928.5714285714286px" xmlns="http://www.w3.org/2000/svg">
  <g>
    <path d="M0 827.5669642857142c0 -23.81 6.417 -48.549 19.252 -74.219c12.835 -25.669 31.157 -47.154 54.967 -64.453c23.809 -17.299 50.781 -30.413 80.915 -39.341c55.803 -16.741 112.537 -26.042 170.201 -27.902c-23.81 -30.878 -35.714 -58.594 -35.714 -83.147c0 -8.929 0.93 -15.998 2.79 -21.206c5.58 -14.509 8.742 -23.437 9.486 -26.786c-14.881 1.861 -27.901 2.791 -39.062 2.791c-55.432 0 -102.958 -18.23 -142.578 -54.688c-39.621 -36.458 -59.431 -81.473 -59.431 -135.045c0 -53.571 17.671 -100.911 53.013 -142.02c35.343 -41.108 78.869 -67.429 130.581 -78.962c34.97 -7.44 69.754 -11.16 104.352 -11.16c0 0 243.862 0 243.862 0c0 0 -75.335 44.084 -75.335 44.084c0 0 -75.335 0 -75.335 0c26.414 16.742 46.875 40.179 61.384 70.313c14.509 30.134 21.764 60.268 21.764 90.402c0 30.134 -4.279 55.896 -12.835 77.288c-8.557 21.391 -18.973 38.597 -31.25 51.618c-12.277 12.649 -24.554 24.554 -36.831 35.714c-29.389 26.414 -44.084 50.409 -44.084 71.987c-0.372 17.485 10.602 35.9 32.924 55.245c9.672 8.557 20.554 17.486 32.645 26.786c12.091 9.301 24.088 19.624 35.993 30.971c12.277 11.347 23.252 23.717 32.924 37.109c22.322 29.762 33.296 65.291 32.924 106.585c0 59.524 -27.157 112.817 -81.473 159.878c-54.315 47.061 -131.324 70.591 -231.027 70.591c-47.619 0 -87.704 -6.231 -120.256 -18.694c-32.552 -12.463 -57.571 -25.112 -75.056 -37.947c-17.485 -12.834 -31.808 -29.389 -42.969 -49.665c-11.161 -20.275 -16.741 -42.317 -16.741 -66.127c0 0 0 0 0 0m103.237 -25.112c0 23.81 6.603 45.666 19.81 65.57c13.207 20.275 30.599 35.993 52.176 47.154c42.411 22.321 88.356 33.482 137.835 33.482c45.387 0 85.007 -9.673 118.862 -29.018c17.485 -9.673 31.343 -23.252 41.573 -40.737c10.231 -17.485 15.346 -34.04 15.346 -49.665c0 -15.625 -0.837 -27.065 -2.511 -34.319c-1.674 -7.255 -3.441 -13.951 -5.301 -20.089c-1.86 -6.139 -5.116 -12.556 -9.766 -19.253c-4.65 -6.696 -8.556 -12.369 -11.719 -17.02c-3.162 -4.65 -8.091 -10.137 -14.788 -16.462c-6.696 -6.324 -11.811 -11.067 -15.346 -14.23c-3.534 -3.162 -9.486 -7.905 -17.857 -14.23c-8.742 -6.324 -14.602 -10.602 -17.578 -12.834c-15.625 -11.161 -27.344 -19.346 -35.156 -24.554c-6.324 -0.744 -17.578 -1.116 -33.761 -1.116c-16.183 0 -33.947 1.302 -53.293 3.906c-19.345 2.604 -39.434 7.255 -60.267 13.951c-20.834 6.697 -39.063 15.253 -54.688 25.67c-15.625 10.416 -28.46 24.367 -38.504 41.852c-10.045 17.486 -15.067 38.133 -15.067 61.942c0 0 0 0 0 0m60.826 -560.267c0 37.574 8.742 75.334 26.227 113.281c19.717 42.783 44.643 72.73 74.777 89.844c17.113 9.672 35.156 14.508 54.129 14.508c36.087 0 62.221 -11.253 78.404 -33.761c16.183 -22.507 24.275 -48.642 24.275 -78.404c0 -29.762 -3.069 -57.198 -9.208 -82.31c-6.138 -25.112 -14.881 -49.386 -26.227 -72.824c-11.347 -23.437 -26.972 -42.782 -46.875 -58.035c-19.904 -15.253 -42.132 -22.88 -66.686 -22.88c-34.598 0 -61.383 12.835 -80.357 38.505c-18.973 25.669 -28.459 56.361 -28.459 92.076c0 0 0 0 0 0m407.366 43.526c0 0 0 -71.428 0 -71.428c0 0 142.857 0 142.857 0c0 0 0 -142.857 0 -142.857c0 0 71.428 0 71.428 0c0 0 0 142.857 0 142.857c0 0 142.857 0 142.857 0c0 0 0 71.428 0 71.428c0 0 -142.857 0 -142.857 0c0 0 0 142.857 0 142.857c0 0 -71.428 0 -71.428 0c0 0 0 -142.857 0 -142.857c0 0 -142.857 0 -142.857 0c0 0 0 0 0 0" />
  </g>
</svg>