<svg height="1000" width="1285.714" xmlns="http://www.w3.org/2000/svg"><path d="M989.892 466.552l10.044 176.328q2.232 38.502 -45.756 71.424t-131.13 52.173 -180.234 19.251 -180.234 -19.251 -131.13 -52.173 -45.756 -71.424l10.044 -176.328 320.292 100.998q12.276 3.906 26.784 3.906t26.784 -3.906zm295.74 -180.792q0 12.834 -12.276 17.298l-624.96 196.416q-2.232 .558 -5.58 .558t-5.58 -.558l-363.816 -114.948q-23.994 18.972 -39.618 62.217t-18.972 99.603q35.154 20.088 35.154 60.822 0 38.502 -32.364 59.706l32.364 241.614q1.116 7.812 -4.464 13.95 -5.022 6.138 -13.392 6.138h-107.136q-8.37 0 -13.392 -6.138 -5.58 -6.138 -4.464 -13.95l32.364 -241.614q-32.364 -21.204 -32.364 -59.706 0 -40.734 36.27 -61.938 6.138 -115.506 54.684 -184.14l-185.814 -58.032q-12.276 -4.464 -12.276 -17.298t12.276 -17.298l624.96 -196.416q2.232 -.558 5.58 -.558t5.58 .558l624.96 196.416q12.276 4.464 12.276 17.298z"/></svg>