<svg height="1000" width="1285.7" xmlns="http://www.w3.org/2000/svg"><path d="M990 466.5l10 176.4q2.2 38.5 -45.8 71.4t-131.1 52.2 -180.2 19.2T462.6 766.5 331.5 714.3t-45.8 -71.4l10.1 -176.4 320.3 101q12.2 3.9 26.8 3.9t26.7 -3.9zm295.7 -180.8q0 12.8 -12.3 17.3l-625 196.4q-2.2 .6 -5.5 .6t-5.6 -.6L273.4 384.5q-24 19 -39.6 62.2t-19 99.6q35.2 20.1 35.2 60.8 0 38.5 -32.4 59.8L250 908.5q1.1 7.8 -4.5 13.9 -5 6.2 -13.4 6.2H125q-8.4 0 -13.4 -6.2 -5.6 -6.1 -4.5 -13.9l32.4 -241.6q-32.4 -21.3 -32.4 -59.8 0 -40.7 36.3 -61.9Q149.6 429.7 198.1 361L12.3 303Q0 298.5 0 285.7t12.3 -17.3L637.3 72q2.2 -.6 5.6 -.6t5.5 .6l625 196.4q12.3 4.5 12.3 17.3z"/></svg>