<svg height="1000" width="1001.1" xmlns="http://www.w3.org/2000/svg"><path d="M720.4 265.6q-8.3 -9.5 -19.5 -4.7t-14.5 15.9 2.8 21.2q7.8 9.5 22.3 8.1t19 -11.5 -10.1 -29zm-221 137.3q-4.4 4.5 -10.8 4.5t-10.4 -4.5q-4.4 -4.5 -4.4 -10.6t4.4 -10q3.9 -4.5 10.4 -4.5t10.8 4.5q3.9 3.9 3.9 10t-3.9 10.6zm92.1 41.3L572 463.7q-6.7 7.3 -16.5 7.3t-17 -7.3l-21.2 -21.2q-6.7 -7.2 -6.7 -16.7t6.7 -16.8l19.5 -19.5q6.7 -6.7 16.5 -6.7t17 6.7l21.2 21.8q6.7 6.7 6.7 16.4t-6.7 16.5zm-60.8 -72.5q-3.9 4.4 -10.3 4.4t-10.9 -4.4q-3.9 -4.5 -3.9 -10.7t3.9 -10.6Q514 346 520.1 346t10.6 4.4 4.5 10.6 -4.5 10.7zM755.6 317q-19 35.7 -60 47.7t-71.2 -9.2q-21.2 -15.7 -34 -37.1t-11.7 -48.9 21.7 -51.3 42.2 -29.6 39.3 2.8 39.1 28.5q1.1 1.1 7.2 6.9t8.1 7.6 7.3 7.5 7 8.7 5.5 8.6 4.8 10.1 2.2 10.3 .6 11.7 -2.8 12.3 -5.3 13.4zm112.1 268.9q1.7 -11.1 -4.7 -19.2t-15.3 -12 -18.5 -9.5T816.4 534q-22.3 -39.6 -46.9 -54.9t-63 -6.4q10.6 -7.3 22.3 -10.4t18.4 -2.5l6.7 .6q1.1 -25.1 -19 -50.2 3.4 -11.2 3.7 -22.6t-1.4 -17.1l-1.7 -5.5q24 -13.4 39.6 -36.3t19 -50.8q5.6 -46.9 -24 -84t-76.5 -42.7q-33.4 -3.9 -63.6 10.4t-45.7 41.5q-16.8 28.5 -18.7 56.4t8.1 48.5 24.2 35.7 31.6 23.5Q604.4 365 580.4 347.1T548.5 298q-15.6 -60.3 17.9 -123.9 -8.9 -11.7 -16.2 -17.9 -27.9 0 -49.6 10.7 10.6 -13.4 23.4 -20.7t20.1 -7.8l7.2 -.6q0 -27.9 -7.2 -43.5Q538.5 82.6 525.9 78.4t-26.2 2 -20.9 22.3q1.1 -2.3 2.2 -3.9 -3.9 15.6 -3.6 42.1t10.6 65.3 27.1 68.4q-14 7.8 -26.3 20 -19.5 9 -47.7 39.4T394 390.6l-18.4 25.7q-50.3 19 -101 70T232.7 577q.6 8.9 6.1 15.1 -8.3 6.7 -16.7 16.7 -11.7 14 -11.7 30.2t12 22.3 35.4 -3.4q22.9 -10.6 43 -27.6t30.7 -33.8q-1.1 -1.1 -3.7 -2.8t-11.4 -4.1 -18.4 -2q12.8 -2.8 28.5 -7t22.3 -5.5 15.3 -3.4 14.5 -2.2 13.1 -.3q7.9 3.9 12.3 -19 3.9 -20.6 3.9 -50.2 0 -56.9 -22.3 -83.7 59.2 57.5 56.4 122.2 -.6 16.2 -8.4 27.9t-15.1 15.1l-7.2 3.3q-2.3 3.9 -10.6 17.9t-14.5 25.4 -14.8 29 -14 34 -9.5 35.2 -3.6 37.1 5.6 35.1q-19.5 -30.1 -20.7 -44.6Q317 767.3 310 775.7t-18.7 23.4 -17 25.7 -9.2 22.9 -.3 21.2 14.2 15q25.1 14 80.4 -35.7T465.7 724.6 534 597.1q48 -29 81 -64.5T662.9 466q26.3 51.9 86 99.3 58 46.3 93.2 44.6 21.7 -1.1 25.6 -24zM1001.1 500q0 101.6 -39.6 194.2T854.9 853.8 695 960.4 500.6 1000 306.1 960.4 146.2 853.8 39.6 694.2 0 500 39.6 305.8 146.2 146.2 306.1 39.6 500.6 0 695 39.6t159.9 106.6 106.6 159.6 39.6 194.2z"/></svg>