<svg height="1000" width="1000" xmlns="http://www.w3.org/2000/svg"><path d="M335.916 327.61q10.602 34.038 17.298 68.913t9.486 78.957 -7.812 88.722 -34.596 80.91q-11.718 -45.198 -37.386 -87.606t-53.289 -70.866 -55.242 -50.499 -43.803 -32.085 -18.414 -10.602q-34.596 -18.972 -45.477 -55.8t8.091 -71.424 56.358 -45.477 71.982 8.091q77.004 46.314 132.804 98.766zm181.35 -160.146q6.138 13.95 11.439 25.668t20.367 56.079 23.715 83.979 14.229 100.161 0 114.669 -26.505 116.901 -58.869 116.343q-28.458 40.176 -77.004 40.176 -30.132 0 -54.684 -17.298 -31.806 -22.32 -38.502 -60.822t15.624 -70.866q33.48 -47.43 45.198 -108.81t7.254 -111.321 -17.856 -100.719 -21.762 -71.424 -12.276 -29.016q-17.298 -35.154 -4.743 -72.261t47.709 -54.405q18.972 -9.486 41.85 -9.486 26.226 0 49.383 13.95t35.433 38.502zm179.118 373.302q-9.486 89.28 -40.176 173.538 -9.486 -73.098 -35.154 -137.268 13.95 -97.092 -2.79 -201.438 -15.066 -99.324 -52.452 -190.836 63.612 50.22 118.296 117.738 5.022 20.646 8.37 44.64 14.508 99.882 3.906 193.626zm151.776 -487.134q5.022 9.486 13.113 27.621t24.273 65.565 28.179 99.324 18.972 126.945 2.79 150.102 -26.226 167.4 -62.775 180.513q-12.276 26.784 -36.828 42.129t-53.01 15.345q-21.762 0 -41.292 -8.928 -37.386 -17.298 -51.615 -55.8t2.511 -75.888q32.364 -70.308 50.22 -143.685t20.925 -133.641 -1.953 -119.133 -14.787 -100.719 -21.483 -77.283 -18.135 -50.22 -8.649 -18.135q-18.972 -36.27 -6.417 -75.609t48.825 -58.311q20.646 -11.16 45.198 -11.16 27.342 0 51.057 14.229t37.107 39.339z"/></svg>