<svg height="1000" width="1000" xmlns="http://www.w3.org/2000/svg"><path d="M246.1 375q17.9 0 29 14.5 148.4 203.1 202 431.9H228.2Q157.4 575.3 23.4 403.5q-6.7 -9 -1.6 -18.7T37.9 375h208.2zM558 574.2q-27.3 111.1 -69.7 219.3Q444.2 620.5 345.4 462.1 367.7 338.7 370 211.5q117.7 189.7 188 362.7zm55.3 -395.6q131.1 180.8 214.5 389.8t103 431.6H679.1Q656.3 628.9 370.5 178.6h242.8zM1000 500q0 236.6 -56.4 453.1Q906.3 640.6 743.3 348.8 729.4 180.8 684.2 22.9 681.9 14 687.2 7t14.3 -7h200.3q11.7 0 21.5 7.3t12.5 18.4Q1000 253.9 1000 500z"/></svg>