<svg height="1000" width="858" xmlns="http://www.w3.org/2000/svg"><path d="M0 767.872l0-535.68q0-66.402 47.151-113.553t113.553-47.151l535.68 0q66.402 0 113.553 47.151t47.151 113.553l0 535.68q0 66.402-47.151 113.553t-113.553 47.151l-535.68 0q-66.402 0-113.553-47.151t-47.151-113.553zm142.848-17.856q0 14.508 10.602 25.11t25.11 10.602l71.424 0q14.508 0 25.11-10.602t10.602-25.11l0-178.56l285.696 0l0 178.56q0 14.508 10.602 25.11t25.11 10.602l71.424 0q14.508 0 25.11-10.602t10.602-25.11l0-499.968q0-14.508-10.602-25.11t-25.11-10.602l-71.424 0q-14.508 0-25.11 10.602t-10.602 25.11l0 178.56l-285.696 0l0-178.56q0-14.508-10.602-25.11t-25.11-10.602l-71.424 0q-14.508 0-25.11 10.602t-10.602 25.11l0 499.968z"/></svg>