<svg height="1000" width="857.1" xmlns="http://www.w3.org/2000/svg"><path d="M0 767.9v-535.7q0-66.4 47.2-113.6t113.6-47.2h535.7q66.4 0 113.6 47.2t47.2 113.6v535.7q0 66.4-47.2 113.6t-113.6 47.2h-535.7q-66.4 0-113.6-47.2t-47.2-113.6zm142.8-17.9q0 14.5 10.6 25.1t25.1 10.6h71.4q14.5 0 25.1-10.6t10.6-25.1v-178.6h285.7v178.6q0 14.5 10.6 25.1t25.1 10.6h71.4q14.5 0 25.1-10.6t10.6-25.1v-500q0-14.5-10.6-25.1t-25.1-10.6h-71.4q-14.5 0-25.1 10.6t-10.6 25.1v178.6h-285.7v-178.6q0-14.5-10.6-25.1t-25.1-10.6h-71.4q-14.5 0-25.1 10.6t-10.6 25.1v500z"/></svg>