<svg height="1000px" width="857.1428571428571px" xmlns="http://www.w3.org/2000/svg">
  <g>
    <path d="M0 767.8571428571428c0 0 0 -535.714 0 -535.714c0 -44.271 15.718 -82.125 47.154 -113.561c31.436 -31.436 69.289 -47.154 113.56 -47.154c0 0 535.715 0 535.715 0c44.27 0 82.124 15.718 113.56 47.154c31.436 31.436 47.154 69.29 47.154 113.561c0 0 0 535.714 0 535.714c0 44.271 -15.718 82.124 -47.154 113.56c-31.436 31.436 -69.29 47.154 -113.56 47.154c0 0 -535.715 0 -535.715 0c-44.271 0 -82.124 -15.718 -113.56 -47.154c-31.436 -31.436 -47.154 -69.289 -47.154 -113.56c0 0 0 0 0 0m142.857 -17.857c0 9.672 3.534 18.043 10.603 25.111c7.068 7.069 15.439 10.603 25.111 10.603c0 0 71.429 0 71.429 0c9.673 0 18.043 -3.534 25.112 -10.603c7.068 -7.068 10.602 -15.439 10.602 -25.111c0 0 0 -178.572 0 -178.572c0 0 285.715 0 285.715 0c0 0 0 178.572 0 178.572c0 9.672 3.534 18.043 10.602 25.111c7.069 7.069 15.439 10.603 25.112 10.603c0 0 71.428 0 71.428 0c9.673 0 18.044 -3.534 25.112 -10.603c7.068 -7.068 10.603 -15.439 10.603 -25.111c0 0 0 -500 0 -500c0 -9.673 -3.535 -18.043 -10.603 -25.112c-7.068 -7.068 -15.439 -10.602 -25.112 -10.602c0 0 -71.428 0 -71.428 0c-9.673 0 -18.043 3.534 -25.112 10.602c-7.068 7.069 -10.602 15.439 -10.602 25.112c0 0 0 178.571 0 178.571c0 0 -285.715 0 -285.715 0c0 0 0 -178.571 0 -178.571c0 -9.673 -3.534 -18.043 -10.602 -25.112c-7.069 -7.068 -15.439 -10.602 -25.112 -10.602c0 0 -71.429 0 -71.429 0c-9.672 0 -18.043 3.534 -25.111 10.602c-7.069 7.069 -10.603 15.439 -10.603 25.112c0 0 0 500 0 500c0 0 0 0 0 0" />
  </g>
</svg>