<svg height="1000" width="857.143" xmlns="http://www.w3.org/2000/svg"><path d="M460.35 551.926l191.394 -328.104h-83.7q-11.718 21.762 -35.433 66.123t-37.944 71.703 -33.201 66.123 -33.48 71.703h-1.674q-11.718 -26.784 -24.831 -54.126t-29.016 -58.869 -25.947 -51.336 -30.132 -58.311 -27.342 -53.01h-83.7l180.234 328.662v242.73h74.772v-243.288zm396.738 -319.734v535.68q0 66.402 -47.151 113.553t-113.553 47.151h-535.68q-66.402 0 -113.553 -47.151t-47.151 -113.553v-535.68q0 -66.402 47.151 -113.553t113.553 -47.151h535.68q66.402 0 113.553 47.151t47.151 113.553z"/></svg>