<svg height="1000px" width="1000px" xmlns="http://www.w3.org/2000/svg">
  <g>
    <path d="M967.6339285714286 806.3616071428571c13.765 14.509 20.647 31.529 20.647 51.06c0 19.532 -6.882 36.18 -20.647 49.944c0 0 -59.71 60.268 -59.71 60.268c-14.509 13.765 -31.529 20.648 -51.06 20.648c-19.531 0 -36.179 -6.883 -49.944 -20.648c0 0 -202.567 -203.125 -202.567 -203.125c-14.137 -13.393 -21.206 -30.041 -21.206 -49.944c0 -19.903 7.999 -37.853 23.996 -53.85c0 0 -142.857 -142.857 -142.857 -142.857c0 0 -70.313 70.312 -70.313 70.312c-5.208 5.208 -11.532 7.813 -18.973 7.813c-7.44 0 -13.765 -2.605 -18.973 -7.813c0.744 0.744 3.069 2.976 6.975 6.696c3.907 3.721 6.232 6.139 6.976 7.255c0.744 1.116 2.604 3.255 5.58 6.417c2.976 3.163 4.836 5.674 5.58 7.534c0.745 2.232 1.861 4.836 3.349 7.812c2.604 5.581 3.906 13.672 3.906 24.275c0 10.603 -5.208 21.484 -15.625 32.645c-1.116 1.116 -4.185 4.464 -9.208 10.045c-5.022 5.58 -8.556 9.393 -10.602 11.439c-2.046 2.046 -5.488 5.116 -10.324 9.208c-4.836 4.092 -8.929 6.882 -12.277 8.37c-10.044 5.209 -20.74 7.813 -32.087 7.813c-11.347 0 -22.228 -5.208 -32.645 -15.625c0 0 -227.678 -227.679 -227.678 -227.679c-10.417 -10.416 -15.625 -20.554 -15.625 -30.413c0 -9.858 0.837 -17.206 2.511 -22.042c1.674 -4.836 3.348 -8.929 5.022 -12.277c1.674 -3.348 4.557 -7.44 8.65 -12.277c4.092 -4.836 7.161 -8.277 9.207 -10.323c2.046 -2.046 5.86 -5.581 11.44 -10.603c5.58 -5.022 8.928 -8.091 10.045 -9.207c11.16 -10.417 23.809 -15.625 37.946 -15.625c7.44 0 13.3 1.023 17.578 3.069c4.278 2.046 7.348 3.441 9.208 4.185c1.86 0.744 4.371 2.604 7.533 5.58c3.162 2.977 5.301 4.837 6.418 5.581c1.116 0.744 3.534 3.069 7.254 6.975c3.72 3.906 5.952 6.232 6.696 6.976c-5.208 -5.209 -7.812 -11.533 -7.812 -18.974c0 -7.44 2.604 -13.764 7.812 -18.973c0 0 194.197 -194.196 194.197 -194.196c5.208 -5.209 11.533 -7.813 18.973 -7.813c7.441 0 13.765 2.604 18.973 7.813c-0.744 -0.744 -3.069 -2.976 -6.975 -6.697c-3.906 -3.72 -6.232 -6.138 -6.976 -7.254c-0.744 -1.116 -2.604 -3.255 -5.58 -6.418c-2.976 -3.162 -4.836 -5.673 -5.58 -7.533c-0.744 -2.232 -1.86 -4.836 -3.349 -7.813c-2.604 -5.58 -3.906 -13.671 -3.906 -24.274c0 -10.603 5.209 -21.484 15.625 -32.645c1.116 -1.116 4.185 -4.464 9.208 -10.045c5.022 -5.58 8.556 -9.393 10.602 -11.44c2.047 -2.046 5.488 -5.115 10.324 -9.207c4.836 -4.092 8.929 -6.883 12.277 -8.371c10.045 -5.208 20.74 -7.812 32.087 -7.812c11.347 0 22.228 5.208 32.645 15.625c0 0 227.679 227.678 227.679 227.678c10.416 10.417 15.625 20.555 15.625 30.413c0 9.859 -0.837 17.206 -2.512 22.043c-1.674 4.836 -3.348 8.928 -5.022 12.277c-1.674 3.348 -4.557 7.44 -8.649 12.276c-4.093 4.837 -7.162 8.278 -9.208 10.324c-2.046 2.046 -5.859 5.58 -11.44 10.603c-5.58 5.022 -8.928 8.091 -10.044 9.207c-11.161 10.417 -23.81 15.625 -37.947 15.625c-7.44 0 -13.3 -1.023 -17.578 -3.069c-4.278 -2.046 -7.347 -3.441 -9.207 -4.185c-1.861 -0.744 -4.372 -2.604 -7.534 -5.581c-3.162 -2.976 -5.301 -4.836 -6.417 -5.58c-1.116 -0.744 -3.535 -3.069 -7.255 -6.975c-3.72 -3.907 -5.952 -6.232 -6.696 -6.976c5.208 5.209 7.812 11.533 7.812 18.973c0 7.441 -2.604 13.765 -7.812 18.974c0 0 -70.313 70.312 -70.313 70.312c0 0 142.857 142.857 142.857 142.857c15.997 -15.997 33.762 -23.995 53.293 -23.995c19.531 0 36.551 6.882 51.06 20.647c0 0 202.567 202.567 202.567 202.567" />
  </g>
</svg>