<svg height="1000px" width="1000px" xmlns="http://www.w3.org/2000/svg">
  <g>
    <path d="M22.321428571428573 453.96205357142856c0 -9.859 0.837 -17.206 2.511 -22.042c1.674 -4.837 3.348 -8.929 5.022 -12.277c1.675 -3.348 4.558 -7.441 8.65 -12.277c4.092 -4.836 7.161 -8.278 9.208 -10.324c2.046 -2.046 5.859 -5.58 11.439 -10.602c5.581 -5.023 8.929 -8.092 10.045 -9.208c11.161 -10.417 23.81 -15.625 37.946 -15.625c7.441 0 13.3 1.023 17.579 3.069c4.278 2.046 7.347 3.442 9.207 4.186c1.86 0.744 4.371 2.604 7.534 5.58c3.162 2.976 5.301 4.836 6.417 5.58c1.116 0.744 3.534 3.069 7.255 6.976c3.72 3.906 5.952 6.231 6.696 6.975c-5.208 -5.208 -7.813 -11.533 -7.813 -18.973c0 -7.441 2.605 -13.765 7.813 -18.973c0 0 194.196 -194.197 194.196 -194.197c5.209 -5.208 11.533 -7.812 18.974 -7.812c7.44 0 13.764 2.604 18.973 7.812c-0.744 -0.744 -3.069 -2.976 -6.976 -6.696c-3.906 -3.72 -6.231 -6.139 -6.975 -7.255c-0.744 -1.116 -2.604 -3.255 -5.58 -6.417c-2.977 -3.162 -4.837 -5.673 -5.581 -7.533c-0.744 -2.233 -1.86 -4.837 -3.348 -7.813c-2.604 -5.58 -3.906 -13.672 -3.906 -24.275c0 -10.602 5.208 -21.484 15.625 -32.645c1.116 -1.116 4.185 -4.464 9.207 -10.044c5.023 -5.581 8.557 -9.394 10.603 -11.44c2.046 -2.046 5.487 -5.115 10.324 -9.208c4.836 -4.092 8.928 -6.882 12.276 -8.37c10.045 -5.208 20.741 -7.813 32.087 -7.813c11.347 0 22.229 5.209 32.646 15.625c0 0 227.678 227.679 227.678 227.679c10.417 10.417 15.625 20.554 15.625 30.413c0 9.859 -0.837 17.206 -2.511 22.042c-1.674 4.837 -3.348 8.929 -5.022 12.277c-1.674 3.348 -4.558 7.441 -8.65 12.277c-4.092 4.836 -7.161 8.277 -9.207 10.324c-2.047 2.046 -5.86 5.58 -11.44 10.602c-5.581 5.023 -8.929 8.092 -10.045 9.208c-11.161 10.416 -23.809 15.625 -37.946 15.625c-7.441 0 -13.3 -1.023 -17.578 -3.069c-4.279 -2.047 -7.348 -3.442 -9.208 -4.186c-1.86 -0.744 -4.371 -2.604 -7.533 -5.58c-3.163 -2.976 -5.302 -4.836 -6.418 -5.58c-1.116 -0.744 -3.534 -3.07 -7.254 -6.976c-3.721 -3.906 -5.953 -6.231 -6.697 -6.975c5.209 5.208 7.813 11.532 7.813 18.973c0 7.44 -2.604 13.765 -7.813 18.973c0 0 -70.312 70.313 -70.312 70.313c0 0 142.857 142.857 142.857 142.857c15.997 -15.997 33.761 -23.996 53.292 -23.996c19.532 0 36.552 6.883 51.061 20.648c0 0 202.567 202.567 202.567 202.567c13.764 14.508 20.647 31.529 20.647 51.06c0 19.531 -6.883 36.179 -20.648 49.944c0 0 -59.709 60.268 -59.709 60.268c-14.509 13.765 -31.529 20.647 -51.061 20.647c-19.531 0 -36.179 -6.882 -49.944 -20.647c0 0 -202.567 -203.125 -202.567 -203.125c-14.137 -13.393 -21.205 -30.041 -21.205 -49.944c0 -19.904 7.998 -37.854 23.995 -53.851c0 0 -142.857 -142.857 -142.857 -142.857c0 0 -70.312 70.313 -70.312 70.313c-5.209 5.208 -11.533 7.812 -18.973 7.812c-7.441 0 -13.765 -2.604 -18.974 -7.812c0.744 0.744 3.07 2.976 6.976 6.696c3.906 3.72 6.231 6.138 6.975 7.254c0.744 1.117 2.604 3.256 5.581 6.418c2.976 3.162 4.836 5.673 5.58 7.533c0.744 2.233 1.86 4.837 3.348 7.813c2.604 5.58 3.906 13.672 3.906 24.274c0 10.603 -5.208 21.485 -15.625 32.646c-1.116 1.116 -4.185 4.464 -9.207 10.044c-5.022 5.581 -8.557 9.394 -10.603 11.44c-2.046 2.046 -5.487 5.115 -10.323 9.207c-4.837 4.093 -8.929 6.883 -12.277 8.371c-10.045 5.208 -20.741 7.813 -32.087 7.813c-11.347 0 -22.229 -5.209 -32.645 -15.625c0 0 -227.679 -227.679 -227.679 -227.679c-10.417 -10.417 -15.625 -20.554 -15.625 -30.413c0 0 0 0 0 0" />
  </g>
</svg>