<svg height="1000px" width="1000px" xmlns="http://www.w3.org/2000/svg">
  <g>
    <path d="M22.321428571428573 446.4285714285714c0 -4.836 0.837 -9.673 2.511 -14.509c1.674 -4.836 3.348 -8.928 5.022 -12.277c1.675 -3.348 4.558 -7.44 8.65 -12.276c4.092 -4.837 7.161 -8.278 9.208 -10.324c2.046 -2.046 5.859 -5.581 11.439 -10.603c5.581 -5.022 8.929 -8.091 10.045 -9.207c11.161 -10.417 23.81 -15.625 37.946 -15.625c3.721 0 7.069 0.279 10.045 0.837c2.976 0.558 6.045 1.581 9.208 3.069c3.162 1.488 5.673 2.604 7.533 3.348c1.86 0.744 4.371 2.604 7.534 5.58c3.162 2.977 5.301 4.837 6.417 5.581c1.116 0.744 3.534 3.069 7.255 6.975c3.72 3.906 5.952 6.232 6.696 6.976c-5.208 -5.209 -7.813 -11.533 -7.813 -18.974c0 -7.44 2.605 -13.764 7.813 -18.973c0 0 194.196 -194.196 194.196 -194.196c5.209 -5.209 11.533 -7.813 18.974 -7.813c7.44 0 13.764 2.604 18.973 7.813c-0.744 -0.744 -3.069 -2.976 -6.976 -6.697c-3.906 -3.72 -6.231 -6.138 -6.975 -7.254c-0.744 -1.116 -2.604 -3.255 -5.58 -6.418c-2.977 -3.162 -4.837 -5.673 -5.581 -7.533c-0.744 -1.86 -1.86 -4.371 -3.348 -7.533c-1.488 -3.163 -2.511 -6.232 -3.069 -9.208c-0.558 -2.976 -0.837 -6.324 -0.837 -10.045c0 -14.137 5.208 -26.785 15.625 -37.946c1.116 -1.116 4.185 -4.464 9.207 -10.045c5.023 -5.58 8.557 -9.393 10.603 -11.44c2.046 -2.046 5.487 -5.115 10.324 -9.207c4.836 -4.092 8.928 -6.976 12.276 -8.65c3.349 -1.674 7.441 -3.348 12.277 -5.022c4.837 -1.674 9.673 -2.511 14.509 -2.511c14.881 0 27.53 5.208 37.947 15.625c0 0 227.678 227.678 227.678 227.678c10.417 10.417 15.625 23.066 15.625 37.947c0 4.836 -0.837 9.672 -2.511 14.509c-1.674 4.836 -3.348 8.928 -5.022 12.277c-1.674 3.348 -4.558 7.44 -8.65 12.276c-4.092 4.837 -7.161 8.278 -9.207 10.324c-2.047 2.046 -5.86 5.58 -11.44 10.603c-5.581 5.022 -8.929 8.091 -10.045 9.207c-11.161 10.417 -23.809 15.625 -37.946 15.625c-3.721 0 -7.069 -0.279 -10.045 -0.837c-2.976 -0.558 -6.045 -1.581 -9.208 -3.069c-3.162 -1.488 -5.673 -2.604 -7.533 -3.348c-1.86 -0.744 -4.371 -2.604 -7.533 -5.581c-3.163 -2.976 -5.302 -4.836 -6.418 -5.58c-1.116 -0.744 -3.534 -3.069 -7.254 -6.975c-3.721 -3.907 -5.953 -6.232 -6.697 -6.976c5.209 5.209 7.813 11.533 7.813 18.973c0 7.441 -2.604 13.765 -7.813 18.974c0 0 -70.312 70.312 -70.312 70.312c0 0 142.857 142.857 142.857 142.857c15.997 -15.997 33.854 -23.995 53.571 -23.995c19.346 0 36.273 6.882 50.782 20.647c0 0 202.567 202.567 202.567 202.567c13.764 14.509 20.647 31.436 20.647 50.781c0 19.718 -6.883 36.459 -20.648 50.224c0 0 -59.709 60.267 -59.709 60.267c-14.509 13.765 -31.436 20.648 -50.782 20.648c-19.717 0 -36.458 -6.883 -50.223 -20.648c0 0 -202.567 -203.125 -202.567 -203.125c-14.137 -13.393 -21.205 -30.134 -21.205 -50.223c0 -19.717 7.998 -37.574 23.995 -53.571c0 0 -142.857 -142.857 -142.857 -142.857c0 0 -70.312 70.312 -70.312 70.312c-5.209 5.208 -11.533 7.813 -18.973 7.813c-7.441 0 -13.765 -2.605 -18.974 -7.813c0.744 0.744 3.07 2.976 6.976 6.696c3.906 3.721 6.231 6.139 6.975 7.255c0.744 1.116 2.604 3.255 5.581 6.417c2.976 3.163 4.836 5.674 5.58 7.534c0.744 1.86 1.86 4.371 3.348 7.533c1.488 3.163 2.511 6.232 3.069 9.208c0.558 2.976 0.837 6.324 0.837 10.045c0 14.136 -5.208 26.785 -15.625 37.946c-1.116 1.116 -4.185 4.464 -9.207 10.045c-5.022 5.58 -8.557 9.393 -10.603 11.439c-2.046 2.047 -5.487 5.116 -10.323 9.208c-4.837 4.092 -8.929 6.975 -12.277 8.65c-3.349 1.674 -7.441 3.348 -12.277 5.022c-4.836 1.674 -9.673 2.511 -14.509 2.511c-14.881 0 -27.53 -5.208 -37.946 -15.625c0 0 -227.679 -227.679 -227.679 -227.679c-10.417 -10.416 -15.625 -23.065 -15.625 -37.946c0 0 0 0 0 0" />
  </g>
</svg>