<svg height="1000" width="1000" xmlns="http://www.w3.org/2000/svg"><path d="M988.218 857.152q0 29.574 -20.646 50.22l-59.706 60.264q-21.762 20.646 -50.778 20.646 -29.574 0 -50.22 -20.646l-202.554 -203.112q-21.204 -20.088 -21.204 -50.22 0 -29.574 23.994 -53.568l-142.848 -142.848 -70.308 70.308q-7.812 7.812 -18.972 7.812t-18.972 -7.812q1.116 1.116 6.975 6.696t6.975 7.254 5.58 6.417 5.58 7.533 3.348 7.533 3.069 9.207 .837 10.044q0 21.204 -15.624 37.944 -1.674 1.674 -9.207 10.044t-10.602 11.439 -10.323 9.207 -12.276 8.649 -12.276 5.022 -14.508 2.511q-22.32 0 -37.944 -15.624l-227.664 -227.664q-15.624 -15.624 -15.624 -37.944 0 -7.254 2.511 -14.508t5.022 -12.276 8.649 -12.276 9.207 -10.323 11.439 -10.602 10.044 -9.207q16.74 -15.624 37.944 -15.624 5.58 0 10.044 .837t9.207 3.069 7.533 3.348 7.533 5.58 6.417 5.58 7.254 6.975 6.696 6.975q-7.812 -7.812 -7.812 -18.972t7.812 -18.972l194.184 -194.184q7.812 -7.812 18.972 -7.812t18.972 7.812q-1.116 -1.116 -6.975 -6.696t-6.975 -7.254 -5.58 -6.417 -5.58 -7.533 -3.348 -7.533 -3.069 -9.207 -.837 -10.044q0 -21.204 15.624 -37.944 1.674 -1.674 9.207 -10.044t10.602 -11.439 10.323 -9.207 12.276 -8.649 12.276 -5.022 14.508 -2.511q22.32 0 37.944 15.624l227.664 227.664q15.624 15.624 15.624 37.944 0 7.254 -2.511 14.508t-5.022 12.276 -8.649 12.276 -9.207 10.323 -11.439 10.602 -10.044 9.207q-16.74 15.624 -37.944 15.624 -5.58 0 -10.044 -.837t-9.207 -3.069 -7.533 -3.348 -7.533 -5.58 -6.417 -5.58 -7.254 -6.975 -6.696 -6.975q7.812 7.812 7.812 18.972t-7.812 18.972l-70.308 70.308 142.848 142.848q23.994 -23.994 53.568 -23.994 29.016 0 50.778 20.646l202.554 202.554q20.646 21.762 20.646 50.778z"/></svg>