<svg height="1000" width="1000" xmlns="http://www.w3.org/2000/svg"><path d="M22.3 446.5q0-7.3 2.5-14.5t5-12.3 8.6-12.3 9.2-10.3 11.4-10.6 10-9.2q16.7-15.6 37.9-15.6 5.6 0 10 .8t9.2 3.1 7.5 3.3 7.5 5.6 6.4 5.6 7.3 7 6.7 7q-7.8-7.8-7.8-19t7.8-19l194.2-194.2q7.8-7.8 19-7.8t19 7.8q-1.1-1.1-7-6.7t-7-7.3-5.6-6.4-5.6-7.5-3.3-7.5-3.1-9.2-.8-10q0-21.2 15.6-37.9 1.7-1.7 9.2-10t10.6-11.4 10.3-9.2 12.3-8.6 12.3-5 14.5-2.5q22.3 0 37.9 15.6l227.7 227.7q15.6 15.6 15.6 37.9 0 7.3-2.5 14.5t-5 12.3-8.6 12.3-9.2 10.3-11.4 10.6-10 9.2q-16.7 15.6-37.9 15.6-5.6 0-10-.8t-9.2-3.1-7.5-3.3-7.5-5.6-6.4-5.6-7.3-7-6.7-7q7.8 7.8 7.8 19t-7.8 19l-70.3 70.3 142.8 142.8q24-24 53.6-24 29 0 50.8 20.6l202.6 202.6q20.6 21.8 20.6 50.8 0 29.6-20.6 50.2l-59.7 60.3q-21.8 20.6-50.8 20.6-29.6 0-50.2-20.6l-202.6-203.1q-21.2-20.1-21.2-50.2 0-29.6 24-53.6l-142.8-142.8-70.3 70.3q-7.8 7.8-19 7.8t-19-7.8q1.1 1.1 7 6.7t7 7.3 5.6 6.4 5.6 7.5 3.3 7.5 3.1 9.2.8 10q0 21.2-15.6 37.9-1.7 1.7-9.2 10t-10.6 11.4-10.3 9.2-12.3 8.6-12.3 5-14.5 2.5q-22.3 0-37.9-15.6l-227.7-227.7q-15.6-15.6-15.6-37.9z"/></svg>