<svg height="1000" width="1000" xmlns="http://www.w3.org/2000/svg"><path d="M988.3 857.1q0 29.6 -20.7 50.3l-59.7 60.2q-21.7 20.7 -50.8 20.7 -29.5 0 -50.2 -20.7L604.4 764.5q-21.3 -20.1 -21.3 -50.2 0 -29.6 24 -53.6L464.3 517.9 394 588.2q-7.8 7.8 -19 7.8t-19 -7.8q1.1 1.1 7 6.7t7 7.2 5.6 6.4 5.5 7.6 3.4 7.5 3.1 9.2 .8 10.1q0 21.2 -15.6 37.9 -1.7 1.7 -9.2 10T353 702.3t-10.4 9.2 -12.2 8.6 -12.3 5.1 -14.5 2.5q-22.4 0 -38 -15.6L37.9 484.4q-15.6 -15.7 -15.6 -38 0 -7.2 2.5 -14.5t5.1 -12.3 8.6 -12.2T47.7 397t11.5 -10.6 10 -9.2q16.7 -15.6 37.9 -15.6 5.6 0 10.1 .8t9.2 3.1 7.5 3.4 7.6 5.5 6.4 5.6 7.2 7 6.7 7Q154 386.2 154 375t7.8 -19L356 161.8q7.8 -7.8 19 -7.8t19 7.8q-1.1 -1.1 -7 -6.7t-7 -7.2 -5.6 -6.4 -5.5 -7.6 -3.4 -7.5 -3.1 -9.2 -.8 -10.1q0 -21.2 15.6 -37.9 1.7 -1.7 9.2 -10T397 47.7t10.4 -9.2 12.2 -8.6 12.3 -5.1 14.5 -2.5q22.3 0 38 15.6l227.7 227.7q15.6 15.7 15.6 38 0 7.2 -2.5 14.5t-5.1 12.3 -8.6 12.2 -9.2 10.4 -11.5 10.6 -10 9.2q-16.7 15.6 -37.9 15.6 -5.6 0 -10.1 -.8t-9.2 -3.1 -7.5 -3.4 -7.6 -5.5 -6.4 -5.6 -7.2 -7 -6.7 -7q7.8 7.8 7.8 19t-7.8 19l-70.3 70.3 142.8 142.8q24 -24 53.6 -24 29 0 50.8 20.7l202.5 202.6q20.7 21.7 20.7 50.7z"/></svg>