<svg height="1000" width="1285.7" xmlns="http://www.w3.org/2000/svg"><path d="M107.1 642.9q22.4 0 31.3 -17.9t0 -35.7 -31.3 -17.9 -31.2 17.9 0 35.7 31.2 17.9zm822 -32.4q-5.6 -7.3 -21.5 -27.9t-23.1 -30.1 -21.2 -27.4 -23.7 -29.6T817 469.3 791.9 442l-69.8 78.1q-46.3 52.4 -116.4 51.3T491.1 516.7q-31.8 -38.5 -31.6 -88.1T492.2 341L591 226q-12.3 -6.1 -28.5 -9.2T536 213.4t-31.5 .3 -27.4 .6q-51.3 0 -88.1 36.8l-88.2 88.2h-86.5v303.6q2.8 0 11.7 -.3t12.3 0 10.9 1.1 11.4 2.5 9.8 4.7 10.3 7.6l165.7 162.9q64.2 62 126.7 62 43.5 0 69.8 -26.3 31.8 11.2 62.7 -4.4t40.5 -47.5q41.3 3.4 70.9 -24.5 11.1 -10.1 20.1 -25.4t7.8 -28.2q5.5 5.6 24 5.6 24 0 42.9 -11.7t27.7 -29.6 6.6 -39.9 -17 -41zm88.8 32.4h53.5V357.1h-51.9L931.9 256.7q-36.8 -42.4 -94.3 -42.4h-93.2q-49.6 0 -81.5 37.4L546.3 387.3q-15.6 18.4 -15.6 41.8t15.1 41.9q24 28.4 61.3 29t62 -27.3L776.8 351q13.9 -12.8 29.8 -12t26.3 15.1 4.7 31.5q8.9 10.6 31.3 35.2t33.4 37.9q16.2 20.1 46.1 58.9t36 47.1q29 36.9 33.5 78.2zm160.7 0q22.3 0 31.2 -17.9t0 -35.7 -31.2 -17.9 -31.3 17.9 0 35.7 31.3 17.9zm107.1 -321.5v357.2q0 14.5 -10.6 25.1t-25.1 10.6h-242.2q-15.1 36.3 -45.7 59.4t-69.8 28.8q-18.4 26.7 -44.9 45.4t-57.2 25.4q-23.5 29.6 -58.3 45.5t-71.7 13.7q-33.5 19 -70.4 22t-71.1 -7.8 -65.3 -29.8 -57.8 -45.2L235.5 714.3H35.7q-14.5 0 -25.1 -10.6T0 678.6v-375q0 -14.5 10.6 -25.1t25.1 -10.6h234.9q7.9 -7.9 26.3 -26.8t26.5 -26.8T347.9 192t28.2 -21 28.5 -14.2 34.6 -10.9 37.9 -3h65.3q55.3 0 101 31.2 45.8 -31.2 101 -31.2h93.2q19.5 0 37.4 3.3t31.5 8.1 28.8 14.8 24.8 17.3 24 22 21.8 23.5 22.8 26.7 23.2 27.1H1250q14.5 0 25.1 10.6t10.6 25.1z"/></svg>