<svg height="1000" width="1142.9" xmlns="http://www.w3.org/2000/svg"><path d="M256.1 1000q-42.9 0 -76.7 -26.5T135 905.1L78.7 681.4q-7.3 -31.8 -7.3 -60.3 0 -25.1 -2.8 -37.4L3.9 317.5Q0 302.5 0 285.7q0 -51.9 34.6 -89.8t86.5 -43.6q9.5 -47.4 46 -77.5t85.1 -30.2q46.3 0 82.6 28.8t47.5 73.9l46.3 194.2L486 102.7q11.2 -45.2 47.5 -74T616.1 0q49.6 0 86.7 32.1t45 80.6q51.3 5.6 84.8 44.1t33.5 90.4q0 13.4 -3.9 32.9l-68.7 285.7q5.6 -3.9 21 -15.9t21.4 -16.4 19.6 -12.9 22.8 -11.4 23.2 -6.1 27.6 -3.1q58.6 0 100.5 41.3t41.8 99.9q0 34.6 -15.9 65.8t-43.8 52.5l-282.9 212q-38 28.5 -85.4 28.5H256.1zm360 -928.6q-21.2 0 -38.3 13.4t-22 34.6L464.3 500h-70.9L312.5 164.1q-5 -21.2 -22 -34.6t-38.3 -13.4q-26.8 0 -44.6 18.4t-17.9 44.6q0 8.4 1.7 15.7L265.1 500h-14.5L195.3 272.3q-5 -20.6 -22.3 -34.9t-38.5 -14.2q-26.2 0 -44.7 18.4t-18.4 44.1q0 7.8 1.7 14.5L137.8 567q3.9 15.6 5.1 48t5.5 49.1l55.8 223.7q4.5 17.9 19 29.3t32.9 11.5h387.3q23.5 0 42.4 -14.5l283 -211.5q31.2 -24 31.2 -61.4 0 -29 -20.9 -49.4t-50 -20.4q-24 0 -42.9 14.5L714.8 714.3V587.6q0 -2.2 17.9 -77t37.9 -157.4 21.8 -89.8q2.2 -10.1 2.2 -16.2 0 -26.2 -17.8 -45.2t-44.1 -19q-21.8 0 -38.8 13.4t-22 34.6l-64.8 269h-14.5l83.7 -348.2Q678 144 678 136.2q0 -26.8 -17.6 -45.8t-44.3 -19z"/></svg>