<svg height="1000" width="1000" xmlns="http://www.w3.org/2000/svg"><path d="M357.1 71.4q-29.5 0 -50.5 21t-20.9 50.5v500L201.5 530.1Q178.6 500 141.7 500q-29 0 -49.6 21.2t-20.7 50.2q0 24 14.5 43l214.3 285.7q21.2 28.5 56.9 28.5h400.7q12.3 0 22.1 -7.6t12.5 -19.2l51.3 -205.4q13.4 -53.5 13.4 -108.2V467.1q0 -22.9 -15.6 -39.6t-37.9 -16.8 -38 15.6 -15.6 38h-17.9v-34.1q0 -26.7 -17.8 -45.4t-44.7 -18.7q-25.6 0 -44 18.4t-18.5 44.1v35.7h-17.8v-50.2q0 -30.7 -20.7 -52.8t-50.7 -22q-29.6 0 -50.5 20.9t-21 50.5v53.6h-17.8V146.2q0 -30.7 -20.7 -52.7T357.1 71.4zm0 -71.4q59.8 0 101.3 43.2t41.6 103V269q12.3 -1.1 17.9 -1.1 55.2 0 96.5 38.5 26.2 -11.8 55.2 -11.8 63.1 0 102.7 48.6 15.1 -3.9 31.3 -3.9 52.4 0 88.7 37.7t36.3 90.1v121.1q0 64.7 -15.7 125.5l-51.3 205.4q-8.9 35.7 -37.9 58.3t-65.9 22.6H357.1q-33.4 0 -63.9 -15.3t-50.5 -41.6L28.5 657.4Q0 619.4 0 571.4 0 512.8 41.6 470.7t100.1 -42.1q39.7 0 72.6 19.5V142.9q0 -59.2 41.8 -101T357.1 0zm71.5 785.7V571.4h-17.9v214.3h17.9zm142.8 0V571.4h-17.8v214.3h17.8zm142.9 0V571.4h-17.9v214.3h17.9z"/></svg>