<svg height="1000" width="1142.9" xmlns="http://www.w3.org/2000/svg"><path d="M455.4 71.4q-26.8 0 -44.4 19t-17.6 45.8q0 7.8 1.7 15.6L478.8 500h-14.5L399.6 231q-5.1 -21.2 -22.1 -34.6T338.7 183q-26.2 0 -44.1 19t-17.8 45.2q0 6.1 2.2 16.2 1.7 7.2 21.8 89.8t37.9 157.4 17.9 77v126.7L185.3 585.9q-19 -14.5 -43 -14.5 -29 0 -49.9 20.4t-21 49.4q0 37.4 31.3 61.4l282.9 211.5q19 14.5 42.4 14.5h387.3q18.4 0 32.9 -11.5t19 -29.3L923 664.1q4.5 -16.8 5.6 -49.1t5 -48l64.7 -266.8q1.7 -6.7 1.7 -14.5 0 -25.7 -18.4 -44.1t-44.7 -18.4q-21.2 0 -38.5 14.2t-22.3 34.9L820.9 500h-14.5L880 194.8q1.7 -7.9 1.7 -15.7 0 -26.2 -17.9 -44.6t-44.6 -18.4q-21.2 0 -38.2 13.4t-22.1 34.6L678 500h-70.9L515.6 119.4q-5 -21.2 -22 -34.6T455.4 71.4zM815.3 1000H428q-47.4 0 -85.4 -28.5L59.7 759.5Q31.8 738.3 15.9 707T0 641.2q0 -58.6 41.9 -99.9T142.3 500q13.9 0 27.6 3.1t23.2 6.1 22.9 11.4 19.5 12.9 21.5 16.4 20.9 15.9L209.3 280.1q-3.9 -19.5 -3.9 -32.9 0 -51.9 33.4 -90.4t84.9 -44.1q7.8 -48.5 44.9 -80.6T455.4 0q46.3 0 82.5 28.7t47.5 74l57.5 238.8 46.3 -194.2q11.1 -45.2 47.4 -73.9t82.6 -28.8q48.5 0 85.1 30.2t46 77.5q51.9 5.6 86.5 43.6t34.6 89.8q0 16.8 -3.9 31.8l-64.7 266.2q-2.8 12.3 -2.8 37.4 0 28.5 -7.3 60.3l-56.3 223.7Q925.8 947 892 973.5t-76.7 26.5z"/></svg>