<svg height="1000" width="857.1" xmlns="http://www.w3.org/2000/svg"><path d="M718.8 361q33.4 0 59.7 12.9Q857.1 409 857.1 500v98.8q0 52.4 -12.8 103.8l-47.4 189.1q-11.7 48 -50.5 78.2t-87.9 30.1H285.7q-59.1 0 -101 -41.9t-41.8 -101V633.4L9.5 282.9Q0 257.8 0 232.1 0 173 41.9 131.1t101 -41.8q44.6 0 81.2 25.4t52.1 66.7l9.5 24.5v-63q0 -59.2 41.9 -101T428.6 0t101 41.9 41.8 101v145.6q15.1 -2.8 26.8 -2.8 38.5 0 71.2 20.4t49.4 54.9zm-120.6 -3.9q-18.4 0 -33.7 10.1T541.3 394L500 484.9l-39.6 86.5h30.7q27.9 0 50.2 17.6t27.9 44.9l85.9 -188.6q5.6 -11.1 5.6 -25.7 0 -25.6 -18.4 -44t-44.1 -18.5zm123.3 75.4q-12.2 0 -22.6 4.4t-16.1 9 -13.2 16.4 -9.4 17.1 -9.5 20.6L577 661.8q-5.6 11.2 -5.6 25.7 0 25.7 18.4 44.1t44.1 18.4q18.4 0 33.8 -10t23.1 -26.8l89.3 -196.5q5.1 -10 5.1 -21.2 0 -27.9 -17.9 -45.4t-45.8 -17.6zM71.4 232.1q0 12.3 4.5 25.7l138.4 362.7V659l56.9 -61.9q24 -25.7 59.2 -25.7h110.4l59.2 -130V142.9q0 -29.6 -20.9 -50.5t-50.5 -21 -50.5 21 -21 50.5V500h-35.7L209.8 206.5Q202 185.8 183.6 173.3t-40.7 -12.6q-29.6 0 -50.5 20.9t-21 50.5zm587.1 696.5q24.5 0 43.8 -15.1t25.4 -39.1l47.4 -189.1q10.6 -40.8 10.6 -86.5V548L707 721q-9.5 21.2 -29.5 34t-43.6 12.9q-29.5 0 -52.1 -19.3t-27.1 -48.3q-24.6 31.8 -63.6 31.8H375v-17.8h116.1q25.6 0 45.2 -18.4t19.5 -44.1 -17.3 -44.1 -43 -18.4H330.4q-27.4 0 -45.8 20.1l-70.3 75.9v171.8q0 29.6 20.9 50.5t50.5 21h372.8z"/></svg>