<svg height="1000" width="1000" xmlns="http://www.w3.org/2000/svg"><path d="M491.1 71.4q-25.7 0 -44.1 18.4t-18.4 44.1V500h-17.9V205.4q0 -25.7 -18.4 -44.1t-44.1 -18.4 -44.1 18.4 -18.4 44.1v437.5L199.8 528.5Q178.6 500 142.9 500q-29.6 0 -50.5 20.9t-21 50.5q0 24 14.5 43l214.3 285.7q21.2 28.5 56.9 28.5h384q18.9 0 34 -12.3t19 -31.3l42.4 -226q2.8 -17.8 2.8 -32.9V348.2q0 -25.7 -18.4 -44.1t-44.1 -18.4 -44.1 18.4 -18.4 44.1V500h-17.9V205.4q0 -25.7 -18.4 -44.1t-44.1 -18.4 -44.1 18.4 -18.4 44.1V500h-17.8V133.9q0 -25.6 -18.4 -44.1T491.1 71.4zm0 -71.4q37.9 0 70 19.8t49.4 53.9q10.6 -2.3 23.4 -2.3 55.3 0 94.6 39.4t39.4 94.6v9.4q58.6 -3.3 100.7 35.8t42.1 97.6v277.9q0 22.3 -4.4 46.3l-42.5 225.5Q856 942 821.1 971t-80 29h-384q-33.4 0 -63.9 -15.3t-50.5 -41.6L28.5 657.4Q0 619.4 0 571.4q0 -59.1 41.9 -101t101 -41.8q43.5 0 71.4 18.9V205.4q0 -55.3 39.3 -94.6t94.6 -39.4q12.8 0 23.5 2.3Q389 39.6 421 19.8T491.1 0z"/></svg>