<svg height="1000" width="1000" xmlns="http://www.w3.org/2000/svg"><path d="M598.8 928.6H500q-91 0 -126.1 -78.7Q361 822.5 361 793v-2.8q-34.5 -16.8 -54.9 -49.4t-20.4 -71.2q0 -21.2 2.8 -26.7H142.9q-59.2 0 -101 -41.9T0 500 41.9 399t101 -41.9h63l-24.5 -9.4Q140.1 332 114.7 295.5T89.3 214.3q0 -59.2 41.8 -101t101 -41.9q25.7 0 50.8 9.5l350.5 133.4h223.7q59.2 0 101 41.8t41.9 101v372.8q0 49.1 -30.1 87.9t-78.2 50.5l-189.1 47.4q-51.4 12.9 -103.8 12.9zM571.4 531.8l-86.5 39.6L394 612.7q-16.8 7.8 -26.8 23.2t-10.1 33.7q0 25.7 18.5 44.1t44 18.4q14.6 0 25.7 -5.5l188.6 -86Q606.6 635 589 612.7t-17.6 -50.2v-30.7zM750 705.4q0 -25.7 -18.4 -44.1t-44.1 -18.4q-14.5 0 -25.7 5.5L500 722.1q-15.6 7.3 -20.6 9.5t-17.1 9.5 -16.4 13.1 -9 16.2 -4.4 22.6q0 27.9 17.6 45.7t45.4 17.9q11.2 0 21.2 -5l196.5 -89.3q16.7 -7.8 26.8 -23.2t10 -33.7zM620.5 285.7L257.8 147.3q-13.4 -4.4 -25.7 -4.4 -29.5 0 -50.5 20.9t-20.9 50.5q0 22.3 12.6 40.7t33.2 26.3L500 392.9v35.7H142.9q-29.6 0 -50.5 20.9t-21 50.5 21 50.5 50.5 20.9h298.5l130 -59.1V401.8q0 -35.2 25.7 -59.2L659 285.7h-38.5zm-21.7 571.4q45.7 0 86.5 -10.6l189.1 -47.4q24 -6.1 39.1 -25.4t15.1 -43.8V357.1q0 -29.5 -21 -50.5t-50.5 -20.9H685.3L609.4 356q-20.1 18.4 -20.1 45.8V567q0 25.6 18.4 42.9t44.1 17.3 44.1 -19.5 18.4 -45.2V446.4h17.8v116.1q0 39.1 -31.8 63.6 29.1 4.5 48.3 27.1t19.3 52.2q0 23.4 -12.9 43.5t-34 29.6l-173 78.6h50.8z"/></svg>