<svg height="1000" width="857.1" xmlns="http://www.w3.org/2000/svg"><path d="M428.6 214.3q-29.6 0 -50.5 20.9t-21 50.5v71.4h-17.8v-51.9q0 -26.7 -17.9 -45.4t-44.6 -18.7q-25.7 0 -44.1 18.4t-18.4 44.1V543l-17.9 -16.8v-96q0 -26.7 -17.8 -45.4t-44.7 -18.7q-25.6 0 -44.1 18.4t-18.4 44.1v125q0 26.2 19.6 45.7l173 165.2q21.7 21.8 21.7 56.9 0 14.5 10.6 25.1t25.1 10.6h357.2q14.5 0 25.1 -10.6t10.6 -25.1v-13.9q0 -22.9 5.6 -43l60.2 -243.3q5.6 -20.1 5.6 -43V341q0 -26.8 -17.8 -45.5t-44.7 -18.7q-25.7 0 -44.1 18.4t-18.4 44.1v17.8h-17.8v-69.7q0 -22.3 -14 -40.5t-35.7 -22.6q-7.8 -1.1 -12.8 -1.1 -25.7 0 -44.1 18.4t-18.4 44.1v71.4H500v-68q0 -28.5 -18.1 -50t-46.1 -24.3q-2.8 -.5 -7.2 -.5zm0 -71.4q46.8 0 83.1 27.9 31.8 -19 68.7 -19 32.9 0 61.9 15.1t48 42.4q15.1 -3.9 32.9 -3.9 55.8 0 94.9 39.9t39 95.7v137.2q0 28.5 -7.2 60.3l-60.8 243.3q-3.4 13.4 -3.4 39.6 0 44.7 -31.2 75.9t-75.9 31.3H321.4q-46.8 0 -77 -32.7t-30.1 -79.5L42.4 651.2Q0 610.5 0 553.6v-125Q0 373.3 39.3 334t94.6 -39.4q6.2 0 9 .6 3.3 -53 42.1 -89.3t91.8 -36.3q29 0 54.7 11.8 40.2 -38.5 97.1 -38.5z"/></svg>