<svg height="1000" width="1142.9" xmlns="http://www.w3.org/2000/svg"><path d="M642.3 0q34 0 64.7 15.6t50.8 43L1077 494.4q65.9 88.7 65.9 200.4v198.1q0 44.6 -31.3 75.9t-75.9 31.2H821.4q-44.6 0 -75.9 -31.2t-31.2 -75.9v-98.8L554.7 714.3H250q-44.6 0 -75.9 -31.3t-31.2 -75.9v-17.8q0 -66.4 47.1 -113.6t113.6 -47.1h234.3l23.5 -71.5H178.6q-55.8 0 -96.8 -37.6T36.3 226.6Q0 182.5 0 125v-17.9Q0 62.5 31.2 31.2T107.1 0h535.2zm429.1 892.9V694.8q0 -87.7 -51.9 -158.5L699.8 100.4q-21.8 -29 -57.5 -29H107.1Q92.6 71.4 82 82t-10.6 25.1q0 17.9 .9 27.7t5.3 22.6 13.9 24q5.6 -17.3 19.8 -27.9t31.6 -10.6h464.2v17.8H142.9q-14.6 0 -25.2 10.6t-10.6 25.1q0 24.6 1.7 32.4 4.5 24.5 24.6 40.7t45.2 16.2H586.5q22.3 0 37.9 15.6t15.7 38q0 8.4 -2.8 16.7l-35.7 107.2Q596 479.4 582 489.7T550.8 500H303.6q-36.9 0 -63.1 26.2t-26.2 63.1v17.8q0 14.6 10.6 25.2t25.1 10.6h313.1q8.9 0 16.1 3.9l176.9 88.1q13.4 7.3 21.5 20.1t8.1 27.9v110q0 14.5 10.6 25.1t25.1 10.6h214.3q14.5 0 25.1 -10.6t10.6 -25.1z"/></svg>