<svg height="1000" width="1000" xmlns="http://www.w3.org/2000/svg"><path d="M553 571.4l35.7 -142.8H447l-35.7 142.8H553zM981.6 290.2l-31.3 125q-3.9 13.4 -17.3 13.4H750.6l-35.8 142.8h173.6q8.4 0 13.9 6.7 5.6 7.8 3.4 15.7l-31.3 125q-2.7 13.3 -17.3 13.3H674.7l-45.2 183.1q-3.9 13.4 -17.3 13.4h-125q-9 0 -14.5 -6.7 -5.1 -6.7 -3.4 -15.7l43.5 -174.1H371.1l-45.2 183.1q-3.9 13.4 -17.3 13.4H183q-8.3 0 -13.9 -6.7 -5 -6.7 -3.4 -15.7l43.6 -174.1H35.7q-8.4 0 -13.9 -6.7 -5.1 -6.7 -3.4 -15.6l31.3 -125Q53.6 571.4 67 571.4h182.4l35.8 -142.8H111.6q-8.4 0 -13.9 -6.7 -5.6 -7.8 -3.4 -15.7l31.3 -125q2.7 -13.3 17.3 -13.3h182.4L370.5 84.8q3.9 -13.4 17.9 -13.4h125q8.4 0 13.9 6.7 5.1 6.7 3.4 15.6l-43.5 174.2h141.7L674.1 84.8Q678 71.4 692 71.4h125q8.3 0 13.9 6.7 5 6.7 3.4 15.6l-43.6 174.2h173.6q8.4 0 13.9 6.7 5.1 6.6 3.4 15.6z"/></svg>