<svg height="1000" width="858" xmlns="http://www.w3.org/2000/svg"><path d="M0 767.872l0-178.56q0-13.95 8.928-41.85l109.926-338.148q9.486-29.574 35.154-47.988t56.358-18.414l436.356 0q30.69 0 56.358 18.414t35.154 47.988l109.926 338.148q8.928 27.9 8.928 41.85l0 178.56q0 36.828-26.226 63.054t-63.054 26.226l-678.528 0q-36.828 0-63.054-26.226t-26.226-63.054zm71.424 0q0 7.254 5.301 12.555t12.555 5.301l678.528 0q7.254 0 12.555-5.301t5.301-12.555l0-178.56q0-7.254-5.301-12.555t-12.555-5.301l-678.528 0q-7.254 0-12.555 5.301t-5.301 12.555l0 178.56zm27.9-267.84l658.44 0l-87.606-268.956q-2.232-7.254-8.928-11.997t-14.508-4.743l-436.356 0q-7.812 0-14.508 4.743t-8.928 11.997zm391.716 178.56q0-18.414 13.113-31.527t31.527-13.113 31.527 13.113 13.113 31.527-13.113 31.527-31.527 13.113-31.527-13.113-13.113-31.527zm142.848 0q0-18.414 13.113-31.527t31.527-13.113 31.527 13.113 13.113 31.527-13.113 31.527-31.527 13.113-31.527-13.113-13.113-31.527z"/></svg>