<svg height="1000px" width="857.1428571428571px" xmlns="http://www.w3.org/2000/svg">
  <g>
    <path d="M857.1428571428571 589.2857142857142c0 0 0 178.571 0 178.571c0 24.554 -8.743 45.573 -26.228 63.058c-17.485 17.486 -38.504 26.228 -63.058 26.228c0 0 -678.571 0 -678.571 0c-24.554 0 -45.573 -8.742 -63.058 -26.228c-17.485 -17.485 -26.228 -38.504 -26.228 -63.058c0 0 0 -178.571 0 -178.571c0 -9.301 2.976 -23.251 8.929 -41.853c0 0 109.933 -338.169 109.933 -338.169c6.324 -19.718 18.043 -35.715 35.156 -47.991c17.113 -12.277 35.9 -18.416 56.362 -18.416c0 0 436.384 0 436.384 0c20.461 0 39.248 6.139 56.361 18.416c17.113 12.276 28.832 28.273 35.156 47.991c0 0 109.933 338.169 109.933 338.169c5.953 18.602 8.929 32.552 8.929 41.853c0 0 0 0 0 0m-757.813 -89.286c0.001 0 658.483 0 658.483 0c0 0 -87.612 -268.973 -87.612 -268.973c-3.348 -11.161 -11.161 -16.741 -23.437 -16.741c0 0 -436.384 0 -436.384 0c-12.277 0 -20.09 5.58 -23.438 16.741c0 0 -87.611 268.973 -87.611 268.973m686.383 267.857c0 0 0 -178.571 0 -178.571c0 -4.836 -1.767 -9.022 -5.301 -12.556c-3.534 -3.534 -7.719 -5.301 -12.556 -5.301c0 0 -678.571 0 -678.571 0c-4.836 0 -9.022 1.767 -12.556 5.301c-3.534 3.534 -5.301 7.72 -5.301 12.556c0 0 0 178.571 0 178.571c0 4.837 1.767 9.022 5.301 12.556c3.534 3.534 7.72 5.302 12.556 5.302c0 0 678.571 0 678.571 0c4.837 0 9.022 -1.768 12.556 -5.302c3.534 -3.534 5.301 -7.719 5.301 -12.556c0 0 0 0 0 0m-62.5 -89.285c0 12.276 -4.371 22.786 -13.113 31.529c-8.743 8.742 -19.253 13.114 -31.529 13.114c-12.277 0 -22.787 -4.372 -31.529 -13.114c-8.743 -8.743 -13.114 -19.253 -13.114 -31.529c0 -12.277 4.371 -22.787 13.114 -31.529c8.742 -8.743 19.252 -13.114 31.529 -13.114c12.276 0 22.786 4.371 31.529 13.114c8.742 8.742 13.113 19.252 13.113 31.529c0 0 0 0 0 0m-142.857 0c0 12.276 -4.371 22.786 -13.114 31.529c-8.742 8.742 -19.252 13.114 -31.529 13.114c-12.276 0 -22.786 -4.372 -31.529 -13.114c-8.742 -8.743 -13.113 -19.253 -13.113 -31.529c0 -12.277 4.371 -22.787 13.113 -31.529c8.743 -8.743 19.253 -13.114 31.529 -13.114c12.277 0 22.787 4.371 31.529 13.114c8.743 8.742 13.114 19.252 13.114 31.529c0 0 0 0 0 0" />
  </g>
</svg>