<svg height="1000px" width="899.90234375px" xmlns="http://www.w3.org/2000/svg">
  <g>
    <path d="M0 780.76171875c0 0 0 -186.523 0 -186.523c0 -7.487 0.977 -14.893 2.93 -22.217c1.953 -7.324 3.906 -14.73 5.859 -22.217c0 0 116.211 -354.981 116.211 -354.981c6.51 -20.507 18.799 -37.272 36.865 -50.292c18.067 -13.021 37.842 -19.532 59.326 -19.532c0 0 458.008 0 458.008 0c21.485 0 41.179 6.511 59.082 19.532c17.904 13.02 30.111 29.785 36.621 50.292c0 0 116.211 354.981 116.211 354.981c1.953 7.487 3.907 14.893 5.86 22.217c1.953 7.324 2.929 14.73 2.929 22.217c0 0 0 186.523 0 186.523c0 13.346 -2.522 25.716 -7.568 37.109c-5.046 11.394 -11.719 21.241 -20.02 29.541c-8.3 8.301 -18.229 14.974 -29.785 20.02c-11.556 5.045 -23.681 7.568 -36.377 7.568c0 0 -711.914 0 -711.914 0c-26.041 0 -48.258 -9.196 -66.65 -27.588c-18.392 -18.392 -27.588 -40.608 -27.588 -66.65c0 0 0 0 0 0m75.195 0c0 5.208 1.791 9.684 5.371 13.428c3.581 3.743 8.138 5.615 13.672 5.615c0 0 711.914 0 711.914 0c5.209 0 9.685 -1.79 13.428 -5.371c3.744 -3.581 5.615 -8.138 5.615 -13.672c0 0 0 -186.523 0 -186.523c0 -5.209 -1.871 -9.685 -5.615 -13.428c-3.743 -3.744 -8.219 -5.615 -13.428 -5.615c0 0 -711.914 0 -711.914 0c-5.208 0 -9.684 1.79 -13.427 5.371c-3.744 3.58 -5.616 8.138 -5.616 13.672c0 0 0 186.523 0 186.523c0 0 0 0 0 0m28.809 -280.762c0 0 691.894 0 691.894 0c0 0 -91.796 -282.226 -91.796 -282.226c-1.303 -5.209 -4.476 -9.44 -9.522 -12.696c-5.045 -3.255 -10.172 -4.882 -15.381 -4.882c0 0 -458.008 0 -458.008 0c-5.208 0 -10.335 1.627 -15.38 4.882c-5.046 3.256 -8.383 7.487 -10.01 12.696c0 0 -91.797 282.226 -91.797 282.226m412.109 187.012c0 -12.695 4.476 -23.519 13.428 -32.471c8.952 -8.952 20.101 -13.427 33.447 -13.427c12.696 0 23.519 4.475 32.471 13.427c8.952 8.952 13.428 19.776 13.428 32.471c0 13.346 -4.476 24.495 -13.428 33.447c-8.952 8.952 -19.775 13.428 -32.471 13.428c-13.346 0 -24.495 -4.476 -33.447 -13.428c-8.952 -8.952 -13.428 -20.101 -13.428 -33.447c0 0 0 0 0 0m149.903 0c0 -12.695 4.476 -23.519 13.427 -32.471c8.952 -8.952 20.101 -13.427 33.448 -13.427c12.695 0 23.519 4.475 32.47 13.427c8.952 8.952 13.428 19.776 13.428 32.471c0 13.346 -4.476 24.495 -13.428 33.447c-8.951 8.952 -19.775 13.428 -32.47 13.428c-13.347 0 -24.496 -4.476 -33.448 -13.428c-8.951 -8.952 -13.427 -20.101 -13.427 -33.447c0 0 0 0 0 0" />
  </g>
</svg>