<svg height="1000px" width="857.1428571428571px" xmlns="http://www.w3.org/2000/svg">
  <g>
    <path d="M0 767.8571428571428c0 0 0 -178.571 0 -178.571c0 -9.301 2.976 -23.252 8.929 -41.853c0 0 109.933 -338.17 109.933 -338.17c6.324 -19.717 18.043 -35.714 35.156 -47.991c17.113 -12.277 35.9 -18.415 56.361 -18.415c0 0 436.384 0 436.384 0c20.462 0 39.249 6.138 56.362 18.415c17.113 12.277 28.832 28.274 35.156 47.991c0 0 109.933 338.17 109.933 338.17c5.953 18.601 8.929 32.552 8.929 41.853c0 0 0 178.571 0 178.571c0 24.554 -8.743 45.573 -26.228 63.058c-17.485 17.485 -38.504 26.228 -63.058 26.228c0 0 -678.571 0 -678.571 0c-24.554 0 -45.573 -8.743 -63.058 -26.228c-17.485 -17.485 -26.228 -38.504 -26.228 -63.058c0 0 0 0 0 0m71.429 0c0 4.836 1.767 9.022 5.301 12.556c3.534 3.534 7.719 5.301 12.556 5.301c0 0 678.571 0 678.571 0c4.836 0 9.022 -1.767 12.556 -5.301c3.534 -3.534 5.301 -7.72 5.301 -12.556c0 0 0 -178.571 0 -178.571c0 -4.837 -1.767 -9.022 -5.301 -12.556c-3.534 -3.534 -7.72 -5.302 -12.556 -5.302c0 0 -678.571 0 -678.571 0c-4.837 0 -9.022 1.768 -12.556 5.302c-3.534 3.534 -5.301 7.719 -5.301 12.556c0 0 0 178.571 0 178.571c0 0 0 0 0 0m27.901 -267.857c0 0 658.483 0 658.483 0c0 0 -87.612 -268.973 -87.612 -268.973c-1.488 -4.837 -4.464 -8.836 -8.929 -11.998c-4.464 -3.162 -9.3 -4.743 -14.509 -4.743c0 0 -436.384 0 -436.384 0c-5.208 0 -10.044 1.581 -14.508 4.743c-4.465 3.162 -7.441 7.161 -8.929 11.998c0 0 -87.612 268.973 -87.612 268.973m391.741 178.571c0 -12.276 4.372 -22.786 13.114 -31.529c8.743 -8.742 19.253 -13.114 31.529 -13.114c12.277 0 22.787 4.372 31.529 13.114c8.743 8.743 13.114 19.253 13.114 31.529c0 12.277 -4.371 22.787 -13.114 31.529c-8.742 8.743 -19.252 13.114 -31.529 13.114c-12.276 0 -22.786 -4.371 -31.529 -13.114c-8.742 -8.742 -13.114 -19.252 -13.114 -31.529c0 0 0 0 0 0m142.858 0c0 -12.276 4.371 -22.786 13.113 -31.529c8.743 -8.742 19.253 -13.114 31.529 -13.114c12.277 0 22.787 4.372 31.529 13.114c8.743 8.743 13.114 19.253 13.114 31.529c0 12.277 -4.371 22.787 -13.114 31.529c-8.742 8.743 -19.252 13.114 -31.529 13.114c-12.276 0 -22.786 -4.371 -31.529 -13.114c-8.742 -8.742 -13.113 -19.252 -13.113 -31.529c0 0 0 0 0 0" />
  </g>
</svg>