<svg height="1000" width="857.1" xmlns="http://www.w3.org/2000/svg"><path d="M580.4 678.6q0 18.4 -13.2 31.5t-31.5 13.1 -31.5 -13.1 -13.1 -31.5T504.2 647t31.5 -13.1 31.5 13.1 13.2 31.6zm142.8 0q0 18.4 -13.1 31.5t-31.5 13.1T647 710.1t-13.1 -31.5T647 647t31.6 -13.1 31.5 13.1 13.1 31.6zm62.5 89.3V589.3q0 -7.3 -5.3 -12.6t-12.5 -5.3H89.3q-7.3 0 -12.6 5.3t-5.3 12.6v178.6q0 7.2 5.3 12.5t12.6 5.3h678.6q7.2 0 12.5 -5.3t5.3 -12.5zM99.3 500h658.5L670.2 231q-2.2 -7.2 -8.9 -12t-14.5 -4.7H210.4q-7.8 0 -14.5 4.7t-9 12zm757.8 89.3v178.6q0 36.8 -26.2 63t-63 26.2H89.3q-36.8 0 -63.1 -26.2T0 767.9V589.3q0 -14 8.9 -41.9l110 -338.1q9.4 -29.6 35.1 -48t56.4 -18.4h436.4q30.7 0 56.3 18.4t35.2 48l109.9 338.1q8.9 27.9 8.9 41.9z"/></svg>