<svg height="1000" width="857.1" xmlns="http://www.w3.org/2000/svg"><path d="M0 767.9v-178.6q0-14 8.9-41.9l109.9-338.1q9.5-29.6 35.2-48t56.4-18.4h436.4q30.7 0 56.4 18.4t35.2 48l109.9 338.1q8.9 27.9 8.9 41.9v178.6q0 36.8-26.2 63.1t-63.1 26.2h-678.5q-36.8 0-63.1-26.2t-26.2-63.1zm71.4 0q0 7.3 5.3 12.6t12.6 5.3h678.5q7.3 0 12.6-5.3t5.3-12.6v-178.6q0-7.3-5.3-12.6t-12.6-5.3h-678.5q-7.3 0-12.6 5.3t-5.3 12.6v178.6zm27.9-267.8h658.4l-87.6-269q-2.2-7.3-8.9-12t-14.5-4.7h-436.4q-7.8 0-14.5 4.7t-8.9 12zm391.7 178.6q0-18.4 13.1-31.5t31.5-13.1 31.5 13.1 13.1 31.5-13.1 31.5-31.5 13.1-31.5-13.1-13.1-31.5zm142.8 0q0-18.4 13.1-31.5t31.5-13.1 31.5 13.1 13.1 31.5-13.1 31.5-31.5 13.1-31.5-13.1-13.1-31.5z"/></svg>