<svg height="1000px" width="935.546875px" xmlns="http://www.w3.org/2000/svg">
  <g>
    <path d="M0 519.04296875c0 -55.99 13.835 -108.805 41.504 -158.447c27.669 -49.642 63.639 -93.018 107.91 -130.127c44.271 -37.11 94.238 -66.488 149.902 -88.135c55.664 -21.647 111.817 -32.471 168.457 -32.471c56.641 0 112.875 10.824 168.702 32.471c55.826 21.647 105.875 51.025 150.146 88.135c44.271 37.109 80.241 80.485 107.91 130.127c27.67 49.642 41.504 102.783 41.504 159.424c0 59.244 -12.695 116.211 -38.086 170.898c0 0 -13.183 29.297 -13.183 29.297c0 0 -84.961 12.695 -84.961 12.695c-8.789 33.854 -26.774 62.012 -53.955 84.473c-27.181 22.461 -59.164 33.691 -95.948 33.691c0 0 0 20.02 0 20.02c0 5.208 -1.953 9.684 -5.859 13.428c-3.906 3.743 -8.626 5.615 -14.16 5.615c0 0 -39.063 0 -39.063 0c-5.208 0 -9.684 -1.872 -13.427 -5.615c-3.744 -3.744 -5.616 -8.22 -5.616 -13.428c0 0 0 -351.074 0 -351.074c0 -5.209 1.872 -9.847 5.616 -13.916c3.743 -4.069 8.219 -6.104 13.427 -6.104c0 0 39.063 0 39.063 0c5.208 0 9.847 2.035 13.916 6.104c4.069 4.069 6.103 8.707 6.103 13.916c0 0 0 19.043 0 19.043c28.646 0 54.851 7.161 78.614 21.484c23.763 14.323 42.317 33.203 55.664 56.641c0 0 19.043 -3.418 19.043 -3.418c10.742 -29.297 15.95 -60.547 15.625 -93.75c0 -40.691 -10.661 -78.695 -31.983 -114.014c-21.321 -35.319 -48.991 -66.325 -83.008 -93.018c-34.017 -26.692 -71.858 -47.688 -113.525 -62.988c-41.667 -15.299 -82.519 -22.949 -122.559 -22.949c-40.039 0 -80.81 7.65 -122.314 22.949c-41.504 15.3 -79.264 36.133 -113.281 62.5c-34.017 26.367 -61.686 57.373 -83.008 93.018c-21.322 35.644 -31.982 73.486 -31.982 113.525c0 33.854 5.208 65.43 15.625 94.727c0 0 19.042 3.418 19.042 3.418c13.347 -23.438 31.902 -42.318 55.665 -56.641c23.763 -14.323 49.967 -21.484 78.613 -21.484c0 0 0 -19.043 0 -19.043c0 -5.209 1.953 -9.847 5.859 -13.916c3.906 -4.069 8.626 -6.104 14.16 -6.104c0 0 39.063 0 39.063 0c5.208 0 9.603 2.035 13.183 6.104c3.581 4.069 5.372 8.707 5.372 13.916c0 0 0 351.074 0 351.074c0 5.208 -1.791 9.684 -5.372 13.428c-3.58 3.743 -7.975 5.615 -13.183 5.615c0 0 -39.063 0 -39.063 0c-5.208 0 -9.847 -1.872 -13.916 -5.615c-4.069 -3.744 -6.103 -8.22 -6.103 -13.428c0 0 0 -20.02 0 -20.02c-17.904 0 -35.238 -3.011 -52.002 -9.033c-16.764 -6.022 -31.657 -14.241 -44.678 -24.658c-13.021 -10.417 -24.17 -22.787 -33.447 -37.11c-9.277 -14.322 -15.869 -30.11 -19.776 -47.363c0 0 -85.449 -12.695 -85.449 -12.695c0 0 -12.695 -29.297 -12.695 -29.297c-25.391 -54.687 -38.086 -111.979 -38.086 -171.875c0 0 0 0 0 0" />
  </g>
</svg>