<svg height="1000" width="928.571" xmlns="http://www.w3.org/2000/svg"><path d="M928.512 494.452q0 92.628 -33.48 175.212l-11.16 27.342 -103.23 18.414q-12.276 46.314 -50.499 76.167t-87.327 29.853v17.856q0 7.812 -5.022 12.834t-12.834 5.022h-35.712q-7.812 0 -12.834 -5.022t-5.022 -12.834v-321.408q0 -7.812 5.022 -12.834t12.834 -5.022h35.712q7.812 0 12.834 5.022t5.022 12.834v17.856q39.618 0 72.54 19.809t51.894 53.289l37.944 -6.696q16.182 -53.01 16.182 -107.694 0 -82.584 -49.104 -155.682t-131.967 -116.622 -176.049 -43.524 -176.049 43.524 -131.967 116.622 -49.104 155.682q0 54.684 16.182 107.694l37.944 6.696q18.972 -33.48 51.894 -53.289t72.54 -19.809v-17.856q0 -7.812 5.022 -12.834t12.834 -5.022h35.712q7.812 0 12.834 5.022t5.022 12.834v321.408q0 7.812 -5.022 12.834t-12.834 5.022h-35.712q-7.812 0 -12.834 -5.022t-5.022 -12.834v-17.856q-49.104 0 -87.327 -29.853t-50.499 -76.167l-103.23 -18.414 -11.16 -27.342q-33.48 -82.584 -33.48 -175.212 0 -84.258 37.386 -162.378t99.882 -135.315 148.428 -91.233 178.56 -34.038 178.56 34.038 148.428 91.233 99.882 135.315 37.386 162.378z"/></svg>