<svg height="1000px" width="900px" xmlns="http://www.w3.org/2000/svg">
  <g>
    <path d="M0 519c0 -36 6.167 -70.833 18.5 -104.5c12.333 -33.667 29 -65 50 -94c21 -29 46 -55.5 75 -79.5c29 -24 60.167 -44.667 93.5 -62c33.333 -17.333 68.167 -30.667 104.5 -40c36.333 -9.333 72.5 -14 108.5 -14c36 0 72.167 4.667 108.5 14c36.333 9.333 71.167 22.667 104.5 40c33.333 17.333 64.5 38 93.5 62c29 24 54 50.5 75 79.5c21 29 37.667 60.333 50 94c12.333 33.667 18.5 68.5 18.5 104.5c0 58 -12 113 -36 165c0 0 -13 28 -13 28c0 0 -81 12 -81 12c-8.667 32.667 -26.167 59.667 -52.5 81c-26.333 21.333 -57.167 32 -92.5 32c0 0 0 19 0 19c0 5.333 -1.833 9.833 -5.5 13.5c-3.667 3.667 -8.167 5.5 -13.5 5.5c0 0 -38 0 -38 0c-5.333 0 -9.667 -1.833 -13 -5.5c-3.333 -3.667 -5 -8.167 -5 -13.5c0 0 0 -337 0 -337c0 -5.333 1.667 -9.833 5 -13.5c3.333 -3.667 7.667 -5.5 13 -5.5c0 0 38 0 38 0c5.333 0 9.833 1.833 13.5 5.5c3.667 3.667 5.5 8.167 5.5 13.5c0 0 0 18 0 18c28 0 53.167 7 75.5 21c22.333 14 40.167 32 53.5 54c0 0 19 -2 19 -2c10 -28.667 15 -59 15 -91c0 -38.667 -10.333 -75.167 -31 -109.5c-20.667 -34.333 -47.333 -64.167 -80 -89.5c-32.667 -25.333 -69 -45.5 -109 -60.5c-40 -15 -79.333 -22.5 -118 -22.5c-38.667 0 -78 7.5 -118 22.5c-40 15 -76.167 35.167 -108.5 60.5c-32.333 25.333 -58.833 55.167 -79.5 89.5c-20.667 34.333 -31 70.833 -31 109.5c0 30.667 4.667 61 14 91c0 0 19 2 19 2c13.333 -22 31.167 -40 53.5 -54c22.333 -14 47.5 -21 75.5 -21c0 0 0 -18 0 -18c0 -5.333 1.833 -9.833 5.5 -13.5c3.667 -3.667 8.167 -5.5 13.5 -5.5c0 0 38 0 38 0c5.333 0 9.667 1.833 13 5.5c3.333 3.667 5 8.167 5 13.5c0 0 0 337 0 337c0 5.333 -1.667 9.833 -5 13.5c-3.333 3.667 -7.667 5.5 -13 5.5c0 0 -38 0 -38 0c-5.333 0 -9.833 -1.833 -13.5 -5.5c-3.667 -3.667 -5.5 -8.167 -5.5 -13.5c0 0 0 -19 0 -19c-35.333 0 -66.167 -10.667 -92.5 -32c-26.333 -21.333 -43.833 -48.333 -52.5 -81c0 0 -81 -12 -81 -12c0 0 -13 -28 -13 -28c-24 -52 -36 -107 -36 -165c0 0 0 0 0 0" />
  </g>
</svg>