<svg height="1000px" width="928.5714285714286px" xmlns="http://www.w3.org/2000/svg">
  <g>
    <path d="M891.1830357142858 332.03125c24.926 52.083 37.388 107.608 37.388 166.574c0 58.965 -11.16 115.978 -33.482 171.038c0 0 -11.16 27.343 -11.16 27.343c0 0 -103.237 18.416 -103.237 18.416c-8.185 30.878 -25.019 56.268 -50.502 76.171c-25.484 19.904 -54.595 29.855 -87.333 29.855c0 0 0 17.857 0 17.857c0 5.209 -1.674 9.487 -5.022 12.835c-3.348 3.348 -7.627 5.023 -12.835 5.023c0 0 -35.714 0 -35.714 0c-5.209 0 -9.487 -1.675 -12.835 -5.023c-3.348 -3.348 -5.022 -7.626 -5.022 -12.835c0 0 0 -321.428 0 -321.428c0 -5.208 1.674 -9.487 5.022 -12.835c3.348 -3.348 7.626 -5.022 12.835 -5.022c0 0 35.714 0 35.714 0c5.208 0 9.487 1.674 12.835 5.022c3.348 3.348 5.022 7.627 5.022 12.835c0 0 0 17.857 0 17.857c26.414 0 50.595 6.603 72.545 19.81c21.949 13.207 39.248 30.971 51.897 53.293c0 0 37.946 -6.697 37.946 -6.697c10.789 -35.342 16.184 -71.242 16.184 -107.701c0 -55.059 -16.37 -106.956 -49.108 -155.692c-32.738 -48.735 -76.73 -87.611 -131.975 -116.629c-55.246 -29.018 -113.932 -43.527 -176.06 -43.527c-62.128 0 -120.815 14.509 -176.061 43.527c-55.245 29.018 -99.237 67.894 -131.975 116.629c-32.738 48.736 -49.107 100.633 -49.107 155.692c0 36.459 5.394 72.359 16.183 107.701c0 0 37.946 6.697 37.946 6.697c12.649 -22.322 29.948 -40.086 51.898 -53.293c21.949 -13.207 46.131 -19.81 72.544 -19.81c0 0 0 -17.857 0 -17.857c0 -5.208 1.674 -9.487 5.023 -12.835c3.348 -3.348 7.626 -5.022 12.834 -5.022c0 0 35.715 0 35.715 0c5.208 0 9.486 1.674 12.834 5.022c3.349 3.348 5.023 7.627 5.023 12.835c0 0 0 321.428 0 321.428c0 5.209 -1.674 9.487 -5.023 12.835c-3.348 3.348 -7.626 5.023 -12.834 5.023c0 0 -35.715 0 -35.715 0c-5.208 0 -9.486 -1.675 -12.834 -5.023c-3.349 -3.348 -5.023 -7.626 -5.023 -12.835c0 0 0 -17.857 0 -17.857c-32.738 0 -61.849 -9.951 -87.332 -29.855c-25.484 -19.903 -42.318 -45.293 -50.503 -76.171c0 0 -103.236 -18.416 -103.236 -18.416c0 0 -11.161 -27.343 -11.161 -27.343c-22.321 -55.06 -33.482 -112.073 -33.482 -171.038c0 -58.966 12.463 -114.491 37.388 -166.574c24.926 -52.083 58.222 -97.191 99.889 -135.324c41.666 -38.132 91.146 -68.545 148.437 -91.239c57.292 -22.693 116.816 -34.04 178.572 -34.04c61.756 0 121.279 11.347 178.571 34.04c57.292 22.694 106.771 53.107 148.438 91.239c41.666 38.133 74.962 83.241 99.888 135.324c0 0 0 0 0 0" />
  </g>
</svg>