<svg height="1000" width="928.6" xmlns="http://www.w3.org/2000/svg"><path d="M0 494.5q0-84.3 37.4-162.4t99.9-135.3 148.4-91.2 178.6-34 178.6 34 148.4 91.2 99.9 135.3 37.4 162.4q0 92.6-33.5 175.2l-11.2 27.3-103.2 18.4q-12.3 46.3-50.5 76.2t-87.3 29.9v17.9q0 7.8-5 12.8t-12.8 5h-35.7q-7.8 0-12.8-5t-5-12.8v-321.4q0-7.8 5-12.8t12.8-5h35.7q7.8 0 12.8 5t5 12.8v17.9q39.6 0 72.5 19.8t51.9 53.3l37.9-6.7q16.2-53 16.2-107.7 0-82.6-49.1-155.7t-132-116.6-176-43.5-176 43.5-132 116.6-49.1 155.7q0 54.7 16.2 107.7l37.9 6.7q19-33.5 51.9-53.3t72.5-19.8v-17.9q0-7.8 5-12.8t12.8-5h35.7q7.8 0 12.8 5t5 12.8v321.4q0 7.8-5 12.8t-12.8 5h-35.7q-7.8 0-12.8-5t-5-12.8v-17.9q-49.1 0-87.3-29.9t-50.5-76.2l-103.2-18.4-11.2-27.3q-33.5-82.6-33.5-175.2z"/></svg>