<svg height="1000" width="1000" xmlns="http://www.w3.org/2000/svg"><path d="M938.556 928.576q-24.552 0 -73.935 -1.953t-74.493 -1.953q-24.552 0 -73.656 1.953t-73.656 1.953q-13.392 0 -20.646 -11.439t-7.254 -25.389q0 -17.298 9.486 -25.668t21.762 -9.486 28.458 -3.906 25.11 -8.37q18.414 -11.718 18.414 -78.12l-.558 -218.178q0 -11.718 -.558 -17.298 -7.254 -2.232 -27.9 -2.232h-376.65q-21.204 0 -28.458 2.232 -.558 5.58 -.558 17.298l-.558 207.018q0 79.236 20.646 91.512 8.928 5.58 26.784 7.254t31.806 1.953 25.11 8.37 11.16 25.389q0 14.508 -6.975 26.784t-20.367 12.276q-26.226 0 -77.841 -1.953t-77.283 -1.953q-23.994 0 -71.424 1.953t-70.866 1.953q-12.834 0 -19.809 -11.718t-6.975 -25.11q0 -16.74 8.649 -25.11t20.088 -9.765 26.505 -4.185 23.436 -8.37q18.414 -12.834 18.414 -79.794l-.558 -31.806v-453.654q0 -1.674 .279 -14.508t0 -20.367 -.837 -21.483 -1.953 -23.436 -3.627 -20.367 -6.138 -17.577 -8.928 -10.044q-8.37 -5.58 -25.11 -6.696t-29.574 -1.116 -22.878 -7.812 -10.044 -25.11q0 -14.508 6.696 -26.784t20.088 -12.276q25.668 0 77.283 1.953t77.283 1.953q23.436 0 70.587 -1.953t70.587 -1.953q13.95 0 20.925 12.276t6.975 26.784q0 16.74 -9.486 24.273t-21.483 8.091 -27.621 2.232 -23.994 7.254q-19.53 11.718 -19.53 89.28l.558 178.56q0 11.718 .558 17.856 7.254 1.674 21.762 1.674h390.042q13.95 0 21.204 -1.674 .558 -6.138 .558 -17.856l.558 -178.56q0 -77.562 -19.53 -89.28 -10.044 -6.138 -32.643 -6.975t-36.828 -7.254 -14.229 -27.621q0 -14.508 6.975 -26.784t20.925 -12.276q24.552 0 73.656 1.953t73.656 1.953q23.994 0 71.982 -1.953t71.982 -1.953q13.95 0 20.925 12.276t6.975 26.784q0 16.74 -9.765 24.552t-22.32 8.091 -28.737 1.674 -24.552 6.975q-19.53 12.834 -19.53 89.838l.558 526.194q0 66.402 18.972 78.12 8.928 5.58 25.668 7.533t29.853 2.511 23.157 8.649 10.044 24.831q0 14.508 -6.696 26.784t-20.088 12.276z"/></svg>