<svg height="1000" width="1000" xmlns="http://www.w3.org/2000/svg"><path d="M938.6 928.6q-24.5 0 -73.9 -2t-74.5 -1.9q-24.6 0 -73.7 1.9t-73.6 2q-13.4 0 -20.7 -11.5T615 891.7q0 -17.3 9.4 -25.6t21.8 -9.5 28.5 -3.9 25.1 -8.4q18.4 -11.7 18.4 -78.1L717.6 548q0 -11.7 -.5 -17.3 -7.3 -2.2 -27.9 -2.2H312.5q-21.2 0 -28.5 2.2 -.5 5.6 -.5 17.3l-.6 207q0 79.3 20.7 91.5 8.9 5.6 26.8 7.3t31.8 1.9 25.1 8.4 11.1 25.4q0 14.5 -6.9 26.8t-20.4 12.3q-26.2 0 -77.9 -2T216 924.7q-24 0 -71.5 1.9t-70.8 2q-12.9 0 -19.8 -11.7t-7 -25.2q0 -16.7 8.6 -25.1t20.1 -9.7 26.5 -4.2 23.5 -8.4Q144 831.5 144 764.5l-.6 -31.8V279q0 -1.7 .3 -14.5t0 -20.4 -.8 -21.4 -2 -23.5 -3.6 -20.3 -6.2 -17.6 -8.9 -10.1q-8.4 -5.6 -25.1 -6.7t-29.6 -1.1 -22.9 -7.8 -10 -25.1q0 -14.5 6.7 -26.8T61.4 71.4q25.7 0 77.3 2t77.3 1.9q23.4 0 70.6 -1.9t70.5 -2q14 0 21 12.3t6.9 26.8q0 16.7 -9.4 24.3t-21.5 8.1 -27.6 2.2 -24 7.2q-19.6 11.8 -19.6 89.3l.6 178.6q0 11.7 .5 17.9 7.3 1.6 21.8 1.6h390.1q13.9 0 21.2 -1.6 .5 -6.2 .5 -17.9l.6 -178.6q0 -77.5 -19.5 -89.3 -10.1 -6.1 -32.7 -6.9t-36.8 -7.3T615 110.5q0 -14.5 6.9 -26.8t21 -12.3q24.5 0 73.6 2t73.7 1.9q24 0 72 -1.9t72 -2q13.9 0 20.9 12.3t7 26.8q0 16.7 -9.8 24.5t-22.3 8.1 -28.8 1.7 -24.5 7q-19.6 12.8 -19.6 89.8l.6 526.3q0 66.4 19 78.1 8.9 5.6 25.6 7.5t29.9 2.5 23.2 8.7 10 24.8q0 14.5 -6.7 26.8t-20.1 12.3z"/></svg>