<svg height="1000" width="928.6" xmlns="http://www.w3.org/2000/svg"><path d="M928.6 494.4q0 92.7 -33.5 175.2L883.9 697l-103.2 18.4q-12.3 46.3 -50.5 76.2t-87.3 29.8v17.9q0 7.8 -5.1 12.8t-12.8 5h-35.7q-7.8 0 -12.8 -5t-5.1 -12.8V517.9q0 -7.9 5.1 -12.9t12.8 -5H625q7.8 0 12.8 5t5.1 12.9v17.8q39.6 0 72.5 19.8t51.9 53.3l37.9 -6.7q16.2 -53 16.2 -107.7 0 -82.6 -49.1 -155.7t-132 -116.6 -176 -43.5 -176.1 43.5 -132 116.6 -49.1 155.7q0 54.7 16.2 107.7l38 6.7q18.9 -33.5 51.9 -53.3t72.5 -19.8v-17.8q0 -7.9 5 -12.9t12.9 -5h35.7q7.8 0 12.8 5t5 12.9v321.4q0 7.8 -5 12.8t-12.8 5h-35.7q-7.8 0 -12.9 -5t-5 -12.8v-17.9q-49.1 0 -87.3 -29.8t-50.5 -76.2L44.6 697 33.5 669.6Q0 587.1 0 494.4 0 410.2 37.4 332t99.9 -135.3 148.4 -91.2T464.3 71.4t178.6 34.1 148.4 91.2T891.2 332t37.4 162.4z"/></svg>