<svg height="1000px" width="928.5714285714286px" xmlns="http://www.w3.org/2000/svg">
  <g>
    <path d="M0 498.60491071428567c0 -58.966 12.463 -114.49 37.388 -166.574c24.926 -52.083 58.222 -97.191 99.889 -135.323c41.666 -38.133 91.146 -68.546 148.437 -91.239c57.292 -22.694 116.816 -34.04 178.572 -34.04c61.756 0 121.279 11.346 178.571 34.04c57.292 22.693 106.771 53.106 148.438 91.239c41.666 38.132 74.962 83.24 99.888 135.323c24.926 52.084 37.388 107.608 37.388 166.574c0 58.966 -11.16 115.978 -33.482 171.038c0 0 -11.16 27.344 -11.16 27.344c0 0 -103.237 18.415 -103.237 18.415c-8.185 30.878 -25.019 56.268 -50.502 76.172c-25.484 19.903 -54.595 29.855 -87.333 29.855c0 0 0 17.857 0 17.857c0 5.208 -1.674 9.486 -5.022 12.835c-3.348 3.348 -7.627 5.022 -12.835 5.022c0 0 -35.714 0 -35.714 0c-5.209 0 -9.487 -1.674 -12.835 -5.022c-3.348 -3.349 -5.022 -7.627 -5.022 -12.835c0 0 0 -321.429 0 -321.429c0 -5.208 1.674 -9.486 5.022 -12.835c3.348 -3.348 7.626 -5.022 12.835 -5.022c0 0 35.714 0 35.714 0c5.208 0 9.487 1.674 12.835 5.022c3.348 3.349 5.022 7.627 5.022 12.835c0 0 0 17.857 0 17.857c26.414 0 50.595 6.604 72.545 19.811c21.949 13.206 39.248 30.971 51.897 53.292c0 0 37.947 -6.696 37.947 -6.696c10.788 -35.343 16.183 -71.243 16.183 -107.701c0 -55.06 -16.369 -106.957 -49.108 -155.692c-32.738 -48.735 -76.729 -87.612 -131.975 -116.63c-55.246 -29.018 -113.932 -43.526 -176.06 -43.526c-62.128 0 -120.815 14.508 -176.061 43.526c-55.245 29.018 -99.237 67.895 -131.975 116.63c-32.738 48.735 -49.107 100.632 -49.107 155.692c0 36.458 5.394 72.358 16.183 107.701c0 0 37.946 6.696 37.946 6.696c12.649 -22.321 29.948 -40.086 51.898 -53.292c21.949 -13.207 46.131 -19.811 72.544 -19.811c0 0 0 -17.857 0 -17.857c0 -5.208 1.674 -9.486 5.023 -12.835c3.348 -3.348 7.626 -5.022 12.834 -5.022c0 0 35.715 0 35.715 0c5.208 0 9.486 1.674 12.835 5.022c3.348 3.349 5.022 7.627 5.022 12.835c0 0 0 321.429 0 321.429c0 5.208 -1.674 9.486 -5.022 12.835c-3.349 3.348 -7.627 5.022 -12.835 5.022c0 0 -35.715 0 -35.715 0c-5.208 0 -9.486 -1.674 -12.834 -5.022c-3.349 -3.349 -5.023 -7.627 -5.023 -12.835c0 0 0 -17.857 0 -17.857c-32.738 0 -61.849 -9.952 -87.332 -29.855c-25.484 -19.904 -42.318 -45.294 -50.503 -76.172c0 0 -103.236 -18.415 -103.236 -18.415c0 0 -11.161 -27.344 -11.161 -27.344c-22.321 -55.06 -33.482 -112.072 -33.482 -171.038c0 0 0 0 0 0" />
  </g>
</svg>