<svg height="1000px" width="846px" xmlns="http://www.w3.org/2000/svg">
  <g>
    <path d="M0 356c0 -42.667 6.667 -78.667 20 -108c13.333 -29.333 30.833 -53.167 52.5 -71.5c21.667 -18.333 46.167 -31.5 73.5 -39.5c27.333 -8 55 -12 83 -12c20 0 39.667 3.333 59 10c19.333 6.667 37.333 15 54 25c16.667 10 31.833 20.833 45.5 32.5c13.667 11.667 25.5 22.5 35.5 32.5c10 -10 21.833 -20.833 35.5 -32.5c13.667 -11.667 28.833 -22.5 45.5 -32.5c16.667 -10 34.667 -18.333 54 -25c19.333 -6.667 39 -10 59 -10c28 0 55.667 4 83 12c27.333 8 51.833 21.167 73.5 39.5c21.667 18.333 39.167 42.167 52.5 71.5c13.333 29.333 20 65.333 20 108c0 29.333 -5.5 57.167 -16.5 83.5c-11 26.333 -23 49.5 -36 69.5c-13 20 -25.333 36 -37 48c-11.667 12 -17.833 18.333 -18.5 19c0 0 -289 288 -289 288c-7.333 7.333 -16 11 -26 11c-10 0 -18.667 -3.667 -26 -11c0 0 -290 -288 -290 -288c-0.667 -0.667 -6.667 -7 -18 -19c-11.333 -12 -23.5 -28 -36.5 -48c-13 -20 -25 -43.167 -36 -69.5c-11 -26.333 -16.5 -54.167 -16.5 -83.5c0 0 0 0 0 0" />
  </g>
</svg>