<svg height="1000px" width="879.8828125px" xmlns="http://www.w3.org/2000/svg">
  <g>
    <path d="M0 351.07421875c0 -36.784 5.534 -70.15 16.602 -100.098c11.067 -29.948 26.936 -55.257 47.607 -75.927c20.671 -20.671 45.654 -36.703 74.951 -48.096c29.297 -11.393 62.175 -17.09 98.633 -17.09c19.206 0 38.249 3.011 57.129 9.033c18.88 6.022 36.784 13.916 53.711 23.682c16.927 9.766 33.04 20.915 48.34 33.447c15.299 12.533 29.622 25.147 42.968 37.842c12.696 -12.695 26.856 -25.309 42.481 -37.842c15.625 -12.532 31.982 -23.681 49.072 -33.447c17.09 -9.766 34.831 -17.66 53.223 -23.682c18.392 -6.022 37.191 -9.033 56.396 -9.033c36.784 0 69.987 5.697 99.61 17.09c29.622 11.393 54.769 27.425 75.439 48.096c20.671 20.67 36.458 45.979 47.363 75.927c10.905 29.948 16.358 63.314 16.358 100.098c0 21.484 -3.011 42.643 -9.033 63.477c-6.023 20.833 -14.323 41.097 -24.903 60.791c-10.579 19.694 -22.705 38.411 -36.377 56.152c-13.672 17.741 -27.832 33.935 -42.48 48.584c0 0 -300.293 298.828 -300.293 298.828c-7.487 7.487 -16.439 11.231 -26.856 11.231c-10.091 0 -19.368 -3.744 -27.832 -11.231c0 0 -300.293 -299.805 -300.293 -299.805c-14.648 -14.648 -28.808 -30.843 -42.48 -48.584c-13.672 -17.741 -25.635 -36.295 -35.889 -55.664c-10.254 -19.368 -18.392 -39.55 -24.414 -60.547c-6.022 -20.996 -9.033 -42.073 -9.033 -63.232c0 0 0 0 0 0" />
  </g>
</svg>