<svg height="1000px" width="879.8828125px" xmlns="http://www.w3.org/2000/svg">
  <g>
    <path d="M0 351.07421875c0 -44.596 6.999 -82.275 20.996 -113.037c13.997 -30.762 32.308 -55.664 54.932 -74.707c22.623 -19.043 48.095 -32.715 76.416 -41.016c28.32 -8.301 57.129 -12.451 86.426 -12.451c20.507 0 40.852 3.499 61.035 10.498c20.182 6.999 38.899 15.706 56.152 26.123c17.253 10.417 33.04 21.81 47.363 34.18c14.323 12.37 26.53 23.437 36.621 33.203c10.092 -10.091 22.461 -21.24 37.11 -33.447c14.648 -12.207 30.599 -23.519 47.851 -33.936c17.253 -10.417 35.726 -19.124 55.42 -26.123c19.694 -6.999 40.283 -10.498 61.768 -10.498c28.646 0 57.129 4.15 85.449 12.451c28.32 8.301 53.792 21.973 76.416 41.016c22.624 19.043 40.934 43.945 54.932 74.707c13.997 30.762 20.996 68.441 20.996 113.037c0 30.599 -5.615 59.408 -16.846 86.426c-11.23 27.018 -23.682 50.862 -37.353 71.533c-13.672 20.671 -26.53 37.353 -38.575 50.049c-12.044 12.695 -18.392 19.694 -19.043 20.996c0 0 -300.293 298.828 -300.293 298.828c-8.463 7.487 -17.74 11.231 -27.832 11.231c-10.742 0 -19.694 -3.744 -26.855 -11.231c0 0 -301.27 -299.805 -301.27 -299.805c-1.302 -0.651 -7.731 -7.324 -19.287 -20.019c-11.556 -12.696 -24.17 -29.378 -37.841 -50.049c-13.672 -20.671 -26.205 -44.515 -37.598 -71.533c-11.393 -27.018 -17.09 -55.827 -17.09 -86.426c0 0 0 0 0 0m78.125 0c0 22.135 4.476 43.457 13.428 63.965c8.952 20.508 18.961 38.818 30.029 54.931c11.068 16.114 21.322 29.053 30.762 38.819c0 0 13.672 14.16 13.672 14.16c0 0 273.925 272.949 273.925 272.949c0 0 273.926 -272.949 273.926 -272.949c0 0 14.16 -14.16 14.16 -14.16c9.44 -9.766 19.613 -22.705 30.518 -38.819c10.905 -16.113 20.833 -34.505 29.785 -55.175c8.952 -20.671 13.428 -41.911 13.428 -63.721c0 -33.854 -4.802 -61.361 -14.404 -82.52c-9.603 -21.158 -22.217 -37.679 -37.842 -49.56c-15.625 -11.882 -32.959 -20.02 -52.002 -24.414c-19.043 -4.395 -37.517 -6.592 -55.42 -6.592c-17.253 0 -34.75 4.15 -52.49 12.451c-17.741 8.301 -34.424 18.311 -50.049 30.03c-15.625 11.718 -29.623 23.763 -41.992 36.132c-12.37 12.37 -21.485 22.136 -27.344 29.297c-8.138 10.091 -18.229 15.137 -30.274 15.137c-12.044 0 -21.972 -5.046 -29.785 -15.137c-5.859 -7.487 -15.055 -17.334 -27.588 -29.541c-12.532 -12.207 -26.611 -24.17 -42.236 -35.888c-15.625 -11.719 -32.308 -21.729 -50.049 -30.03c-17.741 -8.301 -34.912 -12.451 -51.513 -12.451c-18.555 0 -37.354 2.197 -56.397 6.592c-19.043 4.394 -36.377 12.532 -52.002 24.414c-15.625 11.881 -28.239 28.32 -37.842 49.316c-9.603 20.996 -14.404 48.584 -14.404 82.764c0 0 0 0 0 0" />
  </g>
</svg>