<svg height="1000" width="1000" xmlns="http://www.w3.org/2000/svg"><path d="M714.24 571.456h170.19q-2.79 3.348 -5.58 5.859t-5.022 4.185l-1.674 2.232 -347.634 334.8q-10.044 10.044 -24.552 10.044t-24.552 -10.044l-348.192 -335.916q-2.79 -1.116 -11.718 -11.16h205.902q12.276 0 22.041 -7.533t12.555 -19.251l39.06 -156.798 106.02 372.186q3.348 11.16 12.834 18.414t21.762 7.254q11.718 0 21.204 -7.254t12.834 -18.414l81.468 -270.63 31.248 62.496q10.044 19.53 31.806 19.53zm285.696 -238.824q0 80.91 -57.474 167.4h-205.902l-61.938 -123.318q-4.464 -9.486 -14.229 -15.066t-20.367 -4.464q-25.11 2.79 -31.248 25.668l-71.982 239.94 -109.368 -382.788q-3.348 -11.16 -13.113 -18.414t-22.041 -7.254 -21.762 7.533 -12.276 19.251l-64.728 258.912h-236.034q-57.474 -86.49 -57.474 -167.4 0 -122.76 70.866 -191.952t195.858 -69.192q34.596 0 70.587 11.997t66.96 32.364 53.289 38.223 42.408 37.944q20.088 -20.088 42.408 -37.944t53.289 -38.223 66.96 -32.364 70.587 -11.997q124.992 0 195.858 69.192t70.866 191.952z"/></svg>