<svg height="1000px" width="1000px" xmlns="http://www.w3.org/2000/svg">
  <g>
    <path d="M929.1294642857143 140.625c47.247 46.131 70.871 110.212 70.871 192.243c0 82.032 -42.597 165.644 -127.791 250.837c0 0 -347.656 334.822 -347.656 334.822c-6.696 6.696 -14.881 10.044 -24.553 10.044c-9.673 0 -17.858 -3.348 -24.554 -10.044c0 0 -348.214 -335.938 -348.214 -335.938c-10.045 -8.184 -23.81 -23.158 -41.295 -44.922c-17.485 -21.763 -31.808 -41.945 -42.969 -60.546c-11.16 -18.602 -21.112 -41.109 -29.855 -67.523c-8.742 -26.413 -13.113 -52.083 -13.113 -77.009c0 -81.845 23.623 -145.833 70.87 -191.964c47.247 -46.131 112.537 -69.196 195.871 -69.196c46.875 0 92.634 14.881 137.276 44.642c37.947 24.926 69.941 50.224 95.983 75.893c25.669 -25.669 53.199 -48.177 82.589 -67.522c53.571 -35.342 103.794 -53.013 150.669 -53.013c83.334 0 148.624 23.065 195.871 69.196c0 0 0 0 0 0m-0.558 191.964c0 -83.705 -29.39 -139.695 -88.17 -167.968c-30.134 -14.509 -65.848 -21.764 -107.143 -21.764c-50.223 0 -107.7 30.134 -172.433 90.402c-13.392 12.649 -23.995 23.53 -31.808 32.645c-7.812 9.115 -17.485 13.672 -29.017 13.672c-11.533 0 -21.206 -4.65 -29.018 -13.951c-7.813 -9.301 -18.416 -20.182 -31.808 -32.645c-13.393 -12.463 -29.483 -25.856 -48.27 -40.179c-18.788 -14.323 -39.342 -26.227 -61.663 -35.714c-22.322 -9.487 -43.155 -14.23 -62.5 -14.23c-19.346 0 -37.575 1.488 -54.688 4.464c-17.113 2.977 -34.598 8.743 -52.455 17.3c-17.857 8.556 -33.11 19.531 -45.759 32.924c-28.274 30.878 -42.411 76.73 -42.411 137.555c0 60.826 34.784 126.024 104.353 195.592c0 0 324.219 312.5 324.219 312.5c0 0 323.66 -311.942 323.66 -311.942c69.941 -69.94 104.911 -136.161 104.911 -198.661c0 0 0 0 0 0" />
  </g>
</svg>