<svg height="1000" width="1000" xmlns="http://www.w3.org/2000/svg"><path d="M714.3 571.4h170.2q-2.8 3.4 -5.6 5.9t-5 4.2l-1.7 2.2L524.6 918.5q-10.1 10.1 -24.6 10.1t-24.6 -10.1L127.2 582.6q-2.8 -1.1 -11.7 -11.2h205.9q12.3 0 22.1 -7.5T356 544.6l39.1 -156.8 106 372.2q3.4 11.2 12.9 18.5t21.7 7.2q11.7 0 21.2 -7.2T569.8 760l81.4 -270.6 31.3 62.5q10 19.5 31.8 19.5zM1000 332.6q0 80.9 -57.5 167.4H736.6L674.7 376.7q-4.5 -9.5 -14.3 -15.1t-20.3 -4.5q-25.1 2.8 -31.3 25.7l-72 240L427.5 240q-3.4 -11.2 -13.2 -18.5t-22 -7.2 -21.8 7.5 -12.2 19.3L293.5 500h-236Q0 413.5 0 332.6q0 -122.8 70.9 -192T266.7 71.4q34.6 0 70.6 12t67 32.4 53.3 38.2 42.4 38q20.1 -20.1 42.4 -38t53.3 -38.2 67 -32.4 70.6 -12q125 0 195.8 69.2t70.9 192z"/></svg>