<svg height="1000" width="1000" xmlns="http://www.w3.org/2000/svg"><path d="M928.512 332.632q0 -45.198 -11.997 -79.794t-30.69 -54.963 -45.477 -33.201 -52.452 -17.298 -54.684 -4.464 -62.496 14.229 -61.659 35.712 -48.267 40.176 -33.48 34.317q-10.044 12.276 -27.342 12.276t-27.342 -12.276q-13.392 -15.624 -33.48 -34.317t-48.267 -40.176 -61.659 -35.712 -62.496 -14.229 -54.684 4.464 -52.452 17.298 -45.477 33.201 -30.69 54.963 -11.997 79.794q0 93.744 104.346 198.09l324.198 312.48 323.64 -311.922q104.904 -104.904 104.904 -198.648zm71.424 0q0 123.318 -127.782 251.1l-347.634 334.8q-10.044 10.044 -24.552 10.044t-24.552 -10.044l-348.192 -335.916q-5.58 -4.464 -15.345 -14.508t-30.969 -36.549 -37.944 -54.405 -29.853 -67.518 -13.113 -77.004q0 -122.76 70.866 -191.952t195.858 -69.192q34.596 0 70.587 11.997t66.96 32.364 53.289 38.223 42.408 37.944q20.088 -20.088 42.408 -37.944t53.289 -38.223 66.96 -32.364 70.587 -11.997q124.992 0 195.858 69.192t70.866 191.952z"/></svg>