<svg height="1000px" width="1000px" xmlns="http://www.w3.org/2000/svg">
  <g>
    <path d="M500 928.5714285714286c-9.673 0 -17.857 -3.348 -24.554 -10.045c0 0 -348.214 -335.937 -348.214 -335.937c-10.045 -8.185 -23.809 -23.159 -41.295 -44.922c-17.485 -21.763 -31.808 -41.946 -42.968 -60.547c-11.161 -18.601 -21.113 -41.109 -29.855 -67.522c-8.743 -26.414 -13.114 -52.084 -13.114 -77.009c0 -81.845 23.624 -145.833 70.871 -191.964c47.247 -46.131 112.537 -69.197 195.87 -69.197c46.875 0 92.634 14.881 137.277 44.643c37.946 24.926 69.94 50.223 95.982 75.893c25.67 -25.67 53.199 -48.177 82.589 -67.522c53.572 -35.343 103.795 -53.014 150.67 -53.014c83.333 0 148.623 23.066 195.87 69.197c47.247 46.131 70.871 110.212 70.871 192.243c0 82.031 -42.597 165.643 -127.79 250.837c0 0 -347.656 334.821 -347.656 334.821c-6.697 6.697 -14.881 10.045 -24.554 10.045c0 0 0 0 0 0" />
  </g>
</svg>