<svg height="1000px" width="1000px" xmlns="http://www.w3.org/2000/svg">
  <g>
    <path d="M0 332.58928571428567c0 -81.845 23.624 -145.833 70.871 -191.964c47.247 -46.131 112.537 -69.197 195.87 -69.197c46.875 0 92.634 14.881 137.277 44.643c37.946 24.926 69.94 50.223 95.982 75.893c25.67 -25.67 53.199 -48.177 82.589 -67.522c53.572 -35.343 103.795 -53.014 150.67 -53.014c83.333 0 148.623 23.066 195.87 69.197c47.247 46.131 70.871 110.212 70.871 192.243c0 82.031 -42.597 165.644 -127.79 250.837c0 0 -347.656 334.822 -347.656 334.822c-6.697 6.696 -14.881 10.044 -24.554 10.044c-9.673 0 -17.857 -3.348 -24.554 -10.044c0 0 -348.214 -335.938 -348.214 -335.938c-10.044 -8.185 -23.809 -23.158 -41.294 -44.922c-17.486 -21.763 -31.809 -41.946 -42.969 -60.547c-11.161 -18.601 -21.113 -41.108 -29.855 -67.522c-8.743 -26.414 -13.114 -52.083 -13.114 -77.009c0 0 0 0 0 0m71.429 2.511c0 60.826 34.784 126.023 104.352 195.592c0 0 324.219 312.5 324.219 312.5c0 0 323.661 -311.942 323.661 -311.942c69.94 -69.941 104.91 -136.161 104.91 -198.661c0 -83.705 -29.389 -139.695 -88.169 -167.969c-30.134 -14.509 -65.848 -21.763 -107.143 -21.763c-50.223 0 -107.701 30.134 -172.433 90.402c-13.393 12.648 -23.996 23.53 -31.808 32.645c-7.813 9.114 -17.485 13.672 -29.018 13.672c-11.533 0 -21.205 -4.651 -29.018 -13.951c-7.812 -9.301 -18.415 -20.183 -31.808 -32.645c-13.393 -12.463 -29.483 -25.856 -48.27 -40.179c-18.787 -14.323 -39.341 -26.228 -61.663 -35.714c-22.321 -9.487 -43.155 -14.23 -62.5 -14.23c-19.345 0 -37.574 1.488 -54.687 4.464c-17.114 2.976 -34.599 8.743 -52.456 17.299c-17.857 8.557 -33.11 19.532 -45.759 32.924c-28.274 30.878 -42.41 76.73 -42.41 137.556c0 0 0 0 0 0" />
  </g>
</svg>