<svg height="1000px" width="1000px" xmlns="http://www.w3.org/2000/svg">
  <g>
    <path d="M0 332.58928571428567c0 -81.845 23.624 -145.833 70.871 -191.964c47.247 -46.131 112.537 -69.197 195.87 -69.197c23.066 0 46.596 4 70.592 11.998c23.995 7.999 46.317 18.787 66.964 32.366c20.647 13.579 38.411 26.321 53.292 38.226c14.881 11.904 29.018 24.553 42.411 37.946c13.393 -13.393 27.53 -26.042 42.411 -37.946c14.881 -11.905 32.645 -24.647 53.292 -38.226c20.647 -13.579 42.969 -24.367 66.964 -32.366c23.996 -7.998 47.526 -11.998 70.592 -11.998c83.333 0 148.623 23.066 195.87 69.197c47.247 46.131 70.871 110.119 70.871 191.964c0 82.217 -42.597 165.923 -127.79 251.116c0 0 -347.656 334.822 -347.656 334.822c-6.697 6.696 -14.881 10.044 -24.554 10.044c-9.673 0 -17.857 -3.348 -24.554 -10.044c0 0 -348.214 -335.938 -348.214 -335.938c-3.72 -2.976 -8.835 -7.813 -15.346 -14.509c-6.51 -6.696 -16.834 -18.88 -30.971 -36.551c-14.137 -17.671 -26.786 -35.808 -37.946 -54.409c-11.161 -18.601 -21.113 -41.108 -29.855 -67.522c-8.743 -26.414 -13.114 -52.083 -13.114 -77.009c0 0 0 0 0 0" />
  </g>
</svg>