<svg height="1000px" width="1000px" xmlns="http://www.w3.org/2000/svg">
  <g>
    <path d="M0 332.58928571428567c0 -81.845 23.624 -145.833 70.871 -191.964c47.247 -46.131 112.537 -69.197 195.87 -69.197c23.066 0 46.596 4 70.592 11.998c23.995 7.999 46.317 18.787 66.964 32.366c20.647 13.579 38.411 26.321 53.292 38.226c14.881 11.904 29.018 24.553 42.411 37.946c13.393 -13.393 27.53 -26.042 42.411 -37.946c14.881 -11.905 32.645 -24.647 53.292 -38.226c20.647 -13.579 42.969 -24.367 66.964 -32.366c23.996 -7.998 47.526 -11.998 70.592 -11.998c83.333 0 148.623 23.066 195.87 69.197c47.247 46.131 70.871 110.119 70.871 191.964c0 82.217 -42.597 165.923 -127.79 251.116c0 0 -347.656 334.822 -347.656 334.822c-6.697 6.696 -14.881 10.044 -24.554 10.044c-9.673 0 -17.857 -3.348 -24.554 -10.044c0 0 -348.214 -335.938 -348.214 -335.938c-3.72 -2.976 -8.835 -7.813 -15.346 -14.509c-6.51 -6.696 -16.834 -18.88 -30.971 -36.551c-14.137 -17.671 -26.786 -35.808 -37.946 -54.409c-11.161 -18.601 -21.113 -41.108 -29.855 -67.522c-8.743 -26.414 -13.114 -52.083 -13.114 -77.009c0 0 0 0 0 0m71.429 0c0 62.5 34.784 128.534 104.352 198.103c0 0 324.219 312.5 324.219 312.5c0 0 323.661 -311.942 323.661 -311.942c69.94 -69.941 104.91 -136.161 104.91 -198.661c0 -30.134 -3.999 -56.734 -11.997 -79.799c-7.999 -23.066 -18.23 -41.388 -30.692 -54.967c-12.463 -13.578 -27.623 -24.646 -45.48 -33.203c-17.857 -8.556 -35.342 -14.323 -52.456 -17.299c-17.113 -2.976 -35.342 -4.464 -54.687 -4.464c-19.345 0 -40.179 4.743 -62.5 14.23c-22.321 9.486 -42.876 21.391 -61.663 35.714c-18.787 14.323 -34.877 27.716 -48.27 40.179c-13.393 12.462 -24.554 23.902 -33.482 34.319c-6.697 8.184 -15.811 12.277 -27.344 12.277c-11.533 0 -20.647 -4.093 -27.344 -12.277c-8.928 -10.417 -20.089 -21.857 -33.482 -34.319c-13.393 -12.463 -29.483 -25.856 -48.27 -40.179c-18.787 -14.323 -39.341 -26.228 -61.663 -35.714c-22.321 -9.487 -43.155 -14.23 -62.5 -14.23c-19.345 0 -37.574 1.488 -54.687 4.464c-17.114 2.976 -34.599 8.743 -52.456 17.299c-17.857 8.557 -33.017 19.625 -45.48 33.203c-12.462 13.579 -22.693 31.901 -30.692 54.967c-7.998 23.065 -11.997 49.665 -11.997 79.799c0 0 0 0 0 0" />
  </g>
</svg>