<svg height="1000" width="1000" xmlns="http://www.w3.org/2000/svg"><path d="M499.968 928.576q-14.508 0 -24.552 -10.044l-348.192 -335.916q-5.58 -4.464 -15.345 -14.508t-30.969 -36.549 -37.944 -54.405 -29.853 -67.518 -13.113 -77.004q0 -122.76 70.866 -191.952t195.858 -69.192q34.596 0 70.587 11.997t66.96 32.364 53.289 38.223 42.408 37.944q20.088 -20.088 42.408 -37.944t53.289 -38.223 66.96 -32.364 70.587 -11.997q124.992 0 195.858 69.192t70.866 191.952q0 123.318 -127.782 251.1l-347.634 334.8q-10.044 10.044 -24.552 10.044z"/></svg>