<svg height="1000" width="1000" xmlns="http://www.w3.org/2000/svg"><path d="M928.6 332.6q0 -45.2 -12 -79.8t-30.7 -55 -45.5 -33.2 -52.5 -17.3 -54.6 -4.4 -62.5 14.2 -61.7 35.7T560.8 233t-33.5 34.3q-10 12.3 -27.3 12.3t-27.3 -12.3Q459.3 251.7 439.2 233t-48.3 -40.2 -61.7 -35.7 -62.5 -14.2 -54.6 4.4 -52.5 17.3 -45.5 33.2 -30.7 55 -12 79.8q0 93.7 104.4 198.1L500 843.2 823.7 531.3q104.9 -105 104.9 -198.7zm71.4 0q0 123.3 -127.8 251.1L524.6 918.5q-10.1 10.1 -24.6 10.1t-24.6 -10.1L127.2 582.6q-5.5 -4.5 -15.3 -14.5t-31 -36.6T43 477.1 13.1 409.6 0 332.6q0 -122.8 70.9 -192T266.7 71.4q34.6 0 70.6 12t67 32.4 53.3 38.2 42.4 38q20.1 -20.1 42.4 -38t53.3 -38.2 67 -32.4 70.6 -12q125 0 195.8 69.2t70.9 192z"/></svg>