<svg height="1000" width="571.429" xmlns="http://www.w3.org/2000/svg"><path d="M392.832 700.912v133.92q0 8.928 -6.696 15.624t-15.624 6.696h-133.92q-8.928 0 -15.624 -6.696t-6.696 -15.624v-133.92q0 -8.928 6.696 -15.624t15.624 -6.696h133.92q8.928 0 15.624 6.696t6.696 15.624zm176.328 -334.8q0 30.132 -8.649 56.358t-19.53 42.687 -30.69 33.201 -32.085 24.273 -34.038 19.809q-22.878 12.834 -38.223 36.27t-15.345 37.386q0 9.486 -6.696 18.135t-15.624 8.649h-133.92q-8.37 0 -14.229 -10.323t-5.859 -20.925v-25.11q0 -46.314 36.27 -87.327t79.794 -60.543q32.922 -15.066 46.872 -31.248t13.95 -42.408q0 -23.436 -25.947 -41.292t-59.985 -17.856q-36.27 0 -60.264 16.182 -19.53 13.95 -59.706 64.17 -7.254 8.928 -17.298 8.928 -6.696 0 -13.95 -4.464l-91.512 -69.75q-7.254 -5.58 -8.649 -13.95t3.069 -15.624q89.28 -148.428 258.912 -148.428 44.64 0 89.838 17.298t81.468 46.314 59.148 71.145 22.878 88.443z"/></svg>