<svg height="1000px" width="857.1428571428571px" xmlns="http://www.w3.org/2000/svg">
  <g>
    <path d="M857.1428571428571 499.99999999999994c0 77.753 -19.159 149.461 -57.478 215.123c-38.318 65.662 -90.308 117.652 -155.971 155.971c-65.662 38.318 -137.369 57.477 -215.122 57.477c-77.753 0 -149.461 -19.159 -215.123 -57.477c-65.662 -38.319 -117.653 -90.309 -155.971 -155.971c-38.319 -65.662 -57.478 -137.37 -57.478 -215.123c0 -77.753 19.159 -149.461 57.478 -215.123c38.318 -65.662 90.309 -117.652 155.971 -155.971c65.662 -38.318 137.37 -57.477 215.123 -57.477c77.753 0 149.46 19.159 215.122 57.477c65.663 38.319 117.653 90.309 155.971 155.971c38.319 65.662 57.478 137.37 57.478 215.123c0 0 0 0 0 0m-500 84.821c0 14.881 5.952 22.322 17.857 22.322c0 0 107.143 0 107.143 0c11.161 0 17.113 -6.511 17.857 -19.531c1.116 -14.881 11.719 -27.716 31.808 -38.505c20.089 -10.789 31.994 -17.299 35.714 -19.531c23.066 -16.369 41.388 -36.458 54.967 -60.268c13.579 -23.809 20.368 -51.525 20.368 -83.147c0 -31.622 -10.881 -61.384 -32.645 -89.286c-21.763 -27.902 -48.642 -48.642 -80.636 -62.221c-31.994 -13.579 -65.662 -20.368 -101.004 -20.368c-35.343 0 -69.011 6.789 -101.005 20.368c-31.994 13.579 -58.873 34.319 -80.636 62.221c-21.763 27.902 -32.645 59.896 -32.645 95.982c0 0 0 13.393 0 13.393c0 14.881 5.952 22.321 17.857 22.321c0 0 107.143 0 107.143 0c5.208 0 9.486 -1.674 12.835 -5.022c3.348 -3.348 5.022 -7.44 5.022 -12.277c0 -4.836 2.046 -10.044 6.138 -15.625c7.069 -11.532 16.462 -20.833 28.181 -27.901c11.719 -7.069 24.461 -10.603 38.226 -10.603c13.765 0 28.831 3.999 45.201 11.998c16.369 7.998 24.553 18.415 24.553 31.25c0 12.834 -4.929 23.902 -14.788 33.203c-9.858 9.3 -21.67 17.485 -35.435 24.553c-13.765 7.069 -27.623 14.788 -41.574 23.159c-13.951 8.37 -25.855 20.182 -35.714 35.435c-9.859 15.253 -14.788 33.482 -14.788 54.688c0 0 0 13.392 0 13.392c0 0 0 0 0 0m142.857 183.036c0 0 0 -107.143 0 -107.143c0 -4.836 -1.767 -9.021 -5.301 -12.556c-3.534 -3.534 -7.72 -5.301 -12.556 -5.301c0 0 -107.143 0 -107.143 0c-4.836 0 -9.021 1.767 -12.556 5.301c-3.534 3.535 -5.301 7.72 -5.301 12.556c0 0 0 107.143 0 107.143c0 4.836 1.767 9.022 5.301 12.556c3.535 3.534 7.72 5.301 12.556 5.301c0 0 107.143 0 107.143 0c4.836 0 9.022 -1.767 12.556 -5.301c3.534 -3.534 5.301 -7.72 5.301 -12.556c0 0 0 0 0 0" />
  </g>
</svg>