<svg height="1000px" width="750px" xmlns="http://www.w3.org/2000/svg">
  <g>
    <path d="M0 500c0 -52 9.833 -100.667 29.5 -146c19.667 -45.333 46.5 -85 80.5 -119c34 -34 73.667 -60.833 119 -80.5c45.333 -19.667 94 -29.5 146 -29.5c52 0 100.667 9.833 146 29.5c45.333 19.667 85 46.5 119 80.5c34 34 60.833 73.667 80.5 119c19.667 45.333 29.5 94 29.5 146c0 52 -9.833 100.667 -29.5 146c-19.667 45.333 -46.5 85 -80.5 119c-34 34 -73.667 60.833 -119 80.5c-45.333 19.667 -94 29.5 -146 29.5c-52 0 -100.667 -9.833 -146 -29.5c-45.333 -19.667 -85 -46.5 -119 -80.5c-34 -34 -60.833 -73.667 -80.5 -119c-19.667 -45.333 -29.5 -94 -29.5 -146c0 0 0 0 0 0m250 -156c0 0 44 55 44 55c4 2.667 7.333 4.333 10 5c4 0 7.333 -1.333 10 -4c5.333 -4 11.333 -7.667 18 -11c5.333 -2.667 11.5 -5.167 18.5 -7.5c7 -2.333 14.167 -3.5 21.5 -3.5c13.333 0 24.333 3.5 33 10.5c8.667 7 13 15.833 13 26.5c0 11.333 -3.833 21.5 -11.5 30.5c-7.667 9 -17.167 18.5 -28.5 28.5c-7.333 6 -14.667 12.5 -22 19.5c-7.333 7 -14 15 -20 24c-6 9 -11 19 -15 30c-4 11 -6 23.5 -6 37.5c0 0 0 30 0 30c0 3.333 1.5 6.5 4.5 9.5c3 3 6.167 4.5 9.5 4.5c0 0 77 0 77 0c4 0 7.333 -1.5 10 -4.5c2.667 -3 4 -6.167 4 -9.5c0 0 0 -25 0 -25c0 -12 4 -22.333 12 -31c8 -8.667 17.667 -18 29 -28c8 -6.667 16 -13.833 24 -21.5c8 -7.667 15.167 -16.5 21.5 -26.5c6.333 -10 11.667 -21 16 -33c4.333 -12 6.5 -26 6.5 -42c0 -21.333 -4.333 -40.333 -13 -57c-8.667 -16.667 -20.167 -30.5 -34.5 -41.5c-14.333 -11 -30.5 -19.333 -48.5 -25c-18 -5.667 -36 -8.5 -54 -8.5c-20 0 -37.833 2.5 -53.5 7.5c-15.667 5 -29 10.5 -40 16.5c-11 6 -19.333 11.667 -25 17c-5.667 5.333 -8.833 8.333 -9.5 9c-6 6 -6.333 12 -1 18c0 0 0 0 0 0m65 399c0 3.333 1.5 6.5 4.5 9.5c3 3 6.167 4.5 9.5 4.5c0 0 77 0 77 0c4 0 7.333 -1.5 10 -4.5c2.667 -3 4 -6.167 4 -9.5c0 0 0 -74 0 -74c0 -9.333 -4.667 -14 -14 -14c0 0 -77 0 -77 0c-3.333 0 -6.5 1.333 -9.5 4c-3 2.667 -4.5 6 -4.5 10c0 0 0 74 0 74c0 0 0 0 0 0" />
  </g>
</svg>