<svg height="1000" width="857.143" xmlns="http://www.w3.org/2000/svg"><path d="M0 500.032q0 -116.622 57.474 -215.109t155.961 -155.961 215.109 -57.474 215.109 57.474 155.961 155.961 57.474 215.109 -57.474 215.109 -155.961 155.961 -215.109 57.474 -215.109 -57.474 -155.961 -155.961 -57.474 -215.109zm214.272 -93.744q0 1.674 .558 6.417t1.674 6.417 3.069 4.464 5.022 3.906 7.533 1.116h107.136q7.812 0 12.834 -5.022t5.022 -12.834q0 -6.696 6.138 -15.066 10.602 -17.298 28.179 -27.9t37.107 -10.602q21.762 0 46.314 11.997t24.552 32.085q0 18.414 -14.787 32.364t-35.433 24.552 -41.571 23.157 -35.712 35.433 -14.787 54.684v13.392t.558 6.417 1.674 6.417 3.069 4.464 5.022 3.906 7.533 1.116h107.136q9.486 0 13.392 -5.859t4.464 -13.671 7.533 -18.414 20.925 -17.856q33.48 -18.414 39.06 -21.762 34.596 -24.552 54.963 -60.264t20.367 -76.446q0 -54.126 -32.643 -95.976t-80.631 -62.217 -100.998 -20.367 -100.998 20.367 -80.631 62.217 -32.643 95.976v13.392zm142.848 361.584q0 7.254 5.301 12.555t12.555 5.301h107.136q7.254 0 12.555 -5.301t5.301 -12.555v-107.136q0 -7.254 -5.301 -12.555t-12.555 -5.301h-107.136q-7.254 0 -12.555 5.301t-5.301 12.555v107.136z"/></svg>