<svg height="1000px" width="779.78515625px" xmlns="http://www.w3.org/2000/svg">
  <g>
    <path d="M0 500c0 -54.036 10.173 -104.736 30.518 -152.1c20.345 -47.363 48.177 -88.704 83.496 -124.023c35.319 -35.319 76.66 -63.151 124.023 -83.496c47.363 -20.345 98.063 -30.518 152.1 -30.518c54.036 0 104.655 10.173 151.855 30.518c47.201 20.345 88.542 48.177 124.024 83.496c35.481 35.319 63.313 76.66 83.496 124.023c20.182 47.364 30.273 98.064 30.273 152.1c0 54.036 -10.091 104.736 -30.273 152.1c-20.183 47.363 -48.015 88.704 -83.496 124.023c-35.482 35.319 -76.823 63.151 -124.024 83.496c-47.2 20.345 -97.819 30.518 -151.855 30.518c-54.037 0 -104.737 -10.173 -152.1 -30.518c-47.363 -20.345 -88.704 -48.177 -124.023 -83.496c-35.319 -35.319 -63.151 -76.66 -83.496 -124.023c-20.345 -47.364 -30.518 -98.064 -30.518 -152.1c0 0 0 0 0 0m259.766 -162.109c0 0 46.386 56.152 46.386 56.152c1.302 2.604 4.558 4.557 9.766 5.859c3.906 0 7.65 -0.976 11.23 -2.929c0 0 4.883 -3.907 4.883 -3.907c0 0 4.476 -2.848 13.428 -8.545c8.952 -5.696 15.299 -8.382 19.043 -8.056c3.743 0.325 11.312 -0.814 22.705 -3.418c13.346 0 24.658 3.662 33.936 10.986c9.277 7.324 13.916 16.683 13.916 28.076c0 12.045 -3.988 22.543 -11.963 31.495c-7.976 8.951 -17.985 18.798 -30.03 29.541c-7.487 5.859 -15.055 12.451 -22.705 19.775c-7.649 7.324 -14.648 15.706 -20.996 25.146c-6.347 9.441 -11.474 19.776 -15.381 31.006c-3.906 11.231 -5.859 24.17 -5.859 38.819c0 0 0 31.25 0 31.25c0 3.906 1.465 7.324 4.395 10.254c2.929 2.929 6.347 4.394 10.253 4.394c0 0 80.079 0 80.079 0c3.906 0 7.242 -1.465 10.009 -4.394c2.767 -2.93 4.151 -6.348 4.151 -10.254c0 0 0 -24.903 0 -24.903c0 -12.695 4.15 -23.519 12.451 -32.47c8.301 -8.952 18.473 -18.799 30.517 -29.541c8.138 -6.511 16.195 -13.998 24.17 -22.461c7.976 -8.464 15.463 -17.741 22.461 -27.832c6.999 -10.092 12.614 -21.403 16.846 -33.936c4.232 -12.533 6.348 -27.262 6.348 -44.189c0 -22.136 -4.476 -41.83 -13.428 -59.082c-8.952 -17.253 -20.915 -31.495 -35.889 -42.725c-14.974 -11.231 -31.819 -19.857 -50.537 -25.879c-18.717 -6.022 -37.353 -9.033 -55.908 -9.033c-20.508 0 -38.981 2.685 -55.42 8.056c-16.439 5.372 -30.355 11.15 -41.748 17.334c-11.393 6.185 -20.02 11.963 -25.879 17.334c-5.859 5.372 -9.114 8.383 -9.766 9.034c-5.208 5.208 -5.696 11.556 -1.464 19.043c0 0 0 0 0 0m68.359 414.062c0 3.906 1.465 7.406 4.395 10.498c2.929 3.093 6.347 4.639 10.253 4.639c0 0 80.079 0 80.079 0c3.906 0 7.242 -1.546 10.009 -4.639c2.767 -3.092 4.151 -6.592 4.151 -10.498c0 0 0 -76.172 0 -76.172c0 -3.906 -1.302 -7.324 -3.907 -10.254c-2.604 -2.929 -6.022 -4.394 -10.253 -4.394c0 0 -80.079 0 -80.079 0c-3.906 0 -7.324 1.465 -10.253 4.394c-2.93 2.93 -4.395 6.348 -4.395 10.254c0 0 0 76.172 0 76.172c0 0 0 0 0 0" />
  </g>
</svg>