<svg height="1000px" width="857.1428571428571px" xmlns="http://www.w3.org/2000/svg">
  <g>
    <path d="M0 499.99999999999994c0 -77.753 19.159 -149.461 57.478 -215.123c38.318 -65.662 90.308 -117.652 155.971 -155.971c65.662 -38.318 137.369 -57.477 215.122 -57.477c77.753 0 149.461 19.159 215.123 57.477c65.662 38.319 117.653 90.309 155.971 155.971c38.319 65.662 57.478 137.37 57.478 215.123c0 77.753 -19.159 149.461 -57.478 215.123c-38.318 65.662 -90.309 117.652 -155.971 155.971c-65.662 38.318 -137.37 57.477 -215.123 57.477c-77.753 0 -149.46 -19.159 -215.122 -57.477c-65.663 -38.319 -117.653 -90.309 -155.971 -155.971c-38.319 -65.662 -57.478 -137.37 -57.478 -215.123c0 0 0 0 0 0m214.286 -93.75c0 1.116 0.186 3.255 0.558 6.417c0.372 3.163 0.93 5.302 1.674 6.418c0.744 1.116 1.767 2.604 3.069 4.464c1.302 1.86 2.976 3.162 5.022 3.906c2.047 0.744 4.558 1.116 7.534 1.116c0 0 107.143 0 107.143 0c5.208 0 9.486 -1.674 12.835 -5.022c3.348 -3.348 5.022 -7.626 5.022 -12.835c0 -4.464 2.046 -9.486 6.138 -15.067c7.069 -11.532 16.462 -20.833 28.181 -27.901c11.719 -7.069 24.089 -10.603 37.109 -10.603c14.509 0 29.948 3.999 46.317 11.998c16.369 7.998 24.554 18.694 24.554 32.087c0 12.276 -4.929 23.065 -14.788 32.366c-9.859 9.3 -21.67 17.485 -35.435 24.553c-13.765 7.069 -27.623 14.788 -41.574 23.159c-13.951 8.37 -25.856 20.182 -35.714 35.435c-9.859 15.253 -14.788 33.482 -14.788 54.688c0 0 0 6.138 0 6.138c0 0 0 7.254 0 7.254c0 0 0.186 2.14 0.558 6.418c0.372 4.278 0.93 6.417 1.674 6.417c0.744 0 1.767 1.488 3.069 4.465c1.302 2.976 2.976 4.278 5.023 3.906c2.046 -0.372 4.557 0 7.533 1.116c0 0 107.143 0 107.143 0c6.324 0 10.789 -1.953 13.393 -5.86c2.604 -3.906 4.092 -8.463 4.464 -13.671c0.372 -5.209 2.883 -11.347 7.533 -18.416c4.651 -7.068 11.626 -13.02 20.927 -17.857c22.321 -12.276 35.342 -19.531 39.062 -21.763c23.066 -16.369 41.388 -36.458 54.967 -60.268c13.579 -23.809 20.368 -49.293 20.368 -76.451c0 -36.086 -10.882 -68.08 -32.645 -95.982c-21.763 -27.902 -48.642 -48.642 -80.636 -62.221c-31.994 -13.579 -65.662 -20.368 -101.005 -20.368c-35.342 0 -69.01 6.789 -101.004 20.368c-31.994 13.579 -58.873 34.319 -80.636 62.221c-21.764 27.902 -32.645 59.896 -32.645 95.982c0 0 0 6.139 0 6.139c0 0 0 7.254 0 7.254c0 0 0 0 0 0m142.857 361.607c0 4.836 1.767 9.022 5.301 12.556c3.534 3.534 7.72 5.301 12.556 5.301c0 0 107.143 0 107.143 0c4.836 0 9.021 -1.767 12.556 -5.301c3.534 -3.534 5.301 -7.72 5.301 -12.556c0 0 0 -107.143 0 -107.143c0 -4.836 -1.767 -9.021 -5.301 -12.556c-3.535 -3.534 -7.72 -5.301 -12.556 -5.301c0 0 -107.143 0 -107.143 0c-4.836 0 -9.022 1.767 -12.556 5.301c-3.534 3.535 -5.301 7.72 -5.301 12.556c0 0 0 107.143 0 107.143c0 0 0 0 0 0" />
  </g>
</svg>