<svg height="1000" width="857.1" xmlns="http://www.w3.org/2000/svg"><path d="M0 500q0-116.6 57.5-215.1t156-156 215.1-57.5 215.1 57.5 156 156 57.5 215.1-57.5 215.1-156 156-215.1 57.5-215.1-57.5-156-156-57.5-215.1zm214.3-93.7q0 1.7.6 6.4t1.7 6.4 3.1 4.5 5 3.9 7.5 1.1h107.1q7.8 0 12.8-5t5-12.8q0-6.7 6.1-15.1 10.6-17.3 28.2-27.9t37.1-10.6q21.8 0 46.3 12t24.6 32.1q0 18.4-14.8 32.4t-35.4 24.6-41.6 23.2-35.7 35.4-14.8 54.7v13.399999999999999l.6 6.4 1.7 6.4 3.1 4.5 5 3.9 7.5 1.1h107.1q9.5 0 13.4-5.9t4.5-13.7 7.5-18.4 20.9-17.9q33.5-18.4 39.1-21.8 34.6-24.6 55-60.3t20.4-76.4q0-54.1-32.6-96t-80.6-62.2-101-20.4-101 20.4-80.6 62.2-32.6 96v13.399999999999999zm142.8 361.6q0 7.3 5.3 12.6t12.6 5.3h107.1q7.3 0 12.6-5.3t5.3-12.6v-107.1q0-7.3-5.3-12.6t-12.6-5.3h-107.1q-7.3 0-12.6 5.3t-5.3 12.6v107.1z"/></svg>