<svg height="1000" width="857.1" xmlns="http://www.w3.org/2000/svg"><path d="M857.1 500q0 87.1 -34 166.3T731.6 803t-136.7 91.5 -166.3 34.1q-96 0 -182.5 -40.5T98.8 774q-3.9 -5.6 -3.7 -12.6T99.9 750l76.4 -77q5.6 -5 14 -5 8.9 1.1 12.8 6.7 40.8 53 99.9 82t125.6 29q58 0 110.7 -22.6T630.6 702t61.1 -91.2T714.3 500 691.7 389.2 630.6 298t-91.3 -61.1T428.6 214.3q-54.7 0 -104.9 19.8t-89.3 56.6l76.4 77q17.3 16.8 7.8 38.5 -9.4 22.4 -32.9 22.4h-250q-14.5 0 -25.1 -10.6T0 392.9v-250q0 -23.5 22.3 -33 21.8 -9.5 38.5 7.8l72.6 72q59.7 -56.3 136.4 -87.3t158.8 -31q87 0 166.3 34.1T731.6 197t91.5 136.7 34 166.3zM500 339.3v250q0 7.8 -5 12.8t-12.9 5H303.6q-7.8 0 -12.9 -5t-5 -12.8v-35.7q0 -7.8 5 -12.9t12.9 -5h125V339.3q0 -7.8 5 -12.8t12.8 -5.1h35.7q7.9 0 12.9 5.1t5 12.8z"/></svg>