<svg height="1000px" width="917.96875px" xmlns="http://www.w3.org/2000/svg">
  <g>
    <path d="M0 487.3046875c0.651 -5.046 2.93 -9.359 6.836 -12.939c0 0 423.34 -346.68 423.34 -346.68c8.789 -6.511 18.392 -9.929 28.808 -10.254c10.743 0 20.345 3.418 28.809 10.254c0 0 117.187 95.703 117.187 95.703c0 0 0 -49.805 0 -49.805c0 -5.208 1.872 -9.684 5.616 -13.427c3.743 -3.744 8.219 -5.616 13.427 -5.616c0 0 108.887 0 108.887 0c5.208 0 9.522 1.872 12.94 5.616c3.418 3.743 5.127 8.219 5.127 13.427c0 0 0 169.922 0 169.922c0 0 160.156 130.86 160.156 130.86c3.906 3.255 6.185 7.405 6.836 12.451c0.651 5.045 -0.651 9.684 -3.907 13.916c0 0 -21.972 25.879 -21.972 25.879c-3.255 4.557 -7.975 6.836 -14.16 6.836c0 0 -31.739 0 -31.739 0c-5.208 0 -9.277 -1.303 -12.207 -3.907c0 0 -362.793 -296.875 -362.793 -296.875c-8.138 -6.51 -16.276 -6.51 -24.414 0c0 0 -362.793 296.875 -362.793 296.875c-2.604 2.604 -6.673 3.907 -12.207 3.907c0 0 -31.738 0 -31.738 0c-5.859 0 -10.579 -2.279 -14.16 -6.836c0 0 -21.973 -25.879 -21.973 -25.879c-3.255 -3.907 -4.557 -8.382 -3.906 -13.428c0 0 0 0 0 0m129.883 358.154c0 0 0 -303.711 0 -303.711c0 0 329.101 -270.019 329.101 -270.019c0 0 329.102 270.019 329.102 270.019c0 0 0 303.711 0 303.711c0 10.742 -3.499 19.613 -10.498 26.612c-6.999 6.998 -15.869 10.498 -26.611 10.498c0 0 -206.055 0 -206.055 0c0 0 0 -243.164 0 -243.164c0 0 -171.875 0 -171.875 0c0 0 0 243.164 0 243.164c0 0 -206.055 0 -206.055 0c-10.742 0 -19.612 -3.5 -26.611 -10.498c-6.999 -6.999 -10.498 -15.87 -10.498 -26.612c0 0 0 0 0 0" />
  </g>
</svg>