<svg height="1000px" width="900px" xmlns="http://www.w3.org/2000/svg">
  <g>
    <path d="M1 490.5c2 -7.667 6.333 -14.167 13 -19.5c0 0 412 -338 412 -338c7.333 -5.333 15.333 -8 24 -8c8.667 0 16.667 2.667 24 8c0 0 126 104 126 104c0 0 0 -58 0 -58c0 -12.667 6.333 -19 19 -19c0 0 112 0 112 0c12.667 0 19 6.333 19 19c0 0 0 180 0 180c0 0 136 112 136 112c6.667 5.333 11 11.833 13 19.5c2 7.667 1.667 15.167 -1 22.5c-6.667 16 -18.667 24 -36 24c0 0 -75 0 -75 0c0 0 0 300 0 300c0 10.667 -3.5 19.667 -10.5 27c-7 7.333 -15.833 11 -26.5 11c0 0 -206 0 -206 0c0 0 0 -225 0 -225c0 0 -188 0 -188 0c0 0 0 225 0 225c0 0 -206 0 -206 0c-10.667 0 -19.667 -3.667 -27 -11c-7.333 -7.333 -11 -16.333 -11 -27c0 0 0 -300 0 -300c0 0 -75 0 -75 0c-16.667 0 -28.333 -8 -35 -24c-2.667 -7.333 -3 -14.833 -1 -22.5c0 0 0 0 0 0" />
  </g>
</svg>