<svg height="1000" width="928.6" xmlns="http://www.w3.org/2000/svg"><path d="M14.5 502q.6-7.5 6.1-12l401.2-334.2q17.9-14.5 42.4-14.5t42.4 14.5l136.2 113.8v-108.8q0-7.8 5-12.8t12.8-5h107.1q7.8 0 12.8 5t5 12.8v227.7l122.2 101.6q5.6 4.5 6.1 12t-3.9 13.1l-34.6 41.3q-4.5 5-11.7 6.1h-1.7q-7.3 0-11.7-3.9l-386.1-322-386.1 322q-6.7 4.5-13.4 3.9-7.3-1.1-11.7-6.1l-34.6-41.3q-4.5-5.6-3.9-13.1zm128.3 319.5v-267.8q0-.6.3-1.7t.3-1.7l320.9-264.5 320.9 264.5q.6 1.1.6 3.3v267.8q0 14.5-10.6 25.1t-25.1 10.6h-214.3v-214.3h-142.8v214.3h-214.3q-14.5 0-25.1-10.6t-10.6-25.1z"/></svg>