<svg height="1000" width="900" xmlns="http://www.w3.org/2000/svg"><path d="M.062 501.985q.558-7.533 6.138-11.997l401.202-334.242q17.856-14.508 42.408-14.508t42.408 14.508l136.152 113.832l0-108.81q0-7.812 5.022-12.834t12.834-5.022l107.136 0q7.812 0 12.834 5.022t5.022 12.834l0 227.664l122.202 101.556q5.58 4.464 6.138 11.997t-3.906 13.113l-34.596 41.292q-4.464 5.022-11.718 6.138l-1.674 0q-7.254 0-11.718-3.906l-386.136-321.966-386.136 321.966q-6.696 4.464-13.392 3.906-7.254-1.116-11.718-6.138l-34.596-41.292q-4.464-5.58-3.906-13.113zm128.34 319.455l0-267.84q0-.558.279-1.674t.279-1.674l320.85-264.492 320.85 264.492q.558 1.116.558 3.348l0 267.84q0 14.508-10.602 25.11t-25.11 10.602l-214.272 0l0-214.272l-142.848 0l0 214.272l-214.272 0q-14.508 0-25.11-10.602t-10.602-25.11z"/></svg>