<svg height="1000px" width="928.5714285714286px" xmlns="http://www.w3.org/2000/svg">
  <g>
    <path d="M14.446930803571428 503.60323660714283c0 -5.792 2.067 -10.341 6.2 -13.648c0 0 401.228 -334.263 401.228 -334.263c11.905 -9.673 26.042 -14.509 42.411 -14.509c16.369 0 30.506 4.836 42.41 14.509c0 0 136.161 113.839 136.161 113.839c0 0 0 -108.817 0 -108.817c0 -5.208 1.674 -9.486 5.023 -12.835c3.348 -3.348 7.626 -5.022 12.834 -5.022c0 0 107.143 0 107.143 0c5.209 0 9.487 1.674 12.835 5.022c3.348 3.349 5.022 7.627 5.022 12.835c0 0 0 227.679 0 227.679c0 0 122.21 101.562 122.21 101.562c4.134 3.307 6.201 7.856 6.201 13.648c0 4.336 -1.323 8.157 -3.969 11.464c0 0 -34.598 41.294 -34.598 41.294c-2.976 3.349 -6.882 5.395 -11.719 6.139c0 0 -1.674 0 -1.674 0c-4.836 0 -8.742 -1.302 -11.718 -3.906c0 0 -386.161 -321.987 -386.161 -321.987c0 0 -386.161 321.987 -386.161 321.987c-9.673 6.324 -18.043 5.58 -25.112 -2.233c0 0 -34.598 -41.294 -34.598 -41.294c-2.645 -3.307 -3.968 -7.128 -3.968 -11.464c0 0 0 0 0 0m128.41 317.825c0 0 0 -267.857 0 -267.857c0 0 0.558 -3.348 0.558 -3.348c0 0 320.871 -264.509 320.871 -264.509c0 0 320.87 264.509 320.87 264.509c0.372 0.744 0.558 1.86 0.558 3.348c0 0 0 267.857 0 267.857c0 9.673 -3.534 18.043 -10.602 25.112c-7.069 7.068 -15.439 10.603 -25.112 10.603c0 0 -214.286 0 -214.286 0c0 0 0 -214.286 0 -214.286c0 0 -142.857 0 -142.857 0c0 0 0 214.286 0 214.286c0 0 -214.286 0 -214.286 0c-9.672 0 -18.043 -3.535 -25.111 -10.603c-7.069 -7.069 -10.603 -15.439 -10.603 -25.112c0 0 0 0 0 0" />
  </g>
</svg>