<svg height="1000px" width="928.5714285714286px" xmlns="http://www.w3.org/2000/svg">
  <g>
    <path d="M910.15625 515.0669642857142c0 0 -34.598 41.295 -34.598 41.295c-2.976 3.348 -6.883 5.394 -11.719 6.138c0 0 -1.674 0 -1.674 0c-4.836 0 -8.743 -1.302 -11.719 -3.906c0 0 -386.161 -321.987 -386.161 -321.987c0 0 -386.16 321.987 -386.16 321.987c-9.673 6.324 -18.043 5.58 -25.112 -2.232c0 0 -34.598 -41.295 -34.598 -41.295c-2.976 -3.72 -4.278 -8.092 -3.906 -13.114c0.372 -5.022 2.418 -9.021 6.138 -11.998c0 0 401.228 -334.263 401.228 -334.263c11.905 -9.673 26.041 -14.509 42.41 -14.509c16.37 0 30.506 4.836 42.411 14.509c0 0 136.161 113.839 136.161 113.839c0 0 0 -108.817 0 -108.817c0 -5.208 1.674 -9.486 5.022 -12.835c3.348 -3.348 7.627 -5.022 12.835 -5.022c0 0 107.143 0 107.143 0c5.208 0 9.486 1.674 12.835 5.022c3.348 3.349 5.022 7.627 5.022 12.835c0 0 0 227.679 0 227.679c0 0 122.21 101.562 122.21 101.562c3.72 2.977 5.766 6.976 6.138 11.998c0.372 5.022 -0.93 9.394 -3.906 13.114c0 0 0 0 0 0m-767.299 38.504c0 0 0.558 -3.348 0.558 -3.348c0 0 320.87 -264.509 320.87 -264.509c0 0 320.871 264.509 320.871 264.509c0.372 0.744 0.558 1.86 0.558 3.348c0 0 0 267.858 0 267.858c0 9.672 -3.534 18.043 -10.603 25.111c-7.068 7.069 -15.439 10.603 -25.111 10.603c0 0 -214.286 0 -214.286 0c0 0 0 -214.286 0 -214.286c0 0 -142.857 0 -142.857 0c0 0 0 214.286 0 214.286c0 0 -214.286 0 -214.286 0c-9.672 0 -18.043 -3.534 -25.111 -10.603c-7.069 -7.068 -10.603 -15.439 -10.603 -25.111c0 0 0 -267.858 0 -267.858c0 0 0 0 0 0" />
  </g>
</svg>