<svg height="1000" width="786" xmlns="http://www.w3.org/2000/svg"><path d="M0 964.288l0-714.24q0-14.508 10.602-25.11t25.11-10.602l178.56 0l0-160.704q0-22.32 15.624-37.944t37.944-15.624l249.984 0q22.32 0 37.944 15.624t15.624 37.944l0 160.704l178.56 0q14.508 0 25.11 10.602t10.602 25.11l0 714.24q0 14.508-10.602 25.11t-25.11 10.602l-714.24 0q-14.508 0-25.11-10.602t-10.602-25.11zm71.424-35.712l214.272 0l0-124.992q0-7.254 5.301-12.555t12.555-5.301l178.56 0q7.254 0 12.555 5.301t5.301 12.555l0 124.992l214.272 0l0-642.816l-142.848 0l0 17.856q0 22.32-15.624 37.944t-37.944 15.624l-249.984 0q-22.32 0-37.944-15.624t-15.624-37.944l0-17.856l-142.848 0l0 642.816zm71.424-160.704l0-35.712q0-7.254 5.301-12.555t12.555-5.301l35.712 0q7.254 0 12.555 5.301t5.301 12.555l0 35.712q0 7.254-5.301 12.555t-12.555 5.301l-35.712 0q-7.254 0-12.555-5.301t-5.301-12.555zm0-142.848l0-35.712q0-7.254 5.301-12.555t12.555-5.301l35.712 0q7.254 0 12.555 5.301t5.301 12.555l0 35.712q0 7.254-5.301 12.555t-12.555 5.301l-35.712 0q-7.254 0-12.555-5.301t-5.301-12.555zm0-142.848l0-35.712q0-7.254 5.301-12.555t12.555-5.301l35.712 0q7.254 0 12.555 5.301t5.301 12.555l0 35.712q0 7.254-5.301 12.555t-12.555 5.301l-35.712 0q-7.254 0-12.555-5.301t-5.301-12.555zm142.848 142.848l0-35.712q0-7.254 5.301-12.555t12.555-5.301l35.712 0q7.254 0 12.555 5.301t5.301 12.555l0 35.712q0 7.254-5.301 12.555t-12.555 5.301l-35.712 0q-7.254 0-12.555-5.301t-5.301-12.555zm0-142.848l0-35.712q0-7.254 5.301-12.555t12.555-5.301l35.712 0q7.254 0 12.555 5.301t5.301 12.555l0 35.712q0 7.254-5.301 12.555t-12.555 5.301l-35.712 0q-7.254 0-12.555-5.301t-5.301-12.555zm0-214.272q0 7.254 5.301 12.555t12.555 5.301l35.712 0q7.254 0 12.555-5.301t5.301-12.555l0-53.568l71.424 0l0 53.568q0 7.254 5.301 12.555t12.555 5.301l35.712 0q7.254 0 12.555-5.301t5.301-12.555l0-178.56q0-7.254-5.301-12.555t-12.555-5.301l-35.712 0q-7.254 0-12.555 5.301t-5.301 12.555l0 53.568l-71.424 0l0-53.568q0-7.254-5.301-12.555t-12.555-5.301l-35.712 0q-7.254 0-12.555 5.301t-5.301 12.555l0 178.56zm142.848 357.12l0-35.712q0-7.254 5.301-12.555t12.555-5.301l35.712 0q7.254 0 12.555 5.301t5.301 12.555l0 35.712q0 7.254-5.301 12.555t-12.555 5.301l-35.712 0q-7.254 0-12.555-5.301t-5.301-12.555zm0-142.848l0-35.712q0-7.254 5.301-12.555t12.555-5.301l35.712 0q7.254 0 12.555 5.301t5.301 12.555l0 35.712q0 7.254-5.301 12.555t-12.555 5.301l-35.712 0q-7.254 0-12.555-5.301t-5.301-12.555zm142.848 285.696l0-35.712q0-7.254 5.301-12.555t12.555-5.301l35.712 0q7.254 0 12.555 5.301t5.301 12.555l0 35.712q0 7.254-5.301 12.555t-12.555 5.301l-35.712 0q-7.254 0-12.555-5.301t-5.301-12.555zm0-142.848l0-35.712q0-7.254 5.301-12.555t12.555-5.301l35.712 0q7.254 0 12.555 5.301t5.301 12.555l0 35.712q0 7.254-5.301 12.555t-12.555 5.301l-35.712 0q-7.254 0-12.555-5.301t-5.301-12.555zm0-142.848l0-35.712q0-7.254 5.301-12.555t12.555-5.301l35.712 0q7.254 0 12.555 5.301t5.301 12.555l0 35.712q0 7.254-5.301 12.555t-12.555 5.301l-35.712 0q-7.254 0-12.555-5.301t-5.301-12.555z"/></svg>