<svg height="1000px" width="785.7142857142858px" xmlns="http://www.w3.org/2000/svg">
  <g>
    <path d="M785.7142857142858 250c0 0 0 714.286 0 714.286c0 9.672 -3.534 18.043 -10.603 25.111c-7.068 7.069 -15.439 10.603 -25.111 10.603c0 0 -714.286 0 -714.286 0c-9.673 0 -18.043 -3.534 -25.112 -10.603c-7.068 -7.068 -10.602 -15.439 -10.602 -25.111c0 0 0 -714.286 0 -714.286c0 -9.673 3.534 -18.043 10.602 -25.112c7.069 -7.068 15.439 -10.602 25.112 -10.602c0 0 178.571 0 178.571 0c0 0 0 -160.715 0 -160.715c0 -14.881 5.209 -27.529 15.625 -37.946c10.417 -10.417 23.066 -15.625 37.947 -15.625c0 0 250 0 250 0c14.881 0 27.53 5.208 37.946 15.625c10.417 10.417 15.625 23.065 15.625 37.946c0 0 0 160.715 0 160.715c0 0 178.572 0 178.572 0c9.672 0 18.043 3.534 25.111 10.602c7.069 7.069 10.603 15.439 10.603 25.112c0 0 0 0 0 0m-285.714 17.857c0 0 0 -178.571 0 -178.571c0 -4.837 -1.767 -9.022 -5.302 -12.556c-3.534 -3.534 -7.719 -5.301 -12.555 -5.301c0 0 -35.715 0 -35.715 0c-4.836 0 -9.021 1.767 -12.556 5.301c-3.534 3.534 -5.301 7.719 -5.301 12.556c0 0 0 53.571 0 53.571c0 0 -71.428 0 -71.428 0c0 0 0 -53.571 0 -53.571c0 -4.837 -1.768 -9.022 -5.302 -12.556c-3.534 -3.534 -7.719 -5.301 -12.556 -5.301c0 0 -35.714 0 -35.714 0c-4.836 0 -9.021 1.767 -12.556 5.301c-3.534 3.534 -5.301 7.719 -5.301 12.556c0 0 0 178.571 0 178.571c0 4.836 1.767 9.022 5.301 12.556c3.535 3.534 7.72 5.301 12.556 5.301c0 0 35.714 0 35.714 0c4.837 0 9.022 -1.767 12.556 -5.301c3.534 -3.534 5.302 -7.72 5.302 -12.556c0 0 0 -53.571 0 -53.571c0 0 71.428 0 71.428 0c0 0 0 53.571 0 53.571c0 4.836 1.767 9.022 5.301 12.556c3.535 3.534 7.72 5.301 12.556 5.301c0 0 35.715 0 35.715 0c4.836 0 9.021 -1.767 12.555 -5.301c3.535 -3.534 5.302 -7.72 5.302 -12.556c0 0 0 0 0 0m0 660.714c0 0 214.285 0 214.285 0c0 0 0 -642.857 0 -642.857c0 0 -142.857 0 -142.857 0c0 0 0 17.857 0 17.857c0 14.881 -5.208 27.53 -15.625 37.947c-10.416 10.417 -23.065 15.625 -37.946 15.625c0 0 -250 0 -250 0c-14.881 0 -27.53 -5.208 -37.947 -15.625c-10.416 -10.417 -15.625 -23.066 -15.625 -37.947c0 0 0 -17.857 0 -17.857c0 0 -142.857 0 -142.857 0c0 0 0 642.857 0 642.857c0 0 214.286 0 214.286 0c0 0 0 -125 0 -125c0 -4.836 1.767 -9.021 5.301 -12.555c3.535 -3.535 7.72 -5.302 12.556 -5.302c0 0 178.572 0 178.572 0c4.836 0 9.021 1.767 12.555 5.302c3.535 3.534 5.302 7.719 5.302 12.555c0 0 0 125 0 125c0 0 0 0 0 0m142.857 -482.142c0 0 0 35.714 0 35.714c0 4.836 -1.767 9.021 -5.301 12.556c-3.535 3.534 -7.72 5.301 -12.556 5.301c0 0 -35.715 0 -35.715 0c-4.836 0 -9.021 -1.767 -12.555 -5.301c-3.535 -3.535 -5.302 -7.72 -5.302 -12.556c0 0 0 -35.714 0 -35.714c0 -4.837 1.767 -9.022 5.302 -12.556c3.534 -3.534 7.719 -5.302 12.555 -5.302c0 0 35.715 0 35.715 0c4.836 0 9.021 1.768 12.556 5.302c3.534 3.534 5.301 7.719 5.301 12.556c0 0 0 0 0 0m-142.857 0c0 0 0 35.714 0 35.714c0 4.836 -1.767 9.021 -5.302 12.556c-3.534 3.534 -7.719 5.301 -12.555 5.301c0 0 -35.715 0 -35.715 0c-4.836 0 -9.021 -1.767 -12.556 -5.301c-3.534 -3.535 -5.301 -7.72 -5.301 -12.556c0 0 0 -35.714 0 -35.714c0 -4.837 1.767 -9.022 5.301 -12.556c3.535 -3.534 7.72 -5.302 12.556 -5.302c0 0 35.715 0 35.715 0c4.836 0 9.021 1.768 12.555 5.302c3.535 3.534 5.302 7.719 5.302 12.556c0 0 0 0 0 0m142.857 142.857c0 0 0 35.714 0 35.714c0 4.836 -1.767 9.022 -5.301 12.556c-3.535 3.534 -7.72 5.301 -12.556 5.301c0 0 -35.715 0 -35.715 0c-4.836 0 -9.021 -1.767 -12.555 -5.301c-3.535 -3.534 -5.302 -7.72 -5.302 -12.556c0 0 0 -35.714 0 -35.714c0 -4.837 1.767 -9.022 5.302 -12.556c3.534 -3.534 7.719 -5.301 12.555 -5.301c0 0 35.715 0 35.715 0c4.836 0 9.021 1.767 12.556 5.301c3.534 3.534 5.301 7.719 5.301 12.556c0 0 0 0 0 0m-285.714 -142.857c0 0 0 35.714 0 35.714c0 4.836 -1.768 9.021 -5.302 12.556c-3.534 3.534 -7.719 5.301 -12.556 5.301c0 0 -35.714 0 -35.714 0c-4.836 0 -9.021 -1.767 -12.556 -5.301c-3.534 -3.535 -5.301 -7.72 -5.301 -12.556c0 0 0 -35.714 0 -35.714c0 -4.837 1.767 -9.022 5.301 -12.556c3.535 -3.534 7.72 -5.302 12.556 -5.302c0 0 35.714 0 35.714 0c4.837 0 9.022 1.768 12.556 5.302c3.534 3.534 5.302 7.719 5.302 12.556c0 0 0 0 0 0m142.857 142.857c0 0 0 35.714 0 35.714c0 4.836 -1.767 9.022 -5.302 12.556c-3.534 3.534 -7.719 5.301 -12.555 5.301c0 0 -35.715 0 -35.715 0c-4.836 0 -9.021 -1.767 -12.556 -5.301c-3.534 -3.534 -5.301 -7.72 -5.301 -12.556c0 0 0 -35.714 0 -35.714c0 -4.837 1.767 -9.022 5.301 -12.556c3.535 -3.534 7.72 -5.301 12.556 -5.301c0 0 35.715 0 35.715 0c4.836 0 9.021 1.767 12.555 5.301c3.535 3.534 5.302 7.719 5.302 12.556c0 0 0 0 0 0m142.857 142.857c0 0 0 35.714 0 35.714c0 4.836 -1.767 9.022 -5.301 12.556c-3.535 3.534 -7.72 5.301 -12.556 5.301c0 0 -35.715 0 -35.715 0c-4.836 0 -9.021 -1.767 -12.555 -5.301c-3.535 -3.534 -5.302 -7.72 -5.302 -12.556c0 0 0 -35.714 0 -35.714c0 -4.836 1.767 -9.022 5.302 -12.556c3.534 -3.534 7.719 -5.301 12.555 -5.301c0 0 35.715 0 35.715 0c4.836 0 9.021 1.767 12.556 5.301c3.534 3.534 5.301 7.72 5.301 12.556c0 0 0 0 0 0m-428.572 -285.714c0 0 0 35.714 0 35.714c0 4.836 -1.767 9.021 -5.301 12.556c-3.534 3.534 -7.719 5.301 -12.556 5.301c0 0 -35.714 0 -35.714 0c-4.836 0 -9.022 -1.767 -12.556 -5.301c-3.534 -3.535 -5.301 -7.72 -5.301 -12.556c0 0 0 -35.714 0 -35.714c0 -4.837 1.767 -9.022 5.301 -12.556c3.534 -3.534 7.72 -5.302 12.556 -5.302c0 0 35.714 0 35.714 0c4.837 0 9.022 1.768 12.556 5.302c3.534 3.534 5.301 7.719 5.301 12.556c0 0 0 0 0 0m142.858 142.857c0 0 0 35.714 0 35.714c0 4.836 -1.768 9.022 -5.302 12.556c-3.534 3.534 -7.719 5.301 -12.556 5.301c0 0 -35.714 0 -35.714 0c-4.836 0 -9.021 -1.767 -12.556 -5.301c-3.534 -3.534 -5.301 -7.72 -5.301 -12.556c0 0 0 -35.714 0 -35.714c0 -4.837 1.767 -9.022 5.301 -12.556c3.535 -3.534 7.72 -5.301 12.556 -5.301c0 0 35.714 0 35.714 0c4.837 0 9.022 1.767 12.556 5.301c3.534 3.534 5.302 7.719 5.302 12.556c0 0 0 0 0 0m-142.858 0c0 0 0 35.714 0 35.714c0 4.836 -1.767 9.022 -5.301 12.556c-3.534 3.534 -7.719 5.301 -12.556 5.301c0 0 -35.714 0 -35.714 0c-4.836 0 -9.022 -1.767 -12.556 -5.301c-3.534 -3.534 -5.301 -7.72 -5.301 -12.556c0 0 0 -35.714 0 -35.714c0 -4.837 1.767 -9.022 5.301 -12.556c3.534 -3.534 7.72 -5.301 12.556 -5.301c0 0 35.714 0 35.714 0c4.837 0 9.022 1.767 12.556 5.301c3.534 3.534 5.301 7.719 5.301 12.556c0 0 0 0 0 0m0 142.857c0 0 0 35.714 0 35.714c0 4.836 -1.767 9.022 -5.301 12.556c-3.534 3.534 -7.719 5.301 -12.556 5.301c0 0 -35.714 0 -35.714 0c-4.836 0 -9.022 -1.767 -12.556 -5.301c-3.534 -3.534 -5.301 -7.72 -5.301 -12.556c0 0 0 -35.714 0 -35.714c0 -4.836 1.767 -9.022 5.301 -12.556c3.534 -3.534 7.72 -5.301 12.556 -5.301c0 0 35.714 0 35.714 0c4.837 0 9.022 1.767 12.556 5.301c3.534 3.534 5.301 7.72 5.301 12.556c0 0 0 0 0 0" />
  </g>
</svg>