<svg height="1000" width="785.714" xmlns="http://www.w3.org/2000/svg"><path d="M214.272 732.16v35.712q0 7.254 -5.301 12.555t-12.555 5.301h-35.712q-7.254 0 -12.555 -5.301t-5.301 -12.555v-35.712q0 -7.254 5.301 -12.555t12.555 -5.301h35.712q7.254 0 12.555 5.301t5.301 12.555zm0 -142.848v35.712q0 7.254 -5.301 12.555t-12.555 5.301h-35.712q-7.254 0 -12.555 -5.301t-5.301 -12.555v-35.712q0 -7.254 5.301 -12.555t12.555 -5.301h35.712q7.254 0 12.555 5.301t5.301 12.555zm142.848 0v35.712q0 7.254 -5.301 12.555t-12.555 5.301h-35.712q-7.254 0 -12.555 -5.301t-5.301 -12.555v-35.712q0 -7.254 5.301 -12.555t12.555 -5.301h35.712q7.254 0 12.555 5.301t5.301 12.555zm-142.848 -142.848v35.712q0 7.254 -5.301 12.555t-12.555 5.301h-35.712q-7.254 0 -12.555 -5.301t-5.301 -12.555v-35.712q0 -7.254 5.301 -12.555t12.555 -5.301h35.712q7.254 0 12.555 5.301t5.301 12.555zm428.544 285.696v35.712q0 7.254 -5.301 12.555t-12.555 5.301h-35.712q-7.254 0 -12.555 -5.301t-5.301 -12.555v-35.712q0 -7.254 5.301 -12.555t12.555 -5.301h35.712q7.254 0 12.555 5.301t5.301 12.555zm-142.848 -142.848v35.712q0 7.254 -5.301 12.555t-12.555 5.301h-35.712q-7.254 0 -12.555 -5.301t-5.301 -12.555v-35.712q0 -7.254 5.301 -12.555t12.555 -5.301h35.712q7.254 0 12.555 5.301t5.301 12.555zm-142.848 -142.848v35.712q0 7.254 -5.301 12.555t-12.555 5.301h-35.712q-7.254 0 -12.555 -5.301t-5.301 -12.555v-35.712q0 -7.254 5.301 -12.555t12.555 -5.301h35.712q7.254 0 12.555 5.301t5.301 12.555zm285.696 142.848v35.712q0 7.254 -5.301 12.555t-12.555 5.301h-35.712q-7.254 0 -12.555 -5.301t-5.301 -12.555v-35.712q0 -7.254 5.301 -12.555t12.555 -5.301h35.712q7.254 0 12.555 5.301t5.301 12.555zm-142.848 -142.848v35.712q0 7.254 -5.301 12.555t-12.555 5.301h-35.712q-7.254 0 -12.555 -5.301t-5.301 -12.555v-35.712q0 -7.254 5.301 -12.555t12.555 -5.301h35.712q7.254 0 12.555 5.301t5.301 12.555zm142.848 0v35.712q0 7.254 -5.301 12.555t-12.555 5.301h-35.712q-7.254 0 -12.555 -5.301t-5.301 -12.555v-35.712q0 -7.254 5.301 -12.555t12.555 -5.301h35.712q7.254 0 12.555 5.301t5.301 12.555zm-142.848 482.112h214.272v-642.816h-142.848v17.856q0 22.32 -15.624 37.944t-37.944 15.624h-249.984q-22.32 0 -37.944 -15.624t-15.624 -37.944v-17.856h-142.848v642.816h214.272v-124.992q0 -7.254 5.301 -12.555t12.555 -5.301h178.56q7.254 0 12.555 5.301t5.301 12.555v124.992zm0 -660.672v-178.56q0 -7.254 -5.301 -12.555t-12.555 -5.301h-35.712q-7.254 0 -12.555 5.301t-5.301 12.555v53.568h-71.424v-53.568q0 -7.254 -5.301 -12.555t-12.555 -5.301h-35.712q-7.254 0 -12.555 5.301t-5.301 12.555v178.56q0 7.254 5.301 12.555t12.555 5.301h35.712q7.254 0 12.555 -5.301t5.301 -12.555v-53.568h71.424v53.568q0 7.254 5.301 12.555t12.555 5.301h35.712q7.254 0 12.555 -5.301t5.301 -12.555zm285.696 -17.856v714.24q0 14.508 -10.602 25.11t-25.11 10.602h-714.24q-14.508 0 -25.11 -10.602t-10.602 -25.11v-714.24q0 -14.508 10.602 -25.11t25.11 -10.602h178.56v-160.704q0 -22.32 15.624 -37.944t37.944 -15.624h249.984q22.32 0 37.944 15.624t15.624 37.944v160.704h178.56q14.508 0 25.11 10.602t10.602 25.11z"/></svg>