<svg height="1000" width="785.7" xmlns="http://www.w3.org/2000/svg"><path d="M0 964.3v-714.2q0-14.5 10.6-25.1t25.1-10.6h178.6v-160.7q0-22.3 15.6-37.9t37.9-15.6h250q22.3 0 37.9 15.6t15.6 37.9v160.7h178.6q14.5 0 25.1 10.6t10.6 25.1v714.2q0 14.5-10.6 25.1t-25.1 10.6h-714.2q-14.5 0-25.1-10.6t-10.6-25.1zm71.4-35.7h214.3v-125q0-7.3 5.3-12.6t12.6-5.3h178.6q7.3 0 12.6 5.3t5.3 12.6v125h214.3v-642.8h-142.8v17.9q0 22.3-15.6 37.9t-37.9 15.6h-250q-22.3 0-37.9-15.6t-15.6-37.9v-17.9h-142.8v642.8zm71.4-160.7v-35.7q0-7.3 5.3-12.6t12.6-5.3h35.7q7.3 0 12.6 5.3t5.3 12.6v35.7q0 7.3-5.3 12.6t-12.6 5.3h-35.7q-7.3 0-12.6-5.3t-5.3-12.6zm0-142.8v-35.7q0-7.3 5.3-12.6t12.6-5.3h35.7q7.3 0 12.6 5.3t5.3 12.6v35.7q0 7.3-5.3 12.6t-12.6 5.3h-35.7q-7.3 0-12.6-5.3t-5.3-12.6zm0-142.8v-35.7q0-7.3 5.3-12.6t12.6-5.3h35.7q7.3 0 12.6 5.3t5.3 12.6v35.7q0 7.3-5.3 12.6t-12.6 5.3h-35.7q-7.3 0-12.6-5.3t-5.3-12.6zm142.8 142.8v-35.7q0-7.3 5.3-12.6t12.6-5.3h35.7q7.3 0 12.6 5.3t5.3 12.6v35.7q0 7.3-5.3 12.6t-12.6 5.3h-35.7q-7.3 0-12.6-5.3t-5.3-12.6zm0-142.8v-35.7q0-7.3 5.3-12.6t12.6-5.3h35.7q7.3 0 12.6 5.3t5.3 12.6v35.7q0 7.3-5.3 12.6t-12.6 5.3h-35.7q-7.3 0-12.6-5.3t-5.3-12.6zm0-214.3q0 7.3 5.3 12.6t12.6 5.3h35.7q7.3 0 12.6-5.3t5.3-12.6v-53.6h71.4v53.6q0 7.3 5.3 12.6t12.6 5.3h35.7q7.3 0 12.6-5.3t5.3-12.6v-178.6q0-7.3-5.3-12.6t-12.6-5.3h-35.7q-7.3 0-12.6 5.3t-5.3 12.6v53.6h-71.4v-53.6q0-7.3-5.3-12.6t-12.6-5.3h-35.7q-7.3 0-12.6 5.3t-5.3 12.6v178.6zm142.8 357.1v-35.7q0-7.3 5.3-12.6t12.6-5.3h35.7q7.3 0 12.6 5.3t5.3 12.6v35.7q0 7.3-5.3 12.6t-12.6 5.3h-35.7q-7.3 0-12.6-5.3t-5.3-12.6zm0-142.8v-35.7q0-7.3 5.3-12.6t12.6-5.3h35.7q7.3 0 12.6 5.3t5.3 12.6v35.7q0 7.3-5.3 12.6t-12.6 5.3h-35.7q-7.3 0-12.6-5.3t-5.3-12.6zm142.8 285.7v-35.7q0-7.3 5.3-12.6t12.6-5.3h35.7q7.3 0 12.6 5.3t5.3 12.6v35.7q0 7.3-5.3 12.6t-12.6 5.3h-35.7q-7.3 0-12.6-5.3t-5.3-12.6zm0-142.8v-35.7q0-7.3 5.3-12.6t12.6-5.3h35.7q7.3 0 12.6 5.3t5.3 12.6v35.7q0 7.3-5.3 12.6t-12.6 5.3h-35.7q-7.3 0-12.6-5.3t-5.3-12.6zm0-142.8v-35.7q0-7.3 5.3-12.6t12.6-5.3h35.7q7.3 0 12.6 5.3t5.3 12.6v35.7q0 7.3-5.3 12.6t-12.6 5.3h-35.7q-7.3 0-12.6-5.3t-5.3-12.6z"/></svg>