<svg height="1000" width="857.1" xmlns="http://www.w3.org/2000/svg"><path d="M785.7 71.4q0 145.7 -59.4 257.6T577.6 500q89.3 59.2 148.7 171t59.4 257.6h53.6q7.8 0 12.8 5t5 12.8v35.7q0 7.9 -5 12.9t-12.8 5H17.9Q10 1000 5 995T0 982.1v-35.7q0 -7.8 5 -12.8t12.9 -5h53.5q0 -145.7 59.5 -257.6T279.6 500Q190.3 440.8 130.9 329T71.4 71.4H17.9Q10 71.4 5 66.4T0 53.6V17.9Q0 10 5 5T17.9 0h821.4q7.8 0 12.8 5t5 12.9v35.7q0 7.8 -5 12.8t-12.8 5h-53.6zm-298 395.1q43 -16.2 83.2 -51.6t72.2 -85.1 51.7 -117.2T714.3 71.4H142.9q0 73.7 19.5 141.2T214 329.8t72.3 85.1 83.1 51.6q10.6 3.9 17 13.1t6.5 20.4 -6.5 20.4 -17 13.1Q293 561.9 233.3 642.9h390.6q-59.7 -81 -136.2 -109.4 -10.6 -3.9 -17 -13.1T464.3 500t6.4 -20.4 17 -13.1z"/></svg>