<svg height="1000" width="857.1" xmlns="http://www.w3.org/2000/svg"><path d="M785.7 71.4q0 145.7 -59.4 257.6T577.6 500q89.3 59.2 148.7 171t59.4 257.6h53.6q7.8 0 12.8 5t5 12.8v35.7q0 7.9 -5 12.9t-12.8 5H17.9Q10 1000 5 995T0 982.1v-35.7q0 -7.8 5 -12.8t12.9 -5h53.5q0 -145.7 59.5 -257.6T279.6 500Q190.3 440.8 130.9 329T71.4 71.4H17.9Q10 71.4 5 66.4T0 53.6V17.9Q0 10 5 5T17.9 0h821.4q7.8 0 12.8 5t5 12.9v35.7q0 7.8 -5 12.8t-12.8 5h-53.6zm-71.4 0H142.9q0 115 47.4 214.3h476.6q47.4 -99.3 47.4 -214.3zM682.5 750Q652.3 671.3 601.3 615.2T492.7 535.7H364.4q-57.5 23.5 -108.5 79.5T174.7 750h507.8z"/></svg>