<svg height="1000" width="857.1" xmlns="http://www.w3.org/2000/svg"><path d="M839.3 892.9q7.8 0 12.8 5t5 12.8v71.4q0 7.9 -5 12.9t-12.8 5H17.9Q10 1000 5 995T0 982.1v-71.4q0 -7.8 5 -12.8t12.9 -5h821.4zM72.5 857.1q1.7 -30.6 9 -59.7t16.7 -53 25.7 -48.5 29.8 -42.4 36 -38.8 36.9 -33.5 39.3 -30.7T303 524t36.3 -24q-24 -15.6 -36.3 -24t-37.1 -26.5 -39.3 -30.7 -36.9 -33.5 -36 -38.8 -29.8 -42.4T98.2 255.6t-16.7 -53 -9 -59.7h712.1q-1.7 30.6 -8.9 59.7t-16.8 53 -25.6 48.5 -29.9 42.4 -36 38.8 -36.8 33.5 -39.4 30.7T554.1 476t-36.2 24q24 15.6 36.2 24t37.1 26.5 39.4 30.7 36.8 33.5 36 38.8 29.9 42.4 25.6 48.5 16.8 53 8.9 59.7H72.5zM839.3 0q7.8 0 12.8 5t5 12.9v71.4q0 7.8 -5 12.8t-12.8 5H17.9q-7.9 0 -12.9 -5T0 89.3V17.9Q0 10 5 5T17.9 0h821.4z"/></svg>