<svg height="1000" width="857.1" xmlns="http://www.w3.org/2000/svg"><path d="M785.7 71.4q0 145.7 -59.4 257.6T577.6 500q89.3 59.2 148.7 171t59.4 257.6h53.6q7.8 0 12.8 5t5 12.8v35.7q0 7.9 -5 12.9t-12.8 5H17.9Q10 1000 5 995T0 982.1v-35.7q0 -7.8 5 -12.8t12.9 -5h53.5q0 -145.7 59.5 -257.6T279.6 500Q190.3 440.8 130.9 329T71.4 71.4H17.9Q10 71.4 5 66.4T0 53.6V17.9Q0 10 5 5T17.9 0h821.4q7.8 0 12.8 5t5 12.9v35.7q0 7.8 -5 12.8t-12.8 5h-53.6zm-71.4 0H142.9q0 36.9 5 71.5h561.4q5 -34.1 5 -71.5zm0 857.2q0 -72.6 -19 -139.3t-50.5 -116 -70.6 -84.9 -81.5 -52.7H364.4Q322 553 282.9 588.4t-70.6 84.9 -50.5 116 -18.9 139.3h571.4z"/></svg>