<svg height="1000" width="1142.9" xmlns="http://www.w3.org/2000/svg"><path d="M500 676.3q0 -30.1 -4.2 -56T482.1 570t-28.4 -38.2 -45.2 -13.9q-35.7 35.7 -87.1 35.7t-87 -35.7q-26.3 0 -45.2 13.9T160.7 570 147 620.3t-4.1 56q0 30.7 17.5 52.2t42.2 21.5h237.7q24.5 0 42.1 -21.5T500 676.3zM428.6 428.6q0 -44.7 -31.3 -75.9t-75.9 -31.3 -75.9 31.3 -31.2 75.9 31.2 75.9 75.9 31.2 75.9 -31.2 31.3 -75.9zM1000 696.4v-35.7q0 -7.8 -5 -12.8t-12.9 -5H589.3q-7.8 0 -12.8 5t-5.1 12.8v35.7q0 7.8 5.1 12.9t12.8 5h392.8q7.9 0 12.9 -5t5 -12.9zM785.7 553.6v-35.7q0 -7.9 -5 -12.9t-12.8 -5H589.3q-7.8 0 -12.8 5t-5.1 12.9v35.7q0 7.8 5.1 12.8t12.8 5h178.6q7.8 0 12.8 -5t5 -12.8zm214.3 0v-35.7q0 -7.9 -5 -12.9t-12.9 -5H875q-7.8 0 -12.8 5t-5.1 12.9v35.7q0 7.8 5.1 12.8t12.8 5h107.1q7.9 0 12.9 -5t5 -12.8zm0 -142.9V375q0 -7.8 -5 -12.8t-12.9 -5.1H589.3q-7.8 0 -12.8 5.1t-5.1 12.8v35.7q0 7.8 5.1 12.8t12.8 5.1h392.8q7.9 0 12.9 -5.1t5 -12.8zM71.4 214.3h1000v-53.6q0 -7.8 -5 -12.8t-12.8 -5H89.3q-7.8 0 -12.8 5t-5.1 12.8v53.6zm1071.5 -53.6v678.6q0 36.8 -26.3 63t-63 26.3H89.3q-36.8 0 -63.1 -26.3T0 839.3V160.7q0 -36.8 26.2 -63T89.3 71.4h964.3q36.8 0 63 26.3t26.3 63z"/></svg>