<svg height="1000" width="1142.9" xmlns="http://www.w3.org/2000/svg"><path d="M500 676.3q0 30.7 -17.6 52.2T440.3 750H202.6q-24.6 0 -42.2 -21.5t-17.5 -52.2q0 -30.1 4.1 -56T160.7 570t28.5 -38.2 45.2 -13.9q35.7 35.7 87 35.7t87.1 -35.7q26.2 0 45.2 13.9t28.4 38.2 13.7 50.3 4.2 56zM428.6 428.6q0 44.6 -31.3 75.9t-75.9 31.2 -75.9 -31.2 -31.2 -75.9 31.2 -75.9 75.9 -31.3 75.9 31.3 31.3 75.9zM1000 660.7v35.7q0 7.8 -5 12.9t-12.9 5H589.3q-7.8 0 -12.8 -5t-5.1 -12.9v-35.7q0 -7.8 5.1 -12.8t12.8 -5h392.8q7.9 0 12.9 5t5 12.8zM785.7 517.9v35.7q0 7.8 -5 12.8t-12.8 5H589.3q-7.8 0 -12.8 -5t-5.1 -12.8v-35.7q0 -7.9 5.1 -12.9t12.8 -5h178.6q7.8 0 12.8 5t5 12.9zm214.3 0v35.7q0 7.8 -5 12.8t-12.9 5H875q-7.8 0 -12.8 -5t-5.1 -12.8v-35.7q0 -7.9 5.1 -12.9t12.8 -5h107.1q7.9 0 12.9 5t5 12.9zm0 -142.9v35.7q0 7.8 -5 12.8t-12.9 5.1H589.3q-7.8 0 -12.8 -5.1t-5.1 -12.8V375q0 -7.8 5.1 -12.8t12.8 -5.1h392.8q7.9 0 12.9 5.1t5 12.8zm71.4 464.3v-625H71.4v625q0 7.2 5.3 12.5t12.6 5.3h964.3q7.2 0 12.5 -5.3t5.3 -12.5zm71.5 -678.6v678.6q0 36.8 -26.3 63t-63 26.3H89.3q-36.8 0 -63.1 -26.3T0 839.3V160.7q0 -36.8 26.2 -63T89.3 71.4h964.3q36.8 0 63 26.3t26.3 63z"/></svg>