<svg height="1000" width="857.1" xmlns="http://www.w3.org/2000/svg"><path d="M514.5 444.8v101.5q0 2.2 .3 8.4t0 8.4l-.8 6.7t-2 6.4 -3.6 4.2 -6.2 3 -8.9 .9V411.8q5 0 8.9 .6t6.2 2.8 3.6 3 2 5.3 .5 5.9v15.4zm176.3 53.5v67.5q0 .6 .3 7t0 8.7 -1.4 6.4 -4.2 5.9 -7.5 1.6q-5 0 -7.8 -5Q668 584.8 668 498.3v-13.6t.8 -4.8l2 -3.9t2.7 -3.1 4.5 -.8q3.4 0 5.6 .8t3.6 2.5 2.3 3.4 1.1 4.7 .2 4.5v10.3zM100.4 630h68.1V366.6h-68.1V630zm242.2 0h59.2V366.6h-88.7L297.4 490Q286.3 407.4 279.6 366.6h-88.2V630h59.7V455.9L276.2 630h42.4l24 -178v178zM579.8 459.8q0 -37.4 -2.8 -50.2 -1.7 -8.9 -6.1 -15.9t-9.5 -11.4 -14 -7.9 -14.8 -4.7 -17.3 -2.2 -16.1 -.9h-74V630h31.3q94.3 .6 109.9 -13.6t14 -100.8q-.6 -34.6 -.6 -55.8zm176.9 110v-74.3q0 -16.1 -1.1 -25.1t-5.3 -18.7 -13.7 -13.9 -25.7 -4.2q-25.6 0 -42.9 19v-86h-65.3V630h61.4l3.9 -16.7q16.7 20.1 42.9 20.1 27.9 0 36.9 -17t8.9 -46.6zM857.1 160.7v678.6q0 36.8 -26.2 63t-63 26.3H89.3q-36.8 0 -63.1 -26.3T0 839.3V160.7q0 -36.8 26.2 -63T89.3 71.4h678.6q36.8 0 63 26.3t26.2 63z"/></svg>