<svg height="1000px" width="857.1428571428571px" xmlns="http://www.w3.org/2000/svg">
  <g>
    <path d="M0 821.4285714285714c0 0 0 -268.973 0 -268.973c0 -23.066 4.65 -45.945 13.951 -68.639c0 0 132.812 -308.035 132.812 -308.035c3.721 -9.301 10.51 -17.113 20.369 -23.438c9.858 -6.324 19.624 -9.486 29.297 -9.486c0 0 464.285 0 464.285 0c9.673 0 19.439 3.162 29.297 9.486c9.859 6.325 16.648 14.137 20.368 23.438c0 0 132.813 308.035 132.813 308.035c9.301 22.694 13.951 45.573 13.951 68.639c0 0 0 268.973 0 268.973c0 9.673 -3.534 18.043 -10.603 25.112c-7.068 7.068 -15.439 10.602 -25.111 10.602c0 0 -785.715 0 -785.715 0c-9.672 0 -18.043 -3.534 -25.111 -10.602c-7.069 -7.069 -10.603 -15.439 -10.603 -25.112c0 0 0 0 0 0m109.933 -285.714c0 0 176.339 0 176.339 0c0 0 53.014 107.143 53.014 107.143c0 0 178.571 0 178.571 0c0 0 53.014 -107.143 53.014 -107.143c0 0 176.339 0 176.339 0c-0.372 -1.116 -0.837 -2.604 -1.395 -4.465c-0.558 -1.86 -1.023 -3.348 -1.395 -4.464c0 0 -118.304 -276.786 -118.304 -276.786c0 0 -395.089 0 -395.089 0c0 0 -118.304 276.786 -118.304 276.786c-0.372 0.744 -0.837 2.232 -1.395 4.464c-0.558 2.233 -1.023 3.721 -1.395 4.465c0 0 0 0 0 0" />
  </g>
</svg>