<svg height="1000px" width="857.1428571428571px" xmlns="http://www.w3.org/2000/svg">
  <g>
    <path d="M857.1428571428571 552.4553571428571c0 0 0 268.973 0 268.973c0 9.673 -3.534 18.043 -10.603 25.112c-7.068 7.068 -15.439 10.603 -25.111 10.603c0 0 -785.715 0 -785.715 0c-9.672 0 -18.043 -3.535 -25.111 -10.603c-7.069 -7.069 -10.603 -15.439 -10.603 -25.112c0 0 0 -268.973 0 -268.973c0 -23.065 4.65 -45.945 13.951 -68.638c0 0 132.813 -308.036 132.813 -308.036c3.72 -9.301 10.509 -17.113 20.368 -23.438c9.858 -6.324 19.624 -9.486 29.297 -9.486c0 0 464.285 0 464.285 0c9.673 0 19.439 3.162 29.297 9.486c9.859 6.325 16.648 14.137 20.369 23.438c0 0 132.812 308.036 132.812 308.036c9.301 22.693 13.951 45.573 13.951 68.638c0 0 0 0 0 0m-286.272 -16.741c0 0 176.339 0 176.339 0c-0.372 -1.116 -0.837 -2.604 -1.395 -4.464c-0.558 -1.86 -1.023 -3.349 -1.395 -4.465c0 0 -118.304 -276.785 -118.304 -276.785c0 0 -395.089 0 -395.089 0c0 0 -118.304 276.785 -118.304 276.785c-0.372 0.744 -0.837 2.233 -1.395 4.465c-0.558 2.232 -1.023 3.72 -1.395 4.464c0 0 176.339 0 176.339 0c0 0 53.014 107.143 53.014 107.143c0 0 178.571 0 178.571 0c0 0 53.014 -107.143 53.014 -107.143" />
  </g>
</svg>