<svg height="1000px" width="900px" xmlns="http://www.w3.org/2000/svg">
  <g>
    <path d="M0 837c0 0 0 -282 0 -282c0 -10.667 1.5 -23 4.5 -37c3 -14 6.5 -25.667 10.5 -35c0 0 139 -324 139 -324c4 -9.333 11.167 -17.333 21.5 -24c10.333 -6.667 20.5 -10 30.5 -10c0 0 488 0 488 0c10 0 20.167 3.333 30.5 10c10.333 6.667 17.5 14.667 21.5 24c0 0 139 324 139 324c4 9.333 7.5 21 10.5 35c3 14 4.5 26.333 4.5 37c0 0 0 282 0 282c0 10.667 -3.667 19.667 -11 27c-7.333 7.333 -16 11 -26 11c0 0 -825 0 -825 0c-10.667 0 -19.667 -3.667 -27 -11c-7.333 -7.333 -11 -16.333 -11 -27c0 0 0 0 0 0m116 -301c0 0 189 0 189 0c0 0 56 113 56 113c0 0 187 0 187 0c0 0 57 -113 57 -113c0 0 179 0 179 0c-0.667 -1.333 -1 -2.833 -1 -4.5c0 -1.667 -0.333 -3.167 -1 -4.5c0 0 -125 -290 -125 -290c0 0 -414 0 -414 0c0 0 -125 291 -125 291c-0.667 0.667 -1 1.833 -1 3.5c0 1.667 -0.333 3.167 -1 4.5c0 0 0 0 0 0" />
  </g>
</svg>