<svg height="1000px" width="899.90234375px" xmlns="http://www.w3.org/2000/svg">
  <g>
    <path d="M0 836.9140625c0 0 0 -281.738 0 -281.738c0 -10.742 1.465 -23.112 4.395 -37.11c2.929 -13.997 6.51 -25.716 10.742 -35.156c0 0 138.672 -323.73 138.672 -323.73c3.906 -9.44 11.067 -17.497 21.484 -24.17c10.417 -6.673 20.671 -10.01 30.762 -10.01c0 0 487.793 0 487.793 0c10.091 0 20.345 3.337 30.761 10.01c10.417 6.673 17.579 14.73 21.485 24.17c0 0 138.672 323.73 138.672 323.73c3.906 9.44 7.405 21.159 10.498 35.156c3.092 13.998 4.638 26.368 4.638 37.11c0 0 0 281.738 0 281.738c0 10.742 -3.662 19.775 -10.986 27.1c-7.324 7.324 -16.032 10.986 -26.123 10.986c0 0 -824.707 0 -824.707 0c-10.742 0 -19.775 -3.662 -27.1 -10.986c-7.324 -7.325 -10.986 -16.358 -10.986 -27.1c0 0 0 0 0 0m116.211 -300.781c0 0 188.965 0 188.965 0c0 0 55.664 112.793 55.664 112.793c0 0 187.012 0 187.012 0c0 0 57.128 -112.793 57.128 -112.793c0 0 179.2 0 179.2 0c-0.651 -1.302 -0.977 -2.849 -0.977 -4.639c0 -1.79 -0.325 -3.337 -0.976 -4.639c0 0 -125 -290.039 -125 -290.039c0 0 -414.063 0 -414.063 0c0 0 -125 291.016 -125 291.016c-0.651 0.651 -0.977 1.872 -0.977 3.662c0 1.79 -0.325 3.337 -0.976 4.639c0 0 0 0 0 0" />
  </g>
</svg>