<svg height="1000" width="858" xmlns="http://www.w3.org/2000/svg"><path d="M0 821.44l0-268.956q0-34.596 13.95-68.634l132.804-308.016q5.58-13.95 20.367-23.436t29.295-9.486l464.256 0q14.508 0 29.295 9.486t20.367 23.436l132.804 308.016q13.95 34.038 13.95 68.634l0 268.956q0 14.508-10.602 25.11t-25.11 10.602l-785.664 0q-14.508 0-25.11-10.602t-10.602-25.11zm109.926-285.696l176.328 0l53.01 107.136l178.56 0l53.01-107.136l176.328 0q-.558-1.674-1.395-4.464t-1.395-4.464l-118.296-276.768l-395.064 0l-118.296 276.768q-.558 1.116-1.395 4.464t-1.395 4.464z"/></svg>