<svg height="1000px" width="900px" xmlns="http://www.w3.org/2000/svg">
  <g>
    <path d="M0 837c0 0 0 -56 0 -56c0 -10 3.667 -18.667 11 -26c7.333 -7.333 16 -11 26 -11c0 0 375 0 375 0c10.667 0 19.667 3.667 27 11c7.333 7.333 11 16 11 26c0 0 0 56 0 56c0 10.667 -3.667 19.667 -11 27c-7.333 7.333 -16.333 11 -27 11c0 0 -375 0 -375 0c-10 0 -18.667 -3.667 -26 -11c-7.333 -7.333 -11 -16.333 -11 -27c0 0 0 0 0 0m0 -206c0 0 0 -56 0 -56c0 -10.667 3.667 -19.667 11 -27c7.333 -7.333 16 -11 26 -11c0 0 300 0 300 0c10.667 0 19.667 3.667 27 11c7.333 7.333 11 16.333 11 27c0 0 0 56 0 56c0 10.667 -3.667 19.667 -11 27c-7.333 7.333 -16.333 11 -27 11c0 0 -300 0 -300 0c-10 0 -18.667 -3.667 -26 -11c-7.333 -7.333 -11 -16.333 -11 -27c0 0 0 0 0 0m0 -206c0 0 0 -56 0 -56c0 -10.667 3.667 -19.667 11 -27c7.333 -7.333 16 -11 26 -11c0 0 338 0 338 0c10 0 18.667 3.667 26 11c7.333 7.333 11 16.333 11 27c0 0 0 56 0 56c0 10.667 -3.667 19.5 -11 26.5c-7.333 7 -16 10.5 -26 10.5c0 0 -338 0 -338 0c-10 0 -18.667 -3.5 -26 -10.5c-7.333 -7 -11 -15.833 -11 -26.5c0 0 0 0 0 0m0 -206c0 0 0 -57 0 -57c0 -10 3.667 -18.667 11 -26c7.333 -7.333 16 -11 26 -11c0 0 263 0 263 0c10 0 18.667 3.667 26 11c7.333 7.333 11 16 11 26c0 0 0 57 0 57c0 10 -3.667 18.667 -11 26c-7.333 7.333 -16 11 -26 11c0 0 -263 0 -263 0c-10 0 -18.667 -3.667 -26 -11c-7.333 -7.333 -11 -16 -11 -26c0 0 0 0 0 0m525 637c0 0 0 -712 0 -712c0 -12.667 6.333 -19 19 -19c0 0 37 0 37 0c5.333 0 9.833 1.833 13.5 5.5c3.667 3.667 5.5 8.167 5.5 13.5c0 0 0 712 0 712c0 5.333 -1.833 9.833 -5.5 13.5c-3.667 3.667 -8.167 5.5 -13.5 5.5c0 0 -37 0 -37 0c-12.667 0 -19 -6.333 -19 -19c0 0 0 0 0 0m112 -344c0 -5.333 2.333 -11 7 -17c0 0 106 -105 106 -105c7.333 -7.333 13.5 -10 18.5 -8c5 2 7.5 8.333 7.5 19c0 0 0 74 0 74c0 0 105 0 105 0c5.333 0 9.833 1.833 13.5 5.5c3.667 3.667 5.5 8.167 5.5 13.5c0 0 0 37 0 37c0 5.333 -1.833 9.833 -5.5 13.5c-3.667 3.667 -8.167 5.5 -13.5 5.5c0 0 -105 0 -105 0c0 0 0 75 0 75c0 10 -2.5 16.167 -7.5 18.5c-5 2.333 -11.167 -0.167 -18.5 -7.5c0 0 -106 -106 -106 -106c-4.667 -6 -7 -12 -7 -18c0 0 0 0 0 0" />
  </g>
</svg>