<svg height="1000px" width="1000px" xmlns="http://www.w3.org/2000/svg">
  <g>
    <path d="M1000 89.28571428571422c0 0 0 107.143 0 107.143c0 4.836 -1.767 9.021 -5.301 12.556c-3.535 3.534 -7.72 5.301 -12.556 5.301c0 0 -964.286 0 -964.286 0c-4.836 0 -9.021 -1.767 -12.556 -5.301c-3.534 -3.535 -5.301 -7.72 -5.301 -12.556c0 0 0 -107.143 0 -107.143c0 -4.836 1.767 -9.022 5.301 -12.556c3.535 -3.534 7.72 -5.301 12.556 -5.301c0 0 964.286 0 964.286 0c4.836 0 9.021 1.767 12.556 5.301c3.534 3.534 5.301 7.72 5.301 12.556c0 0 0 0 0 0m0 214.286c0 0 0 107.143 0 107.143c0 4.836 -1.767 9.021 -5.301 12.555c-3.535 3.535 -7.72 5.302 -12.556 5.302c0 0 -607.143 0 -607.143 0c-4.836 0 -9.022 -1.767 -12.556 -5.302c-3.534 -3.534 -5.301 -7.719 -5.301 -12.555c0 0 0 -107.143 0 -107.143c0 -4.837 1.767 -9.022 5.301 -12.556c3.534 -3.534 7.72 -5.301 12.556 -5.301c0 0 607.143 0 607.143 0c4.836 0 9.021 1.767 12.556 5.301c3.534 3.534 5.301 7.719 5.301 12.556c0 0 0 0 0 0m0 214.285c0 0 0 107.143 0 107.143c0 4.837 -1.767 9.022 -5.301 12.556c-3.535 3.534 -7.72 5.301 -12.556 5.301c0 0 -607.143 0 -607.143 0c-4.836 0 -9.022 -1.767 -12.556 -5.301c-3.534 -3.534 -5.301 -7.719 -5.301 -12.556c0 0 0 -107.143 0 -107.143c0 -4.836 1.767 -9.021 5.301 -12.555c3.534 -3.535 7.72 -5.302 12.556 -5.302c0 0 607.143 0 607.143 0c4.836 0 9.021 1.767 12.556 5.302c3.534 3.534 5.301 7.719 5.301 12.555c0 0 0 0 0 0m0 214.286c0 0 0 107.143 0 107.143c0 4.836 -1.767 9.022 -5.301 12.556c-3.535 3.534 -7.72 5.301 -12.556 5.301c0 0 -964.286 0 -964.286 0c-4.836 0 -9.021 -1.767 -12.556 -5.301c-3.534 -3.534 -5.301 -7.72 -5.301 -12.556c0 0 0 -107.143 0 -107.143c0 -4.836 1.767 -9.021 5.301 -12.556c3.535 -3.534 7.72 -5.301 12.556 -5.301c0 0 964.286 0 964.286 0c4.836 0 9.021 1.767 12.556 5.301c3.534 3.535 5.301 7.72 5.301 12.556c0 0 0 0 0 0m-785.714 -428.571c0 0 0 321.428 0 321.428c0 4.837 -1.767 9.022 -5.302 12.556c-3.162 3.534 -7.347 5.301 -12.555 5.301c-5.209 0 -9.487 -1.674 -12.835 -5.022c0 0 -160.715 -160.714 -160.715 -160.714c-3.348 -3.348 -5.022 -7.627 -5.022 -12.835c0 -5.208 1.674 -9.487 5.022 -12.835c0 0 160.715 -160.714 160.715 -160.714c3.348 -3.348 7.626 -5.022 12.835 -5.022c5.208 0 9.486 1.767 12.834 5.301c3.349 3.534 5.023 7.719 5.023 12.556c0 0 0 0 0 0" />
  </g>
</svg>