<svg height="1000" width="1000" xmlns="http://www.w3.org/2000/svg"><path d="M196.4 464.3q0 7.8 -5 12.8L30.7 637.8q-5 5.1 -12.8 5.1 -7.3 0 -12.6 -5.3T0 625V303.6Q0 296.3 5.3 291t12.6 -5.3q7.8 0 12.8 5l160.7 160.8q5 5 5 12.8zM1000 732.1v107.2q0 7.2 -5.3 12.5t-12.6 5.3H17.9q-7.3 0 -12.6 -5.3T0 839.3V732.1q0 -7.2 5.3 -12.5t12.6 -5.3h964.2q7.3 0 12.6 5.3t5.3 12.5zm0 -214.2V625q0 7.3 -5.3 12.6t-12.6 5.3H375q-7.3 0 -12.6 -5.3T357.1 625V517.9q0 -7.3 5.3 -12.6T375 500h607.1q7.3 0 12.6 5.3t5.3 12.6zm0 -214.3v107.1q0 7.3 -5.3 12.6t-12.6 5.3H375q-7.3 0 -12.6 -5.3t-5.3 -12.6V303.6q0 -7.3 5.3 -12.6t12.6 -5.3h607.1q7.3 0 12.6 5.3t5.3 12.6zm0 -214.3v107.1q0 7.3 -5.3 12.6t-12.6 5.3H17.9q-7.3 0 -12.6 -5.3T0 196.4V89.3Q0 82 5.3 76.7t12.6 -5.3h964.2q7.3 0 12.6 5.3t5.3 12.6z"/></svg>