<svg height="1000px" width="899.90234375px" xmlns="http://www.w3.org/2000/svg">
  <g>
    <path d="M0 505.859375c0 0 0 -36.621 0 -36.621c0 -12.695 6.348 -19.043 19.043 -19.043c0 0 104.004 0 104.004 0c0 0 0 -75.195 0 -75.195c0 -10.092 2.685 -16.114 8.057 -18.067c5.371 -1.953 11.637 0.814 18.798 8.301c0 0 104.981 104.98 104.981 104.98c5.208 5.209 7.975 11.068 8.301 17.579c0 5.859 -2.767 11.556 -8.301 17.089c0 0 -104.981 104.981 -104.981 104.981c-7.487 7.487 -13.834 10.254 -19.043 8.301c-5.208 -1.953 -7.812 -8.301 -7.812 -19.043c0 0 0 -74.219 0 -74.219c0 0 -104.004 0 -104.004 0c-12.695 0 -19.043 -6.348 -19.043 -19.043c0 0 0 0 0 0m299.805 350.098c0 0 0 -711.914 0 -711.914c0 -12.696 6.347 -19.043 19.043 -19.043c0 0 37.109 0 37.109 0c12.695 0 19.043 6.347 19.043 19.043c0 0 0 711.914 0 711.914c0 12.695 -6.348 19.043 -19.043 19.043c0 0 -37.109 0 -37.109 0c-12.696 0 -19.043 -6.348 -19.043 -19.043c0 0 0 0 0 0m150.39 -19.043c0 0 0 -56.153 0 -56.153c0 -10.091 3.662 -18.717 10.987 -25.879c7.324 -7.161 16.194 -10.742 26.611 -10.742c0 0 375 0 375 0c10.091 0 18.799 3.662 26.123 10.987c7.324 7.324 10.986 15.869 10.986 25.634c0 0 0 56.153 0 56.153c0 10.742 -3.662 19.775 -10.986 27.099c-7.324 7.325 -16.032 10.987 -26.123 10.987c0 0 -375 0 -375 0c-10.742 0 -19.694 -3.662 -26.856 -10.987c-7.161 -7.324 -10.742 -16.357 -10.742 -27.099c0 0 0 0 0 0m0 -206.055c0 0 0 -55.664 0 -55.664c0 -10.742 3.662 -19.775 10.987 -27.1c7.324 -7.324 16.194 -10.986 26.611 -10.986c0 0 300.293 0 300.293 0c10.091 0 18.799 3.662 26.123 10.986c7.324 7.325 10.986 16.358 10.986 27.1c0 0 0 55.664 0 55.664c0 10.742 -3.662 19.775 -10.986 27.1c-7.324 7.324 -16.032 10.986 -26.123 10.986c0 0 -300.293 0 -300.293 0c-10.742 0 -19.694 -3.662 -26.856 -10.986c-7.161 -7.325 -10.742 -16.358 -10.742 -27.1c0 0 0 0 0 0m0 -206.055c0 0 0 -55.664 0 -55.664c0 -10.742 3.662 -19.775 10.987 -27.099c7.324 -7.325 16.194 -10.987 26.611 -10.987c0 0 337.402 0 337.402 0c10.742 0 19.694 3.662 26.856 10.987c7.161 7.324 10.742 16.357 10.742 27.099c0 0 0 55.664 0 55.664c0 10.742 -3.662 19.613 -10.986 26.612c-7.325 6.998 -16.195 10.498 -26.612 10.498c0 0 -337.402 0 -337.402 0c-10.742 0 -19.694 -3.5 -26.855 -10.498c-7.162 -6.999 -10.743 -15.87 -10.743 -26.612c0 0 0 0 0 0m0 -205.566c0 0 0 -57.129 0 -57.129c0 -10.091 3.662 -18.799 10.987 -26.123c7.324 -7.324 16.194 -10.986 26.611 -10.986c0 0 262.207 0 262.207 0c10.742 0 19.775 3.662 27.1 10.986c7.324 7.324 10.986 16.032 10.986 26.123c0 0 0 57.129 0 57.129c0 10.091 -3.662 18.717 -10.986 25.879c-7.325 7.161 -16.358 10.742 -27.1 10.742c0 0 -262.207 0 -262.207 0c-10.742 0 -19.694 -3.662 -26.856 -10.986c-7.161 -7.325 -10.742 -15.869 -10.742 -25.635c0 0 0 0 0 0" />
  </g>
</svg>