<svg height="1000" width="1000" xmlns="http://www.w3.org/2000/svg"><path d="M0 839.3v-107.1q0-7.3 5.3-12.6t12.6-5.3h964.2q7.3 0 12.6 5.3t5.3 12.6v107.1q0 7.3-5.3 12.6t-12.6 5.3h-964.2q-7.3 0-12.6-5.3t-5.3-12.6zm0-214.3v-321.4q0-7.3 5.3-12.6t12.6-5.3q7.8 0 12.8 5l160.7 160.7q5 5 5 12.8t-5 12.8l-160.7 160.7q-5 5-12.8 5-7.3 0-12.6-5.3t-5.3-12.6zm0-428.5v-107.1q0-7.3 5.3-12.6t12.6-5.3h964.2q7.3 0 12.6 5.3t5.3 12.6v107.1q0 7.3-5.3 12.6t-12.6 5.3h-964.2q-7.3 0-12.6-5.3t-5.3-12.6zm357.1 428.5v-107.1q0-7.3 5.3-12.6t12.6-5.3h607.1q7.3 0 12.6 5.3t5.3 12.6v107.1q0 7.3-5.3 12.6t-12.6 5.3h-607.1q-7.3 0-12.6-5.3t-5.3-12.6zm0-214.3v-107.1q0-7.3 5.3-12.6t12.6-5.3h607.1q7.3 0 12.6 5.3t5.3 12.6v107.1q0 7.3-5.3 12.6t-12.6 5.3h-607.1q-7.3 0-12.6-5.3t-5.3-12.6z"/></svg>