<svg height="1000px" width="899.90234375px" xmlns="http://www.w3.org/2000/svg">
  <g>
    <path d="M0 836.9140625c0 0 0 -56.152 0 -56.152c0 -10.091 3.662 -18.718 10.986 -25.879c7.325 -7.162 16.032 -10.742 26.123 -10.742c0 0 375 0 375 0c10.743 0 19.776 3.662 27.1 10.986c7.324 7.324 10.986 15.869 10.986 25.635c0 0 0 56.152 0 56.152c0 10.742 -3.662 19.775 -10.986 27.1c-7.324 7.324 -16.357 10.986 -27.1 10.986c0 0 -375 0 -375 0c-10.091 0 -18.798 -3.662 -26.123 -10.986c-7.324 -7.325 -10.986 -16.358 -10.986 -27.1c0 0 0 0 0 0m0 -206.055c0 0 0 -55.664 0 -55.664c0 -10.742 3.662 -19.775 10.986 -27.099c7.325 -7.325 16.032 -10.987 26.123 -10.987c0 0 299.805 0 299.805 0c10.742 0 19.775 3.662 27.1 10.987c7.324 7.324 10.986 16.357 10.986 27.099c0 0 0 55.664 0 55.664c0 10.743 -3.662 19.776 -10.986 27.1c-7.325 7.324 -16.358 10.986 -27.1 10.986c0 0 -299.805 0 -299.805 0c-10.091 0 -18.798 -3.662 -26.123 -10.986c-7.324 -7.324 -10.986 -16.357 -10.986 -27.1c0 0 0 0 0 0m0 -206.054c0 0 0 -55.664 0 -55.664c0 -10.743 3.662 -19.776 10.986 -27.1c7.325 -7.324 16.032 -10.986 26.123 -10.986c0 0 337.891 0 337.891 0c10.091 0 18.799 3.662 26.123 10.986c7.324 7.324 10.986 16.357 10.986 27.1c0 0 0 55.664 0 55.664c0 10.742 -3.662 19.612 -10.986 26.611c-7.324 6.999 -16.032 10.498 -26.123 10.498c0 0 -337.891 0 -337.891 0c-10.091 0 -18.798 -3.499 -26.123 -10.498c-7.324 -6.999 -10.986 -15.869 -10.986 -26.611c0 0 0 0 0 0m0 -205.567c0 0 0 -57.129 0 -57.129c0 -10.091 3.662 -18.799 10.986 -26.123c7.325 -7.324 16.032 -10.986 26.123 -10.986c0 0 262.696 0 262.696 0c10.091 0 18.799 3.662 26.123 10.986c7.324 7.324 10.986 16.032 10.986 26.123c0 0 0 57.129 0 57.129c0 10.091 -3.662 18.718 -10.986 25.879c-7.324 7.162 -16.032 10.742 -26.123 10.742c0 0 -262.696 0 -262.696 0c-10.091 0 -18.798 -3.662 -26.123 -10.986c-7.324 -7.324 -10.986 -15.869 -10.986 -25.635c0 0 0 0 0 0m524.902 636.719c0 0 0 -711.914 0 -711.914c0 -12.695 6.348 -19.043 19.043 -19.043c0 0 37.11 0 37.11 0c5.208 0 9.684 1.872 13.427 5.615c3.744 3.744 5.616 8.22 5.616 13.428c0 0 0 711.914 0 711.914c0 5.208 -1.872 9.684 -5.616 13.428c-3.743 3.743 -8.219 5.615 -13.427 5.615c0 0 -37.11 0 -37.11 0c-12.695 0 -19.043 -6.348 -19.043 -19.043c0 0 0 0 0 0m112.305 -343.75c0 -5.208 2.279 -10.905 6.836 -17.09c0 0 105.957 -104.98 105.957 -104.98c7.487 -7.487 13.672 -10.254 18.555 -8.301c4.882 1.953 7.324 8.301 7.324 19.043c0 0 0 74.219 0 74.219c0 0 104.98 0 104.98 0c5.209 0 9.685 1.79 13.428 5.371c3.744 3.58 5.615 8.138 5.615 13.672c0 0 0 36.621 0 36.621c0 5.208 -1.79 9.684 -5.371 13.427c-3.58 3.744 -8.138 5.616 -13.672 5.616c0 0 -104.98 0 -104.98 0c0 0 0 75.195 0 75.195c0 10.091 -2.442 16.276 -7.324 18.555c-4.883 2.278 -11.068 -0.163 -18.555 -7.325c0 0 -105.957 -106.445 -105.957 -106.445c-4.557 -5.859 -6.836 -11.719 -6.836 -17.578c0 0 0 0 0 0" />
  </g>
</svg>