<svg height="1000" width="1000" xmlns="http://www.w3.org/2000/svg"><path d="M0 839.296v-107.136q0 -7.254 5.301 -12.555t12.555 -5.301h964.224q7.254 0 12.555 5.301t5.301 12.555v107.136q0 7.254 -5.301 12.555t-12.555 5.301h-964.224q-7.254 0 -12.555 -5.301t-5.301 -12.555zm0 -642.816v-107.136q0 -7.254 5.301 -12.555t12.555 -5.301h964.224q7.254 0 12.555 5.301t5.301 12.555v107.136q0 7.254 -5.301 12.555t-12.555 5.301h-964.224q-7.254 0 -12.555 -5.301t-5.301 -12.555zm17.856 267.84q0 -7.812 5.022 -12.834l160.704 -160.704q5.022 -5.022 12.834 -5.022 7.254 0 12.555 5.301t5.301 12.555v321.408q0 7.254 -5.301 12.555t-12.555 5.301q-7.812 0 -12.834 -5.022l-160.704 -160.704q-5.022 -5.022 -5.022 -12.834zm339.264 160.704v-107.136q0 -7.254 5.301 -12.555t12.555 -5.301h607.104q7.254 0 12.555 5.301t5.301 12.555v107.136q0 7.254 -5.301 12.555t-12.555 5.301h-607.104q-7.254 0 -12.555 -5.301t-5.301 -12.555zm0 -214.272v-107.136q0 -7.254 5.301 -12.555t12.555 -5.301h607.104q7.254 0 12.555 5.301t5.301 12.555v107.136q0 7.254 -5.301 12.555t-12.555 5.301h-607.104q-7.254 0 -12.555 -5.301t-5.301 -12.555z"/></svg>