<svg height="1000" width="1000" xmlns="http://www.w3.org/2000/svg"><path d="M0 839.296l0-107.136q0-7.254 5.301-12.555t12.555-5.301l964.224 0q7.254 0 12.555 5.301t5.301 12.555l0 107.136q0 7.254-5.301 12.555t-12.555 5.301l-964.224 0q-7.254 0-12.555-5.301t-5.301-12.555zm0-642.816l0-107.136q0-7.254 5.301-12.555t12.555-5.301l964.224 0q7.254 0 12.555 5.301t5.301 12.555l0 107.136q0 7.254-5.301 12.555t-12.555 5.301l-964.224 0q-7.254 0-12.555-5.301t-5.301-12.555zm17.856 267.84q0-7.812 5.022-12.834l160.704-160.704q5.022-5.022 12.834-5.022 7.254 0 12.555 5.301t5.301 12.555l0 321.408q0 7.254-5.301 12.555t-12.555 5.301q-7.812 0-12.834-5.022l-160.704-160.704q-5.022-5.022-5.022-12.834zm339.264 160.704l0-107.136q0-7.254 5.301-12.555t12.555-5.301l607.104 0q7.254 0 12.555 5.301t5.301 12.555l0 107.136q0 7.254-5.301 12.555t-12.555 5.301l-607.104 0q-7.254 0-12.555-5.301t-5.301-12.555zm0-214.272l0-107.136q0-7.254 5.301-12.555t12.555-5.301l607.104 0q7.254 0 12.555 5.301t5.301 12.555l0 107.136q0 7.254-5.301 12.555t-12.555 5.301l-607.104 0q-7.254 0-12.555-5.301t-5.301-12.555z"/></svg>