<svg height="1000px" width="900px" xmlns="http://www.w3.org/2000/svg">
  <g>
    <path d="M0 506c0 0 0 -37 0 -37c0 -12.667 6.333 -19 19 -19c0 0 104 0 104 0c0 0 0 -75 0 -75c0 -10 2.667 -16 8 -18c5.333 -2 11.667 0.667 19 8c0 0 105 105 105 105c5.333 5.333 8 11.333 8 18c0 6 -2.667 11.667 -8 17c0 0 -105 105 -105 105c-7.333 7.333 -13.667 10 -19 8c-5.333 -2 -8 -8.333 -8 -19c0 0 0 -74 0 -74c0 0 -104 0 -104 0c-12.667 0 -19 -6.333 -19 -19c0 0 0 0 0 0m300 350c0 0 0 -712 0 -712c0 -12.667 6.333 -19 19 -19c0 0 37 0 37 0c12.667 0 19 6.333 19 19c0 0 0 712 0 712c0 12.667 -6.333 19 -19 19c0 0 -37 0 -37 0c-12.667 0 -19 -6.333 -19 -19c0 0 0 0 0 0m150 -19c0 0 0 -56 0 -56c0 -10 3.667 -18.667 11 -26c7.333 -7.333 16.333 -11 27 -11c0 0 375 0 375 0c10 0 18.667 3.667 26 11c7.333 7.333 11 16 11 26c0 0 0 56 0 56c0 10.667 -3.667 19.667 -11 27c-7.333 7.333 -16 11 -26 11c0 0 -375 0 -375 0c-10.667 0 -19.667 -3.667 -27 -11c-7.333 -7.333 -11 -16.333 -11 -27c0 0 0 0 0 0m0 -206c0 0 0 -56 0 -56c0 -10.667 3.667 -19.667 11 -27c7.333 -7.333 16.333 -11 27 -11c0 0 300 0 300 0c10 0 18.667 3.667 26 11c7.333 7.333 11 16.333 11 27c0 0 0 56 0 56c0 10.667 -3.667 19.667 -11 27c-7.333 7.333 -16 11 -26 11c0 0 -300 0 -300 0c-10.667 0 -19.667 -3.667 -27 -11c-7.333 -7.333 -11 -16.333 -11 -27c0 0 0 0 0 0m0 -206c0 0 0 -56 0 -56c0 -10.667 3.667 -19.667 11 -27c7.333 -7.333 16.333 -11 27 -11c0 0 337 0 337 0c10.667 0 19.667 3.667 27 11c7.333 7.333 11 16.333 11 27c0 0 0 56 0 56c0 10.667 -3.667 19.5 -11 26.5c-7.333 7 -16.333 10.5 -27 10.5c0 0 -337 0 -337 0c-10.667 0 -19.667 -3.5 -27 -10.5c-7.333 -7 -11 -15.833 -11 -26.5c0 0 0 0 0 0m0 -206c0 0 0 -57 0 -57c0 -10 3.667 -18.667 11 -26c7.333 -7.333 16.333 -11 27 -11c0 0 262 0 262 0c10.667 0 19.667 3.667 27 11c7.333 7.333 11 16 11 26c0 0 0 57 0 57c0 10 -3.667 18.667 -11 26c-7.333 7.333 -16.333 11 -27 11c0 0 -262 0 -262 0c-10.667 0 -19.667 -3.667 -27 -11c-7.333 -7.333 -11 -16 -11 -26c0 0 0 0 0 0" />
  </g>
</svg>