<svg height="1000" width="857.1" xmlns="http://www.w3.org/2000/svg"><path d="M571.4 767.9v-89.3q0 -7.8 -5 -12.9t-12.8 -5H500V375q0 -7.8 -5 -12.8t-12.9 -5.1H303.6q-7.8 0 -12.9 5.1t-5 12.8v89.3q0 7.8 5 12.8t12.9 5h53.5v178.6h-53.5q-7.8 0 -12.9 5t-5 12.9v89.3q0 7.8 5 12.8t12.9 5h250q7.8 0 12.8 -5t5 -12.8zM500 267.9v-89.3q0 -7.8 -5 -12.9t-12.9 -5H375q-7.8 0 -12.8 5t-5.1 12.9v89.3q0 7.8 5.1 12.8t12.8 5h107.1q7.9 0 12.9 -5t5 -12.8zM857.1 500q0 116.6 -57.4 215.1t-156 156 -215.1 57.5T213.4 871.1 57.5 715.1 0 500 57.5 284.9t155.9 -156T428.6 71.4t215.1 57.5 156 156T857.1 500z"/></svg>