<svg height="1000px" width="857.1428571428571px" xmlns="http://www.w3.org/2000/svg">
  <g>
    <path d="M0 499.99999999999994c0 -77.753 19.159 -149.461 57.478 -215.123c38.318 -65.662 90.308 -117.652 155.971 -155.971c65.662 -38.318 137.369 -57.477 215.122 -57.477c77.753 0 149.461 19.159 215.123 57.477c65.662 38.319 117.653 90.309 155.971 155.971c38.319 65.662 57.478 137.37 57.478 215.123c0 77.753 -19.159 149.461 -57.478 215.123c-38.318 65.662 -90.309 117.652 -155.971 155.971c-65.662 38.318 -137.37 57.477 -215.123 57.477c-77.753 0 -149.46 -19.159 -215.122 -57.477c-65.663 -38.319 -117.653 -90.309 -155.971 -155.971c-38.319 -65.662 -57.478 -137.37 -57.478 -215.123c0 0 0 0 0 0m285.714 267.857c0 5.208 1.674 9.487 5.023 12.835c3.348 3.348 7.626 5.022 12.834 5.022c0 0 250 0 250 0c5.209 0 9.487 -1.674 12.835 -5.022c3.348 -3.348 5.023 -7.627 5.023 -12.835c0 0 0 -35.714 0 -35.714c0 -5.208 -1.675 -9.487 -5.023 -12.835c-3.348 -3.348 -7.626 -5.022 -12.835 -5.022c0 0 -53.571 0 -53.571 0c0 0 0 -267.857 0 -267.857c0 -5.209 -1.674 -9.487 -5.022 -12.835c-3.349 -3.348 -7.627 -5.023 -12.835 -5.023c0 0 -178.572 0 -178.572 0c-5.208 0 -9.486 1.675 -12.834 5.023c-3.349 3.348 -5.023 7.626 -5.023 12.835c0 0 0 35.714 0 35.714c0 5.208 1.674 9.486 5.023 12.835c3.348 3.348 7.626 5.022 12.834 5.022c0 0 53.572 0 53.572 0c0 0 0 214.286 0 214.286c0 0 -53.572 0 -53.572 0c-5.208 0 -9.486 1.674 -12.834 5.022c-3.349 3.348 -5.023 7.627 -5.023 12.835c0 0 0 35.714 0 35.714c0 0 0 0 0 0m71.429 -428.571c0 5.208 1.674 9.486 5.022 12.835c3.348 3.348 7.627 5.022 12.835 5.022c0 0 107.143 0 107.143 0c5.208 0 9.486 -1.674 12.835 -5.022c3.348 -3.349 5.022 -7.627 5.022 -12.835c0 0 0 -107.143 0 -107.143c0 -5.208 -1.674 -9.487 -5.022 -12.835c-3.349 -3.348 -7.627 -5.022 -12.835 -5.022c0 0 -107.143 0 -107.143 0c-5.208 0 -9.487 1.674 -12.835 5.022c-3.348 3.348 -5.022 7.627 -5.022 12.835c0 0 0 107.143 0 107.143c0 0 0 0 0 0" />
  </g>
</svg>