<svg height="1000px" width="750px" xmlns="http://www.w3.org/2000/svg">
  <g>
    <path d="M0 500c0 -52 9.833 -100.667 29.5 -146c19.667 -45.333 46.5 -85 80.5 -119c34 -34 73.667 -60.833 119 -80.5c45.333 -19.667 94 -29.5 146 -29.5c52 0 100.667 9.833 146 29.5c45.333 19.667 85 46.5 119 80.5c34 34 60.833 73.667 80.5 119c19.667 45.333 29.5 94 29.5 146c0 52 -9.833 100.667 -29.5 146c-19.667 45.333 -46.5 85 -80.5 119c-34 34 -73.667 60.833 -119 80.5c-45.333 19.667 -94 29.5 -146 29.5c-52 0 -100.667 -9.833 -146 -29.5c-45.333 -19.667 -85 -46.5 -119 -80.5c-34 -34 -60.833 -73.667 -80.5 -119c-19.667 -45.333 -29.5 -94 -29.5 -146c0 0 0 0 0 0m269 -43c0 9.333 4.667 14 14 14c0 0 40 0 40 0c0 0 0 192 0 192c0 0 -37 0 -37 0c-3.333 0 -6.5 1.5 -9.5 4.5c-3 3 -4.5 6.167 -4.5 9.5c0 0 0 66 0 66c0 3.333 1.5 6.5 4.5 9.5c3 3 6.167 4.5 9.5 4.5c0 0 189 0 189 0c3.333 0 6.5 -1.5 9.5 -4.5c3 -3 4.5 -6.167 4.5 -9.5c0 0 0 -66 0 -66c0 -3.333 -1.5 -6.5 -4.5 -9.5c-3 -3 -6.167 -4.5 -9.5 -4.5c0 0 -36 0 -36 0c0 0 0 -271 0 -271c0 -4 -1.5 -7.333 -4.5 -10c-3 -2.667 -6.167 -4 -9.5 -4c0 0 -142 0 -142 0c-9.333 0 -14 4.667 -14 14c0 0 0 65 0 65c0 0 0 0 0 0m53 -137c0 4 1.5 7.5 4.5 10.5c3 3 6.5 4.5 10.5 4.5c0 0 88 0 88 0c3.333 0 6.5 -1.5 9.5 -4.5c3 -3 4.5 -6.5 4.5 -10.5c0 0 0 -77 0 -77c0 -4 -1.5 -7.333 -4.5 -10c-3 -2.667 -6.167 -4 -9.5 -4c0 0 -88 0 -88 0c-4 0 -7.5 1.333 -10.5 4c-3 2.667 -4.5 6 -4.5 10c0 0 0 77 0 77c0 0 0 0 0 0" />
  </g>
</svg>