<svg height="1000" width="858" xmlns="http://www.w3.org/2000/svg"><path d="M0 500.032q0-116.622 57.474-215.109t155.961-155.961 215.109-57.474 215.109 57.474 155.961 155.961 57.474 215.109-57.474 215.109-155.961 155.961-215.109 57.474-215.109-57.474-155.961-155.961-57.474-215.109zm285.696 267.84q0 7.812 5.022 12.834t12.834 5.022l249.984 0q7.812 0 12.834-5.022t5.022-12.834l0-35.712q0-7.812-5.022-12.834t-12.834-5.022l-53.568 0l0-267.84q0-7.812-5.022-12.834t-12.834-5.022l-178.56 0q-7.812 0-12.834 5.022t-5.022 12.834l0 35.712q0 7.812 5.022 12.834t12.834 5.022l53.568 0l0 214.272l-53.568 0q-7.812 0-12.834 5.022t-5.022 12.834l0 35.712zm71.424-428.544q0 7.812 5.022 12.834t12.834 5.022l107.136 0q7.812 0 12.834-5.022t5.022-12.834l0-107.136q0-7.812-5.022-12.834t-12.834-5.022l-107.136 0q-7.812 0-12.834 5.022t-5.022 12.834l0 107.136z"/></svg>