<svg height="1000px" width="779.78515625px" xmlns="http://www.w3.org/2000/svg">
  <g>
    <path d="M0 500c0 -54.036 10.173 -104.736 30.518 -152.1c20.345 -47.363 48.177 -88.704 83.496 -124.023c35.319 -35.319 76.66 -63.151 124.023 -83.496c47.363 -20.345 98.063 -30.518 152.1 -30.518c54.036 0 104.655 10.173 151.855 30.518c47.201 20.345 88.542 48.177 124.024 83.496c35.481 35.319 63.313 76.66 83.496 124.023c20.182 47.364 30.273 98.064 30.273 152.1c0 54.036 -10.091 104.736 -30.273 152.1c-20.183 47.363 -48.015 88.704 -83.496 124.023c-35.482 35.319 -76.823 63.151 -124.024 83.496c-47.2 20.345 -97.819 30.518 -151.855 30.518c-54.037 0 -104.737 -10.173 -152.1 -30.518c-47.363 -20.345 -88.704 -48.177 -124.023 -83.496c-35.319 -35.319 -63.151 -76.66 -83.496 -124.023c-20.345 -47.364 -30.518 -98.064 -30.518 -152.1c0 0 0 0 0 0m279.785 -43.945c0 9.44 4.72 14.16 14.16 14.16c0 0 41.993 0 41.993 0c0 0 0 199.707 0 199.707c0 0 -38.086 0 -38.086 0c-3.907 0 -7.325 1.383 -10.254 4.15c-2.93 2.767 -4.395 6.104 -4.395 10.01c0 0 0 67.871 0 67.871c0 3.906 1.465 7.406 4.395 10.498c2.929 3.093 6.347 4.639 10.254 4.639c0 0 196.289 0 196.289 0c3.906 0 7.161 -1.546 9.765 -4.639c2.604 -3.092 3.907 -6.592 3.907 -10.498c0 0 0 -67.871 0 -67.871c0 -9.44 -4.558 -14.16 -13.672 -14.16c0 0 -38.086 0 -38.086 0c0 0 0 -281.738 0 -281.738c0 -3.907 -1.302 -7.406 -3.907 -10.498c-2.604 -3.093 -6.022 -4.639 -10.253 -4.639c0 0 -147.95 0 -147.95 0c-3.906 0 -7.243 1.465 -10.009 4.394c-2.767 2.93 -4.151 6.511 -4.151 10.743c0 0 0 67.871 0 67.871c0 0 0 0 0 0m55.176 -143.067c0 3.907 1.546 7.406 4.639 10.498c3.092 3.093 6.591 4.639 10.498 4.639c0 0 91.797 0 91.797 0c3.906 0 7.242 -1.546 10.009 -4.639c2.767 -3.092 4.151 -6.591 4.151 -10.498c0 0 0 -81.054 0 -81.054c0 -9.441 -4.72 -14.161 -14.16 -14.161c0 0 -91.797 0 -91.797 0c-3.907 0 -7.406 1.384 -10.498 4.151c-3.093 2.767 -4.639 6.103 -4.639 10.01c0 0 0 81.054 0 81.054c0 0 0 0 0 0" />
  </g>
</svg>