<svg height="1000" width="857.143" xmlns="http://www.w3.org/2000/svg"><path d="M0 500.032q0 -116.622 57.474 -215.109t155.961 -155.961 215.109 -57.474 215.109 57.474 155.961 155.961 57.474 215.109 -57.474 215.109 -155.961 155.961 -215.109 57.474 -215.109 -57.474 -155.961 -155.961 -57.474 -215.109zm285.696 267.84q0 7.812 5.022 12.834t12.834 5.022h249.984q7.812 0 12.834 -5.022t5.022 -12.834v-89.28q0 -7.812 -5.022 -12.834t-12.834 -5.022h-53.568v-285.696q0 -7.812 -5.022 -12.834t-12.834 -5.022h-178.56q-7.812 0 -12.834 5.022t-5.022 12.834v89.28q0 7.812 5.022 12.834t12.834 5.022h53.568v178.56h-53.568q-7.812 0 -12.834 5.022t-5.022 12.834v89.28zm71.424 -499.968q0 7.812 5.022 12.834t12.834 5.022h107.136q7.812 0 12.834 -5.022t5.022 -12.834v-89.28q0 -7.812 -5.022 -12.834t-12.834 -5.022h-107.136q-7.812 0 -12.834 5.022t-5.022 12.834v89.28z"/></svg>