<svg height="1000" width="857.1" xmlns="http://www.w3.org/2000/svg"><path d="M0 500q0-116.6 57.5-215.1t156-156 215.1-57.5 215.1 57.5 156 156 57.5 215.1-57.5 215.1-156 156-215.1 57.5-215.1-57.5-156-156-57.5-215.1zm285.7 267.8q0 7.8 5 12.8t12.8 5h250q7.8 0 12.8-5t5-12.8v-35.7q0-7.8-5-12.8t-12.8-5h-53.6v-267.8q0-7.8-5-12.8t-12.8-5h-178.6q-7.8 0-12.8 5t-5 12.8v35.7q0 7.8 5 12.8t12.8 5h53.6v214.3h-53.6q-7.8 0-12.8 5t-5 12.8v35.7zm71.4-428.5q0 7.8 5 12.8t12.8 5h107.1q7.8 0 12.8-5t5-12.8v-107.1q0-7.8-5-12.8t-12.8-5h-107.1q-7.8 0-12.8 5t-5 12.8v107.1z"/></svg>