<svg height="1000" width="857.143" xmlns="http://www.w3.org/2000/svg"><path d="M571.392 767.872v-89.28q0 -7.812 -5.022 -12.834t-12.834 -5.022h-53.568v-285.696q0 -7.812 -5.022 -12.834t-12.834 -5.022h-178.56q-7.812 0 -12.834 5.022t-5.022 12.834v89.28q0 7.812 5.022 12.834t12.834 5.022h53.568v178.56h-53.568q-7.812 0 -12.834 5.022t-5.022 12.834v89.28q0 7.812 5.022 12.834t12.834 5.022h249.984q7.812 0 12.834 -5.022t5.022 -12.834zm-71.424 -499.968v-89.28q0 -7.812 -5.022 -12.834t-12.834 -5.022h-107.136q-7.812 0 -12.834 5.022t-5.022 12.834v89.28q0 7.812 5.022 12.834t12.834 5.022h107.136q7.812 0 12.834 -5.022t5.022 -12.834zm357.12 232.128q0 116.622 -57.474 215.109t-155.961 155.961 -215.109 57.474 -215.109 -57.474 -155.961 -155.961 -57.474 -215.109 57.474 -215.109 155.961 -155.961 215.109 -57.474 215.109 57.474 155.961 155.961 57.474 215.109z"/></svg>