<svg height="1000" width="857.143" xmlns="http://www.w3.org/2000/svg"><path d="M759.996 795.772v-361.584h-75.33q11.16 35.154 11.16 73.098 0 70.308 -35.712 129.735t-97.092 94.023 -133.92 34.596q-109.926 0 -188.046 -75.609t-78.12 -182.745q0 -37.944 11.16 -73.098h-78.678v361.584q0 14.508 9.765 24.273t24.273 9.765h596.502q13.95 0 23.994 -9.765t10.044 -24.273zm-158.472 -297.414q0 -69.192 -50.499 -118.017t-121.923 -48.825q-70.866 0 -121.365 48.825t-50.499 118.017 50.499 118.017 121.365 48.825q71.424 0 121.923 -48.825t50.499 -118.017zm158.472 -200.88v-92.07q0 -15.624 -11.16 -27.063t-27.342 -11.439h-97.092q-16.182 0 -27.342 11.439t-11.16 27.063v92.07q0 16.182 11.16 27.342t27.342 11.16h97.092q16.182 0 27.342 -11.16t11.16 -27.342zm97.092 -116.064v637.236q0 45.198 -32.364 77.562t-77.562 32.364h-637.236q-45.198 0 -77.562 -32.364t-32.364 -77.562v-637.236q0 -45.198 32.364 -77.562t77.562 -32.364h637.236q45.198 0 77.562 32.364t32.364 77.562z"/></svg>