<svg height="1000" width="857.1" xmlns="http://www.w3.org/2000/svg"><path d="M571.4 500q0 -59.2 -41.8 -101t-101 -41.9 -101 41.9 -41.9 101 41.9 101 101 41.9 101 -41.9 41.8 -101zm77 0q0 91.5 -64.1 155.7t-155.7 64.2T272.9 655.7 208.7 500t64.2 -155.7 155.7 -64.2 155.7 64.2T648.4 500zm60.3 -228.8q0 21.2 -15.1 36.3t-36.2 15 -36.3 -15T606 271.2t15.1 -36.3 36.3 -15 36.2 15 15.1 36.3zM428.6 148.4q-3.9 0 -42.7 -.2t-58.9 0 -53.8 1.6 -57.5 5.6 -39.9 10.3q-27.9 11.2 -49.1 32.4t-32.4 49.1Q88.2 263.4 84 287.1t-5.6 57.5 -1.7 53.8 0 58.9T77 500t-.3 42.7 0 58.9 1.7 53.8 5.6 57.5 10.3 39.9q11.2 27.9 32.4 49.1t49.1 32.4q16.2 6.1 39.9 10.3t57.5 5.6 53.8 1.6 58.9 0 42.7 -.2 42.7 .2 58.8 0 53.9 -1.6 57.5 -5.6 39.9 -10.3q27.9 -11.2 49.1 -32.4t32.3 -49.1q6.2 -16.2 10.4 -39.9t5.5 -57.5 1.7 -53.8 0 -58.9 -.3 -42.7 .3 -42.7 0 -58.9 -1.7 -53.8 -5.5 -57.5 -10.4 -39.9q-11.1 -27.9 -32.3 -49.1t-49.1 -32.4q-16.2 -6.1 -39.9 -10.3T584 149.8t-53.9 -1.6 -58.8 0 -42.7 .2zM857.1 500q0 127.8 -2.7 176.9Q848.8 793 785.2 856.6t-179.7 69.2q-49.1 2.8 -176.9 2.8t-176.9 -2.8Q135.6 920.2 72 856.6T2.8 676.9Q0 627.8 0 500T2.8 323.1Q8.4 207 72 143.4T251.7 74.2q49.1 -2.8 176.9 -2.8t176.9 2.8q116 5.6 179.7 69.2t69.2 179.7q2.7 49.1 2.7 176.9z"/></svg>