<svg height="1000" width="1000" xmlns="http://www.w3.org/2000/svg"><path d="M1000 522.9q0 31.2 -3.9 58H353.8q0 81.5 61.1 136.5t143.7 54.9q55.2 0 103.5 -25.9t76.2 -72.9h236q-31.2 88.8 -95.1 156.9T729.9 935.5t-179.1 37.2q-104.4 0 -198.7 -46.4 -127.2 64.8 -219.8 64.8Q0 991.1 0 844.3 0 780.1 25.1 690.8q9.5 -33.4 60.8 -127.7Q197 362.2 351 224.9 248.3 269 112.7 422.4 147.9 269.5 270.9 171.6T550.8 73.7q16.7 0 25.1 .5Q718.2 8.9 817.5 8.9q35.7 0 64.8 7.3T935 38.8t37.1 42.7 13.4 64.1q0 64.8 -41.9 159.6 56.4 101.6 56.4 217.7zM960.9 165.7q0 -46.3 -29.5 -73.6T854.9 64.7q-60.3 0 -141.7 39.1 67.5 26.2 124.1 73.4t95.2 109.1q28.4 -75.4 28.4 -120.6zM71.4 856q0 48 27.1 74t75 25.9q64.2 0 148.5 -46.3Q253.9 869.4 202.8 807.5T126.1 670.8Q71.4 785.2 71.4 856zM352.7 458.1h406.2q-2.8 -79.2 -63 -132.2t-140.1 -53q-80.4 0 -140.3 53t-62.8 132.2z"/></svg>