<svg height="1000" width="1142.9" xmlns="http://www.w3.org/2000/svg"><path d="M816.4 464.3q0 19.5 -13.9 33.7t-34.1 14.3H376.7q-20.1 0 -34.1 -14.3t-13.9 -33.7 13.9 -33.8 34.1 -14.2h391.7q20.1 0 34.1 14.2t13.9 33.8zm119.4 0q0 -48 -12.8 -94.9H375q-20.1 0 -34 -13.9T327 322q0 -20.1 14 -34.1T375 274h506.7Q832.6 194.2 750.6 147.3T572 100.4q-98.8 0 -182.8 48.9T256.4 281.8t-48.8 182.5q0 48 12.8 94.9h548q20.1 0 34.1 13.9t13.9 33.5q0 20.1 -13.9 34t-34.1 14H261.7q49.1 79.8 131.4 126.7T572 828.1q73.6 0 141.2 -28.7t116 -77.6 77.6 -116.1 29 -141.4zM1142.9 322q0 19.5 -14 33.5t-34 13.9h-73.1q9.5 47.5 9.5 94.9 0 93.2 -36.6 178.3t-97.9 146.7 -146.5 98.3T572 924.1q-137.3 0 -250.3 -74.2T153.5 654.6H48q-20.1 0 -34 -14t-14 -34q0 -19.5 14 -33.5t34 -13.9h73.7q-9.5 -47.5 -9.5 -94.9 0 -93.2 36.5 -178.3t98 -146.8T393.1 41 572 4.5q136.7 0 249.7 74.2T990 274h104.9q20.1 0 34 13.9t14 34.1z"/></svg>