<svg height="1000" width="1142.857" xmlns="http://www.w3.org/2000/svg"><path d="M816.354 464.32q0 19.53 -13.95 33.759t-34.038 14.229h-391.716q-20.088 0 -34.038 -14.229t-13.95 -33.759 13.95 -33.759 34.038 -14.229h391.716q20.088 0 34.038 14.229t13.95 33.759zm119.412 0q0 -47.988 -12.834 -94.86h-547.956q-20.088 0 -34.038 -13.95t-13.95 -33.48q0 -20.088 13.95 -34.038t34.038 -13.95h506.664q-49.104 -79.794 -131.13 -126.666t-178.56 -46.872q-98.766 0 -182.745 48.825t-132.804 132.525 -48.825 182.466q0 47.988 12.834 94.86h547.956q20.088 0 34.038 13.95t13.95 33.48q0 20.088 -13.95 34.038t-34.038 13.95h-506.664q49.104 79.794 131.409 126.666t178.839 46.872q73.656 0 141.174 -28.737t116.064 -77.562 77.562 -116.064 29.016 -141.453zm207.018 -142.29q0 19.53 -13.95 33.48t-34.038 13.95h-73.098q9.486 47.43 9.486 94.86 0 93.186 -36.549 178.281t-97.929 146.754 -146.475 98.208 -178.281 36.549q-137.268 0 -250.263 -74.214t-168.237 -195.3h-105.462q-20.088 0 -34.038 -13.95t-13.95 -34.038q0 -19.53 13.95 -33.48t34.038 -13.95h73.656q-9.486 -47.43 -9.486 -94.86 0 -93.186 36.549 -178.281t97.929 -146.754 146.475 -98.208 178.839 -36.549q136.71 0 249.705 74.214t168.237 195.3h104.904q20.088 0 34.038 13.95t13.95 34.038z"/></svg>