<svg height="1000px" width="514.6484375px" xmlns="http://www.w3.org/2000/svg">
  <g>
    <path d="M0 874.0234375c0 0 8.789 -41.016 8.789 -41.016c3.906 -1.302 9.115 -2.767 15.625 -4.394c6.51 -1.628 13.997 -3.418 22.461 -5.371c13.346 -3.255 24.902 -6.429 34.668 -9.522c9.766 -3.092 17.904 -6.266 24.414 -9.521c9.44 -12.696 16.113 -29.46 20.02 -50.293c0 0 14.16 -66.895 14.16 -66.895c0 0 27.832 -130.859 27.832 -130.859c0 0 5.859 -31.25 5.859 -31.25c7.487 -38.737 14.242 -67.708 20.264 -86.914c6.022 -19.206 9.033 -29.46 9.033 -30.762c0 0 14.648 -76.172 14.648 -76.172c0 0 8.301 -31.25 8.301 -31.25c0 0 10.742 -65.918 10.742 -65.918c0 0 4.395 -23.926 4.395 -23.926c0 0 0 -19.042 0 -19.042c-14.648 -7.487 -38.737 -12.045 -72.266 -13.672c-4.557 0 -8.382 -0.244 -11.474 -0.733c-3.093 -0.488 -5.941 -0.732 -8.545 -0.732c0 0 10.254 -50.781 10.254 -50.781c0 0 158.691 6.835 158.691 6.835c10.091 0.652 18.148 0.977 24.17 0.977c0 0 12.939 0 12.939 0c11.394 0 25.879 -0.325 43.457 -0.977c17.579 -0.651 39.063 -1.627 64.454 -2.929c13.346 -1.302 24.495 -2.279 33.447 -2.93c8.952 -0.651 15.218 -0.976 18.799 -0.976c-0.651 3.255 -1.14 6.429 -1.465 9.521c-0.326 3.092 -0.814 6.266 -1.465 9.522c-1.302 3.255 -2.523 6.917 -3.662 10.986c-1.139 4.069 -2.36 8.708 -3.662 13.916c-15.951 5.208 -33.854 10.254 -53.711 15.137c-21.485 5.208 -38.574 10.253 -51.27 15.136c-3.906 10.742 -7.812 25.065 -11.718 42.969c-1.954 8.138 -3.5 15.462 -4.639 21.973c-1.139 6.51 -2.035 12.532 -2.686 18.066c-7.487 32.552 -13.997 61.117 -19.531 85.693c-5.534 24.577 -9.928 45.655 -13.183 63.233c0 0 -31.25 151.855 -31.25 151.855c0 0 -19.043 77.149 -19.043 77.149c0 0 -20.997 114.746 -20.997 114.746c0 0 -6.835 21.973 -6.835 21.973c0 0 0 5.127 0 5.127c0 0 0.325 2.685 0.976 8.056c11.393 2.604 21.891 4.72 31.494 6.348c9.603 1.627 19.125 3.092 28.565 4.394c1.302 0 4.801 0.407 10.498 1.221c0 0 22.217 3.174 22.217 3.174c-0.652 5.859 -1.14 11.149 -1.465 15.869c-0.326 4.72 -0.814 9.033 -1.465 12.939c-0.651 1.954 -1.302 4.639 -1.953 8.057c-0.651 3.418 -1.628 7.08 -2.93 10.986c-2.604 0 -4.883 0.163 -6.836 0.489c-1.953 0.325 -3.581 0.488 -4.883 0.488c-5.859 0.651 -10.498 0.977 -13.916 0.977c0 0 -7.08 0 -7.08 0c0 0 -5.615 0 -5.615 0c0 0 -2.848 -0.651 -8.545 -1.954c-2.604 0 -9.928 -0.651 -21.973 -1.953c-12.044 -1.302 -29.134 -3.255 -51.269 -5.859c0 0 -98.633 -0.977 -98.633 -0.977c-19.857 0 -49.316 1.954 -88.379 5.86c-12.695 1.302 -23.03 2.278 -31.006 2.929c-7.975 0.651 -13.916 0.977 -17.822 0.977c0 0 0 0 0 0" />
  </g>
</svg>