<svg height="1000px" width="515px" xmlns="http://www.w3.org/2000/svg">
  <g>
    <path d="M0 874c0 0 9 -41 9 -41c4 -1.333 9.167 -2.833 15.5 -4.5c6.333 -1.667 13.833 -3.5 22.5 -5.5c13.333 -3.333 24.833 -6.5 34.5 -9.5c9.667 -3 17.833 -6.167 24.5 -9.5c9.333 -12.667 16 -29.333 20 -50c0 0 14 -67 14 -67c0 0 28 -131 28 -131c0 0 6 -31 6 -31c7.333 -38.667 14 -67.667 20 -87c6 -19.333 9 -29.667 9 -31c0 0 15 -76 15 -76c0 0 8 -31 8 -31c0 0 11 -66 11 -66c0 0 4 -24 4 -24c0 0 0 -19 0 -19c-14.667 -7.333 -38.667 -12 -72 -14c-4.667 0 -8.5 -0.167 -11.5 -0.5c-3 -0.333 -5.833 -0.5 -8.5 -0.5c0 0 10 -51 10 -51c0 0 159 7 159 7c10 0.667 18 1 24 1c0 0 13 0 13 0c11.333 0 25.833 -0.333 43.5 -1c17.667 -0.667 39.167 -1.667 64.5 -3c13.333 -1.333 24.5 -2.333 33.5 -3c9 -0.667 15.167 -1 18.5 -1c-0.667 3.333 -1.167 6.5 -1.5 9.5c-0.333 3 -0.833 6.167 -1.5 9.5c-1.333 3.333 -2.667 7 -4 11c0 0 -3 14 -3 14c-16 5.333 -34 10.333 -54 15c-21.333 5.333 -38.333 10.333 -51 15c-4 10.667 -8 25 -12 43c-2 8 -3.5 15.333 -4.5 22c-1 6.667 -1.833 12.667 -2.5 18c-7.333 32.667 -13.833 61.333 -19.5 86c-5.667 24.667 -10.167 45.667 -13.5 63c0 0 -31 152 -31 152c0 0 -19 77 -19 77c0 0 -21 115 -21 115c0 0 -7 22 -7 22c0 0 0 5 0 5c0 2 0.333 4.667 1 8c11.333 2.667 21.833 4.833 31.5 6.5c9.667 1.667 19.167 3.167 28.5 4.5c1.333 0 4.833 0.333 10.5 1c5.667 0.667 13.167 1.667 22.5 3c-0.667 6 -1.167 11.333 -1.5 16c-0.333 4.667 -0.833 9 -1.5 13c-0.667 2 -1.333 4.667 -2 8c-0.667 3.333 -1.667 7 -3 11c-2.667 0 -5 0.167 -7 0.5c-2 0.333 -3.667 0.5 -5 0.5c-6 0.667 -10.667 1 -14 1c0 0 -7 0 -7 0c0 0 -5 0 -5 0c-2.667 0 -5.667 -0.667 -9 -2c-2.667 0 -10 -0.667 -22 -2c-12 -1.333 -29 -3.333 -51 -6c0 0 -99 -1 -99 -1c-20 0 -49.333 2 -88 6c-12.667 1.333 -23 2.333 -31 3c-8 0.667 -14 1 -18 1c0 0 0 0 0 0" />
  </g>
</svg>