<svg height="1000" width="571.4" xmlns="http://www.w3.org/2000/svg"><path d="M0 927.5L9.5 880q3.3 -1.1 45.5 -12t62.2 -20.9q15.6 -19.5 22.9 -56.4 .5 -3.9 34.6 -161.2t63.6 -303.3 29 -165.5v-13.9q-13.4 -7.3 -30.4 -10.4T198.1 132t-32.4 -3.1l10.6 -57.5q18.5 1.1 67 3.7t83.4 3.9 67.3 1.4q26.8 0 54.9 -1.4t67.6 -3.9 54.9 -3.7q-2.8 21.8 -10.6 49.7 -16.7 5.6 -56.6 15.9t-60.6 18.7q-4.4 10.6 -7.8 23.7t-5 22.3 -4.2 25.4 -3.6 23.5q-15.1 82.5 -48.8 234.1T330.9 683q-1.1 5.1 -7.2 32.4t-11.2 50.2 -8.9 46.6 -3.4 32.1l.6 10.1q9.5 2.2 103.2 17.3 -1.7 24.5 -8.9 55.2 -6.1 0 -18.1 .8t-18.2 .9q-16.2 0 -48.5 -5.6t-48 -5.6q-77 -1.1 -115 -1.1 -28.4 0 -79.8 5T0 927.5z"/></svg>