<svg height="1000px" width="571.4285714285714px" xmlns="http://www.w3.org/2000/svg">
  <g>
    <path d="M0 927.4553571428571c0 0 9.487 -47.433 9.487 -47.433c1.488 -0.372 15.811 -4.092 42.968 -11.161c28.274 -7.068 49.852 -14.323 64.732 -21.763c10.789 -13.765 18.416 -32.552 22.88 -56.362c0 0 15.067 -77.567 15.067 -77.567c0 0 31.25 -149.553 31.25 -149.553c0 0 6.696 -35.715 6.696 -35.715c2.977 -16.369 6.139 -32.087 9.487 -47.154c3.348 -15.067 6.324 -27.529 8.929 -37.388c2.604 -9.859 4.929 -18.508 6.975 -25.949c2.046 -7.44 3.72 -13.113 5.022 -17.02c1.302 -3.906 1.953 -6.045 1.953 -6.417c0 0 16.183 -87.612 16.183 -87.612c0 0 8.929 -35.156 8.929 -35.156c0 0 12.277 -75.335 12.277 -75.335c0 0 4.464 -27.902 4.464 -27.902c0 0 0 -21.205 0 -21.205c-15.253 -8.184 -42.039 -13.393 -80.357 -15.625c-10.417 -0.744 -17.485 -1.488 -21.205 -2.232c0 0 10.602 -57.478 10.602 -57.478c0 0 176.898 7.813 176.898 7.813c14.509 0.744 28.087 1.116 40.736 1.116c24.554 0 64.36 -1.674 119.42 -5.023c12.277 -0.744 24.925 -1.581 37.946 -2.511c13.021 -0.93 19.718 -1.395 20.09 -1.395c-0.744 7.069 -1.861 14.137 -3.349 21.206c-2.604 10.788 -5.022 20.275 -7.254 28.459c-20.461 7.069 -40.737 12.835 -60.826 17.299c-23.81 5.953 -42.597 11.719 -56.362 17.3c-4.464 11.532 -8.928 27.901 -13.392 49.107c-3.349 16.369 -5.767 31.622 -7.255 45.759c-16.369 74.032 -28.646 130.952 -36.83 170.759c0 0 -34.04 173.549 -34.04 173.549c0 0 -21.206 88.169 -21.206 88.169c0 0 -23.995 131.139 -23.995 131.139c0 0 -6.697 25.111 -6.697 25.111c-0.744 2.605 -0.558 7.627 0.558 15.067c23.81 5.581 45.945 9.487 66.407 11.719c13.392 1.86 25.669 3.72 36.83 5.58c-0.372 10.789 -1.674 21.578 -3.906 32.366c-2.605 11.533 -4.279 19.16 -5.023 22.88c-6.696 0 -10.974 0.186 -12.835 0.558c-8.928 0.744 -16.741 1.116 -23.437 1.116c-3.348 0 -8.557 -0.558 -15.625 -1.674c-7.068 -1.488 -34.04 -4.65 -80.915 -9.487c0 0 -110.491 -1.116 -110.491 -1.116c-15.253 -0.372 -47.619 1.674 -97.098 6.139c-27.53 2.604 -45.759 4.278 -54.688 5.022c0 0 0 0 0 0" />
  </g>
</svg>