<svg height="1000" width="571.429" xmlns="http://www.w3.org/2000/svg"><path d="M0 927.46l9.486 -47.43q2.232 -.558 42.966 -11.16 42.408 -10.602 64.728 -21.762 16.182 -20.646 22.878 -56.358l15.066 -77.562 31.248 -149.544 6.696 -35.712q4.464 -24.552 9.486 -47.151t8.928 -37.386 6.975 -25.947 5.022 -17.019 1.953 -6.417l16.182 -87.606 8.928 -35.154 12.276 -75.33 4.464 -27.9v-21.204q-22.878 -12.276 -80.352 -15.624 -15.624 -1.116 -21.204 -2.232l10.602 -57.474 176.886 7.812q21.762 1.116 40.734 1.116 36.828 0 119.412 -5.022 18.414 -1.116 37.944 -2.511t20.088 -1.395q-1.116 10.602 -3.348 21.204 -3.906 16.182 -7.254 28.458 -30.69 10.602 -60.822 17.298 -35.712 8.928 -56.358 17.298 -6.696 17.298 -13.392 49.104 -5.022 24.552 -7.254 45.756 -24.552 111.042 -36.828 170.748l-34.038 173.538 -21.204 88.164 -23.994 131.13 -6.696 25.11q-1.116 3.906 .558 15.066 35.712 8.37 66.402 11.718 20.088 2.79 36.828 5.58 -.558 16.182 -3.906 32.364 -3.906 17.298 -5.022 22.878 -10.044 0 -12.834 .558 -13.392 1.116 -23.436 1.116 -5.022 0 -15.624 -1.674 -10.602 -2.232 -80.91 -9.486l-110.484 -1.116q-22.878 -.558 -97.092 6.138 -41.292 3.906 -54.684 5.022z"/></svg>