<svg height="1000px" width="571.4285714285714px" xmlns="http://www.w3.org/2000/svg">
  <g>
    <path d="M0 927.4553571428571c0 0 9.487 -47.433 9.487 -47.433c55.803 -14.137 91.703 -25.112 107.701 -32.924c10.788 -13.765 18.415 -32.552 22.879 -56.362c0 0 46.317 -227.12 46.317 -227.12c0 0 6.696 -35.715 6.696 -35.715c9.673 -53.199 17.485 -88.727 23.438 -106.584c5.952 -17.858 8.928 -26.972 8.928 -27.344c0 0 16.183 -87.612 16.183 -87.612c0 0 8.929 -35.156 8.929 -35.156c0 0 16.741 -103.237 16.741 -103.237c0 0 0 -21.205 0 -21.205c-15.253 -8.184 -35.063 -13.021 -59.431 -14.509c-24.367 -1.488 -38.411 -2.604 -42.131 -3.348c0 0 10.602 -57.478 10.602 -57.478c0 0 176.898 7.813 176.898 7.813c14.509 0.744 31.064 1.116 49.665 1.116c18.601 0 44.736 -1.023 78.404 -3.069c33.668 -2.047 57.012 -3.535 70.033 -4.465c13.021 -0.93 19.718 -1.395 20.09 -1.395c-1.116 11.533 -4.651 28.088 -10.603 49.665c-20.461 7.069 -41.667 13.207 -63.616 18.416c-21.95 5.208 -39.807 10.602 -53.572 16.183c-9.672 25.297 -16.555 56.919 -20.647 94.866c-16.369 74.032 -28.646 130.952 -36.83 170.759c0 0 -34.04 173.549 -34.04 173.549c0 0 -21.206 88.169 -21.206 88.169c0 0 -23.995 131.139 -23.995 131.139c0 0 -6.697 25.111 -6.697 25.111c-0.744 2.605 -0.558 7.627 0.558 15.067c23.81 5.581 44.178 9.394 61.105 11.44c16.927 2.046 30.971 3.999 42.132 5.859c-0.372 8.557 -3.348 26.972 -8.929 55.246c0 0 -36.272 1.674 -36.272 1.674c-3.348 0 -8.557 -0.651 -15.625 -1.953c-7.068 -1.302 -34.04 -4.371 -80.915 -9.208c0 0 -110.491 -1.116 -110.491 -1.116c-1.453 -0.035 -3.011 -0.053 -4.675 -0.053c-15.803 0 -41.124 1.599 -75.962 4.797c-38.504 3.534 -62.221 5.673 -71.149 6.417c0 0 0 0 0 0" />
  </g>
</svg>