<svg height="1000" width="571.429" xmlns="http://www.w3.org/2000/svg"><path d="M0 927.46l9.486 -47.43q3.348 -1.116 45.477 -11.997t62.217 -20.925q15.624 -19.53 22.878 -56.358 .558 -3.906 34.596 -161.262t63.612 -303.273 29.016 -165.447v-13.95q-13.392 -7.254 -30.411 -10.323t-38.781 -4.464 -32.364 -3.069l10.602 -57.474q18.414 1.116 66.96 3.627t83.421 3.906 67.239 1.395q26.784 0 54.963 -1.395t67.518 -3.906 54.963 -3.627q-2.79 21.762 -10.602 49.662 -16.74 5.58 -56.637 15.903t-60.543 18.693q-4.464 10.602 -7.812 23.715t-5.022 22.32 -4.185 25.389 -3.627 23.436q-15.066 82.584 -48.825 234.081t-43.245 198.369q-1.116 5.022 -7.254 32.364t-11.16 50.22 -8.928 46.593 -3.348 32.085l.558 10.044q9.486 2.232 103.23 17.298 -1.674 24.552 -8.928 55.242 -6.138 0 -18.135 .837t-18.135 .837q-16.182 0 -48.546 -5.58t-47.988 -5.58q-77.004 -1.116 -114.948 -1.116 -28.458 0 -79.794 5.022t-67.518 6.138z"/></svg>