<svg height="1000" width="571.4" xmlns="http://www.w3.org/2000/svg"><path d="M0 927.5l9.5-47.4q2.2-.6 43-11.2 42.4-10.6 64.7-21.8 16.2-20.6 22.9-56.4l15.1-77.6 31.2-149.5 6.7-35.7q4.5-24.6 9.5-47.2t8.9-37.4 7-25.9 5-17 2-6.4l16.2-87.6 8.9-35.2 12.3-75.3 4.5-27.9v-21.2q-22.9-12.3-80.4-15.6-15.6-1.1-21.2-2.2l10.6-57.5 176.9 7.8q21.8 1.1 40.7 1.1 36.8 0 119.4-5 18.4-1.1 37.9-2.5t20.1-1.4q-1.1 10.6-3.3 21.2-3.9 16.2-7.3 28.5-30.7 10.6-60.8 17.3-35.7 8.9-56.4 17.3-6.7 17.3-13.4 49.1-5 24.6-7.3 45.8-24.6 111-36.8 170.7l-34 173.5-21.2 88.2-24 131.1-6.7 25.1q-1.1 3.9.6 15.1 35.7 8.4 66.4 11.7 20.1 2.8 36.8 5.6-.6 16.2-3.9 32.4-3.9 17.3-5 22.9-10 0-12.8.6-13.4 1.1-23.4 1.1-5 0-15.6-1.7-10.6-2.2-80.9-9.5l-110.5-1.1q-22.9-.6-97.1 6.1-41.3 3.9-54.7 5z"/></svg>