<svg height="1000" width="857.143" xmlns="http://www.w3.org/2000/svg"><path d="M597.06 598.798l-89.28 89.28 -84.258 84.816 -16.74 16.74q-36.27 35.712 -84.537 48.546t-95.697 1.116q-8.928 39.06 -40.176 64.17t-71.982 25.11q-47.43 0 -80.91 -33.759t-33.48 -81.189q0 -40.176 24.831 -71.424t63.333 -40.176q-12.276 -47.988 .558 -96.534t49.104 -84.816l6.696 -6.696 84.258 84.816 -6.138 6.138q-20.646 20.646 -20.646 49.662t20.646 50.22q20.646 20.646 49.662 20.646t49.662 -20.646l16.74 -16.74 84.258 -84.816 89.838 -89.28zm-190.278 -380.556l6.696 6.696 -84.816 84.816 -6.696 -6.696q-20.646 -20.646 -49.662 -20.646t-49.662 20.646 -20.646 49.941 20.646 49.941l16.182 16.182 84.816 84.816 89.28 89.28 -84.258 84.816 -89.838 -89.28 -84.258 -84.816 -16.74 -16.74q-37.944 -37.386 -50.22 -89.001t2.79 -100.161q-39.06 -8.37 -64.17 -39.618t-25.11 -71.982q0 -47.43 33.48 -81.189t80.91 -33.759q42.408 0 74.493 27.342t38.781 68.634q46.872 -11.16 94.581 1.953t83.421 48.825zm450.306 595.386q0 47.43 -33.48 81.189t-80.91 33.759q-41.292 0 -73.098 -26.226t-39.618 -65.844q-47.988 15.624 -100.161 3.348t-90.117 -50.22l-6.138 -6.696 84.258 -84.816 6.696 6.696q20.646 20.646 49.662 20.646t49.662 -20.646 20.646 -49.662 -20.646 -49.662l-16.74 -16.74 -84.816 -84.816 -89.28 -89.28 84.816 -84.816 89.28 89.28 84.816 84.816 16.182 16.74q35.712 35.712 48.825 83.979t1.395 95.697q42.408 6.138 70.587 38.223t28.179 75.051zm-1.116 -627.192q0 42.966 -28.458 75.33t-70.866 38.502q14.508 47.43 1.674 98.487t-50.22 88.443l-6.696 6.696 -84.258 -84.816 6.696 -6.696q20.646 -20.646 20.646 -49.662t-20.646 -49.662 -49.662 -20.646 -49.662 20.646l-16.74 16.74 -84.816 84.816 -89.28 89.28 -84.816 -84.816 89.838 -89.28 84.816 -84.816 16.182 -16.74q37.386 -37.386 88.722 -49.941t99.324 1.953q6.138 -41.85 38.223 -70.308t75.609 -28.458q47.43 0 80.91 33.759t33.48 81.189z"/></svg>