<svg height="1000" width="1142.9" xmlns="http://www.w3.org/2000/svg"><path d="M1004.5 430.8q61.9 25.7 100.1 81.2t38.3 123.6q0 91.5 -65.9 156.5t-159 65q-2.3 0 -6.4 -.2t-5.9 -.3H226.6Q131.7 851 65.8 786.6T0 630Q0 568.6 30.7 516.7t82 -82Q106 412.9 106 389q0 -64.2 45.8 -109.4t111 -45.2q53 0 96 32.3Q400.7 180.8 483 128.3T665.2 75.9q92.6 0 170.7 44.9t123.6 121.9 45.5 168q0 3.4 -.3 10.1t-.2 10zM261.2 579.2q0 68.1 46.8 107.7t116.1 39.7q76.5 0 133.9 -55.3 -8.9 -11.1 -26.5 -31.5t-24.2 -28.2q-37.4 36.3 -80.4 36.3 -30.7 0 -52.2 -18.7t-21.5 -48.8q0 -29.6 21.5 -48.6t51.1 -19q24.5 0 47.1 11.8t40.8 30.6 36.2 41.9 38.5 45.8 43 41.8 54.1 30.7 67.8 11.7q67.6 0 114.2 -39.9t46.6 -106.3q0 -67.5 -46.9 -107.1T751.7 434.2q-79.8 0 -134.5 54.1 7.8 8.9 16.4 19t19.3 22.3 16.2 18.9q36.8 -35.7 79.2 -35.7 29 0 51.4 18.5t22.3 46.8q0 31.8 -20.7 51.1t-52.4 19.2q-24 0 -46.1 -11.7T662.7 606t-36.6 -41.8 -38.8 -45.8 -43.2 -41.8 -53.9 -30.7 -66.1 -11.7q-68.1 0 -115.5 39.3t-47.4 105.7z"/></svg>