<svg height="1000" width="1142.857" xmlns="http://www.w3.org/2000/svg"><path d="M1004.4 430.84q61.938 25.668 100.161 81.189t38.223 123.597q0 91.512 -65.844 156.519t-159.03 65.007q-2.232 0 -6.417 -.279t-5.859 -.279h-679.0859999999999q-94.86 -5.58 -160.704 -70.029t-65.844 -156.519q0 -61.38 30.69 -113.274t82.026 -82.026q-6.696 -21.762 -6.696 -45.756 0 -64.17 45.756 -109.368t111.042 -45.198q53.01 0 95.976 32.364 41.85 -85.932 124.155 -138.384t182.187 -52.452q92.628 0 170.748 44.919t123.597 121.923 45.477 167.958q0 3.348 -.279 10.044t-.279 10.044zm-743.256 148.428q0 68.076 46.872 107.694t116.064 39.618q76.446 0 133.92 -55.242 -8.928 -11.16 -26.505 -31.527t-24.273 -28.179q-37.386 36.27 -80.352 36.27 -30.69 0 -52.173 -18.693t-21.483 -48.825q0 -29.574 21.483 -48.546t51.057 -18.972q24.552 0 47.151 11.718t40.734 30.69 36.27 41.85 38.502 45.756 42.966 41.85 54.126 30.69 67.797 11.718q67.518 0 114.111 -39.897t46.593 -106.299q0 -67.518 -46.872 -107.136t-115.506 -39.618q-79.794 0 -134.478 54.126 7.812 8.928 16.461 18.972t19.251 22.32 16.182 18.972q36.828 -35.712 79.236 -35.712 29.016 0 51.336 18.414t22.32 46.872q0 31.806 -20.646 51.057t-52.452 19.251q-23.994 0 -46.035 -11.718t-40.176 -30.69 -36.549 -41.85 -38.781 -45.756 -43.245 -41.85 -53.847 -30.69 -66.123 -11.718q-68.076 0 -115.506 39.339t-47.43 105.741z"/></svg>