<svg height="1000" width="1000" xmlns="http://www.w3.org/2000/svg"><path d="M0 437.5q0-89.3 53-174.7t138.4-138.4 174.7-53q91 0 148.1 57.2t57.2 148.1q0 105.5-73.1 203.7l198.1 198.1 53.6-53.6q-1.7-1.7-14.5-13.7t-22.3-21.5-18.4-20.4-8.9-15.9q0-9.5 27.3-36.8t36.8-27.3q7.3 0 12.8 5.6 3.3 3.3 25.7 24.8t45.8 44.4 48.3 48 40.7 43.5 15.9 22.9q0 9.5-27.3 36.8t-36.8 27.3q-5 0-15.9-8.9t-20.4-18.4-21.5-22.3-13.7-14.5l-53.6 53.6 122.8 122.8q15.6 15.6 15.6 37.9 0 23.4-21.8 45.2t-45.2 21.8q-22.3 0-37.9-15.6l-374.4-374.4q-98.2 73.1-203.7 73.1-91 0-148.1-57.2t-57.2-148.1zm107.1-8.9q0 44.6 31.2 75.9t75.9 31.2 75.9-31.2 31.2-75.9q0-23.4-10.6-46.3 22.9 10.6 46.3 10.6 44.6 0 75.9-31.2t31.2-75.9-31.2-75.9-75.9-31.2-75.9 31.2-31.2 75.9q0 23.4 10.6 46.3-22.9-10.6-46.3-10.6-44.6 0-75.9 31.2t-31.2 75.9z"/></svg>