<svg height="1000px" width="1000px" xmlns="http://www.w3.org/2000/svg">
  <g>
    <path d="M0 437.49999999999994c0 -59.524 17.671 -117.746 53.013 -174.665c35.343 -56.92 81.474 -103.051 138.393 -138.393c56.92 -35.342 115.142 -53.013 174.665 -53.013c60.64 0 110.026 19.066 148.159 57.198c38.132 38.133 57.199 87.519 57.199 148.159c0 70.312 -24.368 138.207 -73.103 203.683c0 0 198.103 198.102 198.103 198.102c0 0 53.571 -53.571 53.571 -53.571c-1.116 -1.116 -5.952 -5.673 -14.509 -13.672c-8.556 -7.998 -15.997 -15.16 -22.321 -21.484c-6.325 -6.325 -12.463 -13.114 -18.416 -20.369c-5.952 -7.254 -8.928 -12.555 -8.928 -15.904c0 -6.324 9.114 -18.601 27.344 -36.83c18.229 -18.229 30.506 -27.344 36.83 -27.344c4.836 0 9.115 1.86 12.835 5.581c2.232 2.232 10.789 10.509 25.669 24.832c14.881 14.323 30.134 29.111 45.759 44.364c15.625 15.253 31.715 31.25 48.27 47.991c16.556 16.741 30.134 31.25 40.737 43.527c10.603 12.277 15.904 19.903 15.904 22.879c0 6.325 -9.114 18.602 -27.344 36.831c-18.229 18.229 -30.506 27.344 -36.83 27.344c-3.348 0 -8.65 -2.977 -15.904 -8.929c-7.254 -5.952 -14.044 -12.091 -20.368 -18.415c-6.325 -6.325 -13.486 -13.765 -21.485 -22.322c-7.998 -8.556 -12.555 -13.393 -13.672 -14.509c0 0 -53.571 53.572 -53.571 53.572c0 0 122.768 122.768 122.768 122.768c10.417 10.416 15.625 23.065 15.625 37.946c0 15.625 -7.255 30.692 -21.764 45.201c-14.508 14.509 -29.575 21.763 -45.2 21.763c-14.881 0 -27.53 -5.208 -37.947 -15.625c0 0 -374.442 -374.442 -374.442 -374.442c-65.476 48.736 -133.37 73.103 -203.683 73.103c-60.64 0 -110.026 -19.066 -148.158 -57.199c-38.133 -38.132 -57.199 -87.518 -57.199 -148.158c0 0 0 0 0 0m107.143 -8.929c0 29.762 10.417 55.06 31.25 75.893c20.833 20.834 46.131 31.25 75.893 31.25c29.762 0 55.059 -10.416 75.893 -31.25c20.833 -20.833 31.25 -46.131 31.25 -75.893c0 -15.625 -3.535 -31.064 -10.603 -46.317c15.253 7.069 30.692 10.603 46.317 10.603c29.762 0 55.059 -10.417 75.893 -31.25c20.833 -20.833 31.25 -46.131 31.25 -75.893c0 -29.762 -10.417 -55.059 -31.25 -75.893c-20.834 -20.833 -46.131 -31.25 -75.893 -31.25c-29.762 0 -55.06 10.417 -75.893 31.25c-20.833 20.834 -31.25 46.131 -31.25 75.893c0 15.625 3.534 31.064 10.603 46.317c-15.253 -7.068 -30.692 -10.602 -46.317 -10.602c-29.762 0 -55.06 10.416 -75.893 31.25c-20.833 20.833 -31.25 46.131 -31.25 75.892c0 0 0 0 0 0" />
  </g>
</svg>