<svg height="1000px" width="935.546875px" xmlns="http://www.w3.org/2000/svg">
  <g>
    <path d="M0 482.93340019881725c-1.953 -36.296 2.93 -73.812 14.648 -112.549c11.719 -38.737 30.111 -75.846 55.176 -111.328c25.391 -35.482 54.606 -64.779 87.647 -87.891c33.04 -23.112 67.057 -39.713 102.05 -49.804c34.994 -10.091 69.662 -12.94 104.004 -8.545c34.343 4.394 65.511 16.52 93.506 36.377c24.74 17.252 44.434 39.062 59.082 65.429c14.649 26.368 24.252 55.095 28.809 86.182c4.557 31.087 3.906 63.477 -1.953 97.168c-5.86 33.691 -16.927 66.813 -33.203 99.365c0 0 202.148 145.02 202.148 145.02c0 0 49.316 -67.871 49.316 -67.871c0 0 -51.269 -36.133 -51.269 -36.133c-4.557 -3.255 -7.324 -7.731 -8.301 -13.428c-0.976 -5.696 0.163 -10.986 3.418 -15.869c0 0 24.902 -33.691 24.902 -33.691c3.256 -4.558 7.569 -7.406 12.94 -8.545c5.371 -1.14 10.661 0.081 15.869 3.662c0 0 167.969 120.605 167.969 120.605c5.208 3.256 8.219 7.731 9.033 13.428c0.814 5.697 -0.407 10.986 -3.662 15.869c0 0 -23.926 33.692 -23.926 33.692c-3.255 4.557 -7.731 7.405 -13.428 8.544c-5.696 1.14 -10.986 0.082 -15.869 -3.173c0 0 -49.804 -37.11 -49.804 -37.11c0 0 -49.317 67.871 -49.317 67.871c0 0 121.094 86.914 121.094 86.914c13.997 10.092 22.542 23.601 25.635 40.528c3.092 16.927 -0.407 32.389 -10.498 46.387c-10.743 13.997 -24.414 22.379 -41.016 25.146c-16.602 2.767 -31.901 -0.895 -45.898 -10.986c0 0 -392.09 -279.785 -392.09 -279.785c-25.391 26.041 -53.06 47.2 -83.008 63.476c-29.948 16.276 -60.303 27.425 -91.065 33.447c-30.761 6.022 -60.953 6.348 -90.576 0.977c-29.622 -5.371 -56.803 -17.009 -81.543 -34.912c-27.994 -19.857 -49.642 -45.492 -64.941 -76.904c-15.3 -31.413 -23.926 -65.267 -25.879 -101.563c0 0 0 0 0 0m112.549 18.311c2.441 13.346 7.324 26.041 14.648 38.085c7.324 12.045 16.846 22.299 28.565 30.762c12.044 8.789 24.902 14.649 38.574 17.578c13.672 2.93 27.181 3.256 40.527 0.977c13.347 -2.279 26.042 -7.08 38.086 -14.404c12.044 -7.325 22.461 -17.009 31.25 -29.053c12.696 -17.253 19.369 -35.889 20.02 -55.908c0.651 -20.02 -3.744 -38.656 -13.184 -55.909c19.206 3.256 38.167 1.384 56.885 -5.615c18.717 -6.998 34.424 -19.124 47.119 -36.377c8.789 -12.044 14.648 -24.902 17.578 -38.574c2.93 -13.672 3.255 -27.344 0.977 -41.016c-2.279 -13.671 -7.08 -26.53 -14.405 -38.574c-7.324 -12.044 -17.008 -22.298 -29.052 -30.762c-12.045 -8.789 -24.903 -14.648 -38.575 -17.578c-13.671 -2.929 -27.343 -3.255 -41.015 -0.976c-13.672 2.278 -26.53 7.08 -38.574 14.404c-12.045 7.324 -22.299 17.009 -30.762 29.053c-12.044 17.252 -18.392 35.889 -19.043 55.908c-0.651 20.02 3.581 38.656 12.695 55.908c-19.205 -3.255 -38.167 -1.22 -56.884 6.104c-18.718 7.324 -34.424 19.612 -47.12 36.865c-8.789 12.044 -14.648 24.902 -17.578 38.574c-2.929 13.672 -3.174 27.181 -0.732 40.528c0 0 0 0 0 0" />
  </g>
</svg>