<svg height="1000px" width="1000px" xmlns="http://www.w3.org/2000/svg">
  <g>
    <path d="M0 438.33705357142856c0 -60.082 17.671 -118.583 53.013 -175.502c35.343 -56.92 81.474 -103.051 138.393 -138.393c56.92 -35.342 115.421 -53.013 175.502 -53.013c60.082 0 109.189 19.066 147.322 57.198c38.132 38.133 57.199 89.937 57.199 155.413c0 65.476 -24.368 130.953 -73.103 196.429c0 0 198.103 198.102 198.103 198.102c0 0 53.571 -53.571 53.571 -53.571c-1.116 -1.116 -5.952 -5.673 -14.509 -13.672c-8.556 -7.998 -15.997 -15.16 -22.321 -21.484c-18.23 -18.229 -27.344 -30.413 -27.344 -36.552c0 -6.138 9.114 -18.322 27.344 -36.551c18.229 -18.229 30.134 -27.344 35.714 -27.344c5.58 0 9.859 1.488 12.835 4.465c2.976 2.976 11.905 11.625 26.785 25.948c14.881 14.323 30.134 29.111 45.759 44.364c15.625 15.253 31.715 31.25 48.27 47.991c16.556 16.741 30.134 31.25 40.737 43.527c10.603 12.277 15.904 20.74 15.904 25.391c0 4.65 -9.114 16.09 -27.344 34.319c-18.229 18.229 -29.762 27.343 -34.598 27.343c-4.836 0 -10.882 -2.976 -18.136 -8.928c-7.254 -5.952 -14.044 -12.091 -20.368 -18.415c-6.325 -6.325 -13.486 -13.765 -21.485 -22.322c-7.998 -8.556 -12.555 -13.393 -13.672 -14.509c0 0 -53.571 53.572 -53.571 53.572c0 0 122.768 122.768 122.768 122.768c10.417 10.416 15.625 23.251 15.625 38.504c0 15.253 -7.255 30.134 -21.764 44.643c-14.508 14.509 -29.389 21.763 -44.642 21.763c-15.253 0 -28.088 -5.208 -38.505 -15.625c0 0 -374.442 -374.442 -374.442 -374.442c-65.476 48.736 -130.952 73.103 -196.428 73.103c-65.477 0 -117.281 -19.066 -155.413 -57.199c-38.133 -38.132 -57.199 -87.239 -57.199 -147.321c0 0 0 0 0 0m107.143 -9.766c0 29.762 10.417 55.06 31.25 75.893c20.833 20.834 46.131 31.25 75.893 31.25c29.762 0 55.059 -10.416 75.893 -31.25c20.833 -20.833 31.25 -46.131 31.25 -75.893c0 -15.625 -3.535 -31.064 -10.603 -46.317c15.253 7.069 30.692 10.603 46.317 10.603c29.762 0 55.059 -10.417 75.893 -31.25c20.833 -20.833 31.25 -46.131 31.25 -75.893c0 -29.762 -10.417 -55.059 -31.25 -75.893c-20.834 -20.833 -46.131 -31.25 -75.893 -31.25c-29.762 0 -55.06 10.417 -75.893 31.25c-20.833 20.834 -31.25 46.131 -31.25 75.893c0 15.625 3.534 31.064 10.603 46.317c-15.253 -7.068 -30.692 -10.602 -46.317 -10.602c-29.762 0 -55.06 10.416 -75.893 31.25c-20.833 20.833 -31.25 46.13 -31.25 75.892c0 0 0 0 0 0" />
  </g>
</svg>