<svg height="1000px" width="899.6666564941406px" xmlns="http://www.w3.org/2000/svg">
  <g>
    <path d="M0 483.45545959472656c-1.667 -35 3 -71.167 14 -108.5c11 -37.333 28.833 -73 53.5 -107c24 -34 51.833 -62.333 83.5 -85c31.667 -22.667 64.333 -38.667 98 -48c33.667 -9.333 66.833 -12 99.5 -8c32.667 4 62.667 15.667 90 35c24 17.333 43 38.5 57 63.5c14 25 23.167 52.5 27.5 82.5c4.333 30 3.833 61.167 -1.5 93.5c-5.333 32.333 -16 64.167 -32 95.5c0 0 195 139 195 139c0 0 47 -65 47 -65c0 0 -49 -35 -49 -35c-4.667 -3.333 -7.5 -7.667 -8.5 -13c-1 -5.333 0.167 -10.333 3.5 -15c0 0 23 -32 23 -32c3.333 -4.667 7.667 -7.5 13 -8.5c5.333 -1 10.333 0.167 15 3.5c0 0 163 116 163 116c4.667 3.333 7.333 7.667 8 13c0.667 5.333 -0.667 10.333 -4 15c0 0 -23 33 -23 33c-3.333 4.667 -7.667 7.5 -13 8.5c-5.333 1 -10.333 -0.167 -15 -3.5c0 0 -48 -35 -48 -35c0 0 -47 65 -47 65c0 0 116 83 116 83c13.333 9.333 21.5 22.333 24.5 39c3 16.667 -0.5 31.667 -10.5 45c-9.333 13.333 -22.167 21.333 -38.5 24c-16.333 2.667 -31.167 -0.667 -44.5 -10c0 0 -376 -269 -376 -269c-24.667 25.333 -51.5 45.833 -80.5 61.5c-29 15.667 -58.333 26.167 -88 31.5c-29.667 5.333 -58.667 5.5 -87 0.5c-28.333 -5 -54.5 -16.167 -78.5 -33.5c-27.333 -19.333 -48.167 -44 -62.5 -74c-14.333 -30 -22.333 -62.5 -24 -97.5c0 0 0 0 0 0m108.5 17c2 13 6.5 25.333 13.5 37c7 11.667 16.167 21.5 27.5 29.5c11.333 8 23.667 13.5 37 16.5c13.333 3 26.5 3.333 39.5 1c13 -2.333 25.333 -7 37 -14c11.667 -7 21.5 -16.167 29.5 -27.5c11.333 -16 17.333 -33.667 18 -53c0.667 -19.333 -3.333 -37.333 -12 -54c18.667 3.333 37 1.5 55 -5.5c18 -7 33 -18.833 45 -35.5c8 -11.333 13.5 -23.667 16.5 -37c3 -13.333 3.333 -26.5 1 -39.5c-2.333 -13 -7 -25.333 -14 -37c-7 -11.667 -16.167 -21.5 -27.5 -29.5c-11.333 -8 -23.667 -13.5 -37 -16.5c-13.333 -3 -26.5 -3.333 -39.5 -1c-13 2.333 -25.333 7 -37 14c-11.667 7 -21.5 16.167 -29.5 27.5c-11.333 16.667 -17.5 34.667 -18.5 54c-1 19.333 3.167 37.333 12.5 54c-18.667 -3.333 -37 -1.5 -55 5.5c-18 7 -33 18.833 -45 35.5c-8 11.333 -13.333 23.5 -16 36.5c-2.667 13 -3 26 -1 39c0 0 0 0 0 0" />
  </g>
</svg>