<svg height="1000" width="1000" xmlns="http://www.w3.org/2000/svg"><path d="M464.256 285.76q0 -44.64 -31.248 -75.888t-75.888 -31.248 -75.888 31.248 -31.248 75.888q0 23.436 10.602 46.314 -22.878 -10.602 -46.314 -10.602 -44.64 0 -75.888 31.248t-31.248 75.888 31.248 75.888 75.888 31.248 75.888 -31.248 31.248 -75.888q0 -23.436 -10.602 -46.314 22.878 10.602 46.314 10.602 44.64 0 75.888 -31.248t31.248 -75.888zm474.858 392.832q0 9.486 -27.342 36.828t-36.828 27.342q-5.022 0 -15.903 -8.928t-20.367 -18.414 -21.483 -22.32 -13.671 -14.508l-53.568 53.568 122.76 122.76q15.624 15.624 15.624 37.944 0 23.436 -21.762 45.198t-45.198 21.762q-22.32 0 -37.944 -15.624l-374.418 -374.418q-98.208 73.098 -203.67 73.098 -90.954 0 -148.149 -57.195t-57.195 -148.149q0 -89.28 53.01 -174.654t138.384 -138.384 174.654 -53.01q90.954 0 148.149 57.195t57.195 148.149q0 105.462 -73.098 203.67l198.09 198.09 53.568 -53.568q-1.674 -1.674 -14.508 -13.671t-22.32 -21.483 -18.414 -20.367 -8.928 -15.903q0 -9.486 27.342 -36.828t36.828 -27.342q7.254 0 12.834 5.58 3.348 3.348 25.668 24.831t45.756 44.361 48.267 47.988 40.734 43.524 15.903 22.878z"/></svg>