<svg height="1000" width="1071.4" xmlns="http://www.w3.org/2000/svg"><path d="M214.3 651.8v53.6q0 8.9 -8.9 8.9h-53.6q-8.9 0 -8.9 -8.9v-53.6q0 -8.9 8.9 -8.9h53.6q8.9 0 8.9 8.9zm71.4 -142.9v53.6q0 8.9 -8.9 8.9h-125q-8.9 0 -8.9 -8.9v-53.6q0 -8.9 8.9 -8.9h125q8.9 0 8.9 8.9zM214.3 366.1v53.5q0 9 -8.9 9h-53.6q-8.9 0 -8.9 -9v-53.5q0 -9 8.9 -9h53.6q8.9 0 8.9 9zm571.4 285.7v53.6q0 8.9 -8.9 8.9H294.6q-8.9 0 -8.9 -8.9v-53.6q0 -8.9 8.9 -8.9h482.2q8.9 0 8.9 8.9zM428.6 508.9v53.6q0 8.9 -9 8.9h-53.5q-9 0 -9 -8.9v-53.6q0 -8.9 9 -8.9h53.5q9 0 9 8.9zM357.1 366.1v53.5q0 9 -8.9 9h-53.6q-8.9 0 -8.9 -9v-53.5q0 -9 8.9 -9h53.6q8.9 0 8.9 9zm214.3 142.8v53.6q0 8.9 -8.9 8.9h-53.6q-8.9 0 -8.9 -8.9v-53.6q0 -8.9 8.9 -8.9h53.6q8.9 0 8.9 8.9zM500 366.1v53.5q0 9 -8.9 9h-53.6q-8.9 0 -8.9 -9v-53.5q0 -9 8.9 -9h53.6q8.9 0 8.9 9zm214.3 142.8v53.6q0 8.9 -8.9 8.9h-53.6q-8.9 0 -8.9 -8.9v-53.6q0 -8.9 8.9 -8.9h53.6q8.9 0 8.9 8.9zm214.3 142.9v53.6q0 8.9 -9 8.9h-53.5q-9 0 -9 -8.9v-53.6q0 -8.9 9 -8.9h53.5q9 0 9 8.9zM642.9 366.1v53.5q0 9 -9 9h-53.5q-9 0 -9 -9v-53.5q0 -9 9 -9h53.5q9 0 9 9zm142.8 0v53.5q0 9 -8.9 9h-53.6q-8.9 0 -8.9 -9v-53.5q0 -9 8.9 -9h53.6q8.9 0 8.9 9zm142.9 0v196.4q0 8.9 -9 8.9h-125q-8.9 0 -8.9 -8.9v-53.6q0 -8.9 8.9 -8.9h62.5V366.1q0 -9 9 -9h53.5q9 0 9 9zm71.4 419.6v-500H71.4v500H1000zm71.4 -500v500q0 29.6 -20.9 50.5t-50.5 20.9H71.4q-29.5 0 -50.5 -20.9T0 785.7v-500q0 -29.6 20.9 -50.5t50.5 -20.9H1000q29.6 0 50.5 20.9t20.9 50.5z"/></svg>