<svg height="1000" width="1071.429" xmlns="http://www.w3.org/2000/svg"><path d="M0 785.728v-499.968q0 -29.574 20.925 -50.499t50.499 -20.925h928.512q29.574 0 50.499 20.925t20.925 50.499v499.968q0 29.574 -20.925 50.499t-50.499 20.925h-928.512q-29.574 0 -50.499 -20.925t-20.925 -50.499zm71.424 0h928.512v-499.968h-928.512v499.968zm71.424 -80.352v-53.568q0 -8.928 8.928 -8.928h53.568q8.928 0 8.928 8.928v53.568q0 8.928 -8.928 8.928h-53.568q-8.928 0 -8.928 -8.928zm0 -142.848v-53.568q0 -8.928 8.928 -8.928h124.992q8.928 0 8.928 8.928v53.568q0 8.928 -8.928 8.928h-124.992q-8.928 0 -8.928 -8.928zm0 -142.848v-53.568q0 -8.928 8.928 -8.928h53.568q8.928 0 8.928 8.928v53.568q0 8.928 -8.928 8.928h-53.568q-8.928 0 -8.928 -8.928zm142.848 285.696v-53.568q0 -8.928 8.928 -8.928h482.112q8.928 0 8.928 8.928v53.568q0 8.928 -8.928 8.928h-482.112q-8.928 0 -8.928 -8.928zm0 -285.696v-53.568q0 -8.928 8.928 -8.928h53.568q8.928 0 8.928 8.928v53.568q0 8.928 -8.928 8.928h-53.568q-8.928 0 -8.928 -8.928zm71.424 142.848v-53.568q0 -8.928 8.928 -8.928h53.568q8.928 0 8.928 8.928v53.568q0 8.928 -8.928 8.928h-53.568q-8.928 0 -8.928 -8.928zm71.424 -142.848v-53.568q0 -8.928 8.928 -8.928h53.568q8.928 0 8.928 8.928v53.568q0 8.928 -8.928 8.928h-53.568q-8.928 0 -8.928 -8.928zm71.424 142.848v-53.568q0 -8.928 8.928 -8.928h53.568q8.928 0 8.928 8.928v53.568q0 8.928 -8.928 8.928h-53.568q-8.928 0 -8.928 -8.928zm71.424 -142.848v-53.568q0 -8.928 8.928 -8.928h53.568q8.928 0 8.928 8.928v53.568q0 8.928 -8.928 8.928h-53.568q-8.928 0 -8.928 -8.928zm71.424 142.848v-53.568q0 -8.928 8.928 -8.928h53.568q8.928 0 8.928 8.928v53.568q0 8.928 -8.928 8.928h-53.568q-8.928 0 -8.928 -8.928zm71.424 -142.848v-53.568q0 -8.928 8.928 -8.928h53.568q8.928 0 8.928 8.928v53.568q0 8.928 -8.928 8.928h-53.568q-8.928 0 -8.928 -8.928zm71.424 142.848v-53.568q0 -8.928 8.928 -8.928h62.496v-133.92q0 -8.928 8.928 -8.928h53.568q8.928 0 8.928 8.928v196.416q0 8.928 -8.928 8.928h-124.992q-8.928 0 -8.928 -8.928zm71.424 142.848v-53.568q0 -8.928 8.928 -8.928h53.568q8.928 0 8.928 8.928v53.568q0 8.928 -8.928 8.928h-53.568q-8.928 0 -8.928 -8.928z"/></svg>