<svg height="1000" width="1071.429" xmlns="http://www.w3.org/2000/svg"><path d="M214.272 651.808v53.568q0 8.928 -8.928 8.928h-53.568q-8.928 0 -8.928 -8.928v-53.568q0 -8.928 8.928 -8.928h53.568q8.928 0 8.928 8.928zm71.424 -142.848v53.568q0 8.928 -8.928 8.928h-124.992q-8.928 0 -8.928 -8.928v-53.568q0 -8.928 8.928 -8.928h124.992q8.928 0 8.928 8.928zm-71.424 -142.848v53.568q0 8.928 -8.928 8.928h-53.568q-8.928 0 -8.928 -8.928v-53.568q0 -8.928 8.928 -8.928h53.568q8.928 0 8.928 8.928zm571.392 285.696v53.568q0 8.928 -8.928 8.928h-482.112q-8.928 0 -8.928 -8.928v-53.568q0 -8.928 8.928 -8.928h482.112q8.928 0 8.928 8.928zm-357.12 -142.848v53.568q0 8.928 -8.928 8.928h-53.568q-8.928 0 -8.928 -8.928v-53.568q0 -8.928 8.928 -8.928h53.568q8.928 0 8.928 8.928zm-71.424 -142.848v53.568q0 8.928 -8.928 8.928h-53.568q-8.928 0 -8.928 -8.928v-53.568q0 -8.928 8.928 -8.928h53.568q8.928 0 8.928 8.928zm214.272 142.848v53.568q0 8.928 -8.928 8.928h-53.568q-8.928 0 -8.928 -8.928v-53.568q0 -8.928 8.928 -8.928h53.568q8.928 0 8.928 8.928zm-71.424 -142.848v53.568q0 8.928 -8.928 8.928h-53.568q-8.928 0 -8.928 -8.928v-53.568q0 -8.928 8.928 -8.928h53.568q8.928 0 8.928 8.928zm214.272 142.848v53.568q0 8.928 -8.928 8.928h-53.568q-8.928 0 -8.928 -8.928v-53.568q0 -8.928 8.928 -8.928h53.568q8.928 0 8.928 8.928zm214.272 142.848v53.568q0 8.928 -8.928 8.928h-53.568q-8.928 0 -8.928 -8.928v-53.568q0 -8.928 8.928 -8.928h53.568q8.928 0 8.928 8.928zm-285.696 -285.696v53.568q0 8.928 -8.928 8.928h-53.568q-8.928 0 -8.928 -8.928v-53.568q0 -8.928 8.928 -8.928h53.568q8.928 0 8.928 8.928zm142.848 0v53.568q0 8.928 -8.928 8.928h-53.568q-8.928 0 -8.928 -8.928v-53.568q0 -8.928 8.928 -8.928h53.568q8.928 0 8.928 8.928zm142.848 0v196.416q0 8.928 -8.928 8.928h-124.992q-8.928 0 -8.928 -8.928v-53.568q0 -8.928 8.928 -8.928h62.496v-133.92q0 -8.928 8.928 -8.928h53.568q8.928 0 8.928 8.928zm71.424 419.616v-499.968h-928.512v499.968h928.512zm71.424 -499.968v499.968q0 29.574 -20.925 50.499t-50.499 20.925h-928.512q-29.574 0 -50.499 -20.925t-20.925 -50.499v-499.968q0 -29.574 20.925 -50.499t50.499 -20.925h928.512q29.574 0 50.499 20.925t20.925 50.499z"/></svg>