<svg height="1000" width="857.1" xmlns="http://www.w3.org/2000/svg"><path d="M365 601.6q-.6 1.6 -7 -.3t-17.6 -6.4l-11.2 -5.1q-24.5 -11.1 -48.5 -27.3 -3.9 -2.8 -22.9 -17.6T236.6 529q-37.4 57.5 -74.8 101 -45.2 53 -58.6 61.4 -2.2 1.1 -10.8 2.2t-10.4 0q3.4 -2.2 45.8 -51.3 11.7 -13.4 47.7 -64.2t43.8 -65.8q9.5 -16.8 28.5 -55t20.1 -43.2q-4.5 -.6 -61.4 18.4 -4.5 1.1 -15.4 4.2t-19.2 5.3 -9.5 2.8q-1.1 1.1 -1.1 5.8t-.6 5.3q-2.8 5.6 -17.3 8.4 -12.8 3.9 -26.2 0 -10.1 -2.2 -15.6 -11.7 -2.3 -3.4 -2.8 -12.9 3.3 -1.1 13.6 -2.8t16.5 -3.3q32.4 -8.9 58.6 -17.9 55.8 -19.5 56.9 -19.5 5.6 -1.1 24 -10.9t24.6 -12q5 -1.6 12 -4.4t8.1 -3.1 3.3 .3q1.1 6.7 -.6 18.4 0 1.1 -6.9 15.1t-14.8 29.8 -9.5 18.7q-14 27.9 -43 73.1l35.7 15.6q6.7 3.4 41.6 17.9t37.7 15.6q2.2 .6 5.8 14.2t2.6 17.1zM250.6 330.4q1.6 8.3 -2.3 15.6 -6.7 12.8 -27.9 21.2 -16.7 6.7 -33.5 6.7 -14.5 -1.7 -27.3 -14.5 -7.8 -8.4 -10 -22.9l.5 -1.7q1.7 1.7 10.9 2.8t14.8 0 32.3 -8.9q20.1 -6.7 30.7 -7.8 9.5 0 11.8 9.5zm389.5 71.9L675.2 529l-77.5 -23.4zM21.8 848.8L409 719.3V143.4l-387.2 130v575.4zM714.3 671.9l56.9 17.3 -101 -366.7 -55.8 -17.3L493.9 604.4l56.9 17.3 25.1 -61.4 117.7 36.2zM433.6 135l319.7 102.7v-212zm173.5 738.3l88.2 7.3 -30.1 89.3L642.9 933q-72.6 46.4 -154.1 60.3 -32.3 6.7 -50.7 6.7h-46.9q-44.1 0 -111.3 -21.8T177.5 930.8q-4.5 -3.9 -4.5 -8.9 0 -4.5 2.8 -7.6t7.2 -3q2.3 0 10.1 4.2t17 9.2 11.4 6.1q40.8 20.7 89 34.3t87.9 13.7q53.1 0 93.2 -8.1t87.6 -28.2q8.4 -3.9 17.1 -8.6t18.9 -10.6 15.9 -9.2zm250 -602.1v602.1L425.2 736q-7.8 3.4 -209.2 71.2T10.6 875q-7.3 0 -10 -7.3 0 -.5 -.6 -1.6V264.5q1.7 -5 2.2 -5.6 2.8 -3.3 11.2 -6.1 59.1 -19.5 83.1 -27.9V10.6l311.4 110.5q1.1 0 89.6 -30.7T673.8 29.9 764 0q11.1 0 11.1 11.7V245z"/></svg>