<svg height="1000" width="857.143" xmlns="http://www.w3.org/2000/svg"><path d="M364.932 601.588q-.558 1.674 -6.975 -.279t-17.577 -6.417l-11.16 -5.022q-24.552 -11.16 -48.546 -27.342 -3.906 -2.79 -22.878 -17.577t-21.204 -15.903q-37.386 57.474 -74.772 100.998 -45.198 53.01 -58.59 61.38 -2.232 1.116 -10.881 2.232t-10.323 0q3.348 -2.232 45.756 -51.336 11.718 -13.392 47.709 -64.17t43.803 -65.844q9.486 -16.74 28.458 -54.963t20.088 -43.245q-4.464 -.558 -61.38 18.414 -4.464 1.116 -15.345 4.185t-19.251 5.301 -9.486 2.79q-1.116 1.116 -1.116 5.859t-.558 5.301q-2.79 5.58 -17.298 8.37 -12.834 3.906 -26.226 0 -10.044 -2.232 -15.624 -11.718 -2.232 -3.348 -2.79 -12.834 3.348 -1.116 13.671 -2.79t16.461 -3.348q32.364 -8.928 58.59 -17.856 55.8 -19.53 56.916 -19.53 5.58 -1.116 23.994 -10.881t24.552 -11.997q5.022 -1.674 11.997 -4.464t8.091 -3.069 3.348 .279q1.116 6.696 -.558 18.414 0 1.116 -6.975 15.066t-14.787 29.853 -9.486 18.693q-13.95 27.9 -42.966 73.098l35.712 15.624q6.696 3.348 41.571 17.856t37.665 15.624q2.232 .558 5.859 14.229t2.511 17.019zm-114.39 -271.188q1.674 8.37 -2.232 15.624 -6.696 12.834 -27.9 21.204 -16.74 6.696 -33.48 6.696 -14.508 -1.674 -27.342 -14.508 -7.812 -8.37 -10.044 -22.878l.558 -1.674q1.674 1.674 10.881 2.79t14.787 0 32.364 -8.928q20.088 -6.696 30.69 -7.812 9.486 0 11.718 9.486zm389.484 71.982l35.154 126.666 -77.562 -23.436zm-618.264 446.4l387.252 -129.456v-575.856l-387.252 130.014v575.298zm692.478 -176.886l56.916 17.298 -100.998 -366.606 -55.8 -17.298 -120.528 299.088 56.916 17.298 25.11 -61.38 117.738 36.27zm-280.674 -536.796l319.734 102.672v-212.04zm173.538 738.234l88.164 7.254 -30.132 89.28 -22.32 -36.828q-72.54 46.314 -154.008 60.264 -32.364 6.696 -50.778 6.696h-46.872q-44.082 0 -111.321 -21.762t-102.393 -47.43q-4.464 -3.906 -4.464 -8.928 0 -4.464 2.79 -7.533t7.254 -3.069q2.232 0 10.044 4.185t17.019 9.207 11.439 6.138q40.734 20.646 89.001 34.317t87.885 13.671q53.01 0 93.186 -8.091t87.606 -28.179q8.37 -3.906 17.019 -8.649t18.972 -10.602 15.903 -9.207zm249.984 -602.082v602.082l-431.892 -137.268q-7.812 3.348 -209.25 71.145t-205.344 67.797q-7.254 0 -10.044 -7.254 0 -.558 -.558 -1.674v-601.524q1.674 -5.022 2.232 -5.58 2.79 -3.348 11.16 -6.138 59.148 -19.53 83.142 -27.9v-214.272l311.364 110.484q1.116 0 89.559 -30.69t176.328 -60.543 90.117 -29.853q11.16 0 11.16 11.718v233.244z"/></svg>