<svg height="1000" width="1071.4" xmlns="http://www.w3.org/2000/svg"><path d="M232.1 714.3q-36.8 0 -63 -26.2T142.9 625V232.1q0 -36.8 26.2 -63t63 -26.2h607.2q36.8 0 63 26.2t26.3 63V625q0 36.8 -26.3 63.1t-63 26.2H232.1zM214.3 232.1V625q0 7.3 5.3 12.6t12.5 5.3h607.2q7.2 0 12.5 -5.3t5.3 -12.6V232.1q0 -7.2 -5.3 -12.5t-12.5 -5.3H232.1q-7.2 0 -12.5 5.3t-5.3 12.5zM982.1 750h89.3v53.6q0 22.3 -26.2 37.9t-63.1 15.6H89.3q-36.8 0 -63.1 -15.6T0 803.6V750H982.1zm-401.7 53.6q8.9 0 8.9 -9t-8.9 -8.9h-89.3q-9 0 -9 8.9t9 9h89.3z"/></svg>