<svg height="1000px" width="1071.4285714285716px" xmlns="http://www.w3.org/2000/svg">
  <g>
    <path d="M580.3571428571429 803.5714285714286c5.952 0 8.929 -2.976 8.929 -8.929c0 -5.952 -2.977 -8.928 -8.929 -8.928c0 0 -89.286 0 -89.286 0c-5.952 0 -8.928 2.976 -8.928 8.928c0 5.953 2.976 8.929 8.928 8.929c0 0 89.286 0 89.286 0c0 0 0 0 0 0m-580.357 -53.571c0 0 1071.428 0 1071.428 0c0 0 0 53.571 0 53.571c0 14.881 -8.742 27.53 -26.227 37.946c-17.485 10.417 -38.505 15.625 -63.058 15.625c0 0 -892.857 0 -892.857 0c-24.554 0 -45.573 -5.208 -63.058 -15.625c-17.486 -10.416 -26.228 -23.065 -26.228 -37.946c0 0 0 -53.571 0 -53.571c0 0 0 0 0 0m214.286 -517.858c0 0 0 392.858 0 392.858c0 4.836 1.767 9.021 5.301 12.555c3.534 3.535 7.719 5.302 12.556 5.302c0 0 607.143 0 607.143 0c4.836 0 9.021 -1.767 12.555 -5.302c3.535 -3.534 5.302 -7.719 5.302 -12.555c0 0 0 -392.858 0 -392.858c0 -4.836 -1.767 -9.021 -5.302 -12.555c-3.534 -3.535 -7.719 -5.302 -12.555 -5.302c0 0 -607.143 0 -607.143 0c-4.837 0 -9.022 1.767 -12.556 5.302c-3.534 3.534 -5.301 7.719 -5.301 12.555c0 0 0 0 0 0m17.857 482.143c-24.554 0 -45.573 -8.742 -63.058 -26.227c-17.485 -17.486 -26.228 -38.505 -26.228 -63.058c0 0 0 -392.858 0 -392.858c0 -24.553 8.743 -45.572 26.228 -63.058c17.485 -17.485 38.504 -26.227 63.058 -26.227c0 0 607.143 0 607.143 0c24.553 0 45.572 8.742 63.058 26.227c17.485 17.486 26.227 38.505 26.227 63.058c0 0 0 392.858 0 392.858c0 24.553 -8.742 45.572 -26.227 63.058c-17.486 17.485 -38.505 26.227 -63.058 26.227c0 0 -607.143 0 -607.143 0c0 0 0 0 0 0" />
  </g>
</svg>