<svg height="1000" width="1071.4" xmlns="http://www.w3.org/2000/svg"><path d="M0 803.6v-53.6h1071.3999999999999v53.6q0 22.3-26.2 37.9t-63.1 15.6h-892.8q-36.8 0-63.1-15.6t-26.2-37.9zm142.8-178.6v-392.8q0-36.8 26.2-63.1t63.1-26.2h607.1q36.8 0 63.1 26.2t26.2 63.1v392.8q0 36.8-26.2 63.1t-63.1 26.2h-607.1q-36.8 0-63.1-26.2t-26.2-63.1zm71.4 0q0 7.3 5.3 12.6t12.6 5.3h607.1q7.3 0 12.6-5.3t5.3-12.6v-392.8q0-7.3-5.3-12.6t-12.6-5.3h-607.1q-7.3 0-12.6 5.3t-5.3 12.6v392.8zm267.8 169.6q0 8.9 8.9 8.9h89.3q8.9 0 8.9-8.9t-8.9-8.9h-89.3q-8.9 0-8.9 8.9z"/></svg>