<svg height="1000" width="1071.429" xmlns="http://www.w3.org/2000/svg"><path d="M232.128 714.304q-36.828 0 -63.054 -26.226t-26.226 -63.054v-392.832q0 -36.828 26.226 -63.054t63.054 -26.226h607.104q36.828 0 63.054 26.226t26.226 63.054v392.832q0 36.828 -26.226 63.054t-63.054 26.226h-607.104zm-17.856 -482.112v392.832q0 7.254 5.301 12.555t12.555 5.301h607.104q7.254 0 12.555 -5.301t5.301 -12.555v-392.832q0 -7.254 -5.301 -12.555t-12.555 -5.301h-607.104q-7.254 0 -12.555 5.301t-5.301 12.555zm767.808 517.824h89.28v53.568q0 22.32 -26.226 37.944t-63.054 15.624h-892.8q-36.828 0 -63.054 -15.624t-26.226 -37.944v-53.568h982.0799999999999zm-401.76 53.568q8.928 0 8.928 -8.928t-8.928 -8.928h-89.28q-8.928 0 -8.928 8.928t8.928 8.928h89.28z"/></svg>