<svg height="1000" width="1072" xmlns="http://www.w3.org/2000/svg"><path d="M0 803.584l0-53.568l1071.36 0l0 53.568q0 22.32-26.226 37.944t-63.054 15.624l-892.8 0q-36.828 0-63.054-15.624t-26.226-37.944zm142.848-178.56l0-392.832q0-36.828 26.226-63.054t63.054-26.226l607.104 0q36.828 0 63.054 26.226t26.226 63.054l0 392.832q0 36.828-26.226 63.054t-63.054 26.226l-607.104 0q-36.828 0-63.054-26.226t-26.226-63.054zm71.424 0q0 7.254 5.301 12.555t12.555 5.301l607.104 0q7.254 0 12.555-5.301t5.301-12.555l0-392.832q0-7.254-5.301-12.555t-12.555-5.301l-607.104 0q-7.254 0-12.555 5.301t-5.301 12.555l0 392.832zm267.84 169.632q0 8.928 8.928 8.928l89.28 0q8.928 0 8.928-8.928t-8.928-8.928l-89.28 0q-8.928 0-8.928 8.928z"/></svg>