<svg height="1000" width="1000" xmlns="http://www.w3.org/2000/svg"><path d="M721 392.9q0 3.3 5.6 22.8 5.5 16.2 13.9 27.7t22.9 18.9 24.5 11.2 30.7 9.2Q1000 533.5 1000 668q0 81.4 -58.9 135.3t-142 53.8q-32.9 0 -62.2 -10.3t-51.1 -25.4 -42.9 -41.5T607.7 731t-29.9 -57.7 -24.2 -57.5 -22.1 -59.4 -19.8 -53.1q-17.8 -45.2 -34.3 -74.4t-41 -53.9 -58.1 -35.7 -79.2 -11.2q-53.6 0 -102.1 31t-77 80.6T91.5 543q0 89.3 59.4 155.9T298 765.6q98.8 0 144 -53 31.2 -35.1 46.3 -64.7l46.9 84.8q-8.4 19 -24.6 39.1l.6 .5q-73.1 84.8 -216.6 84.8 -82 0 -150.3 -44T37.9 697.3 0 544.1q0 -58.6 24.3 -115T89 330.6t96 -67.8 114.1 -25.6q48.6 0 88.7 10.6t69 27.9 53 44.6 40.4 55.3 32.7 65.2 28.1 69.5 28 72.8 30.6 70.9q53.6 111.6 130.1 111.6 45.2 0 77.3 -27t32 -71.7q0 -23.5 -10.6 -40.2T870.3 601t-40.5 -17.6 -47.2 -15 -48.8 -19 -45.2 -29 -36.3 -45.8 -21.7 -68.3q-1.7 -9 -1.7 -18.5 0 -61.3 48.8 -107.1t110.8 -43.5q43.5 1.6 67.2 8.1t50.6 29.8h-.6q6.7 6.2 12.8 13.7t14.5 20.1 10.6 15.3l-71.9 55.3q-14.6 -27.4 -30.2 -39.1v-.6q-12.8 -11.7 -54.1 -11.7 -27.4 0 -46.9 18.4T721 392.9z"/></svg>