<svg height="1000" width="857.1" xmlns="http://www.w3.org/2000/svg"><path d="M799.1 587.1q0 -96.6 -130.6 -133.4Q649 448.1 639 444.5t-21.3 -14 -16.1 -25.9q0 -1.1 -1.2 -4.8t-1.6 -6.7 -.6 -4.1q0 -20.1 13.7 -33.3t33.7 -13.1q30.2 0 39.7 8.4h-.6q11.2 8.4 21.8 28.5l51.9 -39.7Q736.6 309.7 731 304.1q-18.4 -16.2 -37.6 -21.7t-47.8 -5.6q-44.6 0 -79.2 32.1t-34.6 76.7q0 3.9 1.1 12.8 9 53.6 36 78.2t82.9 40.7q16.2 4.5 27.3 8.6t25.1 12 21.5 19.3 7.6 25.9v2.8q.5 32.4 -22.6 51.9t-56.1 19.6q-54.2 0 -93.2 -80.4 -12.9 -26.2 -28.8 -67.8t-26.7 -70 -30.2 -61.7 -41.3 -53.3 -57.7 -33.7 -82.1 -13.7q-56.3 0 -107.1 31.2t-80.4 82.6T79.2 497.8v.5q2.3 60.3 28.2 111.1t74.5 82.3 109.4 31.5q103.8 0 155.7 -61.4 11.1 -15 17.3 -28.4l-33.5 -60.9q-23.4 44.7 -55.2 64.8t-81.5 20.1q-64.2 0 -106.6 -48.6T145.1 495q0 -58.6 45.7 -105.5t103.8 -46.9q62.5 0 94.9 29.9t58 96.3q4.5 11.7 14.3 38.2t15.9 42.7 17.6 41.5 21.4 41.3 25.4 34.9 31 29.9 36.8 18.4 44.7 7.5q59.7 0 102.1 -38.8t42.4 -97.3zm58 -355v535.8q0 66.4 -47.1 113.5t-113.6 47.2H160.7q-66.4 0 -113.5 -47.2T0 767.9V232.1Q0 165.7 47.2 118.6T160.7 71.4h535.7q66.4 0 113.6 47.2t47.1 113.5z"/></svg>