<svg height="1000" width="1000" xmlns="http://www.w3.org/2000/svg"><path d="M720.936 392.896q0 3.348 5.58 22.878 5.58 16.182 13.95 27.621t22.878 18.972 24.552 11.16 30.69 9.207q181.35 50.778 181.35 185.256 0 81.468 -58.869 135.315t-142.011 53.847q-32.922 0 -62.217 -10.323t-51.057 -25.389 -42.966 -41.571 -35.154 -48.825 -29.853 -57.753 -24.273 -57.474 -22.041 -59.427 -19.809 -53.01q-17.856 -45.198 -34.317 -74.493t-41.013 -53.847 -58.032 -35.712 -79.236 -11.16q-53.568 0 -102.114 30.969t-77.004 80.631 -28.458 103.23q0 89.28 59.427 155.961t147.033 66.681q98.766 0 143.964 -53.01 31.248 -35.154 46.314 -64.728l46.872 84.816q-8.37 18.972 -24.552 39.06l.558 .558q-73.098 84.816 -216.504 84.816 -82.026 0 -150.381 -44.082t-106.299 -115.785 -37.944 -153.171q0 -58.59 24.273 -114.948t64.728 -98.487 95.976 -67.797 114.111 -25.668q48.546 0 88.722 10.602t68.913 27.9 53.01 44.64 40.455 55.242 32.643 65.286 28.179 69.471 27.9 72.819 30.69 70.866q53.568 111.6 130.014 111.6 45.198 0 77.283 -27.063t32.085 -71.703q0 -23.436 -10.602 -40.176t-28.179 -25.668 -40.455 -17.577 -47.151 -15.066 -48.825 -18.972 -45.198 -29.016 -36.27 -45.756 -21.762 -68.355q-1.674 -8.928 -1.674 -18.414 0 -61.38 48.825 -107.136t110.763 -43.524q43.524 1.674 67.239 8.091t50.499 29.853h-.558q6.696 6.138 12.834 13.671t14.508 20.088 10.602 15.345l-71.982 55.242q-14.508 -27.342 -30.132 -39.06v-.558q-12.834 -11.718 -54.126 -11.718 -27.342 0 -46.872 18.414t-19.53 46.314z"/></svg>