<svg height="1000" width="857.143" xmlns="http://www.w3.org/2000/svg"><path d="M799.056 587.08q0 -96.534 -130.572 -133.362 -19.53 -5.58 -29.574 -9.207t-21.204 -13.95 -16.182 -25.947q0 -1.116 -1.116 -4.743t-1.674 -6.696 -.558 -4.185q0 -20.088 13.671 -33.201t33.759 -13.113q30.132 0 39.618 8.37h-.558q11.16 8.37 21.762 28.458l51.894 -39.618q-21.762 -30.132 -27.342 -35.712 -18.414 -16.182 -37.665 -21.762t-47.709 -5.58q-44.64 0 -79.236 32.085t-34.596 76.725q0 3.906 1.116 12.834 8.928 53.568 35.991 78.12t82.863 40.734q16.182 4.464 27.342 8.649t25.11 11.997 21.483 19.251 7.533 25.947v2.79q.558 32.364 -22.599 51.894t-56.079 19.53q-54.126 0 -93.186 -80.352 -12.834 -26.226 -28.737 -67.797t-26.784 -70.029 -30.132 -61.659 -41.292 -53.289 -57.753 -33.759 -82.026 -13.671q-56.358 0 -107.136 31.248t-80.352 82.584 -27.9 107.136v.558q2.232 60.264 28.179 111.042t74.493 82.305 109.368 31.527q103.788 0 155.682 -61.38 11.16 -15.066 17.298 -28.458l-33.48 -60.822q-23.436 44.64 -55.242 64.728t-81.468 20.088q-64.17 0 -106.578 -48.546t-42.408 -113.832q0 -58.59 45.756 -105.462t103.788 -46.872q62.496 0 94.86 29.853t58.032 96.255q4.464 11.718 14.229 38.223t15.903 42.687 17.577 41.571 21.483 41.292 25.389 34.875 30.969 29.853 36.828 18.414 44.64 7.533q59.706 0 102.114 -38.781t42.408 -97.371zm58.032 -354.888v535.68q0 66.402 -47.151 113.553t-113.553 47.151h-535.68q-66.402 0 -113.553 -47.151t-47.151 -113.553v-535.68q0 -66.402 47.151 -113.553t113.553 -47.151h535.68q66.402 0 113.553 47.151t47.151 113.553z"/></svg>