<svg height="1000px" width="935.546875px" xmlns="http://www.w3.org/2000/svg">
  <g>
    <path d="M2.9296875 809.08203125c6.51 -17.253 15.625 -31.738 27.344 -43.457c11.718 -11.719 23.274 -22.298 34.668 -31.738c9.44 -7.487 17.659 -14.486 24.658 -20.996c6.999 -6.511 11.475 -13.51 13.428 -20.997c0.651 -1.953 0.651 -3.906 0 -5.859c-0.651 -1.953 -2.279 -6.022 -4.883 -12.207c-1.953 -3.906 -3.825 -8.382 -5.615 -13.428c-1.791 -5.045 -3.337 -10.823 -4.639 -17.334c-8.138 -52.083 -6.022 -100.097 6.348 -144.043c12.369 -43.945 31.901 -83.414 58.593 -118.408c26.693 -34.993 58.431 -65.185 95.215 -90.576c36.784 -25.391 75.033 -45.085 114.746 -59.082c26.693 -9.44 55.908 -14.974 87.647 -16.602c31.738 -1.627 64.86 -2.766 99.365 -3.418c19.857 0 40.527 -0.325 62.012 -0.976c21.484 -0.651 42.236 -2.442 62.256 -5.371c20.019 -2.93 38.492 -7.569 55.42 -13.916c16.927 -6.348 30.761 -15.218 41.503 -26.612c6.511 -6.51 12.777 -13.183 18.799 -20.019c6.022 -6.836 12.207 -12.695 18.555 -17.578c6.348 -4.883 13.346 -8.871 20.996 -11.963c7.65 -3.093 17.171 -4.639 28.564 -4.639c7.487 0 14.405 1.872 20.752 5.615c6.348 3.744 11.15 8.871 14.405 15.381c21.484 43.295 34.993 89.112 40.527 137.452c5.534 48.339 2.604 100.83 -8.789 157.47c-29.297 158.529 -123.535 278.972 -282.715 361.328c-75.195 40.039 -151.204 60.059 -228.027 60.059c-50.13 0 -100.098 -8.789 -149.903 -26.367c-7.487 -2.604 -14.892 -5.86 -22.216 -9.766c-7.325 -3.906 -14.567 -7.975 -21.729 -12.207c-9.44 -5.208 -18.799 -10.172 -28.076 -14.892c-9.277 -4.721 -17.334 -7.081 -24.17 -7.081c-3.255 0.651 -7.08 3.5 -11.475 8.545c-4.394 5.046 -8.87 10.743 -13.427 17.09c-4.558 6.348 -8.871 13.021 -12.94 20.02c-4.069 6.998 -7.405 12.451 -10.009 16.357c-4.558 7.487 -8.871 14.242 -12.94 20.264c-4.069 6.022 -7.731 11.312 -10.986 15.869c-8.138 10.091 -18.555 15.137 -31.25 15.137c0 0 -1.953 0 -1.953 0c-9.441 -0.651 -17.497 -2.686 -24.17 -6.104c-6.674 -3.418 -12.126 -7.405 -16.358 -11.963c-4.232 -4.557 -7.568 -9.196 -10.01 -13.916c-2.441 -4.72 -3.987 -8.382 -4.638 -10.986c-8.789 -12.044 -10.417 -24.74 -4.883 -38.086c0 0 0 0 0 0m192.871 -181.885c0.651 10.58 5.371 19.45 14.16 26.612c6.511 5.859 14.811 8.951 24.903 9.277c12.044 0 22.135 -4.395 30.273 -13.184c29.297 -33.203 58.757 -61.686 88.379 -85.449c29.622 -23.763 60.791 -42.806 93.506 -57.129c32.715 -14.323 67.22 -24.414 103.515 -30.273c36.296 -5.86 75.765 -8.138 118.409 -6.836c10.742 1.302 20.101 -1.872 28.076 -9.522c7.975 -7.649 12.288 -16.845 12.939 -27.588c0.651 -11.393 -2.685 -20.914 -10.01 -28.564c-7.324 -7.65 -16.682 -11.8 -28.076 -12.451c-47.851 -1.953 -92.936 0.732 -135.254 8.056c-42.317 7.325 -82.519 19.288 -120.605 35.889c-38.086 16.602 -74.463 38.249 -109.131 64.942c-34.668 26.692 -68.278 59.082 -100.83 97.168c-7.487 8.789 -10.905 18.473 -10.254 29.052c0 0 0 0 0 0" />
  </g>
</svg>