<svg height="1000px" width="1000px" xmlns="http://www.w3.org/2000/svg">
  <g>
    <path d="M0 783.7611607142857c0 -9.115 5.766 -20.833 17.299 -35.156c11.533 -14.323 24.182 -26.507 37.947 -36.552c36.83 -26.785 55.245 -46.131 55.245 -58.035c0 -1.488 -2.604 -8.557 -7.812 -21.206c-9.301 -22.693 -13.951 -52.827 -13.951 -90.401c0 -37.575 8.091 -75.893 24.274 -114.956c16.183 -38.69 38.412 -72.916 66.685 -102.678c56.92 -59.896 126.489 -103.609 208.706 -131.139c34.97 -11.533 95.238 -18.043 180.803 -19.531c90.402 -1.488 151.786 -6.417 184.152 -14.788c32.366 -8.371 55.804 -19.438 70.313 -33.203c0 0 16.741 -16.741 16.741 -16.741c20.461 -20.461 35.993 -31.901 46.596 -34.319c10.602 -2.419 21.763 -3.628 33.482 -3.628c11.719 0 23.437 8.557 35.156 25.67c11.719 17.113 20.554 37.946 26.507 62.5c5.952 24.554 10.417 47.619 13.393 69.196c2.976 21.578 4.464 44.736 4.464 69.476c0 24.74 -3.72 55.338 -11.161 91.797c-17.113 83.333 -51.432 154.576 -102.957 213.727c-51.526 59.152 -117.56 108.91 -198.103 149.275c-80.543 40.365 -162.481 60.547 -245.815 60.547c-55.059 0 -108.259 -8.743 -159.598 -26.228c-5.58 -1.86 -21.949 -9.672 -49.107 -23.437c-27.158 -13.765 -44.364 -20.648 -51.618 -20.648c-7.255 0 -15.253 5.953 -23.996 17.858c-8.742 11.904 -17.113 24.925 -25.112 39.062c-7.998 14.137 -17.764 27.158 -29.296 39.063c-11.533 11.904 -22.787 17.857 -33.762 17.857c-10.974 0 -20.368 -2.046 -28.18 -6.139c-7.813 -4.092 -13.579 -8.556 -17.299 -13.393c-3.721 -4.836 -7.348 -10.323 -10.882 -16.462c-3.534 -6.138 -6.046 -10.509 -7.534 -13.113c-1.488 -2.605 -2.604 -4.465 -3.348 -5.581c-1.488 -3.348 -2.232 -9.579 -2.232 -18.694c0 0 0 0 0 0m214.286 -176.06c0 9.3 3.534 17.485 10.602 24.553c7.069 7.069 15.253 10.603 24.554 10.603c9.301 0 18.415 -3.999 27.344 -11.998c8.928 -7.998 22.135 -20.74 39.62 -38.225c17.485 -17.485 29.948 -29.762 37.389 -36.831c50.967 -46.131 100.911 -78.869 149.832 -98.214c48.921 -19.345 107.236 -29.018 174.944 -29.018c9.673 0 18.044 -3.534 25.112 -10.602c7.068 -7.069 10.603 -15.439 10.603 -25.112c0 -9.673 -3.535 -18.043 -10.603 -25.112c-7.068 -7.068 -15.439 -10.602 -25.112 -10.602c-123.511 0 -231.026 34.226 -322.544 102.678c-42.411 31.25 -86.124 71.987 -131.139 122.21c-7.068 7.813 -10.602 16.369 -10.602 25.67c0 0 0 0 0 0" />
  </g>
</svg>