<svg height="1000" width="1000" xmlns="http://www.w3.org/2000/svg"><path d="M0 789.6q0-19.5 17.3-41t37.9-36.5 37.9-31.2 17.3-26.8q0-2.2-7.8-21.2t-8.9-24.6q-5-28.5-5-58 0-64.2 24.3-122.8t66.4-103 95.1-77.6 113.8-53.3q30.7-10 80.9-14.2t100.2-5 99.6-3.3 91.2-13.4 63.3-31.5l16.5-16.5 16.5-15.6 15.1-11.2 20.4-8.9 24.3-2.5q21.8 0 39.3 25.7t26.5 62.5 13.4 69.2 4.5 53.6q0 53-11.2 107.7-25.7 125-103 213.7t-199.5 149.5q-119.4 60.3-244.4 60.3-82.6 0-159.6-26.2-8.4-2.8-49.1-23.4t-53.6-20.6q-8.9 0-22 17.9t-25.1 39.1-29.3 39.1-33.5 17.9q-16.7 0-28.5-6.1t-17.3-13.4-15.1-23.4q-1.1-2.2-3.3-6.1t-3.1-5.6-1.7-5.3-.8-7.5zm214.3-182.5q0 14.5 10.6 25.1t25.1 10.6q13.4 0 25.1-10.6 15.1-13.4 41.3-39.6t37.4-36.8q76.4-69.2 149.8-98.2t174.9-29q14.5 0 25.1-10.6t10.6-25.1-10.6-25.1-25.1-10.6q-96 0-177.4 27.6t-144.8 74.8-131.4 122.5q-10.6 11.7-10.6 25.1z"/></svg>