<svg height="1000px" width="899.5156249999999px" xmlns="http://www.w3.org/2000/svg">
  <g>
    <path d="M2.75 797c6 -16.667 14.5 -30.5 25.5 -41.5c11 -11 22.167 -21.167 33.5 -30.5c9.333 -7.333 17.333 -14.167 24 -20.5c6.667 -6.333 11 -13.167 13 -20.5c0.667 -1.333 0.667 -3 0 -5c-0.667 -2 -2.333 -5.667 -5 -11c-1.333 -4 -3 -8.5 -5 -13.5c-2 -5 -3.667 -10.5 -5 -16.5c-8 -50 -5.833 -96.333 6.5 -139c12.333 -42.667 31.167 -80.833 56.5 -114.5c25.333 -33.667 55.667 -62.5 91 -86.5c35.333 -24 72.333 -42.667 111 -56c25.333 -9.333 53.167 -14.833 83.5 -16.5c30.333 -1.667 62.167 -2.833 95.5 -3.5c18.667 0 38.5 -0.333 59.5 -1c21 -0.667 41.167 -2.5 60.5 -5.5c19.333 -3 37.167 -7.5 53.5 -13.5c16.333 -6 29.5 -14.333 39.5 -25c6.667 -6.667 12.833 -13.167 18.5 -19.5c5.667 -6.333 11.667 -11.833 18 -16.5c6.333 -4.667 13.167 -8.5 20.5 -11.5c7.333 -3 16.333 -4.5 27 -4.5c15.333 0 26.333 7 33 21c41.333 80.667 52 175 32 283c-28 152 -118.667 267.667 -272 347c-73.333 38 -146.667 57 -220 57c-24 0 -48.167 -2 -72.5 -6c-24.333 -4 -48.167 -10.333 -71.5 -19c-7.333 -2.667 -14.5 -5.833 -21.5 -9.5c-7 -3.667 -14.167 -7.167 -21.5 -10.5c-8.667 -5.333 -17.5 -10.167 -26.5 -14.5c-9 -4.333 -16.5 -6.833 -22.5 -7.5c-3.333 0.667 -7.167 3.333 -11.5 8c-4.333 4.667 -8.667 10.167 -13 16.5c-4.333 6.333 -8.5 12.667 -12.5 19c-4 6.333 -7.333 11.5 -10 15.5c-4 7.333 -8 14 -12 20c-4 6 -7.667 11.333 -11 16c-7.333 9.333 -17 14 -29 14c0 0 -2 0 -2 0c-18.667 -1.333 -31.667 -7.167 -39 -17.5c-7.333 -10.333 -12 -18.167 -14 -23.5c-8.667 -12 -10.333 -24.333 -5 -37c0 0 0 0 0 0m185.5 -175.5c1 10.333 5.5 19.167 13.5 26.5c6.667 6 14.667 9 24 9c12 0 21.333 -4.333 28 -13c28 -32 56.5 -59.333 85.5 -82c29 -22.667 59.167 -40.833 90.5 -54.5c31.333 -13.667 64.5 -23.333 99.5 -29c35 -5.667 73.167 -7.833 114.5 -6.5c10 1.333 18.833 -1.833 26.5 -9.5c7.667 -7.667 11.833 -16.5 12.5 -26.5c0 -10.667 -3.5 -19.833 -10.5 -27.5c-7 -7.667 -15.833 -11.5 -26.5 -11.5c-46 -2 -89.333 0.333 -130 7c-40.667 6.667 -79.333 18 -116 34c-36.667 16 -71.5 37 -104.5 63c-33 26 -65.5 57.333 -97.5 94c-7.333 7.333 -10.5 16.167 -9.5 26.5c0 0 0 0 0 0" />
  </g>
</svg>