<svg height="1000px" width="1000px" xmlns="http://www.w3.org/2000/svg">
  <g>
    <path d="M995.5357142857143 228.79464285714278c2.976 21.577 4.464 44.736 4.464 69.475c0 24.74 -3.72 55.339 -11.16 91.797c-17.114 83.334 -51.433 154.576 -102.958 213.728c-51.525 59.152 -117.56 108.91 -198.103 149.275c-80.543 40.364 -162.481 60.546 -245.814 60.546c-55.06 0 -108.259 -8.742 -159.599 -26.227c-5.58 -1.86 -21.949 -9.673 -49.107 -23.438c-27.158 -13.765 -44.364 -20.647 -51.618 -20.647c-7.255 0 -15.253 5.952 -23.996 17.857c-8.742 11.905 -17.113 24.926 -25.111 39.063c-7.999 14.136 -17.764 27.157 -29.297 39.062c-11.533 11.905 -22.787 17.857 -33.761 17.857c-10.975 0 -20.369 -2.046 -28.181 -6.138c-7.813 -4.092 -13.579 -8.557 -17.299 -13.393c-3.72 -4.836 -7.348 -10.324 -10.882 -16.462c-3.534 -6.138 -6.045 -10.51 -7.533 -13.114c-1.488 -2.604 -2.605 -4.464 -3.349 -5.58c-1.488 -3.348 -2.232 -9.58 -2.232 -18.694c0 -9.115 5.767 -20.834 17.299 -35.157c11.533 -14.323 24.182 -26.506 37.947 -36.551c36.83 -26.786 55.245 -46.131 55.245 -58.036c0 -1.488 -2.604 -8.556 -7.812 -21.205c-9.301 -22.694 -13.951 -52.828 -13.951 -90.402c0 -37.574 8.091 -75.893 24.275 -114.955c16.183 -38.691 38.411 -72.917 66.685 -102.679c56.919 -59.896 126.488 -103.608 208.705 -131.138c34.97 -11.533 95.238 -18.043 180.804 -19.531c90.401 -1.489 151.785 -6.418 184.151 -14.788c32.367 -8.371 55.804 -19.439 70.313 -33.204c0 0 16.741 -16.741 16.741 -16.741c20.461 -20.461 35.993 -31.901 46.596 -34.319c10.603 -2.418 21.763 -3.627 33.482 -3.627c11.719 0 23.438 8.556 35.156 25.67c11.719 17.113 20.555 37.946 26.507 62.5c5.953 24.553 10.417 47.619 13.393 69.196c0 0 0 0 0 0m-281.25 164.063c0 -9.673 -3.534 -18.044 -10.603 -25.112c-7.068 -7.069 -15.439 -10.603 -25.111 -10.603c-123.512 0 -231.027 34.226 -322.545 102.679c-42.411 31.25 -86.123 71.986 -131.138 122.21c-7.069 7.812 -10.603 16.369 -10.603 25.669c0 9.301 3.534 17.485 10.603 24.554c7.068 7.068 15.253 10.603 24.553 10.603c9.301 0 18.415 -4 27.344 -11.998c8.929 -7.999 22.135 -20.741 39.621 -38.226c17.485 -17.485 29.947 -29.762 37.388 -36.83c50.967 -46.131 100.911 -78.869 149.833 -98.214c48.921 -19.346 107.235 -29.018 174.944 -29.018c9.672 0 18.043 -3.534 25.111 -10.603c7.069 -7.068 10.603 -15.439 10.603 -25.111c0 0 0 0 0 0" />
  </g>
</svg>