<svg height="1000" width="1000" xmlns="http://www.w3.org/2000/svg"><path d="M714.24 392.896q0 -14.508 -10.602 -25.11t-25.11 -10.602q-95.976 0 -177.444 27.621t-144.801 74.772 -131.409 122.481q-10.602 11.718 -10.602 25.11 0 14.508 10.602 25.11t25.11 10.602q13.392 0 25.11 -10.602 15.066 -13.392 41.292 -39.618t37.386 -36.828q76.446 -69.192 149.823 -98.208t174.933 -29.016q14.508 0 25.11 -10.602t10.602 -25.11zm285.696 -110.484q0 53.01 -11.16 107.694 -25.668 124.992 -102.951 213.714t-199.485 149.544q-119.412 60.264 -244.404 60.264 -82.584 0 -159.588 -26.226 -8.37 -2.79 -49.104 -23.436t-53.568 -20.646q-8.928 0 -22.041 17.856t-25.11 39.06 -29.295 39.06 -33.48 17.856q-16.74 0 -28.458 -6.138t-17.298 -13.392 -15.066 -23.436q-1.116 -2.232 -3.348 -6.138t-3.069 -5.58 -1.674 -5.301 -.837 -7.533q0 -19.53 17.298 -41.013t37.944 -36.549 37.944 -31.248 17.298 -26.784q0 -2.232 -7.812 -21.204t-8.928 -24.552q-5.022 -28.458 -5.022 -58.032 0 -64.17 24.273 -122.76t66.402 -102.951 95.139 -77.562 113.832 -53.289q30.69 -10.044 80.91 -14.229t100.161 -5.022 99.603 -3.348 91.233 -13.392 63.333 -31.527l16.461 -16.461t16.461 -15.624 15.066 -11.16 20.367 -8.928 24.273 -2.511q21.762 0 39.339 25.668t26.505 62.496 13.392 69.192 4.464 53.568z"/></svg>