<svg height="1000px" width="1000px" xmlns="http://www.w3.org/2000/svg">
  <g>
    <path d="M0 789.6205357142857c0 -13.021 5.766 -26.693 17.299 -41.016c11.533 -14.323 24.182 -26.506 37.947 -36.551c13.764 -10.045 26.413 -20.461 37.946 -31.25c11.533 -10.789 17.299 -19.717 17.299 -26.786c0 -1.488 -2.604 -8.556 -7.812 -21.205c-5.209 -12.649 -8.185 -20.833 -8.929 -24.554c-3.348 -18.973 -5.022 -38.318 -5.022 -58.035c0 -42.783 8.091 -83.706 24.274 -122.768c16.183 -39.063 38.319 -73.382 66.406 -102.958c28.088 -29.576 59.803 -55.431 95.146 -77.567c35.342 -22.135 73.288 -39.899 113.839 -53.292c20.461 -6.697 47.433 -11.44 80.915 -14.23c33.482 -2.79 66.871 -4.464 100.167 -5.022c33.297 -0.558 66.5 -1.674 99.61 -3.349c33.11 -1.674 63.523 -6.138 91.239 -13.392c27.715 -7.255 48.828 -17.765 63.337 -31.529c0 0 16.462 -16.463 16.462 -16.463c0 0 5.487 -5.208 16.462 -15.625c10.975 -10.416 15.997 -14.136 15.067 -11.16c-0.93 2.976 5.859 0 20.368 -8.929c14.509 -8.928 22.601 -9.765 24.275 -2.511c14.509 0 27.622 8.557 39.341 25.67c11.719 17.113 20.554 37.946 26.507 62.5c5.952 24.553 10.417 47.619 13.393 69.196c2.976 21.577 4.464 39.435 4.464 53.572c0 35.342 -3.72 71.242 -11.161 107.7c-17.113 83.334 -51.432 154.576 -102.957 213.728c-51.526 59.152 -118.025 109.003 -199.498 149.554c-79.613 40.178 -161.086 60.268 -244.42 60.268c-55.059 0 -108.259 -8.743 -159.598 -26.228c-5.58 -1.86 -21.949 -9.673 -49.107 -23.438c-27.158 -13.765 -45.015 -20.647 -53.572 -20.647c-5.952 0 -13.299 5.952 -22.042 17.857c-8.742 11.905 -17.113 24.926 -25.112 39.063c-7.998 14.137 -17.764 27.157 -29.296 39.062c-11.533 11.905 -22.694 17.857 -33.483 17.857c-11.16 0 -20.647 -2.046 -28.459 -6.138c-7.813 -4.092 -13.579 -8.557 -17.299 -13.393c-3.721 -4.836 -8.743 -12.649 -15.067 -23.437c-0.744 -1.489 -1.861 -3.535 -3.349 -6.139c-1.488 -2.604 -2.511 -4.464 -3.069 -5.58c-0.558 -1.116 -1.116 -2.883 -1.674 -5.302c-0.558 -2.418 -0.837 -4.929 -0.837 -7.533c0 0 0 0 0 0m214.286 -182.478c0 9.673 3.534 18.043 10.602 25.112c7.069 7.068 15.439 10.603 25.112 10.603c8.929 0 17.299 -3.535 25.112 -10.603c10.044 -8.929 23.809 -22.135 41.294 -39.621c17.485 -17.485 29.948 -29.762 37.389 -36.83c50.967 -46.131 100.911 -78.869 149.832 -98.214c48.921 -19.345 107.236 -29.018 174.944 -29.018c9.673 0 18.044 -3.534 25.112 -10.603c7.068 -7.068 10.603 -15.439 10.603 -25.111c0 -9.673 -3.535 -18.044 -10.603 -25.112c-7.068 -7.068 -15.439 -10.603 -25.112 -10.603c-63.988 0 -123.139 9.208 -177.455 27.623c-54.315 18.415 -102.585 43.341 -144.81 74.777c-42.225 31.436 -86.031 72.266 -131.418 122.489c-7.068 7.812 -10.602 16.183 -10.602 25.111c0 0 0 0 0 0" />
  </g>
</svg>