<svg height="1000" width="1000" xmlns="http://www.w3.org/2000/svg"><path d="M714.3 392.9q0 -14.6 -10.6 -25.2t-25.1 -10.6q-96 0 -177.5 27.7t-144.8 74.7T224.9 582q-10.6 11.8 -10.6 25.1 0 14.6 10.6 25.2t25.1 10.6q13.4 0 25.1 -10.6 15.1 -13.4 41.3 -39.7t37.4 -36.8q76.4 -69.2 149.8 -98.2t175 -29q14.5 0 25.1 -10.6t10.6 -25.1zM1000 282.4q0 53 -11.2 107.7 -25.6 125 -102.9 213.7T686.4 753.3Q567 813.6 442 813.6q-82.6 0 -159.6 -26.2Q274 784.6 233.3 764t-53.6 -20.7q-8.9 0 -22.1 17.9t-25.1 39 -29.3 39.1 -33.4 17.8Q53 857.1 41.3 851T24 837.6 8.9 814.2Q7.8 811.9 5.6 808t-3.1 -5.5T.8 797.2 0 789.6q0 -19.5 17.3 -41t37.9 -36.5 38 -31.3T110.5 654q0 -2.2 -7.8 -21.2t-9 -24.5q-5 -28.5 -5 -58.1Q88.7 486 113 427.5t66.4 -103 95.2 -77.6 113.8 -53.3q30.7 -10 80.9 -14.2t100.2 -5 99.6 -3.4 91.2 -13.4 63.4 -31.5l16.4 -16.4T856.6 94t15.1 -11.1 20.3 -9 24.3 -2.5q21.8 0 39.3 25.7t26.5 62.5 13.4 69.2 4.5 53.6z"/></svg>