<svg height="1000" width="1142.9" xmlns="http://www.w3.org/2000/svg"><path d="M1056.4 218.8l86.5 709.8q-73.1 0 -143.5 -31.8Q887.8 846 780.1 846 654 846 571.4 928.6 488.8 846 362.7 846 255 846 143.4 896.8 72 928.6 2.8 928.6H0L86.5 218.8q125 -70.9 269 -70.9 130 0 215.9 59.1 86 -59.1 216 -59.1 144 0 269 70.9zM780.1 769.5q72 0 129.5 15.9t145.1 52.2L985.5 267.9Q890.1 224.3 780.1 224.3q-125 0 -208.7 78.7Q487.7 224.3 362.7 224.3q-109.9 0 -205.3 43.6L88.2 837.6q58.6 -24 92.3 -36.3t82.9 -22 99.3 -9.8q112.7 0 208.7 60.3 96 -60.3 208.7 -60.3zm22.4 -18.9L771.8 244.4Q654 246.7 571.4 330.9 486.6 244.4 362.7 244.4q-98.2 0 -187.5 36.9l-63.6 525.1Q180.8 777.9 239.1 764t123.6 -14q116.7 0 208.7 56.9 96 -59.7 208.7 -56.9z"/></svg>