<svg height="1000" width="1142.857" xmlns="http://www.w3.org/2000/svg"><path d="M1056.294 218.8l86.49 709.776q-73.098 0 -143.406 -31.806 -111.6 -50.778 -219.294 -50.778 -126.108 0 -208.692 82.584 -82.584 -82.584 -208.692 -82.584 -107.694 0 -219.294 50.778 -71.424 31.806 -140.616 31.806h-2.79l86.49 -709.776q124.992 -70.866 268.956 -70.866 130.014 0 215.946 59.148 85.932 -59.148 215.946 -59.148 143.964 0 268.956 70.866zm-276.21 550.746q71.982 0 129.456 15.903t145.08 52.173l-69.192 -569.718q-95.418 -43.524 -205.344 -43.524 -124.992 0 -208.692 78.678 -83.7 -78.678 -208.692 -78.678 -109.926 0 -205.344 43.524l-69.192 569.718q58.59 -23.994 92.349 -36.27t82.863 -22.041 99.324 -9.765q112.716 0 208.692 60.264 95.976 -60.264 208.692 -60.264zm22.32 -18.972l-30.69 -506.106q-117.738 2.232 -200.322 86.49 -84.816 -86.49 -208.692 -86.49 -98.208 0 -187.488 36.828l-63.612 525.078q69.192 -28.458 127.503 -42.408t123.597 -13.95q116.622 0 208.692 56.916 95.976 -59.706 208.692 -56.916z"/></svg>