<svg height="1000px" width="642.8571428571429px" xmlns="http://www.w3.org/2000/svg">
  <g>
    <path d="M414.0625 877.7901785714286c0 0 -363.839 -363.281 -363.839 -363.281c-13.765 -13.765 -20.648 -30.599 -20.648 -50.502c0 -19.904 6.883 -36.738 20.648 -50.503c0 0 363.839 -363.281 363.839 -363.281c13.765 -13.765 30.599 -20.647 50.502 -20.647c19.904 0 36.738 6.882 50.502 20.647c0 0 41.853 41.853 41.853 41.853c13.765 13.765 20.647 30.599 20.647 50.502c0 19.903 -6.882 36.737 -20.647 50.502c0 0 -271.205 271.206 -271.205 271.206c0 0 271.205 270.647 271.205 270.647c13.765 14.137 20.647 31.064 20.647 50.781c0 19.717 -6.882 36.458 -20.647 50.223c0 0 -41.853 41.853 -41.853 41.853c-13.764 13.765 -30.598 20.647 -50.502 20.647c-19.903 0 -36.737 -6.882 -50.502 -20.647c0 0 0 0 0 0" />
  </g>
</svg>