<svg height="1000px" width="357.14285714285717px" xmlns="http://www.w3.org/2000/svg">
  <g>
    <path d="M35.714285714285715 499.99999999999994c0 -9.673 3.534 -18.043 10.603 -25.112c0 0 250 -250 250 -250c7.068 -7.068 15.439 -10.602 25.111 -10.602c9.673 0 18.043 3.534 25.112 10.602c7.068 7.069 10.603 15.439 10.603 25.112c0 0 0 500 0 500c0 9.673 -3.535 18.043 -10.603 25.112c-7.069 7.068 -15.439 10.602 -25.112 10.602c-9.672 0 -18.043 -3.534 -25.111 -10.602c0 0 -250 -250 -250 -250c-7.069 -7.069 -10.603 -15.439 -10.603 -25.112c0 0 0 0 0 0" />
  </g>
</svg>