<svg height="1000" width="857.1" xmlns="http://www.w3.org/2000/svg"><path d="M0 500q0-116.6 57.5-215.1t156-156 215.1-57.5 215.1 57.5 156 156 57.5 215.1-57.5 215.1-156 156-215.1 57.5-215.1-57.5-156-156-57.5-215.1zm140.1 0q0 15.1 10 25.1l50.8 50.8 202 202q10 10 25.1 10t25.1-10l50.8-50.8q10-10 10-25.1t-10-25.1l-105.5-105.5h280.1q14.5 0 25.1-10.6t10.6-25.1v-71.4q0-14.5-10.6-25.1t-25.1-10.6h-280.1l105.5-105.5q10.6-10.6 10.6-25.1t-10.6-25.1l-50.8-50.8q-10-10-25.1-10t-25.1 10l-202 202-50.8 50.8q-10 10-10 25.1z"/></svg>