<svg height="1000px" width="750px" xmlns="http://www.w3.org/2000/svg">
  <g>
    <path d="M0 500.5c0 -12.667 4.667 -23.667 14 -33c0 0 328 -329 328 -329c9.333 -9.333 20.333 -14 33 -14c12.667 0 23.667 4.667 33 14c0 0 49 49 49 49c9.333 9.333 14 20.333 14 33c0 12.667 -4.667 23.667 -14 33c0 0 -165 165 -165 165c0 0 411 0 411 0c13.333 0 24.5 4.5 33.5 13.5c9 9 13.5 20.167 13.5 33.5c0 0 0 70 0 70c0 12.667 -4.5 23.5 -13.5 32.5c-9 9 -19.833 13.5 -32.5 13.5c0 0 -412 0 -412 0c0 0 165 165 165 165c9.333 9.333 14 20.333 14 33c0 12.667 -4.667 23.667 -14 33c0 0 -49 49 -49 49c-9.333 9.333 -20.333 14 -33 14c-12.667 0 -23.667 -4.667 -33 -14c0 0 -328 -328 -328 -328c-9.333 -9.333 -14 -20.333 -14 -33c0 0 0 0 0 0" />
  </g>
</svg>