<svg height="1000" width="1000" xmlns="http://www.w3.org/2000/svg"><path d="M767.808 785.728h17.856v-357.12h-17.856q-19.53 0 -37.665 -6.696t-34.875 -20.646 -27.9 -25.668 -27.342 -30.132q-1.116 -1.674 -1.953 -2.511t-2.232 -2.511 -2.511 -2.79q-40.176 -45.198 -62.496 -80.91 -7.812 -12.276 -21.204 -37.944 -.558 -1.674 -5.859 -12.555t-10.323 -20.088 -11.16 -19.809 -11.997 -17.019 -10.323 -6.417q-39.618 0 -64.449 17.019t-24.831 54.405q0 23.994 8.37 47.151t18.414 37.944 18.414 30.69 8.37 27.063h-321.408q-27.9 0 -49.662 21.483t-21.762 49.941q0 29.016 21.204 50.22t50.22 21.204h184.698q-8.37 9.486 -13.95 26.505t-5.58 30.969q0 38.502 29.574 66.402 -10.044 17.856 -10.044 38.502t9.765 41.013 26.505 29.295q-2.232 13.392 -2.232 31.248 0 47.43 27.063 70.308t75.609 22.878q46.872 0 102.114 -17.856t108.252 -35.712 93.186 -17.856zm160.704 -35.712q0 -14.508 -10.602 -25.11t-25.11 -10.602 -25.11 10.602 -10.602 25.11 10.602 25.11 25.11 10.602 25.11 -10.602 10.602 -25.11zm71.424 -321.408v357.12q0 29.574 -20.925 50.499t-50.499 20.925h-160.704q-32.922 0 -124.434 32.922 -106.02 38.502 -176.886 38.502 -79.236 0 -128.34 -43.245t-48.546 -121.365l.558 -2.79q-34.038 -42.408 -34.038 -99.324 0 -12.276 1.674 -23.994 -18.414 -31.806 -20.646 -66.402h-94.302q-58.59 0 -100.719 -42.408t-42.129 -100.998q0 -57.474 42.408 -99.882t100.44 -42.408h208.692q-12.276 -33.48 -12.276 -71.424 0 -68.076 45.477 -105.462t115.227 -37.386q21.204 0 38.781 9.765t30.69 27.621 22.599 35.154 20.646 40.176 18.414 34.596q19.53 30.69 55.8 71.982 1.116 1.674 7.812 9.486t10.602 11.997 11.439 11.997 13.392 12.555 12.555 10.044 13.113 7.812 11.997 2.511h160.704q29.574 0 50.499 20.925t20.925 50.499z"/></svg>