<svg height="1000px" width="857.1428571428571px" xmlns="http://www.w3.org/2000/svg">
  <g>
    <path d="M35.714285714285715 535.7142857142857c0 -19.345 6.882 -36.272 20.647 -50.781c0 0 363.282 -362.723 363.282 -362.723c14.136 -14.137 30.878 -21.206 50.223 -21.206c19.345 0 36.272 7.069 50.781 21.206c0 0 41.853 41.294 41.853 41.294c14.137 14.137 21.205 31.064 21.205 50.781c0 19.718 -7.068 36.645 -21.205 50.782c0 0 -163.505 163.504 -163.505 163.504c0 0 392.857 0 392.857 0c19.346 0 35.064 6.976 47.154 20.926c12.091 13.951 18.137 30.785 18.137 50.503c0 0 0 71.428 0 71.428c0 19.718 -6.046 36.552 -18.137 50.503c-12.09 13.95 -27.808 20.926 -47.154 20.926c0 0 -392.857 0 -392.857 0c0 0 163.505 164.062 163.505 164.062c14.137 13.393 21.205 30.134 21.205 50.224c0 20.089 -7.068 36.83 -21.205 50.223c0 0 -41.853 42.41 -41.853 42.41c-13.765 13.765 -30.32 20.648 -49.665 20.648c-19.345 0 -36.458 -6.883 -51.339 -20.648c0 0 -363.282 -363.839 -363.282 -363.839c-13.765 -14.137 -20.647 -30.878 -20.647 -50.223c0 0 0 0 0 0" />
  </g>
</svg>