<svg height="1000" width="857.143" xmlns="http://www.w3.org/2000/svg"><path d="M642.816 446.464v107.136q0 7.254 -5.301 12.555t-12.555 5.301h-196.416v107.136q0 7.812 -5.022 12.834t-12.834 5.022q-6.696 0 -13.392 -5.58l-178.002 -178.002q-5.022 -5.022 -5.022 -12.834t5.022 -12.834l178.56 -178.56q5.022 -5.022 12.834 -5.022 7.254 0 12.555 5.301t5.301 12.555v107.136h196.416q7.254 0 12.555 5.301t5.301 12.555zm89.28 53.568q0 -82.584 -40.734 -152.334t-110.484 -110.484 -152.334 -40.734 -152.334 40.734 -110.484 110.484 -40.734 152.334 40.734 152.334 110.484 110.484 152.334 40.734 152.334 -40.734 110.484 -110.484 40.734 -152.334zm124.992 0q0 116.622 -57.474 215.109t-155.961 155.961 -215.109 57.474 -215.109 -57.474 -155.961 -155.961 -57.474 -215.109 57.474 -215.109 155.961 -155.961 215.109 -57.474 215.109 57.474 155.961 155.961 57.474 215.109z"/></svg>