<svg height="1000px" width="935.546875px" xmlns="http://www.w3.org/2000/svg">
  <g>
    <path d="M0 474.12109375c0 -16.602 3.011 -31.901 9.033 -45.898c6.022 -13.998 14.16 -26.205 24.414 -36.622c10.254 -10.416 22.543 -18.473 36.865 -24.169c14.323 -5.697 29.623 -8.545 45.899 -8.545c0 0 183.594 -0.977 183.594 -0.977c0 0 65.429 0 65.429 0c-7.487 -15.299 -13.753 -31.25 -18.798 -47.851c-5.046 -16.602 -7.569 -33.692 -7.569 -51.27c0 -18.555 3.174 -36.865 9.522 -54.932c6.347 -18.066 15.218 -34.098 26.611 -48.095c11.393 -13.998 25.228 -25.147 41.504 -33.448c16.276 -8.3 34.505 -12.451 54.687 -12.451c25.391 0 43.213 5.534 53.467 16.602c10.254 11.067 17.334 24.739 21.24 41.015c3.907 16.276 6.755 33.61 8.545 52.002c1.791 18.392 6.592 34.587 14.405 48.584c7.487 13.347 18.066 25.472 31.738 36.377c13.672 10.905 26.204 22.054 37.598 33.448c5.208 5.859 10.66 11.881 16.357 18.066c5.697 6.185 11.149 12.532 16.357 19.043c5.86 7.487 11.312 13.835 16.358 19.043c5.045 5.208 11.963 10.254 20.752 15.137c0 0 169.922 0 169.922 0c15.95 0 29.622 5.615 41.015 16.845c11.394 11.231 17.09 24.821 17.09 40.772c0 0 0 313.965 0 313.965c0 15.95 -5.696 29.622 -17.09 41.015c-11.393 11.393 -25.065 17.09 -41.015 17.09c0 0 -183.106 0 -183.106 0c-19.857 0 -39.957 2.686 -60.303 8.057c-20.345 5.371 -41.178 11.23 -62.5 17.578c-21.321 6.348 -43.457 12.207 -66.406 17.578c-22.949 5.371 -47.119 8.057 -72.51 8.057c-22.786 0 -44.352 -2.849 -64.697 -8.545c-20.345 -5.697 -38.167 -14.242 -53.467 -25.635c-15.299 -11.393 -27.587 -26.042 -36.865 -43.945c-9.277 -17.904 -13.916 -39.226 -13.916 -63.965c-12.695 -14.649 -21.891 -31.494 -27.588 -50.537c-5.696 -19.043 -6.917 -38.168 -3.662 -57.373c-9.44 -15.3 -15.788 -32.715 -19.043 -52.246c0 0 -97.656 0 -97.656 0c-15.951 0 -31.169 -2.849 -45.654 -8.545c-14.486 -5.697 -26.856 -13.672 -37.11 -23.926c-10.254 -10.254 -18.392 -22.38 -24.414 -36.377c-6.022 -13.998 -9.033 -28.971 -9.033 -44.922c0 0 0 0 0 0m59.082 0c0 16.602 5.29 29.867 15.869 39.795c10.58 9.928 24.333 14.893 41.26 14.893c29.297 0 58.268 0.162 86.914 0.488c28.646 0.325 57.617 0.488 86.914 0.488c-4.557 4.557 -8.87 10.254 -12.939 17.09c-4.069 6.836 -6.104 13.835 -6.104 20.996c0 24.089 9.603 44.108 28.809 60.059c-6.511 9.44 -9.766 20.507 -9.766 33.203c0 12.044 3.011 24.007 9.033 35.888c6.022 11.882 14.73 20.59 26.123 26.123c-0.651 3.907 -1.139 7.894 -1.465 11.963c-0.325 4.069 -0.488 8.382 -0.488 12.94c0 15.95 3.093 29.297 9.278 40.039c6.184 10.742 14.322 19.287 24.414 25.635c10.091 6.347 21.809 10.823 35.156 13.427c13.346 2.605 27.018 3.907 41.015 3.907c22.787 0 45.166 -2.686 67.139 -8.057c21.973 -5.371 43.783 -11.068 65.43 -17.09c21.647 -6.022 43.294 -11.719 64.941 -17.09c21.647 -5.371 43.701 -8.056 66.162 -8.056c0 0 0 -313.965 0 -313.965c0 0 -1.953 0 -1.953 0c-13.346 -5.209 -24.17 -10.987 -32.47 -17.334c-8.301 -6.348 -15.951 -13.184 -22.95 -20.508c-6.998 -7.324 -13.834 -15.137 -20.508 -23.438c-6.673 -8.3 -14.567 -17.496 -23.681 -27.587c-13.347 -13.347 -27.181 -26.042 -41.504 -38.086c-14.323 -12.045 -26.204 -26.368 -35.645 -42.969c-9.44 -17.253 -15.787 -36.377 -19.043 -57.373c-3.255 -20.996 -6.998 -41.097 -11.23 -60.303c-0.651 -2.604 -1.139 -4.639 -1.465 -6.103c-0.325 -1.465 -1.79 -2.849 -4.394 -4.151c-1.302 -0.651 -3.093 -0.976 -5.371 -0.976c0 0 -5.372 0 -5.372 0c-12.044 0 -22.623 2.848 -31.738 8.545c-9.114 5.696 -16.601 12.858 -22.461 21.484c-5.859 8.626 -10.498 18.31 -13.916 29.053c-3.418 10.742 -5.127 21.321 -5.127 31.738c0 15.95 2.523 30.68 7.569 44.189c5.045 13.51 10.579 26.368 16.601 38.575c6.022 12.207 11.638 24.332 16.846 36.377c5.208 12.044 7.812 24.739 7.812 38.086c-55.338 0 -110.27 0.162 -164.795 0.488c-54.524 0.325 -109.781 0.488 -165.771 0.488c-16.602 0 -30.273 5.208 -41.016 15.625c-10.742 10.417 -16.113 24.251 -16.113 41.504c0 0 0 0 0 0m685.059 266.113c0 11.394 3.824 20.671 11.474 27.832c7.65 7.162 16.846 10.742 27.588 10.742c11.393 0 20.671 -3.662 27.832 -10.986c7.162 -7.324 10.742 -16.52 10.742 -27.588c0 -10.742 -3.662 -19.938 -10.986 -27.588c-7.324 -7.649 -16.52 -11.474 -27.588 -11.474c-10.742 0 -19.938 3.825 -27.588 11.474c-7.65 7.65 -11.474 16.846 -11.474 27.588c0 0 0 0 0 0" />
  </g>
</svg>