<svg height="1000px" width="1000px" xmlns="http://www.w3.org/2000/svg">
  <g>
    <path d="M0 428.01339285714283c0 -38.318 14.137 -71.615 42.411 -99.888c28.274 -28.274 61.756 -42.411 100.446 -42.411c0 0 208.706 0 208.706 0c-8.185 -22.322 -12.277 -46.131 -12.277 -71.429c0 -45.387 15.16 -80.543 45.48 -105.468c30.32 -24.926 68.731 -37.389 115.234 -37.389c14.137 0 27.065 3.255 38.783 9.766c11.719 6.51 21.95 15.718 30.692 27.623c8.743 11.904 16.276 23.623 22.601 35.156c6.324 11.533 13.207 24.925 20.647 40.178c7.441 15.253 13.579 26.786 18.415 34.599c13.021 20.461 31.622 44.456 55.804 71.986c0.744 1.116 3.348 4.278 7.812 9.487c4.465 5.208 7.999 9.207 10.603 11.998c2.604 2.79 6.418 6.789 11.44 11.997c5.022 5.209 9.486 9.394 13.393 12.556c3.906 3.162 8.091 6.511 12.556 10.045c4.464 3.534 8.835 6.138 13.113 7.812c4.279 1.674 8.278 2.511 11.998 2.511c0 0 160.714 0 160.714 0c19.718 0 36.552 6.976 50.503 20.927c13.951 13.951 20.926 30.785 20.926 50.502c0 0 0 357.143 0 357.143c0 19.717 -6.975 36.551 -20.926 50.502c-13.951 13.951 -30.785 20.926 -50.503 20.926c0 0 -160.714 0 -160.714 0c-21.949 0 -63.43 10.975 -124.442 32.925c-70.684 25.669 -129.65 38.504 -176.897 38.504c-52.828 0 -95.61 -14.416 -128.348 -43.248c-32.738 -28.832 -48.921 -69.289 -48.549 -121.373c0 0 0.558 -2.79 0.558 -2.79c-22.694 -28.273 -34.041 -61.384 -34.041 -99.33c0 -8.185 0.558 -16.183 1.674 -23.996c-12.276 -21.205 -19.159 -43.34 -20.647 -66.406c0 0 -94.308 0 -94.308 0c-39.062 0 -72.638 -14.137 -100.725 -42.411c-28.088 -28.273 -42.132 -61.941 -42.132 -101.004c0 0 0 0 0 0m71.429 0.558c0 19.345 7.068 36.086 21.205 50.223c14.137 14.137 30.878 21.206 50.223 21.206c0 0 184.71 0 184.71 0c-5.58 6.324 -10.231 15.16 -13.951 26.506c-3.72 11.347 -5.58 21.671 -5.58 30.971c0 25.67 9.858 47.805 29.576 66.407c-6.697 11.904 -10.045 24.739 -10.045 38.504c0 13.765 3.255 27.437 9.766 41.016c6.51 13.578 15.346 23.344 26.506 29.296c-1.488 8.929 -2.232 19.346 -2.232 31.25c0 31.623 9.022 55.06 27.065 70.313c18.043 15.253 43.248 22.879 75.614 22.879c31.25 0 65.29 -5.952 102.12 -17.857c36.831 -11.904 72.917 -23.809 108.259 -35.714c35.342 -11.905 66.406 -17.857 93.192 -17.857c0 0 17.857 0 17.857 0c0 0 0 -357.143 0 -357.143c0 0 -17.857 0 -17.857 0c-13.021 0 -25.483 -2.139 -37.388 -6.417c-11.905 -4.279 -23.81 -11.44 -35.715 -21.485c-11.904 -10.044 -20.833 -18.229 -26.785 -24.553c-5.953 -6.325 -15.253 -16.555 -27.902 -30.692c-0.744 -1.116 -1.395 -1.953 -1.953 -2.511c-0.558 -0.558 -1.302 -1.396 -2.232 -2.512c-0.93 -1.116 -1.767 -2.046 -2.511 -2.79c-26.786 -30.134 -47.62 -57.105 -62.5 -80.915c-5.209 -8.184 -12.277 -20.833 -21.206 -37.946c-0.372 -1.116 -2.325 -5.302 -5.859 -12.556c-3.534 -7.255 -6.976 -13.951 -10.324 -20.089c-3.348 -6.139 -7.068 -12.742 -11.161 -19.811c-4.092 -7.068 -8.091 -12.742 -11.997 -17.02c-3.907 -4.278 -7.348 -6.417 -10.324 -6.417c-26.414 0 -47.898 5.673 -64.453 17.02c-16.555 11.347 -24.833 29.483 -24.833 54.408c0 15.997 2.79 31.715 8.371 47.154c5.58 15.439 11.719 28.088 18.415 37.947c6.696 9.858 12.835 20.089 18.415 30.692c5.581 10.602 8.371 19.624 8.371 27.064c0 0 -321.429 0 -321.429 0c-18.601 0 -35.156 7.162 -49.665 21.485c-14.509 14.323 -21.763 30.971 -21.763 49.944c0 0 0 0 0 0m785.714 321.429c0 9.672 3.534 18.043 10.603 25.111c7.068 7.069 15.439 10.603 25.111 10.603c9.673 0 18.043 -3.534 25.112 -10.603c7.068 -7.068 10.602 -15.439 10.602 -25.111c0 -9.673 -3.534 -18.044 -10.602 -25.112c-7.069 -7.068 -15.439 -10.603 -25.112 -10.603c-9.672 0 -18.043 3.535 -25.111 10.603c-7.069 7.068 -10.603 15.439 -10.603 25.112c0 0 0 0 0 0" />
  </g>
</svg>