<svg height="1000px" width="642.8571428571429px" xmlns="http://www.w3.org/2000/svg">
  <g>
    <path d="M29.575892857142858 464.0066964285714c0 -19.903 6.882 -36.737 20.647 -50.502c0 0 363.84 -363.281 363.84 -363.281c13.764 -13.765 30.599 -20.648 50.502 -20.648c19.903 0 36.737 6.883 50.502 20.648c0 0 41.853 41.852 41.853 41.852c13.765 13.765 20.647 30.599 20.647 50.502c0 19.904 -6.882 36.738 -20.647 50.503c0 0 -271.206 271.205 -271.206 271.205c0 0 271.206 270.647 271.206 270.647c13.765 14.137 20.647 31.064 20.647 50.782c0 19.717 -6.882 36.458 -20.647 50.223c0 0 -41.853 41.852 -41.853 41.852c-13.765 13.765 -30.599 20.648 -50.502 20.648c-19.903 0 -36.738 -6.883 -50.502 -20.648c0 0 -363.84 -363.281 -363.84 -363.281c-13.765 -13.765 -20.647 -30.599 -20.647 -50.502c0 0 0 0 0 0" />
  </g>
</svg>