<svg height="1000px" width="1000px" xmlns="http://www.w3.org/2000/svg">
  <g>
    <path d="M1000 428.57142857142856c0 0 0 357.143 0 357.143c0 19.717 -6.975 36.551 -20.926 50.502c-13.951 13.951 -30.785 20.926 -50.503 20.926c0 0 -160.714 0 -160.714 0c-21.949 0 -65.848 11.905 -131.696 35.715c-65.848 23.809 -123.791 35.714 -173.828 35.714c-50.038 0 -91.425 -14.416 -124.163 -43.248c-32.738 -28.832 -48.921 -69.289 -48.549 -121.373c0 0 0.558 -2.79 0.558 -2.79c-22.694 -28.274 -34.041 -61.384 -34.041 -99.33c0 -8.185 0.558 -16.183 1.675 -23.996c-12.277 -21.205 -19.16 -43.34 -20.648 -66.406c0 0 -94.308 0 -94.308 0c-39.062 0 -72.638 -14.137 -100.725 -42.411c-28.088 -28.273 -42.132 -61.756 -42.132 -100.446c0 -38.69 14.137 -72.173 42.411 -100.446c28.274 -28.274 61.756 -42.411 100.446 -42.411c0 0 208.706 0 208.706 0c-8.185 -22.322 -12.277 -46.131 -12.277 -71.429c0 -45.387 15.16 -80.543 45.48 -105.468c30.32 -24.926 68.731 -37.389 115.234 -37.389c27.53 0 50.595 12.463 69.196 37.389c13.021 17.485 25.391 38.225 37.11 62.221c11.719 23.995 22.042 43.061 30.971 57.198c8.928 14.137 19.624 28.367 32.087 42.69c12.463 14.323 20.926 24.088 25.39 29.297c4.465 5.208 7.999 9.207 10.603 11.998c2.604 2.79 6.418 6.789 11.44 11.997c5.022 5.209 9.486 9.394 13.393 12.556c3.906 3.162 8.091 6.604 12.556 10.324c8.556 6.696 16.927 10.044 25.111 10.044c0 0 160.714 0 160.714 0c19.718 0 36.552 6.976 50.503 20.927c13.951 13.951 20.926 30.785 20.926 50.502c0 0 0 0 0 0m-71.429 321.429c0 -9.673 -3.534 -18.044 -10.602 -25.112c-7.069 -7.068 -15.439 -10.603 -25.112 -10.603c-9.672 0 -18.043 3.535 -25.111 10.603c-7.069 7.068 -10.603 15.439 -10.603 25.112c0 9.672 3.534 18.043 10.603 25.111c7.068 7.069 15.439 10.603 25.111 10.603c9.673 0 18.043 -3.534 25.112 -10.603c7.068 -7.068 10.602 -15.439 10.602 -25.111c0 0 0 0 0 0m-566.964 13.95c0 62.128 34.226 93.192 102.679 93.192c31.25 0 65.29 -5.952 102.12 -17.857c36.831 -11.904 72.917 -23.809 108.259 -35.714c35.342 -11.905 66.406 -17.857 93.192 -17.857c0 0 17.857 0 17.857 0c0 0 0 -357.143 0 -357.143c0 0 -17.857 0 -17.857 0c-33.854 0 -67.15 -17.485 -99.888 -52.455c-5.953 -6.325 -12.277 -13.3 -18.973 -20.927c-6.697 -7.626 -10.324 -11.718 -10.882 -12.276c-0.558 -0.559 -1.302 -1.396 -2.232 -2.512c-0.93 -0.744 -8.278 -8.928 -22.043 -24.553c-21.949 -24.554 -43.34 -56.92 -64.174 -97.098c-2.604 -8.185 -8.928 -20.834 -18.973 -37.947c-14.881 -25.297 -25.112 -37.946 -30.692 -37.946c-26.414 0 -47.898 5.673 -64.453 17.02c-16.555 11.347 -24.833 27.251 -24.833 47.712c0 20.461 2.79 38.411 8.371 53.85c5.58 15.439 11.719 27.995 18.415 37.668c17.857 26.413 26.786 45.759 26.786 58.035c0 0 -321.429 0 -321.429 0c-18.601 0 -35.156 7.162 -49.665 21.485c-14.509 14.323 -21.763 31.064 -21.763 50.223c0 19.159 7.068 35.807 21.205 49.944c14.137 14.137 30.878 21.206 50.223 21.206c0 0 184.71 0 184.71 0c-5.58 6.324 -10.231 15.16 -13.951 26.506c-3.72 11.347 -5.58 21.671 -5.58 30.971c0 25.67 9.858 47.805 29.576 66.407c-6.697 11.904 -10.045 24.739 -10.045 38.504c0 13.765 3.255 27.437 9.766 41.016c6.51 13.578 15.346 23.344 26.506 29.296c-1.488 8.929 -2.232 19.346 -2.232 31.25c0 0 0 0 0 0" />
  </g>
</svg>