<svg height="1000" width="857.1" xmlns="http://www.w3.org/2000/svg"><path d="M714.3 535.7v-71.4q0 -14.5 -10.6 -25.1t-25.1 -10.6H398.4L503.9 323.1q10.6 -10.6 10.6 -25.1t-10.6 -25.1l-50.8 -50.8q-10 -10 -25.1 -10t-25.1 10l-202 202 -50.8 50.8q-10 10 -10 25.1t10 25.1l50.8 50.8 202 202q10 10 25.1 10t25.1 -10l50.8 -50.8Q514 717.1 514 702t-10.1 -25.1L398.4 571.4h280.2q14.5 0 25.1 -10.6t10.6 -25.1zM857.1 500q0 116.6 -57.4 215.1t-156 156 -215.1 57.5T213.4 871.1 57.5 715.1 0 500 57.5 284.9t155.9 -156T428.6 71.4t215.1 57.5 156 156T857.1 500z"/></svg>