<svg height="1000" width="857.143" xmlns="http://www.w3.org/2000/svg"><path d="M714.24 535.744v-71.424q0 -14.508 -10.602 -25.11t-25.11 -10.602h-280.116l105.462 -105.462q10.602 -10.602 10.602 -25.11t-10.602 -25.11l-50.778 -50.778q-10.044 -10.044 -25.11 -10.044t-25.11 10.044l-201.996 201.996 -50.778 50.778q-10.044 10.044 -10.044 25.11t10.044 25.11l50.778 50.778 201.996 201.996q10.044 10.044 25.11 10.044t25.11 -10.044l50.778 -50.778q10.044 -10.044 10.044 -25.11t-10.044 -25.11l-105.462 -105.462h280.116q14.508 0 25.11 -10.602t10.602 -25.11zm142.848 -35.712q0 116.622 -57.474 215.109t-155.961 155.961 -215.109 57.474 -215.109 -57.474 -155.961 -155.961 -57.474 -215.109 57.474 -215.109 155.961 -155.961 215.109 -57.474 215.109 57.474 155.961 155.961 57.474 215.109z"/></svg>