<svg height="1000px" width="857.1428571428571px" xmlns="http://www.w3.org/2000/svg">
  <g>
    <path d="M857.1428571428571 499.99999999999994c0 0 0 71.429 0 71.429c0 19.717 -6.045 36.551 -18.136 50.502c-12.091 13.951 -27.809 20.926 -47.154 20.926c0 0 -392.857 0 -392.857 0c0 0 163.504 164.063 163.504 164.063c14.137 13.393 21.206 30.134 21.206 50.223c0 20.089 -7.069 36.83 -21.206 50.223c0 0 -41.853 42.411 -41.853 42.411c-13.764 13.765 -30.319 20.647 -49.665 20.647c-19.345 0 -36.458 -6.882 -51.339 -20.647c0 0 -363.281 -363.839 -363.281 -363.839c-13.765 -14.137 -20.648 -30.878 -20.648 -50.224c0 -19.345 6.883 -36.272 20.648 -50.781c0 0 363.281 -362.723 363.281 -362.723c14.137 -14.137 30.878 -21.206 50.223 -21.206c19.345 0 36.273 7.069 50.781 21.206c0 0 41.853 41.294 41.853 41.294c14.137 14.137 21.206 31.064 21.206 50.782c0 19.717 -7.069 36.644 -21.206 50.781c0 0 -163.504 163.504 -163.504 163.504c0 0 392.857 0 392.857 0c19.345 0 35.063 6.976 47.154 20.927c12.091 13.951 18.136 30.785 18.136 50.502c0 0 0 0 0 0" />
  </g>
</svg>