<svg height="1000" width="1000" xmlns="http://www.w3.org/2000/svg"><path d="M0 428.1q0-57.5 42.4-99.9t100.4-42.4h208.7q-12.3-33.5-12.3-71.4 0-68.1 45.5-105.5t115.2-37.4q21.2 0 38.8 9.8t30.7 27.6 22.6 35.2 20.6 40.2 18.4 34.6q19.5 30.7 55.8 72 1.1 1.7 7.8 9.5t10.6 12 11.4 12 13.4 12.6 12.6 10 13.1 7.8 12 2.5h160.7q29.6 0 50.5 20.9t20.9 50.5v357.1q0 29.6-20.9 50.5t-50.5 20.9h-160.7q-32.9 0-124.4 32.9-106 38.5-176.9 38.5-79.2 0-128.3-43.2t-48.5-121.4l.6-2.8q-34-42.4-34-99.3 0-12.3 1.7-24-18.4-31.8-20.6-66.4h-94.3q-58.6 0-100.7-42.4t-42.1-101zm71.4.6q0 29 21.2 50.2t50.2 21.2h184.7q-8.4 9.5-14 26.5t-5.6 31q0 38.5 29.6 66.4-10 17.9-10 38.5t9.8 41 26.5 29.3q-2.2 13.4-2.2 31.2 0 47.4 27.1 70.3t75.6 22.9q46.9 0 102.1-17.9t108.3-35.7 93.2-17.9h17.9v-357.1h-17.9q-19.5 0-37.4-6.4t-35.7-21.5-26.8-24.6-27.9-30.7q-1.1-1.7-2-2.5t-2.2-2.5-2.5-2.8q-40.2-45.2-62.5-80.9-7.8-12.3-21.2-37.9-.6-1.7-5.9-12.6t-10.3-20.1-11.2-19.8-12-17-10.3-6.4q-39.6 0-64.4 17t-24.8 54.4q0 24 8.4 47.2t18.4 37.9 18.4 30.7 8.4 27.1h-321.4q-27.9 0-49.7 21.5t-21.8 49.9zm785.7 321.4q0 14.5 10.6 25.1t25.1 10.6 25.1-10.6 10.6-25.1-10.6-25.1-25.1-10.6-25.1 10.6-10.6 25.1z"/></svg>