<svg height="1000px" width="470.703125px" xmlns="http://www.w3.org/2000/svg">
  <g>
    <path d="M0 500c0 -12.37 4.72 -23.112 14.16 -32.227c0 0 327.637 -329.101 327.637 -329.101c9.44 -9.44 20.508 -14.16 33.203 -14.16c12.695 0 23.763 4.72 33.203 14.16c0 0 48.828 48.828 48.828 48.828c9.44 9.44 14.16 20.508 14.16 33.203c0 12.695 -4.72 23.6 -14.16 32.715c0 0 -248.047 249.023 -248.047 249.023c0 0 248.047 244.141 248.047 244.141c9.44 9.44 14.16 20.264 14.16 32.471c0 12.207 -4.72 23.03 -14.16 32.47c0 0 -48.828 49.805 -48.828 49.805c-9.44 9.44 -20.508 14.16 -33.203 14.16c-12.695 0 -23.763 -4.72 -33.203 -14.16c0 0 -327.637 -328.613 -327.637 -328.613c-9.44 -9.44 -14.16 -20.345 -14.16 -32.715c0 0 0 0 0 0" />
  </g>
</svg>