<svg height="1000" width="1000" xmlns="http://www.w3.org/2000/svg"><path d="M767.9 785.7h17.8V428.6h-17.8q-19.6 0 -37.7 -6.7t-34.9 -20.7 -27.9 -25.6 -27.3 -30.2q-1.1 -1.6 -2 -2.5t-2.2 -2.5 -2.5 -2.8q-40.2 -45.2 -62.5 -80.9 -7.8 -12.3 -21.2 -37.9 -.6 -1.7 -5.9 -12.6t-10.3 -20.1 -11.2 -19.8 -12 -17T500 142.9q-39.6 0 -64.5 17t-24.8 54.4q0 24 8.4 47.1t18.4 38 18.4 30.7 8.4 27H142.9q-27.9 0 -49.7 21.5t-21.8 50q0 29 21.2 50.2t50.3 21.2h184.7q-8.4 9.5 -14 26.5t-5.6 31q0 38.5 29.6 66.4 -10 17.8 -10 38.5t9.7 41 26.5 29.3q-2.2 13.4 -2.2 31.3 0 47.4 27.1 70.3t75.6 22.8q46.9 0 102.1 -17.8t108.3 -35.7 93.2 -17.9zM928.6 750q0 -14.5 -10.6 -25.1t-25.1 -10.6 -25.2 10.6T857.1 750t10.6 25.1 25.2 10.6T918 775.1 928.6 750zM1000 428.6v357.1q0 29.6 -20.9 50.5t-50.5 20.9H767.9q-33 0 -124.5 33 -106 38.5 -176.9 38.5 -79.2 0 -128.3 -43.3T289.6 764l.6 -2.8q-34.1 -42.4 -34.1 -99.4 0 -12.2 1.7 -24Q239.4 606 237.2 571.4h-94.3Q84.3 571.4 42.1 529T0 428q0 -57.5 42.4 -99.9t100.5 -42.4h208.7q-12.3 -33.5 -12.3 -71.4 0 -68.1 45.5 -105.5T500 71.4q21.2 0 38.8 9.8t30.7 27.6 22.6 35.2 20.6 40.2 18.4 34.6q19.6 30.6 55.8 71.9 1.2 1.7 7.9 9.5t10.6 12 11.4 12 13.4 12.6 12.5 10 13.2 7.8 12 2.5h160.7q29.5 0 50.5 21t20.9 50.5z"/></svg>