<svg height="1000" width="857.143" xmlns="http://www.w3.org/2000/svg"><path d="M857.088 500.032v71.424q0 29.574 -18.135 50.499t-47.151 20.925h-392.832l163.494 164.052q21.204 20.088 21.204 50.22t-21.204 50.22l-41.85 42.408q-20.646 20.646 -50.22 20.646 -29.016 0 -50.778 -20.646l-363.258 -363.816q-20.646 -20.646 -20.646 -50.22 0 -29.016 20.646 -50.778l363.258 -362.7q21.204 -21.204 50.778 -21.204 29.016 0 50.22 21.204l41.85 41.292q21.204 21.204 21.204 50.778t-21.204 50.778l-163.494 163.494h392.832q29.016 0 47.151 20.925t18.135 50.499z"/></svg>