<svg height="1000px" width="779.78515625px" xmlns="http://www.w3.org/2000/svg">
  <g>
    <path d="M0 500c0 -54.036 10.173 -104.736 30.518 -152.1c20.345 -47.363 48.177 -88.704 83.496 -124.023c35.319 -35.319 76.66 -63.151 124.023 -83.496c47.363 -20.345 98.063 -30.518 152.1 -30.518c54.036 0 104.655 10.173 151.855 30.518c47.201 20.345 88.542 48.177 124.024 83.496c35.481 35.319 63.313 76.66 83.496 124.023c20.182 47.364 30.273 98.064 30.273 152.1c0 54.036 -10.091 104.736 -30.273 152.1c-20.183 47.363 -48.015 88.704 -83.496 124.023c-35.482 35.319 -76.823 63.151 -124.024 83.496c-47.2 20.345 -97.819 30.518 -151.855 30.518c-54.037 0 -104.737 -10.173 -152.1 -30.518c-47.363 -20.345 -88.704 -48.177 -124.023 -83.496c-35.319 -35.319 -63.151 -76.66 -83.496 -124.023c-20.345 -47.364 -30.518 -98.064 -30.518 -152.1c0 0 0 0 0 0m117.188 0c0 9.44 3.255 17.415 9.765 23.926c0 0 239.258 239.258 239.258 239.258c6.51 6.51 14.404 9.765 23.682 9.765c9.277 0 17.334 -3.255 24.17 -9.765c0 0 36.132 -36.133 36.132 -36.133c6.511 -6.511 9.766 -14.323 9.766 -23.438c0 -9.114 -3.255 -17.252 -9.766 -24.414c0 0 -120.117 -120.117 -120.117 -120.117c0 0 298.828 0 298.828 0c9.44 0 17.497 -3.174 24.17 -9.521c6.673 -6.348 10.01 -14.242 10.01 -23.682c0 0 0 -50.781 0 -50.781c0 -9.44 -3.337 -17.497 -10.01 -24.17c-6.673 -6.673 -14.73 -10.01 -24.17 -10.01c0 0 -298.828 0 -298.828 0c0 0 120.117 -120.117 120.117 -120.117c6.511 -6.511 9.766 -14.405 9.766 -23.682c0 -9.277 -3.255 -17.334 -9.766 -24.17c0 0 -36.132 -36.133 -36.132 -36.133c-6.511 -6.51 -14.323 -9.765 -23.438 -9.765c-9.115 0 -17.253 3.255 -24.414 9.765c0 0 -239.258 239.258 -239.258 239.258c-6.51 6.511 -9.766 14.486 -9.766 23.926c0.001 0 0.001 0 0.001 0" />
  </g>
</svg>