<svg height="1000px" width="750px" xmlns="http://www.w3.org/2000/svg">
  <g>
    <path d="M0 500.48828125c0 -12.695 4.72 -23.763 14.16 -33.203c0 0 327.637 -328.613 327.637 -328.613c9.44 -9.441 20.508 -14.161 33.203 -14.161c12.695 0 23.763 4.72 33.203 14.161c0 0 48.828 48.828 48.828 48.828c9.44 9.44 14.16 20.426 14.16 32.959c0 12.532 -4.72 23.519 -14.16 32.959c0 0 -165.039 165.039 -165.039 165.039c0 0 411.133 0 411.133 0c13.346 0 24.495 4.476 33.447 13.427c8.952 8.952 13.428 20.101 13.428 33.448c0 0 0 70.312 0 70.312c0 12.696 -4.476 23.519 -13.428 32.471c-8.952 8.952 -19.775 13.428 -32.47 13.428c0 0 -412.11 0 -412.11 0c0 0 165.039 165.039 165.039 165.039c9.44 9.44 14.16 20.426 14.16 32.959c0 12.532 -4.72 23.519 -14.16 32.959c0 0 -48.828 48.828 -48.828 48.828c-9.44 9.44 -20.508 14.16 -33.203 14.16c-12.695 0 -23.763 -4.72 -33.203 -14.16c0 0 -327.637 -327.637 -327.637 -327.637c-9.44 -9.44 -14.16 -20.508 -14.16 -33.203c0 0 0 0 0 0" />
  </g>
</svg>