<svg height="1000" width="857.1" xmlns="http://www.w3.org/2000/svg"><path d="M642.9 446.4v107.2q0 7.2 -5.3 12.5t-12.6 5.3H428.6v107.2q0 7.8 -5.1 12.8t-12.8 5q-6.7 0 -13.4 -5.6l-178 -178q-5 -5 -5 -12.8t5 -12.8L397.9 308.6q5 -5 12.8 -5 7.3 0 12.6 5.3t5.3 12.5v107.2H625q7.3 0 12.6 5.3t5.3 12.5zm89.2 53.6q0 -82.6 -40.7 -152.3T580.9 237.2 428.6 196.4t-152.4 40.8T165.7 347.7 125 500t40.7 152.3 110.5 110.5 152.4 40.8 152.3 -40.8T691.4 652.3 732.1 500zm125 0q0 116.6 -57.4 215.1t-156 156 -215.1 57.5T213.4 871.1 57.5 715.1 0 500 57.5 284.9t155.9 -156T428.6 71.4t215.1 57.5 156 156T857.1 500z"/></svg>