<svg height="1000px" width="857.1428571428571px" xmlns="http://www.w3.org/2000/svg">
  <g>
    <path d="M831.4732142857143 195.87053571428567c0 0 -5.58 75.893 -5.58 75.893c0 11.161 1.767 21.019 5.301 29.576c3.534 8.556 6.975 17.113 10.324 25.669c3.348 8.557 6.696 27.437 10.044 56.641c3.349 29.204 5.023 54.595 5.023 76.172c0 61.384 -13.021 122.303 -39.063 182.757c-26.042 60.453 -62.5 114.025 -109.375 160.714c-46.875 46.689 -96.261 79.241 -148.158 97.656c-51.898 18.415 -115.421 27.623 -190.57 27.623c-21.205 0 -52.827 -2.697 -94.866 -8.092c-42.038 -5.394 -70.498 -8.091 -85.379 -8.091c-14.881 0 -31.343 2.697 -49.386 8.091c-18.043 5.395 -31.715 8.092 -41.016 8.092c-27.158 0 -50.13 -10.324 -68.917 -30.971c-18.788 -20.647 -28.181 -44.55 -28.181 -71.708c0 -8.928 2.046 -21.577 6.138 -37.946c4.093 -16.369 6.139 -30.413 6.139 -42.132c0 -11.719 -2.325 -32.552 -6.976 -62.5c-4.65 -29.948 -6.975 -59.059 -6.975 -87.332c0 -28.274 3.348 -62.221 10.044 -101.842c6.697 -39.62 16.741 -78.59 30.134 -116.908c29.018 -81.474 75.707 -146.578 140.067 -195.313c29.018 -21.949 75.893 -45.852 140.625 -71.707c64.732 -25.856 119.792 -38.784 165.179 -38.784c22.321 0 54.966 4.464 97.935 13.393c42.969 8.928 75.242 13.393 96.819 13.393c0 0 64.174 -5.581 64.174 -5.581c30.134 0 52.084 9.394 65.849 28.181c13.765 18.787 20.647 43.806 20.647 75.056c0 0 0 0 0 0m-84.263 -31.25c0 0 -65.291 5.022 -65.291 5.022c-22.321 0 -55.059 -4.464 -98.214 -13.393c-43.155 -8.928 -74.219 -13.392 -93.192 -13.392c-18.973 0 -38.132 2.232 -57.478 6.696c-24.181 5.58 -59.151 17.299 -104.91 35.156c-45.759 17.857 -83.613 38.133 -113.56 60.826c-29.948 23.066 -56.827 56.176 -80.637 99.331c-41.666 76.636 -62.5 166.666 -62.5 270.089c0 14.881 2.326 37.202 6.976 66.964c4.65 29.762 6.975 50.595 6.975 62.5c0 11.905 -2.046 25.949 -6.138 42.132c-4.092 16.183 -6.139 28.367 -6.139 36.551c0 8.185 2.233 14.974 6.697 20.368c4.464 5.395 10.975 8.092 19.531 8.092c8.557 0 21.857 -2.046 39.9 -6.138c18.043 -4.093 34.691 -6.139 49.944 -6.139c15.253 0 43.806 2.883 85.658 8.65c41.853 5.766 73.382 8.649 94.587 8.649c67.337 0 122.582 -7.533 165.737 -22.6c43.155 -15.067 84.542 -42.597 124.163 -82.589c39.621 -39.993 70.498 -85.659 92.634 -136.998c22.135 -51.339 33.203 -102.493 33.203 -153.46c0 -16.369 -1.302 -37.481 -3.906 -63.337c-2.604 -25.856 -6.046 -44.085 -10.324 -54.688c-4.278 -10.602 -7.347 -18.508 -9.207 -23.716c-4.837 -13.393 -7.255 -29.204 -7.255 -47.433c0 0 5.58 -75.893 5.58 -75.893c0 -13.765 -1.86 -23.996 -5.58 -30.692c-1.488 -0.372 -3.906 -0.558 -7.254 -0.558c0 0 0 0 0 0" />
  </g>
</svg>