<svg height="1000" width="857.143" xmlns="http://www.w3.org/2000/svg"><path d="M785.106 460.972q0 -24.552 -3.906 -63.333t-10.044 -53.847q-6.696 -16.74 -9.486 -24.552t-5.022 -20.367 -2.232 -27.063q0 -12.834 2.79 -38.223t2.79 -37.665q0 -20.646 -5.58 -30.69 -2.232 -.558 -7.254 -.558 -10.602 0 -32.364 2.511t-32.922 2.511q-33.48 0 -98.208 -13.392t-97.65 -13.392q-23.994 0 -52.731 6.417t-47.43 13.113 -49.941 18.972q-76.446 30.132 -112.716 57.474 -53.568 40.734 -89.001 105.741t-49.104 131.688 -13.671 138.663q0 22.32 6.975 66.96t6.975 67.518q0 12.834 -6.138 37.107t-6.138 36.549 6.696 20.367 18.972 8.091q13.392 0 40.455 -6.138t41.013 -6.138q31.806 0 94.581 8.649t94.581 8.649q100.998 0 158.472 -20.088 71.982 -25.11 131.409 -85.095t92.628 -136.989 33.201 -153.45zm71.424 -1.116q0 92.07 -39.06 182.745t-109.368 160.704 -156.798 100.719q-69.192 24.552 -181.908 24.552 -31.806 0 -94.86 -8.091t-94.302 -8.091q-13.392 0 -40.455 8.091t-41.013 8.091q-40.734 0 -68.913 -30.969t-28.179 -71.703q0 -13.392 6.138 -37.944t6.138 -37.386q0 -22.32 -6.975 -67.239t-6.975 -67.797q0 -61.938 10.044 -121.365t30.411 -116.901 56.079 -108.252 83.7 -87.048q43.524 -32.922 129.456 -66.96 108.252 -43.524 176.328 -43.524 33.48 0 97.929 13.392t96.813 13.392q10.602 0 31.806 -2.79t32.364 -2.79q45.198 0 65.844 28.179t20.646 75.051q0 12.834 -2.79 37.944t-2.79 37.944q0 5.58 .558 10.323t1.674 9.486 2.232 7.533 3.627 8.928 3.627 9.486q8.928 22.32 13.95 66.123t5.022 76.167z"/></svg>