<svg height="1000px" width="857.1428571428571px" xmlns="http://www.w3.org/2000/svg">
  <g>
    <path d="M0 595.9821428571429c0 -28.274 3.348 -62.221 10.045 -101.842c6.696 -39.62 16.741 -78.59 30.134 -116.908c29.017 -81.473 75.706 -146.577 140.067 -195.313c29.017 -21.949 75.892 -45.851 140.625 -71.707c64.732 -25.856 119.791 -38.784 165.178 -38.784c22.322 0 54.967 4.465 97.935 13.393c42.969 8.929 75.242 13.393 96.82 13.393c0 0 64.174 -5.58 64.174 -5.58c30.134 0 52.083 9.393 65.848 28.181c13.765 18.787 20.647 43.805 20.647 75.055c0 0 -5.58 75.893 -5.58 75.893c0 11.161 1.767 21.02 5.301 29.576c3.534 8.557 6.976 17.113 10.324 25.67c3.348 8.556 6.696 27.437 10.045 56.64c3.348 29.204 5.022 54.595 5.022 76.172c0 61.384 -13.021 122.303 -39.063 182.757c-26.041 60.454 -62.5 114.025 -109.375 160.714c-46.875 46.689 -96.261 79.241 -148.158 97.657c-51.897 18.415 -115.421 27.622 -190.569 27.622c-21.206 0 -52.828 -2.697 -94.866 -8.091c-42.039 -5.395 -70.499 -8.092 -85.38 -8.092c-14.881 0 -31.343 2.697 -49.386 8.092c-18.043 5.394 -31.715 8.091 -41.016 8.091c-27.157 0 -50.13 -10.323 -68.917 -30.971c-18.787 -20.647 -28.181 -44.55 -28.181 -71.707c0 -8.929 2.046 -21.578 6.139 -37.947c4.092 -16.369 6.138 -30.413 6.138 -42.131c0 -11.719 -2.325 -32.552 -6.976 -62.5c-4.65 -29.948 -6.975 -59.059 -6.975 -87.333c0 0 0 0 0 0m71.429 18.973c0 14.881 2.325 37.203 6.975 66.965c4.65 29.761 6.975 50.595 6.975 62.499c0 11.905 -2.046 25.949 -6.138 42.132c-4.092 16.183 -6.138 28.367 -6.138 36.552c0 8.184 2.232 14.973 6.696 20.368c4.464 5.394 10.975 8.091 19.531 8.091c8.557 0 21.857 -2.046 39.9 -6.138c18.043 -4.092 34.691 -6.138 49.944 -6.138c15.253 0 43.806 2.883 85.659 8.649c41.852 5.766 73.381 8.65 94.587 8.65c67.336 0 122.581 -7.534 165.736 -22.601c43.155 -15.067 84.543 -42.596 124.163 -82.589c39.621 -39.993 70.499 -85.659 92.634 -136.998c22.136 -51.339 33.203 -102.492 33.203 -153.46c0 -16.369 -1.302 -37.481 -3.906 -63.337c-2.604 -25.855 -6.045 -44.085 -10.324 -54.687c-4.278 -10.603 -7.347 -18.508 -9.207 -23.717c-4.837 -13.393 -7.255 -29.204 -7.255 -47.433c0 0 5.581 -75.893 5.581 -75.893c0 -13.764 -1.86 -23.995 -5.581 -30.692c-1.488 -0.372 -3.906 -0.558 -7.254 -0.558c0 0 -65.29 5.023 -65.29 5.023c-22.322 0 -55.06 -4.465 -98.215 -13.393c-43.154 -8.929 -74.218 -13.393 -93.192 -13.393c-18.973 0 -38.132 2.232 -57.477 6.696c-24.182 5.581 -59.152 17.3 -104.911 35.157c-45.759 17.857 -83.612 38.132 -113.56 60.826c-29.948 23.065 -56.827 56.175 -80.636 99.33c-41.667 76.637 -62.5 166.667 -62.5 270.089c0 0 0 0 0 0" />
  </g>
</svg>