<svg height="1000px" width="857.1428571428571px" xmlns="http://www.w3.org/2000/svg">
  <g>
    <path d="M0 615.5133928571428c0 -41.295 3.348 -81.752 10.045 -121.373c6.696 -39.62 16.834 -78.59 30.413 -116.908c13.578 -38.319 32.273 -74.405 56.082 -108.259c23.81 -33.854 51.711 -62.872 83.706 -87.054c29.017 -21.949 72.172 -44.271 129.464 -66.964c72.172 -29.018 130.952 -43.527 176.339 -43.527c22.322 0 54.967 4.464 97.935 13.393c42.969 8.929 75.242 13.393 96.82 13.393c7.068 0 17.671 -0.93 31.808 -2.79c14.137 -1.86 24.925 -2.79 32.366 -2.79c30.134 0 52.083 9.393 65.848 28.18c13.765 18.788 20.647 43.806 20.647 75.056c0 8.557 -0.93 21.206 -2.79 37.947c-1.86 16.741 -2.79 29.389 -2.79 37.946c0 3.72 0.186 7.161 0.558 10.324c0.372 3.162 0.93 6.324 1.674 9.486c0.744 3.162 1.488 5.674 2.232 7.534c0.744 1.86 1.953 4.836 3.627 8.928c1.674 4.093 2.884 7.255 3.628 9.487c5.952 14.881 10.602 36.923 13.951 66.127c3.348 29.204 5.022 54.595 5.022 76.172c0 61.384 -13.021 122.303 -39.063 182.757c-26.041 60.454 -62.5 114.025 -109.375 160.714c-46.875 46.689 -99.144 80.264 -156.808 100.725c-46.131 16.37 -106.771 24.554 -181.919 24.554c-21.206 0 -52.828 -2.697 -94.866 -8.091c-42.039 -5.395 -73.475 -8.092 -94.308 -8.092c-8.929 0 -22.415 2.697 -40.458 8.092c-18.043 5.394 -31.715 8.091 -41.016 8.091c-27.157 0 -50.13 -10.324 -68.917 -30.971c-18.787 -20.647 -28.181 -44.55 -28.181 -71.708c0 -8.928 2.046 -21.577 6.139 -37.946c4.092 -16.369 6.138 -28.832 6.138 -37.388c0 -14.881 -2.325 -37.296 -6.976 -67.244c-4.65 -29.948 -6.975 -52.548 -6.975 -67.801c0 0 0 0 0 0m71.429 -0.558c0 14.881 2.325 37.202 6.975 66.964c4.65 29.762 6.975 52.27 6.975 67.523c0 8.556 -2.046 20.926 -6.138 37.109c-4.092 16.183 -6.138 28.367 -6.138 36.551c0 8.185 2.232 14.974 6.696 20.369c4.464 5.394 10.789 8.091 18.973 8.091c8.929 0 22.415 -2.046 40.458 -6.138c18.043 -4.093 31.715 -6.139 41.016 -6.139c21.205 0 52.734 2.884 94.587 8.65c41.852 5.766 73.381 8.649 94.587 8.649c67.336 0 120.163 -6.696 158.482 -20.089c47.991 -16.741 91.797 -45.108 131.417 -85.1c39.621 -39.993 70.499 -85.659 92.634 -136.998c22.136 -51.339 33.203 -102.493 33.203 -153.46c0 -16.369 -1.302 -37.481 -3.906 -63.337c-2.604 -25.856 -5.952 -43.806 -10.045 -53.85c-4.464 -11.161 -7.626 -19.346 -9.486 -24.554c-1.86 -5.208 -3.534 -11.998 -5.023 -20.368c-1.488 -8.371 -2.232 -17.392 -2.232 -27.065c0 -8.557 0.93 -21.298 2.79 -38.225c1.861 -16.928 2.791 -29.483 2.791 -37.668c0 -13.765 -1.86 -23.995 -5.581 -30.692c-1.488 -0.372 -3.906 -0.558 -7.254 -0.558c-7.069 0 -17.857 0.837 -32.366 2.511c-14.509 1.674 -25.484 2.511 -32.924 2.511c-22.322 0 -55.06 -4.464 -98.215 -13.392c-43.154 -8.929 -75.706 -13.393 -97.656 -13.393c-15.997 0 -33.575 2.139 -52.734 6.417c-19.159 4.278 -34.971 8.65 -47.433 13.114c-12.463 4.464 -29.111 10.789 -49.945 18.973c-50.967 20.09 -88.541 39.249 -112.723 57.478c-35.714 27.158 -65.383 62.407 -89.006 105.748c-23.624 43.34 -39.993 87.239 -49.108 131.696c-9.114 44.457 -13.671 90.681 -13.671 138.672c0 0 0 0 0 0" />
  </g>
</svg>