<svg height="1000" width="857.1" xmlns="http://www.w3.org/2000/svg"><path d="M0 615.5q0-61.9 10-121.4t30.4-116.9 56.1-108.3 83.7-87q43.5-32.9 129.5-67 108.3-43.5 176.3-43.5 33.5 0 97.9 13.4t96.8 13.4q10.6 0 31.8-2.8t32.4-2.8q45.2 0 65.8 28.2t20.6 75.1q0 12.8-2.8 37.9t-2.8 37.9q0 5.6.6 10.3t1.7 9.5 2.2 7.5 3.6 8.9 3.6 9.5q8.9 22.3 14 66.1t5 76.2q0 92.1-39.1 182.7t-109.4 160.7-156.8 100.7q-69.2 24.6-181.9 24.6-31.8 0-94.9-8.1t-94.3-8.1q-13.4 0-40.5 8.1t-41 8.1q-40.7 0-68.9-31t-28.2-71.7q0-13.4 6.1-37.9t6.1-37.4q0-22.3-7-67.2t-7-67.8zm71.4-.6q0 22.3 7 67t7 67.5q0 12.8-6.1 37.1t-6.1 36.5 6.7 20.4 19 8.1q13.4 0 40.5-6.1t41-6.1q31.8 0 94.6 8.6t94.6 8.6q101 0 158.5-20.1 72-25.1 131.4-85.1t92.6-137 33.2-153.5q0-24.6-3.9-63.3t-10-53.8q-6.7-16.7-9.5-24.6t-5-20.4-2.2-27.1q0-12.8 2.8-38.2t2.8-37.7q0-20.6-5.6-30.7-2.2-.6-7.3-.6-10.6 0-32.4 2.5t-32.9 2.5q-33.5 0-98.2-13.4t-97.7-13.4q-24 0-52.7 6.4t-47.4 13.1-49.9 19q-76.4 30.1-112.7 57.5-53.6 40.7-89 105.7t-49.1 131.7-13.7 138.7z"/></svg>