<svg height="1000" width="857.1" xmlns="http://www.w3.org/2000/svg"><path d="M785.2 460.9q0 -24.5 -3.9 -63.3t-10.1 -53.8q-6.7 -16.8 -9.5 -24.6t-5 -20.4 -2.2 -27q0 -12.9 2.8 -38.3t2.7 -37.6q0 -20.7 -5.5 -30.7 -2.3 -.6 -7.3 -.6 -10.6 0 -32.4 2.5t-32.9 2.5q-33.5 0 -98.2 -13.4T486 142.9q-23.9 0 -52.7 6.4t-47.4 13.1 -50 19q-76.4 30.1 -112.7 57.4 -53.6 40.8 -89 105.8T85.1 476.3 71.4 615q0 22.3 7 66.9t7 67.5q0 12.9 -6.2 37.2t-6.1 36.5 6.7 20.4 19 8.1q13.4 0 40.4 -6.2t41 -6.1q31.9 0 94.6 8.6t94.6 8.7q101 0 158.5 -20.1 72 -25.1 131.4 -85.1t92.7 -137 33.2 -153.5zm71.4 -1.1q0 92.1 -39.1 182.8T708.1 803.3 551.3 904q-69.2 24.6 -181.9 24.6 -31.8 0 -94.8 -8.1t-94.4 -8.1q-13.3 0 -40.4 8.1t-41 8.1q-40.8 0 -68.9 -31T1.7 825.9q0 -13.4 6.1 -38T14 750.6q0 -22.4 -7 -67.3T0 615.5Q0 553.6 10 494.1T40.5 377.2 96.5 269t83.7 -87.1Q223.8 149 309.7 115 418 71.4 486 71.4q33.5 0 98 13.4t96.8 13.4q10.6 0 31.8 -2.8T745 92.6q45.2 0 65.8 28.2t20.7 75.1q0 12.8 -2.8 37.9t-2.8 38q0 5.5 .6 10.3t1.6 9.5 2.3 7.5 3.6 8.9 3.6 9.5q8.9 22.3 14 66.1t5 76.2z"/></svg>