<svg height="1000px" width="784.875px" xmlns="http://www.w3.org/2000/svg">
  <g>
    <path d="M0.375 623.5c-0.667 -11.333 -0.5 -22.5 0.5 -33.5c1 -11 2.167 -23.167 3.5 -36.5c1.333 -11.333 2.5 -23 3.5 -35c1 -12 2.5 -22.667 4.5 -32c4.667 -21.333 9.667 -42.167 15 -62.5c5.333 -20.333 12.667 -39.5 22 -57.5c6.667 -13.333 14 -26.5 22 -39.5c8 -13 16.667 -25.833 26 -38.5c3.333 -4.667 6.833 -8.667 10.5 -12c3.667 -3.333 7.5 -6.667 11.5 -10c0 0 22 -22 22 -22c7.333 -7.333 15.333 -14.333 24 -21c8.667 -6.667 18 -12.667 28 -18c10 -5.333 20.667 -10.667 32 -16c10.667 -5.333 21.667 -10.167 33 -14.5c11.333 -4.333 23 -8.833 35 -13.5c22.667 -9.333 48 -17.667 76 -25c0 0 1 -1 1 -1c14.667 -4 28.5 -6.833 41.5 -8.5c13 -1.667 25.833 -2.5 38.5 -2.5c19.333 0 37.667 1.5 55 4.5c17.333 3 34.667 6.167 52 9.5c13.333 2.667 27.167 5.167 41.5 7.5c14.333 2.333 29.5 3.5 45.5 3.5c0 0 1 0 1 0c9.333 0 19.5 -0.833 30.5 -2.5c11 -1.667 21.833 -2.5 32.5 -2.5c8 0 15.333 1 22 3c6.667 2 12 6 16 12c7.333 10 11.5 21.667 12.5 35c1 13.333 0.833 25.667 -0.5 37c-1.333 11.333 -2.667 22.833 -4 34.5c-1.333 11.667 -1 23.5 1 35.5c1.333 7.333 3.167 13.667 5.5 19c2.333 5.333 4.833 11.333 7.5 18c2.667 6 4.5 12.5 5.5 19.5c1 7 2.167 13.833 3.5 20.5c6 34 8.5 65.833 7.5 95.5c-1 29.667 -4.833 57.333 -11.5 83c-6.667 25.667 -15.833 49.833 -27.5 72.5c-11.667 22.667 -24.833 44.333 -39.5 65c-12 16 -24.833 31.833 -38.5 47.5c-13.667 15.667 -28.667 30.5 -45 44.5c-16.333 14 -34.333 26.667 -54 38c-19.667 11.333 -41.5 21 -65.5 29c-24.667 8.667 -50.5 14.167 -77.5 16.5c-27 2.333 -52.833 4.167 -77.5 5.5c0 0 -15 0 -15 0c-34 0 -65.667 -2.667 -95 -8c-29.333 -5.333 -60.667 -8 -94 -8c0 0 -2 0 -2 0c-11.333 0 -23.833 1.667 -37.5 5c-13.667 3.333 -27.167 5.333 -40.5 6c0 0 -1 0 -1 0c-12 0 -22.667 -2.833 -32 -8.5c-9.333 -5.667 -16.333 -12.5 -21 -20.5c-6.667 -11.333 -9.5 -23.167 -8.5 -35.5c1 -12.333 3.167 -23.5 6.5 -33.5c3.333 -10 5 -20.833 5 -32.5c0 -11.667 -0.833 -24 -2.5 -37c-1.667 -13 -3.667 -26.167 -6 -39.5c-2.333 -13.333 -3.833 -26.667 -4.5 -40c0 0 0 0 0 0" />
  </g>
</svg>