<svg height="1000px" width="784.9388979375362px" xmlns="http://www.w3.org/2000/svg">
  <g>
    <path d="M0.3662109375 623.53515625c-0.651 -11.393 -0.488 -22.542 0.488 -33.447c0.977 -10.905 2.116 -23.031 3.418 -36.377c1.302 -11.393 2.442 -23.112 3.418 -35.156c0.977 -12.045 2.604 -22.787 4.883 -32.227c4.557 -21.484 9.522 -42.318 14.893 -62.5c5.371 -20.182 12.614 -39.225 21.728 -57.129c6.511 -13.346 13.835 -26.53 21.973 -39.551c8.138 -13.021 16.927 -25.879 26.367 -38.574c3.255 -4.557 6.673 -8.545 10.254 -11.963c3.581 -3.418 7.487 -6.754 11.719 -10.01c7.487 -7.487 14.811 -14.892 21.972 -22.216c7.162 -7.325 15.137 -14.242 23.926 -20.752c8.789 -6.511 18.148 -12.452 28.076 -17.823c9.929 -5.371 20.589 -10.823 31.983 -16.357c10.742 -5.208 21.728 -10.01 32.959 -14.404c11.23 -4.395 22.867 -8.871 34.912 -13.428c22.786 -9.44 48.177 -17.741 76.172 -24.902c0 0 0.976 -0.977 0.976 -0.977c14.649 -3.906 28.483 -6.755 41.504 -8.545c13.021 -1.79 25.879 -2.685 38.574 -2.685c19.206 0 37.517 1.464 54.932 4.394c17.415 2.93 34.749 6.185 52.002 9.766c13.346 2.604 27.181 5.045 41.504 7.324c14.323 2.279 29.459 3.418 45.41 3.418c0 0 0.977 0 0.977 0c9.44 0 19.612 -0.814 30.517 -2.442c10.905 -1.627 21.729 -2.441 32.471 -2.441c8.138 0 15.543 0.977 22.217 2.93c6.673 1.953 11.962 6.022 15.869 12.207c7.487 10.091 11.718 21.728 12.695 34.912c0.977 13.184 0.651 25.472 -0.977 36.865c-1.302 11.393 -2.604 22.949 -3.906 34.668c-1.302 11.719 -0.976 23.438 0.977 35.156c1.302 7.487 3.174 13.916 5.615 19.287c2.441 5.372 4.964 11.312 7.568 17.823c2.605 5.859 4.395 12.37 5.371 19.531c0.977 7.161 2.116 13.997 3.418 20.508c5.86 33.854 8.383 65.674 7.569 95.459c-0.814 29.785 -4.557 57.536 -11.231 83.252c-6.673 25.716 -15.869 49.886 -27.588 72.51c-11.718 22.623 -24.902 44.189 -39.55 64.697c-12.045 15.95 -24.903 31.819 -38.575 47.607c-13.671 15.788 -28.645 30.681 -44.921 44.678c-16.276 13.997 -34.261 26.611 -53.955 37.842c-19.694 11.23 -41.586 20.914 -65.674 29.052c-24.74 8.79 -50.537 14.323 -77.393 16.602c-26.855 2.279 -52.653 4.069 -77.392 5.371c0 0 -15.137 0 -15.137 0c-33.854 0 -65.511 -2.685 -94.971 -8.057c-29.46 -5.371 -60.791 -8.056 -93.994 -8.056c0 0 -1.953 0 -1.953 0c-11.393 0 -23.926 1.709 -37.598 5.127c-13.672 3.418 -27.181 5.452 -40.527 6.103c0 0 -0.977 0 -0.977 0c-12.044 0 -22.705 -2.848 -31.982 -8.545c-9.277 -5.696 -16.195 -12.614 -20.752 -20.752c-6.511 -11.393 -9.359 -23.193 -8.545 -35.4c0.814 -12.207 2.848 -23.356 6.103 -33.447c3.256 -10.091 4.965 -20.915 5.127 -32.471c0.163 -11.556 -0.651 -23.844 -2.441 -36.865c-1.79 -13.021 -3.825 -26.205 -6.103 -39.551c-2.279 -13.346 -3.744 -26.693 -4.395 -40.039c0 0 0 0 0 0" />
  </g>
</svg>