<svg height="1000" width="1000" xmlns="http://www.w3.org/2000/svg"><path d="M499.968 .064q101.556 0 194.184 39.618t159.588 106.578 106.578 159.588 39.618 194.184 -39.618 194.184 -106.578 159.588 -159.588 106.578 -194.184 39.618 -194.184 -39.618 -159.588 -106.578 -106.578 -159.588 -39.618 -194.184 39.618 -194.184 106.578 -159.588 159.588 -106.578 194.184 -39.618zm0 71.424q-106.02 0 -201.438 50.22l108.252 108.252q45.756 -15.624 93.186 -15.624t93.186 15.624l108.252 -108.252q-95.418 -50.22 -201.438 -50.22zm-378.324 629.982l108.252 -108.252q-15.624 -45.756 -15.624 -93.186t15.624 -93.186l-108.252 -108.252q-50.22 95.418 -50.22 201.438t50.22 201.438zm378.324 227.106q106.02 0 201.438 -50.22l-108.252 -108.252q-45.756 15.624 -93.186 15.624t-93.186 -15.624l-108.252 108.252q95.418 50.22 201.438 50.22zm0 -214.272q88.722 0 151.497 -62.775t62.775 -151.497 -62.775 -151.497 -151.497 -62.775 -151.497 62.775 -62.775 151.497 62.775 151.497 151.497 62.775zm270.072 -121.086l108.252 108.252q50.22 -95.418 50.22 -201.438t-50.22 -201.438l-108.252 108.252q15.624 45.756 15.624 93.186t-15.624 93.186z"/></svg>