<svg height="1000" width="1000" xmlns="http://www.w3.org/2000/svg"><path d="M0 500.032q0 -101.556 39.618 -194.184t106.578 -159.588 159.588 -106.578 194.184 -39.618 194.184 39.618 159.588 106.578 106.578 159.588 39.618 194.184 -39.618 194.184 -106.578 159.588 -159.588 106.578 -194.184 39.618 -194.184 -39.618 -159.588 -106.578 -106.578 -159.588 -39.618 -194.184zm71.424 0q0 106.02 50.22 201.438l108.252 -108.252q-15.624 -45.756 -15.624 -93.186t15.624 -93.186l-108.252 -108.252q-50.22 95.418 -50.22 201.438zm214.272 0q0 88.722 62.775 151.497t151.497 62.775 151.497 -62.775 62.775 -151.497 -62.775 -151.497 -151.497 -62.775 -151.497 62.775 -62.775 151.497zm12.834 378.324q95.418 50.22 201.438 50.22t201.438 -50.22l-108.252 -108.252q-45.756 15.624 -93.186 15.624t-93.186 -15.624zm0 -756.648l108.252 108.252q45.756 -15.624 93.186 -15.624t93.186 15.624l108.252 -108.252q-95.418 -50.22 -201.438 -50.22t-201.438 50.22zm471.51 471.51l108.252 108.252q50.22 -95.418 50.22 -201.438t-50.22 -201.438l-108.252 108.252q15.624 45.756 15.624 93.186t-15.624 93.186z"/></svg>