<svg height="1000" width="1000" xmlns="http://www.w3.org/2000/svg"><path d="M500 0q101.6 0 194.2 39.6t159.6 106.6 106.6 159.6T1000 500t-39.6 194.2T853.8 853.8 694.2 960.4 500 1000 305.8 960.4 146.2 853.8 39.6 694.2 0 500 39.6 305.8 146.2 146.2 305.8 39.6 500 0zm0 71.4q-106 0 -201.5 50.3l108.3 108.2q45.8 -15.6 93.2 -15.6t93.2 15.6L701.5 121.7Q606 71.4 500 71.4zM121.7 701.5L229.9 593.2Q214.3 547.4 214.3 500t15.6 -93.2L121.7 298.5Q71.4 394 71.4 500t50.3 201.5zM500 928.6q106 0 201.5 -50.3L593.2 770.1q-45.8 15.6 -93.2 15.6t-93.2 -15.6L298.5 878.3Q394 928.6 500 928.6zm0 -214.3q88.7 0 151.5 -62.8T714.3 500 651.5 348.5 500 285.7t-151.5 62.8T285.7 500t62.8 151.5T500 714.3zM770.1 593.2l108.2 108.3Q928.6 606 928.6 500T878.3 298.5L770.1 406.8q15.6 45.8 15.6 93.2t-15.6 93.2z"/></svg>