<svg height="1000" width="571.429" xmlns="http://www.w3.org/2000/svg"><path d="M410.688 321.472q0 7.254 -5.301 12.555t-12.555 5.301 -12.555 -5.301 -5.301 -12.555q0 -25.668 -30.132 -39.618t-59.148 -13.95q-7.254 0 -12.555 -5.301t-5.301 -12.555 5.301 -12.555 12.555 -5.301q27.9 0 55.521 8.928t48.546 30.132 20.925 50.22zm89.28 0q0 -40.176 -19.251 -74.772t-50.22 -56.637 -68.634 -34.596 -76.167 -12.555 -76.167 12.555 -68.634 34.596 -50.22 56.637 -19.251 74.772q0 56.358 37.944 100.44 5.58 6.138 17.019 18.414t17.019 18.414q71.424 85.374 78.678 166.284h127.224q7.254 -80.91 78.678 -166.284 5.58 -6.138 17.019 -18.414t17.019 -18.414q37.944 -44.082 37.944 -100.44zm71.424 0q0 86.49 -57.474 149.544 -25.11 27.342 -41.571 48.546t-33.201 53.289 -18.972 59.985q26.226 15.624 26.226 45.756 0 20.646 -13.95 35.712 13.95 15.066 13.95 35.712 0 29.016 -25.11 45.198 7.254 12.834 7.254 26.226 0 25.668 -17.577 39.618t-43.245 13.95q-11.16 24.552 -33.48 39.06t-48.546 14.508 -48.546 -14.508 -33.48 -39.06q-25.668 0 -43.245 -13.95t-17.577 -39.618q0 -13.392 7.254 -26.226 -25.11 -16.182 -25.11 -45.198 0 -20.646 13.95 -35.712 -13.95 -15.066 -13.95 -35.712 0 -30.132 26.226 -45.756 -2.232 -27.9 -18.972 -59.985t-33.201 -53.289 -41.571 -48.546q-57.474 -63.054 -57.474 -149.544 0 -55.242 24.831 -102.951t65.286 -79.236 91.512 -49.662 104.067 -18.135 104.067 18.135 91.512 49.662 65.286 79.236 24.831 102.951z"/></svg>