<svg height="1000" width="571.4" xmlns="http://www.w3.org/2000/svg"><path d="M0 321.5q0-55.2 24.8-103t65.3-79.2 91.5-49.7 104.1-18.1 104.1 18.1 91.5 49.7 65.3 79.2 24.8 103q0 86.5-57.5 149.5-25.1 27.3-41.6 48.5t-33.2 53.3-19 60q26.2 15.6 26.2 45.8 0 20.6-14 35.7 14 15.1 14 35.7 0 29-25.1 45.2 7.3 12.8 7.3 26.2 0 25.7-17.6 39.6t-43.2 14q-11.2 24.6-33.5 39.1t-48.5 14.5-48.5-14.5-33.5-39.1q-25.7 0-43.2-14t-17.6-39.6q0-13.4 7.3-26.2-25.1-16.2-25.1-45.2 0-20.6 14-35.7-14-15.1-14-35.7 0-30.1 26.2-45.8-2.2-27.9-19-60t-33.2-53.3-41.6-48.5q-57.5-63.1-57.5-149.5zm71.4 0q0 56.4 37.9 100.4 5.6 6.1 17 18.4t17 18.4q71.4 85.4 78.7 166.3h127.2q7.3-80.9 78.7-166.3 5.6-6.1 17-18.4t17-18.4q37.9-44.1 37.9-100.4 0-40.2-19.3-74.8t-50.2-56.6-68.6-34.6-76.2-12.6-76.2 12.6-68.6 34.6-50.2 56.6-19.3 74.8zm196.4-71.4q0-7.3 5.3-12.6t12.6-5.3q27.9 0 55.5 8.9t48.5 30.1 20.9 50.2q0 7.3-5.3 12.6t-12.6 5.3-12.6-5.3-5.3-12.6q0-25.7-30.1-39.6t-59.1-14q-7.3 0-12.6-5.3t-5.3-12.6z"/></svg>