<svg height="1000" width="571.4" xmlns="http://www.w3.org/2000/svg"><path d="M410.7 321.4q0 7.3 -5.3 12.6t-12.5 5.3T380.3 334 375 321.4q0 -25.6 -30.1 -39.6t-59.2 -13.9q-7.2 0 -12.5 -5.3T267.9 250t5.3 -12.6 12.5 -5.3q27.9 0 55.5 9t48.6 30.1 20.9 50.2zm89.3 0q0 -40.1 -19.3 -74.7T430.5 190t-68.6 -34.6 -76.2 -12.5 -76.2 12.5T140.9 190t-50.2 56.7 -19.3 74.7q0 56.4 38 100.5 5.6 6.1 17 18.4t17 18.4q71.4 85.4 78.7 166.3h127.2q7.3 -80.9 78.7 -166.3 5.6 -6.1 17 -18.4t17.1 -18.4Q500 377.8 500 321.4zm71.4 0q0 86.5 -57.4 149.6 -25.2 27.3 -41.6 48.5t-33.2 53.3 -19 60q26.2 15.6 26.2 45.8 0 20.6 -13.9 35.7 13.9 15.1 13.9 35.7 0 29 -25.1 45.2 7.3 12.8 7.3 26.2 0 25.7 -17.6 39.6t-43.3 14q-11.1 24.6 -33.4 39.1t-48.6 14.5 -48.5 -14.5T203.7 875q-25.7 0 -43.3 -14t-17.5 -39.6q0 -13.4 7.2 -26.2Q125 779 125 750q0 -20.6 14 -35.7 -14 -15.1 -14 -35.7 0 -30.2 26.2 -45.8 -2.2 -27.9 -18.9 -60T99.1 519.5 57.5 471Q0 407.9 0 321.4 0 266.2 24.8 218.5t65.3 -79.3 91.5 -49.6T285.7 71.4t104.1 18.2 91.5 49.6 65.3 79.3 24.8 102.9z"/></svg>