<svg height="1000px" width="571.4285714285714px" xmlns="http://www.w3.org/2000/svg">
  <g>
    <path d="M0 321.42857142857133c0 -36.83 8.278 -71.15 24.833 -102.958c16.555 -31.808 38.318 -58.221 65.29 -79.241c26.971 -21.019 57.477 -37.574 91.518 -49.665c34.04 -12.091 68.731 -18.136 104.073 -18.136c35.343 0 70.034 6.045 104.074 18.136c34.04 12.091 64.546 28.646 91.518 49.665c26.972 21.02 48.735 47.433 65.29 79.241c16.555 31.808 24.833 66.128 24.833 102.958c0 57.664 -19.16 107.515 -57.478 149.554c-16.741 18.229 -30.599 34.412 -41.574 48.549c-10.974 14.137 -22.042 31.901 -33.203 53.292c-11.161 21.391 -17.485 41.388 -18.973 59.989c17.485 10.417 26.228 24.088 26.228 41.016c0 16.927 -4.651 30.413 -13.951 40.457c9.3 10.045 13.951 23.345 13.951 39.9c0 16.555 -8.371 30.227 -25.112 41.015c4.836 8.557 7.254 19.346 7.254 32.366c0 13.021 -5.859 24.182 -17.578 33.483c-11.718 9.3 -26.134 13.95 -43.247 13.95c-7.441 16.369 -18.602 29.39 -33.483 39.063c-14.881 9.673 -31.064 14.509 -48.549 14.509c-17.485 0 -33.668 -4.836 -48.549 -14.509c-14.881 -9.673 -26.041 -22.694 -33.482 -39.063c-17.113 0 -31.529 -4.65 -43.248 -13.95c-11.718 -9.301 -17.578 -20.462 -17.578 -33.483c0 -13.02 2.418 -23.809 7.255 -32.366c-16.741 -10.788 -25.112 -24.46 -25.112 -41.015c0 -16.555 4.65 -29.855 13.951 -39.9c-9.301 -10.044 -13.951 -23.53 -13.951 -40.457c0 -16.928 8.743 -30.599 26.228 -41.016c-1.488 -18.601 -7.813 -38.598 -18.974 -59.989c-11.16 -21.391 -22.228 -39.155 -33.203 -53.292c-10.974 -14.137 -24.832 -30.32 -41.573 -48.549c-38.319 -42.039 -57.478 -91.89 -57.478 -149.554c0 0 0 0 0 0m71.429 8.092c0 32.18 12.648 62.965 37.946 92.354c0 0 16.741 18.416 16.741 18.416c58.408 62.5 90.402 124.07 95.982 184.709c0 0 127.232 0 127.232 0c5.953 -60.639 37.947 -122.209 95.982 -184.709c0 0 16.742 -18.416 16.742 -18.416c25.297 -29.389 37.946 -60.174 37.946 -92.354c0 -32.181 -6.417 -59.803 -19.252 -82.869c-12.835 -23.065 -29.576 -41.945 -50.223 -56.64c-20.648 -14.695 -43.527 -26.228 -68.639 -34.599c-25.111 -8.37 -50.502 -12.555 -76.172 -12.555c-25.669 0 -51.06 4.185 -76.172 12.555c-25.111 8.371 -47.991 19.904 -68.638 34.599c-20.647 14.695 -37.388 33.575 -50.223 56.64c-12.835 23.066 -19.252 50.688 -19.252 82.869c0 0 0 0 0 0m196.428 -79.521c0 -4.836 1.767 -9.021 5.301 -12.555c3.535 -3.535 11.161 -5.302 22.88 -5.302c11.719 0 26.786 2.976 45.201 8.929c18.415 5.952 34.598 15.997 48.549 30.134c13.951 14.137 20.926 30.878 20.926 50.223c0 4.836 -1.767 9.022 -5.301 12.556c-3.534 3.534 -7.72 5.301 -12.556 5.301c-4.836 0 -9.021 -1.767 -12.556 -5.301c-3.534 -3.534 -5.301 -7.72 -5.301 -12.556c0 -17.113 -10.045 -30.32 -30.134 -39.621c-20.089 -9.3 -36.179 -13.95 -48.27 -13.95c-12.091 0 -19.903 -1.768 -23.438 -5.302c-3.534 -3.534 -5.301 -7.719 -5.301 -12.556c0 0 0 0 0 0" />
  </g>
</svg>