<svg height="1000px" width="571.4285714285714px" xmlns="http://www.w3.org/2000/svg">
  <g>
    <path d="M0 321.42857142857133c0 -36.83 8.278 -71.15 24.833 -102.958c16.555 -31.808 38.318 -58.221 65.29 -79.241c26.971 -21.019 57.477 -37.574 91.518 -49.665c34.04 -12.091 68.731 -18.136 104.073 -18.136c35.343 0 70.034 6.045 104.074 18.136c34.04 12.091 64.546 28.646 91.518 49.665c26.972 21.02 48.735 47.433 65.29 79.241c16.555 31.808 24.833 66.128 24.833 102.958c0 57.664 -19.16 107.515 -57.478 149.554c-16.741 18.229 -30.599 34.412 -41.574 48.549c-10.974 14.137 -22.042 31.901 -33.203 53.292c-11.161 21.391 -17.485 41.388 -18.973 59.989c17.485 10.417 26.228 25.67 26.228 45.759c0 13.765 -4.651 25.669 -13.951 35.714c9.3 10.045 13.951 21.95 13.951 35.714c0 19.346 -8.371 34.413 -25.112 45.201c4.836 8.557 7.254 17.299 7.254 26.228c0 17.113 -5.859 30.32 -17.578 39.621c-11.718 9.3 -26.134 13.95 -43.247 13.95c-7.441 16.369 -18.602 29.39 -33.483 39.063c-14.881 9.673 -31.064 14.509 -48.549 14.509c-17.485 0 -33.668 -4.836 -48.549 -14.509c-14.881 -9.673 -26.041 -22.694 -33.482 -39.063c-17.113 0 -31.529 -4.65 -43.248 -13.95c-11.718 -9.301 -17.578 -22.508 -17.578 -39.621c0 -8.929 2.418 -17.671 7.255 -26.228c-16.741 -10.788 -25.112 -25.855 -25.112 -45.201c0 -13.764 4.65 -25.669 13.951 -35.714c-9.301 -10.044 -13.951 -21.949 -13.951 -35.714c0 -20.089 8.743 -35.342 26.228 -45.759c-1.488 -18.601 -7.813 -38.598 -18.974 -59.989c-11.16 -21.391 -22.228 -39.155 -33.203 -53.292c-10.974 -14.137 -24.832 -30.32 -41.573 -48.549c-38.319 -42.039 -57.478 -91.89 -57.478 -149.554c0 0 0 0 0 0m71.429 0c0 37.574 12.648 71.057 37.946 100.446c3.72 4.093 9.394 10.231 17.02 18.416c7.627 8.184 13.3 14.323 17.02 18.415c47.619 56.919 73.847 112.351 78.683 166.294c0 0 127.232 0 127.232 0c4.837 -53.943 31.064 -109.375 78.683 -166.294c3.721 -4.092 9.394 -10.231 17.02 -18.415c7.627 -8.185 13.3 -14.323 17.021 -18.416c25.297 -29.389 37.946 -62.872 37.946 -100.446c0 -26.786 -6.417 -51.711 -19.252 -74.777c-12.835 -23.065 -29.576 -41.945 -50.223 -56.64c-20.648 -14.695 -43.527 -26.228 -68.639 -34.599c-25.111 -8.37 -50.502 -12.555 -76.172 -12.555c-25.669 0 -51.06 4.185 -76.172 12.555c-25.111 8.371 -47.991 19.904 -68.638 34.599c-20.647 14.695 -37.388 33.575 -50.223 56.64c-12.835 23.066 -19.252 47.991 -19.252 74.777c0 0 0 0 0 0m196.428 -71.429c0 -4.836 1.767 -9.021 5.301 -12.555c3.535 -3.535 7.72 -5.302 12.556 -5.302c18.601 0 37.11 2.976 55.525 8.929c18.415 5.952 34.598 15.997 48.549 30.134c13.951 14.137 20.926 30.878 20.926 50.223c0 4.836 -1.767 9.022 -5.301 12.556c-3.534 3.534 -7.72 5.301 -12.556 5.301c-4.836 0 -9.021 -1.767 -12.556 -5.301c-3.534 -3.534 -5.301 -7.72 -5.301 -12.556c0 -17.113 -10.045 -30.32 -30.134 -39.621c-20.089 -9.3 -39.806 -13.95 -59.152 -13.95c-4.836 0 -9.021 -1.768 -12.556 -5.302c-3.534 -3.534 -5.301 -7.719 -5.301 -12.556c0 0 0 0 0 0" />
  </g>
</svg>