<svg height="1000" width="928.571" xmlns="http://www.w3.org/2000/svg"><path d="M812.448 678.592q0 -22.32 -15.624 -37.944l-116.064 -116.064q-15.624 -15.624 -37.944 -15.624 -23.436 0 -40.176 17.856 1.674 1.674 10.602 10.323t11.997 11.997 8.37 10.602 7.254 14.229 1.953 15.345q0 22.32 -15.624 37.944t-37.944 15.624q-8.37 0 -15.345 -1.953t-14.229 -7.254 -10.602 -8.37 -11.997 -11.997 -10.323 -10.602q-18.414 17.298 -18.414 40.734 0 22.32 15.624 37.944l114.948 115.506q15.066 15.066 37.944 15.066 22.32 0 37.944 -14.508l82.026 -81.468q15.624 -15.624 15.624 -37.386zm-392.274 -393.39q0 -22.32 -15.624 -37.944l-114.948 -115.506q-15.624 -15.624 -37.944 -15.624 -21.762 0 -37.944 15.066l-82.026 81.468q-15.624 15.624 -15.624 37.386 0 22.32 15.624 37.944l116.064 116.064q15.066 15.066 37.944 15.066 23.436 0 40.176 -17.298 -1.674 -1.674 -10.602 -10.323t-11.997 -11.997 -8.37 -10.602 -7.254 -14.229 -1.953 -15.345q0 -22.32 15.624 -37.944t37.944 -15.624q8.37 0 15.345 1.953t14.229 7.254 10.602 8.37 11.997 11.997 10.323 10.602q18.414 -17.298 18.414 -40.734zm499.41 393.39q0 66.96 -47.43 113.274l-82.026 81.468q-46.314 46.314 -113.274 46.314 -67.518 0 -113.832 -47.43l-114.948 -115.506q-46.314 -46.314 -46.314 -113.274 0 -68.634 49.104 -116.622l-49.104 -49.104q-47.988 49.104 -116.064 49.104 -66.96 0 -113.832 -46.872l-116.064 -116.064q-46.872 -46.872 -46.872 -113.832t47.43 -113.274l82.026 -81.468q46.314 -46.314 113.274 -46.314 67.518 0 113.832 47.43l114.948 115.506q46.314 46.314 46.314 113.274 0 68.634 -49.104 116.622l49.104 49.104q47.988 -49.104 116.064 -49.104 66.96 0 113.832 46.872l116.064 116.064q46.872 46.872 46.872 113.832z"/></svg>