<svg height="1000" width="1000" xmlns="http://www.w3.org/2000/svg"><path d="M0 696.4v-464.3q0-66.4 47.2-113.6t113.6-47.2h392.8q7.8 0 12.8 5t5 12.8v35.7q0 7.8-5 12.8t-12.8 5h-392.8q-36.8 0-63.1 26.2t-26.2 63.1v464.3q0 36.8 26.2 63.1t63.1 26.2h464.3q36.8 0 63.1-26.2t26.2-63.1v-178.6q0-7.8 5-12.8t12.8-5h35.7q7.8 0 12.8 5t5 12.8v178.6q0 66.4-47.2 113.6t-113.6 47.2h-464.3q-66.4 0-113.6-47.2t-47.2-113.6zm382.2-160.7q0-7.3 5.6-12.8l363.8-363.8-98.2-98.2q-10.6-10.6-10.6-25.1t10.6-25.1 25.1-10.6h285.7q14.5 0 25.1 10.6t10.6 25.1v285.7q0 14.5-10.6 25.1t-25.1 10.6-25.1-10.6l-98.2-98.2-363.8 363.8q-5.6 5.6-12.8 5.6t-12.8-5.6l-63.6-63.6q-5.6-5.6-5.6-12.8z"/></svg>