<svg height="1000px" width="928.5714285714286px" xmlns="http://www.w3.org/2000/svg">
  <g>
    <path d="M919.6428571428572 678.5714285714286c0 44.643 -15.811 82.403 -47.433 113.281c0 0 -82.031 81.473 -82.031 81.473c-30.878 30.878 -68.732 46.317 -113.561 46.317c-44.828 0 -82.682 -15.811 -113.56 -47.433c0 0 -114.955 -115.513 -114.955 -115.513c-30.878 -30.878 -46.317 -68.917 -46.317 -114.118c0 -45.201 16.369 -83.799 49.107 -115.793c0 0 -49.107 -49.107 -49.107 -49.107c-31.994 32.738 -70.499 49.107 -115.514 49.107c-45.014 0 -83.147 -15.625 -114.397 -46.875c0 0 -116.071 -116.071 -116.071 -116.071c-31.25 -31.25 -46.875 -69.197 -46.875 -113.839c0 -44.643 15.811 -82.404 47.433 -113.282c0 0 82.031 -81.473 82.031 -81.473c30.878 -30.878 68.731 -46.317 113.56 -46.317c44.829 0 82.683 15.811 113.561 47.433c0 0 114.955 115.514 114.955 115.514c30.878 30.878 46.317 68.917 46.317 114.118c0 45.201 -16.369 83.798 -49.107 115.792c0 0 49.107 49.107 49.107 49.107c31.994 -32.738 70.498 -49.107 115.513 -49.107c45.015 0 83.148 15.625 114.398 46.875c0 0 116.071 116.072 116.071 116.072c31.25 31.25 46.875 69.196 46.875 113.839c0 0 0 0 0 0m-517.857 -352.679c12.277 -11.532 18.415 -24.925 18.415 -40.178c0 -15.253 -5.208 -28.088 -15.625 -38.505c0 0 -114.955 -115.513 -114.955 -115.513c-10.417 -10.417 -22.973 -15.625 -37.668 -15.625c-14.695 0 -27.436 5.022 -38.225 15.067c0 0 -82.031 81.473 -82.031 81.473c-10.417 10.417 -15.625 22.973 -15.625 37.668c0 14.695 5.208 27.25 15.625 37.667c0 0 116.071 116.071 116.071 116.071c10.045 10.045 22.786 15.067 38.225 15.067c15.439 0 28.739 -5.766 39.9 -17.299c-1.116 -1.116 -4.65 -4.557 -10.603 -10.323c-5.952 -5.767 -9.951 -9.766 -11.997 -11.998c-2.047 -2.232 -4.93 -5.767 -8.65 -10.603c-5.952 -8.556 -8.929 -19.345 -8.929 -32.366c0 -13.021 5.209 -24.739 15.625 -35.156c10.417 -10.417 20.741 -15.625 30.971 -15.625c10.231 0 17.672 0.651 22.322 1.953c4.65 1.302 9.393 3.72 14.23 7.254c4.836 3.535 8.37 6.325 10.602 8.371c2.233 2.046 6.232 6.045 11.998 11.998c5.767 5.952 9.208 9.486 10.324 10.602c0 0 0 0 0 0m395.089 390.067c10.417 -10.416 15.625 -22.972 15.625 -37.667c0 -14.695 -5.208 -27.251 -15.625 -37.667c0 0 -116.071 -116.072 -116.071 -116.072c-10.417 -10.417 -23.252 -15.625 -38.505 -15.625c-15.253 0 -28.46 5.953 -39.62 17.857c1.116 1.116 4.65 4.558 10.602 10.324c5.953 5.766 9.952 9.766 11.998 11.998c2.046 2.232 4.929 5.766 8.65 10.602c5.952 8.557 8.928 19.346 8.928 32.366c0 13.021 -5.208 24.74 -15.625 35.157c-10.416 10.416 -20.74 15.625 -30.971 15.625c-10.23 0 -17.671 -0.651 -22.321 -1.953c-4.65 -1.302 -9.394 -3.721 -14.23 -7.255c-4.836 -3.534 -8.371 -6.324 -10.603 -8.37c-2.232 -2.047 -6.231 -6.046 -11.997 -11.998c-5.767 -5.953 -9.208 -9.487 -10.324 -10.603c-12.277 11.533 -18.415 24.926 -18.415 40.179c0 15.253 5.208 28.088 15.625 38.504c0 0 114.955 115.514 114.955 115.514c10.045 10.044 22.6 15.067 37.667 15.067c15.067 0 27.809 -4.837 38.226 -14.509c0 0 82.031 -81.474 82.031 -81.474" />
  </g>
</svg>