<svg height="1000px" width="899.90234375px" xmlns="http://www.w3.org/2000/svg">
  <g>
    <path d="M0 725.09765625c0 0 0 -450.195 0 -450.195c0 -20.508 3.988 -39.958 11.963 -58.35c7.975 -18.392 18.636 -34.261 31.982 -47.607c13.347 -13.347 29.216 -24.008 47.608 -31.983c18.392 -7.975 37.842 -11.963 58.349 -11.963c0 0 284.18 0 284.18 0c-0.651 4.558 -1.302 9.034 -1.953 13.428c-0.651 4.395 -0.977 9.196 -0.977 14.404c0 0 0 42.969 0 42.969c0 7.487 0.977 15.3 2.93 23.438c0 0 -284.18 0 -284.18 0c-15.299 0 -28.401 5.452 -39.306 16.357c-10.905 10.905 -16.358 24.007 -16.358 39.307c0 0 0 450.195 0 450.195c0 15.299 5.453 28.402 16.358 39.307c10.905 10.905 24.007 16.357 39.306 16.357c0 0 524.903 0 524.903 0c15.299 0 28.483 -5.452 39.55 -16.357c11.068 -10.905 16.602 -24.008 16.602 -39.307c0 0 0 -166.016 0 -166.016c13.346 10.092 27.995 18.067 43.945 23.926c15.951 5.86 32.715 9.115 50.293 9.766c0 0 0 132.324 0 132.324c0 20.508 -4.069 39.795 -12.207 57.861c-8.138 18.067 -19.043 33.936 -32.715 47.608c-13.671 13.672 -29.459 24.495 -47.363 32.47c-17.903 7.976 -37.272 11.963 -58.105 11.963c0 0 -524.903 0 -524.903 0c-20.507 0 -39.957 -3.987 -58.349 -11.963c-18.392 -7.975 -34.261 -18.798 -47.608 -32.47c-13.346 -13.672 -24.007 -29.541 -31.982 -47.608c-7.975 -18.066 -11.963 -37.353 -11.963 -57.861c0 0 0 0 0 0m338.135 -104.98c-0.163 -8.138 2.523 -14.812 8.056 -20.02c0 0 375.977 -376.953 375.977 -376.953c0 0 -131.348 0 -131.348 0c-8.138 0 -14.811 -2.686 -20.019 -8.057c-5.209 -5.371 -7.813 -12.125 -7.813 -20.263c0 0 0 -41.993 0 -41.993c-0.651 -7.487 1.872 -13.997 7.569 -19.531c5.696 -5.534 12.451 -8.301 20.263 -8.301c0 0 281.25 0 281.25 0c7.487 0 13.998 2.849 19.532 8.545c5.533 5.697 8.3 12.126 8.3 19.287c0 0 0 41.993 0 41.993c0 0 0 239.257 0 239.257c0 8.138 -2.848 14.974 -8.545 20.508c-5.696 5.534 -12.125 7.975 -19.287 7.324c0 0 -41.992 0 -41.992 0c-8.138 0 -14.892 -2.685 -20.264 -8.056c-5.371 -5.371 -8.056 -11.963 -8.056 -19.776c0 0 0 -130.859 0 -130.859c0 0 -376.953 375.977 -376.953 375.977c-5.209 5.208 -11.8 7.812 -19.776 7.812c-7.975 0 -14.73 -2.604 -20.263 -7.812c0 0 -38.575 -39.063 -38.575 -39.063c-5.208 -5.208 -7.893 -11.881 -8.056 -20.019c0 0 0 0 0 0" />
  </g>
</svg>