<svg height="1000" width="857.143" xmlns="http://www.w3.org/2000/svg"><path d="M194.742 348.814v552.978h-184.14v-552.978h184.14zm11.718 -170.748q.558 40.734 -28.179 68.076t-75.609 27.342h-1.116q-45.756 0 -73.656 -27.342t-27.9 -68.076q0 -41.292 28.737 -68.355t75.051 -27.063 74.214 27.063 28.458 68.355zm650.628 406.782v316.944h-183.582v-295.74q0 -58.59 -22.599 -91.791t-70.587 -33.201q-35.154 0 -58.869 19.251t-35.433 47.709q-6.138 16.74 -6.138 45.198v308.574h-183.582q1.116 -222.642 1.116 -361.026t-.558 -165.168l-.558 -26.784h183.582v80.352h-1.116q11.16 -17.856 22.878 -31.248t31.527 -29.016 48.546 -24.273 63.891 -8.649q95.418 0 153.45 63.333t58.032 185.535z"/></svg>