<svg height="1000px" width="769.53125px" xmlns="http://www.w3.org/2000/svg">
  <g>
    <path d="M0 210.693359375c0 -12.695 2.523 -24.74 7.568 -36.133c5.046 -11.393 11.719 -21.24 20.02 -29.541c8.301 -8.301 18.066 -14.974 29.297 -20.019c11.23 -5.046 23.193 -7.569 35.888 -7.569c12.696 0 24.74 2.523 36.133 7.569c11.393 5.045 21.403 11.718 30.03 20.019c8.626 8.301 15.299 18.148 20.019 29.541c4.72 11.393 7.08 23.438 7.08 36.133c0 12.695 -2.36 24.658 -7.08 35.889c-4.72 11.23 -11.393 20.996 -20.019 29.297c-8.627 8.3 -18.637 14.974 -30.03 20.019c-11.393 5.046 -23.437 7.568 -36.133 7.568c-12.695 0 -24.658 -2.522 -35.888 -7.568c-11.231 -5.045 -20.996 -11.719 -29.297 -20.019c-8.301 -8.301 -14.974 -18.067 -20.02 -29.297c-5.045 -11.231 -7.568 -23.194 -7.568 -35.889c0 0 0 0 0 0m4.883 651.855c0 0 0 -483.886 0 -483.886c0 -5.209 2.034 -9.847 6.103 -13.916c4.069 -4.069 8.708 -6.104 13.916 -6.104c0 0 137.207 0 137.207 0c5.209 0 9.847 1.953 13.916 5.86c4.069 3.906 6.104 8.626 6.104 14.16c0 0 0 483.886 0 483.886c0 5.209 -2.035 9.847 -6.104 13.916c-4.069 4.069 -8.707 6.104 -13.916 6.104c0 0 -137.207 0 -137.207 0c-5.208 0 -9.847 -2.035 -13.916 -6.104c-4.069 -4.069 -6.103 -8.707 -6.103 -13.916c0 0 0 0 0 0m250.976 0c0 0 0 -483.886 0 -483.886c0 -5.209 2.035 -9.847 6.104 -13.916c4.069 -4.069 8.708 -6.104 13.916 -6.104c0 0 133.301 0 133.301 0c10.742 0 16.764 4.151 18.066 12.451c1.302 8.301 1.953 16.195 1.953 23.682c18.555 -17.253 39.632 -29.622 63.233 -37.109c23.6 -7.487 48.095 -11.231 73.486 -11.231c61.849 0 111.328 15.544 148.437 46.631c37.11 31.087 55.665 78.857 55.665 143.311c0 0 0 326.171 0 326.171c0 5.209 -2.035 9.847 -6.104 13.916c-4.069 4.069 -8.708 6.104 -13.916 6.104c0 0 -141.113 0 -141.113 0c-5.209 0 -9.685 -2.035 -13.428 -6.104c-3.744 -4.069 -5.615 -8.707 -5.615 -13.916c0 0 0 -294.921 0 -294.921c0 -24.74 -4.476 -43.62 -13.428 -56.641c-8.952 -13.021 -27.1 -19.531 -54.443 -19.531c-17.253 0 -31.739 2.848 -43.457 8.545c-11.719 5.696 -20.915 13.346 -27.588 22.949c-6.673 9.603 -11.312 21.077 -13.916 34.424c-2.604 13.346 -3.907 27.669 -3.907 42.968c0 0 0 262.207 0 262.207c0 5.209 -2.034 9.847 -6.103 13.916c-4.069 4.069 -8.708 6.104 -13.916 6.104c0 0 -137.207 0 -137.207 0c-5.208 0 -9.847 -2.035 -13.916 -6.104c-4.069 -4.069 -6.104 -8.707 -6.104 -13.916c0 0 0 0 0 0" />
  </g>
</svg>