<svg height="1000px" width="928.5714285714286px" xmlns="http://www.w3.org/2000/svg">
  <g>
    <path d="M8.928571428571429 250c0 -44.643 15.811 -82.403 47.433 -113.281c0 0 82.031 -81.473 82.031 -81.473c30.878 -30.878 68.639 -46.317 113.282 -46.317c45.014 0 82.961 15.811 113.839 47.433c0 0 114.955 115.513 114.955 115.513c30.878 30.878 46.317 68.638 46.317 113.281c0 45.759 -16.369 84.636 -49.107 116.63c0 0 49.107 49.107 49.107 49.107c31.994 -32.738 70.685 -49.107 116.072 -49.107c44.642 0 82.589 15.625 113.839 46.875c0 0 116.071 116.071 116.071 116.071c31.25 31.25 46.875 69.197 46.875 113.839c0 44.643 -15.811 82.404 -47.433 113.282c0 0 -82.031 81.473 -82.031 81.473c-30.878 30.878 -68.638 46.317 -113.281 46.317c-45.015 0 -82.962 -15.811 -113.84 -47.433c0 0 -114.955 -115.514 -114.955 -115.514c-30.878 -30.878 -46.317 -68.638 -46.317 -113.281c0 -45.759 16.369 -84.635 49.107 -116.629c0 0 -49.107 -49.107 -49.107 -49.107c-31.994 32.738 -70.684 49.107 -116.071 49.107c-44.643 0 -82.59 -15.625 -113.84 -46.875c0 0 -116.071 -116.072 -116.071 -116.072c-31.25 -31.25 -46.875 -69.196 -46.875 -113.839c0 0 0 0 0 0m107.143 0c0 14.881 5.208 27.53 15.625 37.946c0 0 116.071 116.072 116.071 116.072c10.045 10.044 22.694 15.067 37.947 15.067c15.625 0 29.018 -5.767 40.178 -17.299c-1.116 -1.116 -4.65 -4.558 -10.602 -10.324c-5.953 -5.766 -9.952 -9.766 -11.998 -11.998c-2.046 -2.232 -4.836 -5.766 -8.371 -10.602c-3.534 -4.837 -5.952 -9.58 -7.254 -14.23c-1.302 -4.651 -1.953 -9.766 -1.953 -15.346c0 -14.881 5.208 -27.53 15.625 -37.947c10.416 -10.416 23.065 -15.625 37.946 -15.625c5.581 0 10.696 0.651 15.346 1.953c4.65 1.302 9.394 3.721 14.23 7.255c4.836 3.534 8.371 6.324 10.603 8.37c2.232 2.047 6.231 6.046 11.997 11.998c5.767 5.953 9.208 9.487 10.324 10.603c12.277 -11.533 18.415 -25.112 18.415 -40.737c0 -14.881 -5.208 -27.53 -15.625 -37.946c0 0 -114.955 -115.514 -114.955 -115.514c-10.417 -10.416 -23.066 -15.625 -37.946 -15.625c-14.509 0 -27.158 5.023 -37.947 15.067c0 0 -82.031 81.474 -82.031 81.474c-10.417 10.416 -15.625 22.879 -15.625 37.388c0 0 0 0 0 0m392.299 393.415c0 14.881 5.208 27.53 15.625 37.947c0 0 114.955 115.513 114.955 115.513c10.045 10.045 22.694 15.067 37.947 15.067c14.881 0 27.53 -4.836 37.946 -14.509c0 0 82.031 -81.473 82.031 -81.473c10.417 -10.417 15.625 -22.88 15.625 -37.389c0 -14.881 -5.208 -27.529 -15.625 -37.946c0 0 -116.071 -116.071 -116.071 -116.071c-10.417 -10.417 -23.065 -15.625 -37.946 -15.625c-15.625 0 -29.018 5.952 -40.179 17.857c1.116 1.116 4.65 4.557 10.603 10.323c5.952 5.767 9.951 9.766 11.997 11.998c2.047 2.232 4.837 5.767 8.371 10.603c3.534 4.836 5.952 9.579 7.254 14.23c1.303 4.65 1.954 9.765 1.954 15.346c0 14.881 -5.209 27.529 -15.625 37.946c-10.417 10.417 -23.066 15.625 -37.947 15.625c-5.58 0 -10.696 -0.651 -15.346 -1.953c-4.65 -1.302 -9.393 -3.72 -14.23 -7.254c-4.836 -3.535 -8.37 -6.325 -10.602 -8.371c-2.233 -2.046 -6.232 -6.045 -11.998 -11.998c-5.767 -5.952 -9.208 -9.486 -10.324 -10.602c-12.277 11.532 -18.415 25.111 -18.415 40.736c0 0 0 0 0 0" />
  </g>
</svg>