<svg height="1000" width="857.143" xmlns="http://www.w3.org/2000/svg"><path d="M132.246 789.076h128.898v-387.252h-128.898v387.252zm137.268 -506.664q-.558 -29.016 -20.088 -47.988t-51.894 -18.972 -52.731 18.972 -20.367 47.988q0 28.458 19.809 47.709t51.615 19.251h.558q32.922 0 53.01 -19.251t20.088 -47.709zm326.43 506.664h128.898v-222.084q0 -85.932 -40.734 -130.014t-107.694 -44.082q-75.888 0 -116.622 65.286h1.116v-56.358h-128.898q1.674 36.828 0 387.252h128.898v-216.504q0 -21.204 3.906 -31.248 8.37 -19.53 25.11 -33.201t41.292 -13.671q64.728 0 64.728 87.606v207.018zm261.144 -556.884v535.68q0 66.402 -47.151 113.553t-113.553 47.151h-535.68q-66.402 0 -113.553 -47.151t-47.151 -113.553v-535.68q0 -66.402 47.151 -113.553t113.553 -47.151h535.68q66.402 0 113.553 47.151t47.151 113.553z"/></svg>