<svg height="1000px" width="750px" xmlns="http://www.w3.org/2000/svg">
  <g>
    <path d="M0 780.76171875c0 0 0 -561.523 0 -561.523c0 -12.696 2.523 -24.903 7.568 -36.622c5.046 -11.718 11.719 -21.728 20.02 -30.029c8.301 -8.301 18.148 -14.974 29.541 -20.019c11.393 -5.046 23.763 -7.569 37.109 -7.569c0 0 561.524 0 561.524 0c26.041 0 48.258 9.196 66.65 27.588c18.392 18.392 27.588 40.609 27.588 66.651c0 0 0 561.523 0 561.523c0 13.346 -2.523 25.716 -7.568 37.109c-5.046 11.394 -11.719 21.241 -20.02 29.541c-8.301 8.301 -18.31 14.974 -30.029 20.02c-11.719 5.045 -23.926 7.568 -36.621 7.568c0 0 -561.524 0 -561.524 0c-26.041 0 -48.258 -9.196 -66.65 -27.588c-18.392 -18.392 -27.588 -40.608 -27.588 -66.65c0 0 0 0 0 0m101.074 -487.793c0 18.555 6.511 34.342 19.531 47.363c13.021 13.021 28.484 19.532 46.387 19.532c18.555 0 34.343 -6.511 47.363 -19.532c13.021 -13.021 19.532 -28.808 19.532 -47.363c0 -17.904 -6.511 -33.366 -19.532 -46.387c-13.02 -13.021 -28.808 -19.531 -47.363 -19.531c-17.903 0 -33.366 6.51 -46.387 19.531c-13.02 13.021 -19.531 28.483 -19.531 46.387c0 0 0 0 0 0m2.93 464.844c0 3.255 1.465 6.429 4.394 9.521c2.93 3.093 6.185 4.639 9.766 4.639c0 0 97.656 0 97.656 0c3.907 0 7.243 -1.465 10.01 -4.395c2.767 -2.929 4.15 -6.184 4.15 -9.765c0 0 0 -344.727 0 -344.727c0 -9.44 -4.72 -14.16 -14.16 -14.16c0 0 -97.656 0 -97.656 0c-3.255 0 -6.429 1.384 -9.521 4.15c-3.093 2.767 -4.639 6.104 -4.639 10.01c0 0 0 344.727 0 344.727c0 0 0 0 0 0m179.199 0c0 3.255 1.465 6.429 4.395 9.521c2.929 3.093 6.022 4.639 9.277 4.639c0 0 98.145 0 98.145 0c3.906 0 7.242 -1.465 10.009 -4.395c2.767 -2.929 4.151 -6.184 4.151 -9.765c0 0 0 -187.012 0 -187.012c0 -22.135 4.313 -40.609 12.939 -55.42c8.626 -14.811 25.309 -22.217 50.049 -22.217c19.206 0 32.145 4.639 38.818 13.916c6.674 9.278 10.01 22.543 10.01 39.795c0 0 0 210.938 0 210.938c0 3.255 1.302 6.429 3.906 9.521c2.605 3.093 6.022 4.639 10.254 4.639c0 0 99.61 0 99.61 0c3.255 0 6.429 -1.465 9.521 -4.395c3.093 -2.929 4.639 -6.184 4.639 -9.765c0 0 0 -232.91 0 -232.91c0 -45.899 -13.184 -79.834 -39.551 -101.807c-26.367 -21.973 -61.523 -32.959 -105.469 -32.959c-17.903 0 -35.4 2.441 -52.49 7.324c-17.09 4.883 -32.308 13.998 -45.654 27.344c0 -5.208 -0.489 -10.824 -1.465 -16.846c-0.977 -6.022 -5.046 -9.033 -12.207 -9.033c0 0 -95.215 0 -95.215 0c-3.255 0 -6.348 1.384 -9.277 4.15c-2.93 2.767 -4.395 6.104 -4.395 10.01c0 0 0 344.727 0 344.727c0 0 0 0 0 0" />
  </g>
</svg>