<svg height="1000" width="857.143" xmlns="http://www.w3.org/2000/svg"><path d="M0 767.872v-535.68q0 -66.402 47.151 -113.553t113.553 -47.151h535.68q66.402 0 113.553 47.151t47.151 113.553v535.68q0 66.402 -47.151 113.553t-113.553 47.151h-535.68q-66.402 0 -113.553 -47.151t-47.151 -113.553zm142.848 0q0 7.254 5.301 12.555t12.555 5.301h107.136q7.254 0 12.555 -5.301t5.301 -12.555v-357.12q0 -7.254 -5.301 -12.555t-12.555 -5.301h-107.136q-7.254 0 -12.555 5.301t-5.301 12.555v357.12zm0 -484.344q0 28.458 20.088 48.825t48.546 20.367q29.016 0 49.104 -20.367t20.088 -48.825 -20.088 -48.825 -49.104 -20.367q-28.458 0 -48.546 20.367t-20.088 48.825zm178.56 484.344q0 7.254 8.649 12.555t16.461 5.301h101.556q6.696 0 11.439 -5.301t4.743 -12.555v-194.742q0 -78.12 63.612 -78.12 27.342 0 35.433 12.555t8.091 41.013v219.294q0 7.254 6.696 12.555t14.508 5.301h103.788q7.254 0 12.555 -5.301t5.301 -12.555v-242.73q0 -70.866 -41.013 -107.415t-112.995 -36.549q-50.22 0 -88.164 25.11 -6.696 4.464 -7.812 6.696 0 -20.088 -19.53 -20.088h-98.208q-7.812 0 -16.461 4.185t-8.649 11.439v359.352z"/></svg>