<svg height="1000" width="770" xmlns="http://www.w3.org/2000/svg"><path d="M0 185.32q0-38.502 27.342-65.844t65.844-27.342 65.844 27.342 27.342 65.844-27.342 65.844-65.844 27.342-65.844-27.342-27.342-65.844zm5.022 652.302l0-484.344q0-7.812 5.859-13.671t13.671-5.859l137.268 0q7.812 0 13.671 5.859t5.859 13.671l0 484.344q0 7.812-5.859 13.671t-13.671 5.859l-137.268 0q-7.812 0-13.671-5.859t-5.859-13.671zm251.1 0l0-484.344q0-7.812 5.859-13.671t13.671-5.859l133.362 0q7.254 0 11.718 2.79t5.859 10.323 1.674 10.044.279 12.555q51.894-48.546 137.268-48.546 95.418 0 149.544 47.709t54.126 142.011l0 326.988q0 7.812-5.859 13.671t-13.671 5.859l-140.616 0q-7.812 0-13.671-5.859t-5.859-13.671l0-295.182q0-39.618-14.787-58.032t-53.289-18.414q-49.104 0-68.913 28.737t-19.809 80.073l0 262.818q0 7.812-5.859 13.671t-14.229 5.859l-137.268 0q-7.812 0-13.671-5.859t-5.859-13.671z"/></svg>