<svg height="1000" width="857.1" xmlns="http://www.w3.org/2000/svg"><path d="M0 767.9v-535.7q0-66.4 47.2-113.6t113.6-47.2h535.7q66.4 0 113.6 47.2t47.2 113.6v535.7q0 66.4-47.2 113.6t-113.6 47.2h-535.7q-66.4 0-113.6-47.2t-47.2-113.6zm142.8 0q0 7.3 5.3 12.6t12.6 5.3h107.1q7.3 0 12.6-5.3t5.3-12.6v-357.1q0-7.3-5.3-12.6t-12.6-5.3h-107.1q-7.3 0-12.6 5.3t-5.3 12.6v357.1zm0-484.3q0 28.5 20.1 48.8t48.5 20.4q29 0 49.1-20.4t20.1-48.8-20.1-48.8-49.1-20.4q-28.5 0-48.5 20.4t-20.1 48.8zm178.6 484.3q0 7.3 8.6 12.6t16.5 5.3h101.6q6.7 0 11.4-5.3t4.7-12.6v-194.7q0-78.1 63.6-78.1 27.3 0 35.4 12.6t8.1 41v219.3q0 7.3 6.7 12.6t14.5 5.3h103.8q7.3 0 12.6-5.3t5.3-12.6v-242.7q0-70.9-41-107.4t-113-36.5q-50.2 0-88.2 25.1-6.7 4.5-7.8 6.7 0-20.1-19.5-20.1h-98.2q-7.8 0-16.5 4.2t-8.6 11.4v359.4z"/></svg>