<svg height="1000px" width="857.1428571428571px" xmlns="http://www.w3.org/2000/svg">
  <g>
    <path d="M857.1428571428571 232.1428571428571c0 0 0 535.714 0 535.714c0 44.271 -15.718 82.125 -47.154 113.561c-31.436 31.436 -69.289 47.154 -113.56 47.154c0 0 -535.715 0 -535.715 0c-44.27 0 -82.124 -15.718 -113.56 -47.154c-31.436 -31.436 -47.154 -69.29 -47.154 -113.561c0 0 0 -535.714 0 -535.714c0 -44.271 15.718 -82.124 47.154 -113.56c31.436 -31.436 69.29 -47.154 113.56 -47.154c0 0 535.715 0 535.715 0c44.271 0 82.124 15.718 113.56 47.154c31.436 31.436 47.154 69.289 47.154 113.56c0 0 0 0 0 0m-142.857 535.714c0 0 0 -242.745 0 -242.745c0 -47.247 -13.672 -83.055 -41.016 -107.422c-27.344 -24.368 -65.011 -36.551 -113.002 -36.551c-33.482 0 -62.872 8.37 -88.17 25.111c-4.464 2.976 -7.068 5.208 -7.812 6.697c0 -13.393 -6.511 -20.09 -19.531 -20.09c0 0 -98.215 0 -98.215 0c-5.208 0 -10.695 1.395 -16.462 4.186c-5.766 2.79 -8.649 6.603 -8.649 11.439c0 0 0 359.375 0 359.375c0 4.837 2.883 9.022 8.649 12.556c5.767 3.534 11.254 5.301 16.462 5.301c0 0 101.563 0 101.563 0c4.464 0 8.277 -1.767 11.44 -5.301c3.162 -3.534 4.743 -7.719 4.743 -12.556c0 0 0 -194.754 0 -194.754c0 -52.084 21.205 -78.125 63.616 -78.125c18.229 0 30.041 4.185 35.435 12.556c5.395 8.37 8.092 22.042 8.092 41.015c0 0 0 219.308 0 219.308c0 4.837 2.232 9.022 6.696 12.556c4.464 3.534 9.301 5.301 14.509 5.301c0 0 103.795 0 103.795 0c4.836 0 9.021 -1.767 12.556 -5.301c3.534 -3.534 5.301 -7.719 5.301 -12.556c0 0 0 0 0 0m-433.594 -484.375c0 -18.973 -6.696 -35.249 -20.089 -48.828c-13.021 -13.579 -29.204 -20.368 -48.549 -20.368c-19.346 0 -35.715 6.789 -49.107 20.368c-13.393 13.579 -20.09 29.855 -20.09 48.828c0 18.973 6.697 35.25 20.09 48.828c13.392 13.579 29.761 20.369 49.107 20.369c19.345 0 35.621 -6.79 48.828 -20.369c13.207 -13.578 19.81 -29.855 19.81 -48.828c0 0 0 0 0 0m5.022 484.375c0 0 0 -357.143 0 -357.143c0 -4.836 -1.767 -9.021 -5.301 -12.555c-3.534 -3.535 -7.719 -5.302 -12.556 -5.302c0 0 -107.143 0 -107.143 0c-4.836 0 -9.021 1.767 -12.555 5.302c-3.535 3.534 -5.302 7.719 -5.302 12.555c0 0 0 357.143 0 357.143c0 4.837 1.767 9.022 5.302 12.556c3.534 3.534 7.719 5.301 12.555 5.301c0 0 107.143 0 107.143 0c4.837 0 9.022 -1.767 12.556 -5.301c3.534 -3.534 5.301 -7.719 5.301 -12.556c0 0 0 0 0 0" />
  </g>
</svg>