<svg height="1000px" width="1000px" xmlns="http://www.w3.org/2000/svg">
  <g>
    <path d="M1000 35.714285714285666c0 0 0 285.714 0 285.714c0 9.673 -3.534 18.043 -10.603 25.112c-7.068 7.068 -15.439 10.603 -25.111 10.603c-9.673 0 -18.043 -3.535 -25.112 -10.603c0 0 -98.214 -98.214 -98.214 -98.214c0 0 -363.839 363.839 -363.839 363.839c-3.721 3.72 -7.999 5.58 -12.835 5.58c-4.837 0 -9.115 -1.86 -12.835 -5.58c0 0 -63.616 -63.616 -63.616 -63.616c-3.72 -3.72 -5.581 -7.999 -5.581 -12.835c0 -4.836 1.861 -9.115 5.581 -12.835c0 0 363.839 -363.839 363.839 -363.839c0 0 -98.214 -98.214 -98.214 -98.214c-7.069 -7.069 -10.603 -15.439 -10.603 -25.112c0 -9.673 3.534 -18.043 10.603 -25.112c7.068 -7.068 15.439 -10.602 25.111 -10.602c0 0 285.715 0 285.715 0c9.672 0 18.043 3.534 25.111 10.602c7.069 7.069 10.603 15.439 10.603 25.112c0 0 0 0 0 0m-214.286 482.143c0 0 0 178.571 0 178.571c0 44.271 -15.718 82.125 -47.154 113.561c-31.436 31.436 -69.289 47.154 -113.56 47.154c0 0 -464.286 0 -464.286 0c-44.271 0 -82.124 -15.718 -113.56 -47.154c-31.436 -31.436 -47.154 -69.29 -47.154 -113.561c0 0 0 -464.285 0 -464.285c0 -44.271 15.718 -82.125 47.154 -113.561c31.436 -31.436 69.289 -47.154 113.56 -47.154c0 0 392.857 0 392.857 0c5.209 0 9.487 1.674 12.835 5.023c3.348 3.348 5.023 7.626 5.023 12.834c0 0 0 35.715 0 35.715c0 5.208 -1.675 9.486 -5.023 12.835c-3.348 3.348 -7.626 5.022 -12.835 5.022c0 0 -392.857 0 -392.857 0c-24.553 0 -45.573 8.742 -63.058 26.228c-17.485 17.485 -26.227 38.504 -26.227 63.058c0 0 0 464.285 0 464.285c0 24.554 8.742 45.573 26.227 63.058c17.485 17.485 38.505 26.228 63.058 26.228c0 0 464.286 0 464.286 0c24.554 0 45.573 -8.743 63.058 -26.228c17.485 -17.485 26.228 -38.504 26.228 -63.058c0 0 0 -178.571 0 -178.571c0 -5.208 1.674 -9.487 5.022 -12.835c3.348 -3.348 7.627 -5.022 12.835 -5.022c0 0 35.714 0 35.714 0c5.208 0 9.487 1.674 12.835 5.022c3.348 3.348 5.022 7.627 5.022 12.835c0 0 0 0 0 0" />
  </g>
</svg>