<svg height="1000" width="769.5" xmlns="http://www.w3.org/2000/svg"><path d="M0 185.3q0-38.5 27.3-65.8t65.8-27.3 65.8 27.3 27.3 65.8-27.3 65.8-65.8 27.3-65.8-27.3-27.3-65.8zm5 652.3v-484.3q0-7.8 5.9-13.7t13.7-5.9h137.3q7.8 0 13.7 5.9t5.9 13.7v484.3q0 7.8-5.9 13.7t-13.7 5.9h-137.3q-7.8 0-13.7-5.9t-5.9-13.7zm251.1 0v-484.3q0-7.8 5.9-13.7t13.7-5.9h133.4q7.3 0 11.7 2.8t5.9 10.3 1.7 10 .3 12.6q51.9-48.5 137.3-48.5 95.4 0 149.5 47.7t54.1 142v327q0 7.8-5.9 13.7t-13.7 5.9h-140.6q-7.8 0-13.7-5.9t-5.9-13.7v-295.2q0-39.6-14.8-58t-53.3-18.4q-49.1 0-68.9 28.7t-19.8 80.1v262.8q0 7.8-5.9 13.7t-14.2 5.9h-137.3q-7.8 0-13.7-5.9t-5.9-13.7z"/></svg>