<svg height="1000px" width="900px" xmlns="http://www.w3.org/2000/svg">
  <g>
    <path d="M0 725c0 0 0 -450 0 -450c0 -20.667 4 -40.167 12 -58.5c8 -18.333 18.667 -34.167 32 -47.5c13.333 -13.333 29.167 -24 47.5 -32c18.333 -8 37.833 -12 58.5 -12c0 0 284 0 284 0c-0.667 4.667 -1.333 9.167 -2 13.5c-0.667 4.333 -1 9.167 -1 14.5c0 0 0 43 0 43c0 7.333 1 15 3 23c0 0 -284 0 -284 0c-15.333 0 -28.5 5.5 -39.5 16.5c-11 11 -16.5 24.167 -16.5 39.5c0 0 0 450 0 450c0 15.333 5.5 28.5 16.5 39.5c11 11 24.167 16.5 39.5 16.5c0 0 525 0 525 0c15.333 0 28.5 -5.5 39.5 -16.5c11 -11 16.5 -24.167 16.5 -39.5c0 0 0 -166 0 -166c13.333 10 28 18 44 24c16 6 32.667 9.333 50 10c0 0 0 132 0 132c0 20.667 -4 40 -12 58c-8 18 -18.833 33.833 -32.5 47.5c-13.667 13.667 -29.5 24.5 -47.5 32.5c-18 8 -37.333 12 -58 12c0 0 -525 0 -525 0c-20.667 0 -40.167 -4 -58.5 -12c-18.333 -8 -34.167 -18.833 -47.5 -32.5c-13.333 -13.667 -24 -29.5 -32 -47.5c-8 -18 -12 -37.333 -12 -58c0 0 0 0 0 0m338 -105c0 -8 2.667 -14.667 8 -20c0 0 376 -377 376 -377c0 0 -131 0 -131 0c-8 0 -14.667 -2.667 -20 -8c-5.333 -5.333 -8 -12 -8 -20c0 0 0 -42 0 -42c-0.667 -7.333 1.833 -13.833 7.5 -19.5c5.667 -5.667 12.5 -8.5 20.5 -8.5c0 0 281 0 281 0c7.333 0 13.833 2.833 19.5 8.5c5.667 5.667 8.5 12.167 8.5 19.5c0 0 0 42 0 42c0 0 0 239 0 239c0 8 -2.833 14.833 -8.5 20.5c-5.667 5.667 -12.167 8.167 -19.5 7.5c0 0 -42 0 -42 0c-8 0 -14.667 -2.667 -20 -8c-5.333 -5.333 -8 -12 -8 -20c0 0 0 -131 0 -131c0 0 -377 376 -377 376c-5.333 5.333 -12 8 -20 8c-8 0 -14.667 -2.667 -20 -8c0 0 -39 -39 -39 -39c-5.333 -5.333 -8 -12 -8 -20c0 0 0 0 0 0" />
  </g>
</svg>