<svg height="1000" width="857.1" xmlns="http://www.w3.org/2000/svg"><path d="M714.3 517.9V250q0 -14.5 -10.6 -25.1t-25.1 -10.6H410.7q-23.4 0 -32.9 21.7 -9.5 22.9 7.8 39.1l80.4 80.4 -298 298q-10.6 10.6 -10.6 25.1t10.6 25.1l56.9 56.9q10.6 10.6 25.1 10.6t25.1 -10.6l298 -298 80.4 80.4q10 10.6 25.1 10.6 6.7 0 13.9 -2.8 21.8 -9.5 21.8 -32.9zM857.1 232.1v535.8q0 66.4 -47.1 113.5t-113.6 47.2H160.7q-66.4 0 -113.5 -47.2T0 767.9V232.1Q0 165.7 47.2 118.6T160.7 71.4h535.7q66.4 0 113.6 47.2t47.1 113.5z"/></svg>