<svg height="1000" width="857.143" xmlns="http://www.w3.org/2000/svg"><path d="M714.24 517.888v-267.84q0 -14.508 -10.602 -25.11t-25.11 -10.602h-267.84q-23.436 0 -32.922 21.762 -9.486 22.878 7.812 39.06l80.352 80.352 -297.972 297.972q-10.602 10.602 -10.602 25.11t10.602 25.11l56.916 56.916q10.602 10.602 25.11 10.602t25.11 -10.602l297.972 -297.972 80.352 80.352q10.044 10.602 25.11 10.602 6.696 0 13.95 -2.79 21.762 -9.486 21.762 -32.922zm142.848 -285.696v535.68q0 66.402 -47.151 113.553t-113.553 47.151h-535.68q-66.402 0 -113.553 -47.151t-47.151 -113.553v-535.68q0 -66.402 47.151 -113.553t113.553 -47.151h535.68q66.402 0 113.553 47.151t47.151 113.553z"/></svg>