<svg height="1000px" width="769.53125px" xmlns="http://www.w3.org/2000/svg">
  <g>
    <path d="M0 185.2678571428571c0 -25.67 9.115 -47.619 27.344 -65.848c18.229 -18.229 40.178 -27.344 65.848 -27.344c25.67 0 47.619 9.115 65.848 27.344c18.229 18.229 27.344 40.178 27.344 65.848c0 25.67 -9.115 47.619 -27.344 65.848c-18.229 18.229 -40.178 27.344 -65.848 27.344c-25.67 0 -47.619 -9.115 -65.848 -27.344c-18.229 -18.229 -27.344 -40.178 -27.344 -65.848c0 0 0 0 0 0m5.022 652.344c0 0 0 -484.375 0 -484.375c0 -5.209 1.953 -9.766 5.86 -13.672c3.906 -3.906 8.463 -5.86 13.672 -5.86c0 0 137.276 0 137.276 0c5.209 0 9.766 1.954 13.672 5.86c3.906 3.906 5.86 8.463 5.86 13.672c0 0 0 484.375 0 484.375c0 5.208 -1.954 9.765 -5.86 13.672c-3.906 3.906 -8.463 5.859 -13.672 5.859c0 0 -137.276 0 -137.276 0c-5.209 0 -9.766 -1.953 -13.672 -5.859c-3.907 -3.907 -5.86 -8.464 -5.86 -13.672c0 0 0 0 0 0m251.116 0c0 0 0 -484.375 0 -484.375c0 -5.209 1.954 -9.766 5.86 -13.672c3.906 -3.906 8.463 -5.86 13.672 -5.86c0 0 133.37 0 133.37 0c4.836 0 8.743 0.931 11.719 2.791c2.976 1.86 4.929 5.301 5.859 10.323c0.93 5.023 1.488 8.371 1.674 10.045c0.186 1.674 0.279 5.859 0.279 12.556c34.599 -32.366 80.358 -48.549 137.277 -48.549c63.616 0 113.467 15.904 149.554 47.712c36.086 31.808 54.129 79.148 54.129 142.02c0 0 0 327.009 0 327.009c0 5.208 -1.953 9.765 -5.859 13.672c-3.906 3.906 -8.464 5.859 -13.672 5.859c0 0 -140.625 0 -140.625 0c-5.208 0 -9.766 -1.953 -13.672 -5.859c-3.906 -3.907 -5.859 -8.464 -5.859 -13.672c0 0 0 -295.201 0 -295.201c0 -26.414 -4.93 -45.759 -14.788 -58.036c-9.859 -12.277 -27.623 -18.415 -53.293 -18.415c-32.738 0 -55.71 9.58 -68.917 28.739c-13.207 19.159 -19.81 45.852 -19.81 80.078c0 0 0 262.835 0 262.835c0 5.208 -1.953 9.765 -5.86 13.672c-3.906 3.906 -8.649 5.859 -14.23 5.859c0 0 -137.276 0 -137.276 0c-5.209 0 -9.766 -1.953 -13.672 -5.859c-3.906 -3.907 -5.86 -8.464 -5.86 -13.672c0 0 0 0 0 0" />
  </g>
</svg>