<svg height="1000px" width="750px" xmlns="http://www.w3.org/2000/svg">
  <g>
    <path d="M0 781c0 0 0 -562 0 -562c0 -12.667 2.5 -24.833 7.5 -36.5c5 -11.667 11.667 -21.667 20 -30c8.333 -8.333 18.167 -15 29.5 -20c11.333 -5 23.667 -7.5 37 -7.5c0 0 562 0 562 0c26 0 48.167 9.167 66.5 27.5c18.333 18.333 27.5 40.5 27.5 66.5c0 0 0 562 0 562c0 13.333 -2.5 25.667 -7.5 37c-5 11.333 -11.667 21.167 -20 29.5c-8.333 8.333 -18.333 15 -30 20c-11.667 5 -23.833 7.5 -36.5 7.5c0 0 -562 0 -562 0c-26 0 -48.167 -9.167 -66.5 -27.5c-18.333 -18.333 -27.5 -40.5 -27.5 -66.5c0 0 0 0 0 0m101 -488c0 18.667 6.5 34.5 19.5 47.5c13 13 28.5 19.5 46.5 19.5c18.667 0 34.5 -6.5 47.5 -19.5c13 -13 19.5 -28.833 19.5 -47.5c0 -18 -6.5 -33.5 -19.5 -46.5c-13 -13 -28.833 -19.5 -47.5 -19.5c-18 0 -33.5 6.5 -46.5 19.5c-13 13 -19.5 28.5 -19.5 46.5c0 0 0 0 0 0m3 465c0 3.333 1.5 6.5 4.5 9.5c3 3 6.167 4.5 9.5 4.5c0 0 98 0 98 0c4 0 7.333 -1.5 10 -4.5c2.667 -3 4 -6.167 4 -9.5c0 0 0 -345 0 -345c0 -9.333 -4.667 -14 -14 -14c0 0 -98 0 -98 0c-3.333 0 -6.5 1.333 -9.5 4c-3 2.667 -4.5 6 -4.5 10c0 0 0 345 0 345c0 0 0 0 0 0m179 0c0 3.333 1.5 6.5 4.5 9.5c3 3 6.167 4.5 9.5 4.5c0 0 98 0 98 0c4 0 7.333 -1.5 10 -4.5c2.667 -3 4 -6.167 4 -9.5c0 0 0 -187 0 -187c0 -18.667 2.667 -34.333 8 -47c10 -20.667 28.333 -31 55 -31c21.333 0 35.333 6.333 42 19c4.667 7.333 7 19 7 35c0 0 0 211 0 211c0 3.333 1.333 6.5 4 9.5c2.667 3 6 4.5 10 4.5c0 0 100 0 100 0c4 0 7.333 -1.5 10 -4.5c2.667 -3 4 -6.167 4 -9.5c0 0 0 -233 0 -233c0 -48 -14 -82.667 -42 -104c-26.667 -20.667 -61 -31 -103 -31c-33.333 0 -61.667 7.667 -85 23c-2.667 2 -7 6 -13 12c0 0 0 -12 0 -12c0 -9.333 -4.667 -14 -14 -14c0 0 -95 0 -95 0c-3.333 0 -6.5 1.333 -9.5 4c-3 2.667 -4.5 6 -4.5 10c0 0 0 345 0 345c0 0 0 0 0 0" />
  </g>
</svg>