<svg height="1000" width="1000" xmlns="http://www.w3.org/2000/svg"><path d="M785.7 517.9v178.5q0 66.4 -47.1 113.6T625 857.1H160.7Q94.3 857.1 47.2 810T0 696.4V232.1Q0 165.7 47.2 118.6T160.7 71.4h392.9q7.8 0 12.8 5.1t5 12.8V125q0 7.8 -5 12.8t-12.8 5.1H160.7q-36.8 0 -63 26.2t-26.3 63v464.3q0 36.9 26.3 63.1t63 26.2H625q36.8 0 63.1 -26.2t26.2 -63.1V517.9q0 -7.9 5 -12.9t12.8 -5h35.8q7.8 0 12.8 5t5 12.9zM1000 35.7v285.7q0 14.5 -10.6 25.1t-25.1 10.6 -25.1 -10.6L841 248.3 477.1 612.2q-5.6 5.5 -12.8 5.5t-12.8 -5.5l-63.7 -63.7q-5.5 -5.5 -5.5 -12.8t5.5 -12.8L751.7 159 653.5 60.8Q642.9 50.2 642.9 35.7t10.6 -25.1T678.6 0h285.7q14.5 0 25.1 10.6t10.6 25.1z"/></svg>