<svg height="1000" width="928.6" xmlns="http://www.w3.org/2000/svg"><path d="M8.9 250q0-67 47.4-113.3l82-81.5q46.3-46.3 113.3-46.3 67.5 0 113.8 47.4l114.9 115.5q46.3 46.3 46.3 113.3 0 68.6-49.1 116.6l49.1 49.1q48-49.1 116.1-49.1 67 0 113.8 46.9l116.1 116.1q46.9 46.9 46.9 113.8t-47.4 113.3l-82 81.5q-46.3 46.3-113.3 46.3-67.5 0-113.8-47.4l-114.9-115.5q-46.3-46.3-46.3-113.3 0-68.6 49.1-116.6l-49.1-49.1q-48 49.1-116.1 49.1-67 0-113.8-46.9l-116.1-116.1q-46.9-46.9-46.9-113.8zm107.1 0q0 22.3 15.6 37.9l116.1 116.1q15.1 15.1 37.9 15.1 23.4 0 40.2-17.3-1.7-1.7-10.6-10.3t-12-12-8.4-10.6-7.3-14.2-2-15.3q0-22.3 15.6-37.9t37.9-15.6q8.4 0 15.3 2t14.2 7.3 10.6 8.4 12 12 10.3 10.6q18.4-17.3 18.4-40.7 0-22.3-15.6-37.9l-114.9-115.5q-15.6-15.6-37.9-15.6-21.8 0-37.9 15.1l-82 81.5q-15.6 15.6-15.6 37.4zm392.3 393.4q0 22.3 15.6 37.9l114.9 115.5q15.1 15.1 37.9 15.1 22.3 0 37.9-14.5l82-81.5q15.6-15.6 15.6-37.4 0-22.3-15.6-37.9l-116.1-116.1q-15.6-15.6-37.9-15.6-23.4 0-40.2 17.9 1.7 1.7 10.6 10.3t12 12 8.4 10.6 7.3 14.2 2 15.3q0 22.3-15.6 37.9t-37.9 15.6q-8.4 0-15.3-2t-14.2-7.3-10.6-8.4-12-12-10.3-10.6q-18.4 17.3-18.4 40.7z"/></svg>