<svg height="1000" width="1000" xmlns="http://www.w3.org/2000/svg"><path d="M0 696.448l0-464.256q0-66.402 47.151-113.553t113.553-47.151l392.832 0q7.812 0 12.834 5.022t5.022 12.834l0 35.712q0 7.812-5.022 12.834t-12.834 5.022l-392.832 0q-36.828 0-63.054 26.226t-26.226 63.054l0 464.256q0 36.828 26.226 63.054t63.054 26.226l464.256 0q36.828 0 63.054-26.226t26.226-63.054l0-178.56q0-7.812 5.022-12.834t12.834-5.022l35.712 0q7.812 0 12.834 5.022t5.022 12.834l0 178.56q0 66.402-47.151 113.553t-113.553 47.151l-464.256 0q-66.402 0-113.553-47.151t-47.151-113.553zm382.23-160.704q0-7.254 5.58-12.834l363.816-363.816-98.208-98.208q-10.602-10.602-10.602-25.11t10.602-25.11 25.11-10.602l285.696 0q14.508 0 25.11 10.602t10.602 25.11l0 285.696q0 14.508-10.602 25.11t-25.11 10.602-25.11-10.602l-98.208-98.208-363.816 363.816q-5.58 5.58-12.834 5.58t-12.834-5.58l-63.612-63.612q-5.58-5.58-5.58-12.834z"/></svg>