<svg height="1000" width="857.1" xmlns="http://www.w3.org/2000/svg"><path d="M184.2 856.6L296.9 976l-19 -131.7L157.4 725.4zm126.1 126.1L463.2 861 457 724.3l-167.4 120zm-173.6 -356l126.7 118.8L236.6 563.1 99.9 449.2zm139.5 125L453.1 632.3l-7.8 -180.8L248.9 563.1zm194.2 6.1l53 44.7 -1.1 -133.4L464.8 625q0 .6 .6 4.7t0 6.7 -2.8 4.2l-43.5 29 47.4 39.1q3.9 3.4 3.9 49.1zM77 338.2l142.9 111.6 -38 -259.5L26.2 93.8zm577.6 369.9l8.3 -130.5 -128.3 91.5 1.1 133.9zM232.7 454.2L440.8 346 430.2 99.9l-236 90.9zm476 203.7l11.2 -130L593.8 448.7l-1.2 58.6 80.4 53q3.3 2.2 2.2 5l-3.9 66.4zm106.6 -77.5L832 456.5l-99.9 71.4L721 655.1zm-104.9 93.1l-39.6 -27.3 -4.5 65.3q0 2.8 -2.2 4.5L533.5 820.3q-3.9 2.8 -7.8 0L471 774l3.9 89.8q0 2.8 -2.2 4.5L309.2 998.9q-2.3 1.1 -3.4 1.1 -4.5 -1.1 -4.5 -1.7l-127.2 -135Q171.9 861 141.2 708.7q-1.1 -3.9 2.8 -6.1l34 -20.7q-52.4 -48 -53 -51.3L84.8 434.7q-1.1 -3.9 3.4 -6.7l52.4 -25.1Q66.4 347.1 65.3 342.6L11.7 82.6Q10.6 77 15.6 75.3L257.3 0q2.7 0 4.4 .6l176.9 85.3q3.4 2.3 3.4 5.1l11.1 258.3q0 3.9 -3.3 5.6L383.9 389l70.3 47.4q2.8 1.1 2.8 4.4l2.8 68.7 67.5 -41.3q2.8 -2.2 6.2 0l46.9 31.2 1.6 -61.3q0 -3.4 2.8 -5.1l115 -70.3q3.3 -1.7 6.1 0l136.7 75.4q2.3 2.2 2.8 3.9t-3.6 33.4 -9.8 69.5 -5.5 39.4q0 2.8 -2.3 3.9l-106.6 85.3q-3.3 2.8 -7.2 0z"/></svg>