<svg height="1000" width="1000" xmlns="http://www.w3.org/2000/svg"><path d="M212.6 904q0 44.7 -30.4 70.3t-75.6 25.7q-59.2 0 -96 -36.8l31.8 -49.1q27.4 25.1 59.2 25.1 16.1 0 28.1 -8.1t12 -23.7q0 -35.7 -58.6 -31.3L68.6 844.9q4.5 -5.6 18.2 -24.3t23.7 -30.1T131.1 769v-.6q-8.9 0 -27 .6t-27.1 .5v29.6H17.9v-84.8h185.8v49.1l-53 64.2q28.4 6.7 45.2 27.3t16.7 49.1zm1.1 -349.9v88.8h-202Q8.4 622.8 8.4 612.7q0 -28.4 13.1 -51.9T53 522.9t36.8 -26.5 31.6 -24.3T134.5 447q0 -14 -8.1 -21.5t-22 -7.5q-25.7 0 -45.2 32.3L11.7 417.4Q25.1 389 51.6 373t58.9 -15.9q40.7 0 68.6 23.2t27.9 62.8q0 27.9 -18.9 51t-41.9 36 -42.1 28.2 -19.8 29.3h70.8v-33.5h58.6zm786.3 178v107.2q0 7.2 -5.3 12.5t-12.6 5.3H303.6q-7.3 0 -12.6 -5.3t-5.3 -12.5V732.1q0 -7.8 5 -12.8t12.9 -5h678.5q7.3 0 12.6 5.3t5.3 12.5zM214.3 230.5v55.2h-187v-55.2h59.8q0 -22.9 .2 -68.1t.3 -67.5v-6.7h-1.1Q82 97.7 58.6 118.3L19 75.9 94.9 5H154v225.5h60.3zM1000 446.4v107.2q0 7.2 -5.3 12.5t-12.6 5.3H303.6q-7.3 0 -12.6 -5.3t-5.3 -12.5V446.4q0 -7.8 5 -12.8t12.9 -5h678.5q7.3 0 12.6 5.3t5.3 12.5zm0 -285.7v107.2q0 7.2 -5.3 12.5t-12.6 5.3H303.6q-7.3 0 -12.6 -5.3t-5.3 -12.5V160.7q0 -7.2 5.3 -12.5t12.6 -5.3h678.5q7.3 0 12.6 5.3t5.3 12.5z"/></svg>