<svg height="1000" width="1000" xmlns="http://www.w3.org/2000/svg"><path d="M8.4 612.7q0-28.5 13.1-51.9t31.5-37.9 36.8-26.5 31.5-24.3 13.1-25.1q0-14-8.1-21.5t-22-7.5q-25.7 0-45.2 32.4l-47.4-32.9q13.4-28.5 39.9-44.4t58.9-15.9q40.7 0 68.6 23.2t27.9 62.8q0 27.9-19 51.1t-41.9 36-42.1 28.2-19.8 29.3h70.9v-33.5h58.6v88.7h-202q-3.3-20.1-3.3-30.1zm2.2 350.4l31.8-49.1q27.3 25.1 59.1 25.1 16.2 0 28.2-8.1t12-23.7q0-35.7-58.6-31.2l-14.5-31.2q4.5-5.6 18.1-24.3t23.7-30.1 20.6-21.5v-.6q-8.9 0-27.1.6t-27.1.6v29.6h-59.1v-84.8h185.8v49.1l-53 64.2q28.5 6.7 45.2 27.3t16.7 49.1q0 44.6-30.4 70.3t-75.6 25.7q-59.1 0-96-36.8zm8.4-887.2l75.9-70.9h59.1v225.4h60.3v55.2h-186.9v-55.2h59.7q0-22.9.3-68.1t.3-67.5v-6.7h-1.1q-4.5 9.5-27.9 30.1zm266.7 763.3v-107.1q0-7.8 5-12.8t12.8-5h678.5q7.3 0 12.6 5.3t5.3 12.6v107.1q0 7.3-5.3 12.6t-12.6 5.3h-678.5q-7.3 0-12.6-5.3t-5.3-12.6zm0-285.7v-107.1q0-7.8 5-12.8t12.8-5h678.5q7.3 0 12.6 5.3t5.3 12.6v107.1q0 7.3-5.3 12.6t-12.6 5.3h-678.5q-7.3 0-12.6-5.3t-5.3-12.6zm0-285.7v-107.1q0-7.3 5.3-12.6t12.6-5.3h678.5q7.3 0 12.6 5.3t5.3 12.6v107.1q0 7.3-5.3 12.6t-12.6 5.3h-678.5q-7.3 0-12.6-5.3t-5.3-12.6z"/></svg>