<svg height="1000px" width="1000px" xmlns="http://www.w3.org/2000/svg">
  <g>
    <path d="M1000 160.71428571428567c0 0 0 607.143 0 607.143c0 24.553 -8.743 45.573 -26.228 63.058c-17.485 17.485 -38.504 26.228 -63.058 26.228c0 0 -821.428 0 -821.428 0c-24.554 0 -45.573 -8.743 -63.058 -26.228c-17.485 -17.485 -26.228 -38.505 -26.228 -63.058c0 0 0 -607.143 0 -607.143c0 -24.554 8.743 -45.573 26.228 -63.058c17.485 -17.485 38.504 -26.228 63.058 -26.228c0 0 821.428 0 821.428 0c24.554 0 45.573 8.743 63.058 26.228c17.485 17.485 26.228 38.504 26.228 63.058c0 0 0 0 0 0m-71.429 607.143c0 0 0 -464.286 0 -464.286c0 -4.836 -1.767 -9.021 -5.301 -12.556c-3.534 -3.534 -7.719 -5.301 -12.556 -5.301c0 0 -821.428 0 -821.428 0c-4.837 0 -9.022 1.767 -12.556 5.301c-3.534 3.535 -5.301 7.72 -5.301 12.556c0 0 0 464.286 0 464.286c0 4.836 1.767 9.021 5.301 12.556c3.534 3.534 7.719 5.301 12.556 5.301c0 0 821.428 0 821.428 0c4.837 0 9.022 -1.767 12.556 -5.301c3.534 -3.535 5.301 -7.72 5.301 -12.556c0 0 0 0 0 0m-71.428 -392.857c0 0 0 35.714 0 35.714c0 4.836 -1.767 9.022 -5.301 12.556c-3.535 3.534 -7.72 5.301 -12.556 5.301c0 0 -535.715 0 -535.715 0c-4.836 0 -9.021 -1.767 -12.555 -5.301c-3.535 -3.534 -5.302 -7.72 -5.302 -12.556c0 0 0 -35.714 0 -35.714c0 -4.837 1.767 -9.022 5.302 -12.556c3.534 -3.534 7.719 -5.301 12.555 -5.301c0 0 535.715 0 535.715 0c4.836 0 9.021 1.767 12.556 5.301c3.534 3.534 5.301 7.719 5.301 12.556c0 0 0 0 0 0m0 142.857c0 0 0 35.714 0 35.714c0 4.836 -1.767 9.022 -5.301 12.556c-3.535 3.534 -7.72 5.301 -12.556 5.301c0 0 -535.715 0 -535.715 0c-4.836 0 -9.021 -1.767 -12.555 -5.301c-3.535 -3.534 -5.302 -7.72 -5.302 -12.556c0 0 0 -35.714 0 -35.714c0 -4.836 1.767 -9.022 5.302 -12.556c3.534 -3.534 7.719 -5.301 12.555 -5.301c0 0 535.715 0 535.715 0c4.836 0 9.021 1.767 12.556 5.301c3.534 3.534 5.301 7.72 5.301 12.556c0 0 0 0 0 0m0 142.857c0 0 0 35.714 0 35.714c0 4.837 -1.767 9.022 -5.301 12.556c-3.535 3.534 -7.72 5.301 -12.556 5.301c0 0 -535.715 0 -535.715 0c-4.836 0 -9.021 -1.767 -12.555 -5.301c-3.535 -3.534 -5.302 -7.719 -5.302 -12.556c0 0 0 -35.714 0 -35.714c0 -4.836 1.767 -9.022 5.302 -12.556c3.534 -3.534 7.719 -5.301 12.555 -5.301c0 0 535.715 0 535.715 0c4.836 0 9.021 1.767 12.556 5.301c3.534 3.534 5.301 7.72 5.301 12.556c0 0 0 0 0 0m-642.857 -285.714c0 0 0 35.714 0 35.714c0 4.836 -1.767 9.022 -5.302 12.556c-3.534 3.534 -7.719 5.301 -12.555 5.301c0 0 -35.715 0 -35.715 0c-4.836 0 -9.021 -1.767 -12.556 -5.301c-3.534 -3.534 -5.301 -7.72 -5.301 -12.556c0 0 0 -35.714 0 -35.714c0 -4.837 1.767 -9.022 5.301 -12.556c3.535 -3.534 7.72 -5.301 12.556 -5.301c0 0 35.715 0 35.715 0c4.836 0 9.021 1.767 12.555 5.301c3.535 3.534 5.302 7.719 5.302 12.556c0 0 0 0 0 0m0 142.857c0 0 0 35.714 0 35.714c0 4.836 -1.767 9.022 -5.302 12.556c-3.534 3.534 -7.719 5.301 -12.555 5.301c0 0 -35.715 0 -35.715 0c-4.836 0 -9.021 -1.767 -12.556 -5.301c-3.534 -3.534 -5.301 -7.72 -5.301 -12.556c0 0 0 -35.714 0 -35.714c0 -4.836 1.767 -9.022 5.301 -12.556c3.535 -3.534 7.72 -5.301 12.556 -5.301c0 0 35.715 0 35.715 0c4.836 0 9.021 1.767 12.555 5.301c3.535 3.534 5.302 7.72 5.302 12.556c0 0 0 0 0 0m0 142.857c0 0 0 35.714 0 35.714c0 4.837 -1.767 9.022 -5.302 12.556c-3.534 3.534 -7.719 5.301 -12.555 5.301c0 0 -35.715 0 -35.715 0c-4.836 0 -9.021 -1.767 -12.556 -5.301c-3.534 -3.534 -5.301 -7.719 -5.301 -12.556c0 0 0 -35.714 0 -35.714c0 -4.836 1.767 -9.022 5.301 -12.556c3.535 -3.534 7.72 -5.301 12.556 -5.301c0 0 35.715 0 35.715 0c4.836 0 9.021 1.767 12.555 5.301c3.535 3.534 5.302 7.72 5.302 12.556c0 0 0 0 0 0" />
  </g>
</svg>