<svg height="1000px" width="899.90234375px" xmlns="http://www.w3.org/2000/svg">
  <g>
    <path d="M0 836.9140625c0 0 0 -56.152 0 -56.152c0 -10.091 3.662 -18.718 10.986 -25.879c7.325 -7.162 16.358 -10.742 27.1 -10.742c0 0 74.707 0 74.707 0c10.091 0 18.799 3.662 26.123 10.986c7.324 7.324 10.986 15.869 10.986 25.635c0 0 0 56.152 0 56.152c0 10.742 -3.662 19.775 -10.986 27.1c-7.324 7.324 -16.032 10.986 -26.123 10.986c0 0 -74.707 0 -74.707 0c-10.742 0 -19.775 -3.662 -27.1 -10.986c-7.324 -7.325 -10.986 -16.358 -10.986 -27.1c0 0 0 0 0 0m0 -206.055c0 0 0 -55.664 0 -55.664c0 -10.742 3.662 -19.775 10.986 -27.099c7.325 -7.325 16.358 -10.987 27.1 -10.987c0 0 74.707 0 74.707 0c10.091 0 18.799 3.662 26.123 10.987c7.324 7.324 10.986 16.357 10.986 27.099c0 0 0 55.664 0 55.664c0 10.743 -3.662 19.776 -10.986 27.1c-7.324 7.324 -16.032 10.986 -26.123 10.986c0 0 -74.707 0 -74.707 0c-10.742 0 -19.775 -3.662 -27.1 -10.986c-7.324 -7.324 -10.986 -16.357 -10.986 -27.1c0 0 0 0 0 0m0 -206.054c0 0 0 -55.664 0 -55.664c0 -10.743 3.662 -19.776 10.986 -27.1c7.325 -7.324 16.358 -10.986 27.1 -10.986c0 0 74.707 0 74.707 0c10.091 0 18.799 3.662 26.123 10.986c7.324 7.324 10.986 16.357 10.986 27.1c0 0 0 55.664 0 55.664c0 10.742 -3.662 19.612 -10.986 26.611c-7.324 6.999 -16.032 10.498 -26.123 10.498c0 0 -74.707 0 -74.707 0c-10.742 0 -19.775 -3.499 -27.1 -10.498c-7.324 -6.999 -10.986 -15.869 -10.986 -26.611c0 0 0 0 0 0m0 -205.567c0 0 0 -57.129 0 -57.129c0 -10.091 3.662 -18.799 10.986 -26.123c7.325 -7.324 16.358 -10.986 27.1 -10.986c0 0 74.707 0 74.707 0c10.091 0 18.799 3.662 26.123 10.986c7.324 7.324 10.986 16.032 10.986 26.123c0 0 0 57.129 0 57.129c0 10.091 -3.662 18.718 -10.986 25.879c-7.324 7.162 -16.032 10.742 -26.123 10.742c0 0 -74.707 0 -74.707 0c-10.742 0 -19.775 -3.662 -27.1 -10.986c-7.324 -7.324 -10.986 -15.869 -10.986 -25.635c0 0 0 0 0 0m225.098 617.676c0 0 0 -56.152 0 -56.152c0 -10.091 3.662 -18.718 10.986 -25.879c7.324 -7.162 16.357 -10.742 27.1 -10.742c0 0 599.609 0 599.609 0c10.091 0 18.799 3.662 26.123 10.986c7.324 7.324 10.986 15.869 10.986 25.635c0 0 0 56.152 0 56.152c0 10.742 -3.662 19.775 -10.986 27.1c-7.324 7.324 -16.032 10.986 -26.123 10.986c0 0 -599.609 0 -599.609 0c-10.743 0 -19.776 -3.662 -27.1 -10.986c-7.324 -7.325 -10.986 -16.358 -10.986 -27.1c0 0 0 0 0 0m0 -206.055c0 0 0 -55.664 0 -55.664c0 -10.742 3.662 -19.775 10.986 -27.099c7.324 -7.325 16.357 -10.987 27.1 -10.987c0 0 599.609 0 599.609 0c10.091 0 18.799 3.662 26.123 10.987c7.324 7.324 10.986 16.357 10.986 27.099c0 0 0 55.664 0 55.664c0 10.743 -3.662 19.776 -10.986 27.1c-7.324 7.324 -16.032 10.986 -26.123 10.986c0 0 -599.609 0 -599.609 0c-10.743 0 -19.776 -3.662 -27.1 -10.986c-7.324 -7.324 -10.986 -16.357 -10.986 -27.1c0 0 0 0 0 0m0 -206.054c0 0 0 -55.664 0 -55.664c0 -10.743 3.662 -19.776 10.986 -27.1c7.324 -7.324 16.357 -10.986 27.1 -10.986c0 0 599.609 0 599.609 0c10.091 0 18.799 3.662 26.123 10.986c7.324 7.324 10.986 16.357 10.986 27.1c0 0 0 55.664 0 55.664c0 10.742 -3.662 19.612 -10.986 26.611c-7.324 6.999 -16.032 10.498 -26.123 10.498c0 0 -599.609 0 -599.609 0c-10.743 0 -19.776 -3.499 -27.1 -10.498c-7.324 -6.999 -10.986 -15.869 -10.986 -26.611c0 0 0 0 0 0m0 -205.567c0 0 0 -57.129 0 -57.129c0 -10.091 3.662 -18.799 10.986 -26.123c7.324 -7.324 16.357 -10.986 27.1 -10.986c0 0 599.609 0 599.609 0c10.091 0 18.799 3.662 26.123 10.986c7.324 7.324 10.986 16.032 10.986 26.123c0 0 0 57.129 0 57.129c0 10.091 -3.662 18.718 -10.986 25.879c-7.324 7.162 -16.032 10.742 -26.123 10.742c0 0 -599.609 0 -599.609 0c-10.743 0 -19.776 -3.662 -27.1 -10.986c-7.324 -7.324 -10.986 -15.869 -10.986 -25.635c0 0 0 0 0 0" />
  </g>
</svg>