<svg height="1000" width="1000" xmlns="http://www.w3.org/2000/svg"><path d="M214.3 660.7v35.7q0 7.3 -5.3 12.6t-12.6 5.3h-35.7q-7.2 0 -12.5 -5.3t-5.3 -12.6v-35.7q0 -7.2 5.3 -12.5t12.5 -5.3h35.7q7.3 0 12.6 5.3t5.3 12.5zm0 -142.8v35.7q0 7.2 -5.3 12.5t-12.6 5.3h-35.7q-7.2 0 -12.5 -5.3t-5.3 -12.5v-35.7q0 -7.3 5.3 -12.6t12.5 -5.3h35.7q7.3 0 12.6 5.3t5.3 12.6zm0 -142.9v35.7q0 7.3 -5.3 12.6t-12.6 5.3h-35.7q-7.2 0 -12.5 -5.3t-5.3 -12.6V375q0 -7.3 5.3 -12.6t12.5 -5.3h35.7q7.3 0 12.6 5.3t5.3 12.6zm642.8 285.7v35.7q0 7.3 -5.3 12.6t-12.5 5.3H303.6q-7.3 0 -12.6 -5.3t-5.3 -12.6v-35.7q0 -7.2 5.3 -12.5t12.6 -5.3h535.7q7.2 0 12.5 5.3t5.3 12.5zm0 -142.8v35.7q0 7.2 -5.3 12.5t-12.5 5.3H303.6q-7.3 0 -12.6 -5.3t-5.3 -12.5v-35.7q0 -7.3 5.3 -12.6t12.6 -5.3h535.7q7.2 0 12.5 5.3t5.3 12.6zm0 -142.9v35.7q0 7.3 -5.3 12.6t-12.5 5.3H303.6q-7.3 0 -12.6 -5.3t-5.3 -12.6V375q0 -7.3 5.3 -12.6t12.6 -5.3h535.7q7.2 0 12.5 5.3t5.3 12.6zm71.5 392.9V303.6q0 -7.3 -5.3 -12.6t-12.6 -5.3H89.3q-7.3 0 -12.6 5.3t-5.3 12.6v464.3q0 7.2 5.3 12.5t12.6 5.3h821.4q7.3 0 12.6 -5.3t5.3 -12.5zM1000 160.7v607.2q0 36.8 -26.2 63t-63.1 26.2H89.3q-36.8 0 -63.1 -26.2T0 767.9V160.7q0 -36.8 26.2 -63T89.3 71.4h821.4q36.8 0 63.1 26.3t26.2 63z"/></svg>