<svg height="1000" width="1032" xmlns="http://www.w3.org/2000/svg"><path d="M0 612.748q0-28.458 13.113-51.894t31.527-37.944 36.828-26.505 31.527-24.273 13.113-25.11q0-13.95-8.091-21.483t-22.041-7.533q-25.668 0-45.198 32.364l-47.43-32.922q13.392-28.458 39.897-44.361t58.869-15.903q40.734 0 68.634 23.157t27.9 62.775q0 27.9-18.972 51.057t-41.85 35.991-42.129 28.179-19.809 29.295l70.866 0l0-33.48l58.59 0l0 88.722l-201.996 0q-3.348-20.088-3.348-30.132zm2.232 350.424l31.806-49.104q27.342 25.11 59.148 25.11 16.182 0 28.179-8.091t11.997-23.715q0-35.712-58.59-31.248l-14.508-31.248q4.464-5.58 18.135-24.273t23.715-30.132 20.646-21.483l0-.558q-8.928 0-27.063.558t-27.063.558l0 29.574l-59.148 0l0-84.816l185.814 0l0 49.104l-53.01 64.17q28.458 6.696 45.198 27.342t16.74 49.104q0 44.64-30.411 70.308t-75.609 25.668q-59.148 0-95.976-36.828zm8.37-887.22l75.888-70.866l59.148 0l0 225.432l60.264 0l0 55.242l-186.93 0l0-55.242l59.706 0q0-22.878.279-68.076t.279-67.518l0-6.696l-1.116 0q-4.464 9.486-27.9 30.132zm266.724 763.344l0-107.136q0-7.812 5.022-12.834t12.834-5.022l678.528 0q7.254 0 12.555 5.301t5.301 12.555l0 107.136q0 7.254-5.301 12.555t-12.555 5.301l-678.528 0q-7.254 0-12.555-5.301t-5.301-12.555zm0-285.696l0-107.136q0-7.812 5.022-12.834t12.834-5.022l678.528 0q7.254 0 12.555 5.301t5.301 12.555l0 107.136q0 7.254-5.301 12.555t-12.555 5.301l-678.528 0q-7.254 0-12.555-5.301t-5.301-12.555zm0-285.696l0-107.136q0-7.254 5.301-12.555t12.555-5.301l678.528 0q7.254 0 12.555 5.301t5.301 12.555l0 107.136q0 7.254-5.301 12.555t-12.555 5.301l-678.528 0q-7.254 0-12.555-5.301t-5.301-12.555z"/></svg>