<svg height="1000" width="1000" xmlns="http://www.w3.org/2000/svg"><path d="M0 785.728q0-44.64 31.248-75.888t75.888-31.248 75.888 31.248 31.248 75.888-31.248 75.888-75.888 31.248-75.888-31.248-31.248-75.888zm0-285.696q0-44.64 31.248-75.888t75.888-31.248 75.888 31.248 31.248 75.888-31.248 75.888-75.888 31.248-75.888-31.248-31.248-75.888zm0-285.696q0-44.64 31.248-75.888t75.888-31.248 75.888 31.248 31.248 75.888-31.248 75.888-75.888 31.248-75.888-31.248-31.248-75.888zm285.696 624.96l0-107.136q0-7.254 5.301-12.555t12.555-5.301l678.528 0q7.254 0 12.555 5.301t5.301 12.555l0 107.136q0 7.254-5.301 12.555t-12.555 5.301l-678.528 0q-7.254 0-12.555-5.301t-5.301-12.555zm0-285.696l0-107.136q0-7.254 5.301-12.555t12.555-5.301l678.528 0q7.254 0 12.555 5.301t5.301 12.555l0 107.136q0 7.254-5.301 12.555t-12.555 5.301l-678.528 0q-7.254 0-12.555-5.301t-5.301-12.555zm0-285.696l0-107.136q0-7.254 5.301-12.555t12.555-5.301l678.528 0q7.254 0 12.555 5.301t5.301 12.555l0 107.136q0 7.254-5.301 12.555t-12.555 5.301l-678.528 0q-7.254 0-12.555-5.301t-5.301-12.555z"/></svg>