<svg height="1000" width="1000" xmlns="http://www.w3.org/2000/svg"><path d="M0 767.9v-607.1q0-36.8 26.2-63.1t63.1-26.2h821.4q36.8 0 63.1 26.2t26.2 63.1v607.1q0 36.8-26.2 63.1t-63.1 26.2h-821.4q-36.8 0-63.1-26.2t-26.2-63.1zm71.4 0q0 7.3 5.3 12.6t12.6 5.3h821.4q7.3 0 12.6-5.3t5.3-12.6v-464.3q0-7.3-5.3-12.6t-12.6-5.3h-821.4q-7.3 0-12.6 5.3t-5.3 12.6v464.3zm71.4-71.4v-35.7q0-7.3 5.3-12.6t12.6-5.3h35.7q7.3 0 12.6 5.3t5.3 12.6v35.7q0 7.3-5.3 12.6t-12.6 5.3h-35.7q-7.3 0-12.6-5.3t-5.3-12.6zm0-142.8v-35.7q0-7.3 5.3-12.6t12.6-5.3h35.7q7.3 0 12.6 5.3t5.3 12.6v35.7q0 7.3-5.3 12.6t-12.6 5.3h-35.7q-7.3 0-12.6-5.3t-5.3-12.6zm0-142.8v-35.7q0-7.3 5.3-12.6t12.6-5.3h35.7q7.3 0 12.6 5.3t5.3 12.6v35.7q0 7.3-5.3 12.6t-12.6 5.3h-35.7q-7.3 0-12.6-5.3t-5.3-12.6zm142.8 285.7v-35.7q0-7.3 5.3-12.6t12.6-5.3h535.7q7.3 0 12.6 5.3t5.3 12.6v35.7q0 7.3-5.3 12.6t-12.6 5.3h-535.7q-7.3 0-12.6-5.3t-5.3-12.6zm0-142.8v-35.7q0-7.3 5.3-12.6t12.6-5.3h535.7q7.3 0 12.6 5.3t5.3 12.6v35.7q0 7.3-5.3 12.6t-12.6 5.3h-535.7q-7.3 0-12.6-5.3t-5.3-12.6zm0-142.8v-35.7q0-7.3 5.3-12.6t12.6-5.3h535.7q7.3 0 12.6 5.3t5.3 12.6v35.7q0 7.3-5.3 12.6t-12.6 5.3h-535.7q-7.3 0-12.6-5.3t-5.3-12.6z"/></svg>