<svg height="1000px" width="1000px" xmlns="http://www.w3.org/2000/svg">
  <g>
    <path d="M8.370535714285715 612.7232142857142c0 -18.973 4.371 -36.272 13.114 -51.897c8.742 -15.625 19.252 -28.274 31.529 -37.947c12.277 -9.672 24.553 -18.508 36.83 -26.506c12.277 -7.999 22.787 -16.09 31.529 -24.275c8.743 -8.185 13.114 -16.555 13.114 -25.112c0 -9.3 -2.697 -16.462 -8.091 -21.484c-5.395 -5.022 -12.742 -7.533 -22.043 -7.533c-17.113 0 -32.18 10.788 -45.201 32.366c0 0 -47.433 -32.924 -47.433 -32.924c8.929 -18.974 22.229 -33.762 39.9 -44.364c17.671 -10.603 37.295 -15.904 58.873 -15.904c27.157 0 50.037 7.719 68.638 23.158c18.601 15.439 27.902 36.365 27.902 62.779c0 18.601 -6.325 35.621 -18.974 51.06c-12.648 15.439 -26.599 27.437 -41.852 35.994c-15.253 8.556 -29.297 17.95 -42.132 28.181c-12.835 10.23 -19.438 19.996 -19.81 29.296c0 0 70.87 0 70.87 0c0 0 0 -33.482 0 -33.482c0 0 58.594 0 58.594 0c0 0 0 88.728 0 88.728c0 0 -202.009 0 -202.009 0c-2.232 -13.393 -3.348 -23.438 -3.348 -30.134c0 0 0 0 0 0m2.232 350.446c0 0 31.808 -49.107 31.808 -49.107c18.229 16.741 37.947 25.112 59.152 25.112c10.789 0 20.182 -2.697 28.181 -8.092c7.998 -5.394 11.998 -13.299 11.998 -23.716c0 -23.81 -19.532 -34.226 -58.594 -31.25c0 0 -14.509 -31.25 -14.509 -31.25c2.976 -3.72 9.021 -11.812 18.136 -24.275c9.115 -12.462 17.02 -22.507 23.717 -30.134c6.696 -7.626 13.578 -14.788 20.647 -21.484c0 0 0 -0.558 0 -0.558c-5.953 0 -14.974 0.186 -27.065 0.558c-12.091 0.372 -21.112 0.558 -27.065 0.558c0 0 0 29.576 0 29.576c0 0 -59.151 0 -59.151 0c0 0 0 -84.822 0 -84.822c0 0 185.826 0 185.826 0c0 0 0 49.108 0 49.108c0 0 -53.014 64.174 -53.014 64.174c18.973 4.464 34.04 13.579 45.201 27.343c11.161 13.765 16.741 30.134 16.741 49.108c0 29.762 -10.138 53.199 -30.413 70.312c-20.275 17.113 -45.48 25.67 -75.614 25.67c-39.434 0 -71.428 -12.277 -95.982 -36.831c0 0 0 0 0 0m8.371 -887.276c0 0 75.893 -70.871 75.893 -70.871c0 0 59.151 0 59.151 0c0 0 0 225.447 0 225.447c0 0 60.268 0 60.268 0c0 0 0 55.245 0 55.245c0 0 -186.942 0 -186.942 0c0 0 0 -55.245 0 -55.245c0 0 59.71 0 59.71 0c0 -15.253 0.093 -37.947 0.279 -68.081c0.186 -30.134 0.279 -52.641 0.279 -67.522c0 0 0 -6.697 0 -6.697c0 0 -1.116 0 -1.116 0c-2.976 6.325 -12.277 16.369 -27.902 30.134c0 0 -39.62 -42.41 -39.62 -42.41m266.741 763.393c0 0 0 -107.143 0 -107.143c0 -5.209 1.674 -9.487 5.022 -12.835c3.348 -3.348 7.627 -5.022 12.835 -5.022c0 0 678.571 0 678.571 0c4.837 0 9.022 1.767 12.556 5.301c3.534 3.534 5.301 7.719 5.301 12.556c0 0 0 107.143 0 107.143c0 4.836 -1.767 9.021 -5.301 12.555c-3.534 3.535 -7.719 5.302 -12.556 5.302c0 0 -678.571 0 -678.571 0c-4.836 0 -9.022 -1.767 -12.556 -5.302c-3.534 -3.534 -5.301 -7.719 -5.301 -12.555c0 0 0 0 0 0m0 -285.715c0 0 0 -107.143 0 -107.143c0 -5.208 1.674 -9.486 5.022 -12.834c3.348 -3.349 7.627 -5.023 12.835 -5.023c0 0 678.571 0 678.571 0c4.837 0 9.022 1.767 12.556 5.302c3.534 3.534 5.301 7.719 5.301 12.555c0 0 0 107.143 0 107.143c0 4.837 -1.767 9.022 -5.301 12.556c-3.534 3.534 -7.719 5.301 -12.556 5.301c0 0 -678.571 0 -678.571 0c-4.836 0 -9.022 -1.767 -12.556 -5.301c-3.534 -3.534 -5.301 -7.719 -5.301 -12.556c0 0 0 0 0 0m0 -285.714c0 0 0 -107.143 0 -107.143c0 -4.836 1.767 -9.022 5.301 -12.556c3.534 -3.534 7.72 -5.301 12.556 -5.301c0 0 678.571 0 678.571 0c4.837 0 9.022 1.767 12.556 5.301c3.534 3.534 5.301 7.72 5.301 12.556c0 0 0 107.143 0 107.143c0 4.836 -1.767 9.022 -5.301 12.556c-3.534 3.534 -7.719 5.301 -12.556 5.301c0 0 -678.571 0 -678.571 0c-4.836 0 -9.022 -1.767 -12.556 -5.301c-3.534 -3.534 -5.301 -7.72 -5.301 -12.556c0 0 0 0 0 0" />
  </g>
</svg>