<svg height="1000px" width="900px" xmlns="http://www.w3.org/2000/svg">
  <g>
    <path d="M0 819c0 0 0 -638 0 -638c0 -15.333 5.5 -28.5 16.5 -39.5c11 -11 24.167 -16.5 39.5 -16.5c0 0 788 0 788 0c15.333 0 28.5 5.5 39.5 16.5c11 11 16.5 24.167 16.5 39.5c0 0 0 638 0 638c0 15.333 -5.5 28.5 -16.5 39.5c-11 11 -24.167 16.5 -39.5 16.5c0 0 -788 0 -788 0c-15.333 0 -28.5 -5.5 -39.5 -16.5c-11 -11 -16.5 -24.167 -16.5 -39.5c0 0 0 0 0 0m75 -19c0 0 750 0 750 0c0 0 0 -525 0 -525c0 0 -750 0 -750 0c0 0 0 525 0 525c0 0 0 0 0 0m75 -94c0 0 0 -37 0 -37c0 -12.667 6.333 -19 19 -19c0 0 75 0 75 0c5.333 0 9.833 1.833 13.5 5.5c3.667 3.667 5.5 8.167 5.5 13.5c0 0 0 37 0 37c0 5.333 -1.833 9.833 -5.5 13.5c-3.667 3.667 -8.167 5.5 -13.5 5.5c0 0 -75 0 -75 0c-12.667 0 -19 -6.333 -19 -19c0 0 0 0 0 0m0 -150c0 0 0 -37 0 -37c0 -12.667 6.333 -19 19 -19c0 0 75 0 75 0c5.333 0 9.833 1.833 13.5 5.5c3.667 3.667 5.5 8.167 5.5 13.5c0 0 0 37 0 37c0 5.333 -1.833 9.833 -5.5 13.5c-3.667 3.667 -8.167 5.5 -13.5 5.5c0 0 -75 0 -75 0c-12.667 0 -19 -6.333 -19 -19c0 0 0 0 0 0m0 -150c0 0 0 -37 0 -37c0 -12.667 6.333 -19 19 -19c0 0 75 0 75 0c5.333 0 9.833 1.833 13.5 5.5c3.667 3.667 5.5 8.167 5.5 13.5c0 0 0 37 0 37c0 5.333 -1.833 9.833 -5.5 13.5c-3.667 3.667 -8.167 5.5 -13.5 5.5c0 0 -75 0 -75 0c-12.667 0 -19 -6.333 -19 -19c0 0 0 0 0 0m188 300c0 0 0 -37 0 -37c0 -5.333 1.667 -9.833 5 -13.5c3.333 -3.667 7.667 -5.5 13 -5.5c0 0 375 0 375 0c12.667 0 19 6.333 19 19c0 0 0 37 0 37c0 12.667 -6.333 19 -19 19c0 0 -375 0 -375 0c-5.333 0 -9.667 -1.833 -13 -5.5c-3.333 -3.667 -5 -8.167 -5 -13.5c0 0 0 0 0 0m0 -150c0 0 0 -37 0 -37c0 -5.333 1.667 -9.833 5 -13.5c3.333 -3.667 7.667 -5.5 13 -5.5c0 0 375 0 375 0c12.667 0 19 6.333 19 19c0 0 0 37 0 37c0 12.667 -6.333 19 -19 19c0 0 -375 0 -375 0c-5.333 0 -9.667 -1.833 -13 -5.5c-3.333 -3.667 -5 -8.167 -5 -13.5c0 0 0 0 0 0m0 -150c0 0 0 -37 0 -37c0 -5.333 1.667 -9.833 5 -13.5c3.333 -3.667 7.667 -5.5 13 -5.5c0 0 375 0 375 0c12.667 0 19 6.333 19 19c0 0 0 37 0 37c0 12.667 -6.333 19 -19 19c0 0 -375 0 -375 0c-5.333 0 -9.667 -1.833 -13 -5.5c-3.333 -3.667 -5 -8.167 -5 -13.5c0 0 0 0 0 0" />
  </g>
</svg>