<svg height="1000" width="1000" xmlns="http://www.w3.org/2000/svg"><path d="M142.9 732.1v107.2q0 7.2 -5.3 12.5t-12.6 5.3H17.9q-7.3 0 -12.6 -5.3T0 839.3V732.1q0 -7.2 5.3 -12.5t12.6 -5.3H125q7.3 0 12.6 5.3t5.3 12.5zm0 -214.2V625q0 7.3 -5.3 12.6t-12.6 5.3H17.9q-7.3 0 -12.6 -5.3T0 625V517.9q0 -7.3 5.3 -12.6T17.9 500H125q7.3 0 12.6 5.3t5.3 12.6zm0 -214.3v107.1q0 7.3 -5.3 12.6t-12.6 5.3H17.9q-7.3 0 -12.6 -5.3T0 410.7V303.6Q0 296.3 5.3 291t12.6 -5.3H125q7.3 0 12.6 5.3t5.3 12.6zM1000 732.1v107.2q0 7.2 -5.3 12.5t-12.6 5.3h-750q-7.2 0 -12.5 -5.3t-5.3 -12.5V732.1q0 -7.2 5.3 -12.5t12.5 -5.3h750q7.3 0 12.6 5.3t5.3 12.5zM142.9 89.3v107.1q0 7.3 -5.3 12.6t-12.6 5.3H17.9q-7.3 0 -12.6 -5.3T0 196.4V89.3Q0 82 5.3 76.7t12.6 -5.3H125q7.3 0 12.6 5.3t5.3 12.6zM1000 517.9V625q0 7.3 -5.3 12.6t-12.6 5.3h-750q-7.2 0 -12.5 -5.3T214.3 625V517.9q0 -7.3 5.3 -12.6t12.5 -5.3h750q7.3 0 12.6 5.3t5.3 12.6zm0 -214.3v107.1q0 7.3 -5.3 12.6t-12.6 5.3h-750q-7.2 0 -12.5 -5.3t-5.3 -12.6V303.6q0 -7.3 5.3 -12.6t12.5 -5.3h750q7.3 0 12.6 5.3t5.3 12.6zm0 -214.3v107.1q0 7.3 -5.3 12.6t-12.6 5.3h-750q-7.2 0 -12.5 -5.3t-5.3 -12.6V89.3q0 -7.3 5.3 -12.6t12.5 -5.3h750q7.3 0 12.6 5.3t5.3 12.6z"/></svg>