<svg height="1000" width="1000" xmlns="http://www.w3.org/2000/svg"><path d="M214.272 785.728q0 44.64 -31.248 75.888t-75.888 31.248 -75.888 -31.248 -31.248 -75.888 31.248 -75.888 75.888 -31.248 75.888 31.248 31.248 75.888zm0 -285.696q0 44.64 -31.248 75.888t-75.888 31.248 -75.888 -31.248 -31.248 -75.888 31.248 -75.888 75.888 -31.248 75.888 31.248 31.248 75.888zm785.664 232.128v107.136q0 7.254 -5.301 12.555t-12.555 5.301h-678.528q-7.254 0 -12.555 -5.301t-5.301 -12.555v-107.136q0 -7.254 5.301 -12.555t12.555 -5.301h678.528q7.254 0 12.555 5.301t5.301 12.555zm-785.664 -517.824q0 44.64 -31.248 75.888t-75.888 31.248 -75.888 -31.248 -31.248 -75.888 31.248 -75.888 75.888 -31.248 75.888 31.248 31.248 75.888zm785.664 232.128v107.136q0 7.254 -5.301 12.555t-12.555 5.301h-678.528q-7.254 0 -12.555 -5.301t-5.301 -12.555v-107.136q0 -7.254 5.301 -12.555t12.555 -5.301h678.528q7.254 0 12.555 5.301t5.301 12.555zm0 -285.696v107.136q0 7.254 -5.301 12.555t-12.555 5.301h-678.528q-7.254 0 -12.555 -5.301t-5.301 -12.555v-107.136q0 -7.254 5.301 -12.555t12.555 -5.301h678.528q7.254 0 12.555 5.301t5.301 12.555z"/></svg>