<svg height="1000" width="1000" xmlns="http://www.w3.org/2000/svg"><path d="M214.272 660.736v35.712q0 7.254 -5.301 12.555t-12.555 5.301h-35.712q-7.254 0 -12.555 -5.301t-5.301 -12.555v-35.712q0 -7.254 5.301 -12.555t12.555 -5.301h35.712q7.254 0 12.555 5.301t5.301 12.555zm0 -142.848v35.712q0 7.254 -5.301 12.555t-12.555 5.301h-35.712q-7.254 0 -12.555 -5.301t-5.301 -12.555v-35.712q0 -7.254 5.301 -12.555t12.555 -5.301h35.712q7.254 0 12.555 5.301t5.301 12.555zm0 -142.848v35.712q0 7.254 -5.301 12.555t-12.555 5.301h-35.712q-7.254 0 -12.555 -5.301t-5.301 -12.555v-35.712q0 -7.254 5.301 -12.555t12.555 -5.301h35.712q7.254 0 12.555 5.301t5.301 12.555zm642.816 285.696v35.712q0 7.254 -5.301 12.555t-12.555 5.301h-535.68q-7.254 0 -12.555 -5.301t-5.301 -12.555v-35.712q0 -7.254 5.301 -12.555t12.555 -5.301h535.68q7.254 0 12.555 5.301t5.301 12.555zm0 -142.848v35.712q0 7.254 -5.301 12.555t-12.555 5.301h-535.68q-7.254 0 -12.555 -5.301t-5.301 -12.555v-35.712q0 -7.254 5.301 -12.555t12.555 -5.301h535.68q7.254 0 12.555 5.301t5.301 12.555zm0 -142.848v35.712q0 7.254 -5.301 12.555t-12.555 5.301h-535.68q-7.254 0 -12.555 -5.301t-5.301 -12.555v-35.712q0 -7.254 5.301 -12.555t12.555 -5.301h535.68q7.254 0 12.555 5.301t5.301 12.555zm71.424 392.832v-464.256q0 -7.254 -5.301 -12.555t-12.555 -5.301h-821.376q-7.254 0 -12.555 5.301t-5.301 12.555v464.256q0 7.254 5.301 12.555t12.555 5.301h821.376q7.254 0 12.555 -5.301t5.301 -12.555zm71.424 -607.104v607.104q0 36.828 -26.226 63.054t-63.054 26.226h-821.376q-36.828 0 -63.054 -26.226t-26.226 -63.054v-607.104q0 -36.828 26.226 -63.054t63.054 -26.226h821.376q36.828 0 63.054 26.226t26.226 63.054z"/></svg>