<svg height="1000" width="1000" xmlns="http://www.w3.org/2000/svg"><path d="M0 785.7q0-44.6 31.2-75.9t75.9-31.2 75.9 31.2 31.2 75.9-31.2 75.9-75.9 31.2-75.9-31.2-31.2-75.9zm0-285.7q0-44.6 31.2-75.9t75.9-31.2 75.9 31.2 31.2 75.9-31.2 75.9-75.9 31.2-75.9-31.2-31.2-75.9zm0-285.7q0-44.6 31.2-75.9t75.9-31.2 75.9 31.2 31.2 75.9-31.2 75.9-75.9 31.2-75.9-31.2-31.2-75.9zm285.7 625v-107.1q0-7.3 5.3-12.6t12.6-5.3h678.5q7.3 0 12.6 5.3t5.3 12.6v107.1q0 7.3-5.3 12.6t-12.6 5.3h-678.5q-7.3 0-12.6-5.3t-5.3-12.6zm0-285.7v-107.1q0-7.3 5.3-12.6t12.6-5.3h678.5q7.3 0 12.6 5.3t5.3 12.6v107.1q0 7.3-5.3 12.6t-12.6 5.3h-678.5q-7.3 0-12.6-5.3t-5.3-12.6zm0-285.7v-107.1q0-7.3 5.3-12.6t12.6-5.3h678.5q7.3 0 12.6 5.3t5.3 12.6v107.1q0 7.3-5.3 12.6t-12.6 5.3h-678.5q-7.3 0-12.6-5.3t-5.3-12.6z"/></svg>