<svg height="1000px" width="899.90234375px" xmlns="http://www.w3.org/2000/svg">
  <g>
    <path d="M0 818.84765625c0 0 0 -637.695 0 -637.695c0 -15.3 5.534 -28.483 16.602 -39.551c11.067 -11.068 24.251 -16.602 39.55 -16.602c0 0 788.086 0 788.086 0c15.3 0 28.402 5.534 39.307 16.602c10.905 11.068 16.357 24.251 16.357 39.551c0 0 0 637.695 0 637.695c0 15.299 -5.452 28.483 -16.357 39.551c-10.905 11.067 -24.007 16.601 -39.307 16.601c0 0 -788.086 0 -788.086 0c-15.299 0 -28.483 -5.534 -39.55 -16.601c-11.068 -11.068 -16.602 -24.252 -16.602 -39.551c0 0 0 0 0 0m75.195 -19.043c0 0 750 0 750 0c0 0 0 -524.902 0 -524.902c0 0 -750 0 -750 0c0 0 0 524.902 0 524.902c0 0 0 0 0 0m74.707 -93.75c0 0 0 -37.109 0 -37.109c0 -12.696 6.348 -19.043 19.043 -19.043c0 0 75.196 0 75.196 0c5.208 0 9.684 1.871 13.427 5.615c3.744 3.743 5.616 8.219 5.616 13.428c0 0 0 37.109 0 37.109c0 5.208 -1.872 9.684 -5.616 13.428c-3.743 3.743 -8.219 5.615 -13.427 5.615c0 0 -75.196 0 -75.196 0c-12.695 0 -19.043 -6.348 -19.043 -19.043c0 0 0 0 0 0m0 -149.902c0 0 0 -37.11 0 -37.11c0 -12.695 6.348 -19.043 19.043 -19.043c0 0 75.196 0 75.196 0c5.208 0 9.684 1.872 13.427 5.616c3.744 3.743 5.616 8.219 5.616 13.427c0 0 0 37.11 0 37.11c0 5.208 -1.872 9.684 -5.616 13.427c-3.743 3.744 -8.219 5.616 -13.427 5.616c0 0 -75.196 0 -75.196 0c-12.695 0 -19.043 -6.348 -19.043 -19.043c0 0 0 0 0 0m0 -150.391c0 0 0 -36.621 0 -36.621c0 -12.695 6.348 -19.043 19.043 -19.043c0 0 75.196 0 75.196 0c5.208 0 9.684 1.79 13.427 5.371c3.744 3.581 5.616 8.138 5.616 13.672c0 0 0 36.621 0 36.621c0 5.208 -1.872 9.684 -5.616 13.428c-3.743 3.743 -8.219 5.615 -13.427 5.615c0 0 -75.196 0 -75.196 0c-12.695 0 -19.043 -6.348 -19.043 -19.043c0 0 0 0 0 0m187.989 300.293c0 0 0 -37.109 0 -37.109c0 -5.209 1.709 -9.685 5.127 -13.428c3.418 -3.744 7.731 -5.615 12.939 -5.615c0 0 375 0 375 0c12.695 0 19.043 6.347 19.043 19.043c0 0 0 37.109 0 37.109c0 12.695 -6.348 19.043 -19.043 19.043c0 0 -375 0 -375 0c-5.208 0 -9.521 -1.872 -12.939 -5.615c-3.418 -3.744 -5.127 -8.22 -5.127 -13.428c0 0 0 0 0 0m0 -149.902c0 0 0 -37.11 0 -37.11c0 -5.208 1.709 -9.684 5.127 -13.427c3.418 -3.744 7.731 -5.616 12.939 -5.616c0 0 375 0 375 0c12.695 0 19.043 6.348 19.043 19.043c0 0 0 37.11 0 37.11c0 12.695 -6.348 19.043 -19.043 19.043c0 0 -375 0 -375 0c-5.208 0 -9.521 -1.872 -12.939 -5.616c-3.418 -3.743 -5.127 -8.219 -5.127 -13.427c0 0 0 0 0 0m0 -150.391c0 0 0 -36.621 0 -36.621c0 -5.208 1.709 -9.684 5.127 -13.428c3.418 -3.743 7.731 -5.615 12.939 -5.615c0 0 375 0 375 0c12.695 0 19.043 6.348 19.043 19.043c0 0 0 36.621 0 36.621c0 12.695 -6.348 19.043 -19.043 19.043c0 0 -375 0 -375 0c-5.208 0 -9.521 -1.79 -12.939 -5.371c-3.418 -3.581 -5.127 -8.138 -5.127 -13.672c0 0 0 0 0 0" />
  </g>
</svg>