<svg height="1000" width="1000" xmlns="http://www.w3.org/2000/svg"><path d="M0 839.296l0-107.136q0-7.254 5.301-12.555t12.555-5.301l107.136 0q7.254 0 12.555 5.301t5.301 12.555l0 107.136q0 7.254-5.301 12.555t-12.555 5.301l-107.136 0q-7.254 0-12.555-5.301t-5.301-12.555zm0-214.272l0-107.136q0-7.254 5.301-12.555t12.555-5.301l107.136 0q7.254 0 12.555 5.301t5.301 12.555l0 107.136q0 7.254-5.301 12.555t-12.555 5.301l-107.136 0q-7.254 0-12.555-5.301t-5.301-12.555zm0-214.272l0-107.136q0-7.254 5.301-12.555t12.555-5.301l107.136 0q7.254 0 12.555 5.301t5.301 12.555l0 107.136q0 7.254-5.301 12.555t-12.555 5.301l-107.136 0q-7.254 0-12.555-5.301t-5.301-12.555zm0-214.272l0-107.136q0-7.254 5.301-12.555t12.555-5.301l107.136 0q7.254 0 12.555 5.301t5.301 12.555l0 107.136q0 7.254-5.301 12.555t-12.555 5.301l-107.136 0q-7.254 0-12.555-5.301t-5.301-12.555zm214.272 642.816l0-107.136q0-7.254 5.301-12.555t12.555-5.301l749.952 0q7.254 0 12.555 5.301t5.301 12.555l0 107.136q0 7.254-5.301 12.555t-12.555 5.301l-749.952 0q-7.254 0-12.555-5.301t-5.301-12.555zm0-214.272l0-107.136q0-7.254 5.301-12.555t12.555-5.301l749.952 0q7.254 0 12.555 5.301t5.301 12.555l0 107.136q0 7.254-5.301 12.555t-12.555 5.301l-749.952 0q-7.254 0-12.555-5.301t-5.301-12.555zm0-214.272l0-107.136q0-7.254 5.301-12.555t12.555-5.301l749.952 0q7.254 0 12.555 5.301t5.301 12.555l0 107.136q0 7.254-5.301 12.555t-12.555 5.301l-749.952 0q-7.254 0-12.555-5.301t-5.301-12.555zm0-214.272l0-107.136q0-7.254 5.301-12.555t12.555-5.301l749.952 0q7.254 0 12.555 5.301t5.301 12.555l0 107.136q0 7.254-5.301 12.555t-12.555 5.301l-749.952 0q-7.254 0-12.555-5.301t-5.301-12.555z"/></svg>