<svg height="1000px" width="1000px" xmlns="http://www.w3.org/2000/svg">
  <g>
    <path d="M8.370535714285715 603.515625c0 -12.835 4.371 -27.065 13.114 -42.69c8.742 -15.625 19.252 -28.274 31.529 -37.946c12.277 -9.301 24.553 -18.043 36.83 -26.228c29.762 -19.345 44.643 -35.9 44.643 -49.665c0 -19.345 -10.045 -29.018 -30.134 -29.018c-17.113 0 -32.18 10.789 -45.201 32.366c0 0 -47.433 -32.924 -47.433 -32.924c8.929 -18.973 22.229 -33.761 39.9 -44.364c17.671 -10.602 38.69 -15.904 63.058 -15.904c24.367 0 45.852 7.72 64.453 23.159c18.601 15.439 27.902 34.412 27.902 56.919c0 22.508 -6.325 41.481 -18.974 56.92c-12.648 15.439 -26.599 27.437 -41.852 35.993c-40.551 22.694 -61.198 41.853 -61.942 57.478c0 0 70.87 0 70.87 0c0 0 0 -33.482 0 -33.482c0 0 58.594 0 58.594 0c0 0 0 88.728 0 88.728c0 0 -202.009 0 -202.009 0c-2.232 -13.393 -3.348 -26.507 -3.348 -39.342c0 0 0 0 0 0m2.232 359.654c0 0 31.808 -49.107 31.808 -49.107c18.229 16.741 37.947 25.111 59.152 25.111c10.789 0 20.182 -2.697 28.181 -8.091c7.998 -5.394 11.998 -13.3 11.998 -23.717c0 -21.164 -15.433 -31.746 -46.297 -31.746c-3.858 0 -7.957 0.166 -12.297 0.496c0 0 -14.509 -31.25 -14.509 -31.25c3.348 -3.72 9.486 -11.904 18.415 -24.553c15.253 -20.833 29.948 -37.947 44.085 -51.339c0 0 0 -0.558 0 -0.558c0 0 -54.13 1.116 -54.13 1.116c0 0 0 29.576 0 29.576c0 0 -59.151 0 -59.151 0c0 0 0 -84.822 0 -84.822c0 0 185.825 0 185.825 0c0 0 0 49.107 0 49.107c0 0 -53.013 64.174 -53.013 64.174c18.973 4.465 34.04 13.579 45.201 27.344c11.161 13.765 16.741 30.134 16.741 49.107c0 29.762 -10.138 53.2 -30.413 70.313c-20.275 17.113 -47.805 25.669 -82.589 25.669c-34.784 0 -64.453 -12.276 -89.007 -36.83c0 0 0 0 0 0m8.371 -887.277c0 0 75.893 -70.87 75.893 -70.87c0 0 59.151 0 59.151 0c0 0 0 225.446 0 225.446c0 0 60.268 0 60.268 0c0 0 0 55.246 0 55.246c0 0 -186.942 0 -186.942 0c0 0 0 -55.246 0 -55.246c0 0 59.71 0 59.71 0c0 0 0.558 -135.603 0.558 -135.603c0 0 0 -6.696 0 -6.696c0 0 -1.116 0 -1.116 0c-2.976 6.324 -12.277 16.369 -27.902 30.134c0 0 -39.62 -42.411 -39.62 -42.411m266.741 763.393c0 0 0 -107.143 0 -107.143c0 -5.208 1.674 -9.486 5.022 -12.835c3.348 -3.348 7.627 -5.022 12.835 -5.022c0 0 678.571 0 678.571 0c4.837 0 9.022 1.767 12.556 5.301c3.534 3.535 5.301 7.72 5.301 12.556c0 0 0 107.143 0 107.143c0 4.836 -1.767 9.022 -5.301 12.556c-3.534 3.534 -7.719 5.301 -12.556 5.301c0 0 -678.571 0 -678.571 0c-4.836 0 -9.022 -1.767 -12.556 -5.301c-3.534 -3.534 -5.301 -7.72 -5.301 -12.556c0 0 0 0 0 0m0 -285.714c0 0 0 -107.143 0 -107.143c0 -5.208 1.674 -9.487 5.022 -12.835c3.348 -3.348 7.627 -5.022 12.835 -5.022c0 0 678.571 0 678.571 0c4.837 0 9.022 1.767 12.556 5.301c3.534 3.534 5.301 7.72 5.301 12.556c0 0 0 107.143 0 107.143c0 4.836 -1.767 9.021 -5.301 12.556c-3.534 3.534 -7.719 5.301 -12.556 5.301c0 0 -678.571 0 -678.571 0c-4.836 0 -9.022 -1.767 -12.556 -5.301c-3.534 -3.535 -5.301 -7.72 -5.301 -12.556c0 0 0 0 0 0m0 -285.714c0 0 0 -107.143 0 -107.143c0 -4.837 1.767 -9.022 5.301 -12.556c3.534 -3.534 7.72 -5.301 12.556 -5.301c0 0 678.571 0 678.571 0c4.837 0 9.022 1.767 12.556 5.301c3.534 3.534 5.301 7.719 5.301 12.556c0 0 0 107.143 0 107.143c0 4.836 -1.767 9.021 -5.301 12.555c-3.534 3.535 -7.719 5.302 -12.556 5.302c0 0 -678.571 0 -678.571 0c-4.836 0 -9.022 -1.767 -12.556 -5.302c-3.534 -3.534 -5.301 -7.719 -5.301 -12.555c0 0 0 0 0 0" />
  </g>
</svg>