<svg height="1000" width="1000" xmlns="http://www.w3.org/2000/svg"><path d="M214.3 785.7q0 44.7 -31.3 75.9t-75.9 31.3T31.3 861.6 0 785.7t31.3 -75.9 75.8 -31.2 75.9 31.2 31.3 75.9zm0 -285.7q0 44.6 -31.3 75.9t-75.9 31.2T31.3 575.9 0 500t31.3 -75.9 75.8 -31.2 75.9 31.2 31.3 75.9zM1000 732.1v107.2q0 7.2 -5.3 12.5t-12.6 5.3H303.6q-7.3 0 -12.6 -5.3t-5.3 -12.5V732.1q0 -7.2 5.3 -12.5t12.6 -5.3h678.5q7.3 0 12.6 5.3t5.3 12.5zM214.3 214.3q0 44.6 -31.3 75.9t-75.9 31.2T31.3 290.2 0 214.3t31.3 -75.9 75.8 -31.3 75.9 31.3 31.3 75.9zM1000 446.4v107.2q0 7.2 -5.3 12.5t-12.6 5.3H303.6q-7.3 0 -12.6 -5.3t-5.3 -12.5V446.4q0 -7.2 5.3 -12.5t12.6 -5.3h678.5q7.3 0 12.6 5.3t5.3 12.5zm0 -285.7v107.2q0 7.2 -5.3 12.5t-12.6 5.3H303.6q-7.3 0 -12.6 -5.3t-5.3 -12.5V160.7q0 -7.2 5.3 -12.5t12.6 -5.3h678.5q7.3 0 12.6 5.3t5.3 12.5z"/></svg>