<svg height="1000" width="1000" xmlns="http://www.w3.org/2000/svg"><path d="M142.848 732.16v107.136q0 7.254 -5.301 12.555t-12.555 5.301h-107.136q-7.254 0 -12.555 -5.301t-5.301 -12.555v-107.136q0 -7.254 5.301 -12.555t12.555 -5.301h107.136q7.254 0 12.555 5.301t5.301 12.555zm0 -214.272v107.136q0 7.254 -5.301 12.555t-12.555 5.301h-107.136q-7.254 0 -12.555 -5.301t-5.301 -12.555v-107.136q0 -7.254 5.301 -12.555t12.555 -5.301h107.136q7.254 0 12.555 5.301t5.301 12.555zm0 -214.272v107.136q0 7.254 -5.301 12.555t-12.555 5.301h-107.136q-7.254 0 -12.555 -5.301t-5.301 -12.555v-107.136q0 -7.254 5.301 -12.555t12.555 -5.301h107.136q7.254 0 12.555 5.301t5.301 12.555zm857.088 428.544v107.136q0 7.254 -5.301 12.555t-12.555 5.301h-749.952q-7.254 0 -12.555 -5.301t-5.301 -12.555v-107.136q0 -7.254 5.301 -12.555t12.555 -5.301h749.952q7.254 0 12.555 5.301t5.301 12.555zm-857.088 -642.816v107.136q0 7.254 -5.301 12.555t-12.555 5.301h-107.136q-7.254 0 -12.555 -5.301t-5.301 -12.555v-107.136q0 -7.254 5.301 -12.555t12.555 -5.301h107.136q7.254 0 12.555 5.301t5.301 12.555zm857.088 428.544v107.136q0 7.254 -5.301 12.555t-12.555 5.301h-749.952q-7.254 0 -12.555 -5.301t-5.301 -12.555v-107.136q0 -7.254 5.301 -12.555t12.555 -5.301h749.952q7.254 0 12.555 5.301t5.301 12.555zm0 -214.272v107.136q0 7.254 -5.301 12.555t-12.555 5.301h-749.952q-7.254 0 -12.555 -5.301t-5.301 -12.555v-107.136q0 -7.254 5.301 -12.555t12.555 -5.301h749.952q7.254 0 12.555 5.301t5.301 12.555zm0 -214.272v107.136q0 7.254 -5.301 12.555t-12.555 5.301h-749.952q-7.254 0 -12.555 -5.301t-5.301 -12.555v-107.136q0 -7.254 5.301 -12.555t12.555 -5.301h749.952q7.254 0 12.555 5.301t5.301 12.555z"/></svg>