<svg height="1000px" width="1000px" xmlns="http://www.w3.org/2000/svg">
  <g>
    <path d="M1000 160.71428571428567c0 0 0 107.143 0 107.143c0 4.836 -1.767 9.021 -5.301 12.556c-3.535 3.534 -7.72 5.301 -12.556 5.301c0 0 -678.572 0 -678.572 0c-4.836 0 -9.021 -1.767 -12.555 -5.301c-3.535 -3.535 -5.302 -7.72 -5.302 -12.556c0 0 0 -107.143 0 -107.143c0 -4.836 1.767 -9.022 5.302 -12.556c3.534 -3.534 7.719 -5.301 12.555 -5.301c0 0 678.572 0 678.572 0c4.836 0 9.021 1.767 12.556 5.301c3.534 3.534 5.301 7.72 5.301 12.556c0 0 0 0 0 0m0 285.714c0 0 0 107.143 0 107.143c0 4.836 -1.767 9.022 -5.301 12.556c-3.535 3.534 -7.72 5.301 -12.556 5.301c0 0 -678.572 0 -678.572 0c-4.836 0 -9.021 -1.767 -12.555 -5.301c-3.535 -3.534 -5.302 -7.72 -5.302 -12.556c0 0 0 -107.143 0 -107.143c0 -5.208 1.674 -9.486 5.023 -12.835c3.348 -3.348 7.626 -5.022 12.834 -5.022c0 0 678.572 0 678.572 0c4.836 0 9.021 1.767 12.556 5.301c3.534 3.535 5.301 7.72 5.301 12.556c0 0 0 0 0 0m-912.946 -215.96c0 0 0.558 -135.602 0.558 -135.602c0 0 0 -6.697 0 -6.697c0 0 -1.116 0 -1.116 0c-2.977 6.325 -12.277 16.369 -27.902 30.134c0 0 -39.621 -42.41 -39.621 -42.41c0 0 75.893 -70.871 75.893 -70.871c0 0 59.152 0 59.152 0c0 0 0 225.446 0 225.446c0 0 60.268 0 60.268 0c0 0 0 55.246 0 55.246c0 0 -186.942 0 -186.942 0c0 0 0 -55.246 0 -55.246c0 0 59.71 0 59.71 0c0 0 0 0 0 0m912.946 501.675c0 0 0 107.142 0 107.142c0 4.837 -1.767 9.022 -5.301 12.556c-3.535 3.534 -7.72 5.302 -12.556 5.302c0 0 -678.572 0 -678.572 0c-4.836 0 -9.021 -1.768 -12.555 -5.302c-3.535 -3.534 -5.302 -7.719 -5.302 -12.556c0 0 0 -107.142 0 -107.142c0 -5.209 1.674 -9.487 5.023 -12.835c3.348 -3.348 7.626 -5.023 12.834 -5.023c0 0 678.572 0 678.572 0c4.836 0 9.021 1.768 12.556 5.302c3.534 3.534 5.301 7.719 5.301 12.556c0 0 0 0 0 0m-865.513 -285.157c0 -19.345 -10.045 -29.018 -30.134 -29.018c-17.113 0 -32.18 10.789 -45.201 32.367c0 0 -47.433 -32.925 -47.433 -32.925c8.928 -18.973 22.228 -33.761 39.899 -44.363c17.671 -10.603 38.691 -15.904 63.058 -15.904c24.368 0 45.852 7.719 64.453 23.158c18.602 15.439 27.902 34.412 27.902 56.92c0 22.507 -6.324 41.48 -18.973 56.919c-12.649 15.439 -26.6 27.437 -41.853 35.994c-40.55 22.693 -61.198 41.852 -61.942 57.477c0 0 70.871 0 70.871 0c0 0 0 -33.482 0 -33.482c0 0 58.594 0 58.594 0c0 0 0 88.728 0 88.728c0 0 -202.009 0 -202.009 0c-2.232 -13.393 -3.348 -26.507 -3.348 -39.342c0 -12.834 4.371 -27.064 13.113 -42.689c8.743 -15.625 19.253 -28.274 31.529 -37.947c12.277 -9.3 24.554 -18.043 36.831 -26.228c29.762 -19.345 44.643 -35.9 44.643 -49.665c0 0 0 0 0 0m-3.349 321.429c0 0 -54.129 1.116 -54.129 1.116c0 0 0 29.576 0 29.576c0 0 -59.152 0 -59.152 0c0 0 0 -84.822 0 -84.822c0 0 185.826 0 185.826 0c0 0 0 49.108 0 49.108c0 0 -53.013 64.174 -53.013 64.174c18.973 4.464 34.04 13.579 45.201 27.343c11.16 13.765 16.741 30.134 16.741 49.108c0 29.761 -10.138 53.199 -30.413 70.312c-20.276 17.113 -47.805 25.67 -82.59 25.67c-34.784 0 -64.453 -12.277 -89.006 -36.831c0 0 31.808 -49.107 31.808 -49.107c18.229 16.741 37.946 25.112 59.152 25.112c10.788 0 20.182 -2.697 28.18 -8.092c7.999 -5.394 11.998 -13.3 11.998 -23.716c0 -23.81 -19.531 -34.226 -58.594 -31.25c0 0 -14.509 -31.25 -14.509 -31.25c3.349 -3.72 9.487 -11.905 18.416 -24.554c15.253 -20.833 29.947 -37.946 44.084 -51.339c0 0 0 -0.558 0 -0.558c0 0 0 0 0 0" />
  </g>
</svg>