<svg height="1000" width="1000" xmlns="http://www.w3.org/2000/svg"><path d="M0 767.872l0-607.104q0-36.828 26.226-63.054t63.054-26.226l821.376 0q36.828 0 63.054 26.226t26.226 63.054l0 607.104q0 36.828-26.226 63.054t-63.054 26.226l-821.376 0q-36.828 0-63.054-26.226t-26.226-63.054zm71.424 0q0 7.254 5.301 12.555t12.555 5.301l821.376 0q7.254 0 12.555-5.301t5.301-12.555l0-464.256q0-7.254-5.301-12.555t-12.555-5.301l-821.376 0q-7.254 0-12.555 5.301t-5.301 12.555l0 464.256zm71.424-71.424l0-35.712q0-7.254 5.301-12.555t12.555-5.301l35.712 0q7.254 0 12.555 5.301t5.301 12.555l0 35.712q0 7.254-5.301 12.555t-12.555 5.301l-35.712 0q-7.254 0-12.555-5.301t-5.301-12.555zm0-142.848l0-35.712q0-7.254 5.301-12.555t12.555-5.301l35.712 0q7.254 0 12.555 5.301t5.301 12.555l0 35.712q0 7.254-5.301 12.555t-12.555 5.301l-35.712 0q-7.254 0-12.555-5.301t-5.301-12.555zm0-142.848l0-35.712q0-7.254 5.301-12.555t12.555-5.301l35.712 0q7.254 0 12.555 5.301t5.301 12.555l0 35.712q0 7.254-5.301 12.555t-12.555 5.301l-35.712 0q-7.254 0-12.555-5.301t-5.301-12.555zm142.848 285.696l0-35.712q0-7.254 5.301-12.555t12.555-5.301l535.68 0q7.254 0 12.555 5.301t5.301 12.555l0 35.712q0 7.254-5.301 12.555t-12.555 5.301l-535.68 0q-7.254 0-12.555-5.301t-5.301-12.555zm0-142.848l0-35.712q0-7.254 5.301-12.555t12.555-5.301l535.68 0q7.254 0 12.555 5.301t5.301 12.555l0 35.712q0 7.254-5.301 12.555t-12.555 5.301l-535.68 0q-7.254 0-12.555-5.301t-5.301-12.555zm0-142.848l0-35.712q0-7.254 5.301-12.555t12.555-5.301l535.68 0q7.254 0 12.555 5.301t5.301 12.555l0 35.712q0 7.254-5.301 12.555t-12.555 5.301l-535.68 0q-7.254 0-12.555-5.301t-5.301-12.555z"/></svg>