<svg height="1000" width="1000" xmlns="http://www.w3.org/2000/svg"><path d="M0 839.3v-107.1q0-7.3 5.3-12.6t12.6-5.3h107.1q7.3 0 12.6 5.3t5.3 12.6v107.1q0 7.3-5.3 12.6t-12.6 5.3h-107.1q-7.3 0-12.6-5.3t-5.3-12.6zm0-214.3v-107.1q0-7.3 5.3-12.6t12.6-5.3h107.1q7.3 0 12.6 5.3t5.3 12.6v107.1q0 7.3-5.3 12.6t-12.6 5.3h-107.1q-7.3 0-12.6-5.3t-5.3-12.6zm0-214.3v-107.1q0-7.3 5.3-12.6t12.6-5.3h107.1q7.3 0 12.6 5.3t5.3 12.6v107.1q0 7.3-5.3 12.6t-12.6 5.3h-107.1q-7.3 0-12.6-5.3t-5.3-12.6zm0-214.3v-107.1q0-7.3 5.3-12.6t12.6-5.3h107.1q7.3 0 12.6 5.3t5.3 12.6v107.1q0 7.3-5.3 12.6t-12.6 5.3h-107.1q-7.3 0-12.6-5.3t-5.3-12.6zm214.3 642.8v-107.1q0-7.3 5.3-12.6t12.6-5.3h750q7.3 0 12.6 5.3t5.3 12.6v107.1q0 7.3-5.3 12.6t-12.6 5.3h-750q-7.3 0-12.6-5.3t-5.3-12.6zm0-214.3v-107.1q0-7.3 5.3-12.6t12.6-5.3h750q7.3 0 12.6 5.3t5.3 12.6v107.1q0 7.3-5.3 12.6t-12.6 5.3h-750q-7.3 0-12.6-5.3t-5.3-12.6zm0-214.3v-107.1q0-7.3 5.3-12.6t12.6-5.3h750q7.3 0 12.6 5.3t5.3 12.6v107.1q0 7.3-5.3 12.6t-12.6 5.3h-750q-7.3 0-12.6-5.3t-5.3-12.6zm0-214.3v-107.1q0-7.3 5.3-12.6t12.6-5.3h750q7.3 0 12.6 5.3t5.3 12.6v107.1q0 7.3-5.3 12.6t-12.6 5.3h-750q-7.3 0-12.6-5.3t-5.3-12.6z"/></svg>