<svg height="1000px" width="1000px" xmlns="http://www.w3.org/2000/svg">
  <g>
    <path d="M1000 160.71428571428567c0 0 0 107.143 0 107.143c0 4.836 -1.767 9.021 -5.301 12.556c-3.535 3.534 -7.72 5.301 -12.556 5.301c0 0 -678.572 0 -678.572 0c-4.836 0 -9.021 -1.767 -12.555 -5.301c-3.535 -3.535 -5.302 -7.72 -5.302 -12.556c0 0 0 -107.143 0 -107.143c0 -4.836 1.767 -9.022 5.302 -12.556c3.534 -3.534 7.719 -5.301 12.555 -5.301c0 0 678.572 0 678.572 0c4.836 0 9.021 1.767 12.556 5.301c3.534 3.534 5.301 7.72 5.301 12.556c0 0 0 0 0 0m0 285.714c0 0 0 107.143 0 107.143c0 4.836 -1.767 9.022 -5.301 12.556c-3.535 3.534 -7.72 5.301 -12.556 5.301c0 0 -678.572 0 -678.572 0c-4.836 0 -9.021 -1.767 -12.555 -5.301c-3.535 -3.534 -5.302 -7.72 -5.302 -12.556c0 0 0 -107.143 0 -107.143c0 -4.836 1.767 -9.021 5.302 -12.556c3.534 -3.534 7.719 -5.301 12.555 -5.301c0 0 678.572 0 678.572 0c4.836 0 9.021 1.767 12.556 5.301c3.534 3.535 5.301 7.72 5.301 12.556c0 0 0 0 0 0m-785.714 -232.143c0 29.762 -10.417 55.06 -31.25 75.893c-20.834 20.834 -46.131 31.25 -75.893 31.25c-29.762 0 -55.06 -10.416 -75.893 -31.25c-20.833 -20.833 -31.25 -46.131 -31.25 -75.893c0 -29.761 10.417 -55.059 31.25 -75.892c20.833 -20.834 46.131 -31.25 75.893 -31.25c29.762 0 55.059 10.416 75.893 31.25c20.833 20.833 31.25 46.131 31.25 75.892c0 0 0 0 0 0m785.714 517.858c0 0 0 107.142 0 107.142c0 4.837 -1.767 9.022 -5.301 12.556c-3.535 3.534 -7.72 5.302 -12.556 5.302c0 0 -678.572 0 -678.572 0c-4.836 0 -9.021 -1.768 -12.555 -5.302c-3.535 -3.534 -5.302 -7.719 -5.302 -12.556c0 0 0 -107.142 0 -107.142c0 -4.837 1.767 -9.022 5.302 -12.556c3.534 -3.534 7.719 -5.302 12.555 -5.302c0 0 678.572 0 678.572 0c4.836 0 9.021 1.768 12.556 5.302c3.534 3.534 5.301 7.719 5.301 12.556c0 0 0 0 0 0m-785.714 -232.143c0 29.762 -10.417 55.059 -31.25 75.893c-20.834 20.833 -46.131 31.25 -75.893 31.25c-29.762 0 -55.06 -10.417 -75.893 -31.25c-20.833 -20.834 -31.25 -46.131 -31.25 -75.893c0 -29.762 10.417 -55.06 31.25 -75.893c20.833 -20.833 46.131 -31.25 75.893 -31.25c29.762 0 55.059 10.417 75.893 31.25c20.833 20.833 31.25 46.131 31.25 75.893c0 0 0 0 0 0m0 285.714c0 29.762 -10.417 55.06 -31.25 75.893c-20.834 20.833 -46.131 31.25 -75.893 31.25c-29.762 0 -55.06 -10.417 -75.893 -31.25c-20.833 -20.833 -31.25 -46.131 -31.25 -75.893c0 -29.762 10.417 -55.06 31.25 -75.893c20.833 -20.833 46.131 -31.25 75.893 -31.25c29.762 0 55.059 10.417 75.893 31.25c20.833 20.833 31.25 46.131 31.25 75.893c0 0 0 0 0 0" />
  </g>
</svg>