<svg height="1000px" width="571.4285714285714px" xmlns="http://www.w3.org/2000/svg">
  <g>
    <path d="M571.4285714285714 357.1428571428571c0 40.551 -6.138 73.847 -18.415 99.888c0 0 -203.125 431.92 -203.125 431.92c-5.953 12.277 -14.788 21.949 -26.507 29.018c-11.719 7.068 -24.274 10.603 -37.667 10.603c-13.393 0 -25.949 -3.535 -37.668 -10.603c-11.718 -7.069 -20.368 -16.741 -25.948 -29.018c0 0 -203.683 -431.92 -203.683 -431.92c-12.277 -26.041 -18.416 -59.337 -18.416 -99.888c0 -78.869 27.902 -146.205 83.706 -202.009c55.803 -55.804 123.14 -83.705 202.009 -83.705c78.869 0 146.205 27.901 202.009 83.705c55.803 55.804 83.705 123.14 83.705 202.009c0 0 0 0 0 0m-142.857 0c0 -39.435 -13.951 -73.103 -41.853 -101.004c-27.902 -27.902 -61.57 -41.853 -101.004 -41.853c-39.435 0 -73.103 13.951 -101.005 41.853c-27.902 27.901 -41.852 61.569 -41.852 101.004c0 39.435 13.95 73.103 41.852 101.004c27.902 27.902 61.57 41.853 101.005 41.853c39.434 0 73.102 -13.951 101.004 -41.853c27.902 -27.901 41.853 -61.569 41.853 -101.004c0 0 0 0 0 0" />
  </g>
</svg>