<svg height="1000px" width="530px" xmlns="http://www.w3.org/2000/svg">
  <g>
    <path d="M0 390c0 -36.667 7 -71 21 -103c14 -32 33 -60 57 -84c24 -24 52 -43 84 -57c32 -14 66.333 -21 103 -21c36.667 0 71 7 103 21c32 14 60 33 84 57c24 24 43 52 57 84c14 32 21 66.333 21 103c0 26.667 -4 51.667 -12 75c-8 23.333 -18 45.667 -30 67c0 0 -179 311 -179 311c-12 21.333 -26.667 32 -44 32c-17.333 0 -32 -10.667 -44 -32c0 0 -179 -311 -179 -311c-12 -21.333 -22 -43.833 -30 -67.5c-8 -23.667 -12 -48.5 -12 -74.5c0 0 0 0 0 0m134 0c0 18 3.333 35 10 51c6.667 16 16 30 28 42c12 12 26 21.333 42 28c16 6.667 33 10 51 10c18 0 35 -3.333 51 -10c16 -6.667 29.833 -16 41.5 -28c11.667 -12 21 -26 28 -42c7 -16 10.5 -33 10.5 -51c0 -18 -3.5 -35 -10.5 -51c-7 -16 -16.333 -29.833 -28 -41.5c-11.667 -11.667 -25.5 -21 -41.5 -28c-16 -7 -33 -10.5 -51 -10.5c-18 0 -35 3.5 -51 10.5c-16 7 -30 16.333 -42 28c-12 11.667 -21.333 25.5 -28 41.5c-6.667 16 -10 33 -10 51c0 0 0 0 0 0" />
  </g>
</svg>