<svg height="1000px" width="550.78125px" xmlns="http://www.w3.org/2000/svg">
  <g>
    <path d="M0 386.23046875c0 -38.086 7.161 -73.975 21.484 -107.666c14.323 -33.691 34.017 -63.07 59.082 -88.135c25.066 -25.065 54.444 -44.759 88.135 -59.082c33.692 -14.323 69.417 -21.484 107.178 -21.484c38.086 0 73.812 7.161 107.178 21.484c33.366 14.323 62.5 34.017 87.402 59.082c24.902 25.065 44.515 54.444 58.838 88.135c14.323 33.691 21.484 69.58 21.484 107.666c0 27.344 -3.987 53.304 -11.963 77.881c-7.975 24.577 -18.636 47.933 -31.982 70.068c0 0 -185.059 322.754 -185.059 322.754c-13.346 22.136 -28.808 33.203 -46.386 33.203c-17.579 0 -32.715 -11.067 -45.411 -33.203c0 0 -186.035 -323.73 -186.035 -323.73c-13.346 -22.136 -24.007 -45.41 -31.982 -69.825c-7.975 -24.414 -11.963 -50.13 -11.963 -77.148c0 0 0 0 0 0m139.16 0c0 18.555 3.5 36.133 10.498 52.734c6.999 16.602 16.846 31.088 29.541 43.457c12.696 12.37 27.181 22.054 43.457 29.053c16.276 6.999 34.017 10.498 53.223 10.498c18.555 0 36.214 -3.499 52.978 -10.498c16.765 -6.999 31.332 -16.683 43.702 -29.053c12.369 -12.369 22.054 -26.855 29.052 -43.457c6.999 -16.601 10.498 -34.179 10.498 -52.734c0 -18.555 -3.499 -36.214 -10.498 -52.979c-6.998 -16.764 -16.683 -31.494 -29.052 -44.189c-12.37 -12.695 -26.856 -22.542 -43.457 -29.541c-16.602 -6.999 -34.343 -10.498 -53.223 -10.498c-19.206 0 -36.947 3.499 -53.223 10.498c-16.276 6.999 -30.761 16.846 -43.457 29.541c-12.695 12.695 -22.542 27.344 -29.541 43.945c-6.998 16.602 -10.498 34.343 -10.498 53.223c0 0 0 0 0 0" />
  </g>
</svg>