<svg height="1000" width="928.571" xmlns="http://www.w3.org/2000/svg"><path d="M928.512 321.472v142.848q0 14.508 -10.602 25.11t-25.11 10.602h-35.712q-14.508 0 -25.11 -10.602t-10.602 -25.11v-142.848q0 -59.148 -41.85 -100.998t-100.998 -41.85 -100.998 41.85 -41.85 100.998v107.136h53.568q22.32 0 37.944 15.624t15.624 37.944v321.408q0 22.32 -15.624 37.944t-37.944 15.624h-535.68q-22.32 0 -37.944 -15.624t-15.624 -37.944v-321.408q0 -22.32 15.624 -37.944t37.944 -15.624h374.976v-107.136q0 -103.23 73.377 -176.607t176.607 -73.377 176.607 73.377 73.377 176.607z"/></svg>