<svg height="1000px" width="928.5714285714286px" xmlns="http://www.w3.org/2000/svg">
  <g>
    <path d="M928.5714285714286 321.42857142857133c0 0 0 142.857 0 142.857c0 9.673 -3.534 18.043 -10.603 25.112c-7.068 7.068 -15.439 10.602 -25.111 10.602c0 0 -35.715 0 -35.715 0c-9.672 0 -18.043 -3.534 -25.111 -10.602c-7.069 -7.069 -10.603 -15.439 -10.603 -25.112c0 0 0 -142.857 0 -142.857c0 -39.435 -13.951 -73.103 -41.853 -101.004c-27.901 -27.902 -61.569 -41.853 -101.004 -41.853c-39.435 0 -73.103 13.951 -101.004 41.853c-27.902 27.901 -41.853 61.569 -41.853 101.004c0 0 0 107.143 0 107.143c0 0 53.571 0 53.571 0c14.881 0 27.53 5.208 37.947 15.625c10.416 10.417 15.625 23.065 15.625 37.946c0 0 0 321.429 0 321.429c0 14.881 -5.209 27.53 -15.625 37.946c-10.417 10.417 -23.066 15.625 -37.947 15.625c0 0 -535.714 0 -535.714 0c-14.881 0 -27.53 -5.208 -37.946 -15.625c-10.417 -10.416 -15.625 -23.065 -15.625 -37.946c0 0 0 -321.429 0 -321.429c0 -14.881 5.208 -27.529 15.625 -37.946c10.416 -10.417 23.065 -15.625 37.946 -15.625c0 0 375 0 375 0c0 0 0 -107.143 0 -107.143c0 -68.824 24.461 -127.697 73.382 -176.618c48.921 -48.921 107.794 -73.382 176.618 -73.382c68.824 0 127.697 24.461 176.618 73.382c48.921 48.921 73.382 107.794 73.382 176.618c0 0 0 0 0 0m-639.509 313.616c0 0 -39.062 132.813 -39.062 132.813c0 4.836 1.767 9.021 5.301 12.555c3.534 3.535 7.719 5.302 12.556 5.302c0 0 107.143 0 107.143 0c4.836 0 9.021 -1.767 12.555 -5.302c3.535 -3.534 5.302 -7.719 5.302 -12.555c0 0 -39.063 -132.813 -39.063 -132.813c11.905 -5.952 21.392 -14.695 28.46 -26.228c7.068 -11.532 10.603 -25.576 10.603 -42.131c0 -16.555 -6.976 -31.808 -20.927 -45.759c-13.951 -13.951 -30.785 -20.927 -50.502 -20.927c-19.717 0 -36.551 6.976 -50.502 20.927c-13.951 13.951 -20.926 30.785 -20.926 50.502c0 28.646 13.02 49.851 39.062 63.616c0 0 0 0 0 0" />
  </g>
</svg>