<svg height="1000px" width="611.81640625px" xmlns="http://www.w3.org/2000/svg">
  <g>
    <path d="M0 825.439453125c0 0 0 -305.664 0 -305.664c0 -12.695 3.499 -23.926 10.498 -33.691c6.999 -9.766 16.195 -16.602 27.588 -20.508c0 0 0 -80.078 0 -80.078c0 -36.784 6.999 -71.452 20.996 -104.004c13.997 -32.552 33.122 -61.035 57.373 -85.45c24.251 -24.414 52.734 -43.619 85.449 -57.617c32.715 -13.997 67.464 -20.996 104.248 -20.996c36.784 0 71.452 6.999 104.004 20.996c32.552 13.998 61.035 33.203 85.449 57.617c24.415 24.415 43.62 52.979 57.618 85.694c13.997 32.715 20.996 67.301 20.996 103.76c0 0 0 80.078 0 80.078c11.393 3.906 20.508 10.742 27.343 20.508c6.836 9.765 10.254 20.996 10.254 33.691c0 0 0 305.664 0 305.664c0 15.299 -5.615 28.646 -16.845 40.039c-11.231 11.393 -24.496 17.09 -39.795 17.09c0 0 -498.047 0 -498.047 0c-15.3 0 -28.646 -5.697 -40.039 -17.09c-11.393 -11.393 -17.09 -24.74 -17.09 -40.039c0 0 0 0 0 0m152.832 -363.77c0 0 306.152 0 306.152 0c0 0 0 -76.171 0 -76.171c0 -21.485 -3.987 -41.504 -11.963 -60.059c-7.975 -18.555 -18.961 -34.668 -32.959 -48.34c-13.997 -13.672 -30.354 -24.495 -49.072 -32.471c-18.717 -7.975 -38.33 -11.962 -58.838 -11.962c-21.484 0 -41.341 3.987 -59.57 11.962c-18.229 7.976 -34.424 18.799 -48.584 32.471c-14.16 13.672 -25.228 29.867 -33.203 48.584c-7.975 18.718 -11.963 38.656 -11.963 59.815c0 0 0 76.171 0 76.171c0 0 0 0 0 0m88.379 340.821c0 0 129.883 0 129.883 0c0 0 -32.227 -139.16 -32.227 -139.16c9.44 -5.86 17.171 -13.754 23.194 -23.682c6.022 -9.928 9.033 -20.589 9.033 -31.982c0 -17.904 -6.348 -33.366 -19.043 -46.387c-12.696 -13.021 -27.995 -19.531 -45.899 -19.531c-17.903 0 -33.203 6.51 -45.898 19.531c-12.695 13.021 -19.043 28.483 -19.043 46.387c0 11.393 2.93 22.054 8.789 31.982c5.859 9.928 13.509 17.497 22.949 22.705c0 0 -31.738 140.137 -31.738 140.137" />
  </g>
</svg>