<svg height="1000px" width="750px" xmlns="http://www.w3.org/2000/svg">
  <g>
    <path d="M0 819c0 0 0 -300 0 -300c0 -15.333 5.5 -28.667 16.5 -40c11 -11.333 24.167 -17 39.5 -17c0 0 57 0 57 0c0 0 0 -85 0 -85c0 -34.667 6.833 -67.333 20.5 -98c13.667 -30.667 32.333 -57.333 56 -80c23.667 -22.667 51.5 -40.667 83.5 -54c32 -13.333 66 -20 102 -20c36 0 70 6.667 102 20c32 13.333 60 31.333 84 54c24 22.667 42.833 49.333 56.5 80c13.667 30.667 20.5 63.333 20.5 98c0 0 0 85 0 85c0 0 56 0 56 0c15.333 0 28.5 5.667 39.5 17c11 11.333 16.5 24.667 16.5 40c0 0 0 300 0 300c0 15.333 -5.5 28.5 -16.5 39.5c-11 11 -24.167 16.5 -39.5 16.5c0 0 -638 0 -638 0c-15.333 0 -28.5 -5.5 -39.5 -16.5c-11 -11 -16.5 -24.167 -16.5 -39.5c0 0 0 0 0 0m225 -357c0 0 300 0 300 0c0 0 0 -85 0 -85c0 -19.333 -4 -37.5 -12 -54.5c-8 -17 -18.667 -31.833 -32 -44.5c-13.333 -12.667 -29.167 -22.667 -47.5 -30c-18.333 -7.333 -37.833 -11 -58.5 -11c-20.667 0 -40.167 3.667 -58.5 11c-18.333 7.333 -34.167 17.333 -47.5 30c-13.333 12.667 -24 27.5 -32 44.5c-8 17 -12 35.167 -12 54.5c0 0 0 85 0 85c0 0 0 0 0 0" />
  </g>
</svg>