<svg height="1000px" width="642.8571428571429px" xmlns="http://www.w3.org/2000/svg">
  <g>
    <path d="M642.8571428571429 482.1428571428571c0 0 0 321.429 0 321.429c0 14.881 -5.208 27.529 -15.625 37.946c-10.417 10.417 -23.065 15.625 -37.946 15.625c0 0 -535.715 0 -535.715 0c-14.881 0 -27.529 -5.208 -37.946 -15.625c-10.417 -10.417 -15.625 -23.065 -15.625 -37.946c0 0 0 -321.429 0 -321.429c0 -14.881 5.208 -27.53 15.625 -37.946c10.417 -10.417 23.065 -15.625 37.946 -15.625c0 0 17.857 0 17.857 0c0 0 0 -107.143 0 -107.143c0 -68.453 24.554 -127.232 73.661 -176.34c49.107 -49.107 107.887 -73.66 176.339 -73.66c68.453 0 127.233 24.553 176.34 73.66c49.107 49.108 73.66 107.887 73.66 176.34c0 0 0 107.143 0 107.143c0 0 17.858 0 17.858 0c14.881 0 27.529 5.208 37.946 15.625c10.417 10.416 15.625 23.065 15.625 37.946c0 0 0 0 0 0m-464.286 -53.571c0 0 285.715 0 285.715 0c0 0 0 -107.143 0 -107.143c0 -39.435 -13.951 -73.103 -41.853 -101.005c-27.902 -27.902 -61.57 -41.852 -101.005 -41.852c-39.434 0 -73.102 13.95 -101.004 41.852c-27.902 27.902 -41.853 61.57 -41.853 101.005c0 0 0 107.143 0 107.143c0 0 0 0 0 0m175.224 206.473c26.041 -13.765 39.062 -34.97 39.062 -63.616c0 -19.718 -6.975 -36.552 -20.926 -50.503c-13.951 -13.95 -30.785 -20.926 -50.503 -20.926c-19.717 0 -36.551 6.976 -50.502 20.926c-13.951 13.951 -20.926 30.785 -20.926 50.503c0 28.646 13.021 49.851 39.062 63.616c0 0 -38.504 127.79 -38.504 127.79c-1.86 5.58 -0.93 10.789 2.79 15.625c3.72 4.836 8.557 7.254 14.509 7.254c0 0 107.143 0 107.143 0c5.952 0 10.789 -2.418 14.509 -7.254c3.72 -4.836 4.65 -10.045 2.79 -15.625c0 0 -38.504 -127.79 -38.504 -127.79" />
  </g>
</svg>