<svg height="1000" width="642.857" xmlns="http://www.w3.org/2000/svg"><path d="M178.56 428.608h285.696v-107.136q0 -59.148 -41.85 -100.998t-100.998 -41.85 -100.998 41.85 -41.85 100.998v107.136zm464.256 53.568v321.408q0 22.32 -15.624 37.944t-37.944 15.624h-535.68q-22.32 0 -37.944 -15.624t-15.624 -37.944v-321.408q0 -22.32 15.624 -37.944t37.944 -15.624h17.856v-107.136q0 -102.672 73.656 -176.328t176.328 -73.656 176.328 73.656 73.656 176.328v107.136h17.856q22.32 0 37.944 15.624t15.624 37.944z"/></svg>