<svg height="1000" width="642.857" xmlns="http://www.w3.org/2000/svg"><path d="M589.248 428.608q22.32 0 37.944 15.624t15.624 37.944v321.408q0 22.32 -15.624 37.944t-37.944 15.624h-535.68q-22.32 0 -37.944 -15.624t-15.624 -37.944v-321.408q0 -22.32 15.624 -37.944t37.944 -15.624h17.856v-178.56q0 -103.23 73.377 -176.607t176.607 -73.377 176.607 73.377 73.377 176.607q0 14.508 -10.602 25.11t-25.11 10.602h-35.712q-14.508 0 -25.11 -10.602t-10.602 -25.11q0 -59.148 -41.85 -100.998t-100.998 -41.85 -100.998 41.85 -41.85 100.998v178.56h410.688zm-196.974 334.242l-38.502 -127.782q17.856 -9.486 28.458 -26.226t10.602 -37.386q0 -29.574 -20.925 -50.499t-50.499 -20.925 -50.499 20.925 -20.925 50.499q0 20.646 10.602 37.386t28.458 26.226l-38.502 127.782q-2.79 8.37 2.79 15.624t14.508 7.254h107.136q8.928 0 14.508 -7.254t2.79 -15.624z"/></svg>