<svg height="1000" width="643" xmlns="http://www.w3.org/2000/svg"><path d="M0 803.584l0-321.408q0-22.32 15.624-37.944t37.944-15.624l17.856 0l0-107.136q0-102.672 73.656-176.328t176.328-73.656 176.328 73.656 73.656 176.328l0 107.136l17.856 0q22.32 0 37.944 15.624t15.624 37.944l0 321.408q0 22.32-15.624 37.944t-37.944 15.624l-535.68 0q-22.32 0-37.944-15.624t-15.624-37.944zm178.56-374.976l285.696 0l0-107.136q0-59.148-41.85-100.998t-100.998-41.85-100.998 41.85-41.85 100.998l0 107.136zm71.424 142.848q0 20.646 10.602 37.386t28.458 26.226l-38.502 127.782q-2.79 8.37 2.79 15.624t14.508 7.254l107.136 0q8.928 0 14.508-7.254t2.79-15.624l-38.502-127.782q17.856-9.486 28.458-26.226t10.602-37.386q0-29.574-20.925-50.499t-50.499-20.925-50.499 20.925-20.925 50.499z"/></svg>