<svg height="1000" width="928.6" xmlns="http://www.w3.org/2000/svg"><path d="M0 803.6v-321.4q0-22.3 15.6-37.9t37.9-15.6h375v-107.1q0-103.2 73.4-176.6t176.6-73.4 176.6 73.4 73.4 176.6v142.8q0 14.5-10.6 25.1t-25.1 10.6h-35.7q-14.5 0-25.1-10.6t-10.6-25.1v-142.8q0-59.1-41.9-101t-101-41.9-101 41.9-41.9 101v107.1h53.6q22.3 0 37.9 15.6t15.6 37.9v321.4q0 22.3-15.6 37.9t-37.9 15.6h-535.7q-22.3 0-37.9-15.6t-15.6-37.9zm250-35.7q0 7.3 5.3 12.6t12.6 5.3h107.1q7.3 0 12.6-5.3t5.3-12.6q0-3.3-8.4-31.8t-19.5-64.4-11.2-36.5q17.9-8.9 28.5-26.2t10.6-37.4q0-29.6-20.9-50.5t-50.5-20.9-50.5 20.9-20.9 50.5q0 20.1 10.6 37.1t28.5 26.5q0 1.1-11.2 36.8t-19.5 64.2-8.4 31.8z"/></svg>