<svg height="1000px" width="642.8571428571429px" xmlns="http://www.w3.org/2000/svg">
  <g>
    <path d="M0 803.5714285714286c0 0 0 -321.429 0 -321.429c0 -14.881 5.208 -27.529 15.625 -37.946c10.417 -10.417 23.065 -15.625 37.946 -15.625c0 0 17.858 0 17.858 0c0 0 0 -107.143 0 -107.143c0 -68.452 24.553 -127.232 73.66 -176.339c49.107 -49.107 107.887 -73.661 176.34 -73.661c68.452 0 127.232 24.554 176.339 73.661c49.107 49.107 73.661 107.887 73.661 176.339c0 0 0 107.143 0 107.143c0 0 17.857 0 17.857 0c14.881 0 27.529 5.208 37.946 15.625c10.417 10.417 15.625 23.065 15.625 37.946c0 0 0 321.429 0 321.429c0 14.881 -5.208 27.53 -15.625 37.946c-10.417 10.417 -23.065 15.625 -37.946 15.625c0 0 -535.715 0 -535.715 0c-14.881 0 -27.529 -5.208 -37.946 -15.625c-10.417 -10.416 -15.625 -23.065 -15.625 -37.946c0 0 0 0 0 0m178.571 -375c0 0 285.715 0 285.715 0c0 0 0 -107.143 0 -107.143c0 -39.434 -13.951 -73.103 -41.853 -101.004c-27.902 -27.902 -61.57 -41.853 -101.004 -41.853c-39.435 0 -73.103 13.951 -101.005 41.853c-27.902 27.901 -41.853 61.57 -41.853 101.004c0 0 0 107.143 0 107.143c0 0 0 0 0 0m71.429 142.857c0 13.765 3.534 26.228 10.603 37.389c7.068 11.16 16.555 19.903 28.46 26.227c0 0 -38.505 127.79 -38.505 127.79c-1.86 5.581 -0.93 10.789 2.79 15.625c3.72 4.837 8.557 7.255 14.509 7.255c0 0 107.143 0 107.143 0c5.952 0 10.789 -2.418 14.509 -7.255c3.72 -4.836 4.65 -10.044 2.79 -15.625c0 0 -38.504 -127.79 -38.504 -127.79c11.904 -6.324 21.391 -15.067 28.459 -26.227c7.069 -11.161 10.603 -23.624 10.603 -37.389c0 -19.717 -6.975 -36.551 -20.926 -50.502c-13.951 -13.951 -30.785 -20.926 -50.502 -20.926c-19.718 0 -36.552 6.975 -50.503 20.926c-13.951 13.951 -20.926 30.785 -20.926 50.502c0 0 0 0 0 0" />
  </g>
</svg>