<svg height="1000" width="928.571" xmlns="http://www.w3.org/2000/svg"><path d="M0 803.584v-321.408q0 -22.32 15.624 -37.944t37.944 -15.624h374.976v-107.136q0 -103.23 73.377 -176.607t176.607 -73.377 176.607 73.377 73.377 176.607v142.848q0 14.508 -10.602 25.11t-25.11 10.602h-35.712q-14.508 0 -25.11 -10.602t-10.602 -25.11v-142.848q0 -59.148 -41.85 -100.998t-100.998 -41.85 -100.998 41.85 -41.85 100.998v107.136h53.568q22.32 0 37.944 15.624t15.624 37.944v321.408q0 22.32 -15.624 37.944t-37.944 15.624h-535.68q-22.32 0 -37.944 -15.624t-15.624 -37.944zm249.984 -35.712q0 7.254 5.301 12.555t12.555 5.301h107.136q7.254 0 12.555 -5.301t5.301 -12.555q0 -3.348 -8.37 -31.806t-19.53 -64.449 -11.16 -36.549q17.856 -8.928 28.458 -26.226t10.602 -37.386q0 -29.574 -20.925 -50.499t-50.499 -20.925 -50.499 20.925 -20.925 50.499q0 20.088 10.602 37.107t28.458 26.505q0 1.116 -11.16 36.828t-19.53 64.17 -8.37 31.806z"/></svg>