<svg height="1000" width="642.9" xmlns="http://www.w3.org/2000/svg"><path d="M0 803.6v-321.4q0-22.3 15.6-37.9t37.9-15.6h17.9v-107.1q0-102.7 73.7-176.3t176.3-73.7 176.3 73.7 73.7 176.3v107.1h17.9q22.3 0 37.9 15.6t15.6 37.9v321.4q0 22.3-15.6 37.9t-37.9 15.6h-535.7q-22.3 0-37.9-15.6t-15.6-37.9zm178.6-375h285.7v-107.1q0-59.1-41.9-101t-101-41.9-101 41.9-41.9 101v107.1zm71.4 142.8q0 20.6 10.6 37.4t28.5 26.2l-38.5 127.8q-2.8 8.4 2.8 15.6t14.5 7.3h107.1q8.9 0 14.5-7.3t2.8-15.6l-38.5-127.8q17.9-9.5 28.5-26.2t10.6-37.4q0-29.6-20.9-50.5t-50.5-20.9-50.5 20.9-20.9 50.5z"/></svg>