<svg height="1000px" width="928.5714285714286px" xmlns="http://www.w3.org/2000/svg">
  <g>
    <path d="M0 803.5714285714286c0 0 0 -321.429 0 -321.429c0 -14.881 5.208 -27.529 15.625 -37.946c10.417 -10.417 23.065 -15.625 37.946 -15.625c0 0 375 0 375 0c0 0 0 -107.143 0 -107.143c0 -68.824 24.461 -127.697 73.382 -176.618c48.921 -48.921 107.794 -73.382 176.618 -73.382c68.825 0 127.698 24.461 176.619 73.382c48.921 48.921 73.381 107.794 73.381 176.618c0 0 0 142.857 0 142.857c0 9.673 -3.534 18.043 -10.602 25.112c-7.069 7.068 -15.439 10.603 -25.112 10.603c0 0 -35.714 0 -35.714 0c-9.673 0 -18.043 -3.535 -25.112 -10.603c-7.068 -7.069 -10.602 -15.439 -10.602 -25.112c0 0 0 -142.857 0 -142.857c0 -39.434 -13.951 -73.103 -41.853 -101.004c-27.902 -27.902 -61.57 -41.853 -101.005 -41.853c-39.434 0 -73.102 13.951 -101.004 41.853c-27.902 27.901 -41.853 61.57 -41.853 101.004c0 0 0 107.143 0 107.143c0 0 53.572 0 53.572 0c14.881 0 27.529 5.208 37.946 15.625c10.417 10.417 15.625 23.065 15.625 37.946c0 0 0 321.429 0 321.429c0 14.881 -5.208 27.53 -15.625 37.946c-10.417 10.417 -23.065 15.625 -37.946 15.625c0 0 -535.715 0 -535.715 0c-14.881 0 -27.529 -5.208 -37.946 -15.625c-10.417 -10.416 -15.625 -23.065 -15.625 -37.946c0 0 0 0 0 0m250 -35.714c0 4.836 1.767 9.021 5.301 12.556c3.535 3.534 7.72 5.301 12.556 5.301c0 0 107.143 0 107.143 0c4.836 0 9.022 -1.767 12.556 -5.301c3.534 -3.535 5.301 -7.72 5.301 -12.556c0 0 -39.062 -132.813 -39.062 -132.813c11.904 -5.952 21.391 -14.695 28.459 -26.227c7.069 -11.533 10.603 -25.577 10.603 -42.132c0 -16.555 -6.975 -31.808 -20.926 -45.759c-13.951 -13.951 -30.785 -20.926 -50.502 -20.926c-19.718 0 -36.552 6.975 -50.503 20.926c-13.951 13.951 -20.926 30.785 -20.926 50.502c0 28.646 13.021 49.851 39.062 63.616c0 0 -39.062 132.813 -39.062 132.813" />
  </g>
</svg>