<svg height="1000px" width="917.96875px" xmlns="http://www.w3.org/2000/svg">
  <g>
    <path d="M0 825.439453125c0 0 0 -305.664 0 -305.664c0 -15.951 5.697 -29.622 17.09 -41.016c11.393 -11.393 24.739 -17.09 40.039 -17.09c0 0 324.707 0 324.707 0c0 0 0 -76.171 0 -76.171c0 -36.784 6.999 -71.452 20.996 -104.004c13.997 -32.552 33.203 -61.035 57.617 -85.45c24.414 -24.414 52.897 -43.619 85.449 -57.617c32.553 -13.997 67.22 -20.996 104.004 -20.996c36.784 0 71.534 6.999 104.248 20.996c32.715 13.998 61.198 33.203 85.45 57.617c24.251 24.415 43.375 52.979 57.373 85.694c13.997 32.715 20.996 67.301 20.996 103.76c0 0 0 74.218 0 74.218c0 10.743 -3.662 19.776 -10.987 27.1c-7.324 7.324 -16.357 10.986 -27.099 10.986c0 0 -39.063 0 -39.063 0c-10.742 0 -19.694 -3.743 -26.855 -11.23c-7.162 -7.487 -10.742 -16.439 -10.742 -26.856c0 0 0 -74.218 0 -74.218c0 -21.485 -4.069 -41.504 -12.207 -60.059c-8.138 -18.555 -19.043 -34.668 -32.715 -48.34c-13.672 -13.672 -29.785 -24.495 -48.34 -32.471c-18.555 -7.975 -38.574 -11.962 -60.059 -11.962c-21.484 0 -41.341 3.987 -59.57 11.962c-18.229 7.976 -34.342 18.799 -48.34 32.471c-13.997 13.672 -24.984 29.867 -32.959 48.584c-7.975 18.718 -11.963 38.656 -11.963 59.815c0 0 0 76.171 0 76.171c0 0 58.106 0 58.106 0c15.299 0 28.564 5.616 39.795 16.846c11.23 11.231 16.845 24.984 16.845 41.26c0 0 0 305.664 0 305.664c0 15.299 -5.615 28.646 -16.845 40.039c-11.231 11.393 -24.496 17.09 -39.795 17.09c0 0 -498.047 0 -498.047 0c-15.3 0 -28.646 -5.697 -40.039 -17.09c-11.393 -11.393 -17.09 -24.74 -17.09 -40.039c0 0 0 0 0 0m241.211 -22.949c0 0 129.883 0 129.883 0c0 0 -32.227 -139.16 -32.227 -139.16c9.44 -5.86 17.171 -13.754 23.194 -23.682c6.022 -9.928 9.033 -20.589 9.033 -31.982c0 -17.904 -6.348 -33.366 -19.043 -46.387c-12.696 -13.021 -27.995 -19.531 -45.899 -19.531c-17.903 0 -33.203 6.51 -45.898 19.531c-12.695 13.021 -19.043 28.483 -19.043 46.387c0 11.393 2.93 22.054 8.789 31.982c5.859 9.928 13.509 17.497 22.949 22.705c0 0 -31.738 140.137 -31.738 140.137" />
  </g>
</svg>