<svg height="1000px" width="642.8571428571429px" xmlns="http://www.w3.org/2000/svg">
  <g>
    <path d="M0 803.5714285714286c0 0 0 -321.429 0 -321.429c0 -14.881 5.208 -27.529 15.625 -37.946c10.417 -10.417 23.065 -15.625 37.946 -15.625c0 0 17.858 0 17.858 0c0 0 0 -107.143 0 -107.143c0 -68.452 24.553 -127.232 73.66 -176.339c49.107 -49.107 107.887 -73.661 176.34 -73.661c68.452 0 127.232 24.554 176.339 73.661c49.107 49.107 73.661 107.887 73.661 176.339c0 0 0 107.143 0 107.143c0 0 17.857 0 17.857 0c14.881 0 27.529 5.208 37.946 15.625c10.417 10.417 15.625 23.065 15.625 37.946c0 0 0 321.429 0 321.429c0 14.881 -5.208 27.53 -15.625 37.946c-10.417 10.417 -23.065 15.625 -37.946 15.625c0 0 -535.715 0 -535.715 0c-14.881 0 -27.529 -5.208 -37.946 -15.625c-10.417 -10.416 -15.625 -23.065 -15.625 -37.946c0 0 0 0 0 0m178.571 -375c0 0 285.715 0 285.715 0c0 0 0 -107.143 0 -107.143c0 -39.434 -13.951 -73.103 -41.853 -101.004c-27.902 -27.902 -61.57 -41.853 -101.004 -41.853c-39.435 0 -73.103 13.951 -101.005 41.853c-27.902 27.901 -41.853 61.57 -41.853 101.004c0 0 0 107.143 0 107.143c0 0 0 0 0 0m71.057 339.72c0 3.555 1.24 6.944 3.72 10.169c3.72 4.836 8.557 7.254 14.509 7.254c0 0 107.143 0 107.143 0c5.952 0 10.789 -2.418 14.509 -7.254c2.48 -3.225 3.72 -6.614 3.72 -10.169c0 -1.778 -0.31 -3.596 -0.93 -5.456c0 0 -38.505 -127.791 -38.505 -127.791c26.042 -13.765 39.063 -34.97 39.063 -63.616c0 -19.717 -6.975 -36.551 -20.926 -50.502c-13.951 -13.951 -30.785 -20.926 -50.503 -20.926c-19.717 0 -36.551 6.975 -50.502 20.926c-13.951 13.951 -20.926 30.785 -20.926 50.502c0 28.646 13.021 49.851 39.062 63.616c0 0 -38.504 127.791 -38.504 127.791c-0.62 1.86 -0.93 3.678 -0.93 5.456c0 0 0 0 0 0" />
  </g>
</svg>