<svg height="1000" width="642.857" xmlns="http://www.w3.org/2000/svg"><path d="M392.832 571.456q0 -29.574 -20.925 -50.499t-50.499 -20.925 -50.499 20.925 -20.925 50.499q0 20.646 10.602 37.386t28.458 26.226l-38.502 127.782q-2.79 8.37 2.79 15.624t14.508 7.254h107.136q8.928 0 14.508 -7.254t2.79 -15.624l-38.502 -127.782q17.856 -9.486 28.458 -26.226t10.602 -37.386zm-214.272 -142.848h285.696v-107.136q0 -59.148 -41.85 -100.998t-100.998 -41.85 -100.998 41.85 -41.85 100.998v107.136zm464.256 53.568v321.408q0 22.32 -15.624 37.944t-37.944 15.624h-535.68q-22.32 0 -37.944 -15.624t-15.624 -37.944v-321.408q0 -22.32 15.624 -37.944t37.944 -15.624h17.856v-107.136q0 -102.672 73.656 -176.328t176.328 -73.656 176.328 73.656 73.656 176.328v107.136h17.856q22.32 0 37.944 15.624t15.624 37.944z"/></svg>