<svg height="1000" width="858" xmlns="http://www.w3.org/2000/svg"><path d="M0 607.168l0-214.272q0-14.508 10.602-25.11t25.11-10.602l249.984 0l0-160.704q0-14.508 10.602-25.11t25.11-10.602 25.11 10.602l303.552 303.552q10.602 10.602 10.602 25.11t-10.602 25.11l-303.552 303.552q-10.602 10.602-25.11 10.602t-25.11-10.602-10.602-25.11l0-160.704l-249.984 0q-14.508 0-25.11-10.602t-10.602-25.11zm499.131 206.181q.279-5.859 1.674-13.113t5.58-10.881 11.439-3.627l178.56 0q36.828 0 63.054-26.226t26.226-63.054l0-392.832q0-36.828-26.226-63.054t-63.054-26.226l-174.096 0l-6.417-.558-6.417-1.674-4.464-3.069-3.906-5.022-1.116-7.533q0-2.232-.558-11.16t-.279-14.787 1.674-13.113 5.58-10.881 11.439-3.627l178.56 0q66.402 0 113.553 47.151t47.151 113.553l0 392.832q0 66.402-47.151 113.553t-113.553 47.151l-178.56 0q-7.254 0-12.555-5.301t-5.301-12.555q0-2.232-.558-11.16t-.279-14.787z"/></svg>