<svg height="1000px" width="857.1428571428571px" xmlns="http://www.w3.org/2000/svg">
  <g>
    <path d="M522.3214285714286 214.28571428571422c-14.881 0 -22.321 -5.952 -22.321 -17.857c0 -1.488 -0.186 -5.208 -0.558 -11.161c-0.372 -5.952 -0.465 -10.882 -0.279 -14.788c0.558 -3.906 1.209 -8.277 1.953 -13.114c1.86 -9.672 7.44 -14.509 16.741 -14.509c0 0 178.571 0 178.571 0c44.271 0 82.124 15.718 113.56 47.154c31.436 31.436 47.154 69.29 47.154 113.561c0 0 0 392.857 0 392.857c0 44.271 -15.718 82.124 -47.154 113.56c-31.436 31.436 -69.289 47.154 -113.56 47.154c0 0 -178.571 0 -178.571 0c-4.837 0 -9.022 -1.767 -12.556 -5.301c-3.534 -3.534 -5.301 -6.883 -5.301 -10.045c0 -3.162 -0.186 -7.719 -0.558 -13.672c-0.372 -5.952 -0.465 -10.881 -0.279 -14.788c0.558 -3.906 1.209 -8.277 1.953 -13.113c1.86 -9.673 7.44 -14.509 16.741 -14.509c0 0 178.571 0 178.571 0c24.554 0 45.573 -8.743 63.058 -26.228c17.485 -17.485 26.228 -38.505 26.228 -63.058c0 0 0 -392.857 0 -392.857c0 -24.554 -8.743 -45.573 -26.228 -63.058c-17.485 -17.485 -38.504 -26.228 -63.058 -26.228c0 0 -174.107 0 -174.107 0c0 0 0 0 0 0m138.393 285.714c0 9.673 -3.534 18.043 -10.603 25.112c0 0 -303.571 303.571 -303.571 303.571c-7.069 7.069 -15.439 10.603 -25.112 10.603c-9.672 0 -18.043 -3.534 -25.111 -10.603c-7.069 -7.068 -10.603 -15.439 -10.603 -25.111c0 0 0 -160.715 0 -160.715c0 0 -250 0 -250 0c-9.673 0 -18.043 -3.534 -25.112 -10.602c-7.068 -7.069 -10.602 -15.439 -10.602 -25.112c0 0 0 -214.286 0 -214.286c0 -9.672 3.534 -18.043 10.602 -25.111c7.069 -7.069 15.439 -10.603 25.112 -10.603c0 0 250 0 250 0c0 0 0 -160.714 0 -160.714c0 -9.673 3.534 -18.043 10.603 -25.112c7.068 -7.068 15.439 -10.602 25.111 -10.602c9.673 0 18.043 3.534 25.112 10.602c0 0 303.571 303.572 303.571 303.572c7.069 7.068 10.603 15.439 10.603 25.111c0 0 0 0 0 0" />
  </g>
</svg>