<svg height="1000px" width="824.70703125px" xmlns="http://www.w3.org/2000/svg">
  <g>
    <path d="M0 589.84375c0 0 0 -179.688 0 -179.688c0 -10.742 3.662 -19.612 10.986 -26.611c7.325 -6.999 16.358 -10.498 27.1 -10.498c0 0 208.984 0 208.984 0c0 0 0 -143.066 0 -143.066c0 -13.347 6.022 -22.624 18.067 -27.832c12.695 -4.558 23.6 -2.279 32.715 6.836c0 0 270.019 270.019 270.019 270.019c5.208 5.86 7.894 13.021 8.057 21.485c0.162 8.463 -2.523 15.299 -8.057 20.507c0 0 -270.019 270.02 -270.019 270.02c-5.86 5.859 -12.859 8.789 -20.997 8.789c-2.604 0 -6.51 -0.651 -11.718 -1.953c-12.045 -5.209 -18.067 -14.486 -18.067 -27.832c0 0 0 -142.09 0 -142.09c0 0 -208.984 0 -208.984 0c-10.742 0 -19.775 -3.662 -27.1 -10.986c-7.324 -7.325 -10.986 -16.358 -10.986 -27.1c0 0 0 0 0 0m450.195 285.156c0 0 0 -94.238 0 -94.238c0 0 224.61 0 224.61 0c15.299 0 28.483 -5.453 39.55 -16.357c11.068 -10.905 16.602 -24.008 16.602 -39.307c0 0 0 -450.195 0 -450.195c0 -15.3 -5.452 -28.402 -16.357 -39.307c-10.905 -10.905 -24.17 -16.357 -39.795 -16.357c0 0 -224.61 0 -224.61 0c0 0 0 -94.239 0 -94.239c0 0 224.61 0 224.61 0c20.508 0 39.795 3.988 57.861 11.963c18.066 7.975 33.936 18.636 47.607 31.983c13.672 13.346 24.577 29.215 32.715 47.607c8.138 18.392 12.207 37.842 12.207 58.35c0 0 0 450.195 0 450.195c0 20.508 -4.069 39.795 -12.207 57.861c-8.138 18.067 -19.043 33.936 -32.715 47.608c-13.671 13.672 -29.459 24.495 -47.363 32.47c-17.903 7.976 -37.272 11.963 -58.105 11.963c0 0 -224.61 0 -224.61 0c0 0 0 0 0 0" />
  </g>
</svg>