<svg height="1000px" width="825px" xmlns="http://www.w3.org/2000/svg">
  <g>
    <path d="M0 590c0 0 0 -180 0 -180c0 -10.667 3.667 -19.5 11 -26.5c7.333 -7 16.333 -10.5 27 -10.5c0 0 209 0 209 0c0 0 0 -143 0 -143c0 -13.333 6 -22.667 18 -28c12.667 -4.667 23.667 -2.333 33 7c0 0 270 270 270 270c5.333 6 8 13.167 8 21.5c0 8.333 -2.667 15.167 -8 20.5c0 0 -270 270 -270 270c-6 6 -13 9 -21 9c-2.667 0 -6.667 -0.667 -12 -2c-12 -5.333 -18 -14.667 -18 -28c0 0 0 -142 0 -142c0 0 -209 0 -209 0c-10.667 0 -19.667 -3.667 -27 -11c-7.333 -7.333 -11 -16.333 -11 -27c0 0 0 0 0 0m450 285c0 0 0 -94 0 -94c0 0 225 0 225 0c15.333 0 28.5 -5.5 39.5 -16.5c11 -11 16.5 -24.167 16.5 -39.5c0 0 0 -450 0 -450c0 -15.333 -5.5 -28.5 -16.5 -39.5c-11 -11 -24.167 -16.5 -39.5 -16.5c0 0 -225 0 -225 0c0 0 0 -94 0 -94c0 0 225 0 225 0c20.667 0 40 4 58 12c18 8 33.833 18.667 47.5 32c13.667 13.333 24.5 29.167 32.5 47.5c8 18.333 12 37.833 12 58.5c0 0 0 450 0 450c0 20.667 -4 40 -12 58c-8 18 -18.833 33.833 -32.5 47.5c-13.667 13.667 -29.5 24.5 -47.5 32.5c-18 8 -37.333 12 -58 12c0 0 -225 0 -225 0c0 0 0 0 0 0" />
  </g>
</svg>