<svg height="1000px" width="857.1428571428571px" xmlns="http://www.w3.org/2000/svg">
  <g>
    <path d="M0 607.1428571428571c0 0 0 -214.286 0 -214.286c0 -9.672 3.534 -18.043 10.603 -25.111c7.068 -7.069 15.439 -10.603 25.111 -10.603c0 0 250 0 250 0c0 0 0 -160.714 0 -160.714c0 -9.673 3.535 -18.043 10.603 -25.112c7.068 -7.068 15.439 -10.603 25.112 -10.603c9.672 0 18.043 3.535 25.111 10.603c0 0 303.572 303.572 303.572 303.572c7.068 7.068 10.602 15.439 10.602 25.111c0 9.673 -3.534 18.043 -10.602 25.112c0 0 -303.572 303.571 -303.572 303.571c-7.068 7.069 -15.439 10.603 -25.111 10.603c-9.673 0 -18.044 -3.534 -25.112 -10.603c-7.068 -7.068 -10.603 -15.439 -10.603 -25.111c0 0 0 -160.715 0 -160.715c0 0 -250 0 -250 0c-9.672 0 -18.043 -3.534 -25.111 -10.602c-7.069 -7.069 -10.603 -15.439 -10.603 -25.112c0 0 0 0 0 0m499.163 206.194c0.186 -3.906 0.744 -8.277 1.674 -13.114c0.93 -4.836 2.79 -8.463 5.58 -10.881c2.791 -2.418 6.604 -3.628 11.44 -3.628c0 0 178.572 0 178.572 0c24.553 0 45.572 -8.742 63.058 -26.227c17.485 -17.485 26.227 -38.505 26.227 -63.058c0 0 0 -392.857 0 -392.857c0 -24.554 -8.742 -45.573 -26.227 -63.058c-17.486 -17.486 -38.505 -26.228 -63.058 -26.228c0 0 -160.715 0 -160.715 0c0 0 -6.138 0 -6.138 0c0 0 -7.255 0 -7.255 0c0 0 -2.139 -0.186 -6.417 -0.558c-4.278 -0.372 -6.417 -0.93 -6.417 -1.674c0 -0.744 -1.488 -1.767 -4.465 -3.069c-2.976 -1.303 -4.278 -2.977 -3.906 -5.023c0.372 -2.046 0 -4.557 -1.116 -7.533c0 -1.488 -0.186 -5.209 -0.558 -11.161c-0.372 -5.952 -0.465 -10.882 -0.279 -14.788c0.186 -3.906 0.744 -8.277 1.674 -13.114c0.93 -4.836 2.79 -8.463 5.58 -10.881c2.791 -2.419 6.604 -3.628 11.44 -3.628c0 0 178.572 0 178.572 0c44.27 0 82.124 15.718 113.56 47.154c31.436 31.436 47.154 69.29 47.154 113.561c0 0 0 392.857 0 392.857c0 44.271 -15.718 82.124 -47.154 113.56c-31.436 31.436 -69.29 47.154 -113.56 47.154c0 0 -178.572 0 -178.572 0c-4.836 0 -9.021 -1.767 -12.556 -5.301c-3.534 -3.535 -5.301 -7.72 -5.301 -12.556c0 -1.488 -0.186 -5.208 -0.558 -11.161c-0.372 -5.952 -0.465 -10.882 -0.279 -14.788c0 0 0 0 0 0" />
  </g>
</svg>