<svg height="1000px" width="928.5714285714286px" xmlns="http://www.w3.org/2000/svg">
  <g>
    <path d="M0 696.4285714285713c0 0 0 -392.857 0 -392.857c0 -44.271 15.718 -82.124 47.154 -113.56c31.436 -31.436 69.289 -47.154 113.56 -47.154c0 0 178.572 0 178.572 0c4.836 0 9.021 1.767 12.556 5.301c3.534 3.534 5.301 6.882 5.301 10.045c0 3.162 0.186 7.719 0.558 13.671c0.248 3.969 0.372 7.482 0.372 10.541c0 1.53 -0.031 2.945 -0.093 4.247c-0.558 3.907 -1.209 8.278 -1.953 13.114c-1.86 9.673 -7.441 14.509 -16.741 14.509c0 0 -178.572 0 -178.572 0c-24.553 0 -45.573 8.743 -63.058 26.228c-17.485 17.485 -26.227 38.504 -26.227 63.058c0 0 0 392.857 0 392.857c0 24.554 8.742 45.573 26.227 63.058c17.485 17.485 38.505 26.228 63.058 26.228c0 0 174.107 0 174.107 0c14.881 0 22.322 5.952 22.322 17.857c0 1.488 0.186 5.208 0.558 11.161c0.248 3.968 0.372 7.481 0.372 10.54c0 1.53 -0.031 2.945 -0.093 4.248c-0.558 3.906 -1.209 8.277 -1.953 13.113c-1.86 9.673 -7.441 14.509 -16.741 14.509c0 0 -178.572 0 -178.572 0c-44.271 0 -82.124 -15.718 -113.56 -47.154c-31.436 -31.436 -47.154 -69.289 -47.154 -113.56c0 0 0 0 0 0m214.286 -89.286c0 0 0 -214.285 0 -214.285c0 -9.673 3.534 -18.044 10.602 -25.112c7.069 -7.068 15.439 -10.603 25.112 -10.603c0 0 250 0 250 0c0 0 0 -160.714 0 -160.714c0 -9.673 3.534 -18.043 10.603 -25.112c7.068 -7.068 15.439 -10.602 25.111 -10.602c9.673 0 18.043 3.534 25.112 10.602c0 0 303.571 303.572 303.571 303.572c7.069 7.068 10.603 15.439 10.603 25.111c0 9.673 -3.534 18.044 -10.603 25.112c0 0 -303.571 303.571 -303.571 303.571c-7.069 7.069 -15.439 10.603 -25.112 10.603c-9.672 0 -18.043 -3.534 -25.111 -10.603c-7.069 -7.068 -10.603 -15.439 -10.603 -25.111c0 0 0 -160.714 0 -160.714c0 0 -250 0 -250 0c-9.673 0 -18.043 -3.535 -25.112 -10.603c-7.068 -7.069 -10.602 -15.439 -10.602 -25.112c0 0 0 0 0 0" />
  </g>
</svg>