<svg height="1000px" width="824.70703125px" xmlns="http://www.w3.org/2000/svg">
  <g>
    <path d="M0 725.09765625c0 0 0 -450.195 0 -450.195c0 -20.508 3.988 -39.795 11.963 -57.862c7.975 -18.066 18.799 -33.935 32.471 -47.607c13.671 -13.672 29.541 -24.496 47.607 -32.471c18.066 -7.975 37.354 -11.963 57.861 -11.963c0 0 225.098 0 225.098 0c0 0 0 94.239 0 94.239c0 0 -225.098 0 -225.098 0c-15.299 0 -28.401 5.452 -39.306 16.357c-10.905 10.905 -16.358 24.007 -16.358 39.307c0 0 0 450.195 0 450.195c0 15.299 5.453 28.402 16.358 39.307c10.905 10.905 24.007 16.357 39.306 16.357c0 0 225.098 0 225.098 0c0 0 0 94.238 0 94.238c0 0 -225.098 0 -225.098 0c-20.507 0 -39.795 -3.987 -57.861 -11.963c-18.066 -7.975 -33.936 -18.798 -47.607 -32.47c-13.672 -13.672 -24.496 -29.541 -32.471 -47.608c-7.975 -18.066 -11.963 -37.353 -11.963 -57.861c0 0 0 0 0 0m248.047 -135.254c0 0 0 -179.687 0 -179.687c0 -10.743 3.662 -19.613 10.986 -26.612c7.324 -6.998 16.358 -10.498 27.1 -10.498c0 0 208.984 0 208.984 0c0 0 0 -143.066 0 -143.066c0 -13.347 6.348 -22.624 19.043 -27.832c12.695 -4.558 23.275 -2.279 31.738 6.836c0 0 270.02 270.019 270.02 270.019c5.859 5.86 8.87 13.021 9.033 21.485c0.163 8.463 -2.848 15.299 -9.033 20.507c0 0 -270.02 270.02 -270.02 270.02c-5.859 5.859 -12.858 8.789 -20.996 8.789c-3.255 0 -6.836 -0.651 -10.742 -1.953c-12.695 -5.208 -19.043 -14.486 -19.043 -27.832c0 0 0 -142.09 0 -142.09c0 0 -208.984 0 -208.984 0c-10.742 0 -19.776 -3.662 -27.1 -10.986c-7.324 -7.325 -10.986 -16.358 -10.986 -27.1c0 0 0 0 0 0" />
  </g>
</svg>