<svg height="1000px" width="928.5714285714286px" xmlns="http://www.w3.org/2000/svg">
  <g>
    <path d="M0 696.4285714285713c0 0 0 -392.857 0 -392.857c0 -44.271 15.718 -82.124 47.154 -113.56c31.436 -31.436 69.289 -47.154 113.56 -47.154c0 0 178.572 0 178.572 0c4.836 0 9.021 1.767 12.556 5.301c3.534 3.534 5.301 7.719 5.301 12.556c0 1.488 0.186 5.208 0.558 11.16c0.372 5.953 0.465 10.882 0.279 14.788c-0.186 3.907 -0.744 8.278 -1.674 13.114c-0.93 4.837 -2.79 8.464 -5.581 10.882c-2.79 2.418 -6.603 3.627 -11.439 3.627c0 0 -178.572 0 -178.572 0c-24.553 0 -45.573 8.743 -63.058 26.228c-17.485 17.485 -26.227 38.504 -26.227 63.058c0 0 0 392.857 0 392.857c0 24.554 8.742 45.573 26.227 63.058c17.485 17.485 38.505 26.228 63.058 26.228c0 0 160.715 0 160.715 0c0 0 6.138 0 6.138 0c0 0 7.254 0 7.254 0c0 0 2.14 0.186 6.418 0.558c4.278 0.372 6.417 0.93 6.417 1.674c0 0.744 1.488 1.767 4.465 3.069c2.976 1.302 4.278 2.976 3.906 5.022c-0.372 2.047 0 4.558 1.116 7.534c0 1.488 0.186 5.208 0.558 11.161c0.372 5.952 0.465 10.881 0.279 14.788c-0.186 3.906 -0.744 8.277 -1.674 13.113c-0.93 4.837 -2.79 8.464 -5.581 10.882c-2.79 2.418 -6.603 3.627 -11.439 3.627c0 0 -178.572 0 -178.572 0c-44.271 0 -82.124 -15.718 -113.56 -47.154c-31.436 -31.436 -47.154 -69.289 -47.154 -113.56c0 0 0 0 0 0m214.286 -89.286c0 0 0 -214.285 0 -214.285c0 -9.673 3.534 -18.044 10.602 -25.112c7.069 -7.068 15.439 -10.603 25.112 -10.603c0 0 250 0 250 0c0 0 0 -160.714 0 -160.714c0 -9.673 3.534 -18.043 10.603 -25.112c7.068 -7.068 15.439 -10.602 25.111 -10.602c9.673 0 18.043 3.534 25.112 10.602c0 0 303.571 303.572 303.571 303.572c7.069 7.068 10.603 15.439 10.603 25.111c0 9.673 -3.534 18.044 -10.603 25.112c0 0 -303.571 303.571 -303.571 303.571c-7.069 7.069 -15.439 10.603 -25.112 10.603c-9.672 0 -18.043 -3.534 -25.111 -10.603c-7.069 -7.068 -10.603 -15.439 -10.603 -25.111c0 0 0 -160.714 0 -160.714c0 0 -250 0 -250 0c-9.673 0 -18.043 -3.535 -25.112 -10.603c-7.068 -7.069 -10.602 -15.439 -10.602 -25.112c0 0 0 0 0 0" />
  </g>
</svg>