<svg height="1000px" width="928.5714285714286px" xmlns="http://www.w3.org/2000/svg">
  <g>
    <path d="M875 499.99999999999994c0 9.673 -3.534 18.043 -10.603 25.112c0 0 -303.571 303.571 -303.571 303.571c-7.069 7.068 -15.439 10.603 -25.112 10.603c-9.672 0 -18.043 -3.535 -25.111 -10.603c-7.069 -7.068 -10.603 -15.439 -10.603 -25.112c0 0 0 -160.714 0 -160.714c0 0 -250 0 -250 0c-9.673 0 -18.043 -3.534 -25.112 -10.603c-7.068 -7.068 -10.602 -15.439 -10.602 -25.111c0 0 0 -214.286 0 -214.286c0 -9.672 3.534 -18.043 10.602 -25.111c7.069 -7.069 15.439 -10.603 25.112 -10.603c0 0 250 0 250 0c0 0 0 -160.714 0 -160.714c0 -9.673 3.534 -18.044 10.603 -25.112c7.068 -7.068 15.439 -10.603 25.111 -10.603c9.673 0 18.043 3.535 25.112 10.603c0 0 303.571 303.571 303.571 303.571c7.069 7.069 10.603 15.439 10.603 25.112c0 0 0 0 0 0m-540.179 285.714c14.881 0 22.322 5.953 22.322 17.857c0 1.489 0.186 5.209 0.558 11.161c0.372 5.953 0.465 10.882 0.279 14.788c-0.558 3.906 -1.209 8.278 -1.953 13.114c-1.86 9.673 -7.441 14.509 -16.741 14.509c0 0 -178.572 0 -178.572 0c-44.271 0 -82.124 -15.718 -113.56 -47.154c-31.436 -31.436 -47.154 -69.29 -47.154 -113.56c0 0 0 -392.858 0 -392.858c0 -44.27 15.718 -82.124 47.154 -113.56c31.436 -31.436 69.289 -47.154 113.56 -47.154c0 0 178.572 0 178.572 0c4.836 0 9.021 1.767 12.556 5.301c3.534 3.535 5.301 6.883 5.301 10.045c0 3.162 0.186 7.72 0.558 13.672c0.372 5.952 0.465 10.882 0.279 14.788c-0.558 3.906 -1.209 8.277 -1.953 13.114c-1.86 9.672 -7.441 14.509 -16.741 14.509c0 0 -178.572 0 -178.572 0c-24.553 0 -45.573 8.742 -63.058 26.227c-17.485 17.486 -26.227 38.505 -26.227 63.058c0 0 0 392.858 0 392.858c0 24.553 8.742 45.572 26.227 63.058c17.485 17.485 38.505 26.227 63.058 26.227c0 0 174.107 0 174.107 0c0 0 0 0 0 0" />
  </g>
</svg>