<svg height="1000px" width="825px" xmlns="http://www.w3.org/2000/svg">
  <g>
    <path d="M0 725c0 0 0 -450 0 -450c0 -20.667 4 -40 12 -58c8 -18 18.833 -33.833 32.5 -47.5c13.667 -13.667 29.5 -24.5 47.5 -32.5c18 -8 37.333 -12 58 -12c0 0 225 0 225 0c0 0 0 94 0 94c0 0 -225 0 -225 0c-15.333 0 -28.5 5.5 -39.5 16.5c-11 11 -16.5 24.167 -16.5 39.5c0 0 0 450 0 450c0 15.333 5.5 28.5 16.5 39.5c11 11 24.167 16.5 39.5 16.5c0 0 225 0 225 0c0 0 0 94 0 94c0 0 -225 0 -225 0c-20.667 0 -40 -4 -58 -12c-18 -8 -33.833 -18.833 -47.5 -32.5c-13.667 -13.667 -24.5 -29.5 -32.5 -47.5c-8 -18 -12 -37.333 -12 -58c0 0 0 0 0 0m248 -135c0 0 0 -180 0 -180c0 -10.667 3.667 -19.5 11 -26.5c7.333 -7 16.333 -10.5 27 -10.5c0 0 209 0 209 0c0 0 0 -143 0 -143c0 -13.333 6.333 -22.667 19 -28c12.667 -4.667 23.333 -2.333 32 7c0 0 270 270 270 270c6 6 9 13.167 9 21.5c0 8.333 -3 15.167 -9 20.5c0 0 -270 270 -270 270c-6 6 -13 9 -21 9c-3.333 0 -7 -0.667 -11 -2c-12.667 -5.333 -19 -14.667 -19 -28c0 0 0 -142 0 -142c0 0 -209 0 -209 0c-10.667 0 -19.667 -3.667 -27 -11c-7.333 -7.333 -11 -16.333 -11 -27c0 0 0 0 0 0" />
  </g>
</svg>