<svg height="1000" width="928.6" xmlns="http://www.w3.org/2000/svg"><path d="M0 696.4v-392.8q0-66.4 47.2-113.6t113.6-47.2h178.6q7.3 0 12.6 5.3t5.3 12.6q0 2.2.6 11.2t.3 14.8-1.7 13.1-5.6 10.9-11.4 3.6h-178.6q-36.8 0-63.1 26.2t-26.2 63.1v392.8q0 36.8 26.2 63.1t63.1 26.2h174.1l6.4.6 6.4 1.7 4.5 3.1 3.9 5 1.1 7.5q0 2.2.6 11.2t.3 14.8-1.7 13.1-5.6 10.9-11.4 3.6h-178.6q-66.4 0-113.6-47.2t-47.2-113.6zm214.3-89.3v-214.3q0-14.5 10.6-25.1t25.1-10.6h250v-160.7q0-14.5 10.6-25.1t25.1-10.6 25.1 10.6l303.6 303.6q10.6 10.6 10.6 25.1t-10.6 25.1l-303.6 303.6q-10.6 10.6-25.1 10.6t-25.1-10.6-10.6-25.1v-160.7h-250q-14.5 0-25.1-10.6t-10.6-25.1z"/></svg>