<svg height="1000" width="928.571" xmlns="http://www.w3.org/2000/svg"><path d="M357.12 803.584q0 2.232 .558 11.16t.279 14.787 -1.674 13.113 -5.58 10.881 -11.439 3.627h-178.56q-66.402 0 -113.553 -47.151t-47.151 -113.553v-392.832q0 -66.402 47.151 -113.553t113.553 -47.151h178.56q7.254 0 12.555 5.301t5.301 12.555q0 2.232 .558 11.16t.279 14.787 -1.674 13.113 -5.58 10.881 -11.439 3.627h-178.56q-36.828 0 -63.054 26.226t-26.226 63.054v392.832q0 36.828 26.226 63.054t63.054 26.226h174.096t6.417 .558 6.417 1.674 4.464 3.069 3.906 5.022 1.116 7.533zm517.824 -303.552q0 14.508 -10.602 25.11l-303.552 303.552q-10.602 10.602 -25.11 10.602t-25.11 -10.602 -10.602 -25.11v-160.704h-249.984q-14.508 0 -25.11 -10.602t-10.602 -25.11v-214.272q0 -14.508 10.602 -25.11t25.11 -10.602h249.984v-160.704q0 -14.508 10.602 -25.11t25.11 -10.602 25.11 10.602l303.552 303.552q10.602 10.602 10.602 25.11z"/></svg>