<svg height="1000" width="1000" xmlns="http://www.w3.org/2000/svg"><path d="M186.9 756.7q-1.1 0 -3.3 -1.1 -48 -31.8 -94 -80.9T11.7 574.2Q0 557.5 0 535.7q0 -5 1.1 -10.6t2.2 -10 4 -10.1 4.7 -8.9 5.9 -9.5 5.5 -8.4 6.7 -8.6 6.2 -8.1Q139 321.4 288.5 257.8 227.1 147.3 227.1 140.1q0 -10.6 9.5 -16.2Q301.3 88.2 308 88.2q10.1 0 15.7 8.9l69.2 127.8Q444.2 214.3 500 214.3q148.4 0 277.6 76.7t211.2 206.2q11.2 17.3 11.2 38.5t-11.2 38.5q-50.7 79.3 -121.9 141.5t-155.4 97.9q61.4 110.5 61.4 117.8 0 11.1 -9.5 16.1 -64.7 35.8 -70.9 35.8 -10.6 0 -16.2 -9L607.1 846.5l-35.7 -66.4L323.7 322.5l3.9 -3.9q-32.4 13.4 -55.3 26.3 1.7 2.8 70.9 130.5T478.8 726t66.4 124.4q0 4 -5 5.1 -7.3 1.6 -40.2 1.6 -31.8 0 -33.5 -3.9L212.1 383.9q-21.8 15.7 -45.8 38 13.4 24 119.4 219.6t106 197.8q0 5.6 -6.1 5.6 -7.8 0 -46 -12.3T299.1 817L240 707 115 476.6q-24.6 29.5 -43.6 59.1 1.1 1.7 10.1 14t12.8 18.9l98.2 182.5q0 5.6 -5.6 5.6zm463.2 -56.9l27.4 50.8q152.3 -62 251.1 -214.9Q828.1 381.1 672.4 318.6q37.4 35.8 57.5 82.9T750 500q0 59.2 -26.2 111.9t-73.7 87.9zM473.2 357.1q0 11.2 7.8 19t19 7.8q48 0 82 34.1t34.1 82q0 11.2 7.8 19t19 7.8 18.9 -7.8 7.8 -19q0 -70.3 -49.6 -120T500 330.4q-11.2 0 -19 7.8t-7.8 18.9zm204.3 -36.2l-5.1 -2.3 3.9 3.9z"/></svg>