<svg height="1000" width="928.6" xmlns="http://www.w3.org/2000/svg"><path d="M664.1 324.2L827.6 160.7 767.9 101 604.4 264.5zM913.5 160.7q0 15.1 -10 25.1L185.8 903.5q-10 10 -25.1 10t-25.1 -10L25.1 793q-10 -10.1 -10 -25.1t10 -25.2L742.7 25.1q10.1 -10 25.2 -10t25.1 10l110.5 110.5q10 10 10 25.1zM159.6 54.7l54.7 16.7 -54.7 16.8 -16.7 54.7L126.1 88.2 71.4 71.4l54.7 -16.7L142.9 0zm195.3 90.4l109.4 33.5 -109.4 33.5 -33.5 109.3L287.9 212.1 178.6 178.6l109.3 -33.5L321.4 35.7zm519 266.7l54.7 16.8 -54.7 16.7L857.1 500l-16.7 -54.7 -54.7 -16.7 54.7 -16.8 16.7 -54.7zM516.7 54.7l54.7 16.7 -54.7 16.8L500 142.9 483.3 88.2 428.6 71.4l54.7 -16.7L500 0z"/></svg>