<svg height="1000" width="928.6" xmlns="http://www.w3.org/2000/svg"><path d="M15.1 767.9q0-15.1 10-25.1l717.6-717.6q10-10 25.1-10t25.1 10l110.5 110.5q10 10 10 25.1t-10 25.1l-717.6 717.6q-10 10-25.1 10t-25.1-10l-110.5-110.5q-10-10-10-25.1zm56.4-696.4l54.7-16.7 16.7-54.7 16.7 54.7 54.7 16.7-54.7 16.7-16.7 54.7-16.7-54.7zm107.1 107.1l109.4-33.5 33.5-109.4 33.5 109.4 109.4 33.5-109.4 33.5-33.5 109.4-33.5-109.4zm250-107.1l54.7-16.7 16.7-54.7 16.7 54.7 54.7 16.7-54.7 16.7-16.7 54.7-16.7-54.7zm175.8 193.1l59.7 59.7 163.5-163.5-59.7-59.7zm181.4 164.1l54.7-16.7 16.7-54.7 16.7 54.7 54.7 16.7-54.7 16.7-16.7 54.7-16.7-54.7z"/></svg>