<svg height="1000" width="928.571" xmlns="http://www.w3.org/2000/svg"><path d="M15.066 767.872q0 -15.066 10.044 -25.11l717.588 -717.588q10.044 -10.044 25.11 -10.044t25.11 10.044l110.484 110.484q10.044 10.044 10.044 25.11t-10.044 25.11l-717.588 717.588q-10.044 10.044 -25.11 10.044t-25.11 -10.044l-110.484 -110.484q-10.044 -10.044 -10.044 -25.11zm56.358 -696.384l54.684 -16.74 16.74 -54.684 16.74 54.684 54.684 16.74 -54.684 16.74 -16.74 54.684 -16.74 -54.684zm107.136 107.136l109.368 -33.48 33.48 -109.368 33.48 109.368 109.368 33.48 -109.368 33.48 -33.48 109.368 -33.48 -109.368zm249.984 -107.136l54.684 -16.74 16.74 -54.684 16.74 54.684 54.684 16.74 -54.684 16.74 -16.74 54.684 -16.74 -54.684zm175.77 193.068l59.706 59.706 163.494 -163.494 -59.706 -59.706zm181.35 164.052l54.684 -16.74 16.74 -54.684 16.74 54.684 54.684 16.74 -54.684 16.74 -16.74 54.684 -16.74 -54.684z"/></svg>