<svg height="1000px" width="928.5714285714286px" xmlns="http://www.w3.org/2000/svg">
  <g>
    <path d="M15.066964285714286 767.8571428571428c0 -10.045 3.348 -18.415 10.045 -25.112c0 0 717.634 -717.634 717.634 -717.634c6.696 -6.696 15.067 -10.044 25.111 -10.044c10.045 0 18.415 3.348 25.112 10.044c0 0 110.491 110.492 110.491 110.492c6.696 6.696 10.045 15.066 10.045 25.111c0 10.045 -3.349 18.415 -10.045 25.112c0 0 -717.634 717.634 -717.634 717.634c-6.696 6.696 -15.067 10.044 -25.112 10.044c-10.044 0 -18.415 -3.348 -25.111 -10.044c0 0 -110.491 -110.491 -110.491 -110.491c-6.697 -6.697 -10.045 -15.067 -10.045 -25.112c0 0 0 0 0 0m56.362 -696.429c0 0 54.687 -16.741 54.687 -16.741c0 0 16.741 -54.687 16.741 -54.687c0 0 16.741 54.687 16.741 54.687c0 0 54.688 16.741 54.688 16.741c0 0 -54.688 16.741 -54.688 16.741c0 0 -16.741 54.688 -16.741 54.688c0 0 -16.741 -54.688 -16.741 -54.688c0 0 -54.687 -16.741 -54.687 -16.741m107.142 107.143c0 0 109.375 -33.482 109.375 -33.482c0 0 33.483 -109.375 33.483 -109.375c0 0 33.482 109.375 33.482 109.375c0 0 109.375 33.482 109.375 33.482c0 0 -109.375 33.482 -109.375 33.482c0 0 -33.482 109.375 -33.482 109.375c0 0 -33.483 -109.375 -33.483 -109.375c0 0 -109.375 -33.482 -109.375 -33.482m250 -107.143c0 0 54.688 -16.741 54.688 -16.741c0 0 16.741 -54.687 16.741 -54.687c0 0 16.741 54.687 16.741 54.687c0 0 54.688 16.741 54.688 16.741c0 0 -54.688 16.741 -54.688 16.741c0 0 -16.741 54.688 -16.741 54.688c0 0 -16.741 -54.688 -16.741 -54.688c0 0 -54.688 -16.741 -54.688 -16.741m175.782 193.081c0 0 59.71 59.71 59.71 59.71c0 0 163.504 -163.505 163.504 -163.505c0 0 -59.71 -59.71 -59.71 -59.71c0 0 -163.504 163.505 -163.504 163.505m181.361 164.062c0 0 54.688 -16.741 54.688 -16.741c0 0 16.741 -54.687 16.741 -54.687c0 0 16.741 54.687 16.741 54.687c0 0 54.687 16.741 54.687 16.741c0 0 -54.687 16.741 -54.687 16.741c0 0 -16.741 54.688 -16.741 54.688c0 0 -16.741 -54.688 -16.741 -54.688c0 0 -54.688 -16.741 -54.688 -16.741" />
  </g>
</svg>