<svg height="1000px" width="899.90234375px" xmlns="http://www.w3.org/2000/svg">
  <g>
    <path d="M0 778.80859375c0 -12.695 4.72 -22.624 14.16 -29.785c0 0 770.996 -608.887 770.996 -608.887c6.511 -5.534 14.16 -8.301 22.949 -8.301c11.394 0 20.997 4.72 28.809 14.16c3.255 3.907 8.057 9.359 14.404 16.358c6.348 6.999 12.533 14.16 18.555 21.484c6.022 7.325 11.231 15.056 15.625 23.194c4.395 8.138 6.592 15.136 6.592 20.996c0 12.695 -4.72 22.623 -14.16 29.785c0 0 -770.996 609.375 -770.996 609.375c-6.511 5.208 -14.161 7.812 -22.95 7.812c-12.044 0 -21.647 -4.72 -28.808 -14.16c-3.255 -3.906 -8.138 -9.358 -14.649 -16.357c-6.51 -6.999 -12.695 -14.16 -18.554 -21.485c-5.86 -7.324 -10.987 -14.974 -15.381 -22.949c-4.395 -7.975 -6.592 -15.055 -6.592 -21.24c0 0 0 0 0 0m125 -354.004c0 0 57.129 -17.578 57.129 -17.578c0 0 18.066 -57.129 18.066 -57.129c0 0 16.602 57.129 16.602 57.129c0 0 58.105 17.578 58.105 17.578c0 0 -58.105 18.066 -58.105 18.066c0 0 -16.602 57.129 -16.602 57.129c0 0 -18.066 -57.129 -18.066 -57.129c0 0 -57.129 -18.066 -57.129 -18.066m57.129 -149.902c0 0 114.746 -34.668 114.746 -34.668c0 0 35.156 -115.235 35.156 -115.235c0 0 35.157 115.235 35.157 115.235c0 0 114.746 34.668 114.746 34.668c0 0 -114.746 35.156 -114.746 35.156c0 0 -35.157 114.746 -35.157 114.746c0 0 -35.156 -114.746 -35.156 -114.746c0 0 -114.746 -35.156 -114.746 -35.156m277.832 -74.707c0 0 57.129 -18.067 57.129 -18.067c0 0 18.066 -57.129 18.066 -57.129c0 0 18.067 57.129 18.067 57.129c0 0 56.64 18.067 56.64 18.067c0 0 -56.64 17.578 -56.64 17.578c0 0 -18.067 57.129 -18.067 57.129c0 0 -18.066 -57.129 -18.066 -57.129c0 0 -57.129 -17.578 -57.129 -17.578m167.969 111.816c0 0 45.898 59.082 45.898 59.082c0 0 180.176 -142.09 180.176 -142.09c0 0 -45.899 -59.082 -45.899 -59.082c0 0 -180.175 142.09 -180.175 142.09m122.07 130.859c0 0 57.129 -17.089 57.129 -17.089c0 0 18.066 -57.618 18.066 -57.618c0 0 17.578 57.618 17.578 57.618c0 0 57.129 17.089 57.129 17.089c0 0 -57.129 18.067 -57.129 18.067c0 0 -17.578 57.129 -17.578 57.129c0 0 -18.066 -57.129 -18.066 -57.129c0 0 -57.129 -18.067 -57.129 -18.067" />
  </g>
</svg>