<svg height="1000" width="928.571" xmlns="http://www.w3.org/2000/svg"><path d="M664.02 324.262l163.494 -163.494 -59.706 -59.706 -163.494 163.494zm249.426 -163.494q0 15.066 -10.044 25.11l-717.588 717.588q-10.044 10.044 -25.11 10.044t-25.11 -10.044l-110.484 -110.484q-10.044 -10.044 -10.044 -25.11t10.044 -25.11l717.588 -717.588q10.044 -10.044 25.11 -10.044t25.11 10.044l110.484 110.484q10.044 10.044 10.044 25.11zm-753.858 -106.02l54.684 16.74 -54.684 16.74 -16.74 54.684 -16.74 -54.684 -54.684 -16.74 54.684 -16.74 16.74 -54.684zm195.3 90.396l109.368 33.48 -109.368 33.48 -33.48 109.368 -33.48 -109.368 -109.368 -33.48 109.368 -33.48 33.48 -109.368zm518.94 266.724l54.684 16.74 -54.684 16.74 -16.74 54.684 -16.74 -54.684 -54.684 -16.74 54.684 -16.74 16.74 -54.684zm-357.12 -357.12l54.684 16.74 -54.684 16.74 -16.74 54.684 -16.74 -54.684 -54.684 -16.74 54.684 -16.74 16.74 -54.684z"/></svg>