<svg height="1000px" width="928.5714285714286px" xmlns="http://www.w3.org/2000/svg">
  <g>
    <path d="M516.7410714285714 54.6875c0 0 54.688 16.741 54.688 16.741c0 0 -54.688 16.741 -54.688 16.741c0 0 -16.741 54.688 -16.741 54.688c0 0 -16.741 -54.688 -16.741 -54.688c0 0 -54.688 -16.741 -54.688 -16.741c0 0 54.688 -16.741 54.688 -16.741c0 0 16.741 -54.688 16.741 -54.688c0 0 16.741 54.688 16.741 54.688m357.143 357.143c0 0 54.687 16.741 54.687 16.741c0 0 -54.687 16.741 -54.687 16.741c0 0 -16.741 54.688 -16.741 54.688c0 0 -16.741 -54.688 -16.741 -54.688c0 0 -54.688 -16.741 -54.688 -16.741c0 0 54.688 -16.741 54.688 -16.741c0 0 16.741 -54.688 16.741 -54.688c0 0 16.741 54.688 16.741 54.688m-518.973 -266.741c0 0 109.375 33.482 109.375 33.482c0 0 -109.375 33.482 -109.375 33.482c0 0 -33.482 109.375 -33.482 109.375c0 0 -33.483 -109.375 -33.483 -109.375c0 0 -109.375 -33.482 -109.375 -33.482c0 0 109.375 -33.482 109.375 -33.482c0 0 33.483 -109.375 33.483 -109.375c0 0 33.482 109.375 33.482 109.375m-195.313 -90.402c0 0 54.688 16.741 54.688 16.741c0 0 -54.688 16.741 -54.688 16.741c0 0 -16.741 54.688 -16.741 54.688c0 0 -16.741 -54.688 -16.741 -54.688c0 0 -54.688 -16.741 -54.688 -16.741c0.001 0 54.688 -16.741 54.688 -16.741c0 0 16.741 -54.687 16.741 -54.687c0 0 16.741 54.687 16.741 54.687m753.906 106.027c0 10.044 -3.348 18.415 -10.044 25.111c0 0 -717.634 717.634 -717.634 717.634c-6.697 6.697 -15.067 10.045 -25.112 10.045c-10.044 0 -18.415 -3.348 -25.111 -10.045c0 0 -110.491 -110.491 -110.491 -110.491c-6.697 -6.696 -10.045 -15.067 -10.045 -25.111c0 -10.045 3.348 -18.416 10.045 -25.112c0 0 717.633 -717.634 717.633 -717.634c6.697 -6.696 15.067 -10.045 25.112 -10.045c10.045 0 18.415 3.349 25.112 10.045c0 0 110.491 110.491 110.491 110.491c6.696 6.697 10.044 15.067 10.044 25.112c0 0 0 0 0 0m-249.442 163.504c0 0 163.505 -163.504 163.505 -163.504c0 0 -59.71 -59.71 -59.71 -59.71c0 0 -163.504 163.504 -163.504 163.504c0 0 59.709 59.71 59.709 59.71" />
  </g>
</svg>