<svg height="1000px" width="764.6484375px" xmlns="http://www.w3.org/2000/svg">
  <g>
    <path d="M0 564.208984375c0 0 0 -140.625 0 -140.625c0 -5.208 1.872 -9.684 5.615 -13.428c3.744 -3.743 8.22 -5.615 13.428 -5.615c0 0 190.918 0 190.918 0c5.208 0 9.847 1.79 13.916 5.371c4.069 3.581 6.103 8.138 6.103 13.672c0 0 0 140.625 0 140.625c0 9.44 3.663 19.206 10.987 29.297c7.324 10.091 17.659 19.613 31.006 28.564c13.346 8.952 29.378 16.276 48.095 21.973c18.718 5.697 39.633 8.545 62.745 8.545c22.786 0 43.701 -2.848 62.744 -8.545c19.043 -5.697 35.237 -13.021 48.584 -21.973c13.346 -8.951 23.681 -18.473 31.005 -28.564c7.325 -10.091 10.987 -19.857 10.987 -29.297c0 0 0 -140.625 0 -140.625c0 -12.695 6.347 -19.043 19.043 -19.043c0 0 190.918 0 190.918 0c5.208 0 9.684 1.79 13.427 5.371c3.744 3.581 5.616 8.138 5.616 13.672c0 0 0 140.625 0 140.625c0 43.945 -10.01 85.286 -30.03 124.023c-20.019 38.737 -47.363 72.429 -82.031 101.075c-34.668 28.645 -75.195 51.351 -121.582 68.115c-46.387 16.764 -95.947 25.146 -148.682 25.146c-53.385 0 -103.19 -8.382 -149.414 -25.146c-46.224 -16.764 -86.669 -39.47 -121.337 -68.115c-34.668 -28.646 -62.012 -62.256 -82.032 -100.83c-20.019 -38.575 -30.029 -79.997 -30.029 -124.268c0 0 0 0 0 0m0 -236.816c0 0 0 -190.918 0 -190.918c0 -5.209 1.872 -9.685 5.615 -13.428c3.744 -3.744 8.22 -5.615 13.428 -5.615c0 0 190.918 0 190.918 0c5.208 0 9.847 1.871 13.916 5.615c4.069 3.743 6.103 8.219 6.103 13.428c0 0 0 190.918 0 190.918c0 5.208 -2.034 9.684 -6.103 13.427c-4.069 3.744 -8.708 5.616 -13.916 5.616c0 0 -190.918 0 -190.918 0c-5.208 0 -9.684 -1.872 -13.428 -5.616c-3.743 -3.743 -5.615 -8.219 -5.615 -13.427c0 0 0 0 0 0m536.133 0c0 0 0 -190.918 0 -190.918c0 -5.209 1.79 -9.685 5.371 -13.428c3.581 -3.744 8.138 -5.615 13.672 -5.615c0 0 190.918 0 190.918 0c5.208 0 9.684 1.871 13.427 5.615c3.744 3.743 5.616 8.219 5.616 13.428c0 0 0 190.918 0 190.918c0 5.208 -1.872 9.684 -5.616 13.427c-3.743 3.744 -8.219 5.616 -13.427 5.616c0 0 -190.918 0 -190.918 0c-12.696 0 -19.043 -6.348 -19.043 -19.043c0 0 0 0 0 0" />
  </g>
</svg>