<svg height="1000px" width="750px" xmlns="http://www.w3.org/2000/svg">
  <g>
    <path d="M0 564c0 0 0 -139 0 -139c0 -5.333 1.833 -9.833 5.5 -13.5c3.667 -3.667 8.167 -5.5 13.5 -5.5c0 0 187 0 187 0c5.333 0 9.833 1.833 13.5 5.5c3.667 3.667 5.5 8.167 5.5 13.5c0 0 0 139 0 139c0 8.667 3.667 18 11 28c7.333 10 17.5 19.333 30.5 28c13 8.667 28.667 15.833 47 21.5c18.333 5.667 38.833 8.5 61.5 8.5c22.667 0 43.167 -2.833 61.5 -8.5c18.333 -5.667 34 -12.833 47 -21.5c13 -8.667 23.167 -18 30.5 -28c7.333 -10 11 -19.333 11 -28c0 0 0 -139 0 -139c0 -5.333 1.833 -9.833 5.5 -13.5c3.667 -3.667 8.167 -5.5 13.5 -5.5c0 0 187 0 187 0c5.333 0 9.833 1.833 13.5 5.5c3.667 3.667 5.5 8.167 5.5 13.5c0 0 0 139 0 139c0 43.333 -9.833 83.833 -29.5 121.5c-19.667 37.667 -46.5 70.5 -80.5 98.5c-34 28 -73.667 50.167 -119 66.5c-45.333 16.333 -94 24.5 -146 24.5c-52 0 -100.667 -8.167 -146 -24.5c-45.333 -16.333 -85 -38.5 -119 -66.5c-34 -28 -60.833 -60.833 -80.5 -98.5c-19.667 -37.667 -29.5 -78.167 -29.5 -121.5c0 0 0 0 0 0m0 -233c0 0 0 -187 0 -187c0 -12.667 6.333 -19 19 -19c0 0 187 0 187 0c12.667 0 19 6.333 19 19c0 0 0 187 0 187c0 12.667 -6.333 19 -19 19c0 0 -187 0 -187 0c-12.667 0 -19 -6.333 -19 -19c0 0 0 0 0 0m525 0c0 0 0 -187 0 -187c0 -12.667 6.333 -19 19 -19c0 0 187 0 187 0c12.667 0 19 6.333 19 19c0 0 0 187 0 187c0 12.667 -6.333 19 -19 19c0 0 -187 0 -187 0c-12.667 0 -19 -6.333 -19 -19c0 0 0 0 0 0" />
  </g>
</svg>