<svg height="1000" width="858" xmlns="http://www.w3.org/2000/svg"><path d="M0 535.744l0-71.424q0-14.508 10.602-25.11t25.11-10.602l214.272 0q14.508 0 25.11 10.602t10.602 25.11l0 71.424q0 29.016 13.113 50.22t29.853 31.806 39.618 16.74 35.712 7.254 24.552 1.116 24.552-1.116 35.712-7.254 39.618-16.74 29.853-31.806 13.113-50.22l0-71.424q0-14.508 10.602-25.11t25.11-10.602l214.272 0q14.508 0 25.11 10.602t10.602 25.11l0 71.424q0 112.158-54.963 201.996t-152.892 140.337-220.689 50.499-220.689-50.499-152.892-140.337-54.963-201.996zm0-214.272l0-214.272q0-14.508 10.602-25.11t25.11-10.602l214.272 0q14.508 0 25.11 10.602t10.602 25.11l0 214.272q0 14.508-10.602 25.11t-25.11 10.602l-214.272 0q-14.508 0-25.11-10.602t-10.602-25.11zm571.392 0l0-214.272q0-14.508 10.602-25.11t25.11-10.602l214.272 0q14.508 0 25.11 10.602t10.602 25.11l0 214.272q0 14.508-10.602 25.11t-25.11 10.602l-214.272 0q-14.508 0-25.11-10.602t-10.602-25.11z"/></svg>