<svg height="1000" width="857.1" xmlns="http://www.w3.org/2000/svg"><path d="M0 535.7v-71.4q0-14.5 10.6-25.1t25.1-10.6h214.3q14.5 0 25.1 10.6t10.6 25.1v71.4q0 29 13.1 50.2t29.9 31.8 39.6 16.7 35.7 7.3 24.6 1.1 24.6-1.1 35.7-7.3 39.6-16.7 29.9-31.8 13.1-50.2v-71.4q0-14.5 10.6-25.1t25.1-10.6h214.3q14.5 0 25.1 10.6t10.6 25.1v71.4q0 112.2-55 202t-152.9 140.3-220.7 50.5-220.7-50.5-152.9-140.3-55-202zm0-214.3v-214.3q0-14.5 10.6-25.1t25.1-10.6h214.3q14.5 0 25.1 10.6t10.6 25.1v214.3q0 14.5-10.6 25.1t-25.1 10.6h-214.3q-14.5 0-25.1-10.6t-10.6-25.1zm571.4 0v-214.3q0-14.5 10.6-25.1t25.1-10.6h214.3q14.5 0 25.1 10.6t10.6 25.1v214.3q0 14.5-10.6 25.1t-25.1 10.6h-214.3q-14.5 0-25.1-10.6t-10.6-25.1z"/></svg>