<svg height="1000px" width="857.1428571428571px" xmlns="http://www.w3.org/2000/svg">
  <g>
    <path d="M857.1428571428571 107.14285714285711c0 0 0 214.286 0 214.286c0 9.672 -3.534 18.043 -10.603 25.111c-7.068 7.069 -15.439 10.603 -25.111 10.603c0 0 -214.286 0 -214.286 0c-9.673 0 -18.043 -3.534 -25.112 -10.603c-7.068 -7.068 -10.602 -15.439 -10.602 -25.111c0 0 0 -214.286 0 -214.286c0 -9.673 3.534 -18.043 10.602 -25.112c7.069 -7.068 15.439 -10.602 25.112 -10.602c0 0 214.286 0 214.286 0c9.672 0 18.043 3.534 25.111 10.602c7.069 7.069 10.603 15.439 10.603 25.112c0 0 0 0 0 0m-571.429 0c0 0 0 214.286 0 214.286c0 9.672 -3.534 18.043 -10.602 25.111c-7.069 7.069 -15.439 10.603 -25.112 10.603c0 0 -214.286 0 -214.286 0c-9.672 0 -18.043 -3.534 -25.111 -10.603c-7.069 -7.068 -10.603 -15.439 -10.603 -25.111c0 0 0 -214.286 0 -214.286c0 -9.673 3.534 -18.043 10.603 -25.112c7.068 -7.068 15.439 -10.602 25.111 -10.602c0 0 214.286 0 214.286 0c9.673 0 18.043 3.534 25.112 10.602c7.068 7.069 10.602 15.439 10.602 25.112c0 0 0 0 0 0m571.429 357.143c0 0 0 71.428 0 71.428c0 74.777 -18.322 142.114 -54.967 202.009c-36.644 59.896 -87.611 106.678 -152.901 140.346c-65.29 33.668 -138.858 50.503 -220.703 50.503c-81.846 0 -155.413 -16.835 -220.704 -50.503c-65.29 -33.668 -116.257 -80.45 -152.901 -140.346c-36.645 -59.895 -54.967 -127.232 -54.967 -202.009c0 0 0 -71.428 0 -71.428c0 -9.673 3.534 -18.043 10.603 -25.112c7.068 -7.068 15.439 -10.602 25.111 -10.602c0 0 214.286 0 214.286 0c9.673 0 18.043 3.534 25.112 10.602c7.068 7.069 10.602 15.439 10.602 25.112c0 0 0 71.428 0 71.428c0 19.346 4.372 36.087 13.114 50.224c8.743 14.137 18.694 24.739 29.855 31.808c11.161 7.068 24.368 12.648 39.621 16.741c15.253 4.092 27.157 6.51 35.714 7.254c8.557 0.744 16.741 1.116 24.554 1.116c7.812 0 15.997 -0.372 24.553 -1.116c8.557 -0.744 20.461 -3.162 35.714 -7.254c15.253 -4.093 28.46 -9.673 39.621 -16.741c11.161 -7.069 21.112 -17.671 29.855 -31.808c8.742 -14.137 13.114 -30.878 13.114 -50.224c0 0 0 -71.428 0 -71.428c0 -9.673 3.534 -18.043 10.602 -25.112c7.069 -7.068 15.439 -10.602 25.112 -10.602c0 0 214.286 0 214.286 0c9.672 0 18.043 3.534 25.111 10.602c7.069 7.069 10.603 15.439 10.603 25.112c0 0 0 0 0 0" />
  </g>
</svg>