<svg height="1000" width="857.143" xmlns="http://www.w3.org/2000/svg"><path d="M857.088 464.32v71.424q0 112.158 -54.963 201.996t-152.892 140.337 -220.689 50.499 -220.689 -50.499 -152.892 -140.337 -54.963 -201.996v-71.424q0 -14.508 10.602 -25.11t25.11 -10.602h214.272q14.508 0 25.11 10.602t10.602 25.11v71.424q0 29.016 13.113 50.22t29.853 31.806 39.618 16.74 35.712 7.254 24.552 1.116 24.552 -1.116 35.712 -7.254 39.618 -16.74 29.853 -31.806 13.113 -50.22v-71.424q0 -14.508 10.602 -25.11t25.11 -10.602h214.272q14.508 0 25.11 10.602t10.602 25.11zm-571.392 -357.12v214.272q0 14.508 -10.602 25.11t-25.11 10.602h-214.272q-14.508 0 -25.11 -10.602t-10.602 -25.11v-214.272q0 -14.508 10.602 -25.11t25.11 -10.602h214.272q14.508 0 25.11 10.602t10.602 25.11zm571.392 0v214.272q0 14.508 -10.602 25.11t-25.11 10.602h-214.272q-14.508 0 -25.11 -10.602t-10.602 -25.11v-214.272q0 -14.508 10.602 -25.11t25.11 -10.602h214.272q14.508 0 25.11 10.602t10.602 25.11z"/></svg>