<svg height="1000" width="857.1" xmlns="http://www.w3.org/2000/svg"><path d="M696.4 71.4q66.4 0 113.6 47.2t47.1 113.5v535.8q0 66.4 -47.1 113.5t-113.6 47.2H160.7q-66.4 0 -113.5 -47.2T0 767.9V232.1Q0 165.7 47.2 118.6T160.7 71.4h535.7zm17.9 589.3V417.4q-17.3 19.5 -35.7 30.7 -19 12.3 -74 47.4t-84.5 55.3q-54.7 38.5 -91.5 38.5 -36.9 0 -91.5 -38.5 -25.7 -17.9 -79 -51.6t-79.5 -51.7q-6.7 -4.4 -18.4 -15t-17.3 -15.1v243.3q0 22.3 15.6 38t37.9 15.6h464.3q22.3 0 38 -15.6t15.6 -38zm0 -319.7q0 -22.9 -15.4 -39.1t-38.2 -16.2H196.4q-22.3 0 -37.9 15.6t-15.6 38q0 20.6 17 42.7t37.6 36q26.3 17.8 76.8 49.6t72.2 46.4q1.7 1.1 9.5 6.4t11.7 7.8 11.8 7.2 13.1 7.3 12 5.3 12.5 4.2 11.5 1.4 11.4 -1.4 12.6 -4.2 12 -5.3 13.1 -7.3 11.7 -7.2 11.7 -7.8 9.5 -6.4l149 -97.1Q679.1 404 696.7 382t17.6 -41z"/></svg>