<svg height="1000px" width="899.90234375px" xmlns="http://www.w3.org/2000/svg">
  <g>
    <path d="M0 818.84765625c0 0 0 -637.695 0 -637.695c0 -15.3 5.534 -28.483 16.602 -39.551c11.067 -11.068 24.251 -16.602 39.55 -16.602c0 0 788.086 0 788.086 0c15.3 0 28.402 5.534 39.307 16.602c10.905 11.068 16.357 24.251 16.357 39.551c0 0 0 637.695 0 637.695c0 15.299 -5.452 28.483 -16.357 39.551c-10.905 11.067 -24.007 16.601 -39.307 16.601c0 0 -788.086 0 -788.086 0c-15.299 0 -28.483 -5.534 -39.55 -16.601c-11.068 -11.068 -16.602 -24.252 -16.602 -39.551c0 0 0 0 0 0m75.195 -19.043c0 0 750 0 750 0c0 0 0 -416.016 0 -416.016c-10.091 10.092 -19.531 18.23 -28.32 24.414c-34.505 26.042 -69.092 52.002 -103.76 77.881c-34.668 25.879 -69.092 52.491 -103.271 79.834c-19.857 15.951 -41.26 31.25 -64.209 45.899c-22.949 14.648 -48.421 21.972 -76.416 21.972c-26.693 0 -51.595 -7.324 -74.707 -21.972c-23.112 -14.649 -44.597 -29.948 -64.453 -45.899c-33.855 -27.343 -68.197 -54.036 -103.028 -80.078c-34.83 -26.041 -69.498 -51.92 -104.004 -77.637c-8.789 -5.859 -18.066 -13.997 -27.832 -24.414c0 0 0 416.016 0 416.016c0 0 0 0 0 0m0 -567.871c0 10.091 2.279 20.752 6.836 31.982c4.558 11.231 10.336 22.054 17.334 32.471c6.999 10.417 14.649 20.101 22.949 29.053c8.301 8.952 16.521 16.52 24.659 22.705c32.552 24.739 65.022 49.235 97.412 73.486c32.389 24.252 64.86 49.072 97.412 74.463c6.51 5.208 14.323 11.312 23.437 18.311c9.115 6.998 18.555 13.834 28.321 20.507c9.765 6.674 19.45 12.37 29.052 17.09c9.603 4.72 18.474 7.08 26.612 7.08c0 0 0.976 0 0.976 0c0 0 0.977 0 0.977 0c8.138 0 17.008 -2.36 26.611 -7.08c9.603 -4.72 19.206 -10.416 28.809 -17.09c9.603 -6.673 18.88 -13.509 27.832 -20.507c8.952 -6.999 16.846 -13.103 23.681 -18.311c32.553 -25.391 65.023 -50.293 97.413 -74.707c32.389 -24.414 64.86 -48.828 97.412 -73.242c8.138 -5.86 16.357 -13.346 24.658 -22.461c8.301 -9.115 15.95 -18.88 22.949 -29.297c6.999 -10.417 12.858 -21.24 17.578 -32.471c4.72 -11.23 7.08 -21.891 7.08 -31.982c0 0 0 -31.738 0 -31.738c0 0 -750 0 -750 0c0 0 0 31.738 0 31.738c0 0 0 0 0 0" />
  </g>
</svg>