<svg height="1000px" width="1000px" xmlns="http://www.w3.org/2000/svg">
  <g>
    <path d="M0 839.2857142857142c0 0 0 -607.143 0 -607.143c0 -24.553 8.743 -45.573 26.228 -63.058c17.485 -17.485 38.504 -26.228 63.058 -26.228c0 0 821.428 0 821.428 0c24.554 0 45.573 8.743 63.058 26.228c17.485 17.485 26.228 38.505 26.228 63.058c0 0 0 607.143 0 607.143c0 24.554 -8.743 45.573 -26.228 63.058c-17.485 17.485 -38.504 26.228 -63.058 26.228c0 0 -821.428 0 -821.428 0c-24.554 0 -45.573 -8.743 -63.058 -26.228c-17.485 -17.485 -26.228 -38.504 -26.228 -63.058c0 0 0 0 0 0m71.429 0c0 4.836 1.767 9.022 5.301 12.556c3.534 3.534 7.719 5.301 12.556 5.301c0 0 821.428 0 821.428 0c4.837 0 9.022 -1.767 12.556 -5.301c3.534 -3.534 5.301 -7.72 5.301 -12.556c0 0 0 -428.571 0 -428.571c-11.904 13.392 -24.739 25.669 -38.504 36.83c-99.702 76.637 -178.943 139.509 -237.723 188.616c-18.973 15.997 -34.412 28.46 -46.317 37.388c-11.905 8.929 -27.995 17.951 -48.27 27.065c-20.276 9.115 -39.342 13.672 -57.199 13.672c0 0 -0.558 0 -0.558 0c0 0 -0.558 0 -0.558 0c-17.857 0 -36.923 -4.557 -57.199 -13.672c-20.275 -9.114 -36.365 -18.136 -48.27 -27.065c-11.905 -8.928 -27.344 -21.391 -46.317 -37.388c-58.78 -49.107 -138.021 -111.979 -237.723 -188.616c-13.765 -11.161 -26.6 -23.438 -38.504 -36.83c0 0 0 428.571 0 428.571c0 0 0 0 0 0m0 -607.143c0 62.5 27.343 115.328 82.031 158.482c71.8 56.548 146.391 115.514 223.772 176.898c2.232 1.86 8.743 7.347 19.531 16.462c10.789 9.114 19.346 16.09 25.67 20.926c6.324 4.836 14.602 10.696 24.833 17.578c10.23 6.883 19.624 11.998 28.18 15.346c8.557 3.348 16.555 5.022 23.996 5.022c0 0 0.558 0 0.558 0c0 0 0.558 0 0.558 0c7.441 0 15.439 -1.674 23.996 -5.022c8.556 -3.348 17.95 -8.463 28.18 -15.346c10.231 -6.882 18.509 -12.742 24.833 -17.578c6.324 -4.836 14.881 -11.812 25.67 -20.926c10.788 -9.115 17.299 -14.602 19.531 -16.462c77.381 -61.384 151.972 -120.35 223.772 -176.898c20.089 -15.997 38.784 -37.481 56.083 -64.453c17.299 -26.972 25.948 -51.432 25.948 -73.382c0 0 0 -6.138 0 -6.138c0 0 0 -7.533 0 -7.533c0 0 -0.093 -2.419 -0.279 -7.255c-0.186 -4.836 -0.744 -7.161 -1.674 -6.975c-0.93 0.186 -1.953 -1.488 -3.069 -5.023c-1.116 -3.534 -2.79 -4.929 -5.022 -4.185c-2.232 0.744 -4.837 0.279 -7.813 -1.395c0 0 -821.428 0 -821.428 0c-4.837 0 -9.022 1.767 -12.556 5.301c-3.534 3.535 -5.301 7.72 -5.301 12.556c0 0 0 0 0 0" />
  </g>
</svg>