<svg height="1000" width="1000" xmlns="http://www.w3.org/2000/svg"><path d="M928.512 839.296v-428.544q-17.856 20.088 -38.502 36.828 -149.544 114.948 -237.708 188.604 -28.458 23.994 -46.314 37.386t-48.267 27.063 -57.195 13.671h-1.116q-26.784 0 -57.195 -13.671t-48.267 -27.063 -46.314 -37.386q-88.164 -73.656 -237.708 -188.604 -20.646 -16.74 -38.502 -36.828v428.544q0 7.254 5.301 12.555t12.555 5.301h821.376q7.254 0 12.555 -5.301t5.301 -12.555zm0 -586.458v-13.671t-.279 -7.254 -1.674 -6.975 -3.069 -5.022 -5.022 -4.185 -7.812 -1.395h-821.376q-7.254 0 -12.555 5.301t-5.301 12.555q0 93.744 82.026 158.472 107.694 84.816 223.758 176.886 3.348 2.79 19.53 16.461t25.668 20.925 24.831 17.577 28.179 15.345 23.994 5.022h1.116q11.16 0 23.994 -5.022t28.179 -15.345 24.831 -17.577 25.668 -20.925 19.53 -16.461q116.064 -92.07 223.758 -176.886 30.132 -23.994 56.079 -64.449t25.947 -73.377zm71.424 -20.646v607.104q0 36.828 -26.226 63.054t-63.054 26.226h-821.376q-36.828 0 -63.054 -26.226t-26.226 -63.054v-607.104q0 -36.828 26.226 -63.054t63.054 -26.226h821.376q36.828 0 63.054 26.226t26.226 63.054z"/></svg>