<svg height="1000px" width="1000px" xmlns="http://www.w3.org/2000/svg">
  <g>
    <path d="M1000 232.1428571428571c0 0 0 607.143 0 607.143c0 24.553 -8.743 45.573 -26.228 63.058c-17.485 17.485 -38.504 26.228 -63.058 26.228c0 0 -821.428 0 -821.428 0c-24.554 0 -45.573 -8.743 -63.058 -26.228c-17.485 -17.485 -26.228 -38.505 -26.228 -63.058c0 0 0 -607.143 0 -607.143c0 -24.554 8.743 -45.573 26.228 -63.058c17.485 -17.485 38.504 -26.228 63.058 -26.228c0 0 821.428 0 821.428 0c24.554 0 45.573 8.743 63.058 26.228c17.485 17.485 26.228 38.504 26.228 63.058c0 0 0 0 0 0m-500.558 410.714c0 0 1.116 0 1.116 0c14.509 0 29.39 -5.115 44.643 -15.346c15.253 -10.23 26.042 -17.764 32.366 -22.6c6.324 -5.208 14.881 -12.277 25.67 -21.205c20.461 -17.114 101.562 -81.474 243.303 -193.081c20.089 -15.997 38.784 -37.481 56.083 -64.453c17.299 -26.972 25.948 -51.432 25.948 -73.382c0 0 0 -13.951 0 -13.951c0 -16.369 -5.952 -24.553 -17.857 -24.553c0 0 -821.428 0 -821.428 0c-4.837 0 -9.022 1.767 -12.556 5.301c-3.534 3.534 -5.301 7.72 -5.301 12.556c0 62.5 27.343 115.327 82.031 158.482c141.741 111.607 220.424 174.014 236.049 187.221c15.625 13.207 26.6 22.229 32.924 27.065c6.324 5.208 14.695 11.161 25.112 17.857c20.089 13.393 37.388 20.089 51.897 20.089c0 0 0 0 0 0m1.116 71.429c0 0 -1.116 0 -1.116 0c-17.857 0 -36.923 -4.557 -57.199 -13.672c-20.275 -9.115 -36.365 -18.136 -48.27 -27.065c-11.905 -8.928 -37.295 -29.669 -76.172 -62.221c-38.876 -32.552 -108.166 -87.146 -207.868 -163.783c-13.765 -11.161 -26.6 -23.438 -38.504 -36.831c0 0 0 428.572 0 428.572c0 4.836 1.767 9.021 5.301 12.556c3.534 3.534 7.719 5.301 12.556 5.301c0 0 821.428 0 821.428 0c4.837 0 9.022 -1.767 12.556 -5.301c3.534 -3.535 5.301 -7.72 5.301 -12.556c0 0 0 -428.572 0 -428.572c-11.904 13.393 -24.739 25.67 -38.504 36.831c-99.702 76.637 -168.992 131.231 -207.868 163.783c-38.877 32.552 -64.267 53.293 -76.172 62.221c-11.905 8.929 -27.995 17.95 -48.27 27.065c-20.276 9.115 -39.342 13.672 -57.199 13.672c0 0 0 0 0 0" />
  </g>
</svg>