<svg height="1000px" width="1000px" xmlns="http://www.w3.org/2000/svg">
  <g>
    <path d="M500.5580357142857 642.8571428571429c0 0 -1.116 0 -1.116 0c-17.113 0 -34.226 -5.022 -51.339 -15.067c-17.113 -10.045 -29.669 -17.764 -37.668 -23.158c-7.998 -5.395 -18.043 -12.463 -30.134 -21.206c-12.09 -8.742 -27.529 -19.717 -46.317 -32.924c-18.787 -13.207 -59.988 -41.853 -123.605 -85.937c-63.616 -44.085 -101.748 -70.592 -114.397 -79.521c-23.065 -15.625 -44.829 -37.109 -65.29 -64.453c-20.461 -27.343 -30.692 -54.129 -30.692 -80.357c0 -26.227 7.719 -49.014 23.158 -68.359c15.439 -19.345 37.482 -29.018 66.128 -29.018c0 0 821.428 0 821.428 0c24.182 0 45.108 8.743 62.779 26.228c17.671 17.485 26.507 39.713 26.507 66.685c0 26.972 -9.115 53.85 -27.344 80.636c-18.229 26.786 -40.922 49.665 -68.08 68.639c-175.223 121.651 -269.531 187.313 -282.924 196.986c-13.393 9.673 -24.089 17.206 -32.087 22.601c-8.371 5.394 -18.136 11.439 -29.297 18.136c-23.066 13.393 -42.969 20.089 -59.71 20.089c0 0 0 0 0 0m-1.116 71.429c0 0 1.116 0 1.116 0c18.973 0 39.435 -4.558 61.384 -13.672c21.949 -9.115 39.527 -18.043 52.734 -26.786c13.207 -8.743 40.923 -28.46 83.148 -59.152c42.224 -30.692 124.349 -87.332 246.372 -169.922c21.206 -14.509 39.807 -30.692 55.804 -48.549c0 0 0 443.081 0 443.081c0 24.553 -8.743 45.572 -26.228 63.058c-17.485 17.485 -38.504 26.227 -63.058 26.227c0 0 -821.428 0 -821.428 0c-24.554 0 -45.573 -8.742 -63.058 -26.227c-17.485 -17.486 -26.228 -38.505 -26.228 -63.058c0 0 0 -443.081 0 -443.081c16.369 18.229 35.156 34.412 56.362 48.549c134.672 91.518 219.866 150.391 255.58 176.619c35.714 26.227 60.175 43.712 73.382 52.455c13.206 8.743 30.785 17.671 52.734 26.786c21.949 9.114 42.411 13.672 61.384 13.672c0 0 0 0 0 0" />
  </g>
</svg>