<svg height="1000" width="1000" xmlns="http://www.w3.org/2000/svg"><path d="M999.936 396.244v443.052q0 36.828 -26.226 63.054t-63.054 26.226h-821.376q-36.828 0 -63.054 -26.226t-26.226 -63.054v-443.052q24.552 27.342 56.358 48.546 201.996 137.268 277.326 192.51 31.806 23.436 51.615 36.549t52.731 26.784 61.38 13.671h1.116q28.458 0 61.38 -13.671t52.731 -26.784 51.615 -36.549q94.86 -68.634 277.884 -192.51 31.806 -21.762 55.8 -48.546zm0 -164.052q0 44.082 -27.342 84.258t-68.076 68.634q-209.808 145.638 -261.144 181.35 -5.58 3.906 -23.715 17.019t-30.132 21.204 -29.016 18.135 -32.085 15.066 -27.9 5.022h-1.116q-12.834 0 -27.9 -5.022t-32.085 -15.066 -29.016 -18.135 -30.132 -21.204 -23.715 -17.019q-50.778 -35.712 -146.196 -101.835t-114.39 -79.515q-34.596 -23.436 -65.286 -64.449t-30.69 -76.167q0 -43.524 23.157 -72.54t66.123 -29.016h821.376q36.27 0 62.775 26.226t26.505 63.054z"/></svg>