<svg height="1000" width="1000" xmlns="http://www.w3.org/2000/svg"><path d="M0 839.3v-607.1q0-36.8 26.2-63.1t63.1-26.2h821.4q36.8 0 63.1 26.2t26.2 63.1v607.1q0 36.8-26.2 63.1t-63.1 26.2h-821.4q-36.8 0-63.1-26.2t-26.2-63.1zm71.4 0q0 7.3 5.3 12.6t12.6 5.3h821.4q7.3 0 12.6-5.3t5.3-12.6v-428.5q-17.9 20.1-38.5 36.8-149.5 114.9-237.7 188.6-28.5 24-46.3 37.4t-48.3 27.1-57.2 13.7h-1.2q-26.8 0-57.2-13.7t-48.3-27.1-46.3-37.4q-88.2-73.7-237.7-188.6-20.6-16.7-38.5-36.8v428.5zm0-607.1q0 93.7 82 158.5 107.7 84.8 223.8 176.9 3.3 2.8 19.5 16.5t25.7 20.9 24.8 17.6 28.2 15.3 24 5h1.2q11.2 0 24-5t28.2-15.3 24.8-17.6 25.7-20.9 19.5-16.5q116.1-92.1 223.8-176.9 30.1-24 56.1-64.4t25.9-73.4v-13.6l-.3-7.3-1.7-7-3.1-5-5-4.2-7.8-1.4h-821.4q-7.3 0-12.6 5.3t-5.3 12.6z"/></svg>