<svg height="1000" width="857.143" xmlns="http://www.w3.org/2000/svg"><path d="M696.384 71.488q66.402 0 113.553 47.151t47.151 113.553v535.68q0 66.402 -47.151 113.553t-113.553 47.151h-535.68q-66.402 0 -113.553 -47.151t-47.151 -113.553v-535.68q0 -66.402 47.151 -113.553t113.553 -47.151h535.68zm17.856 589.248v-243.288q-17.298 19.53 -35.712 30.69 -18.972 12.276 -73.935 47.43t-84.537 55.242q-54.684 38.502 -91.512 38.502t-91.512 -38.502q-25.668 -17.856 -78.957 -51.615t-79.515 -51.615q-6.696 -4.464 -18.414 -15.066t-17.298 -15.066v243.288q0 22.32 15.624 37.944t37.944 15.624h464.256q22.32 0 37.944 -15.624t15.624 -37.944zm0 -319.734q0 -22.878 -15.345 -39.06t-38.223 -16.182h-464.256q-22.32 0 -37.944 15.624t-15.624 37.944q0 20.646 17.019 42.687t37.665 35.991q26.226 17.856 76.725 49.662t72.261 46.314q1.674 1.116 9.486 6.417t11.718 7.812 11.718 7.254 13.113 7.254 11.997 5.301 12.555 4.185 11.439 1.395 11.439 -1.395 12.555 -4.185 11.997 -5.301 13.113 -7.254 11.718 -7.254 11.718 -7.812 9.486 -6.417l148.986 -97.092q19.53 -12.834 37.107 -34.875t17.577 -41.013z"/></svg>