<svg height="1000px" width="1000px" xmlns="http://www.w3.org/2000/svg">
  <g>
    <path d="M0 839.2857142857142c0 0 0 -443.08 0 -443.08c16.369 18.229 35.156 34.412 56.362 48.549c134.672 91.518 227.12 155.692 277.343 192.522c21.206 15.625 38.412 27.809 51.619 36.551c13.207 8.743 30.785 17.672 52.734 26.786c21.949 9.115 42.411 13.672 61.384 13.672c0 0 0.558 0 0.558 0c0 0 0.558 0 0.558 0c18.973 0 39.435 -4.557 61.384 -13.672c21.949 -9.114 39.527 -18.043 52.734 -26.786c13.207 -8.742 30.413 -20.926 51.619 -36.551c63.244 -45.759 155.878 -109.933 277.901 -192.522c21.206 -14.509 39.807 -30.692 55.804 -48.549c0 0 0 443.08 0 443.08c0 24.554 -8.743 45.573 -26.228 63.058c-17.485 17.485 -38.504 26.228 -63.058 26.228c0 0 -821.428 0 -821.428 0c-24.554 0 -45.573 -8.743 -63.058 -26.228c-17.485 -17.485 -26.228 -38.504 -26.228 -63.058c0 0 0 0 0 0m0 -594.866c0 -29.018 7.719 -53.199 23.158 -72.545c15.439 -19.345 37.482 -29.018 66.128 -29.018c0 0 821.428 0 821.428 0c24.182 0 45.108 8.743 62.779 26.228c17.671 17.485 26.507 38.505 26.507 63.058c0 29.39 -9.115 57.478 -27.344 84.264c-18.229 26.785 -40.922 49.665 -68.08 68.638c-139.881 97.098 -226.935 157.552 -261.161 181.362c-3.72 2.604 -11.626 8.277 -23.716 17.02c-12.091 8.742 -22.136 15.811 -30.134 21.205c-7.999 5.394 -17.671 11.44 -29.018 18.136c-11.347 6.697 -22.043 11.719 -32.087 15.067c-10.045 3.348 -19.345 5.022 -27.902 5.022c0 0 -0.558 0 -0.558 0c0 0 -0.558 0 -0.558 0c-8.557 0 -17.857 -1.674 -27.902 -5.022c-10.044 -3.348 -20.74 -8.37 -32.087 -15.067c-11.347 -6.696 -21.019 -12.742 -29.018 -18.136c-7.998 -5.394 -18.043 -12.463 -30.134 -21.205c-12.09 -8.743 -19.996 -14.416 -23.716 -17.02c-33.854 -23.81 -82.589 -57.757 -146.206 -101.842c-63.616 -44.085 -101.748 -70.591 -114.397 -79.52c-23.065 -15.625 -44.829 -37.109 -65.29 -64.453c-20.461 -27.344 -30.692 -52.735 -30.692 -76.172c0 0 0 0 0 0" />
  </g>
</svg>