<svg height="1000" width="1000" xmlns="http://www.w3.org/2000/svg"><path d="M0 839.3v-443.1q24.6 27.3 56.4 48.5 202 137.3 277.3 192.5 31.8 23.4 51.6 36.5t52.7 26.8 61.4 13.7h1.2q28.5 0 61.4-13.7t52.7-26.8 51.6-36.5q94.9-68.6 277.9-192.5 31.8-21.8 55.8-48.5v443.1q0 36.8-26.2 63.1t-63.1 26.2h-821.4q-36.8 0-63.1-26.2t-26.2-63.1zm0-594.8q0-43.5 23.2-72.5t66.1-29h821.4q36.3 0 62.8 26.2t26.5 63.1q0 44.1-27.3 84.3t-68.1 68.6q-209.8 145.6-261.1 181.4-5.6 3.9-23.7 17t-30.1 21.2-29 18.1-32.1 15.1-27.9 5h-1.2q-12.8 0-27.9-5t-32.1-15.1-29-18.1-30.1-21.2-23.7-17q-50.8-35.7-146.2-101.8t-114.4-79.5q-34.6-23.4-65.3-64.4t-30.7-76.2z"/></svg>