<svg height="1000px" width="1000px" xmlns="http://www.w3.org/2000/svg">
  <g>
    <path d="M0 839.2857142857142c0 0 0 -443.08 0 -443.08c16.369 18.229 35.156 34.412 56.362 48.549c134.672 91.518 219.866 150.39 255.58 176.618c35.714 26.228 60.175 43.713 73.382 52.455c13.207 8.743 30.785 17.672 52.734 26.786c21.949 9.115 42.411 13.672 61.384 13.672c0 0 1.116 0 1.116 0c18.973 0 39.435 -4.557 61.384 -13.672c21.949 -9.114 39.527 -18.043 52.734 -26.786c13.207 -8.742 40.923 -28.459 83.148 -59.151c42.224 -30.692 124.349 -87.333 246.372 -169.922c21.206 -14.509 39.807 -30.692 55.804 -48.549c0 0 0 443.08 0 443.08c0 24.554 -8.743 45.573 -26.228 63.058c-17.485 17.485 -38.504 26.228 -63.058 26.228c0 0 -821.428 0 -821.428 0c-24.554 0 -45.573 -8.743 -63.058 -26.228c-17.485 -17.485 -26.228 -38.504 -26.228 -63.058c0 0 0 0 0 0m0 -599.051c0 -26.228 7.719 -49.014 23.158 -68.36c15.439 -19.345 37.482 -29.018 66.128 -29.018c0 0 821.428 0 821.428 0c24.182 0 45.108 8.743 62.779 26.228c17.671 17.485 26.507 39.714 26.507 66.685c0 26.972 -9.115 53.851 -27.344 80.637c-18.229 26.785 -40.922 49.665 -68.08 68.638c-175.223 121.652 -269.531 187.314 -282.924 196.987c-13.393 9.672 -24.089 17.206 -32.087 22.6c-8.371 5.394 -18.136 11.44 -29.297 18.136c-23.066 13.393 -42.969 20.089 -59.71 20.089c0 0 -1.116 0 -1.116 0c-17.113 0 -34.226 -5.022 -51.339 -15.067c-17.113 -10.044 -29.669 -17.764 -37.668 -23.158c-7.998 -5.394 -18.043 -12.463 -30.134 -21.205c-12.09 -8.743 -27.529 -19.718 -46.317 -32.924c-18.787 -13.207 -59.988 -41.853 -123.605 -85.938c-63.616 -44.085 -101.748 -70.591 -114.397 -79.52c-23.065 -15.625 -44.829 -37.109 -65.29 -64.453c-20.461 -27.344 -30.692 -54.13 -30.692 -80.357c0 0 0 0 0 0" />
  </g>
</svg>