<svg height="1000px" width="900px" xmlns="http://www.w3.org/2000/svg">
  <g>
    <path d="M0 819c0 0 0 -587 0 -587c0 0 0 -32 0 -32c0 0 0 -19 0 -19c0 -15.333 5.5 -28.5 16.5 -39.5c11 -11 24.167 -16.5 39.5 -16.5c0 0 19 0 19 0c0 0 750 0 750 0c0 0 19 0 19 0c15.333 0 28.5 5.5 39.5 16.5c11 11 16.5 24.167 16.5 39.5c0 0 0 19 0 19c0 0 0 30 0 30c0 0 0 589 0 589c0 15.333 -5.5 28.5 -16.5 39.5c-11 11 -24.167 16.5 -39.5 16.5c0 0 -788 0 -788 0c-15.333 0 -28.5 -5.5 -39.5 -16.5c-11 -11 -16.5 -24.167 -16.5 -39.5c0 0 0 0 0 0m75 -19c0 0 750 0 750 0c0 0 0 -416 0 -416c-10 10 -19.333 18 -28 24c-19.333 14 -39.667 29.333 -61 46c-21.333 16.667 -42.667 33 -64 49c-12.667 9.333 -24.833 18.667 -36.5 28c-11.667 9.333 -22.5 17.667 -32.5 25c-2 1.333 -4 2.833 -6 4.5c-2 1.667 -4.333 3.5 -7 5.5c-9.333 7.333 -19.167 14.833 -29.5 22.5c-10.333 7.667 -21.5 15 -33.5 22c-12 7 -24.5 12.667 -37.5 17c-13 4.333 -26.5 6.5 -40.5 6.5c-13.333 0 -26.5 -2.167 -39.5 -6.5c-13 -4.333 -25.333 -10 -37 -17c-11.667 -7 -22.833 -14.333 -33.5 -22c-10.667 -7.667 -20.333 -15.167 -29 -22.5c-2.667 -2 -5 -3.833 -7 -5.5c-2 -1.667 -4 -3.167 -6 -4.5c-10 -7.333 -20.833 -15.667 -32.5 -25c-11.667 -9.333 -23.833 -18.667 -36.5 -28c-21.333 -16 -42.667 -32.333 -64 -49c-21.333 -16.667 -41.667 -32 -61 -46c-8.667 -6 -18 -14 -28 -24c0 0 0 416 0 416c0 0 0 0 0 0m0 -568c0 9.333 2 19.333 6 30c4 10.667 9.5 21.333 16.5 32c7 10.667 14.667 20.667 23 30c8.333 9.333 17.167 17.333 26.5 24c15.333 11.333 31.667 23.667 49 37c0 0 52 38 52 38c17.333 13.333 34 26.333 50 39c16 12.667 30.667 24 44 34c0 0 22 17 22 17c9.333 7.333 18.833 14.333 28.5 21c9.667 6.667 19.333 12.5 29 17.5c9.667 5 18.833 7.5 27.5 7.5c0 0 1 0 1 0c0 0 1 0 1 0c8.667 0 17.833 -2.5 27.5 -7.5c9.667 -5 19.333 -10.833 29 -17.5c9.667 -6.667 19.167 -13.667 28.5 -21c0 0 22 -17 22 -17c13.333 -10 28 -21.333 44 -34c16 -12.667 32.667 -25.667 50 -39c0 0 52 -38 52 -38c17.333 -13.333 33.667 -25.667 49 -37c8.667 -6.667 17.333 -14.667 26 -24c8.667 -9.333 16.5 -19.333 23.5 -30c7 -10.667 12.5 -21.333 16.5 -32c4 -10.667 6 -20.667 6 -30c0 0 0 -32 0 -32c0 0 -750 0 -750 0c0 0 0 32 0 32c0 0 0 0 0 0" />
  </g>
</svg>