<svg height="1000" width="571.4" xmlns="http://www.w3.org/2000/svg"><path d="M571.4 392.9V625q0 22.3 -15.6 37.9t-37.9 15.7 -38 -15.7T464.3 625V428.6h-35.7v508.9q0 25.7 -18.4 44.1t-44.1 18.4T322 981.6t-18.4 -44.1V678.6h-35.7v258.9q0 25.7 -18.5 44.1t-44 18.4 -44.1 -18.4 -18.4 -44.1V428.6h-35.8V625q0 22.3 -15.6 37.9t-37.9 15.7 -38 -15.7T0 625V392.9Q0 348.2 31.3 317t75.8 -31.3h357.2q44.6 0 75.9 31.3t31.2 75.9zm-160.7 -250q0 51.9 -36.5 88.4t-88.5 36.6 -88.4 -36.6 -36.6 -88.4 36.6 -88.5 88.4 -36.5 88.5 36.5 36.5 88.5z"/></svg>