<svg height="1000" width="571.429" xmlns="http://www.w3.org/2000/svg"><path d="M571.392 392.896v232.128q0 22.32 -15.624 37.944t-37.944 15.624 -37.944 -15.624 -15.624 -37.944v-196.416h-35.712v508.896q0 25.668 -18.414 44.082t-44.082 18.414 -44.082 -18.414 -18.414 -44.082v-258.912h-35.712v258.912q0 25.668 -18.414 44.082t-44.082 18.414 -44.082 -18.414 -18.414 -44.082v-508.896h-35.712v196.416q0 22.32 -15.624 37.944t-37.944 15.624 -37.944 -15.624 -15.624 -37.944v-232.128q0 -44.64 31.248 -75.888t75.888 -31.248h357.12q44.64 0 75.888 31.248t31.248 75.888zm-160.704 -249.984q0 51.894 -36.549 88.443t-88.443 36.549 -88.443 -36.549 -36.549 -88.443 36.549 -88.443 88.443 -36.549 88.443 36.549 36.549 88.443z"/></svg>