<svg height="1000" width="1000" xmlns="http://www.w3.org/2000/svg"><path d="M973.8 165.7q5.6 5.6 5.6 12.9t-5.6 12.8l-78.7 78.7q-15.6 15.6 -38 15.6h-750q-14.5 0 -25.1 -10.6T71.4 250V107.1Q71.4 92.6 82 82t25.1 -10.6h321.5V35.7q0 -14.5 10.6 -25.1T464.3 0h71.4q14.5 0 25.1 10.6t10.6 25.1v35.7h285.7q22.4 0 38 15.7zM428.6 678.6h142.8v285.7q0 14.5 -10.6 25.1t-25.1 10.6h-71.4q-14.5 0 -25.1 -10.6t-10.6 -25.1V678.6zm464.3 -250q14.5 0 25.1 10.6t10.6 25.1v142.8q0 14.6 -10.6 25.2t-25.1 10.6h-750q-22.4 0 -38 -15.7L26.2 548.5Q20.6 543 20.6 535.7t5.6 -12.8l78.7 -78.7q15.6 -15.6 38 -15.6h285.7V321.4h142.8v107.2h321.5z"/></svg>