<svg height="1000" width="1000" xmlns="http://www.w3.org/2000/svg"><path d="M285.7 0q7.3 0 12.6 5.3t5.3 12.6v821.4q0 11.1 -9.5 15.6L26.2 997.8q-3.9 2.2 -8.3 2.2 -7.3 0 -12.6 -5.3T0 982.1V160.7q0 -11.1 9.5 -15.6L277.3 2.2Q281.2 0 285.7 0zm696.4 0q7.3 0 12.6 5.3t5.3 12.6v821.4q0 11.1 -9.5 15.6L722.7 997.8q-3.9 2.2 -8.4 2.2 -7.3 0 -12.6 -5.3t-5.3 -12.6V160.7q0 -11.1 9.5 -15.6L973.8 2.2Q977.7 0 982.1 0zm-625 0q4.5 0 7.9 1.7l285.7 142.8q10 5.6 10 16.2v821.4q0 7.3 -5.3 12.6t-12.5 5.3q-4.5 0 -7.9 -1.7L349.3 855.5q-10 -5.6 -10 -16.2V17.9q0 -7.3 5.3 -12.6T357.1 0z"/></svg>