<svg height="1000" width="1071.429" xmlns="http://www.w3.org/2000/svg"><path d="M857.088 232.192q0 -7.812 5.022 -12.834t12.834 -5.022h160.704q14.508 0 25.11 10.602t10.602 25.11v160.704q0 7.812 -5.022 12.834t-12.834 5.022h-35.712q-7.812 0 -12.834 -5.022t-5.022 -12.834v-74.772l-141.732 142.29q42.408 53.01 59.985 119.412t5.301 137.826q-17.298 101.556 -92.628 174.096t-177.444 87.048q-117.18 16.182 -214.551 -44.64t-134.757 -167.4q-65.286 -3.348 -123.318 -32.085t-99.045 -74.214 -63.333 -107.415 -17.856 -128.34q5.022 -75.33 43.524 -140.616t101.556 -106.857 138.384 -49.941q65.844 -7.812 126.945 10.602t110.763 57.474l142.29 -141.732h-74.772q-7.812 0 -12.834 -5.022t-5.022 -12.834v-35.712q0 -7.812 5.022 -12.834t12.834 -5.022h160.704q14.508 0 25.11 10.602t10.602 25.11v160.704q0 7.812 -5.022 12.834t-12.834 5.022h-35.712q-7.812 0 -12.834 -5.022t-5.022 -12.834v-74.772l-141.732 142.29q32.922 41.292 51.894 94.302 101.556 5.022 183.024 69.192l142.29 -141.732h-74.772q-7.812 0 -12.834 -5.022t-5.022 -12.834v-35.712zm-285.696 232.128q0 -11.16 -2.232 -32.364 -90.396 13.95 -151.218 83.7t-60.822 162.936q0 11.16 2.232 32.364 90.396 -13.95 151.218 -83.7t60.822 -162.936zm-499.968 0q0 93.744 61.938 164.052t154.008 83.142q-1.674 -16.182 -1.674 -32.922 0 -117.18 75.33 -206.181t188.604 -109.647q-29.574 -66.96 -91.233 -107.694t-136.989 -40.734q-103.23 0 -176.607 73.377t-73.377 176.607zm535.68 464.256q103.23 0 176.607 -73.377t73.377 -176.607q0 -93.744 -61.938 -164.052t-154.008 -83.142q1.674 16.182 1.674 32.922 0 117.18 -75.33 206.181t-188.604 109.647q29.574 66.96 91.233 107.694t136.989 40.734z"/></svg>