<svg height="1000" width="714.3" xmlns="http://www.w3.org/2000/svg"><path d="M357.1 359.4Q478.2 372.8 560.5 464t82.4 214.6q0 93.2 -48.6 170.7T462.6 967.6t-178 30.2q-74.2 -8.4 -137 -49.1T46 843.7 1.1 704.8Q-5.6 618.3 30.4 541.9t103.8 -125 151.5 -57.5v-73.7h-89.3q-7.8 0 -12.8 -5t-5 -12.8v-35.8q0 -7.8 5 -12.8t12.8 -5h89.3v-92.1l-51.3 51.3q-5.6 5.1 -12.9 5.1t-12.2 -5.1l-25.7 -25.6q-5 -5 -5 -12.3t5 -12.8L296.3 10.6Q306.9 0 321.4 0t25.1 10.6l112.8 112.2q5 5.5 5 12.8t-5 12.3l-25.7 25.6q-5 5.1 -12.3 5.1t-12.8 -5.1l-51.4 -51.3v92.1h89.3q7.8 0 12.9 5t5 12.8v35.8q0 7.8 -5 12.8t-12.9 5h-89.3v73.7zm-35.7 569.2q103.3 0 176.6 -73.4t73.4 -176.6T498 502 321.4 428.6 144.8 502 71.4 678.6t73.4 176.6 176.6 73.4z"/></svg>