<svg height="1000" width="1142.857" xmlns="http://www.w3.org/2000/svg"><path d="M1132.182 474.922q10.602 10.602 10.602 25.11t-10.602 25.11l-164.052 164.052q-5.022 5.58 -12.555 5.58t-12.555 -5.58l-25.11 -25.11q-5.58 -5.022 -5.58 -12.555t5.58 -12.555l103.23 -103.23h-164.052v124.992q0 7.812 -5.022 12.834t-12.834 5.022h-35.712q-7.812 0 -12.834 -5.022t-5.022 -12.834v-124.992h-73.098q-6.696 66.402 -37.386 126.108t-77.562 102.393 -109.647 67.797 -130.851 25.11q-100.44 0 -184.419 -50.778t-130.851 -137.826 -41.292 -188.046q4.464 -90.396 52.452 -167.4t126.387 -122.481 168.795 -47.709q92.628 -2.232 173.259 39.897t131.409 116.343 59.706 165.168h73.098v-124.992q0 -7.812 5.022 -12.834t12.834 -5.022h35.712q7.812 0 12.834 5.022t5.022 12.834v124.992h164.052l-103.23 -103.23q-5.58 -5.022 -5.58 -12.555t5.58 -12.555l25.11 -25.11q5.022 -5.58 12.555 -5.58t12.555 5.58zm-775.062 310.806q58.032 0 110.763 -22.599t91.233 -61.101 61.101 -91.233 22.599 -110.763 -22.599 -110.763 -61.101 -91.233 -91.233 -61.101 -110.763 -22.599 -110.763 22.599 -91.233 61.101 -61.101 91.233 -22.599 110.763 22.599 110.763 61.101 91.233 91.233 61.101 110.763 22.599z"/></svg>