<svg height="1000" width="857.1" xmlns="http://www.w3.org/2000/svg"><path d="M821.4 71.4q14.5 0 25.1 10.6t10.6 25.1v232.2q0 7.8 -5 12.8t-12.8 5h-35.7q-7.8 0 -12.9 -5t-5 -12.8V193.1L572.5 406.8q70.4 87.1 70.4 200.3 0 65.3 -25.4 124.8t-68.7 102.6 -102.7 68.7 -124.7 25.4T196.7 903.2 94 834.5 25.4 731.9 0 607.1 25.4 482.4 94 379.7t102.7 -68.6 124.7 -25.4q113.3 0 200.4 70.3L734.9 142.9H589.3q-7.8 0 -12.8 -5.1T571.4 125V89.3q0 -7.8 5.1 -12.8t12.8 -5.1h232.1zm-500 785.7q103.3 0 176.6 -73.3t73.4 -176.7T498 430.5 321.4 357.1t-176.6 73.4T71.4 607.1t73.4 176.7 176.6 73.3z"/></svg>