<svg height="1000" width="1071.4" xmlns="http://www.w3.org/2000/svg"><path d="M857.1 232.1q0 -7.8 5.1 -12.8t12.8 -5h160.7q14.5 0 25.1 10.6t10.6 25.1v160.7q0 7.8 -5 12.8t-12.8 5.1h-35.7q-7.9 0 -12.9 -5.1t-5 -12.8v-74.8L858.3 478.2q42.4 53.1 59.9 119.5t5.3 137.8q-17.2 101.6 -92.6 174.1t-177.4 87.1Q536.3 1012.8 438.9 952T304.1 784.6q-65.3 -3.3 -123.3 -32.1t-99 -74.2T18.4 570.9 .6 442.5q5 -75.3 43.5 -140.6T145.6 195 284 145.1q65.9 -7.8 127 10.6t110.8 57.5L664.1 71.4h-74.8q-7.8 0 -12.8 -5t-5.1 -12.8V17.9q0 -7.9 5.1 -12.9t12.8 -5H750q14.5 0 25.1 10.6t10.6 25.1v160.7q0 7.8 -5 12.9t-12.8 5h-35.8q-7.8 0 -12.8 -5t-5 -12.9v-74.7L572.5 264q33 41.2 51.9 94.3 101.6 5 183.1 69.2L949.8 285.7H875q-7.8 0 -12.8 -5t-5.1 -12.8v-35.8zM571.4 464.3q0 -11.2 -2.2 -32.4 -90.4 14 -151.2 83.7t-60.9 163q0 11.1 2.3 32.3Q449.8 697 510.6 627.2t60.8 -162.9zm-500 0q0 93.7 62 164t154 83.2q-1.7 -16.2 -1.7 -32.9 0 -117.2 75.3 -206.2T549.7 362.7Q520.1 295.8 458.4 255t-137 -40.7q-103.2 0 -176.6 73.4T71.4 464.3zm535.7 464.3q103.3 0 176.7 -73.4t73.3 -176.6q0 -93.8 -61.9 -164.1t-154 -83.1q1.7 16.1 1.7 32.9 0 117.2 -75.4 206.2T378.9 780.1q29.6 67 91.2 107.7t137 40.8z"/></svg>