<svg height="1000" width="714.286" xmlns="http://www.w3.org/2000/svg"><path d="M357.12 359.416q121.086 13.392 203.391 104.625t82.305 214.551q0 93.186 -48.546 170.748t-131.688 118.296 -178.002 30.132q-74.214 -8.37 -136.989 -49.104t-101.556 -104.904 -44.919 -138.942q-6.696 -86.49 29.295 -162.936t103.788 -124.992 151.497 -57.474v-73.656h-89.28q-7.812 0 -12.834 -5.022t-5.022 -12.834v-35.712q0 -7.812 5.022 -12.834t12.834 -5.022h89.28v-92.07l-51.336 51.336q-5.58 5.022 -12.834 5.022t-12.276 -5.022l-25.668 -25.668q-5.022 -5.022 -5.022 -12.276t5.022 -12.834l112.716 -112.158q10.602 -10.602 25.11 -10.602t25.11 10.602l112.716 112.158q5.022 5.58 5.022 12.834t-5.022 12.276l-25.668 25.668q-5.022 5.022 -12.276 5.022t-12.834 -5.022l-51.336 -51.336v92.07h89.28q7.812 0 12.834 5.022t5.022 12.834v35.712q0 7.812 -5.022 12.834t-12.834 5.022h-89.28v73.656zm-35.712 569.16q103.23 0 176.607 -73.377t73.377 -176.607 -73.377 -176.607 -176.607 -73.377 -176.607 73.377 -73.377 176.607 73.377 176.607 176.607 73.377z"/></svg>