<svg height="1000" width="1000" xmlns="http://www.w3.org/2000/svg"><path d="M964.224 .064q14.508 0 25.11 10.602t10.602 25.11v232.128q0 7.812 -5.022 12.834t-12.834 5.022h-35.712q-7.812 0 -12.834 -5.022t-5.022 -12.834v-146.196l-127.782 128.34 87.048 87.048q5.022 5.58 5.022 12.834t-5.022 12.276l-25.668 25.668q-5.022 5.022 -12.276 5.022t-12.834 -5.022l-87.048 -87.606 -55.242 55.8q48.546 58.032 72.261 131.967t17.019 154.287q-12.276 139.5 -111.879 240.498t-239.103 114.948q-90.954 9.486 -175.212 -22.041t-143.127 -90.396 -90.396 -143.127 -22.041 -175.212q13.95 -139.5 114.948 -239.103t240.498 -111.879q80.352 -6.696 154.287 17.019t131.967 72.261l55.242 -55.242 -87.048 -87.048q-5.022 -5.58 -5.022 -12.834t5.022 -12.276l25.668 -25.668q5.022 -5.022 12.276 -5.022t12.834 5.022l87.048 87.048 127.782 -127.782h-145.638q-7.812 0 -12.834 -5.022t-5.022 -12.834v-35.712q0 -7.812 5.022 -12.834t12.834 -5.022h232.128zm-249.984 607.104q0 -65.286 -25.389 -124.713t-68.634 -102.672 -102.672 -68.634 -124.713 -25.389 -124.713 25.389 -102.672 68.634 -68.634 102.672 -25.389 124.713 25.389 124.713 68.634 102.672 102.672 68.634 124.713 25.389 124.713 -25.389 102.672 -68.634 68.634 -102.672 25.389 -124.713z"/></svg>