<svg height="1000" width="1142.9" xmlns="http://www.w3.org/2000/svg"><path d="M1060.8 510.6q10.6 10.6 10.6 25.1t-10.6 25.1l-164 164.1q-5.1 5.6 -12.6 5.6t-12.5 -5.6l-25.2 -25.1q-5.5 -5 -5.5 -12.6t5.5 -12.5L949.8 571.4H785.7v125q0 7.8 -5 12.9t-12.8 5h-35.8q-7.8 0 -12.8 -5t-5 -12.9v-125h-73.7Q627.2 692.5 536 774.8t-214.6 82.3q-93.2 0 -170.7 -48.5T32.4 676.9 2.2 498.9q8.4 -74.2 49.1 -137t105 -101.6 138.9 -44.9q86.5 -6.7 162.9 29.3t125 103.8T640.6 500h73.7V375q0 -7.8 5 -12.8t12.8 -5.1h35.8q7.8 0 12.8 5.1t5 12.8v125h164.1L846.5 396.8Q841 391.7 841 384.2t5.5 -12.5l25.2 -25.2q5 -5.5 12.5 -5.5t12.6 5.5zM321.4 785.7q103.3 0 176.6 -73.4t73.4 -176.6T498 359.1 321.4 285.7t-176.6 73.4T71.4 535.7t73.4 176.6 176.6 73.4z"/></svg>