<svg height="1000" width="857.143" xmlns="http://www.w3.org/2000/svg"><path d="M731.538 469.9v63.612q0 13.392 -7.533 21.204t-20.925 7.812h-112.716q-13.392 0 -21.204 -7.812t-7.812 -21.204v-63.612q0 -13.392 7.812 -21.204t21.204 -7.812h112.716q13.392 0 20.925 7.812t7.533 21.204zm-273.42 128.34v-139.5q0 -29.574 -18.135 -47.709t-47.709 -18.135h-74.214q-37.944 0 -53.568 29.016 -15.624 -29.016 -53.568 -29.016h-72.54q-29.574 0 -47.709 18.135t-18.135 47.709v139.5q0 12.276 11.718 12.276h30.69q12.276 0 12.276 -12.276v-128.34q0 -13.392 7.533 -21.204t21.483 -7.812h52.452q13.392 0 21.204 7.812t7.812 21.204v128.34q0 12.276 11.718 12.276h30.132q12.276 0 12.276 -12.276v-128.34q0 -13.392 7.812 -21.204t21.204 -7.812h54.126q13.392 0 20.925 7.812t7.533 21.204v128.34q0 12.276 12.276 12.276h30.69q11.718 0 11.718 -12.276zm328.662 -53.568v-85.932q0 -29.574 -18.414 -47.709t-47.988 -18.135h-147.312q-29.574 0 -47.988 18.135t-18.414 47.709v228.78q0 11.718 12.276 11.718h30.69q11.718 0 11.718 -11.718v-100.44q17.298 23.436 52.452 23.436h106.578q29.574 0 47.988 -18.135t18.414 -47.709zm70.308 -343.728v598.176q0 53.568 -37.944 91.512t-91.512 37.944h-598.176q-53.568 0 -91.512 -37.944t-37.944 -91.512v-598.176q0 -53.568 37.944 -91.512t91.512 -37.944h598.176q53.568 0 91.512 37.944t37.944 91.512z"/></svg>