<svg height="1000" width="1000" xmlns="http://www.w3.org/2000/svg"><path d="M999.936 743.32v116.622h-358.236v-116.622h74.772v-516.708h-3.348l-175.212 633.33h-135.594l-172.98 -633.33h-4.464v516.708h75.33v116.622h-300.204v-116.622h38.502q11.718 0 23.994 -10.881t12.276 -20.925v-491.598q0 -10.044 -12.276 -22.32t-23.994 -12.276h-38.502v-116.622h374.976l123.318 458.118h3.348l124.434 -458.118h373.86v116.622h-39.618q-10.602 0 -22.878 12.276t-12.276 22.32v491.598q0 10.044 11.997 20.925t23.157 10.881h39.618z"/></svg>