<svg height="1000" width="1000" xmlns="http://www.w3.org/2000/svg"><path d="M714.3 625V517.9q0 -7.9 -5 -12.9t-12.9 -5h-125V375q0 -7.8 -5 -12.8t-12.8 -5.1H446.4q-7.8 0 -12.8 5.1t-5 12.8v125h-125q-7.8 0 -12.9 5t-5 12.9V625q0 7.8 5 12.8t12.9 5.1h125v125q0 7.8 5 12.8t12.8 5h107.2q7.8 0 12.8 -5t5 -12.8v-125h125q7.8 0 12.9 -5.1t5 -12.8zM357.1 214.3h285.8v-71.4H357.1v71.4zm-214.2 0v714.3H125q-51.3 0 -88.2 -36.9T0 803.6V339.3q0 -51.4 36.8 -88.2T125 214.3h17.9zm660.7 0v714.3H196.4V214.3h89.3V125q0 -22.3 15.6 -37.9t38 -15.7h321.4q22.3 0 38 15.7t15.6 37.9v89.3h89.3zm196.4 125v464.3q0 51.3 -36.8 88.1T875 928.6h-17.9V214.3H875q51.3 0 88.2 36.8t36.8 88.2z"/></svg>