<svg height="1000" width="1000" xmlns="http://www.w3.org/2000/svg"><path d="M0 803.584l0-464.256q0-51.336 36.828-88.164t88.164-36.828l17.856 0l0 714.24l-17.856 0q-51.336 0-88.164-36.828t-36.828-88.164zm196.416 124.992l0-714.24l89.28 0l0-89.28q0-22.32 15.624-37.944t37.944-15.624l321.408 0q22.32 0 37.944 15.624t15.624 37.944l0 89.28l89.28 0l0 714.24l-607.104 0zm89.28-303.552q0 7.812 5.022 12.834t12.834 5.022l124.992 0l0 124.992q0 7.812 5.022 12.834t12.834 5.022l107.136 0q7.812 0 12.834-5.022t5.022-12.834l0-124.992l124.992 0q7.812 0 12.834-5.022t5.022-12.834l0-107.136q0-7.812-5.022-12.834t-12.834-5.022l-124.992 0l0-124.992q0-7.812-5.022-12.834t-12.834-5.022l-107.136 0q-7.812 0-12.834 5.022t-5.022 12.834l0 124.992l-124.992 0q-7.812 0-12.834 5.022t-5.022 12.834l0 107.136zm71.424-410.688l285.696 0l0-71.424l-285.696 0l0 71.424zm499.968 714.24l0-714.24l17.856 0q51.336 0 88.164 36.828t36.828 88.164l0 464.256q0 51.336-36.828 88.164t-88.164 36.828l-17.856 0z"/></svg>