<svg height="1000" width="1000" xmlns="http://www.w3.org/2000/svg"><path d="M714.24 625.024v-107.136q0 -7.812 -5.022 -12.834t-12.834 -5.022h-124.992v-124.992q0 -7.812 -5.022 -12.834t-12.834 -5.022h-107.136q-7.812 0 -12.834 5.022t-5.022 12.834v124.992h-124.992q-7.812 0 -12.834 5.022t-5.022 12.834v107.136q0 7.812 5.022 12.834t12.834 5.022h124.992v124.992q0 7.812 5.022 12.834t12.834 5.022h107.136q7.812 0 12.834 -5.022t5.022 -12.834v-124.992h124.992q7.812 0 12.834 -5.022t5.022 -12.834zm-357.12 -410.688h285.696v-71.424h-285.696v71.424zm-214.272 0v714.24h-17.856q-51.336 0 -88.164 -36.828t-36.828 -88.164v-464.256q0 -51.336 36.828 -88.164t88.164 -36.828h17.856zm660.672 0v714.24h-607.104v-714.24h89.28v-89.28q0 -22.32 15.624 -37.944t37.944 -15.624h321.408q22.32 0 37.944 15.624t15.624 37.944v89.28h89.28zm196.416 124.992v464.256q0 51.336 -36.828 88.164t-88.164 36.828h-17.856v-714.24h17.856q51.336 0 88.164 36.828t36.828 88.164z"/></svg>