<svg height="1000px" width="1000px" xmlns="http://www.w3.org/2000/svg">
  <g>
    <path d="M1000 339.2857142857142c0 0 0 464.286 0 464.286c0 34.226 -12.277 63.616 -36.83 88.169c-24.554 24.554 -53.944 36.831 -88.17 36.831c0 0 -17.857 0 -17.857 0c0 0 0 -714.286 0 -714.286c0 0 17.857 0 17.857 0c34.226 0 63.616 12.277 88.17 36.83c24.553 24.554 36.83 53.944 36.83 88.17c0 0 0 0 0 0m-196.429 -125c0 0 0 714.286 0 714.286c0 0 -607.142 0 -607.142 0c0 0 0 -714.286 0 -714.286c0 0 89.285 0 89.285 0c0 0 0 -89.286 0 -89.286c0 -14.881 5.209 -27.529 15.625 -37.946c10.417 -10.417 23.066 -15.625 37.947 -15.625c0 0 321.428 0 321.428 0c14.881 0 27.53 5.208 37.947 15.625c10.416 10.417 15.625 23.065 15.625 37.946c0 0 0 89.286 0 89.286c0 0 89.285 0 89.285 0c0 0 0 0 0 0m-660.714 0c0 0 0 714.286 0 714.286c0 0 -17.857 0 -17.857 0c-34.226 0 -63.616 -12.277 -88.17 -36.831c-24.553 -24.553 -36.83 -53.943 -36.83 -88.169c0 0 0 -464.286 0 -464.286c0 -34.226 12.277 -63.616 36.83 -88.17c24.554 -24.553 53.944 -36.83 88.17 -36.83c0 0 17.857 0 17.857 0c0 0 0 0 0 0m214.286 0c0 0 285.714 0 285.714 0c0 0 0 -71.429 0 -71.429c0 0 -285.714 0 -285.714 0c0 0 0 71.429 0 71.429c0 0 0 0 0 0m357.143 410.714c0 0 0 -107.143 0 -107.143c0 -5.208 -1.674 -9.486 -5.023 -12.834c-3.348 -3.349 -7.626 -5.023 -12.834 -5.023c0 0 -125 0 -125 0c0 0 0 -125 0 -125c0 -5.208 -1.675 -9.486 -5.023 -12.835c-3.348 -3.348 -7.626 -5.022 -12.835 -5.022c0 0 -107.142 0 -107.142 0c-5.209 0 -9.487 1.674 -12.835 5.022c-3.348 3.349 -5.023 7.627 -5.023 12.835c0 0 0 125 0 125c0 0 -125 0 -125 0c-5.208 0 -9.486 1.674 -12.834 5.023c-3.349 3.348 -5.023 7.626 -5.023 12.834c0 0 0 107.143 0 107.143c0 5.209 1.674 9.487 5.023 12.835c3.348 3.348 7.626 5.022 12.834 5.022c0 0 125 0 125 0c0 0 0 125 0 125c0 5.209 1.675 9.487 5.023 12.835c3.348 3.348 7.626 5.023 12.835 5.023c0 0 107.142 0 107.142 0c5.209 0 9.487 -1.675 12.835 -5.023c3.348 -3.348 5.023 -7.626 5.023 -12.835c0 0 0 -125 0 -125c0 0 125 0 125 0c5.208 0 9.486 -1.674 12.834 -5.022c3.349 -3.348 5.023 -7.626 5.023 -12.835c0 0 0 0 0 0" />
  </g>
</svg>