<svg height="1000" width="1000" xmlns="http://www.w3.org/2000/svg"><path d="M0 803.6v-464.3q0-51.3 36.8-88.2t88.2-36.8h17.9v714.2h-17.9q-51.3 0-88.2-36.8t-36.8-88.2zm196.4 125v-714.2h89.3v-89.3q0-22.3 15.6-37.9t37.9-15.6h321.4q22.3 0 37.9 15.6t15.6 37.9v89.3h89.3v714.2h-607.1zm89.3-303.6q0 7.8 5 12.8t12.8 5h125v125q0 7.8 5 12.8t12.8 5h107.1q7.8 0 12.8-5t5-12.8v-125h125q7.8 0 12.8-5t5-12.8v-107.1q0-7.8-5-12.8t-12.8-5h-125v-125q0-7.8-5-12.8t-12.8-5h-107.1q-7.8 0-12.8 5t-5 12.8v125h-125q-7.8 0-12.8 5t-5 12.8v107.1zm71.4-410.7h285.7v-71.4h-285.7v71.4zm500 714.2v-714.2h17.9q51.3 0 88.2 36.8t36.8 88.2v464.3q0 51.3-36.8 88.2t-88.2 36.8h-17.9z"/></svg>