<svg height="1000" width="1071.4" xmlns="http://www.w3.org/2000/svg"><path d="M744.4 688.6q-2.2 -13.4 -15.3 -19t-27.6 -5.8 -27.1 -7 -14.2 -21.2q-2.8 -26.2 18.4 -77.8t41.8 -101 17.9 -71.2Q730.5 329.2 673 328.1q-25.1 -.5 -41.9 9l-1.6 1.1 -2.8 1.4t-2.5 1.1 -2.8 1.1 -2.8 .3 -3.4 -.9 -3.3 -1.9 -3.6 -2.8q-1.7 -1.1 -5.1 -4.7t-5 -5.1 -4.7 -4.2 -5.3 -4.1 -5.3 -3.1 -6.2 -2.5 -6.4 -1.4q-16.7 -2.8 -26.8 1.7t-25.1 17.3q-.5 .5 -5 4.7t-7 6.1 -8.4 5.6 -9.2 3.1 -9.4 -1.7q-30.2 -15.1 -46.9 -22.3 -22.9 -10.1 -52.5 2.8T337.6 365q-8.9 15.6 -22.9 54.9t-24.2 74 -22.4 74.7 -12 40.8q-12.2 38.5 10.4 66.4t61.6 25.7q16.8 -1.2 28.2 -8.4t21.5 -25.7q3.9 -7.2 44.1 -111.3t42.9 -108.6q3.4 -6.1 12 -10t16.5 0q15.1 8.4 11.7 29.6 -1.1 10 -28.4 77.8t-27.9 74q-3.4 21.2 10.8 31.5t33.8 3.9T524 626.7q2.2 -4.5 25.4 -51.4t45.5 -91.2 25.6 -49.4q11.2 -16.2 22.9 -15.6 16.2 0 14 21.2 -1.1 8.9 -36.6 82.3t-39.3 89q-6.7 29.6 7.2 57.5t41.3 41.3q9.5 5 28.5 8.6t39.9 4.5 34.9 -7.8 11.1 -27.1zM213.7 809.2q1.7 8.3 -2.8 15.3t-12.8 8.6q-7.8 1.7 -14.8 -2.7t-8.6 -12.9q-1.7 -7.8 2.8 -15t12.2 -9 15.1 2.8 8.9 12.9zm318.1 146.7q6.7 9.5 4.8 20.9T525.1 995t-20.9 4.4T486 987.7q-6.1 -9.5 -4.1 -20.9t11.4 -18.1 20.9 -4.5 17.6 11.7zM98.8 502.8q-10.1 15.1 -27.7 18.4t-32 -7.2Q24.6 503.9 21.2 486t6.7 -32.3q10 -15.1 27.6 -18.4t32.1 6.7q14.5 10.6 17.9 28.1t-6.7 32.7zm719.8 377.8q10.6 15.6 7.3 34.3t-19 29.3 -33.7 7.3 -28.8 -19 -7.2 -34.1 18.4 -29.5q15.6 -10.6 33.7 -7.3t29.3 19zm62.5 -337.1q38.5 63.1 23.8 136.5t-75.1 115.8q-50.2 35.1 -111 33.4 -11.2 44.7 -47.2 70.9t-80.1 24.8 -78.1 -32q-6.7 5 -7.3 5.5 -57.4 39.7 -125.5 27.1T272.9 854.9Q245 814.2 243.3 763.4 197 755.6 163.8 724.1t-44.9 -71.5 -1.2 -84.8 45.2 -77.3q-20 -33.5 -21.2 -71.4t13.7 -69.8 44.4 -54.9 67.5 -28.2q17.9 -47.4 55.2 -82.6t81.8 -51.1T498 123t89.1 37.2q40.1 -11.8 78.1 -9.8t71.7 20.1 58.3 44.6 37.7 64.2 9.7 78.4q29.1 8.9 48.6 31.8t25.4 49.7 -3.1 55.5 -32.4 48.8zM253.9 175.2q7.8 11.2 5.3 24.9t-13.7 21.4q-10.6 7.9 -24.2 5.3t-21 -13.6Q192.5 202 195 188.3t13.7 -21.4q10.6 -7.9 24.3 -5.3t20.9 13.6zM342.6 18.4q2.3 8.9 -2.8 17t-14.5 10.4T308 42.7 298 27.9q-1.7 -9.5 3.6 -17.3t14.2 -10q9.5 -2.3 17.3 3t9.5 14.8zm661.9 529q2.2 11.2 -3.7 20.7t-17 11.7q-10.6 2.2 -20.1 -3.6t-11.7 -17 3.6 -20.7 17.1 -12.3q11.1 -2.2 20.3 4.2t11.5 17zM633.9 49.1q9 15.1 4.8 32.7t-19.8 26.5q-15.1 8.9 -32.1 4.7t-26 -19.2q-8.9 -15.7 -4.7 -33T575.3 34t32.4 -5 26.2 20.1zm416.3 366.1q2.3 8.3 -2.2 15.3t-12.8 9.2q-8.4 1.7 -15.4 -3t-8.6 -12.6q-1.7 -8.4 2.8 -15.6t12.8 -8.9q7.8 -1.7 14.8 2.7t8.6 12.9zM943.6 280.7q8.4 12.3 5.9 27.3t-14.8 24q-12.3 8.4 -27.3 5.6t-23.5 -15.1 -5.6 -27.3 15.1 -24 27.1 -6.1 23.1 15.6z"/></svg>