<svg height="1000px" width="1000px" xmlns="http://www.w3.org/2000/svg">
  <g>
    <path d="M0 482.1428571428571c0 0 0 -107.143 0 -107.143c0 -24.553 8.743 -45.573 26.228 -63.058c17.485 -17.485 38.504 -26.228 63.058 -26.228c0 0 267.857 0 267.857 0c161.83 0 328.497 -71.428 500 -214.285c19.345 0 36.086 7.068 50.223 21.205c14.137 14.137 21.205 30.878 21.205 50.223c0 0 0 214.286 0 214.286c19.718 0 36.552 6.975 50.503 20.926c13.951 13.951 20.926 30.785 20.926 50.503c0 19.717 -6.975 36.551 -20.926 50.502c-13.951 13.951 -30.785 20.926 -50.503 20.926c0 0 0 214.286 0 214.286c0 19.345 -7.068 36.086 -21.205 50.223c-14.137 14.137 -30.878 21.205 -50.223 21.205c-155.134 -129.092 -306.176 -199.776 -453.125 -212.053c-21.578 7.068 -38.505 19.345 -50.781 36.83c-11.576 16.486 -17.363 34.047 -17.363 52.683c0 1.129 0.021 2.263 0.063 3.4c0.745 19.903 8.185 37.109 22.322 51.618c-8.601 14.293 -12.902 28.651 -12.902 43.073c0 27.996 16.205 56.235 48.616 84.717c8.929 7.441 20.462 16.741 34.598 27.902c-10.788 21.577 -31.529 37.016 -62.221 46.317c-19.929 6.039 -40.134 9.059 -60.613 9.059c-11.058 0 -22.197 -0.881 -33.416 -2.642c-31.994 -5.022 -56.547 -15.346 -73.66 -30.971c-2.605 -8.556 -8.092 -24.832 -16.463 -48.828c-8.37 -23.995 -14.322 -41.573 -17.857 -52.734c-3.534 -11.161 -7.812 -27.716 -12.834 -49.665c-5.023 -21.95 -7.906 -40.737 -8.65 -56.362c-0.175 -5.033 -0.263 -10.012 -0.263 -14.937c0 -36.939 4.924 -70.836 14.772 -101.692c0 0 -68.08 0 -68.08 0c-24.554 0 -45.573 -8.743 -63.059 -26.228c-17.485 -17.485 -26.227 -38.505 -26.227 -63.058c0 0 0 0 0 0m428.571 21.763c140.253 15.625 283.111 79.055 428.572 190.291c0 0 0 -532.367 0 -532.367c-146.578 112.352 -289.435 176.154 -428.572 191.407c0 0 0 150.669 0 150.669c0 0 0 0 0 0" />
  </g>
</svg>