<svg height="1000" width="1000" xmlns="http://www.w3.org/2000/svg"><path d="M928.512 357.184q29.574 0 50.499 20.925t20.925 50.499 -20.925 50.499 -50.499 20.925v214.272q0 29.016 -21.204 50.22t-50.22 21.204q-232.686 -193.626 -453.096 -212.04 -32.364 10.602 -50.778 36.828t-17.298 56.079 22.32 51.615q-11.16 18.414 -12.834 36.549t3.348 32.364 18.693 30.69 26.784 27.9 34.317 28.179q-16.182 32.364 -62.217 46.314t-94.023 6.417 -73.656 -30.969q-3.906 -12.834 -16.461 -48.825t-17.856 -52.731 -12.834 -49.662 -8.37 -56.358 1.953 -54.963 12.276 -61.659h-68.076q-36.828 0 -63.054 -26.226t-26.226 -63.054v-107.136q0 -36.828 26.226 -63.054t63.054 -26.226h267.84q242.73 0 499.968 -214.272 29.016 0 50.22 21.204t21.204 50.22v214.272zm-71.424 337.032v-532.332q-219.852 168.516 -428.544 191.394v150.66q210.366 23.436 428.544 190.278z"/></svg>