<svg height="1000px" width="1000px" xmlns="http://www.w3.org/2000/svg">
  <g>
    <path d="M857.1428571428571 694.1964285714286c0 0 0 -532.366 0 -532.366c-146.577 112.351 -289.435 176.153 -428.571 191.406c0 0 0 150.67 0 150.67c140.253 15.625 283.11 79.055 428.571 190.29c0 0 0 0 0 0m71.429 -337.054c19.717 0 36.551 6.976 50.502 20.927c13.951 13.951 20.926 30.785 20.926 50.502c0 19.717 -6.975 36.551 -20.926 50.502c-13.951 13.951 -30.785 20.927 -50.502 20.927c0 0 0 214.285 0 214.285c0 19.346 -7.069 36.087 -21.206 50.223c-14.137 14.137 -30.878 21.206 -50.223 21.206c-155.134 -129.092 -306.176 -199.777 -453.125 -212.054c-21.577 7.069 -38.504 19.346 -50.781 36.831c-12.277 17.485 -18.043 36.179 -17.299 56.082c0.744 19.904 8.184 37.11 22.321 51.619c-25.298 42.038 -13.393 84.635 35.714 127.79c8.929 7.44 20.462 16.741 34.599 27.901c-10.789 21.578 -31.529 37.017 -62.221 46.317c-30.692 9.301 -62.035 11.44 -94.029 6.418c-31.994 -5.022 -56.548 -15.346 -73.661 -30.971c-2.604 -8.557 -8.092 -24.833 -16.462 -48.828c-8.371 -23.996 -14.323 -41.574 -17.857 -52.735c-3.535 -11.16 -7.813 -27.715 -12.835 -49.665c-5.022 -21.949 -7.906 -40.736 -8.65 -56.361c-1.488 -42.783 3.349 -81.66 14.509 -116.63c0 0 -68.08 0 -68.08 0c-24.554 0 -45.573 -8.742 -63.058 -26.228c-17.485 -17.485 -26.228 -38.504 -26.228 -63.058c0 0 0 -107.142 0 -107.142c0 -24.554 8.743 -45.573 26.228 -63.058c17.485 -17.486 38.504 -26.228 63.058 -26.228c0 0 267.857 0 267.857 0c161.83 0 328.497 -71.429 500 -214.286c19.345 0 36.086 7.069 50.223 21.205c14.137 14.137 21.206 30.878 21.206 50.224c0 0 0 214.285 0 214.285c0 0 0 0 0 0" />
  </g>
</svg>