<svg height="1000px" width="1000px" xmlns="http://www.w3.org/2000/svg">
  <g>
    <path d="M0 482.1428571428571c0 0 0 -107.143 0 -107.143c0 -24.553 8.743 -45.573 26.228 -63.058c17.485 -17.485 38.504 -26.228 63.058 -26.228c0 0 267.857 0 267.857 0c161.83 0 328.497 -71.428 500 -214.285c19.345 0 36.086 7.068 50.223 21.205c14.137 14.137 21.205 30.878 21.205 50.223c0 0 0 214.286 0 214.286c19.718 0 36.552 6.975 50.503 20.926c13.951 13.951 20.926 30.785 20.926 50.503c0 19.717 -6.975 36.551 -20.926 50.502c-13.951 13.951 -30.785 20.926 -50.503 20.926c0 0 0 214.286 0 214.286c0 19.345 -7.068 36.086 -21.205 50.223c-14.137 14.137 -30.878 21.205 -50.223 21.205c-155.134 -129.092 -306.176 -199.776 -453.125 -212.053c-21.578 7.068 -38.505 19.345 -50.781 36.83c-12.277 17.485 -18.044 36.18 -17.3 56.083c0.745 19.903 8.185 37.109 22.322 51.618c-7.441 12.277 -11.719 24.461 -12.835 36.551c-1.116 12.091 0 22.88 3.348 32.367c3.349 9.486 9.58 19.717 18.695 30.691c9.114 10.975 18.043 20.276 26.785 27.902c8.743 7.627 20.183 17.02 34.319 28.181c-10.788 21.577 -31.529 37.016 -62.221 46.317c-30.692 9.301 -62.035 11.44 -94.029 6.417c-31.994 -5.022 -56.547 -15.346 -73.66 -30.971c-2.604 -8.556 -8.092 -24.832 -16.462 -48.828c-8.371 -23.995 -14.323 -41.573 -17.857 -52.734c-3.535 -11.161 -7.813 -27.716 -12.835 -49.665c-5.023 -21.95 -7.813 -40.737 -8.371 -56.362c-0.558 -15.625 0.093 -33.947 1.953 -54.966c1.86 -21.02 5.953 -41.574 12.277 -61.663c0 0 -68.08 0 -68.08 0c-24.554 0 -45.573 -8.743 -63.058 -26.228c-17.485 -17.485 -26.228 -38.504 -26.228 -63.058c0 0 0 0 0 0m428.571 21.763c140.253 15.625 283.111 79.055 428.572 190.291c0 0 0 -532.367 0 -532.367c-146.578 112.352 -289.435 176.154 -428.572 191.407c0 0 0 150.669 0 150.669c0 0 0 0 0 0" />
  </g>
</svg>