<svg height="1000" width="1000" xmlns="http://www.w3.org/2000/svg"><path d="M0 482.2v-107.1q0-36.8 26.2-63.1t63.1-26.2h267.8q242.7 0 500-214.3 29 0 50.2 21.2t21.2 50.2v214.3q29.6 0 50.5 20.9t20.9 50.5-20.9 50.5-50.5 20.9v214.3q0 29-21.2 50.2t-50.2 21.2q-232.7-193.6-453.1-212-32.4 10.6-50.8 36.8t-17.3 56.1 22.3 51.6q-11.2 18.4-12.8 36.5t3.3 32.4 18.7 30.7 26.8 27.9 34.3 28.2q-16.2 32.4-62.2 46.3t-94 6.4-73.7-31q-3.9-12.8-16.5-48.8t-17.9-52.7-12.8-49.7-8.4-56.4 2-55 12.3-61.7h-68.1q-36.8 0-63.1-26.2t-26.2-63.1zm428.5 21.8q210.4 23.4 428.5 190.3v-532.3q-219.9 168.5-428.5 191.4v150.7z"/></svg>