<svg height="1000" width="857.143" xmlns="http://www.w3.org/2000/svg"><path d="M642.816 607.168q0 14.508 -10.602 25.11t-25.11 10.602h-357.12q-14.508 0 -25.11 -10.602t-10.602 -25.11 10.602 -25.11 25.11 -10.602h357.12q14.508 0 25.11 10.602t10.602 25.11zm-285.696 -249.984q0 29.574 -20.925 50.499t-50.499 20.925 -50.499 -20.925 -20.925 -50.499 20.925 -50.499 50.499 -20.925 50.499 20.925 20.925 50.499zm285.696 0q0 29.574 -20.925 50.499t-50.499 20.925 -50.499 -20.925 -20.925 -50.499 20.925 -50.499 50.499 -20.925 50.499 20.925 20.925 50.499zm142.848 142.848q0 -72.54 -28.458 -138.663t-76.167 -113.832 -113.832 -76.167 -138.663 -28.458 -138.663 28.458 -113.832 76.167 -76.167 113.832 -28.458 138.663 28.458 138.663 76.167 113.832 113.832 76.167 138.663 28.458 138.663 -28.458 113.832 -76.167 76.167 -113.832 28.458 -138.663zm71.424 0q0 116.622 -57.474 215.109t-155.961 155.961 -215.109 57.474 -215.109 -57.474 -155.961 -155.961 -57.474 -215.109 57.474 -215.109 155.961 -155.961 215.109 -57.474 215.109 57.474 155.961 155.961 57.474 215.109z"/></svg>