<svg height="1000px" width="899.90234375px" xmlns="http://www.w3.org/2000/svg">
  <g>
    <path d="M0 836.9140625c0 0 0 -104.98 0 -104.98c0 -10.092 3.662 -18.799 10.986 -26.124c7.325 -7.324 16.358 -10.986 27.1 -10.986c0 0 824.707 0 824.707 0c10.091 0 18.799 3.662 26.123 10.986c7.324 7.325 10.986 16.032 10.986 26.124c0 0 0 104.98 0 104.98c0 10.742 -3.662 19.775 -10.986 27.1c-7.324 7.324 -16.032 10.986 -26.123 10.986c0 0 -824.707 0 -824.707 0c-10.742 0 -19.775 -3.662 -27.1 -10.986c-7.324 -7.325 -10.986 -16.358 -10.986 -27.1c0 0 0 0 0 0m0 -283.691c0 0 0 -106.446 0 -106.446c0 -10.091 3.662 -18.717 10.986 -25.879c7.325 -7.161 16.358 -10.742 27.1 -10.742c0 0 824.707 0 824.707 0c10.091 0 18.799 3.662 26.123 10.987c7.324 7.324 10.986 15.869 10.986 25.634c0 0 0 106.446 0 106.446c0 10.091 -3.662 18.717 -10.986 25.879c-7.324 7.161 -16.032 10.742 -26.123 10.742c0 0 -824.707 0 -824.707 0c-10.742 0 -19.775 -3.662 -27.1 -10.987c-7.324 -7.324 -10.986 -15.869 -10.986 -25.634c0 0 0 0 0 0m0 -285.157c0 0 0 -105.957 0 -105.957c0 -10.091 3.662 -18.799 10.986 -26.123c7.325 -7.324 16.358 -10.986 27.1 -10.986c0 0 824.707 0 824.707 0c10.091 0 18.799 3.662 26.123 10.986c7.324 7.324 10.986 16.032 10.986 26.123c0 0 0 105.957 0 105.957c0 10.091 -3.662 18.799 -10.986 26.123c-7.324 7.325 -16.032 10.987 -26.123 10.987c0 0 -824.707 0 -824.707 0c-10.742 0 -19.775 -3.662 -27.1 -10.987c-7.324 -7.324 -10.986 -16.032 -10.986 -26.123c0 0 0 0 0 0" />
  </g>
</svg>