<svg height="1000" width="857.143" xmlns="http://www.w3.org/2000/svg"><path d="M857.088 750.016v71.424q0 14.508 -10.602 25.11t-25.11 10.602h-785.664q-14.508 0 -25.11 -10.602t-10.602 -25.11v-71.424q0 -14.508 10.602 -25.11t25.11 -10.602h785.664q14.508 0 25.11 10.602t10.602 25.11zm0 -285.696v71.424q0 14.508 -10.602 25.11t-25.11 10.602h-785.664q-14.508 0 -25.11 -10.602t-10.602 -25.11v-71.424q0 -14.508 10.602 -25.11t25.11 -10.602h785.664q14.508 0 25.11 10.602t10.602 25.11zm0 -285.696v71.424q0 14.508 -10.602 25.11t-25.11 10.602h-785.664q-14.508 0 -25.11 -10.602t-10.602 -25.11v-71.424q0 -14.508 10.602 -25.11t25.11 -10.602h785.664q14.508 0 25.11 10.602t10.602 25.11z"/></svg>