<svg height="1000" width="714.3" xmlns="http://www.w3.org/2000/svg"><path d="M463.2 176.3q80.9 40.2 130.3 117.5t49.4 170.5q0 123.3 -82.4 214.6T357.1 783.5v73.6h53.6q7.8 0 12.8 5.1t5.1 12.8v35.7q0 7.8 -5.1 12.8t-12.8 5.1h-53.6v53.5q0 7.9 -5 12.9t-12.8 5h-35.7q-7.8 0 -12.9 -5t-5 -12.9v-53.5h-53.6q-7.8 0 -12.8 -5.1t-5 -12.8V875q0 -7.8 5 -12.8t12.8 -5.1h53.6v-73.6Q164.6 770.1 82.3 678.9T0 464.3Q0 371.1 49.4 293.8T179.7 176.3Q87.6 122.8 52.5 24 49.1 15.1 54.4 7.5T69.2 0h38.5q11.7 0 16.2 11.2 24.5 59.1 78.1 95.4t119.4 36.3 119.4 -36.3T519 11.2Q523.4 0 539.6 0h34.1q9.4 0 14.7 7.5t2 16.5q-35.2 98.8 -127.2 152.3zm-141.8 538q103.3 0 176.6 -73.4t73.4 -176.6T498 287.7 321.4 214.3t-176.6 73.4T71.4 464.3t73.4 176.6 176.6 73.4z"/></svg>