<svg height="1000" width="714.286" xmlns="http://www.w3.org/2000/svg"><path d="M463.14 176.392q80.91 40.176 130.293 117.459t49.383 170.469q0 123.318 -82.305 214.551t-203.391 104.625v73.656h53.568q7.812 0 12.834 5.022t5.022 12.834v35.712q0 7.812 -5.022 12.834t-12.834 5.022h-53.568v53.568q0 7.812 -5.022 12.834t-12.834 5.022h-35.712q-7.812 0 -12.834 -5.022t-5.022 -12.834v-53.568h-53.568q-7.812 0 -12.834 -5.022t-5.022 -12.834v-35.712q0 -7.812 5.022 -12.834t12.834 -5.022h53.568v-73.656q-121.086 -13.392 -203.391 -104.625t-82.305 -214.551q0 -93.186 49.383 -170.469t130.293 -117.459q-92.07 -53.568 -127.224 -152.334 -3.348 -8.928 1.953 -16.461t14.787 -7.533h38.502q11.718 0 16.182 11.16 24.552 59.148 78.12 95.418t119.412 36.27 119.412 -36.27 78.12 -95.418q4.464 -11.16 20.646 -11.16h34.038q9.486 0 14.787 7.533t1.953 16.461q-35.154 98.766 -127.224 152.334zm-141.732 537.912q103.23 0 176.607 -73.377t73.377 -176.607 -73.377 -176.607 -176.607 -73.377 -176.607 73.377 -73.377 176.607 73.377 176.607 176.607 73.377z"/></svg>