<svg height="1000" width="642.9" xmlns="http://www.w3.org/2000/svg"><path d="M642.9 392.9v71.4q0 123.3 -82.4 214.6T357.1 783.5v73.6H500q14.5 0 25.1 10.6t10.6 25.2T525.1 918 500 928.6H142.9q-14.6 0 -25.2 -10.6t-10.6 -25.1 10.6 -25.2 25.2 -10.6h142.8v-73.6Q164.6 770.1 82.3 678.9T0 464.3v-71.4q0 -14.6 10.6 -25.2t25.1 -10.6 25.1 10.6 10.6 25.2v71.4q0 103.2 73.4 176.6t176.6 73.4T498 640.9t73.4 -176.6v-71.4q0 -14.6 10.6 -25.2t25.1 -10.6 25.2 10.6 10.6 25.2zM500 178.6v285.7q0 73.6 -52.5 126.1t-126.1 52.5T195.3 590.4 142.9 464.3V178.6q0 -73.7 52.4 -126.1T321.4 0t126.1 52.5T500 178.6z"/></svg>