<svg height="1000" width="642.857" xmlns="http://www.w3.org/2000/svg"><path d="M642.816 392.896v71.424q0 123.318 -82.305 214.551t-203.391 104.625v73.656h142.848q14.508 0 25.11 10.602t10.602 25.11 -10.602 25.11 -25.11 10.602h-357.12q-14.508 0 -25.11 -10.602t-10.602 -25.11 10.602 -25.11 25.11 -10.602h142.848v-73.656q-121.086 -13.392 -203.391 -104.625t-82.305 -214.551v-71.424q0 -14.508 10.602 -25.11t25.11 -10.602 25.11 10.602 10.602 25.11v71.424q0 103.23 73.377 176.607t176.607 73.377 176.607 -73.377 73.377 -176.607v-71.424q0 -14.508 10.602 -25.11t25.11 -10.602 25.11 10.602 10.602 25.11zm-142.848 -214.272v285.696q0 73.656 -52.452 126.108t-126.108 52.452 -126.108 -52.452 -52.452 -126.108v-285.696q0 -73.656 52.452 -126.108t126.108 -52.452 126.108 52.452 52.452 126.108z"/></svg>