<svg height="1000" width="857.1" xmlns="http://www.w3.org/2000/svg"><path d="M107.1 714.3v71.4H44.6q-8.9 0 -8.9 -8.9v-8.9H8.9q-8.9 0 -8.9 -9v-17.8q0 -9 8.9 -9h26.8v-8.9q0 -8.9 8.9 -8.9h62.5zm0 -142.9v71.5H44.6q-8.9 0 -8.9 -9V625H8.9Q0 625 0 616.1v-17.9q0 -8.9 8.9 -8.9h26.8v-8.9q0 -9 8.9 -9h62.5zm0 -142.8V500H44.6q-8.9 0 -8.9 -8.9v-9H8.9Q0 482.1 0 473.2v-17.8q0 -9 8.9 -9h26.8v-8.9q0 -8.9 8.9 -8.9h62.5zm0 -142.9v71.4H44.6q-8.9 0 -8.9 -8.9v-8.9H8.9Q0 339.3 0 330.4v-17.9q0 -8.9 8.9 -8.9h26.8v-9q0 -8.9 8.9 -8.9h62.5zm0 -142.8v71.4H44.6q-8.9 0 -8.9 -8.9v-9H8.9Q0 196.4 0 187.5v-17.9q0 -8.9 8.9 -8.9h26.8v-8.9q0 -8.9 8.9 -8.9h62.5zM714.3 53.6V875q0 22.3 -15.6 37.9t-38 15.7H196.4q-22.3 0 -37.9 -15.7T142.9 875V53.6q0 -22.4 15.6 -38T196.4 0h464.3q22.3 0 38 15.6t15.6 38zm142.8 687.5v17.8q0 9 -8.9 9h-26.8v8.9q0 8.9 -8.9 8.9H750v-71.4h62.5q8.9 0 8.9 8.9v8.9h26.8q8.9 0 8.9 9zm0 -142.9v17.9q0 8.9 -8.9 8.9h-26.8v8.9q0 9 -8.9 9H750v-71.5h62.5q8.9 0 8.9 9v8.9h26.8q8.9 0 8.9 8.9zm0 -142.8v17.8q0 8.9 -8.9 8.9h-26.8v9q0 8.9 -8.9 8.9H750v-71.4h62.5q8.9 0 8.9 8.9v8.9h26.8q8.9 0 8.9 9zm0 -142.9v17.9q0 8.9 -8.9 8.9h-26.8v8.9q0 8.9 -8.9 8.9H750v-71.4h62.5q8.9 0 8.9 8.9v9h26.8q8.9 0 8.9 8.9zm0 -142.9v17.9q0 8.9 -8.9 8.9h-26.8v9q0 8.9 -8.9 8.9H750v-71.4h62.5q8.9 0 8.9 8.9v8.9h26.8q8.9 0 8.9 8.9z"/></svg>