<svg height="1000px" width="750px" xmlns="http://www.w3.org/2000/svg">
  <g>
    <path d="M0 535.15625c0 0 0 -70.313 0 -70.313c0 -12.695 4.476 -23.518 13.428 -32.47c8.952 -8.952 19.775 -13.428 32.47 -13.428c0 0 658.204 0 658.204 0c12.695 0 23.518 4.476 32.47 13.428c8.952 8.952 13.428 19.775 13.428 32.471c0 0 0 70.312 0 70.312c0 12.695 -4.476 23.519 -13.428 32.471c-8.952 8.952 -19.775 13.427 -32.47 13.427c0 0 -657.227 0 -657.227 0c-13.346 0 -24.495 -4.313 -33.447 -12.939c-8.952 -8.626 -13.428 -19.613 -13.428 -32.959c0 0 0 0 0 0" />
  </g>
</svg>