<svg height="1000" width="642.857" xmlns="http://www.w3.org/2000/svg"><path d="M517.824 214.336q51.894 0 88.443 36.549t36.549 88.443v392.832q0 51.336 -36.549 88.164t-88.443 36.828h-392.832q-51.894 0 -88.443 -36.828t-36.549 -88.164v-392.832q0 -51.894 36.549 -88.443t88.443 -36.549h392.832zm53.568 517.824v-392.832q0 -22.32 -15.624 -37.944t-37.944 -15.624h-392.832q-22.32 0 -37.944 15.624t-15.624 37.944v392.832q0 22.32 15.624 37.944t37.944 15.624h392.832q22.32 0 37.944 -15.624t15.624 -37.944zm-89.28 -232.128q7.812 0 12.834 5.022t5.022 12.834v35.712q0 7.812 -5.022 12.834t-12.834 5.022h-321.408q-7.812 0 -12.834 -5.022t-5.022 -12.834v-35.712q0 -7.812 5.022 -12.834t12.834 -5.022h321.408z"/></svg>