<svg height="1000" width="785.7" xmlns="http://www.w3.org/2000/svg"><path d="M642.9 446.4v35.7q0 7.9 -5.1 12.9t-12.8 5H160.7q-7.8 0 -12.8 -5t-5 -12.9v-35.7q0 -7.8 5 -12.8t12.8 -5H625q7.8 0 12.8 5t5.1 12.8zm71.4 250V232.1q0 -36.8 -26.2 -63T625 142.9H160.7q-36.8 0 -63 26.2t-26.3 63v464.3q0 36.9 26.3 63.1t63 26.2H625q36.8 0 63.1 -26.2t26.2 -63.1zm71.4 -464.3v464.3q0 66.4 -47.1 113.6T625 857.1H160.7Q94.3 857.1 47.2 810T0 696.4V232.1Q0 165.7 47.2 118.6T160.7 71.4H625q66.4 0 113.6 47.2t47.1 113.5z"/></svg>