<svg height="1000" width="1285.7" xmlns="http://www.w3.org/2000/svg"><path d="M918 612.7q0 -32.9 -19 -59.4t-48.6 -38.2q-3.9 25.1 -12.8 51.3 -3.9 13.4 -15.3 21.2t-24.9 7.8q-6.7 0 -13.4 -1.6 -17.3 -5.6 -25.1 -21.5t-2.2 -32.7q12.8 -39.6 12.8 -79.8 0 -68.6 -34 -126.9t-92.6 -92.4 -127.3 -34q-74.8 0 -137.8 40.7t-93.2 108.3q60.3 15.6 104.9 59.1 12.3 12.9 12.3 30.7t-12.3 30.1 -30.1 12.3 -30.7 -12.3Q286.8 433.6 228.2 433.6q-59.1 0 -101 41.6T85.4 575.9t41.8 100.7 101 41.6h583.7q44.1 0 75.1 -31t31 -74.5zm85.3 0q0 79.3 -56 135.1t-135.4 55.8H228.2q-94.3 0 -161.2 -66.7T0 575.9q0 -85.4 55.8 -149t139 -75.9Q229.4 248.3 318.1 184.7t197.5 -63.6q131.2 0 228 88.4t109.6 217.4Q918 440.8 960.7 493t42.6 119.7zm139.6 0q0 97.7 -54.2 178 -12.8 18.5 -35.7 18.5 -13.4 0 -24 -7.3 -14.5 -9.5 -17.8 -27.1t6.7 -32.1q39.6 -58 39.6 -130t-39.6 -130q-10.1 -14.5 -6.7 -31.8t17.8 -27.4 32.1 -6.4 27.6 18.2q54.2 79.2 54.2 177.4zm142.8 0q0 136.2 -74.8 247.2 -12.8 19 -35.7 19 -12.8 0 -23.4 -7.2 -14.5 -10.1 -18.2 -27.4t6.5 -31.8q60.2 -91.5 60.2 -199.8 0 -108.8 -60.2 -199.2Q1130 399 1133.6 381.4t18.2 -27q14.5 -10.1 31.8 -6.7t27.3 18.4q74.8 110.5 74.8 246.6z"/></svg>