<svg height="1000" width="428.571" xmlns="http://www.w3.org/2000/svg"><path d="M258.912 785.728q0 -18.414 -13.113 -31.527t-31.527 -13.113 -31.527 13.113 -13.113 31.527 13.113 31.527 31.527 13.113 31.527 -13.113 13.113 -31.527zm116.064 -89.28v-392.832q0 -7.254 -5.301 -12.555t-12.555 -5.301h-285.696q-7.254 0 -12.555 5.301t-5.301 12.555v392.832q0 7.254 5.301 12.555t12.555 5.301h285.696q7.254 0 12.555 -5.301t5.301 -12.555zm-107.136 -473.184q0 -8.928 -8.928 -8.928h-89.28q-8.928 0 -8.928 8.928t8.928 8.928h89.28q8.928 0 8.928 -8.928zm160.704 -8.928v571.392q0 29.016 -21.204 50.22t-50.22 21.204h-285.696q-29.016 0 -50.22 -21.204t-21.204 -50.22v-571.392q0 -29.016 21.204 -50.22t50.22 -21.204h285.696q29.016 0 50.22 21.204t21.204 50.22z"/></svg>