<svg height="1000" width="429" xmlns="http://www.w3.org/2000/svg"><path d="M0 785.728l0-571.392q0-29.016 21.204-50.22t50.22-21.204l285.696 0q29.016 0 50.22 21.204t21.204 50.22l0 571.392q0 29.016-21.204 50.22t-50.22 21.204l-285.696 0q-29.016 0-50.22-21.204t-21.204-50.22zm53.568-89.28q0 7.254 5.301 12.555t12.555 5.301l285.696 0q7.254 0 12.555-5.301t5.301-12.555l0-392.832q0-7.254-5.301-12.555t-12.555-5.301l-285.696 0q-7.254 0-12.555 5.301t-5.301 12.555l0 392.832zm107.136-473.184q0 8.928 8.928 8.928l89.28 0q8.928 0 8.928-8.928t-8.928-8.928l-89.28 0q-8.928 0-8.928 8.928zm8.928 562.464q0 18.414 13.113 31.527t31.527 13.113 31.527-13.113 13.113-31.527-13.113-31.527-31.527-13.113-31.527 13.113-13.113 31.527z"/></svg>