<svg height="1000px" width="428.57142857142856px" xmlns="http://www.w3.org/2000/svg">
  <g>
    <path d="M0 785.7142857142857c0 0 0 -571.429 0 -571.429c0 -19.345 7.068 -36.086 21.205 -50.223c14.137 -14.137 30.878 -21.205 50.224 -21.205c0 0 285.714 0 285.714 0c19.345 0 36.086 7.068 50.223 21.205c14.137 14.137 21.205 30.878 21.205 50.223c0 0 0 571.429 0 571.429c0 19.345 -7.068 36.086 -21.205 50.223c-14.137 14.137 -30.878 21.206 -50.223 21.206c0 0 -285.714 0 -285.714 0c-19.346 0 -36.087 -7.069 -50.224 -21.206c-14.137 -14.137 -21.205 -30.878 -21.205 -50.223c0 0 0 0 0 0m53.571 -89.286c0 4.837 1.768 9.022 5.302 12.556c3.534 3.534 7.719 5.301 12.556 5.301c0 0 285.714 0 285.714 0c4.836 0 9.021 -1.767 12.556 -5.301c3.534 -3.534 5.301 -7.719 5.301 -12.556c0 0 0 -392.857 0 -392.857c0 -4.836 -1.767 -9.021 -5.301 -12.556c-3.535 -3.534 -7.72 -5.301 -12.556 -5.301c0 0 -285.714 0 -285.714 0c-4.837 0 -9.022 1.767 -12.556 5.301c-3.534 3.535 -5.302 7.72 -5.302 12.556c0 0 0 392.857 0 392.857c0 0 0 0 0 0m107.143 -473.214c0 5.952 2.976 8.929 8.929 8.929c0 0 89.286 0 89.286 0c5.952 0 8.928 -2.977 8.928 -8.929c0 -5.952 -2.976 -8.929 -8.928 -8.929c0 0 -89.286 0 -89.286 0c-5.953 0 -8.929 2.977 -8.929 8.929c0 0 0 0 0 0m8.929 562.5c0 12.277 4.371 22.786 13.114 31.529c8.742 8.743 19.252 13.114 31.529 13.114c12.276 0 22.786 -4.371 31.529 -13.114c8.742 -8.743 13.114 -19.252 13.114 -31.529c0 -12.277 -4.372 -22.786 -13.114 -31.529c-8.743 -8.743 -19.253 -13.114 -31.529 -13.114c-12.277 0 -22.787 4.371 -31.529 13.114c-8.743 8.743 -13.114 19.252 -13.114 31.529c0 0 0 0 0 0" />
  </g>
</svg>