<svg height="1000" width="428.6" xmlns="http://www.w3.org/2000/svg"><path d="M0 785.7v-571.4q0-29 21.2-50.2t50.2-21.2h285.7q29 0 50.2 21.2t21.2 50.2v571.4q0 29-21.2 50.2t-50.2 21.2h-285.7q-29 0-50.2-21.2t-21.2-50.2zm53.6-89.3q0 7.3 5.3 12.6t12.6 5.3h285.7q7.3 0 12.6-5.3t5.3-12.6v-392.8q0-7.3-5.3-12.6t-12.6-5.3h-285.7q-7.3 0-12.6 5.3t-5.3 12.6v392.8zm107.1-473.2q0 8.9 8.9 8.9h89.3q8.9 0 8.9-8.9t-8.9-8.9h-89.3q-8.9 0-8.9 8.9zm8.9 562.5q0 18.4 13.1 31.5t31.5 13.1 31.5-13.1 13.1-31.5-13.1-31.5-31.5-13.1-31.5 13.1-13.1 31.5z"/></svg>