<svg height="1000px" width="899.90234375px" xmlns="http://www.w3.org/2000/svg">
  <g>
    <path d="M0 836.9140625c0 0 0 -674.805 0 -674.805c0 -10.091 3.662 -18.799 10.986 -26.123c7.325 -7.324 16.358 -10.986 27.1 -10.986c0 0 824.707 0 824.707 0c10.091 0 18.799 3.662 26.123 10.986c7.324 7.324 10.986 16.032 10.986 26.123c0 0 0 674.805 0 674.805c0 10.742 -3.662 19.775 -10.986 27.1c-7.324 7.324 -16.032 10.986 -26.123 10.986c0 0 -824.707 0 -824.707 0c-10.742 0 -19.775 -3.662 -27.1 -10.986c-7.324 -7.325 -10.986 -16.358 -10.986 -27.1c0 0 0 0 0 0m75.195 -187.012c20.508 0 39.958 3.988 58.35 11.963c18.392 7.975 34.261 18.636 47.607 31.983c13.347 13.346 24.008 29.215 31.983 47.607c7.975 18.392 11.963 37.842 11.963 58.35c0 0 449.707 0 449.707 0c0 -20.508 4.069 -39.958 12.207 -58.35c8.138 -18.392 18.799 -34.261 31.982 -47.607c13.184 -13.347 28.971 -24.008 47.363 -31.983c18.392 -7.975 38.005 -11.963 58.838 -11.963c0 0 0 -299.804 0 -299.804c-20.508 0 -40.039 -3.988 -58.593 -11.963c-18.555 -7.976 -34.424 -18.636 -47.608 -31.983c-13.183 -13.346 -23.844 -29.215 -31.982 -47.607c-8.138 -18.392 -12.207 -37.842 -12.207 -58.35c0 0 -449.707 0 -449.707 0c0 20.508 -3.988 39.958 -11.963 58.35c-7.975 18.392 -18.636 34.261 -31.983 47.607c-13.346 13.347 -29.215 24.007 -47.607 31.983c-18.392 7.975 -37.842 11.963 -58.35 11.963c0 0 0 299.804 0 299.804c0 0 0 0 0 0m187.989 -149.902c0 -33.854 4.801 -65.674 14.404 -95.459c9.603 -29.785 22.868 -55.664 39.795 -77.637c16.927 -21.972 36.784 -39.306 59.57 -52.002c22.787 -12.695 47.201 -19.043 73.242 -19.043c26.042 0 50.375 6.348 72.998 19.043c22.624 12.696 42.399 30.03 59.327 52.002c16.927 21.973 30.436 47.852 40.527 77.637c10.091 29.785 15.137 61.605 15.137 95.459c0 33.854 -5.046 65.674 -15.137 95.459c-10.091 29.785 -23.6 55.664 -40.527 77.637c-16.928 21.972 -36.784 39.306 -59.571 52.002c-22.786 12.695 -47.038 19.043 -72.754 19.043c-26.041 0 -50.455 -6.348 -73.242 -19.043c-22.786 -12.696 -42.643 -30.03 -59.57 -52.002c-16.927 -21.973 -30.192 -47.852 -39.795 -77.637c-9.603 -29.785 -14.404 -61.605 -14.404 -95.459c0 0 0 0 0 0m74.707 -98.145c0 0 45.898 48.34 45.898 48.34c0 0 19.043 -17.09 19.043 -17.09c2.604 -1.953 4.476 -4.15 5.615 -6.591c1.14 -2.442 2.36 -4.314 3.662 -5.616c1.302 -0.651 2.605 -2.278 3.907 -4.882c0 0 0.976 0 0.976 0c0 0 0 7.812 0 7.812c0 2.604 -0.163 5.29 -0.488 8.057c-0.326 2.767 -0.488 5.778 -0.488 9.033c0 0 0 138.183 0 138.183c0 0 -67.871 0 -67.871 0c0 0 0 62.989 0 62.989c0 0 213.867 0 213.867 0c0 0 0 -62.989 0 -62.989c0 0 -68.848 0 -68.848 0c0 0 0 -258.3 0 -258.3c0 0 -68.359 0 -68.359 0c0 0 -86.914 81.054 -86.914 81.054" />
  </g>
</svg>