<svg height="1000" width="1071.4" xmlns="http://www.w3.org/2000/svg"><path d="M428.6 642.9h214.3v-53.6h-71.5v-250h-63.6l-82.6 76.4 43 44.7q23.4 -20.7 30.7 -31.8h1.1v160.7h-71.4v53.6zM714.3 500q0 39.1 -11.7 79.2T669.4 654t-56.7 56.4 -77 21.7 -77 -21.7T402.1 654t-33.2 -74.8T357.1 500t11.8 -79.2T402.1 346t56.6 -56.4 77 -21.7 77 21.7 56.7 56.4 33.2 74.8 11.7 79.2zM1000 642.9V357.1q-59.2 0 -101 -41.8t-41.9 -101H214.3q0 59.1 -41.9 101t-101 41.8v285.8q59.2 0 101 41.8t41.9 101h642.8q0 -59.1 41.9 -101t101 -41.8zm71.4 -464.3v642.8q0 14.5 -10.6 25.1t-25.1 10.6H35.7q-14.5 0 -25.1 -10.6T0 821.4V178.6q0 -14.5 10.6 -25.1t25.1 -10.6h1000q14.5 0 25.1 10.6t10.6 25.1z"/></svg>