<svg height="1000" width="1071.429" xmlns="http://www.w3.org/2000/svg"><path d="M428.544 642.88h214.272v-53.568h-71.424v-249.984h-63.612l-82.584 76.446 42.966 44.64q23.436 -20.646 30.69 -31.806h1.116v160.704h-71.424v53.568zm285.696 -142.848q0 39.06 -11.718 79.236t-33.201 74.772 -56.637 56.358 -77.004 21.762 -77.004 -21.762 -56.637 -56.358 -33.201 -74.772 -11.718 -79.236 11.718 -79.236 33.201 -74.772 56.637 -56.358 77.004 -21.762 77.004 21.762 56.637 56.358 33.201 74.772 11.718 79.236zm285.696 142.848v-285.696q-59.148 0 -100.998 -41.85t-41.85 -100.998h-642.816q0 59.148 -41.85 100.998t-100.998 41.85v285.696q59.148 0 100.998 41.85t41.85 100.998h642.816q0 -59.148 41.85 -100.998t100.998 -41.85zm71.424 -464.256v642.816q0 14.508 -10.602 25.11t-25.11 10.602h-999.936q-14.508 0 -25.11 -10.602t-10.602 -25.11v-642.816q0 -14.508 10.602 -25.11t25.11 -10.602h999.936q14.508 0 25.11 10.602t10.602 25.11z"/></svg>