<svg height="1000px" width="1071.4285714285716px" xmlns="http://www.w3.org/2000/svg">
  <g>
    <path d="M1071.4285714285716 178.57142857142856c0 0 0 642.857 0 642.857c0 9.673 -3.534 18.043 -10.603 25.112c-7.068 7.068 -15.439 10.602 -25.111 10.602c0 0 -1000 0 -1000 0c-9.673 0 -18.043 -3.534 -25.112 -10.602c-7.068 -7.069 -10.603 -15.439 -10.603 -25.112c0 0 0 -642.857 0 -642.857c0 -9.673 3.535 -18.043 10.603 -25.112c7.069 -7.068 15.439 -10.602 25.112 -10.602c0 0 1000 0 1000 0c9.672 0 18.043 3.534 25.111 10.602c7.069 7.069 10.603 15.439 10.603 25.112c0 0 0 0 0 0m-71.429 464.286c0 0 0 -285.715 0 -285.715c-39.434 0 -73.102 -13.95 -101.004 -41.852c-27.902 -27.902 -41.853 -61.57 -41.853 -101.005c0 0 -642.857 0 -642.857 0c0 39.435 -13.951 73.103 -41.853 101.005c-27.901 27.902 -61.569 41.852 -101.004 41.852c0 0 0 285.715 0 285.715c39.435 0 73.103 13.951 101.004 41.852c27.902 27.902 41.853 61.57 41.853 101.005c0 0 642.857 0 642.857 0c0 -39.435 13.951 -73.103 41.853 -101.005c27.902 -27.901 61.57 -41.852 101.004 -41.852c0 0 0 0 0 0m-285.714 -142.857c0 26.041 -3.906 52.455 -11.719 79.241c-7.812 26.785 -18.88 51.711 -33.203 74.776c-14.323 23.066 -33.203 41.853 -56.64 56.362c-23.438 14.509 -49.108 21.763 -77.009 21.763c-27.902 0 -53.572 -7.254 -77.009 -21.763c-23.438 -14.509 -42.318 -33.296 -56.641 -56.362c-14.323 -23.065 -25.39 -47.991 -33.203 -74.776c-7.812 -26.786 -11.719 -53.2 -11.719 -79.241c0 -26.042 3.907 -52.456 11.719 -79.242c7.813 -26.785 18.88 -51.711 33.203 -74.776c14.323 -23.066 33.203 -41.853 56.641 -56.362c23.437 -14.509 49.107 -21.763 77.009 -21.763c27.902 0 53.571 7.254 77.009 21.763c23.437 14.509 42.317 33.296 56.64 56.362c14.323 23.065 25.391 47.991 33.203 74.776c7.813 26.786 11.719 53.2 11.719 79.242c0 0 0 0 0 0m-285.714 142.857c0 0 214.286 0 214.286 0c0 0 0 -53.572 0 -53.572c0 0 -71.429 0 -71.429 0c0 0 0 -250 0 -250c0 0 -63.616 0 -63.616 0c0 0 -82.589 76.451 -82.589 76.451c0 0 42.968 44.643 42.968 44.643c15.625 -13.765 25.856 -24.368 30.692 -31.808c0 0 1.116 0 1.116 0c0 0 0 160.714 0 160.714c0 0 -71.428 0 -71.428 0c0 0 0 53.572 0 53.572c0 0 0 0 0 0" />
  </g>
</svg>