<svg height="1000" width="1071.4" xmlns="http://www.w3.org/2000/svg"><path d="M0 821.4v-642.8q0-14.5 10.6-25.1t25.1-10.6h999.9q14.5 0 25.1 10.6t10.6 25.1v642.8q0 14.5-10.6 25.1t-25.1 10.6h-999.9q-14.5 0-25.1-10.6t-10.6-25.1zm71.4-178.6q59.1 0 101 41.9t41.9 101h642.8q0-59.1 41.9-101t101-41.9v-285.7q-59.1 0-101-41.9t-41.9-101h-642.8q0 59.1-41.9 101t-101 41.9v285.7zm285.7-142.8q0-39.1 11.7-79.2t33.2-74.8 56.6-56.4 77-21.8 77 21.8 56.6 56.4 33.2 74.8 11.7 79.2-11.7 79.2-33.2 74.8-56.6 56.4-77 21.8-77-21.8-56.6-56.4-33.2-74.8-11.7-79.2zm68.1-84.3l43 44.6q23.4-20.6 30.7-31.8h1.1v160.7h-71.4v53.6h214.3v-53.6h-71.4v-250h-63.6z"/></svg>