<svg height="1000" width="1072" xmlns="http://www.w3.org/2000/svg"><path d="M0 821.44l0-642.816q0-14.508 10.602-25.11t25.11-10.602l999.936 0q14.508 0 25.11 10.602t10.602 25.11l0 642.816q0 14.508-10.602 25.11t-25.11 10.602l-999.936 0q-14.508 0-25.11-10.602t-10.602-25.11zm71.424-178.56q59.148 0 100.998 41.85t41.85 100.998l642.816 0q0-59.148 41.85-100.998t100.998-41.85l0-285.696q-59.148 0-100.998-41.85t-41.85-100.998l-642.816 0q0 59.148-41.85 100.998t-100.998 41.85l0 285.696zm285.696-142.848q0-39.06 11.718-79.236t33.201-74.772 56.637-56.358 77.004-21.762 77.004 21.762 56.637 56.358 33.201 74.772 11.718 79.236-11.718 79.236-33.201 74.772-56.637 56.358-77.004 21.762-77.004-21.762-56.637-56.358-33.201-74.772-11.718-79.236zm68.076-84.258l42.966 44.64q23.436-20.646 30.69-31.806l1.116 0l0 160.704l-71.424 0l0 53.568l214.272 0l0-53.568l-71.424 0l0-249.984l-63.612 0z"/></svg>