<svg height="1000" width="857.1" xmlns="http://www.w3.org/2000/svg"><path d="M704.2 727.1q-30.1 5 -61.3 5 -101.6 0 -188.1 -50.2T318.1 545.2 267.9 357.1q0 -107.1 58 -199.2Q213.7 191.4 142.6 285.7T71.4 500q0 72.5 28.5 138.7t76.2 113.8 113.8 76.2 138.7 28.4q80.3 0 152.6 -34.3t123 -95.7zm113.3 -47.4Q765.1 793 659.3 860.8t-230.7 67.8q-87.1 0 -166.3 -34.1T125.6 803 34 666.3 0 500Q0 414.6 32.1 336.8t87 -134.8 131.5 -91.8T412.4 72q24.5 -1.1 34 21.7 10.1 22.9 -8.3 40.2 -48 43.6 -73.4 101.3t-25.4 121.9q0 82.6 40.7 152.4T490.5 620t152.4 40.7q65.8 0 127.2 -28.4 22.9 -10.1 40.2 7.2 7.8 7.8 9.7 19t-2.5 21.2z"/></svg>