<svg height="1000" width="1285.7" xmlns="http://www.w3.org/2000/svg"><path d="M1284 578.1q6.7 57.5 -12.2 110.8t-55.3 91.2 -88.4 59.2 -109.7 17.3q-89.8 -6.2 -156 -69.8t-75 -152.9Q780.7 572 802.7 516.5t66.2 -95.2l-39.7 -59.7Q775.7 406.2 745 469.9T714.3 606q0 15.1 -10.3 26t-25.4 10.9H497.2q-12.8 91.5 -83.1 152.9T250 857.1q-103.2 0 -176.6 -73.3T0 607.1 73.4 430.5 250 357.1q42.4 0 84.8 15.1l13.4 -25.1Q279.6 285.7 178.6 285.7h-35.7q-14.6 0 -25.2 -10.6T107.1 250t10.6 -25.1 25.2 -10.6h71.4q43.5 0 80.9 7.5t65 21.5 39.9 22 28.5 20.4h349.9L731 214.3H607.1q-16.7 0 -27.3 -12.6T572 172.4q2.2 -12.8 12.8 -21.2t24 -8.3H750q18.4 0 29.6 15.6l39 58.6 63.7 -63.6q10.6 -10.6 25.6 -10.6h56.4q14.5 0 25.1 10.6t10.6 25.1V250q0 14.5 -10.6 25.1t-25.1 10.6h-99.9l64.2 96q73.1 -35.2 153.4 -20.1 79.8 14.5 136.2 75.1t65.8 141.4zM250 785.7q64.2 0 113.3 -40.4t61.9 -102.4H250q-19.5 0 -30.7 -17.3 -10 -17.9 -.5 -35.2l82 -154.6q-26.2 -7.2 -50.8 -7.2 -73.7 0 -126.1 52.4T71.4 607.1t52.5 126.2T250 785.7zm785.7 0q73.7 0 126.1 -52.4t52.5 -126.2T1161.8 481t-126.1 -52.4q-33.5 0 -67.5 13.4l97.1 145.1q8.4 12.8 5.6 27.3t-15.1 22.3q-8.4 6.2 -20.1 6.2 -19.5 0 -29.6 -16.2L909 481.6q-51.9 53 -51.9 125.5 0 73.7 52.5 126.2t126.1 52.4z"/></svg>