<svg height="1000" width="1285.714" xmlns="http://www.w3.org/2000/svg"><path d="M1283.958 578.152q6.696 57.474 -12.276 110.763t-55.242 91.233 -88.443 59.148 -109.647 17.298q-89.838 -6.138 -155.961 -69.75t-75.051 -152.892q-6.696 -61.938 15.345 -117.459t66.123 -95.139l-39.618 -59.706q-53.568 44.64 -84.258 108.252t-30.69 136.152q0 15.066 -10.323 25.947t-25.389 10.881h-181.35000000000002q-12.834 91.512 -83.142 152.892t-164.052 61.38q-103.23 0 -176.607 -73.377t-73.377 -176.607 73.377 -176.607 176.607 -73.377q42.408 0 84.816 15.066l13.392 -25.11q-68.634 -61.38 -169.632 -61.38h-35.712q-14.508 0 -25.11 -10.602t-10.602 -25.11 10.602 -25.11 25.11 -10.602h71.424q43.524 0 80.91 7.533t65.007 21.483 39.897 22.041 28.458 20.367h349.86600000000004l-47.43 -71.424h-123.876q-16.74 0 -27.342 -12.555t-7.812 -29.295q2.232 -12.834 12.834 -21.204t23.994 -8.37h141.174q18.414 0 29.574 15.624l39.06 58.59 63.612 -63.612q10.602 -10.602 25.668 -10.602h56.358q14.508 0 25.11 10.602t10.602 25.11v71.424q0 14.508 -10.602 25.11t-25.11 10.602h-99.882l64.17 95.976q73.098 -35.154 153.45 -20.088 79.794 14.508 136.152 75.051t65.844 141.453zm-1033.974 207.576q64.17 0 113.274 -40.455t61.938 -102.393h-175.212q-19.53 0 -30.69 -17.298 -10.044 -17.856 -.558 -35.154l82.026 -154.566q-26.226 -7.254 -50.778 -7.254 -73.656 0 -126.108 52.452t-52.452 126.108 52.452 126.108 126.108 52.452zm785.664 0q73.656 0 126.108 -52.452t52.452 -126.108 -52.452 -126.108 -126.108 -52.452q-33.48 0 -67.518 13.392l97.092 145.08q8.37 12.834 5.58 27.342t-15.066 22.32q-8.37 6.138 -20.088 6.138 -19.53 0 -29.574 -16.182l-97.092 -145.08q-51.894 53.01 -51.894 125.55 0 73.656 52.452 126.108t126.108 52.452z"/></svg>