<svg height="1000" width="1000" xmlns="http://www.w3.org/2000/svg"><path d="M0 500.032q0-14.508 10.602-25.11l142.848-142.848q10.602-10.602 25.11-10.602t25.11 10.602 10.602 25.11l0 71.424l214.272 0l0-214.272l-71.424 0q-14.508 0-25.11-10.602t-10.602-25.11 10.602-25.11l142.848-142.848q10.602-10.602 25.11-10.602t25.11 10.602l142.848 142.848q10.602 10.602 10.602 25.11t-10.602 25.11-25.11 10.602l-71.424 0l0 214.272l214.272 0l0-71.424q0-14.508 10.602-25.11t25.11-10.602 25.11 10.602l142.848 142.848q10.602 10.602 10.602 25.11t-10.602 25.11l-142.848 142.848q-10.602 10.602-25.11 10.602t-25.11-10.602-10.602-25.11l0-71.424l-214.272 0l0 214.272l71.424 0q14.508 0 25.11 10.602t10.602 25.11-10.602 25.11l-142.848 142.848q-10.602 10.602-25.11 10.602t-25.11-10.602l-142.848-142.848q-10.602-10.602-10.602-25.11t10.602-25.11 25.11-10.602l71.424 0l0-214.272l-214.272 0l0 71.424q0 14.508-10.602 25.11t-25.11 10.602-25.11-10.602l-142.848-142.848q-10.602-10.602-10.602-25.11z"/></svg>