<svg height="1000" width="1000" xmlns="http://www.w3.org/2000/svg"><path d="M1000 500q0 14.5 -10.6 25.1L846.5 668q-10.6 10.6 -25.1 10.6T796.3 668t-10.6 -25.1v-71.5H571.4v214.3h71.5q14.5 0 25.1 10.6t10.6 25.1T668 846.5L525.1 989.4Q514.5 1000 500 1000t-25.1 -10.6L332 846.5q-10.6 -10.6 -10.6 -25.1T332 796.3t25.1 -10.6h71.5V571.4H214.3v71.5q0 14.5 -10.6 25.1t-25.1 10.6T153.5 668L10.6 525.1Q0 514.5 0 500t10.6 -25.1L153.5 332q10.6 -10.6 25.1 -10.6t25.1 10.6 10.6 25.1v71.5h214.3V214.3h-71.5q-14.5 0 -25.1 -10.6t-10.6 -25.1T332 153.5L474.9 10.6Q485.5 0 500 0t25.1 10.6L668 153.5q10.6 10.6 10.6 25.1T668 203.7t-25.1 10.6h-71.5v214.3h214.3v-71.5q0 -14.5 10.6 -25.1t25.1 -10.6 25.1 10.6l142.9 142.9q10.6 10.6 10.6 25.1z"/></svg>