<svg height="1000px" width="750px" xmlns="http://www.w3.org/2000/svg">
  <g>
    <path d="M0 500c0 -8 2.667 -14.667 8 -20c0 0 121 -120 121 -120c8 -8.667 15 -11.667 21 -9c6 2.667 9 9.667 9 21c0 0 0 80 0 80c0 0 169 0 169 0c0 0 0 -168 0 -168c0 0 -81 0 -81 0c-11.333 0 -18.333 -3 -21 -9c-2.667 -6 0.333 -13 9 -21c0 0 120 -121 120 -121c5.333 -5.333 12 -8 20 -8c8 0 14.667 2.667 20 8c0 0 121 121 121 121c8 8 10.833 15 8.5 21c-2.333 6 -9.5 9 -21.5 9c0 0 -81 0 -81 0c0 0 0 168 0 168c0 0 169 0 169 0c0 0 0 -80 0 -80c0 -11.333 3 -18.333 9 -21c6 -2.667 13 0.333 21 9c0 0 121 120 121 120c5.333 5.333 8 12 8 20c0 8 -2.667 14.667 -8 20c0 0 -121 120 -121 120c-8 8.667 -15 11.833 -21 9.5c-6 -2.333 -9 -9.5 -9 -21.5c0 0 0 -83 0 -83c0 0 -169 0 -169 0c0 0 0 171 0 171c0 0 81 0 81 0c12 0 19.167 3 21.5 9c2.333 6 -0.5 13 -8.5 21c0 0 -121 121 -121 121c-5.333 5.333 -12 8 -20 8c-8 0 -14.667 -2.667 -20 -8c0 0 -120 -121 -120 -121c-8.667 -8 -11.667 -15 -9 -21c2.667 -6 9.667 -9 21 -9c0 0 81 0 81 0c0 0 0 -171 0 -171c0 0 -169 0 -169 0c0 0 0 83 0 83c0 11.333 -3 18.333 -9 21c-6 2.667 -13 -0.333 -21 -9c0 0 -121 -120 -121 -120c-5.333 -5.333 -8 -12 -8 -20c0 0 0 0 0 0" />
  </g>
</svg>