<svg height="1000px" width="779.78515625px" xmlns="http://www.w3.org/2000/svg">
  <g>
    <path d="M0 500c0 -8.138 2.93 -15.137 8.789 -20.996c0 0 125 -125 125 -125c8.789 -8.789 16.195 -11.963 22.217 -9.522c6.022 2.442 9.033 10.01 9.033 22.705c0 0 0 83.008 0 83.008c0 0 175.781 0 175.781 0c0 0 0 -175.293 0 -175.293c0 0 -83.984 0 -83.984 0c-12.044 0 -19.369 -3.011 -21.973 -9.033c-2.604 -6.022 0.489 -13.265 9.278 -21.728c0 0 125 -125 125 -125c5.859 -5.86 12.858 -8.952 20.996 -9.278c8.138 0 15.136 3.093 20.996 9.278c0 0 125 125 125 125c8.789 8.789 11.963 16.113 9.521 21.972c-2.441 5.86 -10.009 8.789 -22.705 8.789c0 0 -83.984 0 -83.984 0c0 0 0 175.293 0 175.293c0 0 176.269 0 176.269 0c0 0 0 -83.007 0 -83.007c0 -12.696 2.93 -20.264 8.789 -22.706c5.86 -2.441 13.184 0.733 21.973 9.522c0 0 125 125 125 125c5.859 5.859 8.789 12.858 8.789 20.996c0 8.138 -2.93 15.137 -8.789 20.996c0 0 -125 125 -125 125c-8.789 8.789 -16.113 11.963 -21.973 9.522c-5.859 -2.442 -8.789 -10.01 -8.789 -22.705c0 0 0 -85.938 0 -85.938c0 0 -176.269 0 -176.269 0c0 0 0 178.223 0 178.223c0 0 83.984 0 83.984 0c12.696 0 20.345 3.011 22.949 9.033c2.605 6.022 -0.651 13.265 -9.765 21.728c0 0 -125 125 -125 125c-5.86 5.86 -12.858 8.952 -20.996 9.278c-8.138 0 -15.137 -3.093 -20.996 -9.278c0 0 -125 -125 -125 -125c-8.789 -8.789 -12.045 -16.113 -9.766 -21.972c2.279 -5.86 9.766 -8.789 22.461 -8.789c0 0 83.984 0 83.984 0c0 0 0 -178.223 0 -178.223c0 0 -175.781 0 -175.781 0c0 0 0 85.938 0 85.938c0 12.695 -3.011 20.263 -9.033 22.705c-6.022 2.441 -13.428 -0.733 -22.217 -9.522c0 0 -125 -125 -125 -125c-5.859 -5.859 -8.789 -12.858 -8.789 -20.996c0 0 0 0 0 0" />
  </g>
</svg>