<svg height="1000" width="1000" xmlns="http://www.w3.org/2000/svg"><path d="M0 500q0-14.5 10.6-25.1l142.8-142.8q10.6-10.6 25.1-10.6t25.1 10.6 10.6 25.1v71.4h214.3v-214.3h-71.4q-14.5 0-25.1-10.6t-10.6-25.1 10.6-25.1l142.8-142.8q10.6-10.6 25.1-10.6t25.1 10.6l142.8 142.8q10.6 10.6 10.6 25.1t-10.6 25.1-25.1 10.6h-71.4v214.3h214.3v-71.4q0-14.5 10.6-25.1t25.1-10.6 25.1 10.6l142.8 142.8q10.6 10.6 10.6 25.1t-10.6 25.1l-142.8 142.8q-10.6 10.6-25.1 10.6t-25.1-10.6-10.6-25.1v-71.4h-214.3v214.3h71.4q14.5 0 25.1 10.6t10.6 25.1-10.6 25.1l-142.8 142.8q-10.6 10.6-25.1 10.6t-25.1-10.6l-142.8-142.8q-10.6-10.6-10.6-25.1t10.6-25.1 25.1-10.6h71.4v-214.3h-214.3v71.4q0 14.5-10.6 25.1t-25.1 10.6-25.1-10.6l-142.8-142.8q-10.6-10.6-10.6-25.1z"/></svg>