<svg height="1000px" width="688px" xmlns="http://www.w3.org/2000/svg">
  <g>
    <path d="M0 763c0 -16 3.667 -30.833 11 -44.5c7.333 -13.667 17.333 -25.5 30 -35.5c12.667 -10 27.667 -18 45 -24c17.333 -6 35.667 -9 55 -9c8.667 0 16.833 0.667 24.5 2c7.667 1.333 15.167 3 22.5 5c0 0 0 -388 0 -388c0 0 500 -144 500 -144c0 0 0 525 0 525c0 15.333 -3.667 29.833 -11 43.5c-7.333 13.667 -17.333 25.667 -30 36c-12.667 10.333 -27.667 18.5 -45 24.5c-17.333 6 -35.667 9 -55 9c-19.333 0 -37.5 -3 -54.5 -9c-17 -6 -31.833 -14.167 -44.5 -24.5c-12.667 -10.333 -22.667 -22.333 -30 -36c-7.333 -13.667 -11 -28.167 -11 -43.5c0 -15.333 3.667 -29.833 11 -43.5c7.333 -13.667 17.333 -25.5 30 -35.5c12.667 -10 27.5 -18 44.5 -24c17 -6 35.167 -9 54.5 -9c16 0 31.667 2 47 6c0 0 0 -248 0 -248c0 0 -312 90 -312 90c0 0 0 377 0 377c0 15.333 -3.667 29.833 -11 43.5c-7.333 13.667 -17.333 25.5 -30 35.5c-12.667 10 -27.667 18 -45 24c-17.333 6 -35.667 9 -55 9c-19.333 0 -37.667 -3 -55 -9c-17.333 -6 -32.333 -14 -45 -24c-12.667 -10 -22.667 -21.833 -30 -35.5c-7.333 -13.667 -11 -28.167 -11 -43.5c0 0 0 0 0 0" />
  </g>
</svg>