<svg height="1000" width="857.1" xmlns="http://www.w3.org/2000/svg"><path d="M857.1 125v625q0 27.9 -18.9 49.7t-48 33.7 -57.8 17.9 -53.8 5.8 -53.9 -5.8T567 833.4t-48 -33.7T500 750t19 -49.7 48 -33.7 57.7 -17.9 53.9 -5.8q58.6 0 107.1 21.7V365L357.1 497.2v395.7q0 27.9 -18.9 49.6t-48 33.8 -57.8 17.8 -53.8 5.9 -53.9 -5.9T67 976.3 19 942.5 0 892.9t19 -49.7 48 -33.8 57.7 -17.8 53.9 -5.9q58.6 0 107.1 21.8V267.9q0 -17.3 10.6 -31.6t27.4 -19.8L787.9 73.7q6.7 -2.3 15.7 -2.3 22.3 0 37.9 15.7t15.6 37.9z"/></svg>