<svg height="1000px" width="726.5625px" xmlns="http://www.w3.org/2000/svg">
  <g>
    <path d="M0 770.99609375c0 -18.555 4.476 -35.319 13.428 -50.293c8.952 -14.974 20.752 -27.506 35.4 -37.598c14.649 -10.091 30.68 -17.822 48.096 -23.193c17.415 -5.371 34.749 -8.057 52.002 -8.057c8.138 0 16.357 0.651 24.658 1.953c8.301 1.303 16.52 3.093 24.658 5.372c0 0 0 -380.371 0 -380.371c0 -8.79 2.604 -16.602 7.813 -23.438c5.208 -6.836 12.207 -11.556 20.996 -14.16c7.487 -1.953 23.681 -6.673 48.584 -14.16c24.902 -7.487 53.873 -16.032 86.914 -25.635c33.04 -9.603 68.034 -19.775 104.98 -30.518c36.947 -10.742 71.289 -20.589 103.028 -29.541c31.738 -8.951 58.431 -16.438 80.078 -22.461c21.647 -6.022 33.773 -9.033 36.377 -9.033c11.393 0 20.914 3.825 28.564 11.475c7.65 7.65 11.475 17.171 11.475 28.564c0 0 0 501.953 0 501.953c0 19.206 -4.476 36.215 -13.428 51.026c-8.952 14.811 -20.833 27.181 -35.644 37.109c-14.812 9.929 -31.006 17.578 -48.584 22.949c-17.579 5.371 -34.668 8.057 -51.27 8.057c-16.602 0 -33.773 -2.686 -51.514 -8.057c-17.741 -5.371 -33.772 -13.02 -48.095 -22.949c-14.323 -9.928 -25.961 -22.217 -34.912 -36.865c-8.952 -14.649 -13.428 -31.738 -13.428 -51.27c0 -18.554 4.476 -35.319 13.428 -50.293c8.951 -14.974 20.589 -27.506 34.912 -37.597c14.323 -10.091 30.354 -17.741 48.095 -22.949c17.741 -5.209 34.912 -7.813 51.514 -7.813c8.789 0 17.334 0.651 25.635 1.953c8.301 1.302 16.357 2.93 24.17 4.883c0 0 0 -262.207 0 -262.207c0 0 -331.055 95.215 -331.055 95.215c0 0 0 397.949 0 397.949c0 19.206 -4.476 36.214 -13.428 51.025c-8.952 14.812 -20.589 27.181 -34.912 37.11c-14.323 9.928 -30.355 17.578 -48.096 22.949c-17.74 5.371 -34.912 8.057 -51.513 8.057c-17.253 0 -34.587 -2.686 -52.002 -8.057c-17.416 -5.371 -33.447 -13.021 -48.096 -22.949c-14.648 -9.929 -26.448 -22.298 -35.4 -37.11c-8.952 -14.811 -13.428 -31.819 -13.428 -51.025c0 0 0 0 0 0" />
  </g>
</svg>