<svg height="1000px" width="857.1428571428571px" xmlns="http://www.w3.org/2000/svg">
  <g>
    <path d="M857.1428571428571 125c0 0 0 625 0 625c0 18.601 -6.324 35.156 -18.973 49.665c-12.649 14.509 -28.646 25.763 -47.991 33.761c-19.346 7.999 -38.598 13.951 -57.757 17.857c-19.159 3.907 -37.109 5.86 -53.85 5.86c-16.742 0 -34.692 -1.953 -53.851 -5.86c-19.159 -3.906 -38.411 -9.858 -57.757 -17.857c-19.345 -7.998 -35.342 -19.252 -47.991 -33.761c-12.648 -14.509 -18.973 -31.064 -18.973 -49.665c0 -18.601 6.325 -35.156 18.973 -49.665c12.649 -14.509 28.646 -25.856 47.991 -34.04c38.319 -15.625 76.265 -23.438 113.84 -23.438c37.574 0 72.544 7.255 104.91 21.764c0 0 0 -299.666 0 -299.666c0 0 -428.571 132.255 -428.571 132.255c0 0 0 395.647 0 395.647c0 18.601 -6.324 35.156 -18.973 49.665c-12.649 14.509 -28.646 25.763 -47.991 33.761c-19.346 7.999 -38.598 13.951 -57.757 17.858c-19.159 3.906 -37.109 5.859 -53.85 5.859c-16.742 0 -34.692 -1.953 -53.851 -5.859c-19.159 -3.907 -38.411 -9.859 -57.757 -17.858c-19.345 -7.998 -35.342 -19.252 -47.991 -33.761c-12.648 -14.509 -18.973 -31.064 -18.973 -49.665c0 -18.601 6.325 -35.156 18.973 -49.665c12.649 -14.509 28.646 -25.856 47.991 -34.04c38.319 -15.625 76.265 -23.438 113.84 -23.438c37.574 0 72.544 7.255 104.91 21.764c0 0 0 -539.621 0 -539.621c0 -11.533 3.535 -22.042 10.603 -31.529c7.069 -9.486 16.183 -16.09 27.344 -19.81c0 0 464.286 -142.857 464.286 -142.857c4.464 -1.488 11.904 -2.232 22.321 -2.232c10.417 0 20.833 5.208 31.25 15.625c10.417 10.416 15.625 23.065 15.625 37.946c0 0 0 0 0 0" />
  </g>
</svg>