<svg height="1000" width="785.714" xmlns="http://www.w3.org/2000/svg"><path d="M151.218 527.374l-56.358 56.358q-23.436 -57.474 -23.436 -119.412v-71.424q0 -14.508 10.602 -25.11t25.11 -10.602 25.11 10.602 10.602 25.11v71.424q0 29.574 8.37 63.054zm621.612 -335.916l-201.438 201.438v71.424q0 73.656 -52.452 126.108t-126.108 52.452q-30.69 0 -60.822 -10.602l-53.568 53.568q54.126 28.458 114.39 28.458 103.23 0 176.607 -73.377t73.377 -176.607v-71.424q0 -14.508 10.602 -25.11t25.11 -10.602 25.11 10.602 10.602 25.11v71.424q0 123.318 -82.305 214.551t-203.391 104.625v73.656h142.848q14.508 0 25.11 10.602t10.602 25.11 -10.602 25.11 -25.11 10.602h-357.12q-14.508 0 -25.11 -10.602t-10.602 -25.11 10.602 -25.11 25.11 -10.602h142.848v-73.656q-69.75 -7.254 -131.13 -45.198l-141.732 141.732q-5.58 5.58 -12.834 5.58t-12.834 -5.58l-45.756 -45.756q-5.58 -5.58 -5.58 -12.834t5.58 -12.834l688.572 -688.572q5.58 -5.58 12.834 -5.58t12.834 5.58l45.756 45.756q5.58 5.58 5.58 12.834t-5.58 12.834zm-212.04 -73.656l-346.518 346.518v-285.696q0 -73.656 52.452 -126.108t126.108 -52.452q56.916 0 102.951 32.922t65.007 84.816z"/></svg>