<svg height="1000" width="785.7" xmlns="http://www.w3.org/2000/svg"><path d="M151.2 527.3l-56.3 56.4Q71.4 526.2 71.4 464.3v-71.4q0 -14.6 10.6 -25.2t25.1 -10.6 25.2 10.6 10.6 25.2v71.4q0 29.6 8.3 63zM772.9 191.4L571.4 392.9v71.4q0 73.6 -52.4 126.1t-126.1 52.5q-30.7 0 -60.9 -10.6l-53.5 53.5q54.1 28.5 114.4 28.5 103.2 0 176.6 -73.4t73.4 -176.6v-71.4q0 -14.6 10.6 -25.2t25.1 -10.6 25.1 10.6 10.6 25.2v71.4q0 123.3 -82.3 214.6T428.6 783.5v73.6h142.8q14.5 0 25.1 10.6t10.6 25.2T596.5 918t-25.1 10.6H214.3q-14.5 0 -25.1 -10.6t-10.6 -25.1 10.6 -25.2 25.1 -10.6h142.8v-73.6Q287.4 776.2 226 738.3L84.3 880q-5.6 5.6 -12.9 5.6T58.6 880L12.8 834.3Q7.3 828.7 7.3 821.4t5.5 -12.8L701.5 120q5.5 -5.6 12.8 -5.6t12.8 5.6l45.8 45.7q5.6 5.6 5.6 12.9t-5.6 12.8zM560.8 117.7L214.3 464.3V178.6q0 -73.7 52.4 -126.1T392.9 0q56.9 0 102.9 32.9t65 84.8z"/></svg>