<svg height="1000" width="714.286" xmlns="http://www.w3.org/2000/svg"><path d="M642.816 321.472q0 123.318 -82.305 214.551t-203.391 104.625v341.496q0 7.812 -5.022 12.834t-12.834 5.022h-35.712q-7.812 0 -12.834 -5.022t-5.022 -12.834v-341.496q-121.086 -13.392 -203.391 -104.625t-82.305 -214.551q0 -65.286 25.389 -124.713t68.634 -102.672 102.672 -68.634 124.713 -25.389 124.713 25.389 102.672 68.634 68.634 102.672 25.389 124.713zm-321.408 249.984q103.23 0 176.607 -73.377t73.377 -176.607 -73.377 -176.607 -176.607 -73.377 -176.607 73.377 -73.377 176.607 73.377 176.607 176.607 73.377z"/></svg>