<svg height="1000" width="1142.857" xmlns="http://www.w3.org/2000/svg"><path d="M571.392 285.76h-214.272v214.272h214.272v-214.272zm71.424 357.12v71.424h-357.12v-71.424h357.12zm0 -428.544v357.12h-357.12v-357.12h357.12zm357.12 428.544v71.424h-285.696v-71.424h285.696zm0 -142.848v71.424h-285.696v-71.424h285.696zm0 -142.848v71.424h-285.696v-71.424h285.696zm0 -142.848v71.424h-285.696v-71.424h285.696zm-857.088 535.68v-535.68h-71.424v535.68q0 14.508 10.602 25.11t25.11 10.602 25.11 -10.602 10.602 -25.11zm928.512 0v-607.104h-857.088v607.104q0 18.414 -6.138 35.712h827.514q14.508 0 25.11 -10.602t10.602 -25.11zm71.424 -678.528v678.528q0 44.64 -31.248 75.888t-75.888 31.248h-928.512q-44.64 0 -75.888 -31.248t-31.248 -75.888v-607.104h142.848v-71.424h999.936z"/></svg>