<svg height="1000" width="1142.9" xmlns="http://www.w3.org/2000/svg"><path d="M571.4 285.7H357.1V500h214.3V285.7zm71.5 357.2v71.4H285.7v-71.4h357.2zm0 -428.6v357.1H285.7V214.3h357.2zM1000 642.9v71.4H714.3v-71.4H1000zm0 -142.9v71.4H714.3V500H1000zm0 -142.9v71.5H714.3v-71.5H1000zm0 -142.8v71.4H714.3v-71.4H1000zM142.9 750V214.3H71.4V750q0 14.5 10.6 25.1t25.1 10.6 25.2 -10.6T142.9 750zm928.5 0V142.9H214.3V750q0 18.4 -6.2 35.7h827.6q14.5 0 25.1 -10.6t10.6 -25.1zm71.5 -678.6V750q0 44.6 -31.3 75.9t-75.9 31.2H107.1q-44.6 0 -75.8 -31.2T0 750V142.9h142.9V71.4h1000z"/></svg>