<svg height="1000" width="1285.7" xmlns="http://www.w3.org/2000/svg"><path d="M1285.7 428.6h-71.4v357.1h71.4V1000h-214.3v-71.4h-500v71.4H357.1V785.7h71.5v-71.4H214.3v71.4H0V571.4h71.4V214.3H0V0h214.3v71.4h500V0h214.3v214.3h-71.5v71.4h214.3v-71.4h214.3v214.3zM1142.9 285.7v71.4h71.4v-71.4h-71.4zM785.7 71.4v71.5h71.4V71.4h-71.4zm-714.3 0v71.5h71.5V71.4H71.4zm71.5 642.9v-71.4H71.4v71.4h71.5zm714.2 -71.4h-71.4v71.4h71.4v-71.4zm-642.8 0h500v-71.5h71.4V214.3h-71.4v-71.4h-500v71.4h-71.4v357.1h71.4v71.5zM500 928.6v-71.5h-71.4v71.5H500zm714.3 0v-71.5h-71.4v71.5h71.4zm-71.4 -142.9V428.6h-71.5v-71.5H857.1v214.3h71.5v214.3H714.3v-71.4H500v71.4h71.4v71.4h500v-71.4h71.5z"/></svg>