<svg height="1000" width="1142.9" xmlns="http://www.w3.org/2000/svg"><path d="M1142.9 214.3h-71.5v571.4h71.5V1000H928.6v-71.4H214.3v71.4H0V785.7h71.4V214.3H0V0h214.3v71.4h714.3V0h214.3v214.3zM1000 71.4v71.5h71.4V71.4H1000zm-928.6 0v71.5h71.5V71.4H71.4zm71.5 857.2v-71.5H71.4v71.5h71.5zm785.7 -71.5v-71.4h71.4V214.3h-71.4v-71.4H214.3v71.4h-71.4v571.4h71.4v71.4h714.3zm142.8 71.5v-71.5H1000v71.5h71.4zM714.3 357.1h214.3v428.6h-500V642.9H214.3V214.3h500v142.8zM285.7 571.4h357.2V285.7H285.7v285.7zm571.4 142.9V428.6H714.3v214.3H500v71.4h357.1z"/></svg>