<svg height="1000" width="857.1" xmlns="http://www.w3.org/2000/svg"><path d="M517.3 323.7q0 36.8 -25.9 62.7t-62.8 26 -62.8 -26 -26 -62.7 26 -62.8 62.8 -26 62.8 26 25.9 62.8zm119.4 202.5q-5.6 -11.1 -15.6 -17.8t-26.5 -5.3 -33.8 15.3q-5.6 4.5 -16.2 11.2t-45.2 17.8 -70.8 11.2 -69.2 -10.1 -48 -20l-15.1 -10.1Q279 504.5 262.6 503.1t-26.6 5.3 -15.6 17.8q-12.3 25.1 -1.1 41.6t48.6 41q46.3 29.6 126.1 37.4l-28.5 29q-79.2 79.3 -106.6 106.1 -12.2 12.2 -12.2 29.2t12.2 29.3l5.1 5.1q12.2 12.2 29.2 12.2t29.3 -12.2L429.1 738.3q63.6 64.2 106.6 106.6 12.3 12.2 29.3 12.2t29.3 -12.2l5 -5.1q12.3 -12.2 12.3 -29.3t-12.3 -29.2L492.7 675.2l-29 -29q78.7 -7.8 125.6 -37.4 37.4 -24.5 48.5 -41t-1.1 -41.6zM609.4 323.7q0 -74.8 -53 -127.8t-127.8 -53 -127.8 53 -53 127.8 53 127.8 127.8 53 127.8 -53 53 -127.8zm247.7 -91.6v535.8q0 66.4 -47.1 113.5t-113.6 47.2H160.7q-66.4 0 -113.5 -47.2T0 767.9V232.1Q0 165.7 47.2 118.6T160.7 71.4h535.7q66.4 0 113.6 47.2t47.1 113.5z"/></svg>