<svg height="1000" width="714.3" xmlns="http://www.w3.org/2000/svg"><path d="M357.1 506.1q-104.9 0 -179.1 -74.2T103.8 253.3q0 -104.9 74.2 -179.1T357.1 0t179.2 74.2 74.2 179.1q0 104.4 -74.2 178.6t-179.2 74.2zm0 -377.8q-51.3 0 -87.8 36.6t-36.6 88.4q0 51.4 36.6 87.9t87.8 36.6T445 341.2t36.6 -87.9q0 -51.8 -36.6 -88.4t-87.9 -36.6zM649 536.8q7.3 15.1 8.4 27.7t-2.5 22.6 -14.8 21.4 -23.7 20.7T582 652.3q-64.1 40.8 -175.7 52.5L447 745l149 149q16.7 17.3 16.7 41.3T596 976l-6.7 7.3Q572 1000 548 1000t-41.3 -16.7q-37.4 -38 -149 -149.6l-149 149.6q-17.3 16.7 -41.3 16.7t-40.7 -16.7L120 976q-17.3 -16.7 -17.3 -40.7T120 894L269 745l40.2 -40.2Q195.9 693.1 132.3 652.3 110.5 638.4 97.9 629.2T74.2 608.5 59.4 587.1t-2.5 -22.6 8.4 -27.7q5.6 -11.1 15.6 -19.5T104.4 505t31.2 1.1 36.3 19.6q2.8 2.2 8.3 6.1t24 13.7 38.5 17 51.4 13.4 63 6.1q50.8 0 97.1 -14.2t67 -28.2l21.2 -13.9q18.4 -14.5 36.3 -19.6t31.2 -1.1 23.5 12.3 15.6 19.5z"/></svg>