<svg height="1000px" width="713px" xmlns="http://www.w3.org/2000/svg">
  <g>
    <path d="M0 519c0 -59.333 13.667 -114.833 41 -166.5c27.333 -51.667 65.667 -94.5 115 -128.5c4 -2 8.667 -3 14 -3c4.667 0.667 8.667 3.333 12 8c0 0 42 62 42 62c6.667 10.667 5 19.333 -5 26c-34 23.333 -60.167 52.667 -78.5 88c-18.333 35.333 -27.5 73.333 -27.5 114c0 33.333 6.333 64.833 19 94.5c12.667 29.667 30 55.5 52 77.5c22 22 47.833 39.333 77.5 52c29.667 12.667 61.167 19 94.5 19c34 0 65.833 -6.333 95.5 -19c29.667 -12.667 55.5 -30 77.5 -52c22 -22 39.333 -47.833 52 -77.5c12.667 -29.667 19 -61.167 19 -94.5c0 -40.667 -9.333 -78.667 -28 -114c-18.667 -35.333 -45 -64.667 -79 -88c-4 -2 -6.667 -6 -8 -12c-0.667 -4 0.333 -8.667 3 -14c0 0 43 -62 43 -62c3.333 -4 7.333 -6.5 12 -7.5c4.667 -1 9.333 -0.167 14 2.5c48.667 34 86.833 76.833 114.5 128.5c27.667 51.667 41.5 107.167 41.5 166.5c0 49.333 -9.333 95.5 -28 138.5c-18.667 43 -44.167 80.667 -76.5 113c-32.333 32.333 -70.167 57.833 -113.5 76.5c-43.333 18.667 -89.667 28 -139 28c-49.333 0 -95.5 -9.333 -138.5 -28c-43 -18.667 -80.667 -44.167 -113 -76.5c-32.333 -32.333 -57.833 -70 -76.5 -113c-18.667 -43 -28 -89.167 -28 -138.5c0 0 0 0 0 0m300 -38c0 0 0 -337 0 -337c0 -12.667 6.333 -19 19 -19c0 0 75 0 75 0c5.333 0 9.833 1.833 13.5 5.5c3.667 3.667 5.5 8.167 5.5 13.5c0 0 0 337 0 337c0 5.333 -1.833 9.833 -5.5 13.5c-3.667 3.667 -8.167 5.5 -13.5 5.5c0 0 -75 0 -75 0c-12.667 0 -19 -6.333 -19 -19c0 0 0 0 0 0" />
  </g>
</svg>