<svg height="1000px" width="726.5625px" xmlns="http://www.w3.org/2000/svg">
  <g>
    <path d="M0 519.287109375c0 -60.547 13.997 -117.35 41.992 -170.41c27.995 -53.06 67.057 -96.517 117.188 -130.371c3.906 -3.255 8.463 -4.232 13.672 -2.93c5.859 1.302 9.928 3.906 12.207 7.813c0 0 43.945 63.964 43.945 63.964c3.255 3.907 4.232 8.383 2.93 13.428c-1.302 5.046 -3.907 9.196 -7.813 12.451c-34.505 23.438 -61.279 53.142 -80.322 89.112c-19.043 35.97 -28.565 74.951 -28.565 116.943c0 33.854 6.429 65.999 19.287 96.436c12.859 30.436 30.518 56.803 52.979 79.101c22.461 22.298 48.828 39.958 79.102 52.979c30.273 13.02 62.337 19.531 96.191 19.531c33.854 0 65.999 -6.511 96.436 -19.531c30.436 -13.021 57.047 -30.681 79.833 -52.979c22.787 -22.298 40.609 -48.584 53.467 -78.857c12.858 -30.274 19.287 -62.5 19.287 -96.68c0 -41.992 -9.602 -80.973 -28.808 -116.943c-19.206 -35.97 -45.899 -65.674 -80.078 -89.112c-4.558 -3.255 -7.162 -7.161 -7.813 -11.718c-1.302 -5.209 -0.325 -9.929 2.93 -14.161c0 0 42.969 -63.964 42.969 -63.964c3.255 -3.907 7.405 -6.348 12.451 -7.325c5.045 -0.976 9.847 -0.162 14.404 2.442c50.13 33.854 89.193 77.311 117.188 130.371c27.994 53.06 41.992 109.863 41.992 170.41c0 50.13 -9.522 97.168 -28.565 141.113c-19.043 43.946 -45.084 82.438 -78.125 115.479c-33.04 33.04 -71.696 59.082 -115.966 78.125c-44.271 19.043 -91.472 28.564 -141.602 28.564c-50.13 0 -97.168 -9.521 -141.113 -28.564c-43.946 -19.043 -82.357 -45.085 -115.235 -78.125c-32.877 -33.041 -58.838 -71.533 -77.881 -115.479c-19.043 -43.945 -28.564 -90.983 -28.564 -141.113c0 0 0 0 0 0m306.152 -39.063c0 0 0 -343.75 0 -343.75c0 -5.208 1.791 -9.684 5.371 -13.427c3.581 -3.744 8.138 -5.615 13.672 -5.615c0 0 76.66 0 76.66 0c5.209 0 9.685 1.871 13.428 5.615c3.744 3.743 5.615 8.219 5.615 13.427c0 0 0 343.75 0 343.75c0 5.209 -1.79 9.685 -5.371 13.428c-3.58 3.744 -8.138 5.615 -13.672 5.615c0 0 -76.66 0 -76.66 0c-5.208 0 -9.684 -1.79 -13.427 -5.371c-3.744 -3.58 -5.616 -8.138 -5.616 -13.672c0 0 0 0 0 0" />
  </g>
</svg>