<svg height="1000" width="857.1" xmlns="http://www.w3.org/2000/svg"><path d="M857.1 500q0 87.1 -34 166.3T731.6 803t-136.7 91.5 -166.3 34.1T262.3 894.5 125.6 803 34 666.3 0 500Q0 398.4 44.9 308.6T171.3 157.9q24 -17.8 53.3 -13.9t46.6 27.9q17.9 23.4 13.7 52.7t-27.6 47.2q-54.7 41.3 -84.6 101T142.9 500q0 58 22.6 110.8t61.1 91.2 91.2 61.1 110.8 22.6 110.7 -22.6T630.6 702t61.1 -91.2T714.3 500q0 -67.5 -29.9 -127.2t-84.5 -101q-23.4 -17.9 -27.6 -47.2t13.6 -52.7q17.3 -24 46.9 -27.9t53 13.9q81.5 60.9 126.4 150.7T857.1 500zM500 71.4v357.2q0 29 -21.2 50.2T428.6 500t-50.3 -21.2 -21.2 -50.2V71.4q0 -29 21.2 -50.2T428.6 0t50.2 21.2T500 71.4z"/></svg>