<svg height="1000px" width="857.1428571428571px" xmlns="http://www.w3.org/2000/svg">
  <g>
    <path d="M0 499.99999999999994c0 -67.708 14.974 -131.51 44.922 -191.406c29.948 -59.896 72.079 -110.119 126.395 -150.67c15.997 -11.905 33.761 -16.555 53.292 -13.951c19.532 2.604 35.064 11.905 46.596 27.902c11.905 15.625 16.462 33.203 13.672 52.734c-2.79 19.532 -11.998 35.25 -27.623 47.154c-36.458 27.53 -64.639 61.198 -84.542 101.005c-19.903 39.806 -29.855 82.217 -29.855 127.232c0 38.69 7.534 75.614 22.601 110.77c15.067 35.156 35.435 65.569 61.104 91.239c25.67 25.67 56.083 46.038 91.239 61.105c35.157 15.067 72.08 22.6 110.77 22.6c38.691 0 75.614 -7.533 110.771 -22.6c35.156 -15.067 65.569 -35.435 91.238 -61.105c25.67 -25.67 46.038 -56.083 61.105 -91.239c15.067 -35.156 22.601 -72.08 22.601 -110.77c0 -45.015 -9.952 -87.426 -29.855 -127.232c-19.903 -39.807 -48.084 -73.475 -84.543 -101.005c-15.625 -11.904 -24.832 -27.622 -27.622 -47.154c-2.791 -19.531 1.767 -37.109 13.672 -52.734c11.532 -15.997 27.157 -25.298 46.875 -27.902c19.717 -2.604 37.388 2.046 53.013 13.951c54.315 40.551 96.447 90.774 126.395 150.67c29.948 59.896 44.922 123.698 44.922 191.406c0 58.036 -11.347 113.467 -34.04 166.295c-22.694 52.827 -53.2 98.4 -91.518 136.718c-38.319 38.319 -83.892 68.825 -136.719 91.518c-52.827 22.694 -108.259 34.04 -166.295 34.04c-58.035 0 -113.467 -11.346 -166.294 -34.04c-52.828 -22.693 -98.401 -53.199 -136.719 -91.518c-38.318 -38.318 -68.824 -83.891 -91.518 -136.718c-22.693 -52.828 -34.04 -108.259 -34.04 -166.295c0 0 0 0 0 0m357.143 -71.429c0 0 0 -357.142 0 -357.142c0 -19.346 7.068 -36.087 21.205 -50.224c14.137 -14.137 30.878 -21.205 50.223 -21.205c19.346 0 36.087 7.068 50.224 21.205c14.137 14.137 21.205 30.878 21.205 50.224c0 0 0 357.142 0 357.142c0 19.346 -7.068 36.087 -21.205 50.224c-14.137 14.137 -30.878 21.205 -50.224 21.205c-19.345 0 -36.086 -7.068 -50.223 -21.205c-14.137 -14.137 -21.205 -30.878 -21.205 -50.224c0 0 0 0 0 0" />
  </g>
</svg>