<svg height="1000" width="857.1" xmlns="http://www.w3.org/2000/svg"><path d="M0 500q0-101.6 44.9-191.4t126.4-150.7q24-17.9 53.3-14t46.6 27.9q17.9 23.4 13.7 52.7t-27.6 47.2q-54.7 41.3-84.5 101t-29.9 127.2q0 58 22.6 110.8t61.1 91.2 91.2 61.1 110.8 22.6 110.8-22.6 91.2-61.1 61.1-91.2 22.6-110.8q0-67.5-29.9-127.2t-84.5-101q-23.4-17.9-27.6-47.2t13.7-52.7q17.3-24 46.9-27.9t53 14q81.5 60.8 126.4 150.7t44.9 191.4q0 87-34 166.3t-91.5 136.7-136.7 91.5-166.3 34-166.3-34-136.7-91.5-91.5-136.7-34-166.3zm357.1-71.4v-357.1q0-29 21.2-50.2t50.2-21.2 50.2 21.2 21.2 50.2v357.1q0 29-21.2 50.2t-50.2 21.2-50.2-21.2-21.2-50.2z"/></svg>