<svg height="1000px" width="857.1428571428571px" xmlns="http://www.w3.org/2000/svg">
  <g>
    <path d="M500 71.42857142857133c0 0 0 357.143 0 357.143c0 19.345 -7.068 36.086 -21.205 50.223c-14.137 14.137 -30.878 21.205 -50.224 21.205c-19.345 0 -36.086 -7.068 -50.223 -21.205c-14.137 -14.137 -21.205 -30.878 -21.205 -50.223c0 0 0 -357.143 0 -357.143c0 -19.345 7.068 -36.086 21.205 -50.223c14.137 -14.137 30.878 -21.206 50.223 -21.206c19.346 0 36.087 7.069 50.224 21.206c14.137 14.137 21.205 30.878 21.205 50.223c0 0 0 0 0 0m312.221 237.165c29.948 59.896 44.922 121.28 44.922 184.152c0 62.872 -11.347 120.722 -34.04 173.549c-22.694 52.827 -53.2 98.4 -91.518 136.719c-38.319 38.318 -83.892 68.824 -136.719 91.518c-52.827 22.693 -108.259 34.04 -166.295 34.04c-58.035 0 -113.467 -11.347 -166.294 -34.04c-52.828 -22.694 -98.401 -53.2 -136.719 -91.518c-38.318 -38.319 -68.824 -83.892 -91.518 -136.719c-22.693 -52.827 -34.04 -110.677 -34.04 -173.549c0 -62.872 14.974 -124.256 44.922 -184.152c29.948 -59.896 72.079 -110.119 126.395 -150.669c15.997 -11.905 33.761 -16.556 53.292 -13.951c19.532 2.604 35.157 11.811 46.875 27.622c11.719 15.811 16.183 33.483 13.393 53.014c-2.79 19.531 -11.998 35.249 -27.623 47.154c-36.458 27.53 -64.639 61.198 -84.542 101.004c-19.903 39.807 -29.855 80.636 -29.855 122.489c0 41.853 7.534 80.357 22.601 115.514c15.067 35.156 35.435 65.569 61.104 91.238c25.67 25.67 56.083 46.038 91.239 61.105c35.157 15.067 72.08 22.601 110.77 22.601c38.691 0 75.614 -7.534 110.771 -22.601c35.156 -15.067 65.569 -35.435 91.238 -61.105c25.67 -25.669 46.038 -56.082 61.105 -91.238c15.067 -35.157 22.601 -73.661 22.601 -115.514c0 -41.853 -9.952 -82.682 -29.855 -122.489c-19.903 -39.806 -48.084 -73.474 -84.543 -101.004c-15.625 -11.905 -24.832 -27.623 -27.622 -47.154c-2.791 -19.531 1.674 -37.203 13.392 -53.014c11.719 -15.811 27.437 -25.018 47.154 -27.622c19.718 -2.605 37.389 2.046 53.014 13.951c54.315 40.55 96.447 90.773 126.395 150.669c0 0 0 0 0 0" />
  </g>
</svg>