<svg height="1000" width="857.143" xmlns="http://www.w3.org/2000/svg"><path d="M857.088 500.032q0 87.048 -34.038 166.284t-91.512 136.71 -136.71 91.512 -166.284 34.038 -166.284 -34.038 -136.71 -91.512 -91.512 -136.71 -34.038 -166.284q0 -101.556 44.919 -191.394t126.387 -150.66q23.994 -17.856 53.289 -13.95t46.593 27.9q17.856 23.436 13.671 52.731t-27.621 47.151q-54.684 41.292 -84.537 100.998t-29.853 127.224q0 58.032 22.599 110.763t61.101 91.233 91.233 61.101 110.763 22.599 110.763 -22.599 91.233 -61.101 61.101 -91.233 22.599 -110.763q0 -67.518 -29.853 -127.224t-84.537 -100.998q-23.436 -17.856 -27.621 -47.151t13.671 -52.731q17.298 -23.994 46.872 -27.9t53.01 13.95q81.468 60.822 126.387 150.66t44.919 191.394zm-357.12 -428.544v357.12q0 29.016 -21.204 50.22t-50.22 21.204 -50.22 -21.204 -21.204 -50.22v-357.12q0 -29.016 21.204 -50.22t50.22 -21.204 50.22 21.204 21.204 50.22z"/></svg>