<svg height="1000px" width="857.1428571428571px" xmlns="http://www.w3.org/2000/svg">
  <g>
    <path d="M0 499.99999999999994c0 -77.753 19.159 -149.461 57.478 -215.123c38.318 -65.662 90.308 -117.652 155.971 -155.971c65.662 -38.318 137.369 -57.477 215.122 -57.477c77.753 0 149.461 19.159 215.123 57.477c65.662 38.319 117.653 90.309 155.971 155.971c38.319 65.662 57.478 137.37 57.478 215.123c0 77.753 -19.159 149.461 -57.478 215.123c-38.318 65.662 -90.309 117.652 -155.971 155.971c-65.662 38.318 -137.37 57.477 -215.123 57.477c-77.753 0 -149.46 -19.159 -215.122 -57.477c-65.663 -38.319 -117.653 -90.309 -155.971 -155.971c-38.319 -65.662 -57.478 -137.37 -57.478 -215.123c0 0 0 0 0 0m140.625 10.324c0 10.23 3.348 18.694 10.045 25.39c0 0 202.009 202.009 202.009 202.009c7.068 7.069 15.532 10.603 25.39 10.603c9.859 0 18.322 -3.534 25.391 -10.603c0 0 303.013 -303.013 303.013 -303.013c6.697 -6.697 10.045 -15.16 10.045 -25.391c0 -10.23 -3.348 -18.694 -10.045 -25.39c0 0 -50.781 -50.224 -50.781 -50.224c-7.068 -7.068 -15.439 -10.602 -25.112 -10.602c-9.672 0 -18.043 3.534 -25.111 10.602c0 0 -227.679 227.121 -227.679 227.121c0 0 -126.116 -126.116 -126.116 -126.116c-7.068 -7.069 -15.439 -10.603 -25.112 -10.603c-9.672 0 -18.043 3.534 -25.111 10.603c0 0 -50.781 50.223 -50.781 50.223c-6.697 6.696 -10.045 15.16 -10.045 25.391c0 0 0 0 0 0" />
  </g>
</svg>