<svg height="1000" width="857.143" xmlns="http://www.w3.org/2000/svg"><path d="M716.472 409.636q0 -15.624 -10.044 -25.668l-50.778 -50.22q-10.602 -10.602 -25.11 -10.602t-25.11 10.602l-227.664 227.106 -126.108 -126.108q-10.602 -10.602 -25.11 -10.602t-25.11 10.602l-50.778 50.22q-10.044 10.044 -10.044 25.668 0 15.066 10.044 25.11l201.996 201.996q10.602 10.602 25.11 10.602 15.066 0 25.668 -10.602l302.994 -302.994q10.044 -10.044 10.044 -25.11zm140.616 90.396q0 116.622 -57.474 215.109t-155.961 155.961 -215.109 57.474 -215.109 -57.474 -155.961 -155.961 -57.474 -215.109 57.474 -215.109 155.961 -155.961 215.109 -57.474 215.109 57.474 155.961 155.961 57.474 215.109z"/></svg>