<svg height="1000" width="857.143" xmlns="http://www.w3.org/2000/svg"><path d="M653.418 453.718l-235.476 235.476q-10.602 10.602 -25.11 10.602t-25.11 -10.602l-164.052 -164.052q-10.602 -10.602 -10.602 -25.11t10.602 -25.11l56.916 -56.916q10.602 -10.602 25.11 -10.602t25.11 10.602l82.026 82.026 153.45 -153.45q10.602 -10.602 25.11 -10.602t25.11 10.602l56.916 56.916q10.602 10.602 10.602 25.11t-10.602 25.11zm78.678 46.314q0 -82.584 -40.734 -152.334t-110.484 -110.484 -152.334 -40.734 -152.334 40.734 -110.484 110.484 -40.734 152.334 40.734 152.334 110.484 110.484 152.334 40.734 152.334 -40.734 110.484 -110.484 40.734 -152.334zm124.992 0q0 116.622 -57.474 215.109t-155.961 155.961 -215.109 57.474 -215.109 -57.474 -155.961 -155.961 -57.474 -215.109 57.474 -215.109 155.961 -155.961 215.109 -57.474 215.109 57.474 155.961 155.961 57.474 215.109z"/></svg>