<svg height="1000" width="857.1" xmlns="http://www.w3.org/2000/svg"><path d="M653.5 453.7L418 689.2q-10.6 10.6 -25.1 10.6t-25.2 -10.6l-164 -164.1Q193.1 514.5 193.1 500t10.6 -25.1L260.6 418q10.6 -10.6 25.1 -10.6t25.1 10.6l82.1 82L546.3 346.5q10.6 -10.6 25.1 -10.6t25.1 10.6l57 57q10.6 10.6 10.6 25.1t-10.6 25.1zm78.6 46.3q0 -82.6 -40.7 -152.3T580.9 237.2 428.6 196.4t-152.4 40.8T165.7 347.7 125 500t40.7 152.3 110.5 110.5 152.4 40.8 152.3 -40.8T691.4 652.3 732.1 500zm125 0q0 116.6 -57.4 215.1t-156 156 -215.1 57.5T213.4 871.1 57.5 715.1 0 500 57.5 284.9t155.9 -156T428.6 71.4t215.1 57.5 156 156T857.1 500z"/></svg>