<svg height="1000px" width="750px" xmlns="http://www.w3.org/2000/svg">
  <g>
    <path d="M0 500c0 -52 9.833 -100.667 29.5 -146c19.667 -45.333 46.5 -85 80.5 -119c34 -34 73.667 -60.833 119 -80.5c45.333 -19.667 94 -29.5 146 -29.5c52 0 100.667 9.833 146 29.5c45.333 19.667 85 46.5 119 80.5c34 34 60.833 73.667 80.5 119c19.667 45.333 29.5 94 29.5 146c0 52 -9.833 100.667 -29.5 146c-19.667 45.333 -46.5 85 -80.5 119c-34 34 -73.667 60.833 -119 80.5c-45.333 19.667 -94 29.5 -146 29.5c-52 0 -100.667 -9.833 -146 -29.5c-45.333 -19.667 -85 -46.5 -119 -80.5c-34 -34 -60.833 -73.667 -80.5 -119c-19.667 -45.333 -29.5 -94 -29.5 -146c0 0 0 0 0 0m112 23.5c0 6.333 2.333 11.833 7 16.5c0 0 150 150 150 150c4.667 4 10.667 7.667 18 11c7.333 3.333 14.333 5 21 5c0 0 25 0 25 0c6.667 0 13.667 -1.667 21 -5c7.333 -3.333 13.333 -7 18 -11c0 0 259 -259 259 -259c4.667 -4.667 7 -10.167 7 -16.5c0 -6.333 -2.333 -11.5 -7 -15.5c0 0 -50 -50 -50 -50c-4 -4.667 -9.167 -7 -15.5 -7c-6.333 0 -11.833 2.333 -16.5 7c0 0 -212 213 -212 213c-4.667 4.667 -10.167 7 -16.5 7c-6.333 0 -11.5 -2.333 -15.5 -7c0 0 -104 -104 -104 -104c-4.667 -4.667 -10.167 -7 -16.5 -7c-6.333 0 -11.5 2.333 -15.5 7c0 0 -50 49 -50 49c-4.667 4.667 -7 10.167 -7 16.5c0 0 0 0 0 0" />
  </g>
</svg>