<svg height="1000px" width="779.78515625px" xmlns="http://www.w3.org/2000/svg">
  <g>
    <path d="M0 500c0 -54.036 10.173 -104.736 30.518 -152.1c20.345 -47.363 48.177 -88.704 83.496 -124.023c35.319 -35.319 76.66 -63.151 124.023 -83.496c47.363 -20.345 98.063 -30.518 152.1 -30.518c54.036 0 104.655 10.173 151.855 30.518c47.201 20.345 88.542 48.177 124.024 83.496c35.481 35.319 63.313 76.66 83.496 124.023c20.182 47.364 30.273 98.064 30.273 152.1c0 54.036 -10.091 104.736 -30.273 152.1c-20.183 47.363 -48.015 88.704 -83.496 124.023c-35.482 35.319 -76.823 63.151 -124.024 83.496c-47.2 20.345 -97.819 30.518 -151.855 30.518c-54.037 0 -104.737 -10.173 -152.1 -30.518c-47.363 -20.345 -88.704 -48.177 -124.023 -83.496c-35.319 -35.319 -63.151 -76.66 -83.496 -124.023c-20.345 -47.364 -30.518 -98.064 -30.518 -152.1c0 0 0 0 0 0m117.188 24.414c0 6.51 2.278 12.044 6.835 16.602c0 0 155.762 155.761 155.762 155.761c4.557 4.558 10.742 8.545 18.555 11.963c7.812 3.418 14.974 5.127 21.484 5.127c0 0 27.344 0 27.344 0c6.51 0 13.59 -1.627 21.24 -4.883c7.65 -3.255 13.916 -7.324 18.799 -12.207c0 0 268.555 -268.554 268.555 -268.554c4.557 -4.558 6.917 -10.091 7.08 -16.602c0.163 -6.51 -2.197 -12.044 -7.08 -16.601c0 0 -50.782 -52.247 -50.782 -52.247c-5.208 -4.557 -10.986 -6.835 -17.334 -6.835c-6.347 0 -11.962 2.278 -16.845 6.835c0 0 -220.703 221.192 -220.703 221.192c-4.558 4.557 -10.01 6.836 -16.358 6.836c-6.347 0 -11.963 -2.279 -16.845 -6.836c0 0 -107.911 -107.91 -107.911 -107.91c-4.557 -4.558 -10.009 -6.836 -16.357 -6.836c-6.348 0 -12.288 2.278 -17.822 6.836c0 0 -50.782 51.758 -50.782 51.758c-4.557 4.557 -6.835 10.091 -6.835 16.601c0 0 0 0 0 0" />
  </g>
</svg>