<svg height="1000" width="857.143" xmlns="http://www.w3.org/2000/svg"><path d="M382.23 724.906l342.612 -342.612q10.602 -10.602 10.602 -25.11t-10.602 -25.11l-56.916 -56.916q-10.602 -10.602 -25.11 -10.602t-25.11 10.602l-260.586 260.586 -117.738 -117.738q-10.602 -10.602 -25.11 -10.602t-25.11 10.602l-56.916 56.916q-10.602 10.602 -10.602 25.11t10.602 25.11l199.764 199.764q10.602 10.602 25.11 10.602t25.11 -10.602zm474.858 -492.714v535.68q0 66.402 -47.151 113.553t-113.553 47.151h-535.68q-66.402 0 -113.553 -47.151t-47.151 -113.553v-535.68q0 -66.402 47.151 -113.553t113.553 -47.151h535.68q66.402 0 113.553 47.151t47.151 113.553z"/></svg>