<svg height="1000px" width="899px" xmlns="http://www.w3.org/2000/svg">
  <g>
    <path d="M0 498.5c0 -11 3.667 -20.167 11 -27.5c0 0 85 -85 85 -85c7.333 -7.333 16.5 -11 27.5 -11c11 0 20.167 3.667 27.5 11c0 0 178 178 178 178c7.333 7.333 16.5 11 27.5 11c11 0 20.167 -3.667 27.5 -11c0 0 364 -364 364 -364c7.333 -7.333 16.5 -11 27.5 -11c11 0 20.167 3.667 27.5 11c0 0 85 85 85 85c7.333 7.333 11 16.5 11 27.5c0 11 -3.667 20.167 -11 27.5c0 0 -444 444 -444 444c-7.333 7.333 -17.5 13.667 -30.5 19c-13 5.333 -24.833 8 -35.5 8c0 0 -43 0 -43 0c-11.333 0 -23.5 -2.667 -36.5 -8c-13 -5.333 -23.167 -11.667 -30.5 -19c0 0 -257 -258 -257 -258c-7.333 -7.333 -11 -16.5 -11 -27.5c0 0 0 0 0 0" />
  </g>
</svg>