<svg height="1000px" width="899.169921875px" xmlns="http://www.w3.org/2000/svg">
  <g>
    <path d="M0 498.291015625c0 -10.905 3.743 -19.938 11.23 -27.1c0 0 84.961 -85.449 84.961 -85.449c7.487 -7.487 16.683 -11.149 27.588 -10.986c10.905 0.163 19.938 3.825 27.1 10.986c0 0 178.223 178.223 178.223 178.223c7.487 7.487 16.683 11.23 27.587 11.23c10.905 0 19.939 -3.743 27.1 -11.23c0 0 364.258 -363.77 364.258 -363.77c7.487 -7.487 16.683 -11.23 27.588 -11.23c10.905 0 20.101 3.743 27.588 11.23c0 0 84.961 84.961 84.961 84.961c7.487 7.487 11.149 16.683 10.986 27.588c-0.163 10.905 -3.825 19.938 -10.986 27.1c0 0 -444.336 444.336 -444.336 444.336c-7.487 7.487 -17.66 13.834 -30.518 19.043c-12.858 5.208 -24.658 7.812 -35.4 7.812c0 0 -42.969 0 -42.969 0c-11.393 0 -23.6 -2.685 -36.621 -8.057c-13.021 -5.371 -23.112 -11.637 -30.274 -18.798c0 0 -256.836 -258.301 -256.836 -258.301c-7.487 -7.487 -11.23 -16.683 -11.23 -27.588c0 0 0 0 0 0" />
  </g>
</svg>