<svg height="1000px" width="1000px" xmlns="http://www.w3.org/2000/svg">
  <g>
    <path d="M67.52232142857143 517.8571428571429c0 -14.881 5.208 -27.53 15.625 -37.946c0 0 75.893 -75.893 75.893 -75.893c10.417 -10.417 23.065 -15.625 37.946 -15.625c14.881 0 27.53 5.208 37.947 15.625c0 0 164.062 164.62 164.062 164.62c0 0 366.072 -366.629 366.072 -366.629c10.416 -10.417 23.065 -15.625 37.946 -15.625c14.881 0 27.53 5.208 37.947 15.625c0 0 75.892 75.893 75.892 75.893c10.417 10.416 15.625 23.065 15.625 37.946c0 14.881 -5.208 27.53 -15.625 37.946c0 0 -479.91 479.911 -479.91 479.911c-10.417 10.417 -23.066 15.625 -37.947 15.625c-14.881 0 -27.53 -5.208 -37.946 -15.625c0 0 -277.902 -277.902 -277.902 -277.902c-10.417 -10.416 -15.625 -23.065 -15.625 -37.946c0 0 0 0 0 0" />
  </g>
</svg>