<svg height="1000" width="1285.7" xmlns="http://www.w3.org/2000/svg"><path d="M850.4 871.1q0 37.9 -26.7 64.7t-64.8 26.8 -65 -26.8 -27 -64.7 27 -65 65 -27.1 64.8 27.1 26.7 65zm-417.9 0q0 37.9 -27.1 64.7t-65 26.8 -64.7 -26.8 -26.8 -64.7 26.8 -65T340.4 779t65 27.1 27.1 65zM0 37.4q31.8 33.5 61.7 58.3t67.5 45.8 75.9 35.1 92.6 25.4 111.6 17.6 139.5 10.3 169.7 5.3 207.8 1.4q77.6 0 136.5 2.8t101 9.2T1233 264t39.6 22 13.4 28.7 -10.9 35.7 -31.5 42.7 -50 50.8 -64.7 58.3 -77.6 66.4Q948.1 656.3 891.7 706.5q16.2 -28.5 42.7 -60.9t52.5 -58.8 52.7 -55 46.3 -51.1 30.2 -44.9 7.2 -39 -25.4 -31 -65 -22.9T919.1 329.8 749.4 327q-93.7 1.1 -175.2 -3.3T431.4 310.8 317.2 287.9t-89 -28.7 -68.3 -34.9 -51.1 -37.1T70.9 147.3 42.7 108.5 20.4 70.6 0 37.4z"/></svg>