<svg height="1000" width="1000" xmlns="http://www.w3.org/2000/svg"><path d="M833.1 127.2Q741.1 65.8 632.8 65.8q-86.5 0 -163.5 40.8T335.4 218.2q-41.9 51.9 -66.7 121.6t-27.1 148.5v23.4q2.3 78.7 27.1 148.5t66.7 121.6q56.9 70.9 133.9 111.6t163.5 40.8q108.3 0 200.3 -61.4Q765.6 933 680 966.5T500 1000q-16.2 0 -24 -.6Q378.3 995 290.2 953.7T138.4 846 37.4 689.2 0 500Q0 398.4 39.6 305.8T146.2 146.2 305.8 39.6 500 0h1.7q93.7 .6 178.8 33.8t152.6 93.4zM1000 500q0 107.1 -43 202.3T838.2 867.7q-58.1 35.2 -123.9 35.2Q637.8 902.9 572 856q85.9 -31.2 141.4 -130T769 500q0 -126.7 -55.3 -225.4T572.5 144Q639 97.7 714.3 97.7q66.4 0 126.1 36.2 75.3 69.8 117.5 164.6T1000 500z"/></svg>