<svg height="1000" width="1281.3" xmlns="http://www.w3.org/2000/svg"><path d="M266.7 934.7q-4.4 8.9 -15 19.3T231 968.2q-13.9 5 -28.7 -2t-15.9 -17.5q-.6 -12.3 22.3 -30.7t38 -21.2q12.8 -2.3 18.9 12t1.1 25.9zm748.4 0q3.9 8.9 14.5 19.3t21.2 14.2q13.9 5 28.7 -2t15.4 -17.5q1.1 -12.3 -22.1 -30.7t-38.2 -21.2q-12.3 -2.3 -18.4 12t-1.1 25.9zm26.8 -60.8q7.2 15.1 31.5 33.2t43.2 23.1q25.1 7.3 45.8 -2.5t20.6 -28.1q0 -25.7 -37.6 -56.1t-64.5 -33.2q-22.3 -2.8 -35.4 20.9t-3.6 42.7zm-803.1 0q-7.2 15.1 -31.2 33.2t-43 23.1q-25.1 7.3 -45.7 -2.5T98.2 899.6q0 -25.7 37.7 -56.1t64.4 -33.2q22.4 -2.8 35.2 20.9t3.3 42.7zM646.2 246.7h.6q-22.9 0 -42.4 8.3 15 4.5 24.5 17t9.5 27.7q0 19.5 -15.1 33.4t-36.2 14q-29.1 0 -44.7 -24 -2.8 12.8 -2.8 23.4 0 41.3 31.3 70.6t75.3 29.3q44.6 0 75.9 -29.3t31.2 -70.6 -31.2 -70.6 -75.9 -29.2zM815.8 125Q760.6 64.2 692.8 51.6t-137 24.9q15.1 -33.5 46 -53.9t65.9 -22 67.8 9.4T791 51.6t24.8 73.4zm418.6 691.4q4.4 6.1 -6.2 23.4 3.9 12.9 3.9 22.4 .6 31.2 -24.8 62.7t-61.1 51.1 -65.8 20.7q-26.8 1.1 -51.4 -12t-36.8 -36.6q-383.4 14 -702.6 0 -12.8 22.9 -37.1 36.3t-51.6 12.3q-48 -1.7 -100.2 -45T49.1 862.2q1.1 -12.3 3.9 -22.4Q42.4 822.5 46.9 816.4q3.3 -5.6 17.3 -.6Q72 803.6 87.1 787.4q-4 -16.2 1.1 -21.2 6.1 -5.6 21.7 2.2 16.2 -11.1 33 -19 0 -16.1 7.2 -20.6 12.8 -6.7 28.5 8.9 19.5 -2.8 34 1.1 10.1 2.3 21.2 10.6v-40.7q-6.1 0 -10 -1.1Q194.2 702 169.6 682.8T139 633.9q-5.1 -21.2 0 -45.2 8.3 -34.6 51.8 -53 1.2 -9.5 10.7 -19.8t20 -13.1T240 507t10.6 17h7.2q25.7 2.8 33.5 12.8 1.7 1.7 2.8 3.9 5.6 -.5 17 -1.9t17 -2q-8.3 -6.1 -16.7 -9.5 -12.9 -22.3 -50.8 -24 0 -3.3 .6 -5.5Q226.6 496.7 195 487.4t-47.1 -26.5Q130 440.8 124.2 409.6t-1.4 -62.5q8.9 -70.3 50.2 -99.9 12.8 -8.9 29 -2.5t17.9 22.6q0 .6 .8 7.8t1.4 11.7 1.7 11.2 3 10.6 4.8 5.6q15.1 7.8 42.4 6.7 26.8 -25.7 54.7 -41.3 -22.3 -2.3 -90.4 7.8l26.2 -25.7q34 -32.3 91 -61.9 80.9 -40.8 157.3 -48 -11.1 -4.5 -22.8 -8.7t-26.3 -7.8T440 129.5t-26.5 -6.2 -24 -5.6q332 -70.3 504.5 77.6 54.7 46.9 88.1 123.9 47.5 5.6 67.6 -5h.5q2.8 -1.7 4.8 -5.6t3 -10.6 1.7 -10.9 1.7 -12l.5 -7.8q1.7 -15.6 17.9 -22.3t29 2.8q40.8 29 50.8 99.3 3.9 31.8 -2 63.1t-23.7 50.7q-15.6 17.9 -46.6 27.1t-64.4 10.3v5.6q-39.6 1.1 -53 24 -7.8 2.8 -17.3 9.5 6.1 .5 17.8 1.9t16.8 2q.5 -2.2 2.8 -4.5 8.9 -10 33.4 -12.8h7.3q2.8 -10 10.6 -16.7t18.4 -4.5 20.1 12.8 10.6 20.1q44.1 17.9 51.9 53 5 22.3 .6 45.2 -6.7 29.6 -31.3 49.1t-54.1 24.6q-5.6 1.1 -9.5 1.1 0 27.3 -.6 40.7 11.2 -8.3 21.2 -10.6 14.5 -3.9 34.1 -1.1 15.6 -15.6 28.4 -8.9 7.9 5 7.9 20.6 18.4 9 32.9 19 15 -7.2 21.2 -2.2 5.6 5.6 1.1 21.2 15.6 16.7 22.9 28.4 12.8 -4.4 17.3 .6zM1080.9 285.2q0 16.1 -5 30.1 45.8 17.8 62.5 73.7 2.2 -20.7 -5.3 -55t-23.2 -50.5q-11.1 -10.6 -20.1 -9.5t-8.9 11.2zm-43.5 55.8q19.5 23.4 26.5 60.5t-.3 69.5q37.4 -7.3 54.1 -25.1 7.3 -7.8 10.1 -15.7 -1.7 -35.7 -17.3 -63.8t-44.1 -37.2q-8.4 8.4 -29 11.8zm-20.7 2.2q-16.7 0 -24.5 -.6 23.4 64.2 29.6 133.4 11.7 0 24 -1.7 8.9 -37.9 .5 -75.3t-29.6 -55.8zM144 389q16.7 -55.9 62.5 -73.7 -5 -14 -5 -30.1 0 -10.1 -9.3 -11.2t-19.8 9.5q-15.6 16.2 -23.1 50.5t-5.3 55zm20.1 56.9q16.1 17.3 54.1 25.1 -7.3 -32.4 -.3 -69.5T244.4 341q-20.6 -3.4 -29 -11.8 -28.5 9 -43.8 36.9T154 430.2q5 9.5 10.1 15.7zm98.7 30.1q7.8 -69.2 40.8 -131.1 -10.6 2.2 -30.7 10l-25.1 10.6v-.5q-25.7 49.6 -11.2 109.3 14 1.7 26.2 1.7zm537.4 21.8q4.5 21.2 9.2 60.5t6.4 50q1.7 10 5.3 12t13.2 -2.6q22.3 -11.1 34.6 -47.7t12.8 -70q-13.4 -1.1 -81.5 -2.2zM642.9 140.1q-64.8 0 -111.1 46t-46.3 110.8q0 65.3 46.3 111.3t111.1 46 111 -46 46.3 -111.3q0 -64.8 -46.3 -110.8t-111 -46zm127.2 356.6q-59.2 -1.2 -117.8 0v-.6q-.5 15.1 1.4 48t7.6 36.8q16.2 7.8 52.1 8.1t53.3 -5.9q5.1 -1.6 6.2 -21.7t-.3 -38.8 -2.5 -25.9zm-149.6 111q4.5 -2.2 5.3 -26.8t-.2 -49.1 -2.3 -35.1v-.6q-118.3 1.7 -119.4 1.7 -2.2 11.1 -3.9 34.6t0 46.3 7.8 25.7q19 8.3 56.4 8.9t56.3 -5.6zM400.7 502.2q-9 33 2.5 66.2t43.2 47.1q8.4 4.5 13.4 2.8t6.7 -11.7q1.7 -8.9 4.5 -50.2t5.6 -57.5q-38.5 1.1 -75.9 3.3zm-70.9 70.3q1.7 12.9 -19 20.1 73.7 78.7 151.5 134t170.5 85.9q96 -27.3 173.3 -81.5T969.9 591.5q-18.4 -7.2 -16.8 -19l1.7 -5v-.5 .5q-9.5 -1.1 -27.9 -3t-26.8 -2.6q-14.5 50.3 -45.7 73.7 -28.5 21.2 -45.8 -.6 -2.8 -3.3 -5 -7.8 -3.9 -7.2 -9.5 -34.6 -1.1 2.8 -2.8 5.1t-4.2 3.9 -4.5 3 -5.3 2.3l-5.5 1.4t-6.7 1.1l-6.7 .8t-7.6 .6 -7.5 .2q-59.1 5.1 -91 -6.1 -2.2 9.5 -5.5 14.8t-11.8 8.4 -12.8 3.9 -20.1 1.9q-1.1 0 -1.7 .3t-1.6 .3h-1.7Q497.2 644 483.8 612.2q-1.1 35.1 -31.2 30.1 -26.3 -4.5 -50.8 -30.1 -6.7 -7.3 -11.2 -14.5 -9.5 -16.2 -14.5 -36.3 -32.3 3.3 -48.5 5.6 .5 1.1 2.2 5.5zM282.9 923q1.7 -7.8 1.7 -16.7 -9.5 -39.7 -28.5 -72.6t-40.7 -39.1q-22.9 -6.7 -56.6 8.1t-58.4 44.7 -21.7 60q19.5 29.5 55.8 51.9t66.4 23.4q28.5 1.1 52.4 -15.6T282.9 923zm1.7 -95.4q12.8 35.1 15.1 66.4 108.8 -63.1 218.7 -97.1 -54.7 -29 -100.7 -67T317.5 637.8q-3.3 2.3 -16.2 7.3 0 1.1 -.5 2.8t-.6 2.2q17.3 10.1 12.3 20.7 -6.7 12.8 -31.3 18.9 -5.5 7.3 -16.1 13.4h-.6q-1.1 46.3 .6 83.7 10.6 19 19.5 40.8zm38.5 92.6q296.9 11.7 639 0Q820.3 838.2 723.2 810.8q-42.4 19.6 -87 31.8 -4.5 1.7 -9 0 -36.2 -11.7 -72 -27.3 -116 33.5 -232.1 104.9h-.6v.6q.6 0 .6 -.6zm660.7 -25.7q2.2 -30.1 15.6 -66.9 7.9 -21.2 18.5 -39.7l-.6 .6q1.7 -43 1.7 -85.4 -8.4 -4.4 -16.8 -13.9 -23.4 -5 -31.2 -18.4 -5 -11.2 12.3 -21.2 -1.2 -2.3 -1.2 -5.1 -8.9 -2.2 -15.6 -6.7Q852.7 743.9 752.8 796.3q110.5 32.9 231 98.2zm218.8 12.9q2.8 -30.2 -21.8 -60t-58 -44.7 -57 -8.1q-21.2 6.2 -40.4 39.4t-28.7 72.3q0 8.9 1.6 16.7 5.6 27.3 29.6 44.1t52.5 15.6q30.1 -1.1 66.4 -23.4t55.8 -51.9z"/></svg>