<svg height="1000" width="785.714" xmlns="http://www.w3.org/2000/svg"><path d="M782.316 615.538q-17.856 44.64 -42.408 77.004t-50.778 49.383 -55.242 25.947 -56.637 8.091 -53.847 -4.743 -48.267 -12.276 -38.781 -15.345 -25.668 -12.555l-9.486 -5.58q-63.054 127.224 -161.541 200.601t-214.551 73.935q-10.602 0 -17.856 -7.254t-7.254 -17.856 7.254 -17.577 17.856 -6.975q96.534 -.558 179.955 -59.985t140.337 -164.331q-20.088 7.812 -40.176 12.834t-46.314 7.254 -50.778 -1.395 -51.894 -15.903 -51.336 -32.922 -47.151 -55.8 -41.571 -81.468q63.612 -26.226 119.412 -31.806t93.465 4.185 69.471 31.527 49.383 42.966 31.527 45.756q29.574 -73.098 44.082 -162.378 -3.906 .558 -10.044 1.395t-25.947 1.395 -38.781 -.279 -45.477 -5.58 -49.383 -12.834 -46.872 -23.715 -41.85 -36.27 -30.411 -52.731 -15.903 -71.145q39.06 -15.624 74.493 -20.367t62.775 .558 51.336 16.74 41.013 27.9 31.248 34.038 23.436 35.154 15.345 31.248 8.928 22.041l2.232 8.928q6.696 -68.076 6.696 -108.81 -4.464 -3.348 -11.997 -8.928t-27.342 -24.831 -35.433 -39.897 -30.132 -51.894 -18.414 -62.775 6.696 -70.866 39.06 -77.283q40.734 13.95 71.145 34.317t47.151 42.687 26.784 47.43 11.439 49.662 -.279 47.709 -7.254 42.687 -10.602 34.596 -9.486 23.436l-3.906 8.37q.558 2.79 .558 28.179t-.558 39.897q1.674 -3.906 5.58 -10.323t17.019 -23.994 28.179 -32.364 39.618 -30.969 51.057 -24.831 62.496 -8.091 73.935 13.392q-1.116 43.524 -11.997 78.957t-27.9 58.311 -38.781 39.897 -45.477 25.389 -47.151 13.392 -44.64 5.301 -37.665 -.558 -25.947 -2.511l-9.486 -1.674q-12.834 82.026 -40.734 157.914 3.348 -3.906 10.044 -10.323t27.621 -22.878 43.245 -29.295 55.521 -23.436 65.565 -11.16 71.982 13.113 76.446 43.245z"/></svg>