<svg height="1000" width="785.7" xmlns="http://www.w3.org/2000/svg"><path d="M782.4 615.5q-17.9 44.7 -42.4 77t-50.8 49.4 -55.3 26 -56.6 8 -53.9 -4.7 -48.2 -12.3 -38.8 -15.3T410.7 731l-9.5 -5.6q-63 127.3 -161.5 200.7T25.1 1000q-10.6 0 -17.8 -7.3T0 974.9t7.3 -17.6 17.8 -7q96.6 -.5 180 -60T345.4 726q-20.1 7.8 -40.2 12.8t-46.3 7.3 -50.8 -1.4 -51.9 -15.9 -51.3 -32.9T57.8 640.1 16.2 558.6q63.6 -26.2 119.4 -31.8t93.5 4.2 69.4 31.5 49.4 43 31.6 45.7q29.5 -73.1 44 -162.4 -3.9 .6 -10 1.4t-25.9 1.4 -38.8 -.2 -45.5 -5.6 -49.4 -12.9T207 449.2t-41.8 -36.3 -30.4 -52.7 -15.9 -71.1q39 -15.7 74.5 -20.4t62.7 .6 51.4 16.7 41 27.9 31.2 34 23.5 35.2 15.3 31.2 9 22.1l2.2 8.9q6.7 -68.1 6.7 -108.8 -4.5 -3.4 -12 -8.9T397 302.7t-35.4 -39.9 -30.1 -51.9 -18.4 -62.7 6.7 -70.9T358.8 0q40.8 14 71.2 34.3T477.1 77t26.8 47.4 11.4 49.7 -.2 47.7 -7.3 42.7 -10.6 34.6 -9.5 23.4l-3.9 8.4q.6 2.8 .6 28.2t-.6 39.9q1.7 -3.9 5.6 -10.3t17 -24 28.2 -32.4 39.6 -31 51.1 -24.8 62.5 -8.1 73.9 13.4q-1.1 43.5 -12 79t-27.9 58.3T683 459t-45.4 25.4 -47.2 13.4 -44.6 5.3 -37.7 -.6 -26 -2.5l-9.4 -1.7q-12.9 82.1 -40.8 157.9 3.4 -3.9 10.1 -10.3T469.6 623t43.2 -29.3 55.6 -23.4 65.5 -11.1 72 13.1 76.5 43.2z"/></svg>