<svg height="1000" width="1000" xmlns="http://www.w3.org/2000/svg"><path d="M0 573.688q-1.674 -21.762 17.856 -32.922l928.512 -535.68q19.53 -11.718 37.944 1.116 18.414 13.392 15.066 35.712l-142.848 857.088q-2.79 16.182 -17.856 25.11 -7.812 4.464 -17.298 4.464 -6.138 0 -13.392 -2.79l-294.066 -119.97 -166.284 182.466q-10.044 11.718 -26.226 11.718 -7.812 0 -12.834 -2.232 -10.602 -3.906 -16.74 -13.113t-6.138 -20.367v-252.216l-263.376 -107.694q-20.646 -7.812 -22.32 -30.69zm116.622 -7.812l187.488 76.446 481.554 -356.562 -266.724 444.726 274.536 112.158 123.318 -738.234z"/></svg>