<svg height="1000" width="1000" xmlns="http://www.w3.org/2000/svg"><path d="M984.312 6.202q18.414 13.392 15.066 35.712l-142.848 857.088q-2.79 16.182 -17.856 25.11 -7.812 4.464 -17.298 4.464 -6.138 0 -13.392 -2.79l-252.774 -103.23 -135.036 164.61q-10.044 12.834 -27.342 12.834 -7.254 0 -12.276 -2.232 -10.602 -3.906 -17.019 -13.113t-6.417 -20.367v-194.742l482.112 -590.922 -596.502 516.15 -220.41 -90.396q-20.646 -7.812 -22.32 -30.69 -1.116 -22.32 17.856 -32.922l928.512 -535.68q8.37 -5.022 17.856 -5.022 11.16 0 20.088 6.138z"/></svg>