<svg height="1000" width="714.286" xmlns="http://www.w3.org/2000/svg"><path d="M713.124 105.526v40.734q0 16.182 -10.323 34.038t-23.715 17.856q-27.9 0 -30.132 .558 -14.508 3.348 -17.856 17.298 -1.674 6.138 -1.674 35.712v642.816q0 13.95 -10.044 23.994t-23.994 10.044h-60.264q-13.95 0 -23.994 -10.044t-10.044 -23.994v-679.644h-79.794v679.644q0 13.95 -9.765 23.994t-24.273 10.044h-60.264q-14.508 0 -24.273 -10.044t-9.765 -23.994v-276.768q-82.026 -6.696 -136.71 -32.922 -70.308 -32.364 -107.136 -99.882 -35.712 -65.286 -35.712 -144.522 0 -92.628 49.104 -159.588 49.104 -65.844 116.622 -88.722 61.938 -20.646 232.686 -20.646h267.282q13.95 0 23.994 10.044t10.044 23.994z"/></svg>