<svg height="1000" width="1000" xmlns="http://www.w3.org/2000/svg"><path d="M428.544 928.576h499.968v-357.12h-232.128q-22.32 0 -37.944 -15.624t-15.624 -37.944v-232.128h-214.272v642.816zm142.848 -803.52v-35.712q0 -7.254 -5.301 -12.555t-12.555 -5.301h-392.832q-7.254 0 -12.555 5.301t-5.301 12.555v35.712q0 7.254 5.301 12.555t12.555 5.301h392.832q7.254 0 12.555 -5.301t5.301 -12.555zm142.848 374.976h166.842l-166.842 -166.842v166.842zm285.696 71.424v374.976q0 22.32 -15.624 37.944t-37.944 15.624h-535.68q-22.32 0 -37.944 -15.624t-15.624 -37.944v-89.28h-303.552q-22.32 0 -37.944 -15.624t-15.624 -37.944v-749.952q0 -22.32 15.624 -37.944t37.944 -15.624h607.104q22.32 0 37.944 15.624t15.624 37.944v183.024q11.718 7.254 20.088 15.624l227.664 227.664q15.624 15.624 26.784 42.408t11.16 49.104z"/></svg>