<svg height="1000" width="1000" xmlns="http://www.w3.org/2000/svg"><path d="M0 803.6v-750q0-22.3 15.6-37.9t37.9-15.6h607.1q22.3 0 37.9 15.6t15.6 37.9v183q11.7 7.3 20.1 15.6l227.7 227.7q15.6 15.6 26.8 42.4t11.2 49.1v375q0 22.3-15.6 37.9t-37.9 15.6h-535.7q-22.3 0-37.9-15.6t-15.6-37.9v-89.3h-303.6q-22.3 0-37.9-15.6t-15.6-37.9zm142.8-678.5q0 7.3 5.3 12.6t12.6 5.3h392.8q7.3 0 12.6-5.3t5.3-12.6v-35.7q0-7.3-5.3-12.6t-12.6-5.3h-392.8q-7.3 0-12.6 5.3t-5.3 12.6v35.7zm285.7 803.5h500v-357.1h-232.1q-22.3 0-37.9-15.6t-15.6-37.9v-232.1h-214.3v642.8zm285.7-428.5h166.8l-166.8-166.8v166.8z"/></svg>