<svg height="1000px" width="1000px" xmlns="http://www.w3.org/2000/svg">
  <g>
    <path d="M1000 571.4285714285713c0 0 0 375 0 375c0 14.881 -5.208 27.53 -15.625 37.946c-10.417 10.417 -23.065 15.625 -37.946 15.625c0 0 -535.715 0 -535.715 0c-14.881 0 -27.529 -5.208 -37.946 -15.625c-10.417 -10.416 -15.625 -23.065 -15.625 -37.946c0 0 0 -89.286 0 -89.286c0 0 -303.572 0 -303.572 0c-14.881 0 -27.529 -5.208 -37.946 -15.625c-10.417 -10.416 -15.625 -23.065 -15.625 -37.946c0 0 0 -750 0 -750c0 -14.881 5.208 -27.53 15.625 -37.947c10.417 -10.416 23.065 -15.625 37.946 -15.625c0 0 607.143 0 607.143 0c14.881 0 27.53 5.209 37.947 15.625c10.416 10.417 15.625 23.066 15.625 37.947c0 0 0 183.036 0 183.036c7.812 4.836 14.509 10.044 20.089 15.625c0 0 227.679 227.678 227.679 227.678c10.416 10.417 19.345 24.554 26.785 42.411c7.441 17.857 11.161 34.226 11.161 49.107c0 0 0 0 0 0m-285.714 -71.429c0 0 166.852 0 166.852 0c0 0 -166.852 -166.852 -166.852 -166.852c0 0 0 166.852 0 166.852c0 0 0 0 0 0m-142.857 -375c0 0 0 -35.714 0 -35.714c0 -4.836 -1.768 -9.021 -5.302 -12.556c-3.534 -3.534 -7.719 -5.301 -12.556 -5.301c0 0 -392.857 0 -392.857 0c-4.836 0 -9.021 1.767 -12.556 5.301c-3.534 3.535 -5.301 7.72 -5.301 12.556c0 0 0 35.714 0 35.714c0 4.837 1.767 9.022 5.301 12.556c3.535 3.534 7.72 5.302 12.556 5.302c0 0 392.857 0 392.857 0c4.837 0 9.022 -1.768 12.556 -5.302c3.534 -3.534 5.302 -7.719 5.302 -12.556c0 0 0 0 0 0m-142.858 803.572c0 0 500 0 500 0c0 0 0 -357.143 0 -357.143c0 0 -232.142 0 -232.142 0c-14.881 0 -27.53 -5.208 -37.947 -15.625c-10.417 -10.417 -15.625 -23.065 -15.625 -37.946c0 0 0 -232.143 0 -232.143c0 0 -214.286 0 -214.286 0c0 0 0 642.857 0 642.857c0 0 0 0 0 0" />
  </g>
</svg>