<svg height="1000" width="1000" xmlns="http://www.w3.org/2000/svg"><path d="M0 803.584l0-749.952q0-22.32 15.624-37.944t37.944-15.624l607.104 0q22.32 0 37.944 15.624t15.624 37.944l0 183.024q11.718 7.254 20.088 15.624l227.664 227.664q15.624 15.624 26.784 42.408t11.16 49.104l0 374.976q0 22.32-15.624 37.944t-37.944 15.624l-535.68 0q-22.32 0-37.944-15.624t-15.624-37.944l0-89.28l-303.552 0q-22.32 0-37.944-15.624t-15.624-37.944zm142.848-678.528q0 7.254 5.301 12.555t12.555 5.301l392.832 0q7.254 0 12.555-5.301t5.301-12.555l0-35.712q0-7.254-5.301-12.555t-12.555-5.301l-392.832 0q-7.254 0-12.555 5.301t-5.301 12.555l0 35.712zm285.696 803.52l499.968 0l0-357.12l-232.128 0q-22.32 0-37.944-15.624t-15.624-37.944l0-232.128l-214.272 0l0 642.816zm285.696-428.544l166.842 0l-166.842-166.842l0 166.842z"/></svg>