<svg height="1000" width="1000" xmlns="http://www.w3.org/2000/svg"><path d="M428.6 928.6h500V571.4H696.4q-22.3 0 -37.9 -15.6t-15.6 -37.9V285.7H428.6v642.9zM571.4 125V89.3q0 -7.3 -5.3 -12.6t-12.5 -5.3H160.7q-7.2 0 -12.5 5.3t-5.3 12.6V125q0 7.3 5.3 12.6t12.5 5.3h392.9q7.2 0 12.5 -5.3t5.3 -12.6zm142.9 375h166.8L714.3 333.1V500zm285.7 71.4v375q0 22.4 -15.6 38t-38 15.6H410.7q-22.3 0 -37.9 -15.6t-15.7 -38v-89.3H53.6q-22.4 0 -38 -15.6T0 803.6v-750q0 -22.4 15.6 -38T53.6 0h607.1q22.3 0 38 15.6t15.6 38v183q11.7 7.3 20.1 15.6l227.7 227.7q15.6 15.6 26.7 42.4t11.2 49.1z"/></svg>