<svg height="1000px" width="857.1428571428571px" xmlns="http://www.w3.org/2000/svg">
  <g>
    <path d="M357.14285714285717 107.14285714285711c0 0 0 785.714 0 785.714c0 9.673 -3.534 18.043 -10.603 25.112c-7.068 7.068 -15.439 10.603 -25.111 10.603c0 0 -285.715 0 -285.715 0c-9.672 0 -18.043 -3.535 -25.111 -10.603c-7.069 -7.069 -10.603 -15.439 -10.603 -25.112c0 0 0 -785.714 0 -785.714c0 -9.673 3.534 -18.043 10.603 -25.112c7.068 -7.068 15.439 -10.602 25.111 -10.602c0 0 285.715 0 285.715 0c9.672 0 18.043 3.534 25.111 10.602c7.069 7.069 10.603 15.439 10.603 25.112c0 0 0 0 0 0m500 0c0 0 0 785.714 0 785.714c0 9.673 -3.534 18.043 -10.603 25.112c-7.068 7.068 -15.439 10.603 -25.111 10.603c0 0 -285.715 0 -285.715 0c-9.672 0 -18.043 -3.535 -25.111 -10.603c-7.069 -7.069 -10.603 -15.439 -10.603 -25.112c0 0 0 -785.714 0 -785.714c0 -9.673 3.534 -18.043 10.603 -25.112c7.068 -7.068 15.439 -10.602 25.111 -10.602c0 0 285.715 0 285.715 0c9.672 0 18.043 3.534 25.111 10.602c7.069 7.069 10.603 15.439 10.603 25.112c0 0 0 0 0 0" />
  </g>
</svg>