<svg height="1000px" width="750px" xmlns="http://www.w3.org/2000/svg">
  <g>
    <path d="M0 840.8203125c0 0 0 -681.641 0 -681.641c0 -9.44 3.337 -17.496 10.01 -24.17c6.673 -6.673 14.73 -10.009 24.17 -10.009c0 0 238.769 0 238.769 0c9.44 0 17.497 3.336 24.17 10.009c6.673 6.674 10.01 14.73 10.01 24.17c0 0 0 681.641 0 681.641c0 9.44 -3.337 17.497 -10.01 24.17c-6.673 6.673 -14.73 10.01 -24.17 10.01c0 0 -238.769 0 -238.769 0c-9.44 0 -17.497 -3.337 -24.17 -10.01c-6.673 -6.673 -10.01 -14.73 -10.01 -24.17c0 0 0 0 0 0m442.871 0c0 0 0 -681.641 0 -681.641c0 -9.44 3.337 -17.496 10.01 -24.17c6.673 -6.673 14.73 -10.009 24.17 -10.009c0 0 238.769 0 238.769 0c9.44 0 17.497 3.336 24.17 10.009c6.673 6.674 10.01 14.73 10.01 24.17c0 0 0 681.641 0 681.641c0 9.44 -3.337 17.497 -10.01 24.17c-6.673 6.673 -14.73 10.01 -24.17 10.01c0 0 -238.769 0 -238.769 0c-9.44 0 -17.497 -3.337 -24.17 -10.01c-6.673 -6.673 -10.01 -14.73 -10.01 -24.17c0 0 0 0 0 0" />
  </g>
</svg>