<svg height="1000px" width="750px" xmlns="http://www.w3.org/2000/svg">
  <g>
    <path d="M0 841c0 0 0 -682 0 -682c0 -9.333 3.333 -17.333 10 -24c6.667 -6.667 14.667 -10 24 -10c0 0 239 0 239 0c9.333 0 17.333 3.333 24 10c6.667 6.667 10 14.667 10 24c0 0 0 682 0 682c0 9.333 -3.333 17.333 -10 24c-6.667 6.667 -14.667 10 -24 10c0 0 -239 0 -239 0c-9.333 0 -17.333 -3.333 -24 -10c-6.667 -6.667 -10 -14.667 -10 -24c0 0 0 0 0 0m443 0c0 0 0 -682 0 -682c0 -9.333 3.333 -17.333 10 -24c6.667 -6.667 14.667 -10 24 -10c0 0 239 0 239 0c9.333 0 17.333 3.333 24 10c6.667 6.667 10 14.667 10 24c0 0 0 682 0 682c0 9.333 -3.333 17.333 -10 24c-6.667 6.667 -14.667 10 -24 10c0 0 -239 0 -239 0c-9.333 0 -17.333 -3.333 -24 -10c-6.667 -6.667 -10 -14.667 -10 -24c0 0 0 0 0 0" />
  </g>
</svg>