<svg height="1000" width="857.1" xmlns="http://www.w3.org/2000/svg"><path d="M428.6 71.4q116.6 0 215.1 57.5t156 156T857.1 500t-57.4 215.1 -156 156 -215.1 57.5T213.4 871.1 57.5 715.1 0 500 57.5 284.9t155.9 -156T428.6 71.4zm0 732.2q82.6 0 152.3 -40.8T691.4 652.3 732.1 500 691.4 347.7 580.9 237.2 428.6 196.4t-152.4 40.8T165.7 347.7 125 500t40.7 152.3 110.5 110.5 152.4 40.8zm53.5 -125q-7.8 0 -12.8 -5.1t-5 -12.8V339.3q0 -7.8 5 -12.8t12.8 -5.1h107.2q7.8 0 12.8 5.1t5 12.8v321.4q0 7.8 -5 12.8t-12.8 5.1H482.1zm-214.2 0q-7.9 0 -12.9 -5.1t-5 -12.8V339.3q0 -7.8 5 -12.8t12.9 -5.1H375q7.8 0 12.8 5.1t5.1 12.8v321.4q0 7.8 -5.1 12.8t-12.8 5.1H267.9z"/></svg>