<svg height="1000" width="928.571" xmlns="http://www.w3.org/2000/svg"><path d="M435.24 263.44q0 33.48 -10.602 63.333t-35.154 51.615 -58.59 21.762q-42.408 0 -77.004 -32.085t-51.336 -75.609 -16.74 -84.258q0 -33.48 10.602 -63.333t35.154 -51.615 58.59 -21.762q42.966 0 77.283 32.085t51.057 75.33 16.74 84.537zm-190.836 269.514q0 44.64 -23.436 77.562t-66.402 32.922q-42.408 0 -78.957 -30.969t-56.079 -74.493 -19.53 -84.816q0 -44.64 23.436 -77.841t66.402 -33.201q42.408 0 78.957 30.969t56.079 74.772 19.53 85.095zm219.852 -15.066q65.844 0 142.29 54.405t127.782 132.246 51.336 142.011q0 25.668 -9.486 42.687t-27.063 25.11 -35.991 11.16 -42.408 3.069q-37.944 0 -104.625 -25.11t-101.835 -25.11q-36.828 0 -107.415 24.831t-111.879 24.831q-102.114 0 -102.114 -81.468 0 -47.988 31.248 -106.857t77.841 -107.415 104.625 -81.468 107.694 -32.922zm133.362 -117.738q-34.038 0 -58.59 -21.762t-35.154 -51.615 -10.602 -63.333q0 -41.292 16.74 -84.537t51.057 -75.33 77.283 -32.085q34.038 0 58.59 21.762t35.154 51.615 10.602 63.333q0 40.734 -16.74 84.258t-51.336 75.609 -77.004 32.085zm241.056 -58.032q42.966 0 66.402 33.201t23.436 77.841q0 41.292 -19.53 84.816t-56.079 74.493 -78.957 30.969q-42.966 0 -66.402 -32.922t-23.436 -77.562q0 -41.292 19.53 -85.095t56.079 -74.772 78.957 -30.969z"/></svg>