<svg height="1000" width="928.6" xmlns="http://www.w3.org/2000/svg"><path d="M435.3 263.4q0 33.5 -10.6 63.3t-35.2 51.6 -58.6 21.8q-42.4 0 -77 -32.1t-51.3 -75.6 -16.8 -84.3q0 -33.4 10.6 -63.3t35.2 -51.6 58.6 -21.8q42.9 0 77.3 32.1t51 75.4 16.8 84.5zM244.4 532.9q0 44.7 -23.4 77.6t-66.4 32.9q-42.4 0 -79 -31T19.5 537.9 0 453.1q0 -44.6 23.4 -77.8t66.4 -33.2q42.5 0 79 30.9t56.1 74.8 19.5 85.1zm219.9 -15q65.8 0 142.3 54.4t127.8 132.2 51.3 142q0 25.7 -9.5 42.7t-27 25.1 -36 11.2 -42.4 3.1q-38 0 -104.7 -25.1T464.3 878.3q-36.8 0 -107.4 24.9T245 928q-102.1 0 -102.1 -81.5 0 -48 31.2 -106.8T252 632.3t104.6 -81.5 107.7 -32.9zM597.7 400.1q-34.1 0 -58.6 -21.8t-35.2 -51.6 -10.6 -63.3q0 -41.3 16.7 -84.5t51.1 -75.4 77.3 -32.1q34 0 58.6 21.8t35.1 51.6 10.6 63.3q0 40.8 -16.7 84.3T674.7 368t-77 32.1zm241 -58q43 0 66.4 33.2t23.5 77.8q0 41.3 -19.6 84.8t-56 74.5 -79 31q-43 0 -66.4 -32.9t-23.4 -77.6q0 -41.3 19.5 -85.1T759.8 373t78.9 -30.9z"/></svg>