<svg height="1000" width="857.1" xmlns="http://www.w3.org/2000/svg"><path d="M847.7 360.5q10 46.9 -2.3 113.8Q796.9 722.1 530.1 722.1h-24.5q-14 0 -24.6 9.2T467.6 755l-2.2 10.6 -30.7 193.1 -1.1 8.4q-2.8 14.5 -13.7 23.7t-24.8 9.2H255q-11.7 0 -18.4 -8.4t-5 -20.1q5 -31.2 14.8 -93.7T261.2 784t15 -93.4 15.1 -93.5q2.8 -20.6 24 -20.6h73.1q74.2 1.1 131.7 -11.8Q617.7 543 680.2 484.4q57 -53 86.5 -137.3 13.4 -39.1 19.6 -74.2 .5 -3.4 1.4 -4.2t1.9 -.6 3.4 2q44.1 32.9 54.7 90.4zm-96 -157.4q0 59.7 -25.7 131.7 -44.6 130 -168.5 175.8Q494.4 532.9 416.9 534q0 .6 -50.3 .6l-50.2 -.6q-55.8 0 -65.8 53.6 -1.2 4.5 -47.5 295.8 -.5 5.6 -6.7 5.6H31.8q-12.3 0 -20.4 -9.3T5 858.3L134.5 37.4q2.8 -16.2 15.3 -26.8T178.6 0h333.7q18.9 0 54.4 7.3t62.2 17.8q59.7 22.9 91.2 68.6t31.6 109.4z"/></svg>