<svg height="1000" width="1000" xmlns="http://www.w3.org/2000/svg"><path d="M620.496 248.932q0 -88.722 -132.246 -88.722h-39.06q-17.856 0 -33.201 11.997t-19.251 29.295l-35.154 154.008q-1.116 2.79 -1.116 8.928 0 13.392 9.486 22.041t22.878 8.649h29.574q38.502 0 71.703 -7.254t62.775 -22.878 46.593 -45.477 17.019 -70.587zm337.032 84.816q0 147.87 -122.76 238.824 -122.202 89.838 -341.496 89.838h-34.038q-17.856 0 -32.922 11.997t-18.972 29.295l-40.734 176.328q-4.464 20.088 -22.599 34.317t-38.781 14.229h-118.854q-17.298 0 -29.574 -11.16t-12.276 -28.458q0 -5.58 7.254 -36.27h84.258q18.972 0 35.712 -13.113t21.204 -31.527l40.734 -176.328q4.464 -18.414 20.925 -31.806t35.433 -13.392h34.038q217.62 0 338.706 -89.28t121.086 -234.918q0 -71.982 -28.458 -115.506 102.114 51.336 102.114 186.93zm-102.114 -103.23q0 147.312 -123.318 238.824 -121.644 89.838 -341.496 89.838h-33.48q-17.856 0 -33.201 12.276t-19.251 29.574l-40.734 175.77q-4.464 20.088 -22.32 34.317t-38.502 14.229h-119.412q-17.298 0 -29.295 -10.881t-11.997 -28.737q0 -4.464 1.116 -11.16l167.4 -725.958q4.464 -20.088 22.599 -34.317t38.781 -14.229h247.752q37.944 0 69.75 2.232t67.239 8.37 63.333 16.74 53.847 28.179 43.245 41.292 27.621 57.753 10.323 75.888z"/></svg>