<svg height="1000px" width="857.1428571428571px" xmlns="http://www.w3.org/2000/svg">
  <g>
    <path d="M824.7767857142858 234.93303571428567c13.765 14.509 20.647 31.529 20.647 51.06c0 19.532 -6.882 36.18 -20.647 49.944c0 0 -92.634 92.634 -92.634 92.634c0 0 -232.143 -232.142 -232.143 -232.142c0 0 92.634 -92.076 92.634 -92.076c13.393 -14.137 30.041 -21.206 49.944 -21.206c19.904 0 36.924 7.069 51.061 21.206c0 0 131.138 130.58 131.138 130.58m-360.491 -2.79c0 0 232.143 232.143 232.143 232.143c0 0 -464.286 464.285 -464.286 464.285c0 0 -232.143 0 -232.143 0c0 0 0 -232.142 0 -232.142c0 0 464.286 -464.286 464.286 -464.286m30.134 107.143c0 -8.185 -4.092 -12.277 -12.277 -12.277c-3.72 0 -6.882 1.302 -9.487 3.906c0 0 -302.455 302.456 -302.455 302.456c-2.604 2.604 -3.906 5.766 -3.906 9.486c0 8.185 4.092 12.277 12.277 12.277c3.72 0 6.882 -1.302 9.486 -3.906c0 0 302.456 -302.456 302.456 -302.456c2.604 -2.604 3.906 -5.766 3.906 -9.486c0 0 0 0 0 0m-291.853 517.857c0 0 50.781 -50.781 50.781 -50.781c0 0 -131.138 -131.139 -131.138 -131.139c0 0 -50.781 50.781 -50.781 50.781c0 0 0 59.71 0 59.71c0 0 71.428 0 71.428 0c0 0 0 71.429 0 71.429c0 0 59.71 0 59.71 0c0 0 0 0 0 0" />
  </g>
</svg>