<svg height="1000" width="846" xmlns="http://www.w3.org/2000/svg"><path d="M0 928.576l0-232.128l464.256-464.256 232.128 232.128-464.256 464.256l-232.128 0zm71.424-142.848l71.424 0l0 71.424l59.706 0l50.778-50.778-131.13-131.13-50.778 50.778l0 59.706zm94.86-142.848q0 12.276 12.276 12.276 5.58 0 9.486-3.906l302.436-302.436q3.906-3.906 3.906-9.486 0-12.276-12.276-12.276-5.58 0-9.486 3.906l-302.436 302.436q-3.906 3.906-3.906 9.486zm333.684-446.4l92.628-92.07q20.088-21.204 50.22-21.204 29.574 0 50.778 21.204l131.13 130.572q20.646 21.762 20.646 50.778 0 29.574-20.646 50.22l-92.628 92.628z"/></svg>