<svg height="1000px" width="750px" xmlns="http://www.w3.org/2000/svg">
  <g>
    <path d="M0 875c0 0 66.895 -204.102 66.895 -204.102c0 0 423.339 -422.851 423.339 -422.851c0 0 136.719 136.719 136.719 136.719c0 0 -422.851 423.339 -422.851 423.339c0 0 -204.102 66.895 -204.102 66.895m140.137 -198.975c0 4.069 1.627 7.732 4.883 10.987c2.604 2.604 6.184 3.906 10.742 3.906c3.906 0 7.324 -1.302 10.254 -3.906c0 0 336.914 -336.914 336.914 -336.914c6.51 -6.511 6.51 -13.509 0 -20.996c-3.256 -3.256 -6.918 -4.883 -10.987 -4.883c-4.069 0 -7.405 1.627 -10.009 4.883c0 0 -336.914 335.937 -336.914 335.937c-3.256 3.255 -4.883 6.917 -4.883 10.986c0 0 0 0 0 0m397.949 -475.83c0 0 58.105 -58.105 58.105 -58.105c11.394 -11.393 25.066 -17.09 41.016 -17.09c15.951 0 29.622 5.697 41.016 17.09c0 0 27.832 26.855 27.832 26.855c0 0 26.855 27.832 26.855 27.832c11.393 11.394 17.09 25.147 17.09 41.26c0 16.113 -5.697 29.704 -17.09 40.772c0 0 -58.105 58.105 -58.105 58.105c0 0 -136.719 -136.719 -136.719 -136.719" />
  </g>
</svg>