<svg height="1000px" width="750px" xmlns="http://www.w3.org/2000/svg">
  <g>
    <path d="M0 875c0 0 67 -204 67 -204c0 0 423 -423 423 -423c0 0 137 137 137 137c0 0 -423 423 -423 423c0 0 -204 67 -204 67m140 -199c0 4 1.667 7.667 5 11c2.667 2.667 6.333 4 11 4c4 0 7.333 -1.333 10 -4c0 0 337 -337 337 -337c6.667 -6.667 6.667 -13.667 0 -21c-3.333 -3.333 -7 -5 -11 -5c-4 0 -7.333 1.667 -10 5c0 0 -337 336 -337 336c-3.333 3.333 -5 7 -5 11c0 0 0 0 0 0m398 -476c0 0 58 -58 58 -58c11.333 -11.333 25 -17 41 -17c16 0 29.667 5.667 41 17c0 0 28 27 28 27c0 0 27 28 27 28c11.333 11.333 17 25 17 41c0 16 -5.667 29.667 -17 41c0 0 -58 58 -58 58c0 0 -137 -137 -137 -137" />
  </g>
</svg>