<svg height="1000" width="857.143" xmlns="http://www.w3.org/2000/svg"><path d="M0 767.872v-535.68q0 -66.402 47.151 -113.553t113.553 -47.151h535.68q66.402 0 113.553 47.151t47.151 113.553v535.68q0 66.402 -47.151 113.553t-113.553 47.151h-535.68q-66.402 0 -113.553 -47.151t-47.151 -113.553zm142.848 17.856h160.704l303.552 -303.552 -160.704 -160.704 -303.552 303.552v160.704zm53.568 -107.136v-31.248l29.016 -29.016 84.816 84.816 -29.016 29.016h-31.248v-53.568h-53.568zm79.236 -97.092q-7.812 -7.254 1.674 -16.74l162.378 -162.378q9.486 -9.486 16.74 -1.674 7.812 7.254 -1.674 16.74l-162.378 162.378q-9.486 9.486 -16.74 1.674zm206.46 -295.74l160.704 160.704 51.336 -51.336q15.624 -15.624 15.624 -37.944t-15.624 -37.944l-84.816 -84.816q-15.624 -15.624 -37.944 -15.624t-37.944 15.624z"/></svg>