<svg height="1000" width="857.1" xmlns="http://www.w3.org/2000/svg"><path d="M225.4 618.3l84.9 84.8 -29 29H250v-53.5h-53.6v-31.3zM456.5 400.7q7.8 7.2 -1.7 16.7L292.4 579.8q-9.5 9.5 -16.7 1.7 -7.8 -7.3 1.6 -16.8L439.7 402.3q9.5 -9.4 16.8 -1.6zm-152.9 385L607.1 482.1 446.4 321.4 142.9 625v160.7h160.7zM642.9 446.4l51.3 -51.3q15.6 -15.6 15.6 -38t-15.6 -37.9l-84.8 -84.8q-15.6 -15.6 -38 -15.6t-37.9 15.6l-51.4 51.3zM857.1 232.1v535.8q0 66.4 -47.1 113.5t-113.6 47.2H160.7q-66.4 0 -113.5 -47.2T0 767.9V232.1Q0 165.7 47.2 118.6T160.7 71.4h535.7q66.4 0 113.6 47.2t47.1 113.5z"/></svg>