<svg height="1000px" width="857.1428571428571px" xmlns="http://www.w3.org/2000/svg">
  <g>
    <path d="M0 928.5714285714286c0 0 0 -232.143 0 -232.143c0 0 464.286 -464.286 464.286 -464.286c0 0 232.143 232.143 232.143 232.143c0 0 -464.286 464.286 -464.286 464.286c0 0 -232.143 0 -232.143 0c0 0 0 0 0 0m71.429 -142.857c0 0 71.428 0 71.428 0c0 0 0 71.428 0 71.428c0 0 59.71 0 59.71 0c0 0 50.781 -50.781 50.781 -50.781c0 0 -131.138 -131.138 -131.138 -131.138c0 0 -50.781 50.781 -50.781 50.781c0 0 0 59.71 0 59.71c0 0 0 0 0 0m94.866 -142.857c0 8.184 4.092 12.277 12.276 12.277c3.721 0 6.883 -1.303 9.487 -3.907c0 0 302.455 -302.455 302.455 -302.455c2.605 -2.604 3.907 -5.766 3.907 -9.487c0 -8.184 -4.093 -12.276 -12.277 -12.276c-3.72 0 -6.883 1.302 -9.487 3.906c0 0 -302.455 302.455 -302.455 302.455c-2.604 2.604 -3.906 5.766 -3.906 9.487c0 0 0 0 0 0m333.705 -446.429c0 0 92.634 -92.076 92.634 -92.076c13.393 -14.137 30.041 -21.205 49.944 -21.205c19.903 0 36.923 7.068 51.06 21.205c0 0 131.139 130.581 131.139 130.581c13.765 14.509 20.647 31.529 20.647 51.06c0 19.531 -6.882 36.179 -20.647 49.944c0 0 -92.634 92.634 -92.634 92.634c0 0 -232.143 -232.143 -232.143 -232.143" />
  </g>
</svg>