<svg height="1000" width="857.1" xmlns="http://www.w3.org/2000/svg"><path d="M714.3 714.3q0 -29 -21.2 -50.2t-50.2 -21.2 -50.3 21.2 -21.2 50.2 21.2 50.2 50.3 21.2 50.2 -21.2 21.2 -50.2zM285.7 285.7q0 -29 -21.2 -50.2t-50.2 -21.2 -50.2 21.2 -21.2 50.2 21.2 50.2 50.2 21.2 50.2 -21.2 21.2 -50.2zm571.4 428.6q0 88.7 -62.7 151.5t-151.5 62.8T491.4 865.8 428.6 714.3t62.8 -151.5T642.9 500t151.5 62.8 62.7 151.5zM803.6 107.1q0 11.2 -7.3 21.2L207 914.1q-10.6 14.5 -28.4 14.5H89.3q-14.5 0 -25.1 -10.6T53.6 892.9q0 -11.2 7.2 -21.2L650.1 85.9q10.6 -14.5 28.5 -14.5h89.3q14.5 0 25.1 10.6t10.6 25.1zm-375 178.6q0 88.7 -62.8 151.5T214.3 500 62.8 437.2 0 285.7 62.8 134.2 214.3 71.4t151.5 62.8 62.8 151.5z"/></svg>