<svg height="1000px" width="857.1428571428571px" xmlns="http://www.w3.org/2000/svg">
  <g>
    <path d="M857.1428571428571 232.1428571428571c0 0 0 535.714 0 535.714c0 44.271 -15.718 82.125 -47.154 113.561c-31.436 31.436 -69.289 47.154 -113.56 47.154c0 0 -535.715 0 -535.715 0c-44.27 0 -82.124 -15.718 -113.56 -47.154c-31.436 -31.436 -47.154 -69.29 -47.154 -113.561c0 0 0 -535.714 0 -535.714c0 -44.271 15.718 -82.124 47.154 -113.56c31.436 -31.436 69.29 -47.154 113.56 -47.154c0 0 535.715 0 535.715 0c44.271 0 82.124 15.718 113.56 47.154c31.436 31.436 47.154 69.289 47.154 113.56c0 0 0 0 0 0m-155.134 489.955c8.185 -19.717 12.277 -35.063 12.277 -46.038c0 -10.974 -0.372 -17.578 -1.116 -19.81c-1.86 -4.836 -25.484 -19.345 -70.871 -43.527c0 0 -29.576 -16.183 -29.576 -16.183c-1.86 -1.116 -5.394 -3.534 -10.602 -7.254c-10.417 -7.441 -18.974 -11.161 -25.67 -11.161c-6.696 0 -15.439 6.046 -26.228 18.136c-10.788 12.091 -21.391 24.275 -31.808 36.552c-10.416 12.276 -17.764 18.415 -22.042 18.415c-4.278 0 -8.185 -0.651 -11.719 -1.953c-3.534 -1.302 -6.417 -2.511 -8.649 -3.628c-5.953 -2.976 -11.719 -6.324 -17.3 -10.044c-71.056 -39.435 -126.302 -94.68 -165.736 -165.737c-10.417 -15.625 -15.625 -26.599 -15.625 -32.924c0 -6.324 3.813 -13.3 11.44 -20.926c7.626 -7.627 15.904 -14.788 24.832 -21.485c24.554 -17.857 36.831 -31.994 36.831 -42.41c0 -6.697 -2.791 -13.951 -8.371 -21.764c-5.58 -7.812 -8.929 -12.742 -10.045 -14.788c-1.116 -2.046 -3.906 -7.254 -8.37 -15.625c-4.464 -8.37 -9.115 -16.834 -13.951 -25.39c-4.836 -8.557 -9.766 -17.392 -14.788 -26.507c-5.022 -9.115 -9.673 -16.648 -13.951 -22.6c-4.278 -5.953 -7.347 -9.301 -9.207 -10.045c-1.861 -0.744 -8.278 -1.116 -19.253 -1.116c-10.974 0 -26.32 4.092 -46.038 12.277c-17.113 7.812 -31.994 25.39 -44.643 52.734c-12.648 27.344 -18.973 51.618 -18.973 72.824c0 21.949 4.837 45.573 14.509 70.87c6.697 16.741 11.161 28.46 13.393 35.156c22.321 61.012 62.593 120.629 120.815 178.851c58.222 58.222 117.838 98.493 178.85 120.815c6.697 2.232 15.067 5.301 25.112 9.207c10.044 3.906 18.88 7.069 26.507 9.487c7.626 2.418 13.671 3.999 18.136 4.743c14.137 2.976 29.018 4.464 44.643 4.464c15.625 0 37.109 -6.324 64.453 -18.973c27.343 -12.649 44.922 -27.53 52.734 -44.643c0 0 0 0 0 0" />
  </g>
</svg>