<svg height="1000px" width="785.7142857142858px" xmlns="http://www.w3.org/2000/svg">
  <g>
    <path d="M784.0401785714286 680.2455357142857c1.116 2.604 1.674 7.719 1.674 15.346c0 7.626 -1.86 19.531 -5.58 35.714c-3.72 16.183 -7.627 28.925 -11.719 38.226c-7.812 18.601 -29.855 37.853 -66.127 57.756c-36.273 19.904 -71.522 29.855 -105.748 29.855c-28.646 0 -68.266 -9.486 -118.862 -28.46c-14.881 -5.58 -32.273 -11.904 -52.176 -18.973c-19.903 -7.068 -48.921 -22.414 -87.054 -46.038c-38.132 -23.623 -82.589 -60.826 -133.37 -111.607c-50.781 -50.781 -87.984 -95.238 -111.607 -133.37c-23.624 -38.133 -41.946 -75.428 -54.967 -111.887c-1.116 -3.348 -4.464 -12.462 -10.044 -27.343c-5.581 -14.881 -9.394 -25.205 -11.44 -30.971c-2.046 -5.767 -4.743 -14.602 -8.092 -26.507c-5.952 -21.205 -8.928 -45.294 -8.928 -72.266c0 -26.971 9.951 -58.593 29.855 -94.866c19.903 -36.272 39.155 -58.314 57.756 -66.127c9.301 -4.092 22.043 -7.998 38.226 -11.719c16.183 -3.72 28.088 -5.58 35.714 -5.58c7.627 0 12.742 0.558 15.346 1.674c6.697 2.232 16.555 16.369 29.576 42.411c4.092 7.068 9.673 17.113 16.741 30.134c19.717 36.83 33.854 61.198 42.411 73.102c13.393 19.718 20.089 33.483 20.089 41.295c0 7.813 -5.301 17.299 -15.904 28.46c-10.231 11.161 -21.67 21.391 -34.319 30.692c-33.482 25.298 -50.409 43.713 -50.781 55.245c0 8.185 3.534 18.044 10.602 29.576c7.069 11.533 10.789 17.671 11.161 18.415c28.274 50.968 60.64 94.681 97.098 131.139c36.459 36.458 80.171 68.824 131.139 97.098c0.744 0.372 4.278 2.511 10.602 6.418c6.325 3.906 10.789 6.603 13.393 8.091c10.045 5.208 18.229 7.72 24.554 7.534c6.324 -0.186 14.695 -5.581 25.111 -16.184c10.417 -10.602 20.276 -22.228 29.576 -34.877c25.298 -33.854 44.829 -50.595 58.594 -50.223c10.417 0 26.972 8.557 49.665 25.67c16.369 9.672 34.598 19.996 54.688 30.971c20.089 10.974 33.668 18.508 40.736 22.6c26.042 13.021 40.179 22.88 42.411 29.576c0 0 0 0 0 0" />
  </g>
</svg>