<svg height="1000px" width="857.1428571428571px" xmlns="http://www.w3.org/2000/svg">
  <g>
    <path d="M0 767.8571428571428c0 0 0 -535.714 0 -535.714c0 -44.271 15.718 -82.125 47.154 -113.561c31.436 -31.436 69.289 -47.154 113.56 -47.154c0 0 535.715 0 535.715 0c44.27 0 82.124 15.718 113.56 47.154c31.436 31.436 47.154 69.29 47.154 113.561c0 0 0 535.714 0 535.714c0 44.271 -15.718 82.124 -47.154 113.56c-31.436 31.436 -69.29 47.154 -113.56 47.154c0 0 -535.715 0 -535.715 0c-44.271 0 -82.124 -15.718 -113.56 -47.154c-31.436 -31.436 -47.154 -69.289 -47.154 -113.56c0 0 0 0 0 0m142.857 -415.737c0 5.953 0.465 12.277 1.395 18.974c0.93 6.696 1.86 12.369 2.79 17.02c0.93 4.65 2.605 10.788 5.023 18.415c2.418 7.626 4.278 13.114 5.58 16.462c1.302 3.348 3.627 9.487 6.976 18.415c3.348 8.929 5.394 14.509 6.138 16.741c22.321 61.012 62.593 120.629 120.815 178.851c58.221 58.221 117.838 98.493 178.85 120.814c2.232 0.744 7.813 2.791 16.741 6.139c8.929 3.348 15.067 5.673 18.415 6.975c3.349 1.302 8.836 3.162 16.462 5.581c7.627 2.418 13.765 4.092 18.416 5.022c4.65 0.93 10.323 1.86 17.02 2.79c6.696 0.93 13.021 1.395 18.973 1.395c21.205 0 45.48 -6.324 72.824 -18.973c27.343 -12.649 44.921 -27.53 52.734 -44.643c8.184 -19.717 12.277 -38.504 12.277 -56.362c0 -4.092 -0.372 -7.068 -1.116 -8.928c-1.116 -2.976 -8.278 -8.464 -21.485 -16.462c-13.207 -7.999 -29.669 -17.206 -49.386 -27.623c0 0 -29.576 -16.183 -29.576 -16.183c-1.86 -1.116 -5.394 -3.534 -10.602 -7.254c-5.209 -3.721 -9.859 -6.511 -13.951 -8.371c-4.093 -1.86 -7.999 -2.79 -11.719 -2.79c-6.697 0 -15.439 6.045 -26.228 18.136c-10.788 12.091 -21.391 24.275 -31.808 36.551c-10.416 12.277 -18.601 18.416 -24.553 18.416c-2.605 0 -5.674 -0.652 -9.208 -1.954c-3.534 -1.302 -6.417 -2.511 -8.65 -3.627c-2.232 -1.116 -5.394 -2.883 -9.486 -5.301c-4.092 -2.418 -6.697 -3.999 -7.813 -4.743c-36.83 -20.462 -68.545 -43.992 -95.145 -70.592c-26.599 -26.6 -50.13 -58.315 -70.591 -95.145c-0.744 -1.116 -2.325 -3.72 -4.744 -7.813c-2.418 -4.092 -4.185 -7.254 -5.301 -9.486c-1.116 -2.232 -2.325 -5.116 -3.627 -8.65c-1.302 -3.534 -1.953 -6.603 -1.953 -9.207c0 -4.837 3.813 -11.068 11.439 -18.695c7.627 -7.626 15.998 -14.787 25.112 -21.484c9.115 -6.696 17.485 -14.044 25.112 -22.042c7.626 -7.999 11.439 -14.788 11.439 -20.369c0 -3.72 -0.93 -7.626 -2.79 -11.718c-1.86 -4.093 -4.65 -8.743 -8.37 -13.951c-3.721 -5.209 -6.139 -8.743 -7.255 -10.603c-1.116 -2.232 -3.906 -7.533 -8.37 -15.904c-4.465 -8.37 -9.115 -16.834 -13.951 -25.391c-4.836 -8.556 -9.766 -17.392 -14.788 -26.506c-5.022 -9.115 -9.673 -16.648 -13.951 -22.601c-4.278 -5.952 -7.347 -9.3 -9.208 -10.044c-1.86 -0.744 -4.836 -1.116 -8.928 -1.116c-17.857 0 -36.645 4.092 -56.362 12.276c-17.113 7.813 -31.994 25.391 -44.643 52.735c-12.648 27.343 -18.973 51.618 -18.973 72.823c0 0 0 0 0 0" />
  </g>
</svg>