<svg height="1000" width="785.7" xmlns="http://www.w3.org/2000/svg"><path d="M785.7 692q0 15 -5.6 39.3t-11.7 38.2q-11.7 27.9 -68.1 59.2 -52.4 28.4 -103.8 28.4 -15 0 -29.3 -1.9t-32 -7 -26.6 -8.1 -30.9 -11.4 -27.4 -10.1q-54.7 -19.5 -97.6 -46.3Q281.3 728.2 205.1 652.1T84.8 504.5Q58 461.5 38.5 406.8q-1.7 -5 -10 -27.3T17 348.5 8.9 322 2 289.9 0 260.6Q0 209.3 28.5 156.8 59.7 100.4 87.6 88.7q14 -6.1 38.2 -11.7t39.4 -5.6q7.8 0 11.7 1.7 10 3.4 29.6 42.4 6.1 10.6 16.7 30.1t19.5 35.5 17.3 29.8q1.7 2.3 9.8 14t12 19.8 3.9 15.9q0 11.2 -15.9 27.9t-34.6 30.7 -34.6 29.6 -15.9 25.6q0 5.1 2.8 12.6t4.7 11.4 7.9 13.4 6.4 10.6q42.4 76.5 97.1 131.2t131.1 97.1q1.1 .5 10.6 6.4t13.4 7.8 11.4 4.7 12.6 2.8q10 0 25.7 -15.9t29.5 -34.6 30.7 -34.6 27.9 -15.9q7.9 0 15.9 3.9t19.9 12 13.9 9.8q14 8.4 29.9 17.3t35.4 19.5 30.1 16.8q39.1 19.5 42.4 29.5 1.7 4 1.7 11.8z"/></svg>