<svg height="1000px" width="785.7142857142858px" xmlns="http://www.w3.org/2000/svg">
  <g>
    <path d="M0 260.60267857142856c0 -34.226 9.487 -68.824 28.46 -103.795c20.833 -37.574 40.55 -60.267 59.152 -68.08c9.3 -4.092 22.042 -7.999 38.225 -11.719c16.183 -3.72 29.297 -5.58 39.342 -5.58c5.208 0 9.114 0.558 11.718 1.674c6.697 2.232 16.555 16.369 29.576 42.411c4.092 7.068 9.673 17.113 16.741 30.134c7.069 13.02 13.579 24.832 19.532 35.435c5.952 10.603 11.718 20.554 17.299 29.855c1.116 1.488 4.371 6.138 9.765 13.951c5.395 7.812 9.394 14.416 11.998 19.81c2.604 5.394 3.906 10.696 3.906 15.904c0 7.44 -5.301 16.741 -15.904 27.902c-10.602 11.161 -22.135 21.391 -34.598 30.692c-12.463 9.3 -23.995 19.159 -34.598 29.576c-10.603 10.416 -15.904 18.973 -15.904 25.669c0 3.348 0.93 7.534 2.79 12.556c1.86 5.022 3.441 8.836 4.743 11.44c1.302 2.604 3.907 7.068 7.813 13.393c3.906 6.324 6.045 9.858 6.417 10.602c28.274 50.968 60.64 94.68 97.098 131.139c36.459 36.458 80.172 68.824 131.139 97.098c0.744 0.372 4.278 2.511 10.603 6.417c6.324 3.907 10.788 6.511 13.392 7.813c2.605 1.302 6.418 2.883 11.44 4.743c5.022 1.86 9.208 2.79 12.556 2.79c6.696 0 15.253 -5.301 25.67 -15.904c10.416 -10.602 20.275 -22.135 29.575 -34.598c9.301 -12.463 19.532 -23.995 30.692 -34.598c11.161 -10.603 20.462 -15.904 27.902 -15.904c5.209 0 10.51 1.302 15.904 3.906c5.395 2.604 11.998 6.604 19.81 11.998c7.813 5.394 12.463 8.649 13.951 9.766c9.301 5.58 19.253 11.346 29.855 17.299c10.603 5.952 22.415 12.462 35.436 19.531c13.02 7.068 23.065 12.649 30.133 16.741c26.042 13.021 40.179 22.879 42.411 29.576c1.116 2.604 1.674 6.51 1.674 11.719c0 10.044 -1.86 23.158 -5.58 39.341c-3.72 16.183 -7.627 28.925 -11.719 38.226c-7.812 18.601 -30.506 38.318 -68.08 59.151c-34.97 18.974 -69.569 28.46 -103.795 28.46c-10.044 0 -19.81 -0.651 -29.297 -1.953c-9.486 -1.302 -20.182 -3.627 -32.087 -6.975c-11.905 -3.349 -20.74 -6.046 -26.506 -8.092c-5.767 -2.046 -16.09 -5.859 -30.971 -11.44c-14.881 -5.58 -23.996 -8.928 -27.344 -10.044c-36.459 -13.021 -69.011 -28.46 -97.656 -46.317c-47.619 -29.39 -96.82 -69.476 -147.601 -120.257c-50.781 -50.781 -90.867 -99.981 -120.257 -147.6c-17.857 -28.646 -33.296 -61.198 -46.317 -97.657c-1.116 -3.348 -4.464 -12.462 -10.044 -27.343c-5.581 -14.881 -9.394 -25.205 -11.44 -30.971c-2.046 -5.767 -4.743 -14.602 -8.091 -26.507c-3.349 -11.905 -5.674 -22.601 -6.976 -32.087c-1.302 -9.487 -1.953 -19.252 -1.953 -29.297c0 0 0 0 0 0" />
  </g>
</svg>