<svg height="1000" width="857.143" xmlns="http://www.w3.org/2000/svg"><path d="M714.24 665.758q0 -6.138 -1.116 -8.928 -1.674 -4.464 -21.483 -16.461t-49.383 -27.621l-29.574 -16.182q-2.79 -1.674 -10.602 -7.254t-13.95 -8.37 -11.718 -2.79q-10.044 0 -26.226 18.135t-31.806 36.549 -24.552 18.414q-3.906 0 -9.207 -1.953t-8.649 -3.627 -9.486 -5.301 -7.812 -4.743q-55.242 -30.69 -95.139 -70.587t-70.587 -95.139q-1.116 -1.674 -4.743 -7.812t-5.301 -9.486 -3.627 -8.649 -1.953 -9.207q0 -7.254 11.439 -18.693t25.11 -21.483 25.11 -22.041 11.439 -20.367q0 -5.58 -2.79 -11.718t-8.37 -13.95 -7.254 -10.602q-1.674 -3.348 -8.37 -15.903t-13.95 -25.389 -14.787 -26.505 -13.95 -22.599 -9.207 -10.044 -8.928 -1.116q-26.784 0 -56.358 12.276 -25.668 11.718 -44.64 52.731t-18.972 72.819q0 8.928 1.395 18.972t2.79 17.019 5.022 18.414 5.58 16.461 6.975 18.414 6.138 16.74q33.48 91.512 120.807 178.839t178.839 120.807q3.348 1.116 16.74 6.138t18.414 6.975 16.461 5.58 18.414 5.022 17.019 2.79 18.972 1.395q31.806 0 72.819 -18.972t52.731 -44.64q12.276 -29.574 12.276 -56.358zm142.848 -433.566v535.68q0 66.402 -47.151 113.553t-113.553 47.151h-535.68q-66.402 0 -113.553 -47.151t-47.151 -113.553v-535.68q0 -66.402 47.151 -113.553t113.553 -47.151h535.68q66.402 0 113.553 47.151t47.151 113.553z"/></svg>