<svg height="1000px" width="785.7142857142858px" xmlns="http://www.w3.org/2000/svg">
  <g>
    <path d="M0 249.7209821428571c0 -26.972 9.952 -58.594 29.855 -94.866c19.903 -36.272 39.155 -58.315 57.757 -66.127c9.3 -4.093 22.042 -7.999 38.225 -11.719c16.183 -3.72 28.088 -5.58 35.714 -5.58c7.627 0 12.742 0.558 15.346 1.674c6.697 2.232 16.555 16.369 29.576 42.41c4.092 7.069 9.673 17.114 16.741 30.134c19.718 36.831 33.854 61.198 42.411 73.103c13.393 19.717 20.089 33.482 20.089 41.295c0 7.812 -5.301 17.299 -15.904 28.459c-10.23 11.161 -21.67 21.392 -34.319 30.692c-33.482 25.298 -50.409 43.713 -50.781 55.246c0 8.185 3.534 18.043 10.603 29.576c7.068 11.533 10.788 17.671 11.16 18.415c28.274 50.967 60.64 94.68 97.098 131.138c36.459 36.459 80.172 68.825 131.139 97.099c0.744 0.372 4.278 2.511 10.603 6.417c6.324 3.906 10.788 6.603 13.392 8.092c10.045 5.208 18.23 7.719 24.554 7.533c6.324 -0.186 14.695 -5.58 25.112 -16.183c10.416 -10.603 20.275 -22.228 29.575 -34.877c25.023 -33.486 44.404 -50.229 58.143 -50.229c0.151 0 0.302 0.002 0.451 0.006c10.417 0 26.972 8.556 49.665 25.669c16.369 9.673 34.599 19.996 54.688 30.971c20.089 10.975 33.668 18.508 40.736 22.601c26.042 13.02 40.179 22.879 42.411 29.576c1.116 2.604 1.674 7.719 1.674 15.346c0 7.626 -1.86 19.531 -5.58 35.714c-3.72 16.183 -7.627 28.925 -11.719 38.225c-7.812 18.601 -29.855 37.854 -66.127 57.757c-36.272 19.903 -71.522 29.855 -105.748 29.855c-28.646 0 -68.266 -9.487 -118.861 -28.46c-14.881 -5.58 -32.274 -11.905 -52.177 -18.973c-19.903 -7.069 -48.921 -22.415 -87.053 -46.038c-38.133 -23.624 -82.59 -60.826 -133.371 -111.607c-50.781 -50.782 -87.984 -95.238 -111.607 -133.371c-23.624 -38.132 -41.946 -75.428 -54.967 -111.886c-1.116 -3.348 -4.464 -12.463 -10.044 -27.344c-5.581 -14.881 -9.394 -25.204 -11.44 -30.971c-2.046 -5.766 -4.743 -14.602 -8.091 -26.506c-5.953 -21.206 -8.929 -45.294 -8.929 -72.266c0 0 0 0 0 0" />
  </g>
</svg>