<svg height="1000" width="785.714" xmlns="http://www.w3.org/2000/svg"><path d="M785.664 691.984q0 15.066 -5.58 39.339t-11.718 38.223q-11.718 27.9 -68.076 59.148 -52.452 28.458 -103.788 28.458 -15.066 0 -29.295 -1.953t-32.085 -6.975 -26.505 -8.091 -30.969 -11.439 -27.342 -10.044q-54.684 -19.53 -97.65 -46.314 -71.424 -44.082 -147.591 -120.249t-120.249 -147.591q-26.784 -42.966 -46.314 -97.65 -1.674 -5.022 -10.044 -27.342t-11.439 -30.969 -8.091 -26.505 -6.975 -32.085 -1.953 -29.295q0 -51.336 28.458 -103.788 31.248 -56.358 59.148 -68.076 13.95 -6.138 38.223 -11.718t39.339 -5.58q7.812 0 11.718 1.674 10.044 3.348 29.574 42.408 6.138 10.602 16.74 30.132t19.53 35.433 17.298 29.853q1.674 2.232 9.765 13.95t11.997 19.809 3.906 15.903q0 11.16 -15.903 27.9t-34.596 30.69 -34.596 29.574 -15.903 25.668q0 5.022 2.79 12.555t4.743 11.439 7.812 13.392 6.417 10.602q42.408 76.446 97.092 131.13t131.13 97.092q1.116 .558 10.602 6.417t13.392 7.812 11.439 4.743 12.555 2.79q10.044 0 25.668 -15.903t29.574 -34.596 30.69 -34.596 27.9 -15.903q7.812 0 15.903 3.906t19.809 11.997 13.95 9.765q13.95 8.37 29.853 17.298t35.433 19.53 30.132 16.74q39.06 19.53 42.408 29.574 1.674 3.906 1.674 11.718z"/></svg>