<svg height="1000px" width="857.1428571428571px" xmlns="http://www.w3.org/2000/svg">
  <g>
    <path d="M0 767.8571428571428c0 0 0 -535.714 0 -535.714c0 -44.271 15.718 -82.125 47.154 -113.561c31.436 -31.436 69.289 -47.154 113.56 -47.154c0 0 535.715 0 535.715 0c44.27 0 82.124 15.718 113.56 47.154c31.436 31.436 47.154 69.29 47.154 113.561c0 0 0 535.714 0 535.714c0 44.271 -15.718 82.124 -47.154 113.56c-31.436 31.436 -69.29 47.154 -113.56 47.154c0 0 -535.715 0 -535.715 0c-44.271 0 -82.124 -15.718 -113.56 -47.154c-31.436 -31.436 -47.154 -69.289 -47.154 -113.56c0 0 0 0 0 0m142.857 -415.737c0 21.95 4.836 45.573 14.509 70.871c6.696 16.741 11.161 28.46 13.393 35.156c22.321 61.012 62.593 120.629 120.815 178.851c58.221 58.221 117.838 98.493 178.85 120.814c6.697 2.232 15.067 5.302 25.112 9.208c10.044 3.906 18.88 7.068 26.506 9.487c7.627 2.418 13.672 3.999 18.137 4.743c14.136 2.976 29.017 4.464 44.642 4.464c15.625 0 37.11 -6.324 64.454 -18.973c27.343 -12.649 44.921 -27.53 52.734 -44.643c8.184 -19.717 12.277 -35.063 12.277 -46.038c0 -10.975 -0.372 -17.578 -1.116 -19.81c-1.86 -4.836 -25.484 -19.345 -70.871 -43.527c0 0 -29.576 -16.183 -29.576 -16.183c-1.86 -1.116 -5.394 -3.534 -10.602 -7.254c-10.417 -7.441 -18.974 -11.161 -25.67 -11.161c-6.697 0 -15.439 6.045 -26.228 18.136c-10.788 12.091 -21.391 24.275 -31.808 36.551c-10.416 12.277 -17.764 18.416 -22.042 18.416c-4.279 0 -8.185 -0.652 -11.719 -1.954c-3.534 -1.302 -6.417 -2.511 -8.65 -3.627c-5.952 -2.976 -11.718 -6.324 -17.299 -10.044c-71.056 -39.435 -126.302 -94.681 -165.736 -165.737c-10.417 -15.625 -15.625 -26.6 -15.625 -32.924c0 -6.325 3.813 -13.3 11.439 -20.927c7.627 -7.626 15.904 -14.787 24.833 -21.484c24.554 -17.857 36.83 -31.994 36.83 -42.411c0 -6.696 -2.79 -13.951 -8.37 -21.763c-5.58 -7.813 -8.929 -12.742 -10.045 -14.788c-1.116 -2.046 -3.906 -7.254 -8.37 -15.625c-4.465 -8.37 -9.115 -16.834 -13.951 -25.391c-4.836 -8.556 -9.766 -17.392 -14.788 -26.506c-5.022 -9.115 -9.673 -16.648 -13.951 -22.601c-4.278 -5.952 -7.347 -9.3 -9.208 -10.044c-1.86 -0.744 -8.277 -1.116 -19.252 -1.116c-10.975 0 -26.321 4.092 -46.038 12.276c-17.113 7.813 -31.994 25.391 -44.643 52.735c-12.648 27.343 -18.973 51.618 -18.973 72.823c0 0 0 0 0 0" />
  </g>
</svg>