<svg height="1000" width="857.1" xmlns="http://www.w3.org/2000/svg"><path d="M0 767.9v-535.7q0-66.4 47.2-113.6t113.6-47.2h535.7q66.4 0 113.6 47.2t47.2 113.6v535.7q0 66.4-47.2 113.6t-113.6 47.2h-535.7q-66.4 0-113.6-47.2t-47.2-113.6zm142.8-415.7q0 8.9 1.4 19t2.8 17 5 18.4 5.6 16.5 7 18.4 6.1 16.7q33.5 91.5 120.8 178.8t178.8 120.8q3.3 1.1 16.7 6.1t18.4 7 16.5 5.6 18.4 5 17 2.8 19 1.4q31.8 0 72.8-19t52.7-44.6q12.3-29.6 12.3-56.4 0-6.1-1.1-8.9-1.7-4.5-21.5-16.5t-49.4-27.6l-29.6-16.2q-2.8-1.7-10.6-7.3t-14-8.4-11.7-2.8q-10 0-26.2 18.1t-31.8 36.5-24.6 18.4q-3.9 0-9.2-2t-8.6-3.6-9.5-5.3-7.8-4.7q-55.2-30.7-95.1-70.6t-70.6-95.1q-1.1-1.7-4.7-7.8t-5.3-9.5-3.6-8.6-2-9.2q0-7.3 11.4-18.7t25.1-21.5 25.1-22 11.4-20.4q0-5.6-2.8-11.7t-8.4-14-7.3-10.6q-1.7-3.3-8.4-15.9t-14-25.4-14.8-26.5-14-22.6-9.2-10-8.9-1.1q-26.8 0-56.4 12.3-25.7 11.7-44.6 52.7t-19 72.8z"/></svg>