<svg height="1000" width="857.1" xmlns="http://www.w3.org/2000/svg"><path d="M714.3 665.7q0 -6.1 -1.1 -8.9 -1.7 -4.5 -21.5 -16.5t-49.4 -27.6l-29.6 -16.2q-2.8 -1.6 -10.6 -7.2t-13.9 -8.4 -11.7 -2.8q-10.1 0 -26.3 18.2t-31.8 36.5 -24.5 18.4q-3.9 0 -9.2 -1.9t-8.7 -3.7 -9.5 -5.3 -7.8 -4.7Q403.5 604.9 363.6 565T293 469.9q-1.1 -1.7 -4.8 -7.8t-5.3 -9.5 -3.6 -8.7 -2 -9.2q0 -7.2 11.5 -18.7t25.1 -21.5 25.1 -22 11.4 -20.4q0 -5.6 -2.7 -11.7t-8.4 -13.9T332 315.8q-1.6 -3.3 -8.3 -15.9t-14 -25.3T294.9 248 281 225.4t-9.2 -10 -9 -1.1q-26.8 0 -56.3 12.3 -25.7 11.7 -44.7 52.7t-18.9 72.8q0 8.9 1.4 19t2.7 17 5.1 18.4 5.5 16.5 7 18.4 6.2 16.7q33.4 91.6 120.8 178.9t178.8 120.8q3.4 1.1 16.8 6.2t18.4 6.9 16.4 5.6 18.5 5 17 2.8 19 1.4q31.8 0 72.8 -19T702 722.1q12.3 -29.6 12.3 -56.4zM857.1 232.1v535.8q0 66.4 -47.1 113.5t-113.6 47.2H160.7q-66.4 0 -113.5 -47.2T0 767.9V232.1Q0 165.7 47.2 118.6T160.7 71.4h535.7q66.4 0 113.6 47.2t47.1 113.5z"/></svg>