<svg height="1000px" width="779.78515625px" xmlns="http://www.w3.org/2000/svg">
  <g>
    <path d="M0 304.19921875c0 -17.904 2.36 -36.54 7.08 -55.908c4.72 -19.369 11.719 -37.923 20.996 -55.664c9.278 -17.741 20.427 -33.773 33.447 -48.096c13.021 -14.323 28.158 -25.553 45.411 -33.691c3.906 0.651 8.219 0.651 12.939 0c4.72 -0.651 9.033 -0.977 12.94 -0.977c3.255 0 8.138 0.163 14.648 0.488c0 0 19.531 0.977 19.531 0.977c0 0 6.266 0.732 18.799 2.197c12.533 1.465 17.008 2.686 13.428 3.662c2.604 1.953 5.045 4.883 7.324 8.789c2.279 3.907 4.232 8.22 5.859 12.94c1.628 4.72 3.174 9.603 4.639 14.648c1.465 5.046 2.848 9.196 4.15 12.451c1.954 5.86 5.778 16.521 11.475 31.983c5.697 15.462 11.475 31.331 17.334 47.607c5.859 16.276 11.149 31.413 15.869 45.41c4.72 13.998 7.08 22.624 7.08 25.879c0 12.045 -3.987 23.112 -11.963 33.203c-7.975 10.092 -16.764 19.45 -26.367 28.077c-9.603 8.626 -18.473 16.764 -26.611 24.414c-8.138 7.649 -12.207 15.055 -12.207 22.216c0 6.511 2.685 14.486 8.056 23.926c5.372 9.44 9.685 16.927 12.94 22.461c27.344 47.201 58.024 87.647 92.041 121.338c34.017 33.691 75.114 64.209 123.291 91.553c5.859 3.255 13.265 7.731 22.217 13.428c8.952 5.696 17.171 8.544 24.658 8.544c7.487 0 16.032 -5.208 25.635 -15.625c9.603 -10.416 19.368 -21.891 29.297 -34.423c9.928 -12.533 20.019 -24.008 30.273 -34.424c10.254 -10.417 19.775 -15.625 28.564 -15.625c3.256 0 11.638 3.662 25.147 10.986c13.509 7.324 28.076 15.462 43.701 24.414c15.625 8.952 30.762 17.985 45.41 27.1c14.649 9.114 24.577 14.974 29.785 17.578c5.209 3.255 12.696 7.406 22.461 12.451c9.766 5.046 16.276 10.824 19.532 17.334c0.651 1.953 0.976 5.697 0.976 11.231c0 5.208 -0.488 11.149 -1.465 17.822c-0.976 6.673 -2.278 13.672 -3.906 20.996c-1.628 7.324 -3.581 14.323 -5.859 20.996c-2.279 6.673 -4.395 12.451 -6.348 17.334c-5.859 12.695 -15.544 24.333 -29.053 34.912c-13.509 10.58 -28.564 19.531 -45.166 26.856c-16.601 7.324 -33.61 13.183 -51.025 17.578c-17.415 4.394 -32.471 6.592 -45.166 6.592c-26.042 0 -51.026 -4.151 -74.951 -12.452c-23.926 -8.3 -47.608 -17.171 -71.045 -26.611c-40.039 -14.648 -77.881 -33.854 -113.526 -57.617c-35.644 -23.763 -68.766 -50.456 -99.365 -80.078c-30.599 -29.623 -59.082 -61.605 -85.449 -95.948c-26.367 -34.342 -49.805 -69.417 -70.313 -105.224c-8.138 -13.347 -16.683 -28.89 -25.634 -46.631c-8.952 -17.741 -17.253 -35.97 -24.903 -54.688c-7.649 -18.717 -13.997 -37.19 -19.043 -55.419c-5.045 -18.23 -7.568 -35.319 -7.568 -51.27c0 0 0 0 0 0" />
  </g>
</svg>