<svg height="1000" width="785.7" xmlns="http://www.w3.org/2000/svg"><path d="M0 260.6q0-51.3 28.5-103.8 31.2-56.4 59.1-68.1 14-6.1 38.2-11.7t39.3-5.6q7.8 0 11.7 1.7 10 3.3 29.6 42.4 6.1 10.6 16.7 30.1t19.5 35.4 17.3 29.9q1.7 2.2 9.8 14t12 19.8 3.9 15.9q0 11.2-15.9 27.9t-34.6 30.7-34.6 29.6-15.9 25.7q0 5 2.8 12.6t4.7 11.4 7.8 13.4 6.4 10.6q42.4 76.4 97.1 131.1t131.1 97.1q1.1.6 10.6 6.4t13.4 7.8 11.4 4.7 12.6 2.8q10 0 25.7-15.9t29.6-34.6 30.7-34.6 27.9-15.9q7.8 0 15.9 3.9t19.8 12 14 9.8q14 8.4 29.9 17.3t35.4 19.5 30.1 16.7q39.1 19.5 42.4 29.6 1.7 3.9 1.7 11.7 0 15.1-5.6 39.3t-11.7 38.2q-11.7 27.9-68.1 59.1-52.5 28.5-103.8 28.5-15.1 0-29.3-2t-32.1-7-26.5-8.1-31-11.4-27.3-10q-54.7-19.5-97.7-46.3-71.4-44.1-147.6-120.2t-120.2-147.6q-26.8-43-46.3-97.7-1.7-5-10-27.3t-11.4-31-8.1-26.5-7-32.1-2-29.3z"/></svg>