<svg height="1000" width="1071.429" xmlns="http://www.w3.org/2000/svg"><path d="M0 839.296v-678.528q0 -36.828 26.226 -63.054t63.054 -26.226h892.8q36.828 0 63.054 26.226t26.226 63.054v678.528q0 36.828 -26.226 63.054t-63.054 26.226h-892.8q-36.828 0 -63.054 -26.226t-26.226 -63.054zm71.424 0q0 7.254 5.301 12.555t12.555 5.301h892.8q7.254 0 12.555 -5.301t5.301 -12.555v-678.528q0 -7.254 -5.301 -12.555t-12.555 -5.301h-892.8q-7.254 0 -12.555 5.301t-5.301 12.555v678.528zm71.424 -53.568v-107.136l178.56 -178.56 89.28 89.28 285.696 -285.696 232.128 232.128v249.984h-785.664zm0 -464.256q0 -44.64 31.248 -75.888t75.888 -31.248 75.888 31.248 31.248 75.888 -31.248 75.888 -75.888 31.248 -75.888 -31.248 -31.248 -75.888z"/></svg>