<svg height="1000px" width="899.90234375px" xmlns="http://www.w3.org/2000/svg">
  <g>
    <path d="M0 818.84765625c0 0 0 -637.695 0 -637.695c0 -15.3 5.534 -28.483 16.602 -39.551c11.067 -11.068 24.251 -16.602 39.55 -16.602c0 0 788.086 0 788.086 0c15.3 0 28.402 5.534 39.307 16.602c10.905 11.068 16.357 24.251 16.357 39.551c0 0 0 637.695 0 637.695c0 15.299 -5.452 28.483 -16.357 39.551c-10.905 11.067 -24.007 16.601 -39.307 16.601c0 0 -788.086 0 -788.086 0c-15.299 0 -28.483 -5.534 -39.55 -16.601c-11.068 -11.068 -16.602 -24.252 -16.602 -39.551c0 0 0 0 0 0m75.195 -19.043c0 0 750 0 750 0c0 0 0 -599.609 0 -599.609c0 0 -750 0 -750 0c0 0 0 599.609 0 599.609c0 0 0 0 0 0m74.707 -74.707c0 0 0 -51.27 0 -51.27c0 0 135.254 -175.781 135.254 -175.781c0 0 91.797 76.172 91.797 76.172c0 0 172.852 -262.207 172.852 -262.207c0 0 200.195 207.031 200.195 207.031c0 0 0 206.055 0 206.055c0 0 -600.098 0 -600.098 0c0 0 0 0 0 0m0 -374.023c0 -21.485 7.325 -39.551 21.973 -54.2c14.648 -14.648 32.715 -21.972 54.199 -21.972c20.508 0 38.086 7.324 52.735 21.972c14.648 14.649 21.972 32.715 21.972 54.2c0 20.507 -7.324 38.086 -21.972 52.734c-14.649 14.648 -32.227 21.973 -52.735 21.973c-21.484 0 -39.551 -7.325 -54.199 -21.973c-14.648 -14.648 -21.973 -32.227 -21.973 -52.734c0 0 0 0 0 0" />
  </g>
</svg>