<svg height="1000" width="1071.4" xmlns="http://www.w3.org/2000/svg"><path d="M0 839.3v-678.5q0-36.8 26.2-63.1t63.1-26.2h892.8q36.8 0 63.1 26.2t26.2 63.1v678.5q0 36.8-26.2 63.1t-63.1 26.2h-892.8q-36.8 0-63.1-26.2t-26.2-63.1zm71.4 0q0 7.3 5.3 12.6t12.6 5.3h892.8q7.3 0 12.6-5.3t5.3-12.6v-678.5q0-7.3-5.3-12.6t-12.6-5.3h-892.8q-7.3 0-12.6 5.3t-5.3 12.6v678.5zm71.4-53.6v-107.1l178.6-178.6 89.3 89.3 285.7-285.7 232.1 232.1v250h-785.7zm0-464.3q0-44.6 31.2-75.9t75.9-31.2 75.9 31.2 31.2 75.9-31.2 75.9-75.9 31.2-75.9-31.2-31.2-75.9z"/></svg>