<svg height="1000" width="1072" xmlns="http://www.w3.org/2000/svg"><path d="M0 839.296l0-678.528q0-36.828 26.226-63.054t63.054-26.226l892.8 0q36.828 0 63.054 26.226t26.226 63.054l0 678.528q0 36.828-26.226 63.054t-63.054 26.226l-892.8 0q-36.828 0-63.054-26.226t-26.226-63.054zm71.424 0q0 7.254 5.301 12.555t12.555 5.301l892.8 0q7.254 0 12.555-5.301t5.301-12.555l0-678.528q0-7.254-5.301-12.555t-12.555-5.301l-892.8 0q-7.254 0-12.555 5.301t-5.301 12.555l0 678.528zm71.424-53.568l0-107.136l178.56-178.56 89.28 89.28 285.696-285.696 232.128 232.128l0 249.984l-785.664 0zm0-464.256q0-44.64 31.248-75.888t75.888-31.248 75.888 31.248 31.248 75.888-31.248 75.888-75.888 31.248-75.888-31.248-31.248-75.888z"/></svg>