<svg height="1000px" width="1071.4285714285716px" xmlns="http://www.w3.org/2000/svg">
  <g>
    <path d="M0 839.2857142857142c0 0 0 -678.571 0 -678.571c0 -24.554 8.743 -45.573 26.228 -63.058c17.485 -17.486 38.504 -26.228 63.058 -26.228c0 0 892.857 0 892.857 0c24.553 0 45.573 8.742 63.058 26.228c17.485 17.485 26.228 38.504 26.228 63.058c0 0 0 678.571 0 678.571c0 24.554 -8.743 45.573 -26.228 63.058c-17.485 17.485 -38.505 26.228 -63.058 26.228c0 0 -892.857 0 -892.857 0c-24.554 0 -45.573 -8.743 -63.058 -26.228c-17.485 -17.485 -26.228 -38.504 -26.228 -63.058c0 0 0 0 0 0m71.429 0c0 4.836 1.767 9.022 5.301 12.556c3.534 3.534 7.719 5.301 12.556 5.301c0 0 892.857 0 892.857 0c4.836 0 9.021 -1.767 12.556 -5.301c3.534 -3.534 5.301 -7.72 5.301 -12.556c0 0 0 -678.571 0 -678.571c0 -4.837 -1.767 -9.022 -5.301 -12.556c-3.535 -3.534 -7.72 -5.302 -12.556 -5.302c0 0 -892.857 0 -892.857 0c-4.837 0 -9.022 1.768 -12.556 5.302c-3.534 3.534 -5.301 7.719 -5.301 12.556c0 0 0 678.571 0 678.571c0 0 0 0 0 0m71.428 -53.571c0 0 0 -107.143 0 -107.143c0 0 178.572 -178.572 178.572 -178.572c0 0 89.285 89.286 89.285 89.286c0 0 285.715 -285.714 285.715 -285.714c0 0 232.142 232.143 232.142 232.143c0 0 0 250 0 250c0 0 -785.714 0 -785.714 0c0 0 0 0 0 0m0 -464.286c0 -29.762 10.417 -55.06 31.25 -75.893c20.833 -20.833 46.131 -31.25 75.893 -31.25c29.762 0 55.06 10.417 75.893 31.25c20.833 20.833 31.25 46.131 31.25 75.893c0 29.762 -10.417 55.059 -31.25 75.893c-20.833 20.833 -46.131 31.25 -75.893 31.25c-29.762 0 -55.06 -10.417 -75.893 -31.25c-20.833 -20.834 -31.25 -46.131 -31.25 -75.893c0 0 0 0 0 0" />
  </g>
</svg>