<svg height="1000" width="1071.4" xmlns="http://www.w3.org/2000/svg"><path d="M357.1 321.4q0 44.7 -31.2 75.9T250 428.6t-75.9 -31.3 -31.2 -75.9 31.2 -75.9T250 214.3t75.9 31.2 31.2 75.9zm571.5 214.3v250H142.9V678.6L321.4 500l89.3 89.3L696.4 303.6zm53.5 -392.8H89.3q-7.3 0 -12.6 5.3t-5.3 12.5v678.6q0 7.2 5.3 12.5t12.6 5.3h892.8q7.3 0 12.6 -5.3t5.3 -12.5V160.7q0 -7.2 -5.3 -12.5t-12.6 -5.3zm89.3 17.8v678.6q0 36.8 -26.2 63t-63.1 26.3H89.3q-36.8 0 -63.1 -26.3T0 839.3V160.7q0 -36.8 26.2 -63T89.3 71.4h892.8q36.9 0 63.1 26.3t26.2 63z"/></svg>