<svg height="1000px" width="900px" xmlns="http://www.w3.org/2000/svg">
  <g>
    <path d="M0 819c0 0 0 -638 0 -638c0 -15.333 5.5 -28.5 16.5 -39.5c11 -11 24.167 -16.5 39.5 -16.5c0 0 788 0 788 0c15.333 0 28.5 5.5 39.5 16.5c11 11 16.5 24.167 16.5 39.5c0 0 0 638 0 638c0 15.333 -5.5 28.5 -16.5 39.5c-11 11 -24.167 16.5 -39.5 16.5c0 0 -788 0 -788 0c-15.333 0 -28.5 -5.5 -39.5 -16.5c-11 -11 -16.5 -24.167 -16.5 -39.5c0 0 0 0 0 0m75 -19c0 0 750 0 750 0c0 0 0 -600 0 -600c0 0 -750 0 -750 0c0 0 0 600 0 600c0 0 0 0 0 0m75 -75c0 0 0 -51 0 -51c0 0 135 -176 135 -176c0 0 92 76 92 76c0 0 173 -262 173 -262c0 0 200 207 200 207c0 0 0 206 0 206c0 0 -600 0 -600 0c0 0 0 0 0 0m0 -374c0 -21.333 7.333 -39.333 22 -54c14.667 -14.667 32.667 -22 54 -22c20.667 0 38.333 7.333 53 22c14.667 14.667 22 32.667 22 54c0 20.667 -7.333 38.333 -22 53c-14.667 14.667 -32.333 22 -53 22c-21.333 0 -39.333 -7.333 -54 -22c-14.667 -14.667 -22 -32.333 -22 -53c0 0 0 0 0 0" />
  </g>
</svg>