<svg height="1000" width="1137.3" xmlns="http://www.w3.org/2000/svg"><path d="M681.9 518.4q41.9 -1.7 80.1 11.5t65.8 32.6 56.4 52.7 46.9 60.3 42.1 67.2q18.4 31.3 43.8 60.9t42.2 44.9 55.2 49.4q-26.8 16.7 -60.5 32.1t-77.3 32.9 -63.7 26.5q-24.5 -20.7 -41.2 -64.2t-24.3 -91.8T829 732.7t-23.8 -94T764.8 570t-68.4 -27l-5.6 1.1 -3.3 2.2q2.2 2.8 7.3 7.8 3.3 2.8 15.6 13.1t14.2 12.3 10.6 10.1 10.1 11.4 6.4 11.7 5.8 15.4 2.5 17.3 2.3 22.6l.5 18.4q.6 14.5 -1.4 32.1t-4.1 29 -7 32.6 -6.4 29.6q-19.6 -.5 -56.4 5.3t-54.7 5.9q-21.8 0 -40.2 -5.6 -1.1 -8.9 -1.1 -26.2 0 -41.3 1.7 -53.6 1.1 -7.3 17.6 -23.2t31.8 -32.9 14.8 -28.7q-13.4 -1.1 -24 13.4 -20.1 29.5 -62.3 55.5T495 745.5q-14 0 -42.2 -35.1t-59.4 -77.9 -46.9 -53.8q-3.3 -2.2 -15 -16.8 -269 62.5 -286.3 62.5 -8.9 0 -15.6 -6.1t-6.7 -15.1q0 -8.3 4.7 -14.8t12.6 -8l271.2 -59.2q-4.5 -7.8 -4.5 -13.9t3.1 -9.8 8.9 -6.4 11.2 -3.9 12.8 -2.5 10.3 -2.6q2.3 -.5 8.7 -4.1t9.8 -3.7q8.3 0 15.6 9t11.1 18.4q91 -20.7 96 -20.7 9.5 0 16.5 6.2t7 15.6q0 8.4 -4.8 14.5t-13.1 7.8l-101.6 22.3 -.5 9q-.6 14.5 45.5 65.5t58.3 51.1q26.2 0 66.4 -44.7t40.2 -71.9q0 -20.1 -13.2 -29.6t-28.4 -10.3T538.2 510t-13.1 -18.9q0 -9 5.6 -19l-38 -10.6q24 -24.6 24 -65.3 0 -14.5 -2.7 -32.4 45.7 -8.9 80.3 -8.9 24.6 0 39.9 .8t27.1 4.8 17.3 7.5 11.4 13.7 8.7 18.7 9.4 26.5 13.4 33.5l27.9 -14q-1.6 22.4 -12.8 33.5t-23.7 11.7 -22.3 3.7 -9.2 11.4zm33.5 -131.1q-2.8 -2.8 -7.5 -8.7t-6.7 -8.1 -5.9 -6.4 -5.6 -5.8l-4.4 -4.5t-4.8 -4.2 -4.4 -2.8 -4.8 -2.5q-3.9 -1.7 -8.1 -2.8t-11.4 -1.4 -12.3 -.3h-39.1q-70.3 0 -121 24 8.9 -16.7 20 -25.9t30.2 -16.5 36.5 -20.1T591.8 281t27.9 -30.7T644 222.1q6.7 5 15.6 17.6t17.9 20.3 21.2 7.3l6.7 -.6v42.5l12.2 .5q137.9 -53 207.1 -106 15.6 -11.7 27.9 -21.8T976.3 161t18.4 -17.3 16.5 -19 13.4 -17.3 13.6 -20.6 12.9 -21.2 15 -26.5 16.5 -29.6l3.9 -5q-1.1 29.5 -24 77.5 -44.1 92.1 -114.4 147.4t-170.8 79.2q-7.8 1.7 -23.4 4.2t-27.9 5.3 -21.8 7.8q1.7 10.6 13.7 25.7t12 18.9q0 6.2 -14.5 16.8zM592.1 901.2q21.7 -14.5 73.4 -26.5t81.7 -12q5 0 12.6 8.7t15.6 23.7 14.5 27.9 13.4 28.5 8.1 18.4Q743.9 995 675.2 995q-34 0 -69.7 -6.2zm-133.4 -361l26.8 -6.7 60.8 98.8L505.6 659zm279.6 288.5q1.7 8.4 1.7 8.9 0 3.9 -9.8 8.1t-25.7 7.3 -30.1 5.3 -29.9 4.1 -17.8 2.6l-3.9 -24q11.7 -1.2 33.7 -4.8t40.2 -5.6 33.8 -1.9h7.8zm-255 -350.5l-53.6 11.2 -3.4 -9.5q5.6 -.5 18.2 -3.9t19.2 -3.3q10.6 0 19.6 5.5zM592.1 832h17.3l5.6 46.3 -22.9 6.7v-53zM1088.2 .6V0v.6zm0 0l-.6 2.7 -1.1 1.2 .6 -1.7zm0 0l.5 -.6z"/></svg>