<svg height="1000" width="857.143" xmlns="http://www.w3.org/2000/svg"><path d="M583.668 569.224q0 35.712 -21.204 60.822t-50.778 25.11q-23.994 0 -39.06 -8.37v-154.566q15.624 -9.486 39.06 -9.486 29.574 0 50.778 25.389t21.204 61.101zm-191.394 -238.824q0 35.712 -21.204 61.101t-50.778 25.389q-23.994 0 -39.06 -8.37v-154.566q15.624 -9.486 39.06 -9.486 29.574 0 50.778 25.11t21.204 60.822zm313.596 240.498q0 -74.772 -49.104 -127.782t-118.854 -53.01q-11.16 0 -21.762 1.674 -12.834 43.524 -43.524 75.888 -48.546 53.01 -117.738 56.358v354.888l117.738 -22.878v-114.948q28.458 10.602 65.286 10.602 69.75 0 118.854 -53.01t49.104 -127.782zm-191.394 -238.266q0 -74.772 -49.383 -127.782t-119.133 -53.01q-41.292 0 -78.678 20.088h-103.788v468.72l117.738 -22.878v-114.948q30.69 10.602 64.728 10.602 69.75 0 119.133 -53.01t49.383 -127.782zm342.612 -100.44v535.68q0 66.402 -47.151 113.553t-113.553 47.151h-535.68q-66.402 0 -113.553 -47.151t-47.151 -113.553v-535.68q0 -66.402 47.151 -113.553t113.553 -47.151h535.68q66.402 0 113.553 47.151t47.151 113.553z"/></svg>