<svg height="1000" width="1137.277" xmlns="http://www.w3.org/2000/svg"><path d="M681.876 518.446q41.85 -1.674 80.073 11.439t65.844 32.643 56.358 52.731 46.872 60.264 42.129 67.239q18.414 31.248 43.803 60.822t42.129 44.919 55.242 49.383q-26.784 16.74 -60.543 32.085t-77.283 32.922 -63.612 26.505q-24.552 -20.646 -41.292 -64.17t-24.273 -91.791 -18.414 -100.719 -23.715 -94.023 -40.455 -68.634 -68.355 -27.063l-5.58 1.116 -3.348 2.232q2.232 2.79 7.254 7.812 3.348 2.79 15.624 13.113t14.229 12.276 10.602 10.044 10.044 11.439 6.417 11.718 5.859 15.345 2.511 17.298 2.232 22.599l.558 18.414q.558 14.508 -1.395 32.085t-4.185 29.016 -6.975 32.643 -6.417 29.574q-19.53 -.558 -56.358 5.301t-54.684 5.859q-21.762 0 -40.176 -5.58 -1.116 -8.928 -1.116 -26.226 0 -41.292 1.674 -53.568 1.116 -7.254 17.577 -23.157t31.806 -32.922 14.787 -28.737q-13.392 -1.116 -23.994 13.392 -20.088 29.574 -62.217 55.521t-76.167 25.947q-13.95 0 -42.129 -35.154t-59.427 -77.841 -46.872 -53.847q-3.348 -2.232 -15.066 -16.74 -268.956 62.496 -286.254 62.496 -8.928 0 -15.624 -6.138t-6.696 -15.066q0 -8.37 4.743 -14.787t12.555 -8.091l271.188 -59.148q-4.464 -7.812 -4.464 -13.95t3.069 -9.765 8.928 -6.417 11.16 -3.906 12.834 -2.511 10.323 -2.511q2.232 -.558 8.649 -4.185t9.765 -3.627q8.37 0 15.624 8.928t11.16 18.414q90.954 -20.646 95.976 -20.646 9.486 0 16.461 6.138t6.975 15.624q0 8.37 -4.743 14.508t-13.113 7.812l-101.556 22.32 -.558 8.928q-.558 14.508 45.477 65.565t58.311 51.057q26.226 0 66.402 -44.64t40.176 -71.982q0 -20.088 -13.113 -29.574t-28.458 -10.323 -28.458 -6.417 -13.113 -18.972q0 -8.928 5.58 -18.972l-37.944 -10.602q23.994 -24.552 23.994 -65.286 0 -14.508 -2.79 -32.364 45.756 -8.928 80.352 -8.928 24.552 0 39.897 .837t27.063 4.743 17.298 7.533 11.439 13.671 8.649 18.693 9.486 26.505 13.392 33.48l27.9 -13.95q-1.674 22.32 -12.834 33.48t-23.715 11.718 -22.32 3.627 -9.207 11.439zm33.48 -131.13q-2.79 -2.79 -7.533 -8.649t-6.696 -8.091 -5.859 -6.417 -5.58 -5.859l-4.464 -4.464t-4.743 -4.185 -4.464 -2.79 -4.743 -2.511q-3.906 -1.674 -8.091 -2.79t-11.439 -1.395 -12.276 -.279h-39.06q-70.308 0 -121.086 23.994 8.928 -16.74 20.088 -25.947t30.132 -16.461 36.549 -20.088 25.668 -20.367 27.9 -30.69 24.273 -28.179q6.696 5.022 15.624 17.577t17.856 20.367 21.204 7.254l6.696 -.558v42.408l12.276 .558q137.826 -53.01 207.018 -106.02 15.624 -11.718 27.9 -21.762t23.715 -20.925 18.414 -17.298 16.461 -18.972 13.392 -17.298 13.671 -20.646 12.834 -21.204 15.066 -26.505 16.461 -29.574l3.906 -5.022q-1.116 29.574 -23.994 77.562 -44.082 92.07 -114.39 147.312t-170.748 79.236q-7.812 1.674 -23.436 4.185t-27.9 5.301 -21.762 7.812q1.674 10.602 13.671 25.668t11.997 18.972q0 6.138 -14.508 16.74zm-123.318 513.918q21.762 -14.508 73.377 -26.505t81.747 -11.997q5.022 0 12.555 8.649t15.624 23.715 14.508 27.9 13.392 28.458 8.091 18.414q-67.518 25.11 -136.152 25.11 -34.038 0 -69.75 -6.138zm-133.362 -361.026l26.784 -6.696 60.822 98.766 -40.734 26.784zm279.558 288.486q1.674 8.37 1.674 8.928 0 3.906 -9.765 8.091t-25.668 7.254 -30.132 5.301 -29.853 4.185 -17.856 2.511l-3.906 -23.994q11.718 -1.116 33.759 -4.743t40.176 -5.58 33.759 -1.953h7.812zm-255.006 -350.424l-53.568 11.16 -3.348 -9.486q5.58 -.558 18.135 -3.906t19.251 -3.348q10.602 0 19.53 5.58zm108.81 353.772h17.298l5.58 46.314 -22.878 6.696v-53.01zm496.062 -831.42v0zm0 0l-.558 2.79 -1.116 1.116 .558 -1.674zm0 0l.558 -.558z"/></svg>