<svg height="1000" width="857.1" xmlns="http://www.w3.org/2000/svg"><path d="M583.7 569.2q0 35.7 -21.2 60.8t-50.8 25.1q-24 0 -39 -8.3V492.2q15.6 -9.5 39 -9.5 29.6 0 50.8 25.4t21.2 61.1zM392.3 330.4q0 35.7 -21.2 61.1t-50.8 25.4q-24 0 -39 -8.4V253.9q15.6 -9.5 39 -9.5 29.6 0 50.8 25.1t21.2 60.9zm313.6 240.5q0 -74.8 -49.1 -127.8t-118.9 -53q-11.1 0 -21.7 1.6 -12.9 43.6 -43.5 75.9 -48.6 53 -117.8 56.4v354.9L472.7 856V741.1q28.4 10.6 65.2 10.6 69.8 0 118.9 -53t49.1 -127.8zM514.5 332.6q0 -74.8 -49.4 -127.8T346 151.8q-41.3 0 -78.7 20.1H163.5v468.7l117.8 -22.9V502.8q30.6 10.6 64.7 10.6 69.7 0 119.1 -53t49.4 -127.8zM857.1 232.1v535.8q0 66.4 -47.1 113.5t-113.6 47.2H160.7q-66.4 0 -113.5 -47.2T0 767.9V232.1Q0 165.7 47.2 118.6T160.7 71.4h535.7q66.4 0 113.6 47.2t47.1 113.5z"/></svg>