<svg height="1000" width="1285.7" xmlns="http://www.w3.org/2000/svg"><path d="M1285.7 0q-38.5 25.7 -69.7 51.3t-49.7 45.2 -33.2 39.9 -20.9 32.1 -12.3 24.9 -7.8 16.4q-5.6 10.1 -19.8 76.2t-27.1 91.8q-8.4 16.2 -27.9 33.8t-37.7 28.1 -40.4 22.9 -26.8 15.6q-26.2 17.3 -84.3 128.9 -190.3 -7.8 -351.5 88.2 -51.4 29.6 -169.1 99.9 26.2 -8.9 48 -17.3t30.7 -12.3l8.3 -3.9q39.7 -15 91 -36T560 695.9t60.3 -19.3T699.8 659q103.8 -17.3 259.5 3.9 .5 0 5.5 1.7 6.2 3.4 7.9 9.5t-1.7 12.3L862.7 878.9q-8.3 16.2 -26.2 12.3Q765.1 877.8 639 877.8q-81.5 0 -224.4 24.8t-218.7 26q-45.8 .5 -83.2 -7.3T53 900.7 19 878.3 .6 859.4l-.6 -.6v-1.1q0 -3.3 3.3 -3.3 77.1 0 207.1 -30.7 107.1 -204.3 209 -292.4t214 -88.2q2.8 0 8.1 .3t21.2 2.7 30.7 6.7 34.3 13.7 35.1 22.1 30.2 32.9 22.3 46l56.9 -98.8q1.1 -2.2 11.7 -23.7t24.9 -48.2 34 -61.1 46.9 -74.5 56.1 -76.5q36.8 -45.7 71.4 -79T1185 51.9 1236.6 22t49.1 -22z"/></svg>