<svg height="1000" width="643" xmlns="http://www.w3.org/2000/svg"><path d="M0 678.592q0-68.634 43.803-123.597t99.045-54.963l0-285.696q-29.016 0-50.22-21.204t-21.204-50.22 21.204-50.22 50.22-21.204l357.12 0q29.016 0 50.22 21.204t21.204 50.22-21.204 50.22-50.22 21.204l0 285.696q55.242 0 99.045 54.963t43.803 123.597q0 14.508-10.602 25.11t-25.11 10.602l-239.382 0l-28.458 269.514q-1.116 6.696-5.859 11.439t-11.439 4.743l-.558 0q-15.066 0-17.856-15.066l-42.408-270.63l-225.432 0q-14.508 0-25.11-10.602t-10.602-25.11zm232.128-196.416q0 7.812 5.022 12.834t12.834 5.022 12.834-5.022 5.022-12.834l0-249.984q0-7.812-5.022-12.834t-12.834-5.022-12.834 5.022-5.022 12.834l0 249.984z"/></svg>