<svg height="1000px" width="642.8571428571429px" xmlns="http://www.w3.org/2000/svg">
  <g>
    <path d="M0 678.5714285714286c0 -45.759 14.602 -86.961 43.806 -123.605c29.204 -36.644 62.221 -54.966 99.051 -54.966c0 0 0 -285.715 0 -285.715c-19.345 0 -36.086 -7.068 -50.223 -21.205c-14.137 -14.137 -21.205 -30.878 -21.205 -50.223c0 -19.346 7.068 -36.087 21.205 -50.224c14.137 -14.136 30.878 -21.205 50.223 -21.205c0 0 357.143 0 357.143 0c19.345 0 36.086 7.069 50.223 21.205c14.137 14.137 21.206 30.878 21.206 50.224c0 19.345 -7.069 36.086 -21.206 50.223c-14.137 14.137 -30.878 21.205 -50.223 21.205c0 0 0 285.715 0 285.715c36.83 0 69.847 18.322 99.051 54.966c29.204 36.644 43.806 77.846 43.806 123.605c0 9.673 -3.534 18.043 -10.603 25.112c-7.068 7.068 -15.439 10.602 -25.111 10.602c0 0 -239.397 0 -239.397 0c0 0 -28.46 269.532 -28.46 269.532c-1.86 10.788 -7.627 16.183 -17.299 16.183c0 0 -0.558 0 -0.558 0c-10.045 0 -15.997 -5.023 -17.858 -15.067c0 0 -42.41 -270.648 -42.41 -270.648c0 0 -225.447 0 -225.447 0c-9.672 0 -18.043 -3.534 -25.111 -10.602c-7.069 -7.069 -10.603 -15.439 -10.603 -25.112c0 0 0 0 0 0m232.143 -196.429c0 5.209 1.674 9.487 5.022 12.835c3.348 3.348 7.627 5.023 12.835 5.023c5.208 0 9.487 -1.675 12.835 -5.023c3.348 -3.348 5.022 -7.626 5.022 -12.835c0 0 0 -250 0 -250c0 -5.208 -1.674 -9.486 -5.022 -12.834c-3.348 -3.349 -7.627 -5.023 -12.835 -5.023c-5.208 0 -9.487 1.674 -12.835 5.023c-3.348 3.348 -5.022 7.626 -5.022 12.834c0 0 0 250 0 250c0 0 0 0 0 0" />
  </g>
</svg>