<svg height="1000" width="642.857" xmlns="http://www.w3.org/2000/svg"><path d="M267.84 482.176v-249.984q0 -7.812 -5.022 -12.834t-12.834 -5.022 -12.834 5.022 -5.022 12.834v249.984q0 7.812 5.022 12.834t12.834 5.022 12.834 -5.022 5.022 -12.834zm374.976 196.416q0 14.508 -10.602 25.11t-25.11 10.602h-239.382l-28.458 269.514q-1.116 6.696 -5.859 11.439t-11.439 4.743h-.558q-15.066 0 -17.856 -15.066l-42.408 -270.63h-225.432q-14.508 0 -25.11 -10.602t-10.602 -25.11q0 -68.634 43.803 -123.597t99.045 -54.963v-285.696q-29.016 0 -50.22 -21.204t-21.204 -50.22 21.204 -50.22 50.22 -21.204h357.12q29.016 0 50.22 21.204t21.204 50.22 -21.204 50.22 -50.22 21.204v285.696q55.242 0 99.045 54.963t43.803 123.597z"/></svg>