<svg height="1000px" width="899.6666564941406px" xmlns="http://www.w3.org/2000/svg">
  <g>
    <path d="M0.5000000000000001 413.75830078125c2.667 -25.333 9.667 -52.167 21 -80.5c11.333 -28.333 27 -55.833 47 -82.5c20 -26.667 41.833 -49.5 65.5 -68.5c23.667 -19 47.5 -33.333 71.5 -43c24 -9.667 46.833 -14.333 68.5 -14c21.667 0.333 40.5 6.5 56.5 18.5c16.667 12 28.167 28.5 34.5 49.5c6.333 21 8.167 44.5 5.5 70.5c0 0 141 105 141 105c34.667 -19.333 68.5 -30.5 101.5 -33.5c33 -3 61.167 4.167 84.5 21.5c16.667 12.667 29.167 29.5 37.5 50.5c8.333 21 12.167 44.5 11.5 70.5c-0.667 26 -5.5 53.833 -14.5 83.5c-9 29.667 -22.167 59.167 -39.5 88.5c0 0 201 193 201 193c3.333 3.333 5.333 7.333 6 12c0.667 4.667 -0.667 8.667 -4 12c-3.333 5.333 -8.333 8 -15 8c-2 0 -5 -0.667 -9 -2c0 0 -242 -138 -242 -138c-23.333 24.667 -47.833 45.667 -73.5 63c-25.667 17.333 -50.833 30 -75.5 38c-24.667 8 -48.333 11.167 -71 9.5c-22.667 -1.667 -42.667 -9.167 -60 -22.5c-23.333 -17.333 -38.333 -42.167 -45 -74.5c-6.667 -32.333 -5.333 -67.833 4 -106.5c0 0 -141 -106 -141 -106c-24 10 -47 15 -69 15c-22 0 -41.333 -6 -58 -18c-16 -12 -27.333 -28.5 -34 -49.5c-6.667 -21 -8.667 -44.167 -6 -69.5c0 0 0 0 0 0m79 43.5c0.667 5 3.333 9.167 8 12.5c5.333 4.667 12.667 7 22 7c10 0 20.5 -2.667 31.5 -8c11 -5.333 22.167 -12.667 33.5 -22c11.333 -9.333 22.5 -19.833 33.5 -31.5c11 -11.667 21.5 -24.167 31.5 -37.5c3.333 -4 4.667 -8.5 4 -13.5c-0.667 -5 -3.333 -9.167 -8 -12.5c-4 -3.333 -8.5 -4.667 -13.5 -4c-5 0.667 -9.167 3.333 -12.5 8c-24.667 32.667 -46.5 55.167 -65.5 67.5c-19 12.333 -30.5 17.833 -34.5 16.5c-4 -3.333 -8.5 -4.667 -13.5 -4c-5 0.667 -9.167 3.333 -12.5 8c-3.333 4 -4.667 8.5 -4 13.5c0 0 0 0 0 0m139 49.5c0 0 170 127 170 127c4 2.667 7.667 4 11 4c6.667 0 11.667 -2.667 15 -8c3.333 -4 4.667 -8.5 4 -13.5c-0.667 -5 -3 -9.167 -7 -12.5c0 0 -163 -121 -163 -121c-10 9.333 -20 17.333 -30 24c0 0 0 0 0 0m174 227c-6.667 10.667 -5.333 19.667 4 27c8.667 6.667 19.667 10 33 10c12.667 0 26.333 -3.333 41 -10c14.667 -6.667 29.5 -15.667 44.5 -27c15 -11.333 29.833 -24.333 44.5 -39c14.667 -14.667 28.333 -30.333 41 -47c3.333 -4.667 4.667 -9.5 4 -14.5c-0.667 -5 -3.333 -9.167 -8 -12.5c-4 -3.333 -8.5 -4.5 -13.5 -3.5c-5 1 -9.167 3.5 -12.5 7.5c-16 21.333 -32 39.5 -48 54.5c-16 15 -31 26.833 -45 35.5c-14 8.667 -26.167 14.333 -36.5 17c-10.333 2.667 -17.833 2 -22.5 -2c-4 -3.333 -8.5 -4.5 -13.5 -3.5c-5 1 -9.167 3.5 -12.5 7.5c0 0 0 0 0 0" />
  </g>
</svg>