<svg height="1000" width="642.9" xmlns="http://www.w3.org/2000/svg"><path d="M267.9 482.1v-250q0 -7.8 -5.1 -12.8t-12.8 -5 -12.8 5 -5.1 12.8v250q0 7.9 5.1 12.9t12.8 5 12.8 -5 5.1 -12.9zm375 196.5q0 14.5 -10.6 25.1t-25.2 10.6H367.7l-28.4 269.5q-1.1 6.7 -5.9 11.5T322 1000h-.6q-15 0 -17.8 -15.1L261.2 714.3H35.7q-14.5 0 -25.1 -10.6T0 678.6Q0 609.9 43.8 555t99.1 -55V214.3q-29.1 0 -50.3 -21.2T71.4 142.9 92.6 92.6t50.3 -21.2H500q29 0 50.2 21.2t21.2 50.3 -21.2 50.2T500 214.3V500q55.2 0 99.1 55t43.8 123.6z"/></svg>