<svg height="1000px" width="935.546875px" xmlns="http://www.w3.org/2000/svg">
  <g>
    <path d="M0.9765625 411.376953125c2.604 -26.693 9.928 -54.688 21.973 -83.984c12.044 -29.297 28.32 -57.943 48.828 -85.938c20.508 -27.995 43.131 -52.002 67.871 -72.021c24.739 -20.02 49.479 -35.075 74.219 -45.166c24.739 -10.092 48.421 -14.974 71.045 -14.649c22.623 0.326 42.399 6.836 59.326 19.531c17.252 13.347 29.215 30.844 35.888 52.491c6.674 21.647 8.708 45.817 6.104 72.509c0 0 146.973 109.864 146.973 109.864c36.132 -20.508 71.126 -32.39 104.98 -35.645c33.854 -3.255 63.151 4.395 87.891 22.949c17.903 13.347 31.006 31.006 39.306 52.979c8.301 21.973 12.126 46.468 11.475 73.486c-0.651 27.018 -5.615 55.827 -14.893 86.426c-9.277 30.599 -22.868 61.198 -40.771 91.797c0 0 208.984 200.195 208.984 200.195c8.138 8.138 8.789 16.765 1.953 25.879c-3.906 5.208 -9.277 7.975 -16.113 8.301c-3.255 0 -6.185 -0.977 -8.789 -2.93c0 0 -252.441 -143.066 -252.441 -143.066c-24.089 26.041 -49.398 48.014 -75.928 65.918c-26.53 17.903 -52.816 31.006 -78.858 39.306c-26.041 8.301 -50.699 11.475 -73.974 9.522c-23.275 -1.953 -44.027 -9.603 -62.256 -22.949c-24.74 -17.904 -40.202 -43.701 -46.387 -77.393c-6.185 -33.691 -4.72 -70.882 4.395 -111.572c0 0 -147.949 -108.887 -147.949 -108.887c-24.74 10.742 -48.422 15.951 -71.045 15.625c-22.624 -0.325 -42.562 -6.836 -59.815 -19.531c-16.601 -12.695 -28.402 -29.704 -35.4 -51.026c-6.999 -21.321 -9.196 -45.328 -6.592 -72.021c0 0 0 0 0 0m82.52 44.678c0.976 5.371 3.418 9.847 7.324 13.427c6.836 4.558 14.974 6.836 24.414 6.836c10.091 0 20.752 -2.848 31.982 -8.545c11.231 -5.696 22.868 -13.183 34.912 -22.46c12.045 -9.278 23.845 -20.101 35.401 -32.471c11.556 -12.37 22.379 -25.228 32.47 -38.574c3.256 -4.558 4.395 -9.522 3.418 -14.893c-0.976 -5.371 -3.418 -9.684 -7.324 -12.939c-4.557 -3.256 -9.521 -4.639 -14.892 -4.151c-5.371 0.488 -9.847 3.174 -13.428 8.057c-25.391 33.854 -47.852 57.129 -67.383 69.824c-19.531 12.695 -31.25 18.392 -35.156 17.09c-4.557 -3.255 -9.603 -4.395 -15.137 -3.418c-5.534 0.976 -9.928 3.418 -13.183 7.324c-3.256 4.557 -4.395 9.522 -3.418 14.893c0 0 0 0 0 0m143.554 51.025c0 0 177.735 132.324 177.735 132.324c2.604 2.605 6.347 3.907 11.23 3.907c6.51 0 11.882 -2.767 16.113 -8.301c3.256 -4.557 4.558 -9.359 3.907 -14.404c-0.651 -5.046 -3.256 -9.196 -7.813 -12.452c0 0 -169.433 -125.976 -169.433 -125.976c-5.209 4.557 -10.499 9.033 -15.87 13.428c-5.371 4.394 -10.66 8.219 -15.869 11.474c0 0 0 0 0 0m177.979 251.221c0.488 5.371 3.174 9.684 8.056 12.939c9.44 7.487 20.671 11.231 33.692 11.231c13.346 0 27.75 -3.5 43.213 -10.498c15.462 -6.999 31.006 -16.358 46.631 -28.076c15.625 -11.719 30.924 -25.472 45.898 -41.26c14.974 -15.788 29.134 -32.308 42.48 -49.561c3.256 -3.906 4.558 -8.545 3.907 -13.916c-0.651 -5.371 -3.256 -9.684 -7.813 -12.939c-3.906 -3.255 -8.545 -4.558 -13.916 -3.907c-5.371 0.652 -9.684 3.256 -12.939 7.813c-16.602 22.135 -33.285 41.016 -50.049 56.641c-16.764 15.625 -32.308 27.913 -46.631 36.865c-14.323 8.952 -27.018 14.811 -38.086 17.578c-11.068 2.767 -18.88 2.034 -23.437 -2.197c-4.558 -3.255 -9.359 -4.395 -14.405 -3.418c-5.045 0.976 -9.196 3.906 -12.451 8.789c-3.255 3.906 -4.639 8.545 -4.15 13.916c0 0 0 0 0 0" />
  </g>
</svg>