<svg height="1000" width="857.143" xmlns="http://www.w3.org/2000/svg"><path d="M696.384 71.488q66.402 0 113.553 47.151t47.151 113.553v535.68q0 66.402 -47.151 113.553t-113.553 47.151h-404.55q47.43 -68.076 60.264 -117.18 5.022 -18.972 29.574 -116.622 11.718 21.762 41.013 37.386t62.775 15.624q100.998 0 164.889 -82.305t63.891 -208.413q0 -46.872 -19.53 -90.675t-53.847 -77.562 -85.095 -54.126 -109.926 -20.367q-58.032 0 -108.531 15.903t-85.374 42.687 -59.985 61.101 -37.107 71.424 -11.997 73.935q0 56.916 22.041 100.44t65.007 61.38q7.254 2.79 13.113 0t8.091 -10.602q5.58 -24.552 8.37 -34.038 3.348 -12.834 -6.138 -23.436 -27.9 -34.596 -27.9 -83.7 0 -83.7 57.753 -143.127t150.939 -59.427q83.142 0 129.735 45.198t46.593 117.18q0 93.744 -37.665 159.588t-96.813 65.844q-33.48 0 -54.126 -24.273t-12.834 -57.753q4.464 -18.972 14.787 -51.615t16.461 -56.916 6.138 -41.571q0 -27.342 -14.787 -45.477t-42.129 -18.135q-34.038 0 -57.753 31.527t-23.715 77.841q0 40.176 13.392 67.518l-54.684 231.012q-13.392 55.8 -3.906 141.732h-102.114q-66.402 0 -113.553 -47.151t-47.151 -113.553v-535.68q0 -66.402 47.151 -113.553t113.553 -47.151h535.68z"/></svg>