<svg height="1000px" width="857.1428571428571px" xmlns="http://www.w3.org/2000/svg">
  <g>
    <path d="M0 767.8571428571428c0 0 0 -535.714 0 -535.714c0 -44.271 15.718 -82.125 47.154 -113.561c31.436 -31.436 69.289 -47.154 113.56 -47.154c0 0 535.715 0 535.715 0c44.27 0 82.124 15.718 113.56 47.154c31.436 31.436 47.154 69.29 47.154 113.561c0 0 0 535.714 0 535.714c0 44.271 -15.718 82.124 -47.154 113.56c-31.436 31.436 -69.29 47.154 -113.56 47.154c0 0 -404.576 0 -404.576 0c31.622 -45.387 51.711 -84.449 60.268 -117.187c3.348 -12.649 13.206 -51.526 29.575 -116.63c7.813 14.509 21.485 26.972 41.016 37.389c19.531 10.416 40.458 15.625 62.779 15.625c67.336 0 122.303 -27.437 164.9 -82.311c42.596 -54.873 63.895 -124.349 63.895 -208.426c0 -31.25 -6.511 -61.477 -19.532 -90.681c-13.02 -29.204 -30.971 -55.059 -53.85 -77.567c-22.879 -22.507 -51.246 -40.55 -85.1 -54.129c-33.855 -13.579 -70.499 -20.368 -109.933 -20.368c-38.691 0 -74.87 5.301 -108.538 15.904c-33.669 10.602 -62.128 24.832 -85.38 42.689c-23.251 17.857 -43.248 38.226 -59.989 61.105c-16.741 22.88 -29.111 46.689 -37.109 71.429c-7.999 24.739 -11.998 49.386 -11.998 73.94c0 37.946 7.348 71.428 22.043 100.446c14.694 29.018 36.365 49.479 65.011 61.384c4.836 1.86 9.207 1.86 13.114 0c3.906 -1.86 6.603 -5.394 8.091 -10.603c3.72 -16.369 6.51 -27.716 8.371 -34.04c2.232 -8.557 0.186 -16.369 -6.139 -23.437c-18.601 -23.066 -27.902 -50.968 -27.902 -83.706c0 -55.803 19.253 -103.515 57.757 -143.136c38.505 -39.621 88.821 -59.431 150.949 -59.431c55.431 0 98.679 15.067 129.743 45.201c31.064 30.134 46.596 69.197 46.596 117.188c0 62.5 -12.556 115.699 -37.667 159.598c-25.112 43.899 -57.385 65.848 -96.82 65.848c-22.321 0 -40.364 -8.091 -54.129 -24.275c-13.765 -16.183 -18.043 -35.435 -12.835 -57.756c2.976 -12.649 7.906 -29.855 14.788 -51.619c6.883 -21.763 12.37 -40.736 16.462 -56.919c4.092 -16.183 6.139 -30.041 6.139 -41.574c0 -18.229 -4.93 -33.389 -14.788 -45.48c-9.859 -12.091 -23.903 -18.136 -42.132 -18.136c-22.694 0 -41.946 10.51 -57.757 31.529c-15.811 21.019 -23.716 46.968 -23.716 77.846c0 26.786 4.464 49.293 13.393 67.522c0 0 -54.688 231.027 -54.688 231.027c-8.928 37.203 -10.231 84.45 -3.906 141.741c0 0 -102.121 0 -102.121 0c-44.271 0 -82.124 -15.718 -113.56 -47.154c-31.436 -31.436 -47.154 -69.289 -47.154 -113.56c0 0 0 0 0 0" />
  </g>
</svg>