<svg height="1000" width="857.1" xmlns="http://www.w3.org/2000/svg"><path d="M0 767.9v-535.7q0-66.4 47.2-113.6t113.6-47.2h535.7q66.4 0 113.6 47.2t47.2 113.6v535.7q0 66.4-47.2 113.6t-113.6 47.2h-404.6q47.4-68.1 60.3-117.2 5-19 29.6-116.6 11.7 21.8 41 37.4t62.8 15.6q101 0 164.9-82.3t63.9-208.4q0-46.9-19.5-90.7t-53.8-77.6-85.1-54.1-109.9-20.4q-58 0-108.5 15.9t-85.4 42.7-60 61.1-37.1 71.4-12 73.9q0 56.9 22 100.4t65 61.4q7.3 2.8 13.1 0t8.1-10.6q5.6-24.6 8.4-34 3.3-12.8-6.1-23.4-27.9-34.6-27.9-83.7 0-83.7 57.8-143.1t150.9-59.4q83.1 0 129.7 45.2t46.6 117.2q0 93.7-37.7 159.6t-96.8 65.8q-33.5 0-54.1-24.3t-12.8-57.8q4.5-19 14.8-51.6t16.5-56.9 6.1-41.6q0-27.3-14.8-45.5t-42.1-18.1q-34 0-57.8 31.5t-23.7 77.8q0 40.2 13.4 67.5l-54.7 231q-13.4 55.8-3.9 141.7h-102.1q-66.4 0-113.6-47.2t-47.2-113.6z"/></svg>