<svg height="1000px" width="779.78515625px" xmlns="http://www.w3.org/2000/svg">
  <g>
    <path d="M0 500c0 -54.036 10.173 -104.736 30.518 -152.1c20.345 -47.363 48.177 -88.704 83.496 -124.023c35.319 -35.319 76.66 -63.151 124.023 -83.496c47.363 -20.345 98.063 -30.518 152.1 -30.518c54.036 0 104.655 10.173 151.855 30.518c47.201 20.345 88.542 48.177 124.024 83.496c35.481 35.319 63.313 76.66 83.496 124.023c20.182 47.364 30.273 98.064 30.273 152.1c0 54.036 -10.091 104.736 -30.273 152.1c-20.183 47.363 -48.015 88.704 -83.496 124.023c-35.482 35.319 -76.823 63.151 -124.024 83.496c-47.2 20.345 -97.819 30.518 -151.855 30.518c-19.206 0 -38.005 -1.384 -56.397 -4.151c-18.392 -2.767 -36.702 -6.754 -54.931 -11.963c7.487 -11.393 15.055 -24.414 22.705 -39.062c7.649 -14.649 13.427 -29.622 17.334 -44.922c0 0 5.371 -20.019 5.371 -20.019c1.953 -7.487 4.557 -18.23 7.812 -32.227c3.255 -13.997 7.976 -32.227 14.16 -54.688c7.487 13.347 19.857 24.821 37.11 34.424c17.252 9.603 36.458 14.405 57.617 14.405c31.25 0 59.896 -6.674 85.937 -20.02c26.042 -13.346 48.259 -31.982 66.651 -55.908c18.392 -23.926 32.715 -52.246 42.969 -84.961c10.254 -32.715 15.38 -68.115 15.38 -106.201c0 -28.646 -5.778 -56.478 -17.334 -83.496c-11.556 -27.019 -28.238 -51.026 -50.048 -72.022c-21.81 -20.996 -47.852 -37.597 -78.125 -49.805c-30.274 -12.207 -64.128 -18.31 -101.563 -18.31c-45.898 0 -86.344 7.487 -121.338 22.461c-34.993 14.974 -64.127 34.261 -87.402 57.861c-23.275 23.6 -40.772 49.724 -52.49 78.369c-11.719 28.646 -17.578 56.966 -17.578 84.961c0 33.854 6.51 64.372 19.531 91.553c13.021 27.181 33.203 46.305 60.547 57.373c10.091 3.255 16.764 0 20.019 -9.766c0.651 -3.255 1.791 -8.382 3.418 -15.38c1.628 -6.999 3.093 -12.289 4.395 -15.87c1.302 -5.208 1.465 -8.951 0.488 -11.23c-0.977 -2.279 -3.092 -5.859 -6.348 -10.742c-17.252 -19.206 -25.879 -44.434 -25.879 -75.684c0 -24.739 4.476 -48.421 13.428 -71.045c8.952 -22.623 21.729 -42.48 38.33 -59.57c16.602 -17.09 36.784 -30.762 60.547 -41.016c23.763 -10.254 50.293 -15.381 79.59 -15.381c26.042 0 49.235 3.825 69.58 11.475c20.345 7.65 37.516 18.148 51.514 31.494c13.997 13.347 24.495 28.972 31.494 46.875c6.999 17.904 10.498 37.598 10.498 59.082c0 27.995 -3.011 54.688 -9.033 80.078c-6.022 25.391 -14.567 47.526 -25.635 66.407c-11.068 18.88 -24.089 33.854 -39.063 44.921c-14.974 11.068 -31.738 16.602 -50.293 16.602c-10.091 0 -19.449 -2.034 -28.076 -6.103c-8.626 -4.069 -15.95 -9.603 -21.972 -16.602c-6.022 -6.999 -10.173 -14.974 -12.452 -23.926c-2.278 -8.952 -2.115 -18.799 0.489 -29.541c5.859 -24.739 13.102 -49.398 21.728 -73.974c8.627 -24.577 12.94 -45.817 12.94 -63.721c0 -15.951 -4.313 -29.623 -12.94 -41.016c-8.626 -11.393 -21.891 -17.09 -39.795 -17.09c-21.484 0 -39.388 9.522 -53.711 28.565c-14.323 19.043 -21.484 42.887 -21.484 71.533c-0.651 7.487 -0.325 14.811 0.977 21.973c0.651 5.859 1.871 12.451 3.662 19.775c1.79 7.324 4.313 14.079 7.568 20.264c-10.742 45.898 -19.45 82.519 -26.123 109.863c-6.673 27.344 -11.637 48.665 -14.893 63.965c-3.906 17.904 -6.836 30.924 -8.789 39.062c-3.255 14.649 -5.452 29.786 -6.591 45.411c-1.14 15.625 -1.384 30.11 -0.733 43.457c-33.854 -14.649 -65.104 -34.099 -93.75 -58.35c-28.646 -24.251 -53.304 -51.758 -73.974 -82.52c-20.671 -30.761 -36.703 -64.453 -48.096 -101.074c-11.393 -36.621 -17.09 -74.951 -17.09 -114.99c0 0 0 0 0 0" />
  </g>
</svg>