<svg height="1000px" width="857.1428571428571px" xmlns="http://www.w3.org/2000/svg">
  <g>
    <path d="M696.4285714285714 71.42857142857133c44.271 0 82.124 15.718 113.56 47.154c31.436 31.436 47.154 69.289 47.154 113.56c0 0 0 535.715 0 535.715c0 44.27 -15.718 82.124 -47.154 113.56c-31.436 31.436 -69.289 47.154 -113.56 47.154c0 0 -404.576 0 -404.576 0c31.622 -45.387 51.711 -84.45 60.268 -117.188c3.348 -12.648 13.207 -51.525 29.576 -116.629c7.812 14.509 21.484 26.972 41.015 37.388c19.532 10.417 40.458 15.625 62.779 15.625c67.337 0 122.303 -27.436 164.9 -82.31c42.597 -54.873 63.895 -124.349 63.895 -208.426c0 -63.616 -24.553 -119.606 -73.661 -167.969c-23.065 -22.322 -51.432 -40.365 -85.1 -54.13c-33.668 -13.764 -70.034 -20.647 -109.096 -20.647c-39.063 0 -75.428 5.301 -109.096 15.904c-33.668 10.603 -62.128 24.833 -85.379 42.69c-23.252 17.485 -43.248 37.76 -59.989 60.826c-32.738 44.643 -49.107 93.192 -49.107 145.647c0 37.947 7.347 71.429 22.042 100.447c14.695 29.017 36.365 49.479 65.011 61.383c10.789 4.093 17.857 0.558 21.206 -10.602c3.72 -16.369 6.603 -28.274 8.649 -35.715c2.046 -7.44 -0.093 -14.694 -6.417 -21.763c-18.602 -23.065 -27.902 -50.967 -27.902 -83.705c0 -55.804 19.252 -103.516 57.757 -143.136c38.504 -39.621 87.146 -59.431 145.926 -59.431c58.78 0 103.702 15.067 134.766 45.201c31.064 30.134 46.596 69.196 46.596 117.187c0 62.5 -12.556 115.7 -37.668 159.598c-25.112 43.899 -57.385 65.849 -96.819 65.849c-22.322 0 -40.365 -8.092 -54.13 -24.275c-13.764 -16.183 -18.043 -35.435 -12.834 -57.757c3.348 -12.648 8.37 -29.762 15.067 -51.339c14.881 -47.619 22.321 -80.543 22.321 -98.772c0 -18.229 -4.929 -33.389 -14.788 -45.48c-9.859 -12.091 -25.019 -18.136 -45.48 -18.136c-20.461 0 -38.597 10.509 -54.408 31.529c-15.811 21.019 -23.717 45.945 -23.717 74.776c0 28.832 4.464 52.363 13.393 70.592c0 0 -54.687 231.027 -54.687 231.027c-8.929 37.202 -10.231 84.449 -3.907 141.741c0 0 -102.12 0 -102.12 0c-44.271 0 -82.125 -15.718 -113.561 -47.154c-31.436 -31.436 -47.154 -69.29 -47.154 -113.56c0 0 0 -535.715 0 -535.715c0 -44.271 15.718 -82.124 47.154 -113.56c31.436 -31.436 69.29 -47.154 113.561 -47.154c0 0 535.714 0 535.714 0c0 0 0 0 0 0" />
  </g>
</svg>