<svg height="1000" width="857.1" xmlns="http://www.w3.org/2000/svg"><path d="M0 500q0-116.6 57.5-215.1t156-156 215.1-57.5 215.1 57.5 156 156 57.5 215.1-57.5 215.1-156 156-215.1 57.5q-61.9 0-121.6-17.9 32.9-51.9 43.5-91.5 5-19 30.1-117.7 11.2 21.8 40.7 37.7t63.6 15.9q67.5 0 120.5-38.2t82-105.2 29-150.7q0-63.6-33.2-119.4t-96.3-91-142.3-35.2q-58.6 0-109.4 16.2t-86.2 43-60.8 61.7-37.4 72.3-12 74.8q0 58 22.3 102.1t65.3 61.9q16.7 6.7 21.2-11.2 1.1-3.9 4.5-17.3t4.5-16.7q3.3-12.8-6.1-24-28.5-34-28.5-84.3 0-84.3 58.3-144.8t152.6-60.5q84.3 0 131.4 45.8t47.2 118.9q0 94.9-38.2 161.3t-97.9 66.4q-34 0-54.7-24.3t-12.8-58.3q4.5-19.5 14.8-52.2t16.7-57.5 6.4-42.1q0-27.9-15.1-46.3t-43-18.4q-34.6 0-58.6 31.8t-24 79.2q0 40.7 14 68.1l-55.2 233.2q-9.5 39.1-7.3 98.8-114.9-50.8-185.8-156.8t-70.9-236z"/></svg>