<svg height="1000px" width="750px" xmlns="http://www.w3.org/2000/svg">
  <g>
    <path d="M0 780.76171875c0 0 0 -561.523 0 -561.523c0 -12.696 2.523 -24.903 7.568 -36.622c5.046 -11.718 11.719 -21.728 20.02 -30.029c8.301 -8.301 18.148 -14.974 29.541 -20.019c11.393 -5.046 23.763 -7.569 37.109 -7.569c0 0 561.524 0 561.524 0c26.041 0 48.258 9.196 66.65 27.588c18.392 18.392 27.588 40.609 27.588 66.651c0 0 0 561.523 0 561.523c0 13.346 -2.523 25.716 -7.568 37.109c-5.046 11.394 -11.719 21.241 -20.02 29.541c-8.301 8.301 -18.31 14.974 -30.029 20.02c-11.719 5.045 -23.926 7.568 -36.621 7.568c0 0 -404.785 0 -404.785 0c8.789 -12.695 18.473 -28.239 29.052 -46.631c10.58 -18.392 18.636 -37.516 24.17 -57.373c0 0 4.883 -20.019 4.883 -20.019c1.953 -8.138 4.801 -19.206 8.545 -33.203c3.743 -13.998 8.545 -32.227 14.404 -54.688c6.511 13.347 18.799 24.821 36.865 34.424c18.067 9.603 37.842 14.404 59.327 14.404c31.25 0 59.895 -6.836 85.937 -20.507c26.042 -13.672 48.34 -32.471 66.895 -56.397c18.554 -23.926 33.04 -52.409 43.457 -85.449c10.416 -33.041 15.625 -68.929 15.625 -107.666c0 -29.297 -6.022 -57.455 -18.067 -84.473c-12.044 -27.018 -28.89 -51.025 -50.537 -72.021c-21.647 -20.996 -47.851 -37.679 -78.613 -50.049c-30.762 -12.37 -64.697 -18.555 -101.807 -18.555c-46.549 0 -87.402 7.569 -122.558 22.705c-35.157 15.137 -64.535 34.668 -88.135 58.594c-23.6 23.926 -41.26 50.374 -52.979 79.346c-11.718 28.971 -17.578 57.454 -17.578 85.449c0 33.854 6.511 64.534 19.532 92.041c13.02 27.506 33.203 46.794 60.546 57.861c4.558 1.953 8.708 2.116 12.452 0.489c3.743 -1.628 6.266 -5.046 7.568 -10.254c1.302 -3.256 2.604 -8.383 3.906 -15.381c1.302 -6.999 2.604 -12.614 3.906 -16.846c2.605 -7.487 0.651 -14.486 -5.859 -20.996c-7.487 -9.44 -13.509 -20.426 -18.066 -32.959c-4.558 -12.533 -6.836 -27.425 -6.836 -44.678c0 -24.739 4.476 -48.421 13.427 -71.045c8.952 -22.623 21.81 -42.643 38.575 -60.058c16.764 -17.416 36.946 -31.25 60.547 -41.504c23.6 -10.254 50.374 -15.381 80.322 -15.381c26.693 0 50.211 3.825 70.556 11.475c20.346 7.649 37.517 18.147 51.514 31.494c13.998 13.346 24.496 29.134 31.494 47.363c6.999 18.229 10.498 38.411 10.498 60.547c0 27.995 -3.011 54.687 -9.033 80.078c-6.022 25.391 -14.486 47.526 -25.391 66.406c-10.904 18.88 -24.088 34.017 -39.55 45.41c-15.463 11.394 -32.471 17.09 -51.026 17.09c-10.091 0 -19.45 -2.034 -28.076 -6.103c-8.626 -4.069 -15.95 -9.603 -21.973 -16.602c-6.022 -6.999 -10.172 -14.974 -12.451 -23.926c-2.278 -8.951 -2.116 -18.798 0.489 -29.541c5.859 -25.39 13.183 -50.537 21.972 -75.439c8.789 -24.902 13.184 -46.305 13.184 -64.209c0 -15.951 -4.313 -29.785 -12.94 -41.504c-8.626 -11.719 -22.054 -17.578 -40.283 -17.578c-21.484 0 -39.469 9.603 -53.955 28.809c-14.486 19.205 -21.728 43.619 -21.728 73.242c-0.651 7.487 -0.326 14.811 0.976 21.972c1.302 13.998 4.883 27.67 10.742 41.016c-11.393 45.898 -20.263 82.682 -26.611 110.352c-6.348 27.669 -11.149 49.153 -14.404 64.453c-3.907 17.903 -6.836 30.924 -8.789 39.062c-5.209 22.787 -7.487 45.98 -6.836 69.58c0.651 23.6 1.627 42.725 2.929 57.373c0 0 -126.953 0 -126.953 0c-26.041 0 -48.258 -9.196 -66.65 -27.588c-18.392 -18.392 -27.588 -40.608 -27.588 -66.65c0 0 0 0 0 0" />
  </g>
</svg>