<svg height="1000" width="714.286" xmlns="http://www.w3.org/2000/svg"><path d="M0 333.19q0 -60.264 20.925 -113.553t57.753 -92.907 84.816 -68.634 103.23 -43.524 112.716 -14.508q88.164 0 164.052 37.107t123.318 107.973 47.43 160.146q0 53.568 -10.602 104.904t-33.48 98.766 -55.8 83.421 -80.91 57.474 -105.462 21.483q-37.944 0 -75.33 -17.856t-53.568 -49.104q-5.58 21.762 -15.624 62.775t-13.113 53.01 -11.439 39.618 -14.508 39.618 -17.856 34.875 -25.668 43.245 -34.596 48.267l-7.812 2.79 -5.022 -5.58q-8.37 -87.606 -8.37 -104.904 0 -51.336 11.997 -115.227t37.107 -160.425 29.016 -113.274q-17.856 -36.27 -17.856 -94.302 0 -46.314 29.016 -87.048t73.656 -40.734q34.038 0 53.01 22.599t18.972 57.195q0 36.828 -24.552 106.578t-24.552 104.346q0 35.154 25.11 58.311t60.822 23.157q30.69 0 56.916 -13.95t43.803 -37.944 31.248 -53.01 21.204 -61.659 11.16 -61.938 3.627 -55.521q0 -96.534 -61.101 -150.381t-159.309 -53.847q-111.6 0 -186.372 72.261t-74.772 183.303q0 24.552 6.975 47.43t15.066 36.27 15.066 25.389 6.975 17.019q0 15.624 -8.37 40.734t-20.646 25.11q-1.116 0 -9.486 -1.674 -28.458 -8.37 -50.499 -31.248t-34.038 -52.731 -18.135 -60.264 -6.138 -59.427z"/></svg>