<svg height="1000px" width="857.1428571428571px" xmlns="http://www.w3.org/2000/svg">
  <g>
    <path d="M0 499.99999999999994c0 -77.753 19.159 -149.461 57.478 -215.123c38.318 -65.662 90.308 -117.652 155.971 -155.971c65.662 -38.318 137.369 -57.477 215.122 -57.477c77.753 0 149.461 19.159 215.123 57.477c65.662 38.319 117.653 90.309 155.971 155.971c38.319 65.662 57.478 137.37 57.478 215.123c0 77.753 -19.159 149.461 -57.478 215.123c-38.318 65.662 -90.309 117.652 -155.971 155.971c-65.662 38.318 -137.37 57.477 -215.123 57.477c-41.294 0 -81.845 -5.952 -121.651 -17.857c21.949 -34.598 36.458 -65.104 43.526 -91.518c3.349 -12.648 13.393 -51.897 30.134 -117.745c7.441 14.509 21.02 27.065 40.737 37.667c19.717 10.603 40.923 15.904 63.616 15.904c45.015 0 85.193 -12.741 120.536 -38.225c35.342 -25.484 62.686 -60.547 82.031 -105.19c19.345 -44.643 29.018 -94.866 29.018 -150.67c0 -42.41 -11.068 -82.217 -33.203 -119.419c-22.136 -37.203 -54.223 -67.522 -96.261 -90.96c-42.039 -23.437 -89.472 -35.156 -142.3 -35.156c-39.062 0 -75.52 5.394 -109.375 16.183c-33.854 10.789 -62.593 25.111 -86.216 42.969c-23.624 17.857 -43.899 38.411 -60.826 61.663c-16.927 23.251 -29.39 47.34 -37.388 72.265c-7.999 24.926 -11.998 49.851 -11.998 74.777c0 38.69 7.44 72.731 22.321 102.12c14.881 29.39 36.645 50.038 65.29 61.942c11.161 4.465 18.23 0.744 21.206 -11.16c0.744 -2.604 2.232 -8.371 4.464 -17.299c2.232 -8.929 3.72 -14.509 4.464 -16.741c2.233 -8.557 0.186 -16.556 -6.138 -23.996c-18.973 -22.693 -28.46 -50.781 -28.46 -84.263c0 -56.176 19.438 -104.446 58.315 -144.811c38.876 -40.364 89.751 -60.547 152.623 -60.547c56.175 0 99.981 15.253 131.417 45.759c31.436 30.506 47.154 70.127 47.154 118.862c0 63.244 -12.742 117.001 -38.225 161.272c-25.484 44.271 -58.129 66.407 -97.936 66.407c-22.693 0 -40.922 -8.092 -54.687 -24.275c-13.765 -16.183 -18.043 -35.621 -12.835 -58.315c2.976 -13.021 7.906 -30.413 14.788 -52.176c6.882 -21.763 12.463 -40.923 16.741 -57.478c4.278 -16.555 6.418 -30.599 6.418 -42.131c0 -18.602 -5.023 -34.041 -15.067 -46.317c-10.045 -12.277 -24.368 -18.416 -42.969 -18.416c-23.066 0 -42.597 10.603 -58.594 31.808c-15.997 21.206 -23.995 47.62 -23.995 79.242c0 27.157 4.65 49.851 13.95 68.08c0 0 -55.245 233.259 -55.245 233.259c-6.325 26.041 -8.743 58.966 -7.255 98.772c-76.636 -33.854 -138.578 -86.123 -185.825 -156.808c-47.247 -70.684 -70.871 -149.367 -70.871 -236.049c0 0 0 0 0 0" />
  </g>
</svg>