<svg height="1000" width="857.143" xmlns="http://www.w3.org/2000/svg"><path d="M857.088 500.032q0 116.622 -57.474 215.109t-155.961 155.961 -215.109 57.474q-61.938 0 -121.644 -17.856 32.922 -51.894 43.524 -91.512 5.022 -18.972 30.132 -117.738 11.16 21.762 40.734 37.665t63.612 15.903q67.518 0 120.528 -38.223t82.026 -105.183 29.016 -150.66q0 -63.612 -33.201 -119.412t-96.255 -90.954 -142.29 -35.154q-58.59 0 -109.368 16.182t-86.211 42.966 -60.822 61.659 -37.386 72.261 -11.997 74.772q0 58.032 22.32 102.114t65.286 61.938q16.74 6.696 21.204 -11.16 1.116 -3.906 4.464 -17.298t4.464 -16.74q3.348 -12.834 -6.138 -23.994 -28.458 -34.038 -28.458 -84.258 0 -84.258 58.311 -144.801t152.613 -60.543q84.258 0 131.409 45.756t47.151 118.854q0 94.86 -38.223 161.262t-97.929 66.402q-34.038 0 -54.684 -24.273t-12.834 -58.311q4.464 -19.53 14.787 -52.173t16.74 -57.474 6.417 -42.129q0 -27.9 -15.066 -46.314t-42.966 -18.414q-34.596 0 -58.59 31.806t-23.994 79.236q0 40.734 13.95 68.076l-55.242 233.244q-9.486 39.06 -7.254 98.766 -114.948 -50.778 -185.814 -156.798t-70.866 -236.034q0 -116.622 57.474 -215.109t155.961 -155.961 215.109 -57.474 215.109 57.474 155.961 155.961 57.474 215.109z"/></svg>