<svg height="1000px" width="857.1428571428571px" xmlns="http://www.w3.org/2000/svg">
  <g>
    <path d="M857.1428571428571 499.99999999999994c0 77.753 -19.159 149.461 -57.478 215.123c-38.318 65.662 -90.308 117.652 -155.971 155.971c-65.662 38.318 -137.369 57.477 -215.122 57.477c-41.295 0 -81.846 -5.952 -121.652 -17.857c21.949 -34.598 35.528 -61.663 40.736 -81.194c5.209 -19.531 16.183 -62.221 32.925 -128.069c7.44 14.509 21.019 27.065 40.736 37.667c19.717 10.603 40.923 15.904 63.616 15.904c45.015 0 85.194 -12.741 120.536 -38.225c35.342 -25.484 62.686 -60.547 82.031 -105.19c19.345 -44.643 29.018 -91.518 29.018 -140.625c0 -49.107 -11.068 -92.262 -33.203 -129.464c-22.136 -37.203 -54.223 -67.522 -96.261 -90.96c-42.039 -23.437 -86.031 -35.156 -131.976 -35.156c-45.945 0 -85.844 5.394 -119.698 16.183c-33.855 10.789 -62.593 25.111 -86.217 42.969c-23.251 17.857 -43.434 38.318 -60.547 61.384c-32.738 45.386 -49.293 94.494 -49.665 147.321c0 38.69 7.441 72.731 22.321 102.12c14.881 29.39 36.645 50.038 65.291 61.942c11.16 4.465 18.229 0.744 21.205 -11.16c0.744 -2.604 2.232 -8.371 4.464 -17.299c2.232 -8.929 4.093 -16.09 5.581 -21.485c1.488 -5.394 -0.93 -11.812 -7.255 -19.252c-18.973 -22.693 -28.46 -50.781 -28.46 -84.263c0 -56.176 19.439 -104.446 58.315 -144.811c38.877 -40.364 88.077 -60.547 147.601 -60.547c59.523 0 105.003 15.253 136.439 45.759c31.436 30.506 47.154 70.127 47.154 118.862c0 63.244 -12.742 117.001 -38.225 161.272c-25.484 44.271 -58.129 66.407 -97.935 66.407c-22.694 0 -40.923 -8.092 -54.688 -24.275c-13.765 -16.183 -18.601 -33.203 -14.509 -51.06c4.464 -18.229 10.045 -38.133 16.741 -59.71c15.625 -48.735 23.345 -82.124 23.159 -100.167c-0.186 -18.044 -5.302 -33.204 -15.346 -45.48c-10.045 -12.277 -25.484 -18.416 -46.317 -18.416c-20.834 0 -39.249 10.603 -55.246 31.808c-15.997 21.206 -23.995 46.503 -23.995 75.893c0 29.39 4.65 53.2 13.951 71.429c0 0 -55.246 233.259 -55.246 233.259c-6.324 26.041 -8.743 58.966 -7.254 98.772c-76.637 -33.854 -138.579 -86.123 -185.826 -156.808c-47.247 -70.684 -70.871 -147.135 -70.871 -229.353c0 -82.217 19.159 -156.157 57.478 -221.819c38.318 -65.662 90.309 -117.652 155.971 -155.971c65.662 -38.318 137.37 -57.477 215.123 -57.477c77.753 0 149.46 19.159 215.122 57.477c65.663 38.319 117.653 90.309 155.971 155.971c38.319 65.662 57.478 137.37 57.478 215.123c0 0 0 0 0 0" />
  </g>
</svg>