<svg height="1000" width="714.3" xmlns="http://www.w3.org/2000/svg"><path d="M0 333.1Q0 272.9 20.9 219.6t57.8 -92.9T163.5 58 266.7 14.5 379.5 0q88.1 0 164 37.1t123.4 108 47.4 160.1q0 53.6 -10.6 105t-33.5 98.7 -55.8 83.5 -80.9 57.4T428 671.3q-37.9 0 -75.3 -17.8t-53.6 -49.1q-5.6 21.7 -15.6 62.7t-13.1 53 -11.5 39.7 -14.5 39.6 -17.8 34.9 -25.7 43.2 -34.6 48.3l-7.8 2.8 -5 -5.6q-8.4 -87.6 -8.4 -104.9 0 -51.4 12 -115.3t37.1 -160.4 29 -113.3q-17.8 -36.2 -17.8 -94.3 0 -46.3 29 -87T308 207q34.1 0 53 22.6t19 57.2q0 36.9 -24.5 106.6t-24.6 104.4q0 35.1 25.1 58.3t60.9 23.1q30.6 0 56.9 -13.9t43.8 -38 31.2 -53T570 412.7t11.2 -62 3.6 -55.5q0 -96.5 -61.1 -150.4T364.4 91Q252.8 91 178 163.2t-74.8 183.3q0 24.6 7 47.5t15.1 36.2 15 25.4 7 17.1q0 15.6 -8.3 40.7t-20.7 25.1q-1.1 0 -9.5 -1.7Q80.4 528.5 58.3 505.6t-34 -52.8T6.1 392.6 0 333.1z"/></svg>