<svg height="1000" width="857.1" xmlns="http://www.w3.org/2000/svg"><path d="M857.1 500q0 116.6 -57.4 215.1t-156 156 -215.1 57.5q-62 0 -121.7 -17.9 32.9 -51.9 43.5 -91.5 5.1 -19 30.2 -117.7 11.1 21.7 40.7 37.6t63.6 15.9q67.6 0 120.6 -38.2t82 -105.2 29 -150.7q0 -63.6 -33.2 -119.4t-96.2 -90.9T444.8 215.4q-58.6 0 -109.4 16.2t-86.2 43 -60.9 61.6 -37.4 72.3T139 483.3q0 58 22.3 102.1t65.3 61.9q16.7 6.7 21.2 -11.1 1.1 -3.9 4.4 -17.3t4.5 -16.8q3.3 -12.8 -6.1 -24 -28.5 -34 -28.5 -84.2 0 -84.3 58.3 -144.8T433 288.5q84.3 0 131.5 45.8t47.1 118.8q0 94.9 -38.2 161.3t-98 66.4q-34 0 -54.6 -24.3t-12.9 -58.3q4.5 -19.5 14.8 -52.2t16.8 -57.4 6.4 -42.2q0 -27.9 -15.1 -46.3t-43 -18.4q-34.6 0 -58.6 31.8t-24 79.2q0 40.8 14 68.1L264 794.1q-9.5 39 -7.3 98.8Q141.7 842.1 70.9 736T0 500Q0 383.4 57.5 284.9t155.9 -156T428.6 71.4t215.1 57.5 156 156T857.1 500z"/></svg>