<svg height="1000px" width="857.1428571428571px" xmlns="http://www.w3.org/2000/svg">
  <g>
    <path d="M0 767.8571428571428c0 0 0 -535.714 0 -535.714c0 -44.271 15.718 -82.125 47.154 -113.561c31.436 -31.436 69.289 -47.154 113.56 -47.154c0 0 535.715 0 535.715 0c44.27 0 82.124 15.718 113.56 47.154c31.436 31.436 47.154 69.29 47.154 113.561c0 0 0 535.714 0 535.714c0 44.271 -15.718 82.124 -47.154 113.56c-31.436 31.436 -69.29 47.154 -113.56 47.154c0 0 -404.576 0 -404.576 0c31.622 -45.387 51.711 -84.449 60.268 -117.187c3.348 -12.649 13.206 -51.526 29.575 -116.63c7.813 14.509 21.485 26.972 41.016 37.389c19.531 10.416 40.458 15.625 62.779 15.625c67.336 0 122.303 -27.437 164.9 -82.311c42.596 -54.873 63.895 -124.349 63.895 -208.426c0 -63.616 -24.554 -119.606 -73.661 -167.969c-23.065 -22.321 -51.432 -40.364 -85.1 -54.129c-33.669 -13.765 -70.034 -20.647 -109.096 -20.647c-39.063 0 -75.428 5.301 -109.096 15.904c-33.669 10.602 -62.128 24.832 -85.38 42.689c-23.251 17.485 -43.248 37.761 -59.989 60.826c-32.738 44.643 -49.107 93.192 -49.107 145.648c0 37.946 7.348 71.428 22.043 100.446c14.694 29.018 36.365 49.479 65.011 61.384c10.788 4.092 17.857 0.558 21.205 -10.603c3.72 -16.369 6.603 -28.274 8.65 -35.714c2.046 -7.441 -0.093 -14.695 -6.418 -21.763c-18.601 -23.066 -27.902 -50.968 -27.902 -83.706c0 -55.803 19.253 -103.515 57.757 -143.136c38.505 -39.621 87.147 -59.431 145.926 -59.431c58.78 0 103.702 15.067 134.766 45.201c31.064 30.134 46.596 69.197 46.596 117.188c0 62.5 -12.556 115.699 -37.667 159.598c-25.112 43.899 -57.385 65.848 -96.82 65.848c-22.321 0 -40.364 -8.091 -54.129 -24.275c-9.986 -11.74 -14.979 -25.096 -14.979 -40.068c0 -5.665 0.714 -11.561 2.144 -17.688c3.348 -12.649 8.371 -29.762 15.067 -51.34c14.881 -47.619 22.322 -80.543 22.322 -98.772c0 -18.229 -4.93 -33.389 -14.788 -45.48c-9.859 -12.091 -25.019 -18.136 -45.48 -18.136c-20.462 0 -38.598 10.51 -54.409 31.529c-15.811 21.019 -23.716 45.945 -23.716 74.777c0 28.832 4.464 52.362 13.393 70.591c0 0 -54.688 231.027 -54.688 231.027c-5.226 21.777 -7.84 46.996 -7.84 75.656c0 20.302 1.312 42.33 3.934 66.085c0 0 -102.121 0 -102.121 0c-44.271 0 -82.124 -15.718 -113.56 -47.154c-31.436 -31.436 -47.154 -69.289 -47.154 -113.56c0 0 0 0 0 0" />
  </g>
</svg>