<svg height="1000px" width="857.1428571428571px" xmlns="http://www.w3.org/2000/svg">
  <g>
    <path d="M0 506.69642857142856c0 -82.217 19.159 -156.157 57.478 -221.819c38.318 -65.662 90.308 -117.653 155.971 -155.971c65.662 -38.319 137.369 -57.478 215.122 -57.478c77.753 0 149.461 19.159 215.123 57.478c65.662 38.318 117.653 90.309 155.971 155.971c38.319 65.662 57.478 137.37 57.478 215.123c0 77.753 -19.159 149.46 -57.478 215.122c-38.318 65.663 -90.309 117.653 -155.971 155.971c-65.662 38.319 -137.37 57.478 -215.123 57.478c-41.294 0 -81.845 -5.952 -121.651 -17.857c21.949 -34.598 35.528 -61.663 40.736 -81.194c5.209 -19.532 16.183 -62.221 32.924 -128.07c7.441 14.509 21.02 27.065 40.737 37.668c19.717 10.603 40.923 15.904 63.616 15.904c45.015 0 85.193 -12.742 120.536 -38.226c35.342 -25.483 62.686 -60.546 82.031 -105.189c19.345 -44.643 29.018 -91.518 29.018 -140.625c0 -49.107 -11.068 -92.262 -33.203 -129.465c-22.136 -37.202 -54.223 -67.522 -96.261 -90.959c-42.039 -23.438 -86.031 -35.157 -131.976 -35.157c-45.945 0 -85.844 5.395 -119.699 16.183c-33.854 10.789 -62.593 25.112 -86.216 42.969c-23.252 17.857 -43.434 38.319 -60.547 61.384c-32.738 45.387 -49.293 94.494 -49.665 147.321c0 38.691 7.44 72.731 22.321 102.121c14.881 29.39 36.645 50.037 65.29 61.942c11.161 4.464 18.23 0.744 21.206 -11.161c0.744 -2.604 2.232 -8.37 4.464 -17.299c2.232 -8.928 4.092 -16.09 5.58 -21.484c1.489 -5.395 -0.93 -11.812 -7.254 -19.252c-18.973 -22.694 -28.46 -50.782 -28.46 -84.264c0 -56.175 19.438 -104.446 58.315 -144.81c38.876 -40.365 88.077 -60.547 147.6 -60.547c59.524 0 105.004 15.253 136.44 45.759c31.436 30.506 47.154 70.126 47.154 118.862c0 63.244 -12.742 117.001 -38.225 161.272c-25.484 44.271 -58.129 66.406 -97.936 66.406c-22.693 0 -40.922 -8.091 -54.687 -24.274c-10.61 -12.475 -15.916 -25.447 -15.916 -38.916c0 -4.004 0.469 -8.052 1.407 -12.145c4.464 -18.229 10.045 -38.132 16.741 -59.71c15.441 -48.161 23.162 -81.336 23.162 -99.523c-0.093 -18.358 -5.21 -33.732 -15.349 -46.124c-10.045 -12.276 -25.484 -18.415 -46.317 -18.415c-20.834 0 -39.249 10.603 -55.246 31.808c-15.997 21.206 -23.995 46.503 -23.995 75.893c0 29.39 4.65 53.2 13.95 71.429c0 0 -55.245 233.259 -55.245 233.259c-5.12 21.081 -7.68 46.672 -7.68 76.774c0 7.083 0.142 14.415 0.425 21.998c-76.636 -33.855 -138.578 -86.124 -185.825 -156.808c-47.247 -70.685 -70.871 -147.136 -70.871 -229.353c0 0 0 0 0 0" />
  </g>
</svg>