<svg height="1000px" width="785.7142857142858px" xmlns="http://www.w3.org/2000/svg">
  <g>
    <path d="M772.3214285714286 517.2991071428571c0 0 -741.071 411.83 -741.071 411.83c-8.557 4.837 -15.904 5.395 -22.043 1.674c-6.138 -3.72 -9.207 -10.416 -9.207 -20.089c0 0 0 -821.428 0 -821.428c0 -9.673 3.069 -16.369 9.207 -20.09c6.139 -3.72 13.486 -3.162 22.043 1.674c0 0 741.071 411.831 741.071 411.831c8.557 4.836 12.835 10.602 12.835 17.299c0 6.696 -4.278 12.463 -12.835 17.299c0 0 0 0 0 0" />
  </g>
</svg>