<svg height="1000px" width="658.69140625px" xmlns="http://www.w3.org/2000/svg">
  <g>
    <path d="M0 841.1865234375c0 0 0 -681.641 0 -681.641c0 -12.695 5.697 -22.461 17.09 -29.297c12.044 -7.486 23.275 -7.486 33.691 0c0 0 591.309 340.333 591.309 340.333c11.393 8.138 17.09 18.066 17.09 29.785c0 12.044 -5.697 21.972 -17.09 29.785c0 0 -591.309 340.332 -591.309 340.332c-5.208 3.255 -10.742 4.883 -16.601 4.883c-5.86 0 -11.556 -1.628 -17.09 -4.883c-11.393 -6.511 -17.09 -16.276 -17.09 -29.297c0 0 0 0 0 0" />
  </g>
</svg>