<svg height="1000" width="857.143" xmlns="http://www.w3.org/2000/svg"><path d="M428.544 71.488q116.622 0 215.109 57.474t155.961 155.961 57.474 215.109 -57.474 215.109 -155.961 155.961 -215.109 57.474 -215.109 -57.474 -155.961 -155.961 -57.474 -215.109 57.474 -215.109 155.961 -155.961 215.109 -57.474zm214.272 459.234q17.856 -10.044 17.856 -30.69t-17.856 -30.69l-303.552 -178.56q-17.298 -10.602 -35.712 -.558 -17.856 10.602 -17.856 31.248v357.12q0 20.646 17.856 31.248 8.928 4.464 17.856 4.464 9.486 0 17.856 -5.022z"/></svg>