<svg height="1000" width="857.1" xmlns="http://www.w3.org/2000/svg"><path d="M660.7 500q0 20.6 -17.8 30.7L339.3 709.3q-8.4 5 -17.9 5 -8.9 0 -17.8 -4.5 -17.9 -10.6 -17.9 -31.2V321.4q0 -20.6 17.9 -31.2 18.4 -10.1 35.7 .5l303.6 178.6q17.8 10.1 17.8 30.7zm71.4 0q0 -82.6 -40.7 -152.3T580.9 237.2 428.6 196.4t-152.4 40.8T165.7 347.7 125 500t40.7 152.3 110.5 110.5 152.4 40.8 152.3 -40.8T691.4 652.3 732.1 500zm125 0q0 116.6 -57.4 215.1t-156 156 -215.1 57.5T213.4 871.1 57.5 715.1 0 500 57.5 284.9t155.9 -156T428.6 71.4t215.1 57.5 156 156T857.1 500z"/></svg>