<svg height="1000" width="857.143" xmlns="http://www.w3.org/2000/svg"><path d="M660.672 500.032q0 20.646 -17.856 30.69l-303.552 178.56q-8.37 5.022 -17.856 5.022 -8.928 0 -17.856 -4.464 -17.856 -10.602 -17.856 -31.248v-357.12q0 -20.646 17.856 -31.248 18.414 -10.044 35.712 .558l303.552 178.56q17.856 10.044 17.856 30.69zm71.424 0q0 -82.584 -40.734 -152.334t-110.484 -110.484 -152.334 -40.734 -152.334 40.734 -110.484 110.484 -40.734 152.334 40.734 152.334 110.484 110.484 152.334 40.734 152.334 -40.734 110.484 -110.484 40.734 -152.334zm124.992 0q0 116.622 -57.474 215.109t-155.961 155.961 -215.109 57.474 -215.109 -57.474 -155.961 -155.961 -57.474 -215.109 57.474 -215.109 155.961 -155.961 215.109 -57.474 215.109 57.474 155.961 155.961 57.474 215.109z"/></svg>