<svg height="1000px" width="785.7142857142858px" xmlns="http://www.w3.org/2000/svg">
  <g>
    <path d="M0 910.7142857142857c0 0 0 -821.429 0 -821.429c0 -9.672 3.069 -16.369 9.208 -20.089c2.668 -1.617 5.566 -2.426 8.692 -2.426c4.064 0 8.514 1.367 13.35 4.1c0 0 741.071 411.831 741.071 411.831c8.557 4.836 12.835 10.602 12.835 17.299c0 6.696 -4.278 12.463 -12.835 17.299c0 0 -741.071 411.83 -741.071 411.83c-4.836 2.734 -9.286 4.101 -13.35 4.101c-3.126 0 -6.024 -0.809 -8.692 -2.427c-6.139 -3.72 -9.208 -10.416 -9.208 -20.089c0 0 0 0 0 0" />
  </g>
</svg>