<svg height="1000" width="857.143" xmlns="http://www.w3.org/2000/svg"><path d="M0 500.032q0 -116.622 57.474 -215.109t155.961 -155.961 215.109 -57.474 215.109 57.474 155.961 155.961 57.474 215.109 -57.474 215.109 -155.961 155.961 -215.109 57.474 -215.109 -57.474 -155.961 -155.961 -57.474 -215.109zm142.848 0q0 58.032 22.599 110.763t61.101 91.233 91.233 61.101 110.763 22.599 110.763 -22.599 91.233 -61.101 61.101 -91.233 22.599 -110.763 -22.599 -110.763 -61.101 -91.233 -91.233 -61.101 -110.763 -22.599 -110.763 22.599 -91.233 61.101 -61.101 91.233 -22.599 110.763zm142.848 160.704v-321.408q0 -20.646 17.856 -30.69 17.298 -11.16 35.154 -.558l285.696 160.704q18.414 10.602 18.414 31.248t-18.414 31.248l-285.696 160.704q-7.812 4.464 -17.298 4.464t-17.856 -5.022q-17.856 -10.044 -17.856 -30.69z"/></svg>