<svg height="1000" width="857.1" xmlns="http://www.w3.org/2000/svg"><path d="M0 500q0-116.6 57.5-215.1t156-156 215.1-57.5 215.1 57.5 156 156 57.5 215.1-57.5 215.1-156 156-215.1 57.5-215.1-57.5-156-156-57.5-215.1zm142.8 0q0 58 22.6 110.8t61.1 91.2 91.2 61.1 110.8 22.6 110.8-22.6 91.2-61.1 61.1-91.2 22.6-110.8-22.6-110.8-61.1-91.2-91.2-61.1-110.8-22.6-110.8 22.6-91.2 61.1-61.1 91.2-22.6 110.8zm142.8 160.7v-321.4q0-20.6 17.9-30.7 17.3-11.2 35.2-.6l285.7 160.7q18.4 10.6 18.4 31.2t-18.4 31.2l-285.7 160.7q-7.8 4.5-17.3 4.5t-17.9-5q-17.9-10-17.9-30.7z"/></svg>