<svg height="1000" width="1000" xmlns="http://www.w3.org/2000/svg"><path d="M979.29 252.838q20.646 20.646 20.646 50.22t-20.646 50.778l-223.758 223.2 83.7 83.7 -89.28 89.28q-90.954 90.954 -217.341 104.067t-229.617 -56.079l-201.996 201.996h-100.998v-100.998l201.996 -201.996q-69.192 -103.23 -56.079 -229.617t104.067 -217.341l89.28 -89.28 83.7 83.7 223.2 -223.758q21.204 -20.646 50.778 -20.646t50.22 20.646 20.646 50.499 -20.646 50.499l-223.2 223.758 130.572 130.572 223.758 -223.2q21.204 -20.646 50.778 -20.646t50.22 20.646z"/></svg>