<svg height="1000px" width="779.78515625px" xmlns="http://www.w3.org/2000/svg">
  <g>
    <path d="M0 500c0 -54.036 10.173 -104.736 30.518 -152.1c20.345 -47.363 48.177 -88.704 83.496 -124.023c35.319 -35.319 76.66 -63.151 124.023 -83.496c47.363 -20.345 98.063 -30.518 152.1 -30.518c54.036 0 104.655 10.173 151.855 30.518c47.201 20.345 88.542 48.177 124.024 83.496c35.481 35.319 63.313 76.66 83.496 124.023c20.182 47.364 30.273 98.064 30.273 152.1c0 54.036 -10.091 104.736 -30.273 152.1c-20.183 47.363 -48.015 88.704 -83.496 124.023c-35.482 35.319 -76.823 63.151 -124.024 83.496c-47.2 20.345 -97.819 30.518 -151.855 30.518c-54.037 0 -104.737 -10.173 -152.1 -30.518c-47.363 -20.345 -88.704 -48.177 -124.023 -83.496c-35.319 -35.319 -63.151 -76.66 -83.496 -124.023c-20.345 -47.364 -30.518 -98.064 -30.518 -152.1c0 0 0 0 0 0m165.039 39.063c0 10.742 5.371 16.113 16.113 16.113c0 0 152.832 0 152.832 0c0 0 0 167.969 0 167.969c0 10.742 5.371 15.95 16.114 15.625c0 0 80.078 0 80.078 0c10.742 0 15.95 -5.209 15.625 -15.625c0 0 0 -167.969 0 -167.969c0 0 153.32 0 153.32 0c3.906 0 7.568 -1.546 10.986 -4.639c3.418 -3.092 5.127 -6.917 5.127 -11.474c0 0 0 -77.149 0 -77.149c0 -4.557 -1.709 -8.382 -5.127 -11.475c-3.418 -3.092 -7.08 -4.638 -10.986 -4.638c0 0 -153.32 0 -153.32 0c0 0 0 -168.946 0 -168.946c0 -10.742 -5.209 -15.95 -15.625 -15.625c0 0 -80.078 0 -80.078 0c-10.743 0 -16.114 5.209 -16.114 15.625c0 0 0 168.946 0 168.946c0 0 -152.832 0 -152.832 0c-10.742 0 -16.113 5.371 -16.113 16.113c0 0 0 77.149 0 77.149c0 0 0 0 0 0" />
  </g>
</svg>