<svg height="1000" width="857.1" xmlns="http://www.w3.org/2000/svg"><path d="M0 500q0-116.6 57.5-215.1t156-156 215.1-57.5 215.1 57.5 156 156 57.5 215.1-57.5 215.1-156 156-215.1 57.5-215.1-57.5-156-156-57.5-215.1zm178.6 35.7q0 14.5 10.6 25.1t25.1 10.6h142.8v142.8q0 14.5 10.6 25.1t25.1 10.6h71.4q14.5 0 25.1-10.6t10.6-25.1v-142.8h142.8q14.5 0 25.1-10.6t10.6-25.1v-71.4q0-14.5-10.6-25.1t-25.1-10.6h-142.8v-142.8q0-14.5-10.6-25.1t-25.1-10.6h-71.4q-14.5 0-25.1 10.6t-10.6 25.1v142.8h-142.8q-14.5 0-25.1 10.6t-10.6 25.1v71.4z"/></svg>