<svg height="1000px" width="750px" xmlns="http://www.w3.org/2000/svg">
  <g>
    <path d="M0 500c0 -52 9.833 -100.667 29.5 -146c19.667 -45.333 46.5 -85 80.5 -119c34 -34 73.667 -60.833 119 -80.5c45.333 -19.667 94 -29.5 146 -29.5c52 0 100.667 9.833 146 29.5c45.333 19.667 85 46.5 119 80.5c34 34 60.833 73.667 80.5 119c19.667 45.333 29.5 94 29.5 146c0 52 -9.833 100.667 -29.5 146c-19.667 45.333 -46.5 85 -80.5 119c-34 34 -73.667 60.833 -119 80.5c-45.333 19.667 -94 29.5 -146 29.5c-52 0 -100.667 -9.833 -146 -29.5c-45.333 -19.667 -85 -46.5 -119 -80.5c-34 -34 -60.833 -73.667 -80.5 -119c-19.667 -45.333 -29.5 -94 -29.5 -146c0 0 0 0 0 0m159 37c0 4.667 1.5 8.5 4.5 11.5c3 3 6.5 4.5 10.5 4.5c0 0 147 0 147 0c0 0 0 161 0 161c0 4.667 1.5 8.5 4.5 11.5c3 3 6.5 4.5 10.5 4.5c0 0 78 0 78 0c4 0 7.5 -1.5 10.5 -4.5c3 -3 4.5 -6.833 4.5 -11.5c0 0 0 -161 0 -161c0 0 147 0 147 0c4 0 7.5 -1.5 10.5 -4.5c3 -3 4.5 -6.833 4.5 -11.5c0 0 0 -74 0 -74c0 -4 -1.5 -7.5 -4.5 -10.5c-3 -3 -6.5 -4.5 -10.5 -4.5c0 0 -147 0 -147 0c0 0 0 -162 0 -162c0 -4.667 -1.5 -8.5 -4.5 -11.5c-3 -3 -6.5 -4.5 -10.5 -4.5c0 0 -78 0 -78 0c-4 0 -7.5 1.5 -10.5 4.5c-3 3 -4.5 6.833 -4.5 11.5c0 0 0 162 0 162c0 0 -147 0 -147 0c-4 0 -7.5 1.5 -10.5 4.5c-3 3 -4.5 6.5 -4.5 10.5c0 0 0 74 0 74c0 0 0 0 0 0" />
  </g>
</svg>