<svg height="1000" width="857.1" xmlns="http://www.w3.org/2000/svg"><path d="M678.6 535.7v-71.4q0 -14.5 -10.6 -25.1t-25.1 -10.6H500V285.7q0 -14.5 -10.6 -25.1T464.3 250h-71.4q-14.6 0 -25.2 10.6t-10.6 25.1v142.9H214.3q-14.5 0 -25.1 10.6t-10.6 25.1v71.4q0 14.5 10.6 25.1t25.1 10.6h142.8v142.9q0 14.5 10.6 25.1t25.2 10.6h71.4q14.5 0 25.1 -10.6T500 714.3V571.4h142.9q14.5 0 25.1 -10.6t10.6 -25.1zM857.1 500q0 116.6 -57.4 215.1t-156 156 -215.1 57.5T213.4 871.1 57.5 715.1 0 500 57.5 284.9t155.9 -156T428.6 71.4t215.1 57.5 156 156T857.1 500z"/></svg>