<svg height="1000" width="857.143" xmlns="http://www.w3.org/2000/svg"><path d="M714.24 535.744v-71.424q0 -14.508 -10.602 -25.11t-25.11 -10.602h-178.56v-178.56q0 -14.508 -10.602 -25.11t-25.11 -10.602h-71.424q-14.508 0 -25.11 10.602t-10.602 25.11v178.56h-178.56q-14.508 0 -25.11 10.602t-10.602 25.11v71.424q0 14.508 10.602 25.11t25.11 10.602h178.56v178.56q0 14.508 10.602 25.11t25.11 10.602h71.424q14.508 0 25.11 -10.602t10.602 -25.11v-178.56h178.56q14.508 0 25.11 -10.602t10.602 -25.11zm142.848 -303.552v535.68q0 66.402 -47.151 113.553t-113.553 47.151h-535.68q-66.402 0 -113.553 -47.151t-47.151 -113.553v-535.68q0 -66.402 47.151 -113.553t113.553 -47.151h535.68q66.402 0 113.553 47.151t47.151 113.553z"/></svg>