<svg height="1000px" width="750px" xmlns="http://www.w3.org/2000/svg">
  <g>
    <path d="M0 535.15625c0 0 0 -70.313 0 -70.313c0 -12.695 4.476 -23.518 13.428 -32.47c8.952 -8.952 19.775 -13.428 32.47 -13.428c0 0 248.047 0 248.047 0c0 0 0 -247.07 0 -247.07c0 -13.347 4.313 -24.496 12.94 -33.448c8.626 -8.951 19.612 -13.427 32.959 -13.427c0 0 70.312 0 70.312 0c12.696 0 23.519 4.476 32.471 13.427c8.952 8.952 13.428 19.776 13.428 32.471c0 0 0 248.047 0 248.047c0 0 248.047 0 248.047 0c12.695 0 23.518 4.476 32.47 13.428c8.952 8.952 13.428 19.775 13.428 32.471c0 0 0 70.312 0 70.312c0 12.695 -4.476 23.519 -13.428 32.471c-8.952 8.952 -19.775 13.427 -32.47 13.427c0 0 -248.047 0 -248.047 0c0 0 0 247.071 0 247.071c0 13.346 -4.476 24.495 -13.428 33.447c-8.952 8.952 -19.775 13.428 -32.471 13.428c0 0 -70.312 0 -70.312 0c-12.696 0 -23.519 -4.476 -32.471 -13.428c-8.952 -8.952 -13.428 -19.775 -13.428 -32.471c0 0 0 -248.047 0 -248.047c0 0 -247.07 0 -247.07 0c-13.346 0 -24.495 -4.313 -33.447 -12.939c-8.952 -8.626 -13.428 -19.613 -13.428 -32.959c0 0 0 0 0 0" />
  </g>
</svg>