<svg height="1000" width="785.714" xmlns="http://www.w3.org/2000/svg"><path d="M642.816 446.464v35.712q0 7.812 -5.022 12.834t-12.834 5.022h-196.416v196.416q0 7.812 -5.022 12.834t-12.834 5.022h-35.712q-7.812 0 -12.834 -5.022t-5.022 -12.834v-196.416h-196.416q-7.812 0 -12.834 -5.022t-5.022 -12.834v-35.712q0 -7.812 5.022 -12.834t12.834 -5.022h196.416v-196.416q0 -7.812 5.022 -12.834t12.834 -5.022h35.712q7.812 0 12.834 5.022t5.022 12.834v196.416h196.416q7.812 0 12.834 5.022t5.022 12.834zm71.424 249.984v-464.256q0 -36.828 -26.226 -63.054t-63.054 -26.226h-464.256q-36.828 0 -63.054 26.226t-26.226 63.054v464.256q0 36.828 26.226 63.054t63.054 26.226h464.256q36.828 0 63.054 -26.226t26.226 -63.054zm71.424 -464.256v464.256q0 66.402 -47.151 113.553t-113.553 47.151h-464.256q-66.402 0 -113.553 -47.151t-47.151 -113.553v-464.256q0 -66.402 47.151 -113.553t113.553 -47.151h464.256q66.402 0 113.553 47.151t47.151 113.553z"/></svg>