<svg height="1000" width="858" xmlns="http://www.w3.org/2000/svg"><path d="M0 500.032q0-116.622 57.474-215.109t155.961-155.961 215.109-57.474 215.109 57.474 155.961 155.961 57.474 215.109-57.474 215.109-155.961 155.961-215.109 57.474-215.109-57.474-155.961-155.961-57.474-215.109zm178.56 35.712q0 14.508 10.602 25.11t25.11 10.602l142.848 0l0 142.848q0 14.508 10.602 25.11t25.11 10.602l71.424 0q14.508 0 25.11-10.602t10.602-25.11l0-142.848l142.848 0q14.508 0 25.11-10.602t10.602-25.11l0-71.424q0-14.508-10.602-25.11t-25.11-10.602l-142.848 0l0-142.848q0-14.508-10.602-25.11t-25.11-10.602l-71.424 0q-14.508 0-25.11 10.602t-10.602 25.11l0 142.848l-142.848 0q-14.508 0-25.11 10.602t-10.602 25.11l0 71.424z"/></svg>