<svg height="1000px" width="785.7142857142858px" xmlns="http://www.w3.org/2000/svg">
  <g>
    <path d="M785.7142857142858 410.71428571428567c0 0 0 107.143 0 107.143c0 14.881 -5.208 27.53 -15.625 37.946c-10.417 10.417 -23.065 15.625 -37.946 15.625c0 0 -232.143 0 -232.143 0c0 0 0 232.143 0 232.143c0 14.881 -5.209 27.53 -15.625 37.947c-10.417 10.416 -23.066 15.625 -37.947 15.625c0 0 -107.143 0 -107.143 0c-14.881 0 -27.529 -5.209 -37.946 -15.625c-10.417 -10.417 -15.625 -23.066 -15.625 -37.947c0 0 0 -232.143 0 -232.143c0 0 -232.143 0 -232.143 0c-14.881 0 -27.53 -5.208 -37.946 -15.625c-10.417 -10.416 -15.625 -23.065 -15.625 -37.946c0 0 0 -107.143 0 -107.143c0 -14.881 5.208 -27.53 15.625 -37.946c10.416 -10.417 23.065 -15.625 37.946 -15.625c0 0 232.143 0 232.143 0c0 0 0 -232.143 0 -232.143c0 -14.881 5.208 -27.53 15.625 -37.947c10.417 -10.416 23.065 -15.625 37.946 -15.625c0 0 107.143 0 107.143 0c14.881 0 27.53 5.209 37.947 15.625c10.416 10.417 15.625 23.066 15.625 37.947c0 0 0 232.143 0 232.143c0 0 232.143 0 232.143 0c14.881 0 27.529 5.208 37.946 15.625c10.417 10.416 15.625 23.065 15.625 37.946c0 0 0 0 0 0" />
  </g>
</svg>