<svg height="1000" width="857.143" xmlns="http://www.w3.org/2000/svg"><path d="M678.528 535.744v-71.424q0 -14.508 -10.602 -25.11t-25.11 -10.602h-142.848v-142.848q0 -14.508 -10.602 -25.11t-25.11 -10.602h-71.424q-14.508 0 -25.11 10.602t-10.602 25.11v142.848h-142.848q-14.508 0 -25.11 10.602t-10.602 25.11v71.424q0 14.508 10.602 25.11t25.11 10.602h142.848v142.848q0 14.508 10.602 25.11t25.11 10.602h71.424q14.508 0 25.11 -10.602t10.602 -25.11v-142.848h142.848q14.508 0 25.11 -10.602t10.602 -25.11zm178.56 -35.712q0 116.622 -57.474 215.109t-155.961 155.961 -215.109 57.474 -215.109 -57.474 -155.961 -155.961 -57.474 -215.109 57.474 -215.109 155.961 -155.961 215.109 -57.474 215.109 57.474 155.961 155.961 57.474 215.109z"/></svg>