<svg height="1000px" width="750px" xmlns="http://www.w3.org/2000/svg">
  <g>
    <path d="M0 535c0 0 0 -70 0 -70c0 -12.667 4.5 -23.5 13.5 -32.5c9 -9 19.833 -13.5 32.5 -13.5c0 0 248 0 248 0c0 0 0 -247 0 -247c0 -13.333 4.333 -24.5 13 -33.5c8.667 -9 19.667 -13.5 33 -13.5c0 0 70 0 70 0c12.667 0 23.5 4.5 32.5 13.5c9 9 13.5 19.833 13.5 32.5c0 0 0 248 0 248c0 0 248 0 248 0c12.667 0 23.5 4.5 32.5 13.5c9 9 13.5 19.833 13.5 32.5c0 0 0 70 0 70c0 12.667 -4.5 23.5 -13.5 32.5c-9 9 -19.833 13.5 -32.5 13.5c0 0 -248 0 -248 0c0 0 0 247 0 247c0 13.333 -4.5 24.5 -13.5 33.5c-9 9 -19.833 13.5 -32.5 13.5c0 0 -70 0 -70 0c-12.667 0 -23.5 -4.5 -32.5 -13.5c-9 -9 -13.5 -19.833 -13.5 -32.5c0 0 0 -248 0 -248c0 0 -247 0 -247 0c-13.333 0 -24.5 -4.333 -33.5 -13c-9 -8.667 -13.5 -19.667 -13.5 -33c0 0 0 0 0 0" />
  </g>
</svg>