<svg height="1000" width="857.1" xmlns="http://www.w3.org/2000/svg"><path d="M554.7 665.2q0 48 -9.5 109.9 -17.3 120 -30.7 174.7 -12.3 50.2 -84.8 50.2t-84.8 -50.2Q331.5 895.1 314.2 775.1q-9.5 -61.4 -9.5 -109.9 0 -93.8 125 -93.8t125 93.8zM857.1 428.6q0 133.9 -74.7 242.2T587.1 827q-4.5 1.7 -8.4 -1.7t-3.4 -8.3q3.9 -26.8 5.6 -36.9 2.2 -17.8 3.4 -26.2 .5 -5 5 -6.7Q678 702 731.9 616.6t53.8 -188q0 -100.5 -50.8 -184.5T597.1 113.3 409 72q-69.2 3.9 -132.2 34t-108 78.4T97.4 297.2t-26 134.2Q72 534 126.7 619.1t143.4 129.2q3.9 1.7 5 6.7 1.7 11.7 3.4 25.1 .5 5.1 2.7 18.2t3.4 19.8q.6 5 -3.6 8.4t-8.7 1.1Q189.7 795.2 126.7 733T29.9 585.7 .6 407.4Q4.5 327.6 37.4 254.7t86.2 -126.6T249.2 40.2t152 -39.1q91.5 -5.6 176.1 26t145.6 89.5 97.7 139.8 36.5 172.2zM554.7 410.7q0 51.9 -36.6 88.5t-88.4 36.5 -88.5 -36.5 -36.5 -88.5 36.5 -88.4 88.5 -36.6 88.4 36.6 36.6 88.4zm160.7 17.9q0 68.1 -29.9 127.5t-81.7 99q-4.5 3.4 -8.9 1.2t-5.6 -7.9q-3.4 -29 -16.2 -51.3 -3.9 -5.6 1.7 -11.2 32.3 -30.1 50.8 -70.8T644 428.6q0 -62 -32.7 -113.9t-87.9 -78.9T405.1 215.4q-74.2 8.4 -127.8 63.1t-60.8 128.9q-5.6 51.3 13.1 98.2t55 80.3q5.6 5.6 1.7 11.2Q272.9 620 270.1 649q-1.1 5 -5.6 7.3t-8.9 -1.2Q202.6 613.8 172.7 553T144 422.4q1.6 -73.1 38.5 -136.1T281.3 185t134.4 -41.6q80.4 -3.9 149.6 33.5t109.6 104.6 40.5 147.1z"/></svg>