<svg height="1000" width="571.429" xmlns="http://www.w3.org/2000/svg"><path d="M569.16 634.51v204.786q0 7.812 -5.022 12.834t-12.834 5.022h-533.448q-7.812 0 -12.834 -5.022t-5.022 -12.834v-83.7q0 -7.254 5.301 -12.555t12.555 -5.301h54.126v-213.714h-53.01q-7.812 0 -12.834 -5.301t-5.022 -12.555v-73.098q0 -7.812 5.022 -12.834t12.834 -5.022h53.01v-124.434q0 -95.418 68.913 -157.356t175.491 -61.938q103.23 0 186.93 69.75 5.022 4.464 5.58 11.439t-3.906 12.555l-57.474 70.866q-5.022 6.138 -12.276 6.696 -7.254 1.116 -12.834 -3.906 -2.79 -2.79 -14.508 -10.602t-38.502 -17.856 -51.894 -10.044q-47.43 0 -76.446 26.226t-29.016 68.634v119.97h170.19q7.254 0 12.555 5.022t5.301 12.834v73.098q0 7.254 -5.301 12.555t-12.555 5.301h-170.19v211.482h231.012v-100.998q0 -7.254 5.022 -12.555t12.834 -5.301h90.396q7.812 0 12.834 5.301t5.022 12.555z"/></svg>