<svg height="1000" width="929" xmlns="http://www.w3.org/2000/svg"><path d="M0 767.872l0-232.128q0-44.082 31.527-75.609t75.609-31.527l35.712 0l0-303.552q0-22.32 15.624-37.944t37.944-15.624l374.976 0q22.32 0 49.104 11.16t42.408 26.784l84.816 84.816q15.624 15.624 26.784 42.408t11.16 49.104l0 142.848l35.712 0q44.082 0 75.609 31.527t31.527 75.609l0 232.128q0 7.254-5.301 12.555t-12.555 5.301l-124.992 0l0 89.28q0 22.32-15.624 37.944t-37.944 15.624l-535.68 0q-22.32 0-37.944-15.624t-15.624-37.944l0-89.28l-124.992 0q-7.254 0-12.555-5.301t-5.301-12.555zm214.272 89.28l499.968 0l0-142.848l-499.968 0l0 142.848zm0-357.12l499.968 0l0-214.272l-89.28 0q-22.32 0-37.944-15.624t-15.624-37.944l0-89.28l-357.12 0l0 357.12zm571.392 35.712q0 14.508 10.602 25.11t25.11 10.602 25.11-10.602 10.602-25.11-10.602-25.11-25.11-10.602-25.11 10.602-10.602 25.11z"/></svg>