<svg height="1000px" width="900px" xmlns="http://www.w3.org/2000/svg">
  <g>
    <path d="M0 856c0 0 0 -169 0 -169c0 -15.333 3 -29.833 9 -43.5c6 -13.667 14.167 -25.5 24.5 -35.5c10.333 -10 22.333 -18 36 -24c13.667 -6 28.167 -9 43.5 -9c0 0 675 0 675 0c15.333 0 29.833 3 43.5 9c13.667 6 25.5 14 35.5 24c10 10 18 21.833 24 35.5c6 13.667 9 28.167 9 43.5c0 0 0 169 0 169c0 12.667 -6.333 19 -19 19c0 0 -862 0 -862 0c-12.667 0 -19 -6.333 -19 -19c0 0 0 0 0 0m131 -75c0 5.333 1.833 9.667 5.5 13c3.667 3.333 8.167 5 13.5 5c0 0 600 0 600 0c5.333 0 9.833 -1.667 13.5 -5c3.667 -3.333 5.5 -7.667 5.5 -13c0 0 0 -19 0 -19c0 -5.333 -1.833 -9.833 -5.5 -13.5c-3.667 -3.667 -8.167 -5.5 -13.5 -5.5c0 0 -600 0 -600 0c-5.333 0 -9.833 1.833 -13.5 5.5c-3.667 3.667 -5.5 8.167 -5.5 13.5c0 0 0 19 0 19c0 0 0 0 0 0m19 -262c0 0 0 -357 0 -357c0 -10 3.667 -18.667 11 -26c7.333 -7.333 16.333 -11 27 -11c0 0 318 0 318 0c0 0 0 187 0 187c0 16 5.5 29.5 16.5 40.5c11 11 24.167 16.5 39.5 16.5c0 0 188 0 188 0c0 0 0 150 0 150c0 0 -600 0 -600 0c0 0 0 0 0 0m412 -207c0 0 0 -187 0 -187c0 0 188 187 188 187c0 0 -188 0 -188 0c0 0 0 0 0 0" />
  </g>
</svg>