<svg height="1000" width="928.6" xmlns="http://www.w3.org/2000/svg"><path d="M0 767.9v-232.1q0-44.1 31.5-75.6t75.6-31.5h35.7v-303.6q0-22.3 15.6-37.9t37.9-15.6h375q22.3 0 49.1 11.2t42.4 26.8l84.8 84.8q15.6 15.6 26.8 42.4t11.2 49.1v142.8h35.7q44.1 0 75.6 31.5t31.5 75.6v232.1q0 7.3-5.3 12.6t-12.6 5.3h-125v89.3q0 22.3-15.6 37.9t-37.9 15.6h-535.7q-22.3 0-37.9-15.6t-15.6-37.9v-89.3h-125q-7.3 0-12.6-5.3t-5.3-12.6zm214.3 89.3h500v-142.8h-500v142.8zm0-357.1h500v-214.3h-89.3q-22.3 0-37.9-15.6t-15.6-37.9v-89.3h-357.1v357.1zm571.4 35.7q0 14.5 10.6 25.1t25.1 10.6 25.1-10.6 10.6-25.1-10.6-25.1-25.1-10.6-25.1 10.6-10.6 25.1z"/></svg>