<svg height="1000" width="928.6" xmlns="http://www.w3.org/2000/svg"><path d="M214.3 857.1h500V714.3h-500v142.8zm0 -357.1h500V285.7H625q-22.3 0 -37.9 -15.6t-15.7 -38v-89.2H214.3V500zm642.8 35.7q0 -14.5 -10.6 -25.1T821.4 500t-25.1 10.6 -10.6 25.1 10.6 25.1 25.1 10.6 25.1 -10.6 10.6 -25.1zm71.5 0v232.2q0 7.2 -5.3 12.5t-12.6 5.3h-125V875q0 22.3 -15.6 37.9t-38 15.7H196.4q-22.3 0 -37.9 -15.7T142.9 875v-89.3h-125q-7.3 0 -12.6 -5.3T0 767.9V535.7q0 -44.1 31.5 -75.6t75.6 -31.5h35.8V125q0 -22.3 15.6 -37.9t37.9 -15.7h375q22.3 0 49.1 11.2t42.4 26.8l84.9 84.8q15.6 15.6 26.8 42.4t11.1 49.1v142.9h35.7q44.1 0 75.6 31.5t31.6 75.6z"/></svg>