<svg height="1000" width="928.571" xmlns="http://www.w3.org/2000/svg"><path d="M214.272 857.152h499.968v-142.848h-499.968v142.848zm0 -357.12h499.968v-214.272h-89.28q-22.32 0 -37.944 -15.624t-15.624 -37.944v-89.28h-357.12v357.12zm642.816 35.712q0 -14.508 -10.602 -25.11t-25.11 -10.602 -25.11 10.602 -10.602 25.11 10.602 25.11 25.11 10.602 25.11 -10.602 10.602 -25.11zm71.424 0v232.128q0 7.254 -5.301 12.555t-12.555 5.301h-124.992v89.28q0 22.32 -15.624 37.944t-37.944 15.624h-535.68q-22.32 0 -37.944 -15.624t-15.624 -37.944v-89.28h-124.992q-7.254 0 -12.555 -5.301t-5.301 -12.555v-232.128q0 -44.082 31.527 -75.609t75.609 -31.527h35.712v-303.552q0 -22.32 15.624 -37.944t37.944 -15.624h374.976q22.32 0 49.104 11.16t42.408 26.784l84.816 84.816q15.624 15.624 26.784 42.408t11.16 49.104v142.848h35.712q44.082 0 75.609 31.527t31.527 75.609z"/></svg>