<svg height="1000px" width="899.90234375px" xmlns="http://www.w3.org/2000/svg">
  <g>
    <path d="M0 855.95703125c0 0 0 -168.945 0 -168.945c0 -15.3 3.011 -29.785 9.033 -43.457c6.022 -13.672 14.16 -25.554 24.414 -35.645c10.254 -10.091 22.217 -18.066 35.889 -23.926c13.672 -5.859 28.157 -8.789 43.457 -8.789c0 0 675.293 0 675.293 0c15.299 0 29.785 2.93 43.457 8.789c13.672 5.86 25.472 13.835 35.4 23.926c9.929 10.091 17.904 21.973 23.926 35.645c6.022 13.672 9.033 28.157 9.033 43.457c0 0 0 168.945 0 168.945c0 12.695 -6.347 19.043 -19.043 19.043c0 0 -861.816 0 -861.816 0c-12.695 0 -19.043 -6.348 -19.043 -19.043c0 0 0 0 0 0m130.859 -75.195c0 5.208 1.872 9.521 5.616 12.939c3.743 3.418 8.219 5.127 13.427 5.127c0 0 600.098 0 600.098 0c5.208 0 9.684 -1.628 13.428 -4.883c3.743 -3.255 5.615 -7.649 5.615 -13.183c0 0 0 -18.555 0 -18.555c0 -5.208 -1.872 -9.684 -5.615 -13.428c-3.744 -3.743 -8.22 -5.615 -13.428 -5.615c0 0 -600.098 0 -600.098 0c-5.208 0 -9.684 1.79 -13.427 5.371c-3.744 3.581 -5.616 8.138 -5.616 13.672c0 0 0 18.555 0 18.555c0 0 0 0 0 0m19.043 -261.719c0 0 0 -356.934 0 -356.934c0 -10.091 3.662 -18.798 10.987 -26.123c7.324 -7.324 16.357 -10.986 27.099 -10.986c0 0 317.871 0 317.871 0c0 0 0 187.012 0 187.012c0 15.95 5.534 29.459 16.602 40.527c11.068 11.068 24.251 16.602 39.551 16.602c0 0 187.988 0 187.988 0c0 0 0 149.902 0 149.902c0 0 -600.098 0 -600.098 0c0 0 0 0 0 0m412.11 -207.031c0 0 0 -187.012 0 -187.012c0 0 187.988 187.012 187.988 187.012c0 0 -187.988 0 -187.988 0c0 0 0 0 0 0" />
  </g>
</svg>