<svg height="1000px" width="928.5714285714286px" xmlns="http://www.w3.org/2000/svg">
  <g>
    <path d="M928.5714285714286 535.7142857142857c0 0 0 232.143 0 232.143c0 4.836 -1.767 9.021 -5.301 12.556c-3.535 3.534 -7.72 5.301 -12.556 5.301c0 0 -125 0 -125 0c0 0 0 89.286 0 89.286c0 14.881 -5.208 27.529 -15.625 37.946c-10.417 10.417 -23.066 15.625 -37.947 15.625c0 0 -535.714 0 -535.714 0c-14.881 0 -27.53 -5.208 -37.946 -15.625c-10.417 -10.417 -15.625 -23.065 -15.625 -37.946c0 0 0 -89.286 0 -89.286c0 0 -125 0 -125 0c-4.837 0 -9.022 -1.767 -12.556 -5.301c-3.534 -3.535 -5.301 -7.72 -5.301 -12.556c0 0 0 -232.143 0 -232.143c0 -29.39 10.509 -54.594 31.529 -75.614c21.019 -21.019 46.224 -31.529 75.613 -31.529c0 0 35.715 0 35.715 0c0 0 0 -303.571 0 -303.571c0 -14.881 5.208 -27.53 15.625 -37.947c10.416 -10.416 23.065 -15.625 37.946 -15.625c0 0 375 0 375 0c14.881 0 31.25 3.721 49.107 11.161c17.857 7.44 31.994 16.369 42.411 26.786c0 0 84.821 84.821 84.821 84.821c10.417 10.417 19.346 24.554 26.786 42.411c7.441 17.857 11.161 34.226 11.161 49.107c0 0 0 142.857 0 142.857c0 0 35.714 0 35.714 0c29.39 0 54.595 10.51 75.614 31.529c21.019 21.02 31.529 46.224 31.529 75.614c0 0 0 0 0 0m-71.429 0c0 -9.673 -3.534 -18.043 -10.602 -25.112c-7.069 -7.068 -15.439 -10.602 -25.112 -10.602c-9.672 0 -18.043 3.534 -25.111 10.602c-7.069 7.069 -10.603 15.439 -10.603 25.112c0 9.673 3.534 18.043 10.603 25.112c7.068 7.068 15.439 10.602 25.111 10.602c9.673 0 18.043 -3.534 25.112 -10.602c7.068 -7.069 10.602 -15.439 10.602 -25.112c0 0 0 0 0 0m-642.857 -35.714c0 0 500 0 500 0c0 0 0 -214.286 0 -214.286c0 0 -89.285 0 -89.285 0c-14.881 0 -27.53 -5.208 -37.947 -15.625c-10.417 -10.417 -15.625 -23.065 -15.625 -37.946c0 0 0 -89.286 0 -89.286c0 0 -357.143 0 -357.143 0c0 0 0 357.143 0 357.143c0 0 0 0 0 0m0 357.143c0 0 500 0 500 0c0 0 0 -142.858 0 -142.858c0 0 -500 0 -500 0c0 0 0 142.858 0 142.858c0 0 0 0 0 0" />
  </g>
</svg>