<svg height="1000" width="928.571" xmlns="http://www.w3.org/2000/svg"><path d="M928.512 612.748q0 45.198 -24.831 75.33t-68.913 30.132q-22.878 0 -43.245 -9.765t-32.922 -21.204 -31.527 -21.204 -39.618 -9.765q-61.38 0 -61.38 69.192 0 21.762 8.928 64.17t8.37 64.17v2.79q-12.276 0 -18.414 .558 -18.972 1.674 -54.405 6.417t-64.449 7.533 -54.684 2.79q-34.038 0 -57.474 -14.787t-23.436 -46.593q0 -20.646 9.765 -39.618t21.204 -31.527 21.204 -32.922 9.765 -43.245q0 -44.082 -30.132 -68.913t-75.33 -24.831q-46.872 0 -79.794 25.389t-32.922 71.145q0 23.994 8.37 46.314t18.693 35.991 18.693 29.574 8.37 28.179q0 25.11 -25.668 49.662 -20.646 19.53 -65.286 19.53 -53.01 0 -136.71 -13.392 -5.022 -1.116 -15.345 -2.232t-15.345 -2.232l-7.254 -1.116q-.558 0 -1.674 -.558 -1.116 0 -1.116 -.558v-571.392q1.116 .558 9.765 1.953t18.972 2.79 11.997 1.953q83.7 13.392 136.71 13.392 44.64 0 65.286 -19.53 25.668 -24.552 25.668 -49.662 0 -12.276 -8.37 -28.179t-18.693 -29.574 -18.693 -35.991 -8.37 -46.314q0 -45.756 32.922 -71.145t80.352 -25.389q44.64 0 74.772 24.831t30.132 68.913q0 22.878 -9.765 43.245t-21.204 32.922 -21.204 31.527 -9.765 39.618q0 31.806 23.436 46.593t57.474 14.787q35.712 0 100.44 -8.37t90.954 -9.486v1.116q-.558 1.116 -1.953 9.765t-2.79 18.972 -1.953 11.997q-13.392 83.7 -13.392 136.71 0 44.64 19.53 65.286 24.552 25.668 49.662 25.668 12.276 0 28.179 -8.37t29.574 -18.693 35.991 -18.693 46.314 -8.37q45.756 0 71.145 32.922t25.389 79.794z"/></svg>