<svg height="1000" width="1000" xmlns="http://www.w3.org/2000/svg"><path d="M150.66 449.812q-4.464 -10.602 -4.464 -29.016 0 -11.16 6.138 -27.342t13.392 -25.11q-.558 -12.276 4.185 -29.574t12.555 -23.994q0 -77.562 51.615 -160.983t121.365 -116.901q77.562 -36.828 180.792 -36.828 74.214 0 148.428 30.69 27.342 11.718 50.22 26.784t39.618 31.248 30.69 37.944 23.436 41.292 18.135 47.151 14.229 49.941 12.276 54.684l.558 2.79q30.69 46.314 30.69 83.7 0 7.812 -5.022 22.32t-5.022 21.204q0 .558 .837 1.953t1.953 2.79 1.116 1.953q42.966 63.612 67.239 119.691t24.273 116.343q0 23.994 -10.881 55.8t-30.969 31.806q-5.022 0 -10.881 -4.185t-10.602 -9.765 -10.602 -14.508 -8.928 -14.787 -7.533 -14.508 -5.022 -9.765q-.558 -.558 -1.674 -.558l-2.79 2.232q-32.922 85.932 -73.656 124.434 11.16 11.16 34.317 21.483t38.502 23.157 19.809 36.27q-1.116 2.232 -2.232 8.928t-3.906 10.044q-35.712 54.126 -168.516 54.126 -29.574 0 -61.659 -5.022t-54.684 -11.16 -58.311 -16.74q-8.37 -2.79 -12.834 -3.906 -7.812 -2.232 -25.668 -2.511t-22.32 -.837q-22.878 25.11 -71.145 36.27t-94.023 11.16q-19.53 0 -38.502 -.837t-51.894 -5.022 -56.358 -11.439 -41.571 -22.32 -18.135 -35.712q0 -22.32 5.58 -33.201t22.878 -27.063q6.138 -1.116 22.599 -7.254t27.621 -6.696q2.232 0 7.812 -1.116 1.116 -1.116 1.116 -2.232l-1.116 -1.674q-26.784 -6.138 -60.264 -58.869t-40.734 -87.327l-2.79 -1.674q-2.232 0 -6.696 11.16 -10.044 22.878 -30.411 41.571t-43.245 20.925h-.558q-2.232 0 -3.348 -2.511t-2.79 -3.069q-12.834 -30.132 -12.834 -55.8 0 -153.45 140.616 -260.028z"/></svg>