<svg height="1000" width="1000" xmlns="http://www.w3.org/2000/svg"><path d="M150.7 449.8q-4.5 -10.6 -4.5 -29 0 -11.2 6.1 -27.4t13.4 -25.1q-.5 -12.3 4.2 -29.6t12.6 -24q0 -77.5 51.6 -161T355.5 36.8Q433 0 536.3 0q74.2 0 148.4 30.7 27.4 11.7 50.2 26.8t39.7 31.2 30.6 38 23.5 41.3 18.1 47.1 14.2 50 12.3 54.7l.6 2.7q30.7 46.4 30.7 83.7 0 7.9 -5 22.4t-5.1 21.2q0 .5 .9 1.9t1.9 2.8 1.1 2q43 63.6 67.3 119.7T990 692.5q0 24 -10.9 55.8t-31 31.8q-5 0 -10.9 -4.2t-10.6 -9.7T916 751.7t-8.9 -14.8 -7.5 -14.5 -5.1 -9.8q-.5 -.5 -1.6 -.5l-2.8 2.2q-33 85.9 -73.7 124.4 11.2 11.2 34.3 21.5t38.5 23.2 19.8 36.2q-1.1 2.3 -2.2 9t-3.9 10q-35.7 54.1 -168.5 54.1 -29.6 0 -61.7 -5T618 976.6t-58.3 -16.8q-8.4 -2.8 -12.8 -3.9 -7.8 -2.2 -25.7 -2.5t-22.3 -.8q-22.9 25.1 -71.2 36.2t-94 11.2q-19.5 0 -38.5 -.8t-51.9 -5.1 -56.4 -11.4 -41.5 -22.3 -18.2 -35.7q0 -22.4 5.6 -33.2t22.9 -27.1q6.1 -1.1 22.6 -7.3t27.6 -6.7q2.2 0 7.8 -1.1 1.1 -1.1 1.1 -2.2l-1.1 -1.7q-26.8 -6.1 -60.2 -58.8t-40.8 -87.4l-2.8 -1.7q-2.2 0 -6.7 11.2 -10 22.9 -30.4 41.6t-43.2 20.9H29q-2.2 0 -3.3 -2.5t-2.8 -3.1Q10 735.5 10 709.8q0 -153.4 140.7 -260z"/></svg>