<svg height="1000px" width="750px" xmlns="http://www.w3.org/2000/svg">
  <g>
    <path d="M0 875c0 0 0 -341 0 -341c0 0 341 0 341 0c0 0 0 341 0 341c0 0 -341 0 -341 0c0 0 0 0 0 0m0 -409c0 0 0 -341 0 -341c0 0 341 0 341 0c0 0 0 341 0 341c0 0 -341 0 -341 0c0 0 0 0 0 0m68 341c0 0 205 0 205 0c0 0 0 -205 0 -205c0 0 -205 0 -205 0c0 0 0 205 0 205c0 0 0 0 0 0m0 -409c0 0 205 0 205 0c0 0 0 -205 0 -205c0 0 -205 0 -205 0c0 0 0 205 0 205c0 0 0 0 0 0m68 341c0 0 0 -69 0 -69c0 0 69 0 69 0c0 0 0 69 0 69c0 0 -69 0 -69 0c0 0 0 0 0 0m0 -409c0 0 0 -68 0 -68c0 0 69 0 69 0c0 0 0 68 0 68c0 0 -69 0 -69 0c0 0 0 0 0 0m273 545c0 0 0 -341 0 -341c0 0 204 0 204 0c0 0 0 68 0 68c0 0 69 0 69 0c0 0 0 -68 0 -68c0 0 68 0 68 0c0 0 0 205 0 205c0 0 -205 0 -205 0c0 0 0 -68 0 -68c0 0 -68 0 -68 0c0 0 0 204 0 204c0 0 -68 0 -68 0c0 0 0 0 0 0m0 -409c0 0 0 -341 0 -341c0 0 341 0 341 0c0 0 0 341 0 341c0 0 -341 0 -341 0c0 0 0 0 0 0m68 -68c0 0 205 0 205 0c0 0 0 -205 0 -205c0 0 -205 0 -205 0c0 0 0 205 0 205c0 0 0 0 0 0m68 477c0 0 0 -68 0 -68c0 0 68 0 68 0c0 0 0 68 0 68c0 0 -68 0 -68 0c0 0 0 0 0 0m0 -545c0 0 0 -68 0 -68c0 0 68 0 68 0c0 0 0 68 0 68c0 0 -68 0 -68 0c0 0 0 0 0 0m137 545c0 0 0 -68 0 -68c0 0 68 0 68 0c0 0 0 68 0 68c0 0 -68 0 -68 0c0 0 0 0 0 0" />
  </g>
</svg>