<svg height="1000" width="785.714" xmlns="http://www.w3.org/2000/svg"><path d="M214.272 642.88v71.424h-71.424v-71.424h71.424zm0 -428.544v71.424h-71.424v-71.424h71.424zm428.544 0v71.424h-71.424v-71.424h71.424zm-571.392 570.834h214.272v-213.714h-214.272v213.714zm0 -427.986h214.272v-214.272h-214.272v214.272zm428.544 0h214.272v-214.272h-214.272v214.272zm-142.848 142.848v357.12h-357.12v-357.12h357.12zm285.696 285.696v71.424h-71.424v-71.424h71.424zm142.848 0v71.424h-71.424v-71.424h71.424zm0 -285.696v214.272h-214.272v-71.424h-71.424v214.272h-71.424v-357.12h214.272v71.424h71.424v-71.424h71.424zm-428.544 -428.544v357.12h-357.12v-357.12h357.12zm428.544 0v357.12h-357.12v-357.12h357.12z"/></svg>