<svg height="1000px" width="750px" xmlns="http://www.w3.org/2000/svg">
  <g>
    <path d="M0 875c0 0 0 -340.82 0 -340.82c0 0 340.82 0 340.82 0c0 0 0 340.82 0 340.82c0 0 -340.82 0 -340.82 0c0 0 0 0 0 0m0 -409.18c0 0 0 -340.82 0 -340.82c0 0 340.82 0 340.82 0c0 0 0 340.82 0 340.82c0 0 -340.82 0 -340.82 0c0 0 0 0 0 0m67.871 341.309c0 0 205.078 0 205.078 0c0 0 0 -205.078 0 -205.078c0 0 -205.078 0 -205.078 0c0 0 0 205.078 0 205.078c0 0 0 0 0 0m0 -409.18c0 0 205.078 0 205.078 0c0 0 0 -205.078 0 -205.078c0 0 -205.078 0 -205.078 0c0 0 0 205.078 0 205.078c0 0 0 0 0 0m68.359 340.821c0 0 0 -68.848 0 -68.848c0 0 68.848 0 68.848 0c0 0 0 68.848 0 68.848c0 0 -68.848 0 -68.848 0c0 0 0 0 0 0m0 -408.692c0 0 0 -67.871 0 -67.871c0 0 68.848 0 68.848 0c0 0 0 67.871 0 67.871c0 0 -68.848 0 -68.848 0c0 0 0 0 0 0m272.95 544.922c0 0 0 -340.82 0 -340.82c0 0 203.613 0 203.613 0c0 0 0 67.871 0 67.871c0 0 69.336 0 69.336 0c0 0 0 -67.871 0 -67.871c0 0 67.871 0 67.871 0c0 0 0 204.59 0 204.59c0 0 -205.078 0 -205.078 0c0 0 0 -67.872 0 -67.872c0 0 -67.871 0 -67.871 0c0 0 0 204.102 0 204.102c0 0 -67.871 0 -67.871 0c0 0 0 0 0 0m0 -409.18c0 0 0 -340.82 0 -340.82c0 0 340.82 0 340.82 0c0 0 0 340.82 0 340.82c0 0 -340.82 0 -340.82 0c0 0 0 0 0 0m67.871 -67.871c0 0 205.078 0 205.078 0c0 0 0 -205.078 0 -205.078c0 0 -205.078 0 -205.078 0c0 0 0 205.078 0 205.078c0 0 0 0 0 0m67.871 477.051c0 0 0 -67.871 0 -67.871c0 0 67.871 0 67.871 0c0 0 0 67.871 0 67.871c0 0 -67.871 0 -67.871 0c0 0 0 0 0 0m0 -544.922c0 0 0 -67.871 0 -67.871c0 0 67.871 0 67.871 0c0 0 0 67.871 0 67.871c0 0 -67.871 0 -67.871 0c0 0 0 0 0 0m137.207 544.922c0 0 0 -67.871 0 -67.871c0 0 67.871 0 67.871 0c0 0 0 67.871 0 67.871c0 0 -67.871 0 -67.871 0c0 0 0 0 0 0" />
  </g>
</svg>