<svg height="1000px" width="785.7142857142858px" xmlns="http://www.w3.org/2000/svg">
  <g>
    <path d="M785.7142857142858 71.42857142857133c0 0 0 357.143 0 357.143c0 0 -357.143 0 -357.143 0c0 0 0 -357.143 0 -357.143c0 0 357.143 0 357.143 0c0 0 0 0 0 0m-428.571 0c0 0 0 357.143 0 357.143c0 0 -357.143 0 -357.143 0c0 0 0 -357.143 0 -357.143c0 0 357.143 0 357.143 0c0 0 0 0 0 0m428.571 428.571c0 0 0 214.286 0 214.286c0 0 -214.286 0 -214.286 0c0 0 0 -71.428 0 -71.428c0 0 -71.428 0 -71.428 0c0 0 0 214.285 0 214.285c0 0 -71.429 0 -71.429 0c0 0 0 -357.143 0 -357.143c0 0 214.286 0 214.286 0c0 0 0 71.429 0 71.429c0 0 71.428 0 71.428 0c0 0 0 -71.429 0 -71.429c0 0 71.429 0 71.429 0c0 0 0 0 0 0m0 285.715c0 0 0 71.428 0 71.428c0 0 -71.429 0 -71.429 0c0 0 0 -71.428 0 -71.428c0 0 71.429 0 71.429 0c0 0 0 0 0 0m-142.857 0c0 0 0 71.428 0 71.428c0 0 -71.429 0 -71.429 0c0 0 0 -71.428 0 -71.428c0 0 71.429 0 71.429 0c0 0 0 0 0 0m-285.714 -285.715c0 0 0 357.143 0 357.143c0 0 -357.143 0 -357.143 0c0 0 0 -357.143 0 -357.143c0 0 357.143 0 357.143 0c0 0 0 0 0 0m142.857 -142.857c0 0 214.285 0 214.285 0c0 0 0 -214.285 0 -214.285c0 0 -214.285 0 -214.285 0c0 0 0 214.285 0 214.285c0 0 0 0 0 0m-428.572 0c0 0 214.286 0 214.286 0c0 0 0 -214.285 0 -214.285c0 0 -214.286 0 -214.286 0c0 0 0 214.285 0 214.285c0 0 0 0 0 0m0 428.014c0 0 214.286 0 214.286 0c0 0 0 -213.728 0 -213.728c0 0 -214.286 0 -214.286 0c0 0 0 213.728 0 213.728c0 0 0 0 0 0m571.429 -570.871c0 0 0 71.429 0 71.429c0 0 -71.429 0 -71.429 0c0 0 0 -71.429 0 -71.429c0 0 71.429 0 71.429 0c0 0 0 0 0 0m-428.572 0c0 0 0 71.429 0 71.429c0 0 -71.428 0 -71.428 0c0 0 0 -71.429 0 -71.429c0 0 71.428 0 71.428 0c0 0 0 0 0 0m0 428.572c0 0 0 71.428 0 71.428c0 0 -71.428 0 -71.428 0c0 0 0 -71.428 0 -71.428c0 0 71.428 0 71.428 0c0 0 0 0 0 0" />
  </g>
</svg>