<svg height="1000" width="785.7" xmlns="http://www.w3.org/2000/svg"><path d="M0 857.2v-357.1h357.1v357.1h-357.1zm0-428.5v-357.1h357.1v357.1h-357.1zm71.4 356.6h214.3v-213.7h-214.3v213.7zm0-428h214.3v-214.3h-214.3v214.3zm71.4 357.1v-71.4h71.4v71.4h-71.4zm0-428.5v-71.4h71.4v71.4h-71.4zm285.7 571.4v-357.1h214.3v71.4h71.4v-71.4h71.4v214.3h-214.3v-71.4h-71.4v214.3h-71.4zm0-428.5v-357.1h357.1v357.1h-357.1zm71.4-71.4h214.3v-214.3h-214.3v214.3zm71.4 500v-71.4h71.4v71.4h-71.4zm0-571.4v-71.4h71.4v71.4h-71.4zm142.8 571.4v-71.4h71.4v71.4h-71.4z"/></svg>