<svg height="1000px" width="785.7142857142858px" xmlns="http://www.w3.org/2000/svg">
  <g>
    <path d="M0 857.1428571428571c0 0 0 -357.143 0 -357.143c0 0 357.143 0 357.143 0c0 0 0 357.143 0 357.143c0 0 -357.143 0 -357.143 0c0 0 0 0 0 0m0 -428.571c0 0 0 -357.143 0 -357.143c0 0 357.143 0 357.143 0c0 0 0 357.143 0 357.143c0 0 -357.143 0 -357.143 0c0 0 0 0 0 0m71.429 356.584c0 0 214.285 0 214.285 0c0 0 0 -213.727 0 -213.727c0 0 -214.285 0 -214.285 0c0 0 0 213.727 0 213.727c0 0 0 0 0 0m0 -428.013c0 0 214.285 0 214.285 0c0 0 0 -214.286 0 -214.286c0 0 -214.285 0 -214.285 0c0 0 0 214.286 0 214.286c0 0 0 0 0 0m71.428 357.143c0 0 0 -71.429 0 -71.429c0 0 71.429 0 71.429 0c0 0 0 71.429 0 71.429c0 0 -71.429 0 -71.429 0c0 0 0 0 0 0m0 -428.572c0 0 0 -71.428 0 -71.428c0 0 71.429 0 71.429 0c0 0 0 71.428 0 71.428c0 0 -71.429 0 -71.429 0c0 0 0 0 0 0m285.714 571.429c0 0 0 -357.143 0 -357.143c0 0 214.286 0 214.286 0c0 0 0 71.429 0 71.429c0 0 71.429 0 71.429 0c0 0 0 -71.429 0 -71.429c0 0 71.428 0 71.428 0c0 0 0 214.286 0 214.286c0 0 -214.285 0 -214.285 0c0 0 0 -71.429 0 -71.429c0 0 -71.429 0 -71.429 0c0 0 0 214.286 0 214.286c0 0 -71.429 0 -71.429 0c0 0 0 0 0 0m0 -428.571c0 0 0 -357.143 0 -357.143c0 0 357.143 0 357.143 0c0 0 0 357.143 0 357.143c0 0 -357.143 0 -357.143 0c0 0 0 0 0 0m71.429 -71.429c0 0 214.286 0 214.286 0c0 0 0 -214.286 0 -214.286c0 0 -214.286 0 -214.286 0c0 0 0 214.286 0 214.286c0 0 0 0 0 0m71.429 500c0 0 0 -71.429 0 -71.429c0 0 71.428 0 71.428 0c0 0 0 71.429 0 71.429c0 0 -71.428 0 -71.428 0c0 0 0 0 0 0m0 -571.429c0 0 0 -71.428 0 -71.428c0 0 71.428 0 71.428 0c0 0 0 71.428 0 71.428c0 0 -71.428 0 -71.428 0c0 0 0 0 0 0m142.857 571.429c0 0 0 -71.429 0 -71.429c0 0 71.428 0 71.428 0c0 0 0 71.429 0 71.429c0 0 -71.428 0 -71.428 0c0 0 0 0 0 0" />
  </g>
</svg>