<svg height="1000" width="786" xmlns="http://www.w3.org/2000/svg"><path d="M0 857.152l0-357.12l357.12 0l0 357.12l-357.12 0zm0-428.544l0-357.12l357.12 0l0 357.12l-357.12 0zm71.424 356.562l214.272 0l0-213.714l-214.272 0l0 213.714zm0-427.986l214.272 0l0-214.272l-214.272 0l0 214.272zm71.424 357.12l0-71.424l71.424 0l0 71.424l-71.424 0zm0-428.544l0-71.424l71.424 0l0 71.424l-71.424 0zm285.696 571.392l0-357.12l214.272 0l0 71.424l71.424 0l0-71.424l71.424 0l0 214.272l-214.272 0l0-71.424l-71.424 0l0 214.272l-71.424 0zm0-428.544l0-357.12l357.12 0l0 357.12l-357.12 0zm71.424-71.424l214.272 0l0-214.272l-214.272 0l0 214.272zm71.424 499.968l0-71.424l71.424 0l0 71.424l-71.424 0zm0-571.392l0-71.424l71.424 0l0 71.424l-71.424 0zm142.848 571.392l0-71.424l71.424 0l0 71.424l-71.424 0z"/></svg>