<svg height="1000" width="785.714" xmlns="http://www.w3.org/2000/svg"><path d="M0 857.152v-357.12h357.12v357.12h-357.12zm0 -428.544v-357.12h357.12v357.12h-357.12zm71.424 356.562h214.272v-213.714h-214.272v213.714zm0 -427.986h214.272v-214.272h-214.272v214.272zm71.424 357.12v-71.424h71.424v71.424h-71.424zm0 -428.544v-71.424h71.424v71.424h-71.424zm285.696 571.392v-357.12h214.272v71.424h71.424v-71.424h71.424v214.272h-214.272v-71.424h-71.424v214.272h-71.424zm0 -428.544v-357.12h357.12v357.12h-357.12zm71.424 -71.424h214.272v-214.272h-214.272v214.272zm71.424 499.968v-71.424h71.424v71.424h-71.424zm0 -571.392v-71.424h71.424v71.424h-71.424zm142.848 571.392v-71.424h71.424v71.424h-71.424z"/></svg>