<svg height="1000" width="785.7" xmlns="http://www.w3.org/2000/svg"><path d="M214.3 642.9v71.4h-71.4v-71.4h71.4zm0 -428.6v71.4h-71.4v-71.4h71.4zm428.6 0v71.4h-71.5v-71.4h71.5zM71.4 785.2h214.3V571.4H71.4v213.8zm0 -428.1h214.3V142.9H71.4v214.2zm428.6 0h214.3V142.9H500v214.2zM357.1 500v357.1H0V500h357.1zm285.8 285.7v71.4h-71.5v-71.4h71.5zm142.8 0v71.4h-71.4v-71.4h71.4zm0 -285.7v214.3H571.4v-71.4H500v214.2h-71.4V500h214.3v71.4h71.4V500h71.4zM357.1 71.4v357.2H0V71.4h357.1zm428.6 0v357.2H428.6V71.4h357.1z"/></svg>