<svg height="1000" width="857.1" xmlns="http://www.w3.org/2000/svg"><path d="M491.1 669.6v89.3q0 7.8 -5.1 12.9t-12.8 5h-89.3q-7.8 0 -12.8 -5t-5 -12.9v-89.3q0 -7.8 5 -12.8t12.8 -5h89.3q7.8 0 12.8 5t5.1 12.8zM633.9 392.9q0 27.9 -8.3 50.2t-25.4 38.5 -29.1 24.5 -33.2 20.1q-17.8 10.1 -25.9 15.7t-14.5 13.3 -6.4 16.2v17.9q0 7.8 -5.1 12.8t-12.8 5h-89.3q-7.8 0 -12.8 -5t-5 -12.8v-38q0 -19.5 5.8 -36t13.4 -26.5T407.1 469 430 454.8t24.8 -11.7q29.6 -14 41.9 -24t12.2 -27.4q0 -23.4 -24.2 -39.9t-53.3 -16.4q-31.3 0 -53.1 15 -16.1 11.2 -44.6 46.4 -5 6.7 -13.9 6.7 -6.2 0 -10.6 -3.4l-60.3 -45.7q-5.6 -4 -6.7 -11.2t2.8 -12.8Q313.1 223.2 439.7 223.2q72 0 133.1 50t61.1 119.7zm-205.3 -250q-72.6 0 -138.7 28.4t-113.8 76.2T99.9 361.3 71.4 500t28.5 138.7 76.2 113.8 113.8 76.2 138.7 28.4 138.6 -28.4 113.9 -76.2 76.2 -113.8T785.7 500 757.3 361.3 681.1 247.5 567.2 171.3 428.6 142.9zM857.1 500q0 116.6 -57.4 215.1t-156 156 -215.1 57.5T213.4 871.1 57.5 715.1 0 500 57.5 284.9t155.9 -156T428.6 71.4t215.1 57.5 156 156T857.1 500z"/></svg>