<svg height="1000" width="1000" xmlns="http://www.w3.org/2000/svg"><path d="M700.3 439.2q0 -177.5 -58.6 -264.8T457.6 87.1q-123.9 0 -181.9 87.6t-58.1 264.5q0 176.3 58.1 263.1t181.9 86.8q41.3 0 73.1 -9.5 -12.3 -24 -21.8 -40.8t-24.5 -36.2T454.5 671t-35.1 -20.1 -43.3 -8q-25.7 0 -44.1 8.9l-27.3 -54.1q58.6 -50.8 154 -50.8 73.7 0 120.3 30.1t83.9 86.5q37.4 -83.1 37.4 -224.3zM918 791.9h65.3q1.6 15 -1.2 37.3t-14.7 53.1 -32.4 56 -59.7 43.6 -90.7 18.1q-39.6 0 -72.8 -10.6t-58.9 -31.3 -44.1 -43.5T572 861q-54.1 15.1 -114.4 15.1 -83.7 0 -163.2 -32.3T153.2 755.3 53.9 616.4 16.2 439.2q0 -94.9 37.7 -178.3t99.6 -139.8T294.9 32.4 457.6 0q67.5 0 133.1 20.1t121.1 59.1T810 171t66.7 122.2 24 146q0 106 -45 193.9T733.8 780.7q26.2 39.1 52.2 59.4t58.3 20.4q34 0 52.5 -20.9T918 791.9z"/></svg>