<svg height="1000px" width="928.5714285714286px" xmlns="http://www.w3.org/2000/svg">
  <g>
    <path d="M0 750c0 0 0 -392.857 0 -392.857c0 -38.691 7.533 -75.614 22.6 -110.77c15.067 -35.156 35.436 -65.569 61.105 -91.239c25.67 -25.67 56.083 -46.038 91.239 -61.105c35.156 -15.067 72.08 -22.6 110.77 -22.6c0 0 35.715 0 35.715 0c9.672 0 18.043 3.534 25.111 10.602c7.069 7.069 10.603 15.439 10.603 25.112c0 0 0 71.428 0 71.428c0 9.673 -3.534 18.044 -10.603 25.112c-7.068 7.068 -15.439 10.603 -25.111 10.603c0 0 -35.715 0 -35.715 0c-39.434 0 -73.102 13.951 -101.004 41.852c-27.902 27.902 -41.853 61.57 -41.853 101.005c0 0 0 17.857 0 17.857c0 14.881 5.208 27.53 15.625 37.946c10.417 10.417 23.066 15.625 37.947 15.625c0 0 125 0 125 0c29.761 0 55.059 10.417 75.892 31.25c20.834 20.834 31.25 46.131 31.25 75.893c0 0 0 214.286 0 214.286c0 29.762 -10.416 55.06 -31.25 75.893c-20.833 20.833 -46.131 31.25 -75.892 31.25c0 0 -214.286 0 -214.286 0c-29.762 0 -55.06 -10.417 -75.893 -31.25c-20.833 -20.833 -31.25 -46.131 -31.25 -75.893c0 0 0 0 0 0m500 0c0 0 0 -392.857 0 -392.857c0 -38.691 7.533 -75.614 22.6 -110.77c15.067 -35.156 35.436 -65.569 61.105 -91.239c25.67 -25.67 56.083 -46.038 91.239 -61.105c35.156 -15.067 72.08 -22.6 110.77 -22.6c0 0 35.715 0 35.715 0c9.672 0 18.043 3.534 25.111 10.602c7.069 7.069 10.603 15.439 10.603 25.112c0 0 0 71.428 0 71.428c0 9.673 -3.534 18.044 -10.603 25.112c-7.068 7.068 -15.439 10.603 -25.111 10.603c0 0 -35.715 0 -35.715 0c-39.434 0 -73.102 13.951 -101.004 41.852c-27.902 27.902 -41.853 61.57 -41.853 101.005c0 0 0 17.857 0 17.857c0 14.881 5.208 27.53 15.625 37.946c10.417 10.417 23.066 15.625 37.947 15.625c0 0 125 0 125 0c29.761 0 55.059 10.417 75.892 31.25c20.834 20.834 31.25 46.131 31.25 75.893c0 0 0 214.286 0 214.286c0 29.762 -10.416 55.06 -31.25 75.893c-20.833 20.833 -46.131 31.25 -75.892 31.25c0 0 -214.286 0 -214.286 0c-29.762 0 -55.06 -10.417 -75.893 -31.25c-20.833 -20.833 -31.25 -46.131 -31.25 -75.893c0 0 0 0 0 0" />
  </g>
</svg>