<svg height="1000" width="928.6" xmlns="http://www.w3.org/2000/svg"><path d="M428.6 178.6v392.8q0 58.1 -22.6 110.8t-61.1 91.2 -91.3 61.1 -110.7 22.6h-35.8q-14.5 0 -25.1 -10.6T71.4 821.4V750q0 -14.5 10.6 -25.1t25.1 -10.6h35.8q59.1 0 101 -41.9t41.8 -101v-17.8q0 -22.3 -15.6 -38t-38 -15.6h-125q-44.6 0 -75.9 -31.2T0 392.9V178.6q0 -44.7 31.2 -75.9t75.9 -31.3h214.3q44.7 0 75.9 31.3t31.3 75.9zm500 0v392.8q0 58.1 -22.6 110.8t-61.1 91.2 -91.3 61.1 -110.7 22.6h-35.8q-14.5 0 -25.1 -10.6t-10.6 -25.1V750q0 -14.5 10.6 -25.1t25.1 -10.6h35.8q59.1 0 101 -41.9t41.8 -101v-17.8q0 -22.3 -15.6 -38t-38 -15.6h-125q-44.6 0 -75.8 -31.2T500 392.9V178.6q0 -44.7 31.3 -75.9t75.8 -31.3h214.3q44.7 0 75.9 31.3t31.3 75.9z"/></svg>