<svg height="1000" width="929" xmlns="http://www.w3.org/2000/svg"><path d="M0 392.896l0-214.272q0-44.64 31.248-75.888t75.888-31.248l214.272 0q44.64 0 75.888 31.248t31.248 75.888l0 392.832q0 58.032-22.599 110.763t-61.101 91.233-91.233 61.101-110.763 22.599l-35.712 0q-14.508 0-25.11-10.602t-10.602-25.11l0-71.424q0-14.508 10.602-25.11t25.11-10.602l35.712 0q59.148 0 100.998-41.85t41.85-100.998l0-17.856q0-22.32-15.624-37.944t-37.944-15.624l-124.992 0q-44.64 0-75.888-31.248t-31.248-75.888zm499.968 0l0-214.272q0-44.64 31.248-75.888t75.888-31.248l214.272 0q44.64 0 75.888 31.248t31.248 75.888l0 392.832q0 58.032-22.599 110.763t-61.101 91.233-91.233 61.101-110.763 22.599l-35.712 0q-14.508 0-25.11-10.602t-10.602-25.11l0-71.424q0-14.508 10.602-25.11t25.11-10.602l35.712 0q59.148 0 100.998-41.85t41.85-100.998l0-17.856q0-22.32-15.624-37.944t-37.944-15.624l-124.992 0q-44.64 0-75.888-31.248t-31.248-75.888z"/></svg>