<svg height="1000" width="928.571" xmlns="http://www.w3.org/2000/svg"><path d="M428.544 535.744v214.272q0 44.64 -31.248 75.888t-75.888 31.248h-214.272q-44.64 0 -75.888 -31.248t-31.248 -75.888v-392.832q0 -58.032 22.599 -110.763t61.101 -91.233 91.233 -61.101 110.763 -22.599h35.712q14.508 0 25.11 10.602t10.602 25.11v71.424q0 14.508 -10.602 25.11t-25.11 10.602h-35.712q-59.148 0 -100.998 41.85t-41.85 100.998v17.856q0 22.32 15.624 37.944t37.944 15.624h124.992q44.64 0 75.888 31.248t31.248 75.888zm499.968 0v214.272q0 44.64 -31.248 75.888t-75.888 31.248h-214.272q-44.64 0 -75.888 -31.248t-31.248 -75.888v-392.832q0 -58.032 22.599 -110.763t61.101 -91.233 91.233 -61.101 110.763 -22.599h35.712q14.508 0 25.11 10.602t10.602 25.11v71.424q0 14.508 -10.602 25.11t-25.11 10.602h-35.712q-59.148 0 -100.998 41.85t-41.85 100.998v17.856q0 22.32 15.624 37.944t37.944 15.624h124.992q44.64 0 75.888 31.248t31.248 75.888z"/></svg>