<svg height="1000" width="928.6" xmlns="http://www.w3.org/2000/svg"><path d="M0 392.9v-214.3q0-44.6 31.2-75.9t75.9-31.2h214.3q44.6 0 75.9 31.2t31.2 75.9v392.8q0 58-22.6 110.8t-61.1 91.2-91.2 61.1-110.8 22.6h-35.7q-14.5 0-25.1-10.6t-10.6-25.1v-71.4q0-14.5 10.6-25.1t25.1-10.6h35.7q59.1 0 101-41.9t41.9-101v-17.9q0-22.3-15.6-37.9t-37.9-15.6h-125q-44.6 0-75.9-31.2t-31.2-75.9zm500 0v-214.3q0-44.6 31.2-75.9t75.9-31.2h214.3q44.6 0 75.9 31.2t31.2 75.9v392.8q0 58-22.6 110.8t-61.1 91.2-91.2 61.1-110.8 22.6h-35.7q-14.5 0-25.1-10.6t-10.6-25.1v-71.4q0-14.5 10.6-25.1t25.1-10.6h35.7q59.1 0 101-41.9t41.9-101v-17.9q0-22.3-15.6-37.9t-37.9-15.6h-125q-44.6 0-75.9-31.2t-31.2-75.9z"/></svg>