<svg height="1000" width="928.6" xmlns="http://www.w3.org/2000/svg"><path d="M0 750v-392.8q0-58 22.6-110.8t61.1-91.2 91.2-61.1 110.8-22.6h35.7q14.5 0 25.1 10.6t10.6 25.1v71.4q0 14.5-10.6 25.1t-25.1 10.6h-35.7q-59.1 0-101 41.9t-41.9 101v17.9q0 22.3 15.6 37.9t37.9 15.6h125q44.6 0 75.9 31.2t31.2 75.9v214.3q0 44.6-31.2 75.9t-75.9 31.2h-214.3q-44.6 0-75.9-31.2t-31.2-75.9zm500 0v-392.8q0-58 22.6-110.8t61.1-91.2 91.2-61.1 110.8-22.6h35.7q14.5 0 25.1 10.6t10.6 25.1v71.4q0 14.5-10.6 25.1t-25.1 10.6h-35.7q-59.1 0-101 41.9t-41.9 101v17.9q0 22.3 15.6 37.9t37.9 15.6h125q44.6 0 75.9 31.2t31.2 75.9v214.3q0 44.6-31.2 75.9t-75.9 31.2h-214.3q-44.6 0-75.9-31.2t-31.2-75.9z"/></svg>