<svg height="1000px" width="928.5714285714286px" xmlns="http://www.w3.org/2000/svg">
  <g>
    <path d="M928.5714285714286 535.7142857142857c0 0 0 214.286 0 214.286c0 29.762 -10.417 55.059 -31.25 75.893c-20.833 20.833 -46.131 31.25 -75.893 31.25c0 0 -214.286 0 -214.286 0c-29.761 0 -55.059 -10.417 -75.892 -31.25c-20.834 -20.834 -31.25 -46.131 -31.25 -75.893c0 0 0 -392.857 0 -392.857c0 -38.691 7.533 -75.614 22.6 -110.771c15.067 -35.156 35.435 -65.569 61.105 -91.238c25.67 -25.67 56.083 -46.038 91.239 -61.105c35.156 -15.067 72.079 -22.601 110.77 -22.601c0 0 35.714 0 35.714 0c9.673 0 18.043 3.535 25.112 10.603c7.068 7.068 10.602 15.439 10.602 25.112c0 0 0 71.428 0 71.428c0 9.673 -3.534 18.043 -10.602 25.112c-7.069 7.068 -15.439 10.602 -25.112 10.602c0 0 -35.714 0 -35.714 0c-39.435 0 -73.103 13.951 -101.005 41.853c-27.901 27.902 -41.852 61.57 -41.852 101.005c0 0 0 17.857 0 17.857c0 14.881 5.208 27.529 15.625 37.946c10.416 10.417 23.065 15.625 37.946 15.625c0 0 125 0 125 0c29.762 0 55.06 10.417 75.893 31.25c20.833 20.833 31.25 46.131 31.25 75.893c0 0 0 0 0 0m-500 0c0 0 0 214.286 0 214.286c0 29.762 -10.417 55.059 -31.25 75.893c-20.833 20.833 -46.131 31.25 -75.893 31.25c0 0 -214.286 0 -214.286 0c-29.761 0 -55.059 -10.417 -75.892 -31.25c-20.834 -20.834 -31.25 -46.131 -31.25 -75.893c0 0 0 -392.857 0 -392.857c0 -38.691 7.533 -75.614 22.6 -110.771c15.067 -35.156 35.435 -65.569 61.105 -91.238c25.67 -25.67 56.083 -46.038 91.239 -61.105c35.156 -15.067 72.079 -22.601 110.77 -22.601c0 0 35.714 0 35.714 0c9.673 0 18.043 3.535 25.112 10.603c7.068 7.068 10.602 15.439 10.602 25.112c0 0 0 71.428 0 71.428c0 9.673 -3.534 18.043 -10.602 25.112c-7.069 7.068 -15.439 10.602 -25.112 10.602c0 0 -35.714 0 -35.714 0c-39.435 0 -73.103 13.951 -101.005 41.853c-27.901 27.902 -41.852 61.57 -41.852 101.005c0 0 0 17.857 0 17.857c0 14.881 5.208 27.529 15.625 37.946c10.416 10.417 23.065 15.625 37.946 15.625c0 0 125 0 125 0c29.762 0 55.06 10.417 75.893 31.25c20.833 20.833 31.25 46.131 31.25 75.893c0 0 0 0 0 0" />
  </g>
</svg>