<svg height="1000" width="928.6" xmlns="http://www.w3.org/2000/svg"><path d="M428.6 535.7V750q0 44.6 -31.3 75.9t-75.9 31.2H107.1q-44.6 0 -75.8 -31.2T0 750V357.1q0 -58 22.6 -110.7t61.1 -91.3T174.9 94 285.7 71.4h35.7q14.5 0 25.1 10.6t10.6 25.1v71.5q0 14.5 -10.6 25.1t-25.1 10.6h-35.7q-59.1 0 -101 41.8t-41.8 101V375q0 22.3 15.6 37.9t37.9 15.7h125q44.7 0 75.9 31.2t31.3 75.9zm500 0V750q0 44.6 -31.3 75.9t-75.9 31.2H607.1q-44.6 0 -75.8 -31.2T500 750V357.1q0 -58 22.6 -110.7t61.1 -91.3T674.9 94 785.7 71.4h35.7q14.5 0 25.1 10.6t10.6 25.1v71.5q0 14.5 -10.6 25.1t-25.1 10.6h-35.7q-59.1 0 -101 41.8t-41.8 101V375q0 22.3 15.6 37.9t37.9 15.7h125q44.7 0 75.9 31.2t31.3 75.9z"/></svg>