<svg height="1000" width="1214.3" xmlns="http://www.w3.org/2000/svg"><path d="M637.8 967.1q-3.3 -.6 -6.1 -2.3 -7.3 -4.4 -20.1 -12.8t-48 -36.3 -65 -58.3 -62.5 -78.1T386.2 683q-9.5 -1.6 -97.7 -20.6 36.8 118.8 131.1 202t218.2 102.7zM280.1 628.9l93.8 15.6q-14 -42.4 -22.9 -93.4t-10.6 -81.2l-2.2 -29.6q-46.9 45.7 -67.6 125 2.8 36.3 9.5 63.6zm61.4 -339.8q-24 35.7 -43 82.6 24.6 -25.7 41.3 -38zm801.9 242.2q0 -89.9 -34.6 -171.4t-93.5 -140.6 -139.7 -94T705.9 90.4q-82 0 -156.8 29.3t-133.9 82.9q-16.8 32.3 -25.1 89.3 33.4 -28.5 79.8 -46.6t88.4 -24 79.8 -7.6 60.6 .6L721 216q18.4 .5 29.6 8.6t13.6 18.4 3.7 20.7 -.6 15.9q-70.3 -6.2 -127 -.3t-102.1 24.3 -79.5 39.9 -73.1 54.9q2.2 20.1 6.4 51.7t19.8 99.3 34.6 100.2q68.7 3.3 138.1 -8.1t119.7 -29.9 90.7 -37.4T856 541.3l20.7 -13.4q12.3 -8.9 22 -11.4t17 2.8 9.5 19.2q7.8 54.1 -21.7 67.5 -116.1 54.2 -260.6 74.8Q567.5 692 466 689.7q22.8 53.6 61.3 98.5t76.5 70.9 72.8 44.1 56.7 24.3l21.7 6.7q79.8 12.8 146.8 -8.4Q1010.6 870.5 1077 764.5t66.4 -233.2zm41.3 -20.7q-7.8 75.3 -22.3 118.3Q1123.3 745 1061.1 822.3T883.4 963.7q-26.8 18.4 -45.8 24.6 -40.2 14.5 -90.9 8.9 -20.1 1.7 -40.8 1.7 -157.9 0 -281.5 -96.6T259.5 655.7q-.6 0 -2.2 -.3t-2.8 -.3q-3.4 27.9 1.4 62.8t14.5 64.2 20.1 54.7 17.5 39.9l7.8 14.5q4.5 6.7 30.2 45.7 -39.6 -21.2 -69.5 -59.4t-43.8 -78.1 -22 -76.5 -9.8 -60l-1.1 -23.4q-2.8 -1.1 -18.7 -7t-27.1 -10T124.4 611t-32 -13.9T64.5 582.9 40.7 567.8 26.8 553.6q10.6 5.6 28.2 14.2t63 25.4 81.2 21.2l1.1 -17.9q6.2 -83.1 52.5 -161.8Q275.7 322 351 231q15.6 -64.1 45.2 -119.4Q404.6 96 414.1 86.5t27.3 -17.9q88.2 -41.3 169.4 -58T779.3 4.5t171 54.1q122.8 64.2 185.9 187.5t48.5 264.5z"/></svg>