<svg height="1000" width="1000" xmlns="http://www.w3.org/2000/svg"><path d="M10.602 487.756q4.464 -121.086 64.728 -226.548t170.19 -177.444h2.79q0 .558 -.558 1.674 -4.464 4.464 -15.624 18.693t-29.016 42.687 -33.48 61.659 -24.831 75.609 -7.812 83.979 21.762 87.885 60.543 85.932q27.9 27.9 56.916 38.781t50.499 6.417 38.781 -13.113 26.226 -18.135l8.928 -8.928q21.762 -28.458 29.574 -65.007t3.627 -68.355 -11.718 -59.706 -14.787 -44.64l-7.812 -16.182q-5.58 -13.95 -17.019 -27.621t-23.994 -22.878 -24.273 -16.461 -19.53 -10.602l-7.254 -3.348 58.032 -64.17q21.762 9.486 43.524 29.016t32.922 34.038l10.602 15.066q.558 -26.784 -10.323 -57.753t-22.599 -48.825l-11.16 -17.298 89.838 -102.114 89.28 100.998q-18.414 25.668 -29.295 57.195t-12.555 50.499l-2.232 18.414q12.276 -20.646 34.317 -40.455t37.665 -29.295l15.624 -9.486 57.474 64.17q-24.552 7.812 -47.43 27.9t-33.48 36.27l-10.602 16.182q-17.298 31.248 -26.784 74.493t-3.906 94.86 31.806 87.327q18.414 25.11 43.245 33.759t47.43 3.069 42.408 -14.787 32.085 -18.693l11.718 -8.928q33.48 -29.574 53.847 -64.17t27.063 -67.797 5.58 -67.797 -10.044 -65.844 -20.646 -59.985 -25.389 -51.894 -25.11 -40.176 -19.251 -26.505l-7.254 -9.486q-7.812 -7.254 -3.906 -7.254l5.58 1.674q22.32 16.182 34.875 25.668t34.596 27.9 35.712 32.364 32.643 36.27 30.969 42.966 25.389 49.104 21.204 57.474 13.113 65.286 5.859 75.888q1.674 144.522 -60.264 259.47t-174.096 179.118 -254.448 64.17q-103.23 0 -195.858 -41.292t-158.193 -110.484 -102.672 -163.494 -33.759 -196.974z"/></svg>