<svg height="1000" width="1000" xmlns="http://www.w3.org/2000/svg"><path d="M10.6 487.7Q15.1 366.6 75.3 261.2T245.5 83.7h2.8q0 .6 -.5 1.7 -4.5 4.4 -15.7 18.7t-29 42.7 -33.5 61.6T144.8 284t-7.8 84 21.8 87.9 60.5 86q27.9 27.9 56.9 38.7t50.5 6.5 38.8 -13.2 26.2 -18.1l9 -8.9q21.7 -28.5 29.5 -65t3.7 -68.4 -11.7 -59.7 -14.8 -44.6L399.6 293Q394 279 382.5 265.3t-24 -22.8T334.3 226t-19.6 -10.6l-7.2 -3.3 58 -64.2q21.8 9.5 43.5 29t33 34l10.6 15.1q.5 -26.8 -10.4 -57.8t-22.6 -48.8l-11.1 -17.3L498.3 0l89.3 101q-18.4 25.7 -29.3 57.2t-12.5 50.5l-2.3 18.4q12.3 -20.6 34.3 -40.4t37.7 -29.3l15.6 -9.5 57.5 64.2q-24.5 7.8 -47.4 27.9t-33.5 36.2l-10.6 16.2q-17.3 31.3 -26.8 74.5t-3.9 94.9 31.8 87.3q18.4 25.1 43.3 33.8t47.4 3 42.4 -14.8 32.1 -18.6l11.7 -9Q808.6 514 829 479.4t27 -67.8 5.6 -67.9 -10 -65.8 -20.7 -60T805.5 166t-25.1 -40.2T761.2 99.3l-7.3 -9.5q-7.8 -7.2 -3.9 -7.2l5.6 1.7q22.3 16.1 34.9 25.6t34.6 27.9 35.7 32.4 32.6 36.3 31 42.9 25.4 49.1T971 356t13.1 65.3 5.9 75.9q1.6 144.5 -60.3 259.5T755.6 935.8 501.1 1000q-103.2 0 -195.9 -41.3T147 848.2 44.4 684.7t-33.8 -197z"/></svg>