<svg height="1000" width="1000" xmlns="http://www.w3.org/2000/svg"><path d="M466.5 652.3l-8.4 205.4L457 870 222.7 853.8q-20.1 -1.7 -37.4 -17.6T159 799.7q-6.1 -15.1 -8.1 -30.7t2.3 -36.3 6.7 -30.7 12 -35.7 10.6 -29.6q43.5 6.7 284 15.6zm-215.9 -327L351 536.8l-82 -51.3q-35.2 40.2 -62.2 80.6t-40.5 69.8 -22 52.7 -10.4 35.2l-2.2 11.7L25.7 536.3Q16.2 521.8 15.6 505T19 478.8l4.4 -10Q43 433.6 87.1 363.8l-78.2 -48zm686.9 288.5L832.6 814.2q-6.7 16.2 -20.4 25.9t-24.3 11.5l-10 2.2q-39.6 3.9 -122.2 6.7l4.5 91.5L531.8 747.2l117.8 -202 3.9 96.5q94.8 9 157.9 2.8t94.8 -18.4zM499.4 98.2Q473.2 133.4 351.6 341L174.7 236.6l-10.6 -6.7L289.6 31.3Q300.8 14 323.1 6.1T367.7 .6q13.4 1.1 27.1 6.7T418.2 19t23.2 18.4 20.1 19.2 20.1 22.1 17.8 19.5zM865 269.5l118.3 202.6q10 20.6 6.9 42.4t-15.3 41.3q-7.3 11.2 -18.4 20.7t-21.2 15.6 -27.1 12.3 -26.2 8.9 -28.8 7.8 -25.6 6.7q-19 -40.2 -147.9 -243.3L854.4 275.7zM785.2 143.4l79.2 -46.3L741.6 305.2 507.8 294.1l84.3 -48q-19 -49.7 -41.9 -92.6t-42.1 -69 -36 -44.6T445.9 14l-9.5 -7.3 226 .6q17.3 -1.7 32.4 5.8T716.5 29l6.2 8.4q21.7 34 62.5 106z"/></svg>