<svg height="1000" width="1000" xmlns="http://www.w3.org/2000/svg"><path d="M466.488 652.366l-8.37 205.344 -1.116 12.276 -234.36 -16.182q-20.088 -1.674 -37.386 -17.577t-26.226 -36.549q-6.138 -15.066 -8.091 -30.69t2.232 -36.27 6.696 -30.69 11.997 -35.712 10.602 -29.574q43.524 6.696 284.022 15.624zm-215.946 -326.988l100.44 211.482 -82.026 -51.336q-35.154 40.176 -62.217 80.631t-40.455 69.75 -22.041 52.731 -10.323 35.154l-2.232 11.718 -106.02 -199.206q-9.486 -14.508 -10.044 -31.248t3.348 -26.226l4.464 -10.044q19.53 -35.154 63.612 -104.904l-78.12 -47.988zm686.898 288.486l-104.904 200.322q-6.696 16.182 -20.367 25.947t-24.273 11.439l-10.044 2.232q-39.618 3.906 -122.202 6.696l4.464 91.512 -128.34 -204.786 117.738 -201.996 3.906 96.534q94.86 8.928 157.914 2.79t94.86 -18.414zm-438.03 -515.592q-26.226 35.154 -147.87 242.73l-176.886 -104.346 -10.602 -6.696 125.55 -198.648q11.16 -17.298 33.48 -25.11t44.64 -5.58q13.392 1.116 27.063 6.696t23.436 11.718 23.157 18.414 20.088 19.251 20.088 22.041 17.856 19.53zm365.49 171.306l118.296 202.554q10.044 20.646 6.975 42.408t-15.345 41.292q-7.254 11.16 -18.414 20.646t-21.204 15.624 -27.063 12.276 -26.226 8.928 -28.737 7.812 -25.668 6.696q-18.972 -40.176 -147.87 -243.288l174.654 -108.81zm-79.794 -126.108l79.236 -46.314 -122.76 208.134 -233.802 -11.16 84.258 -47.988q-18.972 -49.662 -41.85 -92.628t-42.129 -68.913 -35.991 -44.64 -26.226 -25.947l-9.486 -7.254 225.99 .558q17.298 -1.674 32.364 5.859t21.762 15.903l6.138 8.37q21.762 34.038 62.496 106.02z"/></svg>