<svg height="1000" width="857.143" xmlns="http://www.w3.org/2000/svg"><path d="M530.1 637.858q3.906 -3.906 9.765 -3.906t9.765 3.906 3.906 10.044 -3.906 10.044q-36.27 35.712 -116.064 35.712h-1.116q-79.794 0 -115.506 -35.712 -4.464 -3.906 -4.464 -10.044t4.464 -10.044q3.906 -3.906 9.765 -3.906t9.765 3.906q27.342 28.458 95.976 28.458h1.116q68.076 0 96.534 -28.458zm-155.682 -122.76q0 20.646 -14.508 35.712t-35.154 15.066 -35.154 -15.066 -14.508 -35.712 14.508 -35.154 35.154 -14.508 35.154 14.508 14.508 35.154zm302.994 -243.288q-16.182 0 -27.9 -11.718t-11.718 -27.9q0 -16.74 11.718 -28.458t27.9 -11.718q16.74 0 28.458 11.718t11.718 28.458q0 16.182 -11.718 27.9t-28.458 11.718zm1.116 -200.322q73.656 0 126.108 52.452t52.452 126.666v498.852q0 74.214 -52.452 126.666t-126.108 52.452h-499.968q-73.656 0 -126.108 -52.452t-52.452 -126.666v-498.852q0 -74.214 52.452 -126.666t126.108 -52.452h499.968zm58.59 453.096q19.53 -7.812 31.806 -25.389t12.276 -39.339q0 -28.458 -20.088 -48.825t-48.546 -20.367q-33.48 0 -54.684 26.784 -84.258 -59.706 -209.25 -64.17l46.314 -147.87 114.948 27.342q.558 27.9 20.367 47.43t47.151 19.53q27.9 0 47.988 -19.809t20.088 -47.709 -20.088 -47.988 -47.988 -20.088q-20.088 0 -36.828 11.439t-25.11 29.853l-126.666 -30.132q-5.022 -1.116 -9.765 1.395t-6.417 8.091l-53.01 168.516q-124.992 2.232 -212.598 63.054 -20.088 -23.994 -51.894 -23.994 -28.458 0 -48.546 20.367t-20.088 48.825q0 20.646 10.881 37.665t29.295 25.389q-3.906 13.95 -3.906 30.132 0 54.684 41.292 101.277t112.437 73.656 155.403 27.063q83.7 0 154.845 -27.063t112.437 -73.656 41.292 -101.277q0 -15.066 -3.348 -30.132zm-195.3 -59.148q20.646 0 35.154 14.508t14.508 35.154 -14.508 35.712 -35.154 15.066 -35.154 -15.066 -14.508 -35.712 14.508 -35.154 35.154 -14.508z"/></svg>