<svg height="1000" width="857.1" xmlns="http://www.w3.org/2000/svg"><path d="M524 630q7.3 7.3 0 14.5 -29.6 29.6 -95.4 29.6t-95.5 -29.6q-7.2 -7.2 0 -14.5 2.8 -3.3 7.3 -3.3t7.3 3.3q23.4 23.5 80.9 23.5T509.5 630q2.8 -3.3 7.2 -3.3t7.3 3.3zM377.2 543q0 17.3 -12.8 30.1t-30.1 12.8 -30.2 -12.8T291.3 543q0 -17.9 12.6 -30.4T334.3 500t30.4 12.6 12.5 30.4zm188.6 0q0 17.3 -12.8 30.1t-30.1 12.8 -30.2 -12.8T479.9 543q0 -17.9 12.6 -30.4T522.9 500t30.4 12.6 12.5 30.4zm120 -57.5q0 -23.4 -16.7 -40.2t-40.8 -16.7q-23.4 0 -40.7 17.3 -63 -43.6 -149 -45.8l30.2 -135.6 95.4 21.8q.5 17.8 13.1 30.1t29.8 12.3q17.9 0 30.5 -12.6t12.5 -30.4 -12.5 -30.4 -30.5 -12.6q-26.7 0 -38.5 24L463.2 243.3q-9.5 -2.8 -11.7 7.3L418 400.1q-86 3.4 -147.9 46.3 -16.8 -17.8 -41.3 -17.8 -24 0 -40.7 16.7t-16.8 40.2q0 16.7 8.9 30.7t23.5 21.2q-2.8 13.9 -2.8 26.8 0 68.1 67 116.3t161.2 48.3q94.9 0 161.9 -48.3t66.9 -116.3q0 -14 -3.3 -27.4 13.9 -7.2 22.6 -20.9t8.6 -30.4zM857.1 232.1v535.8q0 66.4 -47.1 113.5t-113.6 47.2H160.7q-66.4 0 -113.5 -47.2T0 767.9V232.1Q0 165.7 47.2 118.6T160.7 71.4h535.7q66.4 0 113.6 47.2t47.1 113.5z"/></svg>