<svg height="1000" width="1000" xmlns="http://www.w3.org/2000/svg"><path d="M611 651.2q9 9 0 17.3 -34.5 34.6 -111 34.6T389 668.5q-9 -8.3 0 -17.3 3.3 -3.3 8.3 -3.3t8.4 3.3q26.8 27.4 94.3 27.4 67 0 94.3 -27.4 3.4 -3.3 8.4 -3.3t8.3 3.3zm-171.3 -101q0 20.7 -14.5 35.2t-35.1 14.5 -35.5 -14.5 -14.8 -35.2q0 -21.2 14.8 -35.7T390.1 500t35.1 14.8 14.5 35.4zm220.5 0q0 20.7 -14.8 35.2t-35.5 14.5 -35.1 -14.5 -14.5 -35.2 14.5 -35.4T609.9 500t35.5 14.5 14.8 35.7zm140 -66.9q0 -27.4 -19.5 -46.9t-47.4 -19.5 -48 20Q612.7 386.7 511.7 383.4l35.2 -158 111.6 25.2q0 20.6 14.5 35.1t35.1 14.5 35.5 -14.8T758.4 250t-14.8 -35.4 -35.5 -14.8q-30.1 0 -44.6 27.9L540.2 200.3q-10.6 -2.8 -14 9l-38.5 174.1q-100.4 3.9 -172.4 54.1 -19.5 -20.6 -48.6 -20.6 -27.9 0 -47.4 19.5t-19.5 46.9q0 19.5 10.3 35.7t27.6 24.5q-3.3 15.1 -3.3 31.3 0 79.2 78.1 135.6t188.1 56.3q110.4 0 188.6 -56.3t78.1 -135.6q0 -17.9 -3.9 -31.8 16.7 -8.4 26.8 -24.3t10 -35.4zM1000 500q0 101.6 -39.6 194.2T853.8 853.8 694.2 960.4 500 1000 305.8 960.4 146.2 853.8 39.6 694.2 0 500 39.6 305.8 146.2 146.2 305.8 39.6 500 0t194.2 39.6 159.6 106.6 106.6 159.6T1000 500z"/></svg>