<svg height="1000" width="1107.143" xmlns="http://www.w3.org/2000/svg"><path d="M463.698 537.976q0 31.248 -22.599 53.568t-53.847 22.32q-31.806 0 -54.684 -22.32t-22.878 -53.568q0 -31.806 23.157 -54.684t54.405 -22.878 53.847 22.878 22.599 54.684zm257.238 -77.562q31.248 0 53.847 22.878t22.599 54.684q0 31.248 -22.599 53.568t-53.847 22.32q-31.806 0 -54.684 -22.32t-22.878 -53.568q0 -31.806 23.157 -54.684t54.405 -22.878zm386.136 -6.138q0 34.596 -17.298 63.612t-46.314 45.756q2.79 18.414 2.79 34.038 0 67.518 -38.223 128.619t-110.205 107.973q-69.75 45.756 -159.309 70.029t-187.209 24.273q-98.208 0 -187.767 -24.273t-158.751 -70.029q-71.982 -46.872 -110.205 -107.694t-38.223 -128.898q0 -16.182 2.79 -36.828 -26.784 -17.298 -42.966 -45.477t-16.182 -61.101q0 -52.452 36.828 -89.28t89.28 -36.828q46.314 0 82.584 30.69 138.384 -88.164 330.336 -91.512l74.772 -236.034q2.232 -7.812 9.765 -11.997t15.903 -2.511l193.626 45.756q12.276 -27.9 38.223 -45.198t57.195 -17.298q42.966 0 73.377 30.411t30.411 73.377 -30.411 73.656 -73.377 30.69q-42.408 0 -72.819 -30.132t-30.969 -73.098l-175.77 -41.292 -64.728 204.228q182.466 7.812 312.48 92.628 35.712 -32.364 84.258 -32.364 52.452 0 89.28 36.828t36.828 89.28zm-178.56 -411.246q-25.11 0 -42.966 17.856t-17.856 42.966 17.856 42.966 42.966 17.856 42.966 -17.856 17.856 -42.966 -17.856 -42.966 -42.966 -17.856zm-885.546 411.246q0 37.386 28.458 61.938 27.342 -73.098 100.44 -131.13 -20.088 -13.95 -45.756 -13.95 -34.596 0 -58.869 24.273t-24.273 58.869zm831.42 344.286q62.496 -40.734 95.697 -92.628t33.201 -108.252 -33.201 -107.973 -95.697 -92.349q-64.728 -41.85 -148.149 -64.449t-174.933 -22.599 -174.933 22.599 -148.149 64.449q-62.496 40.734 -95.697 92.349t-33.201 107.973 33.201 108.252 95.697 92.628q64.728 41.85 148.149 64.449t174.933 22.599 174.933 -22.599 148.149 -64.449zm157.914 -279q31.806 -25.668 31.806 -65.286 0 -34.596 -24.273 -58.869t-58.869 -24.273q-27.342 0 -47.988 15.624 73.098 58.59 99.324 132.804zm-330.336 205.344q6.138 -6.138 15.066 -6.138t15.066 6.138 6.138 15.345 -6.138 15.345q-55.242 55.242 -178.002 55.242h-1.116q-122.76 0 -178.002 -55.242 -6.138 -6.138 -6.138 -15.345t6.138 -15.345 15.066 -6.138 15.066 6.138q42.966 42.966 147.87 42.966h1.116q104.904 0 147.87 -42.966z"/></svg>