<svg height="1000" width="1000" xmlns="http://www.w3.org/2000/svg"><path d="M1000 472.1q0 32.4 -16.5 58.9t-44.3 40.4q6.7 25.7 6.7 53.6 0 86.5 -59.5 160.2T724.3 901.5t-223.2 42.7T278.2 901.5 116.4 785.2 56.9 625q0 -26.2 6.2 -52.5 -28.5 -13.9 -45.8 -41T0 472.1q0 -45.8 32.4 -78.4T111 361q47.5 0 81 35.2 121.6 -84.8 287.4 -90.4L544.1 15.1q1.7 -7.3 8.4 -11.8T567 .6l205.9 45.2q10 -20.7 30.1 -33.2T847.1 0q34.6 0 59.1 24.3t24.6 58.8 -24.6 59.2 -59.1 24.6 -58.9 -24.3T764 83.7L577.6 42.4l-58.1 263.4q167.4 5 289.7 89.3Q841.5 361 889 361q46.3 0 78.6 32.7t32.4 78.4zm-766.7 111q0 34.6 24.2 59.2t58.9 24.6 59.2 -24.6 24.5 -59.2 -24.5 -58.8T316.4 500q-34 0 -58.6 24.6t-24.5 58.5zm452 198.2q6.1 -6.2 6.1 -14.6t-6.1 -14.5q-5.6 -5.5 -14 -5.5t-14.5 5.5q-22.9 23.5 -67.5 34.6T500 798t-89.3 -11.2 -67.5 -34.6q-6.1 -5.5 -14.5 -5.5t-14 5.5q-6.1 5.6 -6.1 14.3t6.1 14.8q24 23.9 66.2 37.9t68.3 16.5 50.8 2.5 50.8 -2.5 68.3 -16.5 66.2 -37.9zm-1.7 -114.4q34.6 0 58.9 -24.6t24.2 -59.2q0 -34 -24.5 -58.5T683.6 500q-34.6 0 -59.2 24.3t-24.5 58.8 24.5 59.2 59.2 24.6z"/></svg>