<svg height="1000" width="1285.714" xmlns="http://www.w3.org/2000/svg"><path d="M842.022 797.446q0 7.812 -6.696 16.182 -29.016 32.922 -82.305 46.314t-109.647 13.392q-140.616 0 -193.068 -59.706 -6.696 -8.37 -6.696 -16.182 0 -9.486 6.696 -16.461t16.182 -6.975q8.37 0 16.74 6.696 32.364 27.342 70.029 36.828t89.001 9.486 89.28 -9.486 70.866 -36.828q8.37 -6.696 16.74 -6.696 9.486 0 16.182 6.975t6.696 16.461zm-296.298 -218.178q0 34.038 -23.994 58.032t-58.032 23.994q-33.48 0 -58.311 -24.273t-24.831 -57.753q0 -34.038 24.552 -58.59t58.59 -24.552 58.032 24.552 23.994 58.59zm359.352 0q0 34.038 -23.994 58.032t-58.032 23.994q-33.48 0 -58.311 -24.273t-24.831 -57.753q0 -34.038 24.552 -58.59t58.59 -24.552 58.032 24.552 23.994 58.59zm-673.506 -164.61q-21.762 -15.066 -49.104 -15.066 -36.828 0 -63.054 26.226t-26.226 63.054q0 40.176 30.132 67.518 29.574 -78.678 108.252 -141.732zm895.59 229.338q0 -123.876 -138.942 -215.946 -71.424 -47.43 -162.657 -70.587t-184.977 -23.157 -184.977 23.157 -163.215 70.587q-138.942 92.07 -138.942 215.946t138.942 215.946q71.982 47.43 163.215 70.587t184.977 23.157 184.977 -23.157 162.657 -70.587q138.942 -92.07 138.942 -215.946zm65.286 -155.124q0 -36.828 -26.226 -63.054t-63.054 -26.226q-27.9 0 -51.894 16.74 78.12 63.612 107.136 142.848 34.038 -26.784 34.038 -70.308zm-80.352 -376.65q0 -27.342 -19.251 -46.593t-46.035 -19.251q-27.342 0 -46.593 19.251t-19.251 46.593q0 26.784 19.251 46.035t46.593 19.251q26.784 0 46.035 -19.251t19.251 -46.035zm126.666 376.65q0 36.27 -18.414 68.076t-49.662 50.22q2.79 19.53 2.79 36.828 0 77.562 -44.082 142.569t-116.064 112.437q-78.12 51.336 -174.933 76.167t-197.811 24.831 -198.09 -24.831 -175.212 -76.167q-71.982 -47.43 -116.064 -112.437t-44.082 -142.569q0 -20.088 3.348 -39.618 -29.574 -18.414 -46.593 -49.383t-17.019 -66.123q0 -55.8 39.618 -95.697t95.976 -39.897q50.778 0 88.722 33.48 147.87 -94.86 356.004 -98.766l80.352 -254.448q5.58 -16.182 22.32 -16.182 13.392 0 214.272 50.22 13.392 -30.69 41.292 -49.104t61.38 -18.414q45.756 0 78.678 32.922t32.922 79.236 -32.922 78.957 -78.678 32.643q-46.314 0 -78.957 -32.643t-33.201 -78.399l-189.162 -44.64 -69.75 220.41q194.742 8.37 336.474 99.882 39.618 -35.154 90.954 -35.154 56.358 0 95.976 39.897t39.618 95.697z"/></svg>