<svg height="1000" width="1000" xmlns="http://www.w3.org/2000/svg"><path d="M581.5 392.3q0 -49.1 -33.5 -67.5 -18.4 -10.1 -65.3 -10.1h-68.6v156.8h90.4q36.8 0 56.9 -20.6t20.1 -58.6zm29 159l114.4 208.2q4.5 9.5 -.6 17.3 -4.4 8.9 -15 8.9h-84.9q-11.1 0 -15.6 -9.5L500.6 572.5h-86.5v195.4q0 7.8 -5.1 12.8t-12.8 5h-74.8q-7.8 0 -12.8 -5t-5 -12.8V232.1q0 -7.8 5 -12.8t12.8 -5h164.1q71.4 0 106 13.4 47.5 17.3 74.8 60.8T693.6 389q0 51.3 -23.7 92.3t-64.4 61.1q3.3 5.6 5 8.9zM500 89.3q-83.7 0 -159.6 32.6t-130.9 87.6 -87.6 130.9T89.3 500t32.6 159.6 87.6 130.9 130.9 87.6T500 910.7t159.6 -32.6 130.9 -87.6 87.6 -130.9T910.7 500 878.1 340.4 790.5 209.5 659.6 121.9 500 89.3zM1000 500q0 101.6 -39.6 194.2T853.8 853.8 694.2 960.4 500 1000 305.8 960.4 146.2 853.8 39.6 694.2 0 500 39.6 305.8 146.2 146.2 305.8 39.6 500 0t194.2 39.6 159.6 106.6 106.6 159.6T1000 500z"/></svg>