<svg height="1000" width="928.571" xmlns="http://www.w3.org/2000/svg"><path d="M928.512 660.736v17.856q0 73.656 -52.452 126.108t-126.108 52.452h-71.424q-73.656 0 -126.108 -52.452t-52.452 -126.108v-267.84h-124.992q-1.116 56.916 -8.091 106.299t-17.019 87.048 -27.063 70.587 -31.806 55.521 -37.665 43.245 -38.781 32.643 -41.292 24.552 -38.502 17.856 -36.549 14.229q-2.232 1.116 -17.856 7.254 -4.464 1.116 -6.696 1.116 -12.276 0 -16.74 -11.16l-39.618 -99.324q-2.79 -7.254 0 -13.95t9.486 -9.486q3.906 -1.674 11.16 -4.185t10.044 -3.627q17.298 -6.696 25.947 -10.323t24.831 -11.16 25.389 -14.508 23.436 -18.135 22.599 -23.715 19.251 -29.853 17.019 -38.223 12.555 -46.593 9.486 -57.474 3.627 -68.634h-142.848q-7.812 0 -12.834 -5.022t-5.022 -12.834v-89.28q0 -7.812 5.022 -12.834t12.834 -5.022h678.528q7.812 0 12.834 5.022t5.022 12.834v89.28q0 7.812 -5.022 12.834t-12.834 5.022h-124.992v285.696q0 14.508 10.602 25.11t25.11 10.602h71.424q14.508 0 25.11 -10.602t10.602 -25.11v-35.712q0 -7.812 5.022 -12.834t12.834 -5.022h107.136q7.812 0 12.834 5.022t5.022 12.834zm-214.272 -571.392v89.28q0 7.812 -5.022 12.834t-12.834 5.022h-535.68q-7.812 0 -12.834 -5.022t-5.022 -12.834v-89.28q0 -7.812 5.022 -12.834t12.834 -5.022h535.68q7.812 0 12.834 5.022t5.022 12.834z"/></svg>