<svg height="1000" width="857.143" xmlns="http://www.w3.org/2000/svg"><path d="M0 501.148q0 -104.346 46.593 -195.021t128.061 -150.381 181.35 -76.446v270.63q0 140.616 -70.587 256.401t-184.419 171.027q-100.998 -119.97 -100.998 -276.21zm222.084 374.976q77.004 -48.546 131.409 -117.738t73.377 -149.544q19.53 80.352 73.935 149.544t131.409 117.738q-95.418 52.452 -205.344 52.452 -109.368 0 -204.786 -52.452zm279 -526.194v-270.63q99.882 16.74 181.35 76.446t128.061 150.381 46.593 195.021q0 156.24 -100.998 276.21 -113.832 -55.242 -184.419 -171.027t-70.587 -256.401z"/></svg>