<svg height="1000" width="1071.429" xmlns="http://www.w3.org/2000/svg"><path d="M449.19 766.198q-68.076 37.386 -145.638 37.386 -78.678 0 -145.638 -37.386 54.684 -34.038 93.186 -83.142t52.452 -106.578q13.95 57.474 52.452 106.578t93.186 83.142zm-196.416 -565.254v191.952q0 99.882 -49.941 181.908t-130.851 121.086q-71.982 -84.816 -71.982 -195.858 0 -111.6 72.261 -196.416t180.513 -102.672zm281.79 103.23q-71.424 84.816 -71.424 195.858 0 112.158 71.424 195.858 -80.91 -39.06 -130.851 -121.644t-49.941 -183.024v-190.278q109.368 18.414 180.792 103.23zm379.44 462.024q-68.076 37.386 -145.638 37.386 -78.678 0 -145.638 -37.386 54.684 -34.038 93.186 -83.142t52.452 -106.578q13.95 57.474 52.452 106.578t93.186 83.142zm-196.416 -565.254v191.952q0 99.882 -50.778 181.908t-132.246 121.086q74.214 -85.932 74.214 -195.858 0 -108.81 -74.214 -195.858 71.982 -84.258 183.024 -103.23zm353.772 299.088q0 112.158 -71.982 195.858 -80.91 -39.06 -130.851 -121.644t-49.941 -183.024v-190.278q108.252 17.856 180.513 102.672t72.261 196.416z"/></svg>