<svg height="1000px" width="1000px" xmlns="http://www.w3.org/2000/svg">
  <g>
    <path d="M875 909.0401785714286c0 0 2.79 -27.902 2.79 -27.902c1.86 -25.297 2.79 -52.455 2.79 -81.473c0 -29.018 -3.255 -58.408 -9.765 -88.17c-6.511 -29.762 -15.532 -55.524 -27.065 -77.288c-11.533 -21.763 -26.414 -40.55 -44.643 -56.361c-18.229 -15.811 -37.853 -28.739 -58.873 -38.784c-21.019 -9.672 -45.666 -17.485 -73.939 -23.437c-50.596 -10.417 -111.98 -15.625 -184.152 -15.625c0 0 -125 0 -125 0c0 0 0 142.857 0 142.857c0 9.673 -3.534 18.043 -10.603 25.112c-7.068 7.068 -15.439 10.602 -25.111 10.602c-9.673 0 -18.044 -3.534 -25.112 -10.602c0 0 -285.714 -285.715 -285.714 -285.715c-7.069 -7.068 -10.603 -15.439 -10.603 -25.111c0 -9.673 3.534 -18.043 10.603 -25.112c0 0 285.714 -285.714 285.714 -285.714c7.068 -7.069 15.439 -10.603 25.112 -10.603c9.672 0 18.043 3.534 25.111 10.603c7.069 7.068 10.603 15.439 10.603 25.111c0 0 0 142.858 0 142.858c0 0 125 0 125 0c265.253 0 428.013 74.962 488.281 224.888c19.717 50.223 29.576 109.189 29.576 176.897c0 72.173 -28.088 169.085 -84.263 290.737c-6.697 14.509 -14.323 21.763 -22.88 21.763c-11.905 0 -17.857 -6.51 -17.857 -19.531c0 0 0 0 0 0" />
  </g>
</svg>