<svg height="1000" width="1000" xmlns="http://www.w3.org/2000/svg"><path d="M357.1 603.8v39.1q0 23.4 -21.7 32.9 -7.3 2.8 -14 2.8 -15 0 -25.1 -10.6L10.6 382.3Q0 371.7 0 357.1T10.6 332L296.3 46.3Q312.5 29 335.4 38.5q21.7 9.5 21.7 32.9v38.5L135.6 332Q125 342.6 125 357.1t10.6 25.2zM1000 625q0 32.4 -9.5 74.5t-21.5 77 -26.8 69.8 -22.6 50.5l-11.1 22.3q-4.5 9.5 -15.6 9.5 -3.4 0 -5.1 -.6Q873.9 923.5 875 909 899 685.8 815.8 593.8q-35.7 -39.7 -95.1 -61.7T571.4 502.8v140.1q0 23.4 -21.7 32.9 -7.3 2.8 -14 2.8 -15.1 0 -25.1 -10.6L224.9 382.3q-10.6 -10.6 -10.6 -25.2T224.9 332L510.6 46.3Q526.8 29 549.7 38.5q21.7 9.5 21.7 32.9v146.2Q800.8 233.3 905.7 341q94.3 96.5 94.3 284z"/></svg>