<svg height="1000" width="1000" xmlns="http://www.w3.org/2000/svg"><path d="M999.936 625.024q0 92.628 -70.866 251.658 -1.674 3.906 -5.859 13.392t-7.533 16.74 -7.254 12.276q-6.696 9.486 -15.624 9.486 -8.37 0 -13.113 -5.58t-4.743 -13.95q0 -5.022 1.395 -14.787t1.395 -13.113q2.79 -37.944 2.79 -68.634 0 -56.358 -9.765 -100.998t-27.063 -77.283 -44.64 -56.358 -58.869 -38.781 -74.214 -23.715 -85.932 -11.997 -97.929 -3.348h-124.992v142.848q0 14.508 -10.602 25.11t-25.11 10.602 -25.11 -10.602l-285.696 -285.696q-10.602 -10.602 -10.602 -25.11t10.602 -25.11l285.696 -285.696q10.602 -10.602 25.11 -10.602t25.11 10.602 10.602 25.11v142.848h124.992q397.854 0 488.25 224.874 29.574 74.772 29.574 185.814z"/></svg>