<svg height="1000" width="1000" xmlns="http://www.w3.org/2000/svg"><path d="M1000 625q0 92.6 -70.9 251.7 -1.6 3.9 -5.8 13.4t-7.6 16.7 -7.2 12.3q-6.7 9.5 -15.6 9.5 -8.4 0 -13.2 -5.6T875 909q0 -5 1.4 -14.7t1.4 -13.2q2.8 -37.9 2.8 -68.6 0 -56.4 -9.8 -101t-27 -77.3 -44.7 -56.4 -58.9 -38.7T666 515.3t-85.9 -12 -98 -3.3h-125v142.9q0 14.5 -10.6 25.1t-25.1 10.6T296.3 668L10.6 382.3Q0 371.7 0 357.1T10.6 332L296.3 46.3q10.6 -10.6 25.1 -10.6t25.1 10.6 10.6 25.1v142.9h125q397.9 0 488.3 224.9Q1000 514 1000 625z"/></svg>