<svg height="1000" width="1000" xmlns="http://www.w3.org/2000/svg"><path d="M0 357.2q0-14.5 10.6-25.1l285.7-285.7q10.6-10.6 25.1-10.6t25.1 10.6 10.6 25.1v142.8h125q397.9 0 488.3 224.9 29.6 74.8 29.6 185.8 0 92.6-70.9 251.7-1.7 3.9-5.9 13.4t-7.5 16.7-7.3 12.3q-6.7 9.5-15.6 9.5-8.4 0-13.1-5.6t-4.7-14q0-5 1.4-14.8t1.4-13.1q2.8-37.9 2.8-68.6 0-56.4-9.8-101t-27.1-77.3-44.6-56.4-58.9-38.8-74.2-23.7-85.9-12-97.9-3.3h-125v142.8q0 14.5-10.6 25.1t-25.1 10.6-25.1-10.6l-285.7-285.7q-10.6-10.6-10.6-25.1z"/></svg>