<svg height="1000" width="1000" xmlns="http://www.w3.org/2000/svg"><path d="M357.12 603.82v39.06q0 23.436 -21.762 32.922 -7.254 2.79 -13.95 2.79 -15.066 0 -25.11 -10.602l-285.696 -285.696q-10.602 -10.602 -10.602 -25.11t10.602 -25.11l285.696 -285.696q16.182 -17.298 39.06 -7.812 21.762 9.486 21.762 32.922v38.502l-221.526 222.084q-10.602 10.602 -10.602 25.11t10.602 25.11zm642.816 21.204q0 32.364 -9.486 74.493t-21.483 77.004 -26.784 69.75 -22.599 50.499l-11.16 22.32q-4.464 9.486 -15.624 9.486 -3.348 0 -5.022 -.558 -13.95 -4.464 -12.834 -18.972 23.994 -223.2 -59.148 -315.27 -35.712 -39.618 -95.139 -61.659t-149.265 -29.295v140.058q0 23.436 -21.762 32.922 -7.254 2.79 -13.95 2.79 -15.066 0 -25.11 -10.602l-285.696 -285.696q-10.602 -10.602 -10.602 -25.11t10.602 -25.11l285.696 -285.696q16.182 -17.298 39.06 -7.812 21.762 9.486 21.762 32.922v146.196q229.338 15.624 334.242 123.318 94.302 96.534 94.302 284.022z"/></svg>