<svg height="1000px" width="1000px" xmlns="http://www.w3.org/2000/svg">
  <g>
    <path d="M0 357.1428571428571c0 -9.673 3.534 -18.043 10.603 -25.112c0 0 285.714 -285.714 285.714 -285.714c7.068 -7.068 15.439 -10.603 25.112 -10.603c9.672 0 18.043 3.535 25.111 10.603c7.069 7.069 10.603 15.439 10.603 25.112c0 0 0 142.857 0 142.857c0 0 125 0 125 0c265.253 0 428.013 74.963 488.281 224.888c19.717 49.851 29.576 111.793 29.576 185.826c0 61.756 -23.624 145.647 -70.871 251.674c-1.116 2.604 -3.069 7.069 -5.859 13.393c-2.79 6.325 -5.301 11.905 -7.533 16.741c-2.233 4.836 -4.651 8.929 -7.255 12.277c-4.464 6.324 -9.672 9.487 -15.625 9.487c-5.58 0 -9.951 -1.861 -13.114 -5.581c-3.162 -3.72 -4.743 -8.37 -4.743 -13.951c0 -3.348 0.465 -8.277 1.395 -14.788c0.93 -6.51 1.395 -10.881 1.395 -13.113c1.86 -25.298 2.79 -48.178 2.79 -68.639c0 -37.574 -3.255 -71.242 -9.765 -101.004c-6.511 -29.762 -15.532 -55.525 -27.065 -77.288c-11.533 -21.764 -26.414 -40.551 -44.643 -56.362c-18.229 -15.811 -37.853 -28.739 -58.873 -38.783c-21.019 -10.045 -45.759 -17.951 -74.218 -23.717c-28.46 -5.766 -57.106 -9.765 -85.938 -11.998c-28.832 -2.232 -61.477 -3.348 -97.935 -3.348c0 0 -125 0 -125 0c0 0 0 142.857 0 142.857c0 9.673 -3.534 18.043 -10.603 25.112c-7.068 7.068 -15.439 10.603 -25.111 10.603c-9.673 0 -18.044 -3.535 -25.112 -10.603c0 0 -285.714 -285.714 -285.714 -285.714c-7.069 -7.069 -10.603 -15.439 -10.603 -25.112c0 0 0 0 0 0" />
  </g>
</svg>