<svg height="1000px" width="1000px" xmlns="http://www.w3.org/2000/svg">
  <g>
    <path d="M0 357.1428571428571c0 -9.673 3.534 -18.043 10.603 -25.112c0 0 285.714 -285.714 285.714 -285.714c7.068 -7.068 15.439 -10.603 25.112 -10.603c9.672 0 18.043 3.535 25.111 10.603c7.069 7.069 10.603 15.439 10.603 25.112c0 0 0 142.857 0 142.857c0 0 125 0 125 0c265.253 0 428.013 74.963 488.281 224.888c19.717 50.223 29.576 109.189 29.576 176.898c0 72.172 -28.088 169.084 -84.263 290.736c-6.697 14.509 -14.323 21.764 -22.88 21.764c-11.905 0 -17.857 -6.511 -17.857 -19.532c0 0 2.79 -27.901 2.79 -27.901c1.86 -25.298 2.79 -52.456 2.79 -81.474c0 -29.018 -3.255 -58.407 -9.765 -88.169c-6.511 -29.762 -15.532 -55.525 -27.065 -77.288c-11.533 -21.764 -26.414 -40.551 -44.643 -56.362c-18.229 -15.811 -37.853 -28.739 -58.873 -38.783c-21.019 -9.673 -45.666 -17.485 -73.939 -23.438c-50.596 -10.417 -111.98 -15.625 -184.152 -15.625c0 0 -125 0 -125 0c0 0 0 142.857 0 142.857c0 9.673 -3.534 18.043 -10.603 25.112c-7.068 7.068 -15.439 10.603 -25.111 10.603c-9.673 0 -18.044 -3.535 -25.112 -10.603c0 0 -285.714 -285.714 -285.714 -285.714c-7.069 -7.069 -10.603 -15.439 -10.603 -25.112c0 0 0 0 0 0" />
  </g>
</svg>