<svg height="1000" width="358" xmlns="http://www.w3.org/2000/svg"><path d="M0 821.44q0-14.508 10.602-25.11t25.11-10.602l71.424 0l0-571.392l-71.424 0q-14.508 0-25.11-10.602t-10.602-25.11 10.602-25.11l142.848-142.848q10.602-10.602 25.11-10.602t25.11 10.602l142.848 142.848q10.602 10.602 10.602 25.11t-10.602 25.11-25.11 10.602l-71.424 0l0 571.392l71.424 0q14.508 0 25.11 10.602t10.602 25.11-10.602 25.11l-142.848 142.848q-10.602 10.602-25.11 10.602t-25.11-10.602l-142.848-142.848q-10.602-10.602-10.602-25.11z"/></svg>