<svg height="1000px" width="857.1428571428571px" xmlns="http://www.w3.org/2000/svg">
  <g>
    <path d="M7.254464285714286 839.2857142857142c0 -4.836 1.86 -9.115 5.58 -12.835c0 0 185.268 -185.268 185.268 -185.268c0 0 -80.357 -80.357 -80.357 -80.357c-7.068 -7.068 -10.603 -15.439 -10.603 -25.111c0 -9.673 3.535 -18.044 10.603 -25.112c7.069 -7.068 15.439 -10.603 25.112 -10.603c0 0 250 0 250 0c9.672 0 18.043 3.535 25.111 10.603c7.069 7.068 10.603 15.439 10.603 25.112c0 0 0 250 0 250c0 9.672 -3.534 18.043 -10.603 25.111c-7.068 7.069 -15.439 10.603 -25.111 10.603c-9.673 0 -18.043 -3.534 -25.112 -10.603c0 0 -80.357 -80.357 -80.357 -80.357c0 0 -185.268 185.268 -185.268 185.268c-3.72 3.72 -7.998 5.58 -12.835 5.58c-4.836 0 -9.114 -1.86 -12.835 -5.58c0 0 -63.616 -63.616 -63.616 -63.616c-3.72 -3.72 -5.58 -7.999 -5.58 -12.835c0 0 0 0 0 0m421.317 -375c0 0 0 -250 0 -250c0 -9.673 3.534 -18.043 10.603 -25.112c7.068 -7.068 15.439 -10.602 25.111 -10.602c9.673 0 18.043 3.534 25.112 10.602c0 0 80.357 80.358 80.357 80.358c0 0 185.268 -185.268 185.268 -185.268c3.72 -3.721 7.998 -5.581 12.835 -5.581c4.836 0 9.114 1.86 12.835 5.581c0 0 63.616 63.616 63.616 63.616c3.72 3.72 5.58 7.998 5.58 12.835c0 4.836 -1.86 9.114 -5.58 12.834c0 0 -185.268 185.268 -185.268 185.268c0 0 80.357 80.357 80.357 80.357c7.068 7.069 10.603 15.439 10.603 25.112c0 9.673 -3.535 18.043 -10.603 25.112c-7.069 7.068 -15.439 10.602 -25.112 10.602c0 0 -250 0 -250 0c-9.672 0 -18.043 -3.534 -25.111 -10.602c-7.069 -7.069 -10.603 -15.439 -10.603 -25.112c0 0 0 0 0 0" />
  </g>
</svg>