<svg height="1000" width="857.1" xmlns="http://www.w3.org/2000/svg"><path d="M0 892.9v-250q0-23.4 22.3-32.9 21.8-9.5 38.5 7.8l80.4 80.4 198.1-198.1-198.1-198.1-80.4 80.4q-10.6 10.6-25.1 10.6-6.7 0-13.4-2.8-22.3-9.5-22.3-32.9v-250q0-14.5 10.6-25.1t25.1-10.6h250q23.4 0 32.9 22.3 9.5 21.8-7.8 38.5l-80.4 80.4 198.1 198.1 198.1-198.1-80.4-80.4q-17.3-16.7-7.8-38.5 9.5-22.3 32.9-22.3h250q14.5 0 25.1 10.6t10.6 25.1v250q0 23.4-21.8 32.9-7.3 2.8-14 2.8-14.5 0-25.1-10.6l-80.4-80.4-198.1 198.1 198.1 198.1 80.4-80.4q16.2-17.3 39.1-7.8 21.8 9.5 21.8 32.9v250q0 14.5-10.6 25.1t-25.1 10.6h-250q-23.4 0-32.9-22.3-9.5-21.8 7.8-38.5l80.4-80.4-198.1-198.1-198.1 198.1 80.4 80.4q17.3 16.7 7.8 38.5-9.5 22.3-32.9 22.3h-250q-14.5 0-25.1-10.6t-10.6-25.1z"/></svg>