<svg height="1000px" width="374.98779296875px" xmlns="http://www.w3.org/2000/svg">
  <g>
    <path d="M0 688c3 -7.333 12.167 -11 27.5 -11c0 0 95 0 95 0c0 0 0 -354 0 -354c0 0 -95 0 -95 0c-15.333 0 -24.5 -3.5 -27.5 -10.5c-3 -7 0.833 -15.833 11.5 -26.5c0 0 150 -151 150 -151c6.667 -6.667 15.333 -10 26 -10c10 0 18.333 3.333 25 10c0 0 150 151 150 151c10.667 10 14.5 18.667 11.5 26c-3 7.333 -12.167 11 -27.5 11c0 0 -95 0 -95 0c0 0 0 354 0 354c0 0 95 0 95 0c15.333 0 24.5 3.5 27.5 10.5c3 7 -0.833 15.833 -11.5 26.5c0 0 -150 151 -150 151c-6.667 6.667 -15.333 10 -26 10c-10 0 -18.333 -3.333 -25 -10c0 0 -150 -151 -150 -151c-10.667 -10 -14.5 -18.667 -11.5 -26c0 0 0 0 0 0" />
  </g>
</svg>