<svg height="1000px" width="857.1428571428571px" xmlns="http://www.w3.org/2000/svg">
  <g>
    <path d="M0 892.8571428571428c0 0 0 -250 0 -250c0 -15.625 7.44 -26.6 22.321 -32.924c5.271 -2.24 10.284 -3.36 15.041 -3.36c8.675 0 16.496 3.724 23.464 11.172c0 0 80.357 80.358 80.357 80.358c0 0 198.103 -198.103 198.103 -198.103c0 0 -198.103 -198.103 -198.103 -198.103c0 0 -80.357 80.357 -80.357 80.357c-7.069 7.069 -14.137 10.603 -21.205 10.603c-7.069 0 -12.835 -0.93 -17.3 -2.79c-14.881 -6.325 -22.321 -17.299 -22.321 -32.924c0 0 0 -250 0 -250c0 -9.673 3.534 -18.043 10.603 -25.112c7.068 -7.068 15.439 -10.603 25.111 -10.603c0 0 250 0 250 0c15.625 0 26.6 7.441 32.924 22.322c2.24 5.27 3.36 10.284 3.36 15.041c0 8.674 -3.724 16.496 -11.172 23.463c0 0 -80.357 80.357 -80.357 80.357c0 0 198.102 198.103 198.102 198.103c0 0 198.103 -198.103 198.103 -198.103c0 0 -80.357 -80.357 -80.357 -80.357c-7.448 -6.967 -11.172 -14.789 -11.172 -23.463c0 -4.757 1.12 -9.771 3.359 -15.041c6.325 -14.881 17.3 -22.322 32.925 -22.322c0 0 250 0 250 0c9.672 0 18.043 3.535 25.111 10.603c7.069 7.069 10.603 15.439 10.603 25.112c0 0 0 250 0 250c0 15.625 -7.255 26.599 -21.764 32.924c-4.836 1.86 -10.788 2.79 -17.857 2.79c-7.068 0 -14.137 -3.534 -21.205 -10.603c0 0 -80.357 -80.357 -80.357 -80.357c0 0 -198.103 198.103 -198.103 198.103c0 0 198.103 198.103 198.103 198.103c0 0 80.357 -80.358 80.357 -80.358c6.968 -7.448 14.789 -11.172 23.463 -11.172c4.757 0 9.771 1.12 15.041 3.36c14.881 6.324 22.322 17.299 22.322 32.924c0 0 0 250 0 250c0 9.673 -3.534 18.043 -10.603 25.112c-7.068 7.068 -15.439 10.602 -25.111 10.602c0 0 -250 0 -250 0c-15.625 0 -26.6 -7.44 -32.925 -22.321c-2.239 -5.27 -3.359 -10.284 -3.359 -15.041c0 -8.675 3.724 -16.496 11.172 -23.464c0 0 80.357 -80.357 80.357 -80.357c0 0 -198.103 -198.102 -198.103 -198.102c0 0 -198.102 198.102 -198.102 198.102c0 0 80.357 80.357 80.357 80.357c7.448 6.968 11.172 14.789 11.172 23.464c0 4.757 -1.12 9.771 -3.36 15.041c-6.324 14.881 -17.299 22.321 -32.924 22.321c0 0 -250 0 -250 0c-9.672 0 -18.043 -3.534 -25.111 -10.602c-7.069 -7.069 -10.603 -15.439 -10.603 -25.112c0 0 0 0 0 0" />
  </g>
</svg>