<svg height="1000" width="857.1" xmlns="http://www.w3.org/2000/svg"><path d="M716 301.9L517.9 500 716 698.1l80.3 -80.4q16.2 -17.3 39.1 -7.8 21.7 9.5 21.7 33v250q0 14.5 -10.6 25.1t-25.1 10.6h-250q-23.4 0 -32.9 -22.4 -9.5 -21.7 7.8 -38.5l80.4 -80.3L428.6 589.3 230.5 787.4l80.3 80.3q17.3 16.8 7.8 38.5 -9.4 22.4 -32.9 22.4h-250q-14.5 0 -25.1 -10.6T0 892.9v-250q0 -23.5 22.3 -33 21.8 -9.5 38.5 7.8l80.4 80.4L339.3 500 141.2 301.9l-80.4 80.4q-10.6 10.6 -25.1 10.6 -6.7 0 -13.4 -2.8Q0 380.6 0 357.1v-250Q0 92.6 10.6 82T35.7 71.4h250q23.5 0 32.9 22.4 9.5 21.7 -7.8 38.5l-80.3 80.3 198.1 198.1L626.7 212.6l-80.4 -80.3Q529 115.5 538.5 93.8 548 71.4 571.4 71.4h250q14.5 0 25.1 10.6t10.6 25.1v250q0 23.5 -21.7 33 -7.3 2.8 -14 2.8 -14.5 0 -25.1 -10.6z"/></svg>