<svg height="1000" width="857.1" xmlns="http://www.w3.org/2000/svg"><path d="M0 892.9v-250q0-14.5 10.6-25.1t25.1-10.6 25.1 10.6l80.4 80.4 185.3-185.3q5.6-5.6 12.8-5.6t12.8 5.6l63.6 63.6q5.6 5.6 5.6 12.8t-5.6 12.8l-185.3 185.3 80.4 80.4q10.6 10.6 10.6 25.1t-10.6 25.1-25.1 10.6h-250q-14.5 0-25.1-10.6t-10.6-25.1zm435.8-482.1q0-7.3 5.6-12.8l185.3-185.3-80.4-80.4q-10.6-10.6-10.6-25.1t10.6-25.1 25.1-10.6h250q14.5 0 25.1 10.6t10.6 25.1v250q0 14.5-10.6 25.1t-25.1 10.6-25.1-10.6l-80.4-80.4-185.3 185.3q-5.6 5.6-12.8 5.6t-12.8-5.6l-63.6-63.6q-5.6-5.6-5.6-12.8z"/></svg>