<svg height="1000px" width="750px" xmlns="http://www.w3.org/2000/svg">
  <g>
    <path d="M0 835.9375c0 0 0 -232.91 0 -232.91c0 -16.602 3.988 -26.611 11.963 -30.029c7.975 -3.418 17.659 0.569 29.053 11.962c0 0 79.101 79.102 79.101 79.102c0 0 166.016 -165.039 166.016 -165.039c0 0 -165.039 -165.039 -165.039 -165.039c0 0 -80.078 80.078 -80.078 80.078c-11.394 11.393 -21.078 15.544 -29.053 12.451c-7.975 -3.092 -11.963 -12.939 -11.963 -29.541c0 0 0 -232.91 0 -232.91c0 -10.091 3.743 -19.368 11.23 -27.832c8.79 -7.487 18.067 -11.231 27.833 -11.231c0 0 232.91 0 232.91 0c16.601 0 26.611 3.988 30.029 11.963c3.418 7.976 -0.57 17.66 -11.963 29.053c0 0 -78.125 77.149 -78.125 77.149c0 0 165.039 165.039 165.039 165.039c0 0 162.11 -163.086 162.11 -163.086c0 0 -79.102 -79.102 -79.102 -79.102c-11.393 -11.393 -15.381 -21.077 -11.963 -29.053c3.418 -7.975 13.428 -11.963 30.029 -11.963c0 0 232.911 0 232.911 0c10.742 0 19.694 3.744 26.855 11.231c8.138 8.138 12.207 17.415 12.207 27.832c0 0 0 232.91 0 232.91c0 16.602 -3.988 26.611 -11.963 30.029c-7.975 3.418 -17.659 -0.569 -29.053 -11.962c0 0 -79.101 -79.102 -79.101 -79.102c0 0 -163.086 163.086 -163.086 163.086c0 0 165.039 164.062 165.039 164.062c0 0 77.148 -78.125 77.148 -78.125c11.394 -11.393 21.078 -15.38 29.053 -11.962c7.975 3.418 11.963 13.427 11.963 30.029c0 0 0 232.91 0 232.91c0 11.393 -4.069 20.345 -12.207 26.855c-7.487 8.138 -16.439 12.207 -26.855 12.207c0 0 -232.911 0 -232.911 0c-16.601 0 -26.611 -3.987 -30.029 -11.962c-3.418 -7.976 0.57 -17.66 11.963 -29.053c0 0 81.055 -81.055 81.055 -81.055c0 0 -164.063 -164.062 -164.063 -164.062c0 0 -166.015 166.015 -166.015 166.015c0 0 79.101 79.102 79.101 79.102c11.393 11.393 15.381 21.077 11.963 29.053c-3.418 7.975 -13.428 11.963 -30.029 11.963c0 0 -232.91 0 -232.91 0c-10.092 0 -19.043 -4.07 -26.856 -12.208c-8.138 -6.51 -12.207 -15.462 -12.207 -26.855c0 0 0 0 0 0" />
  </g>
</svg>