<svg height="1000px" width="389.12220299243927px" xmlns="http://www.w3.org/2000/svg">
  <g>
    <path d="M0 695.068359375c3.255 -7.324 12.533 -10.986 27.832 -10.986c0 0 99.121 0 99.121 0c0 0 0 -368.164 0 -368.164c0 0 -99.121 0 -99.121 0c-15.299 0 -24.577 -3.663 -27.832 -10.987c-3.255 -7.324 0.814 -16.683 12.207 -28.076c0 0 155.762 -155.762 155.762 -155.762c7.487 -7.487 16.113 -11.23 25.879 -11.23c10.091 0 18.88 3.743 26.367 11.23c0 0 156.738 155.762 156.738 155.762c10.742 11.393 14.404 20.752 10.986 28.076c-3.418 7.325 -12.776 10.987 -28.076 10.987c0 0 -98.633 0 -98.633 0c0 0 0 368.164 0 368.164c0 0 98.633 0 98.633 0c15.3 0 24.658 3.662 28.076 10.986c3.418 7.324 -0.569 16.683 -11.962 28.076c0 0 -155.762 155.762 -155.762 155.762c-7.487 7.487 -16.276 11.23 -26.367 11.23c-10.091 0 -18.718 -3.743 -25.879 -11.23c0 0 -156.739 -155.762 -156.739 -155.762c-10.742 -11.393 -14.485 -20.752 -11.23 -28.076c0 0 0 0 0 0" />
  </g>
</svg>