<svg height="1000px" width="857.1428571428571px" xmlns="http://www.w3.org/2000/svg">
  <g>
    <path d="M715.9598214285714 301.89732142857133c0 0 -198.103 198.103 -198.103 198.103c0 0 198.103 198.102 198.103 198.102c0 0 80.357 -80.357 80.357 -80.357c10.789 -11.533 23.624 -14.137 38.505 -7.812c14.881 6.324 22.321 17.299 22.321 32.924c0 0 0 250 0 250c0 9.672 -3.534 18.043 -10.603 25.111c-7.068 7.069 -15.439 10.603 -25.111 10.603c0 0 -250 0 -250 0c-15.625 0 -26.6 -7.44 -32.924 -22.321c-6.325 -14.881 -3.721 -27.716 7.812 -38.505c0 0 80.357 -80.357 80.357 -80.357c0 0 -198.102 -198.103 -198.102 -198.103c0 0 -198.103 198.103 -198.103 198.103c0 0 80.357 80.357 80.357 80.357c11.533 10.789 14.137 23.624 7.813 38.505c-6.325 14.881 -17.3 22.321 -32.925 22.321c0 0 -250 0 -250 0c-9.672 0 -18.043 -3.534 -25.111 -10.603c-7.069 -7.068 -10.603 -15.439 -10.603 -25.111c0 0 0 -250 0 -250c0 -15.625 7.441 -26.6 22.322 -32.924c14.881 -6.325 27.715 -3.721 38.504 7.812c0 0 80.357 80.357 80.357 80.357c0 0 198.103 -198.102 198.103 -198.102c0 0 -198.103 -198.103 -198.103 -198.103c0 0 -80.357 80.357 -80.357 80.357c-7.068 7.069 -14.137 10.603 -21.205 10.603c-7.069 0 -12.835 -0.93 -17.299 -2.79c-14.881 -6.325 -22.322 -17.299 -22.322 -32.924c0 0 0 -250 0 -250c0 -9.673 3.534 -18.044 10.603 -25.112c7.068 -7.069 15.439 -10.603 25.111 -10.603c0 0 250 0 250 0c15.625 0 26.6 7.441 32.925 22.322c6.324 14.881 3.72 27.715 -7.813 38.504c0 0 -80.357 80.357 -80.357 80.357c0 0 198.103 198.103 198.103 198.103c0 0 198.102 -198.103 198.102 -198.103c0 0 -80.357 -80.357 -80.357 -80.357c-11.533 -10.789 -14.137 -23.623 -7.812 -38.504c6.324 -14.881 17.299 -22.322 32.924 -22.322c0 0 250 0 250 0c9.672 0 18.043 3.534 25.111 10.603c7.069 7.068 10.603 15.439 10.603 25.112c0 0 0 250 0 250c0 15.625 -7.254 26.599 -21.763 32.924c-4.837 1.86 -10.789 2.79 -17.858 2.79c-7.068 0 -14.136 -3.534 -21.205 -10.603c0 0 -80.357 -80.357 -80.357 -80.357" />
  </g>
</svg>