<svg height="1000" width="428.571" xmlns="http://www.w3.org/2000/svg"><path d="M392.832 178.624q0 14.508 -10.602 25.11t-25.11 10.602h-71.424v571.392h71.424q14.508 0 25.11 10.602t10.602 25.11 -10.602 25.11l-142.848 142.848q-10.602 10.602 -25.11 10.602t-25.11 -10.602l-142.848 -142.848q-10.602 -10.602 -10.602 -25.11t10.602 -25.11 25.11 -10.602h71.424v-571.392h-71.424q-14.508 0 -25.11 -10.602t-10.602 -25.11 10.602 -25.11l142.848 -142.848q10.602 -10.602 25.11 -10.602t25.11 10.602l142.848 142.848q10.602 10.602 10.602 25.11z"/></svg>