<svg height="1000" width="858" xmlns="http://www.w3.org/2000/svg"><path d="M0 892.864l0-249.984q0-14.508 10.602-25.11t25.11-10.602 25.11 10.602l80.352 80.352 185.256-185.256q5.58-5.58 12.834-5.58t12.834 5.58l63.612 63.612q5.58 5.58 5.58 12.834t-5.58 12.834l-185.256 185.256 80.352 80.352q10.602 10.602 10.602 25.11t-10.602 25.11-25.11 10.602l-249.984 0q-14.508 0-25.11-10.602t-10.602-25.11zm435.798-482.112q0-7.254 5.58-12.834l185.256-185.256-80.352-80.352q-10.602-10.602-10.602-25.11t10.602-25.11 25.11-10.602l249.984 0q14.508 0 25.11 10.602t10.602 25.11l0 249.984q0 14.508-10.602 25.11t-25.11 10.602-25.11-10.602l-80.352-80.352-185.256 185.256q-5.58 5.58-12.834 5.58t-12.834-5.58l-63.612-63.612q-5.58-5.58-5.58-12.834z"/></svg>