<svg height="1000px" width="779.78515625px" xmlns="http://www.w3.org/2000/svg">
  <g>
    <path d="M0 500.7624849677086c0 -10.091 3.743 -18.717 11.23 -25.879c0 0 155.762 -157.226 155.762 -157.226c11.393 -10.743 20.752 -14.568 28.076 -11.475c7.325 3.092 10.987 12.288 10.987 27.588c0 0 0 100.097 0 100.097c0 0 368.164 0 368.164 0c0 0 0 -99.121 0 -99.121c0 -15.299 3.662 -24.658 10.986 -28.076c7.324 -3.418 16.52 0.244 27.588 10.987c0 0 156.25 157.226 156.25 157.226c7.487 7.487 11.068 16.113 10.742 25.879c0 10.091 -3.581 18.717 -10.742 25.879c0 0 -156.25 157.226 -156.25 157.226c-11.393 10.743 -20.671 14.405 -27.832 10.987c-7.162 -3.418 -10.742 -12.777 -10.742 -28.076c0 0 0 -99.121 0 -99.121c0 0 -368.164 0 -368.164 0c0 0 0 99.121 0 99.121c0 15.299 -3.662 24.576 -10.987 27.832c-7.324 3.255 -16.683 -0.651 -28.076 -11.719c0 0 -155.762 -156.25 -155.762 -156.25c-7.487 -7.487 -11.23 -16.113 -11.23 -25.879c0 0 0 0 0 0" />
  </g>
</svg>