<svg height="1000px" width="750px" xmlns="http://www.w3.org/2000/svg">
  <g>
    <path d="M0 833c0 0 0 -255 0 -255c0 -17.333 4.333 -27.833 13 -31.5c8.667 -3.667 19.333 0.5 32 12.5c0 0 81 81 81 81c0 0 134 -134 134 -134c4 -4 9 -6 15 -6c6 0 11.333 2 16 6c0 0 78 78 78 78c4 4.667 6 10 6 16c0 6 -2 11 -6 15c0 0 -134 134 -134 134c0 0 81 81 81 81c12.667 12.667 17 23.333 13 32c-4 8.667 -14.667 13 -32 13c0 0 -254 0 -254 0c-12 0 -22 -4 -30 -12c-8.667 -8.667 -13 -18.667 -13 -30c0 0 0 0 0 0m375 -433c0 -6 2 -11 6 -15c0 0 134 -134 134 -134c0 0 -81 -81 -81 -81c-12.667 -12.667 -17 -23.333 -13 -32c4 -8.667 14.667 -13 32 -13c0 0 254 0 254 0c12 0 22 4 30 12c8.667 8.667 13 18.667 13 30c0 0 0 255 0 255c0 17.333 -4.333 27.833 -13 31.5c-8.667 3.667 -19.333 -0.5 -32 -12.5c0 0 -81 -81 -81 -81c0 0 -134 133 -134 133c-4 4.667 -9 7 -15 7c-6 0 -11.333 -2.333 -16 -7c0 0 -78 -77 -78 -77c-4 -4.667 -6 -10 -6 -16c0 0 0 0 0 0" />
  </g>
</svg>