<svg height="1000px" width="1000px" xmlns="http://www.w3.org/2000/svg">
  <g>
    <path d="M0 499.99999999999994c0 -9.673 3.534 -18.043 10.603 -25.112c0 0 142.857 -142.857 142.857 -142.857c7.068 -7.068 15.439 -10.602 25.111 -10.602c9.673 0 18.044 3.534 25.112 10.602c7.068 7.069 10.603 15.439 10.603 25.112c0 0 0 71.428 0 71.428c0 0 571.428 0 571.428 0c0 0 0 -71.428 0 -71.428c0 -9.673 3.535 -18.043 10.603 -25.112c7.068 -7.068 15.439 -10.602 25.112 -10.602c9.672 0 18.043 3.534 25.111 10.602c0 0 142.857 142.857 142.857 142.857c7.069 7.069 10.603 15.439 10.603 25.112c0 9.673 -3.534 18.043 -10.603 25.112c0 0 -142.857 142.857 -142.857 142.857c-7.068 7.068 -15.439 10.602 -25.111 10.602c-9.673 0 -18.044 -3.534 -25.112 -10.602c-7.068 -7.069 -10.603 -15.439 -10.603 -25.112c0 0 0 -71.428 0 -71.428c0 0 -571.428 0 -571.428 0c0 0 0 71.428 0 71.428c0 9.673 -3.535 18.043 -10.603 25.112c-7.068 7.068 -15.439 10.602 -25.112 10.602c-9.672 0 -18.043 -3.534 -25.111 -10.602c0 0 -142.857 -142.857 -142.857 -142.857c-7.069 -7.069 -10.603 -15.439 -10.603 -25.112c0 0 0 0 0 0" />
  </g>
</svg>