<svg height="1000px" width="750px" xmlns="http://www.w3.org/2000/svg">
  <g>
    <path d="M0 775.634765625c0 -6.022 1.953 -11.475 5.859 -16.357c0 0 134.278 -132.813 134.278 -132.813c0 0 -81.055 -81.055 -81.055 -81.055c-12.695 -12.695 -17.09 -23.356 -13.184 -31.982c3.907 -8.626 14.649 -12.939 32.227 -12.939c0 0 253.906 0 253.906 0c12.37 0 22.298 4.069 29.785 12.207c8.789 8.789 13.184 18.717 13.184 29.785c0 0 0 254.883 0 254.883c0 17.252 -4.313 27.75 -12.939 31.494c-8.627 3.743 -19.288 -0.733 -31.983 -13.428c0 0 -81.055 -81.055 -81.055 -81.055c0 0 -133.789 134.278 -133.789 134.278c-3.906 4.557 -8.951 6.836 -15.136 6.836c-6.185 0 -11.556 -2.279 -16.114 -6.836c0 0 -78.125 -78.125 -78.125 -78.125c-3.906 -3.907 -5.859 -8.871 -5.859 -14.893c0 0 0 0 0 0m375 -318.115c0 0 0 -254.883 0 -254.883c0 -17.253 4.313 -27.751 12.939 -31.494c8.627 -3.744 19.288 0.732 31.983 13.428c0 0 81.055 81.054 81.055 81.054c0 0 133.789 -134.277 133.789 -134.277c3.906 -4.557 8.951 -6.836 15.136 -6.836c6.185 0 11.556 2.279 16.114 6.836c0 0 78.125 78.125 78.125 78.125c3.906 3.906 5.859 8.87 5.859 14.892c0 6.023 -1.953 11.475 -5.859 16.358c0 0 -134.278 132.812 -134.278 132.812c0 0 81.055 81.055 81.055 81.055c12.695 12.695 17.09 23.356 13.184 31.982c-3.907 8.627 -14.649 12.94 -32.227 12.94c0 0 -253.906 0 -253.906 0c-13.347 0 -23.275 -4.069 -29.785 -12.207c-8.789 -8.789 -13.184 -18.718 -13.184 -29.785c0 0 0 0 0 0" />
  </g>
</svg>