<svg height="1000px" width="750px" xmlns="http://www.w3.org/2000/svg">
  <g>
    <path d="M0 833.0078125c0 0 0 -254.883 0 -254.883c0 -17.252 4.313 -27.75 12.939 -31.494c8.627 -3.743 19.288 0.407 31.983 12.451c0 0 81.055 81.055 81.055 81.055c0 0 133.789 -134.277 133.789 -134.277c3.906 -3.907 8.951 -5.86 15.136 -5.86c6.185 0 11.556 1.953 16.114 5.86c0 0 78.125 78.125 78.125 78.125c3.906 4.557 5.859 9.847 5.859 15.869c0 6.022 -1.953 11.149 -5.859 15.381c0 0 -134.278 133.789 -134.278 133.789c0 0 81.055 81.054 81.055 81.054c12.695 12.696 17.09 23.356 13.184 31.983c-3.907 8.626 -14.649 12.939 -32.227 12.939c0 0 -253.906 0 -253.906 0c-12.045 0 -21.973 -4.069 -29.785 -12.207c-8.789 -8.789 -13.184 -18.717 -13.184 -29.785c0 0 0 0 0 0m375 -432.861c0 -6.022 1.953 -11.149 5.859 -15.381c0 0 134.278 -133.789 134.278 -133.789c0 0 -81.055 -81.055 -81.055 -81.055c-12.695 -12.695 -17.09 -23.356 -13.184 -31.982c3.907 -8.627 14.649 -12.94 32.227 -12.94c0 0 253.906 0 253.906 0c12.045 0 21.973 4.069 29.785 12.207c8.789 8.789 13.184 18.718 13.184 29.785c0 0 0 254.883 0 254.883c0 17.253 -4.313 27.751 -12.939 31.494c-8.627 3.744 -19.288 -0.407 -31.983 -12.451c0 0 -81.055 -81.055 -81.055 -81.055c0 0 -133.789 133.301 -133.789 133.301c-3.906 4.558 -8.951 6.836 -15.136 6.836c-6.185 0 -11.556 -2.278 -16.114 -6.836c0 0 -78.125 -77.148 -78.125 -77.148c-3.906 -4.557 -5.859 -9.847 -5.859 -15.869c0 0 0 0 0 0" />
  </g>
</svg>