<svg height="1000" width="857.143" xmlns="http://www.w3.org/2000/svg"><path d="M715.914 301.942l-198.09 198.09 198.09 198.09 80.352 -80.352q16.182 -17.298 39.06 -7.812 21.762 9.486 21.762 32.922v249.984q0 14.508 -10.602 25.11t-25.11 10.602h-249.984q-23.436 0 -32.922 -22.32 -9.486 -21.762 7.812 -38.502l80.352 -80.352 -198.09 -198.09 -198.09 198.09 80.352 80.352q17.298 16.74 7.812 38.502 -9.486 22.32 -32.922 22.32h-249.984q-14.508 0 -25.11 -10.602t-10.602 -25.11v-249.984q0 -23.436 22.32 -32.922 21.762 -9.486 38.502 7.812l80.352 80.352 198.09 -198.09 -198.09 -198.09 -80.352 80.352q-10.602 10.602 -25.11 10.602 -6.696 0 -13.392 -2.79 -22.32 -9.486 -22.32 -32.922v-249.984q0 -14.508 10.602 -25.11t25.11 -10.602h249.984q23.436 0 32.922 22.32 9.486 21.762 -7.812 38.502l-80.352 80.352 198.09 198.09 198.09 -198.09 -80.352 -80.352q-17.298 -16.74 -7.812 -38.502 9.486 -22.32 32.922 -22.32h249.984q14.508 0 25.11 10.602t10.602 25.11v249.984q0 23.436 -21.762 32.922 -7.254 2.79 -13.95 2.79 -14.508 0 -25.11 -10.602z"/></svg>