<svg height="1000" width="1000" xmlns="http://www.w3.org/2000/svg"><path d="M999.936 500.032q0 14.508 -10.602 25.11l-142.848 142.848q-10.602 10.602 -25.11 10.602t-25.11 -10.602 -10.602 -25.11v-71.424h-571.392v71.424q0 14.508 -10.602 25.11t-25.11 10.602 -25.11 -10.602l-142.848 -142.848q-10.602 -10.602 -10.602 -25.11t10.602 -25.11l142.848 -142.848q10.602 -10.602 25.11 -10.602t25.11 10.602 10.602 25.11v71.424h571.392v-71.424q0 -14.508 10.602 -25.11t25.11 -10.602 25.11 10.602l142.848 142.848q10.602 10.602 10.602 25.11z"/></svg>