<svg height="1000" width="857.1" xmlns="http://www.w3.org/2000/svg"><path d="M428.6 535.7v250q0 14.5 -10.6 25.1t-25.1 10.6 -25.2 -10.6l-80.3 -80.3L102.1 915.7q-5.6 5.6 -12.8 5.6t-12.8 -5.6L12.8 852.1Q7.3 846.5 7.3 839.3t5.5 -12.8L198.1 641.2l-80.4 -80.4q-10.6 -10.6 -10.6 -25.1t10.6 -25.1T142.9 500h250q14.5 0 25.1 10.6t10.6 25.1zm421.3 -375q0 7.3 -5.6 12.8L659 358.8l80.4 80.4q10.6 10.6 10.6 25.1t-10.6 25.1T714.3 500h-250q-14.5 0 -25.1 -10.6t-10.6 -25.1v-250q0 -14.5 10.6 -25.1t25.1 -10.6 25.1 10.6l80.4 80.3L755 84.3q5.6 -5.6 12.9 -5.6t12.8 5.6l63.6 63.6q5.6 5.6 5.6 12.8z"/></svg>