<svg height="1000px" width="750px" xmlns="http://www.w3.org/2000/svg">
  <g>
    <path d="M0 499.6488037109375c0 -10 3.333 -18.333 10 -25c0 0 151 -151 151 -151c10 -10 18.667 -13.5 26 -10.5c7.333 3 11 11.833 11 26.5c0 0 0 96 0 96c0 0 354 0 354 0c0 0 0 -96 0 -96c0 -14.667 3.5 -23.5 10.5 -26.5c7 -3 15.833 0.833 26.5 11.5c0 0 151 150 151 150c6.667 6.667 10 15 10 25c0 10 -3.333 18.333 -10 25c0 0 -151 151 -151 151c-10 10.667 -18.667 14.333 -26 11c-7.333 -3.333 -11 -12.333 -11 -27c0 0 0 -96 0 -96c0 0 -354 0 -354 0c0 0 0 96 0 96c0 14.667 -3.5 23.5 -10.5 26.5c-7 3 -15.833 -0.833 -26.5 -11.5c0 0 -151 -150 -151 -150c-6.667 -6.667 -10 -15 -10 -25c0 0 0 0 0 0" />
  </g>
</svg>