<svg height="1000px" width="428.57142857142856px" xmlns="http://www.w3.org/2000/svg">
  <g>
    <path d="M35.714285714285715 821.4285714285714c0 -9.673 3.534 -18.043 10.603 -25.112c7.068 -7.068 15.439 -10.602 25.111 -10.602c0 0 71.429 0 71.429 0c0 0 0 -571.429 0 -571.429c0 0 -71.429 0 -71.429 0c-9.672 0 -18.043 -3.534 -25.111 -10.603c-7.069 -7.068 -10.603 -15.439 -10.603 -25.111c0 -9.673 3.534 -18.043 10.603 -25.112c0 0 142.857 -142.857 142.857 -142.857c7.068 -7.068 15.439 -10.603 25.111 -10.603c9.673 0 18.044 3.535 25.112 10.603c0 0 142.857 142.857 142.857 142.857c7.069 7.069 10.603 15.439 10.603 25.112c0 9.672 -3.534 18.043 -10.603 25.111c-7.068 7.069 -15.439 10.603 -25.111 10.603c0 0 -71.429 0 -71.429 0c0 0 0 571.429 0 571.429c0 0 71.429 0 71.429 0c9.672 0 18.043 3.534 25.111 10.602c7.069 7.069 10.603 15.439 10.603 25.112c0 9.673 -3.534 18.043 -10.603 25.112c0 0 -142.857 142.857 -142.857 142.857c-7.068 7.068 -15.439 10.602 -25.112 10.602c-9.672 0 -18.043 -3.534 -25.111 -10.602c0 0 -142.857 -142.857 -142.857 -142.857c-7.069 -7.069 -10.603 -15.439 -10.603 -25.112c0 0 0 0 0 0" />
  </g>
</svg>