<svg height="1000px" width="857.1428571428571px" xmlns="http://www.w3.org/2000/svg">
  <g>
    <path d="M0 892.8571428571428c0 0 0 -250 0 -250c0 -15.625 7.44 -26.6 22.321 -32.924c14.509 -6.325 27.344 -3.72 38.505 7.812c0 0 80.357 80.358 80.357 80.358c0 0 198.103 -198.103 198.103 -198.103c0 0 -198.103 -198.103 -198.103 -198.103c0 0 -80.357 80.357 -80.357 80.357c-7.069 7.069 -15.439 10.603 -25.112 10.603c-4.464 0 -8.928 -0.93 -13.393 -2.79c-14.881 -6.325 -22.321 -17.299 -22.321 -32.924c0 0 0 -250 0 -250c0 -9.673 3.534 -18.043 10.603 -25.112c7.068 -7.068 15.439 -10.603 25.111 -10.603c0 0 250 0 250 0c15.625 0 26.6 7.441 32.924 22.322c6.325 14.509 3.721 27.344 -7.812 38.504c0 0 -80.357 80.357 -80.357 80.357c0 0 198.102 198.103 198.102 198.103c0 0 198.103 -198.103 198.103 -198.103c0 0 -80.357 -80.357 -80.357 -80.357c-11.533 -11.16 -14.137 -23.995 -7.813 -38.504c6.325 -14.881 17.3 -22.322 32.925 -22.322c0 0 250 0 250 0c9.672 0 18.043 3.535 25.111 10.603c7.069 7.069 10.603 15.439 10.603 25.112c0 0 0 250 0 250c0 15.625 -7.255 26.599 -21.764 32.924c-4.836 1.86 -9.486 2.79 -13.95 2.79c-9.673 0 -18.044 -3.534 -25.112 -10.603c0 0 -80.357 -80.357 -80.357 -80.357c0 0 -198.103 198.103 -198.103 198.103c0 0 198.103 198.103 198.103 198.103c0 0 80.357 -80.358 80.357 -80.358c10.789 -11.532 23.809 -14.137 39.062 -7.812c14.509 6.324 21.764 17.299 21.764 32.924c0 0 0 250 0 250c0 9.673 -3.534 18.043 -10.603 25.112c-7.068 7.068 -15.439 10.602 -25.111 10.602c0 0 -250 0 -250 0c-15.625 0 -26.6 -7.44 -32.925 -22.321c-6.324 -14.509 -3.72 -27.344 7.813 -38.505c0 0 80.357 -80.357 80.357 -80.357c0 0 -198.103 -198.102 -198.103 -198.102c0 0 -198.102 198.102 -198.102 198.102c0 0 80.357 80.357 80.357 80.357c11.533 11.161 14.137 23.996 7.812 38.505c-6.324 14.881 -17.299 22.321 -32.924 22.321c0 0 -250 0 -250 0c-9.672 0 -18.043 -3.534 -25.111 -10.602c-7.069 -7.069 -10.603 -15.439 -10.603 -25.112c0 0 0 0 0 0" />
  </g>
</svg>