<svg height="1000" width="857.1" xmlns="http://www.w3.org/2000/svg"><path d="M421.3 589.3q0 7.2 -5.6 12.8L230.5 787.4l80.3 80.3q10.6 10.6 10.6 25.2T310.8 918t-25.1 10.6h-250q-14.5 0 -25.1 -10.6T0 892.9v-250q0 -14.6 10.6 -25.2t25.1 -10.6 25.1 10.6l80.4 80.4L326.5 512.8q5.5 -5.5 12.8 -5.5t12.8 5.5l63.6 63.7q5.6 5.5 5.6 12.8zM857.1 107.1v250q0 14.6 -10.6 25.2t-25.1 10.6 -25.1 -10.6L716 301.9 530.7 487.2q-5.6 5.5 -12.8 5.5T505 487.2l-63.6 -63.7q-5.6 -5.5 -5.6 -12.8t5.6 -12.8L626.7 212.6l-80.4 -80.3q-10.6 -10.6 -10.6 -25.2T546.3 82t25.1 -10.6h250q14.5 0 25.1 10.6t10.6 25.1z"/></svg>