<svg height="1000px" width="1071.4285714285716px" xmlns="http://www.w3.org/2000/svg">
  <g>
    <path d="M0 464.2857142857142c0 -8.929 2.79 -16.555 8.371 -22.879c0 0 178.571 -214.286 178.571 -214.286c7.068 -8.185 16.183 -12.277 27.344 -12.277c11.16 0 20.275 4.092 27.343 12.277c0 0 178.572 214.286 178.572 214.286c5.58 6.324 8.37 13.95 8.37 22.879c0 9.673 -3.534 18.043 -10.602 25.112c-7.069 7.068 -15.439 10.602 -25.112 10.602c0 0 -107.143 0 -107.143 0c0 0 0 214.286 0 214.286c0 0 321.429 0 321.429 0c5.952 0 10.603 2.046 13.951 6.138c0 0 89.285 107.143 89.285 107.143c2.605 4.093 3.907 7.999 3.907 11.719c0 4.836 -1.767 9.022 -5.302 12.556c-3.534 3.534 -7.719 5.301 -12.555 5.301c0 0 -535.715 0 -535.715 0c-2.976 0 -5.487 -0.372 -7.533 -1.116c-2.046 -0.744 -3.72 -2.046 -5.023 -3.906c-1.302 -1.86 -2.325 -3.348 -3.069 -4.464c-0.744 -1.117 -1.302 -3.256 -1.674 -6.418c-0.372 -3.162 -0.558 -5.301 -0.558 -6.417c0 0 0 -7.255 0 -7.255c0 0 0 -6.138 0 -6.138c0 0 0 -89.286 0 -89.286c0 0 0 -232.143 0 -232.143c0 0 -107.143 0 -107.143 0c-9.672 0 -18.043 -3.534 -25.111 -10.602c-7.069 -7.069 -10.603 -15.439 -10.603 -25.112c0 0 0 0 0 0m357.143 -232.143c0 -4.836 1.767 -9.021 5.301 -12.556c3.534 -3.534 7.72 -5.301 12.556 -5.301c0 0 535.714 0 535.714 0c2.976 0 5.488 0.372 7.534 1.116c2.046 0.744 3.72 2.046 5.022 3.906c1.302 1.86 2.325 3.349 3.069 4.465c0.744 1.116 1.302 3.255 1.674 6.417c0.372 3.162 0.558 5.301 0.558 6.417c0 0 0 7.255 0 7.255c0 0 0 6.138 0 6.138c0 0 0 89.286 0 89.286c0 0 0 232.143 0 232.143c0 0 107.143 0 107.143 0c9.673 0 18.043 3.534 25.112 10.603c7.068 7.068 10.603 15.439 10.603 25.111c0 8.929 -2.791 16.555 -8.371 22.88c0 0 -178.571 214.285 -178.571 214.285c-7.441 8.557 -16.555 12.835 -27.344 12.835c-10.789 0 -19.903 -4.278 -27.344 -12.835c0 0 -178.571 -214.285 -178.571 -214.285c-5.581 -6.325 -8.371 -13.951 -8.371 -22.88c0 -9.672 3.534 -18.043 10.603 -25.111c7.068 -7.069 15.439 -10.603 25.111 -10.603c0 0 107.143 0 107.143 0c0 0 0 -214.286 0 -214.286c0 0 -321.428 0 -321.428 0c-5.953 0 -10.603 -2.232 -13.951 -6.696c0 0 -89.286 -107.143 -89.286 -107.143c-2.604 -3.348 -3.906 -7.069 -3.906 -11.161c0 0 0 0 0 0" />
  </g>
</svg>