<svg height="1000px" width="933.59375px" xmlns="http://www.w3.org/2000/svg">
  <g>
    <path d="M0 367.919921875c-4.069 -9.928 0.57 -22.217 13.916 -36.865c0 0 187.988 -207.031 187.988 -207.031c8.138 -9.441 18.392 -14.161 30.762 -14.161c12.695 0 23.112 4.72 31.25 14.161c0 0 187.988 207.031 187.988 207.031c13.347 14.648 17.985 26.937 13.916 36.865c-4.069 9.928 -15.055 14.893 -32.959 14.893c0 0 -122.07 0 -122.07 0c0 0 0 332.031 0 332.031c0 0 84.961 0 84.961 0c1.953 3.255 3.906 6.429 5.859 9.521c1.953 3.093 4.72 6.267 8.301 9.522c0 0 123.047 137.207 123.047 137.207c0 0 -339.355 0 -339.355 0c-10.743 0 -19.939 -3.825 -27.588 -11.475c-7.65 -7.65 -11.475 -16.845 -11.475 -27.588c0 0 0 -449.218 0 -449.218c0 0 -121.582 0 -121.582 0c-17.904 0 -28.89 -4.965 -32.959 -14.893c0 0 0 0 0 0m400.635 -238.037c0 0 339.355 0 339.355 0c10.742 0 19.857 3.662 27.344 10.986c7.487 7.324 11.23 16.683 11.23 28.076c0 0 0 448.243 0 448.243c0 0 122.071 0 122.071 0c17.903 0 28.89 4.964 32.959 14.892c4.069 9.929 -0.57 22.217 -13.916 36.865c0 0 -187.989 207.032 -187.989 207.032c-8.138 9.44 -18.391 14.16 -30.761 14.16c-12.696 0 -23.112 -4.72 -31.25 -14.16c0 0 -187.989 -207.032 -187.989 -207.032c-13.346 -14.648 -17.985 -26.936 -13.916 -36.865c4.069 -9.928 15.056 -14.892 32.959 -14.892c0 0 122.071 0 122.071 0c0 0 0 -331.055 0 -331.055c0 0 -84.961 0 -84.961 0c-1.953 -3.255 -3.988 -6.592 -6.104 -10.01c-2.116 -3.418 -4.476 -6.754 -7.08 -10.01c0 0 -124.023 -136.23 -124.023 -136.23" />
  </g>
</svg>