<svg height="1000px" width="899.439208984375px" xmlns="http://www.w3.org/2000/svg">
  <g>
    <path d="M0 372.5c-4 -9.667 0.333 -21.167 13 -34.5c0 0 181 -199 181 -199c8 -9.333 18 -14 30 -14c12 0 22 4.667 30 14c0 0 181 199 181 199c12.667 13.333 17 24.833 13 34.5c-4 9.667 -14.667 14.5 -32 14.5c0 0 -117 0 -117 0c0 0 0 319 0 319c0 0 81 0 81 0c2.667 3.333 4.833 6.5 6.5 9.5c1.667 3 4.167 6.167 7.5 9.5c0 0 119 131 119 131c0 0 -327 0 -327 0c-10 0 -18.667 -3.667 -26 -11c-7.333 -7.333 -11 -16 -11 -26c0 0 0 -432 0 -432c0 0 -117 0 -117 0c-17.333 0 -28 -4.833 -32 -14.5c0 0 0 0 0 0m385 -228.5c0 0 326 0 326 0c10.667 0 19.667 3.667 27 11c7.333 7.333 11 16 11 26c0 0 0 431 0 431c0 0 117 0 117 0c17.333 0 28 5 32 15c4 10 -0.333 21.667 -13 35c0 0 -181 199 -181 199c-8 9.333 -18 14 -30 14c-12 0 -22 -4.667 -30 -14c0 0 -181 -199 -181 -199c-12.667 -13.333 -17 -25 -13 -35c4 -10 14.667 -15 32 -15c0 0 117 0 117 0c0 0 0 -318 0 -318c0 0 -81 0 -81 0c-2.667 -3.333 -4.833 -6.5 -6.5 -9.5c-1.667 -3 -4.167 -6.167 -7.5 -9.5c0 0 -119 -131 -119 -131" />
  </g>
</svg>