<svg height="1000" width="1072" xmlns="http://www.w3.org/2000/svg"><path d="M0 464.32q0-13.392 8.37-22.878l178.56-214.272q10.602-12.276 27.342-12.276t27.342 12.276l178.56 214.272q8.37 9.486 8.37 22.878 0 14.508-10.602 25.11t-25.11 10.602l-107.136 0l0 214.272l321.408 0q8.928 0 13.95 6.138l89.28 107.136q3.906 6.138 3.906 11.718 0 7.254-5.301 12.555t-12.555 5.301l-535.68 0q-4.464 0-7.533-1.116t-5.022-3.906-3.069-4.464-1.674-6.417-.558-6.417l0-334.8l-107.136 0q-14.508 0-25.11-10.602t-10.602-25.11zm357.12-232.128q0-7.254 5.301-12.555t12.555-5.301l535.68 0q4.464 0 7.533 1.116t5.022 3.906 3.069 4.464 1.674 6.417.558 6.417l0 334.8l107.136 0q14.508 0 25.11 10.602t10.602 25.11q0 13.392-8.37 22.878l-178.56 214.272q-11.16 12.834-27.342 12.834t-27.342-12.834l-178.56-214.272q-8.37-9.486-8.37-22.878 0-14.508 10.602-25.11t25.11-10.602l107.136 0l0-214.272l-321.408 0q-8.928 0-13.95-6.696l-89.28-107.136q-3.906-5.022-3.906-11.16z"/></svg>