<svg height="1000px" width="1071.4285714285716px" xmlns="http://www.w3.org/2000/svg">
  <g>
    <path d="M0 464.84374999999994c0 -9.301 2.79 -17.113 8.371 -23.438c0 0 178.571 -214.285 178.571 -214.285c7.068 -8.185 16.183 -12.277 27.344 -12.277c11.16 0 20.275 4.092 27.343 12.277c0 0 178.572 214.285 178.572 214.285c5.58 6.325 8.37 14.137 8.37 23.438c0 9.301 -3.534 17.485 -10.602 24.554c-7.069 7.068 -15.439 10.602 -25.112 10.602c0 0 -107.143 0 -107.143 0c0 0 0 214.286 0 214.286c0 0 321.429 0 321.429 0c5.952 0 10.603 2.046 13.951 6.138c0 0 89.285 107.143 89.285 107.143c2.605 4.092 3.907 8.278 3.907 12.556c0 4.278 -1.767 8.185 -5.302 11.719c-3.534 3.534 -7.719 5.301 -12.555 5.301c0 0 -535.715 0 -535.715 0c-11.904 0 -17.857 -7.44 -17.857 -22.321c0 0 0 -334.822 0 -334.822c0 0 -107.143 0 -107.143 0c-9.672 0 -18.043 -3.534 -25.111 -10.602c-7.069 -7.069 -10.603 -15.253 -10.603 -24.554c0 0 0 0 0 0m357.143 -233.259c0 -4.464 1.767 -8.463 5.301 -11.998c3.534 -3.534 7.72 -5.301 12.556 -5.301c0 0 535.714 0 535.714 0c11.905 0 17.857 7.44 17.857 22.321c0 0 0 334.822 0 334.822c0 0 107.143 0 107.143 0c9.673 0 18.043 3.534 25.112 10.602c7.068 7.069 10.603 15.253 10.603 24.554c0 9.301 -2.791 17.113 -8.371 23.438c0 0 -178.571 214.285 -178.571 214.285c-7.441 8.557 -16.555 12.835 -27.344 12.835c-10.789 0 -19.903 -4.278 -27.344 -12.835c0 0 -178.571 -214.285 -178.571 -214.285c-5.581 -6.325 -8.371 -14.137 -8.371 -23.438c0 -9.301 3.534 -17.485 10.603 -24.554c7.068 -7.068 15.439 -10.602 25.111 -10.602c0 0 107.143 0 107.143 0c0 0 0 -214.286 0 -214.286c0 0 -321.428 0 -321.428 0c-5.953 0 -10.603 -2.232 -13.951 -6.696c0 0 -89.286 -107.143 -89.286 -107.143c-2.604 -3.348 -3.906 -7.255 -3.906 -11.719c0 0 0 0 0 0" />
  </g>
</svg>