<svg height="1000" width="1071.429" xmlns="http://www.w3.org/2000/svg"><path d="M714.24 839.296q0 7.254 -5.301 12.555t-12.555 5.301h-535.68q-4.464 0 -7.533 -1.116t-5.022 -3.906 -3.069 -4.464 -1.674 -6.417 -.558 -6.417v-334.79999999999995h-107.136q-14.508 0 -25.11 -10.602t-10.602 -25.11q0 -13.392 8.37 -22.878l178.56 -214.272q10.602 -12.276 27.342 -12.276t27.342 12.276l178.56 214.272q8.37 9.486 8.37 22.878 0 14.508 -10.602 25.11t-25.11 10.602h-107.136v214.272h321.408q8.928 0 13.95 6.138l89.28 107.136q3.906 6.138 3.906 11.718zm357.12 -232.128q0 13.392 -8.37 22.878l-178.56 214.272q-11.16 12.834 -27.342 12.834t-27.342 -12.834l-178.56 -214.272q-8.37 -9.486 -8.37 -22.878 0 -14.508 10.602 -25.11t25.11 -10.602h107.136v-214.272h-321.408q-8.928 0 -13.95 -6.696l-89.28 -107.136q-3.906 -5.022 -3.906 -11.16 0 -7.254 5.301 -12.555t12.555 -5.301h535.68q4.464 0 7.533 1.116t5.022 3.906 3.069 4.464 1.674 6.417 .558 6.417v334.79999999999995h107.136q14.508 0 25.11 10.602t10.602 25.11z"/></svg>