<svg height="1000" width="1071.4" xmlns="http://www.w3.org/2000/svg"><path d="M714.3 839.3q0 7.2 -5.3 12.5t-12.6 5.3H160.7q-4.5 0 -7.5 -1.1t-5 -3.9 -3.1 -4.4 -1.7 -6.5 -.5 -6.4V500H35.7q-14.5 0 -25.1 -10.6T0 464.3q0 -13.4 8.4 -22.9L186.9 227.1q10.6 -12.3 27.4 -12.3t27.3 12.3l178.6 214.3q8.4 9.5 8.4 22.9 0 14.5 -10.6 25.1T392.9 500H285.7v214.3h321.4q9 0 14 6.1l89.3 107.2q3.9 6.1 3.9 11.7zm357.1 -232.2q0 13.4 -8.3 22.9L884.5 844.3q-11.2 12.8 -27.4 12.8t-27.3 -12.8L651.2 630q-8.3 -9.5 -8.3 -22.9 0 -14.5 10.6 -25.1t25.1 -10.6h107.1V357.1H464.3q-8.9 0 -14 -6.7L361 243.3q-3.9 -5 -3.9 -11.2 0 -7.2 5.3 -12.5t12.6 -5.3h535.7q4.5 0 7.5 1.1t5.1 3.9 3 4.5 1.7 6.4 .6 6.4V571.4h107.1q14.5 0 25.1 10.6t10.6 25.1z"/></svg>