<svg height="1000px" width="1071.4285714285716px" xmlns="http://www.w3.org/2000/svg">
  <g>
    <path d="M910.7142857142858 214.28571428571422c11.905 0 17.857 7.44 17.857 22.321c0 0 0 334.822 0 334.822c0 0 107.143 0 107.143 0c9.673 0 18.043 3.534 25.112 10.603c7.068 7.068 10.602 15.253 10.602 24.553c0 9.301 -2.79 17.113 -8.37 23.438c0 0 -178.572 214.285 -178.572 214.285c-7.44 8.557 -16.555 12.835 -27.343 12.835c-10.789 0 -19.904 -4.278 -27.344 -12.835c0 0 -178.572 -214.285 -178.572 -214.285c-5.58 -6.325 -8.37 -14.137 -8.37 -23.438c0 -9.3 3.534 -17.485 10.603 -24.553c7.068 -7.069 15.439 -10.603 25.111 -10.603c0 0 107.143 0 107.143 0c0 0 0 -214.286 0 -214.286c0 0 -321.429 0 -321.429 0c-5.952 0 -10.602 -2.232 -13.95 -6.696c0 0 -89.286 -107.143 -89.286 -107.143c-2.604 -3.348 -3.906 -7.255 -3.906 -11.719c0 -4.464 1.767 -8.463 5.301 -11.998c3.534 -3.534 7.719 -5.301 12.556 -5.301c0 0 535.714 0 535.714 0c0 0 0 0 0 0m-750 642.857c-11.905 0 -17.857 -7.44 -17.857 -22.321c0 0 0 -334.822 0 -334.822c0 0 -107.143 0 -107.143 0c-9.673 0 -18.043 -3.534 -25.112 -10.602c-7.068 -7.069 -10.602 -15.253 -10.602 -24.554c0 -9.301 2.79 -17.113 8.37 -23.437c0 0 178.572 -214.286 178.572 -214.286c7.068 -8.185 16.183 -12.277 27.343 -12.277c11.161 0 20.276 4.092 27.344 12.277c0 0 178.572 214.286 178.572 214.286c5.58 6.324 8.37 14.136 8.37 23.437c0 9.301 -3.534 17.485 -10.603 24.554c-7.068 7.068 -15.439 10.602 -25.111 10.602c0 0 -107.143 0 -107.143 0c0 0 0 214.286 0 214.286c0 0 321.429 0 321.429 0c5.952 0 10.602 2.046 13.95 6.138c0 0 89.286 107.143 89.286 107.143c2.604 4.093 3.906 8.278 3.906 12.556c0 4.278 -1.767 8.185 -5.301 11.719c-3.534 3.534 -7.719 5.301 -12.556 5.301c0 0 -535.714 0 -535.714 0c0 0 0 0 0 0" />
  </g>
</svg>