<svg height="1000" width="1071.4" xmlns="http://www.w3.org/2000/svg"><path d="M0 464.3q0-13.4 8.4-22.9l178.6-214.3q10.6-12.3 27.3-12.3t27.3 12.3l178.6 214.3q8.4 9.5 8.4 22.9 0 14.5-10.6 25.1t-25.1 10.6h-107.1v214.3h321.4q8.9 0 14 6.1l89.3 107.1q3.9 6.1 3.9 11.7 0 7.3-5.3 12.6t-12.6 5.3h-535.7q-4.5 0-7.5-1.1t-5-3.9-3.1-4.5-1.7-6.4-.6-6.4v-334.79999999999995h-107.1q-14.5 0-25.1-10.6t-10.6-25.1zm357.1-232.1q0-7.3 5.3-12.6t12.6-5.3h535.7q4.5 0 7.5 1.1t5 3.9 3.1 4.5 1.7 6.4.6 6.4v334.79999999999995h107.1q14.5 0 25.1 10.6t10.6 25.1q0 13.4-8.4 22.9l-178.6 214.3q-11.2 12.8-27.3 12.8t-27.3-12.8l-178.6-214.3q-8.4-9.5-8.4-22.9 0-14.5 10.6-25.1t25.1-10.6h107.1v-214.3h-321.4q-8.9 0-14-6.7l-89.3-107.1q-3.9-5-3.9-11.2z"/></svg>