<svg height="1000" width="1000" xmlns="http://www.w3.org/2000/svg"><path d="M142.9 750q0 -14.5 -10.6 -25.1t-25.2 -10.6T82 724.9 71.4 750 82 775.1t25.1 10.6 25.2 -10.6T142.9 750zM928.6 428.6q0 -28.5 -21.8 -50t-49.7 -21.5H535.7q0 -11.1 8.4 -27t18.4 -30.7 18.4 -38 8.4 -47.1q0 -37.4 -24.8 -54.4t-64.5 -17q-13.4 0 -50.2 77.5 -13.4 24.6 -20.7 36.3 -22.3 35.7 -62.5 80.9 -39.6 45.2 -56.3 59.2 -38.5 31.8 -78.2 31.8h-17.8v357.1h17.8q40.2 0 93.2 17.9t108 35.7 100.2 17.8Q639 857.1 639 764q0 -14.6 -2.8 -31.3 16.7 -8.9 26.5 -29.3t9.7 -41 -10 -38.5Q692 596 692 557.5q0 -14 -5.6 -31t-14 -26.5h184.7q29.1 0 50.3 -21.2t21.2 -50.2zm71.4 -.6q0 58.6 -42.1 101t-100.8 42.4h-94.3q-2.2 34.6 -20.6 66.4 1.7 11.8 1.7 24 0 56.4 -33.5 99.4 .5 77.5 -47.5 122.4t-126.6 45q-74.2 0 -179.7 -38.5 -91.5 -33 -124.5 -33H71.4q-29.5 0 -50.5 -20.9T0 785.7V428.6Q0 399 20.9 378.1t50.5 -21h160.7q5.6 0 12 -2.5t13.2 -7.8 12.5 -10 13.4 -12.6 11.4 -12 10.6 -12 7.9 -9.5q36.2 -41.3 55.8 -71.9 7.2 -11.8 18.4 -34.6T407.9 144t22.6 -35.2 30.7 -27.6T500 71.4q69.8 0 115.2 37.4t45.5 105.5q0 37.9 -12.3 71.4h208.7q58.1 0 100.5 42.4T1000 428z"/></svg>