<svg height="1000" width="1000" xmlns="http://www.w3.org/2000/svg"><path d="M0 785.7v-357.1q0-29.6 20.9-50.5t50.5-20.9h160.7q5.6 0 12-2.5t13.1-7.8 12.6-10 13.4-12.6 11.4-12 10.6-12 7.8-9.5q36.3-41.3 55.8-72 7.3-11.7 18.4-34.6t20.6-40.2 22.6-35.2 30.7-27.6 38.8-9.8q69.8 0 115.2 37.4t45.5 105.5q0 37.9-12.3 71.4h208.7q58 0 100.4 42.4t42.4 99.9q0 58.6-42.1 101t-100.7 42.4h-94.3q-2.2 34.6-20.6 66.4 1.7 11.7 1.7 24 0 56.4-33.5 99.3.6 77.6-47.4 122.5t-126.7 44.9q-74.2 0-179.7-38.5-91.5-32.9-124.4-32.9h-160.7q-29.6 0-50.5-20.9t-20.9-50.5zm71.4-35.7q0 14.5 10.6 25.1t25.1 10.6 25.1-10.6 10.6-25.1-10.6-25.1-25.1-10.6-25.1 10.6-10.6 25.1zm142.8 35.7h17.9q40.2 0 93.2 17.9t108 35.7 100.2 17.9q105.5 0 105.5-93.2 0-14.5-2.8-31.2 16.7-8.9 26.5-29.3t9.8-41-10-38.5q29.6-27.9 29.6-66.4 0-14-5.6-31t-14-26.5h184.7q29 0 50.2-21.2t21.2-50.2q0-28.5-21.8-49.9t-49.7-21.5h-321.4q0-11.2 8.4-27.1t18.4-30.7 18.4-37.9 8.4-47.2q0-37.4-24.8-54.4t-64.4-17q-13.4 0-50.2 77.6-13.4 24.6-20.6 36.3-22.3 35.7-62.5 80.9-39.6 45.2-56.4 59.1-38.5 31.8-78.1 31.8h-17.9v357.1z"/></svg>