<svg height="1000px" width="1000px" xmlns="http://www.w3.org/2000/svg">
  <g>
    <path d="M957.5892857142858 328.125c28.274 28.274 42.411 61.756 42.411 100.446c0 38.691 -14.044 72.173 -42.132 100.447c-28.088 28.274 -61.663 42.411 -100.725 42.411c0 0 -94.308 0 -94.308 0c-1.489 23.065 -8.371 45.2 -20.648 66.406c1.116 7.812 1.674 15.811 1.674 23.995c0 37.575 -11.16 70.685 -33.482 99.331c0.372 51.711 -15.439 92.541 -47.433 122.489c-31.994 29.947 -73.475 44.921 -124.442 44.921c-50.967 0 -109.282 -11.904 -174.944 -35.714c-65.662 -23.809 -109.468 -35.714 -131.417 -35.714c0 0 -160.715 0 -160.715 0c-19.717 0 -36.551 -6.976 -50.502 -20.926c-13.951 -13.951 -20.926 -30.785 -20.926 -50.503c0 0 0 -357.143 0 -357.143c0 -19.717 6.975 -36.551 20.926 -50.502c13.951 -13.951 30.785 -20.926 50.502 -20.926c0 0 160.715 0 160.715 0c8.184 0 15.532 -2.604 22.042 -7.813c6.51 -5.208 11.719 -9.393 15.625 -12.555c3.906 -3.163 8.371 -7.348 13.393 -12.556c5.022 -4.837 8.835 -8.743 11.44 -11.719c9.672 -10.417 15.811 -17.671 18.415 -21.763c24.181 -27.53 40.736 -48.363 49.665 -62.5c8.928 -14.137 17.113 -28.832 24.553 -44.085c7.441 -15.253 14.323 -28.646 20.648 -40.179c6.324 -11.533 13.951 -23.251 22.879 -35.156c18.229 -24.926 41.295 -37.388 69.197 -37.388c46.503 0 84.914 12.462 115.234 37.388c30.32 24.926 45.48 60.082 45.48 105.469c0 25.297 -4.092 49.107 -12.277 71.428c0 0 208.706 0 208.706 0c38.69 0 72.172 14.137 100.446 42.411c0 0 0 0 0 0m-50.223 150.67c14.137 -14.137 21.205 -30.785 21.205 -49.945c0 -19.159 -7.254 -35.9 -21.763 -50.223c-14.509 -14.323 -31.064 -21.484 -49.665 -21.484c0 0 -321.429 0 -321.429 0c0 -12.277 6.138 -27.344 18.415 -45.201c23.438 -34.598 35.156 -65.848 35.156 -93.75c0 -50.223 -29.761 -75.335 -89.285 -75.335c-8.929 0 -25.67 25.856 -50.224 77.567c-8.928 16.369 -18.322 32.459 -28.18 48.27c-9.859 15.811 -28.088 38.784 -54.688 68.918c-26.6 30.134 -45.48 49.851 -56.64 59.151c-25.67 21.206 -51.712 31.808 -78.125 31.808c0 0 -17.858 0 -17.858 0c0 0 0 357.143 0 357.143c0 0 17.858 0 17.858 0c26.785 0 57.849 5.953 93.192 17.857c35.342 11.905 71.335 23.81 107.979 35.715c36.645 11.904 70.034 17.857 100.168 17.857c70.312 0 105.469 -31.064 105.469 -93.192c0 -9.673 -0.93 -20.089 -2.791 -31.25c11.161 -5.952 19.997 -15.718 26.507 -29.297c6.511 -13.579 9.766 -27.251 9.766 -41.016c0 -13.764 -3.348 -26.599 -10.045 -38.504c19.717 -18.601 29.576 -40.737 29.576 -66.406c0 -9.301 -1.86 -19.625 -5.58 -30.971c-3.721 -11.347 -8.371 -20.183 -13.951 -26.507c0 0 184.71 0 184.71 0c19.345 0 36.086 -7.068 50.223 -21.205c0 0 0 0 0 0m-764.509 271.205c0 -9.673 -3.534 -18.043 -10.603 -25.112c-7.068 -7.068 -15.439 -10.602 -25.111 -10.602c-9.673 0 -18.044 3.534 -25.112 10.602c-7.068 7.069 -10.603 15.439 -10.603 25.112c0 9.673 3.535 18.043 10.603 25.112c7.068 7.068 15.439 10.602 25.112 10.602c9.672 0 18.043 -3.534 25.111 -10.602c7.069 -7.069 10.603 -15.439 10.603 -25.112c0 0 0 0 0 0" />
  </g>
</svg>