<svg height="1000px" width="642.8571428571429px" xmlns="http://www.w3.org/2000/svg">
  <g>
    <path d="M65.29017857142857 785.7142857142857c0 -19.717 6.882 -36.458 20.647 -50.223c0 0 271.206 -271.206 271.206 -271.206c0 0 -271.206 -270.647 -271.206 -270.647c-13.765 -14.509 -20.647 -31.436 -20.647 -50.781c0 -19.717 6.882 -36.458 20.647 -50.223c0 0 42.411 -41.853 42.411 -41.853c13.393 -14.137 30.134 -21.205 50.223 -21.205c20.09 0 36.831 7.068 50.223 21.205c0 0 363.84 363.281 363.84 363.281c13.765 13.765 20.647 30.506 20.647 50.223c0 19.346 -6.882 36.273 -20.647 50.782c0 0 -363.84 363.281 -363.84 363.281c-13.764 13.765 -30.505 20.647 -50.223 20.647c-19.717 0 -36.458 -6.882 -50.223 -20.647c0 0 -42.411 -41.853 -42.411 -41.853c-13.765 -14.509 -20.647 -31.436 -20.647 -50.781c0 0 0 0 0 0" />
  </g>
</svg>