<svg height="1000" width="857.1" xmlns="http://www.w3.org/2000/svg"><path d="M717.1 500q0 -15.1 -10.1 -25.1l-50.7 -50.8 -202.1 -202q-10 -10 -25.1 -10t-25.1 10l-50.8 50.8q-10 10 -10 25.1t10 25.1l105.5 105.5H178.6q-14.5 0 -25.1 10.6t-10.6 25.1v71.4q0 14.5 10.6 25.1t25.1 10.6h280.1L353.2 676.9q-10.6 10.6 -10.6 25.1t10.6 25.1l50.8 50.8q10.1 10 25.1 10t25.1 -10l202.1 -202L707 525.1q10.1 -10 10.1 -25.1zm140 0q0 116.6 -57.4 215.1t-156 156 -215.1 57.5T213.4 871.1 57.5 715.1 0 500 57.5 284.9t155.9 -156T428.6 71.4t215.1 57.5 156 156T857.1 500z"/></svg>