<svg height="1000px" width="935.546875px" xmlns="http://www.w3.org/2000/svg">
  <g>
    <path d="M0 780.76171875c0 0 0 -313.965 0 -313.965c0 -15.95 5.697 -29.541 17.09 -40.771c11.393 -11.231 25.065 -16.846 41.015 -16.846c0 0 169.922 0 169.922 0c8.789 -4.557 15.625 -9.522 20.508 -14.893c4.883 -5.371 10.417 -11.8 16.602 -19.287c5.208 -6.51 10.661 -12.776 16.357 -18.799c5.697 -6.022 11.149 -12.125 16.358 -18.31c11.393 -11.393 23.925 -22.542 37.597 -33.447c13.672 -10.905 24.252 -23.031 31.738 -36.377c8.139 -13.998 12.94 -30.192 14.405 -48.584c1.465 -18.392 4.232 -35.726 8.301 -52.002c4.069 -16.276 11.23 -29.948 21.484 -41.016c10.254 -11.068 28.076 -16.601 53.467 -16.601c19.857 0 38.004 4.15 54.443 12.451c16.439 8.301 30.355 19.45 41.748 33.447c11.393 13.997 20.264 30.029 26.611 48.096c6.348 18.066 9.522 36.377 9.522 54.931c0 17.253 -2.523 34.261 -7.568 51.026c-5.046 16.764 -11.312 32.796 -18.799 48.095c0 0 65.429 0 65.429 0c0 0 183.594 0.977 183.594 0.977c15.951 0 31.169 2.848 45.655 8.545c14.485 5.697 26.855 13.753 37.109 24.17c10.254 10.417 18.392 22.624 24.414 36.621c6.022 13.997 9.033 29.297 9.033 45.898c0 15.951 -3.011 30.925 -9.033 44.922c-6.022 13.998 -14.16 26.123 -24.414 36.377c-10.254 10.254 -22.542 18.229 -36.865 23.926c-14.323 5.697 -29.623 8.545 -45.899 8.545c0 0 -97.656 0 -97.656 0c-3.255 19.206 -9.603 36.621 -19.043 52.246c3.255 19.206 2.035 38.33 -3.662 57.373c-5.697 19.043 -14.893 35.889 -27.588 50.537c0 24.74 -4.639 46.061 -13.916 63.965c-9.277 17.904 -21.566 32.552 -36.865 43.945c-15.3 11.394 -33.122 19.938 -53.467 25.635c-20.345 5.697 -41.911 8.545 -64.697 8.545c-25.391 0 -49.561 -2.686 -72.51 -8.057c-22.949 -5.371 -45.085 -11.23 -66.406 -17.578c-21.322 -6.347 -42.155 -12.207 -62.5 -17.578c-20.345 -5.371 -40.446 -8.057 -60.303 -8.057c0 0 -183.106 0 -183.106 0c-15.95 0 -29.622 -5.615 -41.015 -16.845c-11.393 -11.231 -17.09 -24.984 -17.09 -41.26c0 0 0 0 0 0m113.77 -40.527c0 11.393 3.662 20.67 10.986 27.832c7.324 7.161 16.683 10.742 28.076 10.742c10.742 0 19.938 -3.662 27.588 -10.986c7.65 -7.325 11.475 -16.521 11.475 -27.588c0 -10.743 -3.825 -19.938 -11.475 -27.588c-7.65 -7.65 -16.846 -11.475 -27.588 -11.475c-11.393 0 -20.752 3.825 -28.076 11.475c-7.324 7.65 -10.986 16.845 -10.986 27.588c0 0 0 0 0 0m125 40.527c22.786 0 45.003 2.686 66.65 8.057c21.647 5.371 43.294 11.067 64.941 17.089c21.647 6.023 43.295 11.719 64.942 17.09c21.647 5.371 44.189 8.057 67.627 8.057c13.997 0 27.669 -1.302 41.015 -3.906c13.347 -2.604 25.065 -7.08 35.157 -13.428c10.091 -6.348 18.229 -14.893 24.414 -25.635c6.185 -10.742 9.277 -24.088 9.277 -40.039c0 -4.557 -0.163 -8.87 -0.488 -12.939c-0.326 -4.069 -0.814 -8.057 -1.465 -11.963c11.393 -5.209 20.101 -13.835 26.123 -25.879c6.022 -12.044 9.033 -24.089 9.033 -36.133c0 -12.695 -3.255 -23.763 -9.766 -33.203c19.206 -15.951 28.809 -35.97 28.809 -60.059c0 -7.487 -2.034 -14.567 -6.103 -21.24c-4.069 -6.673 -8.383 -12.288 -12.94 -16.846c29.297 0 58.268 -0.162 86.914 -0.488c28.646 -0.325 57.617 -0.488 86.914 -0.488c16.602 0 30.274 -4.964 41.016 -14.893c10.742 -9.928 16.113 -23.193 16.113 -39.795c0 -17.252 -5.29 -31.087 -15.869 -41.504c-10.579 -10.416 -24.333 -15.625 -41.26 -15.625c-55.989 0 -111.328 -0.162 -166.015 -0.488c-54.688 -0.325 -109.701 -0.488 -165.039 -0.488c0 -13.346 2.685 -26.042 8.056 -38.086c5.371 -12.044 11.068 -24.17 17.09 -36.377c6.022 -12.207 11.556 -24.984 16.602 -38.33c5.045 -13.346 7.568 -28.158 7.568 -44.434c0 -10.742 -1.709 -21.403 -5.127 -31.982c-3.418 -10.58 -8.138 -20.182 -14.16 -28.809c-6.022 -8.626 -13.509 -15.787 -22.461 -21.484c-8.952 -5.697 -19.45 -8.545 -31.494 -8.545c0 0 -5.371 0 -5.371 0c0 0 -1.791 0.326 -5.371 0.977c-2.605 1.302 -4.069 2.604 -4.395 3.906c-0.325 1.302 -0.814 3.418 -1.465 6.347c-3.906 19.206 -7.568 39.307 -10.986 60.303c-3.418 20.996 -9.847 40.121 -19.287 57.373c-9.44 16.602 -21.322 30.925 -35.645 42.969c-14.323 12.044 -28.157 24.74 -41.504 38.086c-9.44 10.091 -17.415 19.287 -23.925 27.588c-6.511 8.301 -13.265 16.113 -20.264 23.437c-6.999 7.325 -14.893 14.161 -23.682 20.508c-8.789 6.348 -19.368 12.126 -31.738 17.334c0 0 -2.441 0 -2.441 0c0 0 0 313.965 0 313.965c0 0 0 0 0 0" />
  </g>
</svg>