<svg height="1000px" width="857.1428571428571px" xmlns="http://www.w3.org/2000/svg">
  <g>
    <path d="M0 571.4285714285713c0 0 0 -71.429 0 -71.429c0 -19.717 6.045 -36.551 18.136 -50.502c12.091 -13.951 27.809 -20.926 47.154 -20.926c0 0 392.857 0 392.857 0c0 0 -163.504 -164.063 -163.504 -164.063c-14.137 -13.393 -21.206 -30.134 -21.206 -50.223c0 -20.089 7.069 -36.83 21.206 -50.223c0 0 41.853 -41.853 41.853 -41.853c14.136 -14.137 30.878 -21.205 50.223 -21.205c19.717 0 36.644 7.068 50.781 21.205c0 0 363.281 363.282 363.281 363.282c13.765 13.02 20.648 29.761 20.648 50.223c0 20.089 -6.883 37.016 -20.648 50.781c0 0 -363.281 363.281 -363.281 363.281c-14.509 13.765 -31.436 20.648 -50.781 20.648c-18.973 0 -35.715 -6.883 -50.223 -20.648c0 0 -41.853 -41.852 -41.853 -41.852c-14.137 -14.137 -21.206 -31.064 -21.206 -50.782c0 -19.717 7.069 -36.644 21.206 -50.781c0 0 163.504 -163.504 163.504 -163.504c0 0 -392.857 0 -392.857 0c-19.345 0 -35.063 -6.976 -47.154 -20.927c-12.091 -13.951 -18.136 -30.785 -18.136 -50.502c0 0 0 0 0 0" />
  </g>
</svg>