<svg height="1000px" width="857.1428571428571px" xmlns="http://www.w3.org/2000/svg">
  <g>
    <path d="M800.78125 485.4910714285714c13.765 13.021 20.647 29.669 20.647 49.944c0 20.275 -6.882 37.296 -20.647 51.06c0 0 -363.281 363.282 -363.281 363.282c-14.509 13.765 -31.343 20.647 -50.502 20.647c-19.16 0 -35.994 -6.882 -50.503 -20.647c0 0 -41.852 -41.853 -41.852 -41.853c-14.137 -14.137 -21.206 -31.064 -21.206 -50.781c0 -19.717 7.069 -36.645 21.206 -50.781c0 0 163.504 -163.505 163.504 -163.505c0 0 -392.857 0 -392.857 0c-19.345 0 -35.063 -6.975 -47.154 -20.926c-12.091 -13.951 -18.136 -30.785 -18.136 -50.503c0 0 0 -71.428 0 -71.428c0 -19.717 6.045 -36.551 18.136 -50.502c12.091 -13.951 27.809 -20.927 47.154 -20.927c0 0 392.857 0 392.857 0c0 0 -163.504 -164.062 -163.504 -164.062c-14.137 -13.393 -21.206 -30.134 -21.206 -50.223c0 -20.09 7.069 -36.831 21.206 -50.224c0 0 41.852 -41.852 41.852 -41.852c14.137 -14.137 30.971 -21.206 50.503 -21.206c19.531 0 36.365 7.069 50.502 21.206c0 0 363.281 363.281 363.281 363.281" />
  </g>
</svg>