<svg height="1000px" width="857.1428571428571px" xmlns="http://www.w3.org/2000/svg">
  <g>
    <path d="M0 499.99999999999994c0 -77.753 19.159 -149.461 57.478 -215.123c38.318 -65.662 90.308 -117.652 155.971 -155.971c65.662 -38.318 137.369 -57.477 215.122 -57.477c77.753 0 149.461 19.159 215.123 57.477c65.662 38.319 117.653 90.309 155.971 155.971c38.319 65.662 57.478 137.37 57.478 215.123c0 77.753 -19.159 149.461 -57.478 215.123c-38.318 65.662 -90.309 117.652 -155.971 155.971c-65.662 38.318 -137.37 57.477 -215.123 57.477c-77.753 0 -149.46 -19.159 -215.122 -57.477c-65.663 -38.319 -117.653 -90.309 -155.971 -155.971c-38.319 -65.662 -57.478 -137.37 -57.478 -215.123c0 0 0 0 0 0m142.857 35.714c0 9.673 3.534 18.043 10.603 25.112c7.068 7.068 15.439 10.603 25.111 10.603c0 0 280.134 0 280.134 0c0 0 -105.468 105.468 -105.468 105.468c-7.069 7.069 -10.603 15.439 -10.603 25.112c0 9.673 3.534 18.043 10.603 25.112c0 0 50.781 50.781 50.781 50.781c6.696 6.696 15.067 10.044 25.111 10.044c10.045 0 18.416 -3.348 25.112 -10.044c0 0 202.009 -202.009 202.009 -202.009c0 0 50.781 -50.781 50.781 -50.781c6.697 -6.697 10.045 -15.067 10.045 -25.112c0 -10.045 -3.348 -18.415 -10.045 -25.112c0 0 -50.781 -50.781 -50.781 -50.781c0 0 -202.009 -202.009 -202.009 -202.009c-6.696 -6.696 -15.067 -10.044 -25.112 -10.044c-10.044 0 -18.415 3.348 -25.111 10.044c0 0 -50.781 50.781 -50.781 50.781c-6.697 6.697 -10.045 15.067 -10.045 25.112c0 10.045 3.348 18.415 10.045 25.112c0 0 105.468 105.468 105.468 105.468c0 0 -280.134 0 -280.134 0c-9.672 0 -18.043 3.535 -25.111 10.603c-7.069 7.069 -10.603 15.439 -10.603 25.112c0 0 0 71.428 0 71.428c0 0 0 0 0 0" />
  </g>
</svg>