<svg height="1000px" width="642.8571428571429px" xmlns="http://www.w3.org/2000/svg">
  <g>
    <path d="M592.6339285714286 414.06249999999994c13.765 13.765 20.647 30.413 20.647 49.944c0 19.531 -6.882 36.552 -20.647 51.06c0 0 -363.839 363.282 -363.839 363.282c-13.765 13.765 -30.506 20.647 -50.223 20.647c-19.718 0 -36.459 -6.882 -50.224 -20.647c0 0 -42.41 -41.853 -42.41 -41.853c-13.765 -14.509 -20.648 -31.529 -20.648 -51.06c0 -19.531 6.883 -36.18 20.648 -49.944c0 0 271.205 -271.206 271.205 -271.206c0 0 -271.205 -270.647 -271.205 -270.647c-13.765 -14.509 -20.648 -31.529 -20.648 -51.06c0 -19.532 6.883 -36.18 20.648 -49.945c0 0 42.41 -41.852 42.41 -41.852c13.393 -14.137 30.134 -21.206 50.224 -21.206c20.089 0 36.83 7.069 50.223 21.206c0 0 363.839 363.281 363.839 363.281" />
  </g>
</svg>