<svg height="1000px" width="1000px" xmlns="http://www.w3.org/2000/svg">
  <g>
    <path d="M0 785.7142857142857c0 0 0 -357.143 0 -357.143c0 -19.717 6.975 -36.551 20.926 -50.502c13.951 -13.951 30.785 -20.926 50.503 -20.926c0 0 160.714 0 160.714 0c3.72 0 7.719 -0.837 11.998 -2.512c4.278 -1.674 8.649 -4.278 13.113 -7.812c4.465 -3.534 8.65 -6.883 12.556 -10.045c3.907 -3.162 8.371 -7.347 13.393 -12.556c5.022 -5.208 8.836 -9.207 11.44 -11.997c2.604 -2.79 6.138 -6.79 10.603 -11.998c4.464 -5.208 7.068 -8.371 7.812 -9.487c24.182 -27.529 42.783 -51.525 55.804 -71.986c4.836 -7.813 10.974 -19.346 18.415 -34.599c7.44 -15.252 14.323 -28.645 20.647 -40.178c6.325 -11.533 13.858 -23.252 22.601 -35.156c8.742 -11.905 18.973 -21.113 30.692 -27.623c11.718 -6.511 24.646 -9.766 38.783 -9.766c46.503 0 84.914 12.463 115.234 37.389c30.32 24.925 45.48 60.082 45.48 105.468c0 25.298 -4.092 49.108 -12.277 71.429c0 0 208.706 0 208.706 0c38.69 0 72.172 14.137 100.446 42.411c28.274 28.274 42.411 61.57 42.411 99.888c0 39.063 -14.044 72.731 -42.132 101.005c-28.087 28.273 -61.663 42.41 -100.725 42.41c0 0 -94.308 0 -94.308 0c-1.488 23.066 -8.371 45.201 -20.648 66.407c1.117 7.812 1.675 15.811 1.675 23.995c0 37.574 -11.161 70.685 -33.483 99.33c0.372 51.712 -15.439 92.541 -47.433 122.489c-31.994 29.948 -74.218 44.922 -126.674 44.922c-49.479 0 -109.375 -12.835 -179.687 -38.504c-61.012 -21.95 -102.493 -32.924 -124.442 -32.924c0 0 -160.714 0 -160.714 0c-19.718 0 -36.552 -6.976 -50.503 -20.927c-13.951 -13.951 -20.926 -30.785 -20.926 -50.502c0 0 0 0 0 0m71.429 -35.714c0 9.672 3.534 18.043 10.602 25.111c7.069 7.069 15.439 10.603 25.112 10.603c9.672 0 18.043 -3.534 25.111 -10.603c7.069 -7.068 10.603 -15.439 10.603 -25.111c0 -9.673 -3.534 -18.043 -10.603 -25.112c-7.068 -7.068 -15.439 -10.603 -25.111 -10.603c-9.673 0 -18.043 3.535 -25.112 10.603c-7.068 7.069 -10.602 15.439 -10.602 25.112c0 0 0 0 0 0m142.857 35.714c0 0 17.857 0 17.857 0c26.786 0 57.85 5.952 93.192 17.857c35.342 11.905 71.335 23.81 107.98 35.714c36.644 11.905 70.033 17.858 100.167 17.858c70.313 0 105.469 -31.064 105.469 -93.192c0 -9.673 -0.93 -20.09 -2.79 -31.25c11.16 -5.953 19.996 -15.718 26.506 -29.297c6.511 -13.579 9.766 -27.251 9.766 -41.016c0 -13.765 -3.348 -26.6 -10.045 -38.504c19.718 -18.602 29.576 -40.737 29.576 -66.407c0 -9.3 -1.86 -19.624 -5.58 -30.971c-3.72 -11.346 -8.371 -20.182 -13.951 -26.506c0 0 184.71 0 184.71 0c19.345 0 36.086 -7.069 50.223 -21.206c14.137 -14.137 21.205 -30.878 21.205 -50.223c0 -18.973 -7.254 -35.621 -21.763 -49.944c-14.509 -14.323 -31.064 -21.484 -49.665 -21.484c0 0 -321.429 0 -321.429 0c0 -7.441 2.79 -16.462 8.371 -27.065c5.58 -10.603 11.719 -20.833 18.415 -30.692c6.696 -9.859 12.835 -22.508 18.415 -37.947c5.581 -15.439 8.371 -31.157 8.371 -47.154c0 -24.925 -8.278 -43.061 -24.833 -54.408c-16.555 -11.347 -38.039 -17.02 -64.453 -17.02c-8.929 0 -25.67 25.856 -50.223 77.567c-8.929 16.369 -15.811 28.46 -20.648 36.272c-14.88 23.81 -35.714 50.781 -62.5 80.915c-26.413 30.134 -45.2 49.852 -56.361 59.152c-25.67 21.205 -51.711 31.808 -78.125 31.808c0 0 -17.857 0 -17.857 0c0 0 0 357.143 0 357.143c0 0 0 0 0 0" />
  </g>
</svg>