<svg height="1000px" width="470.703125px" xmlns="http://www.w3.org/2000/svg">
  <g>
    <path d="M0 779.541015625c0 -12.533 4.72 -23.519 14.16 -32.959c0 0 248.047 -248.047 248.047 -248.047c0 0 -248.047 -245.117 -248.047 -245.117c-9.44 -9.44 -14.16 -20.264 -14.16 -32.471c0 -12.207 4.72 -23.03 14.16 -32.47c0 0 48.828 -49.805 48.828 -49.805c9.44 -9.44 20.508 -14.16 33.203 -14.16c12.696 0 23.601 4.72 32.715 14.16c0 0 328.125 328.613 328.125 328.613c9.44 9.44 14.16 20.508 14.16 33.203c0 12.696 -4.72 23.763 -14.16 33.203c0 0 -328.125 327.637 -328.125 327.637c-9.44 9.44 -20.426 14.16 -32.959 14.16c-12.532 0 -23.519 -4.72 -32.959 -14.16c0 0 -48.828 -48.828 -48.828 -48.828c-9.44 -9.44 -14.16 -20.426 -14.16 -32.959c0 0 0 0 0 0" />
  </g>
</svg>