<svg height="1000" width="857.143" xmlns="http://www.w3.org/2000/svg"><path d="M821.376 535.744q0 30.132 -20.646 50.778l-363.258 363.258q-21.762 20.646 -50.778 20.646 -28.458 0 -50.22 -20.646l-41.85 -41.85q-21.204 -21.204 -21.204 -50.778t21.204 -50.778l163.494 -163.494h-392.832q-29.016 0 -47.151 -20.925t-18.135 -50.499v-71.424q0 -29.574 18.135 -50.499t47.151 -20.925h392.832l-163.494 -164.052q-21.204 -20.088 -21.204 -50.22t21.204 -50.22l41.85 -41.85q21.204 -21.204 50.22 -21.204 29.574 0 50.778 21.204l363.258 363.258q20.646 19.53 20.646 50.22z"/></svg>