<svg height="1000" width="1000" xmlns="http://www.w3.org/2000/svg"><path d="M142.848 750.016q0 -14.508 -10.602 -25.11t-25.11 -10.602 -25.11 10.602 -10.602 25.11 10.602 25.11 25.11 10.602 25.11 -10.602 10.602 -25.11zm785.664 -321.408q0 -28.458 -21.762 -49.941t-49.662 -21.483h-321.408q0 -11.16 8.37 -27.063t18.414 -30.69 18.414 -37.944 8.37 -47.151q0 -37.386 -24.831 -54.405t-64.449 -17.019q-13.392 0 -50.22 77.562 -13.392 24.552 -20.646 36.27 -22.32 35.712 -62.496 80.91 -39.618 45.198 -56.358 59.148 -38.502 31.806 -78.12 31.806h-17.856v357.12h17.856q40.176 0 93.186 17.856t107.973 35.712 100.161 17.856q105.462 0 105.462 -93.186 0 -14.508 -2.79 -31.248 16.74 -8.928 26.505 -29.295t9.765 -41.013 -10.044 -38.502q29.574 -27.9 29.574 -66.402 0 -13.95 -5.58 -30.969t-13.95 -26.505h184.698q29.016 0 50.22 -21.204t21.204 -50.22zm71.424 -.558q0 58.59 -42.129 100.998t-100.719 42.408h-94.302q-2.232 34.596 -20.646 66.402 1.674 11.718 1.674 23.994 0 56.358 -33.48 99.324 .558 77.562 -47.43 122.481t-126.666 44.919q-74.214 0 -179.676 -38.502 -91.512 -32.922 -124.434 -32.922h-160.704q-29.574 0 -50.499 -20.925t-20.925 -50.499v-357.12q0 -29.574 20.925 -50.499t50.499 -20.925h160.704q5.58 0 11.997 -2.511t13.113 -7.812 12.555 -10.044 13.392 -12.555 11.439 -11.997 10.602 -11.997 7.812 -9.486q36.27 -41.292 55.8 -71.982 7.254 -11.718 18.414 -34.596t20.646 -40.176 22.599 -35.154 30.69 -27.621 38.781 -9.765q69.75 0 115.227 37.386t45.477 105.462q0 37.944 -12.276 71.424h208.692q58.032 0 100.44 42.408t42.408 99.882z"/></svg>