<svg height="1000px" width="750px" xmlns="http://www.w3.org/2000/svg">
  <g>
    <path d="M0 534.66796875c0 0 0 -70.313 0 -70.313c0 -12.695 4.476 -23.518 13.428 -32.47c8.952 -8.952 19.775 -13.428 32.47 -13.428c0 0 412.11 0 412.11 0c0 0 -165.039 -165.039 -165.039 -165.039c-9.44 -9.44 -14.16 -20.426 -14.16 -32.959c0 -12.533 4.72 -23.519 14.16 -32.959c0 0 48.828 -48.828 48.828 -48.828c9.44 -9.44 20.508 -14.16 33.203 -14.16c12.695 0 23.763 4.72 33.203 14.16c0 0 327.637 328.613 327.637 328.613c9.44 9.44 14.16 20.345 14.16 32.715c0 12.37 -4.72 23.275 -14.16 32.715c0 0 -327.637 328.613 -327.637 328.613c-9.44 9.44 -20.508 14.16 -33.203 14.16c-12.695 0 -23.763 -4.72 -33.203 -14.16c0 0 -48.828 -48.828 -48.828 -48.828c-9.44 -9.44 -14.16 -20.508 -14.16 -33.203c0 -12.695 4.72 -23.6 14.16 -32.715c0 0 165.039 -165.039 165.039 -165.039c0 0 -412.11 0 -412.11 0c-12.695 0 -23.518 -4.476 -32.47 -13.428c-8.952 -8.952 -13.428 -20.101 -13.428 -33.447c0 0 0 0 0 0" />
  </g>
</svg>