<svg height="1000px" width="642.8571428571429px" xmlns="http://www.w3.org/2000/svg">
  <g>
    <path d="M65.29017857142857 785.4352678571428c0 -19.531 6.882 -36.179 20.647 -49.944c0 0 271.206 -271.206 271.206 -271.206c0 0 -271.206 -270.647 -271.206 -270.647c-13.765 -14.509 -20.647 -31.529 -20.647 -51.06c0 -19.531 6.882 -36.179 20.647 -49.944c0 0 42.411 -41.853 42.411 -41.853c13.393 -14.137 30.134 -21.205 50.223 -21.205c20.09 0 36.831 7.068 50.223 21.205c0 0 363.84 363.281 363.84 363.281c13.765 13.765 20.647 30.413 20.647 49.944c0 19.532 -6.882 36.552 -20.647 51.061c0 0 -363.84 363.281 -363.84 363.281c-13.764 13.765 -30.505 20.647 -50.223 20.647c-19.717 0 -36.458 -6.882 -50.223 -20.647c0 0 -42.411 -41.853 -42.411 -41.853c-13.765 -14.509 -20.647 -31.529 -20.647 -51.06c0 0 0 0 0 0" />
  </g>
</svg>