<svg height="1000px" width="900px" xmlns="http://www.w3.org/2000/svg">
  <g>
    <path d="M1 858c0 0 290 -716 290 -716c2 -4.667 5.5 -8.667 10.5 -12c5 -3.333 10.167 -5 15.5 -5c0 0 95 0 95 0c0 0 -4 83 -4 83c0 0 84 0 84 0c0 0 -4 -83 -4 -83c0 0 95 0 95 0c5.333 0 10.5 1.667 15.5 5c5 3.333 8.5 7.333 10.5 12c0 0 290 716 290 716c2 4.667 1.833 8.667 -0.5 12c-2.333 3.333 -6.167 5 -11.5 5c0 0 -361 0 -361 0c0 0 -13 -250 -13 -250c0 0 -126 0 -126 0c0 0 -13 250 -13 250c0 0 -361 0 -361 0c-5.333 0 -9.167 -1.667 -11.5 -5c-2.333 -3.333 -2.5 -7.333 -0.5 -12c0 0 0 0 0 0m393 -372c0 0 112 0 112 0c0 0 -10 -202 -10 -202c0 0 -92 0 -92 0c0 0 -10 202 -10 202" />
  </g>
</svg>