<svg height="1000" width="1071.429" xmlns="http://www.w3.org/2000/svg"><path d="M619.938 555.832v-2.232l-13.392 -178.56q-.558 -7.254 -6.138 -12.555t-12.834 -5.301h-103.788q-7.254 0 -12.834 5.301t-6.138 12.555l-13.392 178.56v2.232q-.558 6.696 4.464 11.16t11.718 4.464h136.152q6.696 0 11.718 -4.464t4.464 -11.16zm423.522 260.586q0 40.734 -25.668 40.734h-392.832q7.254 0 12.276 -5.301t4.464 -12.555l-11.16 -142.848q-.558 -7.254 -6.138 -12.555t-12.834 -5.301h-151.776q-7.254 0 -12.834 5.301t-6.138 12.555l-11.16 142.848q-.558 7.254 4.464 12.555t12.276 5.301h-392.832q-25.668 0 -25.668 -40.734 0 -30.132 14.508 -64.728l232.686 -582.552q4.464 -10.602 14.508 -18.414t21.204 -7.812h189.162q-7.254 0 -12.834 5.301t-6.138 12.555l-8.37 107.136q-.558 7.812 4.464 12.834t12.276 5.022h92.628q7.254 0 12.276 -5.022t4.464 -12.834l-8.37 -107.136q-.558 -7.254 -6.138 -12.555t-12.834 -5.301h189.162q11.16 0 21.204 7.812t14.508 18.414l232.686 582.552q14.508 34.596 14.508 64.728z"/></svg>