<svg height="1000" width="1016" xmlns="http://www.w3.org/2000/svg"><path d="M0 816.418q0-30.132 14.508-64.728l232.686-582.552q4.464-10.602 14.508-18.414t21.204-7.812l189.162 0q-7.254 0-12.834 5.301t-6.138 12.555l-8.37 107.136q-.558 7.812 4.464 12.834t12.276 5.022l92.628 0q7.254 0 12.276-5.022t4.464-12.834l-8.37-107.136q-.558-7.254-6.138-12.555t-12.834-5.301l189.162 0q11.16 0 21.204 7.812t14.508 18.414l232.686 582.552q14.508 34.596 14.508 64.728 0 40.734-25.668 40.734l-392.832 0q7.254 0 12.276-5.301t4.464-12.555l-11.16-142.848q-.558-7.254-6.138-12.555t-12.834-5.301l-151.776 0q-7.254 0-12.834 5.301t-6.138 12.555l-11.16 142.848q-.558 7.254 4.464 12.555t12.276 5.301l-392.832 0q-25.668 0-25.668-40.734zm423.522-260.586q-.558 6.696 4.464 11.16t11.718 4.464l136.152 0q6.696 0 11.718-4.464t4.464-11.16l0-2.232l-13.392-178.56q-.558-7.254-6.138-12.555t-12.834-5.301l-103.788 0q-7.254 0-12.834 5.301t-6.138 12.555l-13.392 178.56l0 2.232z"/></svg>