<svg height="1000" width="1071.4" xmlns="http://www.w3.org/2000/svg"><path d="M27.9 816.4q0-30.1 14.5-64.7l232.7-582.6q4.5-10.6 14.5-18.4t21.2-7.8h189.2q-7.3 0-12.8 5.3t-6.1 12.6l-8.4 107.1q-.6 7.8 4.5 12.8t12.3 5h92.6q7.3 0 12.3-5t4.5-12.8l-8.4-107.1q-.6-7.3-6.1-12.6t-12.8-5.3h189.2q11.2 0 21.2 7.8t14.5 18.4l232.7 582.6q14.5 34.6 14.5 64.7 0 40.7-25.7 40.7h-392.8q7.3 0 12.3-5.3t4.5-12.6l-11.2-142.8q-.6-7.3-6.1-12.6t-12.8-5.3h-151.8q-7.3 0-12.8 5.3t-6.1 12.6l-11.2 142.8q-.6 7.3 4.5 12.6t12.3 5.3h-392.8q-25.7 0-25.7-40.7zm423.5-260.6q-.6 6.7 4.5 11.2t11.7 4.5h136.2q6.7 0 11.7-4.5t4.5-11.2v-2.2l-13.4-178.6q-.6-7.3-6.1-12.6t-12.8-5.3h-103.8q-7.3 0-12.8 5.3t-6.1 12.6l-13.4 178.6v2.2z"/></svg>