<svg height="1000px" width="1071.4285714285716px" xmlns="http://www.w3.org/2000/svg">
  <g>
    <path d="M1029.017857142857 751.6741071428571c9.673 23.065 14.509 46.41 14.509 70.033c0 23.624 -8.557 35.436 -25.67 35.436c0 0 -392.857 0 -392.857 0c4.836 0 8.929 -1.767 12.277 -5.302c3.348 -3.534 4.836 -7.719 4.464 -12.555c0 0 -11.161 -142.858 -11.161 -142.858c-0.372 -4.836 -2.418 -9.021 -6.138 -12.555c-3.72 -3.535 -7.998 -5.302 -12.835 -5.302c0 0 -151.785 0 -151.785 0c-4.837 0 -9.115 1.767 -12.835 5.302c-3.72 3.534 -5.767 7.719 -6.139 12.555c0 0 -11.16 142.858 -11.16 142.858c-0.372 4.836 1.116 9.021 4.464 12.555c3.348 3.535 7.44 5.302 12.277 5.302c0 0 -392.857 0 -392.857 0c-17.114 0 -25.67 -11.812 -25.67 -35.436c0 -23.623 4.836 -46.968 14.509 -70.033c0 0 232.701 -582.589 232.701 -582.589c2.976 -7.069 7.812 -13.207 14.509 -18.415c6.696 -5.209 13.765 -7.813 21.205 -7.813c0 0 189.174 0 189.174 0c-4.836 0 -9.114 1.767 -12.835 5.301c-3.72 3.535 -5.766 7.72 -6.138 12.556c0 0 -8.371 107.143 -8.371 107.143c-0.372 5.208 1.116 9.487 4.465 12.835c3.348 3.348 7.44 5.022 12.276 5.022c0 0 92.634 0 92.634 0c4.837 0 8.929 -1.674 12.277 -5.022c3.348 -3.348 4.836 -7.627 4.464 -12.835c0 0 -8.37 -107.143 -8.37 -107.143c-0.372 -4.836 -2.418 -9.021 -6.138 -12.556c-3.721 -3.534 -7.999 -5.301 -12.835 -5.301c0 0 189.174 0 189.174 0c7.44 0 14.509 2.604 21.205 7.813c6.697 5.208 11.533 11.346 14.509 18.415c0 0 232.701 582.589 232.701 582.589m-409.04 -195.871c0 0 0 -2.232 0 -2.232c0 0 -13.393 -178.571 -13.393 -178.571c-0.372 -4.836 -2.418 -9.022 -6.138 -12.556c-3.721 -3.534 -7.999 -5.301 -12.835 -5.301c0 0 -103.795 0 -103.795 0c-4.836 0 -9.114 1.767 -12.835 5.301c-3.72 3.534 -5.766 7.72 -6.138 12.556c0 0 -13.393 178.571 -13.393 178.571c0 0 0 2.232 0 2.232c-0.372 4.465 1.116 8.185 4.464 11.161c3.349 2.976 7.255 4.464 11.719 4.464c0 0 136.161 0 136.161 0c4.464 0 8.37 -1.488 11.719 -4.464c3.348 -2.976 4.836 -6.696 4.464 -11.161c0 0 0 0 0 0" />
  </g>
</svg>