<svg height="1000px" width="899.90234375px" xmlns="http://www.w3.org/2000/svg">
  <g>
    <path d="M0.9765625 857.91015625c0 0 290.039 -715.82 290.039 -715.82c1.953 -4.558 5.453 -8.545 10.498 -11.963c5.046 -3.418 10.173 -5.127 15.381 -5.127c0 0 95.215 0 95.215 0c0 0 -3.906 83.008 -3.906 83.008c0 0 83.984 0 83.984 0c0 0 -4.395 -83.008 -4.395 -83.008c0 0 95.215 0 95.215 0c5.209 0 10.336 1.627 15.381 4.883c5.046 3.255 8.545 7.324 10.498 12.207c0 0 290.039 715.82 290.039 715.82c1.953 4.557 1.791 8.545 -0.488 11.963c-2.279 3.418 -6.022 5.127 -11.231 5.127c0 0 -361.328 0 -361.328 0c0 0 -12.695 -250 -12.695 -250c0 0 -125.977 0 -125.977 0c0 0 -13.183 250 -13.183 250c0 0 -360.84 0 -360.84 0c-5.208 0 -9.033 -1.628 -11.475 -4.883c-2.441 -3.255 -2.685 -7.324 -0.732 -12.207c0 0 0 0 0 0m393.066 -372.07c0 0 111.817 0 111.817 0c0 0 -9.766 -201.66 -9.766 -201.66c0 0 -92.285 0 -92.285 0c0 0 -9.766 201.66 -9.766 201.66" />
  </g>
</svg>