<svg height="1000" width="928.571" xmlns="http://www.w3.org/2000/svg"><path d="M803.52 250.048q0 -22.32 -15.624 -37.944t-37.944 -15.624 -37.944 15.624 -15.624 37.944 15.624 37.944 37.944 15.624 37.944 -15.624 15.624 -37.944zm124.992 -160.704q0 138.942 -42.129 240.219t-141.453 201.159q-45.198 44.64 -108.81 98.208l-11.16 211.482q-1.116 8.928 -8.928 14.508l-214.272 124.992q-3.906 2.232 -8.928 2.232 -6.696 0 -12.834 -5.022l-35.712 -35.712q-7.254 -7.812 -4.464 -17.856l47.43 -154.008 -156.798 -156.798 -154.008 47.43q-1.674 .558 -5.022 .558 -7.812 0 -12.834 -5.022l-35.712 -35.712q-9.486 -10.602 -2.79 -21.762l124.992 -214.272q5.58 -7.812 14.508 -8.928l211.482 -11.16q53.568 -63.612 98.208 -108.81 104.904 -104.346 199.764 -143.964t240.498 -39.618q7.812 0 13.392 5.301t5.58 12.555z"/></svg>