<svg height="1000" width="928.6" xmlns="http://www.w3.org/2000/svg"><path d="M803.6 250q0 -22.3 -15.7 -37.9T750 196.4t-37.9 15.7T696.4 250t15.7 37.9 37.9 15.7 37.9 -15.7T803.6 250zm125 -160.7q0 138.9 -42.2 240.2T745 530.7q-45.2 44.6 -108.8 98.2L625 840.4q-1.1 8.9 -8.9 14.5l-214.3 125q-3.9 2.2 -8.9 2.2 -6.7 0 -12.9 -5l-35.7 -35.7q-7.2 -7.8 -4.5 -17.9l47.5 -154L230.5 612.7l-154 47.5q-1.7 .5 -5.1 .5 -7.8 0 -12.8 -5L22.9 620q-9.5 -10.6 -2.8 -21.8l125 -214.3q5.6 -7.8 14.5 -8.9l211.5 -11.2Q424.7 300.2 469.3 255 574.2 150.7 669.1 111T909.6 71.4q7.8 0 13.4 5.3t5.6 12.6z"/></svg>