<svg height="1000" width="714.286" xmlns="http://www.w3.org/2000/svg"><path d="M581.994 315.334q0 -55.8 -36.27 -90.396t-95.418 -34.596h-178.56v249.984h178.56q59.148 0 95.418 -34.596t36.27 -90.396zm132.246 0q0 107.694 -70.587 175.77t-182.187 68.076h-189.72v65.844h281.79q7.812 0 12.834 5.022t5.022 12.834v71.424q0 7.812 -5.022 12.834t-12.834 5.022h-281.79v107.136q0 7.812 -5.301 12.834t-12.555 5.022h-93.186q-7.812 0 -12.834 -5.022t-5.022 -12.834v-107.136h-124.992q-7.812 0 -12.834 -5.022t-5.022 -12.834v-71.424q0 -7.812 5.022 -12.834t12.834 -5.022h124.992v-65.844h-124.992q-7.812 0 -12.834 -5.022t-5.022 -12.834v-83.142q0 -7.254 5.022 -12.555t12.834 -5.301h124.992v-350.982q0 -7.812 5.022 -12.834t12.834 -5.022h300.762q111.6 0 182.187 68.076t70.587 175.77z"/></svg>