<svg height="1000" width="714.3" xmlns="http://www.w3.org/2000/svg"><path d="M582 315.3q0 -55.8 -36.2 -90.4t-95.5 -34.6H271.8v250h178.5q59.2 0 95.5 -34.6T582 315.3zm132.3 0q0 107.7 -70.6 175.8t-182.2 68.1H271.8V625h281.8q7.8 0 12.8 5t5 12.9v71.4q0 7.8 -5 12.8t-12.8 5H271.8v107.2q0 7.8 -5.3 12.8t-12.6 5h-93.2q-7.8 0 -12.8 -5t-5 -12.8V732.1h-125q-7.9 0 -12.9 -5T0 714.3v-71.4Q0 635 5 630t12.9 -5h125v-65.8h-125Q10 559.2 5 554.1T0 541.3v-83.2q0 -7.2 5 -12.5t12.9 -5.3h125v-351q0 -7.8 5 -12.8t12.8 -5.1h300.8q111.6 0 182.2 68.1t70.6 175.8z"/></svg>