<svg height="1000" width="857.1" xmlns="http://www.w3.org/2000/svg"><path d="M285.7 714.3q0 -29.6 -20.9 -50.5t-50.5 -20.9 -50.5 20.9 -20.9 50.5 20.9 50.5 50.5 20.9 50.5 -20.9 20.9 -50.5zm195.9 52.4Q474.3 637.3 382.8 545.8T161.8 447q-7.8 -.6 -13.4 5t-5.5 12.8v71.5q0 7.2 4.7 12.2t12 5.6q85.9 6.2 147.3 67.6T374.4 769q.6 7.2 5.6 12t12.3 4.7h71.4q7.3 0 12.9 -5.6t5 -13.4zm214.3 .6q-2.8 -85.9 -31.3 -166T586.8 456.2 472.4 341.8 327.3 264t-166 -31.3q-7.8 -.6 -12.9 5 -5.5 5.6 -5.5 12.9V322q0 7.2 5 12.3t12.3 5.5q113.8 3.9 210.9 62.3t155.4 155.4 62.2 210.9q.6 7.3 5.6 12.3t12.3 5H678q7.3 0 12.8 -5.6 6.2 -5 5.1 -12.8zM857.1 232.1v535.8q0 66.4 -47.1 113.5t-113.6 47.2H160.7q-66.4 0 -113.5 -47.2T0 767.9V232.1Q0 165.7 47.2 118.6T160.7 71.4h535.7q66.4 0 113.6 47.2t47.1 113.5z"/></svg>