<svg height="1000" width="857.143" xmlns="http://www.w3.org/2000/svg"><path d="M285.696 714.304q0 -29.574 -20.925 -50.499t-50.499 -20.925 -50.499 20.925 -20.925 50.499 20.925 50.499 50.499 20.925 50.499 -20.925 20.925 -50.499zm195.858 52.452q-7.254 -129.456 -98.766 -220.968t-220.968 -98.766q-7.812 -.558 -13.392 5.022t-5.58 12.834v71.424q0 7.254 4.743 12.276t11.997 5.58q85.932 6.138 147.312 67.518t67.518 147.312q.558 7.254 5.58 11.997t12.276 4.743h71.424q7.254 0 12.834 -5.58t5.022 -13.392zm214.272 .558q-2.79 -85.932 -31.248 -166.005t-77.841 -145.08 -114.39 -114.39 -145.08 -77.841 -166.005 -31.248q-7.812 -.558 -12.834 5.022 -5.58 5.58 -5.58 12.834v71.424q0 7.254 5.022 12.276t12.276 5.58q113.832 3.906 210.924 62.217t155.403 155.403 62.217 210.924q.558 7.254 5.58 12.276t12.276 5.022h71.424q7.254 0 12.834 -5.58 6.138 -5.022 5.022 -12.834zm161.262 -535.122v535.68q0 66.402 -47.151 113.553t-113.553 47.151h-535.68q-66.402 0 -113.553 -47.151t-47.151 -113.553v-535.68q0 -66.402 47.151 -113.553t113.553 -47.151h535.68q66.402 0 113.553 47.151t47.151 113.553z"/></svg>