<svg height="1000px" width="785.7142857142858px" xmlns="http://www.w3.org/2000/svg">
  <g>
    <path d="M0 750c0 -29.762 10.417 -55.06 31.25 -75.893c20.833 -20.833 46.131 -31.25 75.893 -31.25c29.762 0 55.059 10.417 75.893 31.25c20.833 20.833 31.25 46.131 31.25 75.893c0 29.762 -10.417 55.06 -31.25 75.893c-20.834 20.833 -46.131 31.25 -75.893 31.25c-29.762 0 -55.06 -10.417 -75.893 -31.25c-20.833 -20.833 -31.25 -46.131 -31.25 -75.893c0 0 0 0 0 0m0 -281.808c0 0 0 -75.335 0 -75.335c0 -10.417 3.534 -18.973 10.603 -25.67c7.068 -6.696 15.439 -10.044 25.111 -10.044c0 0 2.79 0 2.79 0c59.524 4.836 116.444 19.81 170.759 44.922c53.944 25.111 102.121 58.872 144.532 101.283c42.41 42.411 76.172 90.681 101.283 144.81c25.112 54.13 40.086 110.957 44.922 170.48c0.074 1.079 0.112 2.141 0.112 3.187c0 9.408 -3.014 17.461 -9.041 24.157c-6.696 7.441 -15.625 11.161 -26.785 11.161c0 0 -75.335 0 -75.335 0c-9.301 0 -17.299 -3.069 -23.996 -9.208c-6.696 -6.138 -10.416 -13.858 -11.16 -23.158c-8.185 -85.194 -42.504 -158.017 -102.958 -218.471c-60.454 -60.454 -133.277 -94.773 -218.471 -102.958c-9.301 -0.744 -17.02 -4.464 -23.158 -11.161c-6.139 -6.696 -9.208 -14.694 -9.208 -23.995c0 0 0 0 0 0m0 -281.25c0 0 0 -79.799 0 -79.799c0 -10.417 3.534 -18.973 10.603 -25.67c7.068 -6.696 15.439 -10.044 25.111 -10.044c0 0 1.674 0 1.674 0c97.471 4.836 190.756 27.157 279.855 66.964c89.1 40.178 168.248 94.866 237.444 164.062c69.197 69.197 123.791 148.345 163.784 237.445c39.993 89.099 62.407 182.384 67.243 279.854c0.071 0.957 0.107 1.902 0.107 2.835c0 8.864 -3.198 16.661 -9.593 23.393c-7.069 7.441 -15.811 11.161 -26.228 11.161c0 0 -79.799 0 -79.799 0c-9.673 0 -17.95 -3.255 -24.833 -9.766c-6.882 -6.51 -10.509 -14.416 -10.881 -23.716c-4.465 -79.985 -23.252 -155.971 -56.362 -227.958c-33.11 -71.987 -76.172 -134.487 -129.185 -187.5c-53.014 -53.013 -115.514 -96.075 -187.5 -129.185c-71.987 -33.11 -147.973 -52.083 -227.958 -56.92c-9.3 -0.372 -17.206 -3.999 -23.716 -10.882c-6.511 -6.882 -9.766 -14.973 -9.766 -24.274c0 0 0 0 0 0" />
  </g>
</svg>