<svg height="1000" width="785.7" xmlns="http://www.w3.org/2000/svg"><path d="M0 750q0-44.6 31.2-75.9t75.9-31.2 75.9 31.2 31.2 75.9-31.2 75.9-75.9 31.2-75.9-31.2-31.2-75.9zm0-281.8v-75.3q0-16.2 11.7-26.2 9.5-9.5 24-9.5h2.8q89.3 7.3 170.7 44.9t144.5 101.3q63.6 63.1 101.3 144.5t44.9 170.7q1.1 15.6-9.5 26.8-10 11.7-26.2 11.7h-75.3q-14 0-24-9.2t-11.2-23.2q-12.3-127.8-103-218.5t-218.5-103q-14-1.1-23.2-11.2t-9.2-24zm0-281.2v-79.8q0-15.6 11.2-25.7 10-10 24.6-10h1.7q146.2 7.3 279.8 67t237.4 164.1q104.3 103.8 164.1 237.4t67 279.8q1.1 15.1-10 26.2-10 11.2-25.7 11.2h-79.8q-14.5 0-24.8-9.8t-10.9-23.7q-6.7-120-56.4-227.9t-129.2-187.5-187.5-129.2-227.9-56.9q-14-.6-23.7-10.9t-9.8-24.3z"/></svg>