<svg height="1000" width="786" xmlns="http://www.w3.org/2000/svg"><path d="M0 750.016q0-44.64 31.248-75.888t75.888-31.248 75.888 31.248 31.248 75.888-31.248 75.888-75.888 31.248-75.888-31.248-31.248-75.888zm0-281.79l0-75.33q0-16.182 11.718-26.226 9.486-9.486 23.994-9.486l2.79 0q89.28 7.254 170.748 44.919t144.522 101.277q63.612 63.054 101.277 144.522t44.919 170.748q1.116 15.624-9.486 26.784-10.044 11.718-26.226 11.718l-75.33 0q-13.95 0-23.994-9.207t-11.16-23.157q-12.276-127.782-102.951-218.457t-218.457-102.951q-13.95-1.116-23.157-11.16t-9.207-23.994zm0-281.232l0-79.794q0-15.624 11.16-25.668 10.044-10.044 24.552-10.044l1.674 0q146.196 7.254 279.837 66.96t237.429 164.052q104.346 103.788 164.052 237.429t66.96 279.837q1.116 15.066-10.044 26.226-10.044 11.16-25.668 11.16l-79.794 0q-14.508 0-24.831-9.765t-10.881-23.715q-6.696-119.97-56.358-227.943t-129.177-187.488-187.488-129.177-227.943-56.916q-13.95-.558-23.715-10.881t-9.765-24.273z"/></svg>