<svg height="1000px" width="785.7142857142858px" xmlns="http://www.w3.org/2000/svg">
  <g>
    <path d="M785.7142857142858 819.7544642857142c0.744 10.045 -2.418 18.787 -9.487 26.228c-7.068 7.44 -15.811 11.16 -26.227 11.16c0 0 -79.799 0 -79.799 0c-9.673 0 -17.951 -3.255 -24.833 -9.765c-6.882 -6.511 -10.51 -14.416 -10.882 -23.717c-4.464 -79.985 -23.251 -155.971 -56.361 -227.957c-33.11 -71.987 -76.172 -134.487 -129.186 -187.5c-53.013 -53.014 -115.513 -96.075 -187.5 -129.186c-71.986 -33.11 -147.972 -52.083 -227.957 -56.919c-9.301 -0.372 -17.206 -4 -23.717 -10.882c-6.51 -6.882 -9.765 -14.974 -9.765 -24.274c0 0 0 -79.8 0 -79.8c0 -10.416 3.534 -18.973 10.602 -25.669c7.069 -6.697 15.439 -10.045 25.112 -10.045c0 0 1.674 0 1.674 0c97.47 4.836 190.755 27.158 279.855 66.964c89.1 40.179 168.248 94.866 237.444 164.063c69.197 69.196 123.791 148.344 163.784 237.444c39.992 89.1 62.407 182.385 67.243 279.855c0 0 0 0 0 0m-285.714 -1.116c0.744 10.789 -2.232 19.903 -8.929 27.344c-6.696 7.44 -15.625 11.16 -26.786 11.16c0 0 -75.334 0 -75.334 0c-9.301 0 -17.3 -3.069 -23.996 -9.207c-6.696 -6.139 -10.417 -13.858 -11.161 -23.159c-8.184 -85.193 -42.503 -158.017 -102.957 -218.471c-60.454 -60.454 -133.278 -94.773 -218.471 -102.957c-9.301 -0.744 -17.02 -4.465 -23.159 -11.161c-6.138 -6.696 -9.207 -14.695 -9.207 -23.995c0 0 0 -75.335 0 -75.335c0 -10.417 3.534 -18.974 10.602 -25.67c7.069 -6.696 15.439 -10.045 25.112 -10.045c0 0 2.79 0 2.79 0c59.524 4.837 116.444 19.811 170.759 44.922c53.944 25.112 102.121 58.873 144.531 101.284c42.411 42.41 76.172 90.681 101.284 144.81c25.111 54.129 40.085 110.956 44.922 170.48c0 0 0 0 0 0m-285.715 -68.638c0 29.761 -10.416 55.059 -31.25 75.892c-20.833 20.834 -46.131 31.25 -75.892 31.25c-29.762 0 -55.06 -10.416 -75.893 -31.25c-20.834 -20.833 -31.25 -46.131 -31.25 -75.892c0 -29.762 10.416 -55.06 31.25 -75.893c20.833 -20.834 46.131 -31.25 75.893 -31.25c29.761 0 55.059 10.416 75.892 31.25c20.834 20.833 31.25 46.131 31.25 75.893c0 0 0 0 0 0" />
  </g>
</svg>