<svg height="1000" width="785.7" xmlns="http://www.w3.org/2000/svg"><path d="M214.3 750q0 44.6 -31.3 75.9t-75.9 31.2T31.3 825.9 0 750t31.3 -75.9 75.8 -31.2 75.9 31.2 31.3 75.9zM500 818.6q1.1 15.7 -9.5 26.8 -10 11.7 -26.2 11.7H389q-14 0 -24 -9.2t-11.2 -23.1Q341.5 697 250.8 606.3T32.4 503.3q-14 -1.1 -23.2 -11.1T0 468.2v-75.3q0 -16.2 11.7 -26.3 9.5 -9.5 24 -9.5h2.8q89.3 7.3 170.8 45t144.5 101.2q63.6 63.1 101.3 144.6T500 818.6zm285.7 1.2q1.1 15 -10 26.2 -10.1 11.1 -25.7 11.1h-79.8q-14.5 0 -24.8 -9.7t-10.9 -23.7q-6.7 -120 -56.4 -228T448.9 408.2 261.4 279 33.5 222.1q-14 -.6 -23.7 -10.9T0 186.9v-79.8Q0 91.5 11.2 81.5q10 -10.1 24.5 -10.1h1.7q146.2 7.3 279.8 67t237.5 164.1Q659 406.3 718.8 539.9t66.9 279.9z"/></svg>