<svg height="1000px" width="764.6484375px" xmlns="http://www.w3.org/2000/svg">
  <g>
    <path d="M0 767.333984375c0 -15.951 3.011 -30.762 9.033 -44.434c6.022 -13.671 14.16 -25.797 24.414 -36.377c10.254 -10.579 22.461 -18.88 36.621 -24.902c14.161 -6.022 29.216 -9.033 45.166 -9.033c15.951 0 30.762 3.011 44.434 9.033c13.672 6.022 25.797 14.323 36.377 24.902c10.579 10.58 18.88 22.706 24.902 36.377c6.022 13.672 9.033 28.483 9.033 44.434c0 15.951 -3.011 31.006 -9.033 45.166c-6.022 14.16 -14.323 26.367 -24.902 36.621c-10.58 10.254 -22.705 18.392 -36.377 24.414c-13.672 6.022 -28.483 9.033 -44.434 9.033c-15.95 0 -31.005 -3.011 -45.166 -9.033c-14.16 -6.022 -26.367 -14.16 -36.621 -24.414c-10.254 -10.254 -18.392 -22.379 -24.414 -36.377c-6.022 -13.997 -9.033 -29.134 -9.033 -45.41c0 0 0 0 0 0m0 -284.668c0 0 0 -77.148 0 -77.148c0 -11.394 4.069 -20.671 12.207 -27.832c7.487 -7.487 16.113 -11.231 25.879 -11.231c0.651 0 1.139 0.163 1.465 0.488c0.325 0.326 0.814 0.489 1.465 0.489c62.825 4.557 121.826 20.019 177.002 46.386c55.175 26.368 104.166 60.954 146.972 103.76c42.806 42.806 77.311 91.878 103.516 147.217c26.204 55.338 41.748 114.258 46.631 176.758c1.302 11.393 -2.116 20.996 -10.254 28.808c-7.487 8.138 -16.765 12.207 -27.832 12.207c0 0 -77.149 0 -77.149 0c-9.44 0 -17.822 -3.336 -25.146 -10.009c-7.324 -6.674 -11.638 -15.056 -12.94 -25.147c-3.906 -43.294 -15.055 -83.903 -33.447 -121.826c-18.392 -37.923 -42.073 -71.37 -71.045 -100.342c-28.971 -28.971 -62.418 -52.653 -100.342 -71.045c-37.923 -18.392 -78.531 -29.541 -121.826 -33.447c-10.091 -1.302 -18.473 -5.697 -25.146 -13.184c-6.673 -7.487 -10.01 -15.787 -10.01 -24.902c0 0 0 0 0 0m0 -250c0 0 0 -77.148 0 -77.148c0 -10.743 4.069 -19.694 12.207 -26.856c7.487 -7.487 16.113 -11.23 25.879 -11.23c0 0 1.953 0 1.953 0c97.982 5.208 189.941 27.506 275.879 66.894c85.937 39.388 161.296 91.472 226.074 156.25c64.779 64.779 116.781 140.137 156.006 226.074c39.225 85.938 61.605 177.898 67.139 275.879c1.302 10.091 -2.442 19.369 -11.231 27.832c-7.487 8.138 -16.439 12.207 -26.855 12.207c0 0 -77.149 0 -77.149 0c-10.091 0 -18.798 -3.499 -26.123 -10.498c-7.324 -6.998 -11.312 -15.543 -11.963 -25.634c-4.557 -77.474 -22.461 -150.147 -53.711 -218.018c-31.25 -67.871 -72.753 -127.686 -124.511 -179.443c-51.758 -51.758 -111.654 -93.262 -179.688 -124.512c-68.034 -31.25 -140.625 -49.154 -217.773 -53.711c-10.091 -0.651 -18.636 -4.639 -25.635 -11.963c-6.999 -7.324 -10.498 -16.032 -10.498 -26.123c0 0 0 0 0 0" />
  </g>
</svg>