<svg height="1000" width="501.116" xmlns="http://www.w3.org/2000/svg"><path d="M501.084 262.324v56.916q0 7.812 -5.022 12.834t-12.834 5.022h-93.744q-12.834 80.352 -71.982 130.572t-154.008 61.38q93.186 99.324 256.122 299.088 7.812 8.928 2.232 18.972 -4.464 10.044 -16.182 10.044h-108.81q-8.928 0 -13.95 -6.696 -170.748 -204.786 -277.884 -318.618 -5.022 -5.022 -5.022 -12.276v-70.866q0 -7.254 5.301 -12.555t12.555 -5.301h62.496q73.656 0 118.575 -23.994t57.195 -69.75h-238.266q-7.812 0 -12.834 -5.022t-5.022 -12.834v-56.916q0 -7.812 5.022 -12.834t12.834 -5.022h230.454q-31.806 -63.054 -149.544 -63.054h-80.91q-7.254 0 -12.555 -5.301t-5.301 -12.555v-74.214q0 -7.812 5.022 -12.834t12.834 -5.022h464.256q7.812 0 12.834 5.022t5.022 12.834v56.916q0 7.812 -5.022 12.834t-12.834 5.022h-130.014q26.226 34.038 35.712 80.352h95.418q7.812 0 12.834 5.022t5.022 12.834z"/></svg>