<svg height="1000" width="1000" xmlns="http://www.w3.org/2000/svg"><path d="M529.6 498.3q0 14.5 -9.2 25.1T497.2 534q-14.5 0 -25.1 -9.2t-10.6 -23.1q0 -14.5 9.5 -25.1T494.4 466t24.6 9.2 10.6 23.1zm8.3 32.4L733.3 206.5q-5.1 4.4 -37.7 34.9t-70 65 -76.2 70.8 -65.3 61.7 -28.2 28.7L261.2 791.3q3.9 -3.9 37.3 -34.6t70.4 -65 75.9 -70.9T510 558.9t27.9 -28.2zM899 500q0 112.2 -58 207 -1.7 -1.1 -9.5 -6.1t-14.8 -9.2 -9.2 -4.2q-7.3 0 -7.3 7.3 0 5.5 32.9 24.5 -41.2 62.5 -102.9 106.3t-134.8 61.7l-8.9 -37.4q-.6 -5.6 -8.4 -5.6 -2.8 0 -4.4 3.1t-1.2 5.3l9 37.9Q541.3 899 500 899q-111 0 -207.6 -58.6 .6 -1.1 7.3 -11.4t12 -18.7 5.3 -10.6q0 -7.3 -7.3 -7.3 -3.3 0 -9.5 8.1t-12.5 19.3 -7.6 12.8Q217.1 790.7 173 728T111.6 591.5l38.5 -8.4q5.6 -1.6 5.6 -8.3 0 -2.8 -3.1 -4.5t-5.8 -1.1l-38 8.4Q101 537.4 101 500q0 -115 60.8 -211.5 1.1 .6 10.4 6.7t16.7 10.6 9.8 4.5q7.2 0 7.2 -6.7 0 -3.4 -7 -8.7t-18.1 -12l-11.2 -6.7q43 -62.5 105.5 -105.4T411.3 111l8.3 37.4q1.2 5.6 8.4 5.6 2.8 0 4.5 -3.1t1.1 -5.8l-8.4 -36.8Q464.8 101 500 101q113.8 0 211.5 60.8 -21.8 31.3 -21.8 36.3 0 7.3 6.7 7.3 6.2 0 26.8 -35.8 62 41.9 104.6 103.8t60 134.5l-31.2 6.7q-5.6 1.1 -5.6 8.9 0 2.8 3.1 4.5t5.3 1.1l31.8 -7.2q7.8 40.2 7.8 78.1zm47.4 0q0 -91 -35.4 -173.5T815.8 184.2 673.5 89 500 53.6 326.5 89t-142.3 95.2T89 326.5 53.6 500 89 673.5t95.2 142.3T326.5 911 500 946.4 673.5 911t142.3 -95.2T911 673.5 946.4 500zm53.6 0q0 101.6 -39.6 194.2T853.8 853.8 694.2 960.4 500 1000 305.8 960.4 146.2 853.8 39.6 694.2 0 500 39.6 305.8 146.2 146.2 305.8 39.6 500 0t194.2 39.6 159.6 106.6 106.6 159.6T1000 500z"/></svg>