<svg height="1000px" width="1000px" xmlns="http://www.w3.org/2000/svg">
  <g>
    <path d="M-0.12400781250000001 784.4949776785713c0 -4.891 0.227 -9.879 0.682 -14.964c2.604 -28.273 13.021 -55.617 31.25 -82.031c18.229 -26.414 42.597 -49.479 73.103 -69.196c49.107 -31.25 100.818 -46.875 155.134 -46.875c30.878 0 58.965 5.766 84.263 17.299c3.348 -4.836 7.441 -8.929 12.277 -12.277c0 0 68.08 -40.737 68.08 -40.737c0 0 -68.08 -40.736 -68.08 -40.736c-4.836 -3.348 -8.929 -7.441 -12.277 -12.277c-25.298 11.533 -53.385 17.299 -84.263 17.299c-54.316 0 -106.027 -15.625 -155.134 -46.875c-30.506 -19.717 -54.874 -42.783 -73.103 -69.196c-18.229 -26.042 -28.46 -51.712 -30.692 -77.009c-0.538 -5.968 -0.808 -11.793 -0.808 -17.476c0 -41.441 14.314 -75.329 42.94 -101.665c32.552 -29.948 75.056 -44.922 127.511 -44.922c52.455 0 103.237 15.625 152.344 46.875c30.878 19.346 55.431 42.225 73.66 68.639c21.199 30.764 31.799 62.157 31.799 94.179c0 14.059 -2.043 28.239 -6.129 42.539c1.488 0.372 3.72 1.303 6.696 2.791c0 0 61.384 36.83 61.384 36.83c0 0 385.045 -215.96 385.045 -215.96c5.208 -2.976 10.882 -4.464 17.02 -4.464c6.139 0 11.626 1.302 16.462 3.906c0 0 71.429 35.714 71.429 35.714c11.16 5.953 17.485 15.532 18.973 28.739c0.186 1.651 0.279 3.257 0.279 4.818c0 10.925 -4.557 19.643 -13.672 26.153c0 0 -282.924 222.098 -282.924 222.098c0 0 282.924 222.099 282.924 222.099c9.115 6.51 13.672 15.228 13.672 26.153c0 1.561 -0.093 3.167 -0.279 4.818c-1.488 13.206 -7.813 22.786 -18.973 28.738c0 0 -71.429 35.715 -71.429 35.715c-4.836 2.604 -10.323 3.906 -16.462 3.906c-6.138 0 -11.812 -1.488 -17.02 -4.464c0 0 -385.045 -215.96 -385.045 -215.96c0 0 -61.384 36.83 -61.384 36.83c-2.976 1.488 -5.208 2.418 -6.696 2.79c4.086 14.301 6.129 28.464 6.129 42.487c0 31.944 -10.6 63.168 -31.799 93.674c-18.229 26.042 -42.782 49.107 -73.66 69.196c-49.107 31.25 -99.796 46.875 -152.065 46.875c-52.269 0 -94.773 -15.067 -127.511 -45.2c-29.101 -26.786 -43.651 -59.745 -43.651 -98.876c0 0 0 0 0 0m88.707 -0.352c0 13.118 4.978 24.244 14.933 33.379c15.811 14.509 39.899 21.764 72.265 21.764c32.366 0 64.64 -10.231 96.82 -30.692c32.18 -20.462 52.92 -42.969 62.221 -67.523c3.444 -9.094 5.167 -17.499 5.167 -25.215c0 -13.117 -4.978 -24.243 -14.933 -33.378c-15.811 -14.509 -39.9 -21.764 -72.266 -21.764c-32.366 0 -64.639 10.231 -96.819 30.692c-32.18 20.461 -52.92 42.969 -62.221 67.522c-3.445 9.094 -5.167 17.499 -5.167 25.215c0 0 0 0 0 0m0 -496.861c0 7.716 1.722 16.121 5.167 25.215c9.301 24.554 30.041 47.061 62.221 67.523c32.18 20.461 64.453 30.692 96.819 30.692c32.366 0 56.455 -7.255 72.266 -21.764c9.955 -9.135 14.933 -20.261 14.933 -33.379c0 -7.716 -1.723 -16.121 -5.167 -25.215c-9.301 -24.553 -30.041 -47.061 -62.221 -67.522c-32.18 -20.461 -64.454 -30.692 -96.82 -30.692c-32.366 0 -56.454 7.255 -72.265 21.764c-9.955 9.135 -14.933 20.261 -14.933 33.378c0 0 0 0 0 0m286.417 319.861c5.208 4.464 8.185 7.068 8.929 7.812c1.488 1.488 3.534 3.721 6.138 6.697c2.604 2.976 4.65 5.208 6.138 6.696c0 0 14.509 14.509 14.509 14.509c0 0 89.286 -53.571 89.286 -53.571c0 0 53.571 17.857 53.571 17.857c0 0 410.715 -321.429 410.715 -321.429c0 0 -71.429 -35.714 -71.429 -35.714c0 0 -428.571 240.513 -428.571 240.513c0 0 0 63.058 0 63.058c0 0 -89.286 53.572 -89.286 53.572m0 -142.857c0 0 53.571 32.366 53.571 32.366c0 0 0 -6.139 0 -6.139c0 -13.392 6.139 -23.809 18.416 -31.25c0 0 7.812 -4.464 7.812 -4.464c0 0 -44.085 -26.228 -44.085 -26.228c0 0 -14.509 14.509 -14.509 14.509c-1.116 1.116 -2.976 3.163 -5.58 6.139c-2.604 2.976 -4.557 5.022 -5.859 6.138c-1.302 1.116 -2.326 1.953 -3.07 2.511c-0.744 0.558 -2.976 2.697 -6.696 6.418c0 0 0 0 0 0m125 71.428c0 -9.672 3.534 -18.043 10.603 -25.111c7.068 -7.069 15.439 -10.603 25.111 -10.603c9.673 0 18.043 3.534 25.112 10.603c7.068 7.068 10.603 15.439 10.603 25.111c0 9.673 -3.535 18.043 -10.603 25.112c-7.069 7.068 -15.439 10.603 -25.112 10.603c-9.672 0 -18.043 -3.535 -25.111 -10.603c-7.069 -7.069 -10.603 -15.439 -10.603 -25.112c0 0 0 0 0 0m68.08 103.237c0 0 324.777 182.478 324.777 182.478c0 0 71.429 -35.715 71.429 -35.715c0 0 -290.179 -227.678 -290.179 -227.678c0 0 -98.772 77.009 -98.772 77.009c-0.744 1.116 -3.162 2.418 -7.255 3.906c0 0 0 0 0 0" />
  </g>
</svg>