<svg height="1000px" width="1000px" xmlns="http://www.w3.org/2000/svg">
  <g>
    <path d="M892.8571428571429 821.4285714285714c0 0 71.429 -35.714 71.429 -35.714c0 0 -290.179 -227.679 -290.179 -227.679c0 0 -98.772 77.009 -98.772 77.009c-0.744 1.116 -3.163 2.418 -7.255 3.906c0 0 324.777 182.478 324.777 182.478m-392.857 -232.143c0 0 53.571 17.857 53.571 17.857c0 0 410.715 -321.428 410.715 -321.428c0 0 -71.429 -35.715 -71.429 -35.715c0 0 -428.571 240.514 -428.571 240.514c0 0 0 63.058 0 63.058c0 0 -89.286 53.571 -89.286 53.571c5.208 4.465 8.184 7.069 8.928 7.813c1.489 1.488 3.535 3.72 6.139 6.696c2.604 2.976 4.65 5.209 6.138 6.697c0 0 14.509 14.509 14.509 14.509c0 0 89.286 -53.572 89.286 -53.572m-125 -125c0 0 53.571 32.366 53.571 32.366c0 0 0 -6.138 0 -6.138c0 -13.393 6.139 -23.81 18.415 -31.25c0 0 7.813 -4.464 7.813 -4.464c0 0 -44.085 -26.228 -44.085 -26.228c0 0 -14.509 14.509 -14.509 14.509c-1.116 1.116 -2.976 3.162 -5.58 6.138c-2.604 2.976 -4.557 5.023 -5.86 6.139c-1.302 1.116 -2.325 1.953 -3.069 2.511c-0.744 0.558 -2.976 2.697 -6.696 6.417c0 0 0 0 0 0m-281.25 294.643c-9.301 24.554 -6.046 44.085 9.765 58.594c15.811 14.509 39.9 21.763 72.266 21.763c32.366 0 64.639 -10.231 96.819 -30.692c32.18 -20.461 52.921 -42.969 62.221 -67.522c9.301 -24.554 6.046 -44.085 -9.765 -58.594c-15.811 -14.509 -39.9 -21.763 -72.266 -21.763c-32.366 0 -64.639 10.23 -96.819 30.692c-32.18 20.461 -52.921 42.968 -62.221 67.522c0 0 0 0 0 0m0 -446.429c9.3 24.554 30.041 47.061 62.221 67.523c32.18 20.461 64.453 30.692 96.819 30.692c32.366 0 56.455 -7.255 72.266 -21.764c15.811 -14.509 19.066 -34.04 9.765 -58.593c-9.3 -24.554 -30.041 -47.061 -62.221 -67.523c-32.18 -20.461 -64.453 -30.692 -96.819 -30.692c-32.366 0 -56.455 7.255 -72.266 21.764c-15.811 14.509 -19.066 34.04 -9.765 58.593c0 0 0 0 0 0m609.375 223.215c0 0 282.924 222.098 282.924 222.098c10.417 7.44 14.881 17.764 13.393 30.971c-1.488 13.207 -7.813 22.786 -18.973 28.739c0 0 -71.429 35.714 -71.429 35.714c-4.836 2.604 -10.324 3.906 -16.462 3.906c-6.138 0 -11.812 -1.488 -17.02 -4.464c0 0 -385.045 -215.96 -385.045 -215.96c0 0 -61.384 36.831 -61.384 36.831c-2.976 1.488 -5.208 2.418 -6.696 2.79c13.393 46.875 4.836 92.262 -25.67 136.16c-18.229 26.042 -42.782 49.108 -73.66 69.197c-49.108 31.25 -99.796 46.875 -152.065 46.875c-52.27 0 -94.773 -15.067 -127.511 -45.201c-32.738 -30.134 -47.061 -68.08 -42.969 -113.839c2.604 -28.274 13.021 -55.618 31.25 -82.032c18.229 -26.413 42.597 -49.479 73.103 -69.196c49.107 -31.25 100.818 -46.875 155.134 -46.875c30.877 0 58.965 5.766 84.263 17.299c3.348 -4.836 7.44 -8.928 12.277 -12.277c0 0 68.08 -40.736 68.08 -40.736c0 0 -68.08 -40.737 -68.08 -40.737c-4.837 -3.348 -8.929 -7.44 -12.277 -12.277c-25.298 11.533 -53.386 17.299 -84.263 17.299c-54.316 0 -106.027 -15.625 -155.134 -46.875c-30.506 -19.717 -54.874 -42.782 -73.103 -69.196c-18.229 -26.042 -28.46 -51.711 -30.692 -77.009c-4.464 -49.479 9.58 -89.193 42.132 -119.141c32.552 -29.947 75.055 -44.921 127.511 -44.921c52.455 0 103.236 15.625 152.344 46.875c30.878 19.345 55.431 42.224 73.66 68.638c30.506 44.271 39.063 89.844 25.67 136.719c1.488 0.372 3.72 1.302 6.696 2.79c0 0 61.384 36.83 61.384 36.83c0 0 385.045 -215.96 385.045 -215.96c5.208 -2.976 10.882 -4.464 17.02 -4.464c6.138 0 11.626 1.302 16.462 3.906c0 0 71.429 35.715 71.429 35.715c11.16 5.952 17.485 15.532 18.973 28.739c1.488 13.206 -2.976 23.53 -13.393 30.971c0 0 -282.924 222.098 -282.924 222.098m-167.411 -35.715c9.673 0 18.043 3.535 25.112 10.603c7.068 7.069 10.602 15.439 10.602 25.112c0 9.672 -3.534 18.043 -10.602 25.111c-7.069 7.069 -15.439 10.603 -25.112 10.603c-9.672 0 -18.043 -3.534 -25.111 -10.603c-7.069 -7.068 -10.603 -15.439 -10.603 -25.111c0 -9.673 3.534 -18.043 10.603 -25.112c7.068 -7.068 15.439 -10.603 25.111 -10.603c0 0 0 0 0 0" />
  </g>
</svg>