<svg height="1000" width="1000" xmlns="http://www.w3.org/2000/svg"><path d="M535.68 500.032q14.508 0 25.11 10.602t10.602 25.11 -10.602 25.11 -25.11 10.602 -25.11 -10.602 -10.602 -25.11 10.602 -25.11 25.11 -10.602zm167.4 35.712l282.906 222.084q15.624 11.16 13.95 31.248 -2.79 19.53 -19.53 28.458l-71.424 35.712q-7.254 3.906 -16.182 3.906 -9.486 0 -17.298 -4.464l-385.02 -215.946 -61.38 36.828q-4.464 2.232 -6.696 2.79 7.812 27.342 5.58 54.126 -3.906 42.966 -31.248 82.305t-73.656 68.913q-73.656 46.872 -154.566 46.872 -75.888 0 -123.876 -43.524 -50.22 -46.872 -44.082 -115.506 3.906 -42.408 31.248 -82.026t73.098 -69.192q73.656 -46.872 155.124 -46.872 46.314 0 84.258 17.298 5.022 -7.254 12.276 -12.276l68.076 -40.734 -68.076 -40.734q-7.254 -5.022 -12.276 -12.276 -37.944 17.298 -84.258 17.298 -81.468 0 -155.124 -46.872 -45.756 -29.574 -73.098 -69.192t-31.248 -82.026q-2.79 -32.922 8.649 -63.054t35.433 -51.894q47.43 -44.082 123.876 -44.082 80.91 0 154.566 46.872 46.314 29.016 73.656 68.634t31.248 82.584q2.232 26.784 -5.58 54.126 2.232 .558 6.696 2.79l61.38 36.828 385.02 -215.946q7.812 -4.464 17.298 -4.464 8.928 0 16.182 3.906l71.424 35.712q16.74 8.928 19.53 28.458 1.674 20.088 -13.95 31.248zm-379.998 -145.08q25.668 -23.436 11.718 -60.264t-59.148 -65.286q-51.336 -32.922 -107.136 -32.922 -41.292 0 -63.054 20.088 -25.668 23.436 -11.718 60.264t59.148 65.286q51.336 32.922 107.136 32.922 41.292 0 63.054 -20.088zm-47.43 415.71q45.198 -28.458 59.148 -65.286t-11.718 -60.264q-21.762 -20.088 -63.054 -20.088 -55.8 0 -107.136 32.922 -45.198 28.458 -59.148 65.286t11.718 60.264q21.762 20.088 63.054 20.088 55.8 0 107.136 -32.922zm99.324 -342.054l53.568 32.364v-6.138q0 -20.088 18.414 -31.248l7.812 -4.464 -44.082 -26.226 -14.508 14.508q-1.674 1.674 -5.58 6.138t-6.696 6.696q-1.116 1.116 -2.232 1.953t-1.674 1.395zm124.992 124.992l53.568 17.856 410.688 -321.408 -71.424 -35.712 -428.544 240.498v63.054l-89.28 53.568 5.022 4.464q1.116 1.116 3.906 3.348 2.232 2.232 6.138 6.696t6.138 6.696l14.508 14.508zm392.832 232.128l71.424 -35.712 -290.16 -227.664 -98.766 77.004q-1.116 1.674 -7.254 3.906z"/></svg>