<svg height="1000" width="1000" xmlns="http://www.w3.org/2000/svg"><path d="M.6 769.5q3.9-42.4 31.2-82t73.1-69.2q73.7-46.9 155.1-46.9 46.3 0 84.3 17.3 5-7.3 12.3-12.3l68.1-40.7-68.1-40.7q-7.3-5-12.3-12.3-37.9 17.3-84.3 17.3-81.5 0-155.1-46.9-45.8-29.6-73.1-69.2t-31.2-82q-2.8-32.9 8.6-63.1t35.4-51.9q47.4-44.1 123.9-44.1 80.9 0 154.6 46.9 46.3 29 73.7 68.6t31.2 82.6q2.2 26.8-5.6 54.1 2.2.6 6.7 2.8l61.4 36.8 385-215.9q7.8-4.5 17.3-4.5 8.9 0 16.2 3.9l71.4 35.7q16.7 8.9 19.5 28.5 1.7 20.1-14 31.2l-282.9 222.1 282.9 222.1q15.6 11.2 14 31.2-2.8 19.5-19.5 28.5l-71.4 35.7q-7.3 3.9-16.2 3.9-9.5 0-17.3-4.5l-385-215.9-61.4 36.8q-4.5 2.2-6.7 2.8 7.8 27.3 5.6 54.1-3.9 43-31.2 82.3t-73.7 68.9q-73.7 46.9-154.6 46.9-75.9 0-123.9-43.5-50.2-46.9-44.1-115.5zm93.2-10.6q-14 36.8 11.7 60.3 21.8 20.1 63.1 20.1 55.8 0 107.1-32.9 45.2-28.5 59.1-65.3t-11.7-60.3q-21.8-20.1-63.1-20.1-55.8 0-107.1 32.9-45.2 28.5-59.1 65.3zm0-446.4q14 36.8 59.1 65.3 51.3 32.9 107.1 32.9 41.3 0 63.1-20.1 25.7-23.4 11.7-60.3t-59.1-65.3q-51.3-32.9-107.1-32.9-41.3 0-63.1 20.1-25.7 23.4-11.7 60.3zm281.2 294.6l5 4.5q1.1 1.1 3.9 3.3 2.2 2.2 6.1 6.7t6.1 6.7l14.5 14.5 89.3-53.6 53.6 17.9 410.7-321.4-71.4-35.7-428.5 240.5v63.1zm0-142.8l53.6 32.4v-6.1q0-20.1 18.4-31.2l7.8-4.5-44.1-26.2-14.5 14.5q-1.7 1.7-5.6 6.1t-6.7 6.7q-1.1 1.1-2.2 2t-1.7 1.4zm125 71.4q0-14.5 10.6-25.1t25.1-10.6 25.1 10.6 10.6 25.1-10.6 25.1-25.1 10.6-25.1-10.6-10.6-25.1zm68.1 103.2l324.8 182.5 71.4-35.7-290.2-227.7-98.8 77q-1.1 1.7-7.3 3.9z"/></svg>