<svg height="1000" width="1000" xmlns="http://www.w3.org/2000/svg"><path d="M535.7 500q14.5 0 25.1 10.6t10.6 25.1 -10.6 25.1 -25.1 10.6 -25.1 -10.6T500 535.7t10.6 -25.1T535.7 500zm167.4 35.7L986 757.8q15.7 11.2 14 31.3 -2.8 19.5 -19.5 28.4L909 853.2q-7.2 3.9 -16.1 3.9 -9.5 0 -17.3 -4.4l-385.1 -216 -61.4 36.8q-4.4 2.3 -6.7 2.8 7.8 27.4 5.6 54.2 -3.9 42.9 -31.2 82.3t-73.7 68.9q-73.7 46.9 -154.6 46.9Q92.6 928.6 44.6 885 -5.6 838.2 .6 769.5q3.9 -42.4 31.2 -82t73.1 -69.2Q178.6 571.4 260 571.4q46.4 0 84.3 17.3 5 -7.2 12.3 -12.2l68.1 -40.8L356.6 495q-7.3 -5 -12.3 -12.3Q306.4 500 260 500q-81.4 0 -155.1 -46.9Q59.2 423.5 31.8 383.9T.6 301.9Q-2.2 269 9.2 238.8t35.4 -51.9q47.5 -44 123.9 -44 80.9 0 154.6 46.8 46.3 29.1 73.7 68.7T428 341q2.2 26.7 -5.6 54.1 2.3 .5 6.7 2.8l61.4 36.8L875.6 218.8q7.8 -4.5 17.3 -4.5 8.9 0 16.1 3.9l71.5 35.7q16.7 8.9 19.5 28.5 1.7 20.1 -14 31.2zm-380 -145.1q25.7 -23.4 11.7 -60.2t-59.1 -65.3q-51.4 -33 -107.2 -33 -41.3 0 -63 20.1 -25.7 23.5 -11.8 60.3t59.2 65.3q51.3 32.9 107.1 32.9 41.3 0 63.1 -20.1zm-47.4 415.8q45.2 -28.5 59.1 -65.3t-11.7 -60.3Q301.3 660.7 260 660.7q-55.8 0 -107.1 32.9 -45.2 28.5 -59.1 65.3t11.7 60.3q21.7 20.1 63 20.1 55.8 0 107.2 -32.9zM375 464.3l53.6 32.4v-6.2q0 -20.1 18.4 -31.2l7.8 -4.5 -44.1 -26.2 -14.5 14.5q-1.7 1.7 -5.6 6.1t-6.7 6.7q-1.1 1.1 -2.2 2t-1.7 1.4zm125 125l53.6 17.8L964.3 285.7 892.9 250 464.3 490.5v63.1L375 607.1l5 4.5q1.1 1.1 3.9 3.4 2.3 2.2 6.2 6.7t6.1 6.6l14.5 14.6zm392.9 232.1l71.4 -35.7L674.1 558l-98.8 77q-1.1 1.7 -7.2 4z"/></svg>