<svg height="1000px" width="1000px" xmlns="http://www.w3.org/2000/svg">
  <g>
    <path d="M0.5580357142857143 769.53125c2.604 -28.274 13.021 -55.618 31.25 -82.031c18.229 -26.414 42.597 -49.479 73.103 -69.197c49.107 -31.25 100.818 -46.875 155.134 -46.875c30.878 0 58.965 5.767 84.263 17.299c3.348 -4.836 7.44 -8.928 12.277 -12.276c0 0 68.08 -40.737 68.08 -40.737c0 0 -68.08 -40.737 -68.08 -40.737c-4.837 -3.348 -8.929 -7.44 -12.277 -12.276c-25.298 11.532 -53.385 17.299 -84.263 17.299c-54.316 0 -106.027 -15.625 -155.134 -46.875c-30.506 -19.718 -54.874 -42.783 -73.103 -69.197c-18.229 -26.413 -28.646 -53.757 -31.25 -82.031c-1.86 -21.949 1.023 -42.969 8.65 -63.058c7.626 -20.089 19.438 -37.388 35.435 -51.897c31.622 -29.39 72.916 -44.085 123.884 -44.085c53.943 0 105.469 15.625 154.576 46.875c30.878 19.345 55.431 42.225 73.66 68.638c18.23 26.414 28.646 53.944 31.25 82.59c1.488 17.857 -0.372 35.9 -5.58 54.129c1.488 0.372 3.72 1.302 6.696 2.79c0 0 61.384 36.831 61.384 36.831c0 0 385.045 -215.96 385.045 -215.96c5.208 -2.976 10.975 -4.465 17.299 -4.465c5.952 0 11.347 1.303 16.183 3.907c0 0 71.429 35.714 71.429 35.714c11.16 5.952 17.671 15.439 19.531 28.46c1.116 13.393 -3.534 23.809 -13.951 31.25c0 0 -282.924 222.098 -282.924 222.098c0 0 282.924 222.098 282.924 222.098c10.417 7.441 15.067 17.857 13.951 31.25c-1.86 13.021 -8.371 22.508 -19.531 28.46c0 0 -71.429 35.714 -71.429 35.714c-4.836 2.605 -10.231 3.907 -16.183 3.907c-6.324 0 -12.091 -1.488 -17.299 -4.465c0 0 -385.045 -215.96 -385.045 -215.96c0 0 -61.384 36.831 -61.384 36.831c-2.976 1.488 -5.208 2.418 -6.696 2.79c5.208 18.229 7.068 36.272 5.58 54.129c-2.604 28.646 -13.02 56.083 -31.25 82.311c-18.229 26.227 -42.782 49.2 -73.66 68.917c-49.107 31.25 -100.633 46.875 -154.576 46.875c-50.595 0 -91.89 -14.509 -123.884 -43.527c-33.482 -31.25 -48.177 -69.754 -44.085 -115.513c0 0 0 0 0 0m93.192 -10.603c-9.301 24.554 -5.394 44.643 11.719 60.268c14.509 13.393 35.528 20.089 63.058 20.089c37.202 0 72.916 -10.974 107.143 -32.924c30.134 -18.973 49.851 -40.736 59.151 -65.29c9.301 -24.553 5.395 -44.643 -11.718 -60.268c-14.509 -13.393 -35.529 -20.089 -63.058 -20.089c-37.203 0 -72.917 10.975 -107.143 32.924c-30.134 18.973 -49.851 40.737 -59.152 65.29c0 0 0 0 0 0m0 -446.428c9.301 24.553 29.018 46.317 59.152 65.29c34.226 21.949 69.94 32.924 107.143 32.924c27.529 0 48.549 -6.696 63.058 -20.089c17.113 -15.625 21.019 -35.715 11.718 -60.268c-9.3 -24.554 -29.017 -46.317 -59.151 -65.29c-34.227 -21.95 -69.941 -32.924 -107.143 -32.924c-27.53 0 -48.549 6.696 -63.058 20.089c-17.113 15.625 -21.02 35.714 -11.719 60.268c0 0 0 0 0 0m281.25 294.643c0 0 5.022 4.464 5.022 4.464c0.744 0.744 2.046 1.86 3.907 3.348c1.488 1.488 3.534 3.72 6.138 6.697c2.604 2.976 4.65 5.208 6.138 6.696c0 0 14.509 14.509 14.509 14.509c0 0 89.286 -53.572 89.286 -53.572c0 0 53.571 17.858 53.571 17.858c0 0 410.715 -321.429 410.715 -321.429c0 0 -71.429 -35.714 -71.429 -35.714c0 0 -428.571 240.513 -428.571 240.513c0 0 0 63.058 0 63.058c0 0 -89.286 53.572 -89.286 53.572m0 -142.858c0 0 53.571 32.367 53.571 32.367c0 0 0 -6.139 0 -6.139c0 -13.393 6.139 -23.809 18.416 -31.25c0 0 7.812 -4.464 7.812 -4.464c0 0 -44.085 -26.228 -44.085 -26.228c0 0 -14.509 14.509 -14.509 14.509c-1.116 1.116 -2.976 3.162 -5.58 6.138c-2.604 2.977 -4.836 5.209 -6.696 6.697c-0.745 0.744 -1.489 1.395 -2.233 1.953c-0.744 0.558 -1.302 1.023 -1.674 1.395c0 0 -5.022 5.022 -5.022 5.022m125 71.429c0 -9.673 3.534 -18.043 10.603 -25.112c7.068 -7.068 15.439 -10.602 25.111 -10.602c9.673 0 18.043 3.534 25.112 10.602c7.068 7.069 10.603 15.439 10.603 25.112c0 9.673 -3.535 18.043 -10.603 25.112c-7.069 7.068 -15.439 10.602 -25.112 10.602c-9.672 0 -18.043 -3.534 -25.111 -10.602c-7.069 -7.069 -10.603 -15.439 -10.603 -25.112c0 0 0 0 0 0m68.08 103.237c0 0 324.777 182.477 324.777 182.477c0 0 71.429 -35.714 71.429 -35.714c0 0 -290.179 -227.679 -290.179 -227.679c0 0 -98.772 77.009 -98.772 77.009c-0.744 1.116 -3.162 2.419 -7.255 3.907c0 0 0 0 0 0" />
  </g>
</svg>