<svg height="1000" width="857.1" xmlns="http://www.w3.org/2000/svg"><path d="M837.1 864.4q0 49.7 -35.2 85.1t-85.4 35.4 -85.6 -35.4 -35.5 -85.1q0 -50.2 35.5 -85.7t85.6 -35.4 85.4 35.4 35.2 85.7zM707 707.6q-64.1 8.4 -107.4 57.2t-43.2 114.7q0 41.3 18.4 77Q493.3 1000 363.3 1000q-60.8 0 -112.2 -11.7t-85.6 -30.4 -61.7 -42.7T61.4 867.7 36.6 821.4 23.4 784.3t-3.3 -22q0 -10.6 2.5 -23.7t10.3 -31.3 20.4 -32.4T89 650.7t52.7 -10.1 52.5 9.8 35.2 22.9 19.8 29.5 9.7 27.4 2.3 18.7q0 19 -12.9 45.2 15.7 15.1 45.8 23.4T346 827l22.3 .6q64.2 0 106 -28.5t41.9 -74.2q0 -14.5 -5 -27.1T493.6 673 466 650.1t-41.3 -24.5 -52.2 -26.5 -66.7 -31.6q-15.6 -7.2 -24 -11.1Q217.1 525.7 177.5 500.6t-68.4 -57 -40.2 -70T57.5 282.9q0 -43.5 11.4 -83.7t36.8 -76.7 62.8 -63.6 92.9 -43T385 0q67 0 122.8 14.5t91.8 37.4 61.1 52.5 35.7 58.8T707 221q0 25.7 -8.3 46t-20.4 32.4 -27.1 20.1 -27.3 10.9 -21.8 2.7H579.8T558 330.4t-24.5 -7.9 -22.9 -15.6T490 281.2t-13.4 -39.3T471 187.5q-8.4 -8.9 -32.9 -14.2t-45.2 -5.9l-20.7 -.5q-37.9 0 -65.6 17.3t-39.3 39 -11.7 42.4q0 13.4 2.8 24t13.4 25.7 29.5 28.4 54.2 29.9 83.7 32.6q42.4 14 77.3 29.9t60.8 31 46.3 32.9 33.8 33.2 22.8 34.9 14.8 34.6 8.1 35.4 3.4 34.6 .5 34.9z"/></svg>