<svg height="1000px" width="928.5714285714286px" xmlns="http://www.w3.org/2000/svg">
  <g>
    <path d="M907.9241071428572 878.3482142857142c13.765 13.765 20.647 30.413 20.647 49.944c0 19.531 -7.068 36.366 -21.205 50.502c-14.137 14.137 -31.064 21.206 -50.781 21.206c-19.718 0 -36.273 -7.069 -49.665 -21.206c0 0 -191.407 -190.848 -191.407 -190.848c-66.592 46.131 -140.811 69.197 -222.656 69.197c-53.199 0 -104.074 -10.324 -152.623 -30.971c-48.549 -20.648 -90.402 -48.549 -125.558 -83.706c-35.156 -35.156 -63.058 -77.009 -83.705 -125.558c-20.647 -48.549 -30.971 -99.423 -30.971 -152.622c0 -53.2 10.324 -104.074 30.971 -152.623c20.647 -48.549 48.549 -90.402 83.705 -125.558c35.156 -35.157 77.009 -63.058 125.558 -83.706c48.549 -20.647 99.424 -30.971 152.623 -30.971c53.199 0 104.074 10.324 152.623 30.971c48.549 20.648 90.402 48.549 125.558 83.706c35.156 35.156 63.058 77.009 83.705 125.558c20.648 48.549 30.971 99.423 30.971 152.623c0 81.845 -23.065 156.063 -69.196 222.656c0 0 191.406 191.406 191.406 191.406m-265.067 -414.063c0 -68.824 -24.461 -127.697 -73.382 -176.618c-48.921 -48.921 -107.794 -73.382 -176.618 -73.382c-68.824 0 -127.697 24.461 -176.618 73.382c-48.921 48.921 -73.382 107.794 -73.382 176.618c0 68.825 24.461 127.698 73.382 176.619c48.921 48.921 107.794 73.381 176.618 73.381c68.824 0 127.697 -24.46 176.618 -73.381c48.921 -48.921 73.382 -107.794 73.382 -176.619c0 0 0 0 0 0" />
  </g>
</svg>