<svg height="1000" width="929" xmlns="http://www.w3.org/2000/svg"><path d="M0 464.32q0-79.794 30.969-152.613t83.7-125.55 125.55-83.7 152.613-30.969 152.613 30.969 125.55 83.7 83.7 125.55 30.969 152.613q0 122.76-69.192 222.642l191.394 191.394q20.646 20.646 20.646 50.22 0 29.016-21.204 50.22t-50.22 21.204q-30.132 0-50.22-21.204l-191.394-190.836q-99.882 69.192-222.642 69.192-79.794 0-152.613-30.969t-125.55-83.7-83.7-125.55-30.969-152.613zm142.848 0q0 103.23 73.377 176.607t176.607 73.377 176.607-73.377 73.377-176.607-73.377-176.607-176.607-73.377-176.607 73.377-73.377 176.607z"/></svg>