<svg height="1000px" width="750px" xmlns="http://www.w3.org/2000/svg">
  <g>
    <path d="M0 438c0 -43.333 8.167 -84 24.5 -122c16.333 -38 38.667 -71.167 67 -99.5c28.333 -28.333 61.5 -50.667 99.5 -67c38 -16.333 78.667 -24.5 122 -24.5c42.667 0 83 8.167 121 24.5c38 16.333 71.167 38.667 99.5 67c28.333 28.333 50.667 61.5 67 99.5c16.333 38 24.5 78.667 24.5 122c0 32 -4.5 62.333 -13.5 91c-9 28.667 -21.833 55.667 -38.5 81c0 0 168 167 168 167c6 6.667 9 14.333 9 23c0 8.667 -3 16 -9 22c0 0 -44 44 -44 44c-6 6 -13.333 9 -22 9c-8.667 0 -16 -3 -22 -9c0 0 -168 -168 -168 -168c-25.333 16.667 -52.333 29.5 -81 38.5c-28.667 9 -59 13.5 -91 13.5c-43.333 0 -84 -8.167 -122 -24.5c-38 -16.333 -71.167 -38.667 -99.5 -67c-28.333 -28.333 -50.667 -61.333 -67 -99c-16.333 -37.667 -24.5 -78.167 -24.5 -121.5c0 0 0 0 0 0m125 0c0 26 4.833 50.333 14.5 73c9.667 22.667 23 42.5 40 59.5c17 17 37 30.333 60 40c23 9.667 47.5 14.5 73.5 14.5c26 0 50.333 -4.833 73 -14.5c22.667 -9.667 42.5 -23 59.5 -40c17 -17 30.333 -36.833 40 -59.5c9.667 -22.667 14.5 -47 14.5 -73c0 -26 -4.833 -50.333 -14.5 -73c-9.667 -22.667 -23 -42.5 -40 -59.5c-17 -17 -36.833 -30.5 -59.5 -40.5c-22.667 -10 -47 -15 -73 -15c-26 0 -50.5 5 -73.5 15c-23 10 -43 23.5 -60 40.5c-17 17 -30.333 36.833 -40 59.5c-9.667 22.667 -14.5 47 -14.5 73c0 0 0 0 0 0m69 0c0 -16.667 3.167 -32.167 9.5 -46.5c6.333 -14.333 14.833 -26.833 25.5 -37.5c10.667 -10.667 23.167 -19.167 37.5 -25.5c14.333 -6.333 29.833 -9.5 46.5 -9.5c6.667 0 12.167 2.333 16.5 7c4.333 4.667 6.5 10.333 6.5 17c0 6.667 -2.167 12.167 -6.5 16.5c-4.333 4.333 -9.833 6.5 -16.5 6.5c-20 0 -37 7 -51 21c-14 14 -21 31 -21 51c0 6.667 -2.167 12.167 -6.5 16.5c-4.333 4.333 -9.833 6.5 -16.5 6.5c-6.667 0 -12.333 -2.167 -17 -6.5c-4.667 -4.333 -7 -9.833 -7 -16.5c0 0 0 0 0 0" />
  </g>
</svg>