<svg height="1000px" width="779.78515625px" xmlns="http://www.w3.org/2000/svg">
  <g>
    <path d="M0 435.05859375c0 -44.596 8.464 -86.589 25.391 -125.977c16.927 -39.388 40.283 -73.893 70.068 -103.515c29.785 -29.623 64.29 -52.979 103.516 -70.069c39.225 -17.089 81.298 -25.634 126.22 -25.634c44.597 0 86.507 8.545 125.733 25.634c39.225 17.09 73.73 40.446 103.515 70.069c29.786 29.622 53.142 64.127 70.069 103.515c16.927 39.388 25.39 81.381 25.39 125.977c0 31.901 -4.638 63.07 -13.916 93.506c-9.277 30.436 -22.542 58.838 -39.795 85.205c0 0 174.805 175.293 174.805 175.293c5.859 5.859 8.789 13.509 8.789 22.949c0 5.208 -2.93 12.207 -8.789 20.996c-5.859 8.789 -13.184 17.497 -21.973 26.123c-8.789 8.627 -17.496 15.951 -26.123 21.973c-8.626 6.022 -15.543 9.033 -20.752 9.033c-9.44 0 -17.089 -3.092 -22.949 -9.277c0 0 -175.293 -174.805 -175.293 -174.805c-26.692 17.253 -55.176 30.518 -85.449 39.795c-30.273 9.277 -61.361 13.916 -93.262 13.916c-44.596 0 -86.588 -8.464 -125.976 -25.391c-39.388 -16.927 -73.975 -40.201 -103.76 -69.824c-29.785 -29.622 -53.141 -64.127 -70.068 -103.515c-16.927 -39.388 -25.391 -81.381 -25.391 -125.977c0 0 0 0 0 0m129.883 0c0 27.344 5.208 52.816 15.625 76.416c10.416 23.6 24.414 44.108 41.992 61.523c17.578 17.416 38.249 31.25 62.012 41.504c23.763 10.254 48.991 15.381 75.683 15.381c26.693 0 51.84 -5.127 75.44 -15.381c23.6 -10.254 44.189 -24.088 61.767 -41.504c17.578 -17.415 31.576 -37.923 41.993 -61.523c10.416 -23.6 15.625 -49.072 15.625 -76.416c0 -26.693 -5.209 -51.839 -15.625 -75.439c-10.417 -23.601 -24.415 -44.271 -41.993 -62.012c-17.578 -17.741 -38.167 -31.738 -61.767 -41.992c-23.6 -10.254 -48.747 -15.381 -75.44 -15.381c-26.692 0 -51.92 5.127 -75.683 15.381c-23.763 10.254 -44.434 24.251 -62.012 41.992c-17.578 17.741 -31.576 38.411 -41.992 62.012c-10.417 23.6 -15.625 48.746 -15.625 75.439c0 0 0 0 0 0m72.265 0c0 -16.602 3.174 -32.389 9.522 -47.363c6.348 -14.974 15.137 -28.158 26.367 -39.551c11.231 -11.393 24.251 -20.264 39.063 -26.611c14.811 -6.348 30.843 -9.522 48.095 -9.522c6.511 0 12.126 2.36 16.846 7.08c4.72 4.72 7.08 10.661 7.08 17.822c0 6.511 -2.36 12.126 -7.08 16.846c-4.72 4.72 -10.335 7.08 -16.846 7.08c-20.508 0 -38.004 7.162 -52.49 21.485c-14.486 14.323 -21.728 31.901 -21.728 52.734c0 6.51 -2.36 12.126 -7.081 16.846c-4.72 4.72 -10.335 7.08 -16.845 7.08c-7.487 0 -13.509 -2.36 -18.067 -7.08c-4.557 -4.72 -6.836 -10.336 -6.836 -16.846c0 0 0 0 0 0" />
  </g>
</svg>