<svg height="1000px" width="928.5714285714286px" xmlns="http://www.w3.org/2000/svg">
  <g>
    <path d="M0 464.2857142857142c0 -53.199 10.324 -104.074 30.971 -152.623c20.647 -48.549 48.549 -90.402 83.705 -125.558c35.157 -35.156 77.009 -63.058 125.558 -83.705c48.549 -20.647 99.424 -30.971 152.623 -30.971c53.2 0 104.074 10.324 152.623 30.971c48.549 20.647 90.402 48.549 125.558 83.705c35.156 35.156 63.058 77.009 83.705 125.558c20.648 48.549 30.971 99.424 30.971 152.623c0 81.845 -23.065 156.064 -69.196 222.656c0 0 191.406 191.407 191.406 191.407c13.765 13.764 20.647 30.505 20.647 50.223c0 19.345 -7.068 36.086 -21.205 50.223c-14.137 14.137 -30.878 21.205 -50.223 21.205c-20.089 0 -36.831 -7.068 -50.223 -21.205c0 0 -191.407 -190.848 -191.407 -190.848c-66.592 46.131 -140.811 69.196 -222.656 69.196c-53.199 0 -104.074 -10.324 -152.623 -30.971c-48.549 -20.647 -90.401 -48.549 -125.558 -83.705c-35.156 -35.156 -63.058 -77.009 -83.705 -125.558c-20.647 -48.549 -30.971 -99.424 -30.971 -152.623c0 0 0 0 0 0m142.857 0c0 68.824 24.461 127.697 73.382 176.618c48.921 48.921 107.794 73.382 176.618 73.382c68.825 0 127.697 -24.461 176.618 -73.382c48.922 -48.921 73.382 -107.794 73.382 -176.618c0 -68.824 -24.46 -127.697 -73.382 -176.618c-48.921 -48.921 -107.793 -73.382 -176.618 -73.382c-68.824 0 -127.697 24.461 -176.618 73.382c-48.921 48.921 -73.382 107.794 -73.382 176.618c0 0 0 0 0 0" />
  </g>
</svg>