<svg height="1000" width="1142.9" xmlns="http://www.w3.org/2000/svg"><path d="M837.1 765.1V356q0 -11.7 -8.4 -20.1t-19.5 -8.3h-51.9q-11.2 0 -19.6 8.3t-8.3 20.1v409.1q0 11.1 8.3 19.5t19.6 8.4h51.9q11.1 0 19.5 -8.4t8.4 -19.5zm-158.5 0V468.8q0 -11.2 -8.4 -19.6t-19.5 -8.4h-56.4q-11.2 0 -19.5 8.4t-8.4 19.6v296.3q0 11.1 8.4 19.5t19.5 8.4h56.4q11.1 0 19.5 -8.4t8.4 -19.5zm-163 0V525.7q0 -11.2 -8.3 -19.6t-19.6 -8.3h-56.3q-11.2 0 -19.6 8.3t-8.3 19.6v239.4q0 11.1 8.3 19.5t19.6 8.4h56.3q11.2 0 19.6 -8.4t8.3 -19.5zm-162.9 0v-202q0 -11.2 -8.4 -19.6t-19.5 -8.3h-56.4q-11.1 0 -19.5 8.3t-8.4 19.6v202q0 11.1 8.4 19.5t19.5 8.4h56.4q11.1 0 19.5 -8.4t8.4 -19.5zm790.2 -81.5q0 92.6 -65.9 158.5t-158.5 65.8H224.3q-92.6 0 -158.5 -65.8T0 683.6Q0 618.9 35.2 563.9T128.9 481q-5.6 -18.9 -5.6 -40.7 0 -63.1 44.9 -108t108 -44.9q56.9 0 100.5 37.4Q401.8 222.7 484.9 157.4T673.5 92.1q83.2 0 153.5 41t111.3 111.3 41.1 153.5q0 36.8 -7.9 68.1 75.4 18.4 123.4 79.5t48 138.1z"/></svg>