<svg height="1000" width="1142.857" xmlns="http://www.w3.org/2000/svg"><path d="M837 765.082v-409.014q0 -11.718 -8.37 -20.088t-19.53 -8.37h-51.894q-11.16 0 -19.53 8.37t-8.37 20.088v409.014q0 11.16 8.37 19.53t19.53 8.37h51.894q11.16 0 19.53 -8.37t8.37 -19.53zm-158.472 0v-296.298q0 -11.16 -8.37 -19.53t-19.53 -8.37h-56.358q-11.16 0 -19.53 8.37t-8.37 19.53v296.298q0 11.16 8.37 19.53t19.53 8.37h56.358q11.16 0 19.53 -8.37t8.37 -19.53zm-162.936 0v-239.382q0 -11.16 -8.37 -19.53t-19.53 -8.37h-56.358q-11.16 0 -19.53 8.37t-8.37 19.53v239.382q0 11.16 8.37 19.53t19.53 8.37h56.358q11.16 0 19.53 -8.37t8.37 -19.53zm-162.936 0v-201.996q0 -11.16 -8.37 -19.53t-19.53 -8.37h-56.358q-11.16 0 -19.53 8.37t-8.37 19.53v201.996q0 11.16 8.37 19.53t19.53 8.37h56.358q11.16 0 19.53 -8.37t8.37 -19.53zm790.128 -81.468q0 92.628 -65.844 158.472t-158.472 65.844h-694.152q-92.628 0 -158.472 -65.844t-65.844 -158.472q0 -64.728 35.154 -119.691t93.744 -82.863q-5.58 -18.972 -5.58 -40.734 0 -63.054 44.919 -107.973t107.973 -44.919q56.916 0 100.44 37.386 25.11 -102.114 108.252 -167.4t188.604 -65.286q83.142 0 153.45 41.013t111.321 111.321 41.013 153.45q0 36.828 -7.812 68.076 75.33 18.414 123.318 79.515t47.988 138.105z"/></svg>