<svg height="1000" width="1000" xmlns="http://www.w3.org/2000/svg"><path d="M71.424 785.728h571.392v-71.424h-571.392v71.424zm0 -285.696h571.392v-71.424h-571.392v71.424zm874.944 249.984q0 -22.32 -15.624 -37.944t-37.944 -15.624 -37.944 15.624 -15.624 37.944 15.624 37.944 37.944 15.624 37.944 -15.624 15.624 -37.944zm-874.944 -535.68h571.392v-71.424h-571.392v71.424zm874.944 249.984q0 -22.32 -15.624 -37.944t-37.944 -15.624 -37.944 15.624 -15.624 37.944 15.624 37.944 37.944 15.624 37.944 -15.624 15.624 -37.944zm0 -285.696q0 -22.32 -15.624 -37.944t-37.944 -15.624 -37.944 15.624 -15.624 37.944 15.624 37.944 37.944 15.624 37.944 -15.624 15.624 -37.944zm53.568 464.256v214.272h-999.936v-214.272h999.936zm0 -285.696v214.272h-999.936v-214.272h999.936zm0 -285.696v214.272h-999.936v-214.272h999.936z"/></svg>