<svg height="1000" width="1000" xmlns="http://www.w3.org/2000/svg"><path d="M71.4 785.7h571.5v-71.4H71.4v71.4zm0 -285.7h571.5v-71.4H71.4V500zm875 250q0 -22.3 -15.6 -37.9t-37.9 -15.7 -38 15.7T839.3 750t15.6 37.9 38 15.7 37.9 -15.7T946.4 750zM71.4 214.3h571.5v-71.4H71.4v71.4zm875 250q0 -22.3 -15.6 -38t-37.9 -15.6 -38 15.6 -15.6 38 15.6 37.9 38 15.7 37.9 -15.7 15.6 -37.9zm0 -285.7q0 -22.3 -15.6 -38T892.9 125t-38 15.6 -15.6 38 15.6 37.9 38 15.6 37.9 -15.6 15.6 -37.9zm53.6 464.3v214.2H0V642.9h1000zm0 -285.8v214.3H0V357.1h1000zm0 -285.7v214.3H0V71.4h1000z"/></svg>