<svg height="1000" width="857.143" xmlns="http://www.w3.org/2000/svg"><path d="M678.528 571.456q74.214 0 126.387 52.173t52.173 126.387 -52.173 126.387 -126.387 52.173 -126.387 -52.173 -52.173 -126.387q0 -6.696 1.116 -18.972l-200.88 -100.44q-51.336 47.988 -121.644 47.988 -74.214 0 -126.387 -52.173t-52.173 -126.387 52.173 -126.387 126.387 -52.173q70.308 0 121.644 47.988l200.88 -100.44q-1.116 -12.276 -1.116 -18.972 0 -74.214 52.173 -126.387t126.387 -52.173 126.387 52.173 52.173 126.387 -52.173 126.387 -126.387 52.173q-70.308 0 -121.644 -47.988l-200.88 100.44q1.116 12.276 1.116 18.972t-1.116 18.972l200.88 100.44q51.336 -47.988 121.644 -47.988z"/></svg>