<svg height="1000" width="857.1" xmlns="http://www.w3.org/2000/svg"><path d="M714.3 666.9q0 -49.2 -34.9 -84.3t-84 -35.2q-46.9 0 -80.9 32.4L380 512.8q1.1 -8.9 1.1 -12.8T380 487.2l134.5 -67q34 32.4 80.9 32.4 49.1 0 84 -35.2t34.9 -84.3 -34.9 -83.9 -84 -34.9 -84.2 34.9T476 333.1q0 4 1.1 12.9l-134.5 66.9Q308 381.1 261.7 381.1q-49.1 0 -84 34.9t-34.8 84 34.8 84 84 34.9q46.3 0 80.9 -31.8L477.1 654q-1.1 8.9 -1.1 12.9 0 49.1 35.2 83.9t84.2 34.9 84 -34.9 34.9 -83.9zM857.1 232.1v535.8q0 66.4 -47.1 113.5t-113.6 47.2H160.7q-66.4 0 -113.5 -47.2T0 767.9V232.1Q0 165.7 47.2 118.6T160.7 71.4h535.7q66.4 0 113.6 47.2t47.1 113.5z"/></svg>