<svg height="1000" width="857.143" xmlns="http://www.w3.org/2000/svg"><path d="M714.24 666.874q0 -49.104 -34.875 -84.258t-83.979 -35.154q-46.872 0 -80.91 32.364l-134.478 -66.96q1.116 -8.928 1.116 -12.834t-1.116 -12.834l134.478 -66.96q34.038 32.364 80.91 32.364 49.104 0 83.979 -35.154t34.875 -84.258 -34.875 -83.979 -83.979 -34.875 -84.258 34.875 -35.154 83.979q0 3.906 1.116 12.834l-134.478 66.96q-34.596 -31.806 -80.91 -31.806 -49.104 0 -83.979 34.875t-34.875 83.979 34.875 83.979 83.979 34.875q46.314 0 80.91 -31.806l134.478 66.96q-1.116 8.928 -1.116 12.834 0 49.104 35.154 83.979t84.258 34.875 83.979 -34.875 34.875 -83.979zm142.848 -434.682v535.68q0 66.402 -47.151 113.553t-113.553 47.151h-535.68q-66.402 0 -113.553 -47.151t-47.151 -113.553v-535.68q0 -66.402 47.151 -113.553t113.553 -47.151h535.68q66.402 0 113.553 47.151t47.151 113.553z"/></svg>