<svg height="1000" width="857.143" xmlns="http://www.w3.org/2000/svg"><path d="M553.536 348.256v276.768q0 7.812 -5.022 12.834t-12.834 5.022h-89.28q-7.812 0 -12.834 -5.022t-5.022 -12.834v-276.768q0 -62.496 -44.64 -107.136t-107.136 -44.64h-151.776v642.816q0 7.812 -5.022 12.834t-12.834 5.022h-89.28q-7.812 0 -12.834 -5.022t-5.022 -12.834v-749.952q0 -7.812 5.022 -12.834t12.834 -5.022h258.912q75.33 0 138.942 37.107t100.719 100.719 37.107 138.942zm214.272 -258.912v491.04q0 75.33 -37.107 138.942t-100.719 100.719 -138.942 37.107h-258.912q-7.812 0 -12.834 -5.022t-5.022 -12.834v-535.68q0 -7.812 5.022 -12.834t12.834 -5.022h89.28q7.812 0 12.834 5.022t5.022 12.834v428.544h151.776q62.496 0 107.136 -44.64t44.64 -107.136v-491.04q0 -7.812 5.022 -12.834t12.834 -5.022h89.28q7.812 0 12.834 5.022t5.022 12.834z"/></svg>