<svg height="1000" width="857.1" xmlns="http://www.w3.org/2000/svg"><path d="M553.6 348.2V625q0 7.8 -5.1 12.8t-12.8 5.1h-89.3q-7.8 0 -12.8 -5.1t-5 -12.8V348.2q0 -62.5 -44.7 -107.1T276.8 196.4H125v642.9q0 7.8 -5 12.8t-12.9 5H17.9q-7.9 0 -12.9 -5T0 839.3v-750Q0 81.5 5 76.5t12.9 -5.1h258.9q75.3 0 138.9 37.1t100.8 100.8 37.1 138.9zM767.9 89.3v491.1q0 75.3 -37.2 138.9T630 820t-138.9 37.1h-259q-7.8 0 -12.8 -5t-5 -12.8V303.6q0 -7.8 5 -12.9t12.8 -5h89.3q7.8 0 12.9 5t5 12.9v428.5h151.8q62.5 0 107.1 -44.6t44.7 -107.1V89.3q0 -7.8 5 -12.8t12.8 -5.1H750q7.8 0 12.8 5.1t5.1 12.8z"/></svg>