<svg height="1000" width="1142.857" xmlns="http://www.w3.org/2000/svg"><path d="M1010.538 867.754q10.602 -10.602 25.11 -10.602t25.11 10.602l71.424 71.424 -50.22 50.22 -46.314 -46.314 -46.314 46.314q-10.044 10.602 -25.11 10.602t-25.11 -10.602l-46.314 -46.314 -46.314 46.314q-10.602 10.602 -25.11 10.602t-25.11 -10.602l-46.314 -46.314 -46.314 46.314q-10.602 10.602 -25.11 10.602t-25.11 -10.602l-46.314 -46.314 -46.314 46.314q-10.602 10.602 -25.11 10.602t-25.11 -10.602l-46.314 -46.314 -46.314 46.314q-10.602 10.602 -25.11 10.602t-25.11 -10.602l-46.314 -46.314 -46.314 46.314q-10.602 10.602 -25.11 10.602t-25.11 -10.602l-46.314 -46.314 -46.314 46.314q-10.602 10.602 -25.11 10.602t-25.11 -10.602l-71.424 -71.424 50.22 -50.22 46.314 46.314 46.314 -46.314q10.602 -10.602 25.11 -10.602t25.11 10.602l46.314 46.314 46.314 -46.314q10.602 -10.602 25.11 -10.602t25.11 10.602l46.314 46.314 46.314 -46.314q10.602 -10.602 25.11 -10.602t25.11 10.602l46.314 46.314 46.314 -46.314q10.602 -10.602 25.11 -10.602t25.11 10.602l46.314 46.314 46.314 -46.314q10.602 -10.602 25.11 -10.602t25.11 10.602l46.314 46.314 46.314 -46.314q10.602 -10.602 25.11 -10.602t25.11 10.602l46.314 46.314zm-878.292 -21.204q-10.602 10.602 -25.11 10.602t-25.11 -10.602l-71.424 -71.424 50.22 -50.22 46.314 45.756 46.314 -45.756q10.602 -10.602 25.11 -10.602t25.11 10.602l46.314 45.756 35.712 -35.712v-163.494l-117.18 -175.212q-9.486 -14.508 -3.906 -31.527t22.32 -22.599l98.766 -32.364v-166.842h71.424v-71.424h142.848v-71.424h142.848v71.424h142.848v71.424h71.424v166.842l98.766 32.364q16.74 5.58 22.32 22.599t-3.906 31.527l-117.18 175.212v163.494l10.602 -10.044q10.602 -10.602 25.11 -10.602t25.11 10.602l46.314 45.756 46.314 -45.756q10.602 -10.602 25.11 -10.602t25.11 10.602l71.424 71.424 -50.22 50.22 -46.314 -46.314 -46.314 46.314q-10.044 10.602 -25.11 10.602t-25.11 -10.602l-46.314 -46.314 -46.314 46.314q-10.602 10.602 -25.11 10.602t-25.11 -10.602l-46.314 -46.314 -46.314 46.314q-10.602 10.602 -25.11 10.602t-25.11 -10.602l-46.314 -46.314 -46.314 46.314q-10.602 10.602 -25.11 10.602t-25.11 -10.602l-46.314 -46.314 -46.314 46.314q-10.602 10.602 -25.11 10.602t-25.11 -10.602l-46.314 -46.314 -46.314 46.314q-10.602 10.602 -25.11 10.602t-25.11 -10.602l-46.314 -46.314zm224.874 -632.214v71.424l214.272 -71.424 214.272 71.424v-71.424h-71.424v-71.424h-285.696v71.424h-71.424z"/></svg>