<svg height="1000" width="1142.9" xmlns="http://www.w3.org/2000/svg"><path d="M1010.6 867.7q10.6 -10.6 25.1 -10.6t25.1 10.6l71.5 71.5 -50.3 50.2 -46.3 -46.3 -46.3 46.3q-10 10.6 -25.1 10.6t-25.1 -10.6l-46.3 -46.3 -46.4 46.3q-10.6 10.6 -25.1 10.6t-25.1 -10.6L750 943.1l-46.3 46.3q-10.6 10.6 -25.1 10.6t-25.1 -10.6l-46.4 -46.3 -46.3 46.3q-10.6 10.6 -25.1 10.6t-25.1 -10.6l-46.3 -46.3L418 989.4q-10.6 10.6 -25.1 10.6t-25.2 -10.6l-46.3 -46.3 -46.3 46.3Q264.5 1000 250 1000t-25.1 -10.6l-46.3 -46.3 -46.3 46.3q-10.6 10.6 -25.2 10.6T82 989.4L10.6 918l50.2 -50.3 46.3 46.4 46.4 -46.4q10.6 -10.6 25.1 -10.6t25.1 10.6l46.3 46.4 46.3 -46.4q10.6 -10.6 25.1 -10.6t25.1 10.6l46.4 46.4 46.3 -46.4q10.6 -10.6 25.1 -10.6t25.1 10.6l46.3 46.4L582 867.7q10.6 -10.6 25.1 -10.6t25.2 10.6l46.3 46.4 46.3 -46.4q10.6 -10.6 25.1 -10.6t25.1 10.6l46.3 46.4 46.3 -46.4q10.6 -10.6 25.2 -10.6t25.1 10.6l46.3 46.4zM132.3 846.5q-10.6 10.6 -25.2 10.6T82 846.5L10.6 775.1l50.2 -50.2 46.3 45.7 46.4 -45.7q10.6 -10.6 25.1 -10.6t25.1 10.6l46.3 45.7 35.7 -35.7V571.4L168.5 396.2q-9.5 -14.5 -3.9 -31.5t22.3 -22.6l98.8 -32.4V142.9h71.4V71.4H500V0h142.9v71.4h142.8v71.5h71.4v166.8l98.8 32.4q16.8 5.6 22.3 22.6t-3.9 31.5L857.1 571.4v163.5l10.6 -10q10.6 -10.6 25.2 -10.6t25.1 10.6l46.3 45.7 46.3 -45.7q10.6 -10.6 25.1 -10.6t25.1 10.6l71.5 71.4 -50.3 50.2 -46.3 -46.3 -46.3 46.3q-10 10.6 -25.1 10.6t-25.1 -10.6l-46.3 -46.3 -46.4 46.3q-10.6 10.6 -25.1 10.6t-25.1 -10.6L750 800.2l-46.3 46.3q-10.6 10.6 -25.1 10.6t-25.1 -10.6l-46.4 -46.3 -46.3 46.3q-10.6 10.6 -25.1 10.6t-25.1 -10.6l-46.3 -46.3L418 846.5q-10.6 10.6 -25.1 10.6t-25.2 -10.6l-46.3 -46.3 -46.3 46.3q-10.6 10.6 -25.1 10.6t-25.1 -10.6l-46.3 -46.3zM357.1 214.3v71.4l214.3 -71.4 214.3 71.4v-71.4h-71.4v-71.4H428.6v71.4h-71.5z"/></svg>