<svg height="1000" width="857.143" xmlns="http://www.w3.org/2000/svg"><path d="M0 .064h857.088v776.736l-433.008 188.604 -424.08 -188.604v-776.736zm801.288 740.466v-516.708h-745.488v516.708l368.838 164.052zm0 -572.508v-112.158h-745.488v112.158h745.488zm-700.29 166.284v64.17h-20.646v-64.17h20.646zm0 82.584v64.17h-20.646v-64.17h20.646zm0 82.584v64.17h-20.646v-64.17h20.646zm0 82.584v64.17h-20.646v-64.17h20.646zm0 82.584v64.17h-20.646v-64.17h20.646zm14.508 79.794l8.37 -18.972 58.59 26.226 -8.37 18.414zm75.888 33.48l8.37 -18.972 58.59 25.668 -8.37 18.972zm75.33 33.48l8.37 -18.972 58.59 25.668 -8.37 18.972zm75.888 32.922l8.37 -18.414 58.032 25.668 -8.37 18.972zm102.114 7.254l58.59 -25.668 8.37 18.414 -58.59 26.226zm75.33 -33.48l58.59 -25.668 8.37 18.972 -58.59 25.668zm75.888 -33.48l58.59 -25.668 8.37 18.972 -58.59 25.668zm75.33 -32.922l58.59 -26.226 8.37 18.972 -58.59 25.668zm-526.752 -669.6v20.088h-63.612v-20.088h63.612zm90.396 0v20.088h-64.17v-20.088h64.17zm90.396 0v20.088h-64.17v-20.088h64.17zm89.838 0v20.088h-63.612v-20.088h63.612zm90.396 0v20.088h-63.612v-20.088h63.612zm90.396 0v20.088h-64.17v-20.088h64.17zm90.396 0v20.088h-64.17v-20.088h64.17zm89.838 0v20.088h-63.612v-20.088h63.612zm-675.18 189.72v44.082h-20.646v-64.17h64.17v20.088h-43.524zm133.92 -20.088v20.088h-64.17v-20.088h64.17zm90.396 0v20.088h-64.17v-20.088h64.17zm89.838 0v20.088h-63.612v-20.088h63.612zm90.396 0v20.088h-63.612v-20.088h63.612zm90.396 0v20.088h-64.17v-20.088h64.17zm90.396 0v20.088h-64.17v-20.088h64.17zm69.75 64.17v-44.082h-43.524v-20.088h64.17v64.17h-20.646zm0 82.584v-64.17h20.646v64.17h-20.646zm0 82.584v-64.17h20.646v64.17h-20.646zm0 82.584v-64.17h20.646v64.17h-20.646zm0 82.584v-64.17h20.646v64.17h-20.646zm0 82.584v-64.17h20.646v64.17h-20.646zm-332.01 -19.53q-71.982 0 -123.318 -51.057t-51.336 -123.597q0 -71.982 51.336 -123.318t123.318 -51.336q72.54 0 123.597 51.336t51.057 123.318q0 72.54 -51.057 123.597t-123.597 51.057zm-92.07 -212.598q0 20.088 10.881 31.527t27.621 13.95 35.712 3.906 35.712 1.116 27.621 5.022 10.881 17.019q0 27.342 -62.496 27.342 -54.126 0 -68.634 -28.458h-1.674l-17.298 35.154q37.386 23.436 90.396 23.436 16.182 0 31.527 -2.79t30.969 -8.928 25.389 -18.414 9.765 -29.574q0 -25.668 -15.345 -38.781t-37.665 -15.066 -44.361 -1.674 -37.386 -2.79 -15.345 -14.229q0 -11.718 11.439 -18.414t22.599 -8.37 22.878 -1.674q18.972 0 39.339 6.138t28.737 18.972h1.674l16.74 -32.364q-1.674 -.558 -11.718 -4.743t-12.555 -5.022 -10.881 -3.906 -12.276 -3.906 -11.16 -2.511 -13.392 -2.232 -12.834 -.558q-16.182 0 -31.527 2.79t-30.132 9.207 -23.994 18.972 -9.207 29.853z"/></svg>