<svg height="1000" width="857.1" xmlns="http://www.w3.org/2000/svg"><path d="M0 0h857.1v776.8l-433 188.6L0 776.8V0zm801.3 740.5V223.8H55.8v516.7l368.9 164.1zm0 -572.5V55.8H55.8V168h745.5zM101 334.3v64.1H80.4v-64.1H101zm0 82.6V481H80.4v-64.1H101zm0 82.5v64.2H80.4v-64.2H101zm0 82.6v64.2H80.4V582H101zm0 82.6v64.2H80.4v-64.2H101zm14.5 79.8l8.4 -19 58.6 26.3 -8.4 18.4zm75.9 33.5l8.4 -19 58.6 25.7 -8.4 19zm75.3 33.5l8.4 -19 58.6 25.7 -8.4 19zm75.9 32.9l8.4 -18.4 58 25.7 -8.3 18.9zm102.2 7.3l58.5 -25.7 8.4 18.4 -58.6 26.2zm75.3 -33.5l58.6 -25.7 8.4 19 -58.6 25.7zM596 784.6l58.6 -25.7 8.3 19 -58.5 25.7zm75.3 -32.9l58.6 -26.3 8.4 19 -58.6 25.7zM144.5 82v20.1H80.9V82h63.6zm90.4 0v20.1h-64.1V82h64.1zm90.4 0v20.1h-64.1V82h64.1zm89.9 0v20.1h-63.6V82h63.6zm90.4 0v20.1H442V82h63.6zm90.4 0v20.1h-64.2V82H596zm90.4 0v20.1h-64.2V82h64.2zm89.8 0v20.1h-63.6V82h63.6zM101 271.8v44H80.4v-64.1h64.1v20.1H101zm133.9 -20.1v20.1h-64.1v-20.1h64.1zm90.4 0v20.1h-64.1v-20.1h64.1zm89.9 0v20.1h-63.6v-20.1h63.6zm90.4 0v20.1H442v-20.1h63.6zm90.4 0v20.1h-64.2v-20.1H596zm90.4 0v20.1h-64.2v-20.1h64.2zm69.7 64.1v-44h-43.5v-20.1h64.2v64.1h-20.7zm0 82.6v-64.1h20.7v64.1h-20.7zm0 82.6v-64.1h20.7V481h-20.7zm0 82.6v-64.2h20.7v64.2h-20.7zm0 82.6V582h20.7v64.2h-20.7zm0 82.6v-64.2h20.7v64.2h-20.7zm-332 -19.5q-72 0 -123.3 -51.1T249.4 534.6q0 -72 51.4 -123.3t123.3 -51.4q72.6 0 123.6 51.4t51.1 123.3q0 72.5 -51.1 123.6t-123.6 51.1zM332 496.7q0 20 10.9 31.5t27.6 13.9 35.8 3.9 35.7 1.2 27.6 5 10.9 17q0 27.3 -62.5 27.3 -54.2 0 -68.7 -28.4h-1.6l-17.3 35.1q37.3 23.5 90.4 23.5 16.1 0 31.5 -2.8t31 -8.9 25.3 -18.5 9.8 -29.5q0 -25.7 -15.3 -38.8t-37.7 -15.1T421 511.4t-37.4 -2.8 -15.3 -14.2q0 -11.7 11.4 -18.4t22.6 -8.4 22.9 -1.6q19 0 39.4 6.1t28.7 19h1.7l16.7 -32.4Q510 458.1 500 454t-12.6 -5.1T476.6 445t-12.3 -3.9 -11.2 -2.5 -13.4 -2.2 -12.8 -.6q-16.2 0 -31.5 2.8t-30.2 9.2 -24 19 -9.2 29.9z"/></svg>