<svg height="1000" width="1142.9" xmlns="http://www.w3.org/2000/svg"><path d="M1071.4 428.6q29.6 0 50.5 20.9t21 50.5 -21 50.5 -50.5 20.9h-8.3l-64.2 369.4q-4.5 25.7 -24.6 42.5t-45.7 16.7H214.3q-25.7 0 -45.8 -16.7T144 940.8L79.8 571.4h-8.4q-29.5 0 -50.5 -20.9T0 500t20.9 -50.5 50.5 -20.9h1000zM270.6 875q14.6 -1.1 24.3 -12.6t8.7 -25.9L285.7 604.4q-1.1 -14.6 -12.5 -24.3t-26 -8.7T222.9 584t-8.6 25.9l17.8 232.2q1.2 13.9 11.5 23.4t24.3 9.5h2.7zM500 839.3V607.1q0 -14.5 -10.6 -25.1t-25.1 -10.6T439.2 582t-10.6 25.1v232.2q0 14.5 10.6 25.1t25.1 10.6 25.1 -10.6T500 839.3zm214.3 0V607.1q0 -14.5 -10.6 -25.1t-25.1 -10.6T653.5 582t-10.6 25.1v232.2q0 14.5 10.6 25.1t25.1 10.6 25.1 -10.6 10.6 -25.1zm196.4 2.8l17.9 -232.2q1.1 -14.5 -8.7 -25.9t-24.3 -12.6 -25.9 8.7 -12.6 24.3l-17.8 232.1q-1.1 14.5 8.6 25.9t24.3 12.6h2.8q14 0 24.3 -9.5t11.4 -23.4zM265.6 162.9l-51.9 230h-73.6l56.3 -246.1Q207 97.7 246.1 66.7t89.3 -31h93.2q0 -14.5 10.6 -25.1T464.3 0h214.3q14.5 0 25.1 10.6t10.6 25.1h93.2q50.2 0 89.3 31t49.6 80.1l56.4 246.1h-73.7l-51.9 -230q-6.1 -24.5 -25.4 -40.1t-44.3 -15.7h-93.2q0 14.6 -10.6 25.2t-25.1 10.6H464.3q-14.5 0 -25.1 -10.6t-10.6 -25.2h-93.2q-25.1 0 -44.4 15.7t-25.4 40.1z"/></svg>