<svg height="1000" width="1000" xmlns="http://www.w3.org/2000/svg"><path d="M980.5 785.7l19.5 174.7q1.7 15.6 -8.9 27.9 -10.6 11.7 -26.8 11.7H35.7q-16.2 0 -26.8 -11.7Q-1.7 976 0 960.4L19.5 785.7h961zM928.6 317.5l48 432.5H23.4l48 -432.5q1.7 -13.4 11.7 -22.6t24 -9.2H250v71.4q0 29.6 20.9 50.5t50.5 21 50.5 -21 21 -50.5v-71.4h214.2v71.4q0 29.6 21 50.5t50.5 21 50.5 -21T750 357.1v-71.4h142.9q13.9 0 24 9.2t11.7 22.6zM714.3 214.3v142.8q0 14.6 -10.6 25.2t-25.1 10.6 -25.1 -10.6 -10.6 -25.2V214.3q0 -59.2 -41.9 -101T500 71.4t-101 41.9 -41.9 101v142.8q0 14.6 -10.6 25.2t-25.1 10.6 -25.1 -10.6 -10.6 -25.2V214.3q0 -88.7 62.8 -151.5T500 0t151.5 62.8 62.8 151.5z"/></svg>