<svg height="1000" width="1071.4" xmlns="http://www.w3.org/2000/svg"><path d="M799.7 139q5.5 5.5 5.5 12.8t-5.5 12.8L450.3 514q-5.5 5.5 -12.8 5.5T424.7 514l-45.8 -45.8q-5.6 -5.6 -5.6 -12.8t5.6 -12.9L403.5 418Q363.3 367.2 358 302.5t25.9 -120q-41.3 -39.6 -98.2 -39.6 -59.1 0 -101 41.8t-41.8 101V1000H0V285.7q0 -58 22.6 -110.8T83.7 83.7t91.2 -61.1T285.7 0q59.2 0 112.2 22.9t92.6 64.2Q543 65.3 600.4 73.4t103.3 44.3l24.5 -24.5q5.6 -5.6 12.9 -5.6t12.8 5.6zM750 285.7q14.5 0 25.1 10.6t10.6 25.1 -10.6 25.1T750 357.1t-25.1 -10.6 -10.6 -25.1 10.6 -25.1T750 285.7zm142.9 71.4q-14.6 0 -25.2 -10.6t-10.6 -25.1 10.6 -25.1 25.2 -10.6 25.1 10.6 10.6 25.1T918 346.5t-25.1 10.6zm142.8 -71.4q14.5 0 25.1 10.6t10.6 25.1 -10.6 25.1 -25.1 10.6 -25.1 -10.6T1000 321.4t10.6 -25.1 25.1 -10.6zm-357.1 71.4q14.5 0 25.1 10.6t10.6 25.2T703.7 418t-25.1 10.6T653.5 418t-10.6 -25.1 10.6 -25.2 25.1 -10.6zm107.1 35.8q0 -14.6 10.6 -25.2t25.1 -10.6 25.1 10.6 10.6 25.2T846.5 418t-25.1 10.6T796.3 418t-10.6 -25.1zm178.6 -35.8q14.5 0 25.1 10.6t10.6 25.2T989.4 418t-25.1 10.6T939.2 418t-10.6 -25.1 10.6 -25.2 25.1 -10.6zm-357.2 71.5q14.6 0 25.2 10.6t10.6 25.1 -10.6 25.1T607.1 500 582 489.4t-10.6 -25.1T582 439.2t25.1 -10.6zM750 500q-14.5 0 -25.1 -10.6t-10.6 -25.1 10.6 -25.1T750 428.6t25.1 10.6 10.6 25.1 -10.6 25.1T750 500zm142.9 -71.4q14.5 0 25.1 10.6t10.6 25.1T918 489.4 892.9 500t-25.2 -10.6 -10.6 -25.1 10.6 -25.1 25.2 -10.6zM678.6 571.4q-14.5 0 -25.1 -10.6t-10.6 -25.1 10.6 -25.1T678.6 500t25.1 10.6 10.6 25.1 -10.6 25.1 -25.1 10.6zM821.4 500q14.5 0 25.1 10.6t10.6 25.1 -10.6 25.1 -25.1 10.6 -25.1 -10.6 -10.6 -25.1 10.6 -25.1T821.4 500zm-214.3 71.4q14.6 0 25.2 10.6t10.6 25.1 -10.6 25.2 -25.2 10.6T582 632.3t-10.6 -25.2T582 582t25.1 -10.6zm142.9 0q14.5 0 25.1 10.6t10.6 25.1 -10.6 25.2T750 642.9t-25.1 -10.6 -10.6 -25.2T724.9 582 750 571.4zm-71.4 71.5q14.5 0 25.1 10.6t10.6 25.1 -10.6 25.1 -25.1 10.6 -25.1 -10.6 -10.6 -25.1 10.6 -25.1 25.1 -10.6zm-71.5 71.4q14.6 0 25.2 10.6t10.6 25.1 -10.6 25.1 -25.2 10.6T582 775.1 571.4 750 582 724.9t25.1 -10.6z"/></svg>