<svg height="1000" width="1000" xmlns="http://www.w3.org/2000/svg"><path d="M371.628 268.462q-33.48 51.336 -76.446 152.334 -12.276 -25.11 -20.646 -40.455t-22.599 -35.433 -28.458 -31.527 -35.154 -19.53 -45.477 -8.091h-124.992q-7.812 0 -12.834 -5.022t-5.022 -12.834v-107.136q0 -7.812 5.022 -12.834t12.834 -5.022h124.992q139.5 0 228.78 125.55zm628.308 445.842q0 7.812 -5.022 12.834l-178.56 178.56q-5.022 5.022 -12.834 5.022 -7.254 0 -12.555 -5.301t-5.301 -12.555v-107.136q-17.856 0 -47.43 .279t-45.198 .558 -40.734 -.558 -39.618 -2.79 -35.712 -5.859 -35.154 -10.323 -32.364 -15.903 -32.922 -22.32 -30.69 -29.853 -31.248 -38.781q32.922 -51.894 75.888 -152.334 12.276 25.11 20.646 40.455t22.599 35.433 28.458 31.527 35.154 19.53 45.477 8.091h142.848v-107.136q0 -7.812 5.022 -12.834t12.834 -5.022q6.696 0 13.392 5.58l178.002 178.002q5.022 5.022 5.022 12.834zm0 -499.968q0 7.812 -5.022 12.834l-178.56 178.56q-5.022 5.022 -12.834 5.022 -7.254 0 -12.555 -5.301t-5.301 -12.555v-107.136h-142.848q-26.784 0 -48.546 8.37t-38.502 25.11 -28.458 34.317 -25.11 43.245q-17.856 34.596 -43.524 95.418 -16.182 36.828 -27.621 61.938t-30.132 58.59 -35.712 55.8 -41.292 46.314 -50.22 38.223 -59.427 23.436 -71.424 9.207h-124.992q-7.812 0 -12.834 -5.022t-5.022 -12.834v-107.136q0 -7.812 5.022 -12.834t12.834 -5.022h124.992q26.784 0 48.546 -8.37t38.502 -25.11 28.458 -34.317 25.11 -43.245q17.856 -34.596 43.524 -95.418 16.182 -36.828 27.621 -61.938t30.132 -58.59 35.712 -55.8 41.292 -46.314 50.22 -38.223 59.427 -23.436 71.424 -9.207h142.848v-107.136q0 -7.812 5.022 -12.834t12.834 -5.022q6.696 0 13.392 5.58l178.002 178.002q5.022 5.022 5.022 12.834z"/></svg>