<svg height="1000px" width="1000px" xmlns="http://www.w3.org/2000/svg">
  <g>
    <path d="M0 767.8571428571428c0 0 0 -107.143 0 -107.143c0 -5.208 1.674 -9.486 5.022 -12.835c3.349 -3.348 7.627 -5.022 12.835 -5.022c0 0 125 0 125 0c35.714 0 64.732 -11.161 87.054 -33.482c18.229 -18.229 34.691 -41.481 49.386 -69.755c14.695 -28.273 29.018 -58.686 42.969 -91.238c13.951 -32.553 24.739 -57.199 32.366 -73.94c7.626 -16.741 17.671 -36.272 30.134 -58.594c12.462 -22.321 24.367 -40.923 35.714 -55.803c11.347 -14.881 25.112 -30.32 41.295 -46.317c16.555 -15.997 33.389 -28.832 50.502 -38.505c39.806 -21.577 83.333 -32.366 130.58 -32.366c0 0 142.857 0 142.857 0c0 0 0 -107.143 0 -107.143c0 -5.208 1.674 -9.486 5.023 -12.835c3.348 -3.348 7.44 -5.022 12.276 -5.022c4.837 0 9.487 1.86 13.951 5.58c0 0 178.014 178.014 178.014 178.014c3.348 3.348 5.022 7.626 5.022 12.835c0 5.208 -1.674 9.486 -5.022 12.834c0 0 -178.572 178.572 -178.572 178.572c-3.348 3.348 -7.533 5.022 -12.556 5.022c-5.022 0 -9.3 -1.767 -12.834 -5.301c-3.535 -3.534 -5.302 -7.72 -5.302 -12.556c0 0 0 -107.143 0 -107.143c0 0 -142.857 0 -142.857 0c-35.714 0 -64.732 11.161 -87.053 33.482c-18.23 18.229 -34.692 41.481 -49.387 69.755c-14.695 28.274 -29.017 58.687 -42.968 91.239c-13.951 32.552 -24.74 57.198 -32.366 73.939c-7.627 16.741 -17.672 36.273 -30.134 58.594c-12.463 22.322 -24.368 40.923 -35.715 55.804c-11.346 14.881 -25.111 30.32 -41.294 46.317c-16.555 15.997 -33.389 28.831 -50.503 38.504c-39.143 21.584 -81.883 32.375 -128.22 32.375c-0.786 0 -1.572 -0.003 -2.36 -0.009c0 0 -125 0 -125 0c-5.208 0 -9.486 -1.674 -12.835 -5.022c-3.348 -3.348 -5.022 -7.627 -5.022 -12.835c0 0 0 0 0 0m0 -500c0 0 0 -107.143 0 -107.143c0 -5.208 1.674 -9.486 5.022 -12.835c3.349 -3.348 7.627 -5.022 12.835 -5.022c0 0 125 0 125 0c93.006 0 169.271 41.853 228.795 125.558c-22.322 34.226 -47.805 85.007 -76.451 152.344c-27.158 -54.316 -51.153 -90.03 -71.987 -107.143c-23.065 -18.601 -49.851 -27.902 -80.357 -27.902c0 0 -125 0 -125 0c-5.208 0 -9.486 -1.674 -12.835 -5.022c-3.348 -3.348 -5.022 -7.627 -5.022 -12.835c0 0 0 0 0 0m414.621 392.299c21.949 -34.598 47.247 -85.379 75.892 -152.344c27.158 54.316 51.154 90.03 71.987 107.143c23.065 18.229 49.851 27.53 80.357 27.902c0 0 142.857 0 142.857 0c0 0 0 -107.143 0 -107.143c0 -5.208 1.674 -9.486 5.023 -12.835c3.348 -3.348 7.44 -5.022 12.276 -5.022c4.837 0 9.487 1.86 13.951 5.58c0 0 178.014 178.014 178.014 178.014c3.348 3.348 5.022 7.626 5.022 12.835c0 5.208 -1.674 9.486 -5.022 12.834c0 0 -178.572 178.572 -178.572 178.572c-3.348 3.348 -7.533 5.022 -12.556 5.022c-5.022 0 -9.3 -1.767 -12.834 -5.301c-3.535 -3.534 -5.302 -7.72 -5.302 -12.556c0 0 0 -107.143 0 -107.143c-30.506 0 -56.175 0.186 -77.009 0.558c-8.333 0.149 -16.339 0.223 -24.017 0.223c-11.518 0 -22.3 -0.167 -32.344 -0.502c-16.741 -0.558 -29.948 -1.488 -39.621 -2.79c-9.672 -1.302 -21.577 -3.255 -35.714 -5.859c-14.137 -2.605 -25.856 -6.046 -35.156 -10.324c-9.301 -4.278 -20.09 -9.58 -32.366 -15.904c-12.277 -6.324 -23.252 -13.765 -32.924 -22.321c-24.926 -21.95 -45.573 -44.829 -61.942 -68.639c0 0 0 0 0 0" />
  </g>
</svg>