<svg height="1000" width="1000" xmlns="http://www.w3.org/2000/svg"><path d="M0 767.9v-107.1q0-7.8 5-12.8t12.8-5h125q26.8 0 48.5-8.4t38.5-25.1 28.5-34.3 25.1-43.2q17.9-34.6 43.5-95.4 16.2-36.8 27.6-61.9t30.1-58.6 35.7-55.8 41.3-46.3 50.2-38.2 59.4-23.4 71.4-9.2h142.8v-107.1q0-7.8 5-12.8t12.8-5q6.7 0 13.4 5.6l178 178q5 5 5 12.8t-5 12.8l-178.6 178.6q-5 5-12.8 5-7.3 0-12.6-5.3t-5.3-12.6v-107.1h-142.8q-26.8 0-48.5 8.4t-38.5 25.1-28.5 34.3-25.1 43.2q-17.9 34.6-43.5 95.4-16.2 36.8-27.6 61.9t-30.1 58.6-35.7 55.8-41.3 46.3-50.2 38.2-59.4 23.4-71.4 9.2h-125q-7.8 0-12.8-5t-5-12.8zm0-500v-107.1q0-7.8 5-12.8t12.8-5h125q139.5 0 228.8 125.6-33.5 51.3-76.4 152.3-12.3-25.1-20.6-40.5t-22.6-35.4-28.5-31.5-35.2-19.5-45.5-8.1h-125q-7.8 0-12.8-5t-5-12.8zm414.6 392.3q32.9-51.9 75.9-152.3 12.3 25.1 20.6 40.5t22.6 35.4 28.5 31.5 35.2 19.5 45.5 8.1h142.8v-107.1q0-7.8 5-12.8t12.8-5q6.7 0 13.4 5.6l178 178q5 5 5 12.8t-5 12.8l-178.6 178.6q-5 5-12.8 5-7.3 0-12.6-5.3t-5.3-12.6v-107.1q-17.9 0-47.4.3t-45.2.6-40.7-.6-39.6-2.8-35.7-5.9-35.2-10.3-32.4-15.9-32.9-22.3-30.7-29.9-31.2-38.8z"/></svg>