<svg height="1000px" width="899.90234375px" xmlns="http://www.w3.org/2000/svg">
  <g>
    <path d="M0 750.8723959326744c0 0 0 -75.195 0 -75.195c0 -5.209 1.872 -9.603 5.615 -13.184c3.744 -3.581 8.22 -5.371 13.428 -5.371c0 0 106.934 0 106.934 0c16.601 0 32.796 -5.046 48.584 -15.137c15.787 -10.091 31.005 -23.6 45.654 -40.527c14.648 -16.927 29.297 -36.377 43.945 -58.35c14.649 -21.972 29.297 -44.677 43.945 -68.115c17.904 -28.646 36.54 -57.129 55.909 -85.449c19.368 -28.32 40.039 -53.711 62.011 -76.172c21.973 -22.461 45.98 -40.446 72.022 -53.955c26.042 -13.509 55.338 -20.264 87.89 -20.264c0 0 99.122 0 99.122 0c0 0 0 -90.332 0 -90.332c0 -13.346 3.987 -21.321 11.962 -23.926c7.976 -2.604 17.66 0.814 29.053 10.254c0 0 163.086 135.743 163.086 135.743c7.487 5.859 11.068 13.183 10.742 21.972c0 9.44 -3.58 17.09 -10.742 22.949c0 0 -163.086 135.254 -163.086 135.254c-11.393 9.44 -21.077 12.777 -29.053 10.01c-7.975 -2.767 -11.962 -10.823 -11.962 -24.17c0 0 0 -84.961 0 -84.961c0 0 -99.121 0 -99.121 0c-17.253 0 -33.529 5.127 -48.829 15.381c-15.299 10.254 -30.436 23.926 -45.41 41.016c-14.974 17.09 -29.866 36.621 -44.678 58.593c-14.811 21.973 -29.541 44.678 -44.189 68.116c-17.904 28.646 -36.377 56.966 -55.42 84.961c-19.043 27.994 -39.551 53.141 -61.523 75.439c-21.973 22.298 -46.143 40.283 -72.51 53.955c-26.367 13.672 -55.501 20.508 -87.402 20.508c0 0 -106.934 0 -106.934 0c-5.208 0 -9.684 -1.872 -13.428 -5.615c-3.743 -3.744 -5.615 -8.22 -5.615 -13.428c0 0 0 0 0 0m0 -417.969c0 0 0 -75.195 0 -75.195c0 -12.695 6.348 -18.88 19.043 -18.555c0 0 106.934 0 106.934 0c22.135 0 42.806 3.255 62.011 9.766c19.206 6.51 37.354 15.625 54.444 27.344c17.089 11.718 32.959 25.39 47.607 41.015c14.649 15.625 28.971 32.552 42.969 50.781c-19.857 29.297 -38.9 58.269 -57.129 86.915c-1.302 2.604 -2.767 4.882 -4.395 6.835c-1.627 1.954 -3.092 4.395 -4.394 7.325c-22.787 -33.203 -45.492 -61.198 -68.115 -83.985c-22.624 -22.786 -46.957 -34.179 -72.998 -34.179c0 0 -106.934 0 -106.934 0c-5.208 0 -9.684 -1.709 -13.428 -5.127c-3.743 -3.418 -5.615 -7.731 -5.615 -12.94c0 0 0 0 0 0m379.883 306.153c9.44 -13.347 18.636 -27.181 27.588 -41.504c8.952 -14.323 18.147 -28.483 27.588 -42.481c1.302 -3.255 2.929 -6.103 4.882 -8.545c1.954 -2.441 3.581 -5.289 4.883 -8.545c22.787 33.203 45.492 60.954 68.115 83.252c22.624 22.299 46.957 33.448 72.999 33.448c0 0 99.121 0 99.121 0c0 0 0 -92.774 0 -92.774c0 -13.346 3.987 -21.321 11.962 -23.926c7.976 -2.604 17.66 0.651 29.053 9.766c0 0 163.086 135.254 163.086 135.254c7.487 5.859 11.068 13.509 10.742 22.949c0 8.789 -3.58 16.113 -10.742 21.973c0 0 -163.086 136.23 -163.086 136.23c-11.393 9.44 -21.077 12.777 -29.053 10.01c-7.975 -2.767 -11.962 -10.824 -11.962 -24.17c0 0 0 -82.031 0 -82.031c0 0 -99.121 0 -99.121 0c-22.136 0 -42.806 -3.337 -62.012 -10.01c-19.206 -6.673 -37.191 -15.869 -53.955 -27.588c-16.765 -11.719 -32.634 -25.39 -47.608 -41.015c-14.974 -15.625 -29.134 -32.39 -42.48 -50.293c0 0 0 0 0 0" />
  </g>
</svg>