<svg height="1000px" width="1000px" xmlns="http://www.w3.org/2000/svg">
  <g>
    <path d="M1000 214.28571428571422c0 5.208 -1.674 9.487 -5.022 12.835c0 0 -178.572 178.571 -178.572 178.571c-3.348 3.348 -7.533 5.023 -12.556 5.023c-5.022 0 -9.3 -1.768 -12.834 -5.302c-3.535 -3.534 -5.302 -7.719 -5.302 -12.556c0 0 0 -107.142 0 -107.142c0 0 -142.857 0 -142.857 0c-35.714 0 -64.732 11.16 -87.053 33.482c-18.23 18.229 -34.692 41.48 -49.387 69.754c-14.695 28.274 -29.017 58.687 -42.968 91.239c-13.951 32.552 -24.74 57.199 -32.366 73.94c-7.627 16.741 -17.672 36.272 -30.134 58.593c-12.463 22.322 -24.368 40.923 -35.715 55.804c-11.346 14.881 -25.111 30.32 -41.294 46.317c-16.555 15.997 -33.389 28.832 -50.502 38.505c-39.807 21.949 -83.334 32.738 -130.581 32.366c0 0 -125 0 -125 0c-5.208 0 -9.486 -1.675 -12.835 -5.023c-3.348 -3.348 -5.022 -7.626 -5.022 -12.835c0 0 0 -107.142 0 -107.142c0 -5.209 1.674 -9.487 5.022 -12.835c3.349 -3.348 7.627 -5.023 12.835 -5.023c0 0 125 0 125 0c35.714 0 64.732 -11.16 87.054 -33.482c18.229 -18.229 34.691 -41.48 49.386 -69.754c14.695 -28.274 29.018 -58.687 42.969 -91.239c13.951 -32.552 24.739 -57.199 32.366 -73.94c7.626 -16.741 17.671 -36.272 30.134 -58.593c12.462 -22.322 24.367 -40.923 35.714 -55.804c11.347 -14.881 25.112 -30.32 41.295 -46.317c16.555 -15.997 33.389 -28.832 50.502 -38.504c39.806 -21.578 83.333 -32.367 130.58 -32.367c0 0 142.857 0 142.857 0c0 0 0 -107.142 0 -107.142c0 -5.209 1.674 -9.487 5.023 -12.835c3.348 -3.348 7.44 -5.023 12.276 -5.023c4.837 0 9.487 1.861 13.951 5.581c0 0 178.014 178.013 178.014 178.013c3.348 3.348 5.022 7.627 5.022 12.835c0 0 0 0 0 0m0 500c0 5.208 -1.674 9.487 -5.022 12.835c0 0 -178.572 178.571 -178.572 178.571c-3.348 3.348 -7.533 5.023 -12.556 5.023c-5.022 0 -9.3 -1.768 -12.834 -5.302c-3.535 -3.534 -5.302 -7.719 -5.302 -12.556c0 0 0 -107.142 0 -107.142c-30.506 0 -56.175 0.186 -77.009 0.558c-20.833 0.372 -39.62 0.279 -56.361 -0.279c-16.741 -0.558 -29.948 -1.489 -39.621 -2.791c-9.672 -1.302 -21.577 -3.255 -35.714 -5.859c-14.137 -2.604 -25.856 -6.045 -35.156 -10.324c-9.301 -4.278 -20.09 -9.579 -32.366 -15.904c-12.277 -6.324 -23.252 -13.765 -32.925 -22.321c-24.925 -21.949 -45.572 -44.829 -61.941 -68.638c21.949 -34.599 47.247 -85.38 75.892 -152.344c27.158 54.315 51.154 90.03 71.987 107.143c23.065 18.229 49.851 27.529 80.357 27.901c0 0 142.857 0 142.857 0c0 0 0 -107.142 0 -107.142c0 -5.209 1.674 -9.487 5.023 -12.835c3.348 -3.348 7.44 -5.023 12.276 -5.023c4.837 0 9.487 1.861 13.951 5.581c0 0 178.014 178.013 178.014 178.013c3.348 3.348 5.022 7.627 5.022 12.835c0 0 0 0 0 0m-628.348 -445.871c-22.322 34.227 -47.805 85.008 -76.451 152.344c-27.158 -54.315 -51.153 -90.03 -71.987 -107.143c-23.065 -18.601 -49.851 -27.901 -80.357 -27.901c0 0 -125 0 -125 0c-5.208 0 -9.486 -1.675 -12.835 -5.023c-3.348 -3.348 -5.022 -7.626 -5.022 -12.835c0 0 0 -107.142 0 -107.142c0 -5.209 1.674 -9.487 5.022 -12.835c3.349 -3.348 7.627 -5.023 12.835 -5.023c0 0 125 0 125 0c93.006 0 169.271 41.853 228.795 125.558c0 0 0 0 0 0" />
  </g>
</svg>