<svg height="1000px" width="900px" xmlns="http://www.w3.org/2000/svg">
  <g>
    <path d="M0 751.9998321533203c0 0 0 -75 0 -75c0 -12.667 6.333 -19 19 -19c0 0 107 0 107 0c16.667 0 32.833 -5.167 48.5 -15.5c15.667 -10.333 30.833 -24 45.5 -41c14.667 -17 29.333 -36.5 44 -58.5c14.667 -22 29.333 -44.667 44 -68c18 -28.667 36.667 -57.167 56 -85.5c19.333 -28.333 40 -53.5 62 -75.5c22 -22 46 -39.833 72 -53.5c26 -13.667 55.333 -20.5 88 -20.5c0 0 99 0 99 0c0 0 0 -90 0 -90c0 -13.333 4 -21.333 12 -24c8 -2.667 17.667 0.667 29 10c0 0 163 135 163 135c7.333 6 11 13.667 11 23c0 8.667 -3.667 16 -11 22c0 0 -163 136 -163 136c-11.333 9.333 -21 12.667 -29 10c-8 -2.667 -12 -10.667 -12 -24c0 0 0 -86 0 -86c0 0 -99 0 -99 0c-17.333 0 -33.667 5.167 -49 15.5c-15.333 10.333 -30.5 24 -45.5 41c-15 17 -29.833 36.5 -44.5 58.5c-14.667 22 -29.333 44.667 -44 68c-18 29.333 -36.5 58 -55.5 86c-19 28 -39.5 53 -61.5 75c-22 22 -46.167 39.833 -72.5 53.5c-26.333 13.667 -55.5 20.5 -87.5 20.5c0 0 -107 0 -107 0c-5.333 0 -9.833 -1.667 -13.5 -5c-3.667 -3.333 -5.5 -7.667 -5.5 -13c0 0 0 0 0 0m0 -419c0 0 0 -75 0 -75c0 -5.333 1.833 -9.833 5.5 -13.5c3.667 -3.667 8.167 -5.5 13.5 -5.5c0 0 107 0 107 0c34.667 0 65.833 7.833 93.5 23.5c27.667 15.667 53.167 36.167 76.5 61.5c-12 16.667 -23.333 33.167 -34 49.5c-10.667 16.333 -21 32.167 -31 47.5c-16.667 -20.667 -33.5 -37.333 -50.5 -50c-17 -12.667 -35.167 -19 -54.5 -19c0 0 -107 0 -107 0c-5.333 0 -9.833 -1.833 -13.5 -5.5c-3.667 -3.667 -5.5 -8.167 -5.5 -13.5c0 0 0 0 0 0m417 351c11.333 -16 22.333 -32.167 33 -48.5c10.667 -16.333 21 -32.5 31 -48.5c16.667 20.667 33.5 37.333 50.5 50c17 12.667 35.167 19 54.5 19c0 0 99 0 99 0c0 0 0 -94 0 -94c0 -13.333 4 -21.333 12 -24c8 -2.667 17.667 0.667 29 10c0 0 163 136 163 136c7.333 6 11 13.333 11 22c0 9.333 -3.667 17 -11 23c0 0 -163 135 -163 135c-11.333 9.333 -21 12.667 -29 10c-8 -2.667 -12 -10.667 -12 -24c0 0 0 -82 0 -82c0 0 -99 0 -99 0c-35.333 0 -66.5 -7.667 -93.5 -23c-27 -15.333 -52.167 -35.667 -75.5 -61c0 0 0 0 0 0" />
  </g>
</svg>