<svg height="1000px" width="1000px" xmlns="http://www.w3.org/2000/svg">
  <g>
    <path d="M0 767.8571428571428c0 0 0 -107.143 0 -107.143c0 -5.208 1.674 -9.486 5.022 -12.835c3.349 -3.348 7.627 -5.022 12.835 -5.022c0 0 125 0 125 0c17.857 0 34.04 -2.79 48.549 -8.371c14.509 -5.58 27.344 -13.95 38.505 -25.111c11.16 -11.161 20.647 -22.601 28.46 -34.319c7.812 -11.719 16.183 -26.135 25.111 -43.248c11.905 -23.066 26.414 -54.874 43.527 -95.424c10.789 -24.554 19.996 -45.201 27.623 -61.942c7.626 -16.741 17.671 -36.272 30.134 -58.594c12.462 -22.321 24.367 -40.923 35.714 -55.803c11.347 -14.881 25.112 -30.32 41.295 -46.317c16.183 -15.997 32.924 -28.739 50.223 -38.226c17.299 -9.487 37.109 -17.299 59.431 -23.437c22.321 -6.139 46.131 -9.208 71.428 -9.208c0 0 142.857 0 142.857 0c0 0 0 -107.143 0 -107.143c0 -5.208 1.674 -9.486 5.023 -12.835c3.348 -3.348 7.626 -5.022 12.834 -5.022c4.465 0 8.929 1.86 13.393 5.58c0 0 178.014 178.014 178.014 178.014c3.348 3.348 5.022 7.626 5.022 12.835c0 5.208 -1.674 9.486 -5.022 12.834c0 0 -178.572 178.572 -178.572 178.572c-3.348 3.348 -7.626 5.022 -12.835 5.022c-4.836 0 -9.021 -1.767 -12.555 -5.301c-3.535 -3.534 -5.302 -7.72 -5.302 -12.556c0 0 0 -107.143 0 -107.143c0 0 -142.857 0 -142.857 0c-17.857 0 -34.04 2.79 -48.549 8.371c-14.509 5.58 -27.344 13.951 -38.504 25.111c-11.161 11.161 -20.648 22.601 -28.46 34.319c-7.813 11.719 -16.183 26.135 -25.112 43.248c-11.905 23.066 -26.414 54.874 -43.527 95.424c-10.788 24.554 -19.996 45.201 -27.622 61.942c-7.627 16.741 -17.672 36.273 -30.134 58.594c-12.463 22.322 -24.368 40.923 -35.715 55.804c-11.346 14.881 -25.111 30.32 -41.294 46.317c-16.183 15.997 -32.924 28.738 -50.223 38.225c-17.3 9.487 -37.11 17.299 -59.431 23.438c-22.322 6.138 -46.131 9.207 -71.429 9.207c0 0 -125 0 -125 0c-5.208 0 -9.486 -1.674 -12.835 -5.022c-3.348 -3.348 -5.022 -7.627 -5.022 -12.835c0 0 0 0 0 0m0 -500c0 0 0 -107.143 0 -107.143c0 -5.208 1.674 -9.486 5.022 -12.835c3.349 -3.348 7.627 -5.022 12.835 -5.022c0 0 125 0 125 0c93.006 0 169.271 41.853 228.795 125.558c-22.322 34.226 -47.805 85.007 -76.451 152.344c-8.185 -16.741 -15.067 -30.227 -20.647 -40.458c-5.581 -10.23 -13.114 -22.042 -22.601 -35.435c-9.486 -13.393 -18.973 -23.903 -28.46 -31.529c-9.486 -7.627 -21.205 -14.137 -35.156 -19.531c-13.951 -5.395 -29.111 -8.092 -45.48 -8.092c0 0 -125 0 -125 0c-5.208 0 -9.486 -1.674 -12.835 -5.022c-3.348 -3.348 -5.022 -7.627 -5.022 -12.835c0 0 0 0 0 0m414.621 392.299c21.949 -34.598 47.247 -85.379 75.892 -152.344c8.185 16.741 15.067 30.227 20.648 40.458c5.58 10.231 13.114 22.042 22.6 35.435c9.487 13.393 18.973 23.903 28.46 31.529c9.487 7.627 21.205 14.137 35.156 19.531c13.951 5.395 29.111 8.092 45.48 8.092c0 0 142.857 0 142.857 0c0 0 0 -107.143 0 -107.143c0 -5.208 1.674 -9.486 5.023 -12.835c3.348 -3.348 7.626 -5.022 12.834 -5.022c4.465 0 8.929 1.86 13.393 5.58c0 0 178.014 178.014 178.014 178.014c3.348 3.348 5.022 7.626 5.022 12.835c0 5.208 -1.674 9.486 -5.022 12.834c0 0 -178.572 178.572 -178.572 178.572c-3.348 3.348 -7.626 5.022 -12.835 5.022c-4.836 0 -9.021 -1.767 -12.555 -5.301c-3.535 -3.534 -5.302 -7.72 -5.302 -12.556c0 0 0 -107.143 0 -107.143c-11.904 0 -27.715 0.093 -47.433 0.279c-19.717 0.186 -34.784 0.372 -45.201 0.558c-10.416 0.186 -23.995 0 -40.736 -0.558c-16.741 -0.558 -29.948 -1.488 -39.621 -2.79c-9.672 -1.302 -21.577 -3.255 -35.714 -5.859c-14.137 -2.605 -25.856 -6.046 -35.156 -10.324c-9.301 -4.278 -20.09 -9.58 -32.366 -15.904c-12.277 -6.324 -23.252 -13.765 -32.924 -22.321c-9.673 -8.557 -19.904 -18.509 -30.692 -29.855c-10.789 -11.347 -21.206 -24.275 -31.25 -38.784c0 0 0 0 0 0" />
  </g>
</svg>