<svg height="1000" width="1000" xmlns="http://www.w3.org/2000/svg"><path d="M142.9 803.6v107.1q0 7.8 -5.1 12.8t-12.8 5.1H17.9Q10 928.6 5 923.5T0 910.7V803.6q0 -7.8 5 -12.9t12.9 -5H125q7.8 0 12.8 5t5.1 12.9zm214.2 -71.5v178.6q0 7.8 -5 12.8t-12.8 5.1H232.1q-7.8 0 -12.8 -5.1t-5 -12.8V732.1q0 -7.8 5 -12.8t12.8 -5h107.2q7.8 0 12.8 5t5 12.8zM571.4 589.3v321.4q0 7.8 -5 12.8t-12.8 5.1H446.4q-7.8 0 -12.8 -5.1t-5 -12.8V589.3q0 -7.8 5 -12.8t12.8 -5.1h107.2q7.8 0 12.8 5.1t5 12.8zM785.7 375v535.7q0 7.8 -5 12.8t-12.8 5.1H660.7q-7.8 0 -12.8 -5.1t-5 -12.8V375q0 -7.8 5 -12.8t12.8 -5.1h107.2q7.8 0 12.8 5.1t5 12.8zM1000 89.3v821.4q0 7.8 -5 12.8t-12.9 5.1H875q-7.8 0 -12.8 -5.1t-5.1 -12.8V89.3q0 -7.8 5.1 -12.8T875 71.4h107.1q7.9 0 12.9 5.1t5 12.8z"/></svg>