<svg height="1000" width="1000" xmlns="http://www.w3.org/2000/svg"><path d="M0 910.72l0-107.136q0-7.812 5.022-12.834t12.834-5.022l107.136 0q7.812 0 12.834 5.022t5.022 12.834l0 107.136q0 7.812-5.022 12.834t-12.834 5.022l-107.136 0q-7.812 0-12.834-5.022t-5.022-12.834zm214.272 0l0-178.56q0-7.812 5.022-12.834t12.834-5.022l107.136 0q7.812 0 12.834 5.022t5.022 12.834l0 178.56q0 7.812-5.022 12.834t-12.834 5.022l-107.136 0q-7.812 0-12.834-5.022t-5.022-12.834zm214.272 0l0-321.408q0-7.812 5.022-12.834t12.834-5.022l107.136 0q7.812 0 12.834 5.022t5.022 12.834l0 321.408q0 7.812-5.022 12.834t-12.834 5.022l-107.136 0q-7.812 0-12.834-5.022t-5.022-12.834zm214.272 0l0-535.68q0-7.812 5.022-12.834t12.834-5.022l107.136 0q7.812 0 12.834 5.022t5.022 12.834l0 535.68q0 7.812-5.022 12.834t-12.834 5.022l-107.136 0q-7.812 0-12.834-5.022t-5.022-12.834zm214.272 0l0-821.376q0-7.812 5.022-12.834t12.834-5.022l107.136 0q7.812 0 12.834 5.022t5.022 12.834l0 821.376q0 7.812-5.022 12.834t-12.834 5.022l-107.136 0q-7.812 0-12.834-5.022t-5.022-12.834z"/></svg>