<svg height="1000px" width="900px" xmlns="http://www.w3.org/2000/svg">
  <g>
    <path d="M0 856c0 0 0 -127 0 -127c0 -5.333 1.833 -9.833 5.5 -13.5c3.667 -3.667 8.167 -5.5 13.5 -5.5c0 0 94 0 94 0c5.333 0 9.667 1.833 13 5.5c3.333 3.667 5 8.167 5 13.5c0 0 0 127 0 127c0 5.333 -1.667 9.833 -5 13.5c-3.333 3.667 -7.667 5.5 -13 5.5c0 0 -94 0 -94 0c-12.667 0 -19 -6.333 -19 -19c0 0 0 0 0 0m192 0c0 0 0 -212 0 -212c0 -5.333 1.833 -9.833 5.5 -13.5c3.667 -3.667 8.167 -5.5 13.5 -5.5c0 0 94 0 94 0c5.333 0 9.667 1.833 13 5.5c3.333 3.667 5 8.167 5 13.5c0 0 0 212 0 212c0 5.333 -1.667 9.833 -5 13.5c-3.333 3.667 -7.667 5.5 -13 5.5c0 0 -94 0 -94 0c-5.333 0 -9.833 -1.833 -13.5 -5.5c-3.667 -3.667 -5.5 -8.167 -5.5 -13.5c0 0 0 0 0 0m192 0c0 0 0 -330 0 -330c0 -5.333 1.833 -9.833 5.5 -13.5c3.667 -3.667 8.167 -5.5 13.5 -5.5c0 0 94 0 94 0c5.333 0 9.833 1.833 13.5 5.5c3.667 3.667 5.5 8.167 5.5 13.5c0 0 0 330 0 330c0 5.333 -1.833 9.833 -5.5 13.5c-3.667 3.667 -8.167 5.5 -13.5 5.5c0 0 -94 0 -94 0c-5.333 0 -9.833 -1.833 -13.5 -5.5c-3.667 -3.667 -5.5 -8.167 -5.5 -13.5c0 0 0 0 0 0m193 0c0 0 0 -486 0 -486c0 -5.333 1.667 -9.833 5 -13.5c3.333 -3.667 7.667 -5.5 13 -5.5c0 0 94 0 94 0c5.333 0 9.833 1.833 13.5 5.5c3.667 3.667 5.5 8.167 5.5 13.5c0 0 0 486 0 486c0 5.333 -1.833 9.833 -5.5 13.5c-3.667 3.667 -8.167 5.5 -13.5 5.5c0 0 -94 0 -94 0c-5.333 0 -9.667 -1.833 -13 -5.5c-3.333 -3.667 -5 -8.167 -5 -13.5c0 0 0 0 0 0m192 0c0 0 0 -712 0 -712c0 -12.667 6.333 -19 19 -19c0 0 93 0 93 0c12.667 0 19 6.333 19 19c0 0 0 712 0 712c0 12.667 -6.333 19 -19 19c0 0 -93 0 -93 0c-12.667 0 -19 -6.333 -19 -19c0 0 0 0 0 0" />
  </g>
</svg>