<svg height="1000" width="928.6" xmlns="http://www.w3.org/2000/svg"><path d="M463.7 375.6q17.9 0 33 10l123.8 82.6q34.1 22.3 61.4 54.1l81.5 94.9q22.3 25.7 16.2 59.1l-40.2 230.5q-3.4 17.9 -16.5 29.9T692 950.9l-294.1 31.2L201.5 1000h-5.1q-21.7 0 -37.6 -15.6t-15.9 -38q0 -20.6 15 -35.7t36.3 -17.8L339.3 875h-250q-22.9 0 -38.8 -16.7T35.7 818.6q1.1 -21.7 17.9 -36.2t38.5 -14.5l246.6 -.6L48 731.6Q25.1 728.8 11.2 710.9T.6 670.2q3.3 -19.5 19.2 -32.1t36.6 -12.5h5.5L330.4 659 134.5 606.6Q113.3 601 99.9 583.4T89.8 545.2q3.4 -20.1 18.5 -32.6T142.9 500q3.3 0 11.1 1.1l250 53.6 121.1 20.6q.6 0 1.7 .3t1.7 .3q12.8 0 17 -12.8t-7 -20.1L434.7 473.2q-19.5 -12.8 -23.4 -35.4t10 -41q15.1 -21.2 42.4 -21.2zm-39 112.7L528.5 558 406.8 537.4l-2.8 -1.1 -20.1 -21.2L251.1 368.9q-.5 -.6 -1.4 -2t-1.4 -1.9Q234.9 347.7 238 325.9t20.9 -35.7q17.3 -12.9 38 -9.8t35.7 18.7l79.2 82 -2.2 2.3t-2.8 2.2Q389 410.7 394 440.8t30.7 47.5zM919.6 234.9l8.4 148.5q2.2 40.7 -6.1 82l-26.8 122.2q-6.7 32.9 -37.4 48.6l-59.2 30.1q1.2 -34.6 -21.7 -60.8l-81.5 -94.9q-29.6 -34 -65.3 -57.5L506.1 370.5q-18.9 -12.8 -42.4 -12.8 -28.4 0 -49.1 20.6L283.5 204.2q-14 -18.4 -10.1 -41t22.9 -35.4q18.4 -12.3 39.9 -7.8t34.9 22.3l148.4 196.4L373.3 84.8Q361.6 65.3 367.5 43T394 10Q413.5 0 434.4 6.7t32.1 25.7L601 266.7l-75.9 -188q-8.4 -19.5 -2.5 -41.3T547.4 6.1q20.7 -10.6 42.4 -3.3t31.3 28.4l107.7 231.6 56.4 109.4q4.4 8.4 12.8 9.8t15.1 -4.2 6.1 -14.5l-6.7 -125q-1.1 -22.9 14.5 -39.6t38.5 -17.3q21.8 0 37.4 15.9t16.7 37.6z"/></svg>