<svg height="1000" width="1000" xmlns="http://www.w3.org/2000/svg"><path d="M0 910.72v-107.136q0 -7.812 5.022 -12.834t12.834 -5.022h107.136q7.812 0 12.834 5.022t5.022 12.834v107.136q0 7.812 -5.022 12.834t-12.834 5.022h-107.136q-7.812 0 -12.834 -5.022t-5.022 -12.834zm214.272 0v-178.56q0 -7.812 5.022 -12.834t12.834 -5.022h107.136q7.812 0 12.834 5.022t5.022 12.834v178.56q0 7.812 -5.022 12.834t-12.834 5.022h-107.136q-7.812 0 -12.834 -5.022t-5.022 -12.834zm214.272 0v-321.408q0 -7.812 5.022 -12.834t12.834 -5.022h107.136q7.812 0 12.834 5.022t5.022 12.834v321.408q0 7.812 -5.022 12.834t-12.834 5.022h-107.136q-7.812 0 -12.834 -5.022t-5.022 -12.834zm214.272 0v-535.68q0 -7.812 5.022 -12.834t12.834 -5.022h107.136q7.812 0 12.834 5.022t5.022 12.834v535.68q0 7.812 -5.022 12.834t-12.834 5.022h-107.136q-7.812 0 -12.834 -5.022t-5.022 -12.834zm214.272 0v-821.376q0 -7.812 5.022 -12.834t12.834 -5.022h107.136q7.812 0 12.834 5.022t5.022 12.834v821.376q0 7.812 -5.022 12.834t-12.834 5.022h-107.136q-7.812 0 -12.834 -5.022t-5.022 -12.834z"/></svg>