<svg height="1000px" width="1000px" xmlns="http://www.w3.org/2000/svg">
  <g>
    <path d="M1000 89.28571428571422c0 0 0 821.429 0 821.429c0 5.208 -1.674 9.486 -5.022 12.834c-3.349 3.349 -7.627 5.023 -12.835 5.023c0 0 -107.143 0 -107.143 0c-5.208 0 -9.487 -1.674 -12.835 -5.023c-3.348 -3.348 -5.022 -7.626 -5.022 -12.834c0 0 0 -821.429 0 -821.429c0 -5.208 1.674 -9.487 5.022 -12.835c3.348 -3.348 7.627 -5.022 12.835 -5.022c0 0 107.143 0 107.143 0c5.208 0 9.486 1.674 12.835 5.022c3.348 3.348 5.022 7.627 5.022 12.835c0 0 0 0 0 0m-214.286 285.714c0 0 0 535.715 0 535.715c0 5.208 -1.674 9.486 -5.022 12.834c-3.348 3.349 -7.627 5.023 -12.835 5.023c0 0 -107.143 0 -107.143 0c-5.208 0 -9.486 -1.674 -12.835 -5.023c-3.348 -3.348 -5.022 -7.626 -5.022 -12.834c0 0 0 -535.715 0 -535.715c0 -5.208 1.674 -9.486 5.022 -12.835c3.349 -3.348 7.627 -5.022 12.835 -5.022c0 0 107.143 0 107.143 0c5.208 0 9.487 1.674 12.835 5.022c3.348 3.349 5.022 7.627 5.022 12.835c0 0 0 0 0 0m-214.285 214.286c0 0 0 321.429 0 321.429c0 5.208 -1.675 9.486 -5.023 12.834c-3.348 3.349 -7.626 5.023 -12.835 5.023c0 0 -107.142 0 -107.142 0c-5.209 0 -9.487 -1.674 -12.835 -5.023c-3.348 -3.348 -5.023 -7.626 -5.023 -12.834c0 0 0 -321.429 0 -321.429c0 -5.208 1.675 -9.487 5.023 -12.835c3.348 -3.348 7.626 -5.022 12.835 -5.022c0 0 107.142 0 107.142 0c5.209 0 9.487 1.674 12.835 5.022c3.348 3.348 5.023 7.627 5.023 12.835c0 0 0 0 0 0m-214.286 142.857c0 0 0 178.572 0 178.572c0 5.208 -1.674 9.486 -5.022 12.834c-3.349 3.349 -7.627 5.023 -12.835 5.023c0 0 -107.143 0 -107.143 0c-5.208 0 -9.487 -1.674 -12.835 -5.023c-3.348 -3.348 -5.022 -7.626 -5.022 -12.834c0 0 0 -178.572 0 -178.572c0 -5.208 1.674 -9.486 5.022 -12.835c3.348 -3.348 7.627 -5.022 12.835 -5.022c0 0 107.143 0 107.143 0c5.208 0 9.486 1.674 12.835 5.022c3.348 3.349 5.022 7.627 5.022 12.835c0 0 0 0 0 0m-214.286 71.429c0 0 0 107.143 0 107.143c0 5.208 -1.674 9.486 -5.022 12.834c-3.348 3.349 -7.627 5.023 -12.835 5.023c0 0 -107.143 0 -107.143 0c-5.208 0 -9.486 -1.674 -12.835 -5.023c-3.348 -3.348 -5.022 -7.626 -5.022 -12.834c0 0 0 -107.143 0 -107.143c0 -5.209 1.674 -9.487 5.022 -12.835c3.349 -3.348 7.627 -5.022 12.835 -5.022c0 0 107.143 0 107.143 0c5.208 0 9.487 1.674 12.835 5.022c3.348 3.348 5.022 7.626 5.022 12.835c0 0 0 0 0 0" />
  </g>
</svg>