<svg height="1000px" width="899.90234375px" xmlns="http://www.w3.org/2000/svg">
  <g>
    <path d="M0 855.95703125c0 0 0 -126.953 0 -126.953c0 -5.208 1.872 -9.684 5.615 -13.428c3.744 -3.743 8.22 -5.615 13.428 -5.615c0 0 93.75 0 93.75 0c5.208 0 9.521 1.872 12.939 5.615c3.418 3.744 5.127 8.22 5.127 13.428c0 0 0 126.953 0 126.953c0 5.208 -1.627 9.684 -4.882 13.428c-3.256 3.743 -7.65 5.615 -13.184 5.615c0 0 -93.75 0 -93.75 0c-12.695 0 -19.043 -6.348 -19.043 -19.043c0 0 0 0 0 0m191.895 0c0 0 0 -211.914 0 -211.914c0 -5.208 1.871 -9.684 5.615 -13.428c3.743 -3.743 8.219 -5.615 13.427 -5.615c0 0 94.239 0 94.239 0c5.208 0 9.521 1.872 12.939 5.615c3.418 3.744 5.127 8.22 5.127 13.428c0 0 0 211.914 0 211.914c0 5.208 -1.709 9.684 -5.127 13.428c-3.418 3.743 -7.731 5.615 -12.939 5.615c0 0 -94.239 0 -94.239 0c-5.208 0 -9.684 -1.872 -13.427 -5.615c-3.744 -3.744 -5.615 -8.22 -5.615 -13.428c0 0 0 0 0 0m191.894 0c0 0 0 -330.078 0 -330.078c0 -5.208 1.872 -9.684 5.615 -13.428c3.744 -3.743 8.22 -5.615 13.428 -5.615c0 0 94.238 0 94.238 0c5.209 0 9.685 1.872 13.428 5.615c3.744 3.744 5.615 8.22 5.615 13.428c0 0 0 330.078 0 330.078c0 5.208 -1.871 9.684 -5.615 13.428c-3.743 3.743 -8.219 5.615 -13.428 5.615c0 0 -94.238 0 -94.238 0c-5.208 0 -9.684 -1.872 -13.428 -5.615c-3.743 -3.744 -5.615 -8.22 -5.615 -13.428c0 0 0 0 0 0m193.359 0c0 0 0 -485.84 0 -485.84c0 -5.208 1.628 -9.684 4.883 -13.428c3.255 -3.743 7.65 -5.615 13.184 -5.615c0 0 93.75 0 93.75 0c5.208 0 9.684 1.791 13.428 5.371c3.743 3.581 5.615 8.138 5.615 13.672c0 0 0 485.84 0 485.84c0 5.208 -1.872 9.684 -5.615 13.428c-3.744 3.743 -8.22 5.615 -13.428 5.615c0 0 -93.75 0 -93.75 0c-5.208 0 -9.522 -1.872 -12.94 -5.615c-3.418 -3.744 -5.127 -8.22 -5.127 -13.428c0 0 0 0 0 0m191.895 0c0 0 0 -711.914 0 -711.914c0 -12.695 6.348 -19.043 19.043 -19.043c0 0 92.773 0 92.773 0c12.696 0 19.043 6.348 19.043 19.043c0 0 0 711.914 0 711.914c0 12.695 -6.347 19.043 -19.043 19.043c0 0 -92.773 0 -92.773 0c-12.695 0 -19.043 -6.348 -19.043 -19.043c0 0 0 0 0 0" />
  </g>
</svg>