<svg height="1000px" width="1000px" xmlns="http://www.w3.org/2000/svg">
  <g>
    <path d="M0 910.7142857142857c0 0 0 -107.143 0 -107.143c0 -5.208 1.674 -9.486 5.022 -12.835c3.349 -3.348 7.627 -5.022 12.835 -5.022c0 0 107.143 0 107.143 0c5.208 0 9.487 1.674 12.835 5.022c3.348 3.349 5.022 7.627 5.022 12.835c0 0 0 107.143 0 107.143c0 5.208 -1.674 9.487 -5.022 12.835c-3.348 3.348 -7.627 5.022 -12.835 5.022c0 0 -107.143 0 -107.143 0c-5.208 0 -9.486 -1.674 -12.835 -5.022c-3.348 -3.348 -5.022 -7.627 -5.022 -12.835c0 0 0 0 0 0m214.286 0c0 0 0 -178.571 0 -178.571c0 -5.209 1.674 -9.487 5.022 -12.835c3.348 -3.348 7.627 -5.023 12.835 -5.023c0 0 107.143 0 107.143 0c5.208 0 9.486 1.675 12.835 5.023c3.348 3.348 5.022 7.626 5.022 12.835c0 0 0 178.571 0 178.571c0 5.208 -1.674 9.487 -5.022 12.835c-3.349 3.348 -7.627 5.022 -12.835 5.022c0 0 -107.143 0 -107.143 0c-5.208 0 -9.487 -1.674 -12.835 -5.022c-3.348 -3.348 -5.022 -7.627 -5.022 -12.835c0 0 0 0 0 0m214.285 0c0 0 0 -321.429 0 -321.429c0 -5.208 1.675 -9.486 5.023 -12.834c3.348 -3.349 7.626 -5.023 12.835 -5.023c0 0 107.142 0 107.142 0c5.209 0 9.487 1.674 12.835 5.023c3.348 3.348 5.023 7.626 5.023 12.834c0 0 0 321.429 0 321.429c0 5.208 -1.675 9.487 -5.023 12.835c-3.348 3.348 -7.626 5.022 -12.835 5.022c0 0 -107.142 0 -107.142 0c-5.209 0 -9.487 -1.674 -12.835 -5.022c-3.348 -3.348 -5.023 -7.627 -5.023 -12.835c0 0 0 0 0 0m214.286 0c0 0 0 -535.714 0 -535.714c0 -5.209 1.674 -9.487 5.022 -12.835c3.349 -3.348 7.627 -5.022 12.835 -5.022c0 0 107.143 0 107.143 0c5.208 0 9.487 1.674 12.835 5.022c3.348 3.348 5.022 7.626 5.022 12.835c0 0 0 535.714 0 535.714c0 5.208 -1.674 9.487 -5.022 12.835c-3.348 3.348 -7.627 5.022 -12.835 5.022c0 0 -107.143 0 -107.143 0c-5.208 0 -9.486 -1.674 -12.835 -5.022c-3.348 -3.348 -5.022 -7.627 -5.022 -12.835c0 0 0 0 0 0m214.286 0c0 0 0 -821.429 0 -821.429c0 -5.208 1.674 -9.486 5.022 -12.834c3.348 -3.349 7.627 -5.023 12.835 -5.023c0 0 107.143 0 107.143 0c5.208 0 9.486 1.674 12.835 5.023c3.348 3.348 5.022 7.626 5.022 12.834c0 0 0 821.429 0 821.429c0 5.208 -1.674 9.487 -5.022 12.835c-3.349 3.348 -7.627 5.022 -12.835 5.022c0 0 -107.143 0 -107.143 0c-5.208 0 -9.487 -1.674 -12.835 -5.022c-3.348 -3.348 -5.022 -7.627 -5.022 -12.835c0 0 0 0 0 0" />
  </g>
</svg>