<svg height="1000" width="1000" xmlns="http://www.w3.org/2000/svg"><path d="M0 910.7v-107.1q0-7.8 5-12.8t12.8-5h107.1q7.8 0 12.8 5t5 12.8v107.1q0 7.8-5 12.8t-12.8 5h-107.1q-7.8 0-12.8-5t-5-12.8zm214.3 0v-178.6q0-7.8 5-12.8t12.8-5h107.1q7.8 0 12.8 5t5 12.8v178.6q0 7.8-5 12.8t-12.8 5h-107.1q-7.8 0-12.8-5t-5-12.8zm214.3 0v-321.4q0-7.8 5-12.8t12.8-5h107.1q7.8 0 12.8 5t5 12.8v321.4q0 7.8-5 12.8t-12.8 5h-107.1q-7.8 0-12.8-5t-5-12.8zm214.3 0v-535.7q0-7.8 5-12.8t12.8-5h107.1q7.8 0 12.8 5t5 12.8v535.7q0 7.8-5 12.8t-12.8 5h-107.1q-7.8 0-12.8-5t-5-12.8zm214.3 0v-821.4q0-7.8 5-12.8t12.8-5h107.1q7.8 0 12.8 5t5 12.8v821.4q0 7.8-5 12.8t-12.8 5h-107.1q-7.8 0-12.8-5t-5-12.8z"/></svg>