<svg height="1000" width="1142.857" xmlns="http://www.w3.org/2000/svg"><path d="M481.554 575.92q0 -62.496 -44.361 -106.857t-106.857 -44.361 -106.578 44.361 -44.082 106.857 44.082 106.578 106.578 44.082 106.857 -44.082 44.361 -106.578zm481.554 -.558q0 -62.496 -44.082 -106.578t-106.578 -44.082 -106.857 44.082 -44.361 106.578q0 63.054 44.361 107.136t106.857 44.082 106.578 -44.361 44.082 -106.857zm179.676 -451.422v752.184q0 24.552 -17.577 42.129t-42.687 17.577h-1022.256q-25.11 0 -42.687 -17.577t-17.577 -42.129v-752.184q0 -24.552 17.577 -42.129t42.687 -17.577h240.498q24.552 0 42.408 17.577t17.856 42.129v89.838h420.732v-89.838q0 -24.552 17.856 -42.129t42.408 -17.577h240.498q25.11 0 42.687 17.577t17.577 42.129z"/></svg>