<svg height="1000" width="1142.9" xmlns="http://www.w3.org/2000/svg"><path d="M481.6 575.9q0 -62.5 -44.4 -106.9T330.4 424.7 223.8 469t-44.1 106.9 44.1 106.6 106.6 44.1 106.8 -44.1 44.4 -106.6zm481.6 -.6q0 -62.5 -44.1 -106.5T812.5 424.7t-106.9 44.1 -44.3 106.5q0 63.1 44.3 107.2t106.9 44.1 106.6 -44.4 44.1 -106.9zm179.7 -451.4v752.2q0 24.6 -17.6 42.1t-42.7 17.6H60.3q-25.1 0 -42.7 -17.6T0 876.1V123.9Q0 99.3 17.6 81.8T60.3 64.2h240.5q24.5 0 42.4 17.6t17.8 42.1v89.8h420.8v-89.8q0 -24.6 17.9 -42.1t42.4 -17.6h240.5q25.1 0 42.7 17.6t17.6 42.1z"/></svg>