<svg height="1000" width="1142.857" xmlns="http://www.w3.org/2000/svg"><path d="M797.94 325.378zm145.08 113.832q82.584 0 141.174 54.963t58.59 136.431q0 87.606 -60.822 145.917t-148.986 58.311q-47.43 0 -90.396 -15.345t-77.004 -41.013 -65.844 -59.148 -60.822 -70.587 -57.753 -73.935 -60.543 -70.308 -65.286 -59.148 -75.888 -41.013 -88.722 -15.345q-85.932 0 -140.337 51.057t-54.405 136.431q0 87.606 58.032 139.5t146.754 51.894q55.8 0 116.064 -20.925t107.694 -54.963q2.79 -2.232 11.718 -10.323t16.74 -13.392 12.276 -5.301q7.812 0 13.671 5.859t5.859 13.671q0 13.392 -33.48 42.966 -56.358 49.104 -130.851 79.236t-145.359 30.132q-74.214 0 -136.989 -32.364t-100.44 -92.07 -37.665 -134.478q0 -114.39 78.957 -190.278t193.905 -75.888q66.96 0 126.387 24.273t103.509 63.054 84.537 85.374 77.562 93.465 74.493 85.653 83.421 63.054 96.255 24.273q56.916 0 94.023 -34.317t37.107 -90.675q0 -53.01 -35.991 -88.722t-89.001 -35.712q-16.74 0 -45.477 10.323t-38.223 10.323q-11.16 0 -19.809 -8.37t-8.649 -19.53q0 -10.044 4.743 -31.806t4.743 -32.922q0 -88.722 -59.985 -146.754t-148.707 -58.032q-32.364 0 -62.217 10.323t-46.872 22.599 -30.969 22.599 -18.414 10.323q-8.37 0 -14.229 -5.859t-5.859 -14.229q0 -10.602 13.95 -25.668 32.922 -37.386 82.026 -57.753t101.556 -20.367q106.578 0 177.444 70.029t70.866 176.049q0 20.646 -2.232 36.828 31.806 -8.37 64.17 -8.37z"/></svg>