<svg height="1000" width="1142.9" xmlns="http://www.w3.org/2000/svg"><path d="M798 325.3zm145.1 113.9q82.6 0 141.2 54.9t58.6 136.5q0 87.6 -60.9 145.9t-149 58.3q-47.4 0 -90.4 -15.3t-77 -41 -65.8 -59.2T639 648.7t-57.8 -73.9 -60.6 -70.3 -65.2 -59.2 -75.9 -41T290.7 389q-85.9 0 -140.3 51T96 576.5q0 87.6 58 139.5t146.8 51.9q55.8 0 116.1 -21T524.6 692q2.7 -2.3 11.7 -10.4T553 668.2t12.3 -5.3q7.8 0 13.7 5.9t5.8 13.7q0 13.4 -33.5 42.9Q495 774.6 420.5 804.7t-145.4 30.1q-74.2 0 -137 -32.3T37.7 710.4 0 575.9Q0 461.5 79 385.6t193.9 -75.9q66.9 0 126.4 24.3t103.5 63 84.5 85.4 77.6 93.5 74.5 85.7 83.4 63 96.3 24.3q56.9 0 94 -34.3t37.1 -90.7q0 -53 -36 -88.7t-89 -35.8q-16.7 0 -45.5 10.4t-38.2 10.3q-11.1 0 -19.8 -8.4t-8.6 -19.5q0 -10.1 4.7 -31.8t4.7 -32.9q0 -88.8 -59.9 -146.8t-148.8 -58q-32.3 0 -62.2 10.3t-46.9 22.6 -30.9 22.6 -18.4 10.3q-8.4 0 -14.3 -5.9t-5.8 -14.2q0 -10.6 13.9 -25.7 32.9 -37.3 82 -57.7t101.6 -20.4q106.6 0 177.5 70.1t70.8 176q0 20.7 -2.2 36.8 31.8 -8.3 64.2 -8.3z"/></svg>