<svg height="1000" width="857.143" xmlns="http://www.w3.org/2000/svg"><path d="M654.534 593.218q0 -27.9 -10.881 -51.057t-27.063 -38.223 -40.734 -27.342 -46.035 -18.972 -48.825 -12.834l-58.032 -13.392q-16.74 -3.906 -24.552 -5.859t-19.53 -6.417 -16.74 -8.928 -9.207 -11.718 -4.185 -16.74q0 -42.966 80.352 -42.966 23.994 0 42.966 6.696t30.132 15.903 21.204 18.693 22.32 16.182 26.784 6.696q26.226 0 42.129 -17.856t15.903 -42.966q0 -30.69 -31.248 -55.521t-79.236 -37.665 -101.556 -12.834q-37.944 0 -73.656 8.649t-66.681 26.226 -49.662 48.546 -18.693 71.703q0 34.038 10.602 59.427t31.248 42.129 44.64 27.063 57.474 18.135l81.468 20.088q50.22 12.276 62.496 20.088 17.856 11.16 17.856 33.48 0 21.762 -22.32 35.991t-58.59 14.229q-28.458 0 -51.057 -8.928t-36.27 -21.483 -25.389 -25.11 -25.668 -21.483 -30.132 -8.928q-27.9 0 -42.129 16.74t-14.229 41.85q0 51.336 68.076 87.885t162.378 36.549q40.734 0 78.12 -10.323t68.355 -29.853 49.383 -52.173 18.414 -73.377zm202.554 121.086q0 88.722 -62.775 151.497t-151.497 62.775q-72.54 0 -130.572 -44.64 -42.966 8.928 -83.7 8.928 -79.794 0 -152.613 -30.969t-125.55 -83.7 -83.7 -125.55 -30.969 -152.613q0 -40.734 8.928 -83.7 -44.64 -58.032 -44.64 -130.572 0 -88.722 62.775 -151.497t151.497 -62.775q72.54 0 130.572 44.64 42.966 -8.928 83.7 -8.928 79.794 0 152.613 30.969t125.55 83.7 83.7 125.55 30.969 152.613q0 40.734 -8.928 83.7 44.64 58.032 44.64 130.572z"/></svg>