<svg height="1000" width="928.571" xmlns="http://www.w3.org/2000/svg"><path d="M847.602 433.072q34.596 0 57.753 22.599t23.157 56.637q0 54.126 -51.894 72.54l-95.976 32.922 31.248 93.186q3.906 11.718 3.906 26.226 0 32.922 -23.436 56.916t-56.358 23.994q-26.226 0 -47.709 -15.066t-29.853 -40.176l-30.69 -92.07 -172.98 59.148 30.69 91.512q4.464 13.392 4.464 26.226 0 32.922 -23.436 56.916t-56.916 23.994q-26.226 0 -47.43 -15.066t-29.574 -40.176l-30.69 -90.954 -85.374 29.574q-16.182 5.022 -27.9 5.022 -34.038 0 -56.637 -22.32t-22.599 -56.358q0 -26.226 15.345 -47.43t39.897 -29.574l87.048 -29.574 -58.59 -174.654 -87.048 30.132q-14.508 4.464 -26.784 4.464 -33.48 0 -56.358 -22.599t-22.878 -56.079q0 -26.226 15.345 -47.43t39.897 -29.574l87.606 -29.574 -29.574 -88.722q-4.464 -13.392 -4.464 -26.226 0 -33.48 23.436 -57.195t56.916 -23.715q26.226 0 47.43 15.066t29.574 40.176l30.132 89.28 172.98 -58.59 -30.132 -89.28q-4.464 -13.392 -4.464 -26.226 0 -32.922 23.715 -56.916t56.637 -23.994q26.226 0 47.709 15.345t29.853 39.897l29.574 89.838 90.396 -30.69q11.718 -3.348 23.994 -3.348 33.48 0 57.195 22.041t23.715 54.963q0 25.11 -16.74 45.477t-41.292 28.737l-87.606 30.132 58.59 176.328 91.512 -31.248q13.392 -4.464 25.668 -4.464zm-443.052 146.196l172.98 -58.59 -58.59 -175.77 -172.98 59.706z"/></svg>