<svg height="1000" width="928.6" xmlns="http://www.w3.org/2000/svg"><path d="M847.7 433q34.6 0 57.7 22.6t23.2 56.7q0 54.1 -51.9 72.5l-96 32.9 31.2 93.2q3.9 11.8 3.9 26.3 0 32.9 -23.4 56.9t-56.4 24q-26.2 0 -47.7 -15.1t-29.8 -40.2l-30.7 -92 -173 59.1 30.7 91.5q4.5 13.4 4.5 26.3 0 32.9 -23.5 56.9t-56.9 24q-26.2 0 -47.4 -15.1t-29.6 -40.2l-30.7 -90.9 -85.4 29.5q-16.2 5.1 -27.9 5.1 -34 0 -56.6 -22.4t-22.6 -56.3q0 -26.2 15.3 -47.5t39.9 -29.5l87.1 -29.6L193.1 457 106 487.2q-14.5 4.4 -26.8 4.4 -33.4 0 -56.3 -22.6T0 412.9q0 -26.2 15.3 -47.4t39.9 -29.6l87.7 -29.5 -29.6 -88.8q-4.5 -13.4 -4.5 -26.2 0 -33.5 23.5 -57.2t56.9 -23.7q26.2 0 47.4 15.1t29.6 40.1l30.1 89.3 173 -58.6 -30.1 -89.3q-4.5 -13.4 -4.5 -26.2Q434.7 48 458.4 24T515.1 0q26.2 0 47.7 15.3t29.8 39.9l29.6 89.9 90.4 -30.7q11.7 -3.4 24 -3.4 33.5 0 57.2 22.1t23.7 55q0 25.1 -16.7 45.4t-41.3 28.8l-87.6 30.1 58.6 176.3L822 437.5q13.4 -4.5 25.7 -4.5zM404.6 579.2l173 -58.6L519 344.9l-173 59.7z"/></svg>