<svg height="1000" width="857.143" xmlns="http://www.w3.org/2000/svg"><path d="M0 446.464v-35.712q0 -22.32 15.624 -37.944t37.944 -15.624h178.56q22.32 0 37.944 15.624t15.624 37.944v35.712q0 22.32 -15.624 37.944t-37.944 15.624h-178.56q-22.32 0 -37.944 -15.624t-15.624 -37.944zm71.424 464.256v-374.976h142.848v374.976q0 7.812 -5.022 12.834t-12.834 5.022h-107.136q-7.812 0 -12.834 -5.022t-5.022 -12.834zm0 -589.248v-232.128q0 -7.812 5.022 -12.834t12.834 -5.022h107.136q7.812 0 12.834 5.022t5.022 12.834v232.128h-142.848zm214.272 410.688v-35.712q0 -22.32 15.624 -37.944t37.944 -15.624h178.56q22.32 0 37.944 15.624t15.624 37.944v35.712q0 22.32 -15.624 37.944t-37.944 15.624h-178.56q-22.32 0 -37.944 -15.624t-15.624 -37.944zm71.424 89.28h142.848v89.28q0 7.812 -5.022 12.834t-12.834 5.022h-107.136q-7.812 0 -12.834 -5.022t-5.022 -12.834v-89.28zm0 -214.272v-517.824q0 -7.812 5.022 -12.834t12.834 -5.022h107.136q7.812 0 12.834 5.022t5.022 12.834v517.824h-142.848zm214.272 -303.552v-35.712q0 -22.32 15.624 -37.944t37.944 -15.624h178.56q22.32 0 37.944 15.624t15.624 37.944v35.712q0 22.32 -15.624 37.944t-37.944 15.624h-178.56q-22.32 0 -37.944 -15.624t-15.624 -37.944zm71.424 607.104v-517.824h142.848v517.824q0 7.812 -5.022 12.834t-12.834 5.022h-107.136q-7.812 0 -12.834 -5.022t-5.022 -12.834zm0 -732.096v-89.28q0 -7.812 5.022 -12.834t12.834 -5.022h107.136q7.812 0 12.834 5.022t5.022 12.834v89.28h-142.848z"/></svg>