<svg height="1000" width="857.143" xmlns="http://www.w3.org/2000/svg"><path d="M196.416 785.728v71.424h-196.416v-71.424h196.416zm196.416 -71.424q14.508 0 25.11 10.602t10.602 25.11v142.848q0 14.508 -10.602 25.11t-25.11 10.602h-142.848q-14.508 0 -25.11 -10.602t-10.602 -25.11v-142.848q0 -14.508 10.602 -25.11t25.11 -10.602h142.848zm89.28 -214.272v71.424h-482.112v-71.424h482.112zm-357.12 -285.696v71.424h-124.992v-71.424h124.992zm732.096 571.392v71.424h-410.688v-71.424h410.688zm-535.68 -642.816q14.508 0 25.11 10.602t10.602 25.11v142.848q0 14.508 -10.602 25.11t-25.11 10.602h-142.848q-14.508 0 -25.11 -10.602t-10.602 -25.11v-142.848q0 -14.508 10.602 -25.11t25.11 -10.602h142.848zm357.12 285.696q14.508 0 25.11 10.602t10.602 25.11v142.848q0 14.508 -10.602 25.11t-25.11 10.602h-142.848q-14.508 0 -25.11 -10.602t-10.602 -25.11v-142.848q0 -14.508 10.602 -25.11t25.11 -10.602h142.848zm178.56 71.424v71.424h-124.992v-71.424h124.992zm0 -285.696v71.424h-482.112v-71.424h482.112z"/></svg>