<svg height="1000" width="857.1" xmlns="http://www.w3.org/2000/svg"><path d="M196.4 785.7v71.4H0v-71.4h196.4zm196.5 -71.4q14.5 0 25.1 10.6t10.6 25.1v142.9q0 14.5 -10.6 25.1t-25.1 10.6H250q-14.5 0 -25.1 -10.6t-10.6 -25.1V750q0 -14.5 10.6 -25.1T250 714.3h142.9zM482.1 500v71.4H0V500h482.1zM125 214.3v71.4H0v-71.4h125zm732.1 571.4v71.4H446.4v-71.4h410.7zM321.4 142.9q14.5 0 25.1 10.6t10.6 25.1v142.8q0 14.5 -10.6 25.1t-25.1 10.6H178.6q-14.5 0 -25.1 -10.6t-10.6 -25.1V178.6q0 -14.5 10.6 -25.1t25.1 -10.6h142.8zm357.2 285.7q14.5 0 25.1 10.6t10.6 25.1v142.8q0 14.6 -10.6 25.2t-25.1 10.6H535.7q-14.5 0 -25.1 -10.6T500 607.1V464.3q0 -14.5 10.6 -25.1t25.1 -10.6h142.9zM857.1 500v71.4h-125V500h125zm0 -285.7v71.4H375v-71.4h482.1z"/></svg>