<svg height="1000" width="1000" xmlns="http://www.w3.org/2000/svg"><path d="M487.134 412.984q0 46.314 -35.433 79.515t-85.095 33.201 -85.095 -33.201 -35.433 -79.515q0 -46.872 35.433 -79.794t85.095 -32.922 85.095 32.922 35.433 79.794zm280.116 0q0 46.314 -35.154 79.515t-85.374 33.201q-49.662 0 -85.095 -33.201t-35.433 -79.515q0 -46.872 35.433 -79.794t85.095 -32.922q50.22 0 85.374 32.922t35.154 79.794zm125.55 100.44v-372.186q0 -48.546 -17.856 -68.913t-61.938 -20.367h-620.496q-46.314 0 -62.775 18.972t-16.461 70.308v375.534q23.994 12.834 49.383 22.32t45.198 15.624 45.198 10.323 39.618 6.138 39.06 2.232 32.643 .279 31.527 -1.116 24.831 -1.116q37.944 -.558 53.01 15.066 3.348 3.348 5.58 5.022 14.508 13.95 34.038 28.458 3.906 -50.778 65.844 -48.546 2.79 0 20.367 .837t23.994 1.116 25.389 .558 29.574 -.558 30.411 -2.511 34.038 -4.743 34.596 -7.533 37.386 -10.881 37.665 -15.066 40.176 -19.251zm90.954 -2.79q-67.518 83.142 -207.576 140.616 46.872 159.03 -12.834 259.47 -36.828 63.054 -102.114 82.584 -58.032 17.856 -101.556 -8.37 -47.988 -28.458 -45.756 -91.512l-.558 -181.908v-.558q-4.464 -1.116 -13.671 -3.348t-13.113 -2.79l-.558 188.604q2.232 63.612 -46.314 91.512 -44.082 26.226 -102.114 8.37 -65.286 -20.088 -101.556 -83.7 -58.59 -100.44 -12.276 -258.354 -140.058 -57.474 -207.576 -140.616 -13.95 -20.646 -2.232 -35.154t33.48 .558q1.674 1.116 6.138 3.906t6.138 4.464v-387.252q0 -40.176 26.226 -68.634t63.612 -28.458h701.406q37.386 0 63.612 28.458t26.226 68.634v387.252l11.718 -8.37q21.762 -15.066 33.48 -.558t-2.232 35.154z"/></svg>