<svg height="1000" width="857.143" xmlns="http://www.w3.org/2000/svg"><path d="M632.772 599.914q-20.646 67.518 -77.004 108.81t-127.224 41.292 -127.224 -41.292 -77.004 -108.81q-4.464 -13.95 2.232 -27.063t21.204 -17.577q13.95 -4.464 27.063 2.232t17.577 21.204q13.95 44.64 51.615 72.261t84.537 27.621 84.537 -27.621 51.615 -72.261q4.464 -14.508 17.856 -21.204t27.342 -2.232 20.646 17.577 2.232 27.063zm-275.652 -242.73q0 29.574 -20.925 50.499t-50.499 20.925 -50.499 -20.925 -20.925 -50.499 20.925 -50.499 50.499 -20.925 50.499 20.925 20.925 50.499zm285.696 0q0 29.574 -20.925 50.499t-50.499 20.925 -50.499 -20.925 -20.925 -50.499 20.925 -50.499 50.499 -20.925 50.499 20.925 20.925 50.499zm142.848 142.848q0 -72.54 -28.458 -138.663t-76.167 -113.832 -113.832 -76.167 -138.663 -28.458 -138.663 28.458 -113.832 76.167 -76.167 113.832 -28.458 138.663 28.458 138.663 76.167 113.832 113.832 76.167 138.663 28.458 138.663 -28.458 113.832 -76.167 76.167 -113.832 28.458 -138.663zm71.424 0q0 116.622 -57.474 215.109t-155.961 155.961 -215.109 57.474 -215.109 -57.474 -155.961 -155.961 -57.474 -215.109 57.474 -215.109 155.961 -155.961 215.109 -57.474 215.109 57.474 155.961 155.961 57.474 215.109z"/></svg>