<svg height="1000" width="857.1" xmlns="http://www.w3.org/2000/svg"><path d="M714.3 640.6q0 -12.3 -12.3 -15 -37.4 -7.9 -65.8 -32.4t-44.7 -60.8q-3.9 -7.8 -3.9 -14 0 -8.4 10.9 -14.5t23.7 -9.5T645.9 483t10.9 -20.4q0 -10.6 -10.3 -17.6T625 438.1q-6.1 0 -17.3 4.4t-17.9 4.5q-2.2 0 -6.7 -1.1 2.8 -35.2 2.8 -64.2 0 -43.5 -9.4 -63.6 -20.1 -43.5 -57.2 -67.8T434.2 226q-110.5 0 -153.5 92.1 -10.1 21.2 -10.1 64.2 0 21.2 3.4 63.6 -5.6 1.1 -8.4 1.1 -6.1 0 -17.6 -4.5t-17 -4.4q-11.1 0 -20.9 6.9t-9.8 18.2q0 11.7 10.9 19.8t23.7 11.4 23.7 9.5 10.9 14.5q0 6.2 -3.9 14 -35.7 77 -110.5 93.2 -12.2 2.7 -12.2 15 0 26.3 77 38.5 1.1 2.8 3.3 14.5t6.2 17.1 12.8 5.3q7.2 0 21.5 -2.8t21.5 -2.8q19.5 0 37.6 8.4t30.4 18.1 32.1 18.1 42.7 8.4q24 0 44.1 -8.4t32.1 -18.1 30.1 -18.1 37.7 -8.4q7.2 0 21.8 2.5t21.7 2.5q8.4 0 12.6 -5.3t6.4 -17.3 2.8 -13.7q77 -12.2 77 -38.5zM857.1 232.1v535.8q0 66.4 -47.1 113.5t-113.6 47.2H160.7q-66.4 0 -113.5 -47.2T0 767.9V232.1Q0 165.7 47.2 118.6T160.7 71.4h535.7q66.4 0 113.6 47.2t47.1 113.5z"/></svg>