<svg height="1000" width="928.6" xmlns="http://www.w3.org/2000/svg"><path d="M473.2 71.4q74.8 -.5 134.2 38.3t91.3 107.4q15 32.3 15 99.9 0 26.2 -5 106.5 7.8 4 15.6 4 10.1 0 28.5 -7.6t28.5 -7.5q16.1 0 31.2 10t15.1 25.7q0 17.9 -17.6 30.1t-38.5 17.6T733 512t-17.6 26.5q0 8.4 6.7 24 20.6 45.8 57.2 83.7t80.6 56.4q15.7 6.7 44.7 12.8 15.6 3.3 15.6 19.5 0 39.1 -122.2 57.5 -3.9 6.1 -6.1 21.8t-7.9 25.9 -18.4 10.3q-11.1 0 -34.6 -3.6t-35.7 -3.6q-20.6 0 -34.6 2.8 -17.8 2.8 -35.1 12.5t-32.4 21.2 -32.4 22.6T518.4 921t-55.2 7.6q-29 0 -53.9 -7.6t-41.8 -18.7 -32.1 -22.6T303 858.5 268.4 846q-14.5 -2.8 -35.1 -2.8 -13.4 0 -36.6 4.2t-32.6 4.2q-14 0 -19.6 -10.4t-7.8 -26.5 -6.1 -22.3Q8.4 774 8.4 734.9q0 -16.1 15.6 -19.5 29 -6.1 44.6 -12.8 43.6 -17.9 80.7 -56.4t57.2 -83.7q6.7 -15.6 6.7 -24 0 -15.6 -17.6 -26.5t-38.8 -16.5T118 478t-17.6 -29.3q0 -15.1 14.6 -25.4t30.6 -10.4q8.4 0 26.8 7.3t29.6 7.3q10.1 0 17.9 -4 -5.1 -79.2 -5.1 -106 0 -68.1 15.1 -100.4 35.7 -76.5 96 -110.5T473.2 71.4z"/></svg>