<svg height="1000" width="857.1" xmlns="http://www.w3.org/2000/svg"><path d="M713.7 640.6q0 -12.3 -12.2 -15 -37.4 -8.4 -65.9 -33T591 532.4q-3.9 -10.6 -3.9 -14 0 -8.4 10.8 -14.5t24 -9.5 24 -11.4 10.9 -20.4q0 -10.6 -10.3 -17.6T625 438.1q-6.7 0 -17.9 4.4t-17.3 4.5q-2.2 0 -6.7 -1.1 2.8 -53 2.8 -63.6 0 -44.1 -9.4 -63.7Q556.4 275.1 519 250.8t-84.8 -24.2q-111.1 0 -153.5 92 -9.5 19.6 -9.5 63.7 0 10.6 2.8 63.6 -2.2 1.1 -7.8 1.1 -6.7 0 -17.9 -4.2t-16.7 -4.2q-11.7 0 -21.5 6.7t-9.8 17.9q0 11.7 10.9 19.8t24 11.4 24 9.5 10.9 14.5q0 3.4 -3.9 14 -35.7 77 -110.5 93.2 -12.3 2.7 -12.3 15 0 25.7 76.5 38 1.1 2.8 3.3 14.5t6.4 17 13.1 5.3q6.7 0 21 -2.5t22 -2.5q19.5 0 37.4 8.4t30.1 18.1 32.1 18.1 42.7 8.4q24 0 44.1 -8.4t32.1 -18.1T534 718.8t37.4 -8.4q7.8 0 22.1 2.2t21.5 2.2q8.9 0 12.8 -5.5t6.1 -16.8 3.4 -13.9q76.4 -12.3 76.4 -38zM857.1 500q0 116.6 -57.4 215.1t-156 156 -215.1 57.5T213.4 871.1 57.5 715.1 0 500 57.5 284.9t155.9 -156T428.6 71.4t215.1 57.5 156 156T857.1 500z"/></svg>