<svg height="1000" width="928.6" xmlns="http://www.w3.org/2000/svg"><path d="M873.9 623.3l-93.2 18.4 103.8 59.8q12.8 7.2 16.4 21.4t-3.6 27.1q-7.8 12.8 -21.7 16.5t-26.8 -3.7L745 703.7l30.7 89.3q7.2 21.2 -6.7 35.4t-33.8 11.4 -27.1 -23.4L651.2 649 500 561.9v174.7l116.1 132.8q8.9 10.1 9.5 21.8t-6.2 20.4 -15.9 13.9 -20.6 3.1 -20.4 -12.3L500 844.9v119.4q0 14.5 -10.6 25.1t-25.1 10.6 -25.1 -10.6 -10.6 -25.1V844.9l-62.5 71.4q-9 10 -20.4 12.3t-20.6 -3.1 -15.9 -13.9T303 891.2t9.5 -21.8L428.6 736.6V561.9L277.3 649l-56.9 167.4q-7.2 20.7 -27 23.4t-33.8 -11.4T152.9 793l30.7 -89.3L79.8 762.8Q67 770.1 53 766.5T31.2 750Q24 737.2 27.6 722.9t16.5 -21.4l103.8 -59.8L54.7 623.3Q38.5 620 31.2 607.1t-4.7 -25.9 14.2 -22.3T68.6 553l173 34.6L392.9 500 241.6 412.4 68.6 447q-2.2 .5 -7.2 .5 -15.1 0 -24.6 -10T26.2 415.2t6.2 -24 22.3 -14.5l93.2 -18.4L44.1 298.5Q31.2 291.3 27.6 277.1T31.2 250 53 233.3t26.8 3.9l103.8 59.1L152.9 207q-7.3 -21.2 6.7 -35.4t33.8 -11.4 27 23.4L277.3 351l151.3 87.1V263.4L312.5 130.6q-8.9 -10.1 -9.5 -21.8t6.2 -20.4 15.9 -13.9 20.6 -3.1 20.4 12.3l62.5 71.4V35.7q0 -14.5 10.6 -25.1T464.3 0t25.1 10.6T500 35.7v119.4l62.5 -71.4q8.9 -10 20.4 -12.3t20.6 3.1 15.9 13.9 6.2 20.4 -9.5 21.8L500 263.4v174.7L651.2 351l56.9 -167.4q7.3 -20.7 27.1 -23.4t33.8 11.4 6.7 35.4L745 296.3l103.8 -59.1q12.8 -7.3 26.8 -3.7t21.7 16.5q7.3 12.8 3.6 27.1t-16.4 21.4l-103.8 59.8 93.2 18.4q15.1 2.8 22.3 14.5t6.1 24 -10.6 22.3 -24.5 10q-5 0 -7.3 -.5l-173 -34.6L535.7 500l151.2 87.6 173 -34.6q16.2 -3.3 27.9 5.9t14.3 22.3 -4.8 25.9 -23.4 16.2z"/></svg>