<svg height="1000" width="1000" xmlns="http://www.w3.org/2000/svg"><path d="M339.8 455.4L500 339.3l160.2 116.1 -60.9 187.5H401.2zM500 0q101.6 0 194.2 39.6t159.6 106.6 106.6 159.6T1000 500t-39.6 194.2T853.8 853.8 694.2 960.4 500 1000 305.8 960.4 146.2 853.8 39.6 694.2 0 500 39.6 305.8 146.2 146.2 305.8 39.6 500 0zm345.4 753.3Q928.6 640.1 928.6 500v-1.7L871.7 548l-134 -125 35.2 -180.3 74.8 6.7Q764 134.5 630.6 92.1l29.6 69.2L500 250 339.8 161.3l29.6 -69.2Q236 134.5 152.3 249.4l75.4 -6.7L262.3 423l-134 125L71.4 498.3v1.7q0 140.1 83.2 253.3l16.7 -73.6L353.2 702l77.6 166.3 -64.7 38.5q65.3 21.8 133.9 21.8t133.9 -21.8l-64.7 -38.5L646.8 702l181.9 -22.3z"/></svg>