<svg height="1000" width="1000" xmlns="http://www.w3.org/2000/svg"><path d="M339.822 455.392l160.146 -116.064 160.146 116.064 -60.822 187.488h-198.09zm160.146 -455.328q101.556 0 194.184 39.618t159.588 106.578 106.578 159.588 39.618 194.184 -39.618 194.184 -106.578 159.588 -159.588 106.578 -194.184 39.618 -194.184 -39.618 -159.588 -106.578 -106.578 -159.588 -39.618 -194.184 39.618 -194.184 106.578 -159.588 159.588 -106.578 194.184 -39.618zm345.402 753.3q83.142 -113.274 83.142 -253.332v-1.674l-56.916 49.662 -133.92 -124.992 35.154 -180.234 74.772 6.696q-83.7 -114.948 -217.062 -157.356l29.574 69.192 -160.146 88.722 -160.146 -88.722 29.574 -69.192q-133.362 42.408 -217.062 157.356l75.33 -6.696 34.596 180.234 -133.92 124.992 -56.916 -49.662v1.674q0 140.058 83.142 253.332l16.74 -73.656 181.908 22.32 77.562 166.284 -64.728 38.502q65.286 21.762 133.92 21.762t133.92 -21.762l-64.728 -38.502 77.562 -166.284 181.908 -22.32z"/></svg>