<svg height="1000" width="928.571" xmlns="http://www.w3.org/2000/svg"><path d="M664.578 227.728h98.766l-40.176 -121.644 -6.696 -26.226q-1.116 -8.928 -1.116 -11.16h-2.232l-1.674 11.16q0 .558 -1.953 10.044t-4.185 16.182zm-253.89 575.856q0 6.696 -5.58 13.392l-178.002 178.002q-5.58 5.022 -12.834 5.022 -6.696 0 -12.834 -5.022l-178.56 -178.56q-8.37 -8.928 -3.906 -19.53 4.464 -11.16 16.74 -11.16h107.136v-767.808q0 -7.812 5.022 -12.834t12.834 -5.022h107.136q7.812 0 12.834 5.022t5.022 12.834v767.808h107.136q7.812 0 12.834 5.022t5.022 12.834zm466.488 66.402v130.014h-325.872v-50.22l205.902 -295.182q6.696 -10.044 11.718 -15.066l6.138 -5.022v-1.674q-1.116 0 -3.627 .279t-4.185 .279q-6.696 1.674 -16.74 1.674h-129.456v64.17h-66.96v-127.782h316.386v49.662l-205.902 295.74q-3.348 4.464 -11.718 14.508l-6.138 6.138v1.116l7.812 -1.116q5.022 -1.116 16.74 -1.116h138.384v-66.402h67.518zm49.662 -500.526v59.148h-160.704v-59.148h41.85l-26.226 -80.352h-135.594l-26.226 80.352h41.85v59.148h-160.146v-59.148h39.06l128.34 -369.396h90.396l128.34 369.396h39.06z"/></svg>