<svg height="1000px" width="599.609375px" xmlns="http://www.w3.org/2000/svg">
  <g>
    <path d="M0 589.84375c0 -10.091 3.662 -18.962 10.986 -26.611c7.325 -7.65 16.032 -11.475 26.123 -11.475c0 0 524.903 0 524.903 0c10.742 0 19.775 3.744 27.099 11.231c7.325 7.487 10.987 16.438 10.987 26.855c0 10.742 -3.744 19.857 -11.231 27.344c0 0 -261.719 261.718 -261.719 261.718c-7.487 7.487 -16.601 11.231 -27.343 11.231c-10.743 0 -19.694 -3.744 -26.856 -11.231c0 0 -261.719 -261.718 -261.719 -261.718c-7.487 -7.487 -11.23 -16.602 -11.23 -27.344c0 0 0 0 0 0m0 -179.688c0 -10.742 3.743 -19.856 11.23 -27.343c0 0 261.719 -261.719 261.719 -261.719c7.487 -7.487 16.439 -11.23 26.856 -11.23c10.742 0 19.856 3.743 27.343 11.23c0 0 261.719 261.719 261.719 261.719c7.487 7.487 11.231 16.601 11.231 27.344c0 10.091 -3.662 18.961 -10.987 26.611c-7.324 7.65 -16.357 11.474 -27.099 11.474c0 0 -524.903 0 -524.903 0c-10.091 0 -18.798 -3.743 -26.123 -11.23c-7.324 -7.487 -10.986 -16.439 -10.986 -26.855c0 0 0 0 0 0" />
  </g>
</svg>