<svg height="1000" width="1000" xmlns="http://www.w3.org/2000/svg"><path d="M410.7 803.6q0 6.7 -5.6 13.4l-178 178q-5.6 5 -12.8 5 -6.7 0 -12.8 -5L22.9 816.4Q14.5 807.5 19 796.9q4.4 -11.2 16.7 -11.2h107.2V17.9q0 -7.9 5 -12.9t12.8 -5h107.2q7.8 0 12.8 5t5 12.9v767.8h107.2q7.8 0 12.8 5t5 12.9zM1000 875v107.1q0 7.9 -5 12.9t-12.9 5H517.9q-7.9 0 -12.9 -5t-5 -12.9V875q0 -7.8 5 -12.8t12.9 -5.1h464.2q7.9 0 12.9 5.1t5 12.8zM892.9 589.3v107.1q0 7.8 -5.1 12.9t-12.8 5H517.9q-7.9 0 -12.9 -5t-5 -12.9V589.3q0 -7.8 5 -12.8t12.9 -5.1H875q7.8 0 12.8 5.1t5.1 12.8zM785.7 303.6v107.1q0 7.8 -5 12.8t-12.8 5.1h-250q-7.9 0 -12.9 -5.1t-5 -12.8V303.6q0 -7.8 5 -12.9t12.9 -5h250q7.8 0 12.8 5t5 12.9zM678.6 17.9V125q0 7.8 -5.1 12.8t-12.8 5.1H517.9q-7.9 0 -12.9 -5.1T500 125V17.9Q500 10 505 5t12.9 -5h142.8q7.8 0 12.8 5t5.1 12.9z"/></svg>