<svg height="1000" width="928.6" xmlns="http://www.w3.org/2000/svg"><path d="M664.6 799.1h98.8L723.2 677.5l-6.7 -26.3q-1.1 -8.9 -1.1 -11.1h-2.2l-1.7 11.1q0 .6 -2 10.1t-4.1 16.2zm-253.9 4.5q0 6.7 -5.6 13.4l-178 178q-5.6 5 -12.8 5 -6.7 0 -12.8 -5L22.9 816.4Q14.5 807.5 19 796.9q4.4 -11.2 16.7 -11.2h107.2V17.9q0 -7.9 5 -12.9t12.8 -5h107.2q7.8 0 12.8 5t5 12.9v767.8h107.2q7.8 0 12.8 5t5 12.9zm516.2 137.2v59.2H766.2v-59.2H808l-26.2 -80.3H646.2L620 940.8h41.8v59.2H501.7v-59.2h39L669.1 571.4h90.4l128.3 369.4h39.1zM877.2 298.5v130.1H551.3v-50.3l206 -295.2q6.7 -10 11.7 -15l6.1 -5v-1.7q-1.1 0 -3.6 .3t-4.2 .2q-6.7 1.7 -16.7 1.7H621.1v64.2h-67V0h316.4v49.7L664.6 345.4q-3.3 4.5 -11.7 14.5l-6.1 5.6v1.7l7.8 -1.7q5 -.5 16.7 -.5h138.4v-66.5h67.5z"/></svg>