<svg height="1000" width="857.143" xmlns="http://www.w3.org/2000/svg"><path d="M18.972 796.888q4.464 -11.16 16.74 -11.16h107.136v-767.808q0 -7.812 5.022 -12.834t12.834 -5.022h107.136q7.812 0 12.834 5.022t5.022 12.834v767.808h107.136q7.812 0 12.834 5.022t5.022 12.834q0 6.696 -5.58 13.392l-178.002 178.002q-5.58 5.022 -12.834 5.022 -6.696 0 -12.834 -5.022l-178.56 -178.56q-8.37 -8.928 -3.906 -19.53zm508.896 -85.374q0 -58.59 40.176 -99.324t100.998 -40.734q68.634 0 114.39 52.731t45.756 140.895q0 34.596 -7.254 67.797t-22.878 63.612 -37.944 53.289 -54.963 36.549 -71.145 13.671q-34.596 0 -60.264 -8.928 -13.392 -4.464 -23.436 -8.37l21.762 -63.054q8.37 3.906 17.298 6.138 20.646 7.254 41.85 7.254 46.872 0 75.051 -32.643t37.107 -81.189h-1.116q-11.718 12.834 -34.317 20.646t-47.151 7.812q-59.148 0 -96.534 -39.897t-37.386 -96.255zm16.74 -608.22l107.136 -103.23h68.634v364.932h92.07v63.612h-261.702v-63.612h93.186v-241.056q0 -3.906 .279 -10.602t.279 -9.486v-8.928h-1.116l-3.906 6.696q-4.464 7.254 -14.508 17.298l-34.596 32.364zm60.822 608.22q0 31.806 20.367 53.01t58.311 21.204q27.9 0 47.43 -15.066t19.53 -37.944q0 -35.154 -24.552 -64.728t-57.474 -29.574q-29.016 0 -46.314 20.646t-17.298 52.452z"/></svg>