<svg height="1000" width="1000" xmlns="http://www.w3.org/2000/svg"><path d="M678.528 875.008v107.136q0 7.812 -5.022 12.834t-12.834 5.022h-142.848q-7.812 0 -12.834 -5.022t-5.022 -12.834v-107.136q0 -7.812 5.022 -12.834t12.834 -5.022h142.848q7.812 0 12.834 5.022t5.022 12.834zm-267.84 -71.424q0 6.696 -5.58 13.392l-178.002 178.002q-5.58 5.022 -12.834 5.022 -6.696 0 -12.834 -5.022l-178.56 -178.56q-8.37 -8.928 -3.906 -19.53 4.464 -11.16 16.74 -11.16h107.136v-767.808q0 -7.812 5.022 -12.834t12.834 -5.022h107.136q7.812 0 12.834 5.022t5.022 12.834v767.808h107.136q7.812 0 12.834 5.022t5.022 12.834zm374.976 -214.272v107.136q0 7.812 -5.022 12.834t-12.834 5.022h-249.984q-7.812 0 -12.834 -5.022t-5.022 -12.834v-107.136q0 -7.812 5.022 -12.834t12.834 -5.022h249.984q7.812 0 12.834 5.022t5.022 12.834zm107.136 -285.696v107.136q0 7.812 -5.022 12.834t-12.834 5.022h-357.12q-7.812 0 -12.834 -5.022t-5.022 -12.834v-107.136q0 -7.812 5.022 -12.834t12.834 -5.022h357.12q7.812 0 12.834 5.022t5.022 12.834zm107.136 -285.696v107.136q0 7.812 -5.022 12.834t-12.834 5.022h-464.256q-7.812 0 -12.834 -5.022t-5.022 -12.834v-107.136q0 -7.812 5.022 -12.834t12.834 -5.022h464.256q7.812 0 12.834 5.022t5.022 12.834z"/></svg>