<svg height="1000" width="928.6" xmlns="http://www.w3.org/2000/svg"><path d="M664.6 227.7h98.8L723.2 106l-6.7 -26.2q-1.1 -8.9 -1.1 -11.2h-2.2l-1.7 11.2q0 .6 -2 10t-4.1 16.2zM410.7 803.6q0 6.7 -5.6 13.4l-178 178q-5.6 5 -12.8 5 -6.7 0 -12.8 -5L22.9 816.4Q14.5 807.5 19 796.9q4.4 -11.2 16.7 -11.2h107.2V17.9q0 -7.9 5 -12.9t12.8 -5h107.2q7.8 0 12.8 5t5 12.9v767.8h107.2q7.8 0 12.8 5t5 12.9zM877.2 870v130H551.3v-50.2l206 -295.2Q764 644.5 769 639.5l6.1 -5v-1.7q-1.1 0 -3.6 .3t-4.2 .3q-6.7 1.6 -16.7 1.6H621.1v64.2h-67V571.4h316.4v49.7L664.6 916.9q-3.3 4.4 -11.7 14.5l-6.1 6.1v1.1l7.8 -1.1q5 -1.1 16.7 -1.1h138.4V870h67.5zm49.7 -500.6v59.2H766.2v-59.2H808l-26.2 -80.3H646.2L620 369.4h41.8v59.2H501.7v-59.2h39L669.1 0h90.4l128.3 369.4h39.1z"/></svg>