<svg height="1000" width="857.1" xmlns="http://www.w3.org/2000/svg"><path d="M751.1 161.3q0 -35.2 -24.5 -64.8T669.1 67q-29 0 -46.3 20.6t-17.3 52.5 20.3 53 58.4 21.2q27.9 0 47.4 -15.1t19.5 -37.9zM410.7 803.6q0 6.7 -5.6 13.4l-178 178q-5.6 5 -12.8 5 -6.7 0 -12.8 -5L22.9 816.4Q14.5 807.5 19 796.9q4.4 -11.2 16.7 -11.2h107.2V17.9q0 -7.9 5 -12.9t12.8 -5h107.2q7.8 0 12.8 5t5 12.9v767.8h107.2q7.8 0 12.8 5t5 12.9zm401.8 132.8v63.6H550.8v-63.6H644V695.3q0 -3.9 .3 -10.6t.2 -9.5v-8.9h-1.1l-3.9 6.7q-4.5 7.2 -14.5 17.3l-34.6 32.4 -45.8 -48L651.8 571.4h68.6v365h92.1zm16.7 -742.8q0 34.6 -7.2 67.8t-22.9 63.7 -37.9 53.2 -55 36.6T635 428.6q-34.6 0 -60.2 -9 -13.4 -4.4 -23.5 -8.3l21.8 -63.1q8.4 3.9 17.3 6.2 20.6 7.2 41.9 7.2 46.8 0 75 -32.6t37.1 -81.2h-1.1q-11.7 12.8 -34.3 20.6t-47.2 7.8q-59.1 0 -96.5 -39.9t-37.4 -96.2q0 -58.6 40.2 -99.4T669.1 0q68.6 0 114.4 52.7t45.7 140.9z"/></svg>