<svg height="1000" width="857.1" xmlns="http://www.w3.org/2000/svg"><path d="M751.1 732.7q0 -35.2 -24.5 -64.7t-57.5 -29.6q-29 0 -46.3 20.6t-17.3 52.5 20.3 53 58.4 21.2q27.9 0 47.4 -15.1t19.5 -37.9zm-340.4 70.9q0 6.7 -5.6 13.4l-178 178q-5.6 5 -12.8 5 -6.7 0 -12.8 -5L22.9 816.4Q14.5 807.5 19 796.9q4.4 -11.2 16.7 -11.2h107.2V17.9q0 -7.9 5 -12.9t12.8 -5h107.2q7.8 0 12.8 5t5 12.9v767.8h107.2q7.8 0 12.8 5t5 12.9zm418.5 -38.5q0 34.6 -7.2 67.8t-22.9 63.6 -37.9 53.3 -55 36.5T635 1000q-34.6 0 -60.2 -8.9 -13.4 -4.5 -23.5 -8.4l21.8 -63.1q8.4 3.9 17.3 6.2 20.6 7.2 41.9 7.2 46.8 0 75 -32.6t37.1 -81.2h-1.1Q731.6 832 709 839.8t-47.2 7.9q-59.1 0 -96.5 -39.9t-37.4 -96.3q0 -58.6 40.2 -99.3t101 -40.8q68.6 0 114.4 52.8t45.7 140.9zM812.5 365v63.6H550.8V365H644V123.9q0 -3.9 .3 -10.6t.2 -9.5v-8.9h-1.1l-3.9 6.7q-4.5 7.2 -14.5 17.3l-34.6 32.3 -45.8 -48L651.8 0h68.6v365h92.1z"/></svg>