<svg height="1000" width="1285.714" xmlns="http://www.w3.org/2000/svg"><path d="M437.472 765.64l8.928 -134.478 -8.928 -291.834q-.558 -5.58 -4.185 -9.486t-9.207 -3.906q-5.022 0 -8.928 3.906t-3.906 9.486l-7.812 291.834 7.812 134.478q.558 5.58 4.185 9.207t8.649 3.627q12.276 0 13.392 -12.834zm165.168 -16.182l6.138 -117.738 -6.696 -326.988q0 -8.928 -7.254 -13.392 -4.464 -2.79 -8.928 -2.79t-8.928 2.79q-7.254 4.464 -7.254 13.392l-.558 3.348 -5.58 323.082q0 .558 6.138 131.688v.558q0 5.58 3.348 9.486 5.022 6.138 12.834 6.138 6.138 0 11.16 -5.022 5.022 -3.906 5.022 -11.16zm-583.11 -189.72l11.16 71.424 -11.16 70.308q-1.116 5.022 -5.022 5.022t-5.022 -5.022l-9.486 -70.308 9.486 -71.424q1.116 -5.022 5.022 -5.022t5.022 5.022zm47.988 -44.082l14.508 115.506 -14.508 113.274q-1.116 5.022 -5.58 5.022 -5.022 0 -5.022 -5.58l-12.834 -112.716 12.834 -115.506q0 -5.022 5.022 -5.022 4.464 0 5.58 5.022zm156.24 252.774zm-104.904 -273.978l13.95 136.71 -13.95 132.246q0 6.138 -6.138 6.138 -5.58 0 -6.696 -6.138l-11.718 -132.246 11.718 -136.71q1.116 -6.696 6.696 -6.696 6.138 0 6.138 6.696zm52.452 -3.906l12.834 140.616 -12.834 136.152q-1.116 7.254 -7.812 7.254 -7.254 0 -7.254 -7.254l-11.718 -136.152 11.718 -140.616q0 -7.254 7.254 -7.254 6.696 0 7.812 7.254zm52.452 10.044l11.718 130.572 -11.718 137.268q-1.116 8.928 -8.928 8.928 -3.348 0 -5.859 -2.511t-2.511 -6.417l-11.16 -137.268 11.16 -130.572q0 -3.348 2.511 -5.859t5.859 -2.511q7.812 0 8.928 8.37zm213.714 265.05zm-161.262 -346.518l11.718 212.04 -11.718 137.268q0 3.906 -2.79 6.975t-6.696 3.069q-8.928 0 -10.044 -10.044l-10.044 -137.268 10.044 -212.04q1.116 -10.044 10.044 -10.044 3.906 0 6.696 3.069t2.79 6.975zm52.452 -47.988l10.602 261.144 -10.602 136.152q0 4.464 -3.069 7.533t-7.533 3.069q-10.044 0 -11.16 -10.602l-8.928 -136.152 8.928 -261.144q1.116 -10.602 11.16 -10.602 4.464 0 7.533 3.069t3.069 7.533zm54.684 -22.32l10.044 282.348 -10.044 135.036q-1.116 11.718 -12.276 11.718 -10.602 0 -11.718 -11.718l-8.928 -135.036 8.928 -282.348q0 -5.022 3.627 -8.649t8.091 -3.627q5.022 0 8.37 3.627t3.906 8.649zm218.736 414.036zm-110.484 -416.268l8.37 284.58 -8.37 133.362q0 5.58 -4.185 9.765t-9.765 4.185 -9.486 -3.906 -4.464 -10.044l-7.812 -133.362 7.812 -284.58q0 -6.138 4.185 -10.044t9.765 -3.906 9.765 3.906 4.185 10.044zm55.242 10.602l7.812 274.536 -7.812 131.688q0 6.138 -4.464 10.602t-10.602 4.464 -10.602 -4.464 -5.022 -10.602l-6.696 -131.688 6.696 -274.536q.558 -6.696 5.022 -11.16t10.602 -4.464 10.323 4.464 4.743 11.16zm118.296 274.536l-7.812 128.898q0 7.254 -5.022 12.276t-12.276 5.022 -12.276 -5.022 -5.58 -12.276l-3.348 -63.612 -3.348 -65.286 6.696 -354.888v-1.674q1.116 -8.37 6.696 -13.392 5.022 -3.906 11.16 -3.906 4.464 0 8.37 2.79 7.812 4.464 8.928 14.508zm620.496 -10.602q0 65.286 -46.314 111.321t-111.6 46.035h-438.588q-7.254 -1.116 -12.276 -6.138t-5.022 -12.276v-501.642q0 -12.834 15.624 -18.414 47.43 -18.972 100.998 -18.972 108.81 0 188.604 73.377t89.28 180.513q29.574 -12.276 61.38 -12.276 65.286 0 111.6 46.314t46.314 112.158z"/></svg>