<svg height="1000" width="1285.7" xmlns="http://www.w3.org/2000/svg"><path d="M437.5 765.6l8.9 -134.5 -8.9 -291.8q-.6 -5.6 -4.2 -9.5t-9.2 -3.9q-5 0 -8.9 3.9t-3.9 9.5l-7.8 291.8 7.8 134.5q.5 5.6 4.2 9.2t8.6 3.7q12.3 0 13.4 -12.9zm165.2 -16.2l6.1 -117.7 -6.7 -327q0 -8.9 -7.2 -13.4 -4.5 -2.8 -9 -2.8t-8.9 2.8q-7.2 4.5 -7.2 13.4l-.6 3.3 -5.6 323.1q0 .6 6.2 131.7v.6q0 5.6 3.3 9.5 5 6.1 12.8 6.1 6.2 0 11.2 -5 5 -3.9 5 -11.2zM19.5 559.7l11.2 71.4 -11.2 70.4q-1.1 5 -5 5t-5 -5L0 631.1l9.5 -71.4q1.1 -5 5 -5t5 5zm48 -44.1L82 631.1 67.5 744.4q-1.1 5 -5.6 5 -5 0 -5 -5.5L44.1 631.1 56.9 515.6q0 -5 5 -5 4.5 0 5.6 5zm156.3 252.8zm-104.9 -274l13.9 136.7 -13.9 132.3q0 6.1 -6.2 6.1 -5.6 0 -6.7 -6.1L94.3 631.1 106 494.4q1.1 -6.7 6.7 -6.7 6.2 0 6.2 6.7zm52.4 -3.9l12.9 140.6 -12.9 136.2q-1.1 7.3 -7.8 7.3 -7.2 0 -7.2 -7.3L144.5 631.1l11.8 -140.6q0 -7.2 7.2 -7.2 6.7 0 7.8 7.2zm52.5 10.1l11.7 130.5 -11.7 137.3q-1.1 8.9 -9 8.9 -3.3 0 -5.8 -2.5t-2.5 -6.4L195.3 631.1l11.2 -130.5q0 -3.4 2.5 -5.9t5.8 -2.5q7.9 0 9 8.4zm213.7 265zM276.2 419.1l11.7 212 -11.7 137.3q0 3.9 -2.8 7t-6.7 3.1q-8.9 0 -10 -10.1l-10 -137.3 10 -212q1.1 -10.1 10 -10.1 3.9 0 6.7 3.1t2.8 7zm52.5 -48l10.6 261.2 -10.6 136.1q0 4.5 -3.1 7.5t-7.5 3.1q-10.1 0 -11.2 -10.6L298 632.3l8.9 -261.2q1.1 -10.6 11.2 -10.6 4.4 0 7.5 3.1t3.1 7.5zm54.7 -22.3l10 282.3 -10 135.1q-1.1 11.7 -12.3 11.7 -10.6 0 -11.7 -11.7l-9 -135.1 9 -282.3q0 -5 3.6 -8.7t8.1 -3.6q5 0 8.4 3.6t3.9 8.7zm218.7 414zM491.6 346.5l8.4 284.6 -8.4 133.4q0 5.6 -4.2 9.8t-9.7 4.2 -9.5 -3.9 -4.5 -10.1l-7.8 -133.4 7.8 -284.6q0 -6.1 4.2 -10t9.8 -3.9 9.7 3.9 4.2 10zm55.3 10.6l7.8 274.6 -7.8 131.7q0 6.1 -4.5 10.6t-10.6 4.5T521.2 774t-5 -10.6l-6.7 -131.7 6.7 -274.6q.5 -6.7 5 -11.1t10.6 -4.5 10.3 4.5 4.8 11.1zm118.3 274.6l-7.8 128.9q0 7.3 -5.1 12.3t-12.2 5 -12.3 -5 -5.6 -12.3L618.9 697l-3.4 -65.3 6.7 -354.9v-1.7q1.1 -8.4 6.7 -13.4 5 -3.9 11.2 -3.9 4.4 0 8.3 2.8 7.9 4.5 9 14.5zm620.5 -10.6q0 65.3 -46.3 111.3t-111.6 46.1H689.2q-7.3 -1.2 -12.3 -6.2t-5 -12.3V258.4q0 -12.9 15.6 -18.4 47.4 -19 101 -19 108.8 0 188.6 73.4t89.3 180.5q29.6 -12.3 61.4 -12.3 65.3 0 111.6 46.3t46.3 112.2z"/></svg>