<svg height="1000" width="1214.3" xmlns="http://www.w3.org/2000/svg"><path d="M346 625q-61.4 35.7 -149.6 35.7H125V625H89.3Q82 625 76.7 611.9t-5.3 -31.5q0 -13.4 3.9 -27.4Q43 551.9 21.5 547.2T0 535.7t21.5 -11.4 53.8 -5.9q-3.9 -13.9 -3.9 -27.3 0 -18.4 5.3 -31.6t12.6 -13.1H125v-35.7h71.4q88.2 0 149.6 35.7h621.1q23.4 3.9 59.4 10.1t44.9 7.8q49.7 8.4 83.7 22.6t46.6 26.5 12.6 22.3 -12.6 22.3 -46.6 26.5 -83.7 22.6q-8.9 1.7 -44.9 7.9t-59.4 10H346zM970.4 484.4q29.6 20.1 29.6 51.3t-29.6 51.4l45.2 16.7q38 -26.8 38 -68.1t-38 -68.1zM348.8 633.9h566.4q-121.1 21.2 -254.5 44.7 -31.8 0 -63 13.4t-46.4 26.8l-15.6 13.3L375 892.9q-14.5 14.5 -39.3 25.1t-50 10.6h-53.6l-51.9 -259h16.2q87.6 0 152.4 -35.7zM196.4 401.8h-16.2l51.9 -258.9h53.6q25.7 0 50.2 10.6t39.1 25.1l160.7 160.7q2.2 2.2 6.2 5.8t17 12.9 27 16.2 34.4 12.8 40.4 5.9l254.5 44.6H348.8Q284 401.8 196.4 401.8z"/></svg>