<svg height="1000" width="1214.286" xmlns="http://www.w3.org/2000/svg"><path d="M345.96 625.024q-61.38 35.712 -149.544 35.712h-71.424v-35.712h-35.712q-7.254 0 -12.555 -13.113t-5.301 -31.527q0 -13.392 3.906 -27.342 -32.364 -1.116 -53.847 -5.859t-21.483 -11.439 21.483 -11.439 53.847 -5.859q-3.906 -13.95 -3.906 -27.342 0 -18.414 5.301 -31.527t12.555 -13.113h35.712v-35.712h71.424q88.164 0 149.544 35.712h621.054q23.436 3.906 59.427 10.044t44.919 7.812q49.662 8.37 83.7 22.599t46.593 26.505 12.555 22.32 -12.555 22.32 -46.593 26.505 -83.7 22.599q-8.928 1.674 -44.919 7.812t-59.427 10.044h-621.054zm624.402 -140.616q29.574 20.088 29.574 51.336t-29.574 51.336l45.198 16.74q37.944 -26.784 37.944 -68.076t-37.944 -68.076zm-621.612 149.544h566.37q-121.086 21.204 -254.448 44.64 -31.806 0 -63.054 13.392t-46.314 26.784l-15.624 13.392 -160.704 160.704q-14.508 14.508 -39.339 25.11t-49.941 10.602h-53.568l-51.894 -258.912h16.182q87.606 0 152.334 -35.712zm-152.334 -232.128h-16.182l51.894 -258.912h53.568q25.668 0 50.22 10.602t39.06 25.11l160.704 160.704q2.232 2.232 6.138 5.859t17.019 12.834 27.063 16.182 34.317 12.834 40.455 5.859l254.448 44.64h-566.37q-64.728 -35.712 -152.334 -35.712z"/></svg>