<svg height="1000" width="875" xmlns="http://www.w3.org/2000/svg"><path d="M0 500.032q0 -36.828 26.226 -63.054t63.054 -26.226 63.054 26.226 26.226 63.054 -26.226 63.054 -63.054 26.226 -63.054 -26.226 -26.226 -63.054zm98.208 -249.984q0 -40.734 28.737 -69.471t69.471 -28.737 69.471 28.737 28.737 69.471 -28.737 69.471 -69.471 28.737 -69.471 -28.737 -28.737 -69.471zm17.856 499.968q0 -33.48 23.436 -56.916t56.916 -23.436q32.922 0 56.637 23.436t23.715 56.916 -23.715 56.916 -56.637 23.436q-33.48 0 -56.916 -23.436t-23.436 -56.916zm223.2 -607.104q0 -44.64 31.248 -75.888t75.888 -31.248 75.888 31.248 31.248 75.888 -31.248 75.888 -75.888 31.248 -75.888 -31.248 -31.248 -75.888zm35.712 714.24q0 -29.574 20.925 -50.499t50.499 -20.925 50.499 20.925 20.925 50.499 -20.925 50.499 -50.499 20.925 -50.499 -20.925 -20.925 -50.499zm258.912 -107.136q0 -25.668 18.414 -44.082t44.082 -18.414 44.082 18.414 18.414 44.082 -18.414 44.082 -44.082 18.414 -44.082 -18.414 -18.414 -44.082zm17.856 -499.968q0 -18.414 13.113 -31.527t31.527 -13.113 31.527 13.113 13.113 31.527 -13.113 31.527 -31.527 13.113 -31.527 -13.113 -13.113 -31.527zm98.208 249.984q0 -22.32 15.624 -37.944t37.944 -15.624 37.944 15.624 15.624 37.944 -15.624 37.944 -37.944 15.624 -37.944 -15.624 -15.624 -37.944z"/></svg>