<svg height="1000" width="875" xmlns="http://www.w3.org/2000/svg"><path d="M276.768 750.016q0 33.48 -23.715 56.916t-56.637 23.436q-33.48 0 -56.916 -23.436t-23.436 -56.916 23.436 -56.916 56.916 -23.436q32.922 0 56.637 23.436t23.715 56.916zm241.056 107.136q0 29.574 -20.925 50.499t-50.499 20.925 -50.499 -20.925 -20.925 -50.499 20.925 -50.499 50.499 -20.925 50.499 20.925 20.925 50.499zm-339.264 -357.12q0 36.828 -26.226 63.054t-63.054 26.226 -63.054 -26.226 -26.226 -63.054 26.226 -63.054 63.054 -26.226 63.054 26.226 26.226 63.054zm580.32 249.984q0 25.668 -18.414 44.082t-44.082 18.414 -44.082 -18.414 -18.414 -44.082 18.414 -44.082 44.082 -18.414 44.082 18.414 18.414 44.082zm-464.256 -499.968q0 40.734 -28.737 69.471t-69.471 28.737 -69.471 -28.737 -28.737 -69.471 28.737 -69.471 69.471 -28.737 69.471 28.737 28.737 69.471zm258.912 -107.136q0 44.64 -31.248 75.888t-75.888 31.248 -75.888 -31.248 -31.248 -75.888 31.248 -75.888 75.888 -31.248 75.888 31.248 31.248 75.888zm303.552 357.12q0 22.32 -15.624 37.944t-37.944 15.624 -37.944 -15.624 -15.624 -37.944 15.624 -37.944 37.944 -15.624 37.944 15.624 15.624 37.944zm-116.064 -249.984q0 18.414 -13.113 31.527t-31.527 13.113 -31.527 -13.113 -13.113 -31.527 13.113 -31.527 31.527 -13.113 31.527 13.113 13.113 31.527z"/></svg>