<svg height="1000px" width="875px" xmlns="http://www.w3.org/2000/svg">
  <g>
    <path d="M741.0714285714286 250c0 12.277 -4.371 22.786 -13.114 31.529c-8.742 8.743 -19.252 13.114 -31.529 13.114c-12.277 0 -22.786 -4.371 -31.529 -13.114c-8.742 -8.743 -13.114 -19.252 -13.114 -31.529c0 -12.277 4.372 -22.786 13.114 -31.529c8.743 -8.743 19.252 -13.114 31.529 -13.114c12.277 0 22.787 4.371 31.529 13.114c8.743 8.743 13.114 19.252 13.114 31.529c0 0 0 0 0 0m116.071 250c0 14.881 -5.208 27.53 -15.625 37.946c-10.416 10.417 -23.065 15.625 -37.946 15.625c-14.881 0 -27.53 -5.208 -37.946 -15.625c-10.417 -10.416 -15.625 -23.065 -15.625 -37.946c0 -14.881 5.208 -27.53 15.625 -37.946c10.416 -10.417 23.065 -15.625 37.946 -15.625c14.881 0 27.53 5.208 37.946 15.625c10.417 10.416 15.625 23.065 15.625 37.946c0 0 0 0 0 0m-303.571 -357.143c0 29.762 -10.417 55.06 -31.25 75.893c-20.833 20.833 -46.131 31.25 -75.893 31.25c-29.762 0 -55.059 -10.417 -75.893 -31.25c-20.833 -20.833 -31.25 -46.131 -31.25 -75.893c0 -29.762 10.417 -55.059 31.25 -75.893c20.834 -20.833 46.131 -31.25 75.893 -31.25c29.762 0 55.06 10.417 75.893 31.25c20.833 20.834 31.25 46.131 31.25 75.893c0 0 0 0 0 0m-258.929 107.143c0 27.158 -9.579 50.316 -28.738 69.475c-19.16 19.16 -42.318 28.739 -69.476 28.739c-27.158 0 -50.316 -9.579 -69.475 -28.739c-19.16 -19.159 -28.739 -42.317 -28.739 -69.475c0 -27.158 9.579 -50.316 28.739 -69.475c19.159 -19.16 42.317 -28.739 69.475 -28.739c27.158 0 50.316 9.579 69.476 28.739c19.159 19.159 28.738 42.317 28.738 69.475c0 0 0 0 0 0m464.286 500c0 17.113 -6.138 31.808 -18.415 44.085c-12.277 12.277 -26.972 18.415 -44.085 18.415c-17.113 0 -31.808 -6.138 -44.085 -18.415c-12.276 -12.277 -18.415 -26.972 -18.415 -44.085c0 -17.113 6.139 -31.808 18.415 -44.085c12.277 -12.277 26.972 -18.415 44.085 -18.415c17.113 0 31.808 6.138 44.085 18.415c12.277 12.277 18.415 26.972 18.415 44.085c0 0 0 0 0 0m-580.357 -250c0 24.554 -8.743 45.573 -26.228 63.058c-17.485 17.485 -38.504 26.228 -63.058 26.228c-24.553 0 -45.573 -8.743 -63.058 -26.228c-17.485 -17.485 -26.227 -38.504 -26.227 -63.058c0 -24.554 8.742 -45.573 26.227 -63.058c17.485 -17.485 38.505 -26.228 63.058 -26.228c24.554 0 45.573 8.743 63.058 26.228c17.485 17.485 26.228 38.504 26.228 63.058c0 0 0 0 0 0m339.286 357.143c0 19.717 -6.976 36.551 -20.927 50.502c-13.951 13.951 -30.785 20.926 -50.502 20.926c-19.717 0 -36.551 -6.975 -50.502 -20.926c-13.951 -13.951 -20.926 -30.785 -20.926 -50.502c0 -19.717 6.975 -36.551 20.926 -50.502c13.951 -13.951 30.785 -20.927 50.502 -20.927c19.717 0 36.551 6.976 50.502 20.927c13.951 13.951 20.927 30.785 20.927 50.502c0 0 0 0 0 0m-241.072 -107.143c0 22.321 -7.905 41.295 -23.716 56.92c-15.439 15.625 -34.319 23.437 -56.641 23.437c-22.321 0 -41.295 -7.812 -56.92 -23.437c-15.625 -15.625 -23.437 -34.599 -23.437 -56.92c0 -22.321 7.812 -41.295 23.437 -56.92c15.625 -15.625 34.599 -23.437 56.92 -23.437c22.322 0 41.295 7.812 56.92 23.437c15.625 15.625 23.437 34.599 23.437 56.92c0 0 0 0 0 0" />
  </g>
</svg>