<svg height="1000" width="1000" xmlns="http://www.w3.org/2000/svg"><path d="M293.5 777.9q0 29.6 -20.9 50.5t-50.5 20.9q-29 0 -50.2 -21.2t-21.2 -50.2q0 -29.6 20.9 -50.5t50.5 -20.9 50.5 20.9 20.9 50.5zm277.9 115q0 29.5 -20.9 50.5T500 964.3t-50.5 -20.9 -20.9 -50.5 20.9 -50.5 50.5 -21 50.5 21 20.9 50.5zM178.6 500q0 29.6 -21 50.5t-50.5 20.9T56.6 550.5 35.7 500t20.9 -50.5 50.5 -20.9 50.5 20.9 21 50.5zm670.7 277.9q0 29 -21.2 50.2t-50.2 21.2q-29.6 0 -50.5 -20.9t-20.9 -50.5 20.9 -50.5 50.5 -20.9 50.5 20.9 20.9 50.5zM311.4 222.1q0 36.8 -26.2 63.1t-63.1 26.2T159 285.2t-26.2 -63.1T159 159t63.1 -26.2 63.1 26.2 26.2 63.1zM964.3 500q0 29.6 -20.9 50.5t-50.5 20.9 -50.5 -20.9 -21 -50.5 21 -50.5 50.5 -20.9 50.5 20.9 20.9 50.5zM607.1 107.1q0 44.7 -31.2 75.9T500 214.3 424.1 183t-31.2 -75.9 31.2 -75.8T500 0t75.9 31.3 31.2 75.8zm295.8 115q0 51.9 -36.8 88.4t-88.2 36.6q-51.9 0 -88.4 -36.6t-36.6 -88.4q0 -51.3 36.6 -88.2t88.4 -36.8q51.3 0 88.2 36.8t36.8 88.2z"/></svg>