<svg height="1000" width="1000" xmlns="http://www.w3.org/2000/svg"><path d="M293.508 777.916q0 29.574 -20.925 50.499t-50.499 20.925q-29.016 0 -50.22 -21.204t-21.204 -50.22q0 -29.574 20.925 -50.499t50.499 -20.925 50.499 20.925 20.925 50.499zm277.884 114.948q0 29.574 -20.925 50.499t-50.499 20.925 -50.499 -20.925 -20.925 -50.499 20.925 -50.499 50.499 -20.925 50.499 20.925 20.925 50.499zm-392.832 -392.832q0 29.574 -20.925 50.499t-50.499 20.925 -50.499 -20.925 -20.925 -50.499 20.925 -50.499 50.499 -20.925 50.499 20.925 20.925 50.499zm670.716 277.884q0 29.016 -21.204 50.22t-50.22 21.204q-29.574 0 -50.499 -20.925t-20.925 -50.499 20.925 -50.499 50.499 -20.925 50.499 20.925 20.925 50.499zm-537.912 -555.768q0 36.828 -26.226 63.054t-63.054 26.226 -63.054 -26.226 -26.226 -63.054 26.226 -63.054 63.054 -26.226 63.054 26.226 26.226 63.054zm652.86 277.884q0 29.574 -20.925 50.499t-50.499 20.925 -50.499 -20.925 -20.925 -50.499 20.925 -50.499 50.499 -20.925 50.499 20.925 20.925 50.499zm-357.12 -392.832q0 44.64 -31.248 75.888t-75.888 31.248 -75.888 -31.248 -31.248 -75.888 31.248 -75.888 75.888 -31.248 75.888 31.248 31.248 75.888zm295.74 114.948q0 51.894 -36.828 88.443t-88.164 36.549q-51.894 0 -88.443 -36.549t-36.549 -88.443q0 -51.336 36.549 -88.164t88.443 -36.828q51.336 0 88.164 36.828t36.828 88.164z"/></svg>