<svg height="1000" width="875" xmlns="http://www.w3.org/2000/svg"><path d="M0 500q0-36.8 26.2-63.1t63.1-26.2 63.1 26.2 26.2 63.1-26.2 63.1-63.1 26.2-63.1-26.2-26.2-63.1zm98.2-250q0-40.7 28.7-69.5t69.5-28.7 69.5 28.7 28.7 69.5-28.7 69.5-69.5 28.7-69.5-28.7-28.7-69.5zm17.9 500q0-33.5 23.4-56.9t56.9-23.4q32.9 0 56.6 23.4t23.7 56.9-23.7 56.9-56.6 23.4q-33.5 0-56.9-23.4t-23.4-56.9zm223.2-607.1q0-44.6 31.2-75.9t75.9-31.2 75.9 31.2 31.2 75.9-31.2 75.9-75.9 31.2-75.9-31.2-31.2-75.9zm35.7 714.2q0-29.6 20.9-50.5t50.5-20.9 50.5 20.9 20.9 50.5-20.9 50.5-50.5 20.9-50.5-20.9-20.9-50.5zm258.9-107.1q0-25.7 18.4-44.1t44.1-18.4 44.1 18.4 18.4 44.1-18.4 44.1-44.1 18.4-44.1-18.4-18.4-44.1zm17.9-500q0-18.4 13.1-31.5t31.5-13.1 31.5 13.1 13.1 31.5-13.1 31.5-31.5 13.1-31.5-13.1-13.1-31.5zm98.2 250q0-22.3 15.6-37.9t37.9-15.6 37.9 15.6 15.6 37.9-15.6 37.9-37.9 15.6-37.9-15.6-15.6-37.9z"/></svg>