<svg height="1000" width="857.143" xmlns="http://www.w3.org/2000/svg"><path d="M628.866 675.244q0 -17.856 -16.74 -28.458 -107.694 -64.17 -249.426 -64.17 -74.214 0 -160.146 18.972 -23.436 5.022 -23.436 29.016 0 11.16 7.533 19.251t19.809 8.091q2.79 0 20.646 -4.464 73.656 -15.066 135.594 -15.066 126.108 0 221.526 57.474 10.602 6.138 18.414 6.138 10.602 0 18.414 -7.533t7.812 -19.251zm53.568 -119.97q0 -22.32 -19.53 -34.038 -132.246 -78.678 -305.784 -78.678 -85.374 0 -169.074 23.436 -26.784 7.254 -26.784 35.712 0 13.95 9.765 23.715t23.715 9.765q3.906 0 20.646 -4.464 68.076 -18.414 140.058 -18.414 155.682 0 272.304 69.192 13.392 7.254 21.204 7.254 13.95 0 23.715 -9.765t9.765 -23.715zm60.264 -138.384q0 -26.226 -22.32 -39.06 -70.308 -40.734 -163.494 -61.659t-191.394 -20.925q-113.832 0 -203.112 26.226 -12.834 3.906 -21.483 14.229t-8.649 27.063q0 17.298 11.439 29.016t28.737 11.718q6.138 0 22.32 -4.464 74.214 -20.646 171.306 -20.646 88.722 0 172.701 18.972t141.453 53.01q11.718 6.696 22.32 6.696 16.182 0 28.179 -11.439t11.997 -28.737zm114.39 83.142q0 116.622 -57.474 215.109t-155.961 155.961 -215.109 57.474 -215.109 -57.474 -155.961 -155.961 -57.474 -215.109 57.474 -215.109 155.961 -155.961 215.109 -57.474 215.109 57.474 155.961 155.961 57.474 215.109z"/></svg>