<svg height="1000" width="857.1" xmlns="http://www.w3.org/2000/svg"><path d="M628.9 675.2q0 -17.8 -16.7 -28.4Q504.5 582.6 362.7 582.6q-74.2 0 -160.1 19 -23.5 5 -23.5 29 0 11.1 7.6 19.2t19.8 8.1q2.8 0 20.6 -4.4 73.7 -15.1 135.6 -15.1 126.1 0 221.6 57.5 10.6 6.1 18.4 6.1 10.6 0 18.4 -7.5t7.8 -19.3zm53.6 -120q0 -22.3 -19.6 -34Q530.7 442.5 357.1 442.5q-85.3 0 -169 23.5 -26.8 7.2 -26.8 35.7 0 13.9 9.7 23.7t23.8 9.8q3.9 0 20.6 -4.5 68.1 -18.4 140.1 -18.4 155.7 0 272.3 69.2 13.4 7.2 21.2 7.2 13.9 0 23.7 -9.7t9.8 -23.8zm60.2 -138.3q0 -26.3 -22.3 -39.1Q650.1 337.1 556.9 316.1T365.5 295.2q-113.8 0 -203.1 26.2 -12.8 3.9 -21.5 14.3t-8.6 27q0 17.3 11.4 29t28.7 11.8q6.2 0 22.4 -4.5Q269 378.3 366.1 378.3q88.7 0 172.7 19t141.4 53q11.8 6.7 22.4 6.7 16.1 0 28.1 -11.4t12 -28.7zM857.1 500q0 116.6 -57.4 215.1t-156 156 -215.1 57.5T213.4 871.1 57.5 715.1 0 500 57.5 284.9t155.9 -156T428.6 71.4t215.1 57.5 156 156T857.1 500z"/></svg>