<svg height="1000" width="785.714" xmlns="http://www.w3.org/2000/svg"><path d="M517.824 781.822v84.258l-394.506 .558v-84.258zm134.478 -193.068v391.158l-.558 19.53v.558h-631.656l-19.53 -.558h-.558v-410.688h67.518v344.844h517.824v-344.844h66.96zm-517.824 49.104l392.832 36.27 -7.254 83.7 -393.39 -36.27zm37.944 -176.328l381.114 102.114 -21.762 81.468 -381.114 -102.114zm90.954 -194.742l339.822 200.88 -42.966 72.54 -339.822 -200.88zm200.88 -184.698l222.084 326.43 -69.192 47.43 -222.642 -325.872zm252.774 -82.026l67.518 388.926 -83.142 14.508 -67.518 -388.926z"/></svg>