<svg height="1000" width="785.714" xmlns="http://www.w3.org/2000/svg"><path d="M0 999.442v-410.688h67.518v344.844h517.824v-344.844h66.96v391.158l-.558 19.53v.558h-631.656l-19.53 -.558h-.558zm123.318 -132.804v-84.258l394.506 -.558v84.258zm3.348 -145.08l7.812 -83.7 392.832 36.27 -7.254 83.7zm23.994 -178.56l21.762 -81.468 381.114 102.114 -21.762 81.468zm69.75 -203.67l42.966 -72.54 339.822 200.88 -42.966 72.54zm174.096 -209.25l69.75 -47.988 222.084 326.43 -69.192 47.43zm239.382 -115.506l83.142 -14.508 67.518 388.926 -83.142 14.508z"/></svg>