<svg height="1000" width="928.571" xmlns="http://www.w3.org/2000/svg"><path d="M661.788 534.07l143.406 -139.5 -198.648 -29.016 -36.828 -5.58 -16.74 -33.48 -88.722 -179.676v537.354l32.922 17.298 177.444 93.744 -33.48 -198.09 -6.696 -36.828zm252.216 -146.196l-202.554 197.532 47.988 279q2.79 18.414 -3.348 28.737t-18.972 10.323q-9.486 0 -22.32 -6.696l-250.542 -131.688 -250.542 131.688q-12.834 6.696 -22.32 6.696 -12.834 0 -18.972 -10.323t-3.348 -28.737l47.988 -279 -203.112 -197.532q-17.856 -17.856 -12.834 -33.201t30.132 -19.251l280.116 -40.734 125.55 -253.89q11.16 -22.878 27.342 -22.878 15.624 0 27.342 22.878l125.55 253.89 280.116 40.734q25.11 3.906 30.132 19.251t-13.392 33.201z"/></svg>