<svg height="1000px" width="500px" xmlns="http://www.w3.org/2000/svg">
  <g>
    <path d="M0 361.0491071428571c0 -13.765 10.417 -22.321 31.25 -25.67c0 0 280.134 -40.736 280.134 -40.736c0 0 125.558 -253.906 125.558 -253.906c7.068 -15.253 16.183 -22.88 27.344 -22.88c0 0 0 747.21 0 747.21c0 0 -250.558 131.696 -250.558 131.696c-8.185 4.465 -15.625 6.697 -22.322 6.697c-15.625 0 -23.437 -9.301 -23.437 -27.902c0 -2.232 0.372 -5.952 1.116 -11.161c0 0 47.991 -279.018 47.991 -279.018c0 0 -203.125 -197.544 -203.125 -197.544c-9.301 -10.045 -13.951 -18.974 -13.951 -26.786c0 0 0 0 0 0" />
  </g>
</svg>