<svg height="1000px" width="786.3421020507812px" xmlns="http://www.w3.org/2000/svg">
  <g>
    <path d="M0 410c3 -8.667 11.5 -14 25.5 -16c0 0 238 -34 238 -34c0 0 106 -216 106 -216c6 -12.667 13.667 -19 23 -19c9.333 0 17 6.333 23 19c0 0 107 216 107 216c0 0 237 34 237 34c14.667 2 23.333 7.333 26 16c2.667 8.667 -1 18 -11 28c0 0 -172 168 -172 168c0 0 40 236 40 236c2 10.667 1.333 18.833 -2 24.5c-3.333 5.667 -8.667 8.5 -16 8.5c-4.667 0 -11 -1.667 -19 -5c0 0 -213 -112 -213 -112c0 0 -212 112 -212 112c-8 3.333 -14.333 5 -19 5c-7.333 0 -12.667 -2.833 -16 -8.5c-3.333 -5.667 -4.333 -13.833 -3 -24.5c0 0 41 -236 41 -236c0 0 -172 -168 -172 -168c-10.667 -10 -14.5 -19.333 -11.5 -28c0 0 0 0 0 0m135.5 44c0 0 100 98 100 98c0 0 29 27 29 27c0 0 -7 39 -7 39c0 0 -24 139 -24 139c0 0 124 -66 124 -66c0 0 35 -18 35 -18c0 0 35 18 35 18c0 0 124 66 124 66c0 0 -23 -139 -23 -139c0 0 -7 -39 -7 -39c0 0 28 -27 28 -27c0 0 101 -98 101 -98c0 0 -139 -20 -139 -20c0 0 -39 -6 -39 -6c0 0 -18 -35 -18 -35c0 0 -62 -126 -62 -126c0 0 -62 126 -62 126c0 0 -17 35 -17 35c0 0 -39 6 -39 6c0 0 -139 20 -139 20" />
  </g>
</svg>