<svg height="1000px" width="928.5714285714286px" xmlns="http://www.w3.org/2000/svg">
  <g>
    <path d="M191.40625 903.4598214285714c-15.625 0 -23.438 -9.301 -23.438 -27.902c0 -2.232 0.373 -5.952 1.117 -11.16c0 0 47.991 -279.018 47.991 -279.018c0 0 -203.125 -197.545 -203.125 -197.545c-9.301 -10.045 -13.951 -18.973 -13.951 -26.786c0 -13.765 10.416 -22.321 31.25 -25.669c0 0 280.134 -40.737 280.134 -40.737c0 0 125.558 -253.906 125.558 -253.906c7.068 -15.253 16.183 -22.88 27.343 -22.88c11.161 0 20.276 7.627 27.344 22.88c0 0 125.558 253.906 125.558 253.906c0 0 280.134 40.737 280.134 40.737c20.834 3.348 31.25 11.904 31.25 25.669c0 8.185 -4.836 17.113 -14.509 26.786c0 0 -202.567 197.545 -202.567 197.545c0 0 47.991 279.018 47.991 279.018c0.372 2.604 0.558 6.324 0.558 11.16c0 18.601 -7.626 27.902 -22.879 27.902c-7.069 0 -14.509 -2.232 -22.322 -6.696c0 0 -250.558 -131.697 -250.558 -131.697c0 0 -250.558 131.697 -250.558 131.697c-8.184 4.464 -15.625 6.696 -22.321 6.696c0 0 0 0 0 0m443.08 -343.192c0 0 170.759 -165.737 170.759 -165.737c0 0 -235.491 -34.598 -235.491 -34.598c0 0 -105.469 -213.169 -105.469 -213.169c0 0 -105.468 213.169 -105.468 213.169c0 0 -235.491 34.598 -235.491 34.598c0 0 170.759 165.737 170.759 165.737c0 0 -40.737 234.933 -40.737 234.933c0 0 210.937 -111.049 210.937 -111.049c0 0 210.38 111.049 210.38 111.049c0 0 -40.179 -234.933 -40.179 -234.933" />
  </g>
</svg>