<svg height="1000px" width="786.3421020507812px" xmlns="http://www.w3.org/2000/svg">
  <g>
    <path d="M0 410.375c3 -8.667 11.5 -14 25.5 -16c0 0 238 -35 238 -35c0 0 106 -215 106 -215c6.667 -13.333 14.5 -20 23.5 -20c9 0 16.5 6.667 22.5 20c0 0 107 215 107 215c0 0 237 35 237 35c14.667 2 23.333 7.333 26 16c2.667 8.667 -1 18 -11 28c0 0 -172 168 -172 168c0 0 40 236 40 236c2.667 14.667 0.333 24.667 -7 30c-7.333 5.333 -17.333 4.333 -30 -3c0 0 -213 -111 -213 -111c0 0 -212 111 -212 111c-13.333 7.333 -23.667 8.333 -31 3c-7.333 -5.333 -9.667 -15.333 -7 -30c0 0 41 -236 41 -236c0 0 -172 -168 -172 -168c-10.667 -10 -14.5 -19.333 -11.5 -28c0 0 0 0 0 0" />
  </g>
</svg>