<svg height="1000" width="928.571" xmlns="http://www.w3.org/2000/svg"><path d="M928.512 361.09q0 12.276 -14.508 26.784l-202.554 197.532 47.988 279q.558 3.906 .558 11.16 0 11.718 -5.859 19.809t-17.019 8.091q-10.602 0 -22.32 -6.696l-250.542 -131.688 -250.542 131.688q-12.276 6.696 -22.32 6.696 -11.718 0 -17.577 -8.091t-5.859 -19.809q0 -3.348 1.116 -11.16l47.988 -279 -203.112 -197.532q-13.95 -15.066 -13.95 -26.784 0 -20.646 31.248 -25.668l280.116 -40.734 125.55 -253.89q10.602 -22.878 27.342 -22.878t27.342 22.878l125.55 253.89 280.116 40.734q31.248 5.022 31.248 25.668z"/></svg>