<svg height="1000px" width="817.8591728210449px" xmlns="http://www.w3.org/2000/svg">
  <g>
    <path d="M0 406.4791277050972c2.93 -8.952 11.719 -14.404 26.367 -16.357c0 0 247.071 -36.133 247.071 -36.133c0 0 110.839 -224.121 110.839 -224.121c6.511 -13.347 14.486 -20.02 23.926 -20.02c9.44 0 17.578 6.673 24.414 20.02c0 0 110.84 224.121 110.84 224.121c0 0 247.07 36.133 247.07 36.133c14.649 1.953 23.438 7.405 26.368 16.357c2.929 8.952 -0.814 18.799 -11.231 29.541c0 0 -179.199 173.828 -179.199 173.828c0 0 41.992 246.094 41.992 246.094c2.604 14.648 0.081 24.821 -7.568 30.517c-7.65 5.697 -18.148 4.802 -31.494 -2.685c0 0 -220.704 -115.723 -220.704 -115.723c0 0 -221.191 115.723 -221.191 115.723c-13.346 7.487 -23.844 8.382 -31.494 2.685c-7.65 -5.696 -10.173 -15.869 -7.569 -30.517c0 0 41.993 -246.094 41.993 -246.094c0 0 -177.735 -173.828 -177.735 -173.828c-11.393 -10.742 -15.625 -20.589 -12.695 -29.541c0 0 0 0 0 0" />
  </g>
</svg>