<svg height="1000px" width="928.5714285714286px" xmlns="http://www.w3.org/2000/svg">
  <g>
    <path d="M0 361.0491071428571c0 -13.765 10.417 -22.321 31.25 -25.67c0 0 280.134 -40.736 280.134 -40.736c0 0 125.558 -253.906 125.558 -253.906c7.068 -15.253 16.183 -22.88 27.344 -22.88c11.16 0 20.275 7.627 27.343 22.88c0 0 125.558 253.906 125.558 253.906c0 0 280.134 40.736 280.134 40.736c20.834 3.349 31.25 11.905 31.25 25.67c0 8.185 -4.836 17.113 -14.509 26.786c0 0 -202.566 197.544 -202.566 197.544c0 0 47.991 279.018 47.991 279.018c0.372 2.604 0.558 6.325 0.558 11.161c0 18.601 -7.627 27.902 -22.88 27.902c-7.068 0 -14.509 -2.232 -22.321 -6.697c0 0 -250.558 -131.696 -250.558 -131.696c0 0 -250.558 131.696 -250.558 131.696c-8.185 4.465 -15.625 6.697 -22.322 6.697c-7.812 0 -13.672 -2.697 -17.578 -8.092c-3.906 -5.394 -5.859 -11.998 -5.859 -19.81c0 -2.232 0.372 -5.952 1.116 -11.161c0 0 47.991 -279.018 47.991 -279.018c0 0 -203.125 -197.544 -203.125 -197.544c-9.301 -10.045 -13.951 -18.974 -13.951 -26.786c0 0 0 0 0 0m123.326 33.482c0 0 170.759 165.737 170.759 165.737c0 0 -40.737 234.933 -40.737 234.933c0 0 210.938 -111.049 210.938 -111.049c0 0 210.379 111.049 210.379 111.049c0 0 -40.178 -234.933 -40.178 -234.933c0 0 170.759 -165.737 170.759 -165.737c0 0 -235.492 -34.598 -235.492 -34.598c0 0 -105.468 -213.17 -105.468 -213.17c0 0 -105.469 213.17 -105.469 213.17c0 0 -235.491 34.598 -235.491 34.598" />
  </g>
</svg>