<svg height="1000px" width="817.87109375px" xmlns="http://www.w3.org/2000/svg">
  <g>
    <path d="M0 412.109375c0 -7.487 3.011 -12.695 9.033 -15.625c6.022 -2.93 11.963 -5.046 17.822 -6.348c0 0 247.071 -36.132 247.071 -36.132c0 0 110.84 -224.122 110.84 -224.122c1.953 -4.557 5.208 -9.033 9.765 -13.427c4.558 -4.395 9.44 -6.592 14.649 -6.592c5.859 0 10.823 2.197 14.892 6.592c4.069 4.394 7.08 8.87 9.033 13.427c0 0 110.84 224.122 110.84 224.122c0 0 247.071 36.132 247.071 36.132c5.859 1.302 11.8 3.418 17.822 6.348c6.022 2.93 9.033 8.138 9.033 15.625c0 4.557 -1.139 8.87 -3.418 12.939c-2.279 4.069 -5.045 7.732 -8.301 10.987c0 0 -179.199 173.828 -179.199 173.828c0 0 41.992 246.094 41.992 246.094c0 1.302 0.163 2.767 0.489 4.394c0.325 1.628 0.488 3.581 0.488 5.86c0 6.51 -1.465 12.125 -4.395 16.845c-2.929 4.72 -8.138 7.08 -15.625 7.08c-7.487 0 -14.16 -2.116 -20.019 -6.347c0 0 -220.703 -115.723 -220.703 -115.723c0 0 -221.192 115.723 -221.192 115.723c-5.859 3.906 -12.207 6.022 -19.043 6.347c-7.487 0 -12.858 -2.36 -16.113 -7.08c-3.255 -4.72 -4.883 -10.335 -4.883 -16.845c0 -1.954 0.163 -3.825 0.488 -5.616c0.326 -1.79 0.489 -3.336 0.489 -4.638c0 0 41.992 -246.094 41.992 -246.094c0 0 -177.734 -173.828 -177.734 -173.828c-3.256 -3.255 -6.267 -6.918 -9.034 -10.987c-2.767 -4.069 -4.15 -8.382 -4.15 -12.939c0 0 0 0 0 0m141.113 40.039c0 0 133.789 130.859 133.789 130.859c0 0 -31.738 184.082 -31.738 184.082c0 0 166.016 -86.914 166.016 -86.914c0 0 166.015 86.914 166.015 86.914c0 0 -32.226 -184.082 -32.226 -184.082c0 0 133.789 -130.859 133.789 -130.859c0 0 -184.571 -27.344 -184.571 -27.344c0 0 -83.007 -167.968 -83.007 -167.968c0 0 -83.008 167.968 -83.008 167.968c0 0 -185.059 27.344 -185.059 27.344" />
  </g>
</svg>