<svg height="1000" width="928.6" xmlns="http://www.w3.org/2000/svg"><path d="M634.5 560.3L805.2 394.5 569.8 359.9 464.3 146.8 358.8 359.9l-235.5 34.6 170.8 165.8 -40.8 234.9 211 -111 210.4 111zM928.6 361q0 12.3 -14.5 26.8L711.5 585.4l48 279q.5 3.9 .5 11.2 0 27.9 -22.8 27.9 -10.6 0 -22.4 -6.7L464.3 765.1 213.7 896.8q-12.2 6.7 -22.3 6.7 -11.7 0 -17.6 -8.1T168 875.6q0 -3.4 1.1 -11.2l48 -279L14 387.8Q0 372.8 0 361q0 -20.6 31.2 -25.6l280.2 -40.8L436.9 40.7q10.6 -22.8 27.4 -22.8t27.3 22.8l125.6 253.9 280.1 40.8q31.3 5 31.3 25.6z"/></svg>