<svg height="1000px" width="500px" xmlns="http://www.w3.org/2000/svg">
  <g>
    <path d="M191.40625 903.4598214285714c-15.625 0 -23.438 -9.301 -23.438 -27.902c0 -2.232 0.373 -5.952 1.117 -11.16c0 0 47.991 -279.018 47.991 -279.018c0 0 -203.125 -197.545 -203.125 -197.545c-9.301 -10.045 -13.951 -18.973 -13.951 -26.786c0 -13.765 10.416 -22.321 31.25 -25.669c0 0 280.134 -40.737 280.134 -40.737c0 0 125.558 -253.906 125.558 -253.906c7.068 -15.253 16.183 -22.88 27.343 -22.88c0 0 0 747.21 0 747.21c0 0 -250.558 131.697 -250.558 131.697c-8.184 4.464 -15.625 6.696 -22.321 6.696c0 0 0 0 0 0" />
  </g>
</svg>