<svg height="1000" width="928.6" xmlns="http://www.w3.org/2000/svg"><path d="M661.8 534L805.2 394.5l-198.6 -29 -36.8 -5.6L553 326.5 464.3 146.8v537.4l32.9 17.3 177.5 93.7L641.2 597.1l-6.7 -36.8zM914.1 387.8L711.5 585.4l48 279q2.8 18.4 -3.4 28.7t-18.9 10.4q-9.5 0 -22.4 -6.7L464.3 765.1 213.7 896.8q-12.8 6.7 -22.3 6.7 -12.8 0 -19 -10.4t-3.3 -28.7l48 -279L14 387.8Q-3.9 370 1.1 354.6t30.1 -19.2l280.2 -40.8L436.9 40.7q11.2 -22.8 27.4 -22.8 15.6 0 27.3 22.8l125.6 253.9 280.1 40.8q25.1 3.9 30.2 19.2t-13.4 33.2z"/></svg>