<svg height="1000px" width="408.69140625px" xmlns="http://www.w3.org/2000/svg">
  <g>
    <path d="M0.48828125 406.3984677195549c2.93 -8.952 11.719 -14.404 26.367 -16.357c0 0 247.071 -36.133 247.071 -36.133c0 0 110.839 -224.121 110.839 -224.121c7.487 -13.347 15.625 -20.02 24.414 -20.02c0 0 0 658.203 0 658.203c0 0 -221.191 115.723 -221.191 115.723c-13.346 7.487 -23.844 8.545 -31.494 3.174c-7.65 -5.371 -10.173 -15.707 -7.568 -31.006c0 0 41.992 -246.094 41.992 -246.094c0 0 -177.735 -173.828 -177.735 -173.828c-11.393 -10.742 -15.625 -20.589 -12.695 -29.541c0 0 0 0 0 0" />
  </g>
</svg>