<svg height="1000" width="1142.857" xmlns="http://www.w3.org/2000/svg"><path d="M0 430.84q0 -47.988 34.038 -81.747t81.468 -33.759q40.734 0 72.54 25.668t40.734 65.286l436.914 175.77q27.342 -16.182 59.148 -16.182 7.812 0 11.718 .558l96.534 -138.384q.558 -63.612 45.756 -108.531t108.81 -44.919q64.17 0 109.647 45.198t45.477 109.368 -45.477 109.647 -109.647 45.477l-147.87 108.252q-4.464 44.64 -37.665 74.493t-77.283 29.853q-40.734 0 -72.54 -25.668t-40.734 -65.286l-436.914 -175.77q-28.458 16.74 -59.148 16.74 -47.43 0 -81.468 -34.038t-34.038 -82.026zm30.69 0q0 35.712 24.831 60.543t59.985 24.831q6.138 0 18.414 -2.232l-35.712 -14.508q-18.414 -7.812 -29.295 -24.831t-10.881 -37.107q0 -27.9 19.809 -47.709t47.709 -19.809q11.16 0 22.878 4.464v-.558l42.408 17.298q-11.16 -20.646 -31.527 -32.922t-43.803 -12.276q-35.154 0 -59.985 24.831t-24.831 59.985zm618.822 290.16q10.602 20.646 30.969 32.922t44.361 12.276q35.154 0 59.985 -24.831t24.831 -59.985 -24.831 -60.264 -59.985 -25.11q-7.254 0 -18.414 2.232 1.116 .558 11.16 4.464t11.997 4.743 10.323 4.743 10.602 5.58 8.928 6.138 8.649 7.533 6.138 8.091 5.58 10.044 2.79 11.718 1.395 13.95q0 27.9 -19.809 47.709t-47.709 19.809q-7.812 0 -17.577 -2.511t-16.182 -5.022 -17.577 -7.533 -15.624 -6.696zm234.36 -291.834q0 42.966 30.411 73.377t73.377 30.411 73.656 -30.411 30.69 -73.377 -30.69 -73.377 -73.656 -30.411q-42.408 0 -73.098 30.411t-30.69 73.377zm21.762 0q0 -34.596 24.273 -58.869t58.311 -24.273 58.59 24.552 24.552 58.59 -24.273 58.311 -58.869 24.273q-34.038 0 -58.311 -24.273t-24.273 -58.311z"/></svg>