<svg height="1000" width="1000" xmlns="http://www.w3.org/2000/svg"><path d="M882.756 324.82q0 56.358 -39.897 96.255t-96.255 39.897 -96.255 -39.897 -39.897 -96.255 39.897 -96.255 96.255 -39.897 96.255 39.897 39.897 96.255zm-429.66 414.036q0 -58.032 -40.734 -98.766t-98.766 -40.734q-15.066 0 -30.132 3.348l58.032 23.436q42.966 17.298 61.101 59.427t.837 84.537q-17.298 42.966 -59.706 60.822t-84.816 .558q-11.718 -4.464 -34.596 -13.671t-34.038 -13.671q17.856 33.48 50.778 53.847t72.54 20.367q58.032 0 98.766 -40.734t40.734 -98.766zm463.14 -413.478q0 -70.308 -49.941 -120.249t-120.249 -49.941q-70.866 0 -120.807 49.941t-49.941 120.249q0 70.866 49.941 120.528t120.807 49.662q70.308 0 120.249 -49.662t49.941 -120.528zm83.7 0q0 105.462 -74.493 179.676t-179.397 74.214l-243.846 178.002q-6.696 71.982 -60.822 121.644t-127.782 49.662q-67.518 0 -119.412 -42.408t-65.844 -107.136l-128.34 -51.336v-239.382l217.062 87.606q44.082 -26.784 96.534 -26.784 7.254 0 19.53 1.116l158.472 -227.106q1.116 -104.346 75.609 -178.002t178.839 -73.656q104.904 0 179.397 74.493t74.493 179.397z"/></svg>