<svg height="1000" width="857.1" xmlns="http://www.w3.org/2000/svg"><path d="M693.1 361q0 -44.6 -31.8 -76.1t-76.5 -31.6 -76.2 31.9T477.1 361q0 44.7 31.5 76.2t76.2 31.5 76.5 -31.5T693.1 361zM352.7 689.2q0 46.3 -32.4 78.4t-78.1 32.1q-31.3 0 -57.5 -16.2t-40.2 -43q29 11.2 54.7 22.3 33.5 13.4 67 -.8t47.4 -48.3q13.4 -33.5 -.8 -66.9t-48.3 -46.9l-45.7 -18.4q12.2 -2.8 23.4 -2.8 45.7 0 78.1 32.1t32.4 78.4zM857.1 232.1v535.8q0 66.4 -47.1 113.5t-113.6 47.2H160.7q-66.4 0 -113.5 -47.2T0 767.9v-85.4L96 721q11.1 51.3 52.2 84.8t94 33.5q58 0 101 -39.1t48.5 -96.5L584.3 563.1q83.7 0 142.5 -58.9t58.9 -142q0 -83.7 -58.9 -142.6T584.3 160.7q-82.6 0 -141.2 58.3t-59.7 140.9L257.8 539.6q-5 -.5 -15.6 -.5 -41.9 0 -76.5 20.6L0 493.3V232.1Q0 165.7 47.2 118.6T160.7 71.4h535.7q66.4 0 113.6 47.2t47.1 113.5zM719.3 362.2q0 55.8 -39.6 95.1t-95.4 39.4 -95.2 -39.4 -39.3 -95.1 39.3 -95.5 95.2 -39.6q56.3 0 95.7 39.4t39.3 95.7z"/></svg>