<svg height="1000" width="857.143" xmlns="http://www.w3.org/2000/svg"><path d="M0 767.872v-535.68q0 -66.402 47.151 -113.553t113.553 -47.151h535.68q66.402 0 113.553 47.151t47.151 113.553v535.68q0 66.402 -47.151 113.553t-113.553 47.151h-535.68q-66.402 0 -113.553 -47.151t-47.151 -113.553zm71.424 -297.414q0 29.574 21.204 50.778t51.336 21.204q20.088 0 36.828 -10.044l272.862 109.926q5.58 24.552 25.389 40.734t45.477 16.182q27.9 0 48.267 -18.972t23.157 -46.314l93.186 -68.076q39.618 0 68.076 -28.179t28.458 -68.355 -28.458 -68.634 -68.076 -28.458q-40.176 0 -68.355 28.179t-28.737 67.797l-60.264 86.49q-1.116 0 -3.627 -.279t-3.627 -.279q-19.53 0 -37.386 10.602l-272.862 -109.926q-5.58 -24.552 -25.389 -40.734t-44.919 -16.182q-30.132 0 -51.336 21.204t-21.204 51.336zm18.972 0q0 -22.32 15.624 -37.944t37.944 -15.624q15.066 0 27.621 7.812t19.251 20.646l-26.784 -10.602q-16.182 -6.138 -31.527 1.116t-21.483 22.878q-6.696 16.182 -.279 31.806t22.041 22.32v.558l22.32 8.928q-7.812 1.116 -11.16 1.116 -22.32 0 -37.944 -15.345t-15.624 -37.665zm386.694 180.792q2.79 1.116 26.226 10.602 16.182 6.696 32.364 -.279t22.878 -23.157q6.138 -16.182 -.558 -32.085t-22.878 -22.599l-22.32 -8.928q7.812 -1.116 11.718 -1.116 21.762 0 37.386 15.345t15.624 37.665 -15.624 37.665 -37.386 15.345q-32.922 0 -47.43 -28.458zm146.754 -181.908q0 -26.784 18.972 -45.756t46.314 -18.972q26.784 0 45.756 18.972t18.972 45.756 -18.972 45.756 -45.756 18.972q-27.342 0 -46.314 -18.972t-18.972 -45.756zm13.392 -.558q0 21.762 15.345 36.828t36.549 15.066 36.549 -15.066 15.345 -36.828q0 -21.204 -15.345 -36.549t-36.549 -15.345 -36.549 15.345 -15.345 36.549z"/></svg>