<svg height="1000" width="1000" xmlns="http://www.w3.org/2000/svg"><path d="M882.8 324.8q0 56.3 -39.9 96.2t-96.2 39.9T650.4 421t-39.9 -96.2 39.9 -96.3 96.3 -39.9 96.2 39.9 39.9 96.3zm-429.7 414q0 -58 -40.7 -98.7t-98.8 -40.8q-15.1 0 -30.1 3.4l58 23.4q43 17.3 61.1 59.4t.9 84.6q-17.3 43 -59.8 60.8t-84.8 .6Q247.2 827 224.3 817.8t-34 -13.7q17.8 33.5 50.8 53.9t72.5 20.3q58.1 0 98.8 -40.7t40.7 -98.8zM916.3 325.3q0 -70.3 -49.9 -120.2t-120.3 -50q-70.9 0 -120.8 50t-50 120.2q0 70.9 50 120.6t120.8 49.6q70.3 0 120.3 -49.6t49.9 -120.6zm83.7 0q0 105.5 -74.5 179.7t-179.4 74.2L502.2 757.3q-6.7 71.9 -60.8 121.6t-127.8 49.7q-67.5 0 -119.4 -42.4T128.3 779L0 727.7V488.3l217.1 87.6q44.1 -26.8 96.5 -26.8 7.3 0 19.5 1.1L491.6 323.1q1.1 -104.4 75.6 -178T746.1 71.4q104.9 0 179.4 74.5t74.5 179.4z"/></svg>