<svg height="1000" width="857.143" xmlns="http://www.w3.org/2000/svg"><path d="M693.036 361.09q0 -44.64 -31.806 -76.167t-76.446 -31.527 -76.167 31.806 -31.527 75.888q0 44.64 31.527 76.167t76.167 31.527 76.446 -31.527 31.806 -76.167zm-340.38 328.104q0 46.314 -32.364 78.399t-78.12 32.085q-31.248 0 -57.474 -16.182t-40.176 -42.966q29.016 11.16 54.684 22.32 33.48 13.392 66.96 -.837t47.43 -48.267q13.392 -33.48 -.837 -66.96t-48.267 -46.872l-45.756 -18.414q12.276 -2.79 23.436 -2.79 45.756 0 78.12 32.085t32.364 78.399zm504.432 -457.002v535.68q0 66.402 -47.151 113.553t-113.553 47.151h-535.68q-66.402 0 -113.553 -47.151t-47.151 -113.553v-85.374l95.976 38.502q11.16 51.336 52.173 84.816t94.023 33.48q58.032 0 100.998 -39.06t48.546 -96.534l192.51 -140.616q83.7 0 142.569 -58.869t58.869 -142.011q0 -83.7 -58.869 -142.569t-142.569 -58.869q-82.584 0 -141.174 58.311t-59.706 140.895l-125.55 179.676q-5.022 -.558 -15.624 -.558 -41.85 0 -76.446 20.646l-165.726 -66.402v-261.144q0 -66.402 47.151 -113.553t113.553 -47.151h535.68q66.402 0 113.553 47.151t47.151 113.553zm-137.826 130.014q0 55.8 -39.618 95.139t-95.418 39.339 -95.139 -39.339 -39.339 -95.139 39.339 -95.418 95.139 -39.618q56.358 0 95.697 39.339t39.339 95.697z"/></svg>