<svg height="1000" width="785.7" xmlns="http://www.w3.org/2000/svg"><path d="M714.3 392.9q0 -14.6 -10.6 -25.2t-25.1 -10.6 -25.1 10.6 -10.6 25.2 10.6 25.1 25.1 10.6T703.7 418t10.6 -25.1zm71.4 0q0 34.6 -19.8 61.9t-51.6 39.1v220.4q0 88.7 -73.4 151.5t-176.6 62.8T287.7 865.8 214.3 714.3v-73.7Q122.8 629.5 61.4 569.2T0 428.6V142.9q0 -14.6 10.6 -25.2t25.1 -10.6q3.4 0 8.9 1.2Q54.1 91.5 70.9 81.5t36.2 -10.1q29.6 0 50.5 21t21 50.5 -21 50.5 -50.5 20.9q-18.4 0 -35.7 -10.1v224.4q0 59.1 52.5 101T250 571.4t126.1 -41.8 52.5 -101V204.2q-17.3 10.1 -35.7 10.1 -29.6 0 -50.5 -20.9t-21 -50.5 21 -50.5 50.5 -21q19.5 0 36.2 10.1t26.3 26.8q5.5 -1.2 8.9 -1.2 14.5 0 25.1 10.6t10.6 25.2v285.7q0 80.3 -61.4 140.6t-152.9 71.4v73.7q0 59.1 52.5 101t126.1 41.8 126.1 -41.8 52.5 -101V493.9Q611 482.1 591.2 454.8t-19.8 -61.9q0 -44.7 31.3 -75.9t75.9 -31.3 75.9 31.3 31.2 75.9z"/></svg>