<svg height="1000" width="785.7" xmlns="http://www.w3.org/2000/svg"><path d="M0 428.6v-285.7q0-14.5 10.6-25.1t25.1-10.6q3.3 0 8.9 1.1 9.5-16.7 26.2-26.8t36.3-10q29.6 0 50.5 20.9t20.9 50.5-20.9 50.5-50.5 20.9q-18.4 0-35.7-10v224.3q0 59.1 52.5 101t126.1 41.9 126.1-41.9 52.5-101v-224.3q-17.3 10-35.7 10-29.6 0-50.5-20.9t-20.9-50.5 20.9-50.5 50.5-20.9q19.5 0 36.3 10t26.2 26.8q5.6-1.1 8.9-1.1 14.5 0 25.1 10.6t10.6 25.1v285.7q0 80.4-61.4 140.6t-152.9 71.4v73.7q0 59.1 52.5 101t126.1 41.9 126.1-41.9 52.5-101v-220.4q-31.8-11.7-51.6-39.1t-19.8-61.9q0-44.6 31.2-75.9t75.9-31.2 75.9 31.2 31.2 75.9q0 34.6-19.8 61.9t-51.6 39.1v220.4q0 88.7-73.4 151.5t-176.6 62.8-176.6-62.8-73.4-151.5v-73.7q-91.5-11.2-152.9-71.4t-61.4-140.6zm642.8-35.7q0 14.5 10.6 25.1t25.1 10.6 25.1-10.6 10.6-25.1-10.6-25.1-25.1-10.6-25.1 10.6-10.6 25.1z"/></svg>