<svg height="1000px" width="785.7142857142858px" xmlns="http://www.w3.org/2000/svg">
  <g>
    <path d="M392.8571428571429 71.42857142857133c27.902 0 48.735 12.277 62.5 36.83c3.72 -0.744 8.557 -1.116 14.509 -1.116c5.952 0 12.463 3.535 19.531 10.603c7.069 7.068 10.603 15.439 10.603 25.112c0 0 0 285.714 0 285.714c0 53.571 -20.461 100.446 -61.384 140.625c-40.923 40.178 -91.89 63.988 -152.902 71.428c0 0 0 73.661 0 73.661c0 39.435 17.485 73.103 52.455 101.005c34.971 27.901 77.009 41.852 126.117 41.852c49.107 0 91.145 -13.951 126.116 -41.852c34.97 -27.902 52.455 -61.57 52.455 -101.005c0 0 0 -220.424 0 -220.424c-21.205 -7.812 -38.411 -20.833 -51.618 -39.062c-13.207 -18.23 -19.811 -40.551 -19.811 -66.965c0 -26.413 10.417 -50.037 31.25 -70.87c20.834 -20.834 46.131 -31.25 75.893 -31.25c29.762 0 55.06 10.416 75.893 31.25c20.833 20.833 31.25 44.457 31.25 70.87c0 26.414 -6.603 48.735 -19.81 66.965c-13.207 18.229 -30.413 31.25 -51.618 39.062c0 0 0 220.424 0 220.424c0 59.152 -24.461 109.654 -73.382 151.507c-48.921 41.853 -107.794 62.779 -176.618 62.779c-68.825 0 -127.698 -20.926 -176.619 -62.779c-48.921 -41.853 -73.381 -92.355 -73.381 -151.507c0 0 0 -73.661 0 -73.661c-61.012 -7.44 -111.98 -31.25 -152.902 -71.428c-40.923 -40.179 -61.384 -87.054 -61.384 -140.625c0 0 0 -285.714 0 -285.714c0 -9.673 3.534 -18.044 10.603 -25.112c7.068 -7.068 13.578 -10.603 19.531 -10.603c5.952 0 10.788 0.372 14.509 1.116c13.765 -24.553 34.598 -36.83 62.5 -36.83c19.717 0 36.551 6.975 50.502 20.926c13.951 13.951 20.926 30.785 20.926 50.503c0 19.717 -6.975 36.551 -20.926 50.502c-13.951 13.951 -28.925 20.926 -44.922 20.926c-15.997 0 -29.762 -3.348 -41.295 -10.044c0 0 0 224.33 0 224.33c0 39.434 17.486 73.103 52.456 101.004c34.97 27.902 77.009 41.853 126.116 41.853c49.107 0 91.146 -13.951 126.116 -41.853c34.97 -27.901 52.455 -61.57 52.455 -101.004c0 0 0 -224.33 0 -224.33c-11.532 6.696 -25.297 10.044 -41.294 10.044c-15.997 0 -30.971 -6.975 -44.922 -20.926c-13.951 -13.951 -20.927 -30.785 -20.927 -50.502c0 -19.718 6.976 -36.552 20.927 -50.503c13.951 -13.951 30.785 -20.926 50.502 -20.926c0 0 0 0 0 0m321.429 321.429c0 -9.673 -3.535 -18.044 -10.603 -25.112c-7.069 -7.068 -15.439 -10.603 -25.112 -10.603c-9.672 0 -18.043 3.535 -25.111 10.603c-7.069 7.068 -10.603 15.439 -10.603 25.112c0 9.672 3.534 18.043 10.603 25.111c7.068 7.069 15.439 10.603 25.111 10.603c9.673 0 18.043 -3.534 25.112 -10.603c7.068 -7.068 10.603 -15.439 10.603 -25.111c0 0 0 0 0 0" />
  </g>
</svg>