<svg height="1000" width="785.714" xmlns="http://www.w3.org/2000/svg"><path d="M714.24 392.896q0 -14.508 -10.602 -25.11t-25.11 -10.602 -25.11 10.602 -10.602 25.11 10.602 25.11 25.11 10.602 25.11 -10.602 10.602 -25.11zm71.424 0q0 34.596 -19.809 61.938t-51.615 39.06v220.41q0 88.722 -73.377 151.497t-176.607 62.775 -176.607 -62.775 -73.377 -151.497v-73.656q-91.512 -11.16 -152.892 -71.424t-61.38 -140.616v-285.696q0 -14.508 10.602 -25.11t25.11 -10.602q3.348 0 8.928 1.116 9.486 -16.74 26.226 -26.784t36.27 -10.044q29.574 0 50.499 20.925t20.925 50.499 -20.925 50.499 -50.499 20.925q-18.414 0 -35.712 -10.044v224.316q0 59.148 52.452 100.998t126.108 41.85 126.108 -41.85 52.452 -100.998v-224.316q-17.298 10.044 -35.712 10.044 -29.574 0 -50.499 -20.925t-20.925 -50.499 20.925 -50.499 50.499 -20.925q19.53 0 36.27 10.044t26.226 26.784q5.58 -1.116 8.928 -1.116 14.508 0 25.11 10.602t10.602 25.11v285.696q0 80.352 -61.38 140.616t-152.892 71.424v73.656q0 59.148 52.452 100.998t126.108 41.85 126.108 -41.85 52.452 -100.998v-220.41q-31.806 -11.718 -51.615 -39.06t-19.809 -61.938q0 -44.64 31.248 -75.888t75.888 -31.248 75.888 31.248 31.248 75.888z"/></svg>