<svg height="1000px" width="785.7142857142858px" xmlns="http://www.w3.org/2000/svg">
  <g>
    <path d="M0 428.57142857142856c0 0 0 -285.714 0 -285.714c0 -9.673 3.534 -18.043 10.603 -25.112c7.068 -7.068 15.439 -10.603 25.111 -10.603c2.232 0 5.209 0.372 8.929 1.116c6.324 -11.16 15.067 -20.089 26.228 -26.785c11.16 -6.697 23.251 -10.045 36.272 -10.045c19.717 0 36.551 6.976 50.502 20.926c13.951 13.951 20.926 30.785 20.926 50.503c0 19.717 -6.975 36.551 -20.926 50.502c-13.951 13.951 -30.785 20.926 -50.502 20.926c-12.277 0 -24.182 -3.348 -35.714 -10.044c0 0 0 224.33 0 224.33c0 39.435 17.485 73.103 52.455 101.004c34.97 27.902 77.009 41.853 126.116 41.853c49.107 0 91.146 -13.951 126.116 -41.853c34.97 -27.901 52.455 -61.569 52.455 -101.004c0 0 0 -224.33 0 -224.33c-11.532 6.696 -23.437 10.044 -35.714 10.044c-19.717 0 -36.551 -6.975 -50.502 -20.926c-13.951 -13.951 -20.926 -30.785 -20.926 -50.502c0 -19.718 6.975 -36.552 20.926 -50.503c13.951 -13.95 30.785 -20.926 50.502 -20.926c13.021 0 25.112 3.348 36.272 10.045c11.161 6.696 19.904 15.625 26.228 26.785c3.72 -0.744 6.697 -1.116 8.929 -1.116c9.672 0 18.043 3.535 25.111 10.603c7.069 7.069 10.603 15.439 10.603 25.112c0 0 0 285.714 0 285.714c0 53.571 -20.461 100.446 -61.384 140.625c-40.923 40.179 -91.89 63.988 -152.902 71.429c0 0 0 73.66 0 73.66c0 39.435 17.485 73.103 52.456 101.005c34.97 27.902 77.009 41.852 126.116 41.852c49.107 0 91.146 -13.95 126.116 -41.852c34.97 -27.902 52.455 -61.57 52.455 -101.005c0 0 0 -220.424 0 -220.424c-21.205 -7.812 -38.411 -20.833 -51.618 -39.062c-13.207 -18.229 -19.81 -38.877 -19.81 -61.942c0 -29.762 10.416 -55.06 31.25 -75.893c20.833 -20.833 46.131 -31.25 75.892 -31.25c29.762 0 55.06 10.417 75.893 31.25c20.834 20.833 31.25 46.131 31.25 75.893c0 23.065 -6.603 43.713 -19.81 61.942c-13.207 18.229 -30.413 31.25 -51.618 39.062c0 0 0 220.424 0 220.424c0 59.152 -24.461 109.654 -73.382 151.507c-48.921 41.853 -107.794 62.779 -176.618 62.779c-68.825 0 -127.697 -20.926 -176.619 -62.779c-48.921 -41.853 -73.381 -92.355 -73.381 -151.507c0 0 0 -73.66 0 -73.66c-61.012 -7.441 -111.979 -31.25 -152.902 -71.429c-40.923 -40.179 -61.384 -87.054 -61.384 -140.625c0 0 0 0 0 0m642.857 -35.714c0 9.672 3.534 18.043 10.603 25.111c7.068 7.069 15.439 10.603 25.111 10.603c9.673 0 18.044 -3.534 25.112 -10.603c7.068 -7.068 10.603 -15.439 10.603 -25.111c0 -9.673 -3.535 -18.043 -10.603 -25.112c-7.068 -7.068 -15.439 -10.603 -25.112 -10.603c-9.672 0 -18.043 3.535 -25.111 10.603c-7.069 7.069 -10.603 15.439 -10.603 25.112c0 0 0 0 0 0" />
  </g>
</svg>