<svg height="1000" width="857.143" xmlns="http://www.w3.org/2000/svg"><path d="M785.664 857.152q0 35.154 -34.317 63.333t-91.512 45.198 -125.55 25.668 -141.453 8.649 -141.453 -8.649 -125.55 -25.668 -91.512 -45.198 -34.317 -63.333q0 -27.342 18.414 -49.383t50.778 -37.107 65.844 -24.831 73.098 -16.461q14.508 -2.79 26.784 5.859t14.508 23.157q2.79 14.508 -5.859 26.784t-23.157 14.508q-32.364 5.58 -59.148 13.113t-42.687 14.229 -27.063 13.113 -15.345 10.881 -4.743 6.696q1.674 6.138 15.066 14.787t40.734 18.414 63.612 18.135 89.559 13.95 112.437 5.58 112.437 -5.58 89.559 -13.95 63.612 -18.414 40.734 -18.693 15.066 -15.345q-.558 -2.232 -4.743 -6.138t-15.345 -10.602 -27.063 -13.113 -42.687 -13.95 -59.148 -13.113q-14.508 -2.232 -23.157 -14.508t-5.859 -26.784q2.232 -14.508 14.508 -23.157t26.784 -5.859q39.618 6.696 73.098 16.461t65.844 24.831 50.778 37.107 18.414 49.383zm-214.272 -499.968v214.272q0 14.508 -10.602 25.11t-25.11 10.602h-35.712v214.272q0 14.508 -10.602 25.11t-25.11 10.602h-142.848q-14.508 0 -25.11 -10.602t-10.602 -25.11v-214.272h-35.712q-14.508 0 -25.11 -10.602t-10.602 -25.11v-214.272q0 -29.574 20.925 -50.499t50.499 -20.925h214.272q29.574 0 50.499 20.925t20.925 50.499zm-53.568 -214.272q0 51.894 -36.549 88.443t-88.443 36.549 -88.443 -36.549 -36.549 -88.443 36.549 -88.443 88.443 -36.549 88.443 36.549 36.549 88.443z"/></svg>