<svg height="1000" width="857.1" xmlns="http://www.w3.org/2000/svg"><path d="M785.7 857.1q0 35.2 -34.3 63.4t-91.5 45.2 -125.6 25.7 -141.4 8.6 -141.5 -8.6T125.8 965.7 34.3 920.5 0 857.1q0 -27.3 18.4 -49.3t50.8 -37.2T135 745.8t73.1 -16.4q14.6 -2.8 26.8 5.8t14.5 23.2q2.8 14.5 -5.8 26.8t-23.2 14.5q-32.3 5.5 -59.1 13.1T118.6 827t-27.1 13.1T76.2 851t-4.8 6.7q1.7 6.1 15.1 14.8t40.7 18.4 63.6 18.1 89.6 14 112.5 5.6T505.3 923t89.6 -14 63.6 -18.4 40.7 -18.7 15.1 -15.3q-.6 -2.2 -4.8 -6.2t-15.3 -10.6 -27.1 -13.1 -42.7 -13.9 -59.1 -13.1q-14.5 -2.3 -23.2 -14.5t-5.8 -26.8q2.2 -14.5 14.5 -23.2t26.8 -5.8q39.6 6.6 73.1 16.4t65.8 24.8 50.8 37.2 18.4 49.3zm-214.3 -500v214.3q0 14.5 -10.6 25.1t-25.1 10.6H500v214.3q0 14.5 -10.6 25.1t-25.1 10.6H321.4q-14.5 0 -25.1 -10.6t-10.6 -25.1V607.1H250q-14.5 0 -25.1 -10.6t-10.6 -25.1V357.1q0 -29.5 20.9 -50.5t50.5 -20.9H500q29.6 0 50.5 20.9t20.9 50.5zM517.9 142.9q0 51.9 -36.6 88.4t-88.4 36.6 -88.5 -36.6 -36.5 -88.4 36.5 -88.5 88.5 -36.5 88.4 36.5 36.6 88.5z"/></svg>