<svg height="1000px" width="1000px" xmlns="http://www.w3.org/2000/svg">
  <g>
    <path d="M552.4553571428571 607.1428571428571c0 0 229.353 0 229.353 0c2.604 14.509 3.906 31.622 3.906 51.339c0 75.149 -20.833 133.929 -62.5 176.34c-13.765 13.02 -34.784 28.273 -63.058 45.759c-28.274 17.485 -56.641 29.854 -85.101 37.109c-28.459 7.254 -64.732 10.882 -108.817 10.882c-44.084 0 -81.194 -4.279 -111.328 -12.835c0 0 -78.125 -22.322 -78.125 -22.322c-21.205 -5.952 -33.947 -10.788 -38.225 -14.509c-4.278 -3.72 -6.418 -8.184 -6.418 -13.392c0 0 0 -7.255 0 -7.255c0 -40.178 -0.279 -67.522 -0.837 -82.031c-0.558 -14.509 -0.651 -28.832 -0.279 -42.969c0 0 1.116 -20.647 1.116 -20.647c0 0 0 -24.554 0 -24.554c0 0 56.92 -1.116 56.92 -1.116c8.185 18.973 15.811 37.295 22.88 54.967c7.068 17.671 11.532 27.994 13.392 30.971c25.298 41.666 59.71 69.754 103.237 84.263c21.949 8.185 45.666 12.277 71.15 12.277c25.483 0 52.362 -4.93 80.636 -14.788c28.274 -9.859 50.967 -26.042 68.08 -48.549c17.113 -22.508 25.67 -47.898 25.67 -76.172c0 -28.274 -15.067 -55.99 -45.201 -83.147c-12.649 -10.789 -38.133 -23.996 -76.451 -39.621c0 0 0 0 0 0m-282.924 -142.857c-10.417 -13.021 -19.903 -27.902 -28.46 -44.643c-17.857 -36.086 -26.786 -71.057 -26.786 -104.911c0 -67.336 24.833 -124.721 74.498 -172.154c49.665 -47.433 122.861 -71.149 219.587 -71.149c18.601 0 44.922 2.883 78.962 8.649c34.04 5.767 71.708 15.346 113.002 28.739c3.721 14.137 7.906 40.086 12.556 77.846c4.651 37.761 6.976 63.895 6.976 78.404c0 14.509 -0.93 26.786 -2.79 36.83c0 0 -6.697 1.675 -6.697 1.675c0 0 -46.875 -3.349 -46.875 -3.349c0 0 -7.812 -1.116 -7.812 -1.116c-18.602 -55.431 -37.761 -93.564 -57.478 -114.397c-32.738 -33.854 -71.057 -50.781 -114.955 -50.781c-43.899 0 -78.404 10.881 -103.516 32.645c-25.112 21.763 -37.667 47.619 -37.667 77.567c0 29.948 12.276 57.384 36.83 82.31c24.553 24.926 76.451 48.921 155.692 71.987c25.669 7.44 53.571 18.043 83.705 31.808c30.134 13.765 52.084 25.111 65.848 34.04c0 0 -414.62 0 -414.62 0c0 0 0 0 0 0m712.612 35.714c5.208 0 9.486 1.674 12.834 5.022c3.349 3.349 5.023 7.627 5.023 12.835c0 0 0 35.715 0 35.715c0 5.208 -1.674 9.486 -5.023 12.834c-3.348 3.349 -7.626 5.023 -12.834 5.023c0 0 -964.286 0 -964.286 0c-5.209 0 -9.487 -1.674 -12.835 -5.023c-3.348 -3.348 -5.022 -7.626 -5.022 -12.834c0 0 0 -35.715 0 -35.715c0 -5.208 1.674 -9.486 5.022 -12.835c3.348 -3.348 7.626 -5.022 12.835 -5.022c0 0 964.286 0 964.286 0c0 0 0 0 0 0" />
  </g>
</svg>