<svg height="1000px" width="1000px" xmlns="http://www.w3.org/2000/svg">
  <g>
    <path d="M0 553.5714285714286c0 0 0 -35.714 0 -35.714c0 -5.209 1.674 -9.487 5.022 -12.835c3.349 -3.348 7.627 -5.022 12.835 -5.022c0 0 964.286 0 964.286 0c5.208 0 9.486 1.674 12.835 5.022c3.348 3.348 5.022 7.626 5.022 12.835c0 0 0 35.714 0 35.714c0 5.208 -1.674 9.487 -5.022 12.835c-3.349 3.348 -7.627 5.022 -12.835 5.022c0 0 -964.286 0 -964.286 0c-5.208 0 -9.486 -1.674 -12.835 -5.022c-3.348 -3.348 -5.022 -7.627 -5.022 -12.835c0 0 0 0 0 0m214.286 -238.839c0 -67.337 24.925 -124.814 74.777 -172.433c49.479 -47.247 122.581 -70.871 219.308 -70.871c18.601 0 49.665 3.534 93.192 10.603c24.553 4.464 57.477 13.393 98.772 26.786c3.72 14.136 7.626 36.086 11.719 65.848c5.208 45.759 7.812 79.799 7.812 102.12c0 6.697 -0.93 15.067 -2.79 25.112c0 0 -6.697 1.674 -6.697 1.674c0 0 -46.875 -3.348 -46.875 -3.348c0 0 -7.812 -1.116 -7.812 -1.116c-18.601 -55.432 -37.76 -93.564 -57.478 -114.398c-32.738 -33.854 -71.8 -50.781 -117.187 -50.781c-42.411 0 -76.265 10.975 -101.563 32.924c-24.925 21.578 -37.388 48.735 -37.388 81.473c0 27.158 12.277 53.2 36.83 78.125c24.554 24.926 76.451 48.922 155.692 71.987c25.67 7.441 57.85 19.717 96.54 36.83c21.578 10.417 39.249 20.09 53.014 29.018c0 0 -414.621 0 -414.621 0c-10.416 -13.021 -19.903 -27.901 -28.46 -44.643c-17.857 -36.086 -26.785 -71.056 -26.785 -104.91c0 0 0 0 0 0m16.741 456.473c-0.372 -11.161 -0.372 -23.81 0 -37.946c0 0 1.116 -20.648 1.116 -20.648c0 0 0 -24.553 0 -24.553c0 0 56.919 -1.116 56.919 -1.116c5.581 12.648 11.161 25.855 16.742 39.62c5.58 13.765 9.765 24.182 12.555 31.25c2.791 7.069 5.116 12.091 6.976 15.067c13.021 21.205 27.902 38.691 44.643 52.455c15.997 13.393 35.528 23.996 58.593 31.808c21.95 8.185 46.503 12.277 73.661 12.277c23.81 0 49.665 -5.022 77.567 -15.067c28.646 -9.672 51.339 -25.669 68.08 -47.991c17.486 -22.693 26.228 -46.689 26.228 -71.986c0 -31.25 -15.067 -60.454 -45.201 -87.612c-12.649 -10.789 -38.132 -23.996 -76.451 -39.621c0 0 229.353 0 229.353 0c2.604 14.509 3.906 31.622 3.906 51.34c0 41.294 -7.626 80.729 -22.879 118.303c-8.557 20.462 -21.764 39.807 -39.621 58.036c-13.765 13.021 -34.04 28.088 -60.826 45.201c-29.762 17.857 -58.221 30.134 -85.379 36.83c-29.762 7.813 -67.522 11.719 -113.281 11.719c-42.411 0 -78.683 -4.278 -108.817 -12.835c0 0 -78.125 -22.321 -78.125 -22.321c-21.206 -5.953 -34.599 -11.161 -40.179 -15.625c-2.976 -2.976 -4.464 -7.069 -4.464 -12.277c0 0 0 -7.255 0 -7.255c0 -40.178 -0.372 -69.196 -1.116 -87.053c0 0 0 0 0 0" />
  </g>
</svg>