<svg height="1000" width="1000" xmlns="http://www.w3.org/2000/svg"><path d="M0 553.6v-35.7q0-7.8 5-12.8t12.8-5h964.2q7.8 0 12.8 5t5 12.8v35.7q0 7.8-5 12.8t-12.8 5h-964.2q-7.8 0-12.8-5t-5-12.8zm214.3-238.8q0-101 74.8-172.4 74.2-70.9 219.3-70.9 27.9 0 93.2 10.6 36.8 6.7 98.8 26.8 5.6 21.2 11.7 65.8 7.8 68.6 7.8 102.1 0 10-2.8 25.1l-6.7 1.7-46.9-3.3-7.8-1.1q-27.9-83.1-57.5-114.4-49.1-50.8-117.2-50.8-63.6 0-101.6 32.9-37.4 32.4-37.4 81.5 0 40.7 36.8 78.1t155.7 72q38.5 11.2 96.5 36.8 32.4 15.6 53 29h-414.6q-15.6-19.5-28.5-44.6-26.8-54.1-26.8-104.9zm16.7 456.4q-.6-16.7 0-37.9l1.1-20.6v-24.6l56.9-1.1q8.4 19 16.7 39.6t12.6 31.2 7 15.1q19.5 31.8 44.6 52.5 24 20.1 58.6 31.8 32.9 12.3 73.7 12.3 35.7 0 77.6-15.1 43-14.5 68.1-48 26.2-34 26.2-72 0-46.9-45.2-87.6-19-16.2-76.4-39.6h229.3q3.9 21.8 3.9 51.3 0 61.9-22.9 118.3-12.8 30.7-39.6 58-20.6 19.5-60.8 45.2-44.6 26.8-85.4 36.8-44.6 11.7-113.3 11.7-63.6 0-108.8-12.8l-78.1-22.3q-31.8-8.9-40.2-15.6-4.5-4.5-4.5-12.3v-7.3q0-60.3-1.1-87z"/></svg>