<svg height="1000" width="1000" xmlns="http://www.w3.org/2000/svg"><path d="M982.08 500.032q7.812 0 12.834 5.022t5.022 12.834v35.712q0 7.812 -5.022 12.834t-12.834 5.022h-964.224q-7.812 0 -12.834 -5.022t-5.022 -12.834v-35.712q0 -7.812 5.022 -12.834t12.834 -5.022h964.224zm-712.566 -35.712q-15.624 -19.53 -28.458 -44.64 -26.784 -54.126 -26.784 -104.904 0 -100.998 74.772 -172.422 74.214 -70.866 219.294 -70.866 27.9 0 93.186 10.602 36.828 6.696 98.766 26.784 5.58 21.204 11.718 65.844 7.812 68.634 7.812 102.114 0 10.044 -2.79 25.11l-6.696 1.674 -46.872 -3.348 -7.812 -1.116q-27.9 -83.142 -57.474 -114.39 -49.104 -50.778 -117.18 -50.778 -63.612 0 -101.556 32.922 -37.386 32.364 -37.386 81.468 0 40.734 36.828 78.12t155.682 71.982q38.502 11.16 96.534 36.828 32.364 15.624 53.01 29.016h-414.594zm282.906 142.848h229.338q3.906 21.762 3.906 51.336 0 61.938 -22.878 118.296 -12.834 30.69 -39.618 58.032 -20.646 19.53 -60.822 45.198 -44.64 26.784 -85.374 36.828 -44.64 11.718 -113.274 11.718 -63.612 0 -108.81 -12.834l-78.12 -22.32q-31.806 -8.928 -40.176 -15.624 -4.464 -4.464 -4.464 -12.276v-7.254q0 -60.264 -1.116 -87.048 -.558 -16.74 0 -37.944l1.116 -20.646v-24.552l56.916 -1.116q8.37 18.972 16.74 39.618t12.555 31.248 6.975 15.066q19.53 31.806 44.64 52.452 23.994 20.088 58.59 31.806 32.922 12.276 73.656 12.276 35.712 0 77.562 -15.066 42.966 -14.508 68.076 -47.988 26.226 -34.038 26.226 -71.982 0 -46.872 -45.198 -87.606 -18.972 -16.182 -76.446 -39.618z"/></svg>