<svg height="1000px" width="1000px" xmlns="http://www.w3.org/2000/svg">
  <g>
    <path d="M0 553.5714285714286c0 0 0 -35.714 0 -35.714c0 -5.209 1.674 -9.487 5.022 -12.835c3.349 -3.348 7.627 -5.022 12.835 -5.022c0 0 964.286 0 964.286 0c5.208 0 9.486 1.674 12.835 5.022c3.348 3.348 5.022 7.626 5.022 12.835c0 0 0 35.714 0 35.714c0 5.208 -1.674 9.487 -5.022 12.835c-3.349 3.348 -7.627 5.022 -12.835 5.022c0 0 -964.286 0 -964.286 0c-5.208 0 -9.486 -1.674 -12.835 -5.022c-3.348 -3.348 -5.022 -7.627 -5.022 -12.835c0 0 0 0 0 0m214.286 -238.839c0 -67.337 24.832 -124.721 74.497 -172.154c49.666 -47.433 122.861 -71.15 219.588 -71.15c18.601 0 44.921 2.883 78.962 8.65c34.04 5.766 71.707 15.346 113.002 28.739c3.72 14.136 7.905 40.085 12.556 77.846c4.65 37.76 6.975 63.895 6.975 78.404c0 14.508 -0.93 26.785 -2.79 36.83c0 0 -6.697 1.674 -6.697 1.674c0 0 -46.875 -3.348 -46.875 -3.348c0 0 -7.812 -1.116 -7.812 -1.116c-18.601 -55.432 -37.76 -93.564 -57.478 -114.398c-32.738 -33.854 -71.056 -50.781 -114.955 -50.781c-43.899 0 -78.404 10.882 -103.516 32.645c-25.111 21.764 -37.667 47.619 -37.667 77.567c0 29.948 12.277 57.385 36.83 82.31c24.554 24.926 76.451 48.922 155.692 71.987c25.67 7.441 53.572 18.043 83.706 31.808c30.134 13.765 52.083 25.112 65.848 34.04c0 0 -414.621 0 -414.621 0c-10.416 -13.021 -19.903 -27.901 -28.46 -44.643c-17.857 -36.086 -26.785 -71.056 -26.785 -104.91c0 0 0 0 0 0m16.518 435.58c0 -5.714 0.074 -11.399 0.223 -17.053c0 0 1.116 -20.648 1.116 -20.648c0 0 0 -24.553 0 -24.553c0 0 56.919 -1.116 56.919 -1.116c8.185 18.973 15.812 37.295 22.88 54.966c7.068 17.671 11.533 27.995 13.393 30.971c25.297 41.667 59.71 69.755 103.236 84.263c21.95 8.185 45.666 12.277 71.15 12.277c25.484 0 52.362 -4.929 80.636 -14.788c28.274 -9.858 50.967 -26.041 68.08 -48.549c17.114 -22.507 25.67 -47.898 25.67 -76.172c0 -28.274 -15.067 -55.989 -45.201 -83.147c-12.649 -10.789 -38.132 -23.996 -76.451 -39.621c0 0 229.353 0 229.353 0c2.604 14.509 3.906 31.622 3.906 51.34c0 75.149 -20.833 133.928 -62.5 176.339c-13.765 13.021 -34.784 28.274 -63.058 45.759c-28.274 17.485 -56.64 29.855 -85.1 37.109c-28.46 7.255 -64.732 10.882 -108.817 10.882c-44.085 0 -81.194 -4.278 -111.328 -12.835c0 0 -78.125 -22.321 -78.125 -22.321c-21.206 -5.953 -33.947 -10.789 -38.226 -14.509c-4.278 -3.72 -6.417 -8.185 -6.417 -13.393c0 0 0 -7.254 0 -7.254c0 -40.179 -0.279 -67.523 -0.837 -82.032c-0.335 -8.705 -0.502 -17.343 -0.502 -25.915c0 0 0 0 0 0" />
  </g>
</svg>