<svg height="1000" width="1000" xmlns="http://www.w3.org/2000/svg"><path d="M982.1 500q7.9 0 12.9 5t5 12.9v35.7q0 7.8 -5 12.8t-12.9 5H17.9q-7.9 0 -12.9 -5T0 553.6v-35.7Q0 510 5 505t12.9 -5h964.2zM269.5 464.3q-15.6 -19.5 -28.4 -44.7Q214.3 365.5 214.3 314.7q0 -101 74.8 -172.4Q363.3 71.4 508.4 71.4q27.9 0 93.2 10.6 36.8 6.7 98.7 26.8 5.6 21.2 11.8 65.9 7.8 68.6 7.8 102.1 0 10 -2.8 25.1l-6.7 1.7 -46.9 -3.4 -7.8 -1.1Q627.8 216 598.2 184.7 549.1 133.9 481 133.9q-63.6 0 -101.5 33 -37.4 32.3 -37.4 81.4 0 40.8 36.8 78.2t155.7 71.9q38.5 11.2 96.5 36.9 32.4 15.6 53.1 29H269.5zm283 142.8h229.3q3.9 21.8 3.9 51.4 0 61.9 -22.9 118.3 -12.8 30.7 -39.6 58 -20.6 19.6 -60.8 45.2 -44.7 26.8 -85.4 36.9 -44.6 11.7 -113.3 11.7 -63.6 0 -108.8 -12.9l-78.1 -22.3Q245 884.5 236.6 877.8q-4.5 -4.5 -4.5 -12.3v-7.2q0 -60.3 -1.1 -87.1 -.5 -16.7 0 -37.9l1.1 -20.7v-24.5l57 -1.2q8.3 19 16.7 39.7t12.6 31.2 6.9 15.1q19.6 31.8 44.7 52.4 24 20.1 58.6 31.8 32.9 12.3 73.6 12.3 35.7 0 77.6 -15 43 -14.6 68.1 -48 26.2 -34.1 26.2 -72 0 -46.9 -45.2 -87.6 -19 -16.2 -76.4 -39.7z"/></svg>