<svg height="1000" width="857.1" xmlns="http://www.w3.org/2000/svg"><path d="M483.3 468.2l50.2 -15.1v-34.6q0 -44.1 -32.4 -75.3t-77 -31.3 -77 31T314.7 418v157.9q0 11.2 -7.8 18.7t-18.4 7.5 -18.1 -7.5 -7.6 -18.7v-67h-84.2V577q0 45.8 32.1 77.6t77.8 31.8q45.2 0 77.3 -31.5t32.1 -76.2V422.4q0 -10.6 7.5 -18.4t18.7 -7.8q10.6 0 18.1 7.8t7.6 18.4v30.2zM669.1 577v-68.1h-83.7v70.3q0 11.2 -7.6 18.7t-18.6 7.6q-10.7 0 -18.2 -7.8t-7.5 -18.5v-68.6l-50.2 14.5 -33.5 -15.6v68.6q0 44.7 32.3 76.5t77.6 31.8T637 654.6 669.1 577zm188 -77q0 116.6 -57.4 215.1t-156 156 -215.1 57.5T213.4 871.1 57.5 715.1 0 500 57.5 284.9t155.9 -156T428.6 71.4t215.1 57.5 156 156T857.1 500z"/></svg>