<svg height="1000" width="857.143" xmlns="http://www.w3.org/2000/svg"><path d="M483.228 468.226l50.22 -15.066v-34.596q0 -44.082 -32.364 -75.33t-77.004 -31.248 -77.004 30.969 -32.364 75.051v157.914q0 11.16 -7.812 18.693t-18.414 7.533 -18.135 -7.533 -7.533 -18.693v-66.96h-84.258v68.076q0 45.756 32.085 77.562t77.841 31.806q45.198 0 77.283 -31.527t32.085 -76.167v-156.24q0 -10.602 7.533 -18.414t18.693 -7.812q10.602 0 18.135 7.812t7.533 18.414v30.132zm185.814 108.81v-68.076h-83.7v70.308q0 11.16 -7.533 18.693t-18.693 7.533q-10.602 0 -18.135 -7.812t-7.533 -18.414v-68.634l-50.22 14.508 -33.48 -15.624v68.634q0 44.64 32.364 76.446t77.562 31.806 77.283 -31.806 32.085 -77.562zm188.046 -77.004q0 116.622 -57.474 215.109t-155.961 155.961 -215.109 57.474 -215.109 -57.474 -155.961 -155.961 -57.474 -215.109 57.474 -215.109 155.961 -155.961 215.109 -57.474 215.109 57.474 155.961 155.961 57.474 215.109z"/></svg>