<svg height="1000" width="1071.429" xmlns="http://www.w3.org/2000/svg"><path d="M592.596 397.36v-65.844q0 -23.436 -16.74 -40.176t-40.176 -16.74 -40.176 16.74 -16.74 40.176v341.496q0 97.65 -70.308 166.842t-169.074 69.192q-99.324 0 -169.353 -70.029t-70.029 -169.353v-148.428h183.024v146.196q0 23.994 16.74 40.455t40.176 16.461 40.176 -16.461 16.74 -40.455v-345.96q0 -95.418 70.587 -162.936t168.237 -67.518q98.208 0 168.516 68.076t70.308 164.052v75.888l-108.81 32.364zm295.74 123.876h183.024v148.428q0 99.324 -70.029 169.353t-169.353 70.029q-98.766 0 -169.074 -69.471t-70.308 -167.679v-149.544l73.098 34.038 108.81 -32.364v150.66q0 23.436 16.74 39.897t40.176 16.461 40.176 -16.461 16.74 -39.897v-153.45z"/></svg>