<svg height="1000" width="1071.4" xmlns="http://www.w3.org/2000/svg"><path d="M592.6 397.3v-65.8q0 -23.5 -16.7 -40.2t-40.2 -16.7 -40.2 16.7 -16.7 40.2V673q0 97.6 -70.3 166.8T239.4 909Q140.1 909 70 839T0 669.6V521.2h183v146.2q0 24 16.8 40.5t40.2 16.4 40.1 -16.4 16.8 -40.5v-346q0 -95.4 70.6 -162.9T535.7 91q98.2 0 168.5 68t70.4 164.1V399l-108.9 32.4zm295.8 123.9h183v148.4q0 99.4 -70 169.4T832 909q-98.7 0 -169.1 -69.4T592.6 671.9V522.3l73.1 34.1L774.6 524v150.7q0 23.4 16.7 39.9t40.2 16.4 40.2 -16.4 16.7 -39.9V521.2z"/></svg>