<svg height="1000" width="857.1" xmlns="http://www.w3.org/2000/svg"><path d="M500.6 764v93.1H362.2L273.4 716.5 260 693.1q-4.4 -5 -6.1 -11.7h-1.7l-5 11.7q-5.6 11.1 -13.9 24.5l-86.5 139.5H2.8V764h71.4l110 -162.4L80.9 449.8H4.5V356h154L236 483.3q1.2 2.2 12.9 23.4 4.4 5 6.1 11.7h1.7q1.7 -5 6.1 -11.7l14 -23.4L354.9 356h143.4v93.8h-69.7l-102.7 149L439.7 764h60.9zm356.5 121v115H570.3l-2.2 -15.1q-1.7 -25.1 -1.7 -25.6 0 -35.8 14.5 -65.3t36.3 -48.3 46.9 -36.3T710.9 779t36.3 -30.1 14.5 -35.7q0 -21.2 -16.4 -34.9t-39.4 -13.7q-28.4 0 -54.1 21.8 -7.8 6.1 -20.1 21.2l-58.6 -51.3q14.5 -20.7 35.2 -36.9 44.6 -36.3 104.9 -36.3 61.4 0 99.3 33.3t37.9 88.4q0 36.8 -19.2 66.1t-46.9 48 -55.5 34.9T680.2 889t-22.8 40.7h129.4V885h70.3z"/></svg>