<svg height="1000" width="857.143" xmlns="http://www.w3.org/2000/svg"><path d="M500.526 763.966v93.186h-138.384l-88.722 -140.616 -13.392 -23.436q-4.464 -5.022 -6.138 -11.718h-1.674l-5.022 11.718q-5.58 11.16 -13.95 24.552l-86.49 139.5h-143.964v-93.186h71.424l109.926 -162.378 -103.23 -151.776h-76.446v-93.744h154.008l77.562 127.224q1.116 2.232 12.834 23.436 4.464 5.022 6.138 11.718h1.674q1.674 -5.022 6.138 -11.718l13.95 -23.436 78.12 -127.224h143.406v93.744h-69.75l-102.672 148.986 113.832 165.168h60.822zm356.562 121.086v114.948h-286.812l-2.232 -15.066q-1.674 -25.11 -1.674 -25.668 0 -35.712 14.508 -65.286t36.27 -48.267 46.872 -36.27 46.872 -30.411 36.27 -30.132 14.508 -35.712q0 -21.204 -16.461 -34.875t-39.339 -13.671q-28.458 0 -54.126 21.762 -7.812 6.138 -20.088 21.204l-58.59 -51.336q14.508 -20.646 35.154 -36.828 44.64 -36.27 104.904 -36.27 61.38 0 99.324 33.201t37.944 88.443q0 36.828 -19.251 66.123t-46.872 47.988 -55.521 34.875 -48.546 35.154 -22.878 40.734h129.456v-44.64h70.308z"/></svg>