<svg height="1000" width="857.1" xmlns="http://www.w3.org/2000/svg"><path d="M607.1 0q103.3 0 176.7 52.2t73.3 126.4v500q0 72.5 -70 123.9t-170.5 54.1l118.9 112.7q8.9 8.4 4.5 19.5t-16.8 11.2H133.9q-12.2 0 -16.7 -11.2t4.5 -19.5L240.5 856.6Q140.1 853.8 70 802.5T0 678.6v-500Q0 104.4 73.4 52.2T250 0h357.1zM160.7 732.1q36.8 0 63.1 -26.2t26.2 -63 -26.2 -63.1 -63.1 -26.2 -63 26.2 -26.3 63.1 26.3 63 63 26.2zM392.9 428.6V142.9H89.3v285.7h303.6zm303.5 303.5q36.9 0 63.1 -26.2t26.2 -63 -26.2 -63.1 -63.1 -26.2 -63 26.2 -26.3 63.1 26.3 63 63 26.2zm89.3 -303.5V142.9H464.3v285.7h321.4z"/></svg>