<svg height="1000px" width="1000px" xmlns="http://www.w3.org/2000/svg">
  <g>
    <path d="M1000 339.2857142857142c0 0 0 464.286 0 464.286c0 34.226 -12.277 63.616 -36.83 88.169c-24.554 24.554 -53.944 36.831 -88.17 36.831c0 0 -35.714 0 -35.714 0c0 0 0 -714.286 0 -714.286c0 0 35.714 0 35.714 0c34.226 0 63.616 12.277 88.17 36.83c24.553 24.554 36.83 53.944 36.83 88.17c0 0 0 0 0 0m-214.286 -125c0 0 0 714.286 0 714.286c0 0 -571.428 0 -571.428 0c0 0 0 -714.286 0 -714.286c0 0 71.428 0 71.428 0c0 0 0 -89.286 0 -89.286c0 -14.881 5.209 -27.529 15.625 -37.946c10.417 -10.417 23.066 -15.625 37.947 -15.625c0 0 321.428 0 321.428 0c14.881 0 27.53 5.208 37.947 15.625c10.416 10.417 15.625 23.065 15.625 37.946c0 0 0 89.286 0 89.286c0 0 71.428 0 71.428 0c0 0 0 0 0 0m-625 0c0 0 0 714.286 0 714.286c0 0 -35.714 0 -35.714 0c-34.226 0 -63.616 -12.277 -88.17 -36.831c-24.553 -24.553 -36.83 -53.943 -36.83 -88.169c0 0 0 -464.286 0 -464.286c0 -34.226 12.277 -63.616 36.83 -88.17c24.554 -24.553 53.944 -36.83 88.17 -36.83c0 0 35.714 0 35.714 0c0 0 0 0 0 0m196.429 0c0 0 285.714 0 285.714 0c0 0 0 -71.429 0 -71.429c0 0 -285.714 0 -285.714 0c0 0 0 71.429 0 71.429c0 0 0 0 0 0" />
  </g>
</svg>