<svg height="1000px" width="1000px" xmlns="http://www.w3.org/2000/svg">
  <g>
    <path d="M0 803.5714285714286c0 0 0 -464.286 0 -464.286c0 -34.226 12.277 -63.616 36.83 -88.169c24.554 -24.554 53.944 -36.831 88.17 -36.831c0 0 35.714 0 35.714 0c0 0 0 714.286 0 714.286c0 0 -35.714 0 -35.714 0c-34.226 0 -63.616 -12.277 -88.17 -36.83c-24.553 -24.554 -36.83 -53.944 -36.83 -88.17c0 0 0 0 0 0m214.286 125c0 0 0 -714.286 0 -714.286c0 0 71.428 0 71.428 0c0 0 0 -89.285 0 -89.285c0 -14.881 5.209 -27.53 15.625 -37.947c10.417 -10.417 23.066 -15.625 37.947 -15.625c0 0 321.428 0 321.428 0c14.881 0 27.53 5.208 37.947 15.625c10.416 10.417 15.625 23.066 15.625 37.947c0 0 0 89.285 0 89.285c0 0 71.428 0 71.428 0c0 0 0 714.286 0 714.286c0 0 -571.428 0 -571.428 0c0 0 0 0 0 0m142.857 -714.286c0 0 285.714 0 285.714 0c0 0 0 -71.428 0 -71.428c0 0 -285.714 0 -285.714 0c0 0 0 71.428 0 71.428c0 0 0 0 0 0m482.143 714.286c0 0 0 -714.286 0 -714.286c0 0 35.714 0 35.714 0c34.226 0 63.616 12.277 88.17 36.831c24.553 24.553 36.83 53.943 36.83 88.169c0 0 0 464.286 0 464.286c0 34.226 -12.277 63.616 -36.83 88.17c-24.554 24.553 -53.944 36.83 -88.17 36.83c0 0 -35.714 0 -35.714 0c0 0 0 0 0 0" />
  </g>
</svg>