<svg height="1000" width="1000" xmlns="http://www.w3.org/2000/svg"><path d="M357.12 214.336h285.696v-71.424h-285.696v71.424zm-196.416 0v714.24h-35.712q-51.336 0 -88.164 -36.828t-36.828 -88.164v-464.256q0 -51.336 36.828 -88.164t88.164 -36.828h35.712zm624.96 0v714.24h-571.392v-714.24h71.424v-89.28q0 -22.32 15.624 -37.944t37.944 -15.624h321.408q22.32 0 37.944 15.624t15.624 37.944v89.28h71.424zm214.272 124.992v464.256q0 51.336 -36.828 88.164t-88.164 36.828h-35.712v-714.24h35.712q51.336 0 88.164 36.828t36.828 88.164z"/></svg>