<svg height="1000" width="1000" xmlns="http://www.w3.org/2000/svg"><path d="M0 803.584l0-464.256q0-51.336 36.828-88.164t88.164-36.828l35.712 0l0 714.24l-35.712 0q-51.336 0-88.164-36.828t-36.828-88.164zm214.272 124.992l0-714.24l71.424 0l0-89.28q0-22.32 15.624-37.944t37.944-15.624l321.408 0q22.32 0 37.944 15.624t15.624 37.944l0 89.28l71.424 0l0 714.24l-571.392 0zm142.848-714.24l285.696 0l0-71.424l-285.696 0l0 71.424zm482.112 714.24l0-714.24l35.712 0q51.336 0 88.164 36.828t36.828 88.164l0 464.256q0 51.336-36.828 88.164t-88.164 36.828l-35.712 0z"/></svg>