<svg height="1000" width="1000" xmlns="http://www.w3.org/2000/svg"><path d="M821.4 500q0 -65.3 -25.4 -124.7T727.4 272.6 624.7 204 500 178.6 375.3 204t-102.7 68.6T204 375.3 178.6 500 204 624.7t68.6 102.7T375.3 796 500 821.4 624.7 796t102.7 -68.6T796 624.7 821.4 500zm154 154.6q-2.2 8.3 -11.1 11.1l-163 53.6v170.8q0 8.9 -7.2 14.5 -8.4 5.6 -16.2 2.2L615 854.4 514.5 992.7q-5.6 7.3 -14.5 7.3t-14.5 -7.3L385 854.4l-162.9 52.4q-7.8 3.4 -16.2 -2.2 -7.2 -5.6 -7.2 -14.5V719.3l-163 -53.6q-8.9 -2.8 -11.1 -11.1 -2.8 -9.5 2.2 -16.2L127.2 500 26.8 361.6q-5 -7.2 -2.2 -16.2 2.2 -8.3 11.1 -11.1l163 -53.6V109.9q0 -8.9 7.2 -14.5 8.4 -5.6 16.2 -2.2L385 145.6 485.5 7.3Q490.5 .6 500 .6t14.5 6.7L615 145.6 777.9 93.2q7.8 -3.4 16.2 2.2 7.2 5.6 7.2 14.5v170.8l163 53.6q8.9 2.8 11.1 11.1 2.8 9 -2.2 16.2L872.8 500l100.4 138.4q5 6.7 2.2 16.2z"/></svg>