<svg height="1000" width="1000" xmlns="http://www.w3.org/2000/svg"><path d="M821.376 500.032q0 -65.286 -25.389 -124.713t-68.634 -102.672 -102.672 -68.634 -124.713 -25.389 -124.713 25.389 -102.672 68.634 -68.634 102.672 -25.389 124.713 25.389 124.713 68.634 102.672 102.672 68.634 124.713 25.389 124.713 -25.389 102.672 -68.634 68.634 -102.672 25.389 -124.713zm154.008 154.566q-2.232 8.37 -11.16 11.16l-162.936 53.568v170.748q0 8.928 -7.254 14.508 -8.37 5.58 -16.182 2.232l-162.936 -52.452 -100.44 138.384q-5.58 7.254 -14.508 7.254t-14.508 -7.254l-100.44 -138.384 -162.936 52.452q-7.812 3.348 -16.182 -2.232 -7.254 -5.58 -7.254 -14.508v-170.748l-162.936 -53.568q-8.928 -2.79 -11.16 -11.16 -2.79 -9.486 2.232 -16.182l100.44 -138.384 -100.44 -138.384q-5.022 -7.254 -2.232 -16.182 2.232 -8.37 11.16 -11.16l162.936 -53.568v-170.748q0 -8.928 7.254 -14.508 8.37 -5.58 16.182 -2.232l162.936 52.452 100.44 -138.384q5.022 -6.696 14.508 -6.696t14.508 6.696l100.44 138.384 162.936 -52.452q7.812 -3.348 16.182 2.232 7.254 5.58 7.254 14.508v170.748l162.936 53.568q8.928 2.79 11.16 11.16 2.79 8.928 -2.232 16.182l-100.44 138.384 100.44 138.384q5.022 6.696 2.232 16.182z"/></svg>