<svg height="1000" width="857.1" xmlns="http://www.w3.org/2000/svg"><path d="M500.6 764v93.1H362.2L273.4 716.5 260 693.1q-4.4 -5 -6.1 -11.7h-1.7l-5 11.7q-5.6 11.1 -13.9 24.5l-86.5 139.5H2.8V764h71.4l110 -162.4L80.9 449.8H4.5V356h154L236 483.3q1.2 2.2 12.9 23.4 4.4 5 6.1 11.7h1.7q1.7 -5 6.1 -11.7l14 -23.4L354.9 356h143.4v93.8h-69.7l-102.7 149L439.7 764h60.9zM856 385v115H569.2l-1.7 -15.1q-2.2 -15.6 -2.2 -25.6 0 -35.8 14.5 -65.3t36.3 -48.3 46.8 -36.3T709.8 279t36.3 -30.1 14.5 -35.7q0 -21.2 -16.5 -34.9t-39.3 -13.7q-28.5 0 -54.1 21.8 -7.8 6.1 -20.1 21.2L572 156.3q14.5 -20.7 35.1 -36.9 46.4 -36.3 105 -36.3 61.3 0 99.3 33.3t37.9 88.4q0 31.2 -13.6 57.5T801.1 305t-45.5 32.6 -45.8 28.2 -36.5 28.7 -17 35.2h129.4V385H856z"/></svg>