<svg height="1000" width="1000" xmlns="http://www.w3.org/2000/svg"><path d="M822 518.4Q825.9 452.6 803.6 392T740.5 286.6t-98.8 -73.2 -123.3 -32q-64.7 -3.9 -125.8 17.8t-107.2 61.7 -75.3 97.6 -33.2 123.1Q173 547.4 195.3 608t63.1 105.4 99 73.2 123.6 32q86.5 5.1 163.5 -32.9t125 -109.1T822 518.4zM1000 0L805.2 194.2q67 65.3 100.8 151.8t28.2 179.1q-6.2 102.1 -57 189.2T742.7 856.9t-185.2 69.4L0 1000 193.6 806.4Q126.7 741.6 92.9 654.9T64.7 475.4q6.2 -102.6 57 -189.7T256.4 143.1 442 73.7Q535.2 61.4 721 36.8T1000 0z"/></svg>