<svg height="1000px" width="899.90234375px" xmlns="http://www.w3.org/2000/svg">
  <g>
    <path d="M0 818.84765625c0 0 0 -637.695 0 -637.695c0 -15.3 5.534 -28.483 16.602 -39.551c11.067 -11.068 24.251 -16.602 39.55 -16.602c0 0 788.086 0 788.086 0c15.3 0 28.402 5.534 39.307 16.602c10.905 11.068 16.357 24.251 16.357 39.551c0 0 0 637.695 0 637.695c0 15.299 -5.452 28.483 -16.357 39.551c-10.905 11.067 -24.007 16.601 -39.307 16.601c0 0 -788.086 0 -788.086 0c-15.299 0 -28.483 -5.534 -39.55 -16.601c-11.068 -11.068 -16.602 -24.252 -16.602 -39.551c0 0 0 0 0 0m75.195 -19.043c0 0 224.61 0 224.61 0c0 0 0 -163.574 0 -163.574c0 0 -224.61 0 -224.61 0c0 0 0 163.574 0 163.574c0 0 0 0 0 0m0 -200.684c0 0 224.61 0 224.61 0c0 0 0 -162.109 0 -162.109c0 0 -224.61 0 -224.61 0c0 0 0 162.109 0 162.109c0 0 0 0 0 0m0 -200.195c0 0 224.61 0 224.61 0c0 0 0 -162.109 0 -162.109c0 0 -224.61 0 -224.61 0c0 0 0 162.109 0 162.109c0 0 0 0 0 0m262.696 400.879c0 0 225.097 0 225.097 0c0 0 0 -163.574 0 -163.574c0 0 -225.097 0 -225.097 0c0 0 0 163.574 0 163.574c0 0 0 0 0 0m0 -200.684c0 0 225.097 0 225.097 0c0 0 0 -162.109 0 -162.109c0 0 -225.097 0 -225.097 0c0 0 0 162.109 0 162.109c0 0 0 0 0 0m0 -200.195c0 0 225.097 0 225.097 0c0 0 0 -162.109 0 -162.109c0 0 -225.097 0 -225.097 0c0 0 0 162.109 0 162.109c0 0 0 0 0 0m262.207 400.879c0 0 225.097 0 225.097 0c0 0 0 -163.574 0 -163.574c0 0 -225.097 0 -225.097 0c0 0 0 163.574 0 163.574c0 0 0 0 0 0m0 -200.684c0 0 225.097 0 225.097 0c0 0 0 -162.109 0 -162.109c0 0 -225.097 0 -225.097 0c0 0 0 162.109 0 162.109c0 0 0 0 0 0m0 -200.195c0 0 225.097 0 225.097 0c0 0 0 -162.109 0 -162.109c0 0 -225.097 0 -225.097 0c0 0 0 162.109 0 162.109c0 0 0 0 0 0" />
  </g>
</svg>