<svg height="1000" width="928.6" xmlns="http://www.w3.org/2000/svg"><path d="M285.7 767.9V660.7q0 -7.8 -5 -12.8t-12.8 -5H89.3q-7.8 0 -12.8 5t-5.1 12.8v107.2q0 7.8 5.1 12.8t12.8 5h178.6q7.8 0 12.8 -5t5 -12.8zm0 -214.3V446.4q0 -7.8 -5 -12.8t-12.8 -5H89.3q-7.8 0 -12.8 5t-5.1 12.8v107.2q0 7.8 5.1 12.8t12.8 5h178.6q7.8 0 12.8 -5t5 -12.8zm285.7 214.3V660.7q0 -7.8 -5 -12.8t-12.8 -5H375q-7.8 0 -12.8 5t-5.1 12.8v107.2q0 7.8 5.1 12.8t12.8 5h178.6q7.8 0 12.8 -5t5 -12.8zM285.7 339.3V232.1q0 -7.8 -5 -12.8t-12.8 -5H89.3q-7.8 0 -12.8 5t-5.1 12.8v107.2q0 7.8 5.1 12.8t12.8 5h178.6q7.8 0 12.8 -5t5 -12.8zm285.7 214.3V446.4q0 -7.8 -5 -12.8t-12.8 -5H375q-7.8 0 -12.8 5t-5.1 12.8v107.2q0 7.8 5.1 12.8t12.8 5h178.6q7.8 0 12.8 -5t5 -12.8zm285.7 214.3V660.7q0 -7.8 -5 -12.8t-12.8 -5H660.7q-7.8 0 -12.8 5t-5 12.8v107.2q0 7.8 5 12.8t12.8 5h178.6q7.8 0 12.8 -5t5 -12.8zM571.4 339.3V232.1q0 -7.8 -5 -12.8t-12.8 -5H375q-7.8 0 -12.8 5t-5.1 12.8v107.2q0 7.8 5.1 12.8t12.8 5h178.6q7.8 0 12.8 -5t5 -12.8zm285.7 214.3V446.4q0 -7.8 -5 -12.8t-12.8 -5H660.7q-7.8 0 -12.8 5t-5 12.8v107.2q0 7.8 5 12.8t12.8 5h178.6q7.8 0 12.8 -5t5 -12.8zm0 -214.3V232.1q0 -7.8 -5 -12.8t-12.8 -5H660.7q-7.8 0 -12.8 5t-5 12.8v107.2q0 7.8 5 12.8t12.8 5h178.6q7.8 0 12.8 -5t5 -12.8zm71.5 -178.6v607.2q0 36.8 -26.3 63t-63 26.2h-750q-36.8 0 -63.1 -26.2T0 767.9V160.7q0 -36.8 26.2 -63T89.3 71.4h750q36.8 0 63 26.3t26.3 63z"/></svg>