<svg height="1000" width="643" xmlns="http://www.w3.org/2000/svg"><path d="M0 767.872l0-607.104q0-36.828 26.226-63.054t63.054-26.226l464.256 0q36.828 0 63.054 26.226t26.226 63.054l0 607.104q0 36.828-26.226 63.054t-63.054 26.226l-464.256 0q-36.828 0-63.054-26.226t-26.226-63.054zm71.424-71.424q0 7.254 5.301 12.555t12.555 5.301l464.256 0q7.254 0 12.555-5.301t5.301-12.555l0-535.68q0-7.254-5.301-12.555t-12.555-5.301l-464.256 0q-7.254 0-12.555 5.301t-5.301 12.555l0 535.68zm214.272 89.28q0 14.508 10.602 25.11t25.11 10.602 25.11-10.602 10.602-25.11-10.602-25.11-25.11-10.602-25.11 10.602-10.602 25.11z"/></svg>