<svg height="1000" width="642.857" xmlns="http://www.w3.org/2000/svg"><path d="M357.12 785.728q0 -14.508 -10.602 -25.11t-25.11 -10.602 -25.11 10.602 -10.602 25.11 10.602 25.11 25.11 10.602 25.11 -10.602 10.602 -25.11zm214.272 -89.28v-535.68q0 -7.254 -5.301 -12.555t-12.555 -5.301h-464.256q-7.254 0 -12.555 5.301t-5.301 12.555v535.68q0 7.254 5.301 12.555t12.555 5.301h464.256q7.254 0 12.555 -5.301t5.301 -12.555zm71.424 -535.68v607.104q0 36.828 -26.226 63.054t-63.054 26.226h-464.256q-36.828 0 -63.054 -26.226t-26.226 -63.054v-607.104q0 -36.828 26.226 -63.054t63.054 -26.226h464.256q36.828 0 63.054 26.226t26.226 63.054z"/></svg>