<svg height="1000" width="929" xmlns="http://www.w3.org/2000/svg"><path d="M0 767.872l0-607.104q0-36.828 26.226-63.054t63.054-26.226l749.952 0q36.828 0 63.054 26.226t26.226 63.054l0 607.104q0 36.828-26.226 63.054t-63.054 26.226l-749.952 0q-36.828 0-63.054-26.226t-26.226-63.054zm71.424 0q0 7.812 5.022 12.834t12.834 5.022l178.56 0q7.812 0 12.834-5.022t5.022-12.834l0-107.136q0-7.812-5.022-12.834t-12.834-5.022l-178.56 0q-7.812 0-12.834 5.022t-5.022 12.834l0 107.136zm0-214.272q0 7.812 5.022 12.834t12.834 5.022l178.56 0q7.812 0 12.834-5.022t5.022-12.834l0-107.136q0-7.812-5.022-12.834t-12.834-5.022l-178.56 0q-7.812 0-12.834 5.022t-5.022 12.834l0 107.136zm0-214.272q0 7.812 5.022 12.834t12.834 5.022l178.56 0q7.812 0 12.834-5.022t5.022-12.834l0-107.136q0-7.812-5.022-12.834t-12.834-5.022l-178.56 0q-7.812 0-12.834 5.022t-5.022 12.834l0 107.136zm285.696 428.544q0 7.812 5.022 12.834t12.834 5.022l178.56 0q7.812 0 12.834-5.022t5.022-12.834l0-107.136q0-7.812-5.022-12.834t-12.834-5.022l-178.56 0q-7.812 0-12.834 5.022t-5.022 12.834l0 107.136zm0-214.272q0 7.812 5.022 12.834t12.834 5.022l178.56 0q7.812 0 12.834-5.022t5.022-12.834l0-107.136q0-7.812-5.022-12.834t-12.834-5.022l-178.56 0q-7.812 0-12.834 5.022t-5.022 12.834l0 107.136zm0-214.272q0 7.812 5.022 12.834t12.834 5.022l178.56 0q7.812 0 12.834-5.022t5.022-12.834l0-107.136q0-7.812-5.022-12.834t-12.834-5.022l-178.56 0q-7.812 0-12.834 5.022t-5.022 12.834l0 107.136zm285.696 428.544q0 7.812 5.022 12.834t12.834 5.022l178.56 0q7.812 0 12.834-5.022t5.022-12.834l0-107.136q0-7.812-5.022-12.834t-12.834-5.022l-178.56 0q-7.812 0-12.834 5.022t-5.022 12.834l0 107.136zm0-214.272q0 7.812 5.022 12.834t12.834 5.022l178.56 0q7.812 0 12.834-5.022t5.022-12.834l0-107.136q0-7.812-5.022-12.834t-12.834-5.022l-178.56 0q-7.812 0-12.834 5.022t-5.022 12.834l0 107.136zm0-214.272q0 7.812 5.022 12.834t12.834 5.022l178.56 0q7.812 0 12.834-5.022t5.022-12.834l0-107.136q0-7.812-5.022-12.834t-12.834-5.022l-178.56 0q-7.812 0-12.834 5.022t-5.022 12.834l0 107.136z"/></svg>