<svg height="1000px" width="928.5714285714286px" xmlns="http://www.w3.org/2000/svg">
  <g>
    <path d="M0 767.8571428571428c0 0 0 -607.143 0 -607.143c0 -24.553 8.743 -45.573 26.228 -63.058c17.485 -17.485 38.504 -26.228 63.058 -26.228c0 0 750 0 750 0c24.553 0 45.573 8.743 63.058 26.228c17.485 17.485 26.227 38.505 26.227 63.058c0 0 0 607.143 0 607.143c0 24.554 -8.742 45.573 -26.227 63.058c-17.485 17.485 -38.505 26.228 -63.058 26.228c0 0 -750 0 -750 0c-24.554 0 -45.573 -8.743 -63.058 -26.228c-17.485 -17.485 -26.228 -38.504 -26.228 -63.058c0 0 0 0 0 0m71.429 0c0 5.208 1.674 9.487 5.022 12.835c3.348 3.348 7.626 5.022 12.835 5.022c0 0 178.571 0 178.571 0c5.208 0 9.487 -1.674 12.835 -5.022c3.348 -3.348 5.022 -7.627 5.022 -12.835c0 0 0 -107.143 0 -107.143c0 -5.208 -1.674 -9.486 -5.022 -12.835c-3.348 -3.348 -7.627 -5.022 -12.835 -5.022c0 0 -178.571 0 -178.571 0c-5.209 0 -9.487 1.674 -12.835 5.022c-3.348 3.349 -5.022 7.627 -5.022 12.835c0 0 0 107.143 0 107.143c0 0 0 0 0 0m0 -214.286c0 5.209 1.674 9.487 5.022 12.835c3.348 3.348 7.626 5.022 12.835 5.022c0 0 178.571 0 178.571 0c5.208 0 9.487 -1.674 12.835 -5.022c3.348 -3.348 5.022 -7.626 5.022 -12.835c0 0 0 -107.143 0 -107.143c0 -5.208 -1.674 -9.486 -5.022 -12.834c-3.348 -3.349 -7.627 -5.023 -12.835 -5.023c0 0 -178.571 0 -178.571 0c-5.209 0 -9.487 1.674 -12.835 5.023c-3.348 3.348 -5.022 7.626 -5.022 12.834c0 0 0 107.143 0 107.143c0 0 0 0 0 0m0 -214.285c0 5.208 1.674 9.486 5.022 12.834c3.348 3.349 7.626 5.023 12.835 5.023c0 0 178.571 0 178.571 0c5.208 0 9.487 -1.674 12.835 -5.023c3.348 -3.348 5.022 -7.626 5.022 -12.834c0 0 0 -107.143 0 -107.143c0 -5.209 -1.674 -9.487 -5.022 -12.835c-3.348 -3.348 -7.627 -5.022 -12.835 -5.022c0 0 -178.571 0 -178.571 0c-5.209 0 -9.487 1.674 -12.835 5.022c-3.348 3.348 -5.022 7.626 -5.022 12.835c0 0 0 107.143 0 107.143c0 0 0 0 0 0m285.714 428.571c0 5.208 1.674 9.487 5.022 12.835c3.348 3.348 7.627 5.022 12.835 5.022c0 0 178.571 0 178.571 0c5.209 0 9.487 -1.674 12.835 -5.022c3.348 -3.348 5.023 -7.627 5.023 -12.835c0 0 0 -107.143 0 -107.143c0 -5.208 -1.675 -9.486 -5.023 -12.835c-3.348 -3.348 -7.626 -5.022 -12.835 -5.022c0 0 -178.571 0 -178.571 0c-5.208 0 -9.487 1.674 -12.835 5.022c-3.348 3.349 -5.022 7.627 -5.022 12.835c0 0 0 107.143 0 107.143c0 0 0 0 0 0m0 -214.286c0 5.209 1.674 9.487 5.022 12.835c3.348 3.348 7.627 5.022 12.835 5.022c0 0 178.571 0 178.571 0c5.209 0 9.487 -1.674 12.835 -5.022c3.348 -3.348 5.023 -7.626 5.023 -12.835c0 0 0 -107.143 0 -107.143c0 -5.208 -1.675 -9.486 -5.023 -12.834c-3.348 -3.349 -7.626 -5.023 -12.835 -5.023c0 0 -178.571 0 -178.571 0c-5.208 0 -9.487 1.674 -12.835 5.023c-3.348 3.348 -5.022 7.626 -5.022 12.834c0 0 0 107.143 0 107.143c0 0 0 0 0 0m0 -214.285c0 5.208 1.674 9.486 5.022 12.834c3.348 3.349 7.627 5.023 12.835 5.023c0 0 178.571 0 178.571 0c5.209 0 9.487 -1.674 12.835 -5.023c3.348 -3.348 5.023 -7.626 5.023 -12.834c0 0 0 -107.143 0 -107.143c0 -5.209 -1.675 -9.487 -5.023 -12.835c-3.348 -3.348 -7.626 -5.022 -12.835 -5.022c0 0 -178.571 0 -178.571 0c-5.208 0 -9.487 1.674 -12.835 5.022c-3.348 3.348 -5.022 7.626 -5.022 12.835c0 0 0 107.143 0 107.143c0 0 0 0 0 0m285.714 428.571c0 5.208 1.674 9.487 5.022 12.835c3.349 3.348 7.627 5.022 12.835 5.022c0 0 178.572 0 178.572 0c5.208 0 9.486 -1.674 12.835 -5.022c3.348 -3.348 5.022 -7.627 5.022 -12.835c0 0 0 -107.143 0 -107.143c0 -5.208 -1.674 -9.486 -5.022 -12.835c-3.349 -3.348 -7.627 -5.022 -12.835 -5.022c0 0 -178.572 0 -178.572 0c-5.208 0 -9.486 1.674 -12.835 5.022c-3.348 3.349 -5.022 7.627 -5.022 12.835c0 0 0 107.143 0 107.143c0 0 0 0 0 0m0 -214.286c0 5.209 1.674 9.487 5.022 12.835c3.349 3.348 7.627 5.022 12.835 5.022c0 0 178.572 0 178.572 0c5.208 0 9.486 -1.674 12.835 -5.022c3.348 -3.348 5.022 -7.626 5.022 -12.835c0 0 0 -107.143 0 -107.143c0 -5.208 -1.674 -9.486 -5.022 -12.834c-3.349 -3.349 -7.627 -5.023 -12.835 -5.023c0 0 -178.572 0 -178.572 0c-5.208 0 -9.486 1.674 -12.835 5.023c-3.348 3.348 -5.022 7.626 -5.022 12.834c0 0 0 107.143 0 107.143c0 0 0 0 0 0m0 -214.285c0 5.208 1.674 9.486 5.022 12.834c3.349 3.349 7.627 5.023 12.835 5.023c0 0 178.572 0 178.572 0c5.208 0 9.486 -1.674 12.835 -5.023c3.348 -3.348 5.022 -7.626 5.022 -12.834c0 0 0 -107.143 0 -107.143c0 -5.209 -1.674 -9.487 -5.022 -12.835c-3.349 -3.348 -7.627 -5.022 -12.835 -5.022c0 0 -178.572 0 -178.572 0c-5.208 0 -9.486 1.674 -12.835 5.022c-3.348 3.348 -5.022 7.626 -5.022 12.835c0 0 0 107.143 0 107.143c0 0 0 0 0 0" />
  </g>
</svg>