<svg height="1000px" width="642.8571428571429px" xmlns="http://www.w3.org/2000/svg">
  <g>
    <path d="M642.8571428571429 160.71428571428567c0 0 0 607.143 0 607.143c0 24.553 -8.743 45.573 -26.228 63.058c-17.485 17.485 -38.504 26.228 -63.058 26.228c0 0 -464.285 0 -464.285 0c-24.554 0 -45.573 -8.743 -63.058 -26.228c-17.486 -17.485 -26.228 -38.505 -26.228 -63.058c0 0 0 -607.143 0 -607.143c0 -24.554 8.742 -45.573 26.228 -63.058c17.485 -17.485 38.504 -26.228 63.058 -26.228c0 0 464.285 0 464.285 0c24.554 0 45.573 8.743 63.058 26.228c17.485 17.485 26.228 38.504 26.228 63.058c0 0 0 0 0 0m-71.429 535.714c0 0 0 -535.714 0 -535.714c0 -4.836 -1.767 -9.022 -5.301 -12.556c-3.534 -3.534 -7.719 -5.301 -12.556 -5.301c0 0 -464.285 0 -464.285 0c-4.837 0 -9.022 1.767 -12.556 5.301c-3.534 3.534 -5.302 7.72 -5.302 12.556c0 0 0 535.714 0 535.714c0 4.837 1.768 9.022 5.302 12.556c3.534 3.534 7.719 5.301 12.556 5.301c0 0 464.285 0 464.285 0c4.837 0 9.022 -1.767 12.556 -5.301c3.534 -3.534 5.301 -7.719 5.301 -12.556c0 0 0 0 0 0m-214.285 89.286c0 -9.673 -3.535 -18.043 -10.603 -25.112c-7.068 -7.068 -15.439 -10.602 -25.112 -10.602c-9.672 0 -18.043 3.534 -25.111 10.602c-7.069 7.069 -10.603 15.439 -10.603 25.112c0 9.673 3.534 18.043 10.603 25.112c7.068 7.068 15.439 10.602 25.111 10.602c9.673 0 18.044 -3.534 25.112 -10.602c7.068 -7.069 10.603 -15.439 10.603 -25.112c0 0 0 0 0 0" />
  </g>
</svg>