<svg height="1000" width="928.6" xmlns="http://www.w3.org/2000/svg"><path d="M0 767.9v-607.1q0-36.8 26.2-63.1t63.1-26.2h750q36.8 0 63.1 26.2t26.2 63.1v607.1q0 36.8-26.2 63.1t-63.1 26.2h-750q-36.8 0-63.1-26.2t-26.2-63.1zm71.4 0q0 7.8 5 12.8t12.8 5h178.6q7.8 0 12.8-5t5-12.8v-107.1q0-7.8-5-12.8t-12.8-5h-178.6q-7.8 0-12.8 5t-5 12.8v107.1zm0-214.3q0 7.8 5 12.8t12.8 5h178.6q7.8 0 12.8-5t5-12.8v-107.1q0-7.8-5-12.8t-12.8-5h-178.6q-7.8 0-12.8 5t-5 12.8v107.1zm0-214.3q0 7.8 5 12.8t12.8 5h178.6q7.8 0 12.8-5t5-12.8v-107.1q0-7.8-5-12.8t-12.8-5h-178.6q-7.8 0-12.8 5t-5 12.8v107.1zm285.7 428.5q0 7.8 5 12.8t12.8 5h178.6q7.8 0 12.8-5t5-12.8v-107.1q0-7.8-5-12.8t-12.8-5h-178.6q-7.8 0-12.8 5t-5 12.8v107.1zm0-214.3q0 7.8 5 12.8t12.8 5h178.6q7.8 0 12.8-5t5-12.8v-107.1q0-7.8-5-12.8t-12.8-5h-178.6q-7.8 0-12.8 5t-5 12.8v107.1zm0-214.3q0 7.8 5 12.8t12.8 5h178.6q7.8 0 12.8-5t5-12.8v-107.1q0-7.8-5-12.8t-12.8-5h-178.6q-7.8 0-12.8 5t-5 12.8v107.1zm285.7 428.5q0 7.8 5 12.8t12.8 5h178.6q7.8 0 12.8-5t5-12.8v-107.1q0-7.8-5-12.8t-12.8-5h-178.6q-7.8 0-12.8 5t-5 12.8v107.1zm0-214.3q0 7.8 5 12.8t12.8 5h178.6q7.8 0 12.8-5t5-12.8v-107.1q0-7.8-5-12.8t-12.8-5h-178.6q-7.8 0-12.8 5t-5 12.8v107.1zm0-214.3q0 7.8 5 12.8t12.8 5h178.6q7.8 0 12.8-5t5-12.8v-107.1q0-7.8-5-12.8t-12.8-5h-178.6q-7.8 0-12.8 5t-5 12.8v107.1z"/></svg>