<svg height="1000px" width="726.5625px" xmlns="http://www.w3.org/2000/svg">
  <g>
    <path d="M0 397.94921875c0 0 0 -221.68 0 -221.68c0 -15.95 5.697 -29.785 17.09 -41.504c11.393 -11.718 25.39 -17.578 41.992 -17.578c0 0 221.68 0 221.68 0c16.601 0 34.993 3.988 55.175 11.963c20.183 7.975 35.482 17.985 45.899 30.029c0 0 328.125 365.235 328.125 365.235c10.742 12.695 16.276 27.018 16.601 42.969c0.326 15.95 -5.208 29.622 -16.601 41.015c0 0 -256.836 256.836 -256.836 256.836c-11.393 11.393 -25.391 17.253 -41.992 17.578c-16.602 0.326 -30.599 -5.534 -41.992 -17.578c0 0 -327.149 -366.211 -327.149 -366.211c-11.393 -12.044 -21.24 -27.669 -29.541 -46.875c-8.301 -19.206 -12.451 -37.272 -12.451 -54.199c0 0 0 0 0 0m96.191 -127.93c0 15.951 5.453 29.46 16.358 40.528c10.905 11.067 24.333 16.601 40.283 16.601c15.951 0 29.46 -5.534 40.527 -16.601c11.068 -11.068 16.602 -24.577 16.602 -40.528c0 -15.95 -5.534 -29.378 -16.602 -40.283c-11.067 -10.905 -24.576 -16.357 -40.527 -16.357c-15.95 0 -29.378 5.452 -40.283 16.357c-10.905 10.905 -16.358 24.333 -16.358 40.283c0 0 0 0 0 0" />
  </g>
</svg>