<svg height="1000px" width="750px" xmlns="http://www.w3.org/2000/svg">
  <g>
    <path d="M0 401c0 0 0 -218 0 -218c0 -16 5.667 -29.667 17 -41c11.333 -11.333 25 -17 41 -17c0 0 218 0 218 0c16 0 33.667 4 53 12c19.333 8 34.667 17.667 46 29c0 0 358 358 358 358c11.333 11.333 17 25 17 41c0 16 -5.667 29.667 -17 41c0 0 -252 252 -252 252c-11.333 11.333 -25 17 -41 17c-16 0 -29.667 -5.667 -41 -17c0 0 -358 -358 -358 -358c-11.333 -11.333 -21 -26.667 -29 -46c-8 -19.333 -12 -37 -12 -53c0 0 0 0 0 0m94 -126c0 15.333 5.5 28.5 16.5 39.5c11 11 24.167 16.5 39.5 16.5c15.333 0 28.5 -5.5 39.5 -16.5c11 -11 16.5 -24.167 16.5 -39.5c0 -15.333 -5.5 -28.5 -16.5 -39.5c-11 -11 -24.167 -16.5 -39.5 -16.5c-15.333 0 -28.5 5.5 -39.5 16.5c-11 11 -16.5 24.167 -16.5 39.5c0 0 0 0 0 0" />
  </g>
</svg>