<svg height="1000px" width="857.1428571428571px" xmlns="http://www.w3.org/2000/svg">
  <g>
    <path d="M824.7767857142858 520.6473214285713c13.765 14.509 20.647 31.529 20.647 51.06c0 19.532 -6.882 36.18 -20.647 49.944c0 0 -273.996 274.554 -273.996 274.554c-14.508 13.765 -31.529 20.647 -51.06 20.647c-19.531 0 -36.179 -6.882 -49.944 -20.647c0 0 -398.996 -399.554 -398.996 -399.554c-14.136 -13.764 -26.134 -32.552 -35.993 -56.361c-9.858 -23.81 -14.788 -45.573 -14.788 -65.29c0 0 0 -232.143 0 -232.143c0 -19.345 7.069 -36.086 21.206 -50.223c14.136 -14.137 30.878 -21.206 50.223 -21.206c0 0 232.143 0 232.143 0c19.717 0 41.48 4.93 65.29 14.788c23.809 9.859 42.783 21.857 56.919 35.994c0 0 398.996 398.437 398.996 398.437m-574.777 -270.647c0 -19.718 -6.975 -36.552 -20.926 -50.503c-13.951 -13.95 -30.785 -20.926 -50.502 -20.926c-19.718 0 -36.552 6.976 -50.503 20.926c-13.95 13.951 -20.926 30.785 -20.926 50.503c0 19.717 6.976 36.551 20.926 50.502c13.951 13.951 30.785 20.926 50.503 20.926c19.717 0 36.551 -6.975 50.502 -20.926c13.951 -13.951 20.926 -30.785 20.926 -50.502c0 0 0 0 0 0" />
  </g>
</svg>