<svg height="1000px" width="898px" xmlns="http://www.w3.org/2000/svg">
  <g>
    <path d="M0 399.743408203125c0 0 0 -217 0 -217c0 -16 5.667 -29.667 17 -41c11.333 -11.333 25 -17 41 -17c0 0 217 0 217 0c16 0 33.833 3.833 53.5 11.5c19.667 7.667 34.833 17.5 45.5 29.5c0 0 321 358 321 358c10.667 11.333 16.167 25 16.5 41c0.333 16 -5.167 29.667 -16.5 41c0 0 -252 251 -252 251c-11.333 11.333 -25 17.167 -41 17.5c-16 0.333 -29.667 -5.5 -41 -17.5c0 0 -320 -358 -320 -358c-10.667 -12 -20.167 -27.5 -28.5 -46.5c-8.333 -19 -12.5 -36.5 -12.5 -52.5c0 0 0 0 0 0m94 -125c0 15.333 5.5 28.5 16.5 39.5c11 11 24.167 16.5 39.5 16.5c15.333 0 28.5 -5.5 39.5 -16.5c11 -11 16.5 -24.167 16.5 -39.5c0 -15.333 -5.5 -28.5 -16.5 -39.5c-11 -11 -24.167 -16.5 -39.5 -16.5c-15.333 0 -28.5 5.5 -39.5 16.5c-11 11 -16.5 24.167 -16.5 39.5c0 0 0 0 0 0m285 -149c0 0 83 0 83 0c16 0 33.833 4 53.5 12c19.667 8 34.833 17.667 45.5 29c0 0 321 358 321 358c10.667 12 16.167 25.833 16.5 41.5c0.333 15.667 -5.167 29.167 -16.5 40.5c0 0 -252 251 -252 251c-11.333 11.333 -25 17.167 -41 17.5c-16 0.333 -29.667 -5.5 -41 -17.5c0 0 -6 -7 -6 -7c0 0 246 -245 246 -245c11.333 -11.333 16.833 -25 16.5 -41c-0.333 -16 -5.833 -29.667 -16.5 -41c0 0 -320 -358 -320 -358c-10 -10.667 -23.5 -19.667 -40.5 -27c-17 -7.333 -33.167 -11.667 -48.5 -13c0 0 0 0 0 0" />
  </g>
</svg>