<svg height="1000" width="1071.429" xmlns="http://www.w3.org/2000/svg"><path d="M249.984 250.048q0 -29.574 -20.925 -50.499t-50.499 -20.925 -50.499 20.925 -20.925 50.499 20.925 50.499 50.499 20.925 50.499 -20.925 20.925 -50.499zm595.386 321.408q0 29.574 -20.646 50.22l-273.978 274.536q-21.762 20.646 -50.778 20.646 -29.574 0 -50.22 -20.646l-398.97 -399.528q-21.204 -20.646 -35.991 -56.358t-14.787 -65.286v-232.128q0 -29.016 21.204 -50.22t50.22 -21.204h232.128q29.574 0 65.286 14.787t56.916 35.991l398.97 398.412q20.646 21.762 20.646 50.778zm214.272 0q0 29.574 -20.646 50.22l-273.978 274.536q-21.762 20.646 -50.778 20.646 -20.088 0 -32.922 -7.812t-29.574 -25.11l262.26 -262.26q20.646 -20.646 20.646 -50.22 0 -29.016 -20.646 -50.778l-398.97 -398.412q-21.204 -21.204 -56.916 -35.991t-65.286 -14.787h124.992q29.574 0 65.286 14.787t56.916 35.991l398.97 398.412q20.646 21.762 20.646 50.778z"/></svg>