<svg height="1000px" width="1071.4285714285716px" xmlns="http://www.w3.org/2000/svg">
  <g>
    <path d="M0 374.99999999999994c0 0 0 -232.143 0 -232.143c0 -19.345 7.068 -36.086 21.205 -50.223c14.137 -14.137 30.878 -21.205 50.224 -21.205c0 0 232.142 0 232.142 0c19.718 0 41.481 4.929 65.291 14.788c23.809 9.858 42.782 21.856 56.919 35.993c0 0 398.996 398.437 398.996 398.437c13.765 14.509 20.647 31.529 20.647 51.061c0 19.531 -6.882 36.179 -20.647 49.944c0 0 -273.996 274.553 -273.996 274.553c-14.509 13.765 -31.529 20.648 -51.06 20.648c-19.531 0 -36.179 -6.883 -49.944 -20.648c0 0 -398.996 -399.553 -398.996 -399.553c-14.137 -13.765 -26.134 -32.552 -35.993 -56.362c-9.859 -23.809 -14.788 -45.573 -14.788 -65.29c0 0 0 0 0 0m107.143 -125c0 19.717 6.975 36.551 20.926 50.502c13.951 13.951 30.785 20.927 50.502 20.927c19.718 0 36.552 -6.976 50.503 -20.927c13.951 -13.951 20.926 -30.785 20.926 -50.502c0 -19.717 -6.975 -36.551 -20.926 -50.502c-13.951 -13.951 -30.785 -20.927 -50.503 -20.927c-19.717 0 -36.551 6.976 -50.502 20.927c-13.951 13.951 -20.926 30.785 -20.926 50.502c0 0 0 0 0 0m285.714 -178.571c0 0 125 0 125 0c19.717 0 41.481 4.929 65.29 14.788c23.81 9.858 42.783 21.856 56.92 35.993c0 0 398.995 398.437 398.995 398.437c13.765 14.509 20.648 31.529 20.648 51.061c0 19.531 -6.883 36.179 -20.647 49.944c0 0 -273.996 274.553 -273.996 274.553c-14.509 13.765 -29.948 20.648 -46.317 20.648c-16.369 0 -28.832 -2.604 -37.388 -7.813c-8.557 -5.208 -18.416 -13.579 -29.576 -25.111c0 0 262.277 -262.277 262.277 -262.277c13.764 -13.765 20.647 -30.413 20.647 -49.944c0 -19.532 -6.883 -36.552 -20.647 -51.061c0 0 -398.996 -398.437 -398.996 -398.437c-14.137 -14.137 -33.11 -26.135 -56.92 -35.993c-23.809 -9.859 -45.573 -14.788 -65.29 -14.788c0 0 0 0 0 0" />
  </g>
</svg>