<svg height="1000" width="1071.4" xmlns="http://www.w3.org/2000/svg"><path d="M250 250q0 -29.6 -20.9 -50.5t-50.5 -20.9 -50.5 20.9 -21 50.5 21 50.5 50.5 20.9 50.5 -20.9T250 250zm595.4 321.4q0 29.6 -20.6 50.3l-274 274.5Q529 916.9 500 916.9q-29.6 0 -50.2 -20.7L50.8 496.7Q29.6 476 14.8 440.3T0 375V142.9Q0 113.8 21.2 92.6T71.4 71.4h232.2q29.5 0 65.3 14.8t56.9 36l399 398.4q20.6 21.8 20.6 50.8zm214.3 0q0 29.6 -20.6 50.3l-274 274.5q-21.8 20.7 -50.8 20.7 -20.1 0 -32.9 -7.9t-29.6 -25.1L914.1 621.7q20.6 -20.7 20.6 -50.3 0 -29 -20.6 -50.8l-399 -398.4q-21.2 -21.2 -57 -36T392.9 71.4h125q29.5 0 65.2 14.8t57 36l399 398.4q20.6 21.8 20.6 50.8z"/></svg>