<svg height="1000px" width="1071.4285714285716px" xmlns="http://www.w3.org/2000/svg">
  <g>
    <path d="M1039.0625 520.6473214285713c13.765 14.509 20.647 31.529 20.647 51.06c0 19.532 -6.882 36.18 -20.647 49.944c0 0 -273.996 274.554 -273.996 274.554c-14.508 13.765 -29.947 20.647 -46.317 20.647c-16.369 0 -28.831 -2.604 -37.388 -7.812c-8.556 -5.208 -18.415 -13.579 -29.576 -25.112c0 0 262.277 -262.277 262.277 -262.277c13.765 -13.764 20.647 -30.412 20.647 -49.944c0 -19.531 -6.882 -36.551 -20.647 -51.06c0 0 -398.996 -398.438 -398.996 -398.438c-14.136 -14.136 -33.11 -26.134 -56.919 -35.993c-23.81 -9.858 -45.573 -14.788 -65.29 -14.788c0 0 125 0 125 0c19.717 0 41.48 4.93 65.29 14.788c23.809 9.859 42.783 21.857 56.919 35.993c0 0 398.996 398.438 398.996 398.438m-214.286 0c13.765 14.509 20.648 31.529 20.648 51.06c0 19.532 -6.883 36.18 -20.648 49.944c0 0 -273.995 274.554 -273.995 274.554c-14.509 13.765 -31.529 20.647 -51.061 20.647c-19.531 0 -36.179 -6.882 -49.944 -20.647c0 0 -398.995 -399.554 -398.995 -399.554c-14.137 -13.764 -26.135 -32.552 -35.994 -56.361c-9.858 -23.81 -14.787 -45.573 -14.787 -65.29c0 0 0 -232.143 0 -232.143c0 -19.345 7.068 -36.086 21.205 -50.223c14.137 -14.137 30.878 -21.206 50.223 -21.206c0 0 232.143 0 232.143 0c19.717 0 41.481 4.93 65.29 14.788c23.81 9.859 42.783 21.857 56.92 35.994c0 0 398.995 398.437 398.995 398.437m-574.776 -270.647c-0.001 -19.718 -6.976 -36.552 -20.927 -50.503c-13.951 -13.95 -30.785 -20.926 -50.502 -20.926c-19.717 0 -36.551 6.976 -50.502 20.926c-13.951 13.951 -20.927 30.785 -20.927 50.503c0 19.717 6.976 36.551 20.927 50.502c13.951 13.951 30.785 20.926 50.502 20.926c19.717 0 36.551 -6.975 50.502 -20.926c13.951 -13.951 20.926 -30.785 20.927 -50.502c0 0 0 0 0 0" />
  </g>
</svg>