<svg height="1000px" width="915.52734375px" xmlns="http://www.w3.org/2000/svg">
  <g>
    <path d="M0 397.94921875c0 0 0 -221.68 0 -221.68c0 -15.95 5.697 -29.785 17.09 -41.504c11.393 -11.718 25.39 -17.578 41.992 -17.578c0 0 221.68 0 221.68 0c8.138 0 16.845 0.977 26.123 2.93c9.277 1.953 18.636 4.964 28.076 9.033c9.44 4.069 18.31 8.626 26.611 13.672c8.301 5.046 15.056 10.498 20.264 16.357c0 0 327.148 365.235 327.148 365.235c10.743 12.044 16.276 26.042 16.602 41.992c0.325 15.951 -5.208 29.622 -16.602 41.016c0 0 -256.836 255.859 -256.836 255.859c-11.393 11.393 -25.472 17.415 -42.236 18.066c-16.764 0.651 -30.355 -5.371 -40.771 -18.066c0 0 -327.149 -364.258 -327.149 -364.258c-11.393 -12.695 -21.24 -28.646 -29.541 -47.851c-8.301 -19.206 -12.451 -36.947 -12.451 -53.223c0 0 0 0 0 0m95.215 -127.93c0 15.3 5.615 28.646 16.846 40.039c11.23 11.394 24.821 17.09 40.771 17.09c15.3 0 28.646 -5.696 40.039 -17.09c11.393 -11.393 17.09 -24.739 17.09 -40.039c0 -15.95 -5.697 -29.541 -17.09 -40.771c-11.393 -11.231 -24.739 -16.846 -40.039 -16.846c-15.95 0 -29.541 5.615 -40.771 16.846c-11.231 11.23 -16.846 24.821 -16.846 40.771c0 0 0 0 0 0m291.015 -151.855c0 0 84.961 0 84.961 0c16.602 0 34.913 3.987 54.932 11.963c20.02 7.975 35.238 17.985 45.654 30.029c0 0 327.149 365.234 327.149 365.234c11.393 12.045 17.09 26.205 17.09 42.481c0 16.276 -5.697 30.111 -17.09 41.504c0 0 -255.86 255.859 -255.86 255.859c-11.393 11.393 -25.39 17.253 -41.992 17.578c-16.601 0.326 -30.599 -5.534 -41.992 -17.578c0 0 -5.859 -6.836 -5.859 -6.836c0 0 250.976 -250.976 250.976 -250.976c11.393 -11.394 17.009 -25.147 16.846 -41.26c-0.163 -16.113 -5.778 -30.029 -16.846 -41.748c0 0 -327.148 -365.235 -327.148 -365.235c-10.091 -11.393 -23.763 -20.589 -41.016 -27.587c-17.252 -6.999 -33.854 -11.475 -49.805 -13.428c0 0 0 0 0 0" />
  </g>
</svg>