<svg height="1000" width="1071.4" xmlns="http://www.w3.org/2000/svg"><path d="M0 375v-232.1q0-29 21.2-50.2t50.2-21.2h232.1q29.6 0 65.3 14.8t56.9 36l399 398.4q20.6 21.8 20.6 50.8 0 29.6-20.6 50.2l-274 274.5q-21.8 20.6-50.8 20.6-29.6 0-50.2-20.6l-399-399.5q-21.2-20.6-36-56.4t-14.8-65.3zm107.1-125q0 29.6 20.9 50.5t50.5 20.9 50.5-20.9 20.9-50.5-20.9-50.5-50.5-20.9-50.5 20.9-20.9 50.5zm285.7-178.6h125q29.6 0 65.3 14.8t56.9 36l399 398.4q20.6 21.8 20.6 50.8 0 29.6-20.6 50.2l-274 274.5q-21.8 20.6-50.8 20.6-20.1 0-32.9-7.8t-29.6-25.1l262.3-262.3q20.6-20.6 20.6-50.2 0-29-20.6-50.8l-399-398.4q-21.2-21.2-56.9-36t-65.3-14.8z"/></svg>