<svg height="1000" width="857.1" xmlns="http://www.w3.org/2000/svg"><path d="M668 571.4h-60.9q-14.5 0 -25.1 -10.6t-10.6 -25.1v-71.4q0 -14.5 10.6 -25.1t25.1 -10.6H668Q650.1 368.3 605.2 323.4T500 260.6v60.8q0 14.5 -10.6 25.1t-25.1 10.6h-71.4q-14.6 0 -25.2 -10.6t-10.6 -25.1v-60.8Q296.9 278.5 252 323.4t-62.8 105.2H250q14.5 0 25.1 10.6t10.6 25.1v71.4q0 14.5 -10.6 25.1T250 571.4h-60.8Q207 631.7 252 676.6t105.1 62.8v-60.8q0 -14.5 10.6 -25.1t25.2 -10.6h71.4q14.5 0 25.1 10.6t10.6 25.1v60.8q60.3 -17.9 105.2 -62.8T668 571.4zM857.1 464.3v71.4q0 14.5 -10.6 25.1t-25.1 10.6h-79.8Q721 661.3 655.4 726.8T500 813.1v79.8q0 14.5 -10.6 25.1t-25.1 10.6h-71.4q-14.6 0 -25.2 -10.6t-10.6 -25.1v-79.8Q267.3 792.4 201.7 726.8T115.5 571.4H35.7q-14.5 0 -25.1 -10.6T0 535.7v-71.4q0 -14.5 10.6 -25.1t25.1 -10.6h79.8q20.7 -89.9 86.2 -155.4t155.4 -86.3v-79.8q0 -14.5 10.6 -25.1t25.2 -10.6h71.4q14.5 0 25.1 10.6t10.6 25.1v79.8q89.8 20.7 155.4 86.3t86.2 155.4h79.8q14.5 0 25.1 10.6t10.6 25.1z"/></svg>