<svg height="1000" width="857.143" xmlns="http://www.w3.org/2000/svg"><path d="M667.926 571.456h-60.822q-14.508 0 -25.11 -10.602t-10.602 -25.11v-71.424q0 -14.508 10.602 -25.11t25.11 -10.602h60.822q-17.856 -60.264 -62.775 -105.183t-105.183 -62.775v60.822q0 14.508 -10.602 25.11t-25.11 10.602h-71.424q-14.508 0 -25.11 -10.602t-10.602 -25.11v-60.822q-60.264 17.856 -105.183 62.775t-62.775 105.183h60.822q14.508 0 25.11 10.602t10.602 25.11v71.424q0 14.508 -10.602 25.11t-25.11 10.602h-60.822q17.856 60.264 62.775 105.183t105.183 62.775v-60.822q0 -14.508 10.602 -25.11t25.11 -10.602h71.424q14.508 0 25.11 10.602t10.602 25.11v60.822q60.264 -17.856 105.183 -62.775t62.775 -105.183zm189.162 -107.136v71.424q0 14.508 -10.602 25.11t-25.11 10.602h-79.794q-20.646 89.838 -86.211 155.403t-155.403 86.211v79.794q0 14.508 -10.602 25.11t-25.11 10.602h-71.424q-14.508 0 -25.11 -10.602t-10.602 -25.11v-79.794q-89.838 -20.646 -155.403 -86.211t-86.211 -155.403h-79.794q-14.508 0 -25.11 -10.602t-10.602 -25.11v-71.424q0 -14.508 10.602 -25.11t25.11 -10.602h79.794q20.646 -89.838 86.211 -155.403t155.403 -86.211v-79.794q0 -14.508 10.602 -25.11t25.11 -10.602h71.424q14.508 0 25.11 10.602t10.602 25.11v79.794q89.838 20.646 155.403 86.211t86.211 155.403h79.794q14.508 0 25.11 10.602t10.602 25.11z"/></svg>