<svg height="1000" width="857.1" xmlns="http://www.w3.org/2000/svg"><path d="M0 535.7v-71.4q0-14.5 10.6-25.1t25.1-10.6h79.8q20.6-89.8 86.2-155.4t155.4-86.2v-79.8q0-14.5 10.6-25.1t25.1-10.6h71.4q14.5 0 25.1 10.6t10.6 25.1v79.8q89.8 20.6 155.4 86.2t86.2 155.4h79.8q14.5 0 25.1 10.6t10.6 25.1v71.4q0 14.5-10.6 25.1t-25.1 10.6h-79.8q-20.6 89.8-86.2 155.4t-155.4 86.2v79.8q0 14.5-10.6 25.1t-25.1 10.6h-71.4q-14.5 0-25.1-10.6t-10.6-25.1v-79.8q-89.8-20.6-155.4-86.2t-86.2-155.4h-79.8q-14.5 0-25.1-10.6t-10.6-25.1zm189.2 35.7q17.9 60.3 62.8 105.2t105.2 62.8v-60.8q0-14.5 10.6-25.1t25.1-10.6h71.4q14.5 0 25.1 10.6t10.6 25.1v60.8q60.3-17.9 105.2-62.8t62.8-105.2h-60.8q-14.5 0-25.1-10.6t-10.6-25.1v-71.4q0-14.5 10.6-25.1t25.1-10.6h60.8q-17.9-60.3-62.8-105.2t-105.2-62.8v60.8q0 14.5-10.6 25.1t-25.1 10.6h-71.4q-14.5 0-25.1-10.6t-10.6-25.1v-60.8q-60.3 17.9-105.2 62.8t-62.8 105.2h60.8q14.5 0 25.1 10.6t10.6 25.1v71.4q0 14.5-10.6 25.1t-25.1 10.6h-60.8z"/></svg>