<svg height="1000px" width="857.1428571428571px" xmlns="http://www.w3.org/2000/svg">
  <g>
    <path d="M857.1428571428571 464.2857142857142c0 0 0 71.429 0 71.429c0 9.672 -3.534 18.043 -10.603 25.111c-7.068 7.069 -15.439 10.603 -25.111 10.603c0 0 -79.799 0 -79.799 0c-13.765 59.896 -42.504 111.7 -86.217 155.413c-43.713 43.713 -95.517 72.451 -155.413 86.216c0 0 0 79.799 0 79.799c0 9.673 -3.534 18.044 -10.603 25.112c-7.068 7.068 -15.439 10.603 -25.111 10.603c0 0 -71.429 0 -71.429 0c-9.672 0 -18.043 -3.535 -25.111 -10.603c-7.069 -7.068 -10.603 -15.439 -10.603 -25.112c0 0 0 -79.799 0 -79.799c-59.896 -13.765 -111.7 -42.503 -155.413 -86.216c-43.713 -43.713 -72.452 -95.517 -86.216 -155.413c0 0 -79.8 0 -79.8 0c-9.672 0 -18.043 -3.534 -25.111 -10.603c-7.069 -7.068 -10.603 -15.439 -10.603 -25.111c0 0 0 -71.429 0 -71.429c0 -9.673 3.534 -18.043 10.603 -25.112c7.068 -7.068 15.439 -10.602 25.111 -10.602c0 0 79.8 0 79.8 0c13.764 -59.896 42.503 -111.7 86.216 -155.413c43.713 -43.713 95.517 -72.452 155.413 -86.217c0 0 0 -79.799 0 -79.799c0 -9.672 3.534 -18.043 10.603 -25.111c7.068 -7.069 15.439 -10.603 25.111 -10.603c0 0 71.429 0 71.429 0c9.672 0 18.043 3.534 25.111 10.603c7.069 7.068 10.603 15.439 10.603 25.111c0 0 0 79.799 0 79.799c59.896 13.765 111.7 42.504 155.413 86.217c43.713 43.713 72.452 95.517 86.217 155.413c0 0 79.799 0 79.799 0c9.672 0 18.043 3.534 25.111 10.602c7.069 7.069 10.603 15.439 10.603 25.112c0 0 0 0 0 0m-189.174 107.143c0 0 -60.826 0 -60.826 0c-9.673 0 -18.043 -3.534 -25.112 -10.603c-7.068 -7.068 -10.602 -15.439 -10.602 -25.111c0 0 0 -71.429 0 -71.429c0 -9.673 3.534 -18.043 10.602 -25.112c7.069 -7.068 15.439 -10.602 25.112 -10.602c0 0 60.826 0 60.826 0c-11.905 -40.179 -32.831 -75.242 -62.779 -105.19c-29.948 -29.948 -65.011 -50.874 -105.19 -62.779c0 0 0 60.826 0 60.826c0 9.672 -3.534 18.043 -10.603 25.111c-7.068 7.069 -15.439 10.603 -25.111 10.603c0 0 -71.429 0 -71.429 0c-9.672 0 -18.043 -3.534 -25.111 -10.603c-7.069 -7.068 -10.603 -15.439 -10.603 -25.111c0 0 0 -60.826 0 -60.826c-40.179 11.905 -75.242 32.831 -105.19 62.779c-29.948 29.948 -50.874 65.011 -62.779 105.19c0 0 60.826 0 60.826 0c9.673 0 18.043 3.534 25.112 10.602c7.068 7.069 10.602 15.439 10.602 25.112c0 0 0 71.429 0 71.429c0 9.672 -3.534 18.043 -10.602 25.111c-7.069 7.069 -15.439 10.603 -25.112 10.603c0 0 -60.826 0 -60.826 0c11.905 40.178 32.831 75.242 62.779 105.19c29.948 29.948 65.011 50.874 105.19 62.779c0 0 0 -60.826 0 -60.826c0 -9.673 3.534 -18.043 10.603 -25.112c7.068 -7.068 15.439 -10.603 25.111 -10.603c0 0 71.429 0 71.429 0c9.672 0 18.043 3.535 25.111 10.603c7.069 7.069 10.603 15.439 10.603 25.112c0 0 0 60.826 0 60.826c40.179 -11.905 75.242 -32.831 105.19 -62.779c29.948 -29.948 50.874 -65.012 62.779 -105.19c0 0 0 0 0 0" />
  </g>
</svg>