<svg height="1000" width="858" xmlns="http://www.w3.org/2000/svg"><path d="M0 535.744l0-71.424q0-14.508 10.602-25.11t25.11-10.602l79.794 0q20.646-89.838 86.211-155.403t155.403-86.211l0-79.794q0-14.508 10.602-25.11t25.11-10.602l71.424 0q14.508 0 25.11 10.602t10.602 25.11l0 79.794q89.838 20.646 155.403 86.211t86.211 155.403l79.794 0q14.508 0 25.11 10.602t10.602 25.11l0 71.424q0 14.508-10.602 25.11t-25.11 10.602l-79.794 0q-20.646 89.838-86.211 155.403t-155.403 86.211l0 79.794q0 14.508-10.602 25.11t-25.11 10.602l-71.424 0q-14.508 0-25.11-10.602t-10.602-25.11l0-79.794q-89.838-20.646-155.403-86.211t-86.211-155.403l-79.794 0q-14.508 0-25.11-10.602t-10.602-25.11zm189.162 35.712q17.856 60.264 62.775 105.183t105.183 62.775l0-60.822q0-14.508 10.602-25.11t25.11-10.602l71.424 0q14.508 0 25.11 10.602t10.602 25.11l0 60.822q60.264-17.856 105.183-62.775t62.775-105.183l-60.822 0q-14.508 0-25.11-10.602t-10.602-25.11l0-71.424q0-14.508 10.602-25.11t25.11-10.602l60.822 0q-17.856-60.264-62.775-105.183t-105.183-62.775l0 60.822q0 14.508-10.602 25.11t-25.11 10.602l-71.424 0q-14.508 0-25.11-10.602t-10.602-25.11l0-60.822q-60.264 17.856-105.183 62.775t-62.775 105.183l60.822 0q14.508 0 25.11 10.602t10.602 25.11l0 71.424q0 14.508-10.602 25.11t-25.11 10.602l-60.822 0z"/></svg>