<svg height="1000px" width="750px" xmlns="http://www.w3.org/2000/svg">
  <g>
    <path d="M0 537.109375c0 0 0 -75.195 0 -75.195c0 -5.209 1.872 -9.522 5.615 -12.94c3.744 -3.418 8.22 -5.127 13.428 -5.127c0 0 80.078 0 80.078 0c5.859 -27.343 15.462 -53.141 28.809 -77.392c13.346 -24.252 29.541 -45.899 48.584 -64.942c19.043 -19.043 40.69 -35.237 64.941 -48.584c24.251 -13.346 50.049 -22.949 77.393 -28.808c0 0 0 -80.078 0 -80.078c0 -12.696 6.347 -19.043 19.043 -19.043c0 0 75.195 0 75.195 0c5.208 0 9.521 1.871 12.939 5.615c3.418 3.743 5.127 8.219 5.127 13.428c0 0 0 80.078 0 80.078c27.344 5.859 53.142 15.462 77.393 28.808c24.251 13.347 45.898 29.541 64.941 48.584c19.043 19.043 35.238 40.69 48.584 64.942c13.347 24.251 22.95 50.049 28.809 77.392c0 0 80.078 0 80.078 0c5.208 0 9.684 1.709 13.428 5.127c3.743 3.418 5.615 7.731 5.615 12.94c0 0 0 75.195 0 75.195c0 12.695 -6.348 19.043 -19.043 19.043c0 0 -80.078 0 -80.078 0c-5.859 27.344 -15.462 53.141 -28.809 77.393c-13.346 24.251 -29.541 45.898 -48.584 64.941c-19.043 19.043 -40.69 35.238 -64.941 48.584c-24.251 13.346 -50.049 22.949 -77.393 28.809c0 0 0 80.078 0 80.078c0 5.208 -1.709 9.684 -5.127 13.427c-3.418 3.744 -7.731 5.616 -12.939 5.616c0 0 -75.195 0 -75.195 0c-12.696 0 -19.043 -6.348 -19.043 -19.043c0 0 0 -80.078 0 -80.078c-27.344 -5.86 -53.142 -15.463 -77.393 -28.809c-24.251 -13.346 -45.898 -29.541 -64.941 -48.584c-19.043 -19.043 -35.238 -40.69 -48.584 -64.941c-13.347 -24.252 -22.95 -50.049 -28.809 -77.393c0 0 -80.078 0 -80.078 0c-12.695 0 -19.043 -6.348 -19.043 -19.043c0 0 0 0 0 0m178.223 19.043c9.44 34.505 26.611 64.29 51.513 89.355c24.903 25.066 54.606 42.155 89.112 51.27c0 0 0 -84.961 0 -84.961c0 -5.208 1.871 -9.44 5.615 -12.695c3.743 -3.255 8.219 -4.883 13.428 -4.883c0 0 75.195 0 75.195 0c5.208 0 9.521 1.628 12.939 4.883c3.418 3.255 5.127 7.487 5.127 12.695c0 0 0 84.961 0 84.961c34.506 -9.44 64.291 -26.611 89.356 -51.514c25.065 -24.902 42.155 -54.606 51.269 -89.111c0 0 -83.984 0 -83.984 0c-12.695 0 -18.88 -6.348 -18.555 -19.043c0 0 0 -75.195 0 -75.195c0 -5.209 1.791 -9.522 5.371 -12.94c3.581 -3.418 7.976 -5.127 13.184 -5.127c0 0 83.984 0 83.984 0c-9.44 -34.505 -26.611 -64.29 -51.513 -89.355c-24.903 -25.065 -54.606 -42.155 -89.112 -51.27c0 0 0 83.985 0 83.985c0 5.208 -1.709 9.603 -5.127 13.183c-3.418 3.581 -7.731 5.371 -12.939 5.371c0 0 -75.195 0 -75.195 0c-12.696 0 -19.043 -6.185 -19.043 -18.554c0 0 0 -83.985 0 -83.985c-34.506 9.44 -64.291 26.612 -89.356 51.514c-25.065 24.902 -42.155 54.606 -51.269 89.111c0 0 84.961 0 84.961 0c5.208 0 9.44 1.709 12.695 5.127c3.255 3.418 4.883 7.731 4.883 12.94c0 0 0 75.195 0 75.195c0 5.208 -1.628 9.684 -4.883 13.428c-3.255 3.743 -7.487 5.615 -12.695 5.615c0 0 -84.961 0 -84.961 0c0 0 0 0 0 0" />
  </g>
</svg>