<svg height="1000px" width="750px" xmlns="http://www.w3.org/2000/svg">
  <g>
    <path d="M0 537c0 0 0 -75 0 -75c0 -5.333 1.833 -9.667 5.5 -13c3.667 -3.333 8.167 -5 13.5 -5c0 0 80 0 80 0c6 -27.333 15.667 -53.167 29 -77.5c13.333 -24.333 29.5 -46 48.5 -65c19 -19 40.667 -35.167 65 -48.5c24.333 -13.333 50.167 -23 77.5 -29c0 0 0 -80 0 -80c0 -12.667 6.333 -19 19 -19c0 0 75 0 75 0c5.333 0 9.667 1.833 13 5.5c3.333 3.667 5 8.167 5 13.5c0 0 0 80 0 80c27.333 6 53.167 15.667 77.5 29c24.333 13.333 46 29.5 65 48.5c19 19 35.167 40.667 48.5 65c13.333 24.333 23 50.167 29 77.5c0 0 80 0 80 0c5.333 0 9.833 1.667 13.5 5c3.667 3.333 5.5 7.667 5.5 13c0 0 0 75 0 75c0 12.667 -6.333 19 -19 19c0 0 -80 0 -80 0c-6 27.333 -15.667 53.167 -29 77.5c-13.333 24.333 -29.5 46 -48.5 65c-19 19 -40.667 35.167 -65 48.5c-24.333 13.333 -50.167 23 -77.5 29c0 0 0 80 0 80c0 5.333 -1.667 9.833 -5 13.5c-3.333 3.667 -7.667 5.5 -13 5.5c0 0 -75 0 -75 0c-12.667 0 -19 -6.333 -19 -19c0 0 0 -80 0 -80c-27.333 -6 -53.167 -15.667 -77.5 -29c-24.333 -13.333 -46 -29.5 -65 -48.5c-19 -19 -35.167 -40.667 -48.5 -65c-13.333 -24.333 -23 -50.167 -29 -77.5c0 0 -80 0 -80 0c-12.667 0 -19 -6.333 -19 -19c0 0 0 0 0 0m178 19c9.333 34.667 26.5 64.5 51.5 89.5c25 25 54.833 42.167 89.5 51.5c0 0 0 -85 0 -85c0 -5.333 1.833 -9.667 5.5 -13c3.667 -3.333 8.167 -5 13.5 -5c0 0 75 0 75 0c5.333 0 9.667 1.667 13 5c3.333 3.333 5 7.667 5 13c0 0 0 85 0 85c34.667 -9.333 64.5 -26.5 89.5 -51.5c25 -25 42.167 -54.833 51.5 -89.5c0 0 -84 0 -84 0c-12.667 0 -19 -6.333 -19 -19c0 0 0 -75 0 -75c0 -5.333 1.833 -9.667 5.5 -13c3.667 -3.333 8.167 -5 13.5 -5c0 0 84 0 84 0c-9.333 -34.667 -26.5 -64.5 -51.5 -89.5c-25 -25 -54.833 -42.167 -89.5 -51.5c0 0 0 84 0 84c0 5.333 -1.667 9.833 -5 13.5c-3.333 3.667 -7.667 5.5 -13 5.5c0 0 -75 0 -75 0c-12.667 0 -19 -6.333 -19 -19c0 0 0 -84 0 -84c-34.667 9.333 -64.5 26.5 -89.5 51.5c-25 25 -42.167 54.833 -51.5 89.5c0 0 85 0 85 0c5.333 0 9.667 1.667 13 5c3.333 3.333 5 7.667 5 13c0 0 0 75 0 75c0 5.333 -1.667 9.833 -5 13.5c-3.333 3.667 -7.667 5.5 -13 5.5c0 0 -85 0 -85 0c0 0 0 0 0 0" />
  </g>
</svg>