<svg height="1000" width="1000" xmlns="http://www.w3.org/2000/svg"><path d="M0 821.4v-142.8q0-14.5 10.6-25.1t25.1-10.6h928.5q14.5 0 25.1 10.6t10.6 25.1v142.8q0 14.5-10.6 25.1t-25.1 10.6h-928.5q-14.5 0-25.1-10.6t-10.6-25.1zm0-285.7v-142.8q0-14.5 10.6-25.1t25.1-10.6h928.5q14.5 0 25.1 10.6t10.6 25.1v142.8q0 14.5-10.6 25.1t-25.1 10.6h-928.5q-14.5 0-25.1-10.6t-10.6-25.1zm0-285.7v-142.8q0-14.5 10.6-25.1t25.1-10.6h928.5q14.5 0 25.1 10.6t10.6 25.1v142.8q0 14.5-10.6 25.1t-25.1 10.6h-928.5q-14.5 0-25.1-10.6t-10.6-25.1zm357.1 250h571.4v-71.4h-571.4v71.4zm214.3 285.7h357.1v-71.4h-357.1v71.4zm142.8-571.4h214.3v-71.4h-214.3v71.4z"/></svg>