<svg height="1000" width="1000" xmlns="http://www.w3.org/2000/svg"><path d="M0 821.44v-142.848q0 -14.508 10.602 -25.11t25.11 -10.602h928.512q14.508 0 25.11 10.602t10.602 25.11v142.848q0 14.508 -10.602 25.11t-25.11 10.602h-928.512q-14.508 0 -25.11 -10.602t-10.602 -25.11zm0 -285.696v-142.848q0 -14.508 10.602 -25.11t25.11 -10.602h928.512q14.508 0 25.11 10.602t10.602 25.11v142.848q0 14.508 -10.602 25.11t-25.11 10.602h-928.512q-14.508 0 -25.11 -10.602t-10.602 -25.11zm0 -285.696v-142.848q0 -14.508 10.602 -25.11t25.11 -10.602h928.512q14.508 0 25.11 10.602t10.602 25.11v142.848q0 14.508 -10.602 25.11t-25.11 10.602h-928.512q-14.508 0 -25.11 -10.602t-10.602 -25.11zm357.12 249.984h571.392v-71.424h-571.392v71.424zm214.272 285.696h357.12v-71.424h-357.12v71.424zm142.848 -571.392h214.272v-71.424h-214.272v71.424z"/></svg>