<svg height="1000" width="1000" xmlns="http://www.w3.org/2000/svg"><path d="M0 821.44l0-142.848q0-14.508 10.602-25.11t25.11-10.602l928.512 0q14.508 0 25.11 10.602t10.602 25.11l0 142.848q0 14.508-10.602 25.11t-25.11 10.602l-928.512 0q-14.508 0-25.11-10.602t-10.602-25.11zm0-285.696l0-142.848q0-14.508 10.602-25.11t25.11-10.602l928.512 0q14.508 0 25.11 10.602t10.602 25.11l0 142.848q0 14.508-10.602 25.11t-25.11 10.602l-928.512 0q-14.508 0-25.11-10.602t-10.602-25.11zm0-285.696l0-142.848q0-14.508 10.602-25.11t25.11-10.602l928.512 0q14.508 0 25.11 10.602t10.602 25.11l0 142.848q0 14.508-10.602 25.11t-25.11 10.602l-928.512 0q-14.508 0-25.11-10.602t-10.602-25.11zm357.12 249.984l571.392 0l0-71.424l-571.392 0l0 71.424zm214.272 285.696l357.12 0l0-71.424l-357.12 0l0 71.424zm142.848-571.392l214.272 0l0-71.424l-214.272 0l0 71.424z"/></svg>