<svg height="1000px" width="899.90234375px" xmlns="http://www.w3.org/2000/svg">
  <g>
    <path d="M0 837.890625c0 0 0 -105.957 0 -105.957c0 -10.091 3.662 -18.799 10.986 -26.123c7.325 -7.324 16.032 -10.986 26.123 -10.986c0 0 824.707 0 824.707 0c10.743 0 19.776 3.662 27.1 10.986c7.324 7.324 10.986 16.032 10.986 26.123c0 0 0 105.957 0 105.957c0 10.091 -3.662 18.799 -10.986 26.123c-7.324 7.324 -16.357 10.986 -27.1 10.986c0 0 -824.707 0 -824.707 0c-10.091 0 -18.798 -3.662 -26.123 -10.986c-7.324 -7.324 -10.986 -16.032 -10.986 -26.123c0 0 0 0 0 0m0 -286.133c0 0 0 -104.98 0 -104.98c0 -10.091 3.662 -18.718 10.986 -25.879c7.325 -7.162 16.032 -10.742 26.123 -10.742c0 0 824.707 0 824.707 0c10.743 0 19.776 3.662 27.1 10.986c7.324 7.324 10.986 15.869 10.986 25.635c0 0 0 104.98 0 104.98c0 10.742 -3.662 19.776 -10.986 27.1c-7.324 7.324 -16.357 10.986 -27.1 10.986c0 0 -824.707 0 -824.707 0c-10.091 0 -18.798 -3.662 -26.123 -10.986c-7.324 -7.324 -10.986 -16.358 -10.986 -27.1c0 0 0 0 0 0m0 -283.691c0 0 0 -105.957 0 -105.957c0 -10.091 3.662 -18.799 10.986 -26.123c7.325 -7.325 16.032 -10.987 26.123 -10.987c0 0 824.707 0 824.707 0c10.743 0 19.776 3.662 27.1 10.987c7.324 7.324 10.986 16.032 10.986 26.123c0 0 0 105.957 0 105.957c0 10.091 -3.662 18.799 -10.986 26.123c-7.324 7.324 -16.357 10.986 -27.1 10.986c0 0 -824.707 0 -824.707 0c-10.091 0 -18.798 -3.662 -26.123 -10.986c-7.324 -7.324 -10.986 -16.032 -10.986 -26.123c0 0 0 0 0 0m367.187 269.043c0 0 487.793 0 487.793 0c0 0 0 -75.196 0 -75.196c0 0 -487.793 0 -487.793 0c0 0 0 75.196 0 75.196c0 0 0 0 0 0m149.903 284.668c0 0 337.89 0 337.89 0c0 0 0 -74.707 0 -74.707c0 0 -337.89 0 -337.89 0c0 0 0 74.707 0 74.707c0 0 0 0 0 0m149.902 -568.848c0 0 187.988 0 187.988 0c0 0 0 -74.707 0 -74.707c0 0 -187.988 0 -187.988 0c0 0 0 74.707 0 74.707c0 0 0 0 0 0" />
  </g>
</svg>