<svg height="1000" width="1000" xmlns="http://www.w3.org/2000/svg"><path d="M571.4 785.7h357.2v-71.4H571.4v71.4zM357.1 500h571.5v-71.4H357.1V500zM714.3 214.3h214.3v-71.4H714.3v71.4zM1000 678.6v142.8q0 14.5 -10.6 25.1t-25.1 10.6H35.7q-14.5 0 -25.1 -10.6T0 821.4V678.6q0 -14.5 10.6 -25.1t25.1 -10.6h928.6q14.5 0 25.1 10.6t10.6 25.1zm0 -285.7v142.8q0 14.5 -10.6 25.1t-25.1 10.6H35.7q-14.5 0 -25.1 -10.6T0 535.7V392.9q0 -14.6 10.6 -25.2t25.1 -10.6h928.6q14.5 0 25.1 10.6t10.6 25.2zm0 -285.8V250q0 14.5 -10.6 25.1t-25.1 10.6H35.7q-14.5 0 -25.1 -10.6T0 250V107.1Q0 92.6 10.6 82T35.7 71.4h928.6q14.5 0 25.1 10.6t10.6 25.1z"/></svg>