<svg height="1000" width="1142.857" xmlns="http://www.w3.org/2000/svg"><path d="M1017.792 500.032q51.894 0 88.443 36.549t36.549 88.443v214.272q0 7.812 -5.022 12.834t-12.834 5.022h-53.568v35.712q0 44.64 -31.248 75.888t-75.888 31.248 -75.888 -31.248 -31.248 -75.888v-35.712h-571.392v35.712q0 44.64 -31.248 75.888t-75.888 31.248 -75.888 -31.248 -31.248 -75.888v-35.712h-53.568q-7.812 0 -12.834 -5.022t-5.022 -12.834v-214.272q0 -51.894 36.549 -88.443t88.443 -36.549h15.624l58.59 -233.802q12.834 -52.452 58.032 -87.885t99.882 -35.433h71.424v-124.992q0 -7.812 5.022 -12.834t12.834 -5.022h249.984q7.812 0 12.834 5.022t5.022 12.834v124.992h71.424q54.684 0 99.882 35.433t58.032 87.885l58.59 233.802h15.624zm-839.232 267.84q36.828 0 63.054 -26.226t26.226 -63.054 -26.226 -63.054 -63.054 -26.226 -63.054 26.226 -26.226 63.054 26.226 63.054 63.054 26.226zm109.368 -267.84h566.928l-49.662 -199.206q-1.116 -4.464 -7.812 -9.765t-11.718 -5.301h-428.544q-5.022 0 -11.718 5.301t-7.812 9.765zm676.296 267.84q36.828 0 63.054 -26.226t26.226 -63.054 -26.226 -63.054 -63.054 -26.226 -63.054 26.226 -26.226 63.054 26.226 63.054 63.054 26.226z"/></svg>