<svg height="1000" width="1142.9" xmlns="http://www.w3.org/2000/svg"><path d="M1017.9 500q51.9 0 88.4 36.6t36.6 88.4v214.3q0 7.8 -5.1 12.8t-12.8 5h-53.6v35.8q0 44.6 -31.2 75.8t-75.9 31.3 -75.9 -31.3 -31.3 -75.8v-35.8H285.7v35.8q0 44.6 -31.2 75.8t-75.9 31.3 -75.9 -31.3T71.4 892.9v-35.8H17.9q-7.9 0 -12.9 -5T0 839.3V625q0 -51.9 36.6 -88.4T125 500h15.6l58.6 -233.8q12.9 -52.5 58.1 -87.9t99.8 -35.4h71.5v-125q0 -7.9 5 -12.9t12.8 -5h250q7.8 0 12.9 5t5 12.9v125h71.4q54.7 0 99.9 35.4t58 87.9l58.6 233.8h15.7zM178.6 767.9q36.8 0 63 -26.3t26.3 -63 -26.3 -63.1 -63 -26.2 -63.1 26.2 -26.2 63.1 26.2 63 63.1 26.3zM287.9 500h567L805.2 300.8q-1.1 -4.5 -7.8 -9.8t-11.7 -5.3H357.1q-5 0 -11.7 5.3t-7.8 9.8zm676.4 267.9q36.8 0 63 -26.3t26.3 -63 -26.3 -63.1 -63 -26.2 -63.1 26.2T875 678.6t26.2 63 63.1 26.3z"/></svg>