<svg height="1000" width="1107.143" xmlns="http://www.w3.org/2000/svg"><path d="M0 839.296v-214.272q0 -51.894 36.549 -88.443t88.443 -36.549h15.624l58.59 -233.802q12.834 -52.452 58.032 -87.885t99.882 -35.433h71.424v-124.992q0 -7.812 5.022 -12.834t12.834 -5.022h249.984q7.812 0 12.834 5.022t5.022 12.834v124.992h35.712q54.684 0 99.882 35.433t58.032 87.885l58.59 233.802h15.624q51.894 0 88.443 36.549t36.549 88.443v214.272q0 7.812 -5.022 12.834t-12.834 5.022h-71.424v35.712q0 44.64 -31.248 75.888t-75.888 31.248 -75.888 -31.248 -31.248 -75.888v-35.712h-517.824v35.712q0 44.64 -31.248 75.888t-75.888 31.248 -75.888 -31.248 -31.248 -75.888v-35.712h-53.568q-7.812 0 -12.834 -5.022t-5.022 -12.834zm89.28 -160.704q0 36.828 26.226 63.054t63.054 26.226 63.054 -26.226 26.226 -63.054 -26.226 -63.054 -63.054 -26.226 -63.054 26.226 -26.226 63.054zm198.648 -178.56h531.216l-49.662 -199.206q-1.116 -4.464 -7.812 -9.765t-11.718 -5.301h-392.832q-5.022 0 -11.718 5.301t-7.812 9.765zm533.448 178.56q0 36.828 26.226 63.054t63.054 26.226 63.054 -26.226 26.226 -63.054 -26.226 -63.054 -63.054 -26.226 -63.054 26.226 -26.226 63.054z"/></svg>