<svg height="1000" width="1000" xmlns="http://www.w3.org/2000/svg"><path d="M663.5 729.4l82 -386.8q5.1 -24.5 -5.8 -35.1t-28.8 -3.9L228.8 489.4q-16.2 6.1 -22 13.9t-1.4 14.8 17.8 10.9l123.3 38.5L632.8 387.3q11.7 -7.8 17.9 -3.4 3.9 2.8 -2.3 8.4L416.9 601.6l-9 127.2q12.9 0 25.1 -12.3l60.3 -58 125 92.1q35.7 20 45.2 -21.2zM1000 500q0 101.6 -39.6 194.2T853.8 853.8 694.2 960.4 500 1000 305.8 960.4 146.2 853.8 39.6 694.2 0 500 39.6 305.8 146.2 146.2 305.8 39.6 500 0t194.2 39.6 159.6 106.6 106.6 159.6T1000 500z"/></svg>