<svg height="1000" width="1142.9" xmlns="http://www.w3.org/2000/svg"><path d="M1000 696.4V160.7q0 -7.2 -5.3 -12.5t-12.6 -5.3H89.3q-7.3 0 -12.6 5.3t-5.3 12.5v535.7q0 7.3 5.3 12.6t12.6 5.3h892.8q7.3 0 12.6 -5.3t5.3 -12.6zm71.4 -535.7v535.7q0 36.9 -26.2 63.1t-63.1 26.2H571.4v71.4h196.5q7.8 0 12.8 5.1t5 12.8v35.7q0 7.8 -5 12.8t-12.8 5.1H303.6q-7.8 0 -12.9 -5.1t-5 -12.8V875q0 -7.8 5 -12.8t12.9 -5.1H500v-71.4H89.3q-36.8 0 -63.1 -26.2T0 696.4V160.7q0 -36.8 26.2 -63T89.3 71.4h892.8q36.9 0 63.1 26.3t26.2 63z"/></svg>