<svg height="1000" width="714.3" xmlns="http://www.w3.org/2000/svg"><path d="M469.9 319.2q0 44.6 -31.8 76.2t-75.9 31.5q-33.5 0 -62 -19.5 -34.6 37.4 -64.2 81.4Q98.2 695.9 123.3 968.2q.6 12.3 -6.9 21.5T97.1 1000h-2.8q-11.2 0 -19.5 -7.5t-9.5 -18.7q-7.8 -70.3 -2 -138.1T79.8 714.6t30.1 -103.8T148.4 524t41.3 -69.8q34.1 -50.2 73.7 -92 -8.9 -19.6 -8.9 -43 0 -44.6 31.5 -76.2t76.2 -31.5 76.1 31.5 31.6 76.2zm212.6 6.1q0 88.2 -43.5 163T520.4 606.6t-163.3 43.5q-35.7 0 -73.1 -7.8 -11.7 -2.8 -18.1 -13.1t-3.6 -22.1q2.8 -11.1 12.8 -17.5t21.8 -4.2q28.4 7.2 60.2 7.2 54.2 0 103.8 -21.2t85.4 -56.9 56.9 -85.4 21.2 -103.8T603.2 221.5t-56.9 -85.3 -85.4 -57T357.1 58 253.3 79.2t-85.3 57 -57 85.3T89.8 325.3q0 63.7 29.1 121.7 5.5 11.1 1.9 22.3T106.6 486t-22.1 1.7 -17 -14.5Q31.8 404.6 31.8 325.3q0 -66.4 26 -126.6T127.2 94.9 231 25.7 357.1 0q88.2 0 163.3 43.5T639 162.1t43.5 163.2z"/></svg>