<svg height="1000" width="714.286" xmlns="http://www.w3.org/2000/svg"><path d="M469.836 319.24q0 44.64 -31.806 76.167t-75.888 31.527q-33.48 0 -61.938 -19.53 -34.596 37.386 -64.17 81.468 -137.826 207.018 -112.716 479.322 .558 12.276 -6.975 21.483t-19.251 10.323h-2.79q-11.16 0 -19.53 -7.533t-9.486 -18.693q-7.812 -70.308 -1.953 -138.105t16.461 -121.086 30.132 -103.788 38.502 -86.769 41.292 -69.75q34.038 -50.22 73.656 -92.07 -8.928 -19.53 -8.928 -42.966 0 -44.64 31.527 -76.167t76.167 -31.527 76.167 31.527 31.527 76.167zm212.598 6.138q0 88.164 -43.524 162.936t-118.575 118.296 -163.215 43.524q-35.712 0 -73.098 -7.812 -11.718 -2.79 -18.135 -13.113t-3.627 -22.041q2.79 -11.16 12.834 -17.577t21.762 -4.185q28.458 7.254 60.264 7.254 54.126 0 103.788 -21.204t85.374 -56.916 56.916 -85.374 21.204 -103.788 -21.204 -103.788 -56.916 -85.374 -85.374 -56.916 -103.788 -21.204 -103.788 21.204 -85.374 56.916 -56.916 85.374 -21.204 103.788q0 63.612 29.016 121.644 5.58 11.16 1.953 22.32t-14.229 16.74 -22.041 1.674 -17.019 -14.508q-35.712 -68.634 -35.712 -147.87 0 -66.402 25.947 -126.666t69.471 -103.788 103.788 -69.192 126.108 -25.668q88.164 0 163.215 43.524t118.575 118.575 43.524 163.215z"/></svg>