<svg height="1000px" width="899.90234375px" xmlns="http://www.w3.org/2000/svg">
  <g>
    <path d="M0 312.98828125c4.557 -12.044 10.173 -30.029 16.846 -53.955c6.673 -23.926 14.078 -53.955 22.216 -90.088c2.605 -10.742 4.721 -19.613 6.348 -26.611c1.628 -6.999 3.093 -12.126 4.395 -15.381c0 0 28.32 0 28.32 0c1.302 1.953 2.279 3.581 2.93 4.883c0.651 1.302 1.302 2.767 1.953 4.394c9.44 18.555 16.113 30.111 20.019 34.668c5.209 1.302 26.205 1.953 62.989 1.953c11.393 0 22.216 -0.162 32.47 -0.488c10.254 -0.326 20.101 -0.488 29.541 -0.488c0 0 9.766 -0.977 9.766 -0.977c0 0 55.176 -0.976 55.176 -0.976c0 0 104.004 0.976 104.004 0.976c0 0 141.113 0 141.113 0c0 0 26.855 -4.883 26.855 -4.883c3.256 -2.604 7.65 -11.23 13.184 -25.879c0.651 -1.953 1.302 -3.987 1.953 -6.103c0.651 -2.116 1.628 -4.802 2.93 -8.057c0 0 20.996 -0.976 20.996 -0.976c0 0 5.127 0 5.127 0c0 0 2.685 0.325 8.057 0.976c0.651 12.696 0.813 28.565 0.488 47.608c-0.326 19.043 -0.163 41.585 0.488 67.627c0 0 0 48.828 0 48.828c0 0 0 27.832 0 27.832c0 4.557 -0.163 9.033 -0.488 13.428c-0.326 4.394 -0.814 8.219 -1.465 11.474c-6.51 2.604 -12.533 4.476 -18.066 5.615c-5.534 1.14 -10.58 2.36 -15.137 3.662c-8.789 -16.601 -17.416 -37.597 -25.879 -62.988c-9.44 -26.692 -15.462 -41.666 -18.066 -44.922c-3.907 -4.557 -8.301 -7.975 -13.184 -10.254c-3.255 -1.302 -13.021 -1.953 -29.297 -1.953c0 0 -67.383 0 -67.383 0c0 0 -15.136 0 -15.136 0c0 0 -5.697 0.651 -17.09 1.953c-1.953 13.998 -2.93 25.717 -2.93 35.157c0 0 0.977 73.73 0.977 73.73c0 0 0 163.086 0 163.086c0 0 0.976 175.293 0.976 175.293c0 0 0 71.777 0 71.777c0 23.438 1.628 42.481 4.883 57.129c2.604 1.302 6.103 2.604 10.498 3.907c4.394 1.302 10.01 2.604 16.846 3.906c1.302 0 4.72 0.651 10.254 1.953c5.533 1.302 13.671 3.418 24.414 6.348c8.789 3.255 16.764 6.184 23.925 8.789c1.302 6.51 1.954 11.963 1.954 16.357c0 0 0 8.545 0 8.545c0 0 0 5.615 0 5.615c0 0 -0.326 2.849 -0.977 8.545c0 0 -16.602 0 -16.602 0c-15.299 0 -29.622 -0.325 -42.968 -0.976c-13.347 -0.651 -25.716 -1.628 -37.11 -2.93c-11.393 -1.302 -26.937 -2.279 -46.631 -2.93c-19.694 -0.651 -43.864 -0.976 -72.509 -0.976c-5.209 0 -14.486 0.651 -27.832 1.953c-13.347 1.302 -31.088 2.929 -53.223 4.883c-9.44 0.651 -16.764 1.139 -21.973 1.464c-5.208 0.326 -9.114 0.489 -11.718 0.489c0 -3.255 -0.245 -5.941 -0.733 -8.057c-0.488 -2.116 -0.732 -3.825 -0.732 -5.127c0 0 -0.977 -11.719 -0.977 -11.719c0 0 0 -4.882 0 -4.882c5.86 -10.092 18.88 -18.23 39.063 -24.415c30.599 -8.789 52.571 -16.764 65.918 -23.925c1.302 -3.255 2.36 -7.406 3.173 -12.451c0.814 -5.046 1.547 -10.173 2.198 -15.381c1.302 -22.136 2.278 -50.863 2.929 -86.182c0.651 -35.319 0.651 -76.904 0 -124.756c0 0 -1.953 -208.984 -1.953 -208.984c-0.651 -29.297 -0.976 -52.49 -0.976 -69.58c0 -17.09 -0.651 -28.89 -1.953 -35.401c0 -2.604 -1.14 -5.045 -3.418 -7.324c-1.302 -1.953 -3.256 -2.93 -5.86 -2.93c-5.208 -1.302 -15.462 -1.953 -30.761 -1.953c0 0 -62.012 0 -62.012 0c-29.297 0 -48.666 3.418 -58.106 10.254c-13.346 9.44 -33.04 34.343 -59.082 74.707c-7.487 11.393 -13.183 17.09 -17.09 17.09c-7.487 -3.906 -13.346 -7.731 -17.578 -11.475c-4.231 -3.743 -7.324 -6.917 -9.277 -9.521c0 0 0 0 0 0m675.293 -75.439c-1.628 -4.395 0.651 -9.847 6.836 -16.358c0 0 89.844 -90.332 89.844 -90.332c4.557 -3.906 9.928 -5.859 16.113 -5.859c4.557 0 9.603 1.953 15.137 5.859c0 0 89.843 90.332 89.843 90.332c5.86 6.511 7.976 11.963 6.348 16.358c-1.628 4.394 -7.161 6.591 -16.601 6.591c0 0 -57.618 0 -57.618 0c0 0 0 511.719 0 511.719c0 0 57.618 0 57.618 0c9.44 0 14.973 2.197 16.601 6.592c1.628 4.394 -0.488 9.521 -6.348 15.381c0 0 -89.843 91.308 -89.843 91.308c-5.209 3.907 -10.58 5.86 -16.114 5.86c-5.208 0 -10.254 -1.953 -15.136 -5.86c0 0 -89.844 -91.308 -89.844 -91.308c-5.859 -5.86 -7.975 -10.987 -6.348 -15.381c1.628 -4.395 6.673 -6.592 15.137 -6.592c0 0 59.082 0 59.082 0c0 0 0 -511.719 0 -511.719c0 0 -59.082 0 -59.082 0c-8.789 0 -13.997 -2.197 -15.625 -6.591c0 0 0 0 0 0" />
  </g>
</svg>