<svg height="1000px" width="1000px" xmlns="http://www.w3.org/2000/svg">
  <g>
    <path d="M0 286.27232142857133c0 0 0 -213.728 0 -213.728c0 0 45.201 -0.558 45.201 -0.558c0 0 30.134 15.067 30.134 15.067c7.44 1.86 46.689 2.79 117.745 2.79c0 0 72.545 0 72.545 0c0 0 10.603 -1.674 10.603 -1.674c0 0 64.174 -0.558 64.174 -0.558c0 0 119.977 0.558 119.977 0.558c0 0 163.505 0 163.505 0c0 0 18.973 1.116 18.973 1.116c0.574 0.043 1.149 0.064 1.726 0.064c9.511 0 19.352 -5.787 29.524 -17.363c0 0 23.438 -0.558 23.438 -0.558c5.58 0 10.788 0.186 15.625 0.558c0 0 0 58.594 0 58.594c0 29.018 0.186 53.385 0.558 73.103c0 0 0.558 55.803 0.558 55.803c0 0 -0.558 32.366 -0.558 32.366c0 11.905 -0.744 21.392 -2.232 28.46c-14.509 5.581 -27.158 8.929 -37.947 10.045c-21.577 -36.831 -36.644 -84.45 -45.201 -142.857c-1.488 -10.417 -3.72 -17.113 -6.696 -20.09c-5.209 -5.208 -17.113 -7.812 -35.715 -7.812c0 0 -119.419 1.116 -119.419 1.116c-12.649 0 -25.112 0.93 -37.389 2.79c-3.1 30.072 -4.65 52.652 -4.65 67.74c0 3.017 0.062 5.735 0.186 8.153c0 0 0.558 84.821 0.558 84.821c0 0 0 185.268 0 185.268c0 0 1.674 200.335 1.674 200.335c0 0 -0.558 82.031 -0.558 82.031c-0.028 1.317 -0.043 2.625 -0.043 3.926c0 15.612 2.061 30.115 6.182 43.507c18.229 9.301 31.25 14.602 39.062 15.904c7.813 1.303 14.695 2.884 20.647 4.744c14.509 4.464 29.018 8.649 43.527 12.556c14.509 3.906 25.484 7.719 32.924 11.439c1.861 16.741 2.791 26.507 2.791 29.297c0 2.79 -0.558 7.72 -1.675 14.788c-5.208 0.372 -19.903 0.558 -44.084 0.558c-24.182 0 -50.131 -1.674 -77.846 -5.022c-27.716 -3.348 -65.198 -5.023 -112.445 -5.023c-47.247 0 -88.82 1.675 -124.721 5.023c-35.9 3.348 -57.942 5.022 -66.127 5.022c-0.744 -8.184 -1.116 -13.021 -1.116 -14.509c0 0 -0.558 -14.509 -0.558 -14.509c0 0 0 -5.022 0 -5.022c7.813 -12.277 22.508 -21.391 44.085 -27.344c51.711 -14.137 81.287 -23.437 88.728 -27.902c3.348 -7.812 5.58 -18.229 6.696 -31.25c2.381 -57.142 3.572 -120.119 3.572 -188.928c0 -17.203 -0.075 -34.769 -0.224 -52.701c0 0 -2.79 -238.839 -2.79 -238.839c-0.248 -15.377 -0.372 -30.3 -0.372 -44.767c0 -7.234 0.031 -14.354 0.093 -21.361c0.186 -21.019 0.279 -40.085 0.279 -57.198c0 -23.81 -1.302 -36.831 -3.906 -39.063c-5.581 -5.208 -26.135 -7.812 -61.663 -7.812c-35.528 0 -63.895 2.511 -85.101 7.533c-21.205 5.023 -34.505 9.394 -39.899 13.114c-5.394 3.72 -9.766 10.045 -13.114 18.973c-3.348 8.929 -7.44 22.88 -12.277 41.853c-4.836 18.973 -8.835 33.296 -11.997 42.969c-3.163 9.672 -7.255 16.927 -12.277 21.763c-5.023 4.836 -8.836 7.255 -11.44 7.255c-16.369 -10.045 -26.786 -18.23 -31.25 -24.554c0 0 0 0 0 0m789.062 509.766c3.349 -6.883 11.161 -10.324 23.438 -10.324c0 0 44.643 0 44.643 0c0 0 0 -571.429 0 -571.429c0 0 -44.643 0 -44.643 0c-12.277 0 -20.089 -3.441 -23.438 -10.323c-3.348 -6.883 -1.302 -15.16 6.139 -24.833c0 0 70.312 -90.402 70.312 -90.402c7.441 -9.672 16.555 -14.509 27.344 -14.509c10.789 0 19.903 4.837 27.344 14.509c0 0 70.312 90.402 70.312 90.402c5.132 6.671 7.697 12.678 7.697 18.022c0 2.405 -0.519 4.675 -1.558 6.811c-3.348 6.882 -11.161 10.323 -23.438 10.323c0 0 -44.643 0 -44.643 0c0 0 0 571.429 0 571.429c0 0 44.643 0 44.643 0c12.277 0 20.09 3.441 23.438 10.324c1.039 2.136 1.558 4.406 1.558 6.811c0 5.343 -2.565 11.35 -7.697 18.021c0 0 -70.312 90.402 -70.312 90.402c-7.441 9.673 -16.555 14.509 -27.344 14.509c-10.789 0 -19.903 -4.836 -27.344 -14.509c0 0 -70.312 -90.402 -70.312 -90.402c-7.441 -9.672 -9.487 -17.95 -6.139 -24.832c0 0 0 0 0 0" />
  </g>
</svg>