<svg height="1000" width="1000" xmlns="http://www.w3.org/2000/svg"><path d="M973.152 785.728q18.414 0 23.436 10.323t-6.138 24.831l-70.308 90.396q-11.16 14.508 -27.342 14.508t-27.342 -14.508l-70.308 -90.396q-11.16 -14.508 -6.138 -24.831t23.436 -10.323h44.64v-571.392h-44.64q-18.414 0 -23.436 -10.323t6.138 -24.831l70.308 -90.396q11.16 -14.508 27.342 -14.508t27.342 14.508l70.308 90.396q11.16 14.508 6.138 24.831t-23.436 10.323h-44.64v571.392h44.64zm-927.954 -713.682l30.132 15.066q6.696 2.79 117.738 2.79 24.552 0 73.656 -1.116t73.656 -1.116q20.088 0 59.985 .279t59.985 .279h163.494q3.348 0 11.718 .279t11.439 0 8.928 -1.674 9.765 -5.022 8.37 -9.765l23.436 -.558q2.232 0 7.812 .279t7.812 .279q1.116 62.496 1.116 187.488 0 44.64 -2.79 60.822 -21.762 7.812 -37.944 10.044 -13.95 -24.552 -30.132 -71.424 -1.674 -5.022 -6.138 -26.784t-8.091 -41.013 -4.185 -19.809q-3.348 -4.464 -6.696 -6.975t-8.649 -3.348 -7.254 -1.395 -10.044 -.279 -9.207 .279q-9.486 0 -37.107 -.279t-41.571 -.279 -35.712 1.116 -39.618 3.348q-5.022 45.198 -4.464 75.888 0 52.452 1.116 216.504t1.116 253.89q0 8.928 -1.395 39.897t0 51.057 6.975 38.502q22.32 11.718 69.192 23.715t66.96 20.925q2.79 22.32 2.79 27.9 0 7.812 -1.674 16.182l-18.972 .558q-42.408 1.116 -121.644 -4.464t-115.506 -5.58q-27.9 0 -84.258 5.022t-84.816 5.022q-1.674 -28.458 -1.674 -29.016v-5.022q9.486 -15.066 34.317 -23.994t54.963 -16.182 43.524 -15.066q10.602 -23.436 10.602 -213.714 0 -56.358 -1.674 -169.074t-1.674 -169.074v-65.286q0 -1.116 .279 -8.649t.279 -13.95 -.558 -14.229 -1.674 -13.392 -2.79 -7.812q-6.138 -6.696 -90.396 -6.696 -18.414 0 -51.894 6.696t-44.64 14.508q-10.602 7.254 -18.972 40.455t-17.577 61.938 -23.715 29.853q-23.436 -14.508 -31.248 -24.552v-213.714z"/></svg>