<svg height="1000px" width="900px" xmlns="http://www.w3.org/2000/svg">
  <g>
    <path d="M0 313c4.667 -12 10.333 -30 17 -54c6.667 -24 14 -54 22 -90c2.667 -10.667 4.833 -19.5 6.5 -26.5c1.667 -7 3.167 -12.167 4.5 -15.5c0 0 28 0 28 0c1.333 2 2.333 3.667 3 5c0 0 2 4 2 4c9.333 18.667 16 30.333 20 35c5.333 1.333 26.333 2 63 2c11.333 0 22.167 -0.167 32.5 -0.5c10.333 -0.333 20.167 -0.5 29.5 -0.5c0 0 10 -1 10 -1c0 0 55 -1 55 -1c0 0 104 1 104 1c0 0 141 0 141 0c0 0 27 -5 27 -5c3.333 -2.667 7.667 -11.333 13 -26c0 0 2 -6 2 -6c0.667 -2 1.667 -4.667 3 -8c0 0 21 -1 21 -1c0 0 5 0 5 0c2 0 4.667 0.333 8 1c0.667 12.667 0.833 28.5 0.5 47.5c-0.333 19 -0.167 41.5 0.5 67.5c0 0 0 49 0 49c0 0 0 28 0 28c0 4.667 -0.167 9.167 -0.5 13.5c-0.333 4.333 -0.833 8.167 -1.5 11.5c-6.667 2.667 -12.667 4.5 -18 5.5c-5.333 1 -10.333 2.167 -15 3.5c-8.667 -16.667 -17.333 -37.667 -26 -63c-9.333 -26.667 -15.333 -41.667 -18 -45c-4 -4.667 -8.333 -8 -13 -10c-3.333 -1.333 -13.333 -2 -30 -2c0 0 -67 0 -67 0c0 0 -15 0 -15 0c-5.333 0 -11 0.667 -17 2c-2 14 -3 25.667 -3 35c0 0 1 74 1 74c0 0 0 163 0 163c0 0 1 175 1 175c0 0 0 72 0 72c0 23.333 1.667 42.333 5 57c2.667 1.333 6.167 2.667 10.5 4c4.333 1.333 9.833 2.667 16.5 4c1.333 0 4.833 0.667 10.5 2c5.667 1.333 13.833 3.333 24.5 6c8.667 3.333 16.667 6.333 24 9c1.333 6.667 2 12 2 16c0 0 0 9 0 9c0 0 0 5 0 5c0 2.667 -0.333 5.667 -1 9c0 0 -17 0 -17 0c-15.333 0 -29.667 -0.333 -43 -1c-13.333 -0.667 -25.667 -1.667 -37 -3c-11.333 -1.333 -26.833 -2.333 -46.5 -3c-19.667 -0.667 -43.833 -1 -72.5 -1c-5.333 0 -14.667 0.667 -28 2c-13.333 1.333 -31 3 -53 5c-9.333 0.667 -16.667 1.167 -22 1.5c-5.333 0.333 -9.333 0.5 -12 0.5c0 -3.333 -0.167 -6 -0.5 -8c-0.333 -2 -0.5 -3.667 -0.5 -5c0 0 -1 -12 -1 -12c0 0 0 -5 0 -5c6 -10 19 -18 39 -24c30.667 -8.667 52.667 -16.667 66 -24c1.333 -3.333 2.333 -7.5 3 -12.5c0.667 -5 1.333 -10.167 2 -15.5c1.333 -22 2.333 -50.667 3 -86c0.667 -35.333 0.667 -77 0 -125c0 0 -2 -209 -2 -209c-0.667 -29.333 -1 -52.5 -1 -69.5c0 -17 -0.667 -28.833 -2 -35.5c0 -2.667 -1 -5 -3 -7c-1.333 -2 -3.333 -3 -6 -3c-5.333 -1.333 -15.667 -2 -31 -2c0 0 -62 0 -62 0c-29.333 0 -48.667 3.333 -58 10c-13.333 9.333 -33 34.333 -59 75c-7.333 11.333 -13 17 -17 17c-7.333 -4 -13.167 -7.833 -17.5 -11.5c-4.333 -3.667 -7.5 -6.833 -9.5 -9.5c0 0 0 0 0 0m675.5 449.5c1.667 -4.333 6.833 -6.5 15.5 -6.5c0 0 59 0 59 0c0 0 0 -512 0 -512c0 0 -59 0 -59 0c-8.667 0 -13.833 -2.167 -15.5 -6.5c-1.667 -4.333 0.5 -9.833 6.5 -16.5c0 0 90 -90 90 -90c4.667 -4 10 -6 16 -6c4.667 0 9.667 2 15 6c0 0 90 90 90 90c6 6.667 8.167 12.167 6.5 16.5c-1.667 4.333 -7.167 6.5 -16.5 6.5c0 0 -58 0 -58 0c0 0 0 512 0 512c0 0 58 0 58 0c9.333 0 14.833 2.167 16.5 6.5c1.667 4.333 -0.5 9.5 -6.5 15.5c0 0 -90 91 -90 91c-5.333 4 -10.667 6 -16 6c-5.333 0 -10.333 -2 -15 -6c0 0 -90 -91 -90 -91c-6 -6 -8.167 -11.167 -6.5 -15.5c0 0 0 0 0 0" />
  </g>
</svg>