<svg height="1000px" width="857.1428571428571px" xmlns="http://www.w3.org/2000/svg">
  <g>
    <path d="M0 286.27232142857133c0 0 0 -213.728 0 -213.728c0 0 45.201 -0.558 45.201 -0.558c0 0 30.134 15.067 30.134 15.067c7.44 1.86 46.689 2.79 117.745 2.79c0 0 72.545 0 72.545 0c0 0 10.603 -1.674 10.603 -1.674c0 0 64.174 -0.558 64.174 -0.558c0 0 248.884 0.558 248.884 0.558c0 0 177.455 0 177.455 0c0 0 18.973 1.116 18.973 1.116c0.574 0.043 1.149 0.064 1.726 0.064c9.511 0 19.352 -5.787 29.524 -17.363c0 0 23.438 -0.558 23.438 -0.558c5.58 0 10.788 0.186 15.625 0.558c0 0 0 58.594 0 58.594c0 29.018 0.186 53.385 0.558 73.103c0 0 0.558 55.803 0.558 55.803c0 0 -0.558 32.366 -0.558 32.366c0 11.905 -0.744 21.392 -2.232 28.46c-14.509 5.581 -27.158 8.929 -37.947 10.045c-21.577 -36.831 -36.644 -84.45 -45.201 -142.857c-1.488 -10.045 -3.627 -16.648 -6.417 -19.811c-2.79 -3.162 -6.138 -5.301 -10.045 -6.417c-3.906 -1.116 -15.532 -1.674 -34.877 -1.674c0 0 -148.437 1.116 -148.437 1.116c-34.971 0 -58.594 0.93 -70.871 2.79c-3.1 30.072 -4.65 52.652 -4.65 67.74c0 3.017 0.062 5.735 0.186 8.153c0 0 2.232 256.138 2.232 256.138c0 0 -0.558 82.032 -0.558 82.032c-0.029 1.316 -0.043 2.625 -0.043 3.926c0 15.612 2.06 30.114 6.181 43.507c18.229 9.3 31.25 14.602 39.063 15.904c7.812 1.302 14.695 2.883 20.647 4.743c14.509 4.464 29.018 8.65 43.527 12.556c14.509 3.906 25.483 7.719 32.924 11.44c1.86 16.741 2.79 26.506 2.79 29.296c0 2.791 -0.558 7.72 -1.674 14.788c-5.208 0.372 -19.903 0.558 -44.085 0.558c-24.181 0 -50.13 -1.674 -77.846 -5.022c-27.716 -3.348 -64.639 -5.022 -110.77 -5.022c-46.131 0 -87.425 1.674 -123.884 5.022c-36.458 3.348 -59.338 5.022 -68.638 5.022c-0.744 -8.184 -1.116 -13.02 -1.116 -14.509c0 0 -0.558 -14.508 -0.558 -14.508c0 0 0 -5.023 0 -5.023c7.812 -12.277 22.507 -21.391 44.085 -27.344c51.711 -14.136 81.287 -23.437 88.727 -27.901c3.348 -7.813 5.581 -18.229 6.697 -31.25c2.232 -50.968 3.348 -131.511 3.348 -241.63c0 0 -2.79 -24.553 -2.79 -24.553c0 -98.587 -0.372 -150.112 -1.116 -154.576c-1.116 -7.441 -4.837 -11.533 -11.161 -12.277c-14.137 -2.232 -36.086 -3.348 -65.848 -3.348c-29.762 0 -66.686 2.604 -110.77 7.812c-44.085 5.209 -68.639 9.58 -73.661 13.114c-5.022 3.534 -9.208 9.766 -12.556 18.694c-3.348 8.929 -7.44 22.88 -12.277 41.853c-4.836 18.973 -8.835 33.296 -11.997 42.969c-3.163 9.672 -7.255 16.927 -12.277 21.763c-5.023 4.836 -8.836 7.255 -11.44 7.255c-16.369 -10.045 -26.786 -18.23 -31.25 -24.554c0 0 0 0 0 0m2.79 535.156c0 -10.788 4.836 -19.903 14.509 -27.343c0 0 90.402 -70.313 90.402 -70.313c9.673 -7.44 17.95 -9.487 24.832 -6.138c6.883 3.348 10.324 11.16 10.324 23.437c0 0 0 44.643 0 44.643c0 0 571.429 0 571.429 0c0 0 0 -44.643 0 -44.643c0 -12.277 3.441 -20.089 10.323 -23.437c6.883 -3.349 15.16 -1.302 24.833 6.138c0 0 90.402 70.313 90.402 70.313c9.672 7.44 14.509 16.555 14.509 27.343c0 10.789 -4.837 19.904 -14.509 27.344c0 0 -90.402 70.313 -90.402 70.313c-6.671 5.131 -12.678 7.697 -18.022 7.697c-2.404 0 -4.675 -0.52 -6.811 -1.559c-6.882 -3.348 -10.323 -11.161 -10.323 -23.438c0 0 0 -44.642 0 -44.642c0 0 -571.429 0 -571.429 0c0 0 0 44.642 0 44.642c0 12.277 -3.441 20.09 -10.324 23.438c-2.135 1.039 -4.406 1.559 -6.81 1.559c-5.344 0 -11.351 -2.566 -18.022 -7.697c0 0 -90.402 -70.313 -90.402 -70.313c-9.673 -7.44 -14.509 -16.555 -14.509 -27.344c0 0 0 0 0 0" />
  </g>
</svg>