<svg height="1000" width="999" xmlns="http://www.w3.org/2000/svg"><path d="M0 286.318l0-213.714l45.198-.558 30.132 15.066q11.16 2.79 117.738 2.79l72.54 0l10.602-1.674 64.17-.558 119.97.558l163.494 0l18.972 1.116q7.812.558 15.624-3.906t11.718-8.928l3.906-4.464 23.436-.558q8.37 0 15.624.558l0 58.311l.558 73.377.558 55.8-.558 32.364q0 17.856-2.232 28.458-21.762 8.37-37.944 10.044-13.95-23.994-30.132-71.424-4.464-13.392-8.649-34.875t-6.417-36.549-3.348-16.182q-7.254-8.37-15.066-10.602-3.906-1.116-23.715-1.116t-57.753.558-61.938.558q-18.972 0-37.386 2.79-5.58 54.126-4.464 75.888l.558 84.816l0 185.256l1.674 200.322-.558 82.026q-.558 25.668 6.138 47.43 27.342 13.95 49.662 17.856 1.116 0 10.044 2.79t24.552 7.254 23.994 6.696q16.74 4.464 27.9 10.044 2.79 25.11 2.79 27.9 0 5.58-1.674 16.182-7.812.558-18.972.558-61.38 0-104.346-5.58-40.176-4.464-132.804-4.464-49.104 0-130.014 7.812-26.784 2.232-39.06 2.232-1.116-12.276-1.116-14.508l-.558-14.508l0-5.022q11.718-18.414 44.082-27.342 77.562-21.204 88.722-27.9 5.022-11.718 6.696-31.248 4.464-107.136 3.348-241.614l-2.79-238.824q-.558-34.596-.279-66.123t.279-57.195-1.116-31.806-3.348-8.37q-3.348-2.79-7.812-3.348-21.204-3.348-82.584-3.348-23.994 0-55.8 7.533t-40.734 13.671q-7.254 5.022-12.276 18.414t-12.276 41.85-13.392 46.872q-3.348 10.602-10.881 17.856t-11.439 7.254q-24.552-15.066-31.248-24.552zm789.012 509.733q5.022-10.323 23.436-10.323l44.64 0l0-571.392l-44.64 0q-18.414 0-23.436-10.323t6.138-24.831l70.308-90.396q11.16-14.508 27.342-14.508t27.342 14.508l70.308 90.396q11.16 14.508 6.138 24.831t-23.436 10.323l-44.64 0l0 571.392l44.64 0q18.414 0 23.436 10.323t-6.138 24.831l-70.308 90.396q-11.16 14.508-27.342 14.508t-27.342-14.508l-70.308-90.396q-11.16-14.508-6.138-24.831z"/></svg>