<svg height="1000" width="857" xmlns="http://www.w3.org/2000/svg"><path d="M0 286.318l0-213.714l45.198-.558 30.132 15.066q11.16 2.79 117.738 2.79l72.54 0l10.602-1.674 64.17-.558 248.868.558l177.444 0l18.972 1.116q7.812.558 15.624-3.906t11.718-8.928l3.906-4.464 23.436-.558q8.37 0 15.624.558l0 58.311l.558 73.377.558 55.8-.558 32.364q0 17.856-2.232 28.458-21.762 8.37-37.944 10.044-13.95-23.994-30.132-71.424-4.464-13.392-8.649-34.875t-6.417-36.549-3.348-16.182q-7.254-8.37-15.066-10.602-3.906-1.116-32.643-1.116t-77.283.558-71.424.558q-52.452 0-70.866 2.79-5.58 54.126-4.464 75.888l.558 55.8 1.674 200.322-.558 82.026q-.558 25.668 6.138 47.43 27.342 13.95 49.662 17.856 1.116 0 10.044 2.79t24.552 7.254 23.994 6.696q16.74 4.464 27.9 10.044 2.79 25.11 2.79 27.9 0 5.58-1.674 16.182-7.812.558-18.972.558-61.38 0-104.346-5.58-40.176-4.464-132.804-4.464-45.756 0-130.014 7.254-25.11 2.79-39.06 2.79-1.116-12.276-1.116-14.508l-.558-14.508l0-5.022q11.718-18.414 44.082-27.342 77.562-21.204 88.722-27.9 5.022-11.718 6.696-31.248 3.348-76.446 3.348-241.614l-2.79-24.552q0-147.87-1.116-155.124-1.116-6.138-3.348-8.37-3.348-2.79-7.812-3.348-21.204-3.348-82.584-3.348-27.9 0-94.023 7.812t-73.935 13.392q-7.254 5.022-12.276 18.414t-12.276 41.85-13.392 46.872q-3.348 10.602-10.881 17.856t-11.439 7.254q-24.552-15.066-31.248-24.552zm2.79 535.122q0-16.182 14.508-27.342l90.396-70.308q14.508-11.16 24.831-6.138t10.323 23.436l0 44.64l571.392 0l0-44.64q0-18.414 10.323-23.436t24.831 6.138l90.396 70.308q14.508 11.16 14.508 27.342t-14.508 27.342l-90.396 70.308q-14.508 11.16-24.831 6.138t-10.323-23.436l0-44.64l-571.392 0l0 44.64q0 18.414-10.323 23.436t-24.831-6.138l-90.396-70.308q-14.508-11.16-14.508-27.342z"/></svg>