<svg height="1000" width="1000" xmlns="http://www.w3.org/2000/svg"><path d="M0 286.3v-213.7l45.2-.6 30.1 15.1q11.2 2.8 117.7 2.8h72.5l10.6-1.7 64.2-.6 120 .6h163.5l19 1.1q7.8.6 15.6-3.9t11.7-8.9l3.9-4.5 23.4-.6q8.4 0 15.6.6v58.3l.6 73.4.6 55.8-.6 32.4q0 17.9-2.2 28.5-21.8 8.4-37.9 10-14-24-30.1-71.4-4.5-13.4-8.6-34.9t-6.4-36.5-3.3-16.2q-7.3-8.4-15.1-10.6-3.9-1.1-23.7-1.1t-57.8.6-61.9.6q-19 0-37.4 2.8-5.6 54.1-4.5 75.9l.6 84.8v185.3l1.7 200.3-.6 82q-.6 25.7 6.1 47.4 27.3 14 49.7 17.9 1.1 0 10 2.8t24.6 7.3 24 6.7q16.7 4.5 27.9 10 2.8 25.1 2.8 27.9 0 5.6-1.7 16.2-7.8.6-19 .6-61.4 0-104.3-5.6-40.2-4.5-132.8-4.5-49.1 0-130 7.8-26.8 2.2-39.1 2.2-1.1-12.3-1.1-14.5l-.6-14.5v-5q11.7-18.4 44.1-27.3 77.6-21.2 88.7-27.9 5-11.7 6.7-31.2 4.5-107.1 3.3-241.6l-2.8-238.8q-.6-34.6-.3-66.1t.3-57.2-1.1-31.8-3.3-8.4q-3.3-2.8-7.8-3.3-21.2-3.3-82.6-3.3-24 0-55.8 7.5t-40.7 13.7q-7.3 5-12.3 18.4t-12.3 41.9-13.4 46.9q-3.3 10.6-10.9 17.9t-11.4 7.3q-24.6-15.1-31.2-24.6zm789 509.7q5-10.3 23.4-10.3h44.6v-571.4h-44.6q-18.4 0-23.4-10.3t6.1-24.8l70.3-90.4q11.2-14.5 27.3-14.5t27.3 14.5l70.3 90.4q11.2 14.5 6.1 24.8t-23.4 10.3h-44.6v571.4h44.6q18.4 0 23.4 10.3t-6.1 24.8l-70.3 90.4q-11.2 14.5-27.3 14.5t-27.3-14.5l-70.3-90.4q-11.2-14.5-6.1-24.8z"/></svg>