<svg height="1000px" width="750px" xmlns="http://www.w3.org/2000/svg">
  <g>
    <path d="M0 762.18581199646c0 -5.859 1.953 -10.905 5.859 -15.137c0 0 91.309 -90.332 91.309 -90.332c5.859 -6.51 10.986 -8.789 15.381 -6.836c4.394 1.953 6.592 7.325 6.592 16.114c0 0 0 59.082 0 59.082c0 0 511.718 0 511.718 0c0 0 0 -59.082 0 -59.082c0 -8.789 2.198 -14.161 6.592 -16.114c4.395 -1.953 9.847 0.326 16.358 6.836c0 0 90.332 90.332 90.332 90.332c3.906 3.907 5.859 8.952 5.859 15.137c0 5.859 -1.953 10.742 -5.859 14.648c0 0 -90.332 91.309 -90.332 91.309c-6.511 5.859 -11.963 7.975 -16.358 6.348c-4.394 -1.628 -6.592 -7.162 -6.592 -16.602c0 0 0 -58.105 0 -58.105c0 0 -511.718 0 -511.718 0c0 0 0 58.105 0 58.105c0 9.44 -2.198 14.974 -6.592 16.602c-4.395 1.627 -9.522 -0.489 -15.381 -6.348c0 0 -91.309 -91.309 -91.309 -91.309c-3.906 -3.906 -5.859 -8.789 -5.859 -14.648c0 0 0 0 0 0m0 -488.281c4.557 -9.44 10.01 -23.601 16.357 -42.481c6.348 -18.88 13.591 -42.643 21.729 -71.289c1.953 -8.789 3.743 -15.869 5.371 -21.24c1.628 -5.371 3.092 -9.684 4.395 -12.939c0 0 27.343 0 27.343 0c2.604 3.906 4.232 6.184 4.883 6.835c8.789 15.3 14.811 24.74 18.067 28.321c0.651 0 6.429 0.163 17.334 0.488c10.904 0.326 23.518 0.488 37.841 0.488c0 0 44.19 0 44.19 0c0 0 36.377 0 36.377 0c0 0 60.058 0 60.058 0c0 0 9.278 -0.976 9.278 -0.976c0 0 52.734 0 52.734 0c0 0 99.121 0 99.121 0c0 0 203.125 0 203.125 0c0 0 25.879 -2.93 25.879 -2.93c3.906 -3.255 7.813 -10.742 11.719 -22.461c0 0 2.197 -4.394 2.197 -4.394c0 0 3.174 -6.348 3.174 -6.348c0 0 19.043 0 19.043 0c0 0 13.672 0 13.672 0c0 0 0 91.797 0 91.797c0 0 0 39.062 0 39.062c0 0 0 21.973 0 21.973c0 3.906 -0.163 7.406 -0.489 10.498c-0.325 3.092 -0.813 6.266 -1.464 9.522c-10.743 3.255 -20.996 5.696 -30.762 7.324c-8.138 -12.045 -16.602 -28.809 -25.391 -50.293c-8.789 -19.206 -14.323 -31.25 -16.601 -36.133c-3.907 -3.255 -8.301 -5.534 -13.184 -6.836c-1.953 -0.651 -8.789 -1.139 -20.508 -1.465c-11.718 -0.325 -25.553 -0.488 -41.504 -0.488c0 0 -50.537 0 -50.537 0c0 0 -47.607 0 -47.607 0c0 0 -13.916 0 -13.916 0c0 0 -5.615 0.325 -16.846 0.976c-0.651 5.86 -1.139 11.15 -1.465 15.87c-0.325 4.72 -0.488 8.707 -0.488 11.962c0 0 1.953 217.286 1.953 217.286c0 0 -0.976 58.105 -0.976 58.105c0 19.857 1.953 34.831 5.859 44.922c3.906 1.953 12.532 3.906 25.879 5.859c1.302 0 4.639 0.651 10.01 1.953c5.371 1.303 12.776 2.93 22.216 4.883c4.558 1.302 8.871 2.523 12.94 3.662c4.069 1.14 7.731 2.36 10.986 3.663c0.651 5.208 1.14 9.358 1.465 12.451c0.326 3.092 0.488 5.289 0.488 6.591c0 1.303 -0.162 2.93 -0.488 4.883c-0.325 1.953 -0.488 4.232 -0.488 6.836c0 0 -16.114 0 -16.114 0c-30.598 0 -56.152 -0.976 -76.66 -2.929c-21.484 -1.954 -59.896 -2.93 -115.234 -2.93c-4.557 0 -13.184 0.488 -25.879 1.465c-12.695 0.976 -29.785 2.116 -51.27 3.418c-8.789 0.651 -15.787 1.139 -20.996 1.465c-5.208 0.325 -9.114 0.488 -11.718 0.488c0 -5.209 -0.326 -8.464 -0.977 -9.766c0 0 0 -10.254 0 -10.254c0 0 0 -3.906 0 -3.906c6.511 -8.789 18.392 -15.137 35.645 -19.043c29.296 -6.51 50.781 -13.184 64.453 -20.019c1.302 -2.605 2.278 -5.697 2.929 -9.278c0.651 -3.581 1.303 -7.812 1.954 -12.695c0 -5.86 0.162 -17.334 0.488 -34.424c0.325 -17.09 0.488 -36.621 0.488 -58.594c0 -21.972 -0.163 -45.084 -0.488 -69.336c-0.326 -24.251 -0.651 -46.875 -0.977 -67.871c-0.325 -20.996 -0.651 -38.493 -0.976 -52.49c-0.326 -13.997 -0.489 -21.647 -0.489 -22.949c0 -2.604 -0.976 -4.72 -2.929 -6.348c-0.651 -0.651 -2.767 -1.627 -6.348 -2.93c-4.557 -0.651 -14.16 -0.976 -28.809 -0.976c0 0 -60.058 0 -60.058 0c-6.511 0 -16.602 0.163 -30.274 0.488c-13.671 0.326 -27.506 0.651 -41.503 0.977c-13.998 0.325 -26.693 0.976 -38.086 1.953c-11.394 0.976 -18.067 2.116 -20.02 3.418c-13.346 8.138 -32.389 28.157 -57.129 60.058c-6.51 9.441 -11.881 14.161 -16.113 14.161c-7.487 -3.256 -13.184 -6.429 -17.09 -9.522c-3.906 -3.092 -6.836 -5.615 -8.789 -7.568c0 0 0 0 0 0" />
  </g>
</svg>