<svg height="1000" width="857.143" xmlns="http://www.w3.org/2000/svg"><path d="M45.198 72.046l30.132 15.066q6.696 2.79 117.738 2.79 24.552 0 73.656 -1.116t73.656 -1.116q39.06 0 137.547 -.558t169.911 -.279 137.826 2.511q18.414 .558 31.248 -17.298l23.436 -.558q2.232 0 7.812 .279t7.812 .279q1.116 62.496 1.116 187.488 0 44.64 -2.79 60.822 -21.762 7.812 -37.944 10.044 -13.95 -24.552 -30.132 -71.424 -1.674 -5.022 -6.138 -26.505t-8.37 -41.013 -3.906 -20.088q-5.58 -7.254 -15.066 -10.602 -2.79 -1.116 -36.828 -1.116 -16.74 0 -51.894 -.558t-57.474 -.558 -52.452 1.116 -53.568 3.906q-5.022 45.198 -4.464 75.888l.558 84.816v-29.016q0 30.69 .558 85.932t.837 100.44 .279 85.374q0 8.928 -1.395 39.897t0 51.057 6.975 38.502q22.32 11.718 69.192 23.715t66.96 20.925q2.79 22.32 2.79 27.9 0 7.812 -1.674 16.182l-18.972 .558q-42.408 1.116 -121.644 -4.464t-115.506 -5.58q-27.9 0 -84.258 5.022t-84.816 5.022q-1.674 -28.458 -1.674 -29.016v-5.022q9.486 -15.066 34.317 -23.994t54.963 -16.182 43.524 -15.066q3.906 -8.928 6.417 -41.292t3.348 -81.189 .837 -86.49 -.279 -85.653 -.279 -49.662q0 -3.906 -1.395 -11.997t-1.395 -12.555q0 -3.906 .279 -24.552t.558 -40.734 0 -42.687 -1.674 -37.665 -3.627 -17.856q-6.138 -6.696 -90.396 -6.696 -22.878 0 -90.954 7.533t-77.004 13.671q-10.602 6.696 -18.972 39.897t-17.577 62.217 -23.715 30.132q-23.436 -14.508 -31.248 -24.552v-213.714zm685.782 715.356q6.696 0 23.436 10.881t32.085 23.157 33.201 27.342 20.088 16.74q14.508 11.718 14.508 27.342t-14.508 27.342q-2.232 1.674 -20.088 16.74t-33.201 27.342 -32.085 23.157 -23.436 10.881q-7.254 0 -11.439 -5.859t-5.58 -15.903 -1.395 -18.693 .837 -18.414 .837 -10.881h-571.392q0 1.116 .837 10.881t.837 18.414 -1.395 18.693 -5.58 15.903 -11.439 5.859q-6.696 0 -23.436 -10.881t-32.085 -23.157 -33.201 -27.342 -20.088 -16.74q-14.508 -11.718 -14.508 -27.342t14.508 -27.342q2.232 -1.674 20.088 -16.74t33.201 -27.342 32.085 -23.157 23.436 -10.881q7.254 0 11.439 5.859t5.58 15.903 1.395 18.693 -.837 18.414 -.837 10.881h571.392q0 -1.116 -.837 -10.881t-.837 -18.414 1.395 -18.693 5.58 -15.903 11.439 -5.859z"/></svg>