<svg height="1000px" width="857.1428571428571px" xmlns="http://www.w3.org/2000/svg">
  <g>
    <path d="M839.84375 794.0848214285714c9.673 7.44 14.509 16.555 14.509 27.344c0 10.788 -4.836 19.903 -14.509 27.343c0 0 -90.402 70.313 -90.402 70.313c-9.672 7.44 -17.95 9.487 -24.832 6.138c-6.883 -3.348 -10.324 -11.16 -10.324 -23.437c0 0 0 -44.643 0 -44.643c0 0 -571.429 0 -571.429 0c0 0 0 44.643 0 44.643c0 12.277 -3.441 20.089 -10.323 23.437c-6.883 3.349 -15.16 1.302 -24.833 -6.138c0 0 -90.402 -70.313 -90.402 -70.313c-9.672 -7.44 -14.509 -16.555 -14.509 -27.343c0 -10.789 4.837 -19.904 14.509 -27.344c0 0 90.402 -70.313 90.402 -70.313c9.673 -7.44 17.95 -9.486 24.833 -6.138c6.882 3.348 10.323 11.161 10.323 23.438c0 0 0 44.642 0 44.642c0 0 571.429 0 571.429 0c0 0 0 -44.642 0 -44.642c0 -12.277 3.441 -20.09 10.324 -23.438c6.882 -3.348 15.16 -1.302 24.832 6.138c0 0 90.402 70.313 90.402 70.313m-119.978 -634.487c0 0 -148.437 1.116 -148.437 1.116c-34.97 0 -58.594 0.931 -70.871 2.791c-3.72 36.086 -5.208 61.384 -4.464 75.892c0 0 2.232 256.139 2.232 256.139c0 0 -0.558 82.031 -0.558 82.031c-0.372 17.113 1.674 32.924 6.138 47.433c18.23 9.301 31.25 14.602 39.063 15.904c7.812 1.302 14.695 2.883 20.647 4.743c14.509 4.465 29.018 8.65 43.527 12.556c14.509 3.907 25.484 7.72 32.924 11.44c1.86 16.741 2.79 26.507 2.79 29.297c0 2.79 -0.558 7.719 -1.674 14.788c-5.208 0.372 -19.903 0.558 -44.085 0.558c-24.181 0 -50.13 -1.674 -77.846 -5.022c-27.715 -3.349 -64.639 -5.023 -110.77 -5.023c-46.131 0 -87.425 1.674 -123.884 5.023c-36.458 3.348 -59.337 5.022 -68.638 5.022c-0.744 -8.185 -1.116 -13.021 -1.116 -14.509c0 0 -0.558 -14.509 -0.558 -14.509c0 0 0 -5.022 0 -5.022c7.812 -12.277 22.507 -21.392 44.085 -27.344c51.711 -14.137 81.287 -23.438 88.727 -27.902c3.349 -7.812 5.581 -18.229 6.697 -31.25c2.232 -50.967 3.348 -131.51 3.348 -241.629c0 0 -2.79 -24.554 -2.79 -24.554c0 -98.586 -0.372 -150.111 -1.116 -154.576c-1.116 -7.44 -4.836 -11.532 -11.161 -12.277c-14.137 -2.232 -36.086 -3.348 -65.848 -3.348c-29.762 0 -66.685 2.604 -110.77 7.813c-44.085 5.208 -68.639 9.579 -73.661 13.114c-5.022 3.534 -9.207 9.765 -12.556 18.694c-3.348 8.928 -7.44 22.879 -12.276 41.852c-4.837 18.974 -8.836 33.297 -11.998 42.969c-3.162 9.673 -7.255 16.927 -12.277 21.764c-5.022 4.836 -8.836 7.254 -11.44 7.254c-16.369 -10.045 -26.785 -18.229 -31.25 -24.554c0 0 0 -213.727 0 -213.727c0 0 45.201 -0.558 45.201 -0.558c0 0 30.134 15.067 30.134 15.067c7.441 1.86 46.689 2.79 117.746 2.79c0 0 72.544 0 72.544 0c0 0 10.603 -1.674 10.603 -1.674c0 0 64.174 -0.558 64.174 -0.558c0 0 248.884 0.558 248.884 0.558c0 0 177.455 0 177.455 0c0 0 18.974 1.116 18.974 1.116c10.044 0.744 20.461 -5.022 31.25 -17.299c0 0 23.437 -0.558 23.437 -0.558c5.58 0 10.789 0.186 15.625 0.558c0 0 0 58.594 0 58.594c0 29.017 0.186 53.385 0.558 73.102c0 0 0.558 55.804 0.558 55.804c0 0 -0.558 32.366 -0.558 32.366c0 11.905 -0.744 21.391 -2.232 28.46c-14.509 5.58 -27.158 8.928 -37.947 10.044c-21.577 -36.83 -36.644 -84.449 -45.2 -142.857c-1.488 -10.044 -3.628 -16.648 -6.418 -19.81c-2.79 -3.162 -6.138 -5.301 -10.044 -6.418c-3.907 -1.116 -15.532 -1.674 -34.878 -1.674c0 0 0 0 0 0" />
  </g>
</svg>