<svg height="1000" width="857.1" xmlns="http://www.w3.org/2000/svg"><path d="M45.2 72l30.1 15.1q6.7 2.7 117.8 2.7 24.5 0 73.6 -1.1t73.7 -1.1q39.1 0 137.6 -.5t169.9 -.3 137.8 2.5Q804.1 89.8 817 72l23.4 -.6q2.2 0 7.8 .3t7.8 .3q1.1 62.5 1.1 187.5 0 44.6 -2.7 60.8 -21.8 7.8 -38 10.1 -13.9 -24.6 -30.1 -71.5 -1.7 -5 -6.2 -26.5t-8.3 -41 -3.9 -20.1q-5.6 -7.2 -15.1 -10.6Q750 159.6 716 159.6q-16.8 0 -51.9 -.6t-57.5 -.5 -52.5 1.1 -53.5 3.9q-5.1 45.2 -4.5 75.9l.6 84.8v-29q0 30.7 .5 85.9t.8 100.5 .3 85.4q0 8.9 -1.4 39.9t0 51 7 38.5q22.3 11.7 69.2 23.7t67 21q2.8 22.3 2.8 27.9 0 7.8 -1.7 16.2l-19 .5q-42.4 1.1 -121.6 -4.5T385 775.7q-27.9 0 -84.2 5t-84.8 5q-1.7 -28.4 -1.7 -29v-5q9.5 -15.1 34.3 -24t55 -16.2 43.5 -15.1q3.9 -8.9 6.4 -41.3t3.4 -81.2 .8 -86.5 -.3 -85.6 -.3 -49.7q0 -3.9 -1.4 -12t-1.3 -12.5q0 -3.9 .2 -24.6t.6 -40.7 0 -42.7 -1.7 -37.7 -3.6 -17.8q-6.1 -6.7 -90.4 -6.7 -22.9 0 -91 7.5t-77 13.7q-10.6 6.7 -19 39.9T55 280.7t-23.7 30.1Q7.8 296.3 0 286.3V72.5zM731 787.4q6.7 0 23.5 10.9t32.1 23.1 33.2 27.4 20 16.7q14.6 11.7 14.6 27.4t-14.6 27.3q-2.2 1.7 -20 16.7t-33.2 27.4 -32.1 23.1T731 998.3q-7.2 0 -11.4 -5.8T714 976.6t-1.4 -18.7 .8 -18.4 .9 -10.9H142.9q0 1.1 .8 10.9t.8 18.4 -1.4 18.7 -5.5 15.9 -11.5 5.8q-6.7 0 -23.4 -10.9T70.6 964.3 37.4 936.9 17.3 920.2Q2.8 908.5 2.8 892.9t14.5 -27.4q2.2 -1.7 20.1 -16.7t33.2 -27.4 32.1 -23.1 23.4 -10.9q7.3 0 11.5 5.8t5.5 16 1.4 18.6 -.8 18.5 -.8 10.8h571.4q0 -1.1 -.9 -10.8t-.8 -18.5 1.4 -18.6 5.6 -16 11.4 -5.8z"/></svg>