<svg height="1000px" width="1000px" xmlns="http://www.w3.org/2000/svg">
  <g>
    <path d="M0 286.27232142857133c0 0 0 -165.737 0 -165.737c0 0 0 -47.991 0 -47.991c0 0 45.201 -0.558 45.201 -0.558c0 0 30.134 15.067 30.134 15.067c7.44 1.86 46.689 2.79 117.745 2.79c0 0 72.545 0 72.545 0c0 0 10.603 -1.674 10.603 -1.674c0 0 64.174 -0.558 64.174 -0.558c0 0 119.977 0.558 119.977 0.558c0 0 163.505 0 163.505 0c0 0 18.973 1.116 18.973 1.116c5.208 0.372 10.417 -0.93 15.625 -3.906c5.208 -2.976 9.115 -5.952 11.719 -8.928c0 0 3.906 -4.465 3.906 -4.465c0 0 23.438 -0.558 23.438 -0.558c5.58 0 10.788 0.186 15.625 0.558c0 0 0 58.315 0 58.315c0 0 0.186 24.461 0.558 73.382c0 0 0.558 55.803 0.558 55.803c0 0 -0.558 32.366 -0.558 32.366c0 11.905 -0.744 21.392 -2.232 28.46c-14.509 5.581 -27.158 8.929 -37.947 10.045c-9.3 -15.997 -19.345 -39.807 -30.134 -71.429c-2.976 -8.928 -5.859 -20.554 -8.649 -34.877c-2.791 -14.323 -4.93 -26.507 -6.418 -36.551c-1.488 -10.045 -2.604 -15.439 -3.348 -16.183c-4.836 -5.581 -9.859 -9.115 -15.067 -10.603c-2.604 -0.744 -10.51 -1.116 -23.716 -1.116c-13.207 0 -32.46 0.186 -57.757 0.558c-25.298 0.372 -45.945 0.558 -61.942 0.558c-12.649 0 -25.112 0.93 -37.389 2.79c-3.72 36.086 -5.208 61.384 -4.464 75.893c0 0 0.558 84.821 0.558 84.821c0 0 0 185.268 0 185.268c0 0 1.674 200.335 1.674 200.335c0 0 -0.558 82.031 -0.558 82.031c-0.372 17.113 1.674 32.924 6.139 47.433c18.229 9.301 34.784 15.253 49.665 17.858c0.744 0 4.092 0.93 10.044 2.79c5.953 1.86 14.137 4.278 24.554 7.254c10.417 2.976 18.415 5.209 23.996 6.697c11.16 2.976 20.461 6.324 27.901 10.044c1.861 16.741 2.791 26.042 2.791 27.902c0 3.72 -0.558 9.115 -1.675 16.183c-5.208 0.372 -11.532 0.558 -18.973 0.558c-40.922 0 -75.707 -1.86 -104.352 -5.58c-26.786 -2.976 -71.057 -4.465 -132.813 -4.465c-32.738 0 -76.079 2.605 -130.022 7.813c-17.857 1.488 -30.878 2.232 -39.063 2.232c-0.744 -8.184 -1.116 -13.021 -1.116 -14.509c0 0 -0.558 -14.509 -0.558 -14.509c0 0 0 -5.022 0 -5.022c7.813 -12.277 22.508 -21.391 44.085 -27.344c51.711 -14.137 81.287 -23.437 88.728 -27.902c3.348 -7.812 5.58 -18.229 6.696 -31.25c2.976 -71.428 4.092 -151.971 3.348 -241.629c0 0 -2.79 -238.839 -2.79 -238.839c-0.372 -23.066 -0.465 -45.108 -0.279 -66.128c0.186 -21.019 0.279 -40.085 0.279 -57.198c0 -17.113 -0.372 -27.716 -1.116 -31.808c-0.744 -4.093 -1.86 -6.883 -3.348 -8.371c-2.232 -1.86 -4.836 -2.976 -7.813 -3.348c-14.137 -2.232 -41.666 -3.348 -82.589 -3.348c-15.997 0 -34.598 2.511 -55.804 7.533c-21.205 5.023 -34.784 9.58 -40.736 13.672c-4.836 3.348 -8.929 9.487 -12.277 18.415c-3.348 8.929 -7.44 22.88 -12.277 41.853c-4.836 18.973 -9.3 34.598 -13.393 46.875c-2.232 7.068 -5.859 13.021 -10.881 17.857c-5.023 4.836 -8.836 7.255 -11.44 7.255c-16.369 -10.045 -26.786 -18.23 -31.25 -24.554c0 0 0 0 0 0m789.062 509.766c3.349 -6.883 11.161 -10.324 23.438 -10.324c0 0 44.643 0 44.643 0c0 0 0 -571.429 0 -571.429c0 0 -44.643 0 -44.643 0c-12.277 0 -20.089 -3.441 -23.438 -10.323c-3.348 -6.883 -1.302 -15.16 6.139 -24.833c0 0 70.312 -90.402 70.312 -90.402c7.441 -9.672 16.555 -14.509 27.344 -14.509c10.789 0 19.903 4.837 27.344 14.509c0 0 70.312 90.402 70.312 90.402c7.441 9.673 9.487 17.95 6.139 24.833c-3.348 6.882 -11.161 10.323 -23.438 10.323c0 0 -44.643 0 -44.643 0c0 0 0 571.429 0 571.429c0 0 44.643 0 44.643 0c12.277 0 20.09 3.441 23.438 10.324c3.348 6.882 1.302 15.16 -6.139 24.832c0 0 -70.312 90.402 -70.312 90.402c-7.441 9.673 -16.555 14.509 -27.344 14.509c-10.789 0 -19.903 -4.836 -27.344 -14.509c0 0 -70.312 -90.402 -70.312 -90.402c-7.441 -9.672 -9.487 -17.95 -6.139 -24.832c0 0 0 0 0 0" />
  </g>
</svg>