<svg height="1000px" width="1000px" xmlns="http://www.w3.org/2000/svg">
  <g>
    <path d="M973.2142857142858 785.7142857142857c12.277 0 20.089 3.441 23.438 10.324c3.348 6.882 1.302 15.16 -6.139 24.832c0 0 -70.312 90.402 -70.312 90.402c-7.441 9.673 -16.555 14.509 -27.344 14.509c-10.789 0 -19.903 -4.836 -27.344 -14.509c0 0 -70.312 -90.402 -70.312 -90.402c-7.441 -9.672 -9.487 -17.95 -6.139 -24.832c3.348 -6.883 11.161 -10.324 23.438 -10.324c0 0 44.643 0 44.643 0c0 0 0 -571.429 0 -571.429c0 0 -44.643 0 -44.643 0c-12.277 0 -20.09 -3.441 -23.438 -10.323c-3.348 -6.883 -1.302 -15.16 6.139 -24.833c0 0 70.312 -90.402 70.312 -90.402c7.441 -9.672 16.555 -14.509 27.344 -14.509c10.789 0 19.903 4.837 27.344 14.509c0 0 70.312 90.402 70.312 90.402c7.441 9.673 9.487 17.95 6.139 24.833c-3.349 6.882 -11.161 10.323 -23.438 10.323c0 0 -44.643 0 -44.643 0c0 0 0 571.429 0 571.429c0 0 44.643 0 44.643 0c0 0 0 0 0 0m-387.277 -626.116c0 0 -119.419 1.116 -119.419 1.116c-12.649 0 -25.112 0.93 -37.389 2.79c-3.72 36.086 -5.208 61.384 -4.464 75.893c0 0 0.558 84.821 0.558 84.821c0 0 0 185.268 0 185.268c0 0 1.674 200.335 1.674 200.335c0 0 -0.558 82.031 -0.558 82.031c-0.372 17.113 1.674 32.924 6.138 47.433c18.23 9.301 31.25 14.602 39.063 15.904c7.812 1.303 14.695 2.884 20.647 4.744c14.509 4.464 29.018 8.649 43.527 12.556c14.509 3.906 25.484 7.719 32.924 11.439c1.86 16.741 2.79 26.507 2.79 29.297c0 2.79 -0.558 7.72 -1.674 14.788c-5.208 0.372 -19.903 0.558 -44.085 0.558c-24.181 0 -50.13 -1.674 -77.846 -5.022c-27.715 -3.348 -65.197 -5.023 -112.444 -5.023c-47.247 0 -88.821 1.675 -124.721 5.023c-35.9 3.348 -57.943 5.022 -66.127 5.022c-0.744 -8.184 -1.116 -13.021 -1.116 -14.509c0 0 -0.558 -14.509 -0.558 -14.509c0 0 0 -5.022 0 -5.022c7.812 -12.277 22.507 -21.391 44.085 -27.344c51.711 -14.137 81.287 -23.437 88.727 -27.902c3.349 -7.812 5.581 -18.229 6.697 -31.25c2.976 -71.428 4.092 -151.971 3.348 -241.629c0 0 -2.79 -238.839 -2.79 -238.839c-0.372 -23.066 -0.465 -45.108 -0.279 -66.128c0.186 -21.019 0.279 -40.085 0.279 -57.198c0 -23.81 -1.302 -36.831 -3.906 -39.063c-5.581 -5.208 -26.135 -7.812 -61.663 -7.812c-35.529 0 -63.895 2.511 -85.101 7.533c-21.205 5.023 -34.505 9.394 -39.899 13.114c-5.395 3.72 -9.766 10.045 -13.114 18.973c-3.348 8.929 -7.441 22.88 -12.277 41.853c-4.836 18.973 -8.836 33.296 -11.998 42.969c-3.162 9.672 -7.254 16.927 -12.277 21.763c-5.022 4.836 -8.835 7.255 -11.439 7.255c-16.369 -10.045 -26.786 -18.23 -31.25 -24.554c0 0 0 -213.728 0 -213.728c0 0 45.201 -0.558 45.201 -0.558c0 0 30.134 15.067 30.134 15.067c7.44 1.86 46.689 2.79 117.745 2.79c0 0 72.545 0 72.545 0c0 0 10.602 -1.674 10.602 -1.674c0 0 64.175 -0.558 64.175 -0.558c0 0 119.977 0.558 119.977 0.558c0 0 163.505 0 163.505 0c0 0 18.973 1.116 18.973 1.116c10.045 0.744 20.461 -5.022 31.25 -17.299c0 0 23.437 -0.558 23.437 -0.558c5.581 0 10.789 0.186 15.625 0.558c0 0 0 58.594 0 58.594c0 29.018 0.186 53.385 0.558 73.103c0 0 0.558 55.803 0.558 55.803c0 0 -0.558 32.366 -0.558 32.366c0 11.905 -0.744 21.392 -2.232 28.46c-14.509 5.581 -27.157 8.929 -37.946 10.045c-21.578 -36.83 -36.645 -84.45 -45.201 -142.857c-1.488 -10.417 -3.72 -17.113 -6.696 -20.09c-5.209 -5.208 -17.114 -7.812 -35.715 -7.812c0 0 0 0 0 0" />
  </g>
</svg>