<svg height="1000px" width="857.1428571428571px" xmlns="http://www.w3.org/2000/svg">
  <g>
    <path d="M0 286.27232142857133c0 0 0 -165.737 0 -165.737c0 0 0 -47.991 0 -47.991c0 0 45.201 -0.558 45.201 -0.558c0 0 30.134 15.067 30.134 15.067c7.44 1.86 46.689 2.79 117.745 2.79c0 0 72.545 0 72.545 0c0 0 10.603 -1.674 10.603 -1.674c0 0 64.174 -0.558 64.174 -0.558c0 0 248.884 0.558 248.884 0.558c0 0 177.455 0 177.455 0c0 0 18.973 1.116 18.973 1.116c5.209 0.372 10.417 -0.93 15.625 -3.906c5.209 -2.976 9.115 -5.952 11.719 -8.928c0 0 3.906 -4.465 3.906 -4.465c0 0 23.438 -0.558 23.438 -0.558c5.58 0 10.788 0.186 15.625 0.558c0 0 0 58.315 0 58.315c0 0 0.186 24.461 0.558 73.382c0 0 0.558 55.803 0.558 55.803c0 0 -0.558 32.366 -0.558 32.366c0 11.905 -0.744 21.392 -2.232 28.46c-14.509 5.581 -27.158 8.929 -37.947 10.045c-9.3 -15.997 -19.345 -39.807 -30.134 -71.429c-2.976 -8.928 -5.859 -20.554 -8.649 -34.877c-2.79 -14.323 -4.93 -26.507 -6.418 -36.551c-1.488 -10.045 -2.604 -15.439 -3.348 -16.183c-4.836 -5.581 -9.858 -9.115 -15.067 -10.603c-2.604 -0.744 -13.486 -1.116 -32.645 -1.116c-19.159 0 -44.922 0.186 -77.288 0.558c-32.366 0.372 -56.175 0.558 -71.428 0.558c-34.971 0 -58.594 0.93 -70.871 2.79c-3.72 36.086 -5.208 61.384 -4.464 75.893c0 0 0.558 55.804 0.558 55.804c0 0 1.674 200.334 1.674 200.334c0 0 -0.558 82.032 -0.558 82.032c-0.372 17.113 1.674 32.924 6.138 47.433c18.229 9.3 34.784 15.253 49.665 17.857c0.744 0 4.093 0.93 10.045 2.79c5.952 1.86 14.137 4.278 24.554 7.254c10.416 2.977 18.415 5.209 23.995 6.697c11.161 2.976 20.461 6.324 27.902 10.045c1.86 16.741 2.79 26.041 2.79 27.901c0 3.721 -0.558 9.115 -1.674 16.183c-5.208 0.372 -11.533 0.558 -18.973 0.558c-40.923 0 -75.707 -1.86 -104.353 -5.58c-26.786 -2.976 -71.056 -4.464 -132.812 -4.464c-30.506 0 -73.847 2.418 -130.023 7.254c-16.741 1.86 -29.762 2.79 -39.062 2.79c-0.744 -8.184 -1.116 -13.02 -1.116 -14.509c0 0 -0.558 -14.508 -0.558 -14.508c0 0 0 -5.023 0 -5.023c7.812 -12.277 22.507 -21.391 44.085 -27.344c51.711 -14.136 81.287 -23.437 88.727 -27.901c3.348 -7.813 5.581 -18.229 6.697 -31.25c2.232 -50.968 3.348 -131.511 3.348 -241.63c0 0 -2.79 -24.553 -2.79 -24.553c0 -98.587 -0.372 -150.298 -1.116 -155.134c-0.744 -4.093 -1.861 -6.883 -3.349 -8.371c-2.232 -1.86 -4.836 -2.976 -7.812 -3.348c-14.137 -2.232 -41.667 -3.348 -82.589 -3.348c-18.602 0 -49.945 2.604 -94.029 7.812c-44.085 5.209 -68.732 9.673 -73.94 13.393c-4.836 3.348 -8.929 9.487 -12.277 18.415c-3.348 8.929 -7.44 22.88 -12.277 41.853c-4.836 18.973 -9.3 34.598 -13.393 46.875c-2.232 7.068 -5.859 13.021 -10.881 17.857c-5.023 4.836 -8.836 7.255 -11.44 7.255c-16.369 -10.045 -26.786 -18.23 -31.25 -24.554c0 0 0 0 0 0m2.79 535.156c0 -10.788 4.836 -19.903 14.509 -27.343c0 0 90.402 -70.313 90.402 -70.313c9.673 -7.44 17.95 -9.487 24.832 -6.138c6.883 3.348 10.324 11.16 10.324 23.437c0 0 0 44.643 0 44.643c0 0 571.429 0 571.429 0c0 0 0 -44.643 0 -44.643c0 -12.277 3.441 -20.089 10.323 -23.437c6.883 -3.349 15.16 -1.302 24.833 6.138c0 0 90.402 70.313 90.402 70.313c9.672 7.44 14.509 16.555 14.509 27.343c0 10.789 -4.837 19.904 -14.509 27.344c0 0 -90.402 70.313 -90.402 70.313c-9.673 7.44 -17.95 9.486 -24.833 6.138c-6.882 -3.348 -10.323 -11.161 -10.323 -23.438c0 0 0 -44.642 0 -44.642c0 0 -571.429 0 -571.429 0c0 0 0 44.642 0 44.642c0 12.277 -3.441 20.09 -10.324 23.438c-6.882 3.348 -15.159 1.302 -24.832 -6.138c0 0 -90.402 -70.313 -90.402 -70.313c-9.673 -7.44 -14.509 -16.555 -14.509 -27.344c0 0 0 0 0 0" />
  </g>
</svg>