<svg height="1000px" width="750px" xmlns="http://www.w3.org/2000/svg">
  <g>
    <path d="M0 761.978271484375c0 -6 2 -11 6 -15c0 0 91 -90 91 -90c6 -6.667 11.167 -9 15.5 -7c4.333 2 6.5 7.333 6.5 16c0 0 0 59 0 59c0 0 512 0 512 0c0 0 0 -59 0 -59c0 -8.667 2.167 -14 6.5 -16c4.333 -2 9.833 0.333 16.5 7c0 0 90 90 90 90c4 4 6 9 6 15c0 6 -2 11 -6 15c0 0 -90 91 -90 91c-6.667 6 -12.167 8.167 -16.5 6.5c-4.333 -1.667 -6.5 -7.167 -6.5 -16.5c0 0 0 -58 0 -58c0 0 -512 0 -512 0c0 0 0 58 0 58c0 9.333 -2.167 14.833 -6.5 16.5c-4.333 1.667 -9.5 -0.5 -15.5 -6.5c0 0 -91 -91 -91 -91c-4 -4 -6 -9 -6 -15c0 0 0 0 0 0m0 -488c4.667 -9.333 10.167 -23.5 16.5 -42.5c6.333 -19 13.5 -42.833 21.5 -71.5c2 -8.667 3.833 -15.667 5.5 -21c1.667 -5.333 3.167 -9.667 4.5 -13c0 0 27 0 27 0c2.667 4 4.333 6.333 5 7c8.667 15.333 14.667 24.667 18 28c0.667 0 6.5 0.167 17.5 0.5c11 0.333 23.833 0.5 38.5 0.5c0 0 44 0 44 0c0 0 36 0 36 0c0 0 60 0 60 0c0 0 9 -1 9 -1c0 0 53 0 53 0c0 0 99 0 99 0c0 0 203 0 203 0c0 0 26 -3 26 -3c4 -3.333 8 -10.667 12 -22c0.667 -1.333 1.333 -2.833 2 -4.5c0.667 -1.667 1.667 -3.833 3 -6.5c0 0 19 0 19 0c0 0 14 0 14 0c0 0 0 92 0 92c0 0 0 39 0 39c0 0 0 22 0 22c0 4 -0.167 7.5 -0.5 10.5c-0.333 3 -0.833 6.167 -1.5 9.5c-10.667 3.333 -21 5.667 -31 7c-8 -12 -16.333 -28.667 -25 -50c-8.667 -19.333 -14.333 -31.333 -17 -36c-4 -3.333 -8.333 -5.667 -13 -7c-2 -0.667 -8.833 -1.167 -20.5 -1.5c-11.667 -0.333 -25.5 -0.5 -41.5 -0.5c0 0 -50 0 -50 0c0 0 -48 0 -48 0c0 0 -14 0 -14 0c-5.333 0 -11 0.333 -17 1c-0.667 6 -1.167 11.333 -1.5 16c-0.333 4.667 -0.5 8.667 -0.5 12c0 0 2 217 2 217c0 0 -1 58 -1 58c0 20 2 35 6 45c4 2 12.667 4 26 6c1.333 0 4.667 0.667 10 2c5.333 1.333 12.667 3 22 5c4.667 1.333 9 2.5 13 3.5c4 1 7.667 2.167 11 3.5c0.667 5.333 1.167 9.5 1.5 12.5c0.333 3 0.5 5.167 0.5 6.5c0 1.333 -0.167 3 -0.5 5c-0.333 2 -0.5 4.333 -0.5 7c0 0 -16 0 -16 0c-30.667 0 -56.333 -1 -77 -3c-21.333 -2 -59.667 -3 -115 -3c-4.667 0 -13.333 0.5 -26 1.5c-12.667 1 -29.667 2.167 -51 3.5c-8.667 0.667 -15.667 1.167 -21 1.5c-5.333 0.333 -9.333 0.5 -12 0.5c0 -5.333 -0.333 -8.667 -1 -10c0 0 0 -10 0 -10c0 0 0 -4 0 -4c6.667 -8.667 18.667 -15 36 -19c29.333 -6.667 50.667 -13.333 64 -20c1.333 -2.667 2.333 -5.833 3 -9.5c0.667 -3.667 1.333 -7.833 2 -12.5c0 -6 0.167 -17.5 0.5 -34.5c0.333 -17 0.5 -36.5 0.5 -58.5c0 -22 -0.167 -45.167 -0.5 -69.5c-0.333 -24.333 -0.667 -47 -1 -68c-0.333 -21 -0.667 -38.5 -1 -52.5c-0.333 -14 -0.5 -21.667 -0.5 -23c0 -2.667 -1 -4.667 -3 -6c-0.667 -0.667 -2.667 -1.667 -6 -3c-4.667 -0.667 -14.333 -1 -29 -1c0 0 -60 0 -60 0c-6.667 0 -16.833 0.167 -30.5 0.5c-13.667 0.333 -27.5 0.667 -41.5 1c-14 0.333 -26.667 1 -38 2c-11.333 1 -18 2.167 -20 3.5c-13.333 8 -32.333 28 -57 60c-6.667 9.333 -12 14 -16 14c-7.333 -3.333 -13 -6.5 -17 -9.5c-4 -3 -7 -5.5 -9 -7.5c0 0 0 0 0 0" />
  </g>
</svg>