<svg height="1000" width="1000" xmlns="http://www.w3.org/2000/svg"><path d="M973.2 785.7q18.4 0 23.5 10.3t-6.2 24.9l-70.3 90.4q-11.2 14.5 -27.3 14.5t-27.4 -14.5l-70.3 -90.4Q784 806.4 789.1 796t23.4 -10.3h44.6V214.3h-44.6q-18.4 0 -23.4 -10.3t6.1 -24.9l70.3 -90.4q11.2 -14.5 27.4 -14.5t27.3 14.5l70.3 90.4q11.2 14.5 6.2 24.9t-23.5 10.3h-44.6v571.4h44.6zM45.2 72l30.1 15.1q6.7 2.7 117.8 2.7 24.5 0 73.6 -1.1t73.7 -1.1q20.1 0 60 .3t60 .3h163.5q3.3 0 11.7 .2t11.4 0 9 -1.6 9.7 -5 8.4 -9.8l23.4 -.6q2.3 0 7.9 .3t7.8 .3q1.1 62.5 1.1 187.5 0 44.6 -2.8 60.8 -21.8 7.8 -38 10.1 -13.9 -24.6 -30.1 -71.5 -1.7 -5 -6.1 -26.8t-8.1 -41T625 171.3q-3.3 -4.4 -6.7 -7t-8.6 -3.3 -7.3 -1.4 -10 -.3 -9.3 .3q-9.4 0 -37.1 -.3t-41.5 -.3 -35.8 1.2 -39.6 3.3q-5 45.2 -4.4 75.9 0 52.5 1.1 216.5t1.1 253.9q0 9 -1.4 39.9t0 51.1 7 38.5q22.3 11.7 69.2 23.7t66.9 20.9q2.8 22.4 2.8 27.9 0 7.8 -1.6 16.2l-19 .6q-42.4 1.1 -121.7 -4.5t-115.5 -5.6q-27.9 0 -84.2 5t-84.9 5.1q-1.6 -28.5 -1.6 -29v-5.1q9.4 -15 34.3 -24t54.9 -16.1 43.6 -15.1q10.6 -23.5 10.6 -213.7 0 -56.4 -1.7 -169.1t-1.7 -169.1v-65.3q0 -1.1 .3 -8.7t.3 -13.9 -.6 -14.2 -1.7 -13.4 -2.7 -7.8q-6.2 -6.7 -90.4 -6.7 -18.5 0 -51.9 6.7t-44.7 14.5q-10.6 7.2 -19 40.4T55 281t-23.8 29.8Q7.8 296.3 0 286.3V72.5z"/></svg>