<svg height="1000" width="1000" xmlns="http://www.w3.org/2000/svg"><path d="M0 803.584l0-107.136q0-22.32 15.624-37.944t37.944-15.624l178.56 0q22.32 0 37.944 15.624t15.624 37.944l0 107.136q0 22.32-15.624 37.944t-37.944 15.624l-178.56 0q-22.32 0-37.944-15.624t-15.624-37.944zm0-285.696l0-107.136q0-22.32 15.624-37.944t37.944-15.624l178.56 0q22.32 0 37.944 15.624t15.624 37.944l0 107.136q0 22.32-15.624 37.944t-37.944 15.624l-178.56 0q-22.32 0-37.944-15.624t-15.624-37.944zm0-285.696l0-107.136q0-22.32 15.624-37.944t37.944-15.624l178.56 0q22.32 0 37.944 15.624t15.624 37.944l0 107.136q0 22.32-15.624 37.944t-37.944 15.624l-178.56 0q-22.32 0-37.944-15.624t-15.624-37.944zm357.12 571.392l0-107.136q0-22.32 15.624-37.944t37.944-15.624l535.68 0q22.32 0 37.944 15.624t15.624 37.944l0 107.136q0 22.32-15.624 37.944t-37.944 15.624l-535.68 0q-22.32 0-37.944-15.624t-15.624-37.944zm0-285.696l0-107.136q0-22.32 15.624-37.944t37.944-15.624l535.68 0q22.32 0 37.944 15.624t15.624 37.944l0 107.136q0 22.32-15.624 37.944t-37.944 15.624l-535.68 0q-22.32 0-37.944-15.624t-15.624-37.944zm0-285.696l0-107.136q0-22.32 15.624-37.944t37.944-15.624l535.68 0q22.32 0 37.944 15.624t15.624 37.944l0 107.136q0 22.32-15.624 37.944t-37.944 15.624l-535.68 0q-22.32 0-37.944-15.624t-15.624-37.944z"/></svg>