<svg height="1000" width="928.6" xmlns="http://www.w3.org/2000/svg"><path d="M428.6 571.4v214.3q0 29 -21.2 50.2t-50.3 21.2H71.4q-29 0 -50.2 -21.2T0 785.7V571.4q0 -29 21.2 -50.2T71.4 500h285.7q29.1 0 50.3 21.2t21.2 50.2zm0 -428.5v214.2q0 29.1 -21.2 50.3t-50.3 21.2H71.4q-29 0 -50.2 -21.2T0 357.1V142.9Q0 113.8 21.2 92.6T71.4 71.4h285.7q29.1 0 50.3 21.2t21.2 50.3zm500 428.5v214.3q0 29 -21.2 50.2t-50.3 21.2H571.4q-29 0 -50.2 -21.2T500 785.7V571.4q0 -29 21.2 -50.2T571.4 500h285.7q29.1 0 50.3 21.2t21.2 50.2zm0 -428.5v214.2q0 29.1 -21.2 50.3t-50.3 21.2H571.4q-29 0 -50.2 -21.2T500 357.1V142.9q0 -29.1 21.2 -50.3t50.2 -21.2h285.7q29.1 0 50.3 21.2t21.2 50.3z"/></svg>