<svg height="1000px" width="928.5714285714286px" xmlns="http://www.w3.org/2000/svg">
  <g>
    <path d="M0 785.7142857142857c0 0 0 -214.286 0 -214.286c0 -19.345 7.068 -36.086 21.205 -50.223c14.137 -14.137 30.878 -21.205 50.224 -21.205c0 0 285.714 0 285.714 0c19.345 0 36.086 7.068 50.223 21.205c14.137 14.137 21.205 30.878 21.205 50.223c0 0 0 214.286 0 214.286c0 19.345 -7.068 36.086 -21.205 50.223c-14.137 14.137 -30.878 21.206 -50.223 21.206c0 0 -285.714 0 -285.714 0c-19.346 0 -36.087 -7.069 -50.224 -21.206c-14.137 -14.137 -21.205 -30.878 -21.205 -50.223c0 0 0 0 0 0m0 -428.571c0 0 0 -214.286 0 -214.286c0 -19.345 7.068 -36.086 21.205 -50.223c14.137 -14.137 30.878 -21.206 50.224 -21.206c0 0 285.714 0 285.714 0c19.345 0 36.086 7.069 50.223 21.206c14.137 14.137 21.205 30.878 21.205 50.223c0 0 0 214.286 0 214.286c0 19.345 -7.068 36.086 -21.205 50.223c-14.137 14.137 -30.878 21.205 -50.223 21.205c0 0 -285.714 0 -285.714 0c-19.346 0 -36.087 -7.068 -50.224 -21.205c-14.137 -14.137 -21.205 -30.878 -21.205 -50.223c0 0 0 0 0 0m500 428.571c0 0 0 -214.286 0 -214.286c0 -19.345 7.068 -36.086 21.205 -50.223c14.137 -14.137 30.878 -21.205 50.224 -21.205c0 0 285.714 0 285.714 0c19.345 0 36.086 7.068 50.223 21.205c14.137 14.137 21.205 30.878 21.205 50.223c0 0 0 214.286 0 214.286c0 19.345 -7.068 36.086 -21.205 50.223c-14.137 14.137 -30.878 21.206 -50.223 21.206c0 0 -285.714 0 -285.714 0c-19.346 0 -36.087 -7.069 -50.224 -21.206c-14.137 -14.137 -21.205 -30.878 -21.205 -50.223c0 0 0 0 0 0m0 -428.571c0 0 0 -214.286 0 -214.286c0 -19.345 7.068 -36.086 21.205 -50.223c14.137 -14.137 30.878 -21.206 50.224 -21.206c0 0 285.714 0 285.714 0c19.345 0 36.086 7.069 50.223 21.206c14.137 14.137 21.205 30.878 21.205 50.223c0 0 0 214.286 0 214.286c0 19.345 -7.068 36.086 -21.205 50.223c-14.137 14.137 -30.878 21.205 -50.223 21.205c0 0 -285.714 0 -285.714 0c-19.346 0 -36.087 -7.068 -50.224 -21.205c-14.137 -14.137 -21.205 -30.878 -21.205 -50.223c0 0 0 0 0 0" />
  </g>
</svg>