<svg height="1000" width="928.6" xmlns="http://www.w3.org/2000/svg"><path d="M0 785.7v-214.3q0-29 21.2-50.2t50.2-21.2h285.7q29 0 50.2 21.2t21.2 50.2v214.3q0 29-21.2 50.2t-50.2 21.2h-285.7q-29 0-50.2-21.2t-21.2-50.2zm0-428.5v-214.3q0-29 21.2-50.2t50.2-21.2h285.7q29 0 50.2 21.2t21.2 50.2v214.3q0 29-21.2 50.2t-50.2 21.2h-285.7q-29 0-50.2-21.2t-21.2-50.2zm500 428.5v-214.3q0-29 21.2-50.2t50.2-21.2h285.7q29 0 50.2 21.2t21.2 50.2v214.3q0 29-21.2 50.2t-50.2 21.2h-285.7q-29 0-50.2-21.2t-21.2-50.2zm0-428.5v-214.3q0-29 21.2-50.2t50.2-21.2h285.7q29 0 50.2 21.2t21.2 50.2v214.3q0 29-21.2 50.2t-50.2 21.2h-285.7q-29 0-50.2-21.2t-21.2-50.2z"/></svg>