<svg height="1000" width="929" xmlns="http://www.w3.org/2000/svg"><path d="M0 785.728l0-214.272q0-29.016 21.204-50.22t50.22-21.204l285.696 0q29.016 0 50.22 21.204t21.204 50.22l0 214.272q0 29.016-21.204 50.22t-50.22 21.204l-285.696 0q-29.016 0-50.22-21.204t-21.204-50.22zm0-428.544l0-214.272q0-29.016 21.204-50.22t50.22-21.204l285.696 0q29.016 0 50.22 21.204t21.204 50.22l0 214.272q0 29.016-21.204 50.22t-50.22 21.204l-285.696 0q-29.016 0-50.22-21.204t-21.204-50.22zm499.968 428.544l0-214.272q0-29.016 21.204-50.22t50.22-21.204l285.696 0q29.016 0 50.22 21.204t21.204 50.22l0 214.272q0 29.016-21.204 50.22t-50.22 21.204l-285.696 0q-29.016 0-50.22-21.204t-21.204-50.22zm0-428.544l0-214.272q0-29.016 21.204-50.22t50.22-21.204l285.696 0q29.016 0 50.22 21.204t21.204 50.22l0 214.272q0 29.016-21.204 50.22t-50.22 21.204l-285.696 0q-29.016 0-50.22-21.204t-21.204-50.22z"/></svg>