<svg height="1000" width="1000" xmlns="http://www.w3.org/2000/svg"><path d="M285.7 696.4v107.2q0 22.3 -15.6 37.9t-38 15.6H53.6q-22.3 0 -38 -15.6T0 803.6V696.4q0 -22.3 15.6 -37.9t38 -15.6h178.5q22.4 0 38 15.6t15.6 37.9zm0 -285.7v107.2q0 22.3 -15.6 37.9t-38 15.6H53.6q-22.3 0 -38 -15.6T0 517.9V410.7q0 -22.3 15.6 -37.9t38 -15.7h178.5q22.4 0 38 15.7t15.6 37.9zM1000 696.4v107.2q0 22.3 -15.6 37.9t-38 15.6H410.7q-22.3 0 -37.9 -15.6t-15.7 -37.9V696.4q0 -22.3 15.7 -37.9t37.9 -15.6h535.7q22.4 0 38 15.6t15.6 37.9zM285.7 125v107.1q0 22.4 -15.6 38t-38 15.6H53.6q-22.3 0 -38 -15.6T0 232.1V125Q0 102.7 15.6 87.1t38 -15.7h178.5q22.4 0 38 15.7t15.6 37.9zM1000 410.7v107.2q0 22.3 -15.6 37.9t-38 15.6H410.7q-22.3 0 -37.9 -15.6t-15.7 -37.9V410.7q0 -22.3 15.7 -37.9t37.9 -15.7h535.7q22.4 0 38 15.7t15.6 37.9zm0 -285.7v107.1q0 22.4 -15.6 38t-38 15.6H410.7q-22.3 0 -37.9 -15.6t-15.7 -38V125q0 -22.3 15.7 -37.9t37.9 -15.7h535.7q22.4 0 38 15.7T1000 125z"/></svg>