<svg height="1000" width="928.571" xmlns="http://www.w3.org/2000/svg"><path d="M428.544 571.456v214.272q0 29.016 -21.204 50.22t-50.22 21.204h-285.696q-29.016 0 -50.22 -21.204t-21.204 -50.22v-214.272q0 -29.016 21.204 -50.22t50.22 -21.204h285.696q29.016 0 50.22 21.204t21.204 50.22zm0 -428.544v214.272q0 29.016 -21.204 50.22t-50.22 21.204h-285.696q-29.016 0 -50.22 -21.204t-21.204 -50.22v-214.272q0 -29.016 21.204 -50.22t50.22 -21.204h285.696q29.016 0 50.22 21.204t21.204 50.22zm499.968 428.544v214.272q0 29.016 -21.204 50.22t-50.22 21.204h-285.696q-29.016 0 -50.22 -21.204t-21.204 -50.22v-214.272q0 -29.016 21.204 -50.22t50.22 -21.204h285.696q29.016 0 50.22 21.204t21.204 50.22zm0 -428.544v214.272q0 29.016 -21.204 50.22t-50.22 21.204h-285.696q-29.016 0 -50.22 -21.204t-21.204 -50.22v-214.272q0 -29.016 21.204 -50.22t50.22 -21.204h285.696q29.016 0 50.22 21.204t21.204 50.22z"/></svg>