<svg height="1000px" width="899.90234375px" xmlns="http://www.w3.org/2000/svg">
  <g>
    <path d="M0 836.9140625c0 0 0 -261.719 0 -261.719c0 -10.742 3.662 -19.775 10.986 -27.099c7.325 -7.325 16.358 -10.987 27.1 -10.987c0 0 336.914 0 336.914 0c10.742 0 19.775 3.662 27.1 10.987c7.324 7.324 10.986 16.357 10.986 27.099c0 0 0 261.719 0 261.719c0 10.742 -3.662 19.775 -10.986 27.1c-7.325 7.324 -16.358 10.986 -27.1 10.986c0 0 -336.914 0 -336.914 0c-10.742 0 -19.775 -3.662 -27.1 -10.986c-7.324 -7.325 -10.986 -16.358 -10.986 -27.1c0 0 0 0 0 0m0 -412.109c0 0 0 -262.696 0 -262.696c0 -10.091 3.662 -18.799 10.986 -26.123c7.325 -7.324 16.358 -10.986 27.1 -10.986c0 0 336.914 0 336.914 0c10.742 0 19.775 3.662 27.1 10.986c7.324 7.324 10.986 16.032 10.986 26.123c0 0 0 262.696 0 262.696c0 10.742 -3.662 19.612 -10.986 26.611c-7.325 6.999 -16.358 10.498 -27.1 10.498c0 0 -336.914 0 -336.914 0c-10.742 0 -19.775 -3.499 -27.1 -10.498c-7.324 -6.999 -10.986 -15.869 -10.986 -26.611c0 0 0 0 0 0m487.793 412.109c0 0 0 -261.719 0 -261.719c0 -10.742 3.499 -19.775 10.498 -27.099c6.999 -7.325 15.869 -10.987 26.611 -10.987c0 0 337.891 0 337.891 0c10.091 0 18.799 3.662 26.123 10.987c7.324 7.324 10.986 16.357 10.986 27.099c0 0 0 261.719 0 261.719c0 10.742 -3.662 19.775 -10.986 27.1c-7.324 7.324 -16.032 10.986 -26.123 10.986c0 0 -337.891 0 -337.891 0c-10.742 0 -19.612 -3.662 -26.611 -10.986c-6.999 -7.325 -10.498 -16.358 -10.498 -27.1c0 0 0 0 0 0m0 -412.109c0 0 0 -262.696 0 -262.696c0 -10.091 3.499 -18.799 10.498 -26.123c6.999 -7.324 15.869 -10.986 26.611 -10.986c0 0 337.891 0 337.891 0c10.091 0 18.799 3.662 26.123 10.986c7.324 7.324 10.986 16.032 10.986 26.123c0 0 0 262.696 0 262.696c0 10.742 -3.662 19.612 -10.986 26.611c-7.324 6.999 -16.032 10.498 -26.123 10.498c0 0 -337.891 0 -337.891 0c-10.742 0 -19.612 -3.499 -26.611 -10.498c-6.999 -6.999 -10.498 -15.869 -10.498 -26.611c0 0 0 0 0 0" />
  </g>
</svg>