<svg height="1000px" width="899.90234375px" xmlns="http://www.w3.org/2000/svg">
  <g>
    <path d="M0 836.9140625c0 0 0 -131.836 0 -131.836c0 -10.742 3.662 -19.613 10.986 -26.611c7.325 -6.999 16.358 -10.498 27.1 -10.498c0 0 174.805 0 174.805 0c10.091 0 18.798 3.499 26.123 10.498c7.324 6.998 10.986 15.869 10.986 26.611c0 0 0 131.836 0 131.836c0 10.742 -3.662 19.775 -10.986 27.1c-7.325 7.324 -16.032 10.986 -26.123 10.986c0 0 -174.805 0 -174.805 0c-10.742 0 -19.775 -3.662 -27.1 -10.986c-7.324 -7.325 -10.986 -16.358 -10.986 -27.1c0 0 0 0 0 0m0 -281.738c0 0 0 -110.352 0 -110.352c0 -10.742 3.662 -19.531 10.986 -26.367c7.325 -6.836 16.358 -10.254 27.1 -10.254c0 0 174.805 0 174.805 0c10.091 0 18.798 3.499 26.123 10.498c7.324 6.999 10.986 15.706 10.986 26.123c0 0 0 110.352 0 110.352c0 10.742 -3.662 19.694 -10.986 26.855c-7.325 7.162 -16.032 10.742 -26.123 10.742c0 0 -174.805 0 -174.805 0c-10.742 0 -19.775 -3.662 -27.1 -10.986c-7.324 -7.324 -10.986 -16.195 -10.986 -26.611c0 0 0 0 0 0m0 -260.254c0 0 0 -132.813 0 -132.813c0 -10.091 3.662 -18.799 10.986 -26.123c7.325 -7.324 16.358 -10.986 27.1 -10.986c0 0 174.805 0 174.805 0c10.091 0 18.798 3.662 26.123 10.986c7.324 7.324 10.986 16.032 10.986 26.123c0 0 0 132.813 0 132.813c0 10.742 -3.662 19.775 -10.986 27.099c-7.325 7.325 -16.032 10.987 -26.123 10.987c0 0 -174.805 0 -174.805 0c-10.742 0 -19.775 -3.662 -27.1 -10.987c-7.324 -7.324 -10.986 -16.357 -10.986 -27.099c0 0 0 0 0 0m325.195 541.992c0 0 0 -131.836 0 -131.836c0 -10.742 3.662 -19.613 10.987 -26.611c7.324 -6.999 16.194 -10.498 26.611 -10.498c0 0 175.293 0 175.293 0c10.091 0 18.799 3.499 26.123 10.498c7.324 6.998 10.986 15.869 10.986 26.611c0 0 0 131.836 0 131.836c0 10.742 -3.662 19.775 -10.986 27.1c-7.324 7.324 -16.032 10.986 -26.123 10.986c0 0 -175.293 0 -175.293 0c-10.742 0 -19.694 -3.662 -26.856 -10.986c-7.161 -7.325 -10.742 -16.358 -10.742 -27.1c0 0 0 0 0 0m0 -281.738c0 0 0 -110.352 0 -110.352c0 -10.742 3.662 -19.531 10.987 -26.367c7.324 -6.836 16.194 -10.254 26.611 -10.254c0 0 175.293 0 175.293 0c10.091 0 18.799 3.499 26.123 10.498c7.324 6.999 10.986 15.706 10.986 26.123c0 0 0 110.352 0 110.352c0 10.742 -3.662 19.694 -10.986 26.855c-7.324 7.162 -16.032 10.742 -26.123 10.742c0 0 -175.293 0 -175.293 0c-10.742 0 -19.694 -3.662 -26.856 -10.986c-7.161 -7.324 -10.742 -16.195 -10.742 -26.611c0 0 0 0 0 0m0 -260.254c0 0 0 -132.813 0 -132.813c0 -10.091 3.662 -18.799 10.987 -26.123c7.324 -7.324 16.194 -10.986 26.611 -10.986c0 0 175.293 0 175.293 0c10.091 0 18.799 3.662 26.123 10.986c7.324 7.324 10.986 16.032 10.986 26.123c0 0 0 132.813 0 132.813c0 10.742 -3.662 19.775 -10.986 27.099c-7.324 7.325 -16.032 10.987 -26.123 10.987c0 0 -175.293 0 -175.293 0c-10.742 0 -19.694 -3.662 -26.856 -10.987c-7.161 -7.324 -10.742 -16.357 -10.742 -27.099c0 0 0 0 0 0m324.707 541.992c0 0 0 -131.836 0 -131.836c0 -10.742 3.662 -19.613 10.987 -26.611c7.324 -6.999 16.357 -10.498 27.099 -10.498c0 0 174.805 0 174.805 0c10.091 0 18.799 3.499 26.123 10.498c7.324 6.998 10.986 15.869 10.986 26.611c0 0 0 131.836 0 131.836c0 10.742 -3.662 19.775 -10.986 27.1c-7.324 7.324 -16.032 10.986 -26.123 10.986c0 0 -174.805 0 -174.805 0c-10.742 0 -19.775 -3.662 -27.099 -10.986c-7.325 -7.325 -10.987 -16.358 -10.987 -27.1c0 0 0 0 0 0m0 -281.738c0 0 0 -110.352 0 -110.352c0 -10.742 3.662 -19.531 10.987 -26.367c7.324 -6.836 16.357 -10.254 27.099 -10.254c0 0 174.805 0 174.805 0c10.091 0 18.799 3.499 26.123 10.498c7.324 6.999 10.986 15.706 10.986 26.123c0 0 0 110.352 0 110.352c0 10.742 -3.662 19.694 -10.986 26.855c-7.324 7.162 -16.032 10.742 -26.123 10.742c0 0 -174.805 0 -174.805 0c-10.742 0 -19.775 -3.662 -27.099 -10.986c-7.325 -7.324 -10.987 -16.195 -10.987 -26.611c0 0 0 0 0 0m0 -260.254c0 0 0 -132.813 0 -132.813c0 -10.091 3.662 -18.799 10.987 -26.123c7.324 -7.324 16.357 -10.986 27.099 -10.986c0 0 174.805 0 174.805 0c10.091 0 18.799 3.662 26.123 10.986c7.324 7.324 10.986 16.032 10.986 26.123c0 0 0 132.813 0 132.813c0 10.742 -3.662 19.775 -10.986 27.099c-7.324 7.325 -16.032 10.987 -26.123 10.987c0 0 -174.805 0 -174.805 0c-10.742 0 -19.775 -3.662 -27.099 -10.987c-7.325 -7.324 -10.987 -16.357 -10.987 -27.099c0 0 0 0 0 0" />
  </g>
</svg>