<svg height="1000" width="1000" xmlns="http://www.w3.org/2000/svg"><path d="M0 803.6v-107.1q0-22.3 15.6-37.9t37.9-15.6h178.6q22.3 0 37.9 15.6t15.6 37.9v107.1q0 22.3-15.6 37.9t-37.9 15.6h-178.6q-22.3 0-37.9-15.6t-15.6-37.9zm0-285.7v-107.1q0-22.3 15.6-37.9t37.9-15.6h178.6q22.3 0 37.9 15.6t15.6 37.9v107.1q0 22.3-15.6 37.9t-37.9 15.6h-178.6q-22.3 0-37.9-15.6t-15.6-37.9zm0-285.7v-107.1q0-22.3 15.6-37.9t37.9-15.6h178.6q22.3 0 37.9 15.6t15.6 37.9v107.1q0 22.3-15.6 37.9t-37.9 15.6h-178.6q-22.3 0-37.9-15.6t-15.6-37.9zm357.1 571.4v-107.1q0-22.3 15.6-37.9t37.9-15.6h178.6q22.3 0 37.9 15.6t15.6 37.9v107.1q0 22.3-15.6 37.9t-37.9 15.6h-178.6q-22.3 0-37.9-15.6t-15.6-37.9zm0-285.7v-107.1q0-22.3 15.6-37.9t37.9-15.6h178.6q22.3 0 37.9 15.6t15.6 37.9v107.1q0 22.3-15.6 37.9t-37.9 15.6h-178.6q-22.3 0-37.9-15.6t-15.6-37.9zm0-285.7v-107.1q0-22.3 15.6-37.9t37.9-15.6h178.6q22.3 0 37.9 15.6t15.6 37.9v107.1q0 22.3-15.6 37.9t-37.9 15.6h-178.6q-22.3 0-37.9-15.6t-15.6-37.9zm357.1 571.4v-107.1q0-22.3 15.6-37.9t37.9-15.6h178.6q22.3 0 37.9 15.6t15.6 37.9v107.1q0 22.3-15.6 37.9t-37.9 15.6h-178.6q-22.3 0-37.9-15.6t-15.6-37.9zm0-285.7v-107.1q0-22.3 15.6-37.9t37.9-15.6h178.6q22.3 0 37.9 15.6t15.6 37.9v107.1q0 22.3-15.6 37.9t-37.9 15.6h-178.6q-22.3 0-37.9-15.6t-15.6-37.9zm0-285.7v-107.1q0-22.3 15.6-37.9t37.9-15.6h178.6q22.3 0 37.9 15.6t15.6 37.9v107.1q0 22.3-15.6 37.9t-37.9 15.6h-178.6q-22.3 0-37.9-15.6t-15.6-37.9z"/></svg>