<svg height="1000px" width="1000px" xmlns="http://www.w3.org/2000/svg">
  <g>
    <path d="M0 803.5714285714286c0 0 0 -107.143 0 -107.143c0 -14.881 5.208 -27.53 15.625 -37.946c10.417 -10.417 23.065 -15.625 37.946 -15.625c0 0 178.572 0 178.572 0c14.881 0 27.53 5.208 37.946 15.625c10.417 10.416 15.625 23.065 15.625 37.946c0 0 0 107.143 0 107.143c0 14.881 -5.208 27.53 -15.625 37.946c-10.416 10.417 -23.065 15.625 -37.946 15.625c0 0 -178.572 0 -178.572 0c-14.881 0 -27.529 -5.208 -37.946 -15.625c-10.417 -10.416 -15.625 -23.065 -15.625 -37.946c0 0 0 0 0 0m0 -285.714c0 0 0 -107.143 0 -107.143c0 -14.881 5.208 -27.53 15.625 -37.947c10.417 -10.416 23.065 -15.625 37.946 -15.625c0 0 178.572 0 178.572 0c14.881 0 27.53 5.209 37.946 15.625c10.417 10.417 15.625 23.066 15.625 37.947c0 0 0 107.143 0 107.143c0 14.881 -5.208 27.529 -15.625 37.946c-10.416 10.417 -23.065 15.625 -37.946 15.625c0 0 -178.572 0 -178.572 0c-14.881 0 -27.529 -5.208 -37.946 -15.625c-10.417 -10.417 -15.625 -23.065 -15.625 -37.946c0 0 0 0 0 0m0 -285.715c0 0 0 -107.142 0 -107.142c0 -14.881 5.208 -27.53 15.625 -37.947c10.417 -10.417 23.065 -15.625 37.946 -15.625c0 0 178.572 0 178.572 0c14.881 0 27.53 5.208 37.946 15.625c10.417 10.417 15.625 23.066 15.625 37.947c0 0 0 107.142 0 107.142c0 14.881 -5.208 27.53 -15.625 37.947c-10.416 10.417 -23.065 15.625 -37.946 15.625c0 0 -178.572 0 -178.572 0c-14.881 0 -27.529 -5.208 -37.946 -15.625c-10.417 -10.417 -15.625 -23.066 -15.625 -37.947c0 0 0 0 0 0m357.143 571.429c0 0 0 -107.143 0 -107.143c0 -14.881 5.208 -27.53 15.625 -37.946c10.417 -10.417 23.065 -15.625 37.946 -15.625c0 0 178.572 0 178.572 0c14.881 0 27.529 5.208 37.946 15.625c10.417 10.416 15.625 23.065 15.625 37.946c0 0 0 107.143 0 107.143c0 14.881 -5.208 27.53 -15.625 37.946c-10.417 10.417 -23.065 15.625 -37.946 15.625c0 0 -178.572 0 -178.572 0c-14.881 0 -27.529 -5.208 -37.946 -15.625c-10.417 -10.416 -15.625 -23.065 -15.625 -37.946c0 0 0 0 0 0m0 -285.714c0 0 0 -107.143 0 -107.143c0 -14.881 5.208 -27.53 15.625 -37.947c10.417 -10.416 23.065 -15.625 37.946 -15.625c0 0 178.572 0 178.572 0c14.881 0 27.529 5.209 37.946 15.625c10.417 10.417 15.625 23.066 15.625 37.947c0 0 0 107.143 0 107.143c0 14.881 -5.208 27.529 -15.625 37.946c-10.417 10.417 -23.065 15.625 -37.946 15.625c0 0 -178.572 0 -178.572 0c-14.881 0 -27.529 -5.208 -37.946 -15.625c-10.417 -10.417 -15.625 -23.065 -15.625 -37.946c0 0 0 0 0 0m0 -285.715c0 0 0 -107.142 0 -107.142c0 -14.881 5.208 -27.53 15.625 -37.947c10.417 -10.417 23.065 -15.625 37.946 -15.625c0 0 178.572 0 178.572 0c14.881 0 27.529 5.208 37.946 15.625c10.417 10.417 15.625 23.066 15.625 37.947c0 0 0 107.142 0 107.142c0 14.881 -5.208 27.53 -15.625 37.947c-10.417 10.417 -23.065 15.625 -37.946 15.625c0 0 -178.572 0 -178.572 0c-14.881 0 -27.529 -5.208 -37.946 -15.625c-10.417 -10.417 -15.625 -23.066 -15.625 -37.947c0 0 0 0 0 0m357.143 571.429c0 0 0 -107.143 0 -107.143c0 -14.881 5.208 -27.53 15.625 -37.946c10.416 -10.417 23.065 -15.625 37.946 -15.625c0 0 178.572 0 178.572 0c14.881 0 27.529 5.208 37.946 15.625c10.417 10.416 15.625 23.065 15.625 37.946c0 0 0 107.143 0 107.143c0 14.881 -5.208 27.53 -15.625 37.946c-10.417 10.417 -23.065 15.625 -37.946 15.625c0 0 -178.572 0 -178.572 0c-14.881 0 -27.53 -5.208 -37.946 -15.625c-10.417 -10.416 -15.625 -23.065 -15.625 -37.946c0 0 0 0 0 0m0 -285.714c0 0 0 -107.143 0 -107.143c0 -14.881 5.208 -27.53 15.625 -37.947c10.416 -10.416 23.065 -15.625 37.946 -15.625c0 0 178.572 0 178.572 0c14.881 0 27.529 5.209 37.946 15.625c10.417 10.417 15.625 23.066 15.625 37.947c0 0 0 107.143 0 107.143c0 14.881 -5.208 27.529 -15.625 37.946c-10.417 10.417 -23.065 15.625 -37.946 15.625c0 0 -178.572 0 -178.572 0c-14.881 0 -27.53 -5.208 -37.946 -15.625c-10.417 -10.417 -15.625 -23.065 -15.625 -37.946c0 0 0 0 0 0m0 -285.715c0 0 0 -107.142 0 -107.142c0 -14.881 5.208 -27.53 15.625 -37.947c10.416 -10.417 23.065 -15.625 37.946 -15.625c0 0 178.572 0 178.572 0c14.881 0 27.529 5.208 37.946 15.625c10.417 10.417 15.625 23.066 15.625 37.947c0 0 0 107.142 0 107.142c0 14.881 -5.208 27.53 -15.625 37.947c-10.417 10.417 -23.065 15.625 -37.946 15.625c0 0 -178.572 0 -178.572 0c-14.881 0 -27.53 -5.208 -37.946 -15.625c-10.417 -10.417 -15.625 -23.066 -15.625 -37.947c0 0 0 0 0 0" />
  </g>
</svg>