<svg height="1000" width="1000" xmlns="http://www.w3.org/2000/svg"><path d="M475.4 172.4q0 16.2 -9.4 29.3t-25.2 13.1 -25.1 -13.1 -9.5 -29.3 9.5 -29.3T440.8 130t25.2 13.1 9.4 29.3zm-91.5 767.9v-63.6q0 -16.8 -11.4 -28.8t-28.2 -12 -27.9 12 -11.2 28.8v63.6q0 16.7 11.5 29t27.6 12.3q16.7 0 28.2 -12.3t11.4 -29zm96 0v-63.6q0 -16.8 -11.1 -28.8t-28 -12 -28.1 12 -11.5 28.8v63.6q0 16.7 11.5 29t28.1 12.3q16.2 0 27.7 -12.3t11.4 -29zm97.1 0v-63.6q0 -16.8 -11.4 -28.8t-28.2 -12 -28.2 12 -11.4 28.8v63.6q0 16.7 11.4 29t28.2 12.3 28.2 -12.3 11.4 -29zm97.1 0v-63.6q0 -16.8 -11.4 -28.8t-28.2 -12 -28.2 12 -11.4 28.8v63.6q0 16.7 11.4 29t28.2 12.3 28.2 -12.3 11.4 -29zM823.7 558.6q-46.9 89.3 -129.5 144.8T514 758.9q-68.7 0 -128.1 -28.7t-99.6 -76.5T223.2 543.5 200.3 414.1q0 -49.1 11.8 -97.1Q154 414.6 154 534.6q0 90.4 36.3 174.1t103.2 140.1Q310.3 817 344.3 817q31.3 0 48 27.9Q410.2 817 440.8 817q31.3 0 48 27.9Q506.7 817 537.4 817t48.5 27.9q16.8 -27.9 48 -27.9 15.7 0 29.3 8.6t21 22.6Q746.7 795.8 782.9 719t40.8 -160.4zM740 542.4q0 -41.8 -40.2 -41.8 -9.5 0 -26.3 3.3 -53 10.6 -83.1 10.6 -126.1 0 -126.1 -135.6 0 -48 16.7 -113.8 -46.3 70.8 -46.3 153.4 0 83.7 49.7 145.4t131.1 61.7q62 0 117.2 -39.1 7.3 -26.8 7.3 -44.1zM493.3 174.7q0 -27.9 -17.9 -50t-45.2 -22 -45.2 22 -17.8 50q0 28.4 17.6 50.5t45.4 22 45.5 -22 17.6 -50.5zm351 189.1q0 -53.5 -20.9 -99.8t-63.1 -76.5 -96.8 -30.1q-43 0 -83.1 19.5t-70.9 52.5q-26.8 88.7 -26.8 149.5 0 58 25.4 87.6t82.3 29.6q29.6 0 79.2 -10.6 20.1 -3.4 29.6 -3.4 28.5 0 43.3 15.7t14.8 44.6q0 14.5 -2.3 25.7 41.9 -38 65.6 -92.4t23.7 -111.9zM1000 484.9q0 62 -18.7 139.3t-52.2 114.1Q896.8 774 820.3 817.8t-127.2 58.3l-2.3 .6v63.6q0 24 -16.4 41.8t-40.5 17.9q-31.2 0 -48 -27.9 -17.8 27.9 -48.5 27.9t-48.6 -27.9q-16.7 27.9 -48 27.9 -30.6 0 -48.5 -27.9 -16.7 27.9 -48 27.9 -26.2 0 -41.8 -18.7t-15.7 -45.5q-50.2 38 -110.5 38 -65.8 0 -117.7 -44.7 30.1 -.5 59.1 -11.1Q54.7 900.7 16.2 847.1 34 851 55.8 851q49.7 0 91.5 -25.7Q40.2 718.2 13.4 654.6 0 623.3 0 565.3q0 -31.8 5 -70t17.6 -81.8 30.7 -78.7 48.3 -58.6 66.9 -23.4q33 0 45.2 29 10.6 -16.2 23.5 -30.1 1.1 -1.7 6.7 -7.3t7.2 -8.9q5.6 -8.4 12.9 -21.2t13.9 -23.5 15.6 -21.7q48.6 -62 118.1 -98.8T556.9 33.5q19.6 0 34.6 2.2Q624.4 0 673 0q46.3 0 78.1 31.8 2.8 2.8 2.8 6.7 0 2.8 -3.3 7.5t-7 9 -8.9 9.5l-5.9 5.8q9.5 3.4 20.1 10.1t10.6 13.3q0 3.4 -8.9 14 87.6 77 109.9 210.9 13.9 -16.7 33.5 -16.7 25.1 0 55.8 27.3 50.2 44.7 50.2 155.7z"/></svg>