<svg height="1000" width="571.4" xmlns="http://www.w3.org/2000/svg"><path d="M357.1 750q0 44.6 -31.2 75.9T250 857.1t-75.9 -31.2T142.9 750q0 -33.5 19.5 -61.4T214.3 649v-77.6h71.4V649q32.4 11.7 51.9 39.6t19.5 61.4zm71.5 0q0 -43 -19 -80.4t-52.5 -62.5V178.6q0 -44.7 -31.2 -75.9T250 71.4t-75.9 31.3 -31.2 75.9v428.5q-33.5 25.2 -52.5 62.5t-19 80.4q0 74.2 52.2 126.4T250 928.6t126.4 -52.2T428.6 750zm71.4 0q0 103.2 -73.4 176.6T250 1000 73.4 926.6 0 750Q0 648.4 71.4 575.3V178.6q0 -74.2 52.2 -126.4T250 0t126.4 52.2 52.2 126.4v396.7Q500 648.4 500 750zm71.4 -321.4V500H464.3v-71.4h107.1zm0 -142.9v71.4H464.3v-71.4h107.1zm0 -142.8v71.4H464.3v-71.4h107.1z"/></svg>