<svg height="1000" width="857.1" xmlns="http://www.w3.org/2000/svg"><path d="M0 571.5v-357.1q0-29.6 20.9-50.5t50.5-20.9h160.7q12.3 0 77-22.3 71.4-24.6 124.4-36.8t111.6-12.3h62.5q78.1 0 126.4 44.1t47.7 120.5v2.8q33.5 43 33.5 99.3 0 12.3-1.7 24 21.2 37.4 21.2 80.4 0 20.1-5 38.5 27.3 41.3 27.3 91 0 57.5-42.4 99.9t-100.4 42.4h-98.2q26.8 55.2 26.8 107.1 0 65.8-19.5 103.8-19.5 38.5-56.9 56.6t-84.3 18.1q-28.5 0-50.2-20.6-19-18.4-30.1-45.8t-14.2-50.5-9.8-47.2-17.3-35.7q-26.8-27.9-59.7-70.9-56.4-73.1-76.4-86.5h-152.9q-29.6 0-50.5-20.9t-20.9-50.5zm71.4-321.4q0 14.5 10.6 25.1t25.1 10.6 25.1-10.6 10.6-25.1-10.6-25.1-25.1-10.6-25.1 10.6-10.6 25.1zm142.8 321.4h17.9q8.9 0 19.8 5t22.3 15.1 21.5 19.8 22.3 24.6 19.3 23.7 17.6 22.9 12.8 16.7q30.7 37.9 43 50.8 22.9 24 33.2 61.1t17 70 21.2 47.4q53.6 0 71.4-26.2t17.9-80.9q0-32.9-26.8-89.6t-26.8-89h196.4q27.9 0 49.7-21.5t21.8-49.9q0-19.5-12-45.2t-29.9-26.2q8.4-9.5 14-26.5t5.6-31q0-38.5-29.6-66.4 10-17.9 10-38.5t-9.8-41-26.5-29.3q2.8-16.7 2.8-31.2 0-47.4-27.3-70.3t-75.9-22.9h-71.4q-73.1 0-190.8 40.7-2.8 1.1-16.2 5.9t-19.8 7-19.5 6.4-21.2 6.1-18.4 3.6-17.6 1.7h-17.9v357.1z"/></svg>