<svg height="1000px" width="857.1428571428571px" xmlns="http://www.w3.org/2000/svg">
  <g>
    <path d="M829.7991071428571 481.02678571428567c18.229 27.53 27.344 59.152 27.344 94.866c0 35.714 -14.137 67.708 -42.411 95.982c-28.274 28.274 -61.756 42.411 -100.446 42.411c0 0 -98.215 0 -98.215 0c17.857 36.83 26.786 74.87 26.786 114.118c0 39.249 -6.51 71.522 -19.531 96.819c-25.298 49.48 -72.359 74.405 -141.183 74.777c-18.973 0 -35.25 -6.51 -48.828 -19.531c-13.579 -13.021 -24.089 -28.646 -31.529 -46.875c-7.441 -18.229 -12.277 -35.156 -14.509 -50.781c-5.581 -41.295 -14.509 -68.825 -26.786 -82.59c-17.857 -18.601 -41.667 -47.247 -71.429 -85.937c-29.762 -38.691 -51.339 -62.5 -64.732 -71.429c0 0 -152.902 0 -152.902 0c-19.717 0 -36.551 -6.975 -50.502 -20.926c-13.951 -13.951 -20.926 -30.785 -20.926 -50.502c0 0 0 -357.143 0 -357.143c0 -19.717 6.975 -36.551 20.926 -50.502c13.951 -13.951 30.785 -20.927 50.502 -20.927c0 0 160.715 0 160.715 0c8.184 0 34.97 -7.812 80.357 -23.437c45.387 -15.625 85.751 -27.53 121.094 -35.714c35.342 -8.185 72.544 -12.277 111.607 -12.277c0 0 62.5 0 62.5 0c52.083 0 94.215 14.695 126.395 44.085c32.18 29.389 48.084 69.568 47.712 120.535c0 0 0 2.791 0 2.791c22.321 28.645 33.482 61.755 33.482 99.33c0 8.184 -0.558 16.183 -1.674 23.995c14.137 24.926 21.205 47.898 21.205 68.918c0 21.019 -1.674 37.667 -5.022 49.944c0 0 0 0 0 0m-119.42 -244.978c0 -62.128 -34.412 -93.192 -103.236 -93.192c0 0 -71.429 0 -71.429 0c-48.735 0 -112.351 13.579 -190.848 40.737c-50.967 20.461 -88.542 30.692 -112.723 30.692c0 0 -17.857 0 -17.857 0c0 0 0 357.143 0 357.143c0 0 17.857 0 17.857 0c12.649 0 24.739 5.022 36.272 15.067c11.533 10.044 20.647 18.322 27.344 24.832c6.696 6.511 14.137 14.695 22.321 24.554c8.185 9.859 14.602 17.764 19.252 23.716c4.651 5.953 10.51 13.579 17.579 22.88c22.693 29.762 41.48 52.455 56.361 68.08c14.881 15.625 25.763 35.808 32.645 60.547c6.883 24.74 12.556 48.084 17.02 70.034c4.465 21.949 11.533 37.76 21.206 47.433c35.714 0 59.524 -8.743 71.428 -26.228c11.905 -17.485 17.857 -40.83 17.857 -70.034c0 -29.203 -8.928 -62.686 -26.785 -100.446c-17.857 -37.76 -26.786 -67.429 -26.786 -89.007c0 0 196.429 0 196.429 0c18.601 0 35.156 -7.161 49.665 -21.484c14.509 -14.323 21.763 -29.483 21.763 -45.48c0 -15.997 -3.999 -32.552 -11.998 -49.665c-7.998 -17.113 -17.95 -25.856 -29.854 -26.228c5.58 -6.324 10.23 -15.16 13.95 -26.506c3.721 -11.347 5.581 -21.671 5.581 -30.971c0 -25.67 -9.859 -47.806 -29.576 -66.407c6.696 -11.904 10.045 -24.739 10.045 -38.504c0 -13.765 -3.256 -27.437 -9.766 -41.016c-6.511 -13.579 -15.346 -23.344 -26.507 -29.297c1.86 -11.16 2.79 -21.577 2.79 -31.25c0 0 0 0 0 0m-567.522 13.951c0 -9.672 -3.534 -18.043 -10.603 -25.111c-7.068 -7.069 -15.439 -10.603 -25.111 -10.603c-9.673 0 -18.043 3.534 -25.112 10.603c-7.068 7.068 -10.603 15.439 -10.603 25.111c0 9.673 3.535 18.043 10.603 25.112c7.069 7.068 15.439 10.603 25.112 10.603c9.672 0 18.043 -3.535 25.111 -10.603c7.069 -7.069 10.603 -15.439 10.603 -25.112c0 0 0 0 0 0" />
  </g>
</svg>