<svg height="1000px" width="779.78515625px" xmlns="http://www.w3.org/2000/svg">
  <g>
    <path d="M0 780.76171875c0 0 0 -313.965 0 -313.965c0 -15.95 5.697 -29.541 17.09 -40.771c11.393 -11.231 25.065 -16.846 41.015 -16.846c0 0 169.922 0 169.922 0c8.789 -4.557 15.788 -9.522 20.996 -14.893c5.209 -5.371 10.905 -11.8 17.09 -19.287c5.209 -6.51 10.498 -12.776 15.869 -18.799c5.372 -6.022 10.987 -12.125 16.846 -18.31c10.742 -11.393 23.112 -22.542 37.11 -33.447c13.997 -10.905 24.739 -23.031 32.226 -36.377c5.208 -9.44 8.952 -19.938 11.231 -31.494c2.278 -11.556 4.313 -23.194 6.103 -34.913c1.79 -11.718 3.825 -23.112 6.104 -34.179c2.278 -11.068 6.103 -20.915 11.474 -29.541c5.371 -8.627 13.021 -15.463 22.949 -20.508c9.929 -5.046 23.194 -7.568 39.795 -7.568c19.857 0 38.005 4.15 54.444 12.451c16.438 8.301 30.354 19.45 41.748 33.447c11.393 13.997 20.263 30.029 26.611 48.096c6.348 18.066 9.522 36.377 9.522 54.931c0 19.206 -2.849 37.517 -8.545 54.932c-5.697 17.415 -12.614 34.912 -20.752 52.49c11.393 -0.651 22.786 -1.383 34.179 -2.197c11.394 -0.814 22.787 -1.221 34.18 -1.221c17.904 0 35.319 1.709 52.246 5.127c16.927 3.418 32.064 9.115 45.41 17.09c13.347 7.975 24.17 18.962 32.471 32.959c8.301 13.997 12.451 31.738 12.451 53.223c0 9.44 -0.814 18.717 -2.441 27.832c-1.628 9.114 -4.069 18.392 -7.324 27.832c5.859 13.997 8.789 28.646 8.789 43.945c0 25.391 -6.674 48.503 -20.02 69.336c3.255 19.206 2.116 38.493 -3.418 57.861c-5.534 19.369 -14.974 36.377 -28.32 51.026c-1.302 27.343 -8.627 50.049 -21.973 68.115c-13.346 18.066 -30.029 32.552 -50.049 43.457c-20.019 10.905 -41.992 18.555 -65.918 22.949c-23.925 4.395 -47.282 6.592 -70.068 6.592c-23.438 0 -46.956 -1.709 -70.557 -5.127c-23.6 -3.418 -46.793 -8.057 -69.58 -13.916c-22.786 -6.51 -45.491 -13.509 -68.115 -20.996c-22.624 -7.487 -45.817 -11.231 -69.58 -11.231c0 0 -183.106 0 -183.106 0c-15.95 0 -29.622 -5.615 -41.015 -16.845c-11.393 -11.231 -17.09 -24.984 -17.09 -41.26c0 0 0 0 0 0m115.234 -40.527c0 11.393 3.581 20.67 10.743 27.832c7.161 7.161 16.438 10.742 27.832 10.742c10.742 0 19.938 -3.662 27.587 -10.986c7.65 -7.325 11.475 -16.521 11.475 -27.588c0 -10.743 -3.825 -19.938 -11.475 -27.588c-7.649 -7.65 -16.845 -11.475 -27.587 -11.475c-11.394 0 -20.671 3.825 -27.832 11.475c-7.162 7.65 -10.743 16.845 -10.743 27.588c0 0 0 0 0 0m125 40.527c22.787 0 44.922 2.686 66.407 8.057c21.484 5.371 43.213 11.067 65.185 17.089c21.973 6.023 45.003 11.719 69.092 17.09c24.089 5.371 50.13 8.057 78.125 8.057c14.648 0 30.599 -0.977 47.852 -2.93c17.252 -1.953 33.447 -6.266 48.584 -12.939c15.136 -6.673 27.832 -15.869 38.085 -27.588c10.254 -11.719 15.381 -27.181 15.381 -46.387c0 -3.255 -0.162 -6.266 -0.488 -9.033c-0.325 -2.767 -0.814 -5.778 -1.465 -9.033c11.393 -5.209 20.101 -13.835 26.123 -25.879c6.022 -12.044 9.033 -24.089 9.033 -36.133c0 -12.695 -3.418 -23.763 -10.253 -33.203c19.531 -15.951 29.296 -35.97 29.296 -60.059c0 -7.487 -2.034 -14.485 -6.103 -20.996c-4.069 -6.51 -8.382 -12.207 -12.94 -17.09c5.209 -9.44 9.847 -18.798 13.916 -28.076c4.069 -9.277 6.104 -19.45 6.104 -30.517c0 -11.394 -2.848 -20.427 -8.545 -27.1c-5.697 -6.673 -12.695 -11.719 -20.996 -15.137c-8.301 -3.418 -17.497 -5.452 -27.588 -6.103c-10.091 -0.651 -19.368 -0.977 -27.832 -0.977c-14.648 0 -29.378 0.489 -44.189 1.465c-14.812 0.977 -29.541 1.465 -44.19 1.465c-10.091 0 -20.101 -0.488 -30.029 -1.465c-9.929 -0.976 -19.45 -3.418 -28.565 -7.324c0 -13.346 2.605 -26.042 7.813 -38.086c5.208 -12.044 10.986 -24.17 17.334 -36.377c6.348 -12.207 12.044 -24.984 17.09 -38.33c5.045 -13.346 7.568 -28.158 7.568 -44.434c0 -10.742 -1.709 -21.403 -5.127 -31.982c-3.418 -10.58 -8.219 -20.182 -14.404 -28.809c-6.185 -8.626 -13.835 -15.787 -22.949 -21.484c-9.115 -5.697 -19.694 -8.545 -31.739 -8.545c0 0 -5.371 0 -5.371 0c0 0 -1.79 0.326 -5.371 0.977c-2.604 1.302 -4.069 2.604 -4.394 3.906c-0.326 1.302 -0.814 3.418 -1.465 6.348c-3.907 19.205 -7.569 39.306 -10.987 60.302c-3.418 20.996 -9.847 40.121 -19.287 57.373c-9.44 16.602 -21.484 30.925 -36.133 42.969c-14.648 12.044 -28.645 24.74 -41.992 38.086c-9.44 10.091 -17.415 19.287 -23.925 27.588c-6.511 8.301 -13.265 16.113 -20.264 23.437c-6.999 7.325 -14.893 14.161 -23.682 20.508c-8.789 6.348 -19.368 12.126 -31.738 17.334c0 0 -0.977 0 -0.977 0c0 0 0 313.965 0 313.965c0 0 0 0 0 0" />
  </g>
</svg>