<svg height="1000px" width="857.1428571428571px" xmlns="http://www.w3.org/2000/svg">
  <g>
    <path d="M0 785.7142857142857c0 0 0 -357.143 0 -357.143c0 -19.717 6.975 -36.551 20.926 -50.502c13.951 -13.951 30.785 -20.926 50.503 -20.926c0 0 152.901 0 152.901 0c13.393 -8.929 38.877 -37.761 76.451 -86.496c21.578 -27.902 41.481 -51.711 59.71 -71.429c8.929 -9.3 15.532 -25.204 19.81 -47.712c4.279 -22.507 9.952 -46.038 17.02 -70.591c7.069 -24.554 18.602 -44.643 34.599 -60.268c14.509 -13.765 31.25 -20.647 50.223 -20.647c31.25 0 59.338 6.045 84.263 18.136c24.926 12.091 43.899 30.971 56.92 56.64c13.021 25.67 19.531 60.268 19.531 103.795c0 34.598 -8.928 70.313 -26.786 107.143c0 0 98.215 0 98.215 0c38.69 0 72.172 14.137 100.446 42.411c28.274 28.274 42.411 61.57 42.411 99.888c0 33.11 -9.115 63.43 -27.344 90.96c3.348 12.277 5.022 25.112 5.022 38.504c0 28.646 -7.068 55.432 -21.205 80.358c1.116 7.812 1.674 15.811 1.674 23.995c0 37.574 -11.161 70.685 -33.482 99.33c0.372 51.712 -15.439 92.541 -47.433 122.489c-31.994 29.948 -74.219 44.922 -126.674 44.922c0 0 -20.089 0 -20.089 0c0 0 -51.898 0 -51.898 0c-35.714 0 -70.963 -4.185 -105.747 -12.556c-34.785 -8.37 -75.056 -20.554 -120.815 -36.551c-43.155 -14.881 -68.825 -22.321 -77.009 -22.321c0 0 -160.714 0 -160.714 0c-19.718 0 -36.552 -6.976 -50.503 -20.927c-13.951 -13.951 -20.926 -30.785 -20.926 -50.502c0 0 0 0 0 0m71.429 -35.714c0 9.672 3.534 18.043 10.602 25.111c7.069 7.069 15.439 10.603 25.112 10.603c9.672 0 18.043 -3.534 25.111 -10.603c7.069 -7.068 10.603 -15.439 10.603 -25.111c0 -9.673 -3.534 -18.043 -10.603 -25.112c-7.068 -7.068 -15.439 -10.603 -25.111 -10.603c-9.673 0 -18.043 3.535 -25.112 10.603c-7.068 7.069 -10.602 15.439 -10.602 25.112c0 0 0 0 0 0m142.857 35.714c0 0 17.857 0 17.857 0c4.836 0 10.696 0.558 17.578 1.674c6.882 1.116 13.021 2.325 18.415 3.627c5.395 1.302 12.463 3.349 21.206 6.139c8.742 2.79 15.252 4.929 19.531 6.417c4.278 1.488 10.881 3.813 19.81 6.976c8.929 3.162 14.323 5.115 16.183 5.859c78.497 27.158 142.113 40.737 190.848 40.737c0 0 67.523 0 67.523 0c71.428 0 107.142 -31.064 107.142 -93.192c0 -9.673 -0.93 -20.09 -2.79 -31.25c11.161 -5.953 19.997 -15.718 26.507 -29.297c6.51 -13.579 9.766 -27.251 9.766 -41.016c0 -13.765 -3.349 -26.6 -10.045 -38.504c19.717 -18.602 29.576 -40.737 29.576 -66.407c0 -9.3 -1.86 -19.624 -5.581 -30.971c-3.72 -11.346 -8.37 -20.182 -13.95 -26.506c11.904 -0.372 21.856 -9.115 29.855 -26.228c7.998 -17.113 11.997 -32.18 11.997 -45.201c0 -18.973 -7.254 -35.621 -21.763 -49.944c-14.509 -14.323 -31.064 -21.484 -49.665 -21.484c0 0 -196.429 0 -196.429 0c0 -21.578 8.929 -51.247 26.786 -89.007c17.857 -37.761 26.786 -67.615 26.786 -89.565c0 -36.458 -5.953 -63.43 -17.858 -80.915c-11.904 -17.485 -35.714 -26.228 -71.428 -26.228c-9.673 9.673 -16.741 25.484 -21.206 47.433c-4.464 21.95 -10.137 45.294 -17.02 70.034c-6.882 24.739 -17.95 45.108 -33.203 61.105c-8.184 8.556 -22.507 25.483 -42.968 50.781c-1.489 1.86 -5.767 7.44 -12.835 16.741c-7.069 9.301 -12.928 16.927 -17.578 22.88c-4.651 5.952 -11.068 13.857 -19.253 23.716c-8.184 9.859 -15.625 18.043 -22.321 24.554c-6.697 6.51 -13.858 13.113 -21.484 19.81c-7.627 6.696 -15.067 11.719 -22.322 15.067c-7.254 3.348 -13.858 5.022 -19.81 5.022c0 0 -17.857 0 -17.857 0c0 0 0 357.143 0 357.143c0 0 0 0 0 0" />
  </g>
</svg>