<svg height="1000" width="857.1" xmlns="http://www.w3.org/2000/svg"><path d="M0 785.7v-357.1q0-29.6 20.9-50.5t50.5-20.9h152.9q20.1-13.4 76.4-86.5 32.4-41.9 59.7-71.4 13.4-14 19.8-47.7t17-70.6 34.6-60.3q21.8-20.6 50.2-20.6 46.9 0 84.3 18.1t56.9 56.6 19.5 103.8q0 51.9-26.8 107.1h98.2q58 0 100.4 42.4t42.4 99.9q0 49.7-27.3 91 5 18.4 5 38.5 0 43-21.2 80.4 1.7 11.7 1.7 24 0 56.4-33.5 99.3.6 77.6-47.4 122.5t-126.7 44.9h-72q-53.6 0-105.7-12.6t-120.8-36.5q-64.7-22.3-77-22.3h-160.7q-29.6 0-50.5-20.9t-20.9-50.5zm71.4-35.7q0 14.5 10.6 25.1t25.1 10.6 25.1-10.6 10.6-25.1-10.6-25.1-25.1-10.6-25.1 10.6-10.6 25.1zm142.8 35.7h17.9q7.3 0 17.6 1.7t18.4 3.6 21.2 6.1 19.5 6.4 19.8 7 16.2 5.9q117.7 40.7 190.8 40.7h67.5q107.1 0 107.1-93.2 0-14.5-2.8-31.2 16.7-8.9 26.5-29.3t9.8-41-10-38.5q29.6-27.9 29.6-66.4 0-14-5.6-31t-14-26.5q17.9-.6 29.9-26.2t12-45.2q0-28.5-21.8-49.9t-49.7-21.5h-196.4q0-32.4 26.8-89t26.8-89.6q0-54.7-17.9-80.9t-71.4-26.2q-14.5 14.5-21.2 47.4t-17 70-33.2 61.1q-12.3 12.8-43 50.8-2.2 2.8-12.8 16.7t-17.6 22.9-19.3 23.7-22.3 24.6-21.5 19.8-22.3 15.1-19.8 5h-17.9v357.1z"/></svg>