<svg height="1000px" width="857.1428571428571px" xmlns="http://www.w3.org/2000/svg">
  <g>
    <path d="M0 571.4285714285713c0 0 0 -357.143 0 -357.143c0 -19.717 6.975 -36.551 20.926 -50.502c13.951 -13.951 30.785 -20.926 50.503 -20.926c0 0 160.714 0 160.714 0c8.184 0 34.97 -7.813 80.357 -23.438c45.387 -15.625 85.751 -27.53 121.094 -35.714c35.342 -8.185 72.544 -12.277 111.607 -12.277c0 0 62.5 0 62.5 0c52.083 0 94.215 14.695 126.395 44.085c32.18 29.39 48.084 69.568 47.712 120.536c0 0 0 2.79 0 2.79c22.321 28.646 33.482 61.756 33.482 99.33c0 8.185 -0.558 16.183 -1.674 23.996c14.137 24.925 21.205 47.898 21.205 68.917c0 21.019 -1.674 37.667 -5.022 49.944c18.229 27.53 27.344 59.152 27.344 94.866c0 35.715 -14.137 67.709 -42.411 95.982c-28.274 28.274 -61.756 42.411 -100.446 42.411c0 0 -98.215 0 -98.215 0c17.858 36.831 26.786 74.87 26.786 114.118c0 39.249 -6.51 71.522 -19.531 96.82c-25.298 49.479 -72.359 74.404 -141.183 74.776c-18.973 0 -35.249 -6.51 -48.828 -19.531c-13.579 -13.021 -24.089 -28.646 -31.529 -46.875c-7.441 -18.229 -12.277 -35.156 -14.509 -50.781c-5.581 -41.295 -14.509 -68.824 -26.786 -82.589c-17.857 -18.602 -41.667 -47.247 -71.429 -85.938c-29.761 -38.69 -51.339 -62.5 -64.732 -71.428c0 0 -152.901 0 -152.901 0c-19.718 0 -36.552 -6.976 -50.503 -20.927c-13.951 -13.951 -20.926 -30.785 -20.926 -50.502c0 0 0 0 0 0m71.429 -321.429c0 9.673 3.534 18.044 10.602 25.112c7.069 7.068 15.439 10.603 25.112 10.603c9.672 0 18.043 -3.535 25.111 -10.603c7.069 -7.068 10.603 -15.439 10.603 -25.112c0 -9.672 -3.534 -18.043 -10.603 -25.111c-7.068 -7.069 -15.439 -10.603 -25.111 -10.603c-9.673 0 -18.043 3.534 -25.112 10.603c-7.068 7.068 -10.602 15.439 -10.602 25.111c0 0 0 0 0 0m142.857 321.429c0 0 17.857 0 17.857 0c12.649 0 24.739 5.022 36.272 15.067c11.533 10.045 20.647 18.322 27.344 24.833c6.696 6.51 14.137 14.694 22.321 24.553c8.185 9.859 14.602 17.764 19.253 23.717c4.65 5.952 10.509 13.579 17.578 22.879c22.693 29.762 41.48 52.455 56.361 68.08c14.881 15.625 25.763 35.808 32.645 60.547c6.883 24.74 12.556 48.084 17.021 70.034c4.464 21.949 11.532 37.76 21.205 47.433c35.714 0 59.524 -8.743 71.428 -26.228c11.905 -17.485 17.858 -40.829 17.858 -70.033c0 -29.204 -8.929 -62.686 -26.786 -100.447c-17.857 -37.76 -26.786 -67.429 -26.786 -89.006c0 0 196.429 0 196.429 0c18.601 0 35.156 -7.162 49.665 -21.485c14.509 -14.323 21.763 -29.483 21.763 -45.48c0 -15.997 -3.999 -32.552 -11.997 -49.665c-7.999 -17.113 -17.951 -25.856 -29.855 -26.228c5.58 -6.324 10.23 -15.16 13.951 -26.506c3.72 -11.347 5.58 -21.671 5.58 -30.971c0 -25.67 -9.859 -47.805 -29.576 -66.406c6.696 -11.905 10.045 -24.74 10.045 -38.505c0 -13.765 -3.256 -27.437 -9.766 -41.016c-6.51 -13.578 -15.346 -23.344 -26.507 -29.296c1.86 -11.161 2.79 -21.578 2.79 -31.25c0 -62.128 -34.412 -93.192 -103.236 -93.192c0 0 -71.429 0 -71.429 0c-48.735 0 -112.351 13.578 -190.848 40.736c-50.967 20.461 -88.542 30.692 -112.723 30.692c0 0 -17.857 0 -17.857 0c0 0 0 357.143 0 357.143c0 0 0 0 0 0" />
  </g>
</svg>