<svg height="1000px" width="857.1428571428571px" xmlns="http://www.w3.org/2000/svg">
  <g>
    <path d="M814.7321428571429 328.125c28.274 28.274 42.411 60.268 42.411 95.982c0 35.714 -9.115 67.336 -27.344 94.866c3.348 12.277 5.022 28.925 5.022 49.944c0 21.02 -7.068 43.992 -21.205 68.918c1.116 7.812 1.674 15.811 1.674 23.995c0 37.575 -11.161 70.685 -33.482 99.331c0.372 51.711 -15.439 92.541 -47.433 122.489c-31.994 29.947 -74.219 44.921 -126.674 44.921c0 0 -71.987 0 -71.987 0c-35.714 0 -70.963 -4.185 -105.748 -12.555c-34.784 -8.371 -74.404 -20.276 -118.861 -35.715c-44.457 -15.439 -70.778 -23.158 -78.962 -23.158c0 0 -160.715 0 -160.715 0c-19.717 0 -36.551 -6.976 -50.502 -20.926c-13.951 -13.951 -20.926 -30.785 -20.926 -50.503c0 0 0 -357.143 0 -357.143c0 -19.717 6.975 -36.551 20.926 -50.502c13.951 -13.951 30.785 -20.926 50.502 -20.926c0 0 152.902 0 152.902 0c13.393 -8.929 34.877 -32.552 64.453 -70.871c29.576 -38.318 53.479 -67.336 71.708 -87.053c8.928 -9.301 15.532 -25.205 19.81 -47.712c4.278 -22.508 9.952 -46.038 17.02 -70.592c7.069 -24.553 18.229 -44.178 33.482 -58.873c15.253 -14.695 32.366 -22.042 51.34 -22.042c107.143 0 160.714 59.524 160.714 178.571c0 34.599 -8.929 70.313 -26.786 107.143c0 0 98.215 0 98.215 0c38.69 0 72.172 14.137 100.446 42.411c0 0 0 0 0 0m-41.016 145.647c7.999 -17.113 11.998 -33.668 11.998 -49.665c0 -15.997 -7.254 -31.157 -21.763 -45.48c-14.509 -14.323 -31.064 -21.484 -49.665 -21.484c0 0 -196.429 0 -196.429 0c0 -21.578 8.929 -51.246 26.786 -89.007c17.857 -37.76 26.785 -71.242 26.785 -100.446c0 -29.204 -5.952 -52.549 -17.857 -70.034c-11.904 -17.485 -35.714 -26.227 -71.428 -26.227c-9.673 9.672 -16.741 25.483 -21.206 47.433c-4.464 21.949 -10.137 45.294 -17.02 70.033c-6.882 24.74 -16.183 43.248 -27.902 55.525c-11.718 12.276 -23.065 25.204 -34.04 38.783c-10.974 13.579 -19.996 25.019 -27.064 34.319c-7.069 9.301 -12.928 16.927 -17.579 22.88c-4.65 5.952 -11.067 13.858 -19.252 23.716c-8.184 9.859 -15.625 18.043 -22.321 24.554c-6.697 6.51 -13.765 13.114 -21.206 19.81c-15.253 13.393 -29.389 20.089 -42.41 20.089c0 0 -17.857 0 -17.857 0c0 0 0 357.143 0 357.143c0 0 17.857 0 17.857 0c17.113 0 35.156 3.349 54.129 10.045c34.97 12.277 54.502 19.159 58.594 20.647c78.497 27.158 142.113 40.737 190.848 40.737c0 0 67.522 0 67.522 0c71.429 0 107.143 -31.064 107.143 -93.192c0 -9.673 -0.93 -20.089 -2.79 -31.25c11.161 -5.952 19.996 -15.718 26.507 -29.297c6.51 -13.579 9.765 -27.251 9.765 -41.016c0 -13.764 -3.348 -26.599 -10.044 -38.504c19.717 -18.601 29.576 -40.737 29.576 -66.406c0 -9.301 -1.86 -19.625 -5.581 -30.971c-3.72 -11.347 -8.37 -20.183 -13.951 -26.507c11.905 -0.372 21.857 -9.115 29.855 -26.228c0 0 0 0 0 0m-630.859 276.228c0 -9.673 -3.534 -18.043 -10.603 -25.112c-7.068 -7.068 -15.439 -10.602 -25.111 -10.602c-9.673 0 -18.043 3.534 -25.112 10.602c-7.068 7.069 -10.603 15.439 -10.603 25.112c0 9.673 3.535 18.043 10.603 25.112c7.069 7.068 15.439 10.602 25.112 10.602c9.672 0 18.043 -3.534 25.111 -10.602c7.069 -7.069 10.603 -15.439 10.603 -25.112c0 0 0 0 0 0" />
  </g>
</svg>