<svg height="1000" width="928.6" xmlns="http://www.w3.org/2000/svg"><path d="M142.9 750q0 -14.5 -10.6 -25.1t-25.2 -10.6q-15 0 -25.3 10.6T71.4 750q0 15.1 10.4 25.4t25.3 10.3q14.6 0 25.2 -10.3T142.9 750zm89.2 -285.7v357.1q0 14.5 -10.6 25.1t-25.1 10.6H35.7q-14.5 0 -25.1 -10.6T0 821.4V464.3q0 -14.5 10.6 -25.1t25.1 -10.6h160.7q14.5 0 25.1 10.6t10.6 25.1zm660.8 0q0 48 -30.7 83.1 8.3 24.6 8.3 42.4 1.7 42.5 -24 76.5 9.5 31.2 0 65.3 -8.3 31.8 -30.1 52.4 5 62.5 -27.3 101 -35.8 42.5 -110 43.6h-72q-36.8 0 -80.3 -8.7T459 903.7t-67.3 -22q-68.6 -24 -88.1 -24.6 -14.5 -.5 -25.1 -10.8t-10.6 -24.9V463.7q0 -13.9 10 -24.2t24 -11.5q13.4 -1.1 42.4 -32.9t56.4 -67.5q37.9 -48.6 56.3 -67 10.1 -10 17.3 -26.8t9.8 -27 7.5 -33.8q3.9 -21.8 7 -34t10.9 -29.1 19 -27.9q10.6 -10.6 25.1 -10.6 25.6 0 46 5.9t33.5 14.5 22.3 22.6 13.4 25.1 6.7 27.9 2.8 25.1 .3 21.8q0 21.2 -5.3 42.4t-10.6 33.5 -15.4 31.2q-1.7 3.4 -5.6 10.1t-6.1 12.2 -4.5 13.4h154.6q43.5 0 75.3 31.9t31.9 75.3z"/></svg>