<svg height="1000" width="928.571" xmlns="http://www.w3.org/2000/svg"><path d="M0 821.44v-357.12q0 -14.508 10.602 -25.11t25.11 -10.602h160.704q14.508 0 25.11 10.602t10.602 25.11v357.12q0 14.508 -10.602 25.11t-25.11 10.602h-160.704q-14.508 0 -25.11 -10.602t-10.602 -25.11zm71.424 -71.424q0 15.066 10.323 25.389t25.389 10.323q14.508 0 25.11 -10.323t10.602 -25.389q0 -14.508 -10.602 -25.11t-25.11 -10.602q-15.066 0 -25.389 10.602t-10.323 25.11zm196.416 71.424v-357.678q0 -13.95 10.044 -24.273t23.994 -11.439q13.392 -1.116 42.408 -32.922t56.358 -67.518q37.944 -48.546 56.358 -66.96 10.044 -10.044 17.298 -26.784t9.765 -27.063 7.533 -33.759q3.906 -21.762 6.975 -34.038t10.881 -29.016 18.972 -27.9q10.602 -10.602 25.11 -10.602 25.668 0 46.035 5.859t33.48 14.508 22.32 22.599 13.392 25.11 6.696 27.9 2.79 25.11 .279 21.762q0 21.204 -5.301 42.408t-10.602 33.48 -15.345 31.248q-1.674 3.348 -5.58 10.044t-6.138 12.276 -4.464 13.392h154.566q43.524 0 75.33 31.806t31.806 75.33q0 47.988 -30.69 83.142 8.37 24.552 8.37 42.408 1.674 42.408 -23.994 76.446 9.486 31.248 0 65.286 -8.37 31.806 -30.132 52.452 5.022 62.496 -27.342 100.998 -35.712 42.408 -109.926 43.524h-71.982q-36.828 0 -80.352 -8.649t-67.797 -16.182 -67.239 -22.041q-68.634 -23.994 -88.164 -24.552 -14.508 -.558 -25.11 -10.881t-10.602 -24.831z"/></svg>