<svg height="1000px" width="782.8249998092651px" xmlns="http://www.w3.org/2000/svg">
  <g>
    <path d="M0.875 423.02631759643555c-0.667 -14 1.833 -26.5 7.5 -37.5c5.667 -11 13.833 -21.167 24.5 -30.5c-6 -10 -9.333 -20.5 -10 -31.5c-0.667 -11 0.5 -21.5 3.5 -31.5c3 -10 7.667 -18.833 14 -26.5c6.333 -7.667 13.5 -13.5 21.5 -17.5c-4 -22.667 -2 -42 6 -58c8 -16 19.833 -28.833 35.5 -38.5c15.667 -9.667 34.5 -16.5 56.5 -20.5c22 -4 45 -6 69 -6c24 0 48.167 1.667 72.5 5c24.333 3.333 46.833 8 67.5 14c13.333 4 26.333 8.667 39 14c12.667 5.333 25.5 10.333 38.5 15c13 4.667 26.667 8.167 41 10.5c14.333 2.333 29.5 2.167 45.5 -0.5c-1.333 26 -2.167 54.5 -2.5 85.5c-0.333 31 0 62.333 1 94c1 31.667 2.333 62.5 4 92.5c1.667 30 4.167 57.333 7.5 82c-14.667 6.667 -26.5 13.167 -35.5 19.5c-9 6.333 -17 13.333 -24 21c-7 7.667 -14.5 16.333 -22.5 26c-8 9.667 -18.333 20.833 -31 33.5c-10 11.333 -19.167 20.5 -27.5 27.5c-8.333 7 -16 13.667 -23 20c-7 6.333 -13.5 12.833 -19.5 19.5c-6 6.667 -12 15.333 -18 26c-10.667 19.333 -17.5 41 -20.5 65c-3 24 -7.5 46.667 -13.5 68c0 5.333 -2.333 9 -7 11c-13.333 2 -25.167 0.833 -35.5 -3.5c-10.333 -4.333 -19.5 -10.167 -27.5 -17.5c-8 -7.333 -14.5 -15.833 -19.5 -25.5c-5 -9.667 -8.5 -19.167 -10.5 -28.5c-4 -22 -3.5 -41.833 1.5 -59.5c5 -17.667 11.333 -34.5 19 -50.5c7.667 -16 15 -31.667 22 -47c7 -15.333 10.833 -31.333 11.5 -48c-14 -6 -31.167 -9 -51.5 -9c-20.333 0 -41.5 0.5 -63.5 1.5c-22 1 -43.167 1.5 -63.5 1.5c-20.333 0 -37.667 -2.833 -52 -8.5c-14.333 -5.667 -24 -15.333 -29 -29c-5 -13.667 -3.167 -33.5 5.5 -59.5c0.667 -0.667 1.833 -2.5 3.5 -5.5c1.667 -3 3.333 -5.833 5 -8.5c1.667 -2.667 2.833 -5.333 3.5 -8c0 0 2 -3 2 -3c-7.333 -7.333 -12.667 -15 -16 -23c-3.333 -8 -5 -14.667 -5 -20c0 0 0 0 0 0m567 -178c0.667 -36 2.333 -67.333 5 -94c12 -1.333 26 -2.167 42 -2.5c16 -0.333 32.5 -0.333 49.5 0c17 0.333 33.667 0.833 50 1.5c16.333 0.667 31.167 1 44.5 1c6.667 25.333 12 55 16 89c4 34 6.5 69.5 7.5 106.5c1 37 0.333 74.333 -2 112c-2.333 37.667 -6.5 72.833 -12.5 105.5c-30 2 -61.167 3 -93.5 3c-32.333 0 -62.5 -3.333 -90.5 -10c-4 -25.333 -7.333 -55.667 -10 -91c-2.667 -35.333 -4.5 -72 -5.5 -110c-1 -38 -1.167 -75 -0.5 -111c0 0 0 0 0 0m49 -20c0 10.667 3.667 19.667 11 27c7.333 7.333 16.333 11 27 11c10 0 18.667 -3.667 26 -11c7.333 -7.333 11 -16.333 11 -27c0 -10 -3.667 -18.667 -11 -26c-7.333 -7.333 -16 -11 -26 -11c-10.667 0 -19.667 3.667 -27 11c-7.333 7.333 -11 16 -11 26c0 0 0 0 0 0" />
  </g>
</svg>