<svg height="1000px" width="779.78515625px" xmlns="http://www.w3.org/2000/svg">
  <g>
    <path d="M0 529.052734375c0 -9.44 0.814 -18.799 2.441 -28.076c1.628 -9.278 4.069 -18.636 7.325 -28.076c-5.86 -13.998 -8.789 -28.646 -8.789 -43.946c0 -25.39 6.673 -48.339 20.019 -68.847c-3.255 -19.206 -2.034 -38.575 3.662 -58.106c5.697 -19.531 15.218 -36.621 28.565 -51.269c1.302 -27.344 8.626 -49.968 21.972 -67.871c13.347 -17.904 29.948 -32.39 49.805 -43.457c19.857 -11.068 41.829 -18.718 65.918 -22.95c24.089 -4.231 47.526 -6.347 70.312 -6.347c23.438 0 46.957 1.627 70.557 4.883c23.6 3.255 46.631 7.975 69.092 14.16c22.786 6.51 45.491 13.427 68.115 20.752c22.624 7.324 45.98 10.986 70.068 10.986c0 0 183.106 0 183.106 0c15.95 0 29.541 5.697 40.771 17.09c11.231 11.393 16.846 25.065 16.846 41.015c0 0 0 313.965 0 313.965c0 15.951 -5.615 29.623 -16.846 41.016c-11.23 11.393 -24.821 17.09 -40.771 17.09c0 0 -170.41 0 -170.41 0c-8.789 4.557 -15.788 9.521 -20.996 14.892c-5.209 5.371 -10.742 11.638 -16.602 18.799c-5.208 6.511 -10.498 12.858 -15.869 19.043c-5.371 6.185 -11.149 12.207 -17.334 18.067c-10.742 11.393 -23.112 22.623 -37.109 33.691c-13.998 11.068 -24.577 23.112 -31.739 36.133c-8.138 13.997 -13.183 30.192 -15.136 48.584c-1.953 18.392 -4.965 35.726 -9.034 52.002c-4.069 16.276 -11.23 29.948 -21.484 41.015c-10.254 11.068 -27.751 16.602 -52.49 16.602c-19.857 0 -38.005 -4.151 -54.444 -12.451c-16.438 -8.301 -30.273 -19.45 -41.503 -33.448c-11.231 -13.997 -20.02 -30.029 -26.368 -48.095c-6.347 -18.067 -9.521 -36.377 -9.521 -54.932c0 -19.206 2.848 -37.516 8.545 -54.932c5.696 -17.415 12.451 -34.749 20.263 -52.002c-11.393 0.652 -22.705 1.303 -33.935 1.954c-11.231 0.651 -22.542 0.976 -33.936 0.976c-17.903 0 -35.4 -1.709 -52.49 -5.127c-17.09 -3.418 -32.308 -9.114 -45.654 -17.09c-13.346 -7.975 -24.17 -18.961 -32.471 -32.959c-8.301 -13.997 -12.451 -31.575 -12.451 -52.734c0 0 0 0 0 0m58.105 0c0 11.393 2.849 20.426 8.545 27.1c5.697 6.673 12.696 11.637 20.996 14.892c8.301 3.255 17.416 5.209 27.344 5.86c9.929 0.651 19.287 0.976 28.076 0.976c15.3 0 30.111 -0.488 44.434 -1.465c14.323 -0.976 28.809 -1.465 43.457 -1.465c10.091 0 20.101 0.489 30.029 1.465c9.929 0.977 19.613 3.418 29.053 7.325c0 13.346 -2.685 26.041 -8.057 38.085c-5.371 12.045 -11.23 24.252 -17.578 36.622c-6.347 12.369 -11.963 25.227 -16.845 38.574c-4.883 13.346 -7.325 27.995 -7.325 43.945c0 10.742 1.628 21.403 4.883 31.982c3.255 10.58 8.057 20.183 14.404 28.809c6.348 8.626 13.998 15.625 22.95 20.996c8.952 5.371 19.45 8.057 31.494 8.057c1.302 0 3.174 0.163 5.615 0.488c2.441 0.326 4.313 0.163 5.615 -0.488c2.604 -1.302 4.069 -2.604 4.395 -3.906c0 0 1.465 -5.86 1.465 -5.86c3.906 -19.206 7.568 -39.388 10.986 -60.547c3.418 -21.159 9.684 -40.364 18.799 -57.617c9.44 -16.601 21.484 -30.924 36.133 -42.969c14.648 -12.044 28.645 -24.739 41.992 -38.086c9.44 -10.091 17.497 -19.287 24.17 -27.587c6.673 -8.301 13.509 -16.114 20.508 -23.438c6.998 -7.324 14.648 -14.16 22.949 -20.508c8.301 -6.347 19.124 -12.125 32.471 -17.334c0 0 0.976 0 0.976 0c0 0 0 -313.965 0 -313.965c-23.437 0 -45.817 -2.685 -67.139 -8.056c-21.321 -5.371 -42.968 -11.231 -64.941 -17.578c-21.973 -6.348 -44.922 -12.207 -68.848 -17.578c-23.925 -5.372 -49.886 -8.057 -77.881 -8.057c-14.648 0 -30.68 1.221 -48.095 3.662c-17.416 2.441 -33.61 6.836 -48.584 13.184c-14.974 6.347 -27.669 15.462 -38.086 27.343c-10.417 11.882 -15.625 27.588 -15.625 47.119c0 3.256 0.163 6.185 0.488 8.79c0.326 2.604 0.814 5.696 1.465 9.277c-11.393 5.208 -20.02 13.835 -25.879 25.879c-5.859 12.044 -8.789 24.088 -8.789 36.133c0 12.695 3.255 23.6 9.766 32.714c-19.206 15.951 -28.809 35.97 -28.809 60.059c0 7.487 1.953 14.567 5.859 21.24c3.907 6.673 8.301 12.289 13.184 16.846c-5.208 9.44 -9.847 18.799 -13.916 28.076c-4.069 9.277 -6.104 19.613 -6.104 31.006c0 0 0 0 0 0m528.809 -269.043c0 10.742 3.825 19.938 11.475 27.588c7.649 7.65 16.845 11.475 27.588 11.475c11.393 0 20.752 -3.825 28.076 -11.475c7.324 -7.65 10.986 -16.846 10.986 -27.588c0 -11.393 -3.662 -20.752 -10.986 -28.076c-7.324 -7.324 -16.683 -10.986 -28.076 -10.986c-10.743 0 -19.939 3.662 -27.588 10.986c-7.65 7.324 -11.475 16.683 -11.475 28.076c0 0 0 0 0 0" />
  </g>
</svg>