<svg height="1000" width="857.143" xmlns="http://www.w3.org/2000/svg"><path d="M142.848 750.016q0 -14.508 -10.602 -25.11t-25.11 -10.602 -25.11 10.602 -10.602 25.11 10.602 25.11 25.11 10.602 25.11 -10.602 10.602 -25.11zm642.816 -321.408q0 -28.458 -21.762 -49.941t-49.662 -21.483h-196.416q0 -32.364 26.784 -89.001t26.784 -89.559q0 -54.684 -17.856 -80.91t-71.424 -26.226q-14.508 14.508 -21.204 47.43t-17.019 70.029 -33.201 61.101q-12.276 12.834 -42.966 50.778 -2.232 2.79 -12.834 16.74t-17.577 22.878 -19.251 23.715 -22.32 24.552 -21.483 19.809 -22.32 15.066 -19.809 5.022h-17.856v357.12h17.856q7.254 0 17.577 1.674t18.414 3.627 21.204 6.138 19.53 6.417 19.809 6.975 16.182 5.859q117.738 40.734 190.836 40.734h67.518q107.136 0 107.136 -93.186 0 -14.508 -2.79 -31.248 16.74 -8.928 26.505 -29.295t9.765 -41.013 -10.044 -38.502q29.574 -27.9 29.574 -66.402 0 -13.95 -5.58 -30.969t-13.95 -26.505q17.856 -.558 29.853 -26.226t11.997 -45.198zm71.424 -.558q0 49.662 -27.342 90.954 5.022 18.414 5.022 38.502 0 42.966 -21.204 80.352 1.674 11.718 1.674 23.994 0 56.358 -33.48 99.324 .558 77.562 -47.43 122.481t-126.666 44.919h-71.982q-53.568 0 -105.741 -12.555t-120.807 -36.549q-64.728 -22.32 -77.004 -22.32h-160.704q-29.574 0 -50.499 -20.925t-20.925 -50.499v-357.12q0 -29.574 20.925 -50.499t50.499 -20.925h152.892q20.088 -13.392 76.446 -86.49 32.364 -41.85 59.706 -71.424 13.392 -13.95 19.809 -47.709t17.019 -70.587 34.596 -60.264q21.762 -20.646 50.22 -20.646 46.872 0 84.258 18.135t56.916 56.637 19.53 103.788q0 51.894 -26.784 107.136h98.208q58.032 0 100.44 42.408t42.408 99.882z"/></svg>