<svg height="1000px" width="857.1428571428571px" xmlns="http://www.w3.org/2000/svg">
  <g>
    <path d="M0 571.4285714285713c0 0 0 -357.143 0 -357.143c0 -19.717 6.975 -36.551 20.926 -50.502c13.951 -13.951 30.785 -20.926 50.503 -20.926c0 0 160.714 0 160.714 0c8.184 0 33.854 -7.441 77.009 -22.322c47.619 -16.369 89.099 -28.646 124.442 -36.83c35.342 -8.185 72.544 -12.277 111.607 -12.277c0 0 62.5 0 62.5 0c52.083 0 94.215 14.695 126.395 44.085c32.18 29.39 48.084 69.568 47.712 120.536c0 0 0 2.79 0 2.79c22.321 28.646 33.482 61.756 33.482 99.33c0 8.185 -0.558 16.183 -1.674 23.996c14.137 24.925 21.205 51.711 21.205 80.357c0 13.393 -1.674 26.227 -5.022 38.504c18.229 27.53 27.344 57.85 27.344 90.96c0 38.318 -14.137 71.615 -42.411 99.888c-28.274 28.274 -61.756 42.411 -100.446 42.411c0 0 -98.215 0 -98.215 0c17.858 36.83 26.786 72.545 26.786 107.143c0 43.899 -6.51 78.497 -19.531 103.795c-13.021 25.669 -31.994 44.549 -56.92 56.64c-24.925 12.091 -53.013 18.136 -84.263 18.136c-18.973 0 -35.714 -6.882 -50.223 -20.647c-12.649 -12.277 -22.694 -27.53 -30.134 -45.759c-7.441 -18.229 -12.184 -35.063 -14.23 -50.502c-2.046 -15.439 -5.302 -31.157 -9.766 -47.154c-4.464 -15.997 -10.23 -27.902 -17.299 -35.714c-17.857 -18.602 -37.76 -42.225 -59.71 -70.871c-37.574 -48.735 -63.058 -77.567 -76.451 -86.495c0 0 -152.901 0 -152.901 0c-19.718 0 -36.552 -6.976 -50.503 -20.927c-13.951 -13.951 -20.926 -30.785 -20.926 -50.502c0 0 0 0 0 0m71.429 -321.429c0 9.673 3.534 18.044 10.602 25.112c7.069 7.068 15.439 10.603 25.112 10.603c9.672 0 18.043 -3.535 25.111 -10.603c7.069 -7.068 10.603 -15.439 10.603 -25.112c0 -9.672 -3.534 -18.043 -10.603 -25.111c-7.068 -7.069 -15.439 -10.603 -25.111 -10.603c-9.673 0 -18.043 3.534 -25.112 10.603c-7.068 7.068 -10.602 15.439 -10.602 25.111c0 0 0 0 0 0m142.857 321.429c0 0 17.857 0 17.857 0c5.952 0 12.556 1.674 19.81 5.022c7.255 3.349 14.695 8.371 22.322 15.067c7.626 6.697 14.788 13.3 21.484 19.811c6.696 6.51 14.137 14.694 22.321 24.553c8.185 9.859 14.602 17.764 19.253 23.717c4.65 5.952 10.509 13.579 17.578 22.879c7.068 9.301 11.346 14.881 12.835 16.741c20.461 25.298 34.784 42.225 42.968 50.781c15.253 15.997 26.321 36.366 33.203 61.105c6.883 24.74 12.556 48.084 17.021 70.034c4.464 21.949 11.532 37.76 21.205 47.433c35.714 0 59.524 -8.743 71.428 -26.228c11.905 -17.485 17.858 -44.457 17.858 -80.915c0 -21.949 -8.929 -51.804 -26.786 -89.565c-17.857 -37.76 -26.786 -67.429 -26.786 -89.006c0 0 196.429 0 196.429 0c18.601 0 35.156 -7.162 49.665 -21.485c14.509 -14.323 21.763 -30.971 21.763 -49.944c0 -13.021 -3.999 -28.088 -11.997 -45.201c-7.999 -17.113 -17.951 -25.856 -29.855 -26.228c5.58 -6.324 10.23 -15.16 13.951 -26.506c3.72 -11.347 5.58 -21.671 5.58 -30.971c0 -25.67 -9.859 -47.805 -29.576 -66.407c6.696 -11.904 10.045 -24.739 10.045 -38.504c0 -13.765 -3.256 -27.437 -9.766 -41.016c-6.51 -13.578 -15.346 -23.344 -26.507 -29.296c1.86 -11.161 2.79 -21.578 2.79 -31.25c0 -31.622 -9.114 -55.06 -27.343 -70.313c-18.229 -15.253 -43.527 -22.879 -75.893 -22.879c0 0 -71.429 0 -71.429 0c-48.735 0 -112.351 13.578 -190.848 40.736c-1.86 0.744 -7.254 2.697 -16.183 5.86c-8.929 3.162 -15.532 5.487 -19.81 6.975c-4.279 1.488 -10.789 3.627 -19.531 6.417c-8.743 2.791 -15.811 4.837 -21.206 6.139c-5.394 1.302 -11.533 2.511 -18.415 3.627c-6.882 1.116 -12.742 1.674 -17.578 1.674c0 0 -17.857 0 -17.857 0c0 0 0 357.143 0 357.143c0 0 0 0 0 0" />
  </g>
</svg>