<svg height="1000" width="857.1" xmlns="http://www.w3.org/2000/svg"><path d="M142.9 750q0 -14.5 -10.6 -25.1t-25.2 -10.6T82 724.9 71.4 750 82 775.1t25.1 10.6 25.2 -10.6T142.9 750zM785.7 428.6q0 -28.5 -21.7 -50t-49.7 -21.5H517.9q0 -32.3 26.7 -89t26.8 -89.5q0 -54.7 -17.8 -80.9T482.1 71.4q-14.5 14.5 -21.2 47.5t-17 70T410.7 250q-12.3 12.8 -43 50.8 -2.2 2.8 -12.8 16.7t-17.6 22.9 -19.2 23.7 -22.3 24.6 -21.5 19.8 -22.3 15 -19.9 5.1h-17.8v357.1h17.8q7.3 0 17.6 1.7t18.4 3.6 21.2 6.2 19.6 6.4 19.8 6.9 16.2 5.9q117.7 40.7 190.8 40.7h67.5q107.2 0 107.2 -93.1 0 -14.6 -2.8 -31.3 16.7 -8.9 26.5 -29.3t9.8 -41 -10.1 -38.5q29.6 -27.9 29.6 -66.4 0 -14 -5.6 -31T743.9 500q17.8 -.6 29.8 -26.2t12 -45.2zm71.4 -.6q0 49.7 -27.3 91 5 18.4 5 38.5 0 42.9 -21.2 80.3 1.7 11.8 1.7 24 0 56.4 -33.5 99.4 .6 77.5 -47.4 122.4t-126.7 45h-72Q482.1 928.6 430 916T309.2 879.5q-64.8 -22.4 -77.1 -22.4H71.4q-29.5 0 -50.5 -20.9T0 785.7V428.6Q0 399 20.9 378.1t50.5 -21h152.9q20.1 -13.3 76.5 -86.5 32.3 -41.8 59.7 -71.4 13.4 -13.9 19.8 -47.7t17 -70.6 34.6 -60.3Q453.7 0 482.1 0q46.9 0 84.3 18.1t56.9 56.7 19.6 103.8q0 51.9 -26.8 107.1h98.2q58 0 100.4 42.4t42.4 99.9z"/></svg>