<svg height="1000" width="928.571" xmlns="http://www.w3.org/2000/svg"><path d="M0 607.168q0 14.508 10.602 25.11t25.11 10.602h160.704q14.508 0 25.11 -10.602t10.602 -25.11v-357.12q0 -14.508 -10.602 -25.11t-25.11 -10.602h-160.704q-14.508 0 -25.11 10.602t-10.602 25.11v357.12zm71.424 -285.696q0 -15.066 10.323 -25.389t25.389 -10.323q14.508 0 25.11 10.323t10.602 25.389q0 14.508 -10.602 25.11t-25.11 10.602q-15.066 0 -25.389 -10.602t-10.323 -25.11zm196.416 286.254v-357.678q0 -14.508 10.602 -24.831t25.11 -10.881q19.53 -.558 88.164 -24.552 42.966 -14.508 67.239 -22.041t67.797 -16.182 80.352 -8.649h71.982q74.214 1.116 109.926 43.524 32.364 38.502 27.342 100.998 21.762 20.646 30.132 52.452 9.486 34.038 0 65.286 25.668 34.038 23.994 76.446 0 17.856 -8.37 42.408 30.69 34.038 30.69 83.142 -.558 43.524 -32.085 75.33t-75.051 31.806h-154.566q2.232 7.812 4.464 13.392t6.138 12.276 5.58 10.044q10.044 20.646 15.066 31.806t10.602 32.643 5.58 42.687q0 13.392 -.279 21.762t-2.79 25.11 -6.696 27.9 -13.392 25.11 -22.32 22.599 -33.48 14.508 -46.035 5.859q-14.508 0 -25.11 -10.602 -11.16 -11.16 -18.972 -27.9t-10.881 -29.016 -6.975 -34.038q-5.022 -23.436 -7.533 -33.759t-9.765 -27.063 -17.298 -26.784q-18.414 -18.414 -56.358 -66.96 -27.342 -35.712 -56.358 -67.518t-42.408 -32.922q-13.95 -1.116 -23.994 -11.439t-10.044 -24.273z"/></svg>