<svg height="1000px" width="782.9938659667969px" xmlns="http://www.w3.org/2000/svg">
  <g>
    <path d="M0.25 652.9736824035645c-1 -37.333 -0.333 -74.667 2 -112c2.333 -37.333 6.5 -72.333 12.5 -105c30 -2 61.333 -3 94 -3c32.667 0 62.667 3.333 90 10c4 25.333 7.333 55.667 10 91c2.667 35.333 4.5 72 5.5 110c1 38 1.167 75 0.5 111c-0.667 36 -2.333 67.333 -5 94c-12 1.333 -25.833 2.167 -41.5 2.5c-15.667 0.333 -32 0.167 -49 -0.5c-17 -0.667 -33.667 -1.167 -50 -1.5c-16.333 -0.333 -31.167 -0.5 -44.5 -0.5c-6.667 -25.333 -12.167 -55 -16.5 -89c-4.333 -34 -7 -69.667 -8 -107c0 0 0 0 0 0m90.5 121c0 10.667 3.667 19.667 11 27c7.333 7.333 16.333 11 27 11c10.667 0 19.5 -3.667 26.5 -11c7 -7.333 10.5 -16.333 10.5 -27c0 -10 -3.5 -18.667 -10.5 -26c-7 -7.333 -15.833 -11 -26.5 -11c-10.667 0 -19.667 3.667 -27 11c-7.333 7.333 -11 16 -11 26c0 0 0 0 0 0m149 -311c14.667 -6.667 26.5 -13.167 35.5 -19.5c9 -6.333 17.167 -13.333 24.5 -21c7.333 -7.667 14.833 -16.333 22.5 -26c7.667 -9.667 17.833 -21.167 30.5 -34.5c10.667 -10.667 20.167 -19.5 28.5 -26.5c8.333 -7 16 -13.667 23 -20c7 -6.333 13.333 -13 19 -20c5.667 -7 11.5 -15.5 17.5 -25.5c10.667 -19.333 17.667 -41 21 -65c3.333 -24 7.667 -46.667 13 -68c0 -4.667 2.333 -8.333 7 -11c12.667 -2 24.333 -0.833 35 3.5c10.667 4.333 20 10.167 28 17.5c8 7.333 14.5 16 19.5 26c5 10 8.5 19.333 10.5 28c4 22 3.5 41.833 -1.5 59.5c-5 17.667 -11.333 34.5 -19 50.5c-7.667 16 -15 31.5 -22 46.5c-7 15 -10.833 30.833 -11.5 47.5c14 6 31.167 9.167 51.5 9.5c20.333 0.333 41.5 0 63.5 -1c22 -1 43.333 -1.5 64 -1.5c20.667 0 38 2.833 52 8.5c14 5.667 23.5 15.333 28.5 29c5 13.667 3.167 33.5 -5.5 59.5c0 1.333 -0.833 3.167 -2.5 5.5c-1.667 2.333 -3.333 5 -5 8c-1.667 3 -3.167 5.833 -4.5 8.5c0 0 -2 3 -2 3c7.333 7.333 12.667 15 16 23c3.333 8 5 14.667 5 20c0.667 26 -10 48.667 -32 68c6.667 10 10.333 20.5 11 31.5c0.667 11 -0.667 21.5 -4 31.5c-3.333 10 -8.167 18.833 -14.5 26.5c-6.333 7.667 -13.5 13.5 -21.5 17.5c4 22.667 2 42 -6 58c-8 16 -19.833 28.833 -35.5 38.5c-15.667 9.667 -34.5 16.5 -56.5 20.5c-22 4 -45 6 -69 6c-24 0 -48.167 -1.667 -72.5 -5c-24.333 -3.333 -46.833 -8 -67.5 -14c-13.333 -4 -26.333 -8.667 -39 -14c-12.667 -5.333 -25.5 -10.333 -38.5 -15c-13 -4.667 -26.667 -8.333 -41 -11c-14.333 -2.667 -29.5 -2.667 -45.5 0c1.333 -26 2.167 -54.333 2.5 -85c0.333 -30.667 0 -61.833 -1 -93.5c-1 -31.667 -2.5 -62.5 -4.5 -92.5c-2 -30 -4.333 -57.333 -7 -82c0 0 0 0 0 0" />
  </g>
</svg>