<svg height="1000px" width="857.1428571428571px" xmlns="http://www.w3.org/2000/svg">
  <g>
    <path d="M0 785.7142857142857c0 0 0 -357.143 0 -357.143c0 -19.717 6.975 -36.551 20.926 -50.502c13.951 -13.951 30.785 -20.926 50.503 -20.926c0 0 152.901 0 152.901 0c13.393 -8.929 34.878 -32.553 64.453 -70.871c29.576 -38.318 53.479 -67.336 71.708 -87.054c8.929 -9.3 15.532 -25.204 19.81 -47.712c4.279 -22.507 9.952 -46.038 17.02 -70.591c7.069 -24.554 18.23 -44.178 33.483 -58.873c15.253 -14.695 32.366 -22.042 51.339 -22.042c107.143 0 160.714 59.524 160.714 178.571c0 34.598 -8.928 70.313 -26.786 107.143c0 0 98.215 0 98.215 0c38.69 0 72.172 14.137 100.446 42.411c28.274 28.274 42.411 60.268 42.411 95.982c0 35.714 -9.115 67.336 -27.344 94.866c3.348 12.277 5.022 28.925 5.022 49.944c0 21.019 -7.068 43.992 -21.205 68.918c1.116 7.812 1.674 15.811 1.674 23.995c0 37.574 -11.161 70.685 -33.482 99.33c0.372 51.712 -15.439 92.541 -47.433 122.489c-31.994 29.948 -74.219 44.922 -126.674 44.922c0 0 -71.987 0 -71.987 0c-35.714 0 -70.963 -4.185 -105.747 -12.556c-34.785 -8.37 -74.405 -20.275 -118.862 -35.714c-44.457 -15.439 -70.778 -23.158 -78.962 -23.158c0 0 -160.714 0 -160.714 0c-19.718 0 -36.552 -6.976 -50.503 -20.927c-13.951 -13.951 -20.926 -30.785 -20.926 -50.502c0 0 0 0 0 0m71.429 -35.714c0 9.672 3.534 18.043 10.602 25.111c7.069 7.069 15.439 10.603 25.112 10.603c9.672 0 18.043 -3.534 25.111 -10.603c7.069 -7.068 10.603 -15.439 10.603 -25.111c0 -9.673 -3.534 -18.043 -10.603 -25.112c-7.068 -7.068 -15.439 -10.603 -25.111 -10.603c-9.673 0 -18.043 3.535 -25.112 10.603c-7.068 7.069 -10.602 15.439 -10.602 25.112c0 0 0 0 0 0m142.857 35.714c0 0 17.857 0 17.857 0c17.113 0 35.156 3.348 54.129 10.045c34.971 12.276 54.502 19.159 58.594 20.647c78.497 27.158 142.113 40.737 190.848 40.737c0 0 67.523 0 67.523 0c71.428 0 107.142 -31.064 107.142 -93.192c0 -9.673 -0.93 -20.09 -2.79 -31.25c11.161 -5.953 19.997 -15.718 26.507 -29.297c6.51 -13.579 9.766 -27.251 9.766 -41.016c0 -13.765 -3.349 -26.6 -10.045 -38.504c19.717 -18.602 29.576 -40.737 29.576 -66.407c0 -9.3 -1.86 -19.624 -5.58 -30.971c-3.721 -11.346 -8.371 -20.182 -13.951 -26.506c11.904 -0.372 21.856 -9.115 29.855 -26.228c7.998 -17.113 11.997 -33.668 11.997 -49.665c0 -15.997 -7.254 -31.157 -21.763 -45.48c-14.509 -14.323 -31.064 -21.484 -49.665 -21.484c0 0 -196.429 0 -196.429 0c0 -21.578 8.929 -51.247 26.786 -89.007c17.857 -37.761 26.786 -71.243 26.786 -100.447c0 -29.203 -5.953 -52.548 -17.858 -70.033c-11.904 -17.485 -35.714 -26.228 -71.428 -26.228c-9.673 9.673 -16.741 25.484 -21.205 47.433c-4.465 21.95 -10.138 45.294 -17.021 70.034c-6.882 24.739 -16.183 43.248 -27.901 55.524c-11.719 12.277 -23.066 25.205 -34.041 38.784c-10.974 13.579 -19.996 25.018 -27.064 34.319c-7.069 9.301 -12.928 16.927 -17.578 22.879c-4.651 5.953 -11.068 13.858 -19.253 23.717c-8.184 9.859 -15.625 18.043 -22.321 24.554c-6.696 6.51 -13.765 13.113 -21.205 19.81c-15.253 13.393 -29.39 20.089 -42.411 20.089c0 0 -17.857 0 -17.857 0c0 0 0 357.143 0 357.143c0 0 0 0 0 0" />
  </g>
</svg>