<svg height="1000" width="928.6" xmlns="http://www.w3.org/2000/svg"><path d="M142.9 321.4q0 14.5 -10.6 25.1t-25.2 10.6q-15 0 -25.3 -10.6T71.4 321.4q0 -15 10.4 -25.4t25.3 -10.3q14.6 0 25.2 10.3t10.6 25.4zm89.2 285.7V250q0 -14.5 -10.6 -25.1t-25.1 -10.6H35.7q-14.5 0 -25.1 10.6T0 250v357.1q0 14.6 10.6 25.2t25.1 10.6h160.7q14.5 0 25.1 -10.6t10.6 -25.2zM862.2 524q30.7 34 30.7 83.1 -.6 43.6 -32.1 75.4t-75.1 31.8H631.1q2.3 7.8 4.5 13.4t6.1 12.3 5.6 10q10.1 20.6 15.1 31.8t10.6 32.7 5.6 42.6q0 13.4 -.3 21.8t-2.8 25.1 -6.7 27.9T655.4 957t-22.3 22.6 -33.5 14.5 -46 5.9q-14.5 0 -25.1 -10.6 -11.2 -11.2 -19 -27.9t-10.9 -29 -7 -34.1q-5 -23.4 -7.5 -33.7t-9.8 -27.1T457 810.8q-18.4 -18.4 -56.3 -66.9 -27.4 -35.8 -56.4 -67.6t-42.4 -32.9q-14 -1.1 -24 -11.4t-10 -24.3V250q0 -14.5 10.6 -24.8t25.1 -10.9q19.5 -.6 88.1 -24.6 43 -14.5 67.3 -22t67.8 -16.2 80.3 -8.6h72q74.2 1.1 110 43.5 32.3 38.5 27.3 101 21.8 20.6 30.1 52.4 9.5 34.1 0 65.3 25.7 34.1 24 76.5 0 17.8 -8.3 42.4z"/></svg>