<svg height="1000" width="1000" xmlns="http://www.w3.org/2000/svg"><path d="M571.4 252.2l176.4 176.4L428.6 747.8 252.2 571.4zM453.7 798.5L798.5 453.7q10.7 -10.6 10.7 -25.1t-10.7 -25.1l-202 -202q-10 -10.1 -25.1 -10.1t-25.1 10.1L201.5 546.3q-10.7 10.6 -10.7 25.1t10.7 25.1l202 202q10 10.1 25.1 10.1t25.1 -10.1zM949.8 443.1L443.6 949.8q-20.6 20.6 -50.5 20.6t-50.5 -20.6l-70.3 -70.3q31.3 -31.3 31.3 -75.9t-31.3 -75.9 -75.9 -31.3 -75.9 31.3L50.8 657.4Q30.1 636.7 30.1 606.9t20.7 -50.5L556.9 50.8q20.7 -20.7 50.5 -20.7t50.5 20.7l69.8 69.7q-31.3 31.3 -31.3 75.9t31.3 75.9 75.9 31.3 75.9 -31.3l70.3 69.8q20.6 20.6 20.6 50.5t-20.6 50.5z"/></svg>