<svg height="1000" width="1000" xmlns="http://www.w3.org/2000/svg"><path d="M571.392 252.28l176.328 176.328 -319.176 319.176 -176.328 -176.328zm-117.738 546.282l344.844 -344.844q10.602 -10.602 10.602 -25.11t-10.602 -25.11l-201.996 -201.996q-10.044 -10.044 -25.11 -10.044t-25.11 10.044l-344.844 344.844q-10.602 10.602 -10.602 25.11t10.602 25.11l201.996 201.996q10.044 10.044 25.11 10.044t25.11 -10.044zm496.062 -355.446l-506.106 506.664q-20.646 20.646 -50.499 20.646t-50.499 -20.646l-70.308 -70.308q31.248 -31.248 31.248 -75.888t-31.248 -75.888 -75.888 -31.248 -75.888 31.248l-69.75 -70.308q-20.646 -20.646 -20.646 -50.499t20.646 -50.499l506.106 -505.548q20.646 -20.646 50.499 -20.646t50.499 20.646l69.75 69.75q-31.248 31.248 -31.248 75.888t31.248 75.888 75.888 31.248 75.888 -31.248l70.308 69.75q20.646 20.646 20.646 50.499t-20.646 50.499z"/></svg>