<svg height="1000" width="571.4" xmlns="http://www.w3.org/2000/svg"><path d="M0 571.5q0-80.9 45.2-153.5 3.3-5 34.9-50.5t56.4-84.3 55.5-99.3 46.3-112.4q5-16.7 19-26.2t28.5-9.5 28.7 9.5 18.7 26.2q15.6 51.9 46.3 112.4t55.5 99.3 56.4 84.3 34.9 50.5q45.2 70.9 45.2 153.5 0 118.3-83.7 202t-202 83.7-202-83.7-83.7-202zm142.8 71.4q0 29.6 20.9 50.5t50.5 20.9 50.5-20.9 20.9-50.5q0-20.1-11.2-38.5-.6-.6-8.6-12.6t-14.2-21.2-14-24.6-11.7-28.2q-2.2-8.9-11.7-8.9t-11.7 8.9q-3.9 12.8-11.7 28.2t-14 24.6-14.2 21.2-8.6 12.6q-11.2 18.4-11.2 38.5z"/></svg>