<svg height="1000" width="571.429" xmlns="http://www.w3.org/2000/svg"><path d="M285.696 642.88q0 -20.088 -11.16 -38.502 -.558 -.558 -8.649 -12.555t-14.229 -21.204 -13.95 -24.552 -11.718 -28.179q-2.232 -8.928 -11.718 -8.928t-11.718 8.928q-3.906 12.834 -11.718 28.179t-13.95 24.552 -14.229 21.204 -8.649 12.555q-11.16 18.414 -11.16 38.502 0 29.574 20.925 50.499t50.499 20.925 50.499 -20.925 20.925 -50.499zm285.696 -71.424q0 118.296 -83.7 201.996t-201.996 83.7 -201.996 -83.7 -83.7 -201.996q0 -80.91 45.198 -153.45 3.348 -5.022 34.875 -50.499t56.358 -84.258 55.521 -99.324 46.314 -112.437q5.022 -16.74 18.972 -26.226t28.458 -9.486 28.737 9.486 18.693 26.226q15.624 51.894 46.314 112.437t55.521 99.324 56.358 84.258 34.875 50.499q45.198 70.866 45.198 153.45z"/></svg>