<svg height="1000px" width="571.4285714285714px" xmlns="http://www.w3.org/2000/svg">
  <g>
    <path d="M0 571.4285714285713c0 -53.943 15.067 -105.097 45.201 -153.46c2.232 -3.348 13.858 -20.182 34.877 -50.502c21.019 -30.32 39.807 -58.408 56.362 -84.263c16.555 -25.856 35.063 -58.966 55.524 -99.331c20.462 -40.364 35.901 -77.846 46.317 -112.444c3.348 -11.161 9.673 -19.903 18.973 -26.228c9.301 -6.324 18.788 -9.486 28.46 -9.486c9.673 0 19.253 3.162 28.739 9.486c9.487 6.325 15.718 15.067 18.694 26.228c10.417 34.598 25.856 72.08 46.317 112.444c20.462 40.365 38.97 73.475 55.525 99.331c16.555 25.855 35.342 53.943 56.361 84.263c21.02 30.32 32.646 47.154 34.878 50.502c30.134 47.247 45.201 98.4 45.201 153.46c0 78.869 -27.902 146.205 -83.706 202.009c-55.803 55.804 -123.14 83.705 -202.009 83.705c-78.869 0 -146.205 -27.901 -202.009 -83.705c-55.803 -55.804 -83.705 -123.14 -83.705 -202.009c0 0 0 0 0 0m142.857 71.429c0 19.717 6.976 36.551 20.926 50.502c13.951 13.951 30.785 20.926 50.503 20.926c19.717 0 36.551 -6.975 50.502 -20.926c13.951 -13.951 20.926 -30.785 20.926 -50.502c0 -13.393 -3.72 -26.228 -11.16 -38.505c-0.372 -0.372 -3.256 -4.557 -8.65 -12.556c-5.394 -7.998 -10.138 -15.067 -14.23 -21.205c-4.092 -6.138 -8.742 -14.323 -13.951 -24.554c-5.208 -10.23 -9.114 -19.624 -11.719 -28.18c-1.488 -5.953 -5.394 -8.929 -11.718 -8.929c-6.325 0 -10.231 2.976 -11.719 8.929c-2.604 8.556 -6.51 17.95 -11.719 28.18c-5.208 10.231 -9.858 18.416 -13.951 24.554c-4.092 6.138 -8.835 13.207 -14.23 21.205c-5.394 7.999 -8.277 12.184 -8.649 12.556c-7.441 12.277 -11.161 25.112 -11.161 38.505c0 0 0 0 0 0" />
  </g>
</svg>