<svg height="1000" width="571.4" xmlns="http://www.w3.org/2000/svg"><path d="M285.7 642.9q0 -20.1 -11.1 -38.5 -.6 -.6 -8.7 -12.6t-14.2 -21.2 -14 -24.6T226 517.9q-2.2 -9 -11.7 -9t-11.7 9q-3.9 12.8 -11.8 28.1t-13.9 24.6 -14.2 21.2 -8.7 12.6q-11.1 18.4 -11.1 38.5 0 29.5 20.9 50.5t50.5 20.9 50.5 -20.9 20.9 -50.5zm285.7 -71.5q0 118.3 -83.7 202t-202 83.7 -202 -83.7T0 571.4Q0 490.5 45.2 418q3.3 -5.1 34.9 -50.5t56.3 -84.3T192 183.9 238.3 71.4q5 -16.7 19 -26.2t28.4 -9.5 28.8 9.5 18.6 26.2q15.7 51.9 46.4 112.5t55.5 99.3 56.4 84.3 34.8 50.5q45.2 70.8 45.2 153.4z"/></svg>