<svg height="1000px" width="531px" xmlns="http://www.w3.org/2000/svg">
  <g>
    <path d="M0 609.2105255126953c0 -26 3.667 -51 11 -75c7.333 -24 17.667 -46.333 31 -67c6.667 -10.667 17.667 -26.333 33 -47c15.333 -20.667 32.167 -44.833 50.5 -72.5c18.333 -27.667 36.167 -57.833 53.5 -90.5c17.333 -32.667 31.333 -66.667 42 -102c3.333 -11.333 9.167 -19.5 17.5 -24.5c8.333 -5 17.167 -6.833 26.5 -5.5c10 -1.333 19.167 0.5 27.5 5.5c8.333 5 14.167 13.167 17.5 24.5c10.667 35.333 24.667 69.333 42 102c17.333 32.667 35.167 62.833 53.5 90.5c18.333 27.667 35.167 51.833 50.5 72.5c15.333 20.667 26.333 36.333 33 47c13.333 20.667 23.667 43 31 67c7.333 24 11 49 11 75c0 36.667 -7 71.167 -21 103.5c-14 32.333 -33 60.5 -57 84.5c-24 24 -52.167 43 -84.5 57c-32.333 14 -66.833 21 -103.5 21c-36.667 0 -71 -7 -103 -21c-32 -14 -60 -33 -84 -57c-24 -24 -43 -52.167 -57 -84.5c-14 -32.333 -21 -66.833 -21 -103.5c0 0 0 0 0 0m116 59c0 18.667 6.5 34.333 19.5 47c13 12.667 28.833 19 47.5 19c18 0 33.5 -6.333 46.5 -19c13 -12.667 19.5 -28.333 19.5 -47c0 -12 -3.333 -24 -10 -36c-2 -2.667 -5 -6.5 -9 -11.5c-4 -5 -8.167 -11 -12.5 -18c-4.333 -7 -8.667 -14.667 -13 -23c-4.333 -8.333 -7.833 -16.833 -10.5 -25.5c-2.667 -6 -6.333 -8.333 -11 -7c-6 -1.333 -9.667 1 -11 7c-2.667 8.667 -6.333 17.167 -11 25.5c-4.667 8.333 -9.167 16 -13.5 23c-4.333 7 -8.5 13 -12.5 18c-4 5 -6.667 8.833 -8 11.5c-7.333 11.333 -11 23.333 -11 36c0 0 0 0 0 0" />
  </g>
</svg>