<svg height="1000px" width="551.7578125px" xmlns="http://www.w3.org/2000/svg">
  <g>
    <path d="M0 613.9600798487663c0 -27.995 3.825 -54.281 11.475 -78.857c7.649 -24.577 18.473 -47.608 32.47 -69.092c6.511 -10.742 17.823 -26.937 33.936 -48.584c16.113 -21.647 33.691 -46.794 52.734 -75.44c19.043 -28.645 37.517 -60.14 55.42 -94.482c17.904 -34.343 32.552 -69.743 43.945 -106.201c3.256 -11.393 9.278 -19.776 18.067 -25.147c8.789 -5.371 18.066 -7.405 27.832 -6.103c10.091 -1.302 19.45 0.732 28.076 6.103c8.626 5.371 14.567 13.754 17.822 25.147c10.743 36.784 25.31 72.265 43.702 106.445c18.391 34.18 37.109 65.593 56.152 94.238c19.043 28.646 36.54 53.793 52.49 75.44c15.951 21.647 27.181 37.842 33.691 48.584c13.998 21.484 24.821 44.515 32.471 69.092c7.65 24.576 11.475 50.862 11.475 78.857c0 38.086 -7.162 73.975 -21.485 107.666c-14.322 33.691 -33.935 63.07 -58.837 88.135c-24.903 25.065 -54.2 44.759 -87.891 59.082c-33.691 14.323 -69.58 21.484 -107.666 21.484c-38.086 0 -73.893 -7.161 -107.422 -21.484c-33.529 -14.323 -62.825 -34.017 -87.891 -59.082c-25.065 -25.065 -44.759 -54.444 -59.082 -88.135c-14.323 -33.691 -21.484 -69.58 -21.484 -107.666c0 0 0 0 0 0m121.094 61.035c0 19.206 6.673 35.563 20.019 49.072c13.347 13.51 29.623 20.264 48.828 20.264c19.206 0 35.482 -6.673 48.829 -20.019c13.346 -13.347 20.019 -29.786 20.019 -49.317c0 -13.997 -3.581 -26.204 -10.742 -36.621c-1.953 -2.604 -4.964 -6.592 -9.033 -11.963c-4.069 -5.371 -8.382 -11.719 -12.94 -19.043c-4.557 -7.324 -9.196 -15.218 -13.916 -23.681c-4.72 -8.464 -8.382 -17.253 -10.986 -26.368c-1.302 -6.51 -5.046 -9.277 -11.231 -8.3c-5.859 -1.302 -9.765 1.464 -11.718 8.3c-2.605 9.44 -6.104 18.311 -10.498 26.612c-4.395 8.3 -8.952 16.113 -13.672 23.437c-4.72 7.324 -9.115 13.591 -13.184 18.799c-4.069 5.208 -7.08 9.277 -9.033 12.207c-7.487 10.742 -11.068 22.949 -10.742 36.621c0 0 0 0 0 0" />
  </g>
</svg>