<svg height="1000" width="1000" xmlns="http://www.w3.org/2000/svg"><path d="M0 910.72v-821.376q0 -14.508 7.254 -17.856t17.856 7.254l396.18 396.18q4.464 4.464 7.254 10.602v-396.18q0 -14.508 7.254 -17.856t17.856 7.254l396.18 396.18q4.464 4.464 7.254 10.602v-378.324q0 -14.508 10.602 -25.11t25.11 -10.602h71.424q14.508 0 25.11 10.602t10.602 25.11v785.664q0 14.508 -10.602 25.11t-25.11 10.602h-71.424q-14.508 0 -25.11 -10.602t-10.602 -25.11v-378.324q-2.79 5.58 -7.254 10.602l-396.18 396.18q-10.602 10.602 -17.856 7.254t-7.254 -17.856v-396.18q-2.79 5.58 -7.254 10.602l-396.18 396.18q-10.602 10.602 -17.856 7.254t-7.254 -17.856z"/></svg>