<svg height="1000px" width="524.90234375px" xmlns="http://www.w3.org/2000/svg">
  <g>
    <path d="M0 845.3775346279144c0 0 0 -690.43 0 -690.43c0 -12.695 5.697 -21.972 17.09 -27.832c12.695 -4.557 22.949 -2.278 30.762 6.836c0 0 319.336 344.238 319.336 344.238c5.208 5.86 7.812 13.184 7.812 21.973c0 8.789 -2.604 16.113 -7.813 21.973c0 0 -319.335 344.238 -319.335 344.238c-5.209 5.859 -11.882 8.789 -20.02 8.789c-1.953 0 -5.534 -0.651 -10.742 -1.953c-11.393 -5.208 -17.09 -14.486 -17.09 -27.832c0 0 0 0 0 0m375 -7.324c0 10.091 3.662 18.799 10.986 26.123c7.325 7.324 16.032 10.986 26.123 10.986c0 0 74.707 0 74.707 0c10.743 0 19.776 -3.662 27.1 -10.986c7.324 -7.324 10.986 -16.032 10.986 -26.123c0 0 0 -674.805 0 -674.805c0 -10.742 -3.662 -19.775 -10.986 -27.1c-7.324 -7.324 -16.357 -10.986 -27.1 -10.986c0 0 -74.707 0 -74.707 0c-10.091 0 -18.798 3.662 -26.123 10.986c-7.324 7.325 -10.986 16.358 -10.986 27.1c0 0 0 674.805 0 674.805c0 0 0 0 0 0" />
  </g>
</svg>