<svg height="1000px" width="900px" xmlns="http://www.w3.org/2000/svg">
  <g>
    <path d="M0 845.1665954589844c0 0 0 -690 0 -690c0 -12.667 5.667 -22 17 -28c12.667 -4.667 23 -2.333 31 7c0 0 319 344 319 344c5.333 6 8 13.333 8 22c0 8.667 -2.667 16 -8 22c0 0 -319 344 -319 344c-5.333 6 -12 9 -20 9c-2 0 -5.667 -0.667 -11 -2c-11.333 -5.333 -17 -14.667 -17 -28c0 0 0 0 0 0m375 0c0 0 0 -690 0 -690c0 -12.667 5.667 -22 17 -28c12.667 -4.667 23 -2.333 31 7c0 0 319 344 319 344c5.333 6 8 13.333 8 22c0 8.667 -2.667 16 -8 22c0 0 -319 344 -319 344c-5.333 6 -12 9 -20 9c-2 0 -5.667 -0.667 -11 -2c-11.333 -5.333 -17 -14.667 -17 -28c0 0 0 0 0 0m375 -7c0 10 3.667 18.667 11 26c7.333 7.333 16 11 26 11c0 0 75 0 75 0c10.667 0 19.667 -3.667 27 -11c7.333 -7.333 11 -16 11 -26c0 0 0 -675 0 -675c0 -10.667 -3.667 -19.667 -11 -27c-7.333 -7.333 -16.333 -11 -27 -11c0 0 -75 0 -75 0c-10 0 -18.667 3.667 -26 11c-7.333 7.333 -11 16.333 -11 27c0 0 0 675 0 675c0 0 0 0 0 0" />
  </g>
</svg>