<svg height="1000px" width="571.4285714285714px" xmlns="http://www.w3.org/2000/svg">
  <g>
    <path d="M25.111607142857142 921.3169642857142c-7.068 7.068 -13.021 9.487 -17.857 7.254c-4.836 -2.232 -7.255 -8.184 -7.255 -17.857c0 0 0 -821.428 0 -821.428c0 -9.673 2.419 -15.625 7.255 -17.857c4.836 -2.233 10.789 0.186 17.857 7.254c0 0 396.205 396.205 396.205 396.205c2.977 2.977 5.395 6.511 7.255 10.603c0 0 0 -378.348 0 -378.348c0 -9.673 3.534 -18.043 10.603 -25.112c7.068 -7.068 15.438 -10.602 25.111 -10.602c0 0 71.429 0 71.429 0c9.672 0 18.043 3.534 25.111 10.602c7.069 7.069 10.603 15.439 10.603 25.112c0 0 0 785.714 0 785.714c0 9.673 -3.534 18.043 -10.603 25.112c-7.068 7.068 -15.439 10.602 -25.111 10.602c0 0 -71.429 0 -71.429 0c-9.673 0 -18.043 -3.534 -25.112 -10.602c-7.068 -7.069 -10.602 -15.439 -10.602 -25.112c0 0 0 -378.348 0 -378.348c-1.86 3.72 -4.278 7.254 -7.255 10.603c0 0 -396.205 396.205 -396.205 396.205" />
  </g>
</svg>