<svg height="1000px" width="899.90234375px" xmlns="http://www.w3.org/2000/svg">
  <g>
    <path d="M0 837.7278819680214c0 10.091 3.662 18.799 10.986 26.123c7.325 7.324 16.032 10.986 26.123 10.986c0 0 74.707 0 74.707 0c10.743 0 19.776 -3.662 27.1 -10.986c7.324 -7.324 10.986 -16.032 10.986 -26.123c0 0 0 -674.805 0 -674.805c0 -10.742 -3.662 -19.775 -10.986 -27.099c-7.324 -7.325 -16.357 -10.987 -27.1 -10.987c0 0 -74.707 0 -74.707 0c-10.091 0 -18.798 3.662 -26.123 10.987c-7.324 7.324 -10.986 16.357 -10.986 27.099c0 0 0 674.805 0 674.805c0 0 0 0 0 0m150.146 -337.891c-0.162 -8.789 2.523 -15.787 8.057 -20.996c0 0 318.848 -345.215 318.848 -345.215c4.557 -5.859 11.23 -8.789 20.019 -8.789c1.953 0 5.534 0.651 10.743 1.953c11.393 5.86 17.089 15.463 17.089 28.809c0 0 0 689.453 0 689.453c0 13.347 -5.696 22.624 -17.09 27.832c-12.695 4.558 -22.949 2.279 -30.761 -6.836c0 0 -318.848 -344.238 -318.848 -344.238c-5.208 -5.859 -7.894 -13.184 -8.057 -21.973c0 0 0 0 0 0m375 0c-0.162 -8.789 2.523 -15.787 8.057 -20.996c0 0 318.848 -345.215 318.848 -345.215c4.557 -5.859 11.23 -8.789 20.019 -8.789c1.953 0 5.534 0.651 10.742 1.953c11.394 5.86 17.09 15.463 17.09 28.809c0 0 0 689.453 0 689.453c0 13.347 -5.696 22.624 -17.09 27.832c-12.695 4.558 -22.949 2.279 -30.761 -6.836c0 0 -318.848 -344.238 -318.848 -344.238c-5.208 -5.859 -7.894 -13.184 -8.057 -21.973c0 0 0 0 0 0" />
  </g>
</svg>