<svg height="1000px" width="571.4285714285714px" xmlns="http://www.w3.org/2000/svg">
  <g>
    <path d="M0 892.8571428571428c0 0 0 -785.714 0 -785.714c0 -9.673 3.534 -18.043 10.603 -25.112c7.068 -7.068 15.439 -10.603 25.111 -10.603c0 0 71.429 0 71.429 0c9.672 0 18.043 3.535 25.111 10.603c7.069 7.069 10.603 15.439 10.603 25.112c0 0 0 378.348 0 378.348c1.488 -4.092 3.906 -7.627 7.255 -10.603c0 0 396.205 -396.205 396.205 -396.205c5.372 -5.372 10.099 -8.058 14.182 -8.058c1.289 0 2.514 0.268 3.675 0.803c4.836 2.233 7.255 8.185 7.255 17.858c0 0 0 821.428 0 821.428c0 9.673 -2.419 15.625 -7.255 17.857c-1.161 0.536 -2.386 0.804 -3.675 0.804c-4.083 0 -8.81 -2.686 -14.182 -8.058c0 0 -396.205 -396.206 -396.205 -396.206c-3.349 -3.348 -5.767 -6.882 -7.255 -10.602c0 0 0 378.348 0 378.348c0 9.673 -3.534 18.043 -10.603 25.112c-7.068 7.068 -15.439 10.602 -25.111 10.602c0 0 -71.429 0 -71.429 0c-9.672 0 -18.043 -3.534 -25.111 -10.602c-7.069 -7.069 -10.603 -15.439 -10.603 -25.112c0 0 0 0 0 0" />
  </g>
</svg>