<svg height="1000px" width="1000px" xmlns="http://www.w3.org/2000/svg">
  <g>
    <path d="M0 892.8571428571428c0 0 0 -785.714 0 -785.714c0 -9.673 3.534 -18.043 10.603 -25.112c7.068 -7.068 15.439 -10.603 25.111 -10.603c0 0 71.429 0 71.429 0c9.672 0 18.043 3.535 25.111 10.603c7.069 7.069 10.603 15.439 10.603 25.112c0 0 0 378.348 0 378.348c1.488 -4.092 3.906 -7.627 7.255 -10.603c0 0 396.205 -396.205 396.205 -396.205c7.068 -7.069 13.021 -9.487 17.857 -7.255c4.836 2.233 7.255 8.185 7.255 17.858c0 0 0 396.205 0 396.205c1.488 -4.092 3.906 -7.627 7.254 -10.603c0 0 396.205 -396.205 396.205 -396.205c7.069 -7.069 13.021 -9.487 17.858 -7.255c4.836 2.233 7.254 8.185 7.254 17.858c0 0 0 821.428 0 821.428c0 9.673 -2.418 15.625 -7.254 17.857c-4.837 2.232 -10.789 -0.186 -17.858 -7.254c0 0 -396.205 -396.206 -396.205 -396.206c-3.348 -3.348 -5.766 -6.882 -7.254 -10.602c0 0 0 396.205 0 396.205c0 9.673 -2.419 15.625 -7.255 17.857c-4.836 2.232 -10.789 -0.186 -17.857 -7.254c0 0 -396.205 -396.206 -396.205 -396.206c-3.349 -3.348 -5.767 -6.882 -7.255 -10.602c0 0 0 378.348 0 378.348c0 9.673 -3.534 18.043 -10.603 25.112c-7.068 7.068 -15.439 10.602 -25.111 10.602c0 0 -71.429 0 -71.429 0c-9.672 0 -18.043 -3.534 -25.111 -10.602c-7.069 -7.069 -10.603 -15.439 -10.603 -25.112c0 0 0 0 0 0" />
  </g>
</svg>