<svg height="1000" width="1142.9" xmlns="http://www.w3.org/2000/svg"><path d="M0 500Q0 427.5 28.5 361.3t76.1 -113.8 113.9 -76.2 138.6 -28.4h428.6q72.6 0 138.7 28.4t113.8 76.2 76.2 113.8 28.5 138.7 -28.5 138.7 -76.2 113.8 -113.8 76.2 -138.7 28.4H357.1q-72.5 0 -138.6 -28.4T104.6 752.5 28.5 638.7 0 500zm785.7 285.7q58.1 0 110.8 -22.6T987.7 702t61.1 -91.2T1071.4 500t-22.6 -110.8T987.7 298t-91.2 -61.1T785.7 214.3t-110.8 22.6T583.7 298t-61.1 91.2T500 500t22.6 110.8 61.1 91.2 91.2 61.1 110.8 22.6z"/></svg>