<svg height="1000" width="1142.857" xmlns="http://www.w3.org/2000/svg"><path d="M642.816 500.032q0 -58.032 -22.599 -110.763t-61.101 -91.233 -91.233 -61.101 -110.763 -22.599 -110.763 22.599 -91.233 61.101 -61.101 91.233 -22.599 110.763 22.599 110.763 61.101 91.233 91.233 61.101 110.763 22.599 110.763 -22.599 91.233 -61.101 61.101 -91.233 22.599 -110.763zm428.544 0q0 -58.032 -22.599 -110.763t-61.101 -91.233 -91.233 -61.101 -110.763 -22.599h-215.388q66.402 50.22 105.183 124.992t38.781 160.704 -38.781 160.704 -105.183 124.992h215.388q58.032 0 110.763 -22.599t91.233 -61.101 61.101 -91.233 22.599 -110.763zm71.424 0q0 72.54 -28.458 138.663t-76.167 113.832 -113.832 76.167 -138.663 28.458h-428.544q-72.54 0 -138.663 -28.458t-113.832 -76.167 -76.167 -113.832 -28.458 -138.663 28.458 -138.663 76.167 -113.832 113.832 -76.167 138.663 -28.458h428.544q72.54 0 138.663 28.458t113.832 76.167 76.167 113.832 28.458 138.663z"/></svg>