<svg height="1000" width="1142.9" xmlns="http://www.w3.org/2000/svg"><path d="M642.9 500q0 -58 -22.6 -110.8T559.2 298t-91.3 -61.1T357.1 214.3t-110.7 22.6T155.1 298 94 389.2 71.4 500 94 610.8t61.1 91.2 91.3 61.1 110.7 22.6 110.8 -22.6T559.2 702t61.1 -91.2T642.9 500zm428.5 0q0 -58 -22.6 -110.8T987.7 298t-91.2 -61.1T785.7 214.3H570.3q66.4 50.2 105.2 125T714.3 500t-38.8 160.7 -105.2 125h215.4q58.1 0 110.8 -22.6T987.7 702t61.1 -91.2T1071.4 500zm71.5 0q0 72.5 -28.5 138.7t-76.2 113.8 -113.8 76.2 -138.7 28.4H357.1q-72.5 0 -138.6 -28.4T104.6 752.5 28.5 638.7 0 500 28.5 361.3t76.1 -113.8 113.9 -76.2 138.6 -28.4h428.6q72.6 0 138.7 28.4t113.8 76.2 76.2 113.8 28.5 138.7z"/></svg>