<svg height="1000" width="1101" xmlns="http://www.w3.org/2000/svg"><path d="M478.2 303.6v65.3q0 7.2 -5.3 12.2t-12.5 5.1H294.1v453.1q0 7.2 -5 12.5t-12.3 5.3h-75.3q-7.3 0 -12.6 -5t-5.3 -12.8V386.2H17.9q-7.3 0 -12.6 -5.1T0 368.9v-65.3q0 -7.8 5 -12.9t12.9 -5h442.5q7.2 0 12.5 5.3t5.3 12.6zm579.3 -1.7l42.9 536.3q.6 7.2 -4.4 13.4 -5.6 5.5 -12.9 5.5h-74.7q-6.7 0 -11.7 -4.7T991.1 841L965.4 512.8 859.9 750q-4.4 10.6 -16.1 10.6h-67q-11.2 0 -16.2 -10.6L655.7 511.7 630.6 841q-.6 6.7 -5.6 11.4t-11.7 4.7h-75.4q-7.2 0 -12.8 -5.5 -5 -5.6 -5 -13.4l43.5 -536.3q.6 -6.7 5.6 -11.4t11.7 -4.8h79.3q11.1 0 16.1 10.6l122.8 290.2q5.6 13.4 11.2 28.5 1.6 -4 5.3 -13.7t5.8 -14.8L944.8 296.3q5 -10.6 16.1 -10.6h78.7q7.3 0 12.3 4.8t5.6 11.4z"/></svg>