<svg height="1000" width="857.143" xmlns="http://www.w3.org/2000/svg"><path d="M607.104 .064q103.23 0 176.607 52.173t73.377 126.387v499.968q0 72.54 -70.029 123.876t-170.469 54.126l118.854 112.716q8.928 8.37 4.464 19.53t-16.74 11.16h-589.248q-12.276 0 -16.74 -11.16t4.464 -19.53l118.854 -112.716q-100.44 -2.79 -170.469 -54.126t-70.029 -123.876v-499.968q0 -74.214 73.377 -126.387t176.607 -52.173h357.12zm-178.56 749.952q44.64 0 75.888 -31.248t31.248 -75.888 -31.248 -75.888 -75.888 -31.248 -75.888 31.248 -31.248 75.888 31.248 75.888 75.888 31.248zm321.408 -321.408v-285.696h-642.816v285.696h642.816z"/></svg>