<svg height="1000" width="1000" xmlns="http://www.w3.org/2000/svg"><path d="M714.24 17.92q0 -7.812 5.022 -12.834t12.834 -5.022h160.704q14.508 0 25.11 10.602t10.602 25.11v160.704q0 7.812 -5.022 12.834t-12.834 5.022h-35.712q-7.812 0 -12.834 -5.022t-5.022 -12.834v-74.772l-141.732 142.29q70.308 88.164 70.308 200.322 0 123.318 -82.305 214.551t-203.391 104.625v73.656h53.568q7.812 0 12.834 5.022t5.022 12.834v35.712q0 7.812 -5.022 12.834t-12.834 5.022h-53.568v53.568q0 7.812 -5.022 12.834t-12.834 5.022h-35.712q-7.812 0 -12.834 -5.022t-5.022 -12.834v-53.568h-53.568q-7.812 0 -12.834 -5.022t-5.022 -12.834v-35.712q0 -7.812 5.022 -12.834t12.834 -5.022h53.568v-73.656q-121.086 -13.392 -203.391 -104.625t-82.305 -214.551q0 -112.158 70.308 -200.322l-29.016 -29.574 -56.358 61.938q-5.022 5.58 -12.276 5.859t-12.834 -4.185l-26.784 -24.552q-5.58 -4.464 -5.859 -11.997t4.743 -13.113l58.59 -64.17 -61.938 -62.496v74.772q0 7.812 -5.022 12.834t-12.834 5.022h-35.712q-7.812 0 -12.834 -5.022t-5.022 -12.834v-160.704q0 -14.508 10.602 -25.11t25.11 -10.602h160.704q7.812 0 12.834 5.022t5.022 12.834v35.712q0 7.812 -5.022 12.834t-12.834 5.022h-74.214l59.148 59.706 47.988 -52.452q5.022 -5.58 12.276 -5.859t12.834 4.185l26.784 24.552q5.58 4.464 5.859 11.997t-4.743 13.113l-50.22 55.242 31.806 31.248q88.164 -70.308 200.322 -70.308t200.322 70.308l142.29 -141.732h-74.772q-7.812 0 -12.834 -5.022t-5.022 -12.834v-35.712zm-249.984 696.384q103.23 0 176.607 -73.377t73.377 -176.607 -73.377 -176.607 -176.607 -73.377 -176.607 73.377 -73.377 176.607 73.377 176.607 176.607 73.377z"/></svg>