<svg height="1000" width="1000" xmlns="http://www.w3.org/2000/svg"><path d="M714.3 17.9q0 -7.9 5 -12.9t12.8 -5h160.8q14.5 0 25.1 10.6t10.6 25.1v160.7q0 7.8 -5.1 12.9t-12.8 5H875q-7.8 0 -12.8 -5t-5.1 -12.9v-74.7L715.4 264q70.3 88.1 70.3 200.3 0 123.3 -82.3 214.6T500 783.5v73.6h53.6q7.8 0 12.8 5.1t5 12.8v35.7q0 7.8 -5 12.8t-12.8 5.1H500v53.5q0 7.9 -5 12.9t-12.9 5h-35.7q-7.8 0 -12.8 -5t-5 -12.9v-53.5H375q-7.8 0 -12.8 -5.1t-5.1 -12.8V875q0 -7.8 5.1 -12.8t12.8 -5.1h53.6v-73.6Q307.5 770.1 225.2 678.9T142.9 464.3q0 -112.2 70.3 -200.3l-29 -29.6 -56.4 61.9q-5 5.6 -12.3 5.9T102.7 298L75.9 273.4Q70.3 269 70 261.4t4.8 -13.1l58.6 -64.1 -62 -62.5v74.7q0 7.8 -5 12.9t-12.8 5H17.9q-7.9 0 -12.9 -5T0 196.4V35.7Q0 21.2 10.6 10.6T35.7 0h160.7q7.8 0 12.9 5t5 12.9v35.7q0 7.8 -5 12.8t-12.9 5h-74.2l59.2 59.7 48 -52.4q5 -5.6 12.2 -5.9t12.9 4.2l26.7 24.6q5.6 4.4 5.9 12t-4.7 13.1l-50.3 55.2 31.9 31.3q88.1 -70.3 200.3 -70.3t200.3 70.3L806.9 71.4h-74.8q-7.8 0 -12.8 -5t-5 -12.8V17.9zm-250 696.4q103.2 0 176.6 -73.4t73.4 -176.6T640.9 287.7 464.3 214.3t-176.6 73.4 -73.4 176.6 73.4 176.6 176.6 73.4z"/></svg>