<svg height="1000" width="857.143" xmlns="http://www.w3.org/2000/svg"><path d="M571.392 17.92q0 -7.812 5.022 -12.834t12.834 -5.022h160.704q14.508 0 25.11 10.602t10.602 25.11v160.704q0 7.812 -5.022 12.834t-12.834 5.022h-35.712q-7.812 0 -12.834 -5.022t-5.022 -12.834v-74.772l-141.732 142.29q70.308 88.164 70.308 200.322 0 123.318 -82.305 214.551t-203.391 104.625v73.656h53.568q7.812 0 12.834 5.022t5.022 12.834v35.712q0 7.812 -5.022 12.834t-12.834 5.022h-53.568v53.568q0 7.812 -5.022 12.834t-12.834 5.022h-35.712q-7.812 0 -12.834 -5.022t-5.022 -12.834v-53.568h-53.568q-7.812 0 -12.834 -5.022t-5.022 -12.834v-35.712q0 -7.812 5.022 -12.834t12.834 -5.022h53.568v-73.656q-83.142 -8.928 -150.939 -57.474t-104.067 -124.713 -29.574 -162.657q8.928 -113.832 89.28 -197.253t193.626 -96.255q65.844 -7.812 127.224 10.602t110.484 57.474l142.29 -141.732h-74.772q-7.812 0 -12.834 -5.022t-5.022 -12.834v-35.712zm-249.984 696.384q103.23 0 176.607 -73.377t73.377 -176.607 -73.377 -176.607 -176.607 -73.377 -176.607 73.377 -73.377 176.607 73.377 176.607 176.607 73.377z"/></svg>