<svg height="1000" width="857.1" xmlns="http://www.w3.org/2000/svg"><path d="M571.4 17.9q0 -7.9 5.1 -12.9t12.8 -5H750q14.5 0 25.1 10.6t10.6 25.1v160.7q0 7.8 -5 12.9t-12.8 5h-35.8q-7.8 0 -12.8 -5t-5 -12.9v-74.7L572.5 264q70.4 88.1 70.4 200.3 0 123.3 -82.4 214.6T357.1 783.5v73.6h53.6q7.8 0 12.8 5.1t5.1 12.8v35.7q0 7.8 -5.1 12.8t-12.8 5.1h-53.6v53.5q0 7.9 -5 12.9t-12.8 5h-35.7q-7.8 0 -12.9 -5t-5 -12.9v-53.5h-53.6q-7.8 0 -12.8 -5.1t-5 -12.8V875q0 -7.8 5 -12.8t12.8 -5.1h53.6v-73.6Q202.6 774.6 134.8 726T30.7 601.3 1.1 438.6Q10 324.8 90.4 241.4T284 145.1q65.9 -7.8 127.3 10.6t110.5 57.5L664.1 71.4h-74.8q-7.8 0 -12.8 -5t-5.1 -12.8V17.9zm-250 696.4q103.3 0 176.6 -73.4t73.4 -176.6T498 287.7 321.4 214.3t-176.6 73.4T71.4 464.3t73.4 176.6 176.6 73.4z"/></svg>