<svg height="1000" width="785.7" xmlns="http://www.w3.org/2000/svg"><path d="M285.7 767.9V375q0 -7.8 -5 -12.8t-12.8 -5.1h-35.8q-7.8 0 -12.8 5.1t-5 12.8v392.9q0 7.8 5 12.8t12.8 5h35.8q7.8 0 12.8 -5t5 -12.8zm142.9 0V375q0 -7.8 -5.1 -12.8t-12.8 -5.1H375q-7.8 0 -12.8 5.1t-5.1 12.8v392.9q0 7.8 5.1 12.8t12.8 5h35.7q7.8 0 12.8 -5t5.1 -12.8zm142.8 0V375q0 -7.8 -5 -12.8t-12.8 -5.1h-35.7q-7.9 0 -12.9 5.1t-5 12.8v392.9q0 7.8 5 12.8t12.9 5h35.7q7.8 0 12.8 -5t5 -12.8zM267.9 214.3h250L491.1 149q-3.9 -5 -9.5 -6.1H304.7q-5.6 1.1 -9.5 6.1zm517.8 17.8v35.8q0 7.8 -5 12.8t-12.8 5h-53.6v529q0 46.3 -26.2 80.1T625 928.6H160.7q-36.8 0 -63 -32.7T71.4 817V285.7H17.9q-7.9 0 -12.9 -5T0 267.9v-35.8q0 -7.8 5 -12.8t12.9 -5h172.4l39.1 -93.2q8.3 -20.7 30.1 -35.2t44.1 -14.5h178.5q22.4 0 44.1 14.5t30.2 35.2l39 93.2h172.5q7.8 0 12.8 5t5 12.8z"/></svg>