<svg height="1000px" width="785.7142857142858px" xmlns="http://www.w3.org/2000/svg">
  <g>
    <path d="M785.7142857142858 232.1428571428571c0 0 0 35.714 0 35.714c0 5.209 -1.674 9.487 -5.022 12.835c-3.349 3.348 -7.627 5.022 -12.835 5.022c0 0 -53.572 0 -53.572 0c0 0 0 529.018 0 529.018c0 30.878 -8.742 57.571 -26.227 80.078c-17.485 22.508 -38.505 33.762 -63.058 33.762c0 0 -464.286 0 -464.286 0c-24.554 0 -45.573 -10.882 -63.058 -32.646c-17.485 -21.763 -26.228 -48.084 -26.228 -78.962c0 0 0 -531.25 0 -531.25c0 0 -53.571 0 -53.571 0c-5.208 0 -9.487 -1.674 -12.835 -5.022c-3.348 -3.348 -5.022 -7.626 -5.022 -12.835c0 0 0 -35.714 0 -35.714c0 -5.208 1.674 -9.487 5.022 -12.835c3.348 -3.348 7.627 -5.022 12.835 -5.022c0 0 172.433 0 172.433 0c0 0 39.062 -93.192 39.062 -93.192c5.581 -13.765 15.625 -25.484 30.134 -35.156c14.509 -9.673 29.204 -14.509 44.085 -14.509c0 0 178.572 0 178.572 0c14.881 0 29.575 4.836 44.084 14.509c14.509 9.672 24.554 21.391 30.134 35.156c0 0 39.063 93.192 39.063 93.192c0 0 172.433 0 172.433 0c5.208 0 9.486 1.674 12.835 5.022c3.348 3.348 5.022 7.627 5.022 12.835c0 0 0 0 0 0m-517.857 -17.857c0 0 250 0 250 0c0 0 -26.786 -65.29 -26.786 -65.29c-2.604 -3.349 -5.766 -5.395 -9.486 -6.139c0 0 -176.898 0 -176.898 0c-3.72 0.744 -6.882 2.79 -9.486 6.139c0 0 -27.344 65.29 -27.344 65.29m375 600.446c0 0 0 -529.018 0 -529.018c0 0 -500 0 -500 0c0 0 0 529.018 0 529.018c0 15.997 2.697 27.065 8.091 33.203c5.395 6.139 8.65 9.208 9.766 9.208c0 0 464.286 0 464.286 0c4.464 0 8.556 -5.022 12.276 -15.067c3.721 -10.045 5.581 -19.159 5.581 -27.344c0 0 0 0 0 0m-71.429 -404.018c0 0 0 321.429 0 321.429c0 5.208 -1.674 9.487 -5.022 12.835c-3.348 3.348 -7.627 5.022 -12.835 5.022c0 0 -35.714 0 -35.714 0c-5.208 0 -9.487 -1.674 -12.835 -5.022c-3.348 -3.348 -5.022 -7.627 -5.022 -12.835c0 0 0 -321.429 0 -321.429c0 -5.208 1.674 -9.486 5.022 -12.834c3.348 -3.349 7.627 -5.023 12.835 -5.023c0 0 35.714 0 35.714 0c5.208 0 9.487 1.674 12.835 5.023c3.348 3.348 5.022 7.626 5.022 12.834c0 0 0 0 0 0m-142.857 0c0 0 0 321.429 0 321.429c0 5.208 -1.674 9.487 -5.022 12.835c-3.348 3.348 -7.627 5.022 -12.835 5.022c0 0 -35.714 0 -35.714 0c-5.209 0 -9.487 -1.674 -12.835 -5.022c-3.348 -3.348 -5.022 -7.627 -5.022 -12.835c0 0 0 -321.429 0 -321.429c0 -5.208 1.674 -9.486 5.022 -12.834c3.348 -3.349 7.626 -5.023 12.835 -5.023c0 0 35.714 0 35.714 0c5.208 0 9.487 1.674 12.835 5.023c3.348 3.348 5.022 7.626 5.022 12.834c0 0 0 0 0 0m-142.857 0c0 0 0 321.429 0 321.429c0 5.208 -1.674 9.487 -5.022 12.835c-3.349 3.348 -7.627 5.022 -12.835 5.022c0 0 -35.714 0 -35.714 0c-5.209 0 -9.487 -1.674 -12.835 -5.022c-3.348 -3.348 -5.023 -7.627 -5.023 -12.835c0 0 0 -321.429 0 -321.429c0 -5.208 1.675 -9.486 5.023 -12.834c3.348 -3.349 7.626 -5.023 12.835 -5.023c0 0 35.714 0 35.714 0c5.208 0 9.486 1.674 12.835 5.023c3.348 3.348 5.022 7.626 5.022 12.834c0 0 0 0 0 0" />
  </g>
</svg>