<svg height="1000px" width="785.7142857142858px" xmlns="http://www.w3.org/2000/svg">
  <g>
    <path d="M0 267.8571428571428c0 0 0 -35.714 0 -35.714c0 -5.209 1.674 -9.487 5.022 -12.835c3.349 -3.348 7.627 -5.022 12.835 -5.022c0 0 172.433 0 172.433 0c0 0 39.063 -93.192 39.063 -93.192c5.58 -13.765 15.625 -25.484 30.134 -35.157c14.509 -9.672 29.203 -14.509 44.084 -14.509c0 0 178.572 0 178.572 0c14.881 0 29.576 4.837 44.085 14.509c14.509 9.673 24.553 21.392 30.134 35.157c0 0 39.062 93.192 39.062 93.192c0 0 172.433 0 172.433 0c5.208 0 9.487 1.674 12.835 5.022c3.348 3.348 5.022 7.626 5.022 12.835c0 0 0 35.714 0 35.714c0 5.208 -1.674 9.487 -5.022 12.835c-3.348 3.348 -7.627 5.022 -12.835 5.022c0 0 -53.571 0 -53.571 0c0 0 0 529.018 0 529.018c0 30.878 -8.743 57.571 -26.228 80.078c-17.485 22.508 -38.504 33.761 -63.058 33.761c0 0 -464.286 0 -464.286 0c-24.553 0 -45.573 -10.881 -63.058 -32.645c-17.485 -21.763 -26.227 -48.084 -26.227 -78.962c0 0 0 -531.25 0 -531.25c0 0 -53.572 0 -53.572 0c-5.208 0 -9.486 -1.674 -12.835 -5.022c-3.348 -3.348 -5.022 -7.627 -5.022 -12.835c0 0 0 0 0 0m142.857 546.875c0 15.997 2.697 27.065 8.092 33.203c5.394 6.139 8.649 9.208 9.765 9.208c0 0 464.286 0 464.286 0c4.464 0 8.557 -5.023 12.277 -15.067c3.72 -10.045 5.58 -19.159 5.58 -27.344c0 0 0 -529.018 0 -529.018c0 0 -500 0 -500 0c0 0 0 529.018 0 529.018c0 0 0 0 0 0m71.429 -82.589c0 0 0 -321.429 0 -321.429c0 -5.208 1.674 -9.486 5.022 -12.835c3.348 -3.348 7.627 -5.022 12.835 -5.022c0 0 35.714 0 35.714 0c5.208 0 9.487 1.674 12.835 5.022c3.348 3.349 5.022 7.627 5.022 12.835c0 0 0 321.429 0 321.429c0 5.208 -1.674 9.486 -5.022 12.835c-3.348 3.348 -7.627 5.022 -12.835 5.022c0 0 -35.714 0 -35.714 0c-5.208 0 -9.487 -1.674 -12.835 -5.022c-3.348 -3.349 -5.022 -7.627 -5.022 -12.835c0 0 0 0 0 0m53.571 -517.857c0 0 250 0 250 0c0 0 -26.786 -65.291 -26.786 -65.291c-2.604 -3.348 -5.766 -5.394 -9.486 -6.138c0 0 -176.898 0 -176.898 0c-3.72 0.744 -6.882 2.79 -9.486 6.138c0 0 -27.344 65.291 -27.344 65.291m89.286 517.857c0 0 0 -321.429 0 -321.429c0 -5.208 1.674 -9.486 5.022 -12.835c3.348 -3.348 7.627 -5.022 12.835 -5.022c0 0 35.714 0 35.714 0c5.209 0 9.487 1.674 12.835 5.022c3.348 3.349 5.022 7.627 5.022 12.835c0 0 0 321.429 0 321.429c0 5.208 -1.674 9.486 -5.022 12.835c-3.348 3.348 -7.626 5.022 -12.835 5.022c0 0 -35.714 0 -35.714 0c-5.208 0 -9.487 -1.674 -12.835 -5.022c-3.348 -3.349 -5.022 -7.627 -5.022 -12.835c0 0 0 0 0 0m142.857 0c0 0 0 -321.429 0 -321.429c0 -5.208 1.674 -9.486 5.022 -12.835c3.349 -3.348 7.627 -5.022 12.835 -5.022c0 0 35.714 0 35.714 0c5.209 0 9.487 1.674 12.835 5.022c3.348 3.349 5.023 7.627 5.023 12.835c0 0 0 321.429 0 321.429c0 5.208 -1.675 9.486 -5.023 12.835c-3.348 3.348 -7.626 5.022 -12.835 5.022c0 0 -35.714 0 -35.714 0c-5.208 0 -9.486 -1.674 -12.835 -5.022c-3.348 -3.349 -5.022 -7.627 -5.022 -12.835c0 0 0 0 0 0" />
  </g>
</svg>