<svg height="1000" width="785.7" xmlns="http://www.w3.org/2000/svg"><path d="M0 267.9v-35.7q0-7.8 5-12.8t12.8-5h172.4l39.1-93.2q8.4-20.6 30.1-35.2t44.1-14.5h178.6q22.3 0 44.1 14.5t30.1 35.2l39.1 93.2h172.4q7.8 0 12.8 5t5 12.8v35.7q0 7.8-5 12.8t-12.8 5h-53.6v529q0 46.3-26.2 80.1t-63.1 33.8h-464.3q-36.8 0-63.1-32.6t-26.2-79v-531.2h-53.6q-7.8 0-12.8-5t-5-12.8zm142.8 546.8q0 12.3 3.9 22.6t8.1 15.1 5.9 4.7h464.3q1.7 0 5.9-4.7t8.1-15.1 3.9-22.6v-529h-500v529zm71.4-82.6v-321.4q0-7.8 5-12.8t12.8-5h35.7q7.8 0 12.8 5t5 12.8v321.4q0 7.8-5 12.8t-12.8 5h-35.7q-7.8 0-12.8-5t-5-12.8zm53.6-517.8h250l-26.8-65.3q-3.9-5-9.5-6.1h-176.9q-5.6 1.1-9.5 6.1zm89.3 517.8v-321.4q0-7.8 5-12.8t12.8-5h35.7q7.8 0 12.8 5t5 12.8v321.4q0 7.8-5 12.8t-12.8 5h-35.7q-7.8 0-12.8-5t-5-12.8zm142.8 0v-321.4q0-7.8 5-12.8t12.8-5h35.7q7.8 0 12.8 5t5 12.8v321.4q0 7.8-5 12.8t-12.8 5h-35.7q-7.8 0-12.8-5t-5-12.8z"/></svg>