<svg height="1000px" width="648px" xmlns="http://www.w3.org/2000/svg">
  <g>
    <path d="M0 293c0 -5.333 0.167 -10.667 0.5 -16c0.333 -5.333 0.5 -11 0.5 -17c7.333 -4 18.167 -7.333 32.5 -10c14.333 -2.667 30 -5 47 -7c17 -2 34.5 -3.667 52.5 -5c18 -1.333 34.333 -2.333 49 -3c-1.333 -10.667 -1.667 -21.333 -1 -32c0.667 -10.667 3 -21.667 7 -33c0.667 -2.667 2.667 -6.5 6 -11.5c3.333 -5 9.5 -10 18.5 -15c9 -5 22.333 -9.333 40 -13c17.667 -3.667 41.5 -5.5 71.5 -5.5c30 0 53.833 1.833 71.5 5.5c17.667 3.667 31 8 40 13c9 5 15 10.167 18 15.5c3 5.333 5.167 9.333 6.5 12c4 11.333 6.333 22.167 7 32.5c0.667 10.333 0.333 20.833 -1 31.5c14.667 0.667 31 1.667 49 3c18 1.333 35.667 3 53 5c17.333 2 33 4.333 47 7c14 2.667 24.667 6 32 10c0.667 6 1 11.667 1 17c0 0 0 16 0 16c0 0 0 16 0 16c0 5.333 -0.333 11 -1 17c-6.667 4 -16.833 7.333 -30.5 10c-13.667 2.667 -28.833 5 -45.5 7c-16.667 2 -33.667 3.667 -51 5c-17.333 1.333 -33.333 2.333 -48 3c-14.667 0.667 -27 1.167 -37 1.5c-10 0.333 -15.333 0.5 -16 0.5c0 0 -95 1 -95 1c0 0 -13 0 -13 0c0 0 -28 0 -28 0c-12.667 0 -30.667 -0.333 -54 -1c-1.333 0 -6.833 -0.167 -16.5 -0.5c-9.667 -0.333 -21.833 -0.833 -36.5 -1.5c-14.667 -0.667 -30.667 -1.667 -48 -3c-17.333 -1.333 -34.333 -3 -51 -5c-16.667 -2 -31.833 -4.333 -45.5 -7c-13.667 -2.667 -23.833 -6 -30.5 -10c0 -6 -0.167 -11.667 -0.5 -17c-0.333 -5.333 -0.5 -10.667 -0.5 -16c0 0 0 0 0 0m67 98c27.333 3.333 55.5 5.833 84.5 7.5c29 1.667 54.167 2.833 75.5 3.5c6 0.667 13.667 1 23 1c0 0 74 0 74 0c0 0 73 0 73 0c9.333 0 17 -0.333 23 -1c22 -0.667 47.5 -1.833 76.5 -3.5c29 -1.667 57.167 -4.167 84.5 -7.5c-3.333 50.667 -6 102.167 -8 154.5c-2 52.333 -4.333 103.833 -7 154.5c-0.667 12.667 -1.167 26.833 -1.5 42.5c-0.333 15.667 -1 30.833 -2 45.5c-1 14.667 -3 28.167 -6 40.5c-3 12.333 -7.833 21.833 -14.5 28.5c-8 7.333 -22 12.167 -42 14.5c-20 2.333 -39.333 3.5 -58 3.5c0 0 -236 0 -236 0c-19.333 0 -38.833 -1.167 -58.5 -3.5c-19.667 -2.333 -33.5 -7.167 -41.5 -14.5c-6.667 -6.667 -11.5 -16.167 -14.5 -28.5c-3 -12.333 -5 -25.833 -6 -40.5c-1 -14.667 -1.667 -29.833 -2 -45.5c-0.333 -15.667 -0.833 -29.833 -1.5 -42.5c-2.667 -50.667 -5.167 -102.167 -7.5 -154.5c-2.333 -52.333 -4.833 -103.833 -7.5 -154.5c0 0 0 0 0 0m80 101c0.667 10 1 19.333 1 28c0 8.667 0.333 16 1 22c0 7.333 0.333 13.667 1 19c1.333 22.667 2.5 45.333 3.5 68c1 22.667 2.167 45 3.5 67c0.667 5.333 1 11 1 17c0 0 0 20 0 20c0 0 0 12 0 12c0 4 0.167 8.667 0.5 14c0.333 5.333 0.833 11.667 1.5 19c0.667 5.333 3.833 10 9.5 14c5.667 4 10.167 6 13.5 6c3.333 0.667 6.667 1 10 1c3.333 0 6 0.333 8 1c0 0 11 0 11 0c3.333 0 5 -6.333 5 -19c0 0 0 -286 0 -286c0 -5.333 -1.833 -9.833 -5.5 -13.5c-3.667 -3.667 -8.167 -5.5 -13.5 -5.5c0 0 -33 -2 -33 -2c-5.333 0 -9.667 1.667 -13 5c-3.333 3.333 -5 7.667 -5 13c0 0 0 0 0 0m108.5 -274c0.333 4 0.833 9 1.5 15c6 -0.667 12.667 -1 20 -1c0 0 47 0 47 0c0 0 67 1 67 1c0.667 -6 1.167 -11 1.5 -15c0.333 -4 0.167 -7.667 -0.5 -11c-7.333 -2 -17.167 -3.5 -29.5 -4.5c-12.333 -1 -25.167 -1.5 -38.5 -1.5c-13.333 0 -26.167 0.5 -38.5 1.5c-12.333 1 -22.167 2.5 -29.5 4.5c-0.667 3.333 -0.833 7 -0.5 11c0 0 0 0 0 0m36.5 563c0 5.333 1.667 9.833 5 13.5c3.333 3.667 7.667 5.5 13 5.5c0 0 28 0 28 0c5.333 0 9.833 -1.833 13.5 -5.5c3.667 -3.667 5.5 -8.167 5.5 -13.5c0 0 0 -285 0 -285c0 -5.333 -3.667 -9.667 -11 -13c-7.333 -3.333 -12 -5 -14 -5c0 0 -15 0 -15 0c-2 0 -6.667 1.667 -14 5c-7.333 3.333 -11 7.667 -11 13c0 0 0 285 0 285c0 0 0 0 0 0m140 0c0 12.667 1.333 19 4 19c0 0 11 0 11 0c2 -0.667 6.333 -1.167 13 -1.5c6.667 -0.333 11.667 -0.5 15 -0.5c3.333 -0.667 6.167 -2.833 8.5 -6.5c2.333 -3.667 3.833 -8.167 4.5 -13.5c0 -7.333 0.167 -13.667 0.5 -19c0.333 -5.333 0.5 -10 0.5 -14c0 -4.667 0.333 -8.667 1 -12c0 0 0 -20 0 -20c0 -6 0.333 -11.667 1 -17c1.333 -22 2.333 -44.167 3 -66.5c0.667 -22.333 1.667 -44.833 3 -67.5c0 -6 0.333 -12.667 1 -20c0.667 -6 1.167 -13.333 1.5 -22c0.333 -8.667 0.833 -18 1.5 -28c0 -5.333 -1.667 -9.667 -5 -13c-3.333 -3.333 -7.667 -5 -13 -5c0 0 -33 2 -33 2c-5.333 0 -9.667 1.833 -13 5.5c-3.333 3.667 -5 8.167 -5 13.5c0 0 0 286 0 286c0 0 0 0 0 0" />
  </g>
</svg>