<svg height="1000" width="786" xmlns="http://www.w3.org/2000/svg"><path d="M0 267.904l0-35.712q0-7.812 5.022-12.834t12.834-5.022l172.422 0l39.06-93.186q8.37-20.646 30.132-35.154t44.082-14.508l178.56 0q22.32 0 44.082 14.508t30.132 35.154l39.06 93.186l172.422 0q7.812 0 12.834 5.022t5.022 12.834l0 35.712q0 7.812-5.022 12.834t-12.834 5.022l-53.568 0l0 528.984q0 46.314-26.226 80.073t-63.054 33.759l-464.256 0q-36.828 0-63.054-32.643t-26.226-78.957l0-531.216l-53.568 0q-7.812 0-12.834-5.022t-5.022-12.834zm142.848 546.84q0 12.276 3.906 22.599t8.091 15.066 5.859 4.743l464.256 0q1.674 0 5.859-4.743t8.091-15.066 3.906-22.599l0-528.984l-499.968 0l0 528.984zm71.424-82.584l0-321.408q0-7.812 5.022-12.834t12.834-5.022l35.712 0q7.812 0 12.834 5.022t5.022 12.834l0 321.408q0 7.812-5.022 12.834t-12.834 5.022l-35.712 0q-7.812 0-12.834-5.022t-5.022-12.834zm53.568-517.824l249.984 0l-26.784-65.286q-3.906-5.022-9.486-6.138l-176.886 0q-5.58 1.116-9.486 6.138zm89.28 517.824l0-321.408q0-7.812 5.022-12.834t12.834-5.022l35.712 0q7.812 0 12.834 5.022t5.022 12.834l0 321.408q0 7.812-5.022 12.834t-12.834 5.022l-35.712 0q-7.812 0-12.834-5.022t-5.022-12.834zm142.848 0l0-321.408q0-7.812 5.022-12.834t12.834-5.022l35.712 0q7.812 0 12.834 5.022t5.022 12.834l0 321.408q0 7.812-5.022 12.834t-12.834 5.022l-35.712 0q-7.812 0-12.834-5.022t-5.022-12.834z"/></svg>