<svg height="1000px" width="636.71875px" xmlns="http://www.w3.org/2000/svg">
  <g>
    <path d="M0 308.59375c0 0 0 -16.846 0 -16.846c0 0 0 -17.578 0 -17.578c0 0 0.326 -5.859 0.977 -17.578c8.138 -4.557 19.694 -8.382 34.668 -11.475c14.973 -3.092 30.924 -5.615 47.851 -7.568c16.927 -1.953 33.61 -3.418 50.049 -4.394c16.439 -0.977 29.215 -1.791 38.33 -2.442c-2.604 -26.693 -0.732 -47.526 5.615 -62.5c6.348 -14.974 16.032 -26.123 29.053 -33.447c13.021 -7.324 29.053 -12.044 48.096 -14.16c19.043 -2.116 40.446 -3.174 64.209 -3.174c17.903 0 35.726 0.488 53.466 1.465c17.741 0.976 33.61 4.313 47.608 10.009c13.997 5.697 25.146 14.568 33.447 26.612c8.301 12.044 12.451 29.134 12.451 51.269c0 0 0 11.719 0 11.719c0 0 -0.325 4.069 -0.976 12.207c9.44 0.651 22.298 1.465 38.574 2.442c16.276 0.976 32.959 2.441 50.049 4.394c17.09 1.953 33.284 4.476 48.584 7.568c15.299 3.093 27.018 6.918 35.156 11.475c0 0 0 35.156 0 35.156c0 0 0 33.692 0 33.692c-12.044 6.51 -32.064 11.8 -60.059 15.869c-27.994 4.069 -58.186 7.161 -90.576 9.277c-32.389 2.116 -63.883 3.337 -94.482 3.662c-30.599 0.326 -55.013 0.489 -73.242 0.489c-17.904 0 -42.318 -0.163 -73.243 -0.489c-30.924 -0.325 -62.581 -1.546 -94.97 -3.662c-32.39 -2.116 -62.419 -5.127 -90.088 -9.033c-27.669 -3.906 -47.526 -9.277 -59.57 -16.113c-0.651 -5.209 -0.977 -10.824 -0.977 -16.846c0 0 0 0 0 0m64.941 498.779c0 0 0 -408.691 0 -408.691c40.039 5.208 79.753 8.626 119.141 10.254c39.388 1.627 79.102 2.441 119.141 2.441c0 0 15.625 0 15.625 0c41.992 -0.651 83.984 -1.627 125.976 -2.929c41.992 -1.303 83.985 -4.558 125.977 -9.766c0 0 0 408.691 0 408.691c0 20.508 -7.162 38.168 -21.485 52.979c-14.323 14.811 -31.738 22.217 -52.246 22.217c0 0 -356.933 0 -356.933 0c-20.508 0 -38.168 -7.325 -52.979 -21.973c-14.811 -14.648 -22.217 -32.389 -22.217 -53.223c0 0 0 0 0 0m83.008 -21.972c0 5.208 1.709 9.521 5.127 12.939c3.418 3.418 7.731 5.127 12.94 5.127c0 0 19.043 0 19.043 0c5.208 0 9.684 -1.628 13.427 -4.883c3.744 -3.255 5.616 -7.65 5.616 -13.183c0 0 0 -299.805 0 -299.805c0 -5.208 -1.872 -9.684 -5.616 -13.428c-3.743 -3.743 -8.219 -5.615 -13.427 -5.615c0 0 -19.043 0 -19.043 0c-5.209 0 -9.522 1.872 -12.94 5.615c-3.418 3.744 -5.127 8.22 -5.127 13.428c0 0 0 299.805 0 299.805c0 0 0 0 0 0m98.145 -578.614c0 3.256 0.163 6.836 0.488 10.743c0.326 3.906 0.814 7.649 1.465 11.23c46.875 -0.651 94.238 -0.651 142.09 0c0 -3.906 0.325 -7.731 0.976 -11.475c0.651 -3.743 0.651 -7.242 0 -10.498c0 0 0 -7.324 0 -7.324c-11.393 -3.255 -23.437 -5.045 -36.133 -5.371c-12.695 -0.325 -24.739 -0.488 -36.132 -0.488c-12.045 0 -24.333 0.163 -36.866 0.488c-12.532 0.326 -24.495 2.116 -35.888 5.371c0 0 0 7.324 0 7.324c0 0 0 0 0 0m44.922 578.614c0 5.208 1.627 9.521 4.882 12.939c3.256 3.418 7.65 5.127 13.184 5.127c0 0 19.043 0 19.043 0c5.208 0 9.684 -1.628 13.428 -4.883c3.743 -3.255 5.615 -7.65 5.615 -13.183c0 0 0 -299.805 0 -299.805c0 -5.208 -1.872 -9.684 -5.615 -13.428c-3.744 -3.743 -8.22 -5.615 -13.428 -5.615c0 0 -19.043 0 -19.043 0c-5.208 0 -9.521 1.872 -12.939 5.615c-3.418 3.744 -5.127 8.22 -5.127 13.428c0 0 0 299.805 0 299.805c0 0 0 0 0 0m142.089 0c0 5.208 1.791 9.521 5.372 12.939c3.58 3.418 8.138 5.127 13.671 5.127c0 0 19.043 0 19.043 0c5.209 0 9.685 -1.628 13.428 -4.883c3.744 -3.255 5.615 -7.65 5.615 -13.183c0 0 0 -299.805 0 -299.805c0 -5.208 -1.871 -9.684 -5.615 -13.428c-3.743 -3.743 -8.219 -5.615 -13.428 -5.615c0 0 -19.043 0 -19.043 0c-5.208 0 -9.684 1.872 -13.427 5.615c-3.744 3.744 -5.616 8.22 -5.616 13.428c0 0 0 299.805 0 299.805c0 0 0 0 0 0" />
  </g>
</svg>