<svg height="1000" width="857.143" xmlns="http://www.w3.org/2000/svg"><path d="M839.232 821.44q0 14.508 -10.602 25.11t-25.11 10.602h-257.796q.558 9.486 3.348 48.825t2.79 60.543q0 13.95 -10.044 23.715t-23.994 9.765h-178.56q-13.95 0 -23.994 -9.765t-10.044 -23.715q0 -21.204 2.79 -60.543t3.348 -48.825h-257.796q-14.508 0 -25.11 -10.602t-10.602 -25.11 10.602 -25.11l224.316 -224.874h-127.782q-14.508 0 -25.11 -10.602t-10.602 -25.11 10.602 -25.11l224.316 -224.874h-109.926q-14.508 0 -25.11 -10.602t-10.602 -25.11 10.602 -25.11l214.272 -214.272q10.602 -10.602 25.11 -10.602t25.11 10.602l214.272 214.272q10.602 10.602 10.602 25.11t-10.602 25.11 -25.11 10.602h-109.926l224.316 224.874q10.602 10.602 10.602 25.11t-10.602 25.11 -25.11 10.602h-127.782l224.316 224.874q10.602 10.602 10.602 25.11z"/></svg>