<svg height="1000" width="857.143" xmlns="http://www.w3.org/2000/svg"><path d="M392.832 750.016v-571.392q0 -7.812 -5.022 -12.834t-12.834 -5.022h-267.84q-7.812 0 -12.834 5.022t-5.022 12.834v571.392q0 7.812 5.022 12.834t12.834 5.022h267.84q7.812 0 12.834 -5.022t5.022 -12.834zm374.976 -214.272v-357.12q0 -7.812 -5.022 -12.834t-12.834 -5.022h-267.84q-7.812 0 -12.834 5.022t-5.022 12.834v357.12q0 7.812 5.022 12.834t12.834 5.022h267.84q7.812 0 12.834 -5.022t5.022 -12.834zm89.28 -428.544v785.664q0 14.508 -10.602 25.11t-25.11 10.602h-785.664q-14.508 0 -25.11 -10.602t-10.602 -25.11v-785.664q0 -14.508 10.602 -25.11t25.11 -10.602h785.664q14.508 0 25.11 10.602t10.602 25.11z"/></svg>