<svg height="1000" width="1285.7" xmlns="http://www.w3.org/2000/svg"><path d="M363.3 556.4q0 21.7 -15.4 37.1t-36.5 15.3q-21.8 0 -37.1 -15.3t-15.4 -37.1q0 -21.2 15.4 -36.6t37.1 -15.3q21.2 0 36.5 15.3t15.4 36.6zm644 -.6q0 21.8 -15.4 37.1t-37.1 15.4 -37.1 -15.4 -15.4 -37.1T917.7 519t37.1 -15.1 37.1 15.1 15.4 36.8zm-580.4 .6q0 -44.1 -31.5 -75.9t-76.2 -31.8T243 480.2t-31.5 76.2 31.5 76.1 76.2 31.6 76.2 -31.6 31.5 -76.1zm643.4 -.6q0 -44.6 -31.5 -76.2t-76.2 -31.5q-44.1 0 -75.9 31.5t-31.8 76.2 31.5 76.2 76.2 31.5 76.2 -31.5 31.5 -76.2zm-596 .6q0 64.7 -45.4 110.2t-109.7 45.5q-64.7 0 -110.2 -45.8T163.5 556.4t45.8 -109.7 109.9 -45.5 109.7 45.5 45.4 109.7zm644 -.6q0 64.2 -45.5 109.7t-110.2 45.4q-64.2 0 -109.6 -45.4T807.5 555.8 853 446.1t109.6 -45.4q64.7 0 110.2 45.4t45.5 109.7zm-537.9 1.7q0 -106.6 -75.7 -182.2T322.5 299.7q-69.7 0 -128.9 34.6t-93.7 94T65.3 557.5t34.6 129.2 93.7 94 128.9 34.6q106.6 0 182.2 -75.6t75.7 -182.2zM953.1 237.7Q811.4 175.8 642.9 175.8q-178.1 0 -319.8 61.4 65.3 0 124.4 25.4t101.9 68.3T617.5 433t25.4 124.5q0 -64.2 24.2 -122.5T733 334.3t99 -68.7 121.1 -27.9zm267.3 319.8q0 -106.6 -75.3 -182.2T963.2 299.7 781 375.3t-75.6 182.2T781 739.7t182.2 75.6 181.9 -75.6 75.3 -182.2zM1072 241.6h213.7q-24.5 28.5 -41.8 63.9t-22.4 63.9q61.4 84.3 61.4 188.1 0 87 -42.9 160.7t-116.7 116.3 -160.1 42.7q-74.2 0 -139 -31.2T714.8 759.5q-26.2 31.2 -71.9 99.9Q636.7 847.1 613 813.3t-41.6 -54.4q-44.6 55.3 -109.6 86.8t-139.3 31.5q-86.5 0 -160.1 -42.7T45.8 718.2 2.8 557.5q0 -103.8 61.4 -188.1Q59.2 341 41.9 305.5T0 241.6h203.7q83.1 -55.8 198.1 -87.3t241.1 -31.5q125 0 234.9 31.2t194.2 87.6z"/></svg>