<svg height="1000" width="1000" xmlns="http://www.w3.org/2000/svg"><path d="M357.12 785.728q0 -29.016 -21.204 -50.22t-50.22 -21.204 -50.22 21.204 -21.204 50.22 21.204 50.22 50.22 21.204 50.22 -21.204 21.204 -50.22zm-214.272 -285.696h214.272v-142.848h-88.164q-7.254 0 -12.276 5.022l-108.81 108.81q-5.022 5.022 -5.022 12.276v16.74zm714.24 285.696q0 -29.016 -21.204 -50.22t-50.22 -21.204 -50.22 21.204 -21.204 50.22 21.204 50.22 50.22 21.204 50.22 -21.204 21.204 -50.22zm142.848 -607.104v571.392q0 8.37 -2.232 14.787t-7.533 10.323 -9.207 6.417 -13.113 3.348 -12.555 1.116 -14.229 0 -12.555 -.279q0 59.148 -41.85 100.998t-100.998 41.85 -100.998 -41.85 -41.85 -100.998h-214.272q0 59.148 -41.85 100.998t-100.998 41.85 -100.998 -41.85 -41.85 -100.998h-35.712q-1.674 0 -12.555 .279t-14.229 0 -12.555 -1.116 -13.113 -3.348 -9.207 -6.417 -7.533 -10.323 -2.232 -14.787q0 -14.508 10.602 -25.11t25.11 -10.602v-178.56q0 -4.464 -.279 -19.53t0 -21.204 1.395 -19.251 3.627 -20.646 7.812 -17.019 12.555 -16.74l110.484 -110.484q10.602 -10.602 28.179 -17.856t32.643 -7.254h89.28v-107.136q0 -14.508 10.602 -25.11t25.11 -10.602h571.392q14.508 0 25.11 10.602t10.602 25.11z"/></svg>