<svg height="1000px" width="1000px" xmlns="http://www.w3.org/2000/svg">
  <g>
    <path d="M35.714285714285715 751.6741071428571c0 -10.789 3.534 -19.717 10.603 -26.786c7.068 -7.068 15.439 -10.602 25.111 -10.602c0 0 0 -178.572 0 -178.572c0 -2.976 -0.093 -9.486 -0.279 -19.531c-0.186 -10.045 -0.186 -17.113 0 -21.205c0.186 -4.093 0.651 -10.51 1.395 -19.253c0.744 -8.37 1.86 -15.16 3.349 -20.368c4.464 -13.393 11.346 -24.74 20.647 -34.04c0 0 110.491 -110.491 110.491 -110.491c7.068 -7.069 16.462 -13.021 28.181 -17.857c11.719 -4.837 22.6 -7.255 32.645 -7.255c0 0 89.286 0 89.286 0c0 0 0 -107.143 0 -107.143c0 -9.672 3.534 -18.043 10.602 -25.111c7.069 -7.069 15.439 -10.603 25.112 -10.603c0 0 571.428 0 571.428 0c9.673 0 18.044 3.534 25.112 10.603c7.068 7.068 10.603 15.439 10.603 25.111c0 0 0 571.429 0 571.429c0 11.905 -2.511 19.717 -7.534 23.437c-5.022 3.721 -8.835 6.418 -11.439 8.092c-2.605 1.674 -6.976 2.79 -13.114 3.348c-6.139 0.558 -10.324 0.93 -12.556 1.116c-2.232 0.186 -6.976 0.186 -14.23 0c-7.255 -0.186 -11.44 -0.279 -12.556 -0.279c0 39.435 -13.951 73.103 -41.853 101.005c-27.901 27.901 -61.569 41.852 -101.004 41.852c-39.435 0 -73.103 -13.951 -101.004 -41.852c-27.902 -27.902 -41.853 -61.57 -41.853 -101.005c0 0 -214.286 0 -214.286 0c0 39.435 -13.951 73.103 -41.853 101.005c-27.901 27.901 -61.569 41.852 -101.004 41.852c-39.435 0 -73.103 -13.951 -101.004 -41.852c-27.902 -27.902 -41.853 -61.57 -41.853 -101.005c0 0 -35.714 0 -35.714 0c-1.116 0 -5.302 0.093 -12.556 0.279c-7.255 0.186 -11.998 0.186 -14.23 0c-2.232 -0.186 -6.418 -0.558 -12.556 -1.116c-6.138 -0.558 -10.51 -1.674 -13.114 -3.348c-2.232 -1.674 -5.208 -3.813 -8.928 -6.418c-6.697 -4.836 -10.045 -12.648 -10.045 -23.437c0 0 0 0 0 0m107.143 -251.674c0 0 214.286 0 214.286 0c0 0 0 -142.857 0 -142.857c0 0 -88.17 0 -88.17 0c-4.836 0 -8.929 1.674 -12.277 5.022c0 0 -108.817 108.817 -108.817 108.817c-3.348 3.348 -5.022 7.441 -5.022 12.277c0 0 0 16.741 0 16.741c0 0 0 0 0 0m71.428 285.714c0 19.345 7.069 36.086 21.206 50.223c14.137 14.137 30.878 21.206 50.223 21.206c19.345 0 36.086 -7.069 50.223 -21.206c14.137 -14.137 21.206 -30.878 21.206 -50.223c0 -19.345 -7.069 -36.086 -21.206 -50.223c-14.137 -14.137 -30.878 -21.205 -50.223 -21.205c-19.345 0 -36.086 7.068 -50.223 21.205c-14.137 14.137 -21.206 30.878 -21.206 50.223c0 0 0 0 0 0m500 0c0 19.345 7.069 36.086 21.206 50.223c14.137 14.137 30.878 21.206 50.223 21.206c19.345 0 36.086 -7.069 50.223 -21.206c14.137 -14.137 21.206 -30.878 21.206 -50.223c0 -19.345 -7.069 -36.086 -21.206 -50.223c-14.137 -14.137 -30.878 -21.205 -50.223 -21.205c-19.345 0 -36.086 7.068 -50.223 21.205c-14.137 14.137 -21.206 30.878 -21.206 50.223c0 0 0 0 0 0" />
  </g>
</svg>