<svg height="1000" width="1000" xmlns="http://www.w3.org/2000/svg"><path d="M35.7 750q0-14.5 10.6-25.1t25.1-10.6v-178.6q0-4.5-.3-19.5t0-21.2 1.4-19.3 3.6-20.6 7.8-17 12.6-16.7l110.5-110.5q10.6-10.6 28.2-17.9t32.6-7.3h89.3v-107.1q0-14.5 10.6-25.1t25.1-10.6h571.4q14.5 0 25.1 10.6t10.6 25.1v571.4q0 8.4-2.2 14.8t-7.5 10.3-9.2 6.4-13.1 3.3-12.6 1.1-14.2 0-12.6-.3q0 59.1-41.9 101t-101 41.9-101-41.9-41.9-101h-214.3q0 59.1-41.9 101t-101 41.9-101-41.9-41.9-101h-35.7q-1.7 0-12.6.3t-14.2 0-12.6-1.1-13.1-3.3-9.2-6.4-7.5-10.3-2.2-14.8zm107.1-250h214.3v-142.8h-88.2q-7.3 0-12.3 5l-108.8 108.8q-5 5-5 12.3v16.7zm71.4 285.7q0 29 21.2 50.2t50.2 21.2 50.2-21.2 21.2-50.2-21.2-50.2-50.2-21.2-50.2 21.2-21.2 50.2zm500 0q0 29 21.2 50.2t50.2 21.2 50.2-21.2 21.2-50.2-21.2-50.2-50.2-21.2-50.2 21.2-21.2 50.2z"/></svg>