<svg height="1000" width="965" xmlns="http://www.w3.org/2000/svg"><path d="M0 750.016q0-14.508 10.602-25.11t25.11-10.602l0-178.56q0-4.464-.279-19.53t0-21.204 1.395-19.251 3.627-20.646 7.812-17.019 12.555-16.74l110.484-110.484q10.602-10.602 28.179-17.856t32.643-7.254l89.28 0l0-107.136q0-14.508 10.602-25.11t25.11-10.602l571.392 0q14.508 0 25.11 10.602t10.602 25.11l0 571.392q0 8.37-2.232 14.787t-7.533 10.323-9.207 6.417-13.113 3.348-12.555 1.116-14.229 0-12.555-.279q0 59.148-41.85 100.998t-100.998 41.85-100.998-41.85-41.85-100.998l-214.272 0q0 59.148-41.85 100.998t-100.998 41.85-100.998-41.85-41.85-100.998l-35.712 0q-1.674 0-12.555.279t-14.229 0-12.555-1.116-13.113-3.348-9.207-6.417-7.533-10.323-2.232-14.787zm107.136-249.984l214.272 0l0-142.848l-88.164 0q-7.254 0-12.276 5.022l-108.81 108.81q-5.022 5.022-5.022 12.276l0 16.74zm71.424 285.696q0 29.016 21.204 50.22t50.22 21.204 50.22-21.204 21.204-50.22-21.204-50.22-50.22-21.204-50.22 21.204-21.204 50.22zm499.968 0q0 29.016 21.204 50.22t50.22 21.204 50.22-21.204 21.204-50.22-21.204-50.22-50.22-21.204-50.22 21.204-21.204 50.22z"/></svg>