<svg height="1000px" width="1000px" xmlns="http://www.w3.org/2000/svg">
  <g>
    <path d="M1000 178.57142857142856c0 0 0 571.429 0 571.429c0 11.904 -2.511 19.717 -7.533 23.437c-5.023 3.72 -8.836 6.417 -11.44 8.092c-2.604 1.674 -6.976 2.79 -13.114 3.348c-6.138 0.558 -10.324 0.93 -12.556 1.116c-2.232 0.186 -6.975 0.186 -14.23 0c-7.254 -0.186 -11.439 -0.279 -12.556 -0.279c0 39.434 -13.95 73.103 -41.852 101.004c-27.902 27.902 -61.57 41.853 -101.005 41.853c-39.434 0 -73.102 -13.951 -101.004 -41.853c-27.902 -27.901 -41.853 -61.57 -41.853 -101.004c0 0 -214.286 0 -214.286 0c0 39.434 -13.95 73.103 -41.852 101.004c-27.902 27.902 -61.57 41.853 -101.005 41.853c-39.434 0 -73.102 -13.951 -101.004 -41.853c-27.902 -27.901 -41.853 -61.57 -41.853 -101.004c0 0 -35.714 0 -35.714 0c-1.116 0 -5.301 0.093 -12.556 0.279c-7.254 0.186 -11.998 0.186 -14.23 0c-2.232 -0.186 -6.417 -0.558 -12.556 -1.116c-6.138 -0.558 -10.509 -1.674 -13.113 -3.348c-2.233 -1.675 -5.209 -3.814 -8.929 -6.418c-6.696 -4.836 -10.045 -12.649 -10.045 -23.437c0 -10.789 3.535 -19.718 10.603 -26.786c7.068 -7.068 15.439 -10.603 25.112 -10.603c0 0 0 -178.571 0 -178.571c0 -2.976 -0.093 -9.487 -0.279 -19.531c-0.186 -10.045 -0.186 -17.113 0 -21.206c0.186 -4.092 0.651 -10.509 1.395 -19.252c0.744 -8.371 1.86 -15.16 3.348 -20.368c4.464 -13.393 11.347 -24.74 20.647 -34.04c0 0 110.491 -110.492 110.491 -110.492c7.069 -7.068 16.462 -13.02 28.181 -17.857c11.719 -4.836 22.601 -7.254 32.645 -7.254c0 0 89.286 0 89.286 0c0 0 0 -107.143 0 -107.143c0 -9.673 3.534 -18.043 10.603 -25.112c7.068 -7.068 15.439 -10.602 25.111 -10.602c0 0 571.429 0 571.429 0c9.672 0 18.043 3.534 25.111 10.602c7.069 7.069 10.603 15.439 10.603 25.112c0 0 0 0 0 0m-142.857 607.143c0 -19.345 -7.069 -36.086 -21.205 -50.223c-14.137 -14.137 -30.878 -21.206 -50.224 -21.206c-19.345 0 -36.086 7.069 -50.223 21.206c-14.137 14.137 -21.205 30.878 -21.205 50.223c0 19.345 7.068 36.086 21.205 50.223c14.137 14.137 30.878 21.205 50.223 21.205c19.346 0 36.087 -7.068 50.224 -21.205c14.136 -14.137 21.205 -30.878 21.205 -50.223c0 0 0 0 0 0m-714.286 -285.714c0 0 214.286 0 214.286 0c0 0 0 -142.858 0 -142.858c0 0 -88.17 0 -88.17 0c-4.836 0 -8.928 1.675 -12.277 5.023c0 0 -108.817 108.817 -108.817 108.817c-3.348 3.348 -5.022 7.44 -5.022 12.277c0 0 0 16.741 0 16.741c0 0 0 0 0 0m214.286 285.714c0 -19.345 -7.069 -36.086 -21.205 -50.223c-14.137 -14.137 -30.878 -21.206 -50.224 -21.206c-19.345 0 -36.086 7.069 -50.223 21.206c-14.137 14.137 -21.205 30.878 -21.205 50.223c0 19.345 7.068 36.086 21.205 50.223c14.137 14.137 30.878 21.205 50.223 21.205c19.346 0 36.087 -7.068 50.224 -21.205c14.136 -14.137 21.205 -30.878 21.205 -50.223c0 0 0 0 0 0" />
  </g>
</svg>