<svg height="1000" width="642.857" xmlns="http://www.w3.org/2000/svg"><path d="M642.816 464.32q0 106.578 -52.731 196.974t-143.127 143.127 -196.974 52.731h-89.28q-7.812 0 -12.834 -5.022t-5.022 -12.834v-340.938l-119.97 36.828q-1.674 .558 -5.022 .558 -5.58 0 -10.602 -3.348 -7.254 -5.58 -7.254 -14.508v-71.424q0 -12.834 12.834 -17.298l130.014 -39.618v-51.894l-119.97 36.828q-1.674 .558 -5.022 .558 -5.58 0 -10.602 -3.348 -7.254 -5.58 -7.254 -14.508v-71.424q0 -12.834 12.834 -17.298l130.014 -39.618v-139.5q0 -7.812 5.022 -12.834t12.834 -5.022h89.28q7.812 0 12.834 5.022t5.022 12.834v100.998l209.25 -64.728q8.37 -2.79 15.624 2.79t7.254 14.508v71.424q0 12.834 -12.834 17.298l-219.294 67.518v51.894l209.25 -64.728q8.37 -2.79 15.624 2.79t7.254 14.508v71.424q0 12.834 -12.834 17.298l-219.294 67.518v271.746q104.904 -7.254 177.444 -84.258t72.54 -183.024q0 -7.812 5.022 -12.834t12.834 -5.022h89.28q7.812 0 12.834 5.022t5.022 12.834z"/></svg>