<svg height="1000" width="642.9" xmlns="http://www.w3.org/2000/svg"><path d="M642.9 464.3q0 106.6 -52.8 197T447 804.4t-197 52.7h-89.3q-7.8 0 -12.8 -5t-5 -12.8v-341l-120 36.9q-1.7 .5 -5 .5 -5.6 0 -10.6 -3.3Q0 526.8 0 517.9v-71.5q0 -12.8 12.8 -17.3l130.1 -39.6v-51.9l-120 36.8q-1.7 .6 -5 .6 -5.6 0 -10.6 -3.3Q0 366.1 0 357.1v-71.4q0 -12.8 12.8 -17.3l130.1 -39.6V89.3q0 -7.8 5 -12.8t12.8 -5.1H250q7.8 0 12.8 5.1t5.1 12.8v101l209.2 -64.7q8.4 -2.8 15.6 2.7t7.3 14.6v71.4q0 12.8 -12.8 17.3l-219.3 67.5V351l209.2 -64.7q8.4 -2.8 15.6 2.8t7.3 14.5V375q0 12.8 -12.8 17.3l-219.3 67.5v271.8q104.9 -7.3 177.4 -84.3t72.6 -183q0 -7.8 5 -12.8t12.8 -5.1H625q7.8 0 12.8 5.1t5.1 12.8z"/></svg>