<svg height="1000" width="1000" xmlns="http://www.w3.org/2000/svg"><path d="M250 732.1v107.2q0 7.8 -5 12.8t-12.9 5H125q-7.8 0 -12.8 -5t-5.1 -12.8V732.1q0 -7.8 5.1 -12.8t12.8 -5h107.1q7.9 0 12.9 5t5 12.8zM142.9 517.9V625q0 7.8 -5.1 12.8t-12.8 5.1H17.9Q10 642.9 5 637.8T0 625V517.9Q0 510 5 505t12.9 -5H125q7.8 0 12.8 5t5.1 12.9zm321.4 214.2v107.2q0 7.8 -5 12.8t-12.9 5H339.3q-7.8 0 -12.8 -5t-5.1 -12.8V732.1q0 -7.8 5.1 -12.8t12.8 -5h107.1q7.8 0 12.9 5t5 12.8zM357.1 517.9V625q0 7.8 -5 12.8t-12.8 5.1H232.1q-7.8 0 -12.8 -5.1t-5 -12.8V517.9q0 -7.9 5 -12.9t12.8 -5h107.2q7.8 0 12.8 5t5 12.9zM36.8 428.6q-15.6 0 -26.2 -10.6T0 392.3v-72h286.8v72q0 15.1 -10.6 25.7t-25.6 10.6H36.8zm641.8 303.5v107.2q0 7.8 -5.1 12.8t-12.8 5H553.6q-7.8 0 -12.9 -5t-5 -12.8V732.1q0 -7.8 5 -12.8t12.9 -5h107.1q7.8 0 12.8 5t5.1 12.8zM571.4 517.9V625q0 7.8 -5 12.8t-12.8 5.1H446.4q-7.8 0 -12.8 -5.1t-5 -12.8V517.9q0 -7.9 5 -12.9t12.8 -5h107.2q7.8 0 12.8 5t5 12.9zm321.5 214.2v107.2q0 7.8 -5.1 12.8t-12.8 5H767.9q-7.9 0 -12.9 -5t-5 -12.8V732.1q0 -7.8 5 -12.8t12.9 -5H875q7.8 0 12.8 5t5.1 12.8zM785.7 517.9V625q0 7.8 -5 12.8t-12.8 5.1H660.7q-7.8 0 -12.8 -5.1t-5 -12.8V517.9q0 -7.9 5 -12.9t12.8 -5h107.2q7.8 0 12.8 5t5 12.9zM1000 290.2v7.2H713.2v-5.5q0 -58.1 -213.2 -57 -213.2 .6 -213.2 57v5.5H0v-7.2q0 -9.5 4.7 -24t19 -35.7 36.6 -42.2 61.6 -42.4 89.3 -37.6 125 -26.5T500 71.4t163.5 10.4 125 26.5 89.6 37.6 61.6 42.4 36.6 42.2 19 35.7 4.7 24zm0 227.7V625q0 7.8 -5 12.8t-12.9 5.1H875q-7.8 0 -12.8 -5.1T857.1 625V517.9q0 -7.9 5.1 -12.9t12.8 -5h107.1q7.9 0 12.9 5t5 12.9zm0 -197.6v72q0 15.1 -10.6 25.7t-25.7 10.6H749.4q-15 0 -25.6 -10.6t-10.6 -25.7v-72H1000z"/></svg>