<svg height="1000" width="857.1" xmlns="http://www.w3.org/2000/svg"><path d="M633.9 815.3L599.3 713.2q-24.5 12.2 -57.4 12.2 -20.1 .6 -34.6 -5.8T485.8 702 476 679.4t-2.8 -24.3V433h143.4V324.8H473.8V142.9H368.9q-4.5 0 -5.1 5.5Q361 173 354.1 197t-21.8 53 -43 53 -66.1 38v92h72.6v233.3q0 31.8 12 64.2t36.2 61.9 67.6 47.7 98.4 17q38.5 -.5 76.2 -13.9t47.7 -27.9zM857.1 232.1v535.8q0 66.4 -47.1 113.5t-113.6 47.2H160.7q-66.4 0 -113.5 -47.2T0 767.9V232.1Q0 165.7 47.2 118.6T160.7 71.4h535.7q66.4 0 113.6 47.2t47.1 113.5z"/></svg>