<svg height="1000" width="571.429" xmlns="http://www.w3.org/2000/svg"><path d="M526.752 741.646l44.64 132.246q-12.834 19.53 -61.938 36.828t-98.766 17.856q-58.032 1.116 -106.299 -14.508t-79.515 -41.292 -53.01 -59.148 -30.969 -66.96 -9.207 -65.844v-303.552h-93.744v-119.97q40.176 -14.508 71.982 -38.781t50.778 -50.22 32.364 -56.916 18.972 -55.242 8.37 -49.383q.558 -2.79 2.511 -4.743t4.185 -1.953h136.152v236.592h185.814v140.616h-186.372v289.044q0 16.74 3.627 31.248t12.555 29.295 27.621 23.157 45.477 7.812q43.524 -1.116 74.772 -16.182z"/></svg>