<svg height="1000" width="857.143" xmlns="http://www.w3.org/2000/svg"><path d="M0 767.872v-535.68q0 -66.402 47.151 -113.553t113.553 -47.151h535.68q66.402 0 113.553 47.151t47.151 113.553v535.68q0 66.402 -47.151 113.553t-113.553 47.151h-535.68q-66.402 0 -113.553 -47.151t-47.151 -113.553zm230.454 -325.872h70.866v225.432q0 43.524 9.486 67.518 9.486 23.436 32.922 43.524 23.994 20.646 58.032 31.806 34.596 11.16 78.12 11.16 37.386 0 71.982 -7.812 31.806 -7.254 74.772 -27.342v-100.998q-49.104 31.248 -97.092 31.248 -28.458 0 -49.104 -12.834 -16.182 -9.486 -21.762 -25.11 -6.138 -16.74 -6.138 -71.982v-164.61h152.892v-100.998h-152.892v-162.378h-91.512q-6.138 50.22 -22.32 82.026t-43.524 55.242q-26.784 22.32 -64.728 35.154v90.954z"/></svg>