<svg height="1000" width="857.143" xmlns="http://www.w3.org/2000/svg"><path d="M633.888 815.302l-34.596 -102.114q-24.552 12.276 -57.474 12.276 -20.088 .558 -34.596 -5.859t-21.483 -17.577 -9.765 -22.599 -2.79 -24.273v-222.084h143.406v-108.252h-142.848v-181.908h-104.904q-4.464 0 -5.022 5.58 -2.79 24.552 -9.765 48.546t-21.762 53.01 -42.966 53.01 -66.123 37.944v92.07h72.54v233.244q0 31.806 11.997 64.17t36.27 61.938 67.518 47.709 98.487 17.019q38.502 -.558 76.167 -13.95t47.709 -27.9zm223.2 -583.11v535.68q0 66.402 -47.151 113.553t-113.553 47.151h-535.68q-66.402 0 -113.553 -47.151t-47.151 -113.553v-535.68q0 -66.402 47.151 -113.553t113.553 -47.151h535.68q66.402 0 113.553 47.151t47.151 113.553z"/></svg>