<svg height="1000" width="571.429" xmlns="http://www.w3.org/2000/svg"><path d="M43.524 422.47v-121.086q50.778 -16.74 86.49 -46.872 35.712 -30.69 57.474 -73.656 21.762 -43.524 30.132 -109.368h122.202v216.504h203.112v134.478h-203.112v219.852q0 75.888 7.812 95.976 7.254 20.646 29.016 33.48 27.9 17.298 65.286 17.298 65.286 0 129.456 -42.408v135.036q-56.916 26.784 -99.324 36.27 -42.966 10.602 -96.534 10.602 -58.59 0 -103.788 -15.066 -43.524 -13.95 -77.004 -41.85 -32.364 -28.458 -44.082 -58.59 -12.276 -30.132 -12.276 -89.838v-300.762h-94.86z"/></svg>