<svg height="1000" width="1047" xmlns="http://www.w3.org/2000/svg"><path d="M0 817.534q0-7.254 5.301-12.555t12.555-5.301q7.812 0 24.552 1.395t25.11 1.395q113.832 0 209.25-59.148-57.474-13.392-100.998-53.568t-61.938-96.534q-1.116-4.464-1.116-6.138 0-6.696 5.022-11.997t12.276-5.301q2.79 0 7.812 1.116t6.696 1.116q-49.662-30.69-79.236-82.026t-29.574-109.368q0-8.37 6.417-14.229t15.345-5.859q5.58 0 19.53 6.417t16.74 7.533q-51.336-61.38-51.336-142.848 0-28.458 8.091-60.264t22.599-53.01q5.58-8.928 13.95-8.928 8.928 0 15.066 6.696 42.408 46.872 61.38 64.17 68.634 61.938 154.008 99.045t176.886 44.919q-2.232-11.718-2.232-27.342 0-93.186 66.123-159.309t159.309-66.123q90.954 0 157.356 63.612 53.01-11.16 116.622-45.756 4.464-2.79 8.928-2.79 7.254 0 12.555 5.301t5.301 12.555q0 13.392-15.624 40.734t-28.458 42.408q3.906-1.116 16.74-5.859t23.994-8.928 13.392-4.185q7.254 0 12.555 5.301t5.301 12.555q0 5.58-2.79 10.044-35.712 58.032-99.882 106.02l0 18.414q2.232 126.666-55.8 255.006-74.772 165.726-221.805 259.191t-330.057 93.465q-147.87 0-279-68.076-35.712-18.414-48.546-27.9-8.37-6.696-8.37-15.066z"/></svg>