<svg height="1000px" width="750px" xmlns="http://www.w3.org/2000/svg">
  <g>
    <path d="M0 781c0 0 0 -562 0 -562c0 -12.667 2.5 -24.833 7.5 -36.5c5 -11.667 11.667 -21.667 20 -30c8.333 -8.333 18.167 -15 29.5 -20c11.333 -5 23.333 -7.5 36 -7.5c0 0 563 0 563 0c26 0 48.167 9.167 66.5 27.5c18.333 18.333 27.5 40.5 27.5 66.5c0 0 0 562 0 562c0 13.333 -2.5 25.667 -7.5 37c-5 11.333 -11.667 21.167 -20 29.5c-8.333 8.333 -18.333 15 -30 20c-11.667 5 -23.833 7.5 -36.5 7.5c0 0 -563 0 -563 0c-12.667 0 -24.667 -2.5 -36 -7.5c-11.333 -5 -21.167 -11.667 -29.5 -20c-8.333 -8.333 -15 -18.167 -20 -29.5c-5 -11.333 -7.5 -23.667 -7.5 -37c0 0 0 0 0 0m98 -179c26 36 58.333 63.5 97 82.5c38.667 19 81 28.5 127 28.5c31.333 0 61.333 -4.333 90 -13c28.667 -8.667 54.667 -20.667 78 -36c23.333 -15.333 43.5 -33.667 60.5 -55c17 -21.333 29.5 -44.667 37.5 -70c26.667 -2 47.667 -11.333 63 -28c4.667 -4.667 5.333 -10 2 -16c-2.667 -6 -7.667 -8.333 -15 -7c0 0 -2 0 -2 0c7.333 -7.333 12.333 -14.667 15 -22c2.667 -6.667 1.333 -12 -4 -16c-4.667 -4.667 -10 -5 -16 -1c-2.667 1.333 -7.5 3 -14.5 5c-7 2 -14.5 3 -22.5 3c-1.333 0 -2.5 -0.167 -3.5 -0.5c-1 -0.333 -2.167 -0.5 -3.5 -0.5c0 -0.667 -0.167 -1.333 -0.5 -2c-0.333 -0.667 -0.5 -1.333 -0.5 -2c-5.333 -20 -14.667 -38 -28 -54c-13.333 -16 -28.667 -27.667 -46 -35c1.333 -1.333 2.333 -2.667 3 -4c0.667 -1.333 1.667 -2.667 3 -4c2 -5.333 2 -10.667 0 -16c-0.667 -2 -2.667 -4.667 -6 -8c-3.333 -3.333 -9 -4.667 -17 -4c-0.667 -1.333 -1.667 -2.667 -3 -4c-4 -4 -8 -5.333 -12 -4c-8 1.333 -16 3.333 -24 6c0 0 -1 -1 -1 -1c-4.667 -2.667 -9.667 -2.333 -15 1c-19.333 12 -35.333 28.333 -48 49c-12.667 20.667 -23.667 42.667 -33 66c-11.333 -10 -20.667 -16.667 -28 -20c-20 -11.333 -41 -21.667 -63 -31c-22 -9.333 -47 -19.333 -75 -30c-4.667 -1.333 -8.667 -0.667 -12 2c-3.333 2 -5.667 5.333 -7 10c-0.667 8.667 0.667 18.167 4 28.5c3.333 10.333 9.667 20.5 19 30.5c-8 2 -11.333 7.333 -10 16c4 22 15 38.333 33 49c0 0 -6 6 -6 6c-4.667 4.667 -5.333 10 -2 16c1.333 4 5.667 10.167 13 18.5c7.333 8.333 18 14.5 32 18.5c-2 4 -3 7.667 -3 11c0 3.333 0.333 5.667 1 7c2 10.667 8.333 18.667 19 24c-12 8 -24.833 13.5 -38.5 16.5c-13.667 3 -27.5 4 -41.5 3c-14 -1 -27.5 -4.333 -40.5 -10c-13 -5.667 -24.5 -13.167 -34.5 -22.5c-2.667 -2.667 -5.833 -4 -9.5 -4c-3.667 0 -6.833 1.333 -9.5 4c-7.333 6 -8 12.333 -2 19c0 0 0 0 0 0" />
  </g>
</svg>