<svg height="1000px" width="1071.4285714285716px" xmlns="http://www.w3.org/2000/svg">
  <g>
    <path d="M974.3303571428572 187.5c0 0 54.129 -18.973 54.129 -18.973c4.837 0 9.022 1.767 12.556 5.301c3.534 3.534 5.302 7.441 5.302 11.719c0 4.278 -0.93 7.905 -2.791 10.882c-23.809 38.69 -57.105 74.032 -99.888 106.026c0 0 0 18.416 0 18.416c1.488 84.449 -17.113 169.456 -55.804 255.022c-49.851 110.491 -123.79 196.893 -221.819 259.207c-98.028 62.314 -208.054 93.471 -330.078 93.471c-98.586 0 -191.592 -22.693 -279.018 -68.08c-23.809 -12.277 -39.248 -21.112 -46.317 -26.507c-7.068 -5.394 -10.602 -10.695 -10.602 -15.904c0 -5.208 1.767 -9.579 5.301 -13.113c3.534 -3.535 7.719 -5.302 12.556 -5.302c0 0 49.665 2.79 49.665 2.79c75.893 0 145.647 -19.717 209.263 -59.151c-38.318 -8.929 -71.986 -26.786 -101.004 -53.572c-29.018 -26.786 -49.665 -58.966 -61.942 -96.54c-0.744 -2.976 -1.116 -5.859 -1.116 -8.65c0 -2.79 1.674 -5.952 5.022 -9.486c3.348 -3.534 6.697 -5.302 10.045 -5.302c3.348 0 6.696 0.372 10.044 1.117c3.349 0.744 5.581 1.116 6.697 1.116c-33.11 -20.462 -59.524 -47.805 -79.241 -82.032c-19.717 -34.226 -29.576 -70.684 -29.576 -109.375c0 -5.58 2.139 -10.323 6.417 -14.23c4.279 -3.906 8.836 -5.859 13.672 -5.859c4.837 0 11.905 2.139 21.206 6.417c9.3 4.279 14.881 6.79 16.741 7.534c-34.227 -40.923 -51.34 -88.542 -51.34 -142.857c0 -18.973 2.698 -39.063 8.092 -60.268c5.394 -21.205 11.44 -36.83 18.136 -46.875c6.696 -10.045 12.928 -15.067 18.694 -15.067c5.767 0 10.696 2.232 14.788 6.696c28.274 31.25 48.735 52.642 61.384 64.175c45.759 41.294 97.098 74.311 154.018 99.051c56.92 24.739 115.885 39.713 176.897 44.922c-1.488 -7.813 -2.232 -16.927 -2.232 -27.344c0 -62.128 22.043 -115.234 66.127 -159.319c44.085 -44.085 96.82 -66.127 158.203 -66.127c61.384 0 114.212 21.205 158.483 63.616c35.342 -7.441 74.218 -22.694 116.629 -45.759c2.976 -1.86 6.418 -2.79 10.324 -2.79c3.906 0 7.626 1.767 11.16 5.301c3.535 3.534 5.302 8.742 5.302 15.625c0 6.882 -5.209 19.438 -15.625 37.667c-10.417 18.229 -19.903 32.366 -28.46 42.411c0 0 0 0 0 0" />
  </g>
</svg>