<svg height="1000px" width="857.1428571428571px" xmlns="http://www.w3.org/2000/svg">
  <g>
    <path d="M857.1428571428571 232.1428571428571c0 0 0 535.714 0 535.714c0 44.271 -15.718 82.125 -47.154 113.561c-31.436 31.436 -69.289 47.154 -113.56 47.154c0 0 -535.715 0 -535.715 0c-44.27 0 -82.124 -15.718 -113.56 -47.154c-31.436 -31.436 -47.154 -69.29 -47.154 -113.561c0 0 0 -535.714 0 -535.714c0 -44.271 15.718 -82.124 47.154 -113.56c31.436 -31.436 69.29 -47.154 113.56 -47.154c0 0 535.715 0 535.715 0c44.271 0 82.124 15.718 113.56 47.154c31.436 31.436 47.154 69.289 47.154 113.56c0 0 0 0 0 0m-670.201 431.362c0 0 -26.228 -1.675 -26.228 -1.675c-4.836 0 -9.021 1.768 -12.555 5.302c-3.535 3.534 -5.302 8.091 -5.302 13.672c0 5.58 2.604 10.044 7.813 13.393c23.437 17.485 51.339 31.157 83.705 41.015c32.366 9.859 68.36 14.788 107.98 14.788c39.621 0 81.38 -10.789 125.279 -32.366c61.756 -29.39 109.375 -72.638 142.857 -129.743c33.482 -57.106 49.851 -120.257 49.107 -189.453c0 0 0 -6.697 0 -6.697c10.045 -8.184 21.671 -19.903 34.878 -35.156c13.206 -15.253 19.81 -25.949 19.81 -32.087c0 -6.138 -1.767 -10.975 -5.301 -14.509c-3.535 -3.534 -6.976 -5.301 -10.324 -5.301c-3.348 0 -6.883 0.744 -10.603 2.232c7.441 -12.649 11.161 -22.136 11.161 -28.46c0 -6.324 -1.767 -11.254 -5.301 -14.788c-3.535 -3.534 -7.162 -5.301 -10.882 -5.301c-3.72 0 -12.091 3.627 -25.112 10.881c-13.021 7.255 -26.413 12.556 -40.178 15.904c-24.182 -23.437 -53.665 -35.156 -88.449 -35.156c-34.784 0 -64.546 13.486 -89.286 40.458c-24.739 26.971 -36.737 58.5 -35.993 94.587c0 0 0 6.696 0 6.696c-39.807 -5.208 -74.684 -17.113 -104.632 -35.714c-29.948 -18.601 -59.058 -44.457 -87.332 -77.567c-3.721 -4.464 -8.929 -6.696 -15.625 -6.696c-9.673 0 -17.299 9.393 -22.88 28.18c-5.58 18.788 -8.37 37.296 -8.37 55.525c0 18.229 5.394 37.574 16.183 58.036c-11.161 1.86 -16.741 8.184 -16.741 18.973c0 41.666 15.067 76.079 45.201 103.236c-4.465 2.977 -6.697 6.697 -6.697 11.161c0 17.485 8.092 35.435 24.275 53.851c16.183 18.415 33.389 31.343 51.618 38.783c-28.646 15.997 -59.338 23.996 -92.076 23.996c0 0 0 0 0 0" />
  </g>
</svg>