<svg height="1000" width="928.6" xmlns="http://www.w3.org/2000/svg"><path d="M904 227.7q-37.4 54.7 -90.4 93.2 .6 7.8 .6 23.4 0 72.6 -21.2 144.8t-64.5 138.7T625.6 745.3t-144 81.4 -180.3 30.4q-151.2 0 -276.7 -80.9 19.5 2.3 43.5 2.3 125.5 0 223.8 -77 -58.6 -1.2 -105 -36t-63.6 -89q18.4 2.7 34.1 2.7 24 0 47.4 -6.1Q142.3 560.3 101.3 510.9t-41 -114.7V394q37.9 21.2 81.4 22.9Q104.9 392.3 83.1 352.7t-21.7 -86q0 -49.1 24.5 -90.9 67.6 83.1 164.4 133.1t207.3 55.5q-4.5 -21.2 -4.5 -41.3 0 -74.8 52.8 -127.5t127.5 -52.7q78.1 0 131.7 56.9 60.8 -11.7 114.4 -43.5 -20.7 64.1 -79.3 99.3Q852.1 250 904 227.7z"/></svg>