<svg height="1000" width="1071.4" xmlns="http://www.w3.org/2000/svg"><path d="M0 817.5q0-7.3 5.3-12.6t12.6-5.3q7.8 0 24.6 1.4t25.1 1.4q113.8 0 209.3-59.1-57.5-13.4-101-53.6t-61.9-96.5q-1.1-4.5-1.1-6.1 0-6.7 5-12t12.3-5.3q2.8 0 7.8 1.1t6.7 1.1q-49.7-30.7-79.2-82t-29.6-109.4q0-8.4 6.4-14.2t15.3-5.9q5.6 0 19.5 6.4t16.7 7.5q-51.3-61.4-51.3-142.8 0-28.5 8.1-60.3t22.6-53q5.6-8.9 14-8.9 8.9 0 15.1 6.7 42.4 46.9 61.4 64.2 68.6 61.9 154 99t176.9 44.9q-2.2-11.7-2.2-27.3 0-93.2 66.1-159.3t159.3-66.1q91 0 157.4 63.6 53-11.2 116.6-45.8 4.5-2.8 8.9-2.8 7.3 0 12.6 5.3t5.3 12.6q0 13.4-15.6 40.7t-28.5 42.4q3.9-1.1 16.7-5.9t24-8.9 13.4-4.2q7.3 0 12.6 5.3t5.3 12.6q0 5.6-2.8 10-35.7 58-99.9 106v18.4q2.2 126.7-55.8 255-74.8 165.7-221.8 259.2t-330.1 93.5q-147.9 0-279-68.1-35.7-18.4-48.5-27.9-8.4-6.7-8.4-15.1z"/></svg>