<svg height="1000" width="857.1" xmlns="http://www.w3.org/2000/svg"><path d="M0 767.9v-535.7q0-66.4 47.2-113.6t113.6-47.2h535.7q66.4 0 113.6 47.2t47.2 113.6v535.7q0 66.4-47.2 113.6t-113.6 47.2h-535.7q-66.4 0-113.6-47.2t-47.2-113.6zm142.8-88.2q0 9.5 7.8 14.5 35.2 26.2 83.7 41t94.9 14.8q72.5 0 138.4-32.4 92.6-44.1 142.8-129.7t49.1-189.4v-6.7q15.1-12.3 34.9-35.2t19.8-34q0-7.3-5.3-12.6t-12.6-5.3q-2.8 0-8.4 2.2 11.2-19 11.2-30.7 0-7.3-5.3-12.6t-12.6-5.3q-3.9 0-9.5 2.8-33.5 19-54.1 24-36.3-35.2-85.9-35.2-54.7 0-91.8 40.5t-36 94.6v6.7q-59.7-7.8-104.6-35.7t-87.3-77.6q-5.6-6.7-15.6-6.7-14.5 0-22.9 28.2t-8.4 48.3q0 34.6 16.2 65.3-7.3 1.1-12 6.4t-4.7 12.6q0 62.5 45.2 103.2-6.7 4.5-6.7 14 0 3.3.6 5 8.4 28.5 28.2 51.1t47.2 33.8q-43 24-92.1 24-4.5 0-13.4-.8t-12.8-.8q-7.3 0-12.6 5.3t-5.3 12.6z"/></svg>