<svg height="1000px" width="1071.4285714285716px" xmlns="http://www.w3.org/2000/svg">
  <g>
    <path d="M0 817.5223214285714c0 -4.836 1.767 -9.022 5.301 -12.556c3.535 -3.534 7.72 -5.301 12.556 -5.301c5.208 0 13.393 0.465 24.554 1.395c11.16 0.93 19.531 1.395 25.111 1.395c75.893 0 145.648 -19.717 209.264 -59.152c-38.319 -8.928 -71.987 -26.785 -101.005 -53.571c-29.018 -26.786 -49.665 -58.966 -61.942 -96.54c-0.744 -2.977 -1.116 -5.023 -1.116 -6.139c0 -4.464 1.674 -8.463 5.023 -11.998c3.348 -3.534 7.44 -5.301 12.276 -5.301c1.86 0 4.465 0.372 7.813 1.116c3.348 0.744 5.58 1.116 6.696 1.116c-33.11 -20.461 -59.524 -47.805 -79.241 -82.031c-19.717 -34.226 -29.576 -70.684 -29.576 -109.375c0 -5.58 2.139 -10.324 6.418 -14.23c4.278 -3.906 9.393 -5.859 15.346 -5.859c3.72 0 10.23 2.139 19.531 6.417c9.301 4.278 14.881 6.79 16.741 7.534c-34.226 -40.923 -51.339 -88.542 -51.339 -142.857c0 -18.974 2.697 -39.063 8.091 -60.268c5.395 -21.206 12.928 -38.877 22.601 -53.014c3.72 -5.952 8.37 -8.928 13.951 -8.928c5.952 0 10.974 2.232 15.067 6.696c28.273 31.25 48.735 52.641 61.383 64.174c45.759 41.295 97.099 74.312 154.018 99.052c56.92 24.739 115.886 39.713 176.898 44.921c-1.488 -7.812 -2.232 -16.927 -2.232 -27.343c0 -62.128 22.042 -115.235 66.127 -159.32c44.085 -44.084 97.191 -66.127 159.319 -66.127c60.64 0 113.095 21.206 157.366 63.616c35.342 -7.44 74.219 -22.693 116.629 -45.759c2.977 -1.86 5.953 -2.79 8.929 -2.79c4.836 0 9.022 1.767 12.556 5.302c3.534 3.534 5.301 7.719 5.301 12.555c0 8.929 -5.208 22.508 -15.625 40.737c-10.416 18.229 -19.903 32.366 -28.46 42.411c2.605 -0.744 8.185 -2.697 16.741 -5.86c8.557 -3.162 16.555 -6.138 23.996 -8.928c7.44 -2.79 11.905 -4.186 13.393 -4.186c4.836 0 9.021 1.768 12.556 5.302c3.534 3.534 5.301 7.719 5.301 12.556c0 3.72 -0.93 7.068 -2.79 10.044c-23.81 38.691 -57.106 74.033 -99.889 106.027c0 0 0 18.415 0 18.415c1.488 84.45 -17.113 169.457 -55.803 255.023c-49.851 110.491 -123.791 196.893 -221.819 259.207c-98.029 62.314 -208.055 93.471 -330.078 93.471c-98.587 0 -191.593 -22.693 -279.018 -68.08c-23.81 -12.277 -39.993 -21.578 -48.549 -27.902c-5.581 -4.464 -8.371 -9.487 -8.371 -15.067c0 0 0 0 0 0" />
  </g>
</svg>