<svg height="1000" width="858" xmlns="http://www.w3.org/2000/svg"><path d="M0 767.872l0-535.68q0-66.402 47.151-113.553t113.553-47.151l535.68 0q66.402 0 113.553 47.151t47.151 113.553l0 535.68q0 66.402-47.151 113.553t-113.553 47.151l-535.68 0q-66.402 0-113.553-47.151t-47.151-113.553zm142.848-88.164q0 9.486 7.812 14.508 35.154 26.226 83.7 41.013t94.86 14.787q72.54 0 138.384-32.364 92.628-44.082 142.848-129.735t49.104-189.441l0-6.696q15.066-12.276 34.875-35.154t19.809-34.038q0-7.254-5.301-12.555t-12.555-5.301q-2.79 0-8.37 2.232 11.16-18.972 11.16-30.69 0-7.254-5.301-12.555t-12.555-5.301q-3.906 0-9.486 2.79-33.48 18.972-54.126 23.994-36.27-35.154-85.932-35.154-54.684 0-91.791 40.455t-35.991 94.581l0 6.696q-59.706-7.812-104.625-35.712t-87.327-77.562q-5.58-6.696-15.624-6.696-14.508 0-22.878 28.179t-8.37 48.267q0 34.596 16.182 65.286-7.254 1.116-11.997 6.417t-4.743 12.555q0 62.496 45.198 103.23-6.696 4.464-6.696 13.95 0 3.348.558 5.022 8.37 28.458 28.179 51.057t47.151 33.759q-42.966 23.994-92.07 23.994-4.464 0-13.392-.837t-12.834-.837q-7.254 0-12.555 5.301t-5.301 12.555z"/></svg>