<svg height="1000" width="857.1" xmlns="http://www.w3.org/2000/svg"><path d="M714.3 340.4q-31.3 14 -67.5 19 37.9 -22.3 51.9 -65.3 -36.3 21.2 -74.8 28.4 -34.1 -36.8 -85.4 -36.8 -48.5 0 -82.9 34.3t-34.3 82.9q0 16.2 2.8 26.8 -72 -3.9 -135 -36.3T181.9 306.9q-16.2 27.9 -16.2 59.2 0 63.6 50.8 97.6 -26.2 -.5 -55.8 -14.5v1.1q0 41.9 27.9 74.5t68.7 40.5q-16.2 4.5 -28.5 4.5 -7.3 0 -21.8 -2.3 11.8 35.2 41.6 58.1t67.8 23.4q-64.7 50.2 -145.6 50.2 -14.5 0 -27.9 -1.7Q225.4 750 322.5 750q62.5 0 117.2 -19.8t93.8 -53 67.2 -76.5 41.9 -90.4 13.7 -94q0 -10 -.6 -15.1 35.1 -25.1 58.6 -60.8zM857.1 232.1v535.8q0 66.4 -47.1 113.5t-113.6 47.2H160.7q-66.4 0 -113.5 -47.2T0 767.9V232.1Q0 165.7 47.2 118.6T160.7 71.4h535.7q66.4 0 113.6 47.2t47.1 113.5z"/></svg>