<svg height="1000" width="857.143" xmlns="http://www.w3.org/2000/svg"><path d="M714.24 340.444q-31.248 13.95 -67.518 18.972 37.944 -22.32 51.894 -65.286 -36.27 21.204 -74.772 28.458 -34.038 -36.828 -85.374 -36.828 -48.546 0 -82.863 34.317t-34.317 82.863q0 16.182 2.79 26.784 -71.982 -3.906 -135.036 -36.27t-107.136 -86.49q-16.182 27.9 -16.182 59.148 0 63.612 50.778 97.65 -26.226 -.558 -55.8 -14.508v1.116q0 41.85 27.9 74.493t68.634 40.455q-16.182 4.464 -28.458 4.464 -7.254 0 -21.762 -2.232 11.718 35.154 41.571 58.032t67.797 23.436q-64.728 50.22 -145.638 50.22 -14.508 0 -27.9 -1.674 82.584 52.452 179.676 52.452 62.496 0 117.18 -19.809t93.744 -53.01 67.239 -76.446 41.85 -90.396 13.671 -94.023q0 -10.044 -.558 -15.066 35.154 -25.11 58.59 -60.822zm142.848 -108.252v535.68q0 66.402 -47.151 113.553t-113.553 47.151h-535.68q-66.402 0 -113.553 -47.151t-47.151 -113.553v-535.68q0 -66.402 47.151 -113.553t113.553 -47.151h535.68q66.402 0 113.553 47.151t47.151 113.553z"/></svg>