<svg height="1000px" width="1071.4285714285716px" xmlns="http://www.w3.org/2000/svg">
  <g>
    <path d="M0 818.0803571428571c0 -5.208 1.767 -9.58 5.301 -13.114c3.535 -3.534 7.72 -5.301 12.556 -5.301c0 0 49.665 2.79 49.665 2.79c75.893 0 145.648 -19.717 209.264 -59.152c-38.319 -8.928 -71.987 -26.785 -101.005 -53.571c-29.018 -26.786 -49.665 -58.966 -61.942 -96.54c-0.744 -2.977 -1.116 -5.86 -1.116 -8.65c0 -2.79 1.674 -5.952 5.023 -9.487c3.348 -3.534 6.696 -5.301 10.044 -5.301c3.348 0 6.697 0.372 10.045 1.116c3.348 0.744 5.58 1.116 6.696 1.116c-33.11 -20.461 -59.524 -47.805 -79.241 -82.031c-19.717 -34.226 -29.576 -70.685 -29.576 -109.375c0 -5.58 2.139 -10.324 6.418 -14.23c4.278 -3.906 8.835 -5.859 13.672 -5.859c4.836 0 11.904 2.139 21.205 6.417c9.301 4.278 14.881 6.79 16.741 7.534c-34.226 -40.923 -51.339 -88.542 -51.339 -142.858c0 -18.973 2.697 -39.062 8.091 -60.267c5.395 -21.206 11.44 -36.831 18.136 -46.875c6.697 -10.045 12.928 -15.067 18.695 -15.067c5.766 0 10.695 2.232 14.788 6.696c28.273 31.25 48.735 52.641 61.383 64.174c45.759 41.295 97.099 74.312 154.018 99.052c56.92 24.739 115.886 39.713 176.898 44.921c-1.488 -7.812 -2.232 -16.927 -2.232 -27.343c0 -62.128 22.042 -115.235 66.127 -159.32c44.085 -44.084 96.819 -66.127 158.203 -66.127c61.384 0 114.211 21.206 158.482 63.616c35.342 -7.44 74.219 -22.693 116.629 -45.759c2.977 -1.86 6.418 -2.79 10.324 -2.79c3.906 0 7.627 1.767 11.161 5.302c3.534 3.534 5.301 8.742 5.301 15.625c0 6.882 -5.208 19.438 -15.625 37.667c-10.416 18.229 -19.903 32.366 -28.46 42.411c0 0 54.13 -18.974 54.13 -18.974c4.836 0 9.021 1.768 12.556 5.302c3.534 3.534 5.301 7.44 5.301 11.719c0 4.278 -0.93 7.905 -2.79 10.881c-23.81 38.691 -57.106 74.033 -99.889 106.027c0 0 0 18.415 0 18.415c0.056 3.128 0.083 6.256 0.083 9.386c0 81.361 -18.629 163.24 -55.886 245.636c-49.851 110.492 -123.791 196.894 -221.819 259.208c-98.029 62.314 -208.055 93.471 -330.078 93.471c-98.587 0 -191.593 -22.693 -279.018 -68.08c-23.81 -12.277 -39.249 -21.113 -46.317 -26.507c-7.069 -5.394 -10.603 -10.696 -10.603 -15.904c0 0 0 0 0 0" />
  </g>
</svg>