<svg height="1000px" width="857.1428571428571px" xmlns="http://www.w3.org/2000/svg">
  <g>
    <path d="M0 767.8571428571428c0 0 0 -535.714 0 -535.714c0 -44.271 15.718 -82.125 47.154 -113.561c31.436 -31.436 69.289 -47.154 113.56 -47.154c0 0 535.715 0 535.715 0c44.27 0 82.124 15.718 113.56 47.154c31.436 31.436 47.154 69.29 47.154 113.561c0 0 0 535.714 0 535.714c0 44.271 -15.718 82.124 -47.154 113.56c-31.436 31.436 -69.29 47.154 -113.56 47.154c0 0 -535.715 0 -535.715 0c-44.271 0 -82.124 -15.718 -113.56 -47.154c-31.436 -31.436 -47.154 -69.289 -47.154 -113.56c0 0 0 0 0 0m142.857 -88.17c0 6.325 2.604 11.161 7.813 14.509c23.437 17.485 51.339 31.157 83.705 41.016c32.366 9.859 63.988 14.788 94.866 14.788c48.363 0 94.494 -10.789 138.393 -32.366c61.756 -29.39 109.375 -72.638 142.857 -129.744c33.482 -57.105 49.851 -120.256 49.107 -189.453c0 0 0 -6.696 0 -6.696c10.045 -8.185 21.671 -19.903 34.877 -35.156c13.207 -15.253 19.811 -26.6 19.811 -34.041c0 -4.836 -1.767 -9.021 -5.302 -12.555c-3.534 -3.535 -7.719 -5.302 -12.555 -5.302c-1.861 0 -4.651 0.744 -8.371 2.232c7.441 -12.648 11.161 -22.879 11.161 -30.691c0 -4.837 -1.767 -9.022 -5.302 -12.556c-3.534 -3.534 -7.719 -5.302 -12.555 -5.302c-2.605 0 -5.767 0.93 -9.487 2.791c-22.321 12.648 -40.365 20.647 -54.129 23.995c-24.182 -23.437 -52.828 -35.156 -85.938 -35.156c-36.458 0 -67.057 13.486 -91.797 40.457c-24.739 26.972 -36.737 58.501 -35.993 94.587c0 0 0 6.697 0 6.697c-39.807 -5.208 -74.684 -17.113 -104.632 -35.714c-29.948 -18.602 -59.059 -44.457 -87.332 -77.567c-3.721 -4.465 -8.929 -6.697 -15.625 -6.697c-9.673 0 -17.3 9.394 -22.88 28.181c-5.58 18.787 -8.37 34.877 -8.37 48.27c0 23.066 5.394 44.829 16.183 65.29c-4.837 0.744 -8.836 2.884 -11.998 6.418c-3.162 3.534 -4.743 7.719 -4.743 12.556c0 41.666 15.067 76.078 45.2 103.236c-4.464 2.976 -6.696 7.627 -6.696 13.951c0 2.232 0.186 3.906 0.558 5.022c5.58 18.974 14.974 35.994 28.181 51.061c13.207 15.067 28.925 26.32 47.154 33.761c-28.646 15.997 -59.338 23.995 -92.076 23.995c-2.976 0 -7.441 -0.279 -13.393 -0.837c-5.952 -0.558 -10.231 -0.837 -12.835 -0.837c-4.836 0 -9.021 1.767 -12.556 5.302c-3.534 3.534 -5.301 7.719 -5.301 12.555c0 0 0 0 0 0" />
  </g>
</svg>