<svg height="1000" width="928.571" xmlns="http://www.w3.org/2000/svg"><path d="M903.96 227.728q-37.386 54.684 -90.396 93.186 .558 7.812 .558 23.436 0 72.54 -21.204 144.801t-64.449 138.663 -102.951 117.459 -143.964 81.468 -180.234 30.411q-151.218 0 -276.768 -80.91 19.53 2.232 43.524 2.232 125.55 0 223.758 -77.004 -58.59 -1.116 -104.904 -35.991t-63.612 -89.001q18.414 2.79 34.038 2.79 23.994 0 47.43 -6.138 -62.496 -12.834 -103.509 -62.217t-41.013 -114.669v-2.232q37.944 21.204 81.468 22.878 -36.828 -24.552 -58.59 -64.17t-21.762 -85.932q0 -49.104 24.552 -90.954 67.518 83.142 164.331 133.083t207.297 55.521q-4.464 -21.204 -4.464 -41.292 0 -74.772 52.731 -127.503t127.503 -52.731q78.12 0 131.688 56.916 60.822 -11.718 114.39 -43.524 -20.646 64.17 -79.236 99.324 51.894 -5.58 103.788 -27.9z"/></svg>