<svg height="1000px" width="750px" xmlns="http://www.w3.org/2000/svg">
  <g>
    <path d="M0 780.76171875c0 0 0 -561.523 0 -561.523c0 -12.696 2.523 -24.903 7.568 -36.622c5.046 -11.718 11.719 -21.728 20.02 -30.029c8.301 -8.301 18.148 -14.974 29.541 -20.019c11.393 -5.046 23.275 -7.569 35.644 -7.569c0 0 562.989 0 562.989 0c26.041 0 48.258 9.196 66.65 27.588c18.392 18.392 27.588 40.609 27.588 66.651c0 0 0 561.523 0 561.523c0 13.346 -2.523 25.716 -7.568 37.109c-5.046 11.394 -11.719 21.241 -20.02 29.541c-8.301 8.301 -18.31 14.974 -30.029 20.02c-11.719 5.045 -23.926 7.568 -36.621 7.568c0 0 -562.989 0 -562.989 0c-12.695 0 -24.658 -2.523 -35.888 -7.568c-11.231 -5.046 -20.996 -11.719 -29.297 -20.02c-8.301 -8.3 -14.974 -18.147 -20.02 -29.541c-5.045 -11.393 -7.568 -23.763 -7.568 -37.109c0 0 0 0 0 0m98.145 -178.711c26.041 36.133 58.349 63.639 96.923 82.52c38.575 18.88 80.811 28.32 126.709 28.32c31.25 0 61.28 -4.313 90.088 -12.94c28.809 -8.626 54.85 -20.589 78.125 -35.888c23.275 -15.3 43.457 -33.61 60.547 -54.932c17.09 -21.321 29.541 -44.678 37.354 -70.068c26.692 -1.953 47.688 -11.231 62.988 -27.832c4.557 -4.558 5.208 -9.929 1.953 -16.114c-2.604 -5.859 -7.487 -8.3 -14.648 -7.324c0 0 -1.954 0 -1.954 0c7.487 -7.487 12.37 -14.811 14.649 -21.972c2.604 -6.511 1.302 -11.719 -3.906 -15.625c-4.558 -4.558 -9.929 -4.883 -16.114 -0.977c-2.604 1.302 -7.405 2.93 -14.404 4.883c-6.999 1.953 -14.404 2.93 -22.217 2.93c-1.302 0 -2.523 -0.163 -3.662 -0.489c-1.139 -0.325 -2.36 -0.488 -3.662 -0.488c0 -0.651 -0.163 -1.302 -0.488 -1.953c-0.326 -0.651 -0.489 -1.302 -0.489 -1.953c-5.208 -19.857 -14.485 -37.842 -27.832 -53.955c-13.346 -16.114 -28.645 -27.914 -45.898 -35.401c1.302 -1.302 2.279 -2.604 2.93 -3.906c0.651 -1.302 1.627 -2.604 2.929 -3.906c1.954 -5.209 1.954 -10.58 0 -16.114c-0.651 -1.953 -2.685 -4.557 -6.103 -7.812c-3.418 -3.255 -9.033 -4.557 -16.846 -3.906c-0.651 -1.302 -1.627 -2.604 -2.929 -3.907c-3.907 -3.906 -7.976 -5.371 -12.208 -4.394c-8.138 1.302 -16.113 3.418 -23.925 6.348c0 0 -0.977 -0.977 -0.977 -0.977c-4.557 -2.604 -9.603 -2.279 -15.137 0.977c-19.205 12.044 -35.156 28.32 -47.851 48.828c-12.695 20.508 -23.763 42.48 -33.203 65.918c-11.394 -10.091 -20.671 -16.765 -27.832 -20.02c-19.857 -11.393 -40.853 -21.728 -62.989 -31.006c-22.135 -9.277 -47.2 -19.287 -75.195 -30.029c-4.557 -1.302 -8.463 -0.651 -11.719 1.953c-3.255 1.953 -5.696 5.371 -7.324 10.254c-0.651 8.789 0.733 18.311 4.151 28.564c3.417 10.254 9.684 20.427 18.798 30.518c-8.138 1.953 -11.393 7.162 -9.765 15.625c3.906 22.135 14.974 38.574 33.203 49.316c0 0 -6.348 5.86 -6.348 5.86c-4.557 4.557 -5.208 9.928 -1.953 16.113c1.302 3.906 5.615 10.01 12.94 18.311c7.324 8.3 17.985 14.567 31.982 18.798c-1.953 3.907 -2.93 7.487 -2.93 10.743c0 3.255 0.326 5.534 0.977 6.836c1.953 10.742 8.301 18.88 19.043 24.414c-12.044 8.138 -24.903 13.672 -38.574 16.601c-13.672 2.93 -27.507 3.825 -41.504 2.686c-13.998 -1.14 -27.507 -4.476 -40.528 -10.01c-13.021 -5.534 -24.414 -13.021 -34.179 -22.461c-2.605 -2.604 -5.778 -3.906 -9.522 -3.906c-3.743 0 -6.917 1.302 -9.521 3.906c-7.487 5.859 -8.138 12.207 -1.953 19.043c0 0 0 0 0 0" />
  </g>
</svg>