<svg height="1000px" width="899.90234375px" xmlns="http://www.w3.org/2000/svg">
  <g>
    <path d="M0 625.244140625c0 -6.51 2.197 -11.963 6.592 -16.357c4.394 -4.395 9.847 -6.592 16.357 -6.592c4.558 0 9.603 1.953 15.137 5.859c40.039 35.482 86.751 53.06 140.137 52.735c19.205 0 38.33 -2.442 57.373 -7.325c19.043 -4.883 36.539 -12.695 52.49 -23.437c-9.44 -5.209 -17.171 -12.044 -23.193 -20.508c-6.023 -8.464 -9.034 -17.904 -9.034 -28.32c0 -7.487 1.302 -13.835 3.907 -19.043c-5.86 -1.953 -13.103 -5.29 -21.729 -10.01c-8.626 -4.72 -16.927 -10.254 -24.902 -16.602c-7.975 -6.347 -14.649 -13.346 -20.02 -20.996c-5.371 -7.649 -8.056 -15.218 -8.056 -22.705c0 -5.208 1.627 -9.847 4.882 -13.916c3.256 -4.069 7.325 -7.731 12.207 -10.986c-13.346 -8.138 -25.716 -20.182 -37.109 -36.133c-11.393 -15.95 -17.09 -31.901 -17.09 -47.852c0 -10.742 5.371 -17.74 16.113 -20.996c-11.393 -11.393 -20.426 -24.576 -27.099 -39.55c-6.673 -14.974 -10.01 -30.437 -10.01 -46.387c0 -7.487 1.546 -14.242 4.639 -20.264c3.092 -6.022 9.196 -9.033 18.31 -9.033c5.86 0 19.532 4.395 41.016 13.184c21.484 8.789 44.678 18.636 69.58 29.541c24.902 10.905 48.747 21.891 71.533 32.959c22.787 11.067 38.737 18.88 47.852 23.437c8.138 4.557 15.869 9.684 23.193 15.381c7.324 5.697 14.567 11.637 21.729 17.822c6.51 -16.601 14.16 -33.935 22.949 -52.002c8.789 -18.066 18.555 -35.4 29.297 -52.002c10.742 -16.601 22.623 -32.226 35.644 -46.875c13.021 -14.648 27.507 -26.692 43.457 -36.132c2.605 -1.954 6.511 -2.93 11.719 -2.93c5.859 0 10.254 1.302 13.184 3.906c5.208 -1.953 11.963 -4.15 20.263 -6.592c8.301 -2.441 15.218 -3.662 20.752 -3.662c9.44 0 16.439 4.395 20.996 13.184c10.092 0 19.288 2.523 27.588 7.568c8.301 5.046 12.451 13.265 12.451 24.658c0 10.091 -4.394 18.718 -13.183 25.879c31.25 13.998 57.21 34.343 77.881 61.035c20.67 26.693 35.4 56.316 44.189 88.868c1.953 0.651 5.697 0.976 11.231 0.976c15.299 0 29.622 -2.685 42.968 -8.056c13.347 -5.372 22.624 -8.057 27.832 -8.057c5.86 0 10.987 2.36 15.381 7.08c4.395 4.72 6.592 10.01 6.592 15.869c0 7.487 -3.174 15.381 -9.521 23.682c-6.348 8.301 -11.801 14.73 -16.358 19.287c7.487 -1.302 14.323 -0.082 20.508 3.662c6.185 3.743 9.277 10.01 9.277 18.799c0 9.44 -4.313 17.578 -12.939 24.414c-8.626 6.836 -18.636 12.939 -30.029 18.31c-11.394 5.371 -23.194 9.522 -35.401 12.452c-12.207 2.929 -21.728 4.72 -28.564 5.371c-13.998 45.247 -35.645 85.286 -64.942 120.117c-29.297 34.831 -63.476 63.883 -102.539 87.158c-39.062 23.275 -81.054 41.097 -125.976 53.467c-44.922 12.37 -89.681 18.555 -134.278 18.555c-71.289 0 -138.834 -15.219 -202.636 -45.655c-63.802 -30.436 -116.7 -74.951 -158.692 -133.545c-2.604 -5.208 -3.906 -9.44 -3.906 -12.695c0 0 0 0 0 0" />
  </g>
</svg>