<svg height="1000px" width="919.921875px" xmlns="http://www.w3.org/2000/svg">
  <g>
    <path d="M0 499.0234375c10.091 -44.596 27.913 -85.775 53.467 -123.535c25.553 -37.761 57.047 -70.964 94.482 -99.61c37.435 -28.645 79.265 -51.595 125.488 -68.847c46.224 -17.253 95.378 -27.995 147.461 -32.227c0 0 0 -25.879 0 -25.879c0 -11.393 3.825 -20.752 11.475 -28.076c7.65 -7.324 16.846 -10.986 27.588 -10.986c11.393 0 20.752 3.662 28.076 10.986c7.324 7.324 10.986 16.683 10.986 28.076c0 0 0 25.879 0 25.879c52.084 3.906 101.4 14.567 147.95 31.983c46.549 17.415 88.541 40.446 125.976 69.091c37.435 28.646 68.766 61.849 93.994 99.61c25.228 37.76 42.888 78.939 52.979 123.535c1.953 9.44 -1.302 16.439 -9.766 20.996c-3.255 1.953 -6.347 2.93 -9.277 2.93c-6.511 0 -11.068 -1.953 -13.672 -5.86c-31.901 -33.203 -67.383 -49.967 -106.445 -50.293c-27.995 0 -54.606 8.871 -79.834 26.612c-25.228 17.741 -46.468 42.562 -63.721 74.463c-3.255 7.487 -8.952 11.23 -17.09 11.23c-8.138 0 -13.834 -3.743 -17.09 -11.23c-26.692 -48.828 -61.36 -80.404 -104.004 -94.727c0 0 0 256.836 0 256.836c0 22.135 -3.824 42.806 -11.474 62.012c-7.65 19.205 -17.985 36.214 -31.006 51.025c-13.021 14.811 -28.239 26.367 -45.654 34.668c-17.416 8.301 -36.052 12.451 -55.909 12.451c-19.856 0 -38.655 -4.15 -56.396 -12.451c-17.741 -8.301 -33.122 -19.857 -46.143 -34.668c-13.02 -14.811 -23.356 -31.82 -31.005 -51.025c-7.65 -19.206 -11.475 -39.877 -11.475 -62.012c0 -11.393 3.825 -20.752 11.475 -28.076c7.649 -7.324 16.845 -10.986 27.587 -10.986c11.394 0 20.752 3.662 28.077 10.986c7.324 7.324 10.986 16.683 10.986 28.076c0 22.786 6.51 42.155 19.531 58.105c13.021 15.951 28.809 23.926 47.363 23.926c17.904 0 33.366 -7.975 46.387 -23.926c13.021 -15.95 19.531 -35.319 19.531 -58.105c0 0 0 -256.836 0 -256.836c-42.643 14.649 -77.311 46.224 -104.003 94.727c-3.256 7.487 -8.952 11.23 -17.09 11.23c-8.138 0 -13.672 -3.743 -16.602 -11.23c-17.252 -31.901 -38.411 -56.722 -63.476 -74.463c-25.066 -17.741 -51.595 -26.612 -79.59 -26.612c-39.388 0 -74.707 16.765 -105.957 50.293c-3.907 3.907 -8.952 5.86 -15.137 5.86c-3.255 0 -6.348 -0.977 -9.277 -2.93c-8.138 -4.557 -11.394 -11.556 -9.766 -20.996c0 0 0 0 0 0" />
  </g>
</svg>