<svg height="1000px" width="928.5714285714286px" xmlns="http://www.w3.org/2000/svg">
  <g>
    <path d="M0 477.12053571428567c0 -1.86 0.186 -3.162 0.558 -3.906c16.741 -68.081 48.828 -127.511 96.261 -178.293c47.433 -50.781 102.865 -88.82 166.295 -114.118c63.43 -25.298 130.487 -37.946 201.172 -37.946c52.083 0 103.143 7.44 153.181 22.321c50.037 14.881 95.889 35.993 137.555 63.337c41.667 27.344 77.846 62.128 108.538 104.353c30.692 42.224 52.177 89.006 64.453 140.346c0.372 0.744 0.558 2.046 0.558 3.906c0 4.836 -1.767 9.022 -5.301 12.556c-3.534 3.534 -7.719 5.301 -12.556 5.301c-4.092 0 -8.37 -1.86 -12.835 -5.58c-18.229 -17.113 -35.528 -29.948 -51.897 -38.505c-16.369 -8.556 -35.342 -12.834 -56.919 -12.834c-25.298 0 -49.108 6.882 -71.429 20.647c-22.321 13.765 -41.481 31.808 -57.478 54.129c-2.604 3.721 -5.859 8.929 -9.765 15.625c-3.907 6.697 -6.604 11.161 -8.092 13.393c-4.092 6.325 -9.3 9.487 -15.625 9.487c-6.696 0 -12.091 -3.162 -16.183 -9.487c-1.488 -2.232 -4.185 -6.696 -8.091 -13.393c-3.907 -6.696 -7.162 -11.904 -9.766 -15.625c-15.997 -22.321 -35.063 -40.364 -57.199 -54.129c-22.135 -13.765 -45.852 -20.647 -71.149 -20.647c-25.298 0 -49.014 6.882 -71.15 20.647c-22.135 13.765 -41.201 31.808 -57.198 54.129c-2.605 3.721 -5.86 8.929 -9.766 15.625c-3.906 6.697 -6.604 11.161 -8.092 13.393c-4.092 6.325 -9.486 9.487 -16.183 9.487c-6.324 0 -11.532 -3.162 -15.625 -9.487c-1.488 -2.232 -4.185 -6.696 -8.091 -13.393c-3.906 -6.696 -7.162 -11.904 -9.766 -15.625c-15.997 -22.321 -35.156 -40.364 -57.477 -54.129c-22.322 -13.765 -46.131 -20.647 -71.429 -20.647c-21.577 0 -40.551 4.278 -56.92 12.834c-16.369 8.557 -33.668 21.392 -51.897 38.505c-4.464 3.72 -8.743 5.58 -12.835 5.58c-4.836 0 -9.021 -1.767 -12.556 -5.301c-3.534 -3.534 -5.301 -7.72 -5.301 -12.556c0 0 0 0 0 0m214.286 308.594c0 -9.673 3.534 -18.043 10.602 -25.112c7.069 -7.068 15.439 -10.603 25.112 -10.603c9.673 0 18.043 3.535 25.112 10.603c7.068 7.069 10.602 15.439 10.602 25.112c0 18.601 7.255 35.156 21.764 49.665c14.509 14.509 31.064 21.763 49.665 21.763c18.601 0 35.156 -7.254 49.665 -21.763c14.509 -14.509 21.763 -31.064 21.763 -49.665c0 0 0 -323.661 0 -323.661c12.277 -4.092 24.182 -6.138 35.715 -6.138c11.532 0 23.437 2.046 35.714 6.138c0 0 0 323.661 0 323.661c0 38.69 -14.137 72.172 -42.411 100.446c-28.274 28.274 -61.756 42.411 -100.446 42.411c-38.691 0 -72.173 -14.137 -100.447 -42.411c-28.273 -28.274 -42.41 -61.756 -42.41 -100.446c0 0 0 0 0 0m214.285 -659.598c0 0 0 -54.688 0 -54.688c0 -9.673 3.535 -18.043 10.603 -25.112c7.069 -7.068 15.439 -10.602 25.112 -10.602c9.672 0 18.043 3.534 25.111 10.602c7.069 7.069 10.603 15.439 10.603 25.112c0 0 0 54.688 0 54.688c-15.625 -0.745 -27.53 -1.117 -35.714 -1.117c-8.185 0 -20.09 0.372 -35.715 1.117c0 0 0 0 0 0" />
  </g>
</svg>