<svg height="1000px" width="928.5714285714286px" xmlns="http://www.w3.org/2000/svg">
  <g>
    <path d="M0 479.35267857142856c0 -3.348 0.186 -5.394 0.558 -6.138c16.741 -68.081 48.828 -127.512 96.261 -178.293c47.433 -50.781 102.865 -88.82 166.295 -114.118c63.43 -25.298 125.837 -37.947 187.221 -37.947c61.384 0 117.094 7.441 167.132 22.322c50.037 14.881 95.889 35.993 137.555 63.337c41.667 27.344 77.846 62.128 108.538 104.353c30.692 42.224 52.177 89.006 64.453 140.346c0.372 0.744 0.558 2.79 0.558 6.138c0 3.348 -1.767 6.789 -5.301 10.324c-3.534 3.534 -7.533 5.301 -11.998 5.301c-4.464 0 -8.928 -1.86 -13.393 -5.58c-18.229 -17.113 -35.528 -29.948 -51.897 -38.505c-16.369 -8.556 -36.272 -12.835 -59.71 -12.835c-23.437 0 -46.317 6.883 -68.638 20.648c-27.53 17.113 -49.851 40.364 -66.964 69.754c-3.721 6.697 -7.069 12.184 -10.045 16.462c-2.976 4.278 -7.719 6.418 -14.23 6.418c-6.51 0 -11.161 -2.14 -13.951 -6.418c-2.79 -4.278 -6.045 -9.765 -9.765 -16.462c-17.114 -29.39 -38.133 -51.804 -63.058 -67.243c-24.926 -15.439 -50.038 -23.159 -75.335 -23.159c-25.298 0 -49.107 6.883 -71.429 20.648c-27.53 17.113 -49.851 40.364 -66.964 69.754c-3.72 6.697 -6.976 12.184 -9.766 16.462c-2.79 4.278 -7.44 6.418 -13.951 6.418c-6.51 0 -11.16 -2.14 -13.951 -6.418c-3.162 -4.278 -6.603 -9.765 -10.323 -16.462c-17.113 -29.39 -38.133 -51.804 -63.058 -67.243c-24.926 -15.439 -49.107 -23.159 -72.545 -23.159c-23.437 0 -43.341 4.279 -59.71 12.835c-16.369 8.557 -33.668 21.392 -51.897 38.505c-4.464 3.72 -8.929 5.58 -13.393 5.58c-4.464 0 -8.463 -1.767 -11.998 -5.301c-3.534 -3.535 -5.301 -6.976 -5.301 -10.324c0 0 0 0 0 0m214.286 306.362c0 -9.673 3.534 -18.044 10.602 -25.112c7.069 -7.068 15.439 -10.603 25.112 -10.603c9.673 0 18.043 3.535 25.112 10.603c7.068 7.068 10.602 17.671 10.602 31.808c0 14.137 7.255 28.46 21.764 42.969c14.509 14.509 31.064 21.763 49.665 21.763c18.601 0 35.156 -7.254 49.665 -21.763c14.509 -14.509 21.763 -31.064 21.763 -49.665c0 0 0 -323.661 0 -323.661c12.277 -4.092 24.182 -6.139 35.715 -6.139c11.532 0 23.437 2.047 35.714 6.139c0 0 0 323.661 0 323.661c0 38.69 -14.137 72.172 -42.411 100.446c-28.274 28.274 -61.756 42.411 -100.446 42.411c-38.691 0 -72.173 -14.137 -100.447 -42.411c-28.273 -28.274 -42.41 -61.756 -42.41 -100.446c0 0 0 0 0 0m214.285 -659.599c0 0 0 -54.687 0 -54.687c0 -9.673 3.535 -18.043 10.603 -25.112c7.069 -7.068 15.439 -10.602 25.112 -10.602c9.672 0 18.043 3.534 25.111 10.602c7.069 7.069 10.603 15.439 10.603 25.112c0 0 0 54.687 0 54.687c-15.625 -0.744 -27.53 -1.116 -35.714 -1.116c-8.185 0 -20.09 0.372 -35.715 1.116c0 0 0 0 0 0" />
  </g>
</svg>