<svg height="1000" width="928.6" xmlns="http://www.w3.org/2000/svg"><path d="M500 462.1v323.6q0 58.1 -42.4 100.5t-100.5 42.4T256.7 886.2 214.3 785.7q0 -14.5 10.6 -25.1T250 750t25.1 10.6 10.6 25.1q0 27.9 21.8 49.7t49.6 21.7 49.7 -21.7 21.8 -49.7V462.1q18.4 -6.2 35.7 -6.2t35.7 6.2zm428.6 15q0 7.3 -5.3 12.6t-12.6 5.3q-6.1 0 -12.8 -5.6Q870.5 463.7 846 450.9t-56.9 -12.8q-38 0 -71.5 20.6t-57.4 54.1q-4 5.6 -9.8 15.7t-8.1 13.4q-6.1 9.4 -15.6 9.4 -10.1 0 -16.2 -9.4 -2.2 -3.4 -8.1 -13.4t-9.8 -15.7q-24 -33.4 -57.2 -54.1t-71.1 -20.6 -71.2 20.6 -57.2 54.1q-3.9 5.6 -9.7 15.7t-8.1 13.4q-6.2 9.4 -16.2 9.4 -9.5 0 -15.6 -9.4 -2.3 -3.4 -8.1 -13.4t-9.8 -15.7q-24 -33.4 -57.5 -54.1t-71.4 -20.6q-32.4 0 -56.9 12.8t-51.9 38.5Q24 495 17.9 495q-7.3 0 -12.6 -5.3T0 477.1q0 -2.8 .6 -3.9Q25.7 371.1 96.8 294.9T263.1 180.8t201.2 -37.9q78.1 0 153.2 22.3T755 228.5t108.6 104.4T928 473.2q.6 1.1 .6 3.9zM500 71.4v54.7Q476.6 125 464.3 125t-35.7 1.1V71.4q0 -14.5 10.6 -25.1t25.1 -10.6 25.1 10.6T500 71.4z"/></svg>