<svg height="1000" width="928.6" xmlns="http://www.w3.org/2000/svg"><path d="M0 477.2q0-2.8.6-3.9 25.1-102.1 96.3-178.3t166.3-114.1 201.2-37.9q78.1 0 153.2 22.3t137.5 63.3 108.5 104.3 64.4 140.3q.6 1.1.6 3.9 0 7.3-5.3 12.6t-12.6 5.3q-6.1 0-12.8-5.6-27.3-25.7-51.9-38.5t-56.9-12.8q-37.9 0-71.4 20.6t-57.5 54.1q-3.9 5.6-9.8 15.6t-8.1 13.4q-6.1 9.5-15.6 9.5-10 0-16.2-9.5-2.2-3.3-8.1-13.4t-9.8-15.6q-24-33.5-57.2-54.1t-71.1-20.6-71.1 20.6-57.2 54.1q-3.9 5.6-9.8 15.6t-8.1 13.4q-6.1 9.5-16.2 9.5-9.5 0-15.6-9.5-2.2-3.3-8.1-13.4t-9.8-15.6q-24-33.5-57.5-54.1t-71.4-20.6q-32.4 0-56.9 12.8t-51.9 38.5q-6.7 5.6-12.8 5.6-7.3 0-12.6-5.3t-5.3-12.6zm214.3 308.6q0-14.5 10.6-25.1t25.1-10.6 25.1 10.6 10.6 25.1q0 27.9 21.8 49.7t49.7 21.8 49.7-21.8 21.8-49.7v-323.6q18.4-6.1 35.7-6.1t35.7 6.1v323.6q0 58-42.4 100.4t-100.4 42.4-100.4-42.4-42.4-100.4zm214.3-659.6v-54.7q0-14.5 10.6-25.1t25.1-10.6 25.1 10.6 10.6 25.1v54.7q-23.4-1.1-35.7-1.1t-35.7 1.1z"/></svg>