<svg height="1000" width="857.143" xmlns="http://www.w3.org/2000/svg"><path d="M26.784 124.498q-20.646 -1.116 -25.11 -2.232l-1.674 -49.104q7.254 -.558 22.32 -.558 33.48 0 62.496 2.232 73.656 3.906 92.628 3.906 47.988 0 93.744 -1.674 64.728 -2.232 81.468 -2.79 31.248 0 47.988 -1.116l-.558 7.812 1.116 35.712v5.022q-33.48 5.022 -69.192 5.022 -33.48 0 -44.082 13.95 -7.254 7.812 -7.254 73.656 0 7.254 .279 18.135t.279 14.229l.558 127.782 7.812 156.24q3.348 69.192 28.458 112.716 19.53 32.922 53.568 51.336 49.104 26.226 98.766 26.226 58.032 0 106.578 -15.624 31.248 -10.044 55.242 -28.458 26.784 -20.088 36.27 -35.712 20.088 -31.248 29.574 -63.612 11.718 -40.734 11.718 -127.782 0 -44.082 -1.953 -71.424t-6.138 -68.355 -7.533 -89.001l-2.232 -32.922q-2.79 -37.386 -13.392 -49.104 -18.972 -19.53 -42.966 -18.972l-55.8 1.116 -7.812 -1.674 1.116 -47.988h46.872l114.39 5.58q42.408 1.674 109.368 -5.58l10.044 1.116q3.348 21.204 3.348 28.458 0 3.906 -2.232 17.298 -25.11 6.696 -46.872 7.254 -40.734 6.138 -44.082 9.486 -8.37 8.37 -8.37 22.878 0 3.906 .837 15.066t.837 17.298q4.464 10.602 12.276 220.968 3.348 108.81 -8.37 169.632 -8.37 42.408 -22.878 68.076 -21.204 36.27 -62.496 68.634 -41.85 31.806 -101.556 49.662 -60.822 18.414 -142.29 18.414 -93.186 0 -158.472 -25.668 -66.402 -26.226 -99.882 -68.076 -34.038 -42.408 -46.314 -108.81 -8.928 -44.64 -8.928 -132.246v-185.814q0 -104.904 -9.486 -118.854 -13.95 -20.088 -82.026 -21.762zm830.304 786.222v-35.712q0 -7.812 -5.022 -12.834t-12.834 -5.022h-821.376q-7.812 0 -12.834 5.022t-5.022 12.834v35.712q0 7.812 5.022 12.834t12.834 5.022h821.376q7.812 0 12.834 -5.022t5.022 -12.834z"/></svg>