<svg height="1000px" width="857.1428571428571px" xmlns="http://www.w3.org/2000/svg">
  <g>
    <path d="M0 875c0 -5.208 1.674 -9.487 5.022 -12.835c3.349 -3.348 7.627 -5.022 12.835 -5.022c0 0 821.429 0 821.429 0c5.208 0 9.486 1.674 12.835 5.022c3.348 3.348 5.022 7.627 5.022 12.835c0 0 0 35.714 0 35.714c0 5.209 -1.674 9.487 -5.022 12.835c-3.349 3.348 -7.627 5.022 -12.835 5.022c0 0 -821.429 0 -821.429 0c-5.208 0 -9.486 -1.674 -12.835 -5.022c-3.348 -3.348 -5.022 -7.626 -5.022 -12.835c0 0 0 -35.714 0 -35.714c0 0 0 0 0 0m0 -801.897c4.836 -0.372 12.277 -0.558 22.321 -0.558c22.322 0 43.155 0.744 62.5 2.232c49.108 2.604 79.986 3.906 92.634 3.906c31.994 0 63.244 -0.558 93.75 -1.674c43.155 -1.488 70.313 -2.418 81.474 -2.79c20.833 0 36.83 -0.372 47.991 -1.116c0 0 -0.558 7.812 -0.558 7.812c0 0 1.116 35.714 1.116 35.714c0 0 0 5.023 0 5.023c-22.322 3.348 -45.387 5.022 -69.197 5.022c-22.321 0 -37.016 4.65 -44.085 13.951c-4.836 5.208 -7.254 29.762 -7.254 73.661c0 4.836 0.093 10.881 0.279 18.136c0.186 7.254 0.279 11.998 0.279 14.23c0 0 0.558 127.79 0.558 127.79c0 0 7.813 156.25 7.813 156.25c2.232 46.131 11.718 83.705 28.459 112.723c13.021 21.95 30.878 39.063 53.572 51.339c32.738 17.486 65.662 26.228 98.772 26.228c38.691 0 74.219 -5.208 106.585 -15.625c20.833 -6.696 39.248 -16.183 55.245 -28.46c17.858 -13.393 29.948 -25.297 36.273 -35.714c13.393 -20.833 23.251 -42.039 29.576 -63.616c7.812 -27.158 11.718 -69.754 11.718 -127.79c0 -29.39 -0.651 -53.2 -1.953 -71.429c-1.302 -18.229 -3.348 -41.015 -6.138 -68.359c-2.79 -27.344 -5.301 -57.013 -7.534 -89.007c0 0 -2.232 -32.924 -2.232 -32.924c-1.86 -24.926 -6.324 -41.295 -13.393 -49.107c-12.648 -13.021 -26.971 -19.345 -42.968 -18.973c0 0 -55.804 1.116 -55.804 1.116c0 0 -7.812 -1.674 -7.812 -1.674c0 0 1.116 -47.991 1.116 -47.991c0 0 46.875 0 46.875 0c0 0 114.397 5.58 114.397 5.58c28.274 1.116 64.732 -0.744 109.375 -5.58c0 0 10.045 1.116 10.045 1.116c2.232 14.137 3.348 23.623 3.348 28.459c0 2.605 -0.744 8.371 -2.232 17.3c-16.741 4.464 -32.366 6.882 -46.875 7.254c-27.158 4.092 -41.853 7.255 -44.085 9.487c-5.58 5.58 -8.371 13.206 -8.371 22.879c0 2.604 0.279 7.627 0.837 15.067c0.558 7.441 0.837 13.207 0.837 17.299c2.977 7.069 7.069 80.729 12.277 220.982c2.232 72.545 -0.558 129.093 -8.37 169.643c-5.581 28.274 -13.207 50.967 -22.88 68.081c-14.137 24.181 -34.97 47.061 -62.5 68.638c-27.902 21.205 -61.756 37.76 -101.562 49.665c-40.551 12.277 -87.984 18.415 -142.299 18.415c-62.128 0 -114.956 -8.556 -158.482 -25.669c-44.271 -17.485 -77.567 -40.179 -99.889 -68.081c-22.693 -28.274 -38.132 -64.546 -46.317 -108.817c-5.952 -29.762 -8.928 -73.846 -8.928 -132.254c0 0 0 -185.826 0 -185.826c0 -69.941 -3.163 -109.561 -9.487 -118.862c-9.301 -13.392 -36.644 -20.647 -82.031 -21.763c-13.765 -0.744 -22.136 -1.488 -25.112 -2.232c0 0 -1.674 -49.107 -1.674 -49.107" />
  </g>
</svg>