<svg height="1000" width="857.1" xmlns="http://www.w3.org/2000/svg"><path d="M0 875q0-7.8 5-12.8t12.8-5h821.4q7.8 0 12.8 5t5 12.8v35.7q0 7.8-5 12.8t-12.8 5h-821.4q-7.8 0-12.8-5t-5-12.8v-35.7zm0-801.8q7.3-.6 22.3-.6 33.5 0 62.5 2.2 73.7 3.9 92.6 3.9 48 0 93.7-1.7 64.7-2.2 81.5-2.8 31.2 0 48-1.1l-.6 7.8 1.1 35.7v5q-33.5 5-69.2 5-33.5 0-44.1 14-7.3 7.8-7.3 73.7 0 7.3.3 18.1t.3 14.2l.6 127.8 7.8 156.2q3.3 69.2 28.5 112.7 19.5 32.9 53.6 51.3 49.1 26.2 98.8 26.2 58 0 106.6-15.6 31.2-10 55.2-28.5 26.8-20.1 36.3-35.7 20.1-31.2 29.6-63.6 11.7-40.7 11.7-127.8 0-44.1-2-71.4t-6.1-68.4-7.5-89l-2.2-32.9q-2.8-37.4-13.4-49.1-19-19.5-43-19l-55.8 1.1-7.8-1.7 1.1-48h46.9l114.4 5.6q42.4 1.7 109.4-5.6l10 1.1q3.3 21.2 3.3 28.5 0 3.9-2.2 17.3-25.1 6.7-46.9 7.3-40.7 6.1-44.1 9.5-8.4 8.4-8.4 22.9 0 3.9.8 15.1t.8 17.3q4.5 10.6 12.3 221 3.3 108.8-8.4 169.6-8.4 42.4-22.9 68.1-21.2 36.3-62.5 68.6-41.9 31.8-101.6 49.7-60.8 18.4-142.3 18.4-93.2 0-158.5-25.7-66.4-26.2-99.9-68.1-34-42.4-46.3-108.8-8.9-44.6-8.9-132.2v-185.8q0-104.9-9.5-118.9-14-20.1-82-21.8-20.6-1.1-25.1-2.2z"/></svg>