<svg height="1000px" width="857.1428571428571px" xmlns="http://www.w3.org/2000/svg">
  <g>
    <path d="M857.1428571428571 910.7142857142857c0 5.208 -1.674 9.487 -5.022 12.835c-3.349 3.348 -7.627 5.022 -12.835 5.022c0 0 -821.429 0 -821.429 0c-5.208 0 -9.486 -1.674 -12.835 -5.022c-3.348 -3.348 -5.022 -7.627 -5.022 -12.835c0 0 0 -35.714 0 -35.714c0 -5.209 1.674 -9.487 5.022 -12.835c3.349 -3.348 7.627 -5.022 12.835 -5.022c0 0 821.429 0 821.429 0c5.208 0 9.486 1.674 12.835 5.022c3.348 3.348 5.022 7.626 5.022 12.835c0 0 0 35.714 0 35.714c0 0 0 0 0 0m-101.563 -752.79c0 0 1.675 32.366 1.675 32.366c2.976 7.068 7.068 80.729 12.276 220.982c3.721 115.327 -6.696 194.568 -31.25 237.723c-14.137 24.182 -34.97 47.061 -62.5 68.639c-59.895 45.387 -141.183 68.08 -243.861 68.08c-62.128 0 -115.142 -8.65 -159.04 -25.949c-43.899 -17.299 -77.102 -39.992 -99.61 -68.08c-22.507 -28.088 -37.295 -60.64 -44.364 -97.656c-7.068 -37.017 -10.602 -84.729 -10.602 -143.136c0 0 0 -185.826 0 -185.826c0 -69.941 -3.162 -109.561 -9.487 -118.862c-9.3 -13.393 -36.644 -20.647 -82.031 -21.763c-13.765 -0.744 -22.136 -1.488 -25.112 -2.232c0 0 -1.674 -49.108 -1.674 -49.108c4.836 -0.372 12.277 -0.558 22.322 -0.558c0 0 155.134 6.139 155.134 6.139c27.529 0 68.824 -0.744 123.883 -2.232c55.06 -1.488 88.17 -2.605 99.331 -3.349c0 0 -0.558 7.813 -0.558 7.813c0 0 1.116 35.714 1.116 35.714c0 0 0 5.023 0 5.023c-22.322 3.348 -45.015 5.022 -68.081 5.022c-23.065 0 -38.132 4.65 -45.2 13.951c-4.837 5.208 -7.255 29.762 -7.255 73.66c0 0 0.558 32.367 0.558 32.367c0 0 0.558 127.79 0.558 127.79c0 0 7.813 156.25 7.813 156.25c4.092 81.845 31.436 136.532 82.031 164.062c32.738 17.485 66.964 26.228 102.679 26.228c66.964 0 119.605 -14.695 157.924 -44.085c31.25 -23.437 53.199 -56.548 65.848 -99.33c7.812 -27.158 11.719 -62.593 11.719 -106.306c0 -43.713 -0.651 -74.684 -1.954 -92.913c-1.302 -18.229 -3.348 -41.016 -6.138 -68.359c-2.79 -27.344 -5.301 -57.013 -7.533 -89.007c0 0 -2.233 -32.924 -2.233 -32.924c-1.86 -24.926 -6.324 -41.295 -13.392 -49.107c-12.649 -13.021 -26.972 -19.346 -42.969 -18.974c0 0 -55.804 1.116 -55.804 1.116c0 0 -7.812 -1.674 -7.812 -1.674c0 0 1.116 -47.991 1.116 -47.991c0 0 46.875 0 46.875 0c0 0 114.397 5.581 114.397 5.581c28.274 1.116 64.732 -0.744 109.375 -5.581c0 0 10.045 1.116 10.045 1.116c2.232 14.137 3.348 23.066 3.348 26.786c0 3.72 -0.744 10.045 -2.232 18.973c-16.741 4.465 -32.366 6.883 -46.875 7.255c-27.158 4.092 -42.69 8.091 -46.596 11.998c-3.906 3.906 -5.859 10.695 -5.859 20.368c0 0 0 0 0 0" />
  </g>
</svg>