<svg height="1000px" width="857.1428571428571px" xmlns="http://www.w3.org/2000/svg">
  <g>
    <path d="M0 875c0 -5.208 1.674 -9.487 5.022 -12.835c3.349 -3.348 7.627 -5.022 12.835 -5.022c0 0 821.429 0 821.429 0c5.208 0 9.486 1.674 12.835 5.022c3.348 3.348 5.022 7.627 5.022 12.835c0 0 0 35.714 0 35.714c0 5.209 -1.674 9.487 -5.022 12.835c-3.349 3.348 -7.627 5.022 -12.835 5.022c0 0 -821.429 0 -821.429 0c-5.208 0 -9.486 -1.674 -12.835 -5.022c-3.348 -3.348 -5.022 -7.626 -5.022 -12.835c0 0 0 -35.714 0 -35.714c0 0 0 0 0 0m0 -801.897c4.836 -0.372 12.277 -0.558 22.321 -0.558c0 0 155.134 6.138 155.134 6.138c27.53 0 68.825 -0.744 123.884 -2.232c55.06 -1.488 88.17 -2.604 99.331 -3.348c0 0 -0.558 7.812 -0.558 7.812c0 0 1.116 35.714 1.116 35.714c0 0 0 5.023 0 5.023c-22.322 3.348 -45.015 5.022 -68.081 5.022c-23.065 0 -38.132 4.65 -45.201 13.951c-4.836 5.208 -7.254 29.762 -7.254 73.661c0 0 0.558 32.366 0.558 32.366c0 0 0.558 127.79 0.558 127.79c0 0 7.813 156.25 7.813 156.25c4.092 81.845 31.436 136.533 82.031 164.062c32.738 17.486 66.964 26.228 102.678 26.228c66.965 0 119.606 -14.695 157.924 -44.085c31.25 -23.437 53.2 -56.547 65.849 -99.33c7.812 -27.158 11.718 -62.593 11.718 -106.306c0 -43.713 -0.651 -74.684 -1.953 -92.913c-1.302 -18.229 -3.348 -41.015 -6.138 -68.359c-2.79 -27.344 -5.301 -57.013 -7.534 -89.007c0 0 -2.232 -32.924 -2.232 -32.924c-1.86 -24.926 -6.324 -41.295 -13.393 -49.107c-12.297 -12.659 -26.177 -18.989 -41.639 -18.989c-0.442 0 -0.885 0.005 -1.329 0.016c0 0 -55.804 1.116 -55.804 1.116c0 0 -7.812 -1.674 -7.812 -1.674c0 0 1.116 -47.991 1.116 -47.991c0 0 46.875 0 46.875 0c0 0 114.397 5.58 114.397 5.58c5.301 0.209 10.89 0.314 16.767 0.314c25.466 0 56.336 -1.965 92.608 -5.894c0 0 10.045 1.116 10.045 1.116c2.232 14.137 3.348 23.065 3.348 26.785c0 3.721 -0.744 10.045 -2.232 18.974c-16.741 4.464 -32.366 6.882 -46.875 7.254c-27.158 4.092 -42.69 8.092 -46.596 11.998c-3.907 3.906 -5.86 10.696 -5.86 20.368c0 0 1.674 32.366 1.674 32.366c2.977 7.069 7.069 80.729 12.277 220.982c0.49 15.175 0.734 29.725 0.734 43.65c0 91.906 -10.661 156.597 -31.984 194.074c-14.137 24.181 -34.97 47.061 -62.5 68.638c-59.896 45.387 -141.183 68.08 -243.861 68.08c-62.128 0 -115.142 -8.649 -159.041 -25.948c-43.898 -17.299 -77.102 -39.993 -99.609 -68.081c-22.507 -28.087 -37.295 -60.639 -44.364 -97.656c-7.068 -37.016 -10.602 -84.728 -10.602 -143.136c0 0 0 -185.826 0 -185.826c0 -69.94 -3.163 -109.561 -9.487 -118.862c-9.301 -13.392 -36.644 -20.647 -82.031 -21.763c-13.765 -0.744 -22.136 -1.488 -25.112 -2.232c0 0 -1.674 -49.107 -1.674 -49.107" />
  </g>
</svg>