<svg height="1000" width="1000" xmlns="http://www.w3.org/2000/svg"><path d="M766.7 366.6q-3.3 -14.5 -15.9 -22t-27 -4.2Q578.1 375 500 375T276.2 340.4q-14.5 -3.3 -27 4.2t-15.9 22 4.1 27.1 22.1 15.9q108.2 25.7 169.1 32.4 -1.1 88.1 -8.7 150.1t-14.8 86.8 -22.8 64.4l-5.1 11.7q-5.5 14 .6 27.4t20.1 18.9q5 2.3 12.8 2.3 24.6 0 33.5 -22.9l4.5 -11.2Q478.8 692 488.3 625h23.4q9.5 67 39.6 144.5l4.5 11.2q8.9 22.9 33.5 22.9 7.8 0 12.8 -2.3 14 -5.5 20.1 -18.9t.6 -27.4l-5.1 -11.7q-15.6 -39.6 -22.8 -64.4t-14.8 -86.8T571.4 442q60.9 -6.7 169.1 -32.4 14.5 -3.3 22.1 -15.9t4.1 -27.1zM571.4 285.7q0 -29.6 -20.9 -50.5T500 214.3t-50.5 20.9 -20.9 50.5 20.9 50.5 50.5 20.9 50.5 -20.9 20.9 -50.5zM892.9 500q0 79.8 -31 152.6t-83.7 125.6 -125.6 83.7 -152.6 31 -152.6 -31T221.8 778.2 138.1 652.6 107.1 500t31 -152.6 83.7 -125.6 125.6 -83.7 152.6 -31 152.6 31 125.6 83.7 83.7 125.6 31 152.6zM500 71.4q-87.1 0 -166.3 34.1T197 197t-91.5 136.7T71.4 500t34.1 166.3T197 803t136.7 91.5T500 928.6t166.3 -34.1T803 803t91.5 -136.7T928.6 500 894.5 333.7 803 197 666.3 105.5 500 71.4zM1000 500q0 101.6 -39.6 194.2T853.8 853.8 694.2 960.4 500 1000 305.8 960.4 146.2 853.8 39.6 694.2 0 500 39.6 305.8 146.2 146.2 305.8 39.6 500 0t194.2 39.6 159.6 106.6 106.6 159.6T1000 500z"/></svg>