<svg height="1000" width="928.571" xmlns="http://www.w3.org/2000/svg"><path d="M244.962 709.282l-142.848 142.848q-5.58 5.022 -12.834 5.022 -6.696 0 -12.834 -5.022 -5.022 -5.58 -5.022 -12.834t5.022 -12.834l142.848 -142.848q5.58 -5.022 12.834 -5.022t12.834 5.022q5.022 5.58 5.022 12.834t-5.022 12.834zm94.302 22.878v178.56q0 7.812 -5.022 12.834t-12.834 5.022 -12.834 -5.022 -5.022 -12.834v-178.56q0 -7.812 5.022 -12.834t12.834 -5.022 12.834 5.022 5.022 12.834zm-124.992 -124.992q0 7.812 -5.022 12.834t-12.834 5.022h-178.56q-7.812 0 -12.834 -5.022t-5.022 -12.834 5.022 -12.834 12.834 -5.022h178.56q7.812 0 12.834 5.022t5.022 12.834zm705.312 71.424q0 66.96 -47.43 113.274l-82.026 81.468q-46.314 46.314 -113.274 46.314 -67.518 0 -113.832 -47.43l-186.372 -186.93q-11.718 -11.718 -23.436 -31.248l133.362 -10.044 152.334 152.892q15.066 15.066 37.944 15.345t37.944 -14.787l82.026 -81.468q15.624 -15.624 15.624 -37.386 0 -22.32 -15.624 -37.944l-152.892 -153.45 10.044 -133.362q19.53 11.718 31.248 23.436l187.488 187.488q46.872 47.988 46.872 113.832zm-344.286 -403.992l-133.362 10.044 -152.334 -152.892q-15.624 -15.624 -37.944 -15.624 -21.762 0 -37.944 15.066l-82.026 81.468q-15.624 15.624 -15.624 37.386 0 22.32 15.624 37.944l152.892 152.892 -10.044 133.92q-19.53 -11.718 -31.248 -23.436l-187.488 -187.488q-46.872 -47.988 -46.872 -113.832 0 -66.96 47.43 -113.274l82.026 -81.468q46.314 -46.314 113.274 -46.314 67.518 0 113.832 47.43l186.372 186.93q11.718 11.718 23.436 31.248zm353.214 46.872q0 7.812 -5.022 12.834t-12.834 5.022h-178.56q-7.812 0 -12.834 -5.022t-5.022 -12.834 5.022 -12.834 12.834 -5.022h178.56q7.812 0 12.834 5.022t5.022 12.834zm-303.552 -303.552v178.56q0 7.812 -5.022 12.834t-12.834 5.022 -12.834 -5.022 -5.022 -12.834v-178.56q0 -7.812 5.022 -12.834t12.834 -5.022 12.834 5.022 5.022 12.834zm227.106 84.258l-142.848 142.848q-6.138 5.022 -12.834 5.022t-12.834 -5.022q-5.022 -5.58 -5.022 -12.834t5.022 -12.834l142.848 -142.848q5.58 -5.022 12.834 -5.022t12.834 5.022q5.022 5.58 5.022 12.834t-5.022 12.834z"/></svg>