<svg height="1000" width="928.6" xmlns="http://www.w3.org/2000/svg"><path d="M245 709.3L102.1 852.1q-5.6 5 -12.8 5 -6.7 0 -12.8 -5 -5.1 -5.6 -5.1 -12.8t5.1 -12.8L219.3 683.6q5.6 -5 12.8 -5t12.9 5q5 5.6 5 12.8t-5 12.9zm94.3 22.8v178.6q0 7.8 -5 12.8t-12.9 5.1 -12.8 -5.1 -5 -12.8V732.1q0 -7.8 5 -12.8t12.8 -5 12.9 5 5 12.8zm-125 -125q0 7.9 -5 12.9t-12.9 5H17.9Q10 625 5 620T0 607.1t5 -12.8 12.9 -5h178.5q7.8 0 12.9 5t5 12.8zm705.3 71.5q0 66.9 -47.4 113.3l-82 81.4q-46.3 46.3 -113.3 46.3 -67.5 0 -113.8 -47.4L376.7 685.3Q365 673.5 353.2 654l133.4 -10L639 796.9q15 15 37.9 15.3t37.9 -14.8L796.9 716q15.6 -15.7 15.6 -37.4 0 -22.3 -15.6 -38L644 487.2l10 -133.4q19.5 11.7 31.3 23.4l187.5 187.5q46.8 48 46.8 113.9zm-344.3 -404l-133.3 10L289.6 131.7Q274 116.1 251.7 116.1q-21.8 0 -38 15l-82 81.5q-15.6 15.6 -15.6 37.4 0 22.3 15.6 37.9l152.9 152.9 -10 134Q255 563.1 243.3 551.3L55.8 363.8Q8.9 315.8 8.9 250q0 -67 47.5 -113.3l82 -81.5Q184.7 8.9 251.7 8.9q67.5 0 113.8 47.5l186.4 186.9q11.7 11.7 23.4 31.3zm353.3 46.8q0 7.8 -5.1 12.9t-12.8 5H732.1q-7.8 0 -12.8 -5t-5 -12.9 5 -12.8 12.8 -5h178.6q7.8 0 12.8 5t5.1 12.8zM625 17.9v178.5q0 7.8 -5 12.9t-12.9 5 -12.8 -5 -5 -12.9V17.9q0 -7.9 5 -12.9t12.8 -5T620 5t5 12.9zm227.1 84.2L709.3 245q-6.2 5 -12.9 5t-12.8 -5q-5 -5.6 -5 -12.9t5 -12.8L826.5 76.5q5.5 -5.1 12.8 -5.1t12.8 5.1q5 5.5 5 12.8t-5 12.8z"/></svg>