<svg height="1000" width="928.571" xmlns="http://www.w3.org/2000/svg"><path d="M898.938 541.882q0 28.458 -20.646 50.22l-41.85 41.85q-21.204 21.204 -50.778 21.204 -30.132 0 -50.22 -21.204l-164.052 -163.494v392.832q0 29.016 -20.925 47.151t-50.499 18.135h-71.424q-29.574 0 -50.499 -18.135t-20.925 -47.151v-392.832l-164.052 163.494q-20.088 21.204 -50.22 21.204t-50.22 -21.204l-41.85 -41.85q-21.204 -21.204 -21.204 -50.22 0 -29.574 21.204 -50.778l363.258 -363.258q19.53 -20.646 50.22 -20.646 30.132 0 50.778 20.646l363.258 363.258q20.646 21.762 20.646 50.778z"/></svg>