<svg height="1000" width="857.143" xmlns="http://www.w3.org/2000/svg"><path d="M623.844 488.872q-4.464 11.16 -16.74 11.16h-107.136v196.416q0 7.812 -5.022 12.834t-12.834 5.022h-107.136q-7.812 0 -12.834 -5.022t-5.022 -12.834v-196.416h-107.136q-7.812 0 -12.834 -5.022t-5.022 -12.834q0 -6.696 5.58 -13.392l178.002 -178.002q6.138 -5.022 12.834 -5.022t12.834 5.022l178.56 178.56q8.37 8.928 3.906 19.53zm-195.3 -292.392q-82.584 0 -152.334 40.734t-110.484 110.484 -40.734 152.334 40.734 152.334 110.484 110.484 152.334 40.734 152.334 -40.734 110.484 -110.484 40.734 -152.334 -40.734 -152.334 -110.484 -110.484 -152.334 -40.734zm428.544 303.552q0 116.622 -57.474 215.109t-155.961 155.961 -215.109 57.474 -215.109 -57.474 -155.961 -155.961 -57.474 -215.109 57.474 -215.109 155.961 -155.961 215.109 -57.474 215.109 57.474 155.961 155.961 57.474 215.109z"/></svg>