<svg height="1000" width="857.1" xmlns="http://www.w3.org/2000/svg"><path d="M623.9 488.8Q619.4 500 607.1 500H500v196.4q0 7.8 -5 12.9t-12.9 5H375q-7.8 0 -12.8 -5t-5.1 -12.9V500H250q-7.8 0 -12.8 -5t-5.1 -12.9q0 -6.7 5.6 -13.4l178 -178q6.2 -5 12.9 -5t12.8 5L620 469.3q8.3 8.9 3.9 19.5zM428.6 196.4q-82.6 0 -152.4 40.8T165.7 347.7 125 500t40.7 152.3 110.5 110.5 152.4 40.8 152.3 -40.8T691.4 652.3 732.1 500 691.4 347.7 580.9 237.2 428.6 196.4zM857.1 500q0 116.6 -57.4 215.1t-156 156 -215.1 57.5T213.4 871.1 57.5 715.1 0 500 57.5 284.9t155.9 -156T428.6 71.4t215.1 57.5 156 156T857.1 500z"/></svg>