<svg height="1000px" width="779.78515625px" xmlns="http://www.w3.org/2000/svg">
  <g>
    <path d="M0 500c0 -54.036 10.173 -104.736 30.518 -152.1c20.345 -47.363 48.177 -88.704 83.496 -124.023c35.319 -35.319 76.66 -63.151 124.023 -83.496c47.363 -20.345 98.063 -30.518 152.1 -30.518c54.036 0 104.655 10.173 151.855 30.518c47.201 20.345 88.542 48.177 124.024 83.496c35.481 35.319 63.313 76.66 83.496 124.023c20.182 47.364 30.273 98.064 30.273 152.1c0 54.036 -10.091 104.736 -30.273 152.1c-20.183 47.363 -48.015 88.704 -83.496 124.023c-35.482 35.319 -76.823 63.151 -124.024 83.496c-47.2 20.345 -97.819 30.518 -151.855 30.518c-54.037 0 -104.737 -10.173 -152.1 -30.518c-47.363 -20.345 -88.704 -48.177 -124.023 -83.496c-35.319 -35.319 -63.151 -76.66 -83.496 -124.023c-20.345 -47.364 -30.518 -98.064 -30.518 -152.1c0 0 0 0 0 0m117.188 0c0 38.086 7.161 73.568 21.484 106.445c14.323 32.878 33.773 61.687 58.349 86.426c24.577 24.74 53.386 44.271 86.426 58.594c33.041 14.323 68.604 21.484 106.69 21.484c38.086 0 73.567 -7.161 106.445 -21.484c32.878 -14.323 61.686 -33.854 86.426 -58.594c24.739 -24.739 44.271 -53.548 58.594 -86.426c14.322 -32.877 21.484 -68.359 21.484 -106.445c0 -38.086 -7.162 -73.568 -21.484 -106.445c-14.323 -32.878 -33.855 -61.687 -58.594 -86.426c-24.74 -24.74 -53.548 -44.271 -86.426 -58.594c-32.878 -14.323 -68.359 -21.484 -106.445 -21.484c-38.086 0 -73.649 7.161 -106.69 21.484c-33.04 14.323 -61.849 33.854 -86.426 58.594c-24.576 24.739 -44.026 53.548 -58.349 86.426c-14.323 32.877 -21.484 68.359 -21.484 106.445c0 0 0 0 0 0m84.96 -12.207c-3.255 -8.138 -1.627 -15.137 4.883 -20.996c0 0 168.946 -168.945 168.946 -168.945c4.557 -3.256 9.277 -4.883 14.16 -4.883c4.557 0 9.114 1.627 13.672 4.883c0 0 169.433 168.945 169.433 168.945c6.511 5.859 8.138 12.858 4.883 20.996c-3.255 8.138 -9.277 12.207 -18.066 12.207c0 0 -102.051 0 -102.051 0c0 0 0 175.781 0 175.781c0 5.209 -1.872 9.684 -5.615 13.428c-3.744 3.743 -8.22 5.615 -13.428 5.615c0 0 -98.145 0 -98.145 0c-5.208 0 -9.684 -1.79 -13.427 -5.371c-3.744 -3.581 -5.616 -8.138 -5.616 -13.672c0 0 0 -175.781 0 -175.781c0 0 -101.562 0 -101.562 0c-8.789 0 -14.811 -4.069 -18.067 -12.207c0 0 0 0 0 0" />
  </g>
</svg>