<svg height="1000" width="857.1" xmlns="http://www.w3.org/2000/svg"><path d="M716.5 499.4q0 -15 -10 -25.1l-202 -202 -50.8 -50.8q-10.1 -10 -25.1 -10t-25.1 10l-50.8 50.8 -202 202q-10.1 10.1 -10.1 25.1t10.1 25.2l50.8 50.7q10 10.1 25.1 10.1t25.1 -10.1L357.1 469.9V750q0 14.5 10.6 25.1t25.2 10.6h71.4q14.5 0 25.1 -10.6T500 750V469.9l105.5 105.4q10.6 10.6 25.1 10.6t25.1 -10.6l50.8 -50.7q10 -10.1 10 -25.2zm140.6 .6q0 116.6 -57.4 215.1t-156 156 -215.1 57.5T213.4 871.1 57.5 715.1 0 500 57.5 284.9t155.9 -156T428.6 71.4t215.1 57.5 156 156T857.1 500z"/></svg>