<svg height="1000px" width="857.1428571428571px" xmlns="http://www.w3.org/2000/svg">
  <g>
    <path d="M812.2209821428571 337.05357142857133c29.948 31.994 44.922 73.475 44.922 124.442c0 50.967 -11.905 109.282 -35.714 174.944c-23.81 65.662 -35.715 109.468 -35.715 131.418c0 0 0 160.714 0 160.714c0 19.717 -6.975 36.551 -20.926 50.502c-13.951 13.951 -30.785 20.926 -50.502 20.926c0 0 -357.143 0 -357.143 0c-19.717 0 -36.551 -6.975 -50.502 -20.926c-13.951 -13.951 -20.927 -30.785 -20.927 -50.502c0 0 0 -160.714 0 -160.714c0 -8.185 -2.604 -15.532 -7.812 -22.043c-5.209 -6.51 -9.394 -11.719 -12.556 -15.625c-3.162 -3.906 -7.347 -8.37 -12.556 -13.393c-4.836 -5.022 -8.742 -8.835 -11.719 -11.439c-10.416 -9.673 -17.671 -15.811 -21.763 -18.416c-27.53 -24.181 -48.363 -40.736 -62.5 -49.665c-14.137 -8.928 -28.832 -17.113 -44.085 -24.553c-15.253 -7.441 -28.646 -14.323 -40.178 -20.648c-11.533 -6.324 -23.252 -13.951 -35.157 -22.879c-24.925 -18.229 -37.388 -41.295 -37.388 -69.197c0 -46.503 12.463 -84.914 37.388 -115.234c24.926 -30.32 60.082 -45.48 105.469 -45.48c25.298 0 49.107 4.092 71.429 12.277c0 0 0 -208.705 0 -208.705c0 -38.691 14.137 -72.173 42.41 -100.447c28.274 -28.274 61.756 -42.411 100.447 -42.411c38.69 0 72.172 14.044 100.446 42.132c28.274 28.088 42.411 61.663 42.411 100.726c0 0 0 94.308 0 94.308c23.065 1.488 45.201 8.37 66.406 20.647c7.813 -1.116 15.811 -1.674 23.996 -1.674c37.574 0 70.684 11.161 99.33 33.482c51.711 -0.372 92.541 15.439 122.489 47.433c0 0 0 0 0 0m-26.507 129.464c0 -70.312 -31.064 -105.468 -93.192 -105.468c-9.672 0 -20.089 0.93 -31.25 2.79c-5.952 -11.161 -15.718 -19.997 -29.297 -26.507c-13.578 -6.51 -27.25 -9.766 -41.015 -9.766c-13.765 0 -26.6 3.349 -38.505 10.045c-18.601 -19.717 -40.736 -29.576 -66.406 -29.576c-9.3 0 -19.624 1.86 -30.971 5.581c-11.347 3.72 -20.182 8.37 -26.507 13.95c0 0 0 -184.709 0 -184.709c0 -19.346 -7.068 -36.087 -21.205 -50.224c-14.137 -14.137 -30.785 -21.205 -49.944 -21.205c-19.159 0 -35.9 7.254 -50.223 21.763c-14.323 14.509 -21.485 31.064 -21.485 49.666c0 0 0 321.428 0 321.428c-12.276 0 -27.343 -6.138 -45.201 -18.415c-34.598 -23.438 -65.848 -35.156 -93.75 -35.156c-50.223 0 -75.334 29.762 -75.334 89.285c0 8.929 25.855 25.67 77.567 50.224c16.369 8.928 32.459 18.322 48.27 28.18c15.811 9.859 38.783 28.088 68.917 54.688c30.134 26.6 49.851 45.48 59.152 56.641c21.205 25.669 31.808 51.711 31.808 78.125c0 0 0 17.857 0 17.857c0 0 357.143 0 357.143 0c0 0 0 -17.857 0 -17.857c0 -26.786 5.952 -57.85 17.857 -93.192c11.905 -35.343 23.809 -71.336 35.714 -107.98c11.905 -36.645 17.857 -70.034 17.857 -100.168c0 0 0 0 0 0m-71.428 426.34c0 -9.673 -3.534 -18.044 -10.603 -25.112c-7.068 -7.068 -15.439 -10.603 -25.112 -10.603c-9.672 0 -18.043 3.535 -25.111 10.603c-7.069 7.068 -10.603 15.439 -10.603 25.112c0 9.672 3.534 18.043 10.603 25.111c7.068 7.069 15.439 10.603 25.111 10.603c9.673 0 18.044 -3.534 25.112 -10.603c7.069 -7.068 10.603 -15.439 10.603 -25.111c0 0 0 0 0 0" />
  </g>
</svg>