<svg height="1000" width="857.143" xmlns="http://www.w3.org/2000/svg"><path d="M714.24 892.864q0 -14.508 -10.602 -25.11t-25.11 -10.602 -25.11 10.602 -10.602 25.11 10.602 25.11 25.11 10.602 25.11 -10.602 10.602 -25.11zm71.424 -426.312q0 -105.462 -93.186 -105.462 -14.508 0 -31.248 2.79 -8.928 -16.74 -29.295 -26.505t-41.013 -9.765 -38.502 10.044q-27.9 -29.574 -66.402 -29.574 -13.95 0 -30.969 5.58t-26.505 13.95v-184.698q0 -29.016 -21.204 -50.22t-50.22 -21.204q-28.458 0 -49.941 21.762t-21.483 49.662v321.408q-11.16 0 -27.063 -8.37t-30.69 -18.414 -37.944 -18.414 -47.151 -8.37q-37.386 0 -54.405 24.831t-17.019 64.449q0 13.392 77.562 50.22 24.552 13.392 36.27 20.646 35.712 22.32 80.91 62.496 45.198 39.618 59.148 56.358 31.806 38.502 31.806 78.12v17.856h357.12v-17.856q0 -40.176 17.856 -93.186t35.712 -107.973 17.856 -100.161zm71.424 -2.79q0 74.214 -38.502 179.676 -32.922 91.512 -32.922 124.434v160.704q0 29.574 -20.925 50.499t-50.499 20.925h-357.12q-29.574 0 -50.499 -20.925t-20.925 -50.499v-160.704q0 -5.58 -2.511 -11.997t-7.812 -13.113 -10.044 -12.555 -12.555 -13.392 -11.997 -11.439 -11.997 -10.602 -9.486 -7.812q-41.292 -36.27 -71.982 -55.8 -11.718 -7.254 -34.596 -18.414t-40.176 -20.646 -35.154 -22.599 -27.621 -30.69 -9.765 -38.781q0 -69.75 37.386 -115.227t105.462 -45.477q37.944 0 71.424 12.276v-208.692q0 -58.032 42.408 -100.44t99.882 -42.408q58.59 0 100.998 42.129t42.408 100.719v94.302q34.596 2.232 66.402 20.646 11.718 -1.674 23.994 -1.674 56.358 0 99.324 33.48 77.562 -.558 122.481 47.43t44.919 126.666z"/></svg>