<svg height="1000px" width="857.1428571428571px" xmlns="http://www.w3.org/2000/svg">
  <g>
    <path d="M0 499.99999999999994c0 -46.503 12.463 -84.914 37.388 -115.234c24.926 -30.32 60.082 -45.48 105.469 -45.48c25.298 0 49.107 4.092 71.429 12.276c0 0 0 -208.705 0 -208.705c0 -38.69 14.137 -72.172 42.41 -100.446c28.274 -28.274 61.756 -42.411 100.447 -42.411c38.69 0 72.172 14.044 100.446 42.132c28.274 28.087 42.411 61.663 42.411 100.725c0 0 0 94.308 0 94.308c23.065 1.488 45.201 8.371 66.406 20.648c7.813 -1.117 15.811 -1.675 23.996 -1.675c37.574 0 70.684 11.161 99.33 33.483c0 0 1.779 -0.007 1.779 -0.007c50.87 0 91.106 15.813 120.71 47.44c29.948 31.994 44.922 73.474 44.922 124.442c0 50.967 -11.905 109.282 -35.715 174.944c-23.809 65.662 -35.714 109.468 -35.714 131.417c0 0 0 160.714 0 160.714c0 19.718 -6.975 36.552 -20.926 50.503c-13.951 13.951 -30.785 20.926 -50.502 20.926c0 0 -357.143 0 -357.143 0c-19.718 0 -36.552 -6.975 -50.503 -20.926c-13.95 -13.951 -20.926 -30.785 -20.926 -50.503c0 0 0 -160.714 0 -160.714c0 -8.184 -2.604 -15.532 -7.812 -22.042c-5.209 -6.511 -9.394 -11.719 -12.556 -15.625c-3.162 -3.907 -7.348 -8.371 -12.556 -13.393c-4.836 -5.022 -8.743 -8.836 -11.719 -11.44c-10.416 -9.672 -17.671 -15.811 -21.763 -18.415c-27.53 -24.182 -48.363 -40.737 -62.5 -49.665c-14.137 -8.929 -28.832 -17.113 -44.085 -24.554c-15.253 -7.44 -28.646 -14.323 -40.179 -20.647c-11.532 -6.324 -23.251 -13.951 -35.156 -22.88c-24.925 -18.229 -37.388 -41.294 -37.388 -69.196c0 0 0 0 0 0m71.429 0c0 8.929 25.855 25.67 77.567 50.223c16.369 8.929 32.459 18.322 48.27 28.181c15.811 9.859 38.783 28.088 68.917 54.688c30.134 26.599 49.851 45.479 59.152 56.64c21.205 25.67 31.808 51.711 31.808 78.125c0 0 0 17.857 0 17.857c0 0 357.143 0 357.143 0c0 0 0 -17.857 0 -17.857c0 -26.786 5.952 -57.85 17.857 -93.192c11.905 -35.342 23.809 -71.335 35.714 -107.98c11.905 -36.644 17.857 -70.033 17.857 -100.167c0 -70.313 -31.064 -105.469 -93.192 -105.469c-9.672 0 -20.089 0.93 -31.25 2.79c-5.952 -11.16 -15.718 -19.996 -29.297 -26.506c-13.578 -6.511 -27.25 -9.766 -41.015 -9.766c-13.765 0 -26.6 3.348 -38.505 10.045c-18.601 -19.718 -40.736 -29.576 -66.406 -29.576c-9.3 0 -19.624 1.86 -30.971 5.58c-11.347 3.72 -20.182 8.371 -26.507 13.951c0 0 0 -184.71 0 -184.71c0 -19.345 -7.068 -36.086 -21.205 -50.223c-14.137 -14.137 -30.785 -21.205 -49.944 -21.205c-19.159 0 -35.9 7.254 -50.223 21.763c-14.323 14.509 -21.485 31.064 -21.485 49.665c0 0 0 321.429 0 321.429c-12.277 0 -27.343 -6.139 -45.201 -18.415c-34.598 -23.438 -65.848 -35.157 -93.75 -35.157c-50.223 0 -75.334 29.762 -75.334 89.286c0 0 0 0 0 0m571.428 392.857c0 9.673 3.534 18.043 10.603 25.112c7.068 7.068 15.439 10.602 25.111 10.602c9.673 0 18.044 -3.534 25.112 -10.602c7.068 -7.069 10.603 -15.439 10.603 -25.112c0 -9.672 -3.535 -18.043 -10.603 -25.111c-7.068 -7.069 -15.439 -10.603 -25.112 -10.603c-9.672 0 -18.043 3.534 -25.111 10.603c-7.069 7.068 -10.603 15.439 -10.603 25.111c0 0 0 0 0 0" />
  </g>
</svg>