<svg height="1000px" width="857.1428571428571px" xmlns="http://www.w3.org/2000/svg">
  <g>
    <path d="M0 499.99999999999994c0 -46.503 12.463 -84.914 37.388 -115.234c24.926 -30.32 60.082 -45.48 105.469 -45.48c25.298 0 49.107 4.092 71.429 12.276c0 0 0 -208.705 0 -208.705c0 -38.69 14.137 -72.172 42.41 -100.446c28.274 -28.274 61.57 -42.411 99.889 -42.411c39.062 0 72.73 14.044 101.004 42.132c28.274 28.087 42.411 61.663 42.411 100.725c0 0 0 94.308 0 94.308c23.065 1.488 45.201 8.371 66.406 20.648c7.813 -1.117 15.811 -1.675 23.996 -1.675c37.574 0 70.684 11.161 99.33 33.483c51.711 -0.372 92.541 15.439 122.489 47.433c29.948 31.994 44.922 74.218 44.922 126.674c0 49.479 -12.835 109.375 -38.505 179.687c-21.949 61.012 -32.924 102.493 -32.924 124.442c0 0 0 160.714 0 160.714c0 19.718 -6.975 36.552 -20.926 50.503c-13.951 13.951 -30.785 20.926 -50.502 20.926c0 0 -357.143 0 -357.143 0c-19.717 0 -36.551 -6.975 -50.502 -20.926c-13.951 -13.951 -20.927 -30.785 -20.927 -50.503c0 0 0 -160.714 0 -160.714c0 -3.72 -0.837 -7.719 -2.511 -11.998c-1.674 -4.278 -4.278 -8.649 -7.812 -13.113c-3.535 -4.465 -6.883 -8.65 -10.045 -12.556c-3.162 -3.907 -7.347 -8.371 -12.556 -13.393c-5.208 -5.022 -9.207 -8.836 -11.998 -11.44c-2.79 -2.604 -6.789 -6.138 -11.997 -10.603c-5.209 -4.464 -8.371 -7.068 -9.487 -7.812c-27.53 -24.182 -51.525 -42.783 -71.987 -55.804c-7.812 -4.836 -19.345 -10.974 -34.598 -18.415c-15.253 -7.44 -28.646 -14.323 -40.178 -20.647c-11.533 -6.325 -23.252 -13.858 -35.157 -22.601c-11.904 -8.742 -21.112 -18.973 -27.622 -30.692c-6.511 -11.718 -9.766 -24.646 -9.766 -38.783c0 0 0 0 0 0m71.429 0c0 8.929 25.855 25.67 77.567 50.223c16.369 8.929 28.459 15.811 36.272 20.648c23.809 14.88 50.781 35.714 80.915 62.5c30.134 26.413 49.851 45.2 59.152 56.361c21.205 25.67 31.808 51.711 31.808 78.125c0 0 0 17.857 0 17.857c0 0 357.143 0 357.143 0c0 0 0 -17.857 0 -17.857c0 -26.786 5.952 -57.85 17.857 -93.192c11.905 -35.342 23.809 -71.335 35.714 -107.98c11.905 -36.644 17.857 -70.033 17.857 -100.167c0 -70.313 -31.064 -105.469 -93.192 -105.469c-9.672 0 -20.089 0.93 -31.25 2.79c-5.952 -11.16 -15.718 -19.996 -29.297 -26.506c-13.578 -6.511 -27.25 -9.766 -41.015 -9.766c-13.765 0 -26.6 3.348 -38.505 10.045c-18.601 -19.718 -40.736 -29.576 -66.406 -29.576c-9.3 0 -19.624 1.86 -30.971 5.58c-11.347 3.72 -20.182 8.371 -26.507 13.951c0 0 0 -184.71 0 -184.71c0 -19.345 -7.068 -36.086 -21.205 -50.223c-14.137 -14.137 -30.878 -21.205 -50.223 -21.205c-18.973 0 -35.621 7.254 -49.944 21.763c-14.323 14.509 -21.485 31.064 -21.485 49.665c0 0 0 321.429 0 321.429c-7.44 0 -16.462 -2.79 -27.064 -8.371c-10.603 -5.58 -20.834 -11.719 -30.692 -18.415c-9.859 -6.696 -22.508 -12.835 -37.947 -18.415c-15.439 -5.581 -31.157 -8.371 -47.154 -8.371c-24.925 0 -43.062 8.278 -54.408 24.833c-11.347 16.555 -17.02 38.039 -17.02 64.453c0 0 0 0 0 0m571.428 392.857c0 9.673 3.534 18.043 10.603 25.112c7.068 7.068 15.439 10.602 25.111 10.602c9.673 0 18.044 -3.534 25.112 -10.602c7.068 -7.069 10.603 -15.439 10.603 -25.112c0 -9.672 -3.535 -18.043 -10.603 -25.111c-7.068 -7.069 -15.439 -10.603 -25.112 -10.603c-9.672 0 -18.043 3.534 -25.111 10.603c-7.069 7.068 -10.603 15.439 -10.603 25.111c0 0 0 0 0 0" />
  </g>
</svg>