<svg height="1000px" width="779.78515625px" xmlns="http://www.w3.org/2000/svg">
  <g>
    <path d="M0 503.173828125c0 -19.857 4.15 -38.005 12.451 -54.443c8.301 -16.439 19.45 -30.355 33.447 -41.748c13.998 -11.394 30.03 -20.183 48.096 -26.368c18.067 -6.184 36.377 -9.277 54.932 -9.277c17.252 0 34.261 2.441 51.025 7.324c16.764 4.883 32.796 11.068 48.096 18.555c0 0 0 -64.941 0 -64.941c0 0 0.976 -184.082 0.976 -184.082c0 -15.951 2.849 -31.088 8.545 -45.411c5.697 -14.323 13.672 -26.692 23.926 -37.109c10.254 -10.417 22.38 -18.636 36.377 -24.658c13.997 -6.022 29.297 -9.033 45.899 -9.033c15.95 0 31.005 3.011 45.166 9.033c14.16 6.022 26.367 14.241 36.621 24.658c10.254 10.417 18.229 22.786 23.925 37.109c5.697 14.323 8.545 29.46 8.545 45.411c0 0 0 98.144 0 98.144c19.206 3.255 36.459 9.44 51.758 18.555c19.206 -3.255 38.412 -2.035 57.617 3.662c19.206 5.696 36.133 14.892 50.782 27.588c24.739 0 46.061 4.638 63.964 13.916c17.904 9.277 32.553 21.647 43.946 37.109c11.393 15.462 19.857 33.285 25.39 53.467c5.534 20.182 8.301 41.667 8.301 64.453c0 25.391 -2.604 49.561 -7.812 72.51c-5.209 22.949 -10.987 45.084 -17.334 66.406c-6.348 21.322 -12.207 42.155 -17.578 62.5c-5.372 20.345 -8.057 40.609 -8.057 60.791c0 0 0 182.617 0 182.617c0 15.951 -5.697 29.623 -17.09 41.016c-11.393 11.393 -25.065 17.09 -41.016 17.09c0 0 -313.964 0 -313.964 0c-15.951 0 -29.623 -5.615 -41.016 -16.846c-11.393 -11.23 -17.09 -24.984 -17.09 -41.26c0 0 0 -169.922 0 -169.922c-4.557 -8.789 -9.521 -15.625 -14.892 -20.507c-5.372 -4.883 -11.638 -10.417 -18.799 -16.602c-6.511 -5.208 -12.858 -10.661 -19.043 -16.357c-6.185 -5.697 -12.207 -11.149 -18.067 -16.358c-11.393 -11.393 -22.542 -23.926 -33.447 -37.597c-10.905 -13.672 -23.031 -24.089 -36.377 -31.25c-13.997 -8.138 -30.192 -13.021 -48.584 -14.649c-18.392 -1.628 -35.726 -4.476 -52.002 -8.545c-16.276 -4.069 -29.948 -11.23 -41.015 -21.484c-11.068 -10.254 -16.602 -28.076 -16.602 -53.467c0 0 0 0 0 0m58.594 5.371c-0.326 2.279 -0.163 4.069 0.488 5.371c1.302 2.604 2.604 4.151 3.906 4.639c1.302 0.488 3.255 1.058 5.86 1.709c19.205 3.906 39.388 7.487 60.547 10.742c21.158 3.255 40.364 9.603 57.617 19.043c16.601 9.44 30.924 21.322 42.968 35.645c12.045 14.322 24.74 28.157 38.086 41.503c10.092 9.441 19.288 17.416 27.588 23.926c8.301 6.511 16.114 13.265 23.438 20.264c7.324 6.999 14.16 14.892 20.508 23.682c6.347 8.789 12.125 19.531 17.334 32.226c0 0 0 1.953 0 1.953c0 0 313.964 0 313.964 0c0 -22.786 2.686 -45.003 8.057 -66.65c5.371 -21.647 11.068 -43.294 17.09 -64.942c6.022 -21.647 11.719 -43.294 17.09 -64.941c5.371 -21.647 8.056 -44.189 8.056 -67.627c0 -13.997 -1.383 -27.669 -4.15 -41.016c-2.767 -13.346 -7.324 -24.983 -13.672 -34.912c-6.348 -9.928 -14.811 -18.066 -25.39 -24.414c-10.58 -6.347 -23.845 -9.521 -39.795 -9.521c-4.558 0 -8.871 0.163 -12.94 0.488c-4.069 0.326 -8.219 0.814 -12.451 1.465c-5.208 -11.393 -13.835 -20.101 -25.879 -26.123c-12.044 -6.022 -24.088 -9.033 -36.133 -9.033c-12.695 0 -23.6 3.418 -32.715 10.254c-15.95 -19.206 -35.97 -28.972 -60.058 -29.297c-7.487 0 -14.567 2.034 -21.24 6.103c-6.674 4.069 -12.289 8.382 -16.846 12.94c0 -29.297 -0.163 -58.269 -0.488 -86.914c-0.326 -28.646 -0.489 -57.618 -0.489 -86.914c0 -16.602 -4.964 -30.274 -14.892 -41.016c-9.929 -10.742 -23.356 -16.113 -40.283 -16.113c-17.253 0 -31.006 5.371 -41.26 16.113c-10.254 10.742 -15.381 24.414 -15.381 41.016c0 55.989 -0.163 111.328 -0.488 166.015c-0.326 54.688 -0.489 109.701 -0.489 165.039c-13.346 0 -26.041 -2.685 -38.086 -8.056c-12.044 -5.372 -24.251 -11.068 -36.621 -17.09c-12.369 -6.022 -25.228 -11.556 -38.574 -16.602c-13.346 -5.045 -27.995 -7.568 -43.945 -7.568c-10.742 0 -21.403 1.709 -31.983 5.127c-10.579 3.418 -20.182 8.138 -28.808 14.16c-8.627 6.022 -15.625 13.509 -20.996 22.461c-5.371 8.952 -8.057 19.45 -8.057 31.494c0 1.302 -0.163 3.092 -0.488 5.371c0 0 0 0 0 0m532.226 306.641c0 11.393 3.825 20.752 11.475 28.076c7.65 7.324 16.846 10.986 27.588 10.986c11.393 0 20.752 -3.662 28.076 -10.986c7.324 -7.324 10.986 -16.683 10.986 -28.076c0 -10.742 -3.662 -19.938 -10.986 -27.588c-7.324 -7.65 -16.683 -11.475 -28.076 -11.475c-10.742 0 -19.938 3.825 -27.588 11.475c-7.65 7.65 -11.475 16.846 -11.475 27.588c0 0 0 0 0 0" />
  </g>
</svg>