<svg height="1000" width="857.1" xmlns="http://www.w3.org/2000/svg"><path d="M0 500q0-69.8 37.4-115.2t105.5-45.5q37.9 0 71.4 12.3v-208.7q0-58 42.4-100.4t99.9-42.4q58.6 0 101 42.1t42.4 100.7v94.3q34.6 2.2 66.4 20.6 11.7-1.7 24-1.7 56.4 0 99.3 33.5 77.6-.6 122.5 47.4t44.9 126.7q0 74.2-38.5 179.7-32.9 91.5-32.9 124.4v160.7q0 29.6-20.9 50.5t-50.5 20.9h-357.1q-29.6 0-50.5-20.9t-20.9-50.5v-160.7q0-5.6-2.5-12t-7.8-13.1-10-12.6-12.6-13.4-12-11.4-12-10.6-9.5-7.8q-41.3-36.3-72-55.8-11.7-7.3-34.6-18.4t-40.2-20.6-35.2-22.6-27.6-30.7-9.8-38.8zm71.4 0q0 13.4 77.6 50.2 24.6 13.4 36.3 20.6 35.7 22.3 80.9 62.5 45.2 39.6 59.1 56.4 31.8 38.5 31.8 78.1v17.9h357.1v-17.9q0-40.2 17.9-93.2t35.7-108 17.9-100.2q0-105.5-93.2-105.5-14.5 0-31.2 2.8-8.9-16.7-29.3-26.5t-41-9.8-38.5 10q-27.9-29.6-66.4-29.6-14 0-31 5.6t-26.5 14v-184.7q0-29-21.2-50.2t-50.2-21.2q-28.5 0-49.9 21.8t-21.5 49.7v321.4q-11.2 0-27.1-8.4t-30.7-18.4-37.9-18.4-47.2-8.4q-37.4 0-54.4 24.8t-17 64.4zm571.4 392.8q0 14.5 10.6 25.1t25.1 10.6 25.1-10.6 10.6-25.1-10.6-25.1-25.1-10.6-25.1 10.6-10.6 25.1z"/></svg>