<svg height="1000" width="857.1" xmlns="http://www.w3.org/2000/svg"><path d="M714.3 892.9q0 -14.6 -10.6 -25.2t-25.1 -10.6 -25.1 10.6 -10.6 25.2 10.6 25.1 25.1 10.6T703.7 918t10.6 -25.1zm71.4 -426.4Q785.7 361 692.5 361q-14.5 0 -31.2 2.8 -9 -16.7 -29.3 -26.5t-41 -9.7 -38.5 10Q524.6 308 486 308q-13.9 0 -30.9 5.6t-26.5 14V142.9q0 -29.1 -21.2 -50.3T357.1 71.4q-28.4 0 -49.9 21.8t-21.5 49.7v321.4q-11.1 0 -27.1 -8.4T228 437.5t-38 -18.4 -47.1 -8.4q-37.4 0 -54.5 24.8t-17 64.5q0 13.4 77.6 50.2 24.5 13.4 36.3 20.7 35.7 22.3 80.9 62.5 45.2 39.6 59.1 56.3 31.8 38.5 31.8 78.2v17.8h357.2v-17.8q0 -40.2 17.8 -93.2t35.8 -108 17.8 -100.2zm71.4 -2.8q0 74.2 -38.5 179.7 -32.9 91.5 -32.9 124.5v160.7q0 29.5 -20.9 50.5t-50.5 20.9H357.1q-29.5 0 -50.5 -20.9t-20.9 -50.5V767.9q0 -5.6 -2.5 -12t-7.8 -13.2 -10.1 -12.5 -12.5 -13.4 -12 -11.4 -12 -10.6 -9.5 -7.9q-41.3 -36.2 -72 -55.8 -11.7 -7.2 -34.6 -18.4T72.5 592.1 37.4 569.5 9.8 538.8 0 500Q0 430.2 37.4 384.8t105.5 -45.5q37.9 0 71.4 12.3V142.9q0 -58.1 42.4 -100.5T356.6 0q58.6 0 101 42.1T500 142.9v94.3q34.6 2.2 66.4 20.6 11.7 -1.7 24 -1.7 56.4 0 99.3 33.5 77.6 -.5 122.5 47.5t44.9 126.6z"/></svg>