<svg height="1000px" width="928.5714285714286px" xmlns="http://www.w3.org/2000/svg">
  <g>
    <path d="M898.9955357142858 678.5714285714286c0 19.717 -6.882 36.458 -20.647 50.223c0 0 -41.853 41.853 -41.853 41.853c-13.765 14.137 -30.692 21.205 -50.781 21.205c-20.09 0 -36.831 -7.068 -50.223 -21.205c0 0 -271.206 -270.647 -271.206 -270.647c0 0 -271.205 270.647 -271.205 270.647c-13.393 14.137 -30.134 21.205 -50.223 21.205c-20.09 0 -36.831 -7.068 -50.224 -21.205c0 0 -41.852 -41.853 -41.852 -41.853c-14.137 -13.393 -21.206 -30.134 -21.206 -50.223c0 -20.089 7.069 -37.016 21.206 -50.781c0 0 363.281 -363.282 363.281 -363.282c14.137 -13.764 30.878 -20.647 50.223 -20.647c19.345 0 36.272 6.883 50.781 20.647c0 0 362.724 363.282 362.724 363.282c14.137 14.137 21.205 31.064 21.205 50.781c0 0 0 0 0 0" />
  </g>
</svg>