<svg height="1000px" width="928.5714285714286px" xmlns="http://www.w3.org/2000/svg">
  <g>
    <path d="M29.575892857142858 678.5714285714286c0 -20.089 7.068 -37.016 21.205 -50.781c0 0 363.282 -363.282 363.282 -363.282c14.137 -13.764 30.878 -20.647 50.223 -20.647c19.345 0 36.272 6.883 50.781 20.647c0 0 362.723 363.282 362.723 363.282c14.137 14.137 21.206 31.064 21.206 50.781c0 19.717 -6.883 36.458 -20.648 50.223c0 0 -41.852 41.853 -41.852 41.853c-13.765 14.137 -30.692 21.205 -50.782 21.205c-20.089 0 -36.83 -7.068 -50.223 -21.205c0 0 -271.205 -270.647 -271.205 -270.647c0 0 -271.206 270.647 -271.206 270.647c-13.392 14.137 -30.133 21.205 -50.223 21.205c-20.089 0 -36.83 -7.068 -50.223 -21.205c0 0 -41.853 -41.853 -41.853 -41.853c-14.137 -13.393 -21.205 -30.134 -21.205 -50.223c0 0 0 0 0 0" />
  </g>
</svg>