<svg height="1000px" width="750px" xmlns="http://www.w3.org/2000/svg">
  <g>
    <path d="M-0.48828125 639.404296875c-0.326 -12.207 4.232 -23.031 13.672 -32.471c0 0 328.613 -329.101 328.613 -329.101c9.44 -9.44 20.508 -14.079 33.203 -13.916c12.696 0.162 23.763 4.801 33.203 13.916c0 0 327.637 329.101 327.637 329.101c9.44 9.44 14.16 20.345 14.16 32.715c0 12.37 -4.72 23.112 -14.16 32.227c0 0 -48.828 50.293 -48.828 50.293c-9.44 9.44 -20.508 14.078 -33.203 13.916c-12.695 -0.163 -23.6 -4.802 -32.715 -13.916c0 0 -248.047 -249.024 -248.047 -249.024c0 0 -244.14 249.024 -244.14 249.024c-9.441 9.44 -20.427 14.078 -32.959 13.916c-12.533 -0.163 -23.519 -4.802 -32.959 -13.916c0 0 -48.829 -50.293 -48.829 -50.293c-9.44 -9.44 -14.322 -20.264 -14.648 -32.471c0 0 0 0 0 0" />
  </g>
</svg>