<svg height="1000px" width="750px" xmlns="http://www.w3.org/2000/svg">
  <g>
    <path d="M-0.48828125 500c-0.326 -12.695 4.232 -23.763 13.672 -33.203c0 0 328.613 -327.637 328.613 -327.637c9.44 -9.44 20.508 -14.16 33.203 -14.16c12.696 0 23.763 4.72 33.203 14.16c0 0 327.637 327.637 327.637 327.637c9.44 9.44 14.16 20.508 14.16 33.203c0 12.695 -4.72 23.763 -14.16 33.203c0 0 -48.828 48.828 -48.828 48.828c-9.44 9.44 -20.264 14.16 -32.471 14.16c-12.207 0 -23.03 -4.72 -32.47 -14.16c0 0 -166.016 -165.039 -166.016 -165.039c0 0 0 412.11 0 412.11c0 12.695 -4.476 23.518 -13.428 32.47c-8.952 8.952 -19.775 13.428 -32.47 13.428c0 0 -70.313 0 -70.313 0c-13.346 0 -24.333 -4.476 -32.959 -13.428c-8.626 -8.952 -12.939 -19.775 -12.939 -32.47c0 0 0 -412.11 0 -412.11c0 0 -165.039 165.039 -165.039 165.039c-9.441 9.44 -20.427 14.16 -32.959 14.16c-12.533 0 -23.519 -4.72 -32.959 -14.16c0 0 -48.829 -48.828 -48.829 -48.828c-9.44 -9.44 -14.322 -20.508 -14.648 -33.203c0 0 0 0 0 0" />
  </g>
</svg>