<svg height="1000px" width="928.5714285714286px" xmlns="http://www.w3.org/2000/svg">
  <g>
    <path d="M878.3482142857143 491.07142857142856c13.765 14.509 20.647 31.343 20.647 50.502c0 19.159 -6.882 35.994 -20.647 50.502c0 0 -41.853 41.853 -41.853 41.853c-14.137 14.137 -31.157 21.206 -51.06 21.206c-19.903 0 -36.551 -7.069 -49.944 -21.206c0 0 -164.063 -163.504 -164.063 -163.504c0 0 0 392.857 0 392.857c0 19.345 -6.975 35.063 -20.926 47.154c-13.951 12.091 -30.785 18.136 -50.502 18.136c0 0 -71.429 0 -71.429 0c-19.717 0 -36.551 -6.045 -50.502 -18.136c-13.951 -12.091 -20.926 -27.809 -20.926 -47.154c0 0 0 -392.857 0 -392.857c0 0 -164.063 163.504 -164.063 163.504c-13.393 14.137 -30.134 21.206 -50.223 21.206c-20.089 0 -36.83 -7.069 -50.223 -21.206c0 0 -41.853 -41.853 -41.853 -41.853c-14.137 -14.136 -21.205 -30.971 -21.205 -50.502c0 -19.531 7.068 -36.365 21.205 -50.502c0 0 363.281 -363.281 363.281 -363.281c13.021 -13.765 29.669 -20.648 49.944 -20.648c20.276 0 37.296 6.883 51.061 20.648c0 0 363.281 363.281 363.281 363.281" />
  </g>
</svg>