<svg height="1000px" width="928.5714285714286px" xmlns="http://www.w3.org/2000/svg">
  <g>
    <path d="M29.575892857142858 541.8526785714286c0 -19.717 7.068 -36.644 21.205 -50.781c0 0 363.282 -363.281 363.282 -363.281c13.02 -13.765 29.762 -20.648 50.223 -20.648c20.089 0 37.016 6.883 50.781 20.648c0 0 363.281 363.281 363.281 363.281c13.765 14.509 20.648 31.436 20.648 50.781c0 18.973 -6.883 35.714 -20.648 50.223c0 0 -41.852 41.853 -41.852 41.853c-14.137 14.137 -31.064 21.205 -50.782 21.205c-20.089 0 -36.83 -7.068 -50.223 -21.205c0 0 -164.062 -163.505 -164.062 -163.505c0 0 0 392.858 0 392.858c0 19.345 -6.976 35.063 -20.927 47.154c-13.951 12.09 -30.785 18.136 -50.502 18.136c0 0 -71.428 0 -71.428 0c-19.718 0 -36.552 -6.046 -50.503 -18.136c-13.951 -12.091 -20.926 -27.809 -20.926 -47.154c0 0 0 -392.858 0 -392.858c0 0 -164.063 163.505 -164.063 163.505c-13.392 14.137 -30.133 21.205 -50.223 21.205c-20.089 0 -36.83 -7.068 -50.223 -21.205c0 0 -41.853 -41.853 -41.853 -41.853c-14.137 -14.137 -21.205 -30.878 -21.205 -50.223c0 0 0 0 0 0" />
  </g>
</svg>