<svg height="1000px" width="750px" xmlns="http://www.w3.org/2000/svg">
  <g>
    <path d="M-0.5 500c-0.333 -12.667 4.167 -23.667 13.5 -33c0 0 329 -328 329 -328c9.333 -9.333 20.333 -14 33 -14c12.667 0 23.667 4.667 33 14c0 0 328 328 328 328c9.333 9.333 14 20.333 14 33c0 12.667 -4.667 23.667 -14 33c0 0 -49 49 -49 49c-9.333 9.333 -20.167 14 -32.5 14c-12.333 0 -23.167 -4.667 -32.5 -14c0 0 -166 -165 -166 -165c0 0 0 412 0 412c0 12.667 -4.5 23.5 -13.5 32.5c-9 9 -19.833 13.5 -32.5 13.5c0 0 -70 0 -70 0c-13.333 0 -24.333 -4.5 -33 -13.5c-8.667 -9 -13 -19.833 -13 -32.5c0 0 0 -412 0 -412c0 0 -165 165 -165 165c-9.333 9.333 -20.333 14 -33 14c-12.667 0 -23.667 -4.667 -33 -14c0 0 -49 -49 -49 -49c-9.333 -9.333 -14.167 -20.333 -14.5 -33c0 0 0 0 0 0" />
  </g>
</svg>