<svg height="1000" width="928.571" xmlns="http://www.w3.org/2000/svg"><path d="M714.24 821.44q0 -14.508 -10.602 -25.11t-25.11 -10.602 -25.11 10.602 -10.602 25.11 10.602 25.11 25.11 10.602 25.11 -10.602 10.602 -25.11zm142.848 0q0 -14.508 -10.602 -25.11t-25.11 -10.602 -25.11 10.602 -10.602 25.11 10.602 25.11 25.11 10.602 25.11 -10.602 10.602 -25.11zm71.424 -124.992v178.56q0 22.32 -15.624 37.944t-37.944 15.624h-821.376q-22.32 0 -37.944 -15.624t-15.624 -37.944v-178.56q0 -22.32 15.624 -37.944t37.944 -15.624h238.266q11.718 31.248 39.339 51.336t61.659 20.088h142.848q34.038 0 61.659 -20.088t39.339 -51.336h238.266q22.32 0 37.944 15.624t15.624 37.944zm-181.35 -361.584q-9.486 22.32 -32.922 22.32h-142.848v249.984q0 14.508 -10.602 25.11t-25.11 10.602h-142.848q-14.508 0 -25.11 -10.602t-10.602 -25.11v-249.984h-142.848q-23.436 0 -32.922 -22.32 -9.486 -21.762 7.812 -38.502l249.984 -249.984q10.044 -10.602 25.11 -10.602t25.11 10.602l249.984 249.984q17.298 16.74 7.812 38.502z"/></svg>