<svg height="1000px" width="900px" xmlns="http://www.w3.org/2000/svg">
  <g>
    <path d="M0 856c0 0 0 -300 0 -300c0 -5.333 1.833 -9.833 5.5 -13.5c3.667 -3.667 8.167 -5.5 13.5 -5.5c0 0 112 0 112 0c5.333 0 9.833 1.833 13.5 5.5c3.667 3.667 5.5 8.167 5.5 13.5c0 0 0 169 0 169c0 0 600 0 600 0c0 0 0 -169 0 -169c0 -5.333 1.833 -9.833 5.5 -13.5c3.667 -3.667 8.167 -5.5 13.5 -5.5c0 0 112 0 112 0c5.333 0 9.833 1.833 13.5 5.5c3.667 3.667 5.5 8.167 5.5 13.5c0 0 0 300 0 300c0 12.667 -6.333 19 -19 19c0 0 -862 0 -862 0c-12.667 0 -19 -6.333 -19 -19c0 0 0 0 0 0m169 -454.5c-2 -5 0.667 -11.167 8 -18.5c0 0 246 -247 246 -247c7.333 -7.333 16.333 -11 27 -11c10.667 0 19.667 3.667 27 11c0 0 247 247 247 247c7.333 7.333 9.833 13.5 7.5 18.5c-2.333 5 -8.5 7.5 -18.5 7.5c0 0 -150 0 -150 0c0 0 0 244 0 244c0 10.667 -3.667 19.667 -11 27c-7.333 7.333 -16.333 11 -27 11c0 0 -150 0 -150 0c-10.667 0 -19.5 -3.667 -26.5 -11c-7 -7.333 -10.5 -16.333 -10.5 -27c0 0 0 -244 0 -244c0 0 -150 0 -150 0c-10.667 0 -17 -2.5 -19 -7.5c0 0 0 0 0 0" />
  </g>
</svg>