<svg height="1000px" width="1071.4285714285716px" xmlns="http://www.w3.org/2000/svg">
  <g>
    <path d="M0 607.1428571428571c0 -48.363 13.021 -93.006 39.063 -133.929c26.041 -40.922 61.011 -71.614 104.91 -92.075c-0.744 -11.161 -1.116 -19.16 -1.116 -23.996c0 -78.869 27.902 -146.205 83.706 -202.009c55.803 -55.804 123.139 -83.705 202.008 -83.705c58.036 0 111.143 16.183 159.32 48.549c48.177 32.366 83.24 75.335 105.189 128.906c26.414 -23.065 57.292 -34.598 92.634 -34.598c39.435 0 73.103 13.951 101.005 41.853c27.902 27.901 41.852 61.569 41.852 101.004c0 28.274 -7.626 53.943 -22.879 77.009c48.363 11.533 88.077 36.737 119.141 75.614c31.064 38.876 46.596 83.24 46.596 133.091c0 59.152 -20.927 109.654 -62.779 151.507c-41.853 41.853 -92.355 62.779 -151.507 62.779c0 0 -607.143 0 -607.143 0c-68.824 0 -127.697 -24.461 -176.618 -73.382c-48.921 -48.921 -73.382 -107.794 -73.382 -176.618c0 0 0 0 0 0m285.714 -125c0 5.208 1.674 9.487 5.023 12.835c3.348 3.348 7.626 5.022 12.834 5.022c0 0 125 0 125 0c0 0 0 196.429 0 196.429c0 4.836 1.768 9.021 5.302 12.556c3.534 3.534 7.719 5.301 12.556 5.301c0 0 107.142 0 107.142 0c4.837 0 9.022 -1.767 12.556 -5.301c3.534 -3.535 5.302 -7.72 5.302 -12.556c0 0 0 -196.429 0 -196.429c0 0 125 0 125 0c4.836 0 9.021 -1.767 12.555 -5.301c3.535 -3.534 5.302 -7.72 5.302 -12.556c0 -5.208 -1.674 -9.487 -5.023 -12.835c0 0 -196.428 -196.428 -196.428 -196.428c-3.348 -3.349 -7.627 -5.023 -12.835 -5.023c-5.208 0 -9.487 1.674 -12.835 5.023c0 0 -195.87 195.87 -195.87 195.87c-3.721 4.464 -5.581 8.929 -5.581 13.393c0 0 0 0 0 0" />
  </g>
</svg>