<svg height="1000" width="928.6" xmlns="http://www.w3.org/2000/svg"><path d="M0 910.7v-321.4q0-7.3 5.3-12.6t12.6-5.3h107.1q7.3 0 12.6 5.3t5.3 12.6v196.4h642.8v-196.4q0-7.3 5.3-12.6t12.6-5.3h107.1q7.3 0 12.6 5.3t5.3 12.6v321.4q0 7.3-5.3 12.6t-12.6 5.3h-892.8q-7.3 0-12.6-5.3t-5.3-12.6zm178.6-517.8q0-14.5 10.6-25.1l250-250q10.6-10.6 25.1-10.6t25.1 10.6l250 250q10.6 10.6 10.6 25.1t-10.6 25.1-25.1 10.6h-142.8v250q0 14.5-10.6 25.1t-25.1 10.6h-142.8q-14.5 0-25.1-10.6t-10.6-25.1v-250h-142.8q-14.5 0-25.1-10.6t-10.6-25.1z"/></svg>