<svg height="1000px" width="928.5714285714286px" xmlns="http://www.w3.org/2000/svg">
  <g>
    <path d="M750 392.85714285714283c0 9.673 -3.534 18.043 -10.603 25.112c-7.068 7.068 -15.439 10.602 -25.111 10.602c0 0 -142.857 0 -142.857 0c0 0 0 250 0 250c0 9.673 -3.535 18.043 -10.603 25.112c-7.069 7.068 -15.439 10.603 -25.112 10.603c0 0 -142.857 0 -142.857 0c-9.672 0 -18.043 -3.535 -25.111 -10.603c-7.069 -7.069 -10.603 -15.439 -10.603 -25.112c0 0 0 -250 0 -250c0 0 -142.857 0 -142.857 0c-9.673 0 -18.043 -3.534 -25.112 -10.602c-7.068 -7.069 -10.603 -15.439 -10.603 -25.112c0 -9.673 3.535 -18.043 10.603 -25.112c0 0 250 -250 250 -250c7.069 -7.068 15.439 -10.602 25.112 -10.602c9.672 0 18.043 3.534 25.111 10.602c0 0 250 250 250 250c7.069 7.069 10.603 15.439 10.603 25.112c0 0 0 0 0 0m178.571 196.429c0 0 0 321.428 0 321.428c0 4.836 -1.767 9.022 -5.301 12.556c-3.534 3.534 -7.719 5.301 -12.556 5.301c0 0 -892.857 0 -892.857 0c-4.836 0 -9.021 -1.767 -12.556 -5.301c-3.534 -3.534 -5.301 -7.72 -5.301 -12.556c0 0 0 -321.428 0 -321.428c0 -4.837 1.767 -9.022 5.301 -12.556c3.535 -3.534 7.72 -5.302 12.556 -5.302c0 0 107.143 0 107.143 0c4.836 0 9.022 1.768 12.556 5.302c3.534 3.534 5.301 7.719 5.301 12.556c0 0 0 196.428 0 196.428c0 0 642.857 0 642.857 0c0 0 0 -196.428 0 -196.428c0 -4.837 1.767 -9.022 5.302 -12.556c3.534 -3.534 7.719 -5.302 12.555 -5.302c0 0 107.143 0 107.143 0c4.837 0 9.022 1.768 12.556 5.302c3.534 3.534 5.301 7.719 5.301 12.556c0 0 0 0 0 0" />
  </g>
</svg>