<svg height="1000" width="1071.4" xmlns="http://www.w3.org/2000/svg"><path d="M0 607.2q0-72.5 39.1-133.9t104.9-92.1q-1.1-16.7-1.1-24 0-118.3 83.7-202t202-83.7q87 0 159.3 48.5t105.2 128.9q39.6-34.6 92.6-34.6 59.1 0 101 41.9t41.9 101q0 42.4-22.9 77 72.5 17.3 119.1 75.6t46.6 133.1q0 88.7-62.8 151.5t-151.5 62.8h-607.1q-103.2 0-176.6-73.4t-73.4-176.6zm285.7-125q0 7.8 5 12.8t12.8 5h125v196.4q0 7.3 5.3 12.6t12.6 5.3h107.1q7.3 0 12.6-5.3t5.3-12.6v-196.4h125q7.3 0 12.6-5.3t5.3-12.6q0-7.8-5-12.8l-196.4-196.4q-5-5-12.8-5t-12.8 5l-195.9 195.9q-5.6 6.7-5.6 13.4z"/></svg>