<svg height="1000px" width="899.90234375px" xmlns="http://www.w3.org/2000/svg">
  <g>
    <path d="M0 855.95703125c0 0 0 -299.805 0 -299.805c0 -5.208 1.872 -9.684 5.615 -13.427c3.744 -3.744 8.22 -5.616 13.428 -5.616c0 0 111.816 0 111.816 0c5.209 0 9.685 1.791 13.428 5.371c3.744 3.581 5.615 8.138 5.615 13.672c0 0 0 168.946 0 168.946c0 0 600.098 0 600.098 0c0 0 0 -168.946 0 -168.946c0 -5.208 1.872 -9.684 5.615 -13.427c3.744 -3.744 8.22 -5.616 13.428 -5.616c0 0 111.816 0 111.816 0c5.209 0 9.685 1.791 13.428 5.371c3.744 3.581 5.615 8.138 5.615 13.672c0 0 0 299.805 0 299.805c0 12.695 -6.347 19.043 -19.043 19.043c0 0 -861.816 0 -861.816 0c-12.695 0 -19.043 -6.348 -19.043 -19.043c0 0 0 0 0 0m168.945 -454.346c-1.953 -5.045 0.651 -11.312 7.813 -18.799c0 0 246.094 -246.582 246.094 -246.582c7.487 -7.487 16.52 -11.23 27.099 -11.23c10.58 0 19.613 3.743 27.1 11.23c0 0 247.07 246.582 247.07 246.582c7.487 7.487 10.01 13.754 7.568 18.799c-2.441 5.046 -8.707 7.569 -18.798 7.569c0 0 -149.903 0 -149.903 0c0 0 0 243.652 0 243.652c0 10.742 -3.662 19.775 -10.986 27.1c-7.324 7.324 -16.357 10.986 -27.1 10.986c0 0 -149.902 0 -149.902 0c-10.742 0 -19.613 -3.662 -26.611 -10.986c-6.999 -7.325 -10.498 -16.358 -10.498 -27.1c0 0 0 -243.652 0 -243.652c0 0 -149.903 0 -149.903 0c-10.742 0 -17.09 -2.523 -19.043 -7.569c0 0 0 0 0 0" />
  </g>
</svg>