<svg height="1000" width="928.571" xmlns="http://www.w3.org/2000/svg"><path d="M0 910.72v-321.408q0 -7.254 5.301 -12.555t12.555 -5.301h107.136q7.254 0 12.555 5.301t5.301 12.555v196.416h642.816v-196.416q0 -7.254 5.301 -12.555t12.555 -5.301h107.136q7.254 0 12.555 5.301t5.301 12.555v321.408q0 7.254 -5.301 12.555t-12.555 5.301h-892.8q-7.254 0 -12.555 -5.301t-5.301 -12.555zm178.56 -517.824q0 -14.508 10.602 -25.11l249.984 -249.984q10.602 -10.602 25.11 -10.602t25.11 10.602l249.984 249.984q10.602 10.602 10.602 25.11t-10.602 25.11 -25.11 10.602h-142.848v249.984q0 14.508 -10.602 25.11t-25.11 10.602h-142.848q-14.508 0 -25.11 -10.602t-10.602 -25.11v-249.984h-142.848q-14.508 0 -25.11 -10.602t-10.602 -25.11z"/></svg>