<svg height="1000" width="1071.4" xmlns="http://www.w3.org/2000/svg"><path d="M714.3 482.1q0 -7.8 -5 -12.8L512.8 272.9q-5 -5 -12.8 -5t-12.8 5L291.3 468.8q-5.6 6.6 -5.6 13.3 0 7.9 5 12.9t12.9 5h125v196.4q0 7.3 5.3 12.6t12.5 5.3h107.2q7.2 0 12.5 -5.3t5.3 -12.6V500h125q7.3 0 12.6 -5.3t5.3 -12.6zm357.1 160.8q0 88.7 -62.8 151.5t-151.5 62.7H250q-103.2 0 -176.6 -73.3T0 607.1Q0 534.6 39.1 473.2T144 381.1q-1.1 -16.7 -1.1 -24 0 -118.3 83.7 -202t202 -83.7q87 0 159.3 48.6t105.2 128.9q39.6 -34.6 92.6 -34.6 59.2 0 101 41.8t41.9 101q0 42.5 -22.9 77.1 72.5 17.3 119.1 75.6t46.6 133.1z"/></svg>