<svg height="1000" width="1285.7" xmlns="http://www.w3.org/2000/svg"><path d="M1276.8 449.2q8.9 4.5 8.9 15.1t-8.9 15.1l-178.6 107.1q-4.5 2.8 -8.9 2.8 -5 0 -8.9 -2.2 -9 -5.6 -9 -15.7V500H592.6q20.7 32.4 46.4 92.1 8.9 20.6 13.6 30.7t13.4 27.3 15.1 26.2 15 19 17.6 14.5 18.4 4.5h53.6v-53.6q0 -7.8 5 -12.8t12.9 -5h178.5q7.9 0 12.9 5t5 12.8v178.6q0 7.8 -5 12.8t-12.9 5H803.6q-7.8 0 -12.9 -5t-5 -12.8v-53.6h-53.6q-17.8 0 -34 -5.6T669.6 767t-25.1 -22.6 -20.6 -25.7 -18.7 -31.8 -15.9 -32 -15.6 -33.8Q560.8 591.5 553 575.6t-20.1 -36.3 -24.8 -29.8 -26 -9.5H281.3q-12.3 46.9 -50.8 77t-87.6 30.1q-59.2 0 -101 -41.8T0 464.3t41.9 -101 101 -41.9q49.1 0 87.6 30.2t50.8 77h58q13.4 0 25.9 -9.5t24.9 -29.9T410.2 353t20.6 -45.5q10.6 -22.9 15.6 -33.8t15.9 -32.1T481 209.8t20.7 -25.6 25.1 -22.6 28.4 -13.2 34.1 -5.5H649Q660.7 111 688.1 91.2T750 71.4q44.6 0 75.9 31.3t31.2 75.9 -31.2 75.9T750 285.7q-34.6 0 -61.9 -19.8T649 214.3h-59.7q-9.5 0 -18.4 4.5t-17.6 14.5 -15.1 18.9 -15 26.3 -13.4 27.3 -13.7 30.7q-25.7 59.7 -46.3 92.1h621.6v-71.5q0 -10 9 -15.6t17.8 .6z"/></svg>