<svg height="1000px" width="750px" xmlns="http://www.w3.org/2000/svg">
  <g>
    <path d="M0 847.16796875c0 0 0 -185.059 0 -185.059c0 -12.695 3.337 -26.855 10.01 -42.48c6.673 -15.625 15.543 -30.274 26.611 -43.945c11.068 -13.672 23.193 -25.554 36.377 -35.645c13.184 -10.091 26.449 -15.788 39.795 -17.09c-11.393 19.206 -16.927 40.202 -16.602 62.989c0 19.205 2.605 39.388 7.813 60.546c5.208 21.159 14.811 38.412 28.808 51.758c-5.859 12.044 -8.789 24.252 -8.789 36.621c0 23.438 8.138 43.295 24.414 59.571c16.277 16.276 36.133 24.414 59.571 24.414c12.044 0 23.193 -2.116 33.447 -6.348c10.254 -4.232 19.206 -10.172 26.856 -17.822c7.649 -7.65 13.671 -16.683 18.066 -27.1c4.394 -10.417 6.592 -21.321 6.592 -32.715c0 -11.393 -2.198 -22.216 -6.592 -32.47c-4.395 -10.254 -10.417 -19.206 -18.066 -26.856c-7.65 -7.65 -16.602 -13.834 -26.856 -18.555c-10.254 -4.72 -21.403 -7.08 -33.447 -7.08c-5.86 0 -11.8 0.814 -17.822 2.442c-6.023 1.627 -11.801 3.906 -17.334 6.836c-3.907 -3.907 -7.162 -8.952 -9.766 -15.137c-2.604 -6.185 -4.801 -12.777 -6.592 -19.775c-1.79 -6.999 -3.011 -13.754 -3.662 -20.264c-0.651 -6.51 -0.977 -12.533 -0.977 -18.066c0 -15.3 4.558 -29.297 13.672 -41.993c9.115 -12.695 19.206 -23.6 30.274 -32.714c0 0 69.336 -10.254 69.336 -10.254c-29.948 -18.555 -53.142 -43.051 -69.58 -73.487c-16.439 -30.436 -24.659 -63.232 -24.659 -98.388c0 -27.995 5.372 -54.362 16.114 -79.102c10.742 -24.74 25.39 -46.387 43.945 -64.941c18.555 -18.555 40.202 -33.203 64.941 -43.946c24.74 -10.742 51.107 -16.113 79.102 -16.113c27.995 0 54.362 5.371 79.102 16.113c24.739 10.743 46.386 25.391 64.941 43.946c18.555 18.554 33.203 40.201 43.945 64.941c10.742 24.74 16.114 51.107 16.114 79.102c0 35.481 -8.22 68.359 -24.659 98.632c-16.438 30.274 -39.632 54.688 -69.58 73.243c0 0 77.149 11.23 77.149 11.23c5.859 5.208 11.474 11.149 16.845 17.822c5.372 6.674 8.057 14.405 8.057 23.194c0 14.648 -2.93 27.181 -8.789 37.597c-19.206 -10.742 -38.9 -15.95 -59.082 -15.625c-14.648 0 -28.809 2.767 -42.481 8.301c-13.671 5.534 -26.204 13.021 -37.597 22.461c-1.953 -0.651 -3.744 -1.139 -5.371 -1.465c-1.628 -0.325 -3.418 -0.488 -5.371 -0.488c-15.3 0 -28.646 5.534 -40.039 16.602c-11.394 11.067 -17.09 24.251 -17.09 39.55c0 15.3 5.615 28.402 16.845 39.307c11.231 10.905 24.659 16.357 40.284 16.357c15.299 0 28.401 -5.452 39.306 -16.357c10.905 -10.905 16.358 -24.007 16.358 -39.307c0 -2.604 -0.326 -5.127 -0.977 -7.568c-0.651 -2.441 -1.302 -4.639 -1.953 -6.592c5.208 -3.906 10.986 -7.243 17.334 -10.01c6.348 -2.767 13.265 -4.15 20.752 -4.15c17.904 0 33.366 6.348 46.387 19.043c13.021 12.695 19.531 27.995 19.531 45.898c0 7.487 -1.302 14.242 -3.906 20.264c-2.604 6.022 -5.697 11.637 -9.278 16.846c-8.138 -3.255 -15.462 -4.883 -21.972 -4.883c-15.3 0 -28.565 5.534 -39.795 16.602c-11.231 11.067 -16.846 24.251 -16.846 39.55c0 15.3 5.615 28.402 16.846 39.307c11.23 10.905 24.495 16.357 39.795 16.357c15.299 0 28.483 -5.452 39.55 -16.357c11.068 -10.905 16.602 -24.007 16.602 -39.307c0 0 -0.977 -1.953 -0.977 -1.953c24.089 -24.088 36.133 -52.897 36.133 -86.426c0 -24.088 -6.673 -46.386 -20.019 -66.894c14.648 -22.787 21.972 -48.34 21.972 -76.66c0 -10.091 -1.953 -20.183 -5.859 -30.274c13.346 1.302 26.855 6.836 40.527 16.602c13.672 9.765 25.798 21.484 36.377 35.156c10.58 13.672 19.206 28.32 25.879 43.945c6.673 15.625 10.01 30.111 10.01 43.457c0 0 0 185.059 0 185.059c-3.255 1.953 -6.917 4.395 -10.986 7.324c-4.069 2.93 -8.22 5.941 -12.452 9.033c-4.231 3.093 -8.544 5.778 -12.939 8.057c-4.394 2.279 -7.894 3.418 -10.498 3.418c0 0 -656.25 0 -656.25 0c-11.393 0 -19.857 -3.337 -25.391 -10.01c-5.533 -6.673 -12.695 -12.614 -21.484 -17.822c0 0 0 0 0 0m180.176 -112.305c0 -8.138 2.767 -14.811 8.301 -20.019c5.533 -5.209 12.044 -7.813 19.531 -7.813c8.138 0 14.811 2.604 20.019 7.813c5.209 5.208 7.813 11.881 7.813 20.019c0 7.487 -2.604 14.079 -7.813 19.776c-5.208 5.696 -11.881 8.545 -20.019 8.545c-7.487 0 -13.998 -2.849 -19.531 -8.545c-5.534 -5.697 -8.301 -12.289 -8.301 -19.776c0 0 0 0 0 0" />
  </g>
</svg>