<svg height="1000px" width="1071.4285714285716px" xmlns="http://www.w3.org/2000/svg">
  <g>
    <path d="M0 482.70089285714283c0 -131.324 23.065 -196.987 69.196 -196.987c2.233 0 10.417 3.907 24.554 11.719c42.411 23.81 79.334 35.714 110.77 35.714c31.436 0 59.431 -4.278 83.984 -12.834c-1.86 13.764 -2.79 26.041 -2.79 36.83c0 51.711 15.067 99.33 45.201 142.857c-60.268 1.86 -109.561 25.67 -147.879 71.429c0 0 -74.777 0 -74.777 0c-30.506 0 -56.176 -7.534 -77.009 -22.601c-20.833 -15.067 -31.25 -37.109 -31.25 -66.127c0 0 0 0 0 0m71.429 -339.844c0 -39.434 13.95 -73.102 41.852 -101.004c27.902 -27.902 61.57 -41.853 101.005 -41.853c39.434 0 73.102 13.951 101.004 41.853c27.902 27.902 41.853 61.57 41.853 101.004c0 39.435 -13.951 73.103 -41.853 101.005c-27.902 27.902 -61.57 41.852 -101.004 41.852c-39.435 0 -73.103 -13.95 -101.005 -41.852c-27.902 -27.902 -41.852 -61.57 -41.852 -101.005c0 0 0 0 0 0m71.428 712.612c0 -132.813 27.716 -225.633 83.147 -278.46c28.646 -27.53 65.291 -41.295 109.934 -41.295c4.092 0 25.669 13.021 64.732 39.063c14.881 9.673 34.784 18.508 59.709 26.507c24.926 7.998 50.038 11.997 75.335 11.997c25.298 0 50.41 -3.999 75.335 -11.997c24.926 -7.999 44.829 -16.834 59.71 -26.507c39.062 -26.042 60.64 -39.063 64.732 -39.063c63.616 0 111.793 28.646 144.531 85.938c32.366 57.292 48.549 135.231 48.549 233.817c0 44.643 -13.578 79.892 -40.736 105.748c-27.158 25.855 -63.244 38.783 -108.259 38.783c0 0 -487.723 0 -487.723 0c-45.015 0 -81.102 -12.928 -108.259 -38.783c-27.158 -25.856 -40.737 -61.105 -40.737 -105.748c0 0 0 0 0 0m178.572 -498.326c0 -59.152 20.926 -109.654 62.779 -151.507c41.852 -41.852 92.355 -62.779 151.506 -62.779c59.152 0 109.654 20.927 151.507 62.779c41.853 41.853 62.779 92.355 62.779 151.507c0 59.152 -20.926 109.654 -62.779 151.507c-41.853 41.852 -92.355 62.779 -151.507 62.779c-59.151 0 -109.654 -20.927 -151.506 -62.779c-41.853 -41.853 -62.779 -92.355 -62.779 -151.507c0 0 0 0 0 0m392.857 -214.286c0 -39.434 13.951 -73.102 41.852 -101.004c27.902 -27.902 61.57 -41.853 101.005 -41.853c39.434 0 73.103 13.951 101.004 41.853c27.902 27.902 41.853 61.57 41.853 101.004c0 39.435 -13.951 73.103 -41.853 101.005c-27.901 27.902 -61.57 41.852 -101.004 41.852c-39.435 0 -73.103 -13.95 -101.005 -41.852c-27.901 -27.902 -41.852 -61.57 -41.852 -101.005c0 0 0 0 0 0m26.227 357.143c30.134 -43.527 45.201 -91.146 45.201 -142.857c0 -10.789 -0.93 -23.066 -2.79 -36.83c24.554 8.556 48.549 12.834 71.987 12.834c23.437 0 46.317 -3.999 68.638 -11.997c22.322 -7.999 40.458 -15.904 54.409 -23.717c13.95 -7.812 22.042 -11.719 24.274 -11.719c46.131 0 69.197 65.663 69.197 196.987c0 29.018 -10.417 51.06 -31.25 66.127c-20.834 15.067 -46.503 22.601 -77.009 22.601c0 0 -74.777 0 -74.777 0c-38.319 -45.759 -87.612 -69.569 -147.88 -71.429c0 0 0 0 0 0" />
  </g>
</svg>