<svg height="1000" width="857.143" xmlns="http://www.w3.org/2000/svg"><path d="M321.408 857.152l53.568 -249.984 -53.568 -71.424 -71.424 -35.712zm142.848 0l71.424 -357.12 -71.424 35.712 -53.568 71.424zm89.28 -563.58q-1.116 -2.232 -2.232 -3.348 -5.58 -4.464 -53.568 -4.464 -39.06 0 -93.186 10.602 -3.906 1.116 -11.718 1.116t-11.718 -1.116q-54.126 -10.602 -93.186 -10.602 -47.988 0 -53.568 4.464 -1.116 1.116 -2.232 3.348 1.116 10.044 2.232 15.066 1.116 1.674 4.185 3.627t4.185 5.859q1.116 2.232 4.185 11.439t3.906 11.439 4.185 9.486 4.743 9.486 5.022 7.812 6.696 7.533 7.812 5.301 9.765 4.464 11.439 2.232 13.671 1.116q20.088 0 32.922 -6.975t18.135 -16.74 8.091 -19.251 6.417 -16.461 9.765 -6.975h6.696q6.138 0 9.765 6.975t6.417 16.461 8.091 19.251 18.135 16.74 32.922 6.975q7.254 0 13.671 -1.116t11.439 -2.232 9.765 -4.464 7.812 -5.301 6.696 -7.533 5.022 -7.812 4.743 -9.486 4.185 -9.486 3.906 -11.439 4.185 -11.439q1.116 -3.906 4.185 -5.859t4.185 -3.627q1.116 -5.022 2.232 -15.066zm232.128 490.482q0 67.518 -40.734 106.02t-108.252 38.502h-487.692q-67.518 0 -108.252 -38.502t-40.734 -106.02q0 -34.038 2.511 -65.844t10.602 -70.029 20.925 -68.913 35.433 -57.753 52.173 -41.571l-50.22 -122.76h119.412q-12.276 -35.712 -12.276 -71.424 0 -6.696 1.116 -17.856 -108.252 -22.32 -108.252 -53.568 0 -31.806 117.18 -55.242 9.486 -34.596 28.737 -74.772t39.339 -63.612q17.856 -20.646 42.408 -20.646 16.74 0 46.872 17.298t46.872 17.298 46.872 -17.298 46.872 -17.298q24.552 0 42.408 20.646 20.088 23.436 39.339 63.612t28.737 74.772q117.18 23.436 117.18 55.242 0 31.248 -108.252 53.568 3.906 45.198 -11.16 89.28h119.412l-45.756 125.55q35.154 18.414 59.985 53.847t36.549 80.073 16.182 84.537 4.464 82.863z"/></svg>