<svg height="1000" width="785.7" xmlns="http://www.w3.org/2000/svg"><path d="M214.3 750q0 14.5 -10.6 25.1t-25.1 10.6 -25.1 -10.6T142.9 750t10.6 -25.1 25.1 -10.6 25.1 10.6 10.6 25.1zm571.4 34q0 67.6 -40.7 106.1t-108.3 38.5H149q-67.5 0 -108.3 -38.5T0 784q0 -37.9 3.1 -73.1t13.4 -77T43 560t45.2 -57.5 66.9 -33.8q-12.2 29.1 -12.2 67V649Q110.5 660.2 91 688.1T71.4 750q0 44.6 31.3 75.9t75.9 31.2 75.9 -31.2T285.7 750q0 -34 -19.8 -61.9T214.3 649V535.7q0 -34.6 13.9 -51.9 73.7 58.1 164.7 58.1t164.6 -58.1q13.9 17.3 13.9 51.9v35.7q-59.1 0 -101 41.9t-41.8 101V764q-17.9 16.1 -17.9 39.6 0 22.3 15.6 37.9t38 15.6 37.9 -15.6 15.7 -37.9q0 -23.5 -17.9 -39.6v-49.7q0 -29 21.2 -50.2t50.2 -21.2 50.3 21.2 21.2 50.2V764Q625 780.1 625 803.6q0 22.3 15.6 37.9t38 15.6 37.9 -15.6 15.6 -37.9q0 -23.5 -17.8 -39.6v-49.7q0 -38 -19.3 -71.2T642.9 591q0 -5.6 .2 -23.8t0 -26.7 -1.4 -23.2 -3.9 -26.2 -7.2 -22.4q37.9 8.4 66.9 33.8t45.2 57.5 26.6 73.9 13.3 77 3.1 73.1zM607.1 285.7q0 88.7 -62.7 151.5T392.9 500 241.4 437.2 178.6 285.7t62.8 -151.5T392.9 71.4t151.5 62.8 62.7 151.5z"/></svg>