<svg height="1000px" width="764.6484375px" xmlns="http://www.w3.org/2000/svg">
  <g>
    <path d="M0 854.736328125c0 0 0 -188.965 0 -188.965c0 -12.044 3.011 -25.39 9.033 -40.039c6.022 -14.648 13.835 -28.646 23.438 -41.992c9.603 -13.346 20.263 -25.391 31.982 -36.133c11.719 -10.742 23.275 -17.741 34.668 -20.996c5.859 -1.953 16.602 -4.15 32.227 -6.592c15.625 -2.441 32.308 -4.801 50.048 -7.08c17.741 -2.279 34.75 -4.394 51.026 -6.348c16.276 -1.953 28.808 -3.58 37.598 -4.882c-29.948 -19.206 -53.467 -44.19 -70.557 -74.952c-17.09 -30.761 -25.635 -64.208 -25.635 -100.341c0 -28.646 5.534 -55.583 16.602 -80.811c11.067 -25.228 25.96 -47.363 44.677 -66.406c18.718 -19.043 40.691 -34.098 65.918 -45.166c25.228 -11.068 52.165 -16.602 80.811 -16.602c28.646 0 55.664 5.534 81.055 16.602c25.39 11.068 47.607 26.123 66.65 45.166c19.043 19.043 34.017 41.178 44.922 66.406c10.905 25.228 16.357 52.165 16.357 80.811c0 35.481 -8.463 68.766 -25.39 99.853c-16.927 31.087 -40.365 56.234 -70.313 75.44c8.789 1.302 21.322 2.929 37.598 4.882c16.276 1.954 33.203 4.069 50.781 6.348c17.578 2.279 34.017 4.639 49.317 7.08c15.299 2.442 26.367 4.639 33.203 6.592c11.393 3.255 22.867 10.091 34.423 20.508c11.556 10.416 22.217 22.461 31.983 36.133c9.766 13.671 17.659 27.832 23.682 42.48c6.022 14.649 9.033 27.995 9.033 40.039c0 0 0 188.965 0 188.965c-3.255 1.302 -6.918 3.581 -10.987 6.836c-4.069 3.255 -8.463 6.429 -13.183 9.521c-4.72 3.093 -9.196 5.778 -13.428 8.057c-4.232 2.279 -7.812 3.418 -10.742 3.418c0 0 -668.945 0 -668.945 0c-11.394 0 -20.02 -3.499 -25.879 -10.498c-5.86 -6.999 -13.184 -12.777 -21.973 -17.334c0 0 0 0 0 0" />
  </g>
</svg>