<svg height="1000" width="1142.9" xmlns="http://www.w3.org/2000/svg"><path d="M392.9 500q-88.8 0 -151.5 -62.8T178.6 285.7t62.8 -151.5T392.9 71.4t151.5 62.8 62.7 151.5 -62.7 151.5T392.9 500zm601 178.6l138.9 138.9q5 5 5 12.9 0 7.2 -5 12.2l-75.9 75.9q-5 5 -12.3 5 -7.8 0 -12.8 -5L892.9 779.6l-139 138.9q-5 5 -12.8 5 -7.3 0 -12.3 -5l-75.9 -75.9q-5 -5 -5 -12.2 0 -7.9 5 -12.9l139 -138.9 -139 -139q-5 -5 -5 -12.8 0 -7.3 5 -12.3l75.9 -75.9q5 -5 12.3 -5 7.8 0 12.8 5l139 139 138.9 -139q5 -5 12.8 -5 7.3 0 12.3 5l75.9 75.9q5 5 5 12.3 0 7.8 -5 12.8zm-277.9 0l-101 101q-20.7 20.6 -20.7 50.8 0 29.5 20.7 50.2l46.3 46.3q-11.7 1.7 -24.6 1.7H149q-67.5 0 -108.3 -38.5T0 784q0 -29.5 2 -57.7t7.8 -60.8 14.8 -60.6 23.9 -54.4 34.6 -45.2 47.8 -29.9 62.2 -11.1q10.6 0 21.7 9.5 86 68.1 178.1 68.1t178 -68.1q11.1 -9.5 21.7 -9.5 15.7 0 31.8 3.3 -15.6 15.1 -22.8 27.9t-7.3 31.3q0 30.1 20.7 50.8z"/></svg>