<svg height="1000" width="857.1" xmlns="http://www.w3.org/2000/svg"><path d="M321.4 857.1l53.6 -250 -53.6 -71.4L250 500zm142.9 0L535.7 500l-71.4 35.7 -53.6 71.4zm89.3 -563.6q-1.1 -2.2 -2.3 -3.3 -5.5 -4.5 -53.5 -4.5 -39.1 0 -93.2 10.6 -3.9 1.1 -11.7 1.1t-11.8 -1.1Q327 285.7 287.9 285.7q-47.9 0 -53.5 4.5 -1.1 1.1 -2.3 3.3 1.2 10.1 2.3 15.1 1.1 1.7 4.2 3.6t4.1 5.9q1.2 2.2 4.2 11.4t3.9 11.5 4.2 9.4 4.8 9.5 5 7.8 6.7 7.6 7.8 5.3 9.8 4.4 11.4 2.3 13.7 1.1q20.1 0 32.9 -7t18.1 -16.7 8.1 -19.3 6.4 -16.4 9.8 -7h6.7q6.1 0 9.8 7t6.4 16.4 8.1 19.3 18.1 16.7 32.9 7q7.3 0 13.7 -1.1t11.5 -2.3 9.7 -4.4 7.8 -5.3 6.7 -7.6 5 -7.8 4.8 -9.5 4.2 -9.4 3.9 -11.5 4.2 -11.4q1.1 -3.9 4.2 -5.9t4.1 -3.6q1.2 -5 2.3 -15.1zM785.7 784q0 67.6 -40.7 106.1t-108.3 38.5H149q-67.5 0 -108.3 -38.5T0 784q0 -34 2.5 -65.8t10.6 -70 20.9 -69 35.5 -57.7 52.2 -41.6L71.4 357.1h119.4q-12.2 -35.7 -12.2 -71.4 0 -6.7 1.1 -17.8Q71.4 245.5 71.4 214.3q0 -31.8 117.2 -55.3 9.5 -34.6 28.8 -74.7t39.3 -63.7Q274.6 0 299.1 0q16.7 0 46.9 17.3t46.9 17.3 46.8 -17.3T486.6 0q24.6 0 42.4 20.6 20.1 23.5 39.4 63.7t28.7 74.7q117.2 23.5 117.2 55.3 0 31.2 -108.3 53.6 3.9 45.2 -11.1 89.2h119.4l-45.8 125.6q35.2 18.4 60 53.9t36.6 80 16.2 84.6 4.4 82.8z"/></svg>