<svg height="1000" width="1142.9" xmlns="http://www.w3.org/2000/svg"><path d="M392.9 500q-88.8 0 -151.5 -62.8T178.6 285.7t62.8 -151.5T392.9 71.4t151.5 62.8 62.7 151.5 -62.7 151.5T392.9 500zm535.7 71.4H1125q7.3 0 12.6 5.3t5.3 12.6v107.1q0 7.3 -5.3 12.6t-12.6 5.3H928.6v196.4q0 7.3 -5.3 12.6t-12.6 5.3H803.6q-7.3 0 -12.6 -5.3t-5.3 -12.6V714.3H589.3q-7.3 0 -12.6 -5.3t-5.3 -12.6V589.3q0 -7.3 5.3 -12.6t12.6 -5.3h196.4V375q0 -7.3 5.3 -12.6t12.6 -5.3h107.1q7.3 0 12.6 5.3t5.3 12.6v196.4zm-410.7 125q0 29 21.2 50.3t50.2 21.2h142.8v132.8q-37.9 27.9 -95.4 27.9H149q-67.5 0 -108.3 -38.5T0 784q0 -29.5 2 -57.7t7.8 -60.8 14.8 -60.6 23.9 -54.4 34.6 -45.2 47.8 -29.9 62.2 -11.1q10.6 0 21.7 9.5 44.1 34 86.3 51t91.8 17.1 91.8 -17.1 86.2 -51q11.1 -9.5 21.7 -9.5 73.7 0 121.1 53.6H589.3q-29 0 -50.2 21.2t-21.2 50.2v107.1z"/></svg>