<svg height="1000" width="1071.429" xmlns="http://www.w3.org/2000/svg"><path d="M330.894 500.032q-90.396 2.79 -147.87 71.424h-74.772q-45.756 0 -77.004 -22.599t-31.248 -66.123q0 -196.974 69.192 -196.974 3.348 0 24.273 11.718t54.405 23.715 66.402 11.997q37.386 0 74.214 -12.834 -2.79 20.646 -2.79 36.828 0 77.562 45.198 142.848zm597.618 355.446q0 66.96 -40.734 105.741t-108.252 38.781h-487.692q-67.518 0 -108.252 -38.781t-40.734 -105.741q0 -29.574 1.953 -57.753t7.812 -60.822 14.787 -60.543 23.994 -54.405 34.596 -45.198 47.709 -29.853 62.217 -11.16q5.58 0 23.994 11.997t40.734 26.784 59.706 26.784 75.33 11.997 75.33 -11.997 59.706 -26.784 40.734 -26.784 23.994 -11.997q34.038 0 62.217 11.16t47.709 29.853 34.596 45.198 23.994 54.405 14.787 60.543 7.812 60.822 1.953 57.753zm-571.392 -712.566q0 59.148 -41.85 100.998t-100.998 41.85 -100.998 -41.85 -41.85 -100.998 41.85 -100.998 100.998 -41.85 100.998 41.85 41.85 100.998zm392.832 214.272q0 88.722 -62.775 151.497t-151.497 62.775 -151.497 -62.775 -62.775 -151.497 62.775 -151.497 151.497 -62.775 151.497 62.775 62.775 151.497zm321.408 125.55q0 43.524 -31.248 66.123t-77.004 22.599h-74.772q-57.474 -68.634 -147.87 -71.424 45.198 -65.286 45.198 -142.848 0 -16.182 -2.79 -36.828 36.828 12.834 74.214 12.834 32.922 0 66.402 -11.997t54.405 -23.715 24.273 -11.718q69.192 0 69.192 196.974zm-71.424 -339.822q0 59.148 -41.85 100.998t-100.998 41.85 -100.998 -41.85 -41.85 -100.998 41.85 -100.998 100.998 -41.85 100.998 41.85 41.85 100.998z"/></svg>