<svg height="1000" width="785.7" xmlns="http://www.w3.org/2000/svg"><path d="M0 784.1q0-37.9 3.1-73.1t13.4-77 26.5-73.9 45.2-57.5 67-33.8q-12.3 29-12.3 67v113.3q-32.4 11.2-51.9 39.1t-19.5 61.9q0 44.6 31.2 75.9t75.9 31.2 75.9-31.2 31.2-75.9q0-34-19.8-61.9t-51.6-39.1v-113.3q0-34.6 14-51.9 73.7 58 164.6 58t164.6-58q14 17.3 14 51.9v35.7q-59.1 0-101 41.9t-41.9 101v49.7q-17.9 16.2-17.9 39.6 0 22.3 15.6 37.9t37.9 15.6 37.9-15.6 15.6-37.9q0-23.4-17.9-39.6v-49.7q0-29 21.2-50.2t50.2-21.2 50.2 21.2 21.2 50.2v49.7q-17.9 16.2-17.9 39.6 0 22.3 15.6 37.9t37.9 15.6 37.9-15.6 15.6-37.9q0-23.4-17.9-39.6v-49.7q0-37.9-19.3-71.1t-52.2-52.2q0-5.6.3-23.7t0-26.8-1.4-23.2-3.9-26.2-7.3-22.3q37.9 8.4 67 33.8t45.2 57.5 26.5 73.9 13.4 77 3.1 73.1q0 67.5-40.7 106t-108.3 38.5h-487.7q-67.5 0-108.3-38.5t-40.7-106zm142.8-34q0-14.5 10.6-25.1t25.1-10.6 25.1 10.6 10.6 25.1-10.6 25.1-25.1 10.6-25.1-10.6-10.6-25.1zm35.7-464.3q0-88.7 62.8-151.5t151.5-62.8 151.5 62.8 62.8 151.5-62.8 151.5-151.5 62.8-151.5-62.8-62.8-151.5z"/></svg>