<svg height="1000px" width="1071.4285714285716px" xmlns="http://www.w3.org/2000/svg">
  <g>
    <path d="M0 482.70089285714283c0 -131.324 23.065 -196.987 69.196 -196.987c2.233 0 10.324 3.907 24.275 11.719c13.951 7.813 32.087 15.718 54.408 23.717c22.322 7.998 44.457 11.997 66.407 11.997c24.925 0 49.665 -4.278 74.218 -12.834c-1.86 13.764 -2.79 26.041 -2.79 36.83c0 51.711 15.067 99.33 45.201 142.857c-60.268 1.86 -109.561 25.67 -147.879 71.429c0 0 -74.777 0 -74.777 0c-30.506 0 -56.176 -7.534 -77.009 -22.601c-20.833 -15.067 -31.25 -37.109 -31.25 -66.127c0 0 0 0 0 0m71.429 -339.844c0 -39.434 13.95 -73.102 41.852 -101.004c27.902 -27.902 61.57 -41.853 101.005 -41.853c39.434 0 73.102 13.951 101.004 41.853c27.902 27.902 41.853 61.57 41.853 101.004c0 39.435 -13.951 73.103 -41.853 101.005c-27.902 27.902 -61.57 41.852 -101.004 41.852c-39.435 0 -73.103 -13.95 -101.005 -41.852c-27.902 -27.902 -41.852 -61.57 -41.852 -101.005c0 0 0 0 0 0m71.428 712.612c0 -19.717 0.651 -38.97 1.953 -57.757c1.302 -18.787 3.907 -39.062 7.813 -60.826c3.906 -21.763 8.835 -41.945 14.788 -60.547c5.952 -18.601 13.951 -36.737 23.995 -54.408c10.045 -17.671 21.578 -32.738 34.598 -45.201c13.021 -12.463 28.925 -22.414 47.713 -29.855c18.787 -7.44 39.527 -11.161 62.22 -11.161c3.721 0 11.719 4 23.996 11.998c12.277 7.999 25.856 16.927 40.737 26.786c14.881 9.859 34.784 18.787 59.709 26.786c24.926 7.998 50.038 11.997 75.335 11.997c25.298 0 50.41 -3.999 75.335 -11.997c24.926 -7.999 44.829 -16.927 59.71 -26.786c14.881 -9.859 28.46 -18.787 40.737 -26.786c12.276 -7.998 20.275 -11.998 23.995 -11.998c22.694 0 43.434 3.721 62.221 11.161c18.787 7.441 34.691 17.392 47.712 29.855c13.021 12.463 24.554 27.53 34.598 45.201c10.045 17.671 18.043 35.807 23.996 54.408c5.952 18.602 10.882 38.784 14.788 60.547c3.906 21.764 6.51 42.039 7.812 60.826c1.302 18.787 1.953 38.04 1.953 57.757c0 44.643 -13.578 79.892 -40.736 105.748c-27.158 25.855 -63.244 38.783 -108.259 38.783c0 0 -487.723 0 -487.723 0c-45.015 0 -81.102 -12.928 -108.259 -38.783c-27.158 -25.856 -40.737 -61.105 -40.737 -105.748c0 0 0 0 0 0m178.572 -498.326c0 -59.152 20.926 -109.654 62.779 -151.507c41.852 -41.852 92.355 -62.779 151.506 -62.779c59.152 0 109.654 20.927 151.507 62.779c41.853 41.853 62.779 92.355 62.779 151.507c0 59.152 -20.926 109.654 -62.779 151.507c-41.853 41.852 -92.355 62.779 -151.507 62.779c-59.151 0 -109.654 -20.927 -151.506 -62.779c-41.853 -41.853 -62.779 -92.355 -62.779 -151.507c0 0 0 0 0 0m392.857 -214.286c0 -39.434 13.951 -73.102 41.852 -101.004c27.902 -27.902 61.57 -41.853 101.005 -41.853c39.434 0 73.103 13.951 101.004 41.853c27.902 27.902 41.853 61.57 41.853 101.004c0 39.435 -13.951 73.103 -41.853 101.005c-27.901 27.902 -61.57 41.852 -101.004 41.852c-39.435 0 -73.103 -13.95 -101.005 -41.852c-27.901 -27.902 -41.852 -61.57 -41.852 -101.005c0 0 0 0 0 0m26.227 357.143c30.134 -43.527 45.201 -91.146 45.201 -142.857c0 -10.789 -0.93 -23.066 -2.79 -36.83c24.554 8.556 49.293 12.834 74.219 12.834c21.949 0 44.085 -3.999 66.406 -11.997c22.322 -7.999 40.458 -15.904 54.409 -23.717c13.95 -7.812 22.042 -11.719 24.274 -11.719c46.131 0 69.197 65.663 69.197 196.987c0 29.018 -10.417 51.06 -31.25 66.127c-20.834 15.067 -46.503 22.601 -77.009 22.601c0 0 -74.777 0 -74.777 0c-38.319 -45.759 -87.612 -69.569 -147.88 -71.429c0 0 0 0 0 0" />
  </g>
</svg>