<svg height="1000px" width="917.96875px" xmlns="http://www.w3.org/2000/svg">
  <g>
    <path d="M0 466.552734375c0 0 0 -74.219 0 -74.219c0 -5.859 0.163 -13.59 0.488 -23.193c0.326 -9.603 1.953 -18.799 4.883 -27.588c2.93 -8.789 7.731 -16.357 14.404 -22.705c6.674 -6.348 16.032 -9.522 28.077 -9.522c-14.649 -9.44 -26.286 -21.728 -34.913 -36.865c-8.626 -15.137 -12.939 -32.145 -12.939 -51.025c0 -13.998 2.686 -27.344 8.057 -40.039c5.371 -12.696 12.858 -23.845 22.461 -33.448c9.602 -9.602 20.752 -17.089 33.447 -22.46c12.695 -5.372 26.042 -8.057 40.039 -8.057c14.648 0 28.32 2.685 41.016 8.057c12.695 5.371 23.681 12.858 32.959 22.46c9.277 9.603 16.764 20.752 22.46 33.448c5.697 12.695 8.545 26.041 8.545 40.039c0 18.555 -4.476 35.482 -13.427 50.781c-8.952 15.3 -20.752 27.669 -35.401 37.109c12.045 0 21.403 3.174 28.076 9.522c6.674 6.348 11.475 13.916 14.405 22.705c2.929 8.789 4.72 17.985 5.371 27.588c0.651 9.603 0.976 17.334 0.976 23.193c0 0 0 74.219 0 74.219c-4.557 2.604 -8.382 5.615 -11.474 9.033c-3.093 3.418 -7.569 5.127 -13.428 5.127c0 0 -160.156 0 -160.156 0c-5.209 0 -9.522 -1.709 -12.94 -5.127c-3.418 -3.418 -7.08 -6.429 -10.986 -9.033c0 0 0 0 0 0m77.148 388.184c0 0 0 -188.965 0 -188.965c0 -25.391 7.325 -47.933 21.973 -67.627c14.649 -19.694 30.599 -37.516 47.852 -53.467c3.255 -3.255 7.405 -6.755 12.451 -10.498c5.045 -3.744 10.498 -6.266 16.357 -7.568c5.86 -1.954 12.533 -3.093 20.02 -3.418c7.487 -0.326 14.811 -1.14 21.972 -2.442c19.857 -3.255 41.016 -6.429 63.477 -9.521c22.461 -3.093 44.434 -6.267 65.918 -9.522c-29.297 -18.554 -52.816 -43.213 -70.557 -73.974c-17.741 -30.762 -26.611 -64.535 -26.611 -101.319c0 -28.646 5.534 -55.745 16.602 -81.299c11.067 -25.553 26.041 -47.688 44.921 -66.406c18.881 -18.717 41.016 -33.61 66.407 -44.678c25.39 -11.067 52.409 -16.601 81.054 -16.601c28.646 0 55.664 5.534 81.055 16.601c25.391 11.068 47.526 25.961 66.406 44.678c18.881 18.718 33.854 40.853 44.922 66.406c11.068 25.554 16.602 52.653 16.602 81.299c0 36.784 -8.789 70.476 -26.367 101.075c-17.579 30.598 -41.179 55.338 -70.801 74.218c21.484 3.255 43.375 6.348 65.674 9.278c22.298 2.929 43.538 6.184 63.72 9.765c7.487 1.302 14.812 2.116 21.973 2.442c7.161 0.325 13.835 1.464 20.02 3.418c5.859 1.302 11.311 3.824 16.357 7.568c5.045 3.743 9.521 7.243 13.428 10.498c21.484 19.206 38.33 38.167 50.537 56.885c12.207 18.717 18.31 40.12 18.31 64.209c0 0 0 188.965 0 188.965c-3.906 1.953 -7.161 4.069 -9.765 6.347c-2.604 2.279 -5.616 4.558 -9.034 6.836c-3.417 2.279 -7.242 4.639 -11.474 7.08c-4.232 2.442 -10.091 4.964 -17.578 7.569c0 0 -667.969 0 -667.969 0c-11.393 0 -20.264 -3.662 -26.611 -10.987c-6.348 -7.324 -13.428 -12.939 -21.241 -16.845c0 0 0 0 0 0m631.836 -388.184c0 0 0 -74.219 0 -74.219c0 -5.859 0.326 -13.59 0.977 -23.193c0.651 -9.603 2.523 -18.799 5.615 -27.588c3.093 -8.789 7.975 -16.357 14.649 -22.705c6.673 -6.348 15.869 -9.522 27.588 -9.522c-14.649 -9.44 -26.449 -21.728 -35.401 -36.865c-8.952 -15.137 -13.428 -32.145 -13.428 -51.025c0 -13.998 2.686 -27.344 8.057 -40.039c5.371 -12.696 12.858 -23.845 22.461 -33.448c9.603 -9.602 20.752 -17.089 33.447 -22.46c12.696 -5.372 26.367 -8.057 41.016 -8.057c13.997 0 27.344 2.685 40.039 8.057c12.695 5.371 23.844 12.858 33.447 22.46c9.603 9.603 17.09 20.752 22.461 33.448c5.371 12.695 8.057 26.041 8.057 40.039c0 18.554 -4.313 35.482 -12.94 50.781c-8.626 15.3 -20.263 27.669 -34.912 37.109c12.044 0 21.24 3.174 27.588 9.522c6.348 6.348 10.986 13.916 13.916 22.705c2.93 8.789 4.72 17.985 5.371 27.588c0.651 9.603 0.977 17.334 0.977 23.193c0 0 0 74.219 0 74.219c-3.906 2.604 -7.569 5.615 -10.987 9.033c-3.418 3.418 -7.731 5.127 -12.939 5.127c0 0 -160.156 0 -160.156 0c-5.86 0 -10.336 -1.709 -13.428 -5.127c-3.092 -3.418 -6.917 -6.429 -11.475 -9.033c0 0 0 0 0 0" />
  </g>
</svg>