<svg height="1000px" width="785.7142857142858px" xmlns="http://www.w3.org/2000/svg">
  <g>
    <path d="M0 784.0401785714286c0 -19.717 0.651 -38.969 1.953 -57.757c1.302 -18.787 3.906 -39.062 7.813 -60.826c3.906 -21.763 8.835 -41.945 14.788 -60.546c5.952 -18.602 13.95 -36.738 23.995 -54.409c10.045 -17.671 21.577 -32.738 34.598 -45.201c13.021 -12.463 28.925 -22.414 47.712 -29.855c18.788 -7.44 39.528 -11.16 62.221 -11.16c3.349 0 11.161 3.999 23.438 11.997c12.277 7.999 26.135 16.927 41.574 26.786c15.439 9.859 35.528 18.787 60.267 26.786c24.74 7.998 49.573 11.998 74.498 11.998c24.926 0 49.758 -4 74.498 -11.998c24.739 -7.999 44.829 -16.927 60.268 -26.786c15.439 -9.859 29.297 -18.787 41.573 -26.786c12.277 -7.998 20.09 -11.997 23.438 -11.997c22.693 0 43.434 3.72 62.221 11.16c18.787 7.441 34.691 17.392 47.712 29.855c13.021 12.463 24.554 27.53 34.598 45.201c10.045 17.671 18.043 35.807 23.996 54.409c5.952 18.601 10.881 38.783 14.788 60.546c3.906 21.764 6.51 42.039 7.812 60.826c1.302 18.788 1.953 38.04 1.953 57.757c0 44.643 -13.579 79.892 -40.736 105.748c-27.158 25.855 -63.244 38.783 -108.259 38.783c0 0 -487.723 0 -487.723 0c-45.015 0 -81.102 -12.928 -108.259 -38.783c-27.158 -25.856 -40.737 -61.105 -40.737 -105.748c0 0 0 0 0 0m178.571 -498.326c0 -59.152 20.927 -109.654 62.779 -151.507c41.853 -41.852 92.355 -62.779 151.507 -62.779c59.152 0 109.654 20.927 151.507 62.779c41.853 41.853 62.779 92.355 62.779 151.507c0 59.152 -20.926 109.654 -62.779 151.507c-41.853 41.852 -92.355 62.779 -151.507 62.779c-59.152 0 -109.654 -20.927 -151.507 -62.779c-41.852 -41.853 -62.779 -92.355 -62.779 -151.507c0 0 0 0 0 0" />
  </g>
</svg>