<svg height="1000" width="785.7" xmlns="http://www.w3.org/2000/svg"><path d="M785.7 784q0 67 -40.7 105.8t-108.3 38.8H149q-67.5 0 -108.3 -38.8T0 784q0 -29.5 2 -57.7t7.8 -60.8 14.8 -60.6 23.9 -54.4 34.6 -45.2 47.8 -29.9 62.2 -11.1q5 0 23.4 12t41.6 26.8 60.3 26.8 74.5 12 74.5 -12 60.2 -26.8 41.6 -26.8 23.4 -12q34.1 0 62.3 11.1t47.7 29.9 34.6 45.2 24 54.4 14.7 60.6 7.9 60.8 1.9 57.7zM607.1 285.7q0 88.7 -62.7 151.5T392.9 500 241.4 437.2 178.6 285.7t62.8 -151.5T392.9 71.4t151.5 62.8 62.7 151.5z"/></svg>