<svg height="1000px" width="1071.4285714285716px" xmlns="http://www.w3.org/2000/svg">
  <g>
    <path d="M1000 142.85714285714278c0 39.435 -13.951 73.103 -41.853 101.004c-27.901 27.902 -61.57 41.853 -101.004 41.853c-39.435 0 -73.103 -13.951 -101.005 -41.853c-27.901 -27.901 -41.852 -61.569 -41.852 -101.004c0 -39.435 13.951 -73.103 41.852 -101.004c27.902 -27.902 61.57 -41.853 101.005 -41.853c39.434 0 73.103 13.951 101.004 41.853c27.902 27.901 41.853 61.569 41.853 101.004c0 0 0 0 0 0m71.429 339.844c0 29.018 -10.417 51.06 -31.25 66.127c-20.834 15.067 -46.503 22.6 -77.009 22.6c0 0 -74.777 0 -74.777 0c-38.319 -45.758 -87.612 -69.568 -147.88 -71.428c30.134 -43.527 45.201 -91.146 45.201 -142.857c0 -10.789 -0.93 -23.066 -2.79 -36.831c24.554 8.557 48.549 12.835 71.987 12.835c23.437 0 46.317 -3.999 68.638 -11.998c22.322 -7.998 40.458 -15.904 54.409 -23.716c13.95 -7.813 22.042 -11.719 24.274 -11.719c46.131 0 69.197 65.662 69.197 196.987c0 0 0 0 0 0m-321.429 -125.558c0 59.151 -20.926 109.654 -62.779 151.506c-41.853 41.853 -92.355 62.779 -151.507 62.779c-59.152 0 -109.654 -20.926 -151.506 -62.779c-41.853 -41.852 -62.779 -92.354 -62.779 -151.506c0 -59.152 20.926 -109.654 62.779 -151.507c41.852 -41.853 92.354 -62.779 151.506 -62.779c59.152 0 109.654 20.926 151.507 62.779c41.853 41.853 62.779 92.355 62.779 151.507c0 0 0 0 0 0m-392.857 -214.286c0 39.435 -13.951 73.103 -41.853 101.004c-27.902 27.902 -61.57 41.853 -101.004 41.853c-39.435 0 -73.103 -13.951 -101.005 -41.853c-27.902 -27.901 -41.852 -61.569 -41.852 -101.004c0 -39.435 13.95 -73.103 41.852 -101.004c27.902 -27.902 61.57 -41.853 101.005 -41.853c39.434 0 73.102 13.951 101.004 41.853c27.902 27.901 41.853 61.569 41.853 101.004c0 0 0 0 0 0m571.428 712.612c0 44.642 -13.578 79.892 -40.736 105.747c-27.158 25.856 -63.244 38.784 -108.259 38.784c0 0 -487.723 0 -487.723 0c-45.015 0 -81.102 -12.928 -108.259 -38.784c-27.158 -25.855 -40.737 -61.105 -40.737 -105.747c0 -132.813 27.716 -225.633 83.147 -278.46c28.646 -27.53 65.291 -41.295 109.933 -41.295c4.093 0 25.67 13.021 64.733 39.063c14.881 9.672 34.784 18.508 59.709 26.506c24.926 7.999 50.038 11.998 75.335 11.998c25.298 0 50.41 -3.999 75.335 -11.998c24.926 -7.998 44.829 -16.834 59.71 -26.506c39.062 -26.042 60.64 -39.063 64.732 -39.063c63.616 0 111.793 28.646 144.531 85.938c32.366 57.291 48.549 135.23 48.549 233.817c0 0 0 0 0 0m-597.656 -355.469c-60.268 1.86 -109.561 25.67 -147.879 71.428c0 0 -74.777 0 -74.777 0c-30.506 0 -56.176 -7.533 -77.009 -22.6c-20.833 -15.067 -31.25 -37.109 -31.25 -66.127c0 -131.325 23.065 -196.987 69.196 -196.987c2.233 0 10.417 3.906 24.554 11.719c42.411 23.809 79.334 35.714 110.77 35.714c31.436 0 59.431 -4.278 83.984 -12.835c-1.86 13.765 -2.79 26.042 -2.79 36.831c0 51.711 15.067 99.33 45.201 142.857c0 0 0 0 0 0" />
  </g>
</svg>