<svg height="1000" width="1142.857" xmlns="http://www.w3.org/2000/svg"><path d="M392.832 500.032q-88.722 0 -151.497 -62.775t-62.775 -151.497 62.775 -151.497 151.497 -62.775 151.497 62.775 62.775 151.497 -62.775 151.497 -151.497 62.775zm600.966 178.56l138.942 138.942q5.022 5.022 5.022 12.834 0 7.254 -5.022 12.276l-75.888 75.888q-5.022 5.022 -12.276 5.022 -7.812 0 -12.834 -5.022l-138.942 -138.942 -138.942 138.942q-5.022 5.022 -12.834 5.022 -7.254 0 -12.276 -5.022l-75.888 -75.888q-5.022 -5.022 -5.022 -12.276 0 -7.812 5.022 -12.834l138.942 -138.942 -138.942 -138.942q-5.022 -5.022 -5.022 -12.834 0 -7.254 5.022 -12.276l75.888 -75.888q5.022 -5.022 12.276 -5.022 7.812 0 12.834 5.022l138.942 138.942 138.942 -138.942q5.022 -5.022 12.834 -5.022 7.254 0 12.276 5.022l75.888 75.888q5.022 5.022 5.022 12.276 0 7.812 -5.022 12.834zm-277.884 0l-100.998 100.998q-20.646 20.646 -20.646 50.778 0 29.574 20.646 50.22l46.314 46.314q-11.718 1.674 -24.552 1.674h-487.692q-67.518 0 -108.252 -38.502t-40.734 -106.02q0 -29.574 1.953 -57.753t7.812 -60.822 14.787 -60.543 23.994 -54.405 34.596 -45.198 47.709 -29.853 62.217 -11.16q10.602 0 21.762 9.486 85.932 68.076 178.002 68.076t178.002 -68.076q11.16 -9.486 21.762 -9.486 15.624 0 31.806 3.348 -15.624 15.066 -22.878 27.9t-7.254 31.248q0 30.132 20.646 50.778z"/></svg>