<svg height="1000" width="1071.4" xmlns="http://www.w3.org/2000/svg"><path d="M330.9 500q-90.4 2.8 -147.9 71.4h-74.7q-45.8 0 -77.1 -22.6T0 482.7q0 -197 69.2 -197 3.3 0 24.3 11.7t54.4 23.7 66.4 12q37.4 0 74.2 -12.8 -2.8 20.7 -2.8 36.8 0 77.6 45.2 142.9zm597.7 355.5q0 66.9 -40.8 105.7T779.6 1000H291.9q-67.6 0 -108.3 -38.8T142.9 855.5q0 -29.6 1.9 -57.8t7.8 -60.8 14.8 -60.6 24 -54.4T226 576.7t47.7 -29.8 62.2 -11.2q5.6 0 24 12t40.8 26.8 59.7 26.8 75.3 12 75.3 -12 59.8 -26.8 40.7 -26.8 24 -12q34 0 62.2 11.2t47.7 29.8 34.6 45.2 24 54.4 14.8 60.6 7.8 60.8 2 57.8zM357.1 142.9q0 59.1 -41.8 101t-101 41.8 -101 -41.8 -41.9 -101 41.9 -101T214.3 0t101 41.9 41.8 101zM750 357.1q0 88.8 -62.8 151.5t-151.5 62.8T384.2 508.6 321.4 357.1t62.8 -151.5 151.5 -62.7 151.5 62.7T750 357.1zm321.4 125.6q0 43.5 -31.2 66.1t-77 22.6h-74.8Q830.9 502.8 740.5 500q45.2 -65.3 45.2 -142.9 0 -16.1 -2.8 -36.8 36.9 12.8 74.2 12.8 33 0 66.4 -12T978 297.4t24.2 -11.7q69.2 0 69.2 197zM1000 142.9q0 59.1 -41.9 101t-101 41.8 -101 -41.8 -41.8 -101 41.8 -101T857.1 0t101 41.9 41.9 101z"/></svg>