<svg height="1000" width="1071.4" xmlns="http://www.w3.org/2000/svg"><path d="M0 482.7q0-197 69.2-197 3.3 0 24.3 11.7t54.4 23.7 66.4 12q37.4 0 74.2-12.8-2.8 20.6-2.8 36.8 0 77.6 45.2 142.8-90.4 2.8-147.9 71.4h-74.8q-45.8 0-77-22.6t-31.2-66.1zm71.4-339.8q0-59.1 41.9-101t101-41.9 101 41.9 41.9 101-41.9 101-101 41.9-101-41.9-41.9-101zm71.4 712.6q0-29.6 2-57.8t7.8-60.8 14.8-60.5 24-54.4 34.6-45.2 47.7-29.9 62.2-11.2q5.6 0 24 12t40.7 26.8 59.7 26.8 75.3 12 75.3-12 59.7-26.8 40.7-26.8 24-12q34 0 62.2 11.2t47.7 29.9 34.6 45.2 24 54.4 14.8 60.5 7.8 60.8 2 57.8q0 67-40.7 105.7t-108.3 38.8h-487.7q-67.5 0-108.3-38.8t-40.7-105.7zm178.6-498.3q0-88.7 62.8-151.5t151.5-62.8 151.5 62.8 62.8 151.5-62.8 151.5-151.5 62.8-151.5-62.8-62.8-151.5zm392.8-214.3q0-59.1 41.9-101t101-41.9 101 41.9 41.9 101-41.9 101-101 41.9-101-41.9-41.9-101zm26.2 357.1q45.2-65.3 45.2-142.8 0-16.2-2.8-36.8 36.8 12.8 74.2 12.8 32.9 0 66.4-12t54.4-23.7 24.3-11.7q69.2 0 69.2 197 0 43.5-31.2 66.1t-77 22.6h-74.8q-57.5-68.6-147.9-71.4z"/></svg>