<svg height="1000" width="785.714" xmlns="http://www.w3.org/2000/svg"><path d="M214.272 750.016q0 14.508 -10.602 25.11t-25.11 10.602 -25.11 -10.602 -10.602 -25.11 10.602 -25.11 25.11 -10.602 25.11 10.602 10.602 25.11zm571.392 34.038q0 67.518 -40.734 106.02t-108.252 38.502h-487.692q-67.518 0 -108.252 -38.502t-40.734 -106.02q0 -37.944 3.069 -73.098t13.392 -77.004 26.505 -73.935 45.198 -57.474 66.96 -33.759q-12.276 29.016 -12.276 66.96v113.274q-32.364 11.16 -51.894 39.06t-19.53 61.938q0 44.64 31.248 75.888t75.888 31.248 75.888 -31.248 31.248 -75.888q0 -34.038 -19.809 -61.938t-51.615 -39.06v-113.274q0 -34.596 13.95 -51.894 73.656 58.032 164.61 58.032t164.61 -58.032q13.95 17.298 13.95 51.894v35.712q-59.148 0 -100.998 41.85t-41.85 100.998v49.662q-17.856 16.182 -17.856 39.618 0 22.32 15.624 37.944t37.944 15.624 37.944 -15.624 15.624 -37.944q0 -23.436 -17.856 -39.618v-49.662q0 -29.016 21.204 -50.22t50.22 -21.204 50.22 21.204 21.204 50.22v49.662q-17.856 16.182 -17.856 39.618 0 22.32 15.624 37.944t37.944 15.624 37.944 -15.624 15.624 -37.944q0 -23.436 -17.856 -39.618v-49.662q0 -37.944 -19.251 -71.145t-52.173 -52.173q0 -5.58 .279 -23.715t0 -26.784 -1.395 -23.157 -3.906 -26.226 -7.254 -22.32q37.944 8.37 66.96 33.759t45.198 57.474 26.505 73.935 13.392 77.004 3.069 73.098zm-178.56 -498.294q0 88.722 -62.775 151.497t-151.497 62.775 -151.497 -62.775 -62.775 -151.497 62.775 -151.497 151.497 -62.775 151.497 62.775 62.775 151.497z"/></svg>