<svg height="1000" width="1142.857" xmlns="http://www.w3.org/2000/svg"><path d="M392.832 500.032q-88.722 0 -151.497 -62.775t-62.775 -151.497 62.775 -151.497 151.497 -62.775 151.497 62.775 62.775 151.497 -62.775 151.497 -151.497 62.775zm535.68 71.424h196.416q7.254 0 12.555 5.301t5.301 12.555v107.136q0 7.254 -5.301 12.555t-12.555 5.301h-196.416v196.416q0 7.254 -5.301 12.555t-12.555 5.301h-107.136q-7.254 0 -12.555 -5.301t-5.301 -12.555v-196.416h-196.416q-7.254 0 -12.555 -5.301t-5.301 -12.555v-107.136q0 -7.254 5.301 -12.555t12.555 -5.301h196.416v-196.416q0 -7.254 5.301 -12.555t12.555 -5.301h107.136q7.254 0 12.555 5.301t5.301 12.555v196.416zm-410.688 124.992q0 29.016 21.204 50.22t50.22 21.204h142.848v132.804q-37.944 27.9 -95.418 27.9h-487.692q-67.518 0 -108.252 -38.502t-40.734 -106.02q0 -29.574 1.953 -57.753t7.812 -60.822 14.787 -60.543 23.994 -54.405 34.596 -45.198 47.709 -29.853 62.217 -11.16q10.602 0 21.762 9.486 44.082 34.038 86.211 51.057t91.791 17.019 91.791 -17.019 86.211 -51.057q11.16 -9.486 21.762 -9.486 73.656 0 121.086 53.568h-124.434q-29.016 0 -50.22 21.204t-21.204 50.22v107.136z"/></svg>