<svg height="1000px" width="785.7142857142858px" xmlns="http://www.w3.org/2000/svg">
  <g>
    <path d="M607.1428571428571 285.71428571428567c0 59.152 -20.926 109.654 -62.779 151.507c-41.853 41.852 -92.355 62.779 -151.507 62.779c-59.151 0 -109.654 -20.927 -151.506 -62.779c-41.853 -41.853 -62.779 -92.355 -62.779 -151.507c0 -59.152 20.926 -109.654 62.779 -151.507c41.852 -41.852 92.355 -62.779 151.506 -62.779c59.152 0 109.654 20.927 151.507 62.779c41.853 41.853 62.779 92.355 62.779 151.507c0 0 0 0 0 0m137.835 604.353c-27.158 25.669 -63.244 38.504 -108.259 38.504c0 0 -487.723 0 -487.723 0c-45.015 0 -81.102 -12.835 -108.259 -38.504c-27.158 -25.67 -40.737 -61.012 -40.737 -106.027c0 -136.533 29.39 -230.469 88.17 -281.808c19.345 -17.113 41.666 -28.274 66.964 -33.482c-8.184 19.345 -12.277 41.666 -12.277 66.964c0 0 0 113.281 0 113.281c-21.577 7.441 -38.876 20.462 -51.897 39.063c-13.021 18.601 -19.531 41.015 -19.531 67.243c0 26.228 10.416 49.758 31.25 70.592c20.833 20.833 46.131 31.25 75.893 31.25c29.761 0 55.059 -10.417 75.892 -31.25c20.834 -20.834 31.25 -44.364 31.25 -70.592c0 -26.228 -6.603 -48.642 -19.81 -67.243c-13.207 -18.601 -30.413 -31.622 -51.618 -39.063c0 0 0 -113.281 0 -113.281c0 -23.065 4.65 -40.365 13.951 -51.897c49.107 38.69 103.98 58.035 164.62 58.035c60.64 0 115.514 -19.345 164.621 -58.035c9.3 11.532 13.951 28.832 13.951 51.897c0 0 0 35.714 0 35.714c-39.435 0 -73.103 13.951 -101.005 41.853c-27.902 27.902 -41.852 61.57 -41.852 101.004c0 0 0 49.666 0 49.666c-11.905 10.788 -17.858 23.809 -17.858 39.062c0 15.253 5.209 28.088 15.625 38.505c10.417 10.416 23.066 15.625 37.947 15.625c14.881 0 27.53 -5.209 37.946 -15.625c10.417 -10.417 15.625 -23.252 15.625 -38.505c0 -15.253 -5.952 -28.274 -17.857 -39.062c0 0 0 -49.666 0 -49.666c0 -19.345 7.069 -36.086 21.205 -50.223c14.137 -14.137 30.878 -21.205 50.224 -21.205c19.345 0 36.086 7.068 50.223 21.205c14.137 14.137 21.205 30.878 21.205 50.223c0 0 0 49.666 0 49.666c-11.904 10.788 -17.857 23.809 -17.857 39.062c0 15.253 5.208 28.088 15.625 38.505c10.417 10.416 23.066 15.625 37.947 15.625c14.881 0 27.529 -5.209 37.946 -15.625c10.417 -10.417 15.625 -23.252 15.625 -38.505c0 -15.253 -5.952 -28.274 -17.857 -39.062c0 0 0 -49.666 0 -49.666c0 -25.297 -6.418 -49.014 -19.252 -71.149c-12.835 -22.136 -30.227 -39.528 -52.177 -52.176c0 -3.721 0.093 -11.626 0.279 -23.717c0.186 -12.091 0.186 -21.019 0 -26.786c-0.186 -5.766 -0.651 -13.486 -1.395 -23.158c-1.488 -17.857 -5.208 -34.04 -11.161 -48.549c25.298 5.58 47.62 16.834 66.965 33.761c19.345 16.927 34.412 36.086 45.201 57.478c10.788 21.391 19.531 46.037 26.227 73.939c11.161 44.643 16.741 92.076 16.741 142.299c0 50.224 -13.578 88.17 -40.736 113.84c0 0 0 0 0 0m-530.692 -140.067c0 9.672 -3.534 18.043 -10.603 25.111c-7.068 7.069 -15.439 10.603 -25.111 10.603c-9.673 0 -18.044 -3.534 -25.112 -10.603c-7.068 -7.068 -10.603 -15.439 -10.603 -25.111c0 -9.673 3.535 -18.043 10.603 -25.112c7.068 -7.068 15.439 -10.603 25.112 -10.603c9.672 0 18.043 3.535 25.111 10.603c7.069 7.069 10.603 15.439 10.603 25.112c0 0 0 0 0 0" />
  </g>
</svg>