<svg height="1000px" width="900px" xmlns="http://www.w3.org/2000/svg">
  <g>
    <path d="M0 841c0 0 0 -7 0 -7c7.333 -12.667 13.833 -26 19.5 -40c5.667 -14 11.5 -28 17.5 -42c6 -14 12.5 -27.333 19.5 -40c7 -12.667 15.5 -24 25.5 -34c4.667 -4.667 9.833 -9.167 15.5 -13.5c5.667 -4.333 12.167 -7.833 19.5 -10.5c7.333 -2.667 15.167 -4.333 23.5 -5c8.333 -0.667 16.833 -1.667 25.5 -3c24.667 -4 50.5 -8.167 77.5 -12.5c27 -4.333 53.167 -8.5 78.5 -12.5c2.667 -11.333 5 -22.833 7 -34.5c2 -11.667 4.667 -22.833 8 -33.5c-5.333 -7.333 -10.667 -14.5 -16 -21.5c-5.333 -7 -10.5 -14.667 -15.5 -23c-5 -8.333 -9.5 -17.833 -13.5 -28.5c-4 -10.667 -7 -23 -9 -37c-1.333 -7.333 -3 -18.167 -5 -32.5c-2 -14.333 -4 -29 -6 -44c-2 -15 -3.833 -28.667 -5.5 -41c-1.667 -12.333 -2.5 -19.833 -2.5 -22.5c0 -16.667 3.5 -35.333 10.5 -56c7 -20.667 18 -40 33 -58c15 -18 34.333 -33.167 58 -45.5c23.667 -12.333 51.833 -18.5 84.5 -18.5c32.667 0 60.833 6.167 84.5 18.5c23.667 12.333 43 27.5 58 45.5c15 18 26 37.333 33 58c7 20.667 10.5 39.333 10.5 56c0 2.667 -0.833 10.167 -2.5 22.5c-1.667 12.333 -3.5 26 -5.5 41c-2 15 -4 29.667 -6 44c-2 14.333 -3.667 25.167 -5 32.5c-2 14 -5 26.333 -9 37c-4 10.667 -8.5 20.167 -13.5 28.5c-5 8.333 -10.333 16 -16 23c-5.667 7 -10.833 14.167 -15.5 21.5c3.333 10.667 6 21.833 8 33.5c2 11.667 4.333 23.167 7 34.5c25.333 4 51.5 8.167 78.5 12.5c27 4.333 52.833 8.5 77.5 12.5c8.667 1.333 17.167 2.333 25.5 3c8.333 0.667 16.167 2.333 23.5 5c7.333 2.667 13.833 6.167 19.5 10.5c5.667 4.333 10.833 8.833 15.5 13.5c10 10 18.5 21.333 25.5 34c7 12.667 13.5 26 19.5 40c6 14 11.833 28 17.5 42c5.667 14 12.167 27.333 19.5 40c0 0 0 7 0 7c-9.333 5.333 -18.167 11.5 -26.5 18.5c-8.333 7 -18.5 12.167 -30.5 15.5c0 0 -786 0 -786 0c-12 -3.333 -22.167 -8.5 -30.5 -15.5c-8.333 -7 -17.167 -13.167 -26.5 -18.5c0 0 0 0 0 0" />
  </g>
</svg>