<svg height="1000px" width="785.7142857142858px" xmlns="http://www.w3.org/2000/svg">
  <g>
    <path d="M0 784.0401785714286c0 -25.298 1.023 -49.665 3.069 -73.103c2.046 -23.437 6.511 -49.107 13.393 -77.009c6.882 -27.901 15.718 -52.548 26.507 -73.939c10.788 -21.392 25.855 -40.551 45.201 -57.478c19.345 -16.927 41.666 -28.181 66.964 -33.761c-8.185 19.345 -12.277 41.666 -12.277 66.964c0 0 0 113.281 0 113.281c-21.577 7.441 -38.876 20.462 -51.897 39.063c-13.021 18.601 -19.531 39.248 -19.531 61.942c0 29.762 10.416 55.059 31.25 75.893c20.833 20.833 46.131 31.25 75.892 31.25c29.762 0 55.06 -10.417 75.893 -31.25c20.834 -20.834 31.25 -46.131 31.25 -75.893c0 -22.694 -6.603 -43.341 -19.81 -61.942c-13.207 -18.601 -30.413 -31.622 -51.618 -39.063c0 0 0 -113.281 0 -113.281c0 -23.065 4.65 -40.364 13.951 -51.897c49.107 38.69 103.98 58.035 164.62 58.035c60.64 0 115.514 -19.345 164.621 -58.035c9.3 11.533 13.951 28.832 13.951 51.897c0 0 0 35.714 0 35.714c-39.435 0 -73.103 13.951 -101.005 41.853c-27.902 27.902 -41.853 61.57 -41.853 101.005c0 0 0 49.665 0 49.665c-11.904 10.788 -17.857 23.995 -17.857 39.62c0 14.881 5.209 27.53 15.625 37.947c10.417 10.416 23.066 15.625 37.947 15.625c14.881 0 27.529 -5.209 37.946 -15.625c10.417 -10.417 15.625 -23.066 15.625 -37.947c0 -15.625 -5.952 -28.832 -17.857 -39.62c0 0 0 -49.665 0 -49.665c0 -19.346 7.068 -36.087 21.205 -50.224c14.137 -14.137 30.878 -21.205 50.224 -21.205c19.345 0 36.086 7.068 50.223 21.205c14.137 14.137 21.205 30.878 21.205 50.224c0 0 0 49.665 0 49.665c-11.905 10.788 -17.857 23.995 -17.857 39.62c0 14.881 5.208 27.53 15.625 37.947c10.417 10.416 23.065 15.625 37.946 15.625c14.881 0 27.53 -5.209 37.947 -15.625c10.417 -10.417 15.625 -23.066 15.625 -37.947c0 -15.625 -5.953 -28.832 -17.857 -39.62c0 0 0 -49.665 0 -49.665c0 -25.298 -6.418 -49.015 -19.253 -71.15c-12.834 -22.135 -30.226 -39.528 -52.176 -52.176c0 -3.721 0.093 -11.626 0.279 -23.717c0.186 -12.091 0.186 -21.019 0 -26.786c-0.186 -5.766 -0.651 -13.485 -1.395 -23.158c-0.744 -9.673 -2.046 -18.415 -3.906 -26.228c-1.86 -7.812 -4.278 -15.253 -7.255 -22.321c25.298 5.58 47.619 16.834 66.965 33.761c19.345 16.927 34.412 36.086 45.201 57.478c10.788 21.391 19.624 46.038 26.506 73.939c6.883 27.902 11.347 53.572 13.393 77.009c2.046 23.438 3.069 47.805 3.069 73.103c0 45.015 -13.579 80.357 -40.736 106.027c-27.158 25.669 -63.244 38.504 -108.259 38.504c0 0 -487.723 0 -487.723 0c-45.015 0 -81.102 -12.835 -108.259 -38.504c-27.158 -25.67 -40.737 -61.012 -40.737 -106.027c0 0 0 0 0 0m142.857 -34.04c0 -9.673 3.534 -18.043 10.603 -25.112c7.068 -7.068 15.439 -10.602 25.111 -10.602c9.673 0 18.044 3.534 25.112 10.602c7.068 7.069 10.603 15.439 10.603 25.112c0 9.672 -3.535 18.043 -10.603 25.111c-7.068 7.069 -15.439 10.603 -25.112 10.603c-9.672 0 -18.043 -3.534 -25.111 -10.603c-7.069 -7.068 -10.603 -15.439 -10.603 -25.111c0 0 0 0 0 0m35.714 -464.286c0 -59.152 20.927 -109.654 62.779 -151.507c41.853 -41.852 92.355 -62.779 151.507 -62.779c59.152 0 109.654 20.927 151.507 62.779c41.853 41.853 62.779 92.355 62.779 151.507c0 59.152 -20.926 109.654 -62.779 151.507c-41.853 41.852 -92.355 62.779 -151.507 62.779c-59.152 0 -109.654 -20.927 -151.507 -62.779c-41.852 -41.853 -62.779 -92.355 -62.779 -151.507c0 0 0 0 0 0" />
  </g>
</svg>