<svg height="1000px" width="785.7142857142858px" xmlns="http://www.w3.org/2000/svg">
  <g>
    <path d="M0 784.0401785714286c0 -132.813 27.716 -225.632 83.147 -278.46c28.646 -27.53 65.29 -41.294 109.933 -41.294c3.349 0 11.161 3.999 23.438 11.997c12.277 7.999 26.135 16.927 41.574 26.786c15.439 9.859 35.528 18.787 60.267 26.786c24.74 7.998 49.573 11.997 74.498 11.997c24.926 0 49.758 -3.999 74.498 -11.997c24.739 -7.999 44.829 -16.927 60.268 -26.786c15.439 -9.859 29.297 -18.787 41.573 -26.786c12.277 -7.998 20.09 -11.997 23.438 -11.997c63.616 0 111.793 28.645 144.531 85.937c32.366 57.292 48.549 135.231 48.549 233.817c0 44.643 -13.579 79.892 -40.736 105.748c-27.158 25.855 -63.244 38.783 -108.259 38.783c0 0 -487.723 0 -487.723 0c-45.015 0 -81.102 -12.928 -108.259 -38.783c-27.158 -25.856 -40.737 -61.105 -40.737 -105.748c0 0 0 0 0 0m178.571 -498.326c0 -59.152 20.927 -109.654 62.779 -151.507c41.853 -41.852 92.355 -62.779 151.507 -62.779c59.152 0 109.654 20.927 151.507 62.779c41.853 41.853 62.779 92.355 62.779 151.507c0 59.152 -20.926 109.654 -62.779 151.507c-41.853 41.852 -92.355 62.779 -151.507 62.779c-59.152 0 -109.654 -20.927 -151.507 -62.779c-41.852 -41.853 -62.779 -92.355 -62.779 -151.507c0 0 0 0 0 0" />
  </g>
</svg>