<svg height="1000" width="857.1" xmlns="http://www.w3.org/2000/svg"><path d="M670.2 437.5q26.2 7.8 49.9 21.2t49.7 40.7 44.4 64.5 30.7 96 12.2 132q0 85.9 -55.8 147T666.9 1000H190.3q-78.7 0 -134.5 -61.1T0 791.9q0 -73.1 12.3 -132t30.7 -96 44.3 -64.5T137 458.7t49.9 -21.2q-44 -69.8 -44 -151.8 0 -58 22.6 -110.8t61.1 -91.2 91.2 -61.1T428.6 0t110.7 22.6 91.3 61.1 61.1 91.2 22.6 110.8q0 82 -44.1 151.8zM428.6 71.4q-88.8 0 -151.5 62.8t-62.8 151.5 62.8 151.5T428.6 500t151.5 -62.8 62.8 -151.5T580.1 134.2 428.6 71.4zm238.3 857.2q49.1 0 83.9 -39.9t34.9 -96.8q0 -133.4 -43.8 -210.4T616.1 500.6q-80.9 70.8 -187.5 70.8T241.1 500.6q-82.1 3.9 -125.9 80.9T71.4 791.9q0 56.9 34.9 96.8t84 39.9h476.6z"/></svg>