<svg height="1000" width="1142.9" xmlns="http://www.w3.org/2000/svg"><path d="M928.6 17.9q0 -7.9 5 -12.9t12.8 -5h160.7q14.6 0 25.2 10.6t10.6 25.1v160.7q0 7.8 -5.1 12.9t-12.8 5h-35.7q-7.8 0 -12.8 -5t-5.1 -12.9v-74.7L929.7 264q42.4 53 60 119.4t5.3 137.8q-17.9 100.5 -91.8 173t-175 87.6Q603.8 800.8 500 731.6q-65.3 43.5 -142.9 51.9v73.6h53.6q7.8 0 12.8 5.1t5.1 12.8v35.7q0 7.8 -5.1 12.8t-12.8 5.1h-53.6v53.5q0 7.9 -5 12.9t-12.8 5h-35.7q-7.8 0 -12.9 -5t-5 -12.9v-53.5h-53.6q-7.8 0 -12.8 -5.1t-5 -12.8V875q0 -7.8 5 -12.8t12.8 -5.1h53.6v-73.6q-86.5 -9.5 -156 -61.1T25.4 589.8 3.3 418.5q14 -104.3 89.1 -179.9t178.8 -91.8q125 -19 228.8 50.2 81.5 -54.1 178.6 -54.1 112.1 0 200.3 70.3L1021.2 71.4h-74.8q-7.8 0 -12.8 -5t-5 -12.8V17.9zM500 639q71.4 -73.2 71.4 -174.7T500 289.6q-71.4 73.1 -71.4 174.7T500 639zM71.4 464.3q0 103.2 73.4 176.6t176.6 73.4q65.3 0 121.7 -31.8 -86 -93.2 -86 -218.2t86 -218.2Q386.7 214.3 321.4 214.3q-103.2 0 -176.6 73.4T71.4 464.3zm607.2 250q103.2 0 176.6 -73.4t73.4 -176.6T855.2 287.7 678.6 214.3q-65.3 0 -121.7 31.8 86 93.2 86 218.2t-86 218.2q56.4 31.8 121.7 31.8z"/></svg>