<svg height="1000" width="1000" xmlns="http://www.w3.org/2000/svg"><path d="M998.82 295.246q6.696 86.49 -29.295 162.936t-103.788 124.992 -151.497 57.474v145.08h124.992q7.812 0 12.834 5.022t5.022 12.834v35.712q0 7.812 -5.022 12.834t-12.834 5.022h-124.992v124.992q0 7.812 -5.022 12.834t-12.834 5.022h-35.712q-7.812 0 -12.834 -5.022t-5.022 -12.834v-124.992h-285.696v124.992q0 7.812 -5.022 12.834t-12.834 5.022h-35.712q-7.812 0 -12.834 -5.022t-5.022 -12.834v-124.992h-124.992q-7.812 0 -12.834 -5.022t-5.022 -12.834v-35.712q0 -7.812 5.022 -12.834t12.834 -5.022h124.992v-145.08q-83.7 -8.928 -151.497 -57.474t-103.788 -124.992 -29.295 -162.936q9.486 -114.948 91.791 -198.927t196.695 -94.581q114.948 -11.718 210.366 52.452 95.418 -64.17 210.366 -52.452 114.39 10.602 196.695 94.581t91.791 198.927zm-498.852 200.88q71.424 -73.098 71.424 -174.654t-71.424 -174.654q-71.424 73.098 -71.424 174.654t71.424 174.654zm-178.56 75.33q64.17 0 121.644 -31.806 -85.932 -92.07 -85.932 -218.178 0 -124.992 85.932 -218.178 -57.474 -31.806 -121.644 -31.806 -103.23 0 -176.607 73.377t-73.377 176.607 73.377 176.607 176.607 73.377zm321.408 214.272v-145.08q-76.446 -8.37 -142.848 -52.452 -66.402 44.082 -142.848 52.452v145.08h285.696zm35.712 -214.272q103.23 0 176.607 -73.377t73.377 -176.607 -73.377 -176.607 -176.607 -73.377q-64.17 0 -121.644 31.806 85.932 93.186 85.932 218.178 0 126.108 -85.932 218.178 57.474 31.806 121.644 31.806z"/></svg>