<svg height="1000" width="714.3" xmlns="http://www.w3.org/2000/svg"><path d="M642.9 321.4q0 123.4 -82.4 214.6T357.1 640.6v145.1h125q7.9 0 12.9 5t5 12.9v35.7q0 7.8 -5 12.8t-12.9 5h-125v125q0 7.9 -5 12.9t-12.8 5h-35.7q-7.8 0 -12.9 -5t-5 -12.9v-125h-125q-7.8 0 -12.8 -5t-5 -12.8v-35.7q0 -7.8 5 -12.9t12.8 -5h125V640.6Q202 631.7 134.2 583.1T30.4 458.1 1.1 295.2Q7.3 220.4 46 156.3t101.6 -105 137 -49.1q94.9 -10.6 178 30.2t131.7 118.3 48.6 170.7zm-571.5 0q0 103.3 73.4 176.6t176.6 73.4T498 498t73.4 -176.6T498 144.8 321.4 71.4t-176.6 73.4T71.4 321.4z"/></svg>