<svg height="1000" width="714.286" xmlns="http://www.w3.org/2000/svg"><path d="M642.816 321.472q0 123.318 -82.305 214.551t-203.391 104.625v145.08h124.992q7.812 0 12.834 5.022t5.022 12.834v35.712q0 7.812 -5.022 12.834t-12.834 5.022h-124.992v124.992q0 7.812 -5.022 12.834t-12.834 5.022h-35.712q-7.812 0 -12.834 -5.022t-5.022 -12.834v-124.992h-124.992q-7.812 0 -12.834 -5.022t-5.022 -12.834v-35.712q0 -7.812 5.022 -12.834t12.834 -5.022h124.992v-145.08q-83.7 -8.928 -151.497 -57.474t-103.788 -124.992 -29.295 -162.936q6.138 -74.772 44.919 -138.942t101.556 -104.904 136.989 -49.104q94.86 -10.602 178.002 30.132t131.688 118.296 48.546 170.748zm-571.392 0q0 103.23 73.377 176.607t176.607 73.377 176.607 -73.377 73.377 -176.607 -73.377 -176.607 -176.607 -73.377 -176.607 73.377 -73.377 176.607z"/></svg>