<svg height="1000" width="1000" xmlns="http://www.w3.org/2000/svg"><path d="M998.9 295.2q6.7 86.5 -29.3 162.9t-103.8 125 -151.5 57.5v145.1h125q7.8 0 12.8 5t5 12.9v35.7q0 7.8 -5 12.8t-12.8 5h-125v125q0 7.9 -5 12.9t-12.9 5h-35.7q-7.8 0 -12.8 -5t-5 -12.9v-125H357.1v125q0 7.9 -5 12.9t-12.8 5h-35.7q-7.8 0 -12.9 -5t-5 -12.9v-125h-125q-7.8 0 -12.8 -5t-5 -12.8v-35.7q0 -7.8 5 -12.9t12.8 -5h125V640.6Q202 631.7 134.2 583.1T30.4 458.1 1.1 295.2q9.5 -115 91.8 -198.9T289.6 1.7Q404.6 -10 500 54.1 595.4 -10 710.4 1.7q114.4 10.6 196.7 94.6t91.8 198.9zM500 496.1Q571.4 423 571.4 321.4T500 146.8q-71.4 73.1 -71.4 174.6T500 496.1zm-178.6 75.3q64.2 0 121.7 -31.8 -86 -92.1 -86 -218.2 0 -125 86 -218.2Q385.6 71.4 321.4 71.4q-103.2 0 -176.6 73.4T71.4 321.4 144.8 498t176.6 73.4zm321.5 214.3V640.6Q566.4 632.3 500 588.2q-66.4 44.1 -142.9 52.4v145.1h285.8zm35.7 -214.3q103.2 0 176.6 -73.4t73.4 -176.6T855.2 144.8 678.6 71.4q-64.2 0 -121.7 31.8 86 93.2 86 218.2 0 126.1 -86 218.2 57.5 31.8 121.7 31.8z"/></svg>