<svg height="1000" width="1142.857" xmlns="http://www.w3.org/2000/svg"><path d="M928.512 17.92q0 -7.812 5.022 -12.834t12.834 -5.022h160.704q14.508 0 25.11 10.602t10.602 25.11v160.704q0 7.812 -5.022 12.834t-12.834 5.022h-35.712q-7.812 0 -12.834 -5.022t-5.022 -12.834v-74.772l-141.732 142.29q42.408 53.01 59.985 119.412t5.301 137.826q-17.856 100.44 -91.791 172.98t-174.933 87.606q-124.434 18.972 -228.222 -50.22 -65.286 43.524 -142.848 51.894v73.656h53.568q7.812 0 12.834 5.022t5.022 12.834v35.712q0 7.812 -5.022 12.834t-12.834 5.022h-53.568v53.568q0 7.812 -5.022 12.834t-12.834 5.022h-35.712q-7.812 0 -12.834 -5.022t-5.022 -12.834v-53.568h-53.568q-7.812 0 -12.834 -5.022t-5.022 -12.834v-35.712q0 -7.812 5.022 -12.834t12.834 -5.022h53.568v-73.656q-86.49 -9.486 -155.961 -61.101t-104.346 -132.525 -22.041 -171.306q13.95 -104.346 89.001 -179.955t178.839 -91.791q124.992 -18.972 228.78 50.22 81.468 -54.126 178.56 -54.126 112.158 0 200.322 70.308l142.29 -141.732h-74.772q-7.812 0 -12.834 -5.022t-5.022 -12.834v-35.712zm-428.544 621.054q71.424 -73.098 71.424 -174.654t-71.424 -174.654q-71.424 73.098 -71.424 174.654t71.424 174.654zm-428.544 -174.654q0 103.23 73.377 176.607t176.607 73.377q65.286 0 121.644 -31.806 -85.932 -93.186 -85.932 -218.178t85.932 -218.178q-56.358 -31.806 -121.644 -31.806 -103.23 0 -176.607 73.377t-73.377 176.607zm607.104 249.984q103.23 0 176.607 -73.377t73.377 -176.607 -73.377 -176.607 -176.607 -73.377q-65.286 0 -121.644 31.806 85.932 93.186 85.932 218.178t-85.932 218.178q56.358 31.806 121.644 31.806z"/></svg>