<svg height="1000" width="714.3" xmlns="http://www.w3.org/2000/svg"><path d="M585.9 617.2q0 120 -82 208.7Q421.3 915.7 293 915.7q-129.5 0 -211 -89.8Q0 737.2 0 617.2q0 -82 37.9 -151T143.4 356.6 293 315.8q53.5 0 101.5 17.3 -17.8 34.6 -21.7 70.4Q335.9 387.8 293 387.8q-93.2 0 -156.6 68.7T73.1 618.9q0 94.8 62.8 161T293 846t156.8 -66.1 62.5 -161q0 -49.7 -17.9 -92.7 36.9 -7.2 68.7 -27.3 22.8 54.7 22.8 118.3zM472.1 511.7q0 107.2 -44.4 192.5T294.6 845.4l-7.8 .6q-16.2 0 -34.6 -2.8Q298.5 825.3 334 786t55.5 -86.2 32.7 -105.5 16.7 -107.4 4.2 -99.6q0 -38.5 -1.7 -57.5 30.7 89.3 30.7 181.9zm-30.7 -183v1.1Q400.7 210.4 326.5 84.3q49.1 32.9 79.5 104t35.4 140.4zM577.6 442q-46.3 0 -89.3 -41.9 121.6 -67 161.8 -137.8 10.6 -20.7 11.7 -31.3 -23.4 52.5 -77.8 92.9t-114.1 54.4q-19.6 -30.1 -19.6 -63 0 -20.7 9.5 -44.1t24 -37.9q25.7 -24.6 87.6 -41.3 33 -9 59.2 -32.7t41.3 -56.1q41.3 58.6 41.3 141.2 0 60.8 -13.4 94.9 -17.9 43 -49.4 72.8T577.6 442z"/></svg>