<svg height="1000" width="857.1" xmlns="http://www.w3.org/2000/svg"><path d="M585.9 580.9q0 -43.5 -15.6 -82 -22.9 13.9 -47.4 19 12.3 27.9 12.3 63.6 0 65.3 -43 110.7t-107.7 45.5 -108 -45.5T233.3 581.5q0 -64.2 43.5 -111.4T384.5 423q29.6 0 54.7 10.6 2.2 -24 15 -48.6 -33.4 -11.7 -69.7 -11.7 -86 0 -143.7 60.6t-57.8 147 57.8 145.7 143.7 59.1 143.7 -59.4 57.7 -145.4zM486.6 382.8q1.1 13.4 1.1 39.6 0 35.2 -2.8 68.7T473.5 565t-22.6 72.6 -38.2 59.1T356.6 736q11.7 1.7 23.4 1.7h5.6Q507.8 660.2 507.8 508.4q0 -64.8 -21.2 -125.6zm0 0q-2.2 -44.6 -24.5 -95.7t-54.7 -72.8q51.3 87 79.2 168.5zm186.9 -58.6q0 -56.9 -28.4 -97.1 -22.9 48 -69.2 60.8 -38.5 10.6 -60.8 29.9t-22.4 55.5q0 22.3 13.4 43 41.3 -9.5 78.4 -37.4t53.3 -64.2q-2.2 29.1 -41.5 62.3T519 431.4q29 29 61.4 29 28.4 0 50.2 -20.7t33.5 -50.2q9.4 -24 9.4 -65.3zm183.6 -92.1v535.8q0 66.4 -47.1 113.5t-113.6 47.2H160.7q-66.4 0 -113.5 -47.2T0 767.9V232.1Q0 165.7 47.2 118.6T160.7 71.4h535.7q66.4 0 113.6 47.2t47.1 113.5z"/></svg>