<svg height="1000" width="1071.4" xmlns="http://www.w3.org/2000/svg"><path d="M0 910.7v-750q0-36.8 26.2-63.1t63.1-26.2h892.8q36.8 0 63.1 26.2t26.2 63.1v750q0 36.8-26.2 63.1t-63.1 26.2h-892.8q-36.8 0-63.1-26.2t-26.2-63.1zm71.4-89.3v71.4q0 14.5 10.6 25.1t25.1 10.6h71.4q14.5 0 25.1-10.6t10.6-25.1v-71.4q0-14.5-10.6-25.1t-25.1-10.6h-71.4q-14.5 0-25.1 10.6t-10.6 25.1zm0-142.8q0 14.5 10.6 25.1t25.1 10.6h71.4q14.5 0 25.1-10.6t10.6-25.1v-71.4q0-14.5-10.6-25.1t-25.1-10.6h-71.4q-14.5 0-25.1 10.6t-10.6 25.1v71.4zm0-214.3q0 14.5 10.6 25.1t25.1 10.6h71.4q14.5 0 25.1-10.6t10.6-25.1v-71.4q0-14.5-10.6-25.1t-25.1-10.6h-71.4q-14.5 0-25.1 10.6t-10.6 25.1v71.4zm0-214.3q0 14.5 10.6 25.1t25.1 10.6h71.4q14.5 0 25.1-10.6t10.6-25.1v-71.4q0-14.5-10.6-25.1t-25.1-10.6h-71.4q-14.5 0-25.1 10.6t-10.6 25.1v71.4zm214.3 642.8q0 14.5 10.6 25.1t25.1 10.6h428.5q14.5 0 25.1-10.6t10.6-25.1v-285.7q0-14.5-10.6-25.1t-25.1-10.6h-428.5q-14.5 0-25.1 10.6t-10.6 25.1v285.7zm0-428.5q0 14.5 10.6 25.1t25.1 10.6h428.5q14.5 0 25.1-10.6t10.6-25.1v-285.7q0-14.5-10.6-25.1t-25.1-10.6h-428.5q-14.5 0-25.1 10.6t-10.6 25.1v285.7zm571.4 357.1v71.4q0 14.5 10.6 25.1t25.1 10.6h71.4q14.5 0 25.1-10.6t10.6-25.1v-71.4q0-14.5-10.6-25.1t-25.1-10.6h-71.4q-14.5 0-25.1 10.6t-10.6 25.1zm0-142.8q0 14.5 10.6 25.1t25.1 10.6h71.4q14.5 0 25.1-10.6t10.6-25.1v-71.4q0-14.5-10.6-25.1t-25.1-10.6h-71.4q-14.5 0-25.1 10.6t-10.6 25.1v71.4zm0-214.3q0 14.5 10.6 25.1t25.1 10.6h71.4q14.5 0 25.1-10.6t10.6-25.1v-71.4q0-14.5-10.6-25.1t-25.1-10.6h-71.4q-14.5 0-25.1 10.6t-10.6 25.1v71.4zm0-214.3q0 14.5 10.6 25.1t25.1 10.6h71.4q14.5 0 25.1-10.6t10.6-25.1v-71.4q0-14.5-10.6-25.1t-25.1-10.6h-71.4q-14.5 0-25.1 10.6t-10.6 25.1v71.4z"/></svg>