<svg height="1000" width="1071.4" xmlns="http://www.w3.org/2000/svg"><path d="M214.3 892.9v-71.5q0 -14.5 -10.6 -25.1t-25.1 -10.6h-71.5q-14.5 0 -25.1 10.6t-10.6 25.1v71.5q0 14.5 10.6 25.1t25.1 10.6h71.5q14.5 0 25.1 -10.6t10.6 -25.1zm0 -214.3v-71.5q0 -14.5 -10.6 -25.1t-25.1 -10.6h-71.5Q92.6 571.4 82 582t-10.6 25.1v71.5q0 14.5 10.6 25.1t25.1 10.6h71.5q14.5 0 25.1 -10.6t10.6 -25.1zm0 -214.3v-71.4q0 -14.6 -10.6 -25.2t-25.1 -10.6h-71.5q-14.5 0 -25.1 10.6t-10.6 25.2v71.4q0 14.5 10.6 25.1t25.1 10.6h71.5q14.5 0 25.1 -10.6t10.6 -25.1zm571.4 428.6V607.1q0 -14.5 -10.6 -25.1T750 571.4H321.4q-14.5 0 -25.1 10.6t-10.6 25.1v285.8q0 14.5 10.6 25.1t25.1 10.6H750q14.5 0 25.1 -10.6t10.6 -25.1zM214.3 250v-71.4q0 -14.5 -10.6 -25.1t-25.1 -10.6h-71.5q-14.5 0 -25.1 10.6t-10.6 25.1V250q0 14.5 10.6 25.1t25.1 10.6h71.5q14.5 0 25.1 -10.6T214.3 250zM1000 892.9v-71.5q0 -14.5 -10.6 -25.1t-25.1 -10.6h-71.4q-14.6 0 -25.2 10.6t-10.6 25.1v71.5q0 14.5 10.6 25.1t25.2 10.6h71.4q14.5 0 25.1 -10.6t10.6 -25.1zM785.7 464.3V178.6q0 -14.5 -10.6 -25.1T750 142.9H321.4q-14.5 0 -25.1 10.6t-10.6 25.1v285.7q0 14.5 10.6 25.1t25.1 10.6H750q14.5 0 25.1 -10.6t10.6 -25.1zM1000 678.6v-71.5q0 -14.5 -10.6 -25.1t-25.1 -10.6h-71.4q-14.6 0 -25.2 10.6t-10.6 25.1v71.5q0 14.5 10.6 25.1t25.2 10.6h71.4q14.5 0 25.1 -10.6t10.6 -25.1zm0 -214.3v-71.4q0 -14.6 -10.6 -25.2t-25.1 -10.6h-71.4q-14.6 0 -25.2 10.6t-10.6 25.2v71.4q0 14.5 10.6 25.1t25.2 10.6h71.4q14.5 0 25.1 -10.6t10.6 -25.1zm0 -214.3v-71.4q0 -14.5 -10.6 -25.1t-25.1 -10.6h-71.4q-14.6 0 -25.2 10.6t-10.6 25.1V250q0 14.5 10.6 25.1t25.2 10.6h71.4q14.5 0 25.1 -10.6T1000 250zm71.4 -89.3v750q0 36.8 -26.2 63.1t-63.1 26.2H89.3q-36.8 0 -63.1 -26.2T0 910.7v-750q0 -36.8 26.2 -63T89.3 71.4h892.8q36.9 0 63.1 26.3t26.2 63z"/></svg>