<svg height="1000px" width="899.90234375px" xmlns="http://www.w3.org/2000/svg">
  <g>
    <path d="M0 687.01171875c0 0 0 -375 0 -375c0 -15.299 3.011 -29.785 9.033 -43.457c6.022 -13.672 14.16 -25.472 24.414 -35.4c10.254 -9.929 22.217 -17.904 35.889 -23.926c13.672 -6.022 28.157 -9.033 43.457 -9.033c0 0 375 0 375 0c15.299 0 29.785 3.011 43.457 9.033c13.672 6.022 25.553 13.997 35.645 23.926c10.091 9.928 18.147 21.728 24.169 35.4c6.023 13.672 9.034 28.158 9.034 43.457c0 0 0 117.188 0 117.188c0 0 235.84 -229.981 235.84 -229.981c7.486 -7.487 16.438 -11.23 26.855 -11.23c4.232 0.325 8.952 1.464 14.16 3.418c15.3 6.51 22.949 17.74 22.949 33.691c0 0 0 550.293 0 550.293c0 15.95 -7.649 27.181 -22.949 33.691c-5.208 1.953 -9.928 2.93 -14.16 2.93c-10.742 0 -19.694 -3.581 -26.856 -10.742c0 0 -235.839 -229.981 -235.839 -229.981c0 0 0 115.723 0 115.723c0 15.299 -3.011 29.785 -9.034 43.457c-6.022 13.672 -14.078 25.716 -24.169 36.133c-10.092 10.417 -21.892 18.636 -35.401 24.658c-13.509 6.022 -28.076 9.033 -43.701 9.033c0 0 -375 0 -375 0c-15.3 0 -29.785 -3.011 -43.457 -9.033c-13.672 -6.022 -25.635 -14.241 -35.889 -24.658c-10.254 -10.417 -18.392 -22.38 -24.414 -35.889c-6.022 -13.509 -9.033 -28.076 -9.033 -43.701c0 0 0 0 0 0" />
  </g>
</svg>