<svg height="1000px" width="900px" xmlns="http://www.w3.org/2000/svg">
  <g>
    <path d="M0 819c0 0 0 -638 0 -638c0 -15.333 5.5 -28.5 16.5 -39.5c11 -11 24.167 -16.5 39.5 -16.5c0 0 788 0 788 0c15.333 0 28.5 5.5 39.5 16.5c11 11 16.5 24.167 16.5 39.5c0 0 0 638 0 638c0 15.333 -5.5 28.5 -16.5 39.5c-11 11 -24.167 16.5 -39.5 16.5c0 0 -788 0 -788 0c-15.333 0 -28.5 -5.5 -39.5 -16.5c-11 -11 -16.5 -24.167 -16.5 -39.5c0 0 0 0 0 0m56 -19c0 5.333 1.833 9.833 5.5 13.5c3.667 3.667 8.167 5.5 13.5 5.5c0 0 75 0 75 0c5.333 0 9.833 -1.833 13.5 -5.5c3.667 -3.667 5.5 -8.167 5.5 -13.5c0 0 0 -75 0 -75c0 -5.333 -1.833 -9.833 -5.5 -13.5c-3.667 -3.667 -8.167 -5.5 -13.5 -5.5c0 0 -75 0 -75 0c-5.333 0 -9.833 1.833 -13.5 5.5c-3.667 3.667 -5.5 8.167 -5.5 13.5c0 0 0 75 0 75c0 0 0 0 0 0m0 -175c0 5.333 1.833 9.833 5.5 13.5c3.667 3.667 8.167 5.5 13.5 5.5c0 0 75 0 75 0c5.333 0 9.833 -1.833 13.5 -5.5c3.667 -3.667 5.5 -8.167 5.5 -13.5c0 0 0 -75 0 -75c0 -5.333 -1.833 -9.833 -5.5 -13.5c-3.667 -3.667 -8.167 -5.5 -13.5 -5.5c0 0 -75 0 -75 0c-5.333 0 -9.833 1.833 -13.5 5.5c-3.667 3.667 -5.5 8.167 -5.5 13.5c0 0 0 75 0 75c0 0 0 0 0 0m0 -175c0 5.333 1.833 9.833 5.5 13.5c3.667 3.667 8.167 5.5 13.5 5.5c0 0 75 0 75 0c5.333 0 9.833 -1.833 13.5 -5.5c3.667 -3.667 5.5 -8.167 5.5 -13.5c0 0 0 -75 0 -75c0 -5.333 -1.833 -9.833 -5.5 -13.5c-3.667 -3.667 -8.167 -5.5 -13.5 -5.5c0 0 -75 0 -75 0c-5.333 0 -9.833 1.833 -13.5 5.5c-3.667 3.667 -5.5 8.167 -5.5 13.5c0 0 0 75 0 75c0 0 0 0 0 0m0 -175c0 5.333 1.833 9.833 5.5 13.5c3.667 3.667 8.167 5.5 13.5 5.5c0 0 75 0 75 0c5.333 0 9.833 -1.833 13.5 -5.5c3.667 -3.667 5.5 -8.167 5.5 -13.5c0 0 0 -75 0 -75c0 -5.333 -1.833 -9.833 -5.5 -13.5c-3.667 -3.667 -8.167 -5.5 -13.5 -5.5c0 0 -75 0 -75 0c-5.333 0 -9.833 1.833 -13.5 5.5c-3.667 3.667 -5.5 8.167 -5.5 13.5c0 0 0 75 0 75c0 0 0 0 0 0m169 525c0 5.333 1.833 9.833 5.5 13.5c3.667 3.667 8.167 5.5 13.5 5.5c0 0 412 0 412 0c5.333 0 9.833 -1.833 13.5 -5.5c3.667 -3.667 5.5 -8.167 5.5 -13.5c0 0 0 -250 0 -250c0 -5.333 -1.833 -9.833 -5.5 -13.5c-3.667 -3.667 -8.167 -5.5 -13.5 -5.5c0 0 -412 0 -412 0c-5.333 0 -9.833 1.833 -13.5 5.5c-3.667 3.667 -5.5 8.167 -5.5 13.5c0 0 0 250 0 250c0 0 0 0 0 0m0 -350c0 5.333 1.833 9.833 5.5 13.5c3.667 3.667 8.167 5.5 13.5 5.5c0 0 412 0 412 0c5.333 0 9.833 -1.833 13.5 -5.5c3.667 -3.667 5.5 -8.167 5.5 -13.5c0 0 0 -250 0 -250c0 -5.333 -1.833 -9.833 -5.5 -13.5c-3.667 -3.667 -8.167 -5.5 -13.5 -5.5c0 0 -412 0 -412 0c-5.333 0 -9.833 1.833 -13.5 5.5c-3.667 3.667 -5.5 8.167 -5.5 13.5c0 0 0 250 0 250c0 0 0 0 0 0m506 350c0 5.333 1.833 9.833 5.5 13.5c3.667 3.667 8.167 5.5 13.5 5.5c0 0 75 0 75 0c5.333 0 9.833 -1.833 13.5 -5.5c3.667 -3.667 5.5 -8.167 5.5 -13.5c0 0 0 -75 0 -75c0 -5.333 -1.833 -9.833 -5.5 -13.5c-3.667 -3.667 -8.167 -5.5 -13.5 -5.5c0 0 -75 0 -75 0c-5.333 0 -9.833 1.833 -13.5 5.5c-3.667 3.667 -5.5 8.167 -5.5 13.5c0 0 0 75 0 75c0 0 0 0 0 0m0 -175c0 5.333 1.833 9.833 5.5 13.5c3.667 3.667 8.167 5.5 13.5 5.5c0 0 75 0 75 0c5.333 0 9.833 -1.833 13.5 -5.5c3.667 -3.667 5.5 -8.167 5.5 -13.5c0 0 0 -75 0 -75c0 -5.333 -1.833 -9.833 -5.5 -13.5c-3.667 -3.667 -8.167 -5.5 -13.5 -5.5c0 0 -75 0 -75 0c-5.333 0 -9.833 1.833 -13.5 5.5c-3.667 3.667 -5.5 8.167 -5.5 13.5c0 0 0 75 0 75c0 0 0 0 0 0m0 -175c0 5.333 1.833 9.833 5.5 13.5c3.667 3.667 8.167 5.5 13.5 5.5c0 0 75 0 75 0c5.333 0 9.833 -1.833 13.5 -5.5c3.667 -3.667 5.5 -8.167 5.5 -13.5c0 0 0 -75 0 -75c0 -5.333 -1.833 -9.833 -5.5 -13.5c-3.667 -3.667 -8.167 -5.5 -13.5 -5.5c0 0 -75 0 -75 0c-5.333 0 -9.833 1.833 -13.5 5.5c-3.667 3.667 -5.5 8.167 -5.5 13.5c0 0 0 75 0 75c0 0 0 0 0 0m0 -175c0 5.333 1.833 9.833 5.5 13.5c3.667 3.667 8.167 5.5 13.5 5.5c0 0 75 0 75 0c5.333 0 9.833 -1.833 13.5 -5.5c3.667 -3.667 5.5 -8.167 5.5 -13.5c0 0 0 -75 0 -75c0 -5.333 -1.833 -9.833 -5.5 -13.5c-3.667 -3.667 -8.167 -5.5 -13.5 -5.5c0 0 -75 0 -75 0c-5.333 0 -9.833 1.833 -13.5 5.5c-3.667 3.667 -5.5 8.167 -5.5 13.5c0 0 0 75 0 75c0 0 0 0 0 0" />
  </g>
</svg>