<svg height="1000" width="1071.429" xmlns="http://www.w3.org/2000/svg"><path d="M0 910.72v-749.952q0 -36.828 26.226 -63.054t63.054 -26.226h892.8q36.828 0 63.054 26.226t26.226 63.054v749.952q0 36.828 -26.226 63.054t-63.054 26.226h-892.8q-36.828 0 -63.054 -26.226t-26.226 -63.054zm71.424 -89.28v71.424q0 14.508 10.602 25.11t25.11 10.602h71.424q14.508 0 25.11 -10.602t10.602 -25.11v-71.424q0 -14.508 -10.602 -25.11t-25.11 -10.602h-71.424q-14.508 0 -25.11 10.602t-10.602 25.11zm0 -142.848q0 14.508 10.602 25.11t25.11 10.602h71.424q14.508 0 25.11 -10.602t10.602 -25.11v-71.424q0 -14.508 -10.602 -25.11t-25.11 -10.602h-71.424q-14.508 0 -25.11 10.602t-10.602 25.11v71.424zm0 -214.272q0 14.508 10.602 25.11t25.11 10.602h71.424q14.508 0 25.11 -10.602t10.602 -25.11v-71.424q0 -14.508 -10.602 -25.11t-25.11 -10.602h-71.424q-14.508 0 -25.11 10.602t-10.602 25.11v71.424zm0 -214.272q0 14.508 10.602 25.11t25.11 10.602h71.424q14.508 0 25.11 -10.602t10.602 -25.11v-71.424q0 -14.508 -10.602 -25.11t-25.11 -10.602h-71.424q-14.508 0 -25.11 10.602t-10.602 25.11v71.424zm214.272 642.816q0 14.508 10.602 25.11t25.11 10.602h428.544q14.508 0 25.11 -10.602t10.602 -25.11v-285.696q0 -14.508 -10.602 -25.11t-25.11 -10.602h-428.544q-14.508 0 -25.11 10.602t-10.602 25.11v285.696zm0 -428.544q0 14.508 10.602 25.11t25.11 10.602h428.544q14.508 0 25.11 -10.602t10.602 -25.11v-285.696q0 -14.508 -10.602 -25.11t-25.11 -10.602h-428.544q-14.508 0 -25.11 10.602t-10.602 25.11v285.696zm571.392 357.12v71.424q0 14.508 10.602 25.11t25.11 10.602h71.424q14.508 0 25.11 -10.602t10.602 -25.11v-71.424q0 -14.508 -10.602 -25.11t-25.11 -10.602h-71.424q-14.508 0 -25.11 10.602t-10.602 25.11zm0 -142.848q0 14.508 10.602 25.11t25.11 10.602h71.424q14.508 0 25.11 -10.602t10.602 -25.11v-71.424q0 -14.508 -10.602 -25.11t-25.11 -10.602h-71.424q-14.508 0 -25.11 10.602t-10.602 25.11v71.424zm0 -214.272q0 14.508 10.602 25.11t25.11 10.602h71.424q14.508 0 25.11 -10.602t10.602 -25.11v-71.424q0 -14.508 -10.602 -25.11t-25.11 -10.602h-71.424q-14.508 0 -25.11 10.602t-10.602 25.11v71.424zm0 -214.272q0 14.508 10.602 25.11t25.11 10.602h71.424q14.508 0 25.11 -10.602t10.602 -25.11v-71.424q0 -14.508 -10.602 -25.11t-25.11 -10.602h-71.424q-14.508 0 -25.11 10.602t-10.602 25.11v71.424z"/></svg>