<svg height="1000px" width="900px" xmlns="http://www.w3.org/2000/svg">
  <g>
    <path d="M-2 761.8333511352539c0 0 0 -525 0 -525c0 -15.333 3 -29.833 9 -43.5c6 -13.667 14.167 -25.5 24.5 -35.5c10.333 -10 22.333 -18 36 -24c13.667 -6 28.167 -9 43.5 -9c0 0 375 0 375 0c15.333 0 29.833 3 43.5 9c13.667 6 25.667 14 36 24c10.333 10 18.5 21.833 24.5 35.5c6 13.667 9 28.167 9 43.5c0 0 0 169 0 169c0 0 251 -272 251 -272c6 -6 12.667 -9 20 -9c3.333 0 7 0.667 11 2c12 5.333 18 14.667 18 28c0 0 0 690 0 690c0 13.333 -6 22.667 -18 28c-11.333 4.667 -21.667 2.333 -31 -7c0 0 -251 -272 -251 -272c0 0 0 168 0 168c0 15.333 -3 29.833 -9 43.5c-6 13.667 -14.167 25.667 -24.5 36c-10.333 10.333 -22.333 18.5 -36 24.5c-13.667 6 -28.167 9 -43.5 9c0 0 -375 0 -375 0c-15.333 0 -29.833 -3 -43.5 -9c-13.667 -6 -25.667 -14.167 -36 -24.5c-10.333 -10.333 -18.5 -22.333 -24.5 -36c-6 -13.667 -9 -28.167 -9 -43.5c0 0 0 0 0 0" />
  </g>
</svg>