<svg height="1000px" width="1071.4285714285716px" xmlns="http://www.w3.org/2000/svg">
  <g>
    <path d="M0 910.7142857142857c0 0 0 -750 0 -750c0 -24.554 8.743 -45.573 26.228 -63.058c17.485 -17.485 38.504 -26.228 63.058 -26.228c0 0 892.857 0 892.857 0c24.553 0 45.573 8.743 63.058 26.228c17.485 17.485 26.228 38.504 26.228 63.058c0 0 0 750 0 750c0 24.554 -8.743 45.573 -26.228 63.058c-17.485 17.485 -38.505 26.228 -63.058 26.228c0 0 -892.857 0 -892.857 0c-24.554 0 -45.573 -8.743 -63.058 -26.228c-17.485 -17.485 -26.228 -38.504 -26.228 -63.058c0 0 0 0 0 0m71.429 -89.286c0 0 0 71.429 0 71.429c0 9.672 3.534 18.043 10.602 25.111c7.069 7.069 15.439 10.603 25.112 10.603c0 0 71.428 0 71.428 0c9.673 0 18.044 -3.534 25.112 -10.603c7.068 -7.068 10.603 -15.439 10.603 -25.111c0 0 0 -71.429 0 -71.429c0 -9.672 -3.535 -18.043 -10.603 -25.111c-7.068 -7.069 -15.439 -10.603 -25.112 -10.603c0 0 -71.428 0 -71.428 0c-9.673 0 -18.043 3.534 -25.112 10.603c-7.068 7.068 -10.602 15.439 -10.602 25.111c0 0 0 0 0 0m0 -142.857c0 9.673 3.534 18.043 10.602 25.112c7.069 7.068 15.439 10.602 25.112 10.602c0 0 71.428 0 71.428 0c9.673 0 18.044 -3.534 25.112 -10.602c7.068 -7.069 10.603 -15.439 10.603 -25.112c0 0 0 -71.428 0 -71.428c0 -9.673 -3.535 -18.044 -10.603 -25.112c-7.068 -7.068 -15.439 -10.603 -25.112 -10.603c0 0 -71.428 0 -71.428 0c-9.673 0 -18.043 3.535 -25.112 10.603c-7.068 7.068 -10.602 15.439 -10.602 25.112c0 0 0 71.428 0 71.428c0 0 0 0 0 0m0 -214.286c0 9.673 3.534 18.044 10.602 25.112c7.069 7.068 15.439 10.603 25.112 10.603c0 0 71.428 0 71.428 0c9.673 0 18.044 -3.535 25.112 -10.603c7.068 -7.068 10.603 -15.439 10.603 -25.112c0 0 0 -71.428 0 -71.428c0 -9.673 -3.535 -18.043 -10.603 -25.112c-7.068 -7.068 -15.439 -10.602 -25.112 -10.602c0 0 -71.428 0 -71.428 0c-9.673 0 -18.043 3.534 -25.112 10.602c-7.068 7.069 -10.602 15.439 -10.602 25.112c0 0 0 71.428 0 71.428c0 0 0 0 0 0m0 -214.285c0 9.672 3.534 18.043 10.602 25.111c7.069 7.069 15.439 10.603 25.112 10.603c0 0 71.428 0 71.428 0c9.673 0 18.044 -3.534 25.112 -10.603c7.068 -7.068 10.603 -15.439 10.603 -25.111c0 0 0 -71.429 0 -71.429c0 -9.672 -3.535 -18.043 -10.603 -25.111c-7.068 -7.069 -15.439 -10.603 -25.112 -10.603c0 0 -71.428 0 -71.428 0c-9.673 0 -18.043 3.534 -25.112 10.603c-7.068 7.068 -10.602 15.439 -10.602 25.111c0 0 0 71.429 0 71.429c0 0 0 0 0 0m214.285 642.857c0 9.672 3.535 18.043 10.603 25.111c7.068 7.069 15.439 10.603 25.112 10.603c0 0 428.571 0 428.571 0c9.673 0 18.043 -3.534 25.112 -10.603c7.068 -7.068 10.602 -15.439 10.602 -25.111c0 0 0 -285.714 0 -285.714c0 -9.673 -3.534 -18.044 -10.602 -25.112c-7.069 -7.068 -15.439 -10.603 -25.112 -10.603c0 0 -428.571 0 -428.571 0c-9.673 0 -18.044 3.535 -25.112 10.603c-7.068 7.068 -10.603 15.439 -10.603 25.112c0 0 0 285.714 0 285.714c0 0 0 0 0 0m0 -428.572c0 9.673 3.535 18.044 10.603 25.112c7.068 7.068 15.439 10.603 25.112 10.603c0 0 428.571 0 428.571 0c9.673 0 18.043 -3.535 25.112 -10.603c7.068 -7.068 10.602 -15.439 10.602 -25.112c0 0 0 -285.714 0 -285.714c0 -9.672 -3.534 -18.043 -10.602 -25.111c-7.069 -7.069 -15.439 -10.603 -25.112 -10.603c0 0 -428.571 0 -428.571 0c-9.673 0 -18.044 3.534 -25.112 10.603c-7.068 7.068 -10.603 15.439 -10.603 25.111c0 0 0 285.714 0 285.714c0 0 0 0 0 0m571.429 357.143c0 0 0 71.429 0 71.429c0 9.672 3.534 18.043 10.603 25.111c7.068 7.069 15.439 10.603 25.111 10.603c0 0 71.429 0 71.429 0c9.672 0 18.043 -3.534 25.111 -10.603c7.069 -7.068 10.603 -15.439 10.603 -25.111c0 0 0 -71.429 0 -71.429c0 -9.672 -3.534 -18.043 -10.603 -25.111c-7.068 -7.069 -15.439 -10.603 -25.111 -10.603c0 0 -71.429 0 -71.429 0c-9.672 0 -18.043 3.534 -25.111 10.603c-7.069 7.068 -10.603 15.439 -10.603 25.111c0 0 0 0 0 0m0 -142.857c0 9.673 3.534 18.043 10.603 25.112c7.068 7.068 15.439 10.602 25.111 10.602c0 0 71.429 0 71.429 0c9.672 0 18.043 -3.534 25.111 -10.602c7.069 -7.069 10.603 -15.439 10.603 -25.112c0 0 0 -71.428 0 -71.428c0 -9.673 -3.534 -18.044 -10.603 -25.112c-7.068 -7.068 -15.439 -10.603 -25.111 -10.603c0 0 -71.429 0 -71.429 0c-9.672 0 -18.043 3.535 -25.111 10.603c-7.069 7.068 -10.603 15.439 -10.603 25.112c0 0 0 71.428 0 71.428c0 0 0 0 0 0m0 -214.286c0 9.673 3.534 18.044 10.603 25.112c7.068 7.068 15.439 10.603 25.111 10.603c0 0 71.429 0 71.429 0c9.672 0 18.043 -3.535 25.111 -10.603c7.069 -7.068 10.603 -15.439 10.603 -25.112c0 0 0 -71.428 0 -71.428c0 -9.673 -3.534 -18.043 -10.603 -25.112c-7.068 -7.068 -15.439 -10.602 -25.111 -10.602c0 0 -71.429 0 -71.429 0c-9.672 0 -18.043 3.534 -25.111 10.602c-7.069 7.069 -10.603 15.439 -10.603 25.112c0 0 0 71.428 0 71.428c0 0 0 0 0 0m0 -214.285c0 9.672 3.534 18.043 10.603 25.111c7.068 7.069 15.439 10.603 25.111 10.603c0 0 71.429 0 71.429 0c9.672 0 18.043 -3.534 25.111 -10.603c7.069 -7.068 10.603 -15.439 10.603 -25.111c0 0 0 -71.429 0 -71.429c0 -9.672 -3.534 -18.043 -10.603 -25.111c-7.068 -7.069 -15.439 -10.603 -25.111 -10.603c0 0 -71.429 0 -71.429 0c-9.672 0 -18.043 3.534 -25.111 10.603c-7.069 7.068 -10.603 15.439 -10.603 25.111c0 0 0 71.429 0 71.429c0 0 0 0 0 0" />
  </g>
</svg>