<svg height="1000px" width="899.90234375px" xmlns="http://www.w3.org/2000/svg">
  <g>
    <path d="M0 818.84765625c0 0 0 -637.695 0 -637.695c0 -15.3 5.534 -28.483 16.602 -39.551c11.067 -11.068 24.251 -16.602 39.55 -16.602c0 0 788.086 0 788.086 0c15.3 0 28.402 5.534 39.307 16.602c10.905 11.068 16.357 24.251 16.357 39.551c0 0 0 637.695 0 637.695c0 15.299 -5.452 28.483 -16.357 39.551c-10.905 11.067 -24.007 16.601 -39.307 16.601c0 0 -788.086 0 -788.086 0c-15.299 0 -28.483 -5.534 -39.55 -16.601c-11.068 -11.068 -16.602 -24.252 -16.602 -39.551c0 0 0 0 0 0m56.152 -19.043c0 5.208 1.791 9.684 5.371 13.428c3.581 3.743 8.138 5.615 13.672 5.615c0 0 74.707 0 74.707 0c5.209 0 9.685 -1.79 13.428 -5.371c3.744 -3.581 5.615 -8.138 5.615 -13.672c0 0 0 -74.707 0 -74.707c0 -5.208 -1.79 -9.684 -5.371 -13.428c-3.581 -3.743 -8.138 -5.615 -13.672 -5.615c0 0 -74.707 0 -74.707 0c-5.208 0 -9.684 1.79 -13.427 5.371c-3.744 3.581 -5.616 8.138 -5.616 13.672c0 0 0 74.707 0 74.707c0 0 0 0 0 0m0 -174.805c0 5.209 1.791 9.685 5.371 13.428c3.581 3.744 8.138 5.615 13.672 5.615c0 0 74.707 0 74.707 0c5.209 0 9.685 -1.871 13.428 -5.615c3.744 -3.743 5.615 -8.219 5.615 -13.428c0 0 0 -75.195 0 -75.195c0 -5.208 -1.79 -9.684 -5.371 -13.428c-3.581 -3.743 -8.138 -5.615 -13.672 -5.615c0 0 -74.707 0 -74.707 0c-5.208 0 -9.684 1.872 -13.427 5.615c-3.744 3.744 -5.616 8.22 -5.616 13.428c0 0 0 75.195 0 75.195c0 0 0 0 0 0m0 -174.804c0 5.208 1.791 9.684 5.371 13.427c3.581 3.744 8.138 5.616 13.672 5.616c0 0 74.707 0 74.707 0c5.209 0 9.685 -1.872 13.428 -5.616c3.744 -3.743 5.615 -8.219 5.615 -13.427c0 0 0 -75.196 0 -75.196c0 -5.208 -1.79 -9.684 -5.371 -13.427c-3.581 -3.744 -8.138 -5.616 -13.672 -5.616c0 0 -74.707 0 -74.707 0c-5.208 0 -9.684 1.872 -13.427 5.616c-3.744 3.743 -5.616 8.219 -5.616 13.427c0 0 0 75.196 0 75.196c0 0 0 0 0 0m0 -175.293c0 5.208 1.791 9.684 5.371 13.427c3.581 3.744 8.138 5.616 13.672 5.616c0 0 74.707 0 74.707 0c5.209 0 9.685 -1.791 13.428 -5.371c3.744 -3.581 5.615 -8.138 5.615 -13.672c0 0 0 -74.707 0 -74.707c0 -5.209 -1.79 -9.685 -5.371 -13.428c-3.581 -3.744 -8.138 -5.615 -13.672 -5.615c0 0 -74.707 0 -74.707 0c-5.208 0 -9.684 1.79 -13.427 5.371c-3.744 3.581 -5.616 8.138 -5.616 13.672c0 0 0 74.707 0 74.707c0 0 0 0 0 0m168.946 524.902c0 5.208 1.79 9.684 5.371 13.428c3.58 3.743 8.138 5.615 13.672 5.615c0 0 411.621 0 411.621 0c5.208 0 9.684 -1.79 13.427 -5.371c3.744 -3.581 5.616 -8.138 5.616 -13.672c0 0 0 -250 0 -250c0 -5.208 -1.791 -9.684 -5.371 -13.428c-3.581 -3.743 -8.138 -5.615 -13.672 -5.615c0 0 -411.621 0 -411.621 0c-5.209 0 -9.685 1.872 -13.428 5.615c-3.744 3.744 -5.615 8.22 -5.615 13.428c0 0 0 250 0 250c0 0 0 0 0 0m0 -349.609c0 5.208 1.79 9.684 5.371 13.427c3.58 3.744 8.138 5.616 13.672 5.616c0 0 411.621 0 411.621 0c5.208 0 9.684 -1.872 13.427 -5.616c3.744 -3.743 5.616 -8.219 5.616 -13.427c0 0 0 -250 0 -250c0 -5.209 -1.791 -9.685 -5.371 -13.428c-3.581 -3.744 -8.138 -5.615 -13.672 -5.615c0 0 -411.621 0 -411.621 0c-5.209 0 -9.685 1.79 -13.428 5.371c-3.744 3.581 -5.615 8.138 -5.615 13.672c0 0 0 250 0 250c0 0 0 0 0 0m505.859 349.609c0 5.208 1.872 9.684 5.615 13.428c3.744 3.743 8.22 5.615 13.428 5.615c0 0 75.195 0 75.195 0c5.209 0 9.685 -1.79 13.428 -5.371c3.744 -3.581 5.615 -8.138 5.615 -13.672c0 0 0 -74.707 0 -74.707c0 -5.208 -1.871 -9.684 -5.615 -13.428c-3.743 -3.743 -8.219 -5.615 -13.428 -5.615c0 0 -75.195 0 -75.195 0c-5.208 0 -9.684 1.79 -13.428 5.371c-3.743 3.581 -5.615 8.138 -5.615 13.672c0 0 0 74.707 0 74.707c0 0 0 0 0 0m0 -174.805c0 5.209 1.872 9.685 5.615 13.428c3.744 3.744 8.22 5.615 13.428 5.615c0 0 75.195 0 75.195 0c5.209 0 9.685 -1.871 13.428 -5.615c3.744 -3.743 5.615 -8.219 5.615 -13.428c0 0 0 -75.195 0 -75.195c0 -5.208 -1.871 -9.684 -5.615 -13.428c-3.743 -3.743 -8.219 -5.615 -13.428 -5.615c0 0 -75.195 0 -75.195 0c-5.208 0 -9.684 1.872 -13.428 5.615c-3.743 3.744 -5.615 8.22 -5.615 13.428c0 0 0 75.195 0 75.195c0 0 0 0 0 0m0 -174.804c0 5.208 1.872 9.684 5.615 13.427c3.744 3.744 8.22 5.616 13.428 5.616c0 0 75.195 0 75.195 0c5.209 0 9.685 -1.872 13.428 -5.616c3.744 -3.743 5.615 -8.219 5.615 -13.427c0 0 0 -75.196 0 -75.196c0 -5.208 -1.871 -9.684 -5.615 -13.427c-3.743 -3.744 -8.219 -5.616 -13.428 -5.616c0 0 -75.195 0 -75.195 0c-5.208 0 -9.684 1.872 -13.428 5.616c-3.743 3.743 -5.615 8.219 -5.615 13.427c0 0 0 75.196 0 75.196c0 0 0 0 0 0m0 -175.293c0 5.208 1.872 9.684 5.615 13.427c3.744 3.744 8.22 5.616 13.428 5.616c0 0 75.195 0 75.195 0c5.209 0 9.685 -1.791 13.428 -5.371c3.744 -3.581 5.615 -8.138 5.615 -13.672c0 0 0 -74.707 0 -74.707c0 -5.209 -1.871 -9.685 -5.615 -13.428c-3.743 -3.744 -8.219 -5.615 -13.428 -5.615c0 0 -75.195 0 -75.195 0c-5.208 0 -9.684 1.79 -13.428 5.371c-3.743 3.581 -5.615 8.138 -5.615 13.672c0 0 0 74.707 0 74.707c0 0 0 0 0 0" />
  </g>
</svg>