<svg height="1000" width="1072" xmlns="http://www.w3.org/2000/svg"><path d="M0 910.72l0-749.952q0-36.828 26.226-63.054t63.054-26.226l892.8 0q36.828 0 63.054 26.226t26.226 63.054l0 749.952q0 36.828-26.226 63.054t-63.054 26.226l-892.8 0q-36.828 0-63.054-26.226t-26.226-63.054zm71.424-89.28l0 71.424q0 14.508 10.602 25.11t25.11 10.602l71.424 0q14.508 0 25.11-10.602t10.602-25.11l0-71.424q0-14.508-10.602-25.11t-25.11-10.602l-71.424 0q-14.508 0-25.11 10.602t-10.602 25.11zm0-142.848q0 14.508 10.602 25.11t25.11 10.602l71.424 0q14.508 0 25.11-10.602t10.602-25.11l0-71.424q0-14.508-10.602-25.11t-25.11-10.602l-71.424 0q-14.508 0-25.11 10.602t-10.602 25.11l0 71.424zm0-214.272q0 14.508 10.602 25.11t25.11 10.602l71.424 0q14.508 0 25.11-10.602t10.602-25.11l0-71.424q0-14.508-10.602-25.11t-25.11-10.602l-71.424 0q-14.508 0-25.11 10.602t-10.602 25.11l0 71.424zm0-214.272q0 14.508 10.602 25.11t25.11 10.602l71.424 0q14.508 0 25.11-10.602t10.602-25.11l0-71.424q0-14.508-10.602-25.11t-25.11-10.602l-71.424 0q-14.508 0-25.11 10.602t-10.602 25.11l0 71.424zm214.272 642.816q0 14.508 10.602 25.11t25.11 10.602l428.544 0q14.508 0 25.11-10.602t10.602-25.11l0-285.696q0-14.508-10.602-25.11t-25.11-10.602l-428.544 0q-14.508 0-25.11 10.602t-10.602 25.11l0 285.696zm0-428.544q0 14.508 10.602 25.11t25.11 10.602l428.544 0q14.508 0 25.11-10.602t10.602-25.11l0-285.696q0-14.508-10.602-25.11t-25.11-10.602l-428.544 0q-14.508 0-25.11 10.602t-10.602 25.11l0 285.696zm571.392 357.12l0 71.424q0 14.508 10.602 25.11t25.11 10.602l71.424 0q14.508 0 25.11-10.602t10.602-25.11l0-71.424q0-14.508-10.602-25.11t-25.11-10.602l-71.424 0q-14.508 0-25.11 10.602t-10.602 25.11zm0-142.848q0 14.508 10.602 25.11t25.11 10.602l71.424 0q14.508 0 25.11-10.602t10.602-25.11l0-71.424q0-14.508-10.602-25.11t-25.11-10.602l-71.424 0q-14.508 0-25.11 10.602t-10.602 25.11l0 71.424zm0-214.272q0 14.508 10.602 25.11t25.11 10.602l71.424 0q14.508 0 25.11-10.602t10.602-25.11l0-71.424q0-14.508-10.602-25.11t-25.11-10.602l-71.424 0q-14.508 0-25.11 10.602t-10.602 25.11l0 71.424zm0-214.272q0 14.508 10.602 25.11t25.11 10.602l71.424 0q14.508 0 25.11-10.602t10.602-25.11l0-71.424q0-14.508-10.602-25.11t-25.11-10.602l-71.424 0q-14.508 0-25.11 10.602t-10.602 25.11l0 71.424z"/></svg>