<svg height="1000px" width="1071.4285714285716px" xmlns="http://www.w3.org/2000/svg">
  <g>
    <path d="M0 696.4285714285713c0 0 0 -392.857 0 -392.857c0 -44.271 15.718 -82.124 47.154 -113.56c31.436 -31.436 69.289 -47.154 113.56 -47.154c0 0 392.857 0 392.857 0c44.271 0 82.125 15.718 113.561 47.154c31.436 31.436 47.154 69.289 47.154 113.56c0 0 0 171.317 0 171.317c0 0 326.451 -327.009 326.451 -327.009c3.882 -3.639 8.041 -5.459 12.476 -5.459c2.366 0 4.811 0.517 7.334 1.553c7.254 2.976 10.882 8.556 10.882 16.741c0 0 0 678.571 0 678.571c0 8.185 -2.605 13.207 -7.813 15.067c-5.208 1.86 -9.301 2.79 -12.277 2.79c-2.976 0 -6.51 -1.674 -10.602 -5.022c0 0 -326.451 -327.009 -326.451 -327.009c0 0 0 171.317 0 171.317c0 44.271 -15.718 82.124 -47.154 113.56c-31.436 31.436 -69.29 47.154 -113.561 47.154c0 0 -392.857 0 -392.857 0c-44.271 0 -82.124 -15.718 -113.56 -47.154c-31.436 -31.436 -47.154 -69.289 -47.154 -113.56c0 0 0 0 0 0" />
  </g>
</svg>