<svg height="1000px" width="1071.4285714285716px" xmlns="http://www.w3.org/2000/svg">
  <g>
    <path d="M0 696.4285714285713c0 0 0 -392.857 0 -392.857c0 -44.271 15.718 -82.124 47.154 -113.56c31.436 -31.436 69.289 -47.154 113.56 -47.154c0 0 392.857 0 392.857 0c44.271 0 82.125 15.718 113.561 47.154c31.436 31.436 47.154 69.289 47.154 113.56c0 0 0 171.317 0 171.317c0 0 326.451 -327.009 326.451 -327.009c5.952 -5.58 12.462 -6.883 19.531 -3.906c7.44 2.976 11.161 8.556 11.161 16.741c0 0 0 678.571 0 678.571c0 8.185 -3.721 13.765 -11.161 16.741c-2.976 0.744 -5.208 1.116 -6.697 1.116c-4.464 0 -8.742 -1.674 -12.834 -5.022c0 0 -326.451 -327.009 -326.451 -327.009c0 0 0 171.317 0 171.317c0 44.271 -15.718 82.124 -47.154 113.56c-31.436 31.436 -69.29 47.154 -113.561 47.154c0 0 -392.857 0 -392.857 0c-44.271 0 -82.124 -15.718 -113.56 -47.154c-31.436 -31.436 -47.154 -69.289 -47.154 -113.56c0 0 0 0 0 0" />
  </g>
</svg>