<svg height="1000" width="857.1" xmlns="http://www.w3.org/2000/svg"><path d="M721 356q5.6 -120.5 -89.9 -123.9Q502.2 227.7 457 377.8q24.6 -10.6 45.8 -10.6 47.4 0 41.3 53.6 -2.2 31.8 -41.3 93.2t-58.6 61.3q-24 0 -45.8 -94.3 -7.2 -30.1 -25.1 -142.3Q356.6 233.3 284 240q-32.9 3.9 -91.5 55.8l-45.2 40.1 -45.2 40.2 29 37.4q42.4 -29 48.6 -29 31.8 0 59.7 99.9 8.4 30.7 25.1 91.8t25.1 91.8q38 99.9 91.5 99.9 87.7 0 213.8 -164.1Q717.6 445.9 721 356zM857.1 232.1v535.8q0 66.4 -47.1 113.5t-113.6 47.2H160.7q-66.4 0 -113.5 -47.2T0 767.9V232.1Q0 165.7 47.2 118.6T160.7 71.4h535.7q66.4 0 113.6 47.2t47.1 113.5z"/></svg>