<svg height="1000" width="857.143" xmlns="http://www.w3.org/2000/svg"><path d="M699.732 355.51q8.928 -47.43 -11.718 -73.656 -29.016 -36.27 -104.346 -25.11 -9.486 1.674 -22.878 6.975t-32.085 17.019 -35.991 27.063 -33.201 39.06 -24.831 51.057q44.64 -3.906 63.333 8.928t14.787 55.242q-2.79 29.016 -29.016 79.794 -23.994 43.524 -39.618 55.242 -24.552 17.856 -48.546 -7.812 -12.834 -13.392 -20.925 -35.991t-10.602 -40.734 -5.58 -46.872 -4.743 -39.897q-12.834 -71.982 -18.972 -91.512 -6.696 -20.646 -19.809 -38.502t-28.179 -22.32q-31.806 -8.928 -70.866 13.95 -30.132 17.856 -76.167 59.148t-68.355 56.916v3.906q8.928 4.464 14.229 14.508t11.997 11.16q11.718 1.674 30.411 -4.743t32.364 -5.859 23.157 16.74q6.138 10.044 10.323 21.483t8.37 26.784 6.975 22.599q9.486 25.668 29.574 104.346 20.088 81.468 31.806 109.926 23.436 55.242 57.474 69.75 23.994 6.696 47.43 .837t42.408 -17.577q73.098 -42.966 139.5 -132.246 58.032 -77.562 96.255 -163.215t46.035 -126.387zm157.356 -123.318v535.68q0 66.402 -47.151 113.553t-113.553 47.151h-535.68q-66.402 0 -113.553 -47.151t-47.151 -113.553v-535.68q0 -66.402 47.151 -113.553t113.553 -47.151h535.68q66.402 0 113.553 47.151t47.151 113.553z"/></svg>