<svg height="1000" width="857.143" xmlns="http://www.w3.org/2000/svg"><path d="M835.326 461.53v110.484q-56.358 12.834 -110.484 12.834 -36.27 75.888 -92.349 151.218t-101.277 120.249 -71.424 59.427q-44.64 25.11 -90.396 -1.674 -15.624 -9.486 -33.759 -24.273t-47.43 -46.593 -57.195 -71.703 -59.985 -102.672 -58.869 -136.152 -51.057 -175.491 -39.339 -217.62h157.914q14.508 121.644 39.06 222.363t58.311 176.886 67.797 131.409 78.12 108.81q94.302 -94.302 160.146 -226.548 -79.236 -40.176 -124.434 -122.76t-45.198 -185.814q0 -107.136 58.032 -175.491t158.472 -68.355q99.324 0 152.334 58.869t53.01 166.005q0 88.722 -32.364 159.588 -3.906 .558 -10.881 1.674t-25.668 1.116 -35.154 -3.348 -34.596 -14.229 -28.179 -28.737q17.298 -57.474 17.298 -102.672 0 -48.546 -16.182 -73.656t-44.082 -25.11q-29.574 0 -47.43 27.621t-17.856 78.399q0 103.788 58.59 163.773t148.986 59.985q34.596 0 67.518 -7.812z"/></svg>