<svg height="1000" width="857.1" xmlns="http://www.w3.org/2000/svg"><path d="M835.4 461.5V572Q779 584.8 724.9 584.8 688.6 660.7 632.5 736T531.3 856.3t-71.5 59.4q-44.6 25.1 -90.4 -1.6 -15.6 -9.5 -33.7 -24.3t-47.5 -46.6T231 771.5 171 668.8 112.2 532.6 61.1 357.1 21.8 139.5h157.9q14.5 121.7 39 222.4t58.4 176.9 67.8 131.4T423 779q94.3 -94.3 160.1 -226.5Q503.9 512.3 458.7 429.7T413.5 243.9q0 -107.2 58 -175.5T630 0q99.4 0 152.4 58.9t53 166q0 88.7 -32.4 159.6 -3.9 .5 -10.9 1.7t-25.6 1.1 -35.2 -3.4 -34.6 -14.2T668.5 341q17.3 -57.5 17.3 -102.7 0 -48.6 -16.2 -73.7t-44 -25.1q-29.6 0 -47.5 27.6t-17.8 78.4q0 103.8 58.6 163.8t149 60q34.6 0 67.5 -7.8z"/></svg>