<svg height="1000" width="1071.4" xmlns="http://www.w3.org/2000/svg"><path d="M1069.8 290.2q12.8 35.7 -83.8 164 -13.3 17.9 -36.2 47.5 -43.5 55.8 -50.2 73.1 -9.5 22.9 7.8 45.2 9.5 11.7 45.2 45.7h.5l.6 .6 .5 .6 1.2 1.1q78.6 73.1 106.5 123.3 1.7 2.8 3.7 7t3.9 14.8 -.3 18.9 -14 15.4 -32.9 7l-142.8 2.2q-13.4 2.8 -31.3 -2.8t-29 -12.3L808 834.8q-16.7 -11.7 -39 -35.7t-38.3 -43.2 -34 -32.4 -31.5 -8.7q-1.7 .6 -4.5 2t-9.5 8.1 -12 16.5 -9.5 29 -3.6 43.2q0 8.4 -1.9 15.4t-4.2 10.3l-2.3 2.8q-10 10.6 -29.5 12.3H524q-39.6 2.2 -81.5 -9.3t-73.4 -29.5 -57.4 -36.9 -39.4 -32l-13.9 -13.4q-5.6 -5.6 -15.4 -16.8t-39.9 -50.8T144 581.5 75.6 463.7 2.8 311.9Q-.6 303 -.6 296.9t1.7 -9l2.2 -3.3Q11.7 274 35.2 274l152.9 -1.1q6.7 1.1 12.8 3.6t8.9 4.8l2.8 1.6q8.9 6.2 13.4 17.9 11.2 27.9 25.7 57.7t22.9 45.5l8.9 16.2q16.2 33.5 31.2 58t27.1 38.3 23.2 21.4 18.9 7.9T399 543q1.1 -.6 2.8 -2.8t6.7 -12.3 7.5 -26.2 5.3 -45.2 0 -69.8q-1.1 -22.3 -5 -40.7t-7.8 -25.7l-3.4 -6.7q-13.9 -19 -47.4 -24 -7.3 -1.1 2.8 -13.4 9.5 -10.6 21.2 -16.7Q411.3 245 515.1 246.1q45.7 .6 75.3 7.2 11.2 2.8 18.7 7.6t11.4 13.4 5.9 17.8 1.9 25.4 -.5 30.7 -1.4 39.4 -.8 46q0 6.1 -.6 23.4t-.3 26.8 2 22.6 6.4 21.8 12.5 13.7q4.5 1.1 9.5 2.2t14.5 -6.2 21.2 -19.2 29.1 -37.4 37.9 -60q33.5 -58 59.7 -125.5 2.3 -5.6 5.6 -9.8t6.1 -5.9l2.3 -1.6 2.8 -1.4t7.2 -1.7 11.2 -.3l160.7 -1.1q21.8 -2.8 35.7 1.4t17.3 9.2z"/></svg>