<svg height="1000" width="1071.429" xmlns="http://www.w3.org/2000/svg"><path d="M1069.686 290.224q12.834 35.712 -83.7 164.052 -13.392 17.856 -36.27 47.43 -43.524 55.8 -50.22 73.098 -9.486 22.878 7.812 45.198 9.486 11.718 45.198 45.756h.558l.558 .558 .558 .558 1.116 1.116q78.678 73.098 106.578 123.318 1.674 2.79 3.627 6.975t3.906 14.787 -.279 18.972 -13.95 15.345 -32.922 6.975l-142.848 2.232q-13.392 2.79 -31.248 -2.79t-29.016 -12.276l-11.16 -6.696q-16.74 -11.718 -39.06 -35.712t-38.223 -43.245 -34.038 -32.364 -31.527 -8.649q-1.674 .558 -4.464 1.953t-9.486 8.091 -11.997 16.461 -9.486 29.016 -3.627 43.245q0 8.37 -1.953 15.345t-4.185 10.323l-2.232 2.79q-10.044 10.602 -29.574 12.276h-64.17q-39.618 2.232 -81.468 -9.207t-73.377 -29.574 -57.474 -36.828 -39.339 -32.085l-13.95 -13.392q-5.58 -5.58 -15.345 -16.74t-39.897 -50.778 -59.148 -84.258 -68.355 -117.738 -72.819 -151.776q-3.348 -8.928 -3.348 -15.066t1.674 -8.928l2.232 -3.348q8.37 -10.602 31.806 -10.602l152.892 -1.116q6.696 1.116 12.834 3.627t8.928 4.743l2.79 1.674q8.928 6.138 13.392 17.856 11.16 27.9 25.668 57.753t22.878 45.477l8.928 16.182q16.182 33.48 31.248 58.032t27.063 38.223 23.157 21.483 18.972 7.812 15.066 -2.79q1.116 -.558 2.79 -2.79t6.696 -12.276 7.533 -26.226 5.301 -45.198 0 -69.75q-1.116 -22.32 -5.022 -40.734t-7.812 -25.668l-3.348 -6.696q-13.95 -18.972 -47.43 -23.994 -7.254 -1.116 2.79 -13.392 9.486 -10.602 21.204 -16.74 29.574 -14.508 133.362 -13.392 45.756 .558 75.33 7.254 11.16 2.79 18.693 7.533t11.439 13.392 5.859 17.856 1.953 25.389 -.558 30.69 -1.395 39.339 -.837 46.035q0 6.138 -.558 23.436t-.279 26.784 1.953 22.599 6.417 21.762 12.555 13.671q4.464 1.116 9.486 2.232t14.508 -6.138 21.204 -19.251 29.016 -37.386 37.944 -59.985q33.48 -58.032 59.706 -125.55 2.232 -5.58 5.58 -9.765t6.138 -5.859l2.232 -1.674 2.79 -1.395t7.254 -1.674 11.16 -.279l160.704 -1.116q21.762 -2.79 35.712 1.395t17.298 9.207z"/></svg>