<svg height="1000" width="928.6" xmlns="http://www.w3.org/2000/svg"><path d="M428.6 196.4v607.2q0 14.5 -10.6 25.1t-25.1 10.6 -25.2 -10.6L181.9 642.9H35.7q-14.5 0 -25.1 -10.6T0 607.1V392.9q0 -14.6 10.6 -25.2t25.1 -10.6h146.2L367.7 171.3q10.6 -10.6 25.2 -10.6t25.1 10.6 10.6 25.1zM642.9 500q0 42.4 -23.8 79t-62.7 52.1q-5.6 2.8 -14 2.8 -14.5 0 -25.1 -10.3t-10.6 -25.4q0 -11.7 6.7 -19.8t16.2 -13.9 18.9 -12.9 16.2 -19.8 6.7 -31.8 -6.7 -31.8 -16.2 -19.8 -18.9 -12.9 -16.2 -13.9 -6.7 -19.8q0 -15.1 10.6 -25.4t25.1 -10.3q8.4 0 14 2.8 39 15 62.7 51.9t23.8 79.2zm142.8 0q0 85.4 -47.4 157.6T612.7 762.8q-7.2 2.8 -13.9 2.8 -15.1 0 -25.7 -10.6t-10.6 -25.1q0 -21.8 21.8 -32.9 31.2 -16.2 42.4 -24.6 41.3 -30.1 64.4 -75.6T714.3 500t-23.2 -96.8 -64.4 -75.6Q615.5 319.2 584.3 303q-21.8 -11.1 -21.8 -32.9 0 -14.5 10.6 -25.1t25.1 -10.6q7.3 0 14.5 2.8 78.1 32.9 125.6 105.2T785.7 500zm142.9 0q0 128.3 -70.9 235.8T669.1 894q-7.3 2.8 -14.5 2.8 -14.5 0 -25.1 -10.6T618.9 861q0 -20 21.7 -32.9 3.9 -2.2 12.6 -5.8t12.5 -5.9q25.7 -13.9 45.8 -28.5 68.6 -50.7 107.1 -126.6T857.1 500 818.6 338.7 711.5 212.1q-20.1 -14.6 -45.8 -28.5 -3.9 -2.2 -12.5 -5.9t-12.6 -5.8Q618.9 159 618.9 139q0 -14.6 10.6 -25.2t25.1 -10.6q7.2 0 14.5 2.8 117.7 50.8 188.6 158.2T928.6 500z"/></svg>