<svg height="1000" width="785.7" xmlns="http://www.w3.org/2000/svg"><path d="M344.3 942.5q0 -6.1 -7.2 -32.3t-17.3 -59.8 -11.2 -38.5q-.6 -2.2 -2.8 -14.7t-4.7 -20.1 -7.6 -12q-8.3 -7.8 -28.4 -7.8 -12.9 0 -39.1 3t-39.6 3.1q-19 0 -26.2 -6.1 -3.4 -2.8 -6.2 -8.7t-4.2 -11.2 -3.6 -13.3 -2.8 -10.4Q122.8 642.3 122.8 571.4t20.6 -142.3q.6 -2.2 2.8 -10.3t3.6 -13.4 4.2 -11.1 6.2 -8.7q7.2 -6.1 26.2 -6.1 13.4 0 39.6 3t39.1 3.1q20.1 0 28.4 -7.8 5 -4.5 7.6 -12t4.7 -20.1 2.8 -14.8q1.1 -5 11.2 -38.5t17.3 -59.7 7.2 -32.4q0 -12.2 -24.3 -29.3t-42.1 -23.7q-11.2 -4.4 -25.1 -4.4 -19 0 -54.7 10 -31.8 9.5 -53.8 22.6t-39.7 36.8T79 251.4t-25.4 52.7q-3.4 6.7 -5.1 10.6Q21.2 374.4 10.6 435.3T0 571.4t10.6 136.2 37.9 120.5q31.3 68.1 46.4 89.9 35.1 50.8 99.9 70.8l3.3 1.2q35.7 10 54.7 10 13.9 0 25.1 -4.5 17.9 -6.7 42.1 -23.7t24.3 -29.3zM433 433q-14.5 0 -25.1 -10.6T397.3 397t10.6 -25.3q20.7 -20.7 20.7 -50.3 0 -29 -20.7 -50.8Q397.3 260 397.3 245.5t10.6 -25.1T433 209.8t25.1 10.6q41.9 41.9 41.9 101t-41.9 101Q446.4 433 433 433zm101 101q-15 0 -25.1 -10.6 -10.6 -10.6 -10.6 -25.1t10.6 -25.1q62.5 -63.6 62.5 -151.8T508.9 169.6Q498.3 159 498.3 144.5t10.6 -25.1T534 108.8t25.2 10.6q83.7 83.7 83.7 202t-83.7 202Q549.1 534 534 534zm101 101q-15 0 -25.1 -10.6 -10.6 -10.6 -10.6 -25.1t10.6 -25.1q50.3 -50.8 77.3 -116.1t27.1 -136.7T687.2 184.7 609.9 68.6Q599.3 58 599.3 43.5t10.6 -25.1T635 7.8t25.2 10.6q60.8 60.8 93.1 139t32.4 164 -32.4 164.1 -93.1 138.9Q650.1 635 635 635z"/></svg>