<svg height="1000" width="642.857" xmlns="http://www.w3.org/2000/svg"><path d="M0 607.168v-214.272q0 -14.508 10.602 -25.11t25.11 -10.602h146.196l185.814 -185.814q10.602 -10.602 25.11 -10.602t25.11 10.602 10.602 25.11v607.104q0 14.508 -10.602 25.11t-25.11 10.602 -25.11 -10.602l-185.814 -185.814h-146.196q-14.508 0 -25.11 -10.602t-10.602 -25.11zm506.664 -8.928q0 -11.718 6.696 -19.809t16.182 -13.95 18.972 -12.834 16.182 -19.809 6.696 -31.806 -6.696 -31.806 -16.182 -19.809 -18.972 -12.834 -16.182 -13.95 -6.696 -19.809q0 -15.066 10.602 -25.389t25.11 -10.323q8.37 0 13.95 2.79 39.06 15.066 62.775 51.894t23.715 79.236 -23.715 78.957 -62.775 52.173q-5.58 2.79 -13.95 2.79 -14.508 0 -25.11 -10.323t-10.602 -25.389z"/></svg>