<svg height="1000" width="642.9" xmlns="http://www.w3.org/2000/svg"><path d="M0 607.2v-214.3q0-14.5 10.6-25.1t25.1-10.6h146.2l185.8-185.8q10.6-10.6 25.1-10.6t25.1 10.6 10.6 25.1v607.1q0 14.5-10.6 25.1t-25.1 10.6-25.1-10.6l-185.8-185.8h-146.2q-14.5 0-25.1-10.6t-10.6-25.1zm506.7-8.9q0-11.7 6.7-19.8t16.2-14 19-12.8 16.2-19.8 6.7-31.8-6.7-31.8-16.2-19.8-19-12.8-16.2-14-6.7-19.8q0-15.1 10.6-25.4t25.1-10.3q8.4 0 14 2.8 39.1 15.1 62.8 51.9t23.7 79.2-23.7 79-62.8 52.2q-5.6 2.8-14 2.8-14.5 0-25.1-10.3t-10.6-25.4z"/></svg>