<svg height="1000px" width="623.53515625px" xmlns="http://www.w3.org/2000/svg">
  <g>
    <path d="M0 592.7734375c0 0 0 -185.547 0 -185.547c0 -5.208 1.872 -9.684 5.615 -13.428c3.744 -3.743 8.22 -5.615 13.428 -5.615c0 0 205.078 0 205.078 0c0 0 158.691 -159.18 158.691 -159.18c15.951 -16.601 29.623 -22.623 41.016 -18.066c11.393 4.557 17.09 18.555 17.09 41.992c0 0 0 494.141 0 494.141c0 23.437 -5.615 37.435 -16.846 41.992c-11.23 4.557 -24.983 -1.465 -41.26 -18.066c0 0 -158.691 -159.18 -158.691 -159.18c0 0 -205.078 0 -205.078 0c-5.208 0 -9.684 -1.79 -13.428 -5.371c-3.743 -3.581 -5.615 -8.138 -5.615 -13.672c0 0 0 0 0 0m501.465 83.984c-2.93 -10.416 -1.791 -20.345 3.418 -29.785c27.344 -47.2 41.015 -96.191 41.015 -146.972c0 -50.782 -13.671 -99.773 -41.015 -146.973c-5.209 -9.44 -6.348 -19.369 -3.418 -29.785c2.93 -10.417 9.114 -18.229 18.555 -23.438c9.44 -5.208 19.287 -6.51 29.541 -3.906c10.253 2.604 18.147 8.626 23.681 18.066c33.854 59.245 50.781 121.257 50.781 186.036c0 65.429 -16.927 127.441 -50.781 186.035c-7.487 13.346 -18.88 20.019 -34.18 20.019c-6.51 0 -12.858 -1.953 -19.042 -5.859c-9.441 -5.208 -15.625 -13.021 -18.555 -23.438c0 0 0 0 0 0" />
  </g>
</svg>