<svg height="1000px" width="642.8571428571429px" xmlns="http://www.w3.org/2000/svg">
  <g>
    <path d="M0 607.1428571428571c0 0 0 -214.286 0 -214.286c0 -9.672 3.534 -18.043 10.603 -25.111c7.068 -7.069 15.439 -10.603 25.111 -10.603c0 0 146.206 0 146.206 0c0 0 185.826 -185.826 185.826 -185.826c7.068 -7.068 15.439 -10.603 25.111 -10.603c9.673 0 18.043 3.535 25.112 10.603c7.068 7.069 10.602 15.439 10.602 25.112c0 0 0 607.143 0 607.143c0 9.672 -3.534 18.043 -10.602 25.111c-7.069 7.069 -15.439 10.603 -25.112 10.603c-9.672 0 -18.043 -3.534 -25.111 -10.603c0 0 -185.826 -185.826 -185.826 -185.826c0 0 -146.206 0 -146.206 0c-9.672 0 -18.043 -3.534 -25.111 -10.602c-7.069 -7.069 -10.603 -15.439 -10.603 -25.112c0 0 0 0 0 0m506.696 -7.254c0 -8.929 2.233 -16.09 6.697 -21.485c4.464 -5.394 9.858 -10.044 16.183 -13.951c6.324 -3.906 12.649 -8.184 18.973 -12.835c6.325 -4.65 11.719 -11.253 16.183 -19.81c4.464 -8.556 6.697 -19.159 6.697 -31.808c0 -12.649 -2.233 -23.251 -6.697 -31.808c-4.464 -8.556 -9.858 -15.16 -16.183 -19.81c-6.324 -5.022 -12.649 -9.394 -18.973 -13.114c-15.253 -9.301 -22.88 -19.717 -22.88 -31.25c0 -11.533 3.535 -20.74 10.603 -27.623c7.069 -6.882 14.416 -10.323 22.043 -10.323c7.626 0 13.299 0.93 17.02 2.79c26.041 10.044 46.968 27.343 62.779 51.897c15.811 24.554 23.716 50.967 23.716 79.241c0 28.274 -7.905 54.595 -23.716 78.962c-15.811 24.368 -36.738 41.76 -62.779 52.177c-3.721 1.86 -9.394 2.79 -17.02 2.79c-7.627 0 -14.974 -3.442 -22.043 -10.324c-7.068 -6.882 -10.603 -14.788 -10.603 -23.716c0 0 0 0 0 0" />
  </g>
</svg>