<svg height="1000px" width="600px" xmlns="http://www.w3.org/2000/svg">
  <g>
    <path d="M0 589c0 0 0 -178 0 -178c0 -5.333 1.833 -9.833 5.5 -13.5c3.667 -3.667 8.167 -5.5 13.5 -5.5c0 0 196 0 196 0c0 0 153 -153 153 -153c15.333 -15.333 28.5 -20.667 39.5 -16c11 4.667 16.5 17.667 16.5 39c0 0 0 476 0 476c0 21.333 -5.5 34.333 -16.5 39c-11 4.667 -24.167 -0.667 -39.5 -16c0 0 -153 -153 -153 -153c0 0 -196 0 -196 0c-5.333 0 -9.833 -1.833 -13.5 -5.5c-3.667 -3.667 -5.5 -8.167 -5.5 -13.5c0 0 0 0 0 0m482 81c-2.667 -10 -1.333 -19.667 4 -29c26 -44.667 39 -91.667 39 -141c0 -48.667 -13 -95.667 -39 -141c-5.333 -9.333 -6.667 -19 -4 -29c2.667 -10 8.667 -17.667 18 -23c9.333 -5.333 18.833 -6.667 28.5 -4c9.667 2.667 17.167 8.667 22.5 18c32.667 58 49 117.667 49 179c0 61.333 -16.333 121 -49 179c-7.333 12.667 -18.333 19 -33 19c-5.333 0 -11.333 -1.667 -18 -5c-9.333 -5.333 -15.333 -13 -18 -23c0 0 0 0 0 0" />
  </g>
</svg>