<svg height="1000px" width="900px" xmlns="http://www.w3.org/2000/svg">
  <g>
    <path d="M0 588.9090881347656c0 0 0 -178 0 -178c0 -5.333 1.833 -9.833 5.5 -13.5c3.667 -3.667 8.167 -5.5 13.5 -5.5c0 0 196 0 196 0c0 0 153 -153 153 -153c15.333 -15.333 28.5 -20.667 39.5 -16c11 4.667 16.5 17.667 16.5 39c0 0 0 476 0 476c0 21.333 -5.5 34.333 -16.5 39c-11 4.667 -24.167 -0.667 -39.5 -16c0 0 -153 -153 -153 -153c0 0 -196 0 -196 0c-5.333 0 -9.833 -1.833 -13.5 -5.5c-3.667 -3.667 -5.5 -8.167 -5.5 -13.5c0 0 0 0 0 0m482 81c-2.667 -10 -1.333 -19.667 4 -29c26 -44.667 39 -91.667 39 -141c0 -48.667 -13 -95.667 -39 -141c-5.333 -9.333 -6.667 -19 -4 -29c2.667 -10 8.667 -17.667 18 -23c9.333 -5.333 18.833 -6.667 28.5 -4c9.667 2.667 17.167 8.667 22.5 18c32.667 58 49 117.667 49 179c0 61.333 -16.333 121 -49 179c-7.333 12.667 -18.333 19 -33 19c-5.333 0 -11.333 -1.667 -18 -5c-9.333 -5.333 -15.333 -13 -18 -23c0 0 0 0 0 0m121 88c-2 -10 -0.333 -19.667 5 -29c44.667 -70 67 -146.333 67 -229c0 -82.667 -22.333 -159 -67 -229c-5.333 -9.333 -7 -19 -5 -29c2 -10 7.667 -17.667 17 -23c9.333 -5.333 19 -7 29 -5c10 2 17.667 7.667 23 17c25.333 40.667 44.667 83.667 58 129c13.333 45.333 20 92 20 140c0 48 -6.667 94.667 -20 140c-13.333 45.333 -32.667 88.333 -58 129c-3.333 6 -8 10.5 -14 13.5c-6 3 -12 4.5 -18 4.5c-7.333 0 -14 -2 -20 -6c-9.333 -5.333 -15 -13 -17 -23c0 0 0 0 0 0m120.5 87c-1.667 -10 0.167 -19.333 5.5 -28c32 -48 56 -98.667 72 -152c16 -53.333 24 -108.333 24 -165c0 -56.667 -8 -111.667 -24 -165c-16 -53.333 -40 -104 -72 -152c-5.333 -8.667 -7.167 -18 -5.5 -28c1.667 -10 7.167 -18 16.5 -24c8.667 -5.333 18 -7 28 -5c10 2 18 7.333 24 16c36 54 63 111.167 81 171.5c18 60.333 27 122.5 27 186.5c0 64 -9 126.167 -27 186.5c-18 60.333 -45 117.5 -81 171.5c-8 11.333 -18.667 17 -32 17c-7.333 0 -14 -2 -20 -6c-9.333 -6 -14.833 -14 -16.5 -24c0 0 0 0 0 0" />
  </g>
</svg>