<svg height="1000px" width="642.8571428571429px" xmlns="http://www.w3.org/2000/svg">
  <g>
    <path d="M642.8571428571429 499.99999999999994c0 28.274 -7.906 54.594 -23.717 78.962c-15.811 24.368 -36.737 41.76 -62.779 52.176c-3.72 1.861 -9.393 2.791 -17.02 2.791c-7.626 0 -14.974 -3.442 -22.042 -10.324c-7.068 -6.883 -10.603 -14.788 -10.603 -23.717c0 -8.928 2.232 -16.09 6.697 -21.484c4.464 -5.394 9.858 -10.045 16.183 -13.951c6.324 -3.906 12.649 -8.184 18.973 -12.835c6.324 -4.65 11.719 -11.253 16.183 -19.81c4.464 -8.557 6.696 -19.159 6.696 -31.808c0 -12.649 -2.232 -23.251 -6.696 -31.808c-4.464 -8.557 -9.859 -15.16 -16.183 -19.81c-6.324 -5.023 -12.649 -9.394 -18.973 -13.114c-15.253 -9.301 -22.88 -19.717 -22.88 -31.25c0 -11.533 3.535 -20.74 10.603 -27.623c7.068 -6.882 14.416 -10.324 22.042 -10.324c7.627 0 13.3 0.93 17.02 2.791c26.042 10.044 46.968 27.343 62.779 51.897c15.811 24.553 23.717 50.967 23.717 79.241c0 0 0 0 0 0m-214.286 -303.571c0 0 0 607.142 0 607.142c0 9.673 -3.534 18.044 -10.602 25.112c-7.069 7.068 -15.439 10.603 -25.112 10.603c-9.673 0 -18.043 -3.535 -25.112 -10.603c0 0 -185.825 -185.826 -185.825 -185.826c0 0 -146.206 0 -146.206 0c-9.672 0 -18.043 -3.534 -25.111 -10.603c-7.069 -7.068 -10.603 -15.439 -10.603 -25.111c0 0 0 -214.286 0 -214.286c0 -9.672 3.534 -18.043 10.603 -25.111c7.068 -7.069 15.439 -10.603 25.111 -10.603c0 0 146.206 0 146.206 0c0 0 185.825 -185.826 185.825 -185.826c7.069 -7.068 15.439 -10.603 25.112 -10.603c9.673 0 18.043 3.535 25.112 10.603c7.068 7.068 10.602 15.439 10.602 25.112c0 0 0 0 0 0" />
  </g>
</svg>