<svg height="1000px" width="440.91796875px" xmlns="http://www.w3.org/2000/svg">
  <g>
    <path d="M0 592.7734375c0 0 0 -185.547 0 -185.547c0 -5.208 1.872 -9.684 5.615 -13.428c3.744 -3.743 8.22 -5.615 13.428 -5.615c0 0 205.078 0 205.078 0c0 0 158.691 -159.18 158.691 -159.18c15.951 -16.601 29.623 -22.623 41.016 -18.066c11.393 4.557 17.09 18.555 17.09 41.992c0 0 0 494.141 0 494.141c0 23.437 -5.615 37.435 -16.846 41.992c-11.23 4.557 -24.983 -1.465 -41.26 -18.066c0 0 -158.691 -159.18 -158.691 -159.18c0 0 -205.078 0 -205.078 0c-5.208 0 -9.684 -1.79 -13.428 -5.371c-3.743 -3.581 -5.615 -8.138 -5.615 -13.672c0 0 0 0 0 0" />
  </g>
</svg>