<svg height="1000px" width="928.5714285714286px" xmlns="http://www.w3.org/2000/svg">
  <g>
    <path d="M928.5714285714286 499.99999999999994c0 85.565 -23.624 164.156 -70.871 235.77c-47.247 71.615 -110.119 124.349 -188.616 158.203c-4.836 1.86 -10.881 2.79 -18.136 2.79c-7.254 0 -14.416 -3.534 -21.484 -10.602c-7.069 -7.069 -10.603 -16.369 -10.603 -27.902c-0.372 -14.137 10.975 -26.042 34.04 -35.714c17.113 -7.069 36.645 -18.602 58.594 -34.599c45.759 -33.854 81.473 -76.078 107.143 -126.674c25.67 -50.595 38.504 -104.352 38.504 -161.272c0 -56.92 -12.834 -110.677 -38.504 -161.272c-33.482 -66.221 -84.449 -117.932 -152.902 -155.134c-2.604 -1.86 -6.882 -3.906 -12.835 -6.139c-23.065 -9.672 -34.412 -22.507 -34.04 -38.504c0 -9.673 3.534 -18.043 10.603 -25.112c7.068 -7.068 14.23 -10.602 21.484 -10.602c7.255 0 13.3 0.93 18.136 2.79c78.497 33.854 141.369 86.588 188.616 158.203c47.247 71.614 70.871 150.205 70.871 235.77c0 0 0 0 0 0m-142.857 0c0 56.92 -15.811 109.468 -47.433 157.645c-31.622 48.177 -73.475 83.24 -125.558 105.19c-4.837 1.86 -10.882 2.79 -18.136 2.79c-7.255 0 -14.416 -3.534 -21.485 -10.603c-7.068 -7.068 -10.602 -16.648 -10.602 -28.739c0 -12.09 8.835 -22.693 26.506 -31.808c17.671 -9.114 30.227 -16.462 37.668 -22.042c27.529 -20.089 49.014 -45.294 64.453 -75.614c15.439 -30.32 23.158 -62.593 23.158 -96.819c0 -34.226 -7.719 -66.499 -23.158 -96.819c-15.439 -30.32 -36.924 -55.525 -64.453 -75.614c-7.441 -5.58 -19.997 -12.928 -37.668 -22.042c-17.671 -9.115 -26.506 -19.718 -26.506 -31.808c0 -12.091 3.534 -21.671 10.602 -28.739c7.069 -7.069 14.23 -10.603 21.485 -10.603c7.254 0 13.299 0.93 18.136 2.79c52.083 21.95 93.936 57.013 125.558 105.19c31.622 48.177 47.433 100.725 47.433 157.645c0 0 0 0 0 0m-142.857 0c0 28.274 -7.906 54.594 -23.717 78.962c-15.811 24.368 -36.737 41.76 -62.779 52.176c-3.72 1.861 -9.393 2.791 -17.02 2.791c-7.626 0 -14.974 -3.442 -22.042 -10.324c-7.069 -6.883 -10.603 -14.788 -10.603 -23.717c0 -8.928 2.232 -16.09 6.696 -21.484c4.465 -5.394 9.859 -10.045 16.183 -13.951c6.325 -3.906 12.649 -8.184 18.974 -12.835c6.324 -4.65 11.718 -11.253 16.183 -19.81c4.464 -8.557 6.696 -19.159 6.696 -31.808c0 -12.649 -2.232 -23.251 -6.696 -31.808c-4.465 -8.557 -9.859 -15.16 -16.183 -19.81c-6.325 -5.023 -12.649 -9.394 -18.974 -13.114c-15.253 -9.301 -22.879 -19.717 -22.879 -31.25c0 -11.533 3.534 -20.74 10.603 -27.623c7.068 -6.882 14.416 -10.324 22.042 -10.324c7.627 0 13.3 0.93 17.02 2.791c26.042 10.044 46.968 27.343 62.779 51.897c15.811 24.554 23.717 50.967 23.717 79.241c0 0 0 0 0 0m-214.286 -303.571c0 0 0 607.142 0 607.142c0 9.673 -3.534 18.044 -10.603 25.112c-7.068 7.068 -15.439 10.603 -25.111 10.603c-9.673 0 -18.043 -3.535 -25.112 -10.603c0 0 -185.826 -185.826 -185.826 -185.826c0 0 -146.205 0 -146.205 0c-9.673 0 -18.043 -3.534 -25.112 -10.603c-7.068 -7.068 -10.602 -15.439 -10.602 -25.111c0 0 0 -214.286 0 -214.286c0 -9.672 3.534 -18.043 10.602 -25.111c7.069 -7.069 15.439 -10.603 25.112 -10.603c0 0 146.205 0 146.205 0c0 0 185.826 -185.826 185.826 -185.826c7.069 -7.068 15.439 -10.603 25.112 -10.603c9.672 0 18.043 3.535 25.111 10.603c7.069 7.068 10.603 15.439 10.603 25.112c0 0 0 0 0 0" />
  </g>
</svg>