<svg height="1000px" width="928.5714285714286px" xmlns="http://www.w3.org/2000/svg">
  <g>
    <path d="M0 607.1428571428571c0 0 0 -214.286 0 -214.286c0 -9.672 3.534 -18.043 10.603 -25.111c7.068 -7.069 15.439 -10.603 25.111 -10.603c0 0 146.206 0 146.206 0c0 0 185.826 -185.826 185.826 -185.826c7.068 -7.068 15.439 -10.603 25.111 -10.603c9.673 0 18.043 3.535 25.112 10.603c7.068 7.069 10.602 15.439 10.602 25.112c0 0 0 607.143 0 607.143c0 9.672 -3.534 18.043 -10.602 25.111c-7.069 7.069 -15.439 10.603 -25.112 10.603c-9.672 0 -18.043 -3.534 -25.111 -10.603c0 0 -185.826 -185.826 -185.826 -185.826c0 0 -146.206 0 -146.206 0c-9.672 0 -18.043 -3.534 -25.111 -10.602c-7.069 -7.069 -10.603 -15.439 -10.603 -25.112c0 0 0 0 0 0m506.696 -7.254c0 -8.929 2.233 -16.09 6.697 -21.485c4.464 -5.394 9.858 -10.044 16.183 -13.951c6.324 -3.906 12.649 -8.184 18.973 -12.835c6.325 -4.65 11.719 -11.253 16.183 -19.81c4.464 -8.556 6.697 -19.159 6.697 -31.808c0 -12.649 -2.233 -23.251 -6.697 -31.808c-4.464 -8.556 -9.858 -15.16 -16.183 -19.81c-6.324 -5.022 -12.649 -9.394 -18.973 -13.114c-15.253 -9.301 -22.88 -19.717 -22.88 -31.25c0 -11.533 3.535 -20.74 10.603 -27.623c7.069 -6.882 14.416 -10.323 22.043 -10.323c7.626 0 13.299 0.93 17.02 2.79c26.041 10.044 46.968 27.343 62.779 51.897c15.811 24.554 23.716 50.967 23.716 79.241c0 28.274 -7.905 54.595 -23.716 78.962c-15.811 24.368 -36.738 41.76 -62.779 52.177c-3.721 1.86 -9.394 2.79 -17.02 2.79c-7.627 0 -14.974 -3.442 -22.043 -10.324c-7.068 -6.882 -10.603 -14.788 -10.603 -23.716c0 0 0 0 0 0m55.804 126.395c0 -12.091 8.836 -22.694 26.507 -31.808c17.671 -9.115 30.227 -16.462 37.667 -22.043c27.53 -20.089 49.014 -45.294 64.453 -75.614c15.439 -30.32 23.159 -62.593 23.159 -96.819c0 -34.226 -7.72 -66.499 -23.159 -96.819c-15.439 -30.32 -36.923 -55.525 -64.453 -75.614c-7.44 -5.58 -19.996 -12.928 -37.667 -22.042c-17.671 -9.115 -26.507 -19.718 -26.507 -31.808c0 -12.091 3.534 -21.671 10.603 -28.739c7.068 -7.069 14.23 -10.603 21.484 -10.603c7.255 0 13.3 0.93 18.136 2.79c52.084 21.95 93.936 57.013 125.558 105.19c31.622 48.177 47.433 100.725 47.433 157.645c0 56.92 -15.811 109.468 -47.433 157.645c-31.622 48.177 -73.474 83.241 -125.558 105.19c-4.836 1.86 -10.881 2.79 -18.136 2.79c-7.254 0 -14.416 -3.534 -21.484 -10.603c-7.069 -7.068 -10.603 -16.648 -10.603 -28.738c0 0 0 0 0 0m56.35 131.304c0 -13.843 11.35 -25.524 34.049 -35.043c17.114 -7.069 36.645 -18.601 58.594 -34.598c45.759 -33.855 81.473 -76.079 107.143 -126.675c25.67 -50.595 38.505 -104.352 38.505 -161.272c0 -56.92 -12.835 -110.677 -38.505 -161.272c-33.482 -66.22 -84.449 -117.932 -152.902 -155.134c-2.604 -1.86 -6.882 -3.906 -12.835 -6.139c-22.699 -9.519 -34.049 -22.1 -34.049 -37.745c0.12 -10.292 3.658 -18.916 10.612 -25.871c7.068 -7.068 14.23 -10.602 21.484 -10.602c7.255 0 13.3 0.93 18.137 2.79c78.497 33.854 141.369 86.588 188.616 158.203c47.247 71.615 70.87 150.205 70.87 235.77c0 85.566 -23.623 164.156 -70.87 235.77c-47.247 71.615 -110.119 124.349 -188.616 158.203c-4.837 1.86 -10.882 2.791 -18.137 2.791c-7.254 0 -14.416 -3.535 -21.484 -10.603c-6.914 -6.914 -10.452 -16.439 -10.612 -28.573c0 0 0 0 0 0" />
  </g>
</svg>