<svg height="1000px" width="428.57142857142856px" xmlns="http://www.w3.org/2000/svg">
  <g>
    <path d="M428.57142857142856 196.42857142857133c0 0 0 607.143 0 607.143c0 9.672 -3.534 18.043 -10.603 25.111c-7.068 7.069 -15.439 10.603 -25.111 10.603c-9.673 0 -18.043 -3.534 -25.112 -10.603c0 0 -185.826 -185.825 -185.826 -185.825c0 0 -146.205 0 -146.205 0c-9.673 0 -18.043 -3.535 -25.112 -10.603c-7.068 -7.069 -10.602 -15.439 -10.602 -25.112c0 0 0 -214.285 0 -214.285c0 -9.673 3.534 -18.044 10.602 -25.112c7.069 -7.068 15.439 -10.603 25.112 -10.603c0 0 146.205 0 146.205 0c0 0 185.826 -185.826 185.826 -185.826c7.069 -7.068 15.439 -10.602 25.112 -10.602c9.672 0 18.043 3.534 25.111 10.602c7.069 7.069 10.603 15.439 10.603 25.112c0 0 0 0 0 0" />
  </g>
</svg>