<svg height="1000" width="928.6" xmlns="http://www.w3.org/2000/svg"><path d="M0 607.2v-214.3q0-14.5 10.6-25.1t25.1-10.6h146.2l185.8-185.8q10.6-10.6 25.1-10.6t25.1 10.6 10.6 25.1v607.1q0 14.5-10.6 25.1t-25.1 10.6-25.1-10.6l-185.8-185.8h-146.2q-14.5 0-25.1-10.6t-10.6-25.1zm506.7-8.9q0-11.7 6.7-19.8t16.2-14 19-12.8 16.2-19.8 6.7-31.8-6.7-31.8-16.2-19.8-19-12.8-16.2-14-6.7-19.8q0-15.1 10.6-25.4t25.1-10.3q8.4 0 14 2.8 39.1 15.1 62.8 51.9t23.7 79.2-23.7 79-62.8 52.2q-5.6 2.8-14 2.8-14.5 0-25.1-10.3t-10.6-25.4zm55.8 131.7q0-21.8 21.8-32.9 31.2-16.2 42.4-24.6 41.3-30.1 64.4-75.6t23.2-96.8-23.2-96.8-64.4-75.6q-11.2-8.4-42.4-24.6-21.8-11.2-21.8-32.9 0-14.5 10.6-25.1t25.1-10.6q7.3 0 14.5 2.8 78.1 32.9 125.6 105.2t47.4 157.6-47.4 157.6-125.6 105.2q-7.3 2.8-14 2.8-15.1 0-25.7-10.6t-10.6-25.1zm56.4 131.1q0-20.1 21.8-32.9 3.9-2.2 12.6-5.9t12.6-5.9q25.7-14 45.8-28.5 68.6-50.8 107.1-126.7t38.5-161.3-38.5-161.3-107.1-126.7q-20.1-14.5-45.8-28.5-3.9-2.2-12.6-5.9t-12.6-5.9q-21.8-12.8-21.8-32.9 0-14.5 10.6-25.1t25.1-10.6q7.3 0 14.5 2.8 117.7 50.8 188.6 158.2t70.9 235.8-70.9 235.8-188.6 158.2q-7.3 2.8-14.5 2.8-14.5 0-25.1-10.6t-10.6-25.1z"/></svg>