<svg height="1000" width="642.9" xmlns="http://www.w3.org/2000/svg"><path d="M428.6 196.4v607.2q0 14.5 -10.6 25.1t-25.1 10.6 -25.2 -10.6L181.9 642.9H35.7q-14.5 0 -25.1 -10.6T0 607.1V392.9q0 -14.6 10.6 -25.2t25.1 -10.6h146.2L367.7 171.3q10.6 -10.6 25.2 -10.6t25.1 10.6 10.6 25.1zM642.9 500q0 42.4 -23.8 79t-62.7 52.1q-5.6 2.8 -14 2.8 -14.5 0 -25.1 -10.3t-10.6 -25.4q0 -11.7 6.7 -19.8t16.2 -13.9 18.9 -12.9 16.2 -19.8 6.7 -31.8 -6.7 -31.8 -16.2 -19.8 -18.9 -12.9 -16.2 -13.9 -6.7 -19.8q0 -15.1 10.6 -25.4t25.1 -10.3q8.4 0 14 2.8 39 15 62.7 51.9t23.8 79.2z"/></svg>