<svg height="1000px" width="928.5714285714286px" xmlns="http://www.w3.org/2000/svg">
  <g>
    <path d="M0 607.1428571428571c0 0 0 -214.286 0 -214.286c0 -9.672 3.534 -18.043 10.603 -25.111c7.068 -7.069 15.439 -10.603 25.111 -10.603c0 0 146.206 0 146.206 0c0 0 185.826 -185.826 185.826 -185.826c7.068 -7.068 15.439 -10.603 25.111 -10.603c9.673 0 18.043 3.535 25.112 10.603c7.068 7.069 10.602 15.439 10.602 25.112c0 0 0 607.143 0 607.143c0 9.672 -3.534 18.043 -10.602 25.111c-7.069 7.069 -15.439 10.603 -25.112 10.603c-9.672 0 -18.043 -3.534 -25.111 -10.603c0 0 -185.826 -185.826 -185.826 -185.826c0 0 -146.206 0 -146.206 0c-9.672 0 -18.043 -3.534 -25.111 -10.602c-7.069 -7.069 -10.603 -15.439 -10.603 -25.112c0 0 0 0 0 0m506.696 -8.929c0 -7.812 2.233 -14.415 6.697 -19.81c4.464 -5.394 9.858 -10.044 16.183 -13.951c6.324 -3.906 12.649 -8.184 18.973 -12.835c6.325 -4.65 11.719 -11.253 16.183 -19.81c4.464 -8.556 6.697 -19.159 6.697 -31.808c0 -12.649 -2.233 -23.251 -6.697 -31.808c-4.464 -8.556 -9.858 -15.16 -16.183 -19.81c-6.324 -4.65 -12.649 -8.929 -18.973 -12.835c-6.325 -3.906 -11.719 -8.557 -16.183 -13.951c-4.464 -5.394 -6.697 -11.998 -6.697 -19.81c0 -10.045 3.535 -18.508 10.603 -25.391c7.069 -6.882 15.439 -10.323 25.112 -10.323c5.58 0 10.23 0.93 13.951 2.79c26.041 10.044 46.968 27.343 62.779 51.897c15.811 24.554 23.716 50.967 23.716 79.241c0 28.274 -7.905 54.595 -23.716 78.962c-15.811 24.368 -36.738 41.76 -62.779 52.177c-3.721 1.86 -8.371 2.79 -13.951 2.79c-9.673 0 -18.043 -3.442 -25.112 -10.324c-7.068 -6.882 -10.603 -15.346 -10.603 -25.391c0 0 0 0 0 0m55.804 131.697c0 -14.509 7.254 -25.484 21.763 -32.924c20.834 -10.789 34.971 -18.973 42.411 -24.554c27.53 -20.089 49.014 -45.294 64.453 -75.614c15.439 -30.32 23.159 -62.593 23.159 -96.819c0 -34.226 -7.72 -66.499 -23.159 -96.819c-15.439 -30.32 -36.923 -55.525 -64.453 -75.614c-7.44 -5.58 -21.577 -13.765 -42.411 -24.553c-14.509 -7.441 -21.763 -18.416 -21.763 -32.925c0 -9.672 3.534 -18.043 10.603 -25.111c7.068 -7.069 15.439 -10.603 25.111 -10.603c4.837 0 9.673 0.93 14.509 2.79c52.084 21.95 93.936 57.013 125.558 105.19c31.622 48.177 47.433 100.725 47.433 157.645c0 56.92 -15.811 109.468 -47.433 157.645c-31.622 48.177 -73.474 83.241 -125.558 105.19c-4.836 1.86 -9.486 2.79 -13.951 2.79c-10.044 0 -18.601 -3.534 -25.669 -10.603c-7.069 -7.068 -10.603 -15.439 -10.603 -25.111c0 0 0 0 0 0m56.362 131.138c0 -13.393 7.254 -24.367 21.763 -32.924c2.604 -1.488 6.789 -3.441 12.556 -5.859c5.766 -2.418 9.951 -4.372 12.556 -5.86c17.113 -9.3 32.366 -18.787 45.759 -28.459c45.758 -33.855 81.473 -76.079 107.142 -126.675c25.67 -50.595 38.505 -104.352 38.505 -161.272c0 -56.92 -12.835 -110.677 -38.505 -161.272c-25.669 -50.595 -61.384 -92.82 -107.142 -126.674c-13.393 -9.673 -28.646 -19.16 -45.759 -28.46c-2.605 -1.488 -6.79 -3.441 -12.556 -5.859c-5.767 -2.419 -9.952 -4.372 -12.556 -5.86c-14.509 -8.556 -21.763 -19.531 -21.763 -32.924c0 -9.673 3.534 -18.043 10.602 -25.112c7.069 -7.068 15.439 -10.602 25.112 -10.602c4.836 0 9.673 0.93 14.509 2.79c78.497 33.854 141.369 86.588 188.616 158.203c47.247 71.615 70.87 150.205 70.87 235.77c0 85.566 -23.623 164.156 -70.87 235.77c-47.247 71.615 -110.119 124.349 -188.616 158.203c-4.836 1.86 -9.673 2.791 -14.509 2.791c-9.673 0 -18.043 -3.535 -25.112 -10.603c-7.068 -7.069 -10.602 -15.439 -10.602 -25.112c0 0 0 0 0 0" />
  </g>
</svg>