<svg height="1000" width="928.571" xmlns="http://www.w3.org/2000/svg"><path d="M0 607.168v-214.272q0 -14.508 10.602 -25.11t25.11 -10.602h146.196l185.814 -185.814q10.602 -10.602 25.11 -10.602t25.11 10.602 10.602 25.11v607.104q0 14.508 -10.602 25.11t-25.11 10.602 -25.11 -10.602l-185.814 -185.814h-146.196q-14.508 0 -25.11 -10.602t-10.602 -25.11zm506.664 -8.928q0 -11.718 6.696 -19.809t16.182 -13.95 18.972 -12.834 16.182 -19.809 6.696 -31.806 -6.696 -31.806 -16.182 -19.809 -18.972 -12.834 -16.182 -13.95 -6.696 -19.809q0 -15.066 10.602 -25.389t25.11 -10.323q8.37 0 13.95 2.79 39.06 15.066 62.775 51.894t23.715 79.236 -23.715 78.957 -62.775 52.173q-5.58 2.79 -13.95 2.79 -14.508 0 -25.11 -10.323t-10.602 -25.389zm55.8 131.688q0 -21.762 21.762 -32.922 31.248 -16.182 42.408 -24.552 41.292 -30.132 64.449 -75.609t23.157 -96.813 -23.157 -96.813 -64.449 -75.609q-11.16 -8.37 -42.408 -24.552 -21.762 -11.16 -21.762 -32.922 0 -14.508 10.602 -25.11t25.11 -10.602q7.254 0 14.508 2.79 78.12 32.922 125.55 105.183t47.43 157.635 -47.43 157.635 -125.55 105.183q-7.254 2.79 -13.95 2.79 -15.066 0 -25.668 -10.602t-10.602 -25.11zm56.358 131.13q0 -20.088 21.762 -32.922 3.906 -2.232 12.555 -5.859t12.555 -5.859q25.668 -13.95 45.756 -28.458 68.634 -50.778 107.136 -126.666t38.502 -161.262 -38.502 -161.262 -107.136 -126.666q-20.088 -14.508 -45.756 -28.458 -3.906 -2.232 -12.555 -5.859t-12.555 -5.859q-21.762 -12.834 -21.762 -32.922 0 -14.508 10.602 -25.11t25.11 -10.602q7.254 0 14.508 2.79 117.738 50.778 188.604 158.193t70.866 235.755 -70.866 235.755 -188.604 158.193q-7.254 2.79 -14.508 2.79 -14.508 0 -25.11 -10.602t-10.602 -25.11z"/></svg>