<svg height="1000px" width="935.546875px" xmlns="http://www.w3.org/2000/svg">
  <g>
    <path d="M0 592.193603515625c0 0 0 -185.547 0 -185.547c0 -5.208 1.872 -9.684 5.615 -13.428c3.744 -3.743 8.22 -5.615 13.428 -5.615c0 0 205.078 0 205.078 0c0 0 158.691 -159.18 158.691 -159.18c15.951 -16.601 29.623 -22.623 41.016 -18.066c11.393 4.557 17.09 18.555 17.09 41.992c0 0 0 494.141 0 494.141c0 23.437 -5.615 37.435 -16.846 41.992c-11.23 4.557 -24.983 -1.465 -41.26 -18.066c0 0 -158.691 -159.18 -158.691 -159.18c0 0 -205.078 0 -205.078 0c-5.208 0 -9.684 -1.79 -13.428 -5.371c-3.743 -3.581 -5.615 -8.138 -5.615 -13.672c0 0 0 0 0 0m501.465 83.984c-2.93 -10.416 -1.791 -20.345 3.418 -29.785c27.344 -47.2 41.015 -96.191 41.015 -146.972c0 -50.782 -13.671 -99.773 -41.015 -146.973c-5.209 -9.44 -6.348 -19.369 -3.418 -29.785c2.93 -10.417 9.114 -18.229 18.555 -23.438c9.44 -5.208 19.287 -6.51 29.541 -3.906c10.253 2.604 18.147 8.626 23.681 18.066c33.854 59.245 50.781 121.257 50.781 186.036c0 65.429 -16.927 127.441 -50.781 186.035c-7.487 13.346 -18.88 20.019 -34.18 20.019c-6.51 0 -12.858 -1.953 -19.042 -5.859c-9.441 -5.208 -15.625 -13.021 -18.555 -23.438c0 0 0 0 0 0m125.976 91.309c-2.278 -10.742 -0.488 -20.833 5.371 -30.273c45.899 -73.243 69.011 -152.507 69.336 -237.793c0 -85.287 -23.112 -164.551 -69.336 -237.793c-5.859 -9.441 -7.649 -19.532 -5.371 -30.274c2.279 -10.742 8.138 -18.717 17.579 -23.926c9.44 -5.859 19.368 -7.649 29.785 -5.371c10.416 2.279 18.554 8.138 24.414 17.578c26.692 42.644 46.793 87.403 60.302 134.278c13.51 46.875 20.264 95.377 20.264 145.508c0 100.586 -27.181 193.847 -81.543 279.785c-3.255 5.859 -7.975 10.335 -14.16 13.427c-6.185 3.093 -12.207 4.639 -18.066 4.639c-8.138 0 -15.137 -1.953 -20.996 -5.859c-9.441 -5.209 -15.3 -13.184 -17.579 -23.926c0 0 0 0 0 0m124.512 90.82c-1.953 -10.742 0 -20.345 5.86 -28.808c32.552 -50.131 57.373 -103.028 74.462 -158.692c17.09 -55.664 25.635 -112.793 25.635 -171.386c0 -58.594 -8.463 -115.723 -25.39 -171.387c-16.928 -55.664 -41.83 -108.236 -74.707 -157.715c-5.86 -9.44 -7.813 -19.45 -5.86 -30.029c1.953 -10.58 7.65 -18.799 17.09 -24.658c9.44 -5.209 19.368 -6.918 29.785 -5.127c10.417 1.79 18.555 7.08 24.414 15.869c37.435 56.64 65.593 116.292 84.473 178.955c18.88 62.663 28.32 127.36 28.32 194.092c0 66.731 -9.521 131.429 -28.564 194.091c-19.043 62.663 -47.119 121.989 -84.229 177.979c-3.255 5.859 -7.975 10.335 -14.16 13.428c-6.185 3.092 -12.207 4.638 -18.066 4.638c-8.138 0 -15.463 -2.116 -21.973 -6.347c-9.44 -5.86 -15.137 -14.161 -17.09 -24.903c0 0 0 0 0 0" />
  </g>
</svg>