<svg height="1000" width="1142.857" xmlns="http://www.w3.org/2000/svg"><path d="M323.64 257.302q0 -22.878 -13.95 -36.828t-36.828 -13.95q-23.994 0 -42.408 14.229t-18.414 36.549q0 21.762 18.414 35.991t42.408 14.229q22.878 0 36.828 -13.671t13.95 -36.549zm414.594 282.906q0 -15.624 -14.229 -27.9t-36.549 -12.276q-15.066 0 -27.621 12.555t-12.555 27.621q0 15.624 12.555 28.179t27.621 12.555q22.32 0 36.549 -12.276t14.229 -28.458zm-131.688 -282.906q0 -22.878 -13.671 -36.828t-36.549 -13.95q-23.994 0 -42.408 14.229t-18.414 36.549q0 21.762 18.414 35.991t42.408 14.229q22.878 0 36.549 -13.671t13.671 -36.549zm354.33 282.906q0 -15.624 -14.508 -27.9t-36.27 -12.276q-15.066 0 -27.621 12.555t-12.555 27.621q0 15.624 12.555 28.179t27.621 12.555q21.762 0 36.27 -12.276t14.508 -28.458zm-148.428 -221.526q-17.298 -2.232 -39.06 -2.232 -94.302 0 -173.538 42.966t-124.713 116.343 -45.477 160.425q0 43.524 12.834 84.816 -19.53 1.674 -37.944 1.674 -14.508 0 -27.9 -.837t-30.69 -3.627 -24.831 -3.906 -30.411 -5.859 -27.9 -5.859l-141.174 70.866 40.176 -121.644q-161.82 -113.274 -161.82 -273.42 0 -94.302 54.405 -173.538t147.312 -124.713 202.833 -45.477q98.208 0 185.535 36.828t146.196 101.835 76.167 145.359zm330.336 313.038q0 65.286 -38.223 124.713t-103.509 107.973l30.69 100.998 -111.042 -60.822q-83.7 20.646 -121.644 20.646 -94.302 0 -173.538 -39.339t-124.713 -106.857 -45.477 -147.312 45.477 -147.312 124.713 -106.857 173.538 -39.339q89.838 0 169.074 39.339t126.945 107.136 47.709 147.033z"/></svg>