<svg height="1000" width="1000" xmlns="http://www.w3.org/2000/svg"><path d="M376.65 716.536q11.718 -18.972 6.138 -38.502t-25.11 -27.9q-18.972 -7.812 -40.734 -.558t-33.48 25.668q-12.276 18.972 -7.254 38.223t23.994 28.179 41.571 1.395 34.875 -26.505zm52.452 -67.518q4.464 -7.254 1.953 -14.787t-9.765 -10.323q-7.812 -2.79 -15.903 .279t-11.997 10.323q-9.486 17.298 7.254 25.11 7.812 2.79 16.182 -.279t12.276 -10.323zm97.092 59.706q-25.11 56.916 -88.164 83.7t-124.992 6.696q-59.706 -18.972 -82.305 -70.587t3.627 -104.625q26.226 -51.894 84.537 -77.562t117.459 -10.602q61.938 16.182 88.443 66.681t1.395 106.299zm174.096 -89.28q-5.022 -53.568 -49.662 -94.86t-116.343 -60.822 -153.171 -11.718q-124.434 12.834 -206.181 78.957t-73.935 147.591q5.022 53.568 49.662 94.86t116.343 60.822 153.171 11.718q124.434 -12.834 206.181 -78.957t73.935 -147.591zm171.864 2.232q0 37.944 -20.646 77.841t-60.822 76.446 -94.023 65.565 -126.108 46.314 -150.939 17.298 -153.45 -18.693 -134.199 -51.894 -95.697 -84.258 -36.27 -111.321q0 -64.17 38.781 -136.71t110.205 -143.964q94.302 -94.302 190.557 -131.688t137.547 3.906q36.27 35.712 11.16 116.622 -2.232 7.812 -.558 11.16t5.58 3.906 8.091 -.279 7.533 -1.953l3.348 -1.116q77.562 -32.922 137.268 -32.922t85.374 34.038q25.11 35.154 0 99.324 -1.116 7.254 -2.511 11.16t2.511 6.975 6.696 4.185 9.486 3.348q31.806 10.044 57.474 26.226t44.64 45.477 18.972 65.007zm-41.292 -348.192q23.436 26.226 30.411 60.543t-3.627 65.565q-4.464 12.834 -16.461 18.972t-24.831 2.232q-12.834 -4.464 -18.972 -16.461t-2.232 -24.831q11.16 -35.154 -13.392 -61.938t-59.706 -19.53q-13.392 2.79 -25.11 -4.464t-13.95 -20.646q-2.79 -13.392 4.464 -24.831t20.646 -14.229q33.48 -7.254 66.402 3.069t56.358 36.549zm100.998 -90.954q48.546 53.568 62.775 124.155t-7.533 134.757q-5.022 15.066 -18.972 22.32t-29.016 2.232 -22.32 -18.972 -2.79 -29.016q15.624 -45.756 5.58 -95.976t-44.64 -88.164q-34.596 -38.502 -82.584 -53.289t-96.534 -4.743q-15.624 3.348 -29.016 -5.301t-16.74 -24.273 5.301 -28.737 24.273 -16.461q68.634 -14.508 136.152 6.417t116.064 75.051z"/></svg>