<svg height="1000" width="1000" xmlns="http://www.w3.org/2000/svg"><path d="M376.7 716.5q11.7 -19 6.1 -38.5t-25.1 -27.9q-19 -7.8 -40.7 -.5t-33.5 25.6q-12.3 19 -7.3 38.2t24 28.2 41.6 1.4 34.9 -26.5zM429.1 649q4.5 -7.3 2 -14.8t-9.8 -10.3q-7.8 -2.8 -15.9 .3t-12 10.3q-9.5 17.3 7.3 25.1 7.8 2.8 16.2 -.3T429.1 649zm97.1 59.7q-25.1 56.9 -88.1 83.7t-125 6.7q-59.8 -19 -82.4 -70.6t3.7 -104.6q26.2 -51.9 84.5 -77.6t117.5 -10.6q61.9 16.2 88.4 66.7t1.4 106.3zm174.1 -89.3q-5 -53.6 -49.6 -94.8T534.3 463.7 381.1 452q-124.4 12.8 -206.2 79T101 678.6q5 53.5 49.7 94.8T267 834.3 420.2 846q124.4 -12.9 206.2 -79t73.9 -147.6zm171.9 2.3q0 37.9 -20.6 77.8t-60.9 76.4 -94 65.6 -126.1 46.3 -151 17.3T266.2 886.4 132 834.5 36.3 750.3 0 639Q0 574.8 38.8 502.2T149 358.3Q243.3 264 339.6 226.6t137.5 3.9q36.3 35.7 11.2 116.6 -2.3 7.8 -.6 11.2t5.6 3.9 8.1 -.3 7.5 -2l3.4 -1.1q77.5 -32.9 137.3 -32.9t85.3 34q25.1 35.2 0 99.4 -1.1 7.2 -2.5 11.1t2.5 7 6.7 4.2 9.5 3.3q31.8 10.1 57.5 26.3t44.6 45.4 19 65.1zM830.9 273.4q23.5 26.3 30.4 60.6t-3.6 65.6q-4.5 12.8 -16.5 18.9t-24.8 2.3q-12.8 -4.5 -19 -16.5t-2.2 -24.8q11.2 -35.2 -13.4 -62T722.1 298q-13.4 2.8 -25.1 -4.5t-14 -20.6q-2.8 -13.4 4.5 -24.9t20.6 -14.2q33.5 -7.2 66.5 3.1t56.3 36.5zm101 -90.9q48.6 53.5 62.8 124.1t-7.5 134.8q-5.1 15.1 -19 22.3t-29 2.3 -22.3 -19 -2.8 -29q15.6 -45.8 5.5 -96T875 233.8q-34.6 -38.5 -82.6 -53.3t-96.5 -4.7q-15.7 3.3 -29 -5.3t-16.8 -24.3 5.3 -28.7T679.7 101q68.6 -14.5 136.1 6.4t116.1 75.1z"/></svg>