<svg height="1000" width="857.143" xmlns="http://www.w3.org/2000/svg"><path d="M549.63 543.556q7.254 0 54.405 24.552t49.941 29.574q1.116 2.79 1.116 8.37 0 18.414 -9.486 42.408 -8.928 21.762 -39.618 36.549t-56.916 14.787q-31.806 0 -106.02 -34.596 -54.684 -25.11 -94.86 -65.844t-82.584 -103.23q-40.176 -59.706 -39.618 -108.252v-4.464q1.674 -50.778 41.292 -88.164 13.392 -12.276 29.016 -12.276 3.348 0 10.044 .837t10.602 .837q10.602 0 14.787 3.627t8.649 15.345q4.464 11.16 18.414 49.104t13.95 41.85q0 11.718 -19.251 32.085t-19.251 25.947q0 3.906 2.79 8.37 18.972 40.734 56.916 76.446 31.248 29.574 84.258 56.358 6.696 3.906 12.276 3.906 8.37 0 30.132 -27.063t29.016 -27.063zm-113.274 295.74q70.866 0 135.873 -27.9t111.879 -74.772 74.772 -111.879 27.9 -135.873 -27.9 -135.873 -74.772 -111.879 -111.879 -74.772 -135.873 -27.9 -135.873 27.9 -111.879 74.772 -74.772 111.879 -27.9 135.873q0 113.274 66.96 205.344l-44.082 130.014 135.036 -42.966q88.164 58.032 192.51 58.032zm0 -771.156q85.374 0 163.215 33.48t134.199 89.838 89.838 134.199 33.48 163.215 -33.48 163.215 -89.838 134.199 -134.199 89.838 -163.215 33.48q-108.81 0 -203.67 -52.452l-232.686 74.772 75.888 -225.99q-60.264 -99.324 -60.264 -217.062 0 -85.374 33.48 -163.215t89.838 -134.199 134.199 -89.838 163.215 -33.48z"/></svg>