<svg height="1000" width="857.1" xmlns="http://www.w3.org/2000/svg"><path d="M549.7 543.5q7.2 0 54.4 24.6t49.9 29.6q1.1 2.7 1.1 8.3 0 18.4 -9.5 42.4Q636.7 670.2 606 685t-56.9 14.8q-31.8 0 -106 -34.6 -54.7 -25.1 -94.9 -65.9T265.6 496.1Q225.4 436.4 226 387.8v-4.4q1.7 -50.8 41.3 -88.2 13.4 -12.3 29 -12.3 3.4 0 10.1 .9t10.6 .8q10.6 0 14.8 3.6t8.6 15.4q4.5 11.1 18.4 49.1t14 41.8q0 11.8 -19.3 32.1t-19.2 26q0 3.9 2.8 8.3 18.9 40.8 56.9 76.5 31.2 29.6 84.2 56.4 6.7 3.9 12.3 3.9 8.4 0 30.1 -27.1t29.1 -27.1zM436.4 839.3q70.9 0 135.9 -27.9t111.9 -74.8 74.7 -111.9 27.9 -135.9T758.9 353 684.2 241.1 572.3 166.3 436.4 138.4t-135.9 27.9 -111.9 74.8T113.8 353 85.9 488.8q0 113.3 67 205.4l-44.1 130 135.1 -42.9q88.1 58 192.5 58zm0 -771.2q85.4 0 163.2 33.5t134.2 89.8 89.9 134.2 33.4 163.2 -33.4 163.3 -89.9 134.2 -134.2 89.8 -163.2 33.5q-108.8 0 -203.7 -52.5L0 931.9l75.9 -226Q15.6 606.6 15.6 488.8q0 -85.3 33.5 -163.2T139 191.4t134.2 -89.8T436.4 68.1z"/></svg>