<svg height="1000" width="928.571" xmlns="http://www.w3.org/2000/svg"><path d="M570.834 662.41l56.916 113.832q-32.364 99.882 -117.18 161.82t-189.162 61.938q-87.048 0 -160.983 -43.245t-117.18 -117.18 -43.245 -160.983q0 -100.998 58.311 -184.14t153.171 -117.738l9.486 73.098q-68.076 30.132 -108.81 92.349t-40.734 136.431q0 103.23 73.377 176.607t176.607 73.377q70.308 0 129.735 -36.27t92.07 -97.929 27.621 -131.967zm305.784 55.8l32.364 63.612 -142.848 71.424q-7.254 3.906 -16.182 3.906 -22.32 0 -31.806 -19.53l-133.362 -266.166h-263.376q-13.392 0 -23.715 -9.207t-11.997 -22.599l-53.568 -434.682q-1.116 -8.928 3.348 -23.436 7.812 -28.458 31.806 -46.035t54.126 -17.577q36.828 0 63.054 26.226t26.226 63.054q0 38.502 -29.016 65.565t-66.96 23.157l20.646 161.262h236.034v71.424h-227.106l8.928 71.424h253.89q22.32 0 31.806 19.53l127.224 253.89z"/></svg>