<svg height="1000" width="928.6" xmlns="http://www.w3.org/2000/svg"><path d="M570.9 662.4l56.9 113.8q-32.4 99.9 -117.2 161.9T321.4 1000q-87 0 -161 -43.2T43.2 839.6 0 678.6q0 -101 58.3 -184.2T211.5 376.7l9.5 73.1q-68.1 30.1 -108.8 92.3T71.4 678.6q0 103.2 73.4 176.6t176.6 73.4q70.3 0 129.8 -36.3t92 -97.9 27.7 -132zm305.8 55.8l32.3 63.6 -142.8 71.4q-7.3 3.9 -16.2 3.9 -22.3 0 -31.8 -19.5L584.8 571.4H321.4q-13.4 0 -23.7 -9.2t-12 -22.6L232.1 104.9Q231 96 235.5 81.5 243.3 53 267.3 35.4t54.1 -17.5q36.9 0 63.1 26.2t26.2 63q0 38.5 -29 65.6t-67 23.2l20.7 161.2h236v71.5H344.3l8.9 71.4h253.9q22.4 0 31.9 19.5l127.2 253.9z"/></svg>