<svg height="1000" width="857.1" xmlns="http://www.w3.org/2000/svg"><path d="M802.5 453.7q18.9 19.5 16.1 45.7l-24.5 307.5q-2.2 23.5 -19.3 39.1t-39.9 15.6q-3.3 0 -5 -.6 -24.5 -1.6 -40.4 -20.3t-14.3 -43.3L694.8 558l-79.8 4.5q30.6 63.1 30.6 133.9 0 120.6 -82.5 207.6l-76.5 -76.4q50.8 -56.4 50.8 -131.2 0 -80.9 -57.2 -138.4T342.1 500.6q-74.8 0 -131.7 51.3l-76.5 -77q67 -63.6 158.5 -78.7L439.7 228.8l-83.1 -48.6 -101 89.9q-18.4 16.7 -43 15.3t-40.7 -19.8 -14.8 -42.9 19.2 -40.8L309.7 63.1q14.5 -12.9 33.5 -14.8t35.7 8.1l272.3 157.9q20.1 11.7 26.8 37.9 9.5 37.4 -14.5 65.3L549.1 447l207 -11.2q27.4 -1.6 46.4 17.9zM692 198.7q-41.3 0 -70.3 -29.1T592.6 99.3 621.7 29 692 0t70.6 29 29.3 70.3 -29.3 70.3T692 198.7zm-349.9 693q59.1 0 109.4 -34l77.5 77.6Q447.5 1000 342.1 1000q-82.6 0 -152.6 -40.7T78.7 848.8 37.9 696.4q0 -104.9 64.8 -187.5l77.5 77.6q-33.4 49.1 -33.4 109.9 0 80.9 57.2 138.1t138.1 57.2z"/></svg>