<svg height="1000" width="1142.857" xmlns="http://www.w3.org/2000/svg"><path d="M571.392 849.898q-11.16 0 -51.894 -41.013t-40.734 -52.173q0 -17.856 34.875 -30.132t57.753 -12.276 57.753 12.276 34.875 30.132q0 11.16 -40.734 52.173t-51.894 41.013zm150.66 -151.218q-1.116 0 -22.32 -13.95t-56.637 -27.9 -71.703 -13.95 -71.703 13.95 -56.358 27.9 -22.599 13.95q-10.044 0 -52.173 -41.85t-42.129 -51.894q0 -7.254 5.58 -12.834 43.524 -42.966 109.368 -67.518t130.014 -24.552 130.014 24.552 109.368 67.518q5.58 5.58 5.58 12.834 0 10.044 -42.129 51.894t-52.173 41.85zm152.334 -151.776q-6.138 0 -12.834 -4.464 -75.888 -58.59 -140.616 -86.211t-149.544 -27.621q-47.43 0 -95.139 12.276t-83.142 29.574 -63.333 34.596 -44.082 29.574 -17.298 12.276q-9.486 0 -51.336 -41.85t-41.85 -51.894q0 -6.696 5.58 -12.276 73.656 -73.656 178.56 -114.39t212.04 -40.734 212.04 40.734 178.56 114.39q5.58 5.58 5.58 12.276 0 10.044 -41.85 51.894t-51.336 41.85zm151.218 -151.218q-6.138 0 -12.276 -5.022 -99.882 -87.606 -207.297 -131.967t-234.639 -44.361 -234.639 44.361 -207.297 131.967q-6.138 5.022 -12.276 5.022 -9.486 0 -51.615 -41.85t-42.129 -51.894q0 -7.254 5.58 -12.834 104.346 -103.788 248.31 -160.704t294.066 -56.916 294.066 56.916 248.31 160.704q5.58 5.58 5.58 12.834 0 10.044 -42.129 51.894t-51.615 41.85z"/></svg>