<svg height="1000" width="1142.9" xmlns="http://www.w3.org/2000/svg"><path d="M571.4 849.9q-11.1 0 -51.9 -41t-40.7 -52.2q0 -17.9 34.9 -30.1t57.7 -12.3 57.8 12.3 34.9 30.1q0 11.2 -40.8 52.2t-51.9 41zM722.1 698.7q-1.1 0 -22.3 -14t-56.7 -27.9 -71.7 -13.9 -71.7 13.9 -56.3 27.9 -22.6 14q-10.1 0 -52.2 -41.9t-42.1 -51.9q0 -7.2 5.5 -12.8 43.6 -43 109.4 -67.5t130 -24.6 130.1 24.6 109.3 67.5q5.6 5.6 5.6 12.8 0 10.1 -42.1 51.9t-52.2 41.9zM874.4 546.9q-6.1 0 -12.8 -4.5Q785.7 483.8 721 456.2T571.4 428.6q-47.4 0 -95.1 12.2t-83.2 29.6T329.8 505t-44.1 29.6 -17.3 12.3q-9.5 0 -51.3 -41.9t-41.9 -51.9q0 -6.7 5.6 -12.3 73.7 -73.6 178.6 -114.3t212 -40.8 212.1 40.8 178.6 114.3q5.5 5.6 5.5 12.3 0 10.1 -41.8 51.9t-51.4 41.9zm151.3 -151.3q-6.2 0 -12.3 -5Q913.5 303 806.1 258.6T571.4 214.3t-234.6 44.3 -207.3 132q-6.2 5 -12.3 5 -9.5 0 -51.6 -41.8T23.4 301.9q0 -7.3 5.6 -12.8Q133.4 185.3 277.3 128.3T571.4 71.4t294.1 56.9 248.3 160.8q5.6 5.5 5.6 12.8 0 10 -42.1 51.9t-51.6 41.8z"/></svg>