<svg height="1000" width="1285.7" xmlns="http://www.w3.org/2000/svg"><path d="M833.7 914.6L669.1 526.8q-14 27.3 -88.5 170.5T469.9 914.6q-.6 .6 -15.4 .3t-14.8 -.8Q394 806.4 297.2 586.5T152.3 253.9q-11.7 -27.9 -37.1 -60T57.5 137.8 .6 113.8Q.6 111 .3 100.4T0 85.4h325.3v27.9q-21.7 1.1 -44.3 8.9t-37.1 24 -5.6 35.7q14.5 32.9 120.8 278.5t131.4 301.3q17.3 -34 78.1 -148.7t73.1 -138.1Q631.1 453.1 571.4 318.1T495.5 153.5Q474.3 115 383.4 113.8V85.9l286.2 .6v26.2q-33.4 1.1 -52.1 14t-7 38.5q18.4 39 48.5 105.7t48 104.7Q768.4 256.1 803.6 173 817 142.3 798 128.6t-72 -14.8q.6 -3.9 .6 -13.9V86.5q35.7 0 95.1 -.3t100.5 -.5 51.6 -.3v27.3q-34.6 1.1 -66.4 18.4t-50.3 45.2L738.3 423q7.2 18.4 71.1 161.8t67.8 152.9l246.1 -567.5q-7.8 -21.2 -27.6 -34.9t-36.3 -17.6 -30.9 -4.4V85.4l256.7 2.2 .5 1.1 -.5 24.6q-77.6 2.2 -112.2 80.9Q879.5 872.8 861 914.6h-27.3z"/></svg>