<svg height="1000" width="1000" xmlns="http://www.w3.org/2000/svg"><path d="M655.7 737.2l81.5 -81.5q5.5 -5.6 5.5 -12.8T737.2 630L607.1 500 737.2 370q5.5 -5.6 5.5 -12.9t-5.5 -12.8l-81.5 -81.5q-5.6 -5.5 -12.8 -5.5t-12.9 5.5L500 392.9 370 262.8q-5.6 -5.5 -12.9 -5.5t-12.8 5.5l-81.5 81.5q-5.5 5.6 -5.5 12.8t5.5 12.9l130.1 130L262.8 630q-5.5 5.6 -5.5 12.9t5.5 12.8l81.5 81.5q5.6 5.5 12.8 5.5t12.9 -5.5L500 607.1l130 130.1q5.6 5.5 12.9 5.5t12.8 -5.5zM1000 160.7v678.6q0 36.8 -26.2 63t-63.1 26.3H89.3q-36.8 0 -63.1 -26.3T0 839.3V160.7q0 -36.8 26.2 -63T89.3 71.4h821.4q36.8 0 63.1 26.3t26.2 63z"/></svg>