<svg height="1000" width="1000" xmlns="http://www.w3.org/2000/svg"><path d="M701.5 620L620 701.5q-5.6 5.5 -12.9 5.5t-12.8 -5.5L500 607.1l-94.3 94.4q-5.6 5.5 -12.8 5.5T380 701.5L298.5 620Q293 614.4 293 607.1t5.5 -12.8L392.9 500l-94.4 -94.3Q293 400.1 293 392.9t5.5 -12.9L380 298.5q5.6 -5.5 12.9 -5.5t12.8 5.5l94.3 94.4 94.3 -94.4q5.6 -5.5 12.8 -5.5t12.9 5.5l81.5 81.5q5.5 5.6 5.5 12.9t-5.5 12.8L607.1 500l94.4 94.3q5.5 5.6 5.5 12.8t-5.5 12.9zM142.9 785.7h714.2V214.3H142.9v571.4zm857.1 -625v678.6q0 36.8 -26.2 63t-63.1 26.3H89.3q-36.8 0 -63.1 -26.3T0 839.3V160.7q0 -36.8 26.2 -63T89.3 71.4h821.4q36.8 0 63.1 26.3t26.2 63z"/></svg>