<svg height="1000" width="1000" xmlns="http://www.w3.org/2000/svg"><path d="M286.8 666.9L332 500h-88.7l41.9 167.4q.5 .6 .5 1.7t.6 1.7q0 -.6 .3 -2t.2 -1.9zm64.8 -238.3l19.5 -71.5h-163l17.9 71.5h125.6zm107.1 0h77.6l-19.6 -71.5h-39zm250.6 238.8L752.8 500h-90.4l45.2 166.9q0 .5 .3 1.9t.8 2q0 -.6 .3 -1.7t.3 -1.7zm61.9 -238.8l18.4 -71.5H623.9l19 71.5h128.3zm228.8 17.8v35.7q0 7.9 -5 12.9t-12.9 5H863.3l-91.5 343.8q-3.9 13.3 -17.3 13.3h-88.8q-13.4 0 -17.3 -13.3L555.8 500H439.2L346 843.8q-3.9 13.3 -17.3 13.3H240q-6.2 0 -10.9 -3.9t-5.9 -9.4L133.9 500h-116Q10 500 5 495T0 482.1v-35.7q0 -7.8 5 -12.8t12.9 -5h97.6L97.1 357.1H17.9q-7.9 0 -12.9 -5T0 339.3v-35.7q0 -7.8 5 -12.9t12.9 -5h60.8L29 93.7q-2.8 -8.3 2.8 -15.6 5.6 -6.7 14.5 -6.7h76.5q14.5 0 17.3 13.4l50.2 200.9h200.3L444.8 84.8q3.9 -13.4 17.3 -13.4h70.3q13.4 0 17.3 13.4l54.7 200.9H808L859.9 84.8q2.8 -13.4 17.3 -13.4h76.5q8.9 0 14.5 6.7 5.6 7.3 2.8 15.6l-50.8 192h61.9q7.9 0 12.9 5t5 12.9v35.7q0 7.8 -5 12.8t-12.9 5h-80.9l-18.9 71.5h99.8q7.9 0 12.9 5t5 12.8z"/></svg>