<svg height="1000" width="1000" xmlns="http://www.w3.org/2000/svg"><path d="M286.812 666.874l45.198 -166.842h-88.722l41.85 167.4q.558 .558 .558 1.674t.558 1.674q0 -.558 .279 -1.953t.279 -1.953zm64.728 -238.266l19.53 -71.424h-162.936l17.856 71.424h125.55zm107.136 0h77.562l-19.53 -71.424h-39.06zm250.542 238.824l43.524 -167.4h-90.396l45.198 166.842q0 .558 .279 1.953t.837 1.953q0 -.558 .279 -1.674t.279 -1.674zm61.938 -238.824l18.414 -71.424h-165.726l18.972 71.424h128.34zm228.78 17.856v35.712q0 7.812 -5.022 12.834t-12.834 5.022h-118.854l-91.512 343.728q-3.906 13.392 -17.298 13.392h-88.722q-13.392 0 -17.298 -13.392l-92.628 -343.728h-116.622l-93.186 343.728q-3.906 13.392 -17.298 13.392h-88.722q-6.138 0 -10.881 -3.906t-5.859 -9.486l-89.28 -343.728h-116.064q-7.812 0 -12.834 -5.022t-5.022 -12.834v-35.712q0 -7.812 5.022 -12.834t12.834 -5.022h97.65l-18.414 -71.424h-79.236q-7.812 0 -12.834 -5.022t-5.022 -12.834v-35.712q0 -7.812 5.022 -12.834t12.834 -5.022h60.822l-49.662 -191.952q-2.79 -8.37 2.79 -15.624 5.58 -6.696 14.508 -6.696h76.446q14.508 0 17.298 13.392l50.22 200.88h200.322l54.126 -200.88q3.906 -13.392 17.298 -13.392h70.308q13.392 0 17.298 13.392l54.684 200.88h203.67l51.894 -200.88q2.79 -13.392 17.298 -13.392h76.446q8.928 0 14.508 6.696 5.58 7.254 2.79 15.624l-50.778 191.952h61.938q7.812 0 12.834 5.022t5.022 12.834v35.712q0 7.812 -5.022 12.834t-12.834 5.022h-80.91l-18.972 71.424h99.882q7.812 0 12.834 5.022t5.022 12.834z"/></svg>