<svg height="1000" width="1000" xmlns="http://www.w3.org/2000/svg"><path d="M70.866 500.032q0 -90.954 37.386 -174.654l204.786 560.79q-109.368 -53.01 -175.77 -156.798t-66.402 -229.338zm718.704 -21.762q0 10.602 -1.395 21.483t-5.58 27.621 -6.417 24.552 -9.765 32.922 -9.765 32.364l-42.408 142.848 -155.124 -460.908q25.668 -1.674 49.104 -4.464 10.602 -1.116 14.508 -10.323t-1.395 -17.298 -15.903 -7.533l-114.39 5.58q-41.85 -.558 -112.716 -5.58 -6.696 -.558 -11.439 2.79t-6.417 8.37 -.837 10.323 5.022 9.207 10.881 4.464l44.64 4.464 66.96 183.024 -93.744 281.232 -156.24 -464.256q25.668 -1.674 49.104 -4.464 10.602 -1.116 14.508 -10.323t-1.395 -17.298 -15.903 -7.533l-114.39 5.58q-3.906 0 -12.834 -.279t-14.508 -.279q58.59 -89.28 153.171 -141.453t205.065 -52.173q82.026 0 156.519 29.574t133.083 83.142h-5.58q-30.69 0 -51.336 22.599t-20.646 53.289q0 6.696 1.116 13.392t2.232 11.997 4.464 12.834 5.022 11.718 6.696 12.555 6.975 11.718 8.091 13.392 7.812 12.834q35.154 59.706 35.154 118.296zm-282.348 59.148l132.246 361.026q.558 3.348 2.79 6.138 -70.308 24.552 -142.29 24.552 -62.496 0 -121.086 -17.856zm368.838 -243.288q53.01 97.092 53.01 205.902 0 116.622 -58.032 215.109t-155.682 155.403l131.13 -378.324q32.922 -94.302 32.922 -154.008 0 -23.436 -3.348 -44.082zm-376.092 -294.066q101.556 0 194.184 39.618t159.588 106.578 106.578 159.588 39.618 194.184 -39.618 194.184 -106.578 159.588 -159.588 106.578 -194.184 39.618 -194.184 -39.618 -159.588 -106.578 -106.578 -159.588 -39.618 -194.184 39.618 -194.184 106.578 -159.588 159.588 -106.578 194.184 -39.618zm0 977.058q96.534 0 184.977 -37.944t152.334 -101.835 101.835 -152.334 37.944 -184.977 -37.944 -184.977 -101.835 -152.334 -152.334 -101.835 -184.977 -37.944 -184.977 37.944 -152.334 101.835 -101.835 152.334 -37.944 184.977 37.944 184.977 101.835 152.334 152.334 101.835 184.977 37.944z"/></svg>