<svg height="1000" width="1000" xmlns="http://www.w3.org/2000/svg"><path d="M70.9 500q0 -91 37.4 -174.7l204.8 560.9Q203.7 833.1 137.3 729.4T70.9 500zm718.7 -21.8q0 10.6 -1.4 21.5t-5.6 27.6 -6.4 24.6 -9.7 32.9 -9.8 32.4L714.3 760 559.2 299.1q25.6 -1.7 49.1 -4.5 10.6 -1.1 14.5 -10.3T621.4 267t-15.9 -7.5l-114.4 5.6q-41.9 -.6 -112.8 -5.6 -6.6 -.6 -11.4 2.8t-6.4 8.3 -.8 10.4 5 9.2 10.9 4.4l44.6 4.5 67 183 -93.8 281.3L237.2 299.1q25.6 -1.7 49.1 -4.5 10.6 -1.1 14.5 -10.3T299.4 267t-15.9 -7.5l-114.4 5.6q-3.9 0 -12.8 -.3t-14.6 -.3Q200.3 175.2 294.9 123T500 70.9q82 0 156.5 29.5t133.1 83.2H784q-30.7 0 -51.3 22.6t-20.6 53.3q0 6.7 1.1 13.4t2.2 12 4.5 12.8 5 11.7 6.7 12.6 7 11.7 8.1 13.4 7.8 12.8q35.1 59.7 35.1 118.3zm-282.3 59.2l132.2 361q.6 3.4 2.8 6.2Q572 929.1 500 929.1q-62.5 0 -121.1 -17.8zM876.1 294.1q53 97.1 53 205.9 0 116.6 -58 215.1T715.4 870.5L846.5 492.2q33 -94.3 33 -154 0 -23.5 -3.4 -44.1zM500 0q101.6 0 194.2 39.6t159.6 106.6 106.6 159.6T1000 500t-39.6 194.2T853.8 853.8 694.2 960.4 500 1000 305.8 960.4 146.2 853.8 39.6 694.2 0 500 39.6 305.8 146.2 146.2 305.8 39.6 500 0zm0 977.1q96.5 0 185 -37.9T837.3 837.3 939.2 685t37.9 -185T939.2 315 837.3 162.7 685 60.8 500 22.9 315 60.8 162.7 162.7 60.8 315 22.9 500t37.9 185 101.9 152.3T315 939.2t185 37.9z"/></svg>