<svg height="1000" width="1000" xmlns="http://www.w3.org/2000/svg"><path d="M214.3 464.3h89.3v-125h-89.3v125zm467.1 185.3v-51.4q-58.1 20.1 -135.6 21.2 -75.4 .6 -144.9 -25.9t-123 -68.4l.6 53.6q49.1 44.6 118.3 71.7t151.7 26.5q72 0 132.9 -27.3zM357.1 464.3h357.2v-125H357.1v125zM1000 446.4q0 104.4 -55.2 196.5 49.6 56.9 49.6 127.7 0 87.7 -72.2 149.6t-175 61.9q-68.1 0 -125.5 -29.3t-89.9 -78.4q-10.6 .6 -31.8 .6t-31.8 -.6q-32.4 49.1 -89.9 78.4t-125.5 29.3q-102.7 0 -175 -61.9T5.6 770.6q0 -70.8 49.6 -127.7Q0 550.8 0 446.4 0 329.8 67 231.3t182.2 -156T500 17.9t250.8 57.4 182.2 156 67 215.1z"/></svg>