<svg height="1000" width="1000" xmlns="http://www.w3.org/2000/svg"><path d="M529 573.7l91 183.6h-28.5L493.9 561.9l-95.5 195.4h-27.3L471 548.5l-43.5 -18.4 11.7 -27.3 133.9 56.9 -11.7 27.9zM314.2 243.3l169.6 72.5 -72.5 169.7L241.6 412.9zm191.9 103.2l134 57.5 -57.5 133.4L449.2 480.5zm156.8 83.7l106.6 45.2 -45.7 106.1L617.7 536.3zM937.5 500q0 -88.7 -34.6 -169.6T809.4 190.6 669.6 97.1 500 62.5 330.4 97.1t-139.8 93.5T97.1 330.4 62.5 500t34.6 169.6 93.5 139.8 139.8 93.5T500 937.5t169.6 -34.6 139.8 -93.5 93.5 -139.8T937.5 500zm62.5 0q0 101.6 -39.6 194.2T853.8 853.8 694.2 960.4 500 1000 305.8 960.4 146.2 853.8 39.6 694.2 0 500 39.6 305.8 146.2 146.2 305.8 39.6 500 0t194.2 39.6 159.6 106.6 106.6 159.6T1000 500z"/></svg>