<svg height="1000" width="857.1" xmlns="http://www.w3.org/2000/svg"><path d="M287.4 508.4v71.4H146.8v-71.4h140.6zm0 -142.3v70.8H146.8v-70.8h140.6zm423 285.1v71.5H520.1v-71.5h190.3zm0 -142.8v71.4h-375v-71.4h375zm0 -142.3v70.8h-375v-70.8h375zM785.7 846V154q0 -4.4 -3.3 -7.8t-7.8 -3.3h-17.9L545.8 285.7 428.6 190.3l-117.2 95.4 -211 -142.8H82.6q-4.5 0 -7.8 3.3t-3.4 7.8v692q0 4.4 3.4 7.8t7.8 3.3h692q4.4 0 7.8 -3.3t3.3 -7.8zM308.6 226.6l103.2 -83.7H185.3zm239.9 0l123.4 -83.7H445.3zM857.1 154v692q0 34.6 -24 58.6t-58.5 24h-692q-34.6 0 -58.6 -24T0 846V154Q0 119.4 24 95.4t58.6 -24h692q34.6 0 58.5 24t24 58.6z"/></svg>