<svg height="1000px" width="928.5714285714286px" xmlns="http://www.w3.org/2000/svg">
  <g>
    <path d="M909.5982142857143 324.77678571428567c11.905 0 17.857 6.882 17.857 20.647c0 13.765 -4.278 33.11 -12.835 58.036c-17.485 49.851 -48.084 90.309 -91.797 121.373c-43.712 31.064 -91.796 46.596 -144.252 46.596c-68.824 0 -127.697 -24.461 -176.618 -73.382c-48.921 -48.921 -73.382 -107.794 -73.382 -176.618c0 -68.825 24.461 -127.697 73.382 -176.619c48.921 -48.921 107.794 -73.381 176.618 -73.381c21.578 0 44.178 3.069 67.802 9.207c23.623 6.139 43.619 14.788 59.988 25.949c5.953 4.092 8.929 9.301 8.929 15.625c0 6.324 -2.976 11.533 -8.929 15.625c0 0 -163.504 94.308 -163.504 94.308c0 0 0 125 0 125c0 0 107.701 59.71 107.701 59.71c1.86 -1.116 16.555 -10.231 44.085 -27.344c70.312 -43.155 108.631 -64.732 114.955 -64.732c0 0 0 0 0 0m-335.937 262.277c0 0 -380.581 380.58 -380.581 380.58c-13.765 13.765 -30.413 20.647 -49.944 20.647c-19.531 0 -36.551 -6.882 -51.06 -20.647c0 0 -59.152 -60.268 -59.152 -60.268c-14.137 -13.393 -21.205 -30.041 -21.205 -49.944c0 -19.903 7.068 -36.923 21.205 -51.06c0 0 380.022 -380.022 380.022 -380.022c14.509 36.458 35.808 68.731 63.895 96.819c28.088 28.087 60.361 49.386 96.82 63.895c0 0 0 0 0 0m-359.375 234.375c0 -9.673 -3.535 -18.043 -10.603 -25.112c-7.069 -7.068 -15.439 -10.602 -25.112 -10.602c-9.672 0 -18.043 3.534 -25.111 10.602c-7.069 7.069 -10.603 15.439 -10.603 25.112c0 9.672 3.534 18.043 10.603 25.111c7.068 7.069 15.439 10.603 25.111 10.603c9.673 0 18.043 -3.534 25.112 -10.603c7.068 -7.068 10.603 -15.439 10.603 -25.111c0 0 0 0 0 0" />
  </g>
</svg>