<svg height="1000px" width="777.83203125px" xmlns="http://www.w3.org/2000/svg">
  <g>
    <path d="M3.90625 756.8359375c0 -10.742 2.035 -20.915 6.104 -30.518c4.069 -9.602 9.684 -17.985 16.845 -25.146c0 0 297.363 -297.363 297.363 -297.363c-5.208 -21.485 -7.975 -41.341 -8.3 -59.571c0 -31.901 6.185 -62.256 18.554 -91.064c12.37 -28.809 29.053 -53.711 50.049 -74.707c20.996 -20.996 45.655 -37.679 73.975 -50.049c28.32 -12.37 58.431 -18.555 90.332 -18.555c30.599 0 60.14 5.86 88.623 17.578c28.483 11.719 53.629 28.158 75.439 49.317c0 0 -215.82 79.101 -215.82 79.101c0 0 -20.996 115.235 -20.996 115.235c0 0 89.844 74.707 89.844 74.707c0 0 216.308 -77.637 216.308 -77.637c-3.255 29.948 -11.474 57.78 -24.658 83.496c-13.183 25.716 -30.111 48.015 -50.781 66.895c-20.671 18.88 -44.271 33.691 -70.801 44.433c-26.53 10.743 -54.932 16.114 -85.205 16.114c-19.857 0 -40.527 -2.767 -62.012 -8.301c0 0 -295.898 296.387 -295.898 296.387c-15.3 15.299 -33.529 22.949 -54.688 22.949c-22.135 0 -40.853 -7.65 -56.152 -22.949c-7.487 -7.487 -15.706 -15.219 -24.658 -23.194c-8.952 -7.975 -17.416 -16.439 -25.391 -25.39c-7.975 -8.952 -14.648 -18.474 -20.019 -28.565c-5.371 -10.091 -8.057 -21.159 -8.057 -33.203c0 0 0 0 0 0m95.215 0c0 10.742 3.662 19.938 10.986 27.588c7.324 7.65 16.683 11.474 28.076 11.474c10.743 0 19.857 -3.824 27.344 -11.474c7.487 -7.65 11.231 -16.846 11.231 -27.588c0 -11.393 -3.825 -20.752 -11.475 -28.076c-7.65 -7.324 -16.683 -10.987 -27.1 -10.987c-11.393 0 -20.752 3.744 -28.076 11.231c-7.324 7.487 -10.986 16.764 -10.986 27.832c0 0 0 0 0 0" />
  </g>
</svg>