<svg height="1000" width="928.6" xmlns="http://www.w3.org/2000/svg"><path d="M214.3 821.4q0 -14.5 -10.6 -25.1t-25.1 -10.6 -25.1 10.6 -10.6 25.1 10.6 25.1 25.1 10.6 25.1 -10.6 10.6 -25.1zM573.7 587.1L193.1 967.6q-20.7 20.7 -50.2 20.7 -29.1 0 -50.8 -20.7L32.9 907.4Q11.7 887.3 11.7 857.1q0 -29.5 21.2 -50.7l380 -380.1q21.8 54.7 63.9 96.9t96.9 63.9zM927.5 344.3q0 21.8 -12.9 59.2 -26.2 74.7 -91.8 121.3t-144.2 46.6Q575.3 571.4 502 498T428.6 321.4 502 144.8 678.6 71.4q32.3 0 67.8 9.2t60 26q8.9 6.1 8.9 15.6t-8.9 15.6l-163.5 94.3v125l107.7 59.8q2.7 -1.7 44 -27.1t75.7 -45.2 39.3 -19.8q8.4 0 13.1 5.6t4.8 13.9z"/></svg>