<svg height="1000" width="928.571" xmlns="http://www.w3.org/2000/svg"><path d="M214.272 821.44q0 -14.508 -10.602 -25.11t-25.11 -10.602 -25.11 10.602 -10.602 25.11 10.602 25.11 25.11 10.602 25.11 -10.602 10.602 -25.11zm359.352 -234.36l-380.556 380.556q-20.646 20.646 -50.22 20.646 -29.016 0 -50.778 -20.646l-59.148 -60.264q-21.204 -20.088 -21.204 -50.22 0 -29.574 21.204 -50.778l379.998 -379.998q21.762 54.684 63.891 96.813t96.813 63.891zm353.772 -242.73q0 21.762 -12.834 59.148 -26.226 74.772 -91.791 121.365t-144.243 46.593q-103.23 0 -176.607 -73.377t-73.377 -176.607 73.377 -176.607 176.607 -73.377q32.364 0 67.797 9.207t59.985 25.947q8.928 6.138 8.928 15.624t-8.928 15.624l-163.494 94.302v124.992l107.694 59.706q2.79 -1.674 44.082 -27.063t75.609 -45.198 39.339 -19.809q8.37 0 13.113 5.58t4.743 13.95z"/></svg>