<svg height="1000" width="928.6" xmlns="http://www.w3.org/2000/svg"><path d="M11.7 857.2q0-29.6 21.2-50.8l380-380q21.8 54.7 63.9 96.8t96.8 63.9l-380.6 380.6q-20.6 20.6-50.2 20.6-29 0-50.8-20.6l-59.1-60.3q-21.2-20.1-21.2-50.2zm131.1-35.7q0 14.5 10.6 25.1t25.1 10.6 25.1-10.6 10.6-25.1-10.6-25.1-25.1-10.6-25.1 10.6-10.6 25.1zm285.7-500q0-103.2 73.4-176.6t176.6-73.4q32.4 0 67.8 9.2t60 25.9q8.9 6.1 8.9 15.6t-8.9 15.6l-163.5 94.3v125l107.7 59.7q2.8-1.7 44.1-27.1t75.6-45.2 39.3-19.8q8.4 0 13.1 5.6t4.7 14q0 21.8-12.8 59.1-26.2 74.8-91.8 121.4t-144.2 46.6q-103.2 0-176.6-73.4t-73.4-176.6z"/></svg>