<svg height="1000" width="857.143" xmlns="http://www.w3.org/2000/svg"><path d="M382.23 426.934q0 -.558 -70.308 -123.876 -11.718 -18.972 -29.016 -18.972h-102.672q-10.044 0 -14.508 6.138 -3.906 6.696 .558 16.182l69.75 120.528v.558l-109.368 193.068q-5.022 7.812 0 15.624 4.464 7.254 13.392 7.254h103.23q17.298 0 27.9 -20.088zm348.192 -277.326q-3.906 -6.696 -13.392 -6.696h-104.346q-16.74 0 -27.342 19.53l-229.338 406.782q.558 1.116 146.196 268.398 11.16 19.53 29.016 19.53h102.672q10.044 0 13.95 -6.696 4.464 -7.254 -.558 -15.624l-145.08 -265.608v-.558l228.222 -403.434q4.464 -8.928 0 -15.624zm126.666 82.584v535.68q0 66.402 -47.151 113.553t-113.553 47.151h-535.68q-66.402 0 -113.553 -47.151t-47.151 -113.553v-535.68q0 -66.402 47.151 -113.553t113.553 -47.151h535.68q66.402 0 113.553 47.151t47.151 113.553z"/></svg>