<svg height="1000" width="785.714" xmlns="http://www.w3.org/2000/svg"><path d="M333.126 372.25q-5.58 10.044 -143.406 254.448 -15.066 25.668 -36.27 25.668h-133.362q-11.718 0 -17.298 -9.486t0 -20.088l141.174 -249.984q.558 0 0 -.558l-89.838 -155.682q-6.696 -12.276 -.558 -20.646 5.022 -8.37 17.856 -8.37h133.362q22.32 0 36.828 25.11zm449.748 -358.236q6.138 8.928 0 20.646l-294.624 521.172v.558l187.488 343.17q6.138 11.16 .558 20.646 -5.58 8.37 -17.856 8.37h-133.362q-23.436 0 -36.828 -25.11l-189.162 -347.076q10.044 -17.856 296.298 -525.636 13.95 -25.11 35.712 -25.11h134.478q12.276 0 17.298 8.37z"/></svg>