<svg height="1000" width="857.1" xmlns="http://www.w3.org/2000/svg"><path d="M382.3 426.9q0 -.6 -70.4 -123.9 -11.7 -19 -29 -19H180.2q-10 0 -14.5 6.2 -3.9 6.7 .6 16.2L236 426.9v.6l-109.3 193q-5 7.8 0 15.7 4.4 7.2 13.4 7.2h103.2q17.3 0 27.9 -20.1zM730.5 149.6q-3.9 -6.7 -13.4 -6.7H612.7q-16.7 0 -27.3 19.5L356 569.2q.6 1.1 146.2 268.4 11.2 19.5 29.1 19.5h102.6q10.1 0 14 -6.7 4.4 -7.2 -.6 -15.6L502.2 569.2v-.6L730.5 165.2q4.4 -8.9 0 -15.6zm126.6 82.5v535.8q0 66.4 -47.1 113.5t-113.6 47.2H160.7q-66.4 0 -113.5 -47.2T0 767.9V232.1Q0 165.7 47.2 118.6T160.7 71.4h535.7q66.4 0 113.6 47.2t47.1 113.5z"/></svg>