<svg height="1000" width="857.143" xmlns="http://www.w3.org/2000/svg"><path d="M479.322 534.07l7.254 394.506q-34.596 -6.138 -58.59 -6.138 -22.878 0 -58.59 6.138l7.254 -394.506q-22.32 -38.502 -94.023 -164.889t-120.807 -208.971 -100.998 -160.146q32.364 8.37 60.264 8.37 23.994 0 61.938 -8.37 35.154 61.938 74.493 128.061t93.186 154.287 77.283 126.666q20.646 -34.038 61.101 -99.045t65.565 -106.02 58.59 -98.208 59.706 -105.741q30.132 7.812 59.706 7.812 31.248 0 63.612 -7.812 -15.624 21.762 -33.48 49.383t-27.621 43.803 -31.527 53.568 -27.342 46.872q-81.468 138.384 -196.974 340.38z"/></svg>