<svg height="1000" width="857.1" xmlns="http://www.w3.org/2000/svg"><path d="M431.4 736v70.9q-.6 163 -3.4 170.2 -6.7 17.9 -28.4 22.3 -30.2 5.1 -101.3 -21.2t-90.7 -49.6q-7.3 -8.4 -9.5 -20.1 -.6 -6.7 2.2 -14.5 2.3 -5.6 19 -26.3t101 -120.5q.6 0 33.5 -39.1 8.4 -10.6 22 -13.6t27.7 1.9q13.4 5.6 20.9 16.2t7 23.4zM348.2 596q-1.7 30.7 -29 39l-67 21.8Q98.8 705.9 89.3 705.9 69.8 704.8 59.2 685.8 52.5 671.9 49.7 644q-4.5 -42.4 .5 -92.9T67 481.6t31.2 -17.9q7.3 0 112.7 43 39.1 16.2 64.2 26.2l46.9 19q12.8 5 19.8 17t6.4 27.1zm461 165.7q-4 30.2 -51.1 89.9t-75.6 70.8q-20.7 7.8 -35.2 -3.9 -7.8 -5.6 -102.7 -160.1l-26.2 -43q-7.8 -11.7 -6.4 -25.7t10.9 -25.6q19.5 -24 46.3 -14.5 .6 .5 66.4 22.3 113.3 36.8 135 44.3t26.3 11.5q15.6 12.3 12.3 34zM434.2 409q2.7 57 -30.2 68.1 -32.3 9.5 -63.6 -39.6L129.5 103.8Q125 84.3 140.1 69.2q22.8 -24 115.8 -49.9T381.1 1.7q22.4 5.6 27.4 25.1 1.7 10 12.3 170.5T434.2 409zm369.4 60.3q1.6 21.8 -14.5 32.9 -8.4 5.6 -183.6 48 -37.4 8.4 -50.8 12.9l.5 -1.2q-12.8 3.4 -25.6 -2.2t-20.7 -17.8q-16.7 -26.3 0 -48.6 .6 -.6 41.9 -56.9Q620.5 341 634.5 322.5t19 -21.7q15.6 -10.6 36.2 -1.1 26.8 12.8 68.7 74.5t45.2 93.4v1.7z"/></svg>