<svg height="1000" width="857.143" xmlns="http://www.w3.org/2000/svg"><path d="M431.334 736.066v70.866q-.558 162.936 -3.348 170.19 -6.696 17.856 -28.458 22.32 -30.132 5.022 -101.277 -21.204t-90.675 -49.662q-7.254 -8.37 -9.486 -20.088 -.558 -6.696 2.232 -14.508 2.232 -5.58 18.972 -26.226t100.998 -120.528q.558 0 33.48 -39.06 8.37 -10.602 22.041 -13.671t27.621 1.953q13.392 5.58 20.925 16.182t6.975 23.436zm-83.142 -140.058q-1.674 30.69 -29.016 39.06l-66.96 21.762q-153.45 49.104 -162.936 49.104 -19.53 -1.116 -30.132 -20.088 -6.696 -13.95 -9.486 -41.85 -4.464 -42.408 .558 -92.907t16.74 -69.471 31.248 -17.856q7.254 0 112.716 42.966 39.06 16.182 64.17 26.226l46.872 18.972q12.834 5.022 19.809 17.019t6.417 27.063zm460.908 165.726q-3.906 30.132 -51.057 89.838t-75.609 70.866q-20.646 7.812 -35.154 -3.906 -7.812 -5.58 -102.672 -160.146l-26.226 -42.966q-7.812 -11.718 -6.417 -25.668t10.881 -25.668q19.53 -23.994 46.314 -14.508 .558 .558 66.402 22.32 113.274 36.828 135.036 44.361t26.226 11.439q15.624 12.276 12.276 34.038zm-374.976 -352.656q2.79 56.916 -30.132 68.076 -32.364 9.486 -63.612 -39.618l-210.924 -333.684q-4.464 -19.53 10.602 -34.596 22.878 -23.994 115.785 -49.941t125.271 -17.577q22.32 5.58 27.342 25.11 1.674 10.044 12.276 170.469t13.392 211.761zm369.396 60.264q1.674 21.762 -14.508 32.922 -8.37 5.58 -183.582 47.988 -37.386 8.37 -50.778 12.834l.558 -1.116q-12.834 3.348 -25.668 -2.232t-20.646 -17.856q-16.74 -26.226 0 -48.546 .558 -.558 41.85 -56.916 69.75 -95.418 83.7 -113.832t18.972 -21.762q15.624 -10.602 36.27 -1.116 26.784 12.834 68.634 74.493t45.198 93.465v1.674z"/></svg>