<svg height="1000" width="573.103" xmlns="http://www.w3.org/2000/svg"><path d="M336.474 857.152h-95.976q-7.254 0 -12.555 -5.022t-5.301 -12.834v-184.14h-160.704q-7.254 0 -12.555 -5.022t-5.301 -12.834v-57.474q0 -7.254 5.301 -12.555t12.555 -5.301h160.704v-47.43h-160.704q-7.254 0 -12.555 -5.022t-5.301 -12.834v-58.032q0 -7.254 5.301 -12.555t12.555 -5.301h119.412l-179.118 -322.524q-4.464 -8.928 0 -17.856 5.58 -8.928 15.624 -8.928h108.252q10.602 0 16.182 10.044l119.97 237.15q10.602 21.204 31.248 69.75 5.58 -13.392 17.019 -37.944t15.345 -34.038l106.578 -234.36q4.464 -10.602 16.182 -10.602h106.578q9.486 0 15.066 8.928 5.022 7.812 .558 17.298l-174.654 323.082h119.97q7.254 0 12.555 5.301t5.301 12.555v58.032q0 7.812 -5.301 12.834t-12.555 5.022h-161.82v47.43h161.82q7.254 0 12.555 5.301t5.301 12.555v57.474q0 7.812 -5.301 12.834t-12.555 5.022h-161.82v184.14q0 7.254 -5.301 12.555t-12.555 5.301z"/></svg>