<svg height="1000" width="573.1" xmlns="http://www.w3.org/2000/svg"><path d="M336.5 857.1h-96q-7.2 0 -12.5 -5t-5.3 -12.8V655.1H61.9q-7.2 0 -12.5 -5t-5.3 -12.8v-57.5q0 -7.3 5.3 -12.6t12.5 -5.3h160.8v-47.4H61.9q-7.2 0 -12.5 -5t-5.3 -12.8v-58.1q0 -7.2 5.3 -12.5t12.5 -5.3h119.5L2.2 98.2q-4.4 -8.9 0 -17.8 5.6 -9 15.7 -9h108.2q10.6 0 16.2 10.1l120 237.1q10.6 21.2 31.2 69.8 5.6 -13.4 17 -38t15.4 -34L432.5 82q4.4 -10.6 16.2 -10.6h106.5q9.5 0 15.1 9 5 7.8 .6 17.3L396.2 420.8h120q7.2 0 12.5 5.3t5.3 12.5v58.1q0 7.8 -5.3 12.8t-12.5 5H354.4v47.4h161.8q7.2 0 12.5 5.3t5.3 12.6v57.5q0 7.8 -5.3 12.8t-12.5 5H354.4v184.2q0 7.2 -5.3 12.5t-12.6 5.3z"/></svg>