<svg height="1000" width="928.6" xmlns="http://www.w3.org/2000/svg"><path d="M189.2 121.7h385.6l-14.5 40.1H189.2q-61.4 0 -105.2 44.1T40.2 311.4v430.2q0 53 33.7 94.6t85.7 52.2q12.8 2.8 54.7 2.8v40.2h-25.1q-78.2 0 -133.7 -55.8T0 741.6V311.4Q0 233.3 55.5 177.5t133.7 -55.8zM664.1 0h137.8l-269 722.1q-12.8 34 -22.6 57.8t-25.1 54.6 -30.1 52.2 -36 43.8 -44.4 36.3 -53.3 22.9 -64.7 10.3V891.2q91 -14.5 122.8 -101.6 11.1 -29 11.1 -58.6 0 -30.1 -11.1 -59.1L220.4 262.8h127.3L452 589.3zm264.5 311.4v620H484.9q20.7 -30.7 25.1 -40.8h378.4V311.4q0 -47.4 -27.6 -86.5t-72.3 -55.3l14 -37.3q56.3 18.9 91.2 68.9t34.9 110.2z"/></svg>