<svg height="1000" width="857.143" xmlns="http://www.w3.org/2000/svg"><path d="M512.802 727.138v-87.606q0 -27.9 -16.182 -27.9 -9.486 0 -18.414 8.928v124.992q8.928 8.928 18.414 8.928 16.182 0 16.182 -27.342zm102.672 -68.076h36.828v-18.972q0 -28.458 -18.414 -28.458t-18.414 28.458v18.972zm-318.618 -148.428v39.06h-44.64v236.034h-41.292v-236.034h-43.524v-39.06h129.456zm112.158 70.308v204.786h-37.386v-22.32q-21.762 25.11 -42.408 25.11 -18.414 0 -23.436 -15.624 -3.348 -8.928 -3.348 -30.132v-161.82h36.828v150.66q0 13.392 .558 14.508 .558 8.37 8.37 8.37 11.16 0 23.436 -17.298v-156.24h37.386zm140.616 61.938v81.468q0 29.016 -3.906 40.734 -6.696 23.436 -29.574 23.436 -19.53 0 -37.944 -22.878v20.088h-37.386v-275.094h37.386v89.838q17.856 -22.32 37.944 -22.32 22.878 0 29.574 23.436 3.906 11.718 3.906 41.292zm140.058 71.982v5.022q0 16.182 -1.116 23.994 -1.674 12.276 -8.37 22.32 -15.066 22.32 -44.64 22.32 -29.016 0 -45.198 -21.204 -11.718 -15.066 -11.718 -47.988v-71.982q0 -32.922 11.16 -47.988 16.182 -21.204 44.64 -21.204t43.524 21.204q11.718 15.624 11.718 47.988v42.408h-74.214v36.27q0 28.458 18.972 28.458 13.392 0 16.74 -14.508 0 -.558 .279 -3.906t.279 -9.207v-11.997h37.944zm-251.658 -459.792v87.048q0 28.458 -17.856 28.458t-17.856 -28.458v-87.048q0 -29.016 17.856 -29.016t17.856 29.016zm297.414 397.854q0 -98.766 -10.602 -145.08 -5.58 -24.552 -23.994 -41.013t-42.408 -19.251q-75.888 -8.37 -229.896 -8.37 -153.45 0 -229.338 8.37 -24.552 2.79 -42.687 19.251t-23.715 41.013q-11.16 48.546 -11.16 145.08 0 98.208 11.16 145.08 5.58 23.994 23.715 40.734t42.129 19.53q76.446 8.37 229.896 8.37t229.896 -8.37q23.994 -2.79 42.129 -19.53t23.715 -40.734q11.16 -46.872 11.16 -145.08zm-421.29 -363.258l50.22 -165.168h-41.85l-28.458 108.81 -29.574 -108.81h-43.524l13.392 38.502t12.834 38.502q19.53 57.474 25.668 88.164v112.158h41.292v-112.158zm161.262 45.198v-72.54q0 -32.364 -11.718 -48.546 -16.182 -21.204 -43.524 -21.204 -28.458 0 -43.524 21.204 -11.718 16.182 -11.718 48.546v72.54q0 32.364 11.718 48.546 15.066 21.204 43.524 21.204 27.342 0 43.524 -21.204 11.718 -15.066 11.718 -48.546zm100.998 66.96h37.386v-206.46h-37.386v157.914q-12.276 17.298 -23.436 17.298 -8.37 0 -8.928 -8.928 -.558 -1.116 -.558 -14.508v-151.776h-37.386v163.494q0 20.646 3.348 30.69 6.138 15.066 23.994 15.066 20.088 0 42.966 -25.11v22.32zm280.674 -169.632v535.68q0 66.402 -47.151 113.553t-113.553 47.151h-535.68q-66.402 0 -113.553 -47.151t-47.151 -113.553v-535.68q0 -66.402 47.151 -113.553t113.553 -47.151h535.68q66.402 0 113.553 47.151t47.151 113.553z"/></svg>