<svg height="1000" width="857.1" xmlns="http://www.w3.org/2000/svg"><path d="M512.8 727.1v-87.6q0 -27.9 -16.1 -27.9 -9.5 0 -18.5 8.9v125q9 9 18.5 9 16.1 0 16.1 -27.4zM615.5 659h36.8v-18.9q0 -28.5 -18.4 -28.5t-18.4 28.5V659zM296.9 510.6v39.1h-44.7v236h-41.3v-236h-43.5v-39.1h129.5zM409 580.9v204.8h-37.3v-22.3q-21.8 25.1 -42.5 25.1 -18.4 0 -23.4 -15.6 -3.3 -8.9 -3.3 -30.2V580.9h36.8v150.7q0 13.4 .5 14.5 .6 8.4 8.4 8.4 11.2 0 23.5 -17.3V580.9H409zm140.7 62v81.4q0 29 -3.9 40.8 -6.7 23.4 -29.6 23.4 -19.5 0 -38 -22.9v20.1h-37.4V510.6h37.4v89.8q17.9 -22.3 38 -22.3 22.9 0 29.6 23.5 3.9 11.7 3.9 41.3zm140 71.9v5.1q0 16.1 -1.1 24 -1.7 12.2 -8.4 22.3 -15 22.3 -44.6 22.3 -29 0 -45.2 -21.2 -11.7 -15.1 -11.7 -48v-72q0 -32.9 11.1 -48 16.2 -21.2 44.7 -21.2t43.5 21.2q11.7 15.7 11.7 48v42.4h-74.2V726q0 28.5 19 28.5 13.4 0 16.7 -14.5 0 -.6 .3 -4t.3 -9.2v-12h37.9zM438.1 255v87.1q0 28.4 -17.9 28.4t-17.9 -28.4V255q0 -29 17.9 -29t17.9 29zm297.4 397.9q0 -98.8 -10.6 -145.1 -5.6 -24.5 -24 -41t-42.4 -19.3q-75.9 -8.3 -229.9 -8.3 -153.5 0 -229.4 8.3 -24.5 2.8 -42.7 19.3t-23.7 41q-11.1 48.6 -11.1 145.1 0 98.2 11.1 145.1 5.6 24 23.7 40.7t42.2 19.6q76.4 8.3 229.9 8.3t229.9 -8.3q24 -2.8 42.1 -19.6T724.3 798q11.2 -46.9 11.2 -145.1zM314.2 289.6l50.2 -165.2h-41.9l-28.4 108.9L264.5 124.4H221l13.4 38.5t12.8 38.6q19.5 57.4 25.7 88.1v112.2h41.3V289.6zm161.2 45.2v-72.5q0 -32.4 -11.7 -48.6 -16.2 -21.2 -43.5 -21.2 -28.5 0 -43.5 21.2Q365 229.9 365 262.3v72.5q0 32.4 11.7 48.6 15 21.2 43.5 21.2 27.3 0 43.5 -21.2 11.7 -15.1 11.7 -48.6zm101.1 67h37.3V195.3h-37.3v157.9q-12.3 17.3 -23.5 17.3 -8.4 0 -8.9 -8.9 -.6 -1.1 -.6 -14.5V195.3h-37.4v163.5q0 20.7 3.4 30.7 6.1 15.1 24 15.1 20.1 0 43 -25.1v22.3zM857.1 232.1v535.8q0 66.4 -47.1 113.5t-113.6 47.2H160.7q-66.4 0 -113.5 -47.2T0 767.9V232.1Q0 165.7 47.2 118.6T160.7 71.4h535.7q66.4 0 113.6 47.2t47.1 113.5z"/></svg>