<svg height="1000" width="1000" xmlns="http://www.w3.org/2000/svg"><path d="M396.8 629.5L666.9 490 396.8 348.8v280.7zM500 148.4q93.8 0 181.1 2.5t128.1 5.4l40.7 2.2q.5 0 9.5 .8t12.8 1.7 13.1 2.5 15.9 4.5 15.7 7.2 17.3 10.9 16.1 14.8q3.4 3.3 8.7 10.3t16.2 32.7 14.8 56.3q4.4 35.7 6.9 76.2t3.1 63.3V537.9q.6 81 -10 161.9 -4 30.7 -14 55.5t-17.9 34.3l-7.8 9.5q-7.8 8.4 -16.1 14.8t-17.3 10.6 -15.7 7 -15.9 4.4 -13.4 2.5 -12.8 1.7 -9.2 .9Q709.8 851.6 500 851.6q-115.5 -1.2 -200.6 -3.7t-111.9 -4.2l-27.3 -2.2 -20.1 -2.2q-20.1 -2.8 -30.4 -5.6T81.2 822 49.7 799.1Q46.3 795.8 41 788.8T24.8 756.1 10 699.8Q5.6 664.1 3.1 623.6T0 560.3V462.1q-.6 -81 10 -161.9 4 -30.7 14 -55.5t17.9 -34.3l7.8 -9.5q7.8 -8.4 16.1 -14.8t17.3 -10.9T98.8 168t15.9 -4.5 13.1 -2.5 12.8 -1.7 9.5 -.8Q290.2 148.4 500 148.4z"/></svg>