<svg height="1000" width="1000" xmlns="http://www.w3.org/2000/svg"><path d="M714.3 500q0 -20.6 -16.8 -30.1L411.8 291.3q-17.3 -11.2 -36.2 -1.1 -18.5 10 -18.5 31.2v357.2q0 21.2 18.5 31.2 8.9 4.5 17.3 4.5 11.1 0 18.9 -5.6L697.5 530.1q16.8 -9.5 16.8 -30.1zm285.7 0q0 53.6 -.6 83.7t-4.7 76.2 -12.6 82.3q-8.9 40.7 -38.5 68.6t-69.2 32.4Q750.6 857.1 500 857.1T125.6 843.2Q85.9 838.7 56.1 810.8T17.3 742.2Q9.5 705.9 5.3 659.9T.6 583.7 0 500t.6 -83.7 4.7 -76.2 12.6 -82.3q8.9 -40.7 38.5 -68.6t69.2 -32.4Q249.4 142.9 500 142.9t374.4 13.9q39.7 4.5 69.5 32.4t38.8 68.6q7.8 36.3 12 82.3t4.7 76.2 .6 83.7z"/></svg>