<svg height="1000" width="857.143" xmlns="http://www.w3.org/2000/svg"><path d="M541.818 694.216v117.738q0 37.386 -21.762 37.386 -12.834 0 -25.11 -12.276v-167.958q12.276 -12.276 25.11 -12.276 21.762 0 21.762 37.386zm188.604 .558v25.668h-50.22v-25.668q0 -37.944 25.11 -37.944t25.11 37.944zm-539.028 -121.644h59.706v-52.452h-174.096v52.452h58.59v317.502h55.8v-317.502zm160.704 317.502h49.662v-275.652h-49.662v210.924q-16.74 23.436 -31.806 23.436 -10.044 0 -11.718 -11.718 -.558 -1.674 -.558 -19.53v-203.112h-49.662v218.178q0 27.342 4.464 40.734 6.696 20.646 32.364 20.646 26.784 0 56.916 -34.038v30.132zm239.382 -82.584v-109.926q0 -40.734 -5.022 -55.242 -9.486 -31.248 -39.618 -31.248 -27.9 0 -51.894 30.132v-121.086h-49.662v369.954h49.662v-26.784q25.11 30.69 51.894 30.69 30.132 0 39.618 -30.69 5.022 -15.066 5.022 -55.8zm188.604 -5.58v-7.254h-50.778q0 28.458 -1.116 34.038 -3.906 20.088 -22.32 20.088 -25.668 0 -25.668 -38.502v-48.546h99.882v-57.474q0 -44.082 -15.066 -64.728 -21.762 -28.458 -59.148 -28.458 -37.944 0 -59.706 28.458 -15.624 20.646 -15.624 64.728v96.534q0 44.082 16.182 64.728 21.762 28.458 60.264 28.458 40.176 0 60.264 -29.574 10.044 -15.066 11.718 -30.132 1.116 -5.022 1.116 -32.364zm-339.264 -509.454v-117.18q0 -38.502 -23.994 -38.502t-23.994 38.502v117.18q0 39.06 23.994 39.06t23.994 -39.06zm401.202 419.058q0 130.572 -14.508 195.3 -7.812 32.922 -32.364 55.242t-56.916 25.668q-102.672 11.718 -309.69 11.718t-309.69 -11.718q-32.364 -3.348 -57.195 -25.668t-32.085 -55.242q-14.508 -62.496 -14.508 -195.3 0 -130.572 14.508 -195.3 7.812 -32.922 32.364 -55.242t57.474 -26.226q102.114 -11.16 309.132 -11.16t309.69 11.16q32.364 3.906 57.195 26.226t32.085 55.242q14.508 62.496 14.508 195.3zm-556.884 -712.008h56.916l-67.518 222.642v151.218h-55.8v-151.218q-7.812 -41.292 -34.038 -118.296 -20.646 -57.474 -36.27 -104.346h59.148l39.618 146.754zm206.46 185.814v97.65q0 45.198 -15.624 65.844 -20.646 28.458 -59.148 28.458 -37.386 0 -58.59 -28.458 -15.624 -21.204 -15.624 -65.844v-97.65q0 -44.64 15.624 -65.286 21.204 -28.458 58.59 -28.458 38.502 0 59.148 28.458 15.624 20.646 15.624 65.286zm186.93 -90.396v278.442h-50.778v-30.69q-29.574 34.596 -57.474 34.596 -25.668 0 -32.922 -20.646 -4.464 -13.392 -4.464 -41.85v-219.852h50.778v204.786q0 18.414 .558 19.53 1.674 12.276 11.718 12.276 15.066 0 31.806 -23.994v-212.598h50.778z"/></svg>