<svg height="1000px" width="779.78515625px" xmlns="http://www.w3.org/2000/svg">
  <g>
    <path d="M0 435.177534352988c0 -44.596 8.464 -86.589 25.391 -125.977c16.927 -39.388 40.283 -73.893 70.068 -103.515c29.785 -29.623 64.29 -52.979 103.516 -70.069c39.225 -17.089 81.298 -25.634 126.22 -25.634c44.597 0 86.752 8.545 126.465 25.634c39.714 17.09 74.219 40.446 103.516 70.069c29.297 29.622 52.409 64.127 69.336 103.515c16.927 39.388 25.39 81.381 25.39 125.977c0 33.203 -4.638 65.023 -13.916 95.459c-9.277 30.436 -22.542 58.187 -39.795 83.252c0 0 174.805 175.293 174.805 175.293c5.859 5.859 8.789 13.346 8.789 22.461c0 9.114 -2.93 16.927 -8.789 23.437c0 0 -45.898 45.899 -45.898 45.899c-6.511 5.859 -14.323 8.87 -23.438 9.033c-9.114 0.163 -16.601 -2.848 -22.461 -9.033c0 0 -175.293 -174.805 -175.293 -174.805c-25.39 17.253 -53.222 30.518 -83.496 39.795c-30.273 9.277 -62.012 13.916 -95.215 13.916c-44.596 0 -86.588 -8.464 -125.976 -25.391c-39.388 -16.927 -73.975 -40.039 -103.76 -69.336c-29.785 -29.296 -53.141 -63.639 -70.068 -103.027c-16.927 -39.388 -25.391 -81.706 -25.391 -126.953c0 0 0 0 0 0m129.883 0c0 27.344 5.208 52.816 15.625 76.416c10.416 23.6 24.414 44.108 41.992 61.523c17.578 17.416 38.249 31.25 62.012 41.504c23.763 10.254 48.991 15.381 75.683 15.381c26.693 0 52.002 -5.127 75.928 -15.381c23.926 -10.254 44.515 -24.088 61.768 -41.504c17.252 -17.415 31.087 -37.923 41.504 -61.523c10.416 -23.6 15.625 -49.072 15.625 -76.416c0 -26.693 -5.209 -51.839 -15.625 -75.439c-10.417 -23.601 -24.252 -44.271 -41.504 -62.012c-17.253 -17.741 -37.842 -31.738 -61.768 -41.992c-23.926 -10.254 -49.235 -15.381 -75.928 -15.381c-26.692 0 -51.92 5.127 -75.683 15.381c-23.763 10.254 -44.434 24.251 -62.012 41.992c-17.578 17.741 -31.576 38.411 -41.992 62.012c-10.417 23.6 -15.625 48.746 -15.625 75.439c0 0 0 0 0 0m64.941 16.113c0 0 0 -32.226 0 -32.226c0 -10.742 5.371 -16.114 16.113 -16.114c0 0 82.032 0 82.032 0c0 0 0 -82.031 0 -82.031c0 -10.742 5.371 -15.95 16.113 -15.625c0 0 31.738 0 31.738 0c4.558 0 8.545 1.465 11.963 4.395c3.418 2.929 5.127 6.673 5.127 11.23c0 0 0 82.031 0 82.031c0 0 81.055 0 81.055 0c10.742 0 16.113 5.372 16.113 16.114c0 0 0 32.226 0 32.226c0 4.558 -1.546 8.464 -4.639 11.719c-3.092 3.255 -6.917 4.883 -11.474 4.883c0 0 -81.055 0 -81.055 0c0 0 0 81.055 0 81.055c0 4.557 -1.627 8.382 -4.883 11.474c-3.255 3.093 -7.324 4.639 -12.207 4.639c0 0 -31.738 0 -31.738 0c-10.742 0 -16.113 -5.371 -16.113 -16.113c0 0 0 -81.055 0 -81.055c0 0 -82.032 0 -82.032 0c-4.557 0 -8.382 -1.628 -11.474 -4.883c-3.093 -3.255 -4.639 -7.161 -4.639 -11.719c0 0 0 0 0 0" />
  </g>
</svg>