<svg height="1000" width="928.6" xmlns="http://www.w3.org/2000/svg"><path d="M571.4 446.4v35.7q0 7.3 -5.3 12.6t-12.5 5.3H232.1q-7.2 0 -12.5 -5.3t-5.3 -12.6v-35.7q0 -7.2 5.3 -12.5t12.5 -5.3h321.5q7.2 0 12.5 5.3t5.3 12.5zm71.5 17.9q0 -103.3 -73.4 -176.6T392.9 214.3t-176.7 73.4 -73.3 176.6 73.3 176.6 176.7 73.4 176.6 -73.4 73.4 -176.6zm285.7 464.3q0 29.5 -21 50.5t-50.5 20.9q-30.1 0 -50.2 -21.2L615.5 787.9q-99.9 69.2 -222.6 69.2 -79.8 0 -152.7 -30.9T114.7 742.5 31 616.9 0 464.3 31 311.7t83.7 -125.6 125.5 -83.7 152.7 -31 152.6 31T671 186.1t83.7 125.6 31 152.6q0 122.8 -69.2 222.6l191.4 191.4q20.7 20.7 20.7 50.3z"/></svg>