<svg height="1000" width="928.6" xmlns="http://www.w3.org/2000/svg"><path d="M0 464.3q0-79.8 31-152.6t83.7-125.6 125.6-83.7 152.6-31 152.6 31 125.6 83.7 83.7 125.6 31 152.6q0 122.8-69.2 222.6l191.4 191.4q20.6 20.6 20.6 50.2t-20.9 50.5-50.5 20.9q-30.1 0-50.2-21.2l-191.4-190.8q-99.9 69.2-222.6 69.2-79.8 0-152.6-31t-125.6-83.7-83.7-125.6-31-152.6zm142.8 0q0 103.2 73.4 176.6t176.6 73.4 176.6-73.4 73.4-176.6-73.4-176.6-176.6-73.4-176.6 73.4-73.4 176.6zm71.4 17.9v-35.7q0-7.3 5.3-12.6t12.6-5.3h125v-125q0-7.3 5.3-12.6t12.6-5.3h35.7q7.3 0 12.6 5.3t5.3 12.6v125h125q7.3 0 12.6 5.3t5.3 12.6v35.7q0 7.3-5.3 12.6t-12.6 5.3h-125v125q0 7.3-5.3 12.6t-12.6 5.3h-35.7q-7.3 0-12.6-5.3t-5.3-12.6v-125h-125q-7.3 0-12.6-5.3t-5.3-12.6z"/></svg>