<svg height="1000px" width="750px" xmlns="http://www.w3.org/2000/svg">
  <g>
    <path d="M0 438c0 -43.333 8.167 -84 24.5 -122c16.333 -38 38.667 -71.167 67 -99.5c28.333 -28.333 61.5 -50.667 99.5 -67c38 -16.333 78.667 -24.5 122 -24.5c42.667 0 83 8.167 121 24.5c38 16.333 71.167 38.667 99.5 67c28.333 28.333 50.667 61.5 67 99.5c16.333 38 24.5 78.667 24.5 122c0 32 -4.5 62.333 -13.5 91c-9 28.667 -21.833 55.667 -38.5 81c0 0 168 167 168 167c6 6.667 9 14.333 9 23c0 8.667 -3 16 -9 22c0 0 -44 44 -44 44c-6 6 -13.333 9 -22 9c-8.667 0 -16 -3 -22 -9c0 0 -168 -168 -168 -168c-25.333 16.667 -52.333 29.5 -81 38.5c-28.667 9 -59 13.5 -91 13.5c-43.333 0 -84 -8.167 -122 -24.5c-38 -16.333 -71.167 -38.667 -99.5 -67c-28.333 -28.333 -50.667 -61.333 -67 -99c-16.333 -37.667 -24.5 -78.167 -24.5 -121.5c0 0 0 0 0 0m125 0c0 26 4.833 50.333 14.5 73c9.667 22.667 23 42.5 40 59.5c17 17 37 30.333 60 40c23 9.667 47.5 14.5 73.5 14.5c26 0 50.333 -4.833 73 -14.5c22.667 -9.667 42.5 -23 59.5 -40c17 -17 30.333 -36.833 40 -59.5c9.667 -22.667 14.5 -47 14.5 -73c0 -26 -4.833 -50.333 -14.5 -73c-9.667 -22.667 -23 -42.5 -40 -59.5c-17 -17 -36.833 -30.5 -59.5 -40.5c-22.667 -10 -47 -15 -73 -15c-26 0 -50.5 5 -73.5 15c-23 10 -43 23.5 -60 40.5c-17 17 -30.333 36.833 -40 59.5c-9.667 22.667 -14.5 47 -14.5 73c0 0 0 0 0 0m63 15c0 0 0 -31 0 -31c0 -4.667 1.5 -8.5 4.5 -11.5c3 -3 6.5 -4.5 10.5 -4.5c0 0 78 0 78 0c0 0 0 -78 0 -78c0 -4 1.5 -7.5 4.5 -10.5c3 -3 6.833 -4.5 11.5 -4.5c0 0 31 0 31 0c4.667 0 8.5 1.5 11.5 4.5c3 3 4.5 6.5 4.5 10.5c0 0 0 78 0 78c0 0 78 0 78 0c10.667 0 16 5.333 16 16c0 0 0 31 0 31c0 10.667 -5.333 16 -16 16c0 0 -78 0 -78 0c0 0 0 78 0 78c0 10.667 -5.333 16 -16 16c0 0 -31 0 -31 0c-10.667 0 -16 -5.333 -16 -16c0 0 0 -78 0 -78c0 0 -78 0 -78 0c-4 0 -7.5 -1.5 -10.5 -4.5c-3 -3 -4.5 -6.833 -4.5 -11.5c0 0 0 0 0 0" />
  </g>
</svg>