<svg height="1000" width="928.571" xmlns="http://www.w3.org/2000/svg"><path d="M571.392 446.464v35.712q0 7.254 -5.301 12.555t-12.555 5.301h-321.408q-7.254 0 -12.555 -5.301t-5.301 -12.555v-35.712q0 -7.254 5.301 -12.555t12.555 -5.301h321.408q7.254 0 12.555 5.301t5.301 12.555zm71.424 17.856q0 -103.23 -73.377 -176.607t-176.607 -73.377 -176.607 73.377 -73.377 176.607 73.377 176.607 176.607 73.377 176.607 -73.377 73.377 -176.607zm285.696 464.256q0 29.574 -20.925 50.499t-50.499 20.925q-30.132 0 -50.22 -21.204l-191.394 -190.836q-99.882 69.192 -222.642 69.192 -79.794 0 -152.613 -30.969t-125.55 -83.7 -83.7 -125.55 -30.969 -152.613 30.969 -152.613 83.7 -125.55 125.55 -83.7 152.613 -30.969 152.613 30.969 125.55 83.7 83.7 125.55 30.969 152.613q0 122.76 -69.192 222.642l191.394 191.394q20.646 20.646 20.646 50.22z"/></svg>