<svg height="1000px" width="928.5714285714286px" xmlns="http://www.w3.org/2000/svg">
  <g>
    <path d="M928.5714285714286 928.5714285714286c0 19.717 -6.975 36.551 -20.926 50.502c-13.579 13.951 -30.413 20.927 -50.503 20.927c-20.089 0 -36.83 -7.069 -50.223 -21.206c0 0 -191.406 -190.848 -191.406 -190.848c-66.592 46.131 -140.811 69.196 -222.656 69.196c-53.2 0 -104.074 -10.323 -152.623 -30.971c-48.549 -20.647 -90.402 -48.549 -125.558 -83.705c-35.156 -35.156 -63.058 -77.009 -83.705 -125.558c-20.648 -48.549 -30.971 -99.423 -30.971 -152.623c0 -53.199 10.323 -104.073 30.971 -152.622c20.647 -48.55 48.549 -90.402 83.705 -125.559c35.156 -35.156 77.009 -63.058 125.558 -83.705c48.549 -20.647 99.423 -30.971 152.623 -30.971c53.199 0 104.073 10.324 152.622 30.971c48.55 20.647 90.402 48.549 125.559 83.705c35.156 35.157 63.058 77.009 83.705 125.559c20.647 48.549 30.971 99.423 30.971 152.622c0 81.846 -23.066 156.064 -69.197 222.657c0 0 191.407 191.406 191.407 191.406c13.765 13.765 20.647 30.506 20.647 50.223c0 0 0 0 0 0m-285.714 -464.286c0 -68.824 -24.461 -127.697 -73.382 -176.618c-48.921 -48.921 -107.794 -73.382 -176.618 -73.382c-68.825 0 -127.697 24.461 -176.619 73.382c-48.921 48.921 -73.381 107.794 -73.381 176.618c0 68.825 24.46 127.697 73.381 176.619c48.922 48.921 107.794 73.381 176.619 73.381c68.824 0 127.697 -24.46 176.618 -73.381c48.921 -48.922 73.382 -107.794 73.382 -176.619c0 0 0 0 0 0m-71.429 -17.857c0 0 0 35.714 0 35.714c0 4.837 -1.767 9.022 -5.301 12.556c-3.534 3.534 -7.72 5.302 -12.556 5.302c0 0 -321.429 0 -321.429 0c-4.836 0 -9.021 -1.768 -12.555 -5.302c-3.535 -3.534 -5.302 -7.719 -5.302 -12.556c0 0 0 -35.714 0 -35.714c0 -4.836 1.767 -9.021 5.302 -12.556c3.534 -3.534 7.719 -5.301 12.555 -5.301c0 0 321.429 0 321.429 0c4.836 0 9.022 1.767 12.556 5.301c3.534 3.535 5.301 7.72 5.301 12.556c0 0 0 0 0 0" />
  </g>
</svg>